999
dxfrw 0.6.3
  0
SECTION
  2
HEADER
  9
$ACADVER
  1
AC1021
  9
$DWGCODEPAGE
  3
ANSI_1250
  9
$INSBASE
 10
0
 20
0
 30
0
  9
$EXTMIN
 10
-3699
 20
-45.49000097561327
 30
0
  9
$EXTMAX
 10
-1081.84285653789
 20
3217.4
 30
0
  9
$LIMMIN
 10
0
 20
0
  9
$LIMMAX
 10
420
 20
297
  9
$ORTHOMODE
 70
    0
  9
$REGENMODE
 70
    1
  9
$FILLMODE
 70
    1
  9
$QTEXTMODE
 70
    0
  9
$MIRRTEXT
 70
    0
  9
$LTSCALE
 40
1
  9
$ATTMODE
 70
    0
  9
$TEXTSIZE
 40
2.5
  9
$TRACEWID
 40
15.68
  9
$TEXTSTYLE
  7
STANDARD
  9
$CLAYER
  8
1
  9
$CELTYPE
  6
BYLAYER
  9
$CECOLOR
 62
  256
  9
$CELTSCALE
 40
1
  9
$DISPSILH
 70
    0
  9
$DIMSCALE
 40
2.5
  9
$DIMASZ
 40
2.5
  9
$DIMEXO
 40
0.625
  9
$DIMDLI
 40
3.75
  9
$DIMRND
 40
0
  9
$DIMDLE
 40
0
  9
$DIMEXE
 40
1.25
  9
$DIMTP
 40
0
  9
$DIMTM
 40
0
  9
$DIMTXT
 40
2.5
  9
$DIMCEN
 40
2.5
  9
$DIMTSZ
 40
0
  9
$DIMTOL
 70
    0
  9
$DIMLIM
 70
    0
  9
$DIMTIH
 70
    0
  9
$DIMTOH
 70
    0
  9
$DIMSE1
 70
    0
  9
$DIMSE2
 70
    0
  9
$DIMTAD
 70
    1
  9
$DIMZIN
 70
    8
  9
$DIMBLK
  1

  9
$DIMASO
 70
    1
  9
$DIMSHO
 70
    1
  9
$DIMPOST
  1

  9
$DIMAPOST
  1

  9
$DIMALT
 70
    0
  9
$DIMALTD
 70
    3
  9
$DIMALTF
 40
0.03937
  9
$DIMLFAC
 40
1
  9
$DIMTOFL
 70
    1
  9
$DIMTVP
 40
0
  9
$DIMTIX
 70
    0
  9
$DIMSOXD
 70
    0
  9
$DIMSAH
 70
    0
  9
$DIMBLK1
  1

  9
$DIMBLK2
  1

  9
$DIMSTYLE
  2
Standard
  9
$DIMCLRD
 70
    0
  9
$DIMCLRE
 70
    0
  9
$DIMCLRT
 70
    0
  9
$DIMTFAC
 40
1
  9
$DIMGAP
 40
0.625
  9
$DIMJUST
 70
    0
  9
$DIMSD1
 70
    0
  9
$DIMSD2
 70
    0
  9
$DIMTOLJ
 70
    0
  9
$DIMTZIN
 70
    8
  9
$DIMALTZ
 70
    0
  9
$DIMALTTZ
 70
    0
  9
$DIMUPT
 70
    0
  9
$DIMDEC
 70
    2
  9
$DIMTDEC
 70
    2
  9
$DIMALTU
 70
    2
  9
$DIMALTTD
 70
    3
  9
$DIMTXSTY
  7
STANDARD
  9
$DIMAUNIT
 70
    0
  9
$DIMADEC
 70
    0
  9
$DIMALTRND
 40
0
  9
$DIMAZIN
 70
    0
  9
$DIMDSEP
 70
   44
  9
$DIMATFIT
 70
    3
  9
$DIMFRAC
 70
    0
  9
$DIMLDRBLK
  1
STANDARD
  9
$DIMLUNIT
 70
    2
  9
$DIMLWD
 70
   -2
  9
$DIMLWE
 70
   -2
  9
$DIMTMOVE
 70
    0
  9
$DIMFXL
 40
1
  9
$DIMFXLON
 70
    0
  9
$DIMJOGANG
 40
0.7854
  9
$DIMTFILL
 70
    0
  9
$DIMTFILLCLR
 70
    0
  9
$DIMARCSYM
 70
    0
  9
$DIMLTYPE
  6

  9
$DIMLTEX1
  6

  9
$DIMLTEX2
  6

  9
$LUNITS
 70
    2
  9
$LUPREC
 70
    4
  9
$SKETCHINC
 40
1
  9
$FILLETRAD
 40
0
  9
$AUNITS
 70
    0
  9
$AUPREC
 70
    2
  9
$MENU
  1
.
  9
$ELEVATION
 40
0
  9
$PELEVATION
 40
0
  9
$THICKNESS
 40
0
  9
$LIMCHECK
 70
    0
  9
$CHAMFERA
 40
0
  9
$CHAMFERB
 40
0
  9
$CHAMFERC
 40
0
  9
$CHAMFERD
 40
0
  9
$SKPOLY
 70
    0
  9
$USRTIMER
 70
    1
  9
$ANGBASE
 50
0
  9
$ANGDIR
 70
    0
  9
$PDMODE
 70
   34
  9
$PDSIZE
 40
0
  9
$PLINEWID
 40
0
  9
$SPLFRAME
 70
    0
  9
$SPLINETYPE
 70
    2
  9
$SPLINESEGS
 70
    8
  9
$HANDSEED
  5
20000
  9
$SURFTAB1
 70
    6
  9
$SURFTAB2
 70
    6
  9
$SURFTYPE
 70
    6
  9
$SURFU
 70
    6
  9
$SURFV
 70
    6
  9
$UCSBASE
  2

  9
$UCSNAME
  2

  9
$UCSORG
 10
0
 20
0
 30
0
  9
$UCSXDIR
 10
1
 20
0
 30
0
  9
$UCSYDIR
 10
0
 20
1
 30
0
  9
$UCSORTHOREF
  2

  9
$UCSORTHOVIEW
 70
    0
  9
$UCSORGTOP
 10
0
 20
0
 30
0
  9
$UCSORGBOTTOM
 10
0
 20
0
 30
0
  9
$UCSORGLEFT
 10
0
 20
0
 30
0
  9
$UCSORGRIGHT
 10
0
 20
0
 30
0
  9
$UCSORGFRONT
 10
0
 20
0
 30
0
  9
$UCSORGBACK
 10
0
 20
0
 30
0
  9
$PUCSBASE
  2

  9
$PUCSNAME
  2

  9
$PUCSORG
 10
0
 20
0
 30
0
  9
$PUCSXDIR
 10
1
 20
0
 30
0
  9
$PUCSYDIR
 10
0
 20
1
 30
0
  9
$PUCSORTHOREF
  2

  9
$PUCSORTHOVIEW
 70
    0
  9
$PUCSORGTOP
 10
0
 20
0
 30
0
  9
$PUCSORGBOTTOM
 10
0
 20
0
 30
0
  9
$PUCSORGLEFT
 10
0
 20
0
 30
0
  9
$PUCSORGRIGHT
 10
0
 20
0
 30
0
  9
$PUCSORGFRONT
 10
0
 20
0
 30
0
  9
$PUCSORGBACK
 10
0
 20
0
 30
0
  9
$USERI1
 70
    0
  9
$USERI2
 70
    0
  9
$USERI3
 70
    0
  9
$USERI4
 70
    0
  9
$USERI5
 70
    0
  9
$USERR1
 40
0
  9
$USERR2
 40
0
  9
$USERR3
 40
0
  9
$USERR4
 40
0
  9
$USERR5
 40
0
  9
$WORLDVIEW
 70
    1
  9
$SHADEDGE
 70
    3
  9
$SHADEDIF
 70
   70
  9
$TILEMODE
 70
    1
  9
$MAXACTVP
 70
   64
  9
$PINSBASE
 10
0
 20
0
 30
0
  9
$PLIMCHECK
 70
    0
  9
$PEXTMIN
 10
0
 20
0
 30
0
  9
$PEXTMAX
 10
0
 20
0
 30
0
  9
$SNAPSTYLE
 70
    0
  9
$PLIMMIN
 10
0
 20
0
  9
$PLIMMAX
 10
210
 20
297
  9
$UNITMODE
 70
    0
  9
$VISRETAIN
 70
    1
  9
$PLINEGEN
 70
    0
  9
$PSLTSCALE
 70
    1
  9
$TREEDEPTH
 70
 3020
  9
$CMLSTYLE
  2
Standard
  9
$CMLJUST
 70
    0
  9
$CMLSCALE
 40
20
  9
$PROXYGRAPHICS
 70
    1
  9
$MEASUREMENT
 70
    1
  9
$CELWEIGHT
370
   -1
  9
$ENDCAPS
280
    0
  9
$JOINSTYLE
280
    0
  9
$LWDISPLAY
290
    0
  9
$INSUNITS
 70
    4
  9
$HYPERLINKBASE
  1

  9
$STYLESHEET
  1

  9
$XEDIT
290
    1
  9
$CEPSNTYPE
380
    0
  9
$PSTYLEMODE
290
    1
  9
$EXTNAMES
290
    1
  9
$PSVPSCALE
 40
1
  9
$OLESTARTUP
290
    0
  9
$SORTENTS
280
  127
  9
$INDEXCTL
280
    0
  9
$HIDETEXT
280
    1
  9
$XCLIPFRAME
290
    0
  9
$HALOGAP
280
    0
  9
$OBSCOLOR
 70
  257
  9
$OBSLTYPE
280
    0
  9
$INTERSECTIONDISPLAY
280
    0
  9
$INTERSECTIONCOLOR
 70
  257
  9
$DIMASSOC
280
    1
  9
$PROJECTNAME
  1

  9
$CAMERADISPLAY
290
    0
  9
$LENSLENGTH
 40
50
  9
$CAMERAHEIGHT
 40
0
  9
$STEPSPERSEC
 40
2
  9
$STEPSIZE
 40
50
  9
$3DDWFPREC
 40
2
  9
$PSOLWIDTH
 40
5
  9
$PSOLHEIGHT
 40
80
  9
$LOFTANG1
 40
1.570796326794897
  9
$LOFTANG2
 40
1.570796326794897
  9
$LOFTMAG1
 40
0
  9
$LOFTMAG2
 40
0
  9
$LOFTPARAM
 70
    7
  9
$LOFTNORMALS
280
    1
  9
$LATITUDE
 40
1
  9
$LONGITUDE
 40
1
  9
$NORTHDIRECTION
 40
0
  9
$TIMEZONE
 70
-8000
  9
$LIGHTGLYPHDISPLAY
280
    1
  9
$TILEMODELIGHTSYNCH
280
    1
  9
$SOLIDHIST
280
    1
  9
$SHOWHIST
280
    1
  9
$DWFFRAME
280
    2
  9
$DGNFRAME
280
    0
  9
$REALWORLDSCALE
290
    1
  9
$INTERFERECOLOR
 62
    1
  9
$CSHADOW
280
    0
  9
$SHADOWPLANELOCATION
 40
0
  0
ENDSEC
  0
SECTION
  2
CLASSES
  0
ENDSEC
  0
SECTION
  2
TABLES
  0
TABLE
  2
VPORT
  5
8
330
0
100
AcDbSymbolTable
 70
    1
  0
VPORT
  5
31
330
2
100
AcDbSymbolTableRecord
100
AcDbViewportTableRecord
  2
*ACTIVE
 70
    0
 10
0
 20
0
 11
1
 21
1
 12
1176.202756833029
 22
1466.061277356036
 13
0
 23
0
 14
10
 24
10
 15
10
 25
10
 16
0
 26
0
 36
1
 17
0
 27
0
 37
0
 40
3923.869889394098
 41
1.956043956043956
 42
50
 43
0
 44
0
 50
0
 51
0
 71
    0
 72
  100
 73
    1
 74
    3
 75
    0
 76
    1
 77
    0
 78
    0
281
    0
 65
    1
110
0
120
0
130
0
111
1
121
0
131
0
112
0
122
1
132
0
 79
    0
146
0
348
10020
 60
    7
 61
    5
292
1
282
    1
141
0
142
0
 63
  250
421
3358443
  0
ENDTAB
  0
TABLE
  2
LTYPE
  5
5
330
0
100
AcDbSymbolTable
 70
    4
  0
LTYPE
  5
14
330
5
100
AcDbSymbolTableRecord
100
AcDbLinetypeTableRecord
  2
ByBlock
 70
    0
  3

 72
   65
 73
    0
 40
0
  0
LTYPE
  5
15
330
5
100
AcDbSymbolTableRecord
100
AcDbLinetypeTableRecord
  2
ByLayer
 70
    0
  3

 72
   65
 73
    0
 40
0
  0
LTYPE
  5
16
330
5
100
AcDbSymbolTableRecord
100
AcDbLinetypeTableRecord
  2
Continuous
 70
    0
  3
Solid line
 72
   65
 73
    0
 40
0
  0
LTYPE
  5
32
330
5
100
AcDbSymbolTableRecord
100
AcDbLinetypeTableRecord
  2
DOT
 70
    0
  3
Dot . . . . . . . . . . . . . . . . . . . . . .
 72
   65
 73
    2
 40
6.35
 49
0
 74
    0
 49
-6.35
 74
    0
  0
LTYPE
  5
33
330
5
100
AcDbSymbolTableRecord
100
AcDbLinetypeTableRecord
  2
DOTTINY
 70
    0
  3
Dot (.15x) .....................................
 72
   65
 73
    2
 40
0.9525
 49
0
 74
    0
 49
-0.9525
 74
    0
  0
LTYPE
  5
34
330
5
100
AcDbSymbolTableRecord
100
AcDbLinetypeTableRecord
  2
DOT2
 70
    0
  3
Dot (.5x) .....................................
 72
   65
 73
    2
 40
3.175
 49
0
 74
    0
 49
-3.175
 74
    0
  0
LTYPE
  5
35
330
5
100
AcDbSymbolTableRecord
100
AcDbLinetypeTableRecord
  2
DOTX2
 70
    0
  3
Dot (2x) .  .  .  .  .  .  .  .  .  .  .  .  .
 72
   65
 73
    2
 40
12.7
 49
0
 74
    0
 49
-12.7
 74
    0
  0
LTYPE
  5
36
330
5
100
AcDbSymbolTableRecord
100
AcDbLinetypeTableRecord
  2
DASHED
 70
    0
  3
Dashed _ _ _ _ _ _ _ _ _ _ _ _ _ _ _ _ _
 72
   65
 73
    2
 40
19.05
 49
12.7
 74
    0
 49
-6.35
 74
    0
  0
LTYPE
  5
37
330
5
100
AcDbSymbolTableRecord
100
AcDbLinetypeTableRecord
  2
DASHEDTINY
 70
    0
  3
Dashed (.15x) _ _ _ _ _ _ _ _ _ _ _ _ _ _ _ _ _
 72
   65
 73
    2
 40
2.8575
 49
1.905
 74
    0
 49
-0.9525
 74
    0
  0
LTYPE
  5
38
330
5
100
AcDbSymbolTableRecord
100
AcDbLinetypeTableRecord
  2
DASHED2
 70
    0
  3
Dashed (.5x) _ _ _ _ _ _ _ _ _ _ _ _ _ _ _ _ _
 72
   65
 73
    2
 40
9.524999999999999
 49
6.35
 74
    0
 49
-3.175
 74
    0
  0
LTYPE
  5
39
330
5
100
AcDbSymbolTableRecord
100
AcDbLinetypeTableRecord
  2
DASHEDX2
 70
    0
  3
Dashed (2x) ____  ____  ____  ____  ____  ___
 72
   65
 73
    2
 40
38.09999999999999
 49
25.4
 74
    0
 49
-12.7
 74
    0
  0
LTYPE
  5
3A
330
5
100
AcDbSymbolTableRecord
100
AcDbLinetypeTableRecord
  2
DASHDOT
 70
    0
  3
Dash dot __ . __ . __ . __ . __ . __ . __ . __
 72
   65
 73
    4
 40
25.4
 49
12.7
 74
    0
 49
-6.35
 74
    0
 49
0
 74
    0
 49
-6.35
 74
    0
  0
LTYPE
  5
3B
330
5
100
AcDbSymbolTableRecord
100
AcDbLinetypeTableRecord
  2
DASHDOTTINY
 70
    0
  3
Dash dot (.15x) _._._._._._._._._._._._._._._.
 72
   65
 73
    4
 40
3.81
 49
1.905
 74
    0
 49
-0.9525
 74
    0
 49
0
 74
    0
 49
-0.9525
 74
    0
  0
LTYPE
  5
3C
330
5
100
AcDbSymbolTableRecord
100
AcDbLinetypeTableRecord
  2
DASHDOT2
 70
    0
  3
Dash dot (.5x) _._._._._._._._._._._._._._._.
 72
   65
 73
    4
 40
12.7
 49
6.35
 74
    0
 49
-3.175
 74
    0
 49
0
 74
    0
 49
-3.175
 74
    0
  0
LTYPE
  5
3D
330
5
100
AcDbSymbolTableRecord
100
AcDbLinetypeTableRecord
  2
DASHDOTX2
 70
    0
  3
Dash dot (2x) ____  .  ____  .  ____  .  ___
 72
   65
 73
    4
 40
50.8
 49
25.4
 74
    0
 49
-12.7
 74
    0
 49
0
 74
    0
 49
-12.7
 74
    0
  0
LTYPE
  5
3E
330
5
100
AcDbSymbolTableRecord
100
AcDbLinetypeTableRecord
  2
DIVIDE
 70
    0
  3
Divide ____ . . ____ . . ____ . . ____ . . ____
 72
   65
 73
    6
 40
31.75
 49
12.7
 74
    0
 49
-6.35
 74
    0
 49
0
 74
    0
 49
-6.35
 74
    0
 49
0
 74
    0
 49
-6.35
 74
    0
  0
LTYPE
  5
3F
330
5
100
AcDbSymbolTableRecord
100
AcDbLinetypeTableRecord
  2
DIVIDETINY
 70
    0
  3
Divide (.15x) __..__..__..__..__..__..__..__.._
 72
   65
 73
    6
 40
4.7625
 49
1.905
 74
    0
 49
-0.9525
 74
    0
 49
0
 74
    0
 49
-0.9525
 74
    0
 49
0
 74
    0
 49
-0.9525
 74
    0
  0
LTYPE
  5
40
330
5
100
AcDbSymbolTableRecord
100
AcDbLinetypeTableRecord
  2
DIVIDE2
 70
    0
  3
Divide (.5x) __..__..__..__..__..__..__..__.._
 72
   65
 73
    6
 40
15.875
 49
6.35
 74
    0
 49
-3.175
 74
    0
 49
0
 74
    0
 49
-3.175
 74
    0
 49
0
 74
    0
 49
-3.175
 74
    0
  0
LTYPE
  5
41
330
5
100
AcDbSymbolTableRecord
100
AcDbLinetypeTableRecord
  2
DIVIDEX2
 70
    0
  3
Divide (2x) ________  .  .  ________  .  .  _
 72
   65
 73
    6
 40
63.5
 49
25.4
 74
    0
 49
-12.7
 74
    0
 49
0
 74
    0
 49
-12.7
 74
    0
 49
0
 74
    0
 49
-12.7
 74
    0
  0
LTYPE
  5
42
330
5
100
AcDbSymbolTableRecord
100
AcDbLinetypeTableRecord
  2
BORDER
 70
    0
  3
Border __ __ . __ __ . __ __ . __ __ . __ __ .
 72
   65
 73
    6
 40
44.45
 49
12.7
 74
    0
 49
-6.35
 74
    0
 49
12.7
 74
    0
 49
-6.35
 74
    0
 49
0
 74
    0
 49
-6.35
 74
    0
  0
LTYPE
  5
43
330
5
100
AcDbSymbolTableRecord
100
AcDbLinetypeTableRecord
  2
BORDERTINY
 70
    0
  3
Border (.15x) __.__.__.__.__.__.__.__.__.__.__.
 72
   65
 73
    6
 40
6.6675
 49
1.905
 74
    0
 49
-0.9525
 74
    0
 49
1.905
 74
    0
 49
-0.9525
 74
    0
 49
0
 74
    0
 49
-0.9525
 74
    0
  0
LTYPE
  5
44
330
5
100
AcDbSymbolTableRecord
100
AcDbLinetypeTableRecord
  2
BORDER2
 70
    0
  3
Border (.5x) __.__.__.__.__.__.__.__.__.__.__.
 72
   65
 73
    6
 40
22.225
 49
6.35
 74
    0
 49
-3.175
 74
    0
 49
6.35
 74
    0
 49
-3.175
 74
    0
 49
0
 74
    0
 49
-3.175
 74
    0
  0
LTYPE
  5
45
330
5
100
AcDbSymbolTableRecord
100
AcDbLinetypeTableRecord
  2
BORDERX2
 70
    0
  3
Border (2x) ____  ____  .  ____  ____  .  ___
 72
   65
 73
    6
 40
88.89999999999999
 49
25.4
 74
    0
 49
-12.7
 74
    0
 49
25.4
 74
    0
 49
-12.7
 74
    0
 49
0
 74
    0
 49
-12.7
 74
    0
  0
LTYPE
  5
46
330
5
100
AcDbSymbolTableRecord
100
AcDbLinetypeTableRecord
  2
CENTER
 70
    0
  3
Center ____ _ ____ _ ____ _ ____ _ ____ _ ____
 72
   65
 73
    4
 40
50.8
 49
31.75
 74
    0
 49
-6.35
 74
    0
 49
6.35
 74
    0
 49
-6.35
 74
    0
  0
LTYPE
  5
47
330
5
100
AcDbSymbolTableRecord
100
AcDbLinetypeTableRecord
  2
CENTERTINY
 70
    0
  3
Center (.15x) ___ _ ___ _ ___ _ ___ _ ___ _ ___
 72
   65
 73
    4
 40
7.62
 49
4.7625
 74
    0
 49
-0.9525
 74
    0
 49
0.9525
 74
    0
 49
-0.9525
 74
    0
  0
LTYPE
  5
48
330
5
100
AcDbSymbolTableRecord
100
AcDbLinetypeTableRecord
  2
CENTER2
 70
    0
  3
Center (.5x) ___ _ ___ _ ___ _ ___ _ ___ _ ___
 72
   65
 73
    4
 40
28.575
 49
19.05
 74
    0
 49
-3.175
 74
    0
 49
3.175
 74
    0
 49
-3.175
 74
    0
  0
LTYPE
  5
49
330
5
100
AcDbSymbolTableRecord
100
AcDbLinetypeTableRecord
  2
CENTERX2
 70
    0
  3
Center (2x) ________  __  ________  __  _____
 72
   65
 73
    4
 40
101.6
 49
63.5
 74
    0
 49
-12.7
 74
    0
 49
12.7
 74
    0
 49
-12.7
 74
    0
  0
ENDTAB
  0
TABLE
  2
LAYER
  5
2
330
0
100
AcDbSymbolTable
 70
    1
  0
LAYER
  5
10
330
2
100
AcDbSymbolTableRecord
100
AcDbLayerTableRecord
  2
0
 70
    1
 62
    7
  6
CONTINUOUS
370
    0
390
F
  0
LAYER
  5
4A
330
2
100
AcDbSymbolTableRecord
100
AcDbLayerTableRecord
  2
1
 70
    0
 62
    7
  6
CONTINUOUS
370
   -3
390
F
  0
LAYER
  5
4B
330
2
100
AcDbSymbolTableRecord
100
AcDbLayerTableRecord
  2
11
 70
    1
 62
    7
  6
CONTINUOUS
370
   -3
390
F
  0
LAYER
  5
4C
330
2
100
AcDbSymbolTableRecord
100
AcDbLayerTableRecord
  2
51
 70
    1
 62
    7
  6
CONTINUOUS
370
   -3
390
F
  0
LAYER
  5
4D
330
2
100
AcDbSymbolTableRecord
100
AcDbLayerTableRecord
  2
52
 70
    1
 62
    7
  6
CONTINUOUS
370
   -3
390
F
  0
LAYER
  5
4E
330
2
100
AcDbSymbolTableRecord
100
AcDbLayerTableRecord
  2
53
 70
    1
 62
    7
  6
CONTINUOUS
370
   -3
390
F
  0
LAYER
  5
4F
330
2
100
AcDbSymbolTableRecord
100
AcDbLayerTableRecord
  2
54
 70
    1
 62
    7
  6
CONTINUOUS
370
   -3
390
F
  0
LAYER
  5
50
330
2
100
AcDbSymbolTableRecord
100
AcDbLayerTableRecord
  2
72
 70
    1
 62
    7
  6
CONTINUOUS
370
   -3
390
F
  0
ENDTAB
  0
TABLE
  2
STYLE
  5
3
330
0
100
AcDbSymbolTable
 70
    3
  0
STYLE
  5
51
330
2
100
AcDbSymbolTableRecord
100
AcDbTextStyleTableRecord
  2
STANDARD
 70
    0
 40
0
 41
1
 50
0
 71
    0
 42
1
  3
STANDARD
  4

  0
ENDTAB
  0
TABLE
  2
VIEW
  5
6
330
0
100
AcDbSymbolTable
 70
    0
  0
ENDTAB
  0
TABLE
  2
UCS
  5
7
330
0
100
AcDbSymbolTable
 70
    0
  0
ENDTAB
  0
TABLE
  2
APPID
  5
9
330
0
100
AcDbSymbolTable
 70
    1
  0
APPID
  5
12
330
9
100
AcDbSymbolTableRecord
100
AcDbRegAppTableRecord
  2
ACAD
 70
    0
  0
APPID
  5
52
330
9
100
AcDbSymbolTableRecord
100
AcDbRegAppTableRecord
  2
LibreCad
 70
    0
  0
ENDTAB
  0
TABLE
  2
DIMSTYLE
  5
A
330
0
100
AcDbSymbolTable
 70
    1
100
AcDbDimStyleTable
 71
    1
  0
DIMSTYLE
105
53
330
A
100
AcDbSymbolTableRecord
100
AcDbDimStyleTableRecord
  2
Standard
 70
    0
 40
1
 41
2.5
 42
0.625
 43
0.38
 44
1.25
 45
0
 46
0
 47
0
 48
0
 49
1
140
2.5
141
0.09
142
2.5
143
25.4
144
1
145
0
146
1
147
0.625
148
0
 71
    0
 72
    0
 73
    0
 74
    1
 75
    0
 76
    0
 77
    0
 78
    1
 79
    0
170
    0
171
    2
172
    0
173
    0
174
    0
175
    0
176
    0
177
    0
178
    0
179
    0
271
    2
272
    4
273
    2
274
    2
275
    0
276
    0
277
    2
278
    0
279
    0
280
    0
281
    0
282
    0
283
    1
284
    0
285
    0
286
    0
288
    0
289
    3
340
standard
341

371
   -2
372
   -2
  0
ENDTAB
  0
TABLE
  2
BLOCK_RECORD
  5
1
330
0
100
AcDbSymbolTable
 70
    2
  0
BLOCK_RECORD
  5
1F
330
1
100
AcDbSymbolTableRecord
100
AcDbBlockTableRecord
  2
*Model_Space
 70
    0
280
    1
281
    0
  0
BLOCK_RECORD
  5
1E
330
1
100
AcDbSymbolTableRecord
100
AcDbBlockTableRecord
  2
*Paper_Space
 70
    0
280
    1
281
    0
  0
ENDTAB
  0
ENDSEC
  0
SECTION
  2
BLOCKS
  0
BLOCK
  5
20
330
1F
100
AcDbEntity
  8
0
100
AcDbBlockBegin
  2
*Model_Space
 70
    0
 10
0
 20
0
 30
0
  3
*Model_Space
  1

  0
ENDBLK
  5
21
330
1F
100
AcDbEntity
  8
0
100
AcDbBlockEnd
  0
BLOCK
  5
1C
330
1B
100
AcDbEntity
  8
0
100
AcDbBlockBegin
  2
*Paper_Space
 70
    0
 10
0
 20
0
 30
0
  3
*Paper_Space
  1

  0
ENDBLK
  5
1D
330
1F
100
AcDbEntity
  8
0
100
AcDbBlockEnd
  0
ENDSEC
  0
SECTION
  2
ENTITIES
  0
TEXT
  5
54
100
AcDbEntity
  8
72
  6
ByLayer
 62
    3
370
   -1
100
AcDbText
 10
-3342.8
 20
1398.8
 30
0
 40
8
  1
MARK_1
 50
90
 41
1
 51
0
  7
STANDARD
 71
    0
 11
-3342.8
 21
1398.8
 31
0
210
0
220
0
230
1
100
AcDbText
 73
    1
  0
TEXT
  5
55
100
AcDbEntity
  8
72
  6
ByLayer
 62
    3
370
   -1
100
AcDbText
 10
-3346
 20
2394.8
 30
0
 40
8
  1
MARK_2
 50
90
 41
1
 51
0
  7
STANDARD
 71
    0
 11
-3346
 21
2394.8
 31
0
210
0
220
0
230
1
100
AcDbText
 73
    1
  0
LWPOLYLINE
  5
56
100
AcDbEntity
  8
51
  6
ByLayer
 62
    7
370
   -1
100
AcDbPolyline
 90
   49
 70
    1
 43
0
 10
-1859.90176171724
 20
1989.3762767814
 10
-1859.41923503128
 20
1975.16274859859
 10
-1857.7090295878
 20
1968.2743200659
 10
-1855.10233794481
 20
1960.05112255963
 10
-1854.86075964729
 20
1959.61491629142
 10
-1842.06549932224
 20
1936.51113248991
 10
-1831.80405391986
 20
1923.27704400743
 10
-1818.10206602291
 20
1908.84709411114
 10
-1817.77780308714
 20
1908.60118029828
 10
-1786.60234678055
 20
1884.95840623267
 10
-1780.55971039499
 20
1892.92625070353
 10
-1811.41090376581
 20
1916.32311095628
 10
-1824.20793044085
 20
1929.80002066682
 10
-1833.6907255507
 20
1942.02989127706
 10
-1845.8711584274
 20
1964.02351083952
 10
-1848.08034679992
 20
1970.99272500211
 10
-1849.46064925134
 20
1976.55235810134
 10
-1849.87492425193
 20
1988.75543322204
 10
-1847.50499645617
 20
2003.66700691065
 10
-1847.14403364316
 20
2013.6134994344
 10
-1844.73370782403
 20
2027.50898865419
 10
-1841.39232406728
 20
2038.2114723918
 10
-1833.49183524704
 20
2071.84637724197
 10
-1807.79536237409
 20
2144.50300064713
 10
-1756.92345204902
 20
2268.13392689307
 10
-1711.42554001317
 20
2367.03432521696
 10
-1660.40948662655
 20
2473.38367281522
 10
-1631.29111477228
 20
2531.95397306425
 10
-1562.81958599462
 20
2658.40961563544
 10
-1529.5869640479
 20
2714.10129982596
 10
-1496.9993146887
 20
2762.01378635601
 10
-1505.268005214
 20
2767.63773132345
 10
-1538.02237141765
 20
2719.48012682014
 10
-1538.09832353782
 20
2719.35284521424
 10
-1571.4603767577
 20
2663.44425831886
 10
-1571.51385591071
 20
2663.35463721992
 10
-1571.56354880728
 20
2663.26286261988
 10
-1640.16786939026
 20
2536.56197544309
 10
-1669.39529467047
 20
2477.77231911425
 10
-1669.41052892735
 20
2477.74056139933
 10
-1720.47665266186
 20
2371.28683589491
 10
-1766.09350626555
 20
2272.12789013642
 10
-1817.1390233325
 20
2148.07505792779
 10
-1843.01072501137
 20
2074.92297612159
 10
-1843.10187010599
 20
2074.66526391153
 10
-1851.04512064684
 20
2040.84830875575
 10
-1854.47458614697
 20
2029.86369836203
 10
-1857.11285097595
 20
2014.65414445063
 10
-1857.47638811559
 20
2004.63671519986
  0
LWPOLYLINE
  5
57
100
AcDbEntity
  8
51
  6
ByLayer
 62
    7
370
   -1
100
AcDbPolyline
 90
    8
 70
    1
 43
0
 10
-2631.40800495347
 20
1197.70411134589
 10
-2627.54830923808
 20
1192.54708467691
 10
-2625.38940175721
 20
1192.11482233869
 10
-2623.15365243012
 20
1194.67974361359
 10
-2623.99155324447
 20
1196.07692308141
 10
-2624.47376703674
 20
1197.88042638846
 10
-2627.36907324331
 20
1199.25264644742
 10
-2630.18838614843
 20
1199.65965021034
  0
LWPOLYLINE
  5
58
100
AcDbEntity
  8
51
  6
ByLayer
 62
    7
370
   -1
100
AcDbPolyline
 90
    3
 70
    1
 43
0
 10
-1644.91236102941
 20
1617.17395754716
 10
-1546.27072645913
 20
1442.6802295193
 10
-1525.99177542238
 20
1408.54586056061
  0
LWPOLYLINE
  5
59
100
AcDbEntity
  8
51
  6
ByLayer
 62
    7
370
   -1
100
AcDbPolyline
 90
   22
 70
    1
 43
0
 10
-2444.12602798218
 20
1940.9005956567
 10
-2442.42586972205
 20
1938.435662479
 10
-2430.79434750827
 20
1935.91331309986
 10
-2410.90794557513
 20
1933.20766435063
 10
-2382.51212249869
 20
1931.13134683834
 10
-2343.09158506526
 20
1930.72408512715
 10
-2140.26785827645
 20
1937.75176727549
 10
-2080.19741308683
 20
1936.89894867563
 10
-2065.05742584767
 20
1939.27646307477
 10
-2069.64211696112
 20
1958.35492158993
 10
-2087.26610882105
 20
1963.77686374391
 10
-2100.67635825447
 20
1965.20819785363
 10
-2108.58132359614
 20
1956.8568622199
 10
-2133.37209036275
 20
1956.3145774938
 10
-2161.74618535829
 20
1952.87907930792
 10
-2199.97436136373
 20
1951.12654619897
 10
-2236.47452553197
 20
1950.59206217379
 10
-2310.44199959917
 20
1946.6027377795
 10
-2344.93564881898
 20
1945.93991700295
 10
-2403.10080676991
 20
1947.22326641248
 10
-2425.07205571334
 20
1946.85690338704
 10
-2438.84051094191
 20
1944.3768752624
  0
LWPOLYLINE
  5
5A
100
AcDbEntity
  8
51
  6
ByLayer
 62
    7
370
   -1
100
AcDbPolyline
 90
   26
 70
    1
 43
0
 10
-2097.37115758283
 20
1997.05570450476
 10
-2097.04478909425
 20
1950.91188904842
 10
-2097.04374380784
 20
1950.76410056846
 10
-2094.12809235846
 20
1906.76698746282
 10
-2088.0018297618
 20
1866.3715335836
 10
-2078.11488287367
 20
1867.87096055123
 10
-2084.1778786932
 20
1907.84924488586
 10
-2087.04608449761
 20
1951.13040430343
 10
-2087.36864944564
 20
1996.73645376997
 10
-2084.21634331576
 20
2041.13252083965
 10
-2077.95043310506
 20
2083.7304364909
 10
-2070.45161489159
 20
2127.15678261208
 10
-2063.19277621545
 20
2154.39194020395
 10
-2057.31431671174
 20
2169.73202879016
 10
-2054.62456752712
 20
2173.43912685603
 10
-2062.71848931317
 20
2179.3118119422
 10
-2066.18119046543
 20
2174.53940683558
 10
-2072.71951973909
 20
2157.47736018876
 10
-2080.22959998347
 20
2129.29954441011
 10
-2087.81520888093
 20
2085.37058545365
 10
-2087.82582141065
 20
2085.30912731774
 10
-2087.83489767632
 20
2085.24742359291
 10
-2094.13724244999
 20
2042.40181265275
 10
-2094.16460074728
 20
2042.21582108866
 10
-2094.177915508
 20
2042.02830027518
 10
-2097.35734699071
 20
1997.25020844838
  0
LWPOLYLINE
  5
5B
100
AcDbEntity
  8
51
  6
ByLayer
 62
    7
370
   -1
100
AcDbPolyline
 90
   14
 70
    1
 43
0
 10
-1599.10334283523
 20
2569.05885533571
 10
-1597.60618029199
 20
2528.77344899942
 10
-1589.96699090812
 20
2481.32114930762
 10
-1575.32137957602
 20
2427.89518067259
 10
-1556.33402749124
 20
2371.97711905443
 10
-1531.24945842845
 20
2317.88379592802
 10
-1503.44558397662
 20
2266.04926172514
 10
-1475.25805297148
 20
2218.20227281845
 10
-1416.33713676884
 20
2131.29500092885
 10
-1390.27440623498
 20
2096.65743047708
 10
-1365.68196491746
 20
2066.38964048895
 10
-1328.32077178951
 20
2024.93734158697
 10
-1317.66148860576
 20
2011.84923756045
 10
-1598.37747226051
 20
2591.08017665368
  0
LWPOLYLINE
  5
5C
100
AcDbEntity
  8
51
  6
ByLayer
 62
    7
370
   -1
100
AcDbPolyline
 90
   19
 70
    1
 43
0
 10
-3016.30402100886
 20
933.288539575574
 10
-3012.19170146486
 20
921.705258660047
 10
-2983.62126032856
 20
900.413939834841
 10
-2956.31810490773
 20
891.797492688485
 10
-2889.77396840027
 20
873.749241901309
 10
-2860.61584606803
 20
868.713797597393
 10
-2733.79676184646
 20
1091.36844449791
 10
-2746.95208495537
 20
1100.13426190078
 10
-2761.47941598703
 20
1106.99537307436
 10
-2778.03973150162
 20
1109.25951950453
 10
-2795.59139218987
 20
1108.04407815069
 10
-2836.05646869916
 20
1094.61614340639
 10
-2861.001889913
 20
1082.37868516768
 10
-2876.95530881818
 20
1072.01890134197
 10
-2904.87425425037
 20
1051.73027969647
 10
-2926.87434709152
 20
1034.48839060331
 10
-2986.52506091173
 20
980.7293635230239
 10
-3002.40379740836
 20
963.282963541634
 10
-3012.69402816989
 20
948.197566840372
  0
LWPOLYLINE
  5
5D
100
AcDbEntity
  8
51
  6
ByLayer
 62
    7
370
   -1
100
AcDbPolyline
 90
   15
 70
    1
 43
0
 10
-2117.23538556393
 20
2684.87179697218
 10
-2116.38251383449
 20
2668.7676252228
 10
-2109.65879146999
 20
2657.84114351251
 10
-2097.34377069977
 20
2651.8639380259
 10
-2088.47607607627
 20
2656.50623147465
 10
-2077.24044566976
 20
2669.75754933548
 10
-2068.28759971655
 20
2687.8363890388
 10
-2049.78978879002
 20
2735.88087661864
 10
-2042.05233528273
 20
2759.67552727426
 10
-2038.28201884901
 20
2776.36081922465
 10
-2057.48253751092
 20
2817.31841953272
 10
-2067.62111175814
 20
2811.35617244007
 10
-2085.14795274914
 20
2771.97243993034
 10
-2092.86049697861
 20
2747.44117251691
 10
-2112.09321561566
 20
2701.93717508998
  0
LWPOLYLINE
  5
5E
100
AcDbEntity
  8
51
  6
ByLayer
 62
    7
370
   -1
100
AcDbPolyline
 90
    9
 70
    1
 43
0
 10
-1737.78922570655
 20
2070.62533606505
 10
-1354.4048408546
 20
2599.45204605623
 10
-1367.37010753929
 20
2582.54427965274
 10
-1450.25862896322
 20
2493.82647958122
 10
-1484.42209399466
 20
2455.01263037288
 10
-1519.45108785813
 20
2413.30375712993
 10
-1581.86489561234
 20
2328.05211775056
 10
-1662.97654997234
 20
2199.50592510743
 10
-1686.14173283804
 20
2160.81174896526
  0
LWPOLYLINE
  5
5F
100
AcDbEntity
  8
51
  6
ByLayer
 62
    7
370
   -1
100
AcDbPolyline
 90
   17
 70
    1
 43
0
 10
-3236.96592046486
 20
843.8889521871949
 10
-3227.75923897026
 20
839.985490152408
 10
-3216.37862206749
 20
866.827743030005
 10
-3203.10684514613
 20
893.783227463964
 10
-3187.20445164853
 20
919.405434701326
 10
-3171.57333700057
 20
941.568565213129
 10
-3157.49653459468
 20
956.815969022141
 10
-3144.99768118608
 20
966.489018612001
 10
-3151.11803549147
 20
974.397322044249
 10
-3164.27743509726
 20
964.213065873038
 10
-3179.36659862339
 20
947.869114825815
 10
-3179.55597486649
 20
947.60060100028
 10
-3195.54594360213
 20
924.928656487753
 10
-3211.73263481179
 20
898.8483839348449
 10
-3211.86186747832
 20
898.6401620615731
 10
-3211.97011838342
 20
898.420300350144
 10
-3225.47498462835
 20
870.991402621916
  0
LWPOLYLINE
  5
60
100
AcDbEntity
  8
51
  6
ByLayer
 62
    7
370
   -1
100
AcDbPolyline
 90
    6
 70
    1
 43
0
 10
-1705.14893239896
 20
2646.80084585785
 10
-1702.35385005832
 20
2648.4245841585
 10
-1698.94603741982
 20
2654.74691530618
 10
-1698.25436589473
 20
2663.56025647633
 10
-1697.15827702046
 20
2668.51123356631
 10
-1702.32618261509
 20
2651.82816648197
  0
LWPOLYLINE
  5
61
100
AcDbEntity
  8
51
  6
ByLayer
 62
    7
370
   -1
100
AcDbPolyline
 90
   10
 70
    1
 43
0
 10
-3279.68180356119
 20
860.710736755299
 10
-3270.43093040647
 20
856.91319203861
 10
-3262.0684822164
 20
877.284235236418
 10
-3251.02013279977
 20
894.340056250856
 10
-3238.85984723584
 20
904.476691793749
 10
-3226.789874999
 20
906.581120272947
 10
-3228.50748767551
 20
916.432506302004
 10
-3243.21011567248
 20
913.869068004982
 10
-3258.58834668538
 20
901.050000372688
 10
-3270.96654242252
 20
881.941237333687
  0
LWPOLYLINE
  5
62
100
AcDbEntity
  8
51
  6
ByLayer
 62
    7
370
   -1
100
AcDbPolyline
 90
    6
 70
    1
 43
0
 10
-3264.30183145414
 20
1637.65766296112
 10
-3256.60972810692
 20
1631.5057371833
 10
-3253.48574877657
 20
1631.17345594158
 10
-3253.12965813894
 20
1631.90981888048
 10
-3253.89079498558
 20
1633.20572623083
 10
-3261.93956429328
 20
1637.75768926138
  0
LWPOLYLINE
  5
63
100
AcDbEntity
  8
51
  6
ByLayer
 62
    7
370
   -1
100
AcDbPolyline
 90
   44
 70
    1
 43
0
 10
-1924.23266290628
 20
1951.64228361614
 10
-1923.20142759033
 20
1939.22368449125
 10
-1917.31668130585
 20
1921.63807705374
 10
-1917.10195393466
 20
1921.24614580109
 10
-1897.76303021443
 20
1885.94776461938
 10
-1881.81642539849
 20
1859.92560859341
 10
-1881.72403045747
 20
1859.77483571109
 10
-1881.62121513763
 20
1859.63096668325
 10
-1860.77908966645
 20
1830.4666715718
 10
-1837.26443026473
 20
1795.43601470803
 10
-1837.23022858197
 20
1795.38758564463
 10
-1750.48064166439
 20
1672.55148796126
 10
-1692.41226500082
 20
1592.02052655114
 10
-1589.53207644783
 20
1442.34556650728
 10
-1589.48728739398
 20
1442.28040527517
 10
-1589.4404603354
 20
1442.21669285801
 10
-1540.20420513503
 20
1375.22634741747
 10
-1540.15400107628
 20
1375.15804028841
 10
-1540.1015103215
 20
1375.09147429065
 10
-1498.04080557161
 20
1321.75231409349
 10
-1475.89121177865
 20
1286.36675692875
 10
-1467.4148502982
 20
1291.67253642405
 10
-1489.85240343414
 20
1327.5181291943
 10
-1532.19667352587
 20
1381.21689195363
 10
-1581.3358976089
 20
1448.07521784796
 10
-1684.23512786748
 20
1597.77788066496
 10
-1742.34064461125
 20
1678.36034904905
 10
-1829.02765658008
 20
1801.10784155527
 10
-1852.55791789304
 20
1836.16174116262
 10
-1873.38244892622
 20
1865.30141645384
 10
-1889.10972274181
 20
1890.96566146501
 10
-1908.11719119251
 20
1925.65905373328
 10
-1913.33554327355
 20
1941.25325044658
 10
-1914.16894914655
 20
1951.28949851238
 10
-1912.89309325469
 20
1959.56704042088
 10
-1909.3491736254
 20
1964.99447146037
 10
-1902.94819619305
 20
1970.4736305521
 10
-1884.48309914043
 20
1977.02463000477
 10
-1874.06652785819
 20
1976.71474178065
 10
-1873.76916399855
 20
1986.71031953959
 10
-1886.05974772462
 20
1987.07595877548
 10
-1908.04101913211
 20
1979.27750006449
 10
-1916.93956967689
 20
1971.66044866319
 10
-1922.44728704907
 20
1963.22550674876
  0
LWPOLYLINE
  5
64
100
AcDbEntity
  8
51
  6
ByLayer
 62
    7
370
   -1
100
AcDbPolyline
 90
   13
 70
    1
 43
0
 10
-1638.71796275155
 20
1591.84542940312
 10
-1332.96934065998
 20
1948.13082137949
 10
-1349.4608408761
 20
1937.77860557697
 10
-1370.5530227965
 20
1922.50185361599
 10
-1423.69495388536
 20
1876.69024614461
 10
-1455.46406786384
 20
1848.0094040889
 10
-1485.40695427967
 20
1815.46654455919
 10
-1517.40759558542
 20
1782.39165576992
 10
-1546.71719118943
 20
1747.28297377798
 10
-1573.53782424346
 20
1711.81703358146
 10
-1597.38579497267
 20
1677.64451331004
 10
-1616.76316363877
 20
1643.77381482921
 10
-1631.46497047578
 20
1612.84640218269
  0
LWPOLYLINE
  5
65
100
AcDbEntity
  8
51
  6
ByLayer
 62
    7
370
   -1
100
AcDbPolyline
 90
   10
 70
    1
 43
0
 10
-1712.48209640147
 20
1969.33865419845
 10
-1704.46764459223
 20
1951.40091105953
 10
-1672.63001051697
 20
1892.2992879883
 10
-1650.5779578248
 20
1861.44899025581
 10
-1626.16446711352
 20
1829.45411909977
 10
-1569.54119341347
 20
1763.19858246246
 10
-1536.87233226629
 20
1731.75701177288
 10
-1506.64161675912
 20
1700.69806543972
 10
-1437.95178898043
 20
1636.7712906853
 10
-1204.93566661638
 20
1416.39135639602
  0
LWPOLYLINE
  5
66
100
AcDbEntity
  8
51
  6
ByLayer
 62
    7
370
   -1
100
AcDbPolyline
 90
    9
 70
    1
 43
0
 10
-2019.27686148738
 20
1274.89062572355
 10
-2018.36698708048
 20
1253.7576303901
 10
-2002.6047871453
 20
1201.45565372838
 10
-1992.44835017845
 20
1184.81647835403
 10
-1981.63078434853
 20
1171.58076147751
 10
-1975.02787781726
 20
1166.47394735329
 10
-2006.98049311998
 20
1287.81659276254
 10
-2013.78681722217
 20
1291.90745042518
 10
-2017.95316232302
 20
1288.42854256486
  0
LWPOLYLINE
  5
67
100
AcDbEntity
  8
51
  6
ByLayer
 62
    7
370
   -1
100
AcDbPolyline
 90
   22
 70
    1
 43
0
 10
-1716.83258662854
 20
1996.82435855662
 10
-1709.29290016876
 20
1990.647134312
 10
-1691.89622224233
 20
1987.15574402099
 10
-1665.35463259694
 20
1985.02986177197
 10
-1632.03019533835
 20
1984.47426119703
 10
-1519.73213306775
 20
1991.43525074469
 10
-1451.52786876829
 20
1999.31461540266
 10
-1364.07259158377
 20
2003.90455447255
 10
-1322.46457496572
 20
2008.11863650717
 10
-1291.06745760942
 20
2012.18712092218
 10
-1272.64929742015
 20
2016.92465195458
 10
-1275.73088781095
 20
2042.75851061611
 10
-1290.56032188931
 20
2049.01679124548
 10
-1312.73301097659
 20
2051.29216300394
 10
-1442.36180547417
 20
2032.43011639917
 10
-1476.95988052188
 20
2027.52556424893
 10
-1514.3512273354
 20
2023.71507319495
 10
-1552.58173847474
 20
2018.45734086382
 10
-1589.3888008116
 20
2014.77346059268
 10
-1657.41262543394
 20
2010.8563766066
 10
-1683.01798567375
 20
2007.62223395828
 10
-1714.03579524062
 20
2001.013496288
  0
LWPOLYLINE
  5
68
100
AcDbEntity
  8
52
  6
ByLayer
 62
    7
370
   -1
100
AcDbPolyline
 90
    8
 70
    1
 43
0
 10
-1439.84209426801
 20
2535.75494948015
 10
-1437.99129585276
 20
2530.64831536107
 10
-1428.42114967856
 20
2522.15833792855
 10
-1421.20787278324
 20
2521.67093239777
 10
-1415.82100958441
 20
2524.76614440298
 10
-1411.3209464245
 20
2531.16394791956
 10
-1433.13377143314
 20
2539.83988136001
 10
-1438.16291955335
 20
2539.91943175261
  0
LWPOLYLINE
  5
69
100
AcDbEntity
  8
52
  6
ByLayer
 62
    7
370
   -1
100
AcDbPolyline
 90
   13
 70
    1
 43
0
 10
-2015.17565191775
 20
2650.51379803681
 10
-2008.83418164196
 20
2637.70797056251
 10
-1996.97906817191
 20
2627.6670705604
 10
-1983.31647707834
 20
2623.74636779045
 10
-1967.49116378664
 20
2625.41222547338
 10
-1955.11629015352
 20
2633.02398312878
 10
-1945.1533330243
 20
2642.26294794316
 10
-1936.89065260402
 20
2653.7890459747
 10
-1962.927949301
 20
2688.47739949393
 10
-1976.26330168836
 20
2687.95288327387
 10
-1991.93738258083
 20
2684.53432445228
 10
-2006.5742601769
 20
2674.81587325686
 10
-2014.30345610924
 20
2663.41641985068
  0
LWPOLYLINE
  5
6A
100
AcDbEntity
  8
52
  6
ByLayer
 62
    7
370
   -1
100
AcDbPolyline
 90
   12
 70
    1
 43
0
 10
-1967.64908363232
 20
2731.50815422154
 10
-1964.38008200522
 20
2720.10137390972
 10
-1939.09483543818
 20
2700.34872471409
 10
-1927.56232424906
 20
2701.71264215763
 10
-1918.48878995406
 20
2710.31719935702
 10
-1913.55354263794
 20
2721.79471408491
 10
-1913.97584971518
 20
2736.04439858432
 10
-1916.02577006165
 20
2747.2725667151
 10
-1929.35511540166
 20
2755.76504849412
 10
-1943.52748311481
 20
2757.0190902811
 10
-1957.04356284072
 20
2752.10049348495
 10
-1965.07578197311
 20
2743.36824254207
  0
LWPOLYLINE
  5
6B
100
AcDbEntity
  8
52
  6
ByLayer
 62
    7
370
   -1
100
AcDbPolyline
 90
    8
 70
    1
 43
0
 10
-2114.83871013929
 20
2419.31380054389
 10
-2114.54472995278
 20
2417.94200439242
 10
-2108.19442677919
 20
2418.39497397593
 10
-2111.86599214359
 20
2420.06462230486
 10
-2112.05424448937
 20
2419.87074568056
 10
-2113.32424420755
 20
2419.87159174357
 10
-2113.3558881896
 20
2419.92522464454
 10
-2113.83261636255
 20
2419.31313029277
  0
LWPOLYLINE
  5
6C
100
AcDbEntity
  8
52
  6
ByLayer
 62
    7
370
   -1
100
AcDbPolyline
 90
   20
 70
    1
 43
0
 10
-1978.25745192721
 20
2859.15024974921
 10
-1976.82073567387
 20
2842.51228892922
 10
-1973.45355216386
 20
2825.97464207091
 10
-1963.10458524328
 20
2804.60634293697
 10
-1950.79618068578
 20
2788.69773965418
 10
-1936.83457673082
 20
2776.09003575675
 10
-1919.46634462557
 20
2768.02666340156
 10
-1900.5958917032
 20
2765.39789148582
 10
-1885.15078302773
 20
2768.25780272275
 10
-1869.39667794738
 20
2777.41670950672
 10
-1859.33024258082
 20
2789.47500601043
 10
-1852.69042055568
 20
2805.11698608952
 10
-1848.71565199379
 20
2823.68174225274
 10
-1844.57448958359
 20
2863.2521922271
 10
-1843.44453731169
 20
2881.79344357709
 10
-1843.94011699402
 20
2900.43737786519
 10
-1949.91791251067
 20
2886.96977636668
 10
-1958.63175193962
 20
2884.51178090563
 10
-1967.60148649335
 20
2879.20915528847
 10
-1975.30281192734
 20
2871.51808413811
  0
LWPOLYLINE
  5
6D
100
AcDbEntity
  8
52
  6
ByLayer
 62
    7
370
   -1
100
AcDbPolyline
 90
   16
 70
    1
 43
0
 10
-2026.07461101808
 20
2951.99372572921
 10
-2025.24477030659
 20
2939.445570112
 10
-2022.91934191195
 20
2922.37521714372
 10
-2018.71338326509
 20
2906.70061169219
 10
-2012.06809449002
 20
2892.42138148968
 10
-2001.73819901252
 20
2880.552697169
 10
-1989.95652736015
 20
2874.65204701194
 10
-1977.15716380723
 20
2871.29071944083
 10
-1963.21178852364
 20
2872.44982940974
 10
-1981.12867129749
 20
3010.12979603396
 10
-1990.70144026701
 20
3014.68277434012
 10
-2002.66350083272
 20
3016.69734380837
 10
-2013.00287221591
 20
3014.34203128543
 10
-2019.35872556282
 20
3005.55786355065
 10
-2022.87059176149
 20
2995.55260090529
 10
-2025.3435456165
 20
2981.81284531681
  0
LWPOLYLINE
  5
6E
100
AcDbEntity
  8
52
  6
ByLayer
 62
    7
370
   -1
100
AcDbPolyline
 90
    4
 70
    1
 43
0
 10
-1998.58482663112
 20
2352.43367922686
 10
-1985.81013545837
 20
2350.16456833465
 10
-1989.21161954558
 20
2353.34183507896
 10
-1993.96118159393
 20
2353.70059927569
  0
LWPOLYLINE
  5
6F
100
AcDbEntity
  8
52
  6
ByLayer
 62
    7
370
   -1
100
AcDbPolyline
 90
    3
 70
    1
 43
0
 10
-1765.68859520589
 20
1383.54521632352
 10
-1762.76805762098
 20
1381.38559084323
 10
-1764.41852452294
 20
1383.87514434647
  0
LWPOLYLINE
  5
70
100
AcDbEntity
  8
52
  6
ByLayer
 62
    7
370
   -1
100
AcDbPolyline
 90
   11
 70
    1
 43
0
 10
-1582.80054561327
 20
1302.50544913651
 10
-1581.53426074548
 20
1285.15697756483
 10
-1500.35166339814
 20
1304.7483928261
 10
-1502.35663153526
 20
1312.36882236315
 10
-1508.19756528094
 20
1317.3484733086
 10
-1513.5563668252
 20
1320.14362095574
 10
-1535.80621693665
 20
1322.71378580218
 10
-1540.70908042977
 20
1319.61603567543
 10
-1547.59256186278
 20
1319.23650975874
 10
-1561.51107618052
 20
1322.43989047084
 10
-1577.31171433193
 20
1313.85807396802
  0
LWPOLYLINE
  5
71
100
AcDbEntity
  8
52
  6
ByLayer
 62
    7
370
   -1
100
AcDbPolyline
 90
   16
 70
    1
 43
0
 10
-1658.04611582942
 20
1133.61155904216
 10
-1645.86682796242
 20
1074.24914949628
 10
-1631.62094757422
 20
1057.81229837556
 10
-1602.28856084928
 20
1036.26681637449
 10
-1566.78214663097
 20
1023.25441240606
 10
-1528.12383162309
 20
1020.98553370695
 10
-1489.87020863756
 20
1026.6923418552
 10
-1469.2690902628
 20
1034.71433032621
 10
-1486.12460329788
 20
1200.42754372056
 10
-1501.74433012253
 20
1206.37448880886
 10
-1563.32069531137
 20
1174.79007461373
 10
-1582.90361619604
 20
1177.02946833184
 10
-1604.23964290376
 20
1176.907037422
 10
-1623.92540396692
 20
1173.35525303047
 10
-1639.67548689203
 20
1163.63042567507
 10
-1651.87047283734
 20
1149.68843690182
  0
LWPOLYLINE
  5
72
100
AcDbEntity
  8
52
  6
ByLayer
 62
    7
370
   -1
100
AcDbPolyline
 90
   15
 70
    1
 43
0
 10
-1747.62289223955
 20
2905.9599991512
 10
-1747.58395405417
 20
2888.15456925979
 10
-1741.88178163755
 20
2868.89756624864
 10
-1730.89393988931
 20
2853.34544279246
 10
-1712.00516005931
 20
2840.09945631148
 10
-1691.48556884192
 20
2834.67558513384
 10
-1672.68899769
 20
2835.5266632097
 10
-1657.64788610541
 20
2841.99364438642
 10
-1649.35838430492
 20
2855.65332502324
 10
-1647.54413817735
 20
2871.93352000084
 10
-1651.08340226198
 20
2897.05648340288
 10
-1659.19942020616
 20
2915.04509421556
 10
-1715.07866445356
 20
2954.3253292009
 10
-1728.0394131618
 20
2944.19936129249
 10
-1735.05431266135
 20
2937.44763305957
  0
LWPOLYLINE
  5
73
100
AcDbEntity
  8
52
  6
ByLayer
 62
    7
370
   -1
100
AcDbPolyline
 90
   21
 70
    1
 43
0
 10
-2006.18373878457
 20
1969.60864236712
 10
-2001.44302655527
 20
1955.96568111821
 10
-1988.44689312629
 20
1942.95222031885
 10
-1969.32753355958
 20
1932.67788088707
 10
-1924.52903351017
 20
1922.00543414583
 10
-1895.80365351488
 20
1918.96369687135
 10
-1836.39117151725
 20
1921.76891741261
 10
-1796.07836847789
 20
1926.2632623695
 10
-1746.46321121788
 20
1939.69221216116
 10
-1721.94331607416
 20
1953.03628018039
 10
-1705.01466883566
 20
1971.41460654039
 10
-1699.82278185932
 20
1986.8543511764
 10
-1722.74496596627
 20
2007.90082640738
 10
-1745.67716745922
 20
2013.9105049751
 10
-1772.62422634511
 20
2017.43365765428
 10
-1805.13510232737
 20
2019.13171649525
 10
-1895.48719720007
 20
2012.71490685484
 10
-1925.03011496784
 20
2008.64518718784
 10
-1972.28028074411
 20
1999.40566278898
 10
-1991.15767138313
 20
1991.62043701563
 10
-2003.78835553473
 20
1981.29104917593
  0
LWPOLYLINE
  5
74
100
AcDbEntity
  8
52
  6
ByLayer
 62
    7
370
   -1
100
AcDbPolyline
 90
   12
 70
    1
 43
0
 10
-2668.36875547729
 20
1084.90613140864
 10
-2668.19174419285
 20
1081.22309341737
 10
-2663.59507317647
 20
1077.8185089659
 10
-2655.97555745687
 20
1075.55627720086
 10
-2605.3534837236
 20
1074.96123651083
 10
-2594.02499151374
 20
1075.39061053317
 10
-2589.60468449443
 20
1078.69166400367
 10
-2588.18141422472
 20
1082.75535930467
 10
-2625.51607902275
 20
1098.33355485032
 10
-2643.32217485633
 20
1095.08616793697
 10
-2659.52839708999
 20
1090.31443837701
 10
-2665.85355720209
 20
1087.69959284501
  0
LWPOLYLINE
  5
75
100
AcDbEntity
  8
52
  6
ByLayer
 62
    7
370
   -1
100
AcDbPolyline
 90
    8
 70
    1
 43
0
 10
-1863.99391706847
 20
1215.77697065038
 10
-1861.86377112977
 20
1199.64751411149
 10
-1851.63053583181
 20
1185.80232235491
 10
-1834.36089148355
 20
1174.80042382219
 10
-1820.26418009444
 20
1173.45120499184
 10
-1806.97878373334
 20
1179.03636006296
 10
-1843.49225557188
 20
1233.80658064947
 10
-1856.52389671134
 20
1227.07837121066
  0
LWPOLYLINE
  5
76
100
AcDbEntity
  8
52
  6
ByLayer
 62
    7
370
   -1
100
AcDbPolyline
 90
   10
 70
    1
 43
0
 10
-1160.19902534797
 20
1545.88856447973
 10
-1159.31256556329
 20
1534.02657437308
 10
-1152.2793331165
 20
1522.03626793707
 10
-1142.01912039614
 20
1515.5570705722
 10
-1129.42118847253
 20
1513.36997268506
 10
-1119.33686652235
 20
1515.80621319148
 10
-1111.79209848398
 20
1520.32579758911
 10
-1134.59326398256
 20
1557.84648130071
 10
-1141.32357302574
 20
1561.07372266498
 10
-1156.20922374404
 20
1555.23491028123
  0
LWPOLYLINE
  5
77
100
AcDbEntity
  8
52
  6
ByLayer
 62
    7
370
   -1
100
AcDbPolyline
 90
   47
 70
    1
 43
0
 10
-3388.22433406678
 20
3010.60814637646
 10
-3388.19854853699
 20
3005.33432653375
 10
-3383.77805580046
 20
2990.17824090493
 10
-3377.63103138434
 20
2959.8221141372
 10
-3372.70217146667
 20
2945.18211236317
 10
-3366.19546278111
 20
2919.18320320508
 10
-3360.21550964069
 20
2901.05078117695
 10
-3356.0677840087
 20
2884.26295794993
 10
-3344.92507896179
 20
2823.29000617126
 10
-3338.18010891796
 20
2748.2122824671
 10
-3337.50581755448
 20
2699.84071374341
 10
-3339.36667741198
 20
2651.70908565139
 10
-3338.63774603018
 20
2599.20246106646
 10
-3338.63659517098
 20
2599.11956199868
 10
-3338.63269653305
 20
2599.03674665869
 10
-3336.35009964499
 20
2550.54954663366
 10
-3328.75802849128
 20
2451.34459394021
 10
-3326.08665435102
 20
2427.87627307953
 10
-3319.08950925585
 20
2380.52984018836
 10
-3310.97301473307
 20
2331.22090356192
 10
-3310.95525137272
 20
2331.13285277731
 10
-3291.12934308535
 20
2232.85827264547
 10
-3283.52866697845
 20
2203.89732449191
 10
-3279.25337910926
 20
2182.69974696335
 10
-3269.45076651882
 20
2184.67681206137
 10
-3273.78304901623
 20
2206.15697829213
 10
-3281.38378905438
 20
2235.11817004369
 10
-3301.13497493553
 20
2333.02236043137
 10
-3309.20895768621
 20
2382.07303158734
 10
-3316.16969623457
 20
2429.17311827567
 10
-3318.80128731957
 20
2452.29194054249
 10
-3326.3680607862
 20
2551.16633049507
 10
-3328.63986039074
 20
2599.42417331352
 10
-3329.36399453475
 20
2651.58524169195
 10
-3327.50312362797
 20
2699.71715557655
 10
-3328.18635583749
 20
2748.73011283353
 10
-3328.20328903644
 20
2748.91859492077
 10
-3335.00600279102
 20
2824.63905926463
 10
-3346.25833117348
 20
2886.21187062184
 10
-3346.28596306381
 20
2886.3630724987
 10
-3350.5990256906
 20
2903.82009337472
 10
-3356.58370633032
 20
2921.96685013261
 10
-3363.0979400069
 20
2947.99582695891
 10
-3367.95411999199
 20
2962.41995034327
 10
-3374.06038640621
 20
2992.57480003957
 10
-3378.20553078786
 20
3006.78682728101
 10
-3378.22445359315
 20
3010.65703925173
  0
LWPOLYLINE
  5
78
100
AcDbEntity
  8
52
  6
ByLayer
 62
    7
370
   -1
100
AcDbPolyline
 90
   18
 70
    1
 43
0
 10
-3652.30580862191
 20
3020.00665460362
 10
-3647.97980464116
 20
2993.89256686234
 10
-3639.20626345775
 20
2971.58551705508
 10
-3624.89279918019
 20
2953.36417750565
 10
-3606.51247611149
 20
2939.43272960205
 10
-3587.64747183488
 20
2928.62515950124
 10
-3566.79861136007
 20
2921.80406865721
 10
-3547.21816000499
 20
2917.37142334638
 10
-3528.16735201179
 20
2918.57793213073
 10
-3514.95402474577
 20
2926.5701313
 10
-3575.9049437888
 20
3016.47595622531
 10
-3586.07589077245
 20
3038.17433683715
 10
-3597.03625121133
 20
3056.85064267879
 10
-3607.49221599135
 20
3070.11641129577
 10
-3617.4451895771
 20
3075.86344315592
 10
-3637.87137070694
 20
3068.99364937653
 10
-3644.76351747097
 20
3055.86643795204
 10
-3651.07518704187
 20
3037.15083857857
  0
LWPOLYLINE
  5
79
100
AcDbEntity
  8
52
  6
ByLayer
 62
    7
370
   -1
100
AcDbPolyline
 90
   10
 70
    1
 43
0
 10
-3091.64570557396
 20
2804.49361533103
 10
-3081.68338424048
 20
2803.62634740912
 10
-3080.19280304513
 20
2820.74867889003
 10
-3077.24611818395
 20
2837.2165694717
 10
-3069.38428569995
 20
2871.26581764226
 10
-3067.08459053276
 20
2886.62170949261
 10
-3076.97430228575
 20
2888.1027906662
 10
-3079.21601009989
 20
2873.13410123069
 10
-3087.045855436
 20
2839.22338798048
 10
-3090.11597299306
 20
2822.0656794421
  0
LWPOLYLINE
  5
7A
100
AcDbEntity
  8
52
  6
ByLayer
 62
    7
370
   -1
100
AcDbPolyline
 90
   27
 70
    1
 43
0
 10
-3176.88411283123
 20
2462.79480913651
 10
-3174.47292394152
 20
2460.07540221989
 10
-3164.67055666838
 20
2457.02087128984
 10
-3158.19694235769
 20
2451.93655749578
 10
-3156.01533485034
 20
2447.74410319741
 10
-3155.18001165057
 20
2443.42554575401
 10
-3158.02897364929
 20
2437.1790423217
 10
-3161.4867402135
 20
2432.12674473472
 10
-3165.63468923192
 20
2420.49630548159
 10
-3164.31896590305
 20
2412.87542726698
 10
-3160.28422484655
 20
2407.08153807171
 10
-3152.8459353091
 20
2401.2091814445
 10
-3144.61895993061
 20
2397.26669982985
 10
-3132.04738410647
 20
2395.12472427954
 10
-3120.76985429407
 20
2395.01561126259
 10
-3112.61403636315
 20
2398.64237873208
 10
-3109.07913914653
 20
2405.09162524528
 10
-3106.65822053224
 20
2416.97721508773
 10
-3107.31048125957
 20
2429.1950523294
 10
-3110.29899998803
 20
2442.22724614663
 10
-3115.1676259372
 20
2454.4986923062
 10
-3122.62640830357
 20
2467.73706422012
 10
-3131.86564385811
 20
2477.29362143953
 10
-3153.65997274652
 20
2475.60634025836
 10
-3163.03348441474
 20
2474.24098450772
 10
-3172.48438055426
 20
2471.0976799154
 10
-3175.81397957971
 20
2467.79789733321
  0
LWPOLYLINE
  5
7B
100
AcDbEntity
  8
52
  6
ByLayer
 62
    7
370
   -1
100
AcDbPolyline
 90
   29
 70
    1
 43
0
 10
-3272.81500366421
 20
2546.45013602922
 10
-3272.13592155667
 20
2536.36588139284
 10
-3270.23703055431
 20
2527.19521433306
 10
-3266.60916320291
 20
2520.69039603578
 10
-3260.21377942652
 20
2512.55813368187
 10
-3250.66644429389
 20
2507.95437230824
 10
-3240.7361125371
 20
2506.34755645062
 10
-3230.37032588395
 20
2510.22685171412
 10
-3217.76362034087
 20
2522.68985600162
 10
-3206.60809872854
 20
2530.07382592823
 10
-3194.00824629582
 20
2532.24983249848
 10
-3180.52057854858
 20
2532.64724721916
 10
-3169.95328406653
 20
2533.98640767622
 10
-3164.76804714542
 20
2539.44395452732
 10
-3166.23432602311
 20
2549.83353365513
 10
-3174.98065663732
 20
2574.85836593804
 10
-3184.59534193399
 20
2592.74637512761
 10
-3199.69845656443
 20
2607.59003998574
 10
-3207.26694419186
 20
2608.66188228454
 10
-3212.24750900842
 20
2605.41399957298
 10
-3216.67157524037
 20
2598.71134536025
 10
-3225.50029783598
 20
2576.31442200881
 10
-3228.95464630565
 20
2576.39292328328
 10
-3235.70727136536
 20
2582.06162308156
 10
-3251.67711623728
 20
2592.20686430527
 10
-3259.44966680389
 20
2591.9834422616
 10
-3264.38051459237
 20
2587.10992606825
 10
-3269.51623754052
 20
2579.72194580299
 10
-3272.11341628068
 20
2570.14787389644
  0
LWPOLYLINE
  5
7C
100
AcDbEntity
  8
52
  6
ByLayer
 62
    7
370
   -1
100
AcDbPolyline
 90
   13
 70
    1
 43
0
 10
-3450.81632720514
 20
2244.30865192318
 10
-3448.08256987703
 20
2230.13362757219
 10
-3433.5730633376
 20
2201.16795503688
 10
-3408.12123560549
 20
2164.57499112936
 10
-3392.00645304311
 20
2143.22825086373
 10
-3366.75227509259
 20
2114.96662047756
 10
-3355.07519848072
 20
2104.57023900318
 10
-3349.89456414237
 20
2103.11898738738
 10
-3348.97737233736
 20
2107.30937729201
 10
-3355.77118611004
 20
2127.40530773135
 10
-3437.67908147339
 20
2252.47870181678
 10
-3443.36563438401
 20
2257.0544911645
 10
-3449.36130214833
 20
2255.15348500462
  0
LWPOLYLINE
  5
7D
100
AcDbEntity
  8
52
  6
ByLayer
 62
    7
370
   -1
100
AcDbPolyline
 90
   26
 70
    1
 43
0
 10
-3118.99044703603
 20
1748.96528247446
 10
-3118.43528523096
 20
1743.50391141856
 10
-3114.50282100232
 20
1736.69409013379
 10
-3089.74660863181
 20
1723.49499483044
 10
-3079.43613994384
 20
1720.59252544137
 10
-3068.84564523124
 20
1718.62966970989
 10
-3060.33664711943
 20
1718.62400108775
 10
-3054.16258715046
 20
1721.41388860153
 10
-3049.20420728883
 20
1729.48778716343
 10
-3046.68378693335
 20
1738.22371001976
 10
-3038.13827274216
 20
1793.03122923429
 10
-3040.64767735729
 20
1800.83070270868
 10
-3054.19211829809
 20
1791.46712382016
 10
-3057.90388480595
 20
1786.41499544578
 10
-3062.63924873415
 20
1769.95894645254
 10
-3064.20753369954
 20
1779.73899340066
 10
-3067.19862445953
 20
1788.91038807462
 10
-3071.23175799632
 20
1797.11727673443
 10
-3077.2209956818
 20
1804.86826843273
 10
-3084.10045150072
 20
1810.79105278095
 10
-3090.2205133628
 20
1812.80173035936
 10
-3095.14839993077
 20
1812.37321317965
 10
-3098.88400967705
 20
1809.65790120798
 10
-3107.60453300376
 20
1797.16690797331
 10
-3115.33866994406
 20
1778.35065621296
 10
-3118.55189554906
 20
1759.09959256412
  0
LWPOLYLINE
  5
7E
100
AcDbEntity
  8
52
  6
ByLayer
 62
    7
370
   -1
100
AcDbPolyline
 90
    6
 70
    1
 43
0
 10
-1888.75069953287
 20
1135.5436704557
 10
-1877.7528968605
 20
1133.68711524253
 10
-1867.41489584013
 20
1134.62470138942
 10
-1854.94292499019
 20
1137.28903058798
 10
-1845.92520719753
 20
1140.6398995278
 10
-1888.19141544001
 20
1137.80415073729
  0
LWPOLYLINE
  5
7F
100
AcDbEntity
  8
52
  6
ByLayer
 62
    7
370
   -1
100
AcDbPolyline
 90
   32
 70
    1
 43
0
 10
-3665.36403932832
 20
806.215947265159
 10
-3663.64345910504
 20
775.303778095476
 10
-3655.80145726457
 20
744.491898030574
 10
-3642.32053588682
 20
714.237610408372
 10
-3625.33337022665
 20
688.859372038584
 10
-3599.27862234999
 20
662.463191830013
 10
-3572.5864648383
 20
647.319075378689
 10
-3548.50964784307
 20
636.18871909247
 10
-3492.17699102518
 20
614.967655012707
 10
-3445.54487119874
 20
604.315068537476
 10
-3396.47318739885
 20
599.097559756207
 10
-3345.97853793505
 20
596.5213463085501
 10
-3297.41342900343
 20
597.958746162478
 10
-3265.10396613875
 20
601.0506271878789
 10
-3368.63994806798
 20
693.605001457427
 10
-3376.89307128929
 20
702.369769058104
 10
-3414.3295862969
 20
716.779586388109
 10
-3426.77395963403
 20
724.376851514859
 10
-3436.2459075095
 20
734.894480166049
 10
-3442.61778807826
 20
751.329645076006
 10
-3444.34106079938
 20
769.668814533989
 10
-3445.95826778399
 20
808.861361756244
 10
-3450.42326636763
 20
834.084518510465
 10
-3458.34196863019
 20
862.559614947118
 10
-3475.20051335518
 20
895.507025946397
 10
-3515.60332363241
 20
935.622279095572
 10
-3542.67788993726
 20
944.187877288586
 10
-3566.1985178523
 20
943.126114187798
 10
-3616.74971131032
 20
918.879939129272
 10
-3635.29624733606
 20
897.700310369404
 10
-3650.59279098084
 20
870.881185496968
 10
-3660.48074480899
 20
836.542502206948
  0
LWPOLYLINE
  5
80
100
AcDbEntity
  8
52
  6
ByLayer
 62
    7
370
   -1
100
AcDbPolyline
 90
    9
 70
    1
 43
0
 10
-2888.12206898894
 20
996.557890964366
 10
-2883.0191766646
 20
984.8473979155571
 10
-2794.94703840427
 20
1033.1139384447
 10
-2818.08425123907
 20
1043.32969349448
 10
-2836.44798303048
 20
1045.51802612305
 10
-2854.12698095796
 20
1042.72781200227
 10
-2868.98768314618
 20
1034.78079422747
 10
-2880.42009253368
 20
1023.53104221079
 10
-2887.61122963922
 20
1009.81658187255
  0
LWPOLYLINE
  5
81
100
AcDbEntity
  8
52
  6
ByLayer
 62
    7
370
   -1
100
AcDbPolyline
 90
   18
 70
    1
 43
0
 10
-2876.4918299379
 20
2005.12432242747
 10
-2873.11845324668
 20
1997.88307350624
 10
-2865.35124979828
 20
1990.08009733101
 10
-2855.57407946438
 20
1987.33038325458
 10
-2848.81737638098
 20
1987.78308209793
 10
-2846.25018329668
 20
1990.4737724532
 10
-2849.3947569835
 20
1998.01966901545
 10
-2852.9225303496
 20
2002.26382012933
 10
-2856.70113938369
 20
2011.25793940181
 10
-2858.37269953129
 20
2018.52345459298
 10
-2857.12288805935
 20
2026.34582371522
 10
-2853.5629631161
 20
2032.23625343116
 10
-2844.79253662745
 20
2043.38101312204
 10
-2852.66814239988
 20
2040.97325924814
 10
-2857.01240442033
 20
2039.68075307108
 10
-2864.20317485677
 20
2035.82474264443
 10
-2872.95007961093
 20
2021.86056665793
 10
-2875.54634460304
 20
2013.65809444702
  0
LWPOLYLINE
  5
82
100
AcDbEntity
  8
52
  6
ByLayer
 62
    7
370
   -1
100
AcDbPolyline
 90
    4
 70
    1
 43
0
 10
-2797.54455806462
 20
2735.62669054114
 10
-2788.432914726
 20
2725.1812181253
 10
-2782.84542360381
 20
2724.41549561717
 10
-2783.45300983858
 20
2727.43850105668
  0
LWPOLYLINE
  5
83
100
AcDbEntity
  8
52
  6
ByLayer
 62
    7
370
   -1
100
AcDbPolyline
 90
   13
 70
    1
 43
0
 10
-3139.62087774881
 20
3018.96304169832
 10
-3139.58023051617
 20
3003.72301123764
 10
-3131.92687803756
 20
2977.53050682819
 10
-3121.32607709464
 20
2952.91083920311
 10
-3114.38345066293
 20
2927.43000843113
 10
-3109.69959623349
 20
2904.69388304257
 10
-3106.17669619031
 20
2893.13453355197
 10
-3099.17115414761
 20
2885.84006490181
 10
-3082.3361527114
 20
2878.03104783671
 10
-3073.21755473486
 20
2878.02497310432
 10
-3099.95813567297
 20
3038.97722316414
 10
-3111.83976594055
 20
3047.34174045951
 10
-3116.61408497538
 20
3048.66572136333
  0
LWPOLYLINE
  5
84
100
AcDbEntity
  8
52
  6
ByLayer
 62
    7
370
   -1
100
AcDbPolyline
 90
   11
 70
    1
 43
0
 10
-2806.69225626698
 20
2731.74270963218
 10
-2803.74853047991
 20
2727.72754765656
 10
-2798.01009461991
 20
2724.77732410558
 10
-2784.49954814606
 20
2721.39012274483
 10
-2777.03128987401
 20
2722.37574767453
 10
-2773.32157083864
 20
2724.35447673091
 10
-2771.2608547282
 20
2729.33150500411
 10
-2791.62718299514
 20
2736.05067436673
 10
-2796.9091804133
 20
2737.85759358866
 10
-2802.19251461101
 20
2737.65791325586
 10
-2805.54683678042
 20
2735.37414736947
  0
LWPOLYLINE
  5
85
100
AcDbEntity
  8
52
  6
ByLayer
 62
    7
370
   -1
100
AcDbPolyline
 90
   13
 70
    1
 43
0
 10
-2762.91736191819
 20
2976.54420149939
 10
-2761.42444779415
 20
2968.00880503887
 10
-2756.451260647
 20
2960.18229020789
 10
-2745.94004558684
 20
2953.59668626602
 10
-2728.85070578179
 20
2946.29549987559
 10
-2715.77019940107
 20
2945.55018559007
 10
-2700.52610783795
 20
2951.68683146998
 10
-2685.2287119396
 20
2961.58264267319
 10
-2671.83482654763
 20
2973.7149224749
 10
-2732.45838606985
 20
2983.10251144866
 10
-2744.1393714928
 20
2987.63149422505
 10
-2753.56312474817
 20
2987.10437213092
 10
-2759.96732450108
 20
2982.00323742139
  0
LWPOLYLINE
  5
86
100
AcDbEntity
  8
52
  6
ByLayer
 62
    7
370
   -1
100
AcDbPolyline
 90
   39
 70
    1
 43
0
 10
-2178.90866476414
 20
2041.02853236403
 10
-2174.66955618578
 20
2036.98710740977
 10
-2165.80815627104
 20
2032.18060295526
 10
-2151.63589008545
 20
2030.7741612021
 10
-2138.19655182296
 20
2034.8800089424
 10
-2126.40735020983
 20
2040.28235627714
 10
-2118.65393877134
 20
2049.90379315661
 10
-2115.1910450653
 20
2062.65228903577
 10
-2117.06522984496
 20
2070.78153940537
 10
-2122.29282304599
 20
2077.99862358423
 10
-2130.84971068978
 20
2082.37312507943
 10
-2139.15405361831
 20
2084.56305784677
 10
-2148.34866544408
 20
2084.84858328094
 10
-2156.01751779697
 20
2087.77469285332
 10
-2159.82513105384
 20
2091.35863024761
 10
-2159.8459453867
 20
2098.24204564141
 10
-2154.9410390729
 20
2102.30277893638
 10
-2147.57348395152
 20
2104.63467125239
 10
-2127.83670689791
 20
2106.09472310635
 10
-2122.27168839208
 20
2109.72321654438
 10
-2120.00790769681
 20
2114.49690949259
 10
-2120.96821723845
 20
2121.83815087155
 10
-2125.53471681435
 20
2130.09619486655
 10
-2127.79925896633
 20
2124.17950217198
 10
-2141.6184803411
 20
2121.75030787859
 10
-2161.91642624714
 20
2116.73462908145
 10
-2170.80935165241
 20
2112.34635249759
 10
-2175.31102233203
 20
2103.53554951646
 10
-2176.30789989973
 20
2094.11281153671
 10
-2174.15360448914
 20
2087.05017479651
 10
-2169.43382504152
 20
2080.11282898086
 10
-2162.09488495393
 20
2077.61873928904
 10
-2153.51060060708
 20
2076.24142020748
 10
-2145.00436066067
 20
2072.09555250407
 10
-2140.76538745239
 20
2067.8509275949
 10
-2138.8898151294
 20
2061.80447676311
 10
-2152.15468691959
 20
2052.69471168437
 10
-2171.66369316568
 20
2049.98990781524
 10
-2177.38114548021
 20
2046.31071591605
  0
LWPOLYLINE
  5
87
100
AcDbEntity
  8
52
  6
ByLayer
 62
    7
370
   -1
100
AcDbPolyline
 90
   13
 70
    1
 43
0
 10
-1905.58452767161
 20
1283.90867880845
 10
-1897.81528813518
 20
1269.14961469363
 10
-1884.4314792587
 20
1259.85034834849
 10
-1867.66905162669
 20
1252.50615851969
 10
-1850.42262608262
 20
1251.6896651928
 10
-1837.44211130537
 20
1256.89388554533
 10
-1829.31150058475
 20
1269.0841446611
 10
-1830.01942061653
 20
1284.40049661281
 10
-1837.83918818232
 20
1300.42957157729
 10
-1860.18997468591
 20
1306.09855811024
 10
-1888.48412172007
 20
1312.88641743472
 10
-1899.25528801732
 20
1305.57352390364
 10
-1905.40412764747
 20
1296.04984045433
  0
LWPOLYLINE
  5
88
100
AcDbEntity
  8
52
  6
ByLayer
 62
    7
370
   -1
100
AcDbPolyline
 90
   11
 70
    1
 43
0
 10
-2761.33489222664
 20
1070.21614128137
 10
-2759.55850776611
 20
1062.67196069708
 10
-2754.48005266924
 20
1055.45727298457
 10
-2745.84570644169
 20
1047.73382376917
 10
-2715.94309157206
 20
1079.55362087787
 10
-2720.89438892955
 20
1087.50488137654
 10
-2729.248867376
 20
1097.41267070856
 10
-2739.53472486831
 20
1102.74887353903
 10
-2749.21214096457
 20
1102.67474594821
 10
-2754.95358519574
 20
1097.79917536208
 10
-2761.33274910714
 20
1080.2237410519
  0
LWPOLYLINE
  5
89
100
AcDbEntity
  8
53
  6
ByLayer
 62
    7
370
   -1
100
AcDbPolyline
 90
   11
 70
    1
 43
0
 10
-1520.83168457187
 20
2781.07135848134
 10
-1518.68366694879
 20
2764.58532383224
 10
-1509.16907563742
 20
2748.95798182607
 10
-1496.3000098653
 20
2735.84300565555
 10
-1482.0046863615
 20
2728.51828060937
 10
-1466.45858687394
 20
2730.46372436417
 10
-1453.14327044148
 20
2739.04005571876
 10
-1496.07565951811
 20
2805.71827170103
 10
-1504.73572081656
 20
2807.73064140546
 10
-1511.49477595512
 20
2803.74734334557
 10
-1519.40045198971
 20
2794.32920794857
  0
LWPOLYLINE
  5
8A
100
AcDbEntity
  8
53
  6
ByLayer
 62
    7
370
   -1
100
AcDbPolyline
 90
    4
 70
    1
 43
0
 10
-3302.92269040913
 20
3096.93466358907
 10
-3293.13082416902
 20
3094.90504403464
 10
-3290.25136887663
 20
3108.79692884914
 10
-3300.04323511675
 20
3110.82654840357
  0
LWPOLYLINE
  5
8B
100
AcDbEntity
  8
53
  6
ByLayer
 62
    7
370
   -1
100
AcDbPolyline
 90
    7
 70
    1
 43
0
 10
-1926.55343766018
 20
1100.34736507463
 10
-1923.93950050623
 20
1089.78040505979
 10
-1883.55195120625
 20
1097.01075626437
 10
-1896.22483206852
 20
1105.03987033572
 10
-1908.23787320305
 20
1110.45264304294
 10
-1918.44856418113
 20
1110.9628296659
 10
-1924.90072972971
 20
1108.32261133143
  0
LWPOLYLINE
  5
8C
100
AcDbEntity
  8
53
  6
ByLayer
 62
    7
370
   -1
100
AcDbPolyline
 90
   13
 70
    1
 43
0
 10
-1517.11073138425
 20
2802.25061093122
 10
-1516.43362906414
 20
2789.1945569543
 10
-1514.00521314872
 20
2774.20693583879
 10
-1510.20414841953
 20
2760.79320062578
 10
-1503.30394595277
 20
2747.88540090631
 10
-1493.83629658282
 20
2738.04929145756
 10
-1483.09438333713
 20
2734.61313452544
 10
-1475.34640362314
 20
2736.08117321418
 10
-1470.33773141059
 20
2743.39303810266
 10
-1468.60117433701
 20
2757.43808434005
 10
-1470.92683962929
 20
2774.15283738724
 10
-1510.96049891534
 20
2845.52812330312
 10
-1516.41702930795
 20
2814.111951425
  0
LWPOLYLINE
  5
8D
100
AcDbEntity
  8
53
  6
ByLayer
 62
    7
370
   -1
100
AcDbPolyline
 90
   18
 70
    1
 43
0
 10
-1721.13414295798
 20
2672.00830066044
 10
-1719.99872393616
 20
2660.62834172883
 10
-1715.61242713974
 20
2648.76361698302
 10
-1708.88956775951
 20
2636.54173556019
 10
-1694.75043458417
 20
2623.52751330412
 10
-1681.6489785005
 20
2616.10198357972
 10
-1667.02118762112
 20
2612.18063780188
 10
-1649.34248696137
 20
2612.62606050337
 10
-1632.06693732948
 20
2617.94855286283
 10
-1618.01436113133
 20
2627.51499328106
 10
-1605.83830484674
 20
2641.70548484671
 10
-1597.26481744676
 20
2662.24837782221
 10
-1594.83799331268
 20
2682.99856569757
 10
-1596.06944521737
 20
2702.73519045984
 10
-1682.20558097848
 20
2695.65517203679
 10
-1696.10167918675
 20
2692.21002873264
 10
-1703.01218670093
 20
2689.64923188467
 10
-1716.40316163616
 20
2681.8857511135
  0
LWPOLYLINE
  5
8E
100
AcDbEntity
  8
53
  6
ByLayer
 62
    7
370
   -1
100
AcDbPolyline
 90
    4
 70
    1
 43
0
 10
-1618.91852569571
 20
2827.40671313559
 10
-1609.13994971433
 20
2788.6397901303
 10
-1599.44365720094
 20
2791.08558478538
 10
-1609.22223318232
 20
2829.85250779066
  0
LWPOLYLINE
  5
8F
100
AcDbEntity
  8
53
  6
ByLayer
 62
    7
370
   -1
100
AcDbPolyline
 90
   16
 70
    1
 43
0
 10
-1463.55744495361
 20
1279.6599223368
 10
-1459.57528025265
 20
1253.34466895602
 10
-1449.21792783408
 20
1226.03745031118
 10
-1430.78295676771
 20
1200.6843018956
 10
-1405.08255782329
 20
1180.13019770453
 10
-1375.24022924792
 20
1167.65240670774
 10
-1345.95439435856
 20
1165.94433513058
 10
-1315.29382097286
 20
1178.89176949032
 10
-1301.01550201512
 20
1195.32251217655
 10
-1291.18063272943
 20
1218.99320658997
 10
-1289.21910509705
 20
1245.73898714368
 10
-1375.99085895632
 20
1339.35657139165
 10
-1396.13215555579
 20
1343.5772847309
 10
-1417.29043122208
 20
1343.22621575057
 10
-1434.10642206284
 20
1337.66721675402
 10
-1449.62866106834
 20
1324.41174052508
  0
LWPOLYLINE
  5
90
100
AcDbEntity
  8
53
  6
ByLayer
 62
    7
370
   -1
100
AcDbPolyline
 90
   12
 70
    1
 43
0
 10
-2912.73280607232
 20
2774.92103667454
 10
-2909.53824461725
 20
2766.15590654032
 10
-2895.88331885453
 20
2750.72900632365
 10
-2885.57296861538
 20
2747.64873697404
 10
-2874.90517403778
 20
2747.33683011242
 10
-2865.4534995203
 20
2751.64853444546
 10
-2858.1808266361
 20
2764.06429220887
 10
-2854.71585161506
 20
2779.93698739475
 10
-2853.8899039763
 20
2799.67224153495
 10
-2905.47862930835
 20
2797.70000905956
 10
-2911.480693309
 20
2786.19780503024
 10
-2912.72926952895
 20
2780.22963549654
  0
LWPOLYLINE
  5
91
100
AcDbEntity
  8
53
  6
ByLayer
 62
    7
370
   -1
100
AcDbPolyline
 90
   11
 70
    1
 43
0
 10
-3319.64176088971
 20
701.011308704863
 10
-3319.31528687915
 20
683.612238391757
 10
-3318.1744572218
 20
673.477393851613
 10
-3316.80376563131
 20
669.23530022184
 10
-3312.61421804442
 20
662.452602878066
 10
-3307.45912235874
 20
657.295298800213
 10
-3299.71275894496
 20
654.321839854535
 10
-3301.86651337399
 20
797.4259043606741
 10
-3311.14256091493
 20
773.856690278357
 10
-3313.20212574481
 20
763.747931100717
 10
-3318.92593742488
 20
722.601155906896
  0
LWPOLYLINE
  5
92
100
AcDbEntity
  8
53
  6
ByLayer
 62
    7
370
   -1
100
AcDbPolyline
 90
    9
 70
    1
 43
0
 10
-3381.18956051085
 20
2214.21406049573
 10
-3380.43437994778
 20
2203.97735512939
 10
-3378.96666276298
 20
2195.74677552249
 10
-3376.40420763152
 20
2191.32546745595
 10
-3374.49980029835
 20
2190.43519855872
 10
-3372.16174864365
 20
2192.31324138569
 10
-3371.37049077106
 20
2198.10391554153
 10
-3373.20697380024
 20
2224.69894489222
 10
-3379.149184938
 20
2226.78570400491
  0
LWPOLYLINE
  5
93
100
AcDbEntity
  8
53
  6
ByLayer
 62
    7
370
   -1
100
AcDbPolyline
 90
   14
 70
    1
 43
0
 10
-3395.57544469461
 20
3115.03484414475
 10
-3389.69154658508
 20
3101.67052137714
 10
-3383.01771046126
 20
3092.115673205
 10
-3374.4143715926
 20
3081.21333931583
 10
-3363.47416555744
 20
3070.41104864817
 10
-3348.62258036666
 20
3059.27595217973
 10
-3336.18086420731
 20
3052.84146218827
 10
-3322.4429022724
 20
3047.67610893072
 10
-3309.10863284569
 20
3046.57502551151
 10
-3298.15972928282
 20
3048.82833194675
 10
-3288.91010407455
 20
3054.8673712666
 10
-3279.39735836344
 20
3074.59683833584
 10
-3273.49164874959
 20
3093.97310830292
 10
-3290.07011205315
 20
3105.59195530996
  0
LWPOLYLINE
  5
94
100
AcDbEntity
  8
53
  6
ByLayer
 62
    7
370
   -1
100
AcDbPolyline
 90
    5
 70
    1
 43
0
 10
-1590.58428851224
 20
1130.93011208459
 10
-1587.69023880466
 20
1123.69049216017
 10
-1585.0997380305
 20
1122.29293737447
 10
-1582.28015859529
 20
1123.130533583
 10
-1588.14532287163
 20
1133.57118984262
  0
LWPOLYLINE
  5
95
100
AcDbEntity
  8
54
  6
ByLayer
 62
    7
370
   -1
100
AcDbPolyline
 90
   18
 70
    1
 43
0
 10
-2009.08081029165
 20
1967.40077188114
 10
-2007.78865946106
 20
1962.52310997906
 10
-1998.69948873879
 20
1956.47185350939
 10
-1982.9795319443
 20
1952.49898012864
 10
-1961.87305037618
 20
1951.11331886583
 10
-1899.59202729896
 20
1951.42742785707
 10
-1871.29589209757
 20
1952.22137739291
 10
-1836.39479384982
 20
1954.45872707984
 10
-1780.40686079986
 20
1963.94643050885
 10
-1765.41666765282
 20
1970.23564556755
 10
-1759.08778797746
 20
1976.65763074777
 10
-1759.74290839775
 20
1984.58286894198
 10
-1812.51973100023
 20
1991.17122986636
 10
-1898.11842269853
 20
1990.16145474975
 10
-1925.98323179102
 20
1988.6560177103
 10
-1951.5118167249
 20
1986.28542410656
 10
-1991.72569334591
 20
1977.77781235519
 10
-2004.45367947488
 20
1973.90009076888
  0
LWPOLYLINE
  5
96
100
AcDbEntity
  8
54
  6
ByLayer
 62
    7
370
   -1
100
AcDbPolyline
 90
   12
 70
    1
 43
0
 10
-1321.76854787897
 20
1804.69075140202
 10
-1318.04745657388
 20
1785.6128682097
 10
-1310.53912639204
 20
1770.49486287035
 10
-1297.87273601576
 20
1758.16742189519
 10
-1283.93272477163
 20
1751.27473365084
 10
-1271.45895856268
 20
1754.82242452301
 10
-1263.6799440747
 20
1764.74864441358
 10
-1260.97634279795
 20
1781.56164702872
 10
-1300.54950135683
 20
1819.76421880179
 10
-1305.52542974812
 20
1823.47593454586
 10
-1314.26279091156
 20
1823.83735538044
 10
-1319.01676940881
 20
1817.56672104827
  0
LWPOLYLINE
  5
97
100
AcDbEntity
  8
54
  6
ByLayer
 62
    7
370
   -1
100
AcDbPolyline
 90
    8
 70
    1
 43
0
 10
-1352.66648214673
 20
2359.29505840837
 10
-1350.33787255519
 20
2346.99990438045
 10
-1341.0976386463
 20
2338.94194682849
 10
-1328.83348554984
 20
2332.86317520694
 10
-1262.59928898737
 20
2433.70787293656
 10
-1298.3801130044
 20
2407.26490394395
 10
-1339.92768333253
 20
2379.40337639302
 10
-1349.25646974442
 20
2368.91938882332
  0
LWPOLYLINE
  5
98
100
AcDbEntity
  8
11
  6
ByLayer
 62
    7
370
   -1
100
AcDbPolyline
 90
   18
 70
    1
 43
0
 10
-1988.19424464792
 20
1966.47482383351
 10
-1988.04207386754
 20
1967.21844459935
 10
-1978.80492499134
 20
1974.14630625649
 10
-1932.93751731462
 20
1981.79087420261
 10
-1842.14670533012
 20
1991.87874220089
 10
-1785.3683919797
 20
1993.1691584134
 10
-1773.9161019877
 20
1988.07925175029
 10
-1768.03665080246
 20
1984.1596176268
 10
-1767.8
 20
1983.7174315576
 10
-1767.8
 20
1981.91074845145
 10
-1767.98882115755
 20
1981.50760742272
 10
-1775.30492328422
 20
1975.4108556505
 10
-1783.29126952274
 20
1970.61904790739
 10
-1822.23204424522
 20
1963.25187431124
 10
-1911.98077633748
 20
1959.8
 10
-1948.05538513814
 20
1959.8
 10
-1980.61572392118
 20
1963.41781542034
 10
-1987.81472923657
 20
1965.8174838588
  0
LWPOLYLINE
  5
99
100
AcDbEntity
  8
1
  6
ByLayer
 62
    7
370
   -1
100
AcDbPolyline
 90
    3
 70
    1
 43
0
 10
-2127.8
 20
339.990000999799
 10
-2127.8
 20
1
 10
-2121.02019998
 20
1
  0
LWPOLYLINE
  5
9A
100
AcDbEntity
  8
1
  6
ByLayer
 62
    7
370
   -1
100
AcDbPolyline
 90
  559
 70
    1
 43
0
 10
-3699
 20
3033.22846482247
 10
-3699
 20
3019.9678550566
 10
-3633.01734594664
 20
2968.25172079856
 10
-3593.61183749585
 20
2919.81578332779
 10
-3580.7816407865
 20
2902.708854382
 10
-3564.272135955
 20
2894.45410196625
 10
-3554.19218221708
 20
2886.89413666281
 10
-3545.20144531545
 20
2876.40494361091
 10
-3526.91525835102
 20
2848.97566316426
 10
-3507.3656915051
 20
2839.2008797413
 10
-3496.89656993622
 20
2826.63793385864
 10
-3473.60584439614
 20
2787.82005795851
 10
-3467.21527253155
 20
2781.42948609392
 10
-3451.81527253155
 20
2757.22948609392
 10
-3443.49764644029
 20
2748.91186000267
 10
-3427.02908680332
 20
2725.38534623556
 10
-3414.84022994821
 20
2699.48402541845
 10
-3408.6
 20
2674.52310562562
 10
-3408.6
 20
2653.78716923225
 10
-3415.8
 20
2622.28716923225
 10
-3415.8
 20
2577.49405964557
 10
-3419.44879785865
 20
2560.4663363052
 10
-3429.52274796235
 20
2540.31843609781
 10
-3447.7806896161
 20
2509.88853334155
 10
-3449.42827882882
 20
2500.55219446946
 10
-3476.59186304203
 20
2419.86037077729
 10
-3472.60488698587
 20
2339.32345444296
 10
-3447.87867363066
 20
2215.6923876669
 10
-3362.39226283098
 20
2116.31443511227
 10
-3301.57259504986
 20
2067.65870088738
 10
-3281.7445538212
 20
2044.99808234034
 10
-3272.83781811687
 20
2030.74730521339
 10
-3261.45526802361
 20
2005.13656750358
 10
-3254.59221723093
 20
1979.9720479304
 10
-3250.2
 20
1936.04987562112
 10
-3250.2
 20
1912.76433115238
 10
-3251.67822679835
 20
1892.06915597547
 10
-3257.02801955986
 20
1861.75366366025
 10
-3263.87379031733
 20
1841.21635138784
 10
-3277.4
 20
1814.1639320225
 10
-3277.4
 20
1794.35840542121
 10
-3278.49042455671
 20
1781.27331074071
 10
-3288.70646188781
 20
1758.57100556049
 10
-3300.96061006232
 20
1736.78585325024
 10
-3325.51402946314
 20
1704.04796071582
 10
-3341.19685386918
 20
1686.79685386917
 10
-3392.57706630039
 20
1640.08756984079
 10
-3401.57963315408
 20
1634.68602972858
 10
-3415.75820720996
 20
1629.95983837662
 10
-3444.09624740912
 20
1625.23683167676
 10
-3449.12458480575
 20
1613.50404441795
 10
-3440.63137710665
 20
1592.27102517019
 10
-3439.47079015544
 20
1585.30750346292
 10
-3443.3991273894
 20
1549.95246835727
 10
-3464.69733754266
 20
1480.73328535916
 10
-3477.51555865201
 20
1453.93155031235
 10
-3490.68300643342
 20
1431.35878268707
 10
-3485.83469657297
 20
1396.03538227524
 10
-3455.48260843614
 20
1380.85933820682
 10
-3443.8472023116
 20
1372.54833383215
 10
-3403.2834590257
 20
1336.70130488181
 10
-3383.08538695739
 20
1312.83085607382
 10
-3372.8168379362
 20
1297.42803254203
 10
-3332.32937506917
 20
1217.44060590228
 10
-3327.8
 20
1199.32310562562
 10
-3327.8
 20
1184.0123437979
 10
-3325.97529605844
 20
1110.11183416453
 10
-3329.47379031733
 20
1099.61635138784
 10
-3334.34589803375
 20
1089.872135955
 10
-3342.00804721022
 20
1079.65593705304
 10
-3357.9408955434
 20
1068.70210382398
 10
-3367.21075583419
 20
1065.39143943441
 10
-3394.9842206591
 20
1043.7898556817
 10
-3410.40679645241
 20
1036.07856778504
 10
-3430.1098672949
 20
1029.04175676987
 10
-3463.52735054332
 20
1020.68738595776
 10
-3487.35951071638
 20
991.559190190701
 10
-3503.1259679511
 20
944.259818486525
 10
-3509.64417207933
 20
937.7416143582971
 10
-3531.84660712139
 20
908.402682338439
 10
-3536.59652932496
 20
875.1532269134231
 10
-3533.40056664074
 20
809.635991886862
 10
-3532.19417980699
 20
757.7613580356081
 10
-3534.34086965852
 20
743.807874000608
 10
-3534.70351150308
 20
743.378070278918
 10
-3539.71372044512
 20
741.70800063157
 10
-3540.35353422355
 20
741.927525697595
 10
-3544.81152570001
 20
748.614512912281
 10
-3550.12710388376
 20
773.420544436461
 10
-3549.9451843751
 20
773.947387966731
 10
-3545.30357598217
 20
777.815394960845
 10
-3560.24978468404
 20
802.272827382091
 10
-3565.55377002471
 20
799.3261688594951
 10
-3587.08124838978
 20
724.807974518887
 10
-3575.20236022611
 20
717.820393246142
 10
-3570.49129452217
 20
696.62059757843
 10
-3563.13610010464
 20
699.963867768217
 10
-3562.2483319963
 20
701.739403984892
 10
-3561.60960384498
 20
702.03317736765
 10
-3550.85096967062
 20
699.3435188240589
 10
-3541.66212315197
 20
694.749095564737
 10
-3536.69919739114
 20
682.8380737387311
 10
-3521.8
 20
656.232364111699
 10
-3521.8
 20
669.2142135623729
 10
-3517.2145470164
 20
673.799666545971
 10
-3493.77918953857
 20
680.83027378932
 10
-3439.67943561554
 20
684.436924050856
 10
-3439.1977539742
 20
684.199406599038
 10
-3435.44355693609
 20
678.568111041874
 10
-3407.27286244533
 20
676.860796224251
 10
-3375.09902789341
 20
657.7304081122981
 10
-3334.19474229805
 20
640.2
 10
-3325.38105633456
 20
640.2
 10
-3324.98323004637
 20
640.017025796986
 10
-3320.32150597622
 20
634.578347715135
 10
-3304.99380538339
 20
633.848457210715
 10
-3302.28564202469
 20
639.264783928122
 10
-3301.69883634237
 20
639.563599812111
 10
-3295.5615735628
 20
638.5407226821829
 10
-3295.13916708932
 20
638.1797789281241
 10
-3293.73885844005
 20
633.978852980307
 10
-3285.05954636777
 20
635.981771150833
 10
-3272.90252074781
 20
699.806155655585
 10
-3265.39944454838
 20
720.814769013989
 10
-3259.79235914725
 20
726.421854415128
 10
-3254.6360679775
 20
729
 10
-3245.86851709182
 20
729
 10
-3232.8024190085
 20
748.599147124979
 10
-3226.62572591061
 20
756.011178842447
 10
-3226.22258488189
 20
756.2
 10
-3217.64963237282
 20
756.2
 10
-3177.53090219876
 20
743.855775331061
 10
-3168.81266367224
 20
747.9242866434359
 10
-3162.4973665961
 20
766.870177871866
 10
-3158.49675572088
 20
772.204325705493
 10
-3123.3393273786
 20
798.0748861837779
 10
-3109.44138813644
 20
811.972825425932
 10
-3094.3702547927
 20
822.284653503226
 10
-3083.76384670164
 20
842.533250767978
 10
-3053.32301868757
 20
864.856524644966
 10
-3027.727864045
 20
877.65410196625
 10
-2983.82242355042
 20
910.583182337186
 10
-2956.76935803558
 20
920.4206607062169
 10
-2931.50714278268
 20
955.507070779689
 10
-2907.82005795851
 20
979.194155603863
 10
-2888.90479444885
 20
990.543313709661
 10
-2867.79317139691
 20
998.75338934097
 10
-2846.35696572906
 20
1003.85724783332
 10
-2839.05574906086
 20
1011.15846450151
 10
-2785.43377976786
 20
1043.5165494197
 10
-2764.12334590626
 20
1053.3521342789
 10
-2725.73859027776
 20
1064.2
 10
-2716.05862138431
 20
1064.2
 10
-2661.69067466247
 20
1070.5962290261
 10
-2624.43222456701
 20
1073
 10
-2581.55564300192
 20
1073
 10
-2548.8766703637
 20
1070.09520243216
 10
-2513.87979376382
 20
1081.76082796545
 10
-2494.52310562562
 20
1086.6
 10
-2486.29022777135
 20
1086.6
 10
-2482.09888637561
 20
1085.66859080095
 10
-2474.83967217093
 20
1089.29819790329
 10
-2445.02538978636
 20
1087.31057907765
 10
-2422.29697930171
 20
1077.84040804238
 10
-2378.49901951359
 20
1086.6
 10
-2331.1172374697
 20
1086.6
 10
-2311.75820720996
 20
1083.37349495671
 10
-2281.06098155256
 20
1073.14108640424
 10
-2267.53862621393
 20
1073.78500808703
 10
-2258.70929561685
 20
1080.01747674379
 10
-2246.89242132017
 20
1103.65122533715
 10
-2235.61448659499
 20
1116.33890190299
 10
-2220.22227034222
 20
1122.93556601131
 10
-2209.82122132133
 20
1121.6354348837
 10
-2202.16601487795
 20
1113.98022844032
 10
-2185.51238259901
 20
1073.27134953625
 10
-2177.70629918158
 20
1061.5622244101
 10
-2167.85360303823
 20
1056.25692648676
 10
-2161.45581618285
 20
1057.67865689907
 10
-2149.10081225753
 20
1079.91766396464
 10
-2140.00086842033
 20
1090.31759977859
 10
-2133.83672972243
 20
1093.39966912753
 10
-2133.05081474553
 20
1093.13769746857
 10
-2131.56602395426
 20
1090.16811588602
 10
-2131.59550302365
 20
1097.65579950996
 10
-2131.22291865005
 20
1098.17976608154
 10
-2130.61480532188
 20
1098.38847224745
 10
-2120.27116726931
 20
1095.28538083168
 10
-2114.38172146548
 20
1089.39593502785
 10
-2091.95747904124
 20
1037.37169260361
 10
-2080.38578643763
 20
1025.8
 10
-2068.09901951359
 20
1025.8
 10
-2032.09901951359
 20
1033
 10
-2022.59320377359
 20
1033
 10
-2014.60191765966
 20
1028.0054461788
 10
-2002.92158814218
 20
1017.785157851
 10
-1958.01385993562
 20
950.423565541165
 10
-1916.07243135833
 20
946.610708397774
 10
-1899.67634299065
 20
950.514538961508
 10
-1878.68600535976
 20
969.172616855631
 10
-1882.08698356165
 20
987.5378991457929
 10
-1909.71789990641
 20
1042.79973183532
 10
-1913.8
 20
1053.68533208489
 10
-1913.8
 20
1066.56227766017
 10
-1911.40656948618
 20
1073.74256920164
 10
-1905.41273818753
 20
1081.23485832495
 10
-1885.91010737621
 20
1090.52182537796
 10
-1876.9616173243
 20
1088.73212736758
 10
-1829.15282166235
 20
1043.35428741725
 10
-1816.37349950198
 20
1041.85083775133
 10
-1799.33156517333
 20
1048.40542787773
 10
-1777.09887121515
 20
1081.75446881501
 10
-1772.16227766017
 20
1083.4
 10
-1765.18656449703
 20
1083.4
 10
-1741.48709804815
 20
1076.29016006534
 10
-1710.4758145996
 20
1052.17027293869
 10
-1696.48846369081
 20
1049.12954448026
 10
-1687.87135901842
 20
1063.49138560091
 10
-1684.17999601763
 20
1093.02228960729
 10
-1681.96503636717
 20
1099.66716855867
 10
-1677.14133276279
 20
1102.5613907213
 10
-1661.58772598144
 20
1104.7833345472
 10
-1654.7567263847
 20
1102.50633468162
 10
-1640.16291058834
 20
1092.77712415072
 10
-1625.66573691695
 20
1078.27995047932
 10
-1600.26784966708
 20
1048.64908202114
 10
-1587.32674526434
 20
1047.41659588754
 10
-1569.66982042231
 20
1053.72264047398
 10
-1568.13208342602
 20
1063.71793094985
 10
-1567.57017831092
 20
1064.2
 10
-1564.38578643763
 20
1064.2
 10
-1553.47645721244
 20
1053.29067077482
 10
-1499.50322382826
 20
1059.37216186036
 10
-1444.78845424692
 20
1088.73130651377
 10
-1423.31691883495
 20
1111.68363747139
 10
-1421.16715857504
 20
1121.35755864097
 10
-1494.5595434337
 20
1140.60802024324
 10
-1520.11368832335
 20
1142.20515429884
 10
-1534.64179279004
 20
1144.62650504329
 10
-1546.78364861216
 20
1148.67379031733
 10
-1567.26587583043
 20
1158.91490392646
 10
-1586.25303204946
 20
1172.83881848709
 10
-1595.17712415072
 20
1181.76291058835
 10
-1606.46658467954
 20
1198.69710138157
 10
-1613.9330256441
 20
1213.62998331071
 10
-1620.10149460199
 20
1234.19154650366
 10
-1611.08765051203
 20
1279.26076695344
 10
-1607.828854382
 20
1285.7783592135
 10
-1601.4
 20
1290.6
 10
-1591.12893218813
 20
1290.6
 10
-1581.93793195625
 20
1289.28699996687
 10
-1540.75072710915
 20
1268.69339754332
 10
-1528.80668505829
 20
1266.61617283883
 10
-1516.75581420932
 20
1268.87571112301
 10
-1500.97646231264
 20
1314.63583162338
 10
-1498.0357366072
 20
1335.22091156143
 10
-1497.68680249102
 20
1335.65068090424
 10
-1476.37617497768
 20
1343.4
 10
-1466.12301603505
 20
1343.4
 10
-1451.77994204149
 20
1334.79415560386
 10
-1433.23676941834
 20
1316.25098298072
 10
-1414.34738369916
 20
1281.90664530947
 10
-1394.30045843534
 20
1234.8399512118
 10
-1382.55261071427
 20
1213.69382531389
 10
-1357.49510140605
 20
1208.87507352385
 10
-1341.13510694391
 20
1202.33107573899
 10
-1328.9782086151
 20
1225.88506625105
 10
-1327.36891596453
 20
1243.58728540736
 10
-1326.99891013152
 20
1244.05445584288
 10
-1317.8
 20
1247.12075922006
 10
-1317.8
 20
1277.07604705378
 10
-1339.24424548503
 20
1291.9220631588
 10
-1358.29032426403
 20
1312.8727498157
 10
-1370.3570360525
 20
1322.74551400627
 10
-1380.31371589086
 20
1335.19136380421
 10
-1383.4
 20
1341.3639320225
 10
-1383.4
 20
1352.41421356237
 10
-1378.19235914725
 20
1357.62185441513
 10
-1367.5127207011
 20
1362.9616736382
 10
-1353.13302322352
 20
1365.35828988446
 10
-1339.85183659394
 20
1364.03017122151
 10
-1288.70098048641
 20
1353.8
 10
-1273.85
 20
1353.8
 10
-1262.75445045687
 20
1359.717626423
 10
-1272.96042623689
 20
1401.8172765156
 10
-1276.90267147472
 20
1413.15123157435
 10
-1278.6
 20
1415.69722436227
 10
-1278.6
 20
1418.81421356237
 10
-1278.01421356237
 20
1419.4
 10
-1268.53518375849
 20
1419.4
 10
-1262.82628429346
 20
1427.96334919754
 10
-1262.38409822427
 20
1428.2
 10
-1252.70098048641
 20
1428.2
 10
-1239.73551952322
 20
1425.60690780736
 10
-1205.18893619047
 20
1406.51537491295
 10
-1191.82870727045
 20
1401.8
 10
-1173.79663651645
 20
1401.8
 10
-1160.50056906207
 20
1407.23930032225
 10
-1144.26415865398
 20
1446.67058274188
 10
-1118.43297323272
 20
1478.95956451846
 10
-1087.34694851984
 20
1534.75499349029
 10
-1081.84285653789
 20
1560.70285569093
 10
-1085.49112751901
 20
1569.45870604562
 10
-1105.45308948829
 20
1571.27342986101
 10
-1154.1247104625
 20
1594.55116163129
 10
-1169.28218916774
 20
1608.62596328615
 10
-1184.03937268154
 20
1625.84267738558
 10
-1186.6
 20
1630.9639320225
 10
-1186.6
 20
1640.16227766017
 10
-1171.4
 20
1685.76227766017
 10
-1171.4
 20
1692.44921894064
 10
-1190.42288697342
 20
1716.22782765741
 10
-1200.82106058188
 20
1733.55811700486
 10
-1232.72988620805
 20
1760.90853897015
 10
-1259.14355768042
 20
1795.32635331293
 10
-1297.8
 20
1831.56676798753
 10
-1297.8
 20
1834.72282280606
 10
-1297.42248437035
 20
1835.24659776327
 10
-1295.52687185532
 20
1835.87846860162
 10
-1297.14049926386
 20
1845.56023305288
 10
-1296.99266318181
 20
1846.02155038057
 10
-1295.14412280564
 20
1847.87009075674
 10
-1301.59383999577
 20
1867.21924232715
 10
-1301.50450199462
 20
1867.72015356608
 10
-1296.70156211872
 20
1873.72382841096
 10
-1290.66562011021
 20
1878.25078491734
 10
-1276.37927343522
 20
1883.96532358734
 10
-1164.2478865674
 20
1891.38578301242
 10
-1155.98641560323
 20
1895.14099708704
 10
-1152.27036111193
 20
1904.80273876441
 10
-1161
 20
2009.55840542121
 10
-1161
 20
2090.57078219872
 10
-1164.74755264847
 20
2109.93313754917
 10
-1165.8
 20
2155.18837366479
 10
-1165.8
 20
2210.60741759643
 10
-1183.2236556924
 20
2254.16655682743
 10
-1186.6
 20
2272.17372646797
 10
-1186.6
 20
2293.38196601125
 10
-1201.36195796758
 20
2300.76294499504
 10
-1207.57573511611
 20
2306.2
 10
-1224.91795006482
 20
2306.2
 10
-1252.20085287502
 20
2283.46424765816
 10
-1273.29722436227
 20
2269.4
 10
-1281.76227766017
 20
2269.4
 10
-1292.91417217086
 20
2273.11729817023
 10
-1332.20741759644
 20
2257.4
 10
-1348.14005494464
 20
2257.4
 10
-1355.00118445642
 20
2259.36032271765
 10
-1359.94592970035
 20
2263.31611891279
 10
-1363.4
 20
2268.49722436227
 10
-1363.4
 20
2317.8360679775
 10
-1360.02185441513
 20
2324.59235914725
 10
-1351.85685424949
 20
2332.75735931288
 10
-1338.23017787187
 20
2342.9773665961
 10
-1302.67351407271
 20
2354.82958786249
 10
-1267.11495795901
 20
2371.67311444266
 10
-1252.62668665934
 20
2384.78155038046
 10
-1232.9033451344
 20
2398.75225062729
 10
-1203.3692544945
 20
2415.29134138563
 10
-1165.53180032373
 20
2429.70560964116
 10
-1157.75587640478
 20
2430.8164559153
 10
-1117.42236830995
 20
2427.45533024073
 10
-1111.03582444637
 20
2428.73263901345
 10
-1113.78218735537
 20
2434.72470354218
 10
-1158.84815621563
 20
2506.8302537186
 10
-1168.39771540552
 20
2513.19662651186
 10
-1193.1107609065
 20
2573.21402272853
 10
-1201.39348442702
 20
2579.94373558895
 10
-1226.0432736153
 20
2588.16033198504
 10
-1244.81329486844
 20
2600.67367948714
 10
-1266.23938182496
 20
2609.09107079148
 10
-1318.96111025509
 20
2644.23888974491
 10
-1341.47975196562
 20
2678.01685231069
 10
-1361.13732608076
 20
2673.48048905335
 10
-1382.83181323035
 20
2655
 10
-1387.26666666667
 20
2655
 10
-1394.44242424242
 20
2660.38181818182
 10
-1400.15194101601
 20
2674.08465843843
 10
-1411.79816404366
 20
2720.66955054902
 10
-1431.70798016435
 20
2741.48435831156
 10
-1452.57571148828
 20
2745.83180233738
 10
-1472.61382492522
 20
2755.18292194129
 10
-1477.86004895974
 20
2761.17860655217
 10
-1487.78036315612
 20
2756.6
 10
-1491.34699199063
 20
2756.6
 10
-1491.93002976242
 20
2757.1705007902
 10
-1492.99647885165
 20
2806.2271588948
 10
-1502.50633468162
 20
2834.7567263847
 10
-1513.52878028109
 20
2851.29039478391
 10
-1526.59161393577
 20
2860.51121854015
 10
-1533.5405566663
 20
2858.61605234092
 10
-1542.27379031733
 20
2832.41635138784
 10
-1552.34589803375
 20
2812.272135955
 10
-1598.75578358218
 20
2750.3922885571
 10
-1600.78039755896
 20
2730.14614878924
 10
-1602.47497919854
 20
2697.94909763725
 10
-1603.05373670853
 20
2697.4
 10
-1607
 20
2697.4
 10
-1594.9428659232
 20
2665.5893786579
 10
-1629.61960241219
 20
2647.37848419978
 10
-1640.22652372617
 20
2641.48575013646
 10
-1654.55273704901
 20
2638.9575948442
 10
-1668.19252184131
 20
2639.81008139371
 10
-1676.85887902249
 20
2642.69886712078
 10
-1685.44858483478
 20
2648.83437127241
 10
-1695.97712415072
 20
2659.36291058834
 10
-1705.47615112764
 20
2673.61145105372
 10
-1711.35464947959
 20
2700.48458637692
 10
-1718.46646402493
 20
2716.28861869991
 10
-1721.15427804916
 20
2719.87237073222
 10
-1722.6
 20
2727.10098048641
 10
-1722.6
 20
2747.32310562562
 10
-1719.57557911794
 20
2759.42078915387
 10
-1708.51875030503
 20
2780.15234317807
 10
-1699.14626998794
 20
2791.86794357443
 10
-1679.47183939128
 20
2811.54237417109
 10
-1611.18223886437
 20
2867.41568369311
 10
-1609.04697323531
 20
2872.11326807703
 10
-1611.29180342538
 20
2882.58914229734
 10
-1637.66716674035
 20
2899.89797447279
 10
-1650.49568872171
 20
2919.14075744483
 10
-1702.86508357427
 20
2966.27321281214
 10
-1721.56519279275
 20
2970.01323465583
 10
-1734.58576505017
 20
2962.35407450441
 10
-1761.08366718717
 20
2902.48844375043
 10
-1765.27617158904
 20
2896.89843788128
 10
-1771.49970734277
 20
2891.9196092783
 10
-1782.48533208489
 20
2887.8
 10
-1796.2360679775
 20
2887.8
 10
-1805.05296693606
 20
2892.20844947928
 10
-1844.64344551099
 20
2936.1978701181
 10
-1853.57990847292
 20
2938.94755102946
 10
-1868.90346388388
 20
2933.58430663562
 10
-1885.49840574397
 20
2902.76512889546
 10
-1895.90553115352
 20
2878.48183627317
 10
-1897.39666788604
 20
2823.30977716979
 10
-1894.2
 20
2810.52310562562
 10
-1894.2
 20
2802.25994505536
 10
-1896.91907387972
 20
2792.74318647634
 10
-1905.92575916215
 20
2786.30983984603
 10
-1912.61866541823
 20
2783.8
 10
-1924.60555614659
 20
2783.8
 10
-1925.00720170461
 20
2783.98716129431
 10
-1944.1455276462
 20
2806.77088265336
 10
-1956.06226092301
 20
2883.83242451002
 10
-1977.85984143762
 20
2884.67079299135
 10
-1991.16996301486
 20
2896.50201217113
 10
-1999.13655844763
 20
2922.39344732763
 10
-1993.15710405704
 20
3003.11608160065
 10
-1994.52414564488
 20
3014.50809483268
 10
-2004.98924287524
 20
3018.99313650284
 10
-2059.06937976501
 20
3017.19046527318
 10
-2114.35036762718
 20
3034.2
 10
-2128.89901951359
 20
3034.2
 10
-2137.29301207457
 20
3035.87879851219
 10
-2139.4
 20
3037.98578643763
 10
-2139.4
 20
3217.4
 10
-2142.2
 20
3217.4
 10
-2142.2
 20
3036.38578643763
 10
-2142.78578643763
 20
3035.8
 10
-2154.93443556293
 20
3035.8
 10
-2168.19057549519
 20
3028.22506289585
 10
-2185.15325186455
 20
2987.02999171312
 10
-2196.31066269836
 20
2937.44149911842
 10
-2192.94449550981
 20
2851.60423581041
 10
-2196.38106690333
 20
2841.29452162985
 10
-2201.24921894064
 20
2837.4
 10
-2204.27698396495
 20
2837.4
 10
-2209.66390675246
 20
2840.63215367251
 10
-2256.182803608
 20
2882.49916084249
 10
-2267.79563057585
 20
2884.54848324858
 10
-2280.00556194003
 20
2876.91727614598
 10
-2295.04489904063
 20
2842.08933759722
 10
-2303.12371422738
 20
2806.18349232275
 10
-2307.97804287754
 20
2798.09294457248
 10
-2312.5639320225
 20
2795.8
 10
-2322.01421356237
 20
2795.8
 10
-2334.37712415072
 20
2808.16291058834
 10
-2340.88476043232
 20
2817.92436501075
 10
-2362.84525393393
 20
2870.08053707708
 10
-2389.14903032938
 20
2876.65648117594
 10
-2408.48156390219
 20
2886.32274796235
 10
-2428.90744491327
 20
2898.57827656899
 10
-2437.11824707839
 20
2899.12566338
 10
-2455.06017400033
 20
2912.84596043796
 10
-2468.5788642917
 20
2926.36465072933
 10
-2475.97122838031
 20
2926.93329412076
 10
-2504.9042206591
 20
2904.4298556817
 10
-2517.83932861277
 20
2897.96230170487
 10
-2535.1377422517
 20
2895.8
 10
-2550.4827625303
 20
2895.8
 10
-2569.6827625303
 20
2899
 10
-2604.16227766017
 20
2899
 10
-2614.01016592474
 20
2902.28262942153
 10
-2634.97802641782
 20
2914.264263989
 10
-2648.06658467954
 20
2933.89710138157
 10
-2655.74351882406
 20
2949.25096967062
 10
-2663.67157967833
 20
2980.9632130877
 10
-2670.29599199056
 20
2988.53397001597
 10
-2676.51738393341
 20
2985.42327404455
 10
-2686.14575402856
 20
2984.46043703503
 10
-2710.77656254501
 20
2987.53928809959
 10
-2779.83715393361
 20
2994.17972957926
 10
-2791.47636633608
 20
2989.08757415318
 10
-2766.23589749431
 20
2932.51410950783
 10
-2752.6
 20
2889.50858664117
 10
-2752.6
 20
2867.7639320225
 10
-2761.29588357685
 20
2850.3721648688
 10
-2770.68339520588
 20
2842.32572632963
 10
-2786.09559569779
 20
2836.54615114516
 10
-2800.19346146373
 20
2828.7923249739
 10
-2808.20764085275
 20
2820.77814558487
 10
-2817.91968874122
 20
2815.92212164064
 10
-2842.33687938153
 20
2815.10821528596
 10
-2879.95754625838
 20
2800.05994853522
 10
-2892.00951636881
 20
2798.05128685015
 10
-2902.60302649439
 20
2799.0143332252
 10
-2949.04011524493
 20
2814.17746424579
 10
-3007.63944303765
 20
2852.82808470481
 10
-3045.69821611677
 20
2860.43983932064
 10
-3057.84066400223
 20
2865.64374555726
 10
-3076.3095896655
 20
2877.64854723839
 10
-3083.24458872774
 20
2888.74454573797
 10
-3088.11572479748
 20
2904.57573796462
 10
-3092.49856659637
 20
2933.06420965742
 10
-3090.07539664198
 20
2957.29590920137
 10
-3115.35795706216
 20
3020.50231025184
 10
-3120.56560942701
 20
3043.56477072476
 10
-3159.4360679775
 20
3063
 10
-3169.73476223491
 20
3063
 10
-3218.83624481201
 20
3076.4788383545
 10
-3260.65859298082
 20
3094.25333632625
 10
-3339.19657842431
 20
3107.24068442321
 10
-3361.71994268275
 20
3165.15790680207
 10
-3481.11953494659
 20
3165.4
 10
-3489.18628116596
 20
3159.63803841474
 10
-3483.16395758411
 20
3144.15206348997
 10
-3483.37597948533
 20
3143.48082991796
 10
-3487.69722436227
 20
3140.6
 10
-3491.12330744355
 20
3140.6
 10
-3491.61613808498
 20
3140.91532900692
 10
-3495.95320514829
 20
3150.31230764409
 10
-3503.06287056639
 20
3133.24911064068
 10
-3504.22825478592
 20
3129.75295798208
 10
-3504.63422542868
 20
3129.39608270784
 10
-3549.591981491
 20
3120.6
 10
-3585.85162579029
 20
3133.13871934272
 10
-3590.09004847107
 20
3132.72854940587
 10
-3587.45701308362
 20
3130.9731924809
 10
-3595.94178508997
 20
3130.64141992832
 10
-3595.81303573905
 20
3131.20117782333
 10
-3594.73519440851
 20
3132.27901915386
 10
-3607.88979912016
 20
3131.00599289144
 10
-3619.8
 20
3129.51721778146
 10
-3619.8
 20
3126.81468641388
 10
-3620.3170949329
 20
3126.2433029446
 10
-3624.43564365252
 20
3125.83144807264
 10
-3656.96765176073
 20
3089.54574672117
 10
-3679.20223394057
 20
3056.19387345141
  0
ENDSEC
  0
SECTION
  2
OBJECTS
  0
DICTIONARY
  5
C
330
0
100
AcDbDictionary
281
    1
  3
ACAD_GROUP
350
D
  0
DICTIONARY
  5
D
330
C
100
AcDbDictionary
281
    1
  0
PLOTSETTINGS
  5
9B
100
AcDbPlotSettings
  6
1x1
 40
0
 41
0
 42
0
 43
0
  0
ENDSEC
  0
EOF
