999
dxfrw 0.6.3
  0
SECTION
  2
HEADER
  9
$ACADVER
  1
AC1021
  9
$DWGCODEPAGE
  3
ANSI_1252
  9
$INSBASE
 10
0
 20
0
 30
0
  9
$EXTMIN
 10
-3433.29220074339
 20
334.9480945217053
 30
0
  9
$EXTMAX
 10
-629.010401434592
 20
2990.535770279555
 30
0
  9
$LIMMIN
 10
0
 20
0
  9
$LIMMAX
 10
420
 20
297
  9
$ORTHOMODE
 70
    0
  9
$REGENMODE
 70
    1
  9
$FILLMODE
 70
    1
  9
$QTEXTMODE
 70
    0
  9
$MIRRTEXT
 70
    1
  9
$LTSCALE
 40
1
  9
$ATTMODE
 70
    1
  9
$TEXTSIZE
 40
2.5
  9
$TRACEWID
 40
1
  9
$TEXTSTYLE
  7
Standard
  9
$CLAYER
  8
0
  9
$CELTYPE
  6
ByLayer
  9
$CECOLOR
 62
  256
  9
$CELTSCALE
 40
1
  9
$DISPSILH
 70
    0
  9
$DIMSCALE
 40
1
  9
$DIMASZ
 40
2.5
  9
$DIMEXO
 40
0.625
  9
$DIMDLI
 40
3.75
  9
$DIMRND
 40
0
  9
$DIMDLE
 40
0
  9
$DIMEXE
 40
1.25
  9
$DIMTP
 40
0
  9
$DIMTM
 40
0
  9
$DIMTXT
 40
2.5
  9
$DIMCEN
 40
2.5
  9
$DIMTSZ
 40
0
  9
$DIMTOL
 70
    0
  9
$DIMLIM
 70
    0
  9
$DIMTIH
 70
    0
  9
$DIMTOH
 70
    0
  9
$DIMSE1
 70
    0
  9
$DIMSE2
 70
    0
  9
$DIMTAD
 70
    1
  9
$DIMZIN
 70
    8
  9
$DIMBLK
  1

  9
$DIMASO
 70
    1
  9
$DIMSHO
 70
    1
  9
$DIMPOST
  1

  9
$DIMAPOST
  1

  9
$DIMALT
 70
    0
  9
$DIMALTD
 70
    3
  9
$DIMALTF
 40
0.03937007874
  9
$DIMLFAC
 40
1
  9
$DIMTOFL
 70
    1
  9
$DIMTVP
 40
0
  9
$DIMTIX
 70
    0
  9
$DIMSOXD
 70
    0
  9
$DIMSAH
 70
    0
  9
$DIMBLK1
  1

  9
$DIMBLK2
  1

  9
$DIMSTYLE
  2
ISO-25
  9
$DIMCLRD
 70
    0
  9
$DIMCLRE
 70
    0
  9
$DIMCLRT
 70
    0
  9
$DIMTFAC
 40
1
  9
$DIMGAP
 40
0.625
  9
$DIMJUST
 70
    0
  9
$DIMSD1
 70
    0
  9
$DIMSD2
 70
    0
  9
$DIMTOLJ
 70
    0
  9
$DIMTZIN
 70
    8
  9
$DIMALTZ
 70
    0
  9
$DIMALTTZ
 70
    0
  9
$DIMUPT
 70
    0
  9
$DIMDEC
 70
    2
  9
$DIMTDEC
 70
    2
  9
$DIMALTU
 70
    2
  9
$DIMALTTD
 70
    3
  9
$DIMTXSTY
  7
Standard
  9
$DIMAUNIT
 70
    0
  9
$DIMADEC
 70
    0
  9
$DIMALTRND
 40
0
  9
$DIMAZIN
 70
    0
  9
$DIMDSEP
 70
   44
  9
$DIMATFIT
 70
    3
  9
$DIMFRAC
 70
    0
  9
$DIMLDRBLK
  1

  9
$DIMLUNIT
 70
    2
  9
$DIMLWD
 70
   -2
  9
$DIMLWE
 70
   -2
  9
$DIMTMOVE
 70
    0
  9
$DIMFXL
 40
1
  9
$DIMFXLON
 70
    0
  9
$DIMJOGANG
 40
0.785398163397
  9
$DIMTFILL
 70
    0
  9
$DIMTFILLCLR
 70
    0
  9
$DIMARCSYM
 70
    0
  9
$DIMLTYPE
  6

  9
$DIMLTEX1
  6

  9
$DIMLTEX2
  6

  9
$LUNITS
 70
    2
  9
$LUPREC
 70
    4
  9
$SKETCHINC
 40
1
  9
$FILLETRAD
 40
10
  9
$AUNITS
 70
    0
  9
$AUPREC
 70
    2
  9
$MENU
  1
.
  9
$ELEVATION
 40
0
  9
$PELEVATION
 40
0
  9
$THICKNESS
 40
0
  9
$LIMCHECK
 70
    0
  9
$CHAMFERA
 40
0
  9
$CHAMFERB
 40
0
  9
$CHAMFERC
 40
0
  9
$CHAMFERD
 40
0
  9
$SKPOLY
 70
    0
  9
$USRTIMER
 70
    1
  9
$ANGBASE
 50
0
  9
$ANGDIR
 70
    0
  9
$PDMODE
 70
    0
  9
$PDSIZE
 40
0
  9
$PLINEWID
 40
0
  9
$SPLFRAME
 70
    0
  9
$SPLINETYPE
 70
    6
  9
$SPLINESEGS
 70
    8
  9
$HANDSEED
  5
20000
  9
$SURFTAB1
 70
    6
  9
$SURFTAB2
 70
    6
  9
$SURFTYPE
 70
    6
  9
$SURFU
 70
    6
  9
$SURFV
 70
    6
  9
$UCSBASE
  2

  9
$UCSNAME
  2

  9
$UCSORG
 10
0
 20
0
 30
0
  9
$UCSXDIR
 10
1
 20
0
 30
0
  9
$UCSYDIR
 10
0
 20
1
 30
0
  9
$UCSORTHOREF
  2

  9
$UCSORTHOVIEW
 70
    0
  9
$UCSORGTOP
 10
0
 20
0
 30
0
  9
$UCSORGBOTTOM
 10
0
 20
0
 30
0
  9
$UCSORGLEFT
 10
0
 20
0
 30
0
  9
$UCSORGRIGHT
 10
0
 20
0
 30
0
  9
$UCSORGFRONT
 10
0
 20
0
 30
0
  9
$UCSORGBACK
 10
0
 20
0
 30
0
  9
$PUCSBASE
  2

  9
$PUCSNAME
  2

  9
$PUCSORG
 10
0
 20
0
 30
0
  9
$PUCSXDIR
 10
1
 20
0
 30
0
  9
$PUCSYDIR
 10
0
 20
1
 30
0
  9
$PUCSORTHOREF
  2

  9
$PUCSORTHOVIEW
 70
    0
  9
$PUCSORGTOP
 10
0
 20
0
 30
0
  9
$PUCSORGBOTTOM
 10
0
 20
0
 30
0
  9
$PUCSORGLEFT
 10
0
 20
0
 30
0
  9
$PUCSORGRIGHT
 10
0
 20
0
 30
0
  9
$PUCSORGFRONT
 10
0
 20
0
 30
0
  9
$PUCSORGBACK
 10
0
 20
0
 30
0
  9
$USERI1
 70
    0
  9
$USERI2
 70
    0
  9
$USERI3
 70
    0
  9
$USERI4
 70
    0
  9
$USERI5
 70
    0
  9
$USERR1
 40
0
  9
$USERR2
 40
0
  9
$USERR3
 40
0
  9
$USERR4
 40
0
  9
$USERR5
 40
0
  9
$WORLDVIEW
 70
    1
  9
$SHADEDGE
 70
    3
  9
$SHADEDIF
 70
   70
  9
$TILEMODE
 70
    1
  9
$MAXACTVP
 70
   64
  9
$PINSBASE
 10
0
 20
0
 30
0
  9
$PLIMCHECK
 70
    0
  9
$PEXTMIN
 10
1e+20
 20
1e+20
 30
1e+20
  9
$PEXTMAX
 10
-1e+20
 20
-1e+20
 30
-1e+20
  9
$GRIDMODE
 70
    0
  9
$SNAPSTYLE
 70
    0
  9
$PLIMMIN
 10
0
 20
0
  9
$PLIMMAX
 10
420
 20
297
  9
$UNITMODE
 70
    0
  9
$VISRETAIN
 70
    1
  9
$PLINEGEN
 70
    0
  9
$PSLTSCALE
 70
    1
  9
$TREEDEPTH
 70
 3020
  9
$CMLSTYLE
  2
Standard
  9
$CMLJUST
 70
    0
  9
$CMLSCALE
 40
20
  9
$PROXYGRAPHICS
 70
    1
  9
$MEASUREMENT
 70
    1
  9
$CELWEIGHT
370
   -1
  9
$ENDCAPS
280
    0
  9
$JOINSTYLE
280
    0
  9
$LWDISPLAY
290
    0
  9
$INSUNITS
 70
    6
  9
$HYPERLINKBASE
  1

  9
$STYLESHEET
  1

  9
$XEDIT
290
    1
  9
$CEPSNTYPE
380
    0
  9
$PSTYLEMODE
290
    1
  9
$EXTNAMES
290
    1
  9
$PSVPSCALE
 40
0
  9
$OLESTARTUP
290
    0
  9
$SORTENTS
280
  127
  9
$INDEXCTL
280
    0
  9
$HIDETEXT
280
    1
  9
$XCLIPFRAME
290
    2
  9
$HALOGAP
280
    0
  9
$OBSCOLOR
 70
  257
  9
$OBSLTYPE
280
    0
  9
$INTERSECTIONDISPLAY
280
    0
  9
$INTERSECTIONCOLOR
 70
  257
  9
$DIMASSOC
280
    2
  9
$PROJECTNAME
  1

  9
$CAMERADISPLAY
290
    0
  9
$LENSLENGTH
 40
50
  9
$CAMERAHEIGHT
 40
0
  9
$STEPSPERSEC
 40
24
  9
$STEPSIZE
 40
100
  9
$3DDWFPREC
 40
2
  9
$PSOLWIDTH
 40
0.005
  9
$PSOLHEIGHT
 40
0.08
  9
$LOFTANG1
 40
1.570796326795
  9
$LOFTANG2
 40
1.570796326795
  9
$LOFTMAG1
 40
0
  9
$LOFTMAG2
 40
0
  9
$LOFTPARAM
 70
    7
  9
$LOFTNORMALS
280
    1
  9
$LATITUDE
 40
37.795
  9
$LONGITUDE
 40
-122.394
  9
$NORTHDIRECTION
 40
0
  9
$TIMEZONE
 70
-8000
  9
$LIGHTGLYPHDISPLAY
280
    1
  9
$TILEMODELIGHTSYNCH
280
    1
  9
$SOLIDHIST
280
    0
  9
$SHOWHIST
280
    1
  9
$DWFFRAME
280
    2
  9
$DGNFRAME
280
    2
  9
$REALWORLDSCALE
290
    1
  9
$INTERFERECOLOR
 62
  256
  9
$CSHADOW
280
    0
  9
$SHADOWPLANELOCATION
 40
0
  0
ENDSEC
  0
SECTION
  2
CLASSES
  0
ENDSEC
  0
SECTION
  2
TABLES
  0
TABLE
  2
VPORT
  5
8
330
0
100
AcDbSymbolTable
 70
    1
  0
VPORT
  5
31
330
2
100
AcDbSymbolTableRecord
100
AcDbViewportTableRecord
  2
*ACTIVE
 70
    0
 10
0
 20
0
 11
1
 21
1
 12
-200.512384254681
 22
1694.329646952055
 13
0
 23
0
 14
10
 24
10
 15
10
 25
10
 16
0
 26
0
 36
1
 17
0
 27
0
 37
0
 40
4060.37578115729
 41
0.7901234567901234
 42
50
 43
0
 44
0
 50
0
 51
0
 71
    0
 72
  100
 73
    1
 74
    3
 75
    0
 76
    0
 77
    0
 78
    0
281
    0
 65
    1
110
0
120
0
130
0
111
1
121
0
131
0
112
0
122
1
132
0
 79
    0
146
0
348
10020
 60
    7
 61
    5
292
1
282
    1
141
0
142
0
 63
  250
421
3358443
  0
ENDTAB
  0
TABLE
  2
LTYPE
  5
5
330
0
100
AcDbSymbolTable
 70
    4
  0
LTYPE
  5
14
330
5
100
AcDbSymbolTableRecord
100
AcDbLinetypeTableRecord
  2
ByBlock
 70
    0
  3

 72
   65
 73
    0
 40
0
  0
LTYPE
  5
15
330
5
100
AcDbSymbolTableRecord
100
AcDbLinetypeTableRecord
  2
ByLayer
 70
    0
  3

 72
   65
 73
    0
 40
0
  0
LTYPE
  5
16
330
5
100
AcDbSymbolTableRecord
100
AcDbLinetypeTableRecord
  2
Continuous
 70
    0
  3
Solid line
 72
   65
 73
    0
 40
0
  0
LTYPE
  5
32
330
5
100
AcDbSymbolTableRecord
100
AcDbLinetypeTableRecord
  2
DOT
 70
    0
  3
Dot . . . . . . . . . . . . . . . . . . . . . .
 72
   65
 73
    2
 40
6.35
 49
0
 74
    0
 49
-6.35
 74
    0
  0
LTYPE
  5
33
330
5
100
AcDbSymbolTableRecord
100
AcDbLinetypeTableRecord
  2
DOTTINY
 70
    0
  3
Dot (.15x) .....................................
 72
   65
 73
    2
 40
0.9525
 49
0
 74
    0
 49
-0.9525
 74
    0
  0
LTYPE
  5
34
330
5
100
AcDbSymbolTableRecord
100
AcDbLinetypeTableRecord
  2
DOT2
 70
    0
  3
Dot (.5x) .....................................
 72
   65
 73
    2
 40
3.175
 49
0
 74
    0
 49
-3.175
 74
    0
  0
LTYPE
  5
35
330
5
100
AcDbSymbolTableRecord
100
AcDbLinetypeTableRecord
  2
DOTX2
 70
    0
  3
Dot (2x) .  .  .  .  .  .  .  .  .  .  .  .  .
 72
   65
 73
    2
 40
12.7
 49
0
 74
    0
 49
-12.7
 74
    0
  0
LTYPE
  5
36
330
5
100
AcDbSymbolTableRecord
100
AcDbLinetypeTableRecord
  2
DASHED
 70
    0
  3
Dashed _ _ _ _ _ _ _ _ _ _ _ _ _ _ _ _ _
 72
   65
 73
    2
 40
19.05
 49
12.7
 74
    0
 49
-6.35
 74
    0
  0
LTYPE
  5
37
330
5
100
AcDbSymbolTableRecord
100
AcDbLinetypeTableRecord
  2
DASHEDTINY
 70
    0
  3
Dashed (.15x) _ _ _ _ _ _ _ _ _ _ _ _ _ _ _ _ _
 72
   65
 73
    2
 40
2.8575
 49
1.905
 74
    0
 49
-0.9525
 74
    0
  0
LTYPE
  5
38
330
5
100
AcDbSymbolTableRecord
100
AcDbLinetypeTableRecord
  2
DASHED2
 70
    0
  3
Dashed (.5x) _ _ _ _ _ _ _ _ _ _ _ _ _ _ _ _ _
 72
   65
 73
    2
 40
9.524999999999999
 49
6.35
 74
    0
 49
-3.175
 74
    0
  0
LTYPE
  5
39
330
5
100
AcDbSymbolTableRecord
100
AcDbLinetypeTableRecord
  2
DASHEDX2
 70
    0
  3
Dashed (2x) ____  ____  ____  ____  ____  ___
 72
   65
 73
    2
 40
38.09999999999999
 49
25.4
 74
    0
 49
-12.7
 74
    0
  0
LTYPE
  5
3A
330
5
100
AcDbSymbolTableRecord
100
AcDbLinetypeTableRecord
  2
DASHDOT
 70
    0
  3
Dash dot __ . __ . __ . __ . __ . __ . __ . __
 72
   65
 73
    4
 40
25.4
 49
12.7
 74
    0
 49
-6.35
 74
    0
 49
0
 74
    0
 49
-6.35
 74
    0
  0
LTYPE
  5
3B
330
5
100
AcDbSymbolTableRecord
100
AcDbLinetypeTableRecord
  2
DASHDOTTINY
 70
    0
  3
Dash dot (.15x) _._._._._._._._._._._._._._._.
 72
   65
 73
    4
 40
3.81
 49
1.905
 74
    0
 49
-0.9525
 74
    0
 49
0
 74
    0
 49
-0.9525
 74
    0
  0
LTYPE
  5
3C
330
5
100
AcDbSymbolTableRecord
100
AcDbLinetypeTableRecord
  2
DASHDOT2
 70
    0
  3
Dash dot (.5x) _._._._._._._._._._._._._._._.
 72
   65
 73
    4
 40
12.7
 49
6.35
 74
    0
 49
-3.175
 74
    0
 49
0
 74
    0
 49
-3.175
 74
    0
  0
LTYPE
  5
3D
330
5
100
AcDbSymbolTableRecord
100
AcDbLinetypeTableRecord
  2
DASHDOTX2
 70
    0
  3
Dash dot (2x) ____  .  ____  .  ____  .  ___
 72
   65
 73
    4
 40
50.8
 49
25.4
 74
    0
 49
-12.7
 74
    0
 49
0
 74
    0
 49
-12.7
 74
    0
  0
LTYPE
  5
3E
330
5
100
AcDbSymbolTableRecord
100
AcDbLinetypeTableRecord
  2
DIVIDE
 70
    0
  3
Divide ____ . . ____ . . ____ . . ____ . . ____
 72
   65
 73
    6
 40
31.75
 49
12.7
 74
    0
 49
-6.35
 74
    0
 49
0
 74
    0
 49
-6.35
 74
    0
 49
0
 74
    0
 49
-6.35
 74
    0
  0
LTYPE
  5
3F
330
5
100
AcDbSymbolTableRecord
100
AcDbLinetypeTableRecord
  2
DIVIDETINY
 70
    0
  3
Divide (.15x) __..__..__..__..__..__..__..__.._
 72
   65
 73
    6
 40
4.7625
 49
1.905
 74
    0
 49
-0.9525
 74
    0
 49
0
 74
    0
 49
-0.9525
 74
    0
 49
0
 74
    0
 49
-0.9525
 74
    0
  0
LTYPE
  5
40
330
5
100
AcDbSymbolTableRecord
100
AcDbLinetypeTableRecord
  2
DIVIDE2
 70
    0
  3
Divide (.5x) __..__..__..__..__..__..__..__.._
 72
   65
 73
    6
 40
15.875
 49
6.35
 74
    0
 49
-3.175
 74
    0
 49
0
 74
    0
 49
-3.175
 74
    0
 49
0
 74
    0
 49
-3.175
 74
    0
  0
LTYPE
  5
41
330
5
100
AcDbSymbolTableRecord
100
AcDbLinetypeTableRecord
  2
DIVIDEX2
 70
    0
  3
Divide (2x) ________  .  .  ________  .  .  _
 72
   65
 73
    6
 40
63.5
 49
25.4
 74
    0
 49
-12.7
 74
    0
 49
0
 74
    0
 49
-12.7
 74
    0
 49
0
 74
    0
 49
-12.7
 74
    0
  0
LTYPE
  5
42
330
5
100
AcDbSymbolTableRecord
100
AcDbLinetypeTableRecord
  2
BORDER
 70
    0
  3
Border __ __ . __ __ . __ __ . __ __ . __ __ .
 72
   65
 73
    6
 40
44.45
 49
12.7
 74
    0
 49
-6.35
 74
    0
 49
12.7
 74
    0
 49
-6.35
 74
    0
 49
0
 74
    0
 49
-6.35
 74
    0
  0
LTYPE
  5
43
330
5
100
AcDbSymbolTableRecord
100
AcDbLinetypeTableRecord
  2
BORDERTINY
 70
    0
  3
Border (.15x) __.__.__.__.__.__.__.__.__.__.__.
 72
   65
 73
    6
 40
6.6675
 49
1.905
 74
    0
 49
-0.9525
 74
    0
 49
1.905
 74
    0
 49
-0.9525
 74
    0
 49
0
 74
    0
 49
-0.9525
 74
    0
  0
LTYPE
  5
44
330
5
100
AcDbSymbolTableRecord
100
AcDbLinetypeTableRecord
  2
BORDER2
 70
    0
  3
Border (.5x) __.__.__.__.__.__.__.__.__.__.__.
 72
   65
 73
    6
 40
22.225
 49
6.35
 74
    0
 49
-3.175
 74
    0
 49
6.35
 74
    0
 49
-3.175
 74
    0
 49
0
 74
    0
 49
-3.175
 74
    0
  0
LTYPE
  5
45
330
5
100
AcDbSymbolTableRecord
100
AcDbLinetypeTableRecord
  2
BORDERX2
 70
    0
  3
Border (2x) ____  ____  .  ____  ____  .  ___
 72
   65
 73
    6
 40
88.89999999999999
 49
25.4
 74
    0
 49
-12.7
 74
    0
 49
25.4
 74
    0
 49
-12.7
 74
    0
 49
0
 74
    0
 49
-12.7
 74
    0
  0
LTYPE
  5
46
330
5
100
AcDbSymbolTableRecord
100
AcDbLinetypeTableRecord
  2
CENTER
 70
    0
  3
Center ____ _ ____ _ ____ _ ____ _ ____ _ ____
 72
   65
 73
    4
 40
50.8
 49
31.75
 74
    0
 49
-6.35
 74
    0
 49
6.35
 74
    0
 49
-6.35
 74
    0
  0
LTYPE
  5
47
330
5
100
AcDbSymbolTableRecord
100
AcDbLinetypeTableRecord
  2
CENTERTINY
 70
    0
  3
Center (.15x) ___ _ ___ _ ___ _ ___ _ ___ _ ___
 72
   65
 73
    4
 40
7.62
 49
4.7625
 74
    0
 49
-0.9525
 74
    0
 49
0.9525
 74
    0
 49
-0.9525
 74
    0
  0
LTYPE
  5
48
330
5
100
AcDbSymbolTableRecord
100
AcDbLinetypeTableRecord
  2
CENTER2
 70
    0
  3
Center (.5x) ___ _ ___ _ ___ _ ___ _ ___ _ ___
 72
   65
 73
    4
 40
28.575
 49
19.05
 74
    0
 49
-3.175
 74
    0
 49
3.175
 74
    0
 49
-3.175
 74
    0
  0
LTYPE
  5
49
330
5
100
AcDbSymbolTableRecord
100
AcDbLinetypeTableRecord
  2
CENTERX2
 70
    0
  3
Center (2x) ________  __  ________  __  _____
 72
   65
 73
    4
 40
101.6
 49
63.5
 74
    0
 49
-12.7
 74
    0
 49
12.7
 74
    0
 49
-12.7
 74
    0
  0
ENDTAB
  0
TABLE
  2
LAYER
  5
2
330
0
100
AcDbSymbolTable
 70
    1
  0
LAYER
  5
10
330
2
100
AcDbSymbolTableRecord
100
AcDbLayerTableRecord
  2
0
 70
    0
 62
    7
  6
CONTINUOUS
370
   -3
390
F
  0
LAYER
  5
4A
330
2
100
AcDbSymbolTableRecord
100
AcDbLayerTableRecord
  2
1
 70
    0
 62
    7
  6
CONTINUOUS
370
   -3
390
F
  0
LAYER
  5
4B
330
2
100
AcDbSymbolTableRecord
100
AcDbLayerTableRecord
  2
51
 70
    0
 62
    7
  6
CONTINUOUS
370
   -3
390
F
  0
LAYER
  5
4C
330
2
100
AcDbSymbolTableRecord
100
AcDbLayerTableRecord
  2
52
 70
    0
 62
    7
  6
CONTINUOUS
370
   -3
390
F
  0
LAYER
  5
4D
330
2
100
AcDbSymbolTableRecord
100
AcDbLayerTableRecord
  2
53
 70
    0
 62
    7
  6
CONTINUOUS
370
   -3
390
F
  0
LAYER
  5
4E
330
2
100
AcDbSymbolTableRecord
100
AcDbLayerTableRecord
  2
54
 70
    0
 62
    7
  6
CONTINUOUS
370
   -3
390
F
  0
LAYER
  5
4F
330
2
100
AcDbSymbolTableRecord
100
AcDbLayerTableRecord
  2
72
 70
    0
 62
    7
  6
CONTINUOUS
370
   -3
390
F
  0
LAYER
  5
50
330
2
100
AcDbSymbolTableRecord
100
AcDbLayerTableRecord
  2
Defpoints
 70
    0
 62
    7
  6
CONTINUOUS
290
0
370
   -3
390
F
  0
ENDTAB
  0
TABLE
  2
STYLE
  5
3
330
0
100
AcDbSymbolTable
 70
    3
  0
STYLE
  5
51
330
2
100
AcDbSymbolTableRecord
100
AcDbTextStyleTableRecord
  2
STANDARD
 70
    0
 40
0
 41
1
 50
0
 71
    0
 42
1
  3
STANDARD
  4

  0
ENDTAB
  0
TABLE
  2
VIEW
  5
6
330
0
100
AcDbSymbolTable
 70
    0
  0
ENDTAB
  0
TABLE
  2
UCS
  5
7
330
0
100
AcDbSymbolTable
 70
    0
  0
ENDTAB
  0
TABLE
  2
APPID
  5
9
330
0
100
AcDbSymbolTable
 70
    1
  0
APPID
  5
12
330
9
100
AcDbSymbolTableRecord
100
AcDbRegAppTableRecord
  2
ACAD
 70
    0
  0
APPID
  5
52
330
9
100
AcDbSymbolTableRecord
100
AcDbRegAppTableRecord
  2
LibreCad
 70
    0
  0
ENDTAB
  0
TABLE
  2
DIMSTYLE
  5
A
330
0
100
AcDbSymbolTable
 70
    1
100
AcDbDimStyleTable
 71
    1
  0
DIMSTYLE
105
53
330
A
100
AcDbSymbolTableRecord
100
AcDbDimStyleTableRecord
  2
Standard
 70
    0
 40
1
 41
2.5
 42
0.625
 43
0.38
 44
1.25
 45
0
 46
0
 47
0
 48
0
 49
1
140
2.5
141
0.09
142
0
143
25.4
144
1
145
0
146
1
147
0.625
148
0
 71
    0
 72
    0
 73
    0
 74
    1
 75
    0
 76
    0
 77
    0
 78
    8
 79
    0
170
    0
171
    2
172
    0
173
    0
174
    0
175
    0
176
    0
177
    0
178
    0
179
    0
271
    2
272
    4
273
    2
274
    2
275
    0
276
    0
277
    2
278
   44
279
    0
280
    0
281
    0
282
    0
283
    1
284
    0
285
    0
286
    0
288
    0
289
    3
340
Standard
341

371
   -2
372
   -2
  0
ENDTAB
  0
TABLE
  2
BLOCK_RECORD
  5
1
330
0
100
AcDbSymbolTable
 70
    2
  0
BLOCK_RECORD
  5
1F
330
1
100
AcDbSymbolTableRecord
100
AcDbBlockTableRecord
  2
*Model_Space
 70
    0
280
    1
281
    0
  0
BLOCK_RECORD
  5
1E
330
1
100
AcDbSymbolTableRecord
100
AcDbBlockTableRecord
  2
*Paper_Space
 70
    0
280
    1
281
    0
  0
ENDTAB
  0
ENDSEC
  0
SECTION
  2
BLOCKS
  0
BLOCK
  5
20
330
1F
100
AcDbEntity
  8
0
100
AcDbBlockBegin
  2
*Model_Space
 70
    0
 10
0
 20
0
 30
0
  3
*Model_Space
  1

  0
ENDBLK
  5
21
330
1F
100
AcDbEntity
  8
0
100
AcDbBlockEnd
  0
BLOCK
  5
1C
330
1B
100
AcDbEntity
  8
0
100
AcDbBlockBegin
  2
*Paper_Space
 70
    0
 10
0
 20
0
 30
0
  3
*Paper_Space
  1

  0
ENDBLK
  5
1D
330
1F
100
AcDbEntity
  8
0
100
AcDbBlockEnd
  0
ENDSEC
  0
SECTION
  2
ENTITIES
  0
TEXT
  5
54
100
AcDbEntity
  8
72
  6
ByLayer
 62
  256
370
   -1
100
AcDbText
 10
-3169.2
 20
2264.4
 30
0
 40
2.5
  1
MARK_1
 50
0
 41
1
 51
0
  7
STANDARD
 71
    0
 11
-3169.2
 21
2264.4
 31
0
210
0
220
0
230
1
100
AcDbText
 73
    1
  0
TEXT
  5
55
100
AcDbEntity
  8
72
  6
ByLayer
 62
  256
370
   -1
100
AcDbText
 10
-3191.6
 20
1078.8
 30
0
 40
2.5
  1
MARK_2
 50
0
 41
1
 51
0
  7
STANDARD
 71
    0
 11
-3191.6
 21
1078.8
 31
0
210
0
220
0
230
1
100
AcDbText
 73
    1
  0
LWPOLYLINE
  5
56
100
AcDbEntity
  8
1
  6
ByLayer
 62
  256
370
   -1
100
AcDbPolyline
 90
  496
 70
    1
 43
0
 10
-3433.29220074339
 20
525.1230842620116
 10
-3422.200000000009
 20
497.3925824035687
 10
-3422.200000000009
 20
483.1041155320515
 10
-3431.493489383091
 20
435.087753719482
 10
-3382.63766321184
 20
393.6343254529722
 10
-3365.546089006629
 20
384.6815961073846
 10
-3328.752511340329
 20
352.4872156493734
 10
-3312.016821691579
 20
349.0246591703219
 10
-3289.159237457164
 20
354.5420070889725
 10
-3244.690382467049
 20
378.364607976534
 10
-3223.25310333876
 20
410.1235400184389
 10
-3215.206140582291
 20
424.608072980091
 10
-3204.656624206698
 20
435.1575893556853
 10
-3162.43120929211
 20
456.6686497838698
 10
-3156.13891239512
 20
475.5455404748286
 10
-3136.420531521508
 20
524.412832205081
 10
-3113.63971877845
 20
542.8544425208925
 10
-3091.400118448701
 20
552.738709334116
 10
-3030.33655564127
 20
543.278157349866
 10
-2961.21937885124
 20
528.8117715100923
 10
-2943.831543806319
 20
561.6554599282672
 10
-2932.802419008509
 20
578.1991471249796
 10
-2926.12736235593
 20
586.2092151080838
 10
-2910.552248500669
 20
589.2044293110173
 10
-2871.7361403115
 20
606.4560329506501
 10
-2846.201699275181
 20
628.0007175750397
 10
-2830.302775637738
 20
638.6000000000006
 10
-2815.83772233984
 20
638.6000000000006
 10
-2803.837722339841
 20
634.5999999999992
 10
-2763.51760364463
 20
634.5999999999992
 10
-2748.035346981889
 20
637.3788665804914
 10
-2719.037089411669
 20
666.3771241507185
 10
-2711.64327361531
 20
671.3063346816232
 10
-2701.762277660181
 20
674.5999999999987
 10
-2688.03744886539
 20
674.5999999999987
 10
-2657.184890241271
 20
668.6285370404894
 10
-2648.489537274131
 20
661.6722546667796
 10
-2642.28858588352
 20
650.8205897332222
 10
-2635.16585690768
 20
631.0352314669808
 10
-2625.47074892846
 20
624.1916258345937
 10
-2599.777710392721
 20
620.9799960176256
 10
-2589.941120977519
 20
617.701132879225
 10
-2583.717065608869
 20
613.2553790444776
 10
-2570.40957809251
 20
598.6171427764803
 10
-2561.633453345461
 20
585.4529556559019
 10
-2550.20218759363
 20
553.6087153472524
 10
-2508.5128028715
 20
568.199999999998
 10
-2489.24577449947
 20
568.199999999998
 10
-2441.76979606821
 20
559.8218861591904
 10
-2417.690169943759
 20
564.1999999999998
 10
-2387.61421356238
 20
564.1999999999998
 10
-2371.056854249501
 20
580.7573593128802
 10
-2356.79017787188
 20
591.4573665960993
 10
-2345.44764235377
 20
595.2382117688007
 10
-2311.634229774629
 20
597.7123639087413
 10
-2285.21057764501
 20
615.3281319951545
 10
-2275.32310562563
 20
617.7999999999981
 10
-2249.693000468171
 20
617.7999999999981
 10
-2239.609958041268
 20
644.6881131384142
 10
-2204.192744411659
 20
683.1410879362758
 10
-2194.951022871708
 20
690.8425225528979
 10
-2179.05640283235
 20
698.7898325725781
 10
-2151.200470145217
 20
695.3078409866891
 10
-2150.791051610839
 20
695.0181711991648
 10
-2149.400000000008
 20
692.2360679774991
 10
-2149.400000000009
 20
675.9553132941048
 10
-2154.156102098612
 20
622.8455065263686
 10
-2146.876330173179
 20
617.0216889860205
 10
-2112.425429604909
 20
619.130927796321
 10
-2100.54535420516
 20
628.0409843461343
 10
-2087.869284470868
 20
635.0832453096348
 10
-2076.19085919245
 20
638.5867728931596
 10
-2066.46546124749
 20
639.4708999790639
 10
-2042.334910025739
 20
631.7491235881064
 10
-2031.222875849289
 20
620.6370894116549
 10
-2004.899619684688
 20
581.1522051647471
 10
-1965.021659438619
 20
537.6489758054033
 10
-1954.96139100942
 20
533.7796417941715
 10
-1940.963181736491
 20
532.2242852082888
 10
-1932.57888386876
 20
536.0353296936203
 10
-1913.633219955589
 20
554.9809936067945
 10
-1899.639782118729
 20
585.3001089199804
 10
-1886.198926821678
 20
652.5043854052194
 10
-1879.177124150728
 20
663.0370894116544
 10
-1873.09301207458
 20
669.1212014878046
 10
-1856.216887595617
 20
672.4964263835952
 10
-1855.736877440349
 20
672.351091002714
 10
-1851.556716895323
 20
668.1709304576847
 10
-1846.54531097344
 20
656.4776499732944
 10
-1834.455730076335
 20
616.9850190427703
 10
-1796.316029334288
 20
616.2066578031345
 10
-1789.08227382166
 20
621.4675709032269
 10
-1761.789035368559
 20
698.3848792710543
 10
-1747.87166102695
 20
709.692745923614
 10
-1729.804116423159
 20
745.8278351311965
 10
-1719.767446084108
 20
754.4306954218121
 10
-1695.890156492639
 20
767.1652498705977
 10
-1678.72724760594
 20
768.485473631113
 10
-1667.708667237226
 20
766.9113907212968
 10
-1646.407155860496
 20
754.1304838952618
 10
-1624.590087004216
 20
736.4690472020815
 10
-1613.214707991806
 20
723.6717458131275
 10
-1599.092977158621
 20
696.3697328689583
 10
-1559.341690443729
 20
666.5562678327929
 10
-1534.248855706451
 20
665.79587890136
 10
-1519.694844718949
 20
661.753098071499
 10
-1478.98351195194
 20
646.9489770653129
 10
-1464.658258522492
 20
651.246553094147
 10
-1448.152101973673
 20
678.7568140088536
 10
-1444.207196609128
 20
700.8482840502705
 10
-1446.014084220399
 20
723.1332312559313
 10
-1463.37425209322
 20
792.5739027472287
 10
-1472.200000000007
 20
833.7607263122412
 10
-1472.200000000005
 20
853.6415945787905
 10
-1470.497485833787
 20
874.0717645734641
 10
-1469.923399810869
 20
874.5999999999999
 10
-1461.818033988758
 20
874.5999999999999
 10
-1455.221854415135
 20
887.7923591472437
 10
-1450.192359147258
 20
892.8218544151275
 10
-1443.436067977512
 20
896.1999999999999
 10
-1435.922346103731
 20
896.1999999999999
 10
-1420.562346103731
 20
893.8000000000004
 10
-1385.567775432998
 20
893.8000000000004
 10
-1352.268915253379
 20
891.6516864400242
 10
-1343.2389877066
 20
884.8792407799434
 10
-1341.551148753679
 20
879.815723921184
 10
-1340.597845790056
 20
871.2359972485303
 10
-1340.626027195229
 20
881.2122146809262
 10
-1340.039899941446
 20
881.7999999999997
 10
-1337.185786437642
 20
881.7999999999997
 10
-1327.548901183116
 20
872.1631147454807
 10
-1315.546355086457
 20
871.0719741912397
 10
-1271.362277660178
 20
885.7999999999985
 10
-1259.900980486414
 20
885.7999999999985
 10
-1236.786080601225
 20
881.1770200229627
 10
-1220.32601067952
 20
873.8614333910898
 10
-1208.932056425578
 20
864.7462699879378
 10
-1200.069788833578
 20
855.8840023959467
 10
-1154.560523178778
 20
873.5004923268372
 10
-1153.163235623247
 20
897.2543807707784
 10
-1176.073179377728
 20
933.9102907779426
 10
-1188.174188165819
 20
958.1123083541111
 10
-1189.800000000011
 20
972.7446148618603
 10
-1189.800000000008
 20
982.8719243686198
 10
-1181.123192211748
 20
1003.11780920789
 10
-1118.246071700346
 20
1032.707042389729
 10
-1108.588645809077
 20
1038.413703143661
 10
-1092.396068559727
 20
1052.58220823682
 10
-1103.3459336175
 20
1095.539371155678
 10
-1100.760955577117
 20
1105.87928331717
 10
-1092.527864045011
 20
1112.054101966251
 10
-1081.149030329393
 20
1117.74351882406
 10
-1069.097792494101
 20
1120.756328282879
 10
-1032.514610540379
 20
1134.475021515532
 10
-1021.677438712163
 20
1143.686617569523
 10
-987.9771241508261
 20
1194.23708941166
 10
-977.4750316983132
 20
1204.739181864038
 10
-968.2927711233028
 20
1212.391065676568
 10
-955.6719243685852
 20
1217.8
 10
-943.9189042064522
 20
1217.8
 10
-904.5748155903725
 20
1211.37647532801
 10
-894.9150369793911
 20
1208.478541744679
 10
-862.7021349666975
 20
1187.003273736288
 10
-819.5330336747588
 20
1200.493617889618
 10
-770.3560946382022
 20
1205.725207148961
 10
-749.5573593129179
 20
1233.456854249489
 10
-741.4311345792376
 20
1241.583078983148
 10
-724.1308398580195
 20
1252.704697018238
 10
-693.5673946214083
 20
1264.930075112868
 10
-689.8007311186648
 20
1277.642564434648
 10
-685.790171221518
 20
1317.748163406071
 10
-676.6209940850849
 20
1363.594049088202
 10
-675.7536631316657
 20
1397.419956271901
 10
-682.3748492981222
 20
1412.86939066031
 10
-697.8313880095125
 20
1420.59766001601
 10
-814.8300560733164
 20
1419.43925736191
 10
-880.2889840904145
 20
1431.258230476111
 10
-920.48909200143
 20
1422.643921638029
 10
-932.2593450783143
 20
1423.820946945719
 10
-942.016992812838
 20
1428.157679272159
 10
-963.8148461975252
 20
1444.010663551941
 10
-1003.023862600109
 20
1476.684843887467
 10
-1016.364074168876
 20
1499.553778005281
 10
-1033.98361380103
 20
1541.840673122371
 10
-1053.408477253069
 20
1543.806357939799
 10
-1057.518524340822
 20
1546.888893255609
 10
-1055.526966582008
 20
1541.909998858532
 10
-1080.010562427913
 20
1544.419387963082
 10
-1078.126120427555
 20
1555.726039964949
 10
-1077.566629364713
 20
1556.200000000001
 10
-1073.383390805273
 20
1556.200000000001
 10
-1064.625552607276
 20
1552.21916445545
 10
-1073.285714285699
 20
1558.71428571429
 10
-1077.800000000013
 20
1564.73333333333
 10
-1077.800000000006
 20
1567.562049935181
 10
-1070.081432282963
 20
1576.824331195621
 10
-1061.583633443855
 20
1630.239066755269
 10
-1030.034194233101
 20
1658.920375128741
 10
-1020.48208147349
 20
1692.352769787368
 10
-1004.845948866661
 20
1718.93419521897
 10
-981.3565308699558
 20
1753.657682692469
 10
-968.3204954466669
 20
1766.693718115728
 10
-890.1322454196029
 20
1799.886843127211
 10
-859.7122522630411
 20
1818.138839021159
 10
-847.4467837483003
 20
1820.969331755322
 10
-789.9870412776377
 20
1836.982702607809
 10
-659.0697038239791
 20
1843.21686153417
 10
-652.5643921632341
 20
1845.656353406958
 10
-634.4775743535079
 20
1864.529554599719
 10
-629.010401434592
 20
1880.931073356361
 10
-631.5491575180336
 20
1920.70491866316
 10
-648.1360423154306
 20
1922.28462197719
 10
-661.3371616543568
 20
1927.94224455104
 10
-673.3297935861769
 20
1938.335858891938
 10
-701.3783426239938
 20
1949.73058193855
 10
-737.2298013029549
 20
1972.303722588251
 10
-748.0681260757283
 20
2001.8627901504
 10
-761.3748417785887
 20
2015.952253835758
 10
-814.7222364639583
 20
2037.121854901392
 10
-826.1544926449296
 20
2050.312919725557
 10
-838.0449414212198
 20
2053.483706065897
 10
-844.7567097799561
 20
2058.517532334959
 10
-848.9437533438195
 20
2065.495938274743
 10
-849.7649771992542
 20
2090.13265393755
 10
-873.6977018798666
 20
2161.930827979369
 10
-876.8110558147728
 20
2199.291075198279
 10
-887.9909631607379
 20
2220.952145681101
 10
-905.7908081674959
 20
2235.192021686509
 10
-947.8370894116592
 20
2263.222875849282
 10
-966.6626489370328
 20
2282.048435374646
 10
-1015.226614111298
 20
2253.096840751527
 10
-1056.715195469161
 20
2234.945586407461
 10
-1073.429647609442
 20
2231.012774139161
 10
-1082.730679282889
 20
2229.979326175438
 10
-1104.388812680795
 20
2237.476372351639
 10
-1116.684741648988
 20
2243.624336835744
 10
-1120.906334681636
 20
2249.956726384695
 10
-1124.962867188858
 20
2262.126323906381
 10
-1135.354715864879
 20
2306.09183753568
 10
-1144.769179977892
 20
2328.843459142128
 10
-1168.186462429557
 20
2338.990948204519
 10
-1183.753607885977
 20
2338.314115793371
 10
-1250.547673578554
 20
2310.81067697878
 10
-1259.778778678681
 20
2311.964565116297
 10
-1279.711249541296
 20
2331.897035978922
 10
-1316.937161752232
 20
2341.203514031649
 10
-1332.397325684128
 20
2338.258720901771
 10
-1350.088512218816
 20
2325.622159091284
 10
-1350.827752255533
 20
2325.689253879234
 10
-1351.344222258097
 20
2326.22239202166
 10
-1352.760284586512
 20
2350.295451604567
 10
-1355.086724779021
 20
2326.255569615259
 10
-1363.114215331271
 20
2315.217770105918
 10
-1363.541865742248
 20
2314.999999999999
 10
-1365.914220449939
 20
2314.999999999999
 10
-1366.429715423429
 20
2315.359448044821
 10
-1371.984520123552
 20
2330.43677508799
 10
-1381.206181951161
 20
2334.125439819029
 10
-1381.5171346544
 20
2334.469916345711
 10
-1385.323146533499
 20
2347.790957922591
 10
-1389.800000000008
 20
2379.12893218813
 10
-1389.800000000014
 20
2393.752610922847
 10
-1384.107970123668
 20
2411.967106527131
 10
-1375.932787393881
 20
2432.989004975158
 10
-1367.92195049088
 20
2446.340399813508
 10
-1367.46344713911
 20
2446.599999999999
 10
-1362.848476013727
 20
2446.599999999999
 10
-1362.3000691991
 20
2446.160083624568
 10
-1354.112787711091
 20
2409.317316928518
 10
-1352.967214718336
 20
2399.579946490092
 10
-1353.239894324176
 20
2522.831128329623
 10
-1353.575410814376
 20
2522.715118172076
 10
-1368.894187723022
 20
2527.220640792257
 10
-1421.913088291139
 20
2566.984816218347
 10
-1477.859945055367
 20
2551.000000000005
 10
-1505.590096989666
 20
2551.000000000005
 10
-1548.902063357899
 20
2509.800812479
 10
-1611.831885231832
 20
2460.166023395338
 10
-1621.572661946112
 20
2455.295635038197
 10
-1638.256402832349
 20
2453.210167427419
 10
-1640.671504532513
 20
2454.417718277497
 10
-1640.961174320028
 20
2454.827136811879
 10
-1642.133161409069
 20
2464.203033524149
 10
-1637.577124150729
 20
2471.037089411662
 10
-1623.275077939928
 20
2485.339135622461
 10
-1620.991331943011
 20
2508.937844257229
 10
-1616.773229798939
 20
2532.137406049657
 10
-1586.97665469539
 20
2586.764460406158
 10
-1567.314536321579
 20
2612.98061823791
 10
-1563.385667871529
 20
2627.386469221437
 10
-1560.635913228822
 20
2652.821699666436
 10
-1580.35840071047
 20
2672.544187148088
 10
-1600.679953899496
 20
2718.267681823409
 10
-1629.672803057382
 20
2721.402043894524
 10
-1696.740848636259
 20
2723.948931701319
 10
-1708.912882935177
 20
2709.342490542619
 10
-1737.471787606108
 20
2688.780079179559
 10
-1754.142889397201
 20
2682.52841600789
 10
-1754.826369682531
 20
2682.766965505921
 10
-1762.145886626309
 20
2694.966160412215
 10
-1773.061734737861
 20
2694.324051699777
 10
-1800.96291058836
 20
2666.422875849277
 10
-1812.531934511031
 20
2658.710193234155
 10
-1829.967422625221
 20
2651.735997988489
 10
-1844.399415249676
 20
2647.800000000006
 10
-1861.03606797751
 20
2647.800000000006
 10
-1867.381652352032
 20
2650.972792187255
 10
-1868.685438336861
 20
2645.10575525552
 10
-1869.081867221139
 20
2644.698756788316
 10
-1873.962583840158
 20
2643.478577633561
 10
-1898.337572569658
 20
2646.186909714606
 10
-1916.081514084708
 20
2641.962161734838
 10
-1971.37845717357
 20
2643.805393171134
 10
-1985.24327361531
 20
2648.426998651709
 10
-2012.561800565539
 20
2666.639349951855
 10
-2028.089951544079
 20
2648.892891690682
 10
-2041.807014238538
 20
2636.789601077907
 10
-2049.998535107509
 20
2631.874688556532
 10
-2077.18788245123
 20
2624.106303601176
 10
-2089.815303566558
 20
2622.70325681059
 10
-2103.99821611678
 20
2625.539839320642
 10
-2118.269241711549
 20
2631.655993146971
 10
-2166.466051489771
 20
2671.820001295479
 10
-2180.679194562768
 20
2679.264981000383
 10
-2192.95527119453
 20
2691.541057632138
 10
-2293.752312578509
 20
2754.259216715503
 10
-2345.747050336861
 20
2755.001998683495
 10
-2357.550036723369
 20
2758.374280508212
 10
-2382.00570194085
 20
2767.884816981676
 10
-2398.968493270592
 20
2776.366212646546
 10
-2411.615806513369
 20
2775.034916515717
 10
-2423.182188928181
 20
2766.19003584558
 10
-2427.041996314699
 20
2746.890998912966
 10
-2433.080919030378
 20
2733.605368938461
 10
-2451.527074326977
 20
2718.513060059428
 10
-2461.544614861871
 20
2717.400000000005
 10
-2474.014213562381
 20
2717.400000000005
 10
-2474.600000000012
 20
2717.985786437636
 10
-2474.60000000001
 20
2720.520122706889
 10
-2481.873919507849
 20
2719.960590437057
 10
-2508.607974317763
 20
2692.304671668183
 10
-2522.746496200406
 20
2679.108717911045
 10
-2534.850969670629
 20
2673.05648117594
 10
-2543.049651732018
 20
2671.006810660587
 10
-2579.101881693441
 20
2669.003908996074
 10
-2610.903124050762
 20
2673.896407820273
 10
-2647.246782897268
 20
2658.320554028906
 10
-2657.729222295036
 20
2656.414655956584
 10
-2676.405858970328
 20
2663.885310626699
 10
-2710.624235404249
 20
2680.61429466106
 10
-2732.813930786311
 20
2682.321194305844
 10
-2775.344532889571
 20
2720.801262875461
 10
-2797.409945928971
 20
2754.308001194543
 10
-2809.30480093712
 20
2756.85689869629
 10
-2809.74436354065
 20
2757.370787354131
 10
-2811.127346935534
 20
2782.264488462066
 10
-2809.673283808986
 20
2806.983561613189
 10
-2804.570336552918
 20
2824.843877009473
 10
-2803.206140582286
 20
2826.208072980085
 10
-2799.400000000011
 20
2833.059126028201
 10
-2799.400000000009
 20
2835.476983964949
 10
-2796.994363782851
 20
2839.486377660222
 10
-2796.231505255892
 20
2876.866445481114
 10
-2842.734566698899
 20
2856.822022445328
 10
-2866.950205547658
 20
2855.611240502888
 10
-2874.312720701107
 20
2856.838326361796
 10
-2889.28542189452
 20
2864.324676958508
 10
-2912.225432717271
 20
2857.872798914612
 10
-2951.034679549367
 20
2861.199305785926
 10
-2959.79235914726
 20
2865.578145584866
 10
-2976.879079062782
 20
2882.664865500403
 10
-2984.286403983221
 20
2886.897622597793
 10
-2994.496825899081
 20
2884.345017118832
 10
-3017.069090068103
 20
2891.116696369538
 10
-3024.20764085276
 20
2883.978145584867
 10
-3042.887279298909
 20
2874.638326361801
 10
-3051.117642456436
 20
2873.266599168882
 10
-3051.539113327056
 20
2873.380886159887
 10
-3066.016608737829
 20
2885.445465668879
 10
-3084.264249804054
 20
2887.800000000002
 10
-3095.350367627193
 20
2887.800000000002
 10
-3109.193146441204
 20
2892.059316558158
 10
-3128.971863271775
 20
2903.69385587025
 10
-3152.931559225825
 20
2920.80792440887
 10
-3175.687935634604
 20
2939.771571416173
 10
-3206.140643287859
 20
2976.683944329223
 10
-3243.826771737134
 20
2983.75009341345
 10
-3255.840869107861
 20
2976.992163642411
 10
-3258.195325329726
 20
2944.029776536366
 10
-3247.166091782802
 20
2860.037921063641
 10
-3251.981328075043
 20
2832.751582074203
 10
-3256.963702645585
 20
2812.822083792038
 10
-3262.562910588351
 20
2807.222875849282
 10
-3271.556726384713
 20
2801.226998651714
 10
-3285.437722339837
 20
2796.599999999999
 10
-3303.26225774831
 20
2796.599999999999
 10
-3355.421608622449
 20
2803.119918859267
 10
-3383.491342492799
 20
2793.517115166781
 10
-3401.400000000016
 20
2777.944369508343
 10
-3401.400000000009
 20
2771.469272036553
 10
-3387.19753861571
 20
2747.009477430248
 10
-3352.69310465565
 20
2711.64243262119
 10
-3341.592021686514
 20
2694.990808167485
 10
-3303.748463693026
 20
2647.686360675628
 10
-3292.431876713671
 20
2627.31650411279
 10
-3284.697859831908
 20
2608.754863596548
 10
-3286.380003982376
 20
2595.297710392708
 10
-3288.725967951102
 20
2588.259818486523
 10
-3300.279622758989
 20
2576.706163678642
 10
-3286.299350516787
 20
2558.065800689036
 10
-3255.886634230128
 20
2539.818170917038
 10
-3240.962803221351
 20
2523.650687324201
 10
-3236.600000000009
 20
2510.562277660169
 10
-3236.6
 20
2497.363932022496
 10
-3248.282954691349
 20
2473.998022639832
 10
-3250.063193018179
 20
2457.975877698309
 10
-3247.000000000017
 20
2445.723105625627
 10
-3247.000000000009
 20
2430.485332084891
 10
-3251.079262038069
 20
2419.607299983386
 10
-3257.803972080987
 20
2405.59748739398
 10
-3263.421281873665
 20
2391.55421291229
 10
-3268.80584439615
 20
2382.579942041494
 10
-3284.124968301675
 20
2367.260818135961
 10
-3314.315121254455
 20
2342.10235734198
 10
-3331.807810624481
 20
2302.553668331489
 10
-3354.623327615207
 20
2266.700713060373
 10
-3368.996585557731
 20
2255.202106706329
 10
-3386.641120977516
 20
2242.598867120782
 10
-3402.237722339844
 20
2237.400000000002
 10
-3419.45488955633
 20
2237.400000000002
 10
-3427.000000000001
 20
2219.794742298047
 10
-3427.000000000014
 20
2206.600671054051
 10
-3405.87896642384
 20
2156.093851632799
 10
-3393.979016154651
 20
2096.594100286769
 10
-3377.832741717852
 20
2064.301551413162
 10
-3367.774260076317
 20
2031.890888346041
 10
-3362.399962749922
 20
1994.270807061248
 10
-3342.56062675007
 20
1975.092782261396
 10
-3327.792582403573
 20
1981
 10
-3312.38578643762
 20
1981
 10
-3307.205844396144
 20
1975.820057958509
 10
-3297.72417784764
 20
1960.01728037766
 10
-3229.566354857513
 20
1895.267348537049
 10
-3208.524346240454
 20
1871.595088842859
 10
-3152.920049520696
 20
1823.93426308305
 10
-3135.265736916966
 20
1806.27995047932
 10
-3119.064616524223
 20
1787.378643354499
 10
-3102.443449853168
 20
1758.291601680039
 10
-3097.254533982311
 20
1740.995215443898
 10
-3095.504933172793
 20
1723.499207348431
 10
-3097.010188880913
 20
1705.43613885097
 10
-3100.646317851938
 20
1690.891622966519
 10
-3108.963976045475
 20
1670.09747748474
 10
-3117.472604850614
 20
1655.207377075399
 10
-3148.749259522201
 20
1620.251115971258
 10
-3164.419233791088
 20
1584.787489994239
 10
-3182.62512197524
 20
1556.467219485493
 10
-3202.980305385635
 20
1530.005481052001
 10
-3222.252061778419
 20
1510.7337246592
 10
-3247.891508015287
 20
1488.590566545559
 10
-3352.88993797677
 20
1412.080082697657
 10
-3374.269786768168
 20
1383.573617642469
 10
-3381.410915611462
 20
1351.0418084674
 10
-3386.995599075583
 20
1295.992785749699
 10
-3385.006615367679
 20
1273.119473108861
 10
-3373.828911598326
 20
1200.464398607159
 10
-3367.79999999999
 20
1142.18491982474
 10
-3367.800000000001
 20
1035.837722339829
 10
-3373.460609486824
 20
1018.855893879437
 10
-3384.633377213987
 20
990.9239745615168
 10
-3381.331532167067
 20
985.1457457294385
 10
-3356.848870342833
 20
960.6630839051825
 10
-3348.151631751241
 20
949.4809200017103
 10
-3337.506699973248
 20
930.8522893902663
 10
-3330.914475232835
 20
916.019783724318
 10
-3328.532229190863
 20
902.9174304934387
 10
-3330.212133486793
 20
888.6382439780565
 10
-3333.44184927265
 20
873.2970939952141
 10
-3336.303560022235
 20
866.6197689128663
 10
-3344.053730012073
 20
856.9320564255662
 10
-3374.37814558488
 20
826.607640852754
 10
-3387.130041549048
 20
801.1038489244121
 10
-3401.668821025338
 20
778.5687407361667
 10
-3394.200000000009
 20
756.1622776601668
 10
-3394.200000000006
 20
735.7369397311494
 10
-3403.324341943519
 20
691.9400984022949
 10
-3375.203797391662
 20
669.4436627608097
 10
-3369.438326361809
 20
657.9127207010996
 10
-3367.800000000011
 20
648.082762530297
 10
-3367.800000000008
 20
627.1009804864073
 10
-3370.162990438115
 20
615.28602829588
 10
-3378.075782719228
 20
598.3300448363548
 10
-3391.27357493614
 20
576.3337244748309
 10
-3403.248870342821
 20
560.9369160948163
 10
-3414.450618457121
 20
549.7351679805117
 10
-3431.96824476324
 20
527.4400072272754
  0
LWPOLYLINE
  5
57
100
AcDbEntity
  8
51
  6
ByLayer
 62
  256
370
   -1
100
AcDbPolyline
 90
   21
 70
    1
 43
0
 10
-1770.240085731539
 20
2396.230743975119
 10
-1770.231759288658
 20
2370.602132740966
 10
-1764.329111239999
 20
2347.255595267203
 10
-1749.407350034748
 20
2327.07805004153
 10
-1726.839716730757
 20
2307.606611358743
 10
-1697.636762456822
 20
2297.020754254314
 10
-1680.314406253598
 20
2296.348814101453
 10
-1656.432083000509
 20
2305.832506008917
 10
-1633.382832419599
 20
2323.012954610141
 10
-1611.954951162928
 20
2346.544484762912
 10
-1591.763733559072
 20
2381.989441413955
 10
-1581.15471006662
 20
2407.839579510649
 10
-1618.073312258019
 20
2617.998420999361
 10
-1643.784485869064
 20
2608.439747439527
 10
-1658.676141786739
 20
2597.553065715981
 10
-1675.17002790054
 20
2583.619450708189
 10
-1713.528451576853
 20
2538.86479482669
 10
-1729.294283090477
 20
2512.10369194873
 10
-1743.05469953759
 20
2483.563252685755
 10
-1755.34184862657
 20
2455.123431967162
 10
-1764.988565868681
 20
2424.929251826421
  0
LWPOLYLINE
  5
58
100
AcDbEntity
  8
51
  6
ByLayer
 62
  256
370
   -1
100
AcDbPolyline
 90
   14
 70
    1
 43
0
 10
-1697.851844193418
 20
1606.544242165541
 10
-1694.196806229789
 20
1594.58005916776
 10
-1683.734399801169
 20
1583.40181839552
 10
-1649.040736609705
 20
1570.618188482311
 10
-1624.149368149662
 20
1567.66645794809
 10
-1594.406273437494
 20
1566.237688455509
 10
-1562.275344886348
 20
1565.900607635263
 10
-1528.721434353104
 20
1568.28102214688
 10
-1488.626785489414
 20
1628.755410126359
 10
-1600.685181038274
 20
1651.264679904798
 10
-1650.930735574571
 20
1644.744951611539
 10
-1670.874401417848
 20
1637.747836356389
 10
-1685.230406926287
 20
1630.238998536739
 10
-1694.661064055773
 20
1619.348678742259
  0
LWPOLYLINE
  5
59
100
AcDbEntity
  8
51
  6
ByLayer
 62
  256
370
   -1
100
AcDbPolyline
 90
   32
 70
    1
 43
0
 10
-1577.607345680363
 20
1581.797154643281
 10
-1577.381079183719
 20
1570.90050593864
 10
-1570.042747577492
 20
1560.307134197922
 10
-1555.972801474583
 20
1552.582520953147
 10
-1536.162705715244
 20
1543.68827843312
 10
-1511.627475746616
 20
1538.222024108012
 10
-1477.338820062111
 20
1531.94088107594
 10
-1405.711501628256
 20
1528.750542070132
 10
-1340.306769658047
 20
1527.491935670499
 10
-1254.86091052663
 20
1528.692837536008
 10
-1225.015660999028
 20
1529.85484622646
 10
-1187.778598247357
 20
1532.94567201028
 10
-1156.509643298885
 20
1540.203375955143
 10
-1123.996431060527
 20
1545.860613406601
 10
-1101.185306039621
 20
1554.847328628579
 10
-1087.950312601932
 20
1562.286694535962
 10
-1074.10499573937
 20
1573.104129820529
 10
-1087.437697154233
 20
1626.369784434889
 10
-1094.166631266887
 20
1629.473067881189
 10
-1126.293698404579
 20
1635.387271967618
 10
-1149.123690754682
 20
1642.31128264739
 10
-1239.413106913942
 20
1653.725235207708
 10
-1276.572503368721
 20
1654.94379074638
 10
-1313.074139686637
 20
1652.199507211572
 10
-1330.75432941739
 20
1649.51888500608
 10
-1405.308440016351
 20
1641.87235061241
 10
-1471.736447600116
 20
1631.37560204677
 10
-1497.878575052305
 20
1623.08721586655
 10
-1496.369536989241
 20
1621.987958553437
 10
-1518.239926456636
 20
1617.369841973859
 10
-1559.060744381973
 20
1603.281583396161
 10
-1571.737530725934
 20
1593.07349788569
  0
LWPOLYLINE
  5
5A
100
AcDbEntity
  8
51
  6
ByLayer
 62
  256
370
   -1
100
AcDbPolyline
 90
   19
 70
    1
 43
0
 10
-3138.538928311527
 20
558.2815012968254
 10
-3138.46791205155
 20
534.0752855337034
 10
-3130.089306422839
 20
518.2238908985742
 10
-3119.90644685133
 20
506.3599099753444
 10
-2838.779936710751
 20
621.7173096043539
 10
-2841.470938725889
 20
628.2456860299685
 10
-2855.108448430119
 20
638.9420067369717
 10
-2867.096307140821
 20
643.3387740280922
 10
-2885.103117168709
 20
651.6992303636886
 10
-2909.739452150549
 20
659.4769063933586
 10
-2934.731816836009
 20
665.2480586204925
 10
-2958.429749762518
 20
666.497733542432
 10
-2989.29107541825
 20
664.9803424357121
 10
-3018.477105308512
 20
658.3063924475143
 10
-3046.01275532704
 20
648.7364889653926
 10
-3070.958976131139
 20
632.7652308123011
 10
-3093.797241756118
 20
615.6505212160876
 10
-3113.435477332979
 20
596.8079262963877
 10
-3129.97492929906
 20
577.8884677729075
  0
LWPOLYLINE
  5
5B
100
AcDbEntity
  8
52
  6
ByLayer
 62
  256
370
   -1
100
AcDbPolyline
 90
    3
 70
    1
 43
0
 10
-3084.711922083548
 20
1352.115401177851
 10
-3078.25996323179
 20
1353.790419534461
 10
-3083.314568555286
 20
1353.766101973571
  0
LWPOLYLINE
  5
5C
100
AcDbEntity
  8
52
  6
ByLayer
 62
  256
370
   -1
100
AcDbPolyline
 90
   16
 70
    1
 43
0
 10
-3410.009864700874
 20
2771.864945439877
 10
-3298.169759053944
 20
2625.18160597967
 10
-3292.250020532544
 20
2627.489062813145
 10
-3282.311701940979
 20
2637.87104429515
 10
-3274.301549314705
 20
2651.607111048922
 10
-3268.575077968528
 20
2668.824499943924
 10
-3264.471718836365
 20
2689.776770971025
 10
-3264.835662121606
 20
2715.380219108446
 10
-3272.234490097507
 20
2742.359954130557
 10
-3282.022237401888
 20
2767.360080190768
 10
-3298.110537009247
 20
2790.332403174398
 10
-3314.35661754352
 20
2805.227629477969
 10
-3334.620804352695
 20
2812.759530975194
 10
-3350.875937761133
 20
2814.065760294221
 10
-3388.119690246358
 20
2803.041569313416
 10
-3401.159126362914
 20
2789.181852997328
  0
LWPOLYLINE
  5
5D
100
AcDbEntity
  8
52
  6
ByLayer
 62
  256
370
   -1
100
AcDbPolyline
 90
   18
 70
    1
 43
0
 10
-1684.56913788666
 20
2429.447678102269
 10
-1682.519809784291
 20
2417.330510168762
 10
-1675.627306490896
 20
2392.865713013839
 10
-1673.705266021768
 20
2380.316829782444
 10
-1671.870272063486
 20
2351.486600927754
 10
-1669.742527292948
 20
2342.696781492091
 10
-1663.855346458959
 20
2334.260057631022
 10
-1654.027900695397
 20
2330.722909886801
 10
-1642.775432452159
 20
2331.121813678378
 10
-1630.935244716438
 20
2336.803527108612
 10
-1619.346400286523
 20
2346.473208866521
 10
-1608.186022272539
 20
2361.146977175491
 10
-1594.627452079522
 20
2391.719551357615
 10
-1588.339084266733
 20
2413.584766953439
 10
-1668.952863567508
 20
2460.476081560883
 10
-1674.84742207092
 20
2457.838407879416
 10
-1680.871704869037
 20
2451.111419711713
 10
-1684.48625400581
 20
2439.48062511212
  0
LWPOLYLINE
  5
5E
100
AcDbEntity
  8
52
  6
ByLayer
 62
  256
370
   -1
100
AcDbPolyline
 90
   12
 70
    1
 43
0
 10
-1627.477910646898
 20
2646.224092524841
 10
-1625.657216336328
 20
2634.056276893938
 10
-1618.400060247674
 20
2623.180239825911
 10
-1607.964808272959
 20
2616.950286568913
 10
-1577.588140982614
 20
2614.339249316707
 10
-1579.67853934913
 20
2641.061447851807
 10
-1581.606451495529
 20
2644.796533039033
 10
-1584.144623435789
 20
2647.541424556323
 10
-1596.865587241809
 20
2654.204700630903
 10
-1606.058202358879
 20
2657.487425399989
 10
-1616.116312465441
 20
2657.92592612319
 10
-1624.29857950886
 20
2652.724375924408
  0
LWPOLYLINE
  5
5F
100
AcDbEntity
  8
52
  6
ByLayer
 62
  256
370
   -1
100
AcDbPolyline
 90
   18
 70
    1
 43
0
 10
-1610.057837830059
 20
711.86122063469
 10
-1605.21078401358
 20
691.5655821766367
 10
-1591.448596931606
 20
670.0234345213769
 10
-1569.278232209717
 20
652.1116863448816
 10
-1542.763575527526
 20
638.3646079372513
 10
-1512.641330216559
 20
628.299757051853
 10
-1476.904058656806
 20
625.8283038872087
 10
-1435.221647886109
 20
630.5437777405832
 10
-1411.26714213415
 20
641.3082481492622
 10
-1487.14135871835
 20
857.9103015184012
 10
-1492.527170321343
 20
853.187054777324
 10
-1505.685985518347
 20
845.6460725541018
 10
-1535.585053905979
 20
830.3870750656713
 10
-1556.238631293399
 20
814.6180976510832
 10
-1573.031963587081
 20
796.2574935086848
 10
-1586.42145118628
 20
779.0391604618748
 10
-1604.056595215422
 20
743.8131362060636
 10
-1607.945357078795
 20
731.8505687069884
  0
LWPOLYLINE
  5
60
100
AcDbEntity
  8
52
  6
ByLayer
 62
  256
370
   -1
100
AcDbPolyline
 90
    9
 70
    1
 43
0
 10
-1069.814676213662
 20
1647.211985391288
 10
-991.1662459841705
 20
1776.623419205019
 10
-996.5253909759936
 20
1777.007989506358
 10
-1001.911357347999
 20
1775.25897720242
 10
-1017.742051600455
 20
1765.515921311858
 10
-1024.782841810895
 20
1758.027610163647
 10
-1035.994425923849
 20
1742.744275832481
 10
-1055.72950966851
 20
1705.69881495384
 10
-1067.74314741949
 20
1668.41961006284
  0
LWPOLYLINE
  5
61
100
AcDbEntity
  8
52
  6
ByLayer
 62
  256
370
   -1
100
AcDbPolyline
 90
   23
 70
    1
 43
0
 10
-1820.35163218905
 20
868.7672174320911
 10
-1819.188796711381
 20
842.7827678159874
 10
-1811.57498147206
 20
813.9013366613282
 10
-1798.957556726109
 20
784.1298339673064
 10
-1778.973990724929
 20
755.0171538351633
 10
-1759.522258167331
 20
733.219787762465
 10
-1737.757722300211
 20
717.9751265550473
 10
-1662.313757019639
 20
745.8227709290848
 10
-1661.194508910218
 20
753.5187314194706
 10
-1662.005862013959
 20
760.2753053250124
 10
-1664.5687707147
 20
771.909054436611
 10
-1669.264490655042
 20
787.2262603724821
 10
-1677.59119752821
 20
808.2084440111828
 10
-1688.127361669168
 20
830.7913008400826
 10
-1701.762059208988
 20
854.6194212459767
 10
-1719.79034199702
 20
881.3186826004511
 10
-1735.102668800438
 20
899.4067621376817
 10
-1753.030956210729
 20
918.6130019064138
 10
-1770.605389673228
 20
929.6657657106481
 10
-1785.057994781221
 20
929.6434607239009
 10
-1797.8867133342
 20
921.6198077996828
 10
-1809.268600131731
 20
909.0746449339288
 10
-1817.781157297396
 20
892.4648675103435
  0
LWPOLYLINE
  5
62
100
AcDbEntity
  8
52
  6
ByLayer
 62
  256
370
   -1
100
AcDbPolyline
 90
    3
 70
    1
 43
0
 10
-1948.03156865611
 20
627.1651026412371
 10
-1940.463543737818
 20
621.6770818289453
 10
-1932.92061965252
 20
617.5860664240115
  0
LWPOLYLINE
  5
63
100
AcDbEntity
  8
52
  6
ByLayer
 62
  256
370
   -1
100
AcDbPolyline
 90
    9
 70
    1
 43
0
 10
-3287.83908319336
 20
2004.449386028658
 10
-3286.976735558255
 20
2002.569211122912
 10
-3277.378566594381
 20
1998.016215895489
 10
-3264.455773455533
 20
1989.295404907362
 10
-3252.191315776392
 20
1983.67383318435
 10
-3231.59016053644
 20
1986.301709456201
 10
-3258.683087782116
 20
1999.629361487302
 10
-3277.119608721521
 20
2005.458245031422
 10
-3286.26286215697
 20
2006.581936437071
  0
LWPOLYLINE
  5
64
100
AcDbEntity
  8
52
  6
ByLayer
 62
  256
370
   -1
100
AcDbPolyline
 90
    7
 70
    1
 43
0
 10
-1975.19597694828
 20
572.0275186131355
 10
-1973.08891926843
 20
566.6930672661067
 10
-1959.346301160249
 20
572.3797244258833
 10
-1960.819076854091
 20
574.3612398650498
 10
-1964.577863374279
 20
576.2924448504436
 10
-1973.1881204953
 20
577.8944887668206
 10
-1975.195074009609
 20
576.2439185164519
  0
LWPOLYLINE
  5
65
100
AcDbEntity
  8
52
  6
ByLayer
 62
  256
370
   -1
100
AcDbPolyline
 90
    7
 70
    1
 43
0
 10
-1551.935523933327
 20
1735.329564707791
 10
-1541.904218285723
 20
1732.782881373671
 10
-1541.040398500972
 20
1733.112505977548
 10
-1541.039670886768
 20
1734.204705735189
 10
-1542.562689115504
 20
1735.678920683889
 10
-1545.406947003928
 20
1736.49361568466
 10
-1548.404146338825
 20
1736.495612393349
  0
LWPOLYLINE
  5
66
100
AcDbEntity
  8
52
  6
ByLayer
 62
  256
370
   -1
100
AcDbPolyline
 90
    9
 70
    1
 43
0
 10
-3354.089875558118
 20
352.1242653203326
 10
-3345.938401288988
 20
343.1309194824562
 10
-3327.144153203419
 20
334.9480945217053
 10
-3247.024874622299
 20
370.7957378645956
 10
-3249.437673309549
 20
371.7360545850577
 10
-3289.39164937843
 20
372.7860107209835
 10
-3329.092033407351
 20
371.9309125066954
 10
-3343.621986224798
 20
366.5492239610116
 10
-3353.351224925139
 20
361.6999073584625
  0
LWPOLYLINE
  5
67
100
AcDbEntity
  8
52
  6
ByLayer
 62
  256
370
   -1
100
AcDbPolyline
 90
    6
 70
    1
 43
0
 10
-1168.639013001689
 20
2316.415033173782
 10
-1167.787156547858
 20
2298.786861762592
 10
-1166.010121454242
 20
2297.337877595649
 10
-1156.031816742068
 20
2329.61463729783
 10
-1164.898563775001
 20
2326.394743533439
 10
-1166.882318445648
 20
2322.560664242834
  0
LWPOLYLINE
  5
68
100
AcDbEntity
  8
52
  6
ByLayer
 62
  256
370
   -1
100
AcDbPolyline
 90
   23
 70
    1
 43
0
 10
-1134.971201814941
 20
2214.411087739381
 10
-1125.536685455227
 20
2192.967197787717
 10
-1113.662517463353
 20
2173.401282978001
 10
-1098.309463991728
 20
2152.461450259999
 10
-1078.257648460471
 20
2131.162887187781
 10
-1055.205875428898
 20
2114.002526488141
 10
-1029.967570803291
 20
2100.041109849938
 10
-1002.822049915319
 20
2089.405823378858
 10
-975.342894084813
 20
2083.926515787214
 10
-942.8075149349893
 20
2080.882240323709
 10
-915.3488857759394
 20
2082.718148030039
 10
-889.614867280794
 20
2088.4414055197
 10
-867.30636224516
 20
2099.399346218383
 10
-853.7817880466864
 20
2117.068740185059
 10
-847.6451941134351
 20
2139.873857099888
 10
-847.8030777508047
 20
2169.769768914678
 10
-852.2065677304208
 20
2193.953507848108
 10
-862.2172463619268
 20
2227.462784311469
 10
-875.3560500325084
 20
2255.081343397474
 10
-892.5611371713926
 20
2279.273610645998
 10
-911.9045787109103
 20
2296.329900864211
 10
-934.8851435311335
 20
2305.997212462807
 10
-959.8034348286146
 20
2304.667612517728
  0
LWPOLYLINE
  5
69
100
AcDbEntity
  8
52
  6
ByLayer
 62
  256
370
   -1
100
AcDbPolyline
 90
    6
 70
    1
 43
0
 10
-2379.790257096935
 20
2761.312192234754
 10
-2375.576142402698
 20
2757.880384066487
 10
-2364.531544382161
 20
2751.269024783787
 10
-2350.616899289881
 20
2744.42715344943
 10
-2334.212124080661
 20
2738.980623521562
 10
-2291.41521489297
 20
2735.827911891516
  0
LWPOLYLINE
  5
6A
100
AcDbEntity
  8
52
  6
ByLayer
 62
  256
370
   -1
100
AcDbPolyline
 90
    9
 70
    1
 43
0
 10
-1358.080877543746
 20
872.2844636497199
 10
-1221.686187820218
 20
856.8120544817953
 10
-1228.695276766582
 20
862.9349556129555
 10
-1242.003103220392
 20
871.2182056632255
 10
-1260.771788124854
 20
880.16302516711
 10
-1306.514935168622
 20
890.6884212666197
 10
-1332.371634151865
 20
893.0307585116262
 10
-1348.704236292209
 20
891.1546560822248
 10
-1356.68118507794
 20
884.8571641949942
  0
LWPOLYLINE
  5
6B
100
AcDbEntity
  8
53
  6
ByLayer
 62
  256
370
   -1
100
AcDbPolyline
 90
    8
 70
    1
 43
0
 10
-874.6250416001194
 20
2128.742258600709
 10
-874.2779023090784
 20
2116.04202452126
 10
-869.628297693057
 20
2080.021719001791
 10
-860.9538352193276
 20
2061.49933603975
 10
-847.100464375812
 20
2038.934902036826
 10
-835.8583350225144
 20
2023.814409272237
 10
-820.3461976869457
 20
2012.907472800299
 10
-873.6547654362416
 20
2136.36161390191
  0
LWPOLYLINE
  5
6C
100
AcDbEntity
  8
53
  6
ByLayer
 62
  256
370
   -1
100
AcDbPolyline
 90
    8
 70
    1
 43
0
 10
-1425.01335764048
 20
2307.50919448123
 10
-1424.01218088982
 20
2285.258122568297
 10
-1418.243284395776
 20
2251.777071949752
 10
-1403.160831806865
 20
2244.045422434691
 10
-1396.829329336202
 20
2254.40440674127
 10
-1413.597373346036
 20
2362.721201503195
 10
-1417.056425926034
 20
2355.73850434457
 10
-1423.652910238173
 20
2328.895092908607
  0
LWPOLYLINE
  5
6D
100
AcDbEntity
  8
53
  6
ByLayer
 62
  256
370
   -1
100
AcDbPolyline
 90
    7
 70
    1
 43
0
 10
-1143.976056061585
 20
2239.487385854652
 10
-1142.45801268334
 20
2230.545572563054
 10
-1136.495951724546
 20
2220.127598377831
 10
-1126.391255023029
 20
2213.364465215579
 10
-1112.476812985869
 20
2206.217793948852
 10
-1097.847448429285
 20
2204.658647646831
 10
-1081.132949201007
 20
2206.60331302366
  0
LWPOLYLINE
  5
6E
100
AcDbEntity
  8
53
  6
ByLayer
 62
  256
370
   -1
100
AcDbPolyline
 90
   14
 70
    1
 43
0
 10
-3270.673386843804
 20
2950.562760338534
 10
-3269.238159661345
 20
2931.689600014538
 10
-3262.540378771541
 20
2919.950335405872
 10
-3252.66463736576
 20
2912.653954653315
 10
-3239.230223189955
 20
2909.368404033798
 10
-3224.521714351035
 20
2912.228805987269
 10
-3210.294384019157
 20
2917.22312897122
 10
-3198.984550338254
 20
2927.477196733357
 10
-3190.847025472445
 20
2941.771978756827
 10
-3188.70569293002
 20
2953.378354795146
 10
-3192.329109990016
 20
2966.563371610076
 10
-3198.670614108323
 20
2979.318399095643
 10
-3210.019182919474
 20
2987.174561157269
 10
-3222.64074651185
 20
2990.535770279555
  0
LWPOLYLINE
  5
6F
100
AcDbEntity
  8
53
  6
ByLayer
 62
  256
370
   -1
100
AcDbPolyline
 90
    8
 70
    1
 43
0
 10
-2821.79355405355
 20
2768.420987806821
 10
-2816.573152388097
 20
2750.408906023436
 10
-2811.299006434626
 20
2736.816389416786
 10
-2802.189935127545
 20
2722.510117857687
 10
-2787.926357090669
 20
2705.660411846409
 10
-2775.99489134618
 20
2695.848061029787
 10
-2760.711540093751
 20
2684.661876911204
 10
-2745.172632141749
 20
2675.812323061461
  0
LWPOLYLINE
  5
70
100
AcDbEntity
  8
53
  6
ByLayer
 62
  256
370
   -1
100
AcDbPolyline
 90
    8
 70
    1
 43
0
 10
-2930.60733676683
 20
591.8411736831922
 10
-2928.551737251961
 20
583.4333332854164
 10
-2909.11709330649
 20
600.4471717621668
 10
-2911.123263548699
 20
602.4542014279332
 10
-2914.882093584009
 20
604.1822064179851
 10
-2918.94600646059
 20
604.5894767109987
 10
-2922.527656590391
 20
603.4218436917201
 10
-2925.754190834021
 20
599.9935345728234
  0
LWPOLYLINE
  5
71
100
AcDbEntity
  8
53
  6
ByLayer
 62
  256
370
   -1
100
AcDbPolyline
 90
    5
 70
    1
 43
0
 10
-3371.316691692407
 20
800.336364706606
 10
-3354.531159483377
 20
782.2733696841979
 10
-3354.530484999073
 20
785.4229696119752
 10
-3366.515150788087
 20
804.729536561216
 10
-3370.274111368752
 20
805.8479415652462
  0
LWPOLYLINE
  5
72
100
AcDbEntity
  8
54
  6
ByLayer
 62
  256
370
   -1
100
AcDbPolyline
 90
    4
 70
    1
 43
0
 10
-1405.338534051821
 20
2368.48150081418
 10
-1404.577498732735
 20
2367.033193497656
 10
-1401.29834434955
 20
2370.866409804001
 10
-1404.602679933623
 20
2405.488818806677
  0
LWPOLYLINE
  5
73
100
AcDbEntity
  8
54
  6
ByLayer
 62
  256
370
   -1
100
AcDbPolyline
 90
    6
 70
    1
 43
0
 10
-3381.688014002954
 20
999.62699028665
 10
-3380.980425773954
 20
982.7612383704718
 10
-3380.091322445958
 20
983.243647980769
 10
-3378.922296942954
 20
986.1643977018674
 10
-3378.591019951368
 20
991.1935268744862
 10
-3379.732105260027
 20
1000.134571442
  0
LWPOLYLINE
  5
74
100
AcDbEntity
  8
54
  6
ByLayer
 62
  256
370
   -1
100
AcDbPolyline
 90
    6
 70
    1
 43
0
 10
-3236.962521545928
 20
982.298597041461
 10
-3233.765901995072
 20
964.6449120831572
 10
-3228.048769885391
 20
974.6004879921948
 10
-3228.123762339161
 20
980.2393041810626
 10
-3231.069520423645
 20
983.2371350815285
 10
-3234.904729957047
 20
984.1269564089715
  0
LWPOLYLINE
  5
75
100
AcDbEntity
  8
54
  6
ByLayer
 62
  256
370
   -1
100
AcDbPolyline
 90
    8
 70
    1
 43
0
 10
-3411.705738694188
 20
2132.59873335947
 10
-3399.439012383304
 20
2092.255352420141
 10
-3397.074782356265
 20
2095.301778066576
 10
-3395.063004895931
 20
2103.072839562302
 10
-3394.368253701508
 20
2116.50897970662
 10
-3396.290903335992
 20
2128.143463140928
 10
-3400.198187546653
 20
2134.623067577705
 10
-3404.058495973389
 20
2135.362239445796
  0
LWPOLYLINE
  5
76
100
AcDbEntity
  8
54
  6
ByLayer
 62
  256
370
   -1
100
AcDbPolyline
 90
   10
 70
    1
 43
0
 10
-3255.134736620092
 20
2521.927313507491
 10
-3239.513840431123
 20
2483.639098505278
 10
-3235.118846106996
 20
2484.82997086237
 10
-3228.714934015502
 20
2489.499305667722
 10
-3224.899553900243
 20
2497.573965686331
 10
-3223.774610321335
 20
2508.596818704688
 10
-3224.834336997879
 20
2519.214727041615
 10
-3227.828575112252
 20
2523.66172276393
 10
-3235.421379773399
 20
2526.359181623261
 10
-3248.400303097923
 20
2527.079028229371
  0
LWPOLYLINE
  5
77
100
AcDbEntity
  8
54
  6
ByLayer
 62
  256
370
   -1
100
AcDbPolyline
 90
   17
 70
    1
 43
0
 10
-953.4358155823243
 20
1793.76868732352
 10
-948.9423517139044
 20
1790.260493038299
 10
-940.2550629249859
 20
1790.99130580387
 10
-927.170918473334
 20
1795.706990306532
 10
-913.8572434030734
 20
1801.81952220785
 10
-900.3381686141561
 20
1811.233918006359
 10
-891.1875375092854
 20
1821.18462414325
 10
-874.417923370906
 20
1829.606254240281
 10
-876.1180985523292
 20
1832.045787423611
 10
-880.5102839472734
 20
1835.071314130887
 10
-885.0052876503864
 20
1836.268108929019
 10
-902.1749223834954
 20
1837.422547447237
 10
-912.7171214538753
 20
1835.626170170377
 10
-924.6589599307931
 20
1829.868324442101
 10
-936.1704029681473
 20
1822.001991520224
 10
-946.6933106190768
 20
1811.03619935684
 10
-951.6026333818031
 20
1800.346067532959
  0
LWPOLYLINE
  5
78
100
AcDbEntity
  8
54
  6
ByLayer
 62
  256
370
   -1
100
AcDbPolyline
 90
    5
 70
    1
 43
0
 10
-1884.026720459709
 20
2633.085400205699
 10
-1881.05960830822
 20
2626.047621979542
 10
-1876.21020609347
 20
2623.047190683953
 10
-1862.545601369952
 20
2622.149087243276
 10
-1855.659986212329
 20
2625.471900843399
  0
LWPOLYLINE
  5
79
100
AcDbEntity
  8
54
  6
ByLayer
 62
  256
370
   -1
100
AcDbPolyline
 90
   10
 70
    1
 43
0
 10
-964.8332254655556
 20
1426.359617743507
 10
-963.9954987116712
 20
1424.149638294329
 10
-957.9768955154095
 20
1418.56034928713
 10
-944.4906326570926
 20
1413.248861092989
 10
-927.1188117358629
 20
1404.939340740969
 10
-906.5456335554481
 20
1401.099534923359
 10
-888.6390963141685
 20
1398.936700203208
 10
-876.2941472188963
 20
1401.499456601052
 10
-876.6730911208933
 20
1411.100737971741
 10
-882.1579679660113
 20
1418.213912716809
  0
LWPOLYLINE
  5
7A
100
AcDbEntity
  8
54
  6
ByLayer
 62
  256
370
   -1
100
AcDbPolyline
 90
 1285
 70
    1
 43
0
 10
-1787.648287152517
 20
675.6453941745295
 10
-1787.648287152517
 20
675.6453941745295
 10
-1787.648287152517
 20
675.6453941745295
 10
-1787.648287152517
 20
675.6453941745295
 10
-1787.648287152517
 20
675.6453941745295
 10
-1787.648287152517
 20
675.6453941745295
 10
-1787.648287152517
 20
675.6453941745295
 10
-1787.648287152517
 20
675.6453941745295
 10
-1787.648287152517
 20
675.6453941745295
 10
-1787.648287152517
 20
675.6453941745295
 10
-1787.648287152517
 20
675.6453941745295
 10
-1787.648287152517
 20
675.6453941745295
 10
-1787.648287152517
 20
675.6453941745295
 10
-1787.648287152517
 20
675.6453941745295
 10
-1787.648287152517
 20
675.6453941745295
 10
-1787.648287152517
 20
675.6453941745295
 10
-1787.648287152517
 20
675.6453941745295
 10
-1787.648287152517
 20
675.6453941745295
 10
-1787.648287152517
 20
675.6453941745295
 10
-1787.648287152517
 20
675.6453941745295
 10
-1789.973710758029
 20
675.6453941745295
 10
-1789.973710758029
 20
675.6453941745295
 10
-1789.973710758029
 20
676.8081059772852
 10
-1791.136422560784
 20
676.8081059772852
 10
-1792.29913436354
 20
677.9708177800408
 10
-1793.461846166295
 20
677.9708177800408
 10
-1793.461846166295
 20
677.9708177800408
 10
-1793.461846166295
 20
677.9708177800408
 10
-1794.624557969051
 20
679.1335295827964
 10
-1794.624557969051
 20
680.296241385552
 10
-1795.787269771807
 20
680.296241385552
 10
-1795.787269771807
 20
680.296241385552
 10
-1795.787269771807
 20
680.296241385552
 10
-1795.787269771807
 20
680.296241385552
 10
-1796.949981574562
 20
680.296241385552
 10
-1798.112693377318
 20
681.4589531883076
 10
-1798.112693377318
 20
681.4589531883076
 10
-1799.275405180073
 20
682.6216649910632
 10
-1799.275405180073
 20
682.6216649910632
 10
-1799.275405180073
 20
682.6216649910632
 10
-1799.275405180073
 20
682.6216649910632
 10
-1799.275405180073
 20
682.6216649910632
 10
-1800.438116982829
 20
682.6216649910632
 10
-1800.438116982829
 20
683.7843767938189
 10
-1801.600828785585
 20
684.9470885965744
 10
-1802.76354058834
 20
684.9470885965744
 10
-1802.76354058834
 20
684.9470885965744
 10
-1802.76354058834
 20
684.9470885965744
 10
-1802.76354058834
 20
684.9470885965744
 10
-1803.926252391096
 20
686.1098003993301
 10
-1803.926252391096
 20
686.1098003993301
 10
-1803.926252391096
 20
686.1098003993301
 10
-1805.088964193852
 20
686.1098003993301
 10
-1805.088964193852
 20
686.1098003993301
 10
-1805.088964193852
 20
687.2725122020857
 10
-1805.088964193852
 20
687.2725122020857
 10
-1806.251675996607
 20
687.2725122020857
 10
-1806.251675996607
 20
687.2725122020857
 10
-1807.414387799363
 20
688.4352240048413
 10
-1808.577099602118
 20
689.597935807597
 10
-1809.739811404874
 20
689.597935807597
 10
-1809.739811404874
 20
689.597935807597
 10
-1809.739811404874
 20
689.597935807597
 10
-1810.90252320763
 20
690.7606476103525
 10
-1812.065235010385
 20
690.7606476103525
 10
-1812.065235010385
 20
691.9233594131082
 10
-1812.065235010385
 20
691.9233594131082
 10
-1813.227946813141
 20
691.9233594131082
 10
-1813.227946813141
 20
691.9233594131082
 10
-1813.227946813141
 20
691.9233594131082
 10
-1814.390658615896
 20
693.0860712158637
 10
-1814.390658615896
 20
693.0860712158637
 10
-1815.553370418652
 20
694.2487830186194
 10
-1816.716082221408
 20
694.2487830186194
 10
-1816.716082221408
 20
695.411494821375
 10
-1816.716082221408
 20
695.411494821375
 10
-1817.878794024163
 20
695.411494821375
 10
-1817.878794024163
 20
695.411494821375
 10
-1817.878794024163
 20
696.5742066241306
 10
-1819.041505826919
 20
696.5742066241306
 10
-1819.041505826919
 20
696.5742066241306
 10
-1819.041505826919
 20
696.5742066241306
 10
-1821.36692943243
 20
697.7369184268862
 10
-1821.36692943243
 20
697.7369184268862
 10
-1821.36692943243
 20
698.8996302296418
 10
-1822.529641235186
 20
698.8996302296418
 10
-1823.692353037941
 20
698.8996302296418
 10
-1824.855064840697
 20
700.0623420323975
 10
-1824.855064840697
 20
700.0623420323975
 10
-1824.855064840697
 20
700.0623420323975
 10
-1824.855064840697
 20
700.0623420323975
 10
-1826.017776643453
 20
701.2250538351531
 10
-1826.017776643453
 20
701.2250538351531
 10
-1827.180488446208
 20
701.2250538351531
 10
-1827.180488446208
 20
702.3877656379087
 10
-1827.180488446208
 20
702.3877656379087
 10
-1828.343200248964
 20
702.3877656379087
 10
-1828.343200248964
 20
702.3877656379087
 10
-1828.343200248964
 20
702.3877656379087
 10
-1829.505912051719
 20
702.3877656379087
 10
-1829.505912051719
 20
702.3877656379087
 10
-1829.505912051719
 20
703.5504774406643
 10
-1830.668623854475
 20
703.5504774406643
 10
-1830.668623854475
 20
703.5504774406643
 10
-1831.831335657231
 20
703.5504774406643
 10
-1831.831335657231
 20
703.5504774406643
 10
-1831.831335657231
 20
703.5504774406643
 10
-1832.994047459986
 20
704.7131892434199
 10
-1834.156759262742
 20
704.7131892434199
 10
-1834.156759262742
 20
704.7131892434199
 10
-1835.319471065498
 20
704.7131892434199
 10
-1835.319471065498
 20
704.7131892434199
 10
-1836.482182868253
 20
705.8759010461755
 10
-1836.482182868253
 20
705.8759010461755
 10
-1837.644894671009
 20
705.8759010461755
 10
-1838.807606473764
 20
705.8759010461755
 10
-1838.807606473764
 20
707.0386128489312
 10
-1839.97031827652
 20
707.0386128489312
 10
-1839.97031827652
 20
707.0386128489312
 10
-1841.133030079276
 20
707.0386128489312
 10
-1841.133030079276
 20
707.0386128489312
 10
-1841.133030079276
 20
707.0386128489312
 10
-1842.295741882031
 20
707.0386128489312
 10
-1842.295741882031
 20
708.2013246516867
 10
-1843.458453684787
 20
708.2013246516867
 10
-1843.458453684787
 20
708.2013246516867
 10
-1844.621165487542
 20
708.2013246516867
 10
-1844.621165487542
 20
708.2013246516867
 10
-1844.621165487542
 20
708.2013246516867
 10
-1844.621165487542
 20
708.2013246516867
 10
-1845.783877290298
 20
709.3640364544424
 10
-1845.783877290298
 20
709.3640364544424
 10
-1845.783877290298
 20
709.3640364544424
 10
-1846.946589093054
 20
709.3640364544424
 10
-1848.109300895809
 20
709.3640364544424
 10
-1848.109300895809
 20
709.3640364544424
 10
-1848.109300895809
 20
710.5267482571979
 10
-1848.109300895809
 20
710.5267482571979
 10
-1849.272012698565
 20
710.5267482571979
 10
-1850.43472450132
 20
710.5267482571979
 10
-1851.597436304076
 20
710.5267482571979
 10
-1851.597436304076
 20
711.6894600599536
 10
-1852.760148106832
 20
711.6894600599536
 10
-1852.760148106832
 20
712.8521718627093
 10
-1852.760148106832
 20
712.8521718627093
 10
-1853.922859909587
 20
712.8521718627093
 10
-1853.922859909587
 20
712.8521718627093
 10
-1855.085571712343
 20
712.8521718627093
 10
-1855.085571712343
 20
714.0148836654648
 10
-1856.248283515099
 20
714.0148836654648
 10
-1856.248283515099
 20
714.0148836654648
 10
-1856.248283515099
 20
714.0148836654648
 10
-1856.248283515099
 20
714.0148836654648
 10
-1857.410995317854
 20
714.0148836654648
 10
-1857.410995317854
 20
715.1775954682205
 10
-1858.57370712061
 20
715.1775954682205
 10
-1858.57370712061
 20
716.340307270976
 10
-1858.57370712061
 20
716.340307270976
 10
-1859.736418923365
 20
716.340307270976
 10
-1859.736418923365
 20
716.340307270976
 10
-1860.899130726121
 20
716.340307270976
 10
-1860.899130726121
 20
717.5030190737317
 10
-1860.899130726121
 20
717.5030190737317
 10
-1862.061842528877
 20
717.5030190737317
 10
-1862.061842528877
 20
717.5030190737317
 10
-1863.224554331632
 20
718.6657308764873
 10
-1863.224554331632
 20
718.6657308764873
 10
-1863.224554331632
 20
718.6657308764873
 10
-1863.224554331632
 20
718.6657308764873
 10
-1864.387266134388
 20
719.8284426792429
 10
-1865.549977937143
 20
720.9911544819985
 10
-1865.549977937143
 20
720.9911544819985
 10
-1865.549977937143
 20
720.9911544819985
 10
-1866.712689739899
 20
720.9911544819985
 10
-1867.875401542655
 20
722.1538662847541
 10
-1867.875401542655
 20
722.1538662847541
 10
-1869.03811334541
 20
722.1538662847541
 10
-1869.03811334541
 20
722.1538662847541
 10
-1870.200825148166
 20
723.3165780875098
 10
-1870.200825148166
 20
723.3165780875098
 10
-1870.200825148166
 20
723.3165780875098
 10
-1870.200825148166
 20
723.3165780875098
 10
-1870.200825148166
 20
723.3165780875098
 10
-1871.363536950922
 20
723.3165780875098
 10
-1871.363536950922
 20
724.4792898902654
 10
-1871.363536950922
 20
724.4792898902654
 10
-1872.526248753677
 20
724.4792898902654
 10
-1873.688960556433
 20
725.642001693021
 10
-1873.688960556433
 20
725.642001693021
 10
-1874.851672359188
 20
725.642001693021
 10
-1874.851672359188
 20
726.8047134957766
 10
-1876.014384161944
 20
726.8047134957766
 10
-1876.014384161944
 20
726.8047134957766
 10
-1876.014384161944
 20
726.8047134957766
 10
-1877.1770959647
 20
726.8047134957766
 10
-1877.1770959647
 20
727.9674252985322
 10
-1878.339807767455
 20
727.9674252985322
 10
-1878.339807767455
 20
727.9674252985322
 10
-1879.502519570211
 20
727.9674252985322
 10
-1879.502519570211
 20
727.9674252985322
 10
-1879.502519570211
 20
727.9674252985322
 10
-1879.502519570211
 20
729.1301371012878
 10
-1880.665231372966
 20
729.1301371012878
 10
-1880.665231372966
 20
730.2928489040435
 10
-1881.827943175722
 20
730.2928489040435
 10
-1881.827943175722
 20
730.2928489040435
 10
-1881.827943175722
 20
730.2928489040435
 10
-1881.827943175722
 20
730.2928489040435
 10
-1881.827943175722
 20
731.455560706799
 10
-1882.990654978478
 20
731.455560706799
 10
-1882.990654978478
 20
731.455560706799
 10
-1884.153366781233
 20
731.455560706799
 10
-1884.153366781233
 20
732.6182725095547
 10
-1885.316078583989
 20
732.6182725095547
 10
-1885.316078583989
 20
732.6182725095547
 10
-1885.316078583989
 20
732.6182725095547
 10
-1885.316078583989
 20
732.6182725095547
 10
-1885.316078583989
 20
732.6182725095547
 10
-1885.316078583989
 20
733.7809843123102
 10
-1886.478790386745
 20
733.7809843123102
 10
-1886.478790386745
 20
733.7809843123102
 10
-1886.478790386745
 20
734.9436961150659
 10
-1886.478790386745
 20
734.9436961150659
 10
-1886.478790386745
 20
734.9436961150659
 10
-1887.6415021895
 20
734.9436961150659
 10
-1887.6415021895
 20
734.9436961150659
 10
-1887.6415021895
 20
734.9436961150659
 10
-1887.6415021895
 20
734.9436961150659
 10
-1888.804213992256
 20
736.1064079178216
 10
-1888.804213992256
 20
736.1064079178216
 10
-1888.804213992256
 20
736.1064079178216
 10
-1888.804213992256
 20
736.1064079178216
 10
-1888.804213992256
 20
736.1064079178216
 10
-1888.804213992256
 20
736.1064079178216
 10
-1889.966925795011
 20
737.2691197205771
 10
-1889.966925795011
 20
737.2691197205771
 10
-1891.129637597767
 20
738.4318315233328
 10
-1891.129637597767
 20
738.4318315233328
 10
-1891.129637597767
 20
738.4318315233328
 10
-1891.129637597767
 20
739.5945433260883
 10
-1891.129637597767
 20
739.5945433260883
 10
-1892.292349400523
 20
740.757255128844
 10
-1893.455061203278
 20
740.757255128844
 10
-1893.455061203278
 20
741.9199669315996
 10
-1893.455061203278
 20
741.9199669315996
 10
-1893.455061203278
 20
741.9199669315996
 10
-1894.617773006034
 20
741.9199669315996
 10
-1894.617773006034
 20
741.9199669315996
 10
-1894.617773006034
 20
743.0826787343552
 10
-1894.617773006034
 20
743.0826787343552
 10
-1895.780484808789
 20
743.0826787343552
 10
-1895.780484808789
 20
744.2453905371108
 10
-1895.780484808789
 20
744.2453905371108
 10
-1895.780484808789
 20
744.2453905371108
 10
-1895.780484808789
 20
745.4081023398664
 10
-1896.943196611545
 20
745.4081023398664
 10
-1896.943196611545
 20
746.570814142622
 10
-1898.105908414301
 20
746.570814142622
 10
-1898.105908414301
 20
746.570814142622
 10
-1898.105908414301
 20
747.7335259453777
 10
-1898.105908414301
 20
747.7335259453777
 10
-1899.268620217056
 20
747.7335259453777
 10
-1899.268620217056
 20
748.8962377481333
 10
-1899.268620217056
 20
748.8962377481333
 10
-1899.268620217056
 20
750.0589495508889
 10
-1900.431332019812
 20
750.0589495508889
 10
-1900.431332019812
 20
751.2216613536445
 10
-1900.431332019812
 20
751.2216613536445
 10
-1900.431332019812
 20
751.2216613536445
 10
-1901.594043822568
 20
752.3843731564001
 10
-1901.594043822568
 20
753.5470849591558
 10
-1901.594043822568
 20
753.5470849591558
 10
-1902.756755625323
 20
753.5470849591558
 10
-1902.756755625323
 20
753.5470849591558
 10
-1902.756755625323
 20
754.7097967619113
 10
-1902.756755625323
 20
754.7097967619113
 10
-1903.919467428079
 20
754.7097967619113
 10
-1903.919467428079
 20
755.872508564667
 10
-1903.919467428079
 20
755.872508564667
 10
-1905.082179230834
 20
757.0352203674225
 10
-1905.082179230834
 20
757.0352203674225
 10
-1905.082179230834
 20
758.1979321701782
 10
-1906.24489103359
 20
758.1979321701782
 10
-1906.24489103359
 20
758.1979321701782
 10
-1906.24489103359
 20
759.3606439729339
 10
-1907.407602836346
 20
759.3606439729339
 10
-1907.407602836346
 20
760.5233557756894
 10
-1907.407602836346
 20
760.5233557756894
 10
-1907.407602836346
 20
760.5233557756894
 10
-1908.570314639101
 20
761.6860675784451
 10
-1908.570314639101
 20
761.6860675784451
 10
-1908.570314639101
 20
761.6860675784451
 10
-1908.570314639101
 20
761.6860675784451
 10
-1909.733026441857
 20
762.8487793812006
 10
-1909.733026441857
 20
764.0114911839563
 10
-1909.733026441857
 20
764.0114911839563
 10
-1910.895738244612
 20
765.1742029867119
 10
-1912.058450047368
 20
765.1742029867119
 10
-1912.058450047368
 20
765.1742029867119
 10
-1912.058450047368
 20
766.3369147894675
 10
-1912.058450047368
 20
766.3369147894675
 10
-1912.058450047368
 20
766.3369147894675
 10
-1913.221161850124
 20
767.4996265922231
 10
-1913.221161850124
 20
768.6623383949787
 10
-1913.221161850124
 20
768.6623383949787
 10
-1913.221161850124
 20
768.6623383949787
 10
-1914.383873652879
 20
769.8250501977343
 10
-1914.383873652879
 20
769.8250501977343
 10
-1915.546585455635
 20
770.98776200049
 10
-1915.546585455635
 20
770.98776200049
 10
-1915.546585455635
 20
770.98776200049
 10
-1915.546585455635
 20
772.1504738032456
 10
-1916.709297258391
 20
773.3131856060012
 10
-1916.709297258391
 20
773.3131856060012
 10
-1917.872009061146
 20
773.3131856060012
 10
-1917.872009061146
 20
774.4758974087569
 10
-1917.872009061146
 20
774.4758974087569
 10
-1917.872009061146
 20
774.4758974087569
 10
-1919.034720863902
 20
775.6386092115124
 10
-1919.034720863902
 20
775.6386092115124
 10
-1919.034720863902
 20
775.6386092115124
 10
-1919.034720863902
 20
776.8013210142681
 10
-1920.197432666657
 20
776.8013210142681
 10
-1920.197432666657
 20
777.9640328170236
 10
-1920.197432666657
 20
777.9640328170236
 10
-1921.360144469413
 20
779.1267446197793
 10
-1921.360144469413
 20
779.1267446197793
 10
-1922.522856272169
 20
780.2894564225348
 10
-1922.522856272169
 20
780.2894564225348
 10
-1922.522856272169
 20
780.2894564225348
 10
-1923.685568074924
 20
781.4521682252905
 10
-1923.685568074924
 20
782.6148800280461
 10
-1923.685568074924
 20
783.7775918308017
 10
-1926.010991680435
 20
784.9403036335574
 10
-1926.010991680435
 20
786.1030154363129
 10
-1926.010991680435
 20
786.1030154363129
 10
-1926.010991680435
 20
786.1030154363129
 10
-1927.173703483191
 20
787.2657272390686
 10
-1928.336415285947
 20
788.4284390418242
 10
-1928.336415285947
 20
789.5911508445798
 10
-1929.499127088702
 20
789.5911508445798
 10
-1929.499127088702
 20
790.7538626473354
 10
-1929.499127088702
 20
791.916574450091
 10
-1929.499127088702
 20
791.916574450091
 10
-1929.499127088702
 20
793.0792862528466
 10
-1930.661838891458
 20
793.0792862528466
 10
-1930.661838891458
 20
793.0792862528466
 10
-1930.661838891458
 20
794.2419980556023
 10
-1930.661838891458
 20
794.2419980556023
 10
-1931.824550694213
 20
795.4047098583578
 10
-1931.824550694213
 20
796.5674216611135
 10
-1931.824550694213
 20
796.5674216611135
 10
-1932.987262496969
 20
796.5674216611135
 10
-1932.987262496969
 20
797.7301334638692
 10
-1932.987262496969
 20
797.7301334638692
 10
-1932.987262496969
 20
798.8928452666247
 10
-1934.149974299725
 20
798.8928452666247
 10
-1934.149974299725
 20
798.8928452666247
 10
-1934.149974299725
 20
798.8928452666247
 10
-1934.149974299725
 20
800.0555570693804
 10
-1934.149974299725
 20
800.0555570693804
 10
-1934.149974299725
 20
801.2182688721359
 10
-1934.149974299725
 20
801.2182688721359
 10
-1934.149974299725
 20
801.2182688721359
 10
-1935.31268610248
 20
802.3809806748916
 10
-1935.31268610248
 20
802.3809806748916
 10
-1935.31268610248
 20
802.3809806748916
 10
-1935.31268610248
 20
803.5436924776471
 10
-1935.31268610248
 20
803.5436924776471
 10
-1935.31268610248
 20
804.7064042804028
 10
-1936.475397905236
 20
805.8691160831584
 10
-1936.475397905236
 20
807.031827885914
 10
-1937.638109707992
 20
807.031827885914
 10
-1937.638109707992
 20
808.1945396886697
 10
-1937.638109707992
 20
809.3572514914252
 10
-1937.638109707992
 20
810.5199632941809
 10
-1937.638109707992
 20
810.5199632941809
 10
-1938.800821510747
 20
810.5199632941809
 10
-1938.800821510747
 20
812.8453868996921
 10
-1938.800821510747
 20
812.8453868996921
 10
-1938.800821510747
 20
814.0080987024477
 10
-1939.963533313503
 20
815.1708105052033
 10
-1939.963533313503
 20
815.1708105052033
 10
-1939.963533313503
 20
815.1708105052033
 10
-1941.126245116258
 20
817.4962341107146
 10
-1941.126245116258
 20
817.4962341107146
 10
-1941.126245116258
 20
818.6589459134701
 10
-1942.288956919014
 20
818.6589459134701
 10
-1942.288956919014
 20
819.8216577162258
 10
-1942.288956919014
 20
819.8216577162258
 10
-1942.288956919014
 20
820.9843695189815
 10
-1942.288956919014
 20
820.9843695189815
 10
-1942.288956919014
 20
820.9843695189815
 10
-1942.288956919014
 20
820.9843695189815
 10
-1942.288956919014
 20
820.9843695189815
 10
-1942.288956919014
 20
820.9843695189815
 10
-1942.288956919014
 20
820.9843695189815
 10
-1942.288956919014
 20
820.9843695189815
 10
-1942.288956919014
 20
820.9843695189815
 10
-1942.288956919014
 20
820.9843695189815
 10
-1942.288956919014
 20
820.9843695189815
 10
-1942.288956919014
 20
820.9843695189815
 10
-1942.288956919014
 20
820.9843695189815
 10
-1942.288956919014
 20
820.9843695189815
 10
-1942.288956919014
 20
820.9843695189815
 10
-1942.288956919014
 20
820.9843695189815
 10
-1942.288956919014
 20
820.9843695189815
 10
-1942.288956919014
 20
820.9843695189815
 10
-1942.288956919014
 20
820.9843695189815
 10
-1942.288956919014
 20
820.9843695189815
 10
-1942.288956919014
 20
820.9843695189815
 10
-1942.288956919014
 20
820.9843695189815
 10
-1942.288956919014
 20
820.9843695189815
 10
-1942.288956919014
 20
820.9843695189815
 10
-1942.288956919014
 20
820.9843695189815
 10
-1942.288956919014
 20
820.9843695189815
 10
-1942.288956919014
 20
820.9843695189815
 10
-1942.288956919014
 20
820.9843695189815
 10
-1942.288956919014
 20
820.9843695189815
 10
-1942.288956919014
 20
820.9843695189815
 10
-1942.288956919014
 20
820.9843695189815
 10
-1944.614380524525
 20
822.147081321737
 10
-1944.614380524525
 20
822.147081321737
 10
-1944.614380524525
 20
824.4725049272482
 10
-1945.777092327281
 20
825.6352167300039
 10
-1946.939804130036
 20
827.9606403355151
 10
-1948.102515932792
 20
830.2860639410263
 10
-1949.265227735548
 20
832.6114875465375
 10
-1950.427939538303
 20
834.9369111520488
 10
-1950.427939538303
 20
834.9369111520488
 10
-1951.590651341059
 20
838.4250465603156
 10
-1952.753363143815
 20
841.9131819685824
 10
-1953.91607494657
 20
845.4013173768493
 10
-1953.91607494657
 20
847.7267409823605
 10
-1955.078786749326
 20
848.8894527851162
 10
-1956.241498552081
 20
850.0521645878717
 10
-1956.241498552081
 20
850.0521645878717
 10
-1956.241498552081
 20
851.2148763906274
 10
-1956.241498552081
 20
851.2148763906274
 10
-1956.241498552081
 20
852.377588193383
 10
-1956.241498552081
 20
852.377588193383
 10
-1956.241498552081
 20
852.377588193383
 10
-1956.241498552081
 20
852.377588193383
 10
-1956.241498552081
 20
852.377588193383
 10
-1956.241498552081
 20
852.377588193383
 10
-1956.241498552081
 20
852.377588193383
 10
-1956.241498552081
 20
852.377588193383
 10
-1956.241498552081
 20
852.377588193383
 10
-1956.241498552081
 20
852.377588193383
 10
-1956.241498552081
 20
852.377588193383
 10
-1956.241498552081
 20
852.377588193383
 10
-1956.241498552081
 20
852.377588193383
 10
-1956.241498552081
 20
852.377588193383
 10
-1956.241498552081
 20
852.377588193383
 10
-1956.241498552081
 20
852.377588193383
 10
-1956.241498552081
 20
852.377588193383
 10
-1956.241498552081
 20
852.377588193383
 10
-1956.241498552081
 20
852.377588193383
 10
-1956.241498552081
 20
852.377588193383
 10
-1956.241498552081
 20
852.377588193383
 10
-1956.241498552081
 20
852.377588193383
 10
-1956.241498552081
 20
852.377588193383
 10
-1956.241498552081
 20
852.377588193383
 10
-1956.241498552081
 20
852.377588193383
 10
-1956.241498552081
 20
852.377588193383
 10
-1956.241498552081
 20
852.377588193383
 10
-1956.241498552081
 20
852.377588193383
 10
-1956.241498552081
 20
852.377588193383
 10
-1956.241498552081
 20
852.377588193383
 10
-1956.241498552081
 20
853.5402999961386
 10
-1957.404210354837
 20
854.7030117988942
 10
-1957.404210354837
 20
855.8657236016498
 10
-1958.566922157593
 20
859.3538590099167
 10
-1958.566922157593
 20
859.3538590099167
 10
-1958.566922157593
 20
860.5165708126723
 10
-1958.566922157593
 20
861.679282615428
 10
-1958.566922157593
 20
861.679282615428
 10
-1958.566922157593
 20
864.0047062209392
 10
-1958.566922157593
 20
864.0047062209392
 10
-1958.566922157593
 20
864.0047062209392
 10
-1958.566922157593
 20
865.1674180236947
 10
-1958.566922157593
 20
865.1674180236947
 10
-1958.566922157593
 20
865.1674180236947
 10
-1959.729633960348
 20
865.1674180236947
 10
-1959.729633960348
 20
865.1674180236947
 10
-1959.729633960348
 20
865.1674180236947
 10
-1959.729633960348
 20
865.1674180236947
 10
-1959.729633960348
 20
865.1674180236947
 10
-1959.729633960348
 20
865.1674180236947
 10
-1959.729633960348
 20
866.3301298264504
 10
-1959.729633960348
 20
866.3301298264504
 10
-1959.729633960348
 20
866.3301298264504
 10
-1959.729633960348
 20
866.3301298264504
 10
-1959.729633960348
 20
866.3301298264504
 10
-1959.729633960348
 20
866.3301298264504
 10
-1959.729633960348
 20
866.3301298264504
 10
-1959.729633960348
 20
866.3301298264504
 10
-1959.729633960348
 20
866.3301298264504
 10
-1959.729633960348
 20
868.6555534319616
 10
-1959.729633960348
 20
868.6555534319616
 10
-1959.729633960348
 20
870.9809770374728
 10
-1959.729633960348
 20
873.306400642984
 10
-1960.892345763104
 20
875.6318242484953
 10
-1960.892345763104
 20
877.9572478540065
 10
-1960.892345763104
 20
880.2826714595178
 10
-1960.892345763104
 20
882.608095065029
 10
-1960.892345763104
 20
882.608095065029
 10
-1960.892345763104
 20
883.7708068677846
 10
-1960.892345763104
 20
883.7708068677846
 10
-1960.892345763104
 20
884.9335186705403
 10
-1960.892345763104
 20
884.9335186705403
 10
-1960.892345763104
 20
886.0962304732958
 10
-1960.892345763104
 20
886.0962304732958
 10
-1960.892345763104
 20
886.0962304732958
 10
-1960.892345763104
 20
886.0962304732958
 10
-1960.892345763104
 20
887.2589422760515
 10
-1960.892345763104
 20
888.421654078807
 10
-1960.892345763104
 20
889.5843658815627
 10
-1960.892345763104
 20
890.7470776843182
 10
-1960.892345763104
 20
893.0725012898296
 10
-1960.892345763104
 20
893.0725012898296
 10
-1960.892345763104
 20
894.2352130925851
 10
-1960.892345763104
 20
894.2352130925851
 10
-1960.892345763104
 20
895.3979248953408
 10
-1960.892345763104
 20
896.5606366980963
 10
-1960.892345763104
 20
897.723348500852
 10
-1960.892345763104
 20
898.8860603036076
 10
-1960.892345763104
 20
900.0487721063632
 10
-1960.892345763104
 20
901.2114839091188
 10
-1960.892345763104
 20
901.2114839091188
 10
-1960.892345763104
 20
901.2114839091188
 10
-1960.892345763104
 20
902.3741957118744
 10
-1960.892345763104
 20
902.3741957118744
 10
-1960.892345763104
 20
902.3741957118744
 10
-1960.892345763104
 20
902.3741957118744
 10
-1960.892345763104
 20
902.3741957118744
 10
-1960.892345763104
 20
903.53690751463
 10
-1960.892345763104
 20
903.53690751463
 10
-1960.892345763104
 20
904.6996193173857
 10
-1960.892345763104
 20
904.6996193173857
 10
-1960.892345763104
 20
904.6996193173857
 10
-1960.892345763104
 20
905.8623311201413
 10
-1960.892345763104
 20
907.0250429228969
 10
-1960.892345763104
 20
908.1877547256526
 10
-1960.892345763104
 20
908.1877547256526
 10
-1960.892345763104
 20
908.1877547256526
 10
-1960.892345763104
 20
909.3504665284081
 10
-1960.892345763104
 20
910.5131783311638
 10
-1960.892345763104
 20
910.5131783311638
 10
-1960.892345763104
 20
910.5131783311638
 10
-1960.892345763104
 20
911.6758901339193
 10
-1960.892345763104
 20
911.6758901339193
 10
-1960.892345763104
 20
911.6758901339193
 10
-1960.892345763104
 20
912.838601936675
 10
-1960.892345763104
 20
912.838601936675
 10
-1960.892345763104
 20
912.838601936675
 10
-1960.892345763104
 20
914.0013137394305
 10
-1960.892345763104
 20
914.0013137394305
 10
-1960.892345763104
 20
915.1640255421862
 10
-1960.892345763104
 20
915.1640255421862
 10
-1960.892345763104
 20
915.1640255421862
 10
-1960.892345763104
 20
916.3267373449418
 10
-1960.892345763104
 20
917.4894491476974
 10
-1960.892345763104
 20
917.4894491476974
 10
-1960.892345763104
 20
917.4894491476974
 10
-1960.892345763104
 20
918.6521609504531
 10
-1960.892345763104
 20
918.6521609504531
 10
-1960.892345763104
 20
918.6521609504531
 10
-1960.892345763104
 20
918.6521609504531
 10
-1960.892345763104
 20
919.8148727532086
 10
-1960.892345763104
 20
919.8148727532086
 10
-1960.892345763104
 20
920.9775845559643
 10
-1960.892345763104
 20
922.1402963587199
 10
-1960.892345763104
 20
923.3030081614755
 10
-1960.892345763104
 20
923.3030081614755
 10
-1960.892345763104
 20
923.3030081614755
 10
-1960.892345763104
 20
923.3030081614755
 10
-1960.892345763104
 20
924.4657199642311
 10
-1960.892345763104
 20
924.4657199642311
 10
-1960.892345763104
 20
924.4657199642311
 10
-1960.892345763104
 20
924.4657199642311
 10
-1960.892345763104
 20
925.6284317669868
 10
-1960.892345763104
 20
925.6284317669868
 10
-1960.892345763104
 20
925.6284317669868
 10
-1960.892345763104
 20
926.7911435697423
 10
-1960.892345763104
 20
926.7911435697423
 10
-1960.892345763104
 20
926.7911435697423
 10
-1960.892345763104
 20
926.7911435697423
 10
-1960.892345763104
 20
926.7911435697423
 10
-1960.892345763104
 20
927.953855372498
 10
-1960.892345763104
 20
927.953855372498
 10
-1959.729633960348
 20
927.953855372498
 10
-1959.729633960348
 20
927.953855372498
 10
-1959.729633960348
 20
929.1165671752536
 10
-1958.566922157593
 20
929.1165671752536
 10
-1958.566922157593
 20
930.2792789780092
 10
-1958.566922157593
 20
930.2792789780092
 10
-1958.566922157593
 20
930.2792789780092
 10
-1958.566922157593
 20
931.4419907807649
 10
-1958.566922157593
 20
931.4419907807649
 10
-1958.566922157593
 20
931.4419907807649
 10
-1958.566922157593
 20
932.6047025835204
 10
-1957.404210354837
 20
932.6047025835204
 10
-1957.404210354837
 20
932.6047025835204
 10
-1957.404210354837
 20
932.6047025835204
 10
-1957.404210354837
 20
932.6047025835204
 10
-1957.404210354837
 20
933.7674143862761
 10
-1957.404210354837
 20
933.7674143862761
 10
-1956.241498552081
 20
933.7674143862761
 10
-1956.241498552081
 20
933.7674143862761
 10
-1956.241498552081
 20
934.9301261890316
 10
-1956.241498552081
 20
934.9301261890316
 10
-1956.241498552081
 20
934.9301261890316
 10
-1956.241498552081
 20
936.0928379917873
 10
-1956.241498552081
 20
936.0928379917873
 10
-1956.241498552081
 20
936.0928379917873
 10
-1956.241498552081
 20
936.0928379917873
 10
-1955.078786749326
 20
937.2555497945428
 10
-1955.078786749326
 20
937.2555497945428
 10
-1953.91607494657
 20
937.2555497945428
 10
-1953.91607494657
 20
937.2555497945428
 10
-1953.91607494657
 20
938.4182615972985
 10
-1953.91607494657
 20
938.4182615972985
 10
-1953.91607494657
 20
938.4182615972985
 10
-1953.91607494657
 20
939.5809734000541
 10
-1952.753363143815
 20
939.5809734000541
 10
-1952.753363143815
 20
939.5809734000541
 10
-1952.753363143815
 20
939.5809734000541
 10
-1952.753363143815
 20
940.7436852028097
 10
-1952.753363143815
 20
940.7436852028097
 10
-1952.753363143815
 20
940.7436852028097
 10
-1952.753363143815
 20
940.7436852028097
 10
-1952.753363143815
 20
940.7436852028097
 10
-1952.753363143815
 20
940.7436852028097
 10
-1951.590651341059
 20
941.9063970055654
 10
-1951.590651341059
 20
941.9063970055654
 10
-1951.590651341059
 20
941.9063970055654
 10
-1951.590651341059
 20
943.0691088083209
 10
-1951.590651341059
 20
943.0691088083209
 10
-1951.590651341059
 20
943.0691088083209
 10
-1950.427939538303
 20
943.0691088083209
 10
-1950.427939538303
 20
943.0691088083209
 10
-1950.427939538303
 20
943.0691088083209
 10
-1950.427939538303
 20
943.0691088083209
 10
-1950.427939538303
 20
944.2318206110766
 10
-1949.265227735548
 20
944.2318206110766
 10
-1949.265227735548
 20
944.2318206110766
 10
-1949.265227735548
 20
945.3945324138322
 10
-1948.102515932792
 20
945.3945324138322
 10
-1948.102515932792
 20
945.3945324138322
 10
-1948.102515932792
 20
945.3945324138322
 10
-1948.102515932792
 20
945.3945324138322
 10
-1948.102515932792
 20
946.5572442165878
 10
-1948.102515932792
 20
946.5572442165878
 10
-1946.939804130036
 20
946.5572442165878
 10
-1946.939804130036
 20
946.5572442165878
 10
-1946.939804130036
 20
946.5572442165878
 10
-1945.777092327281
 20
947.7199560193434
 10
-1945.777092327281
 20
947.7199560193434
 10
-1945.777092327281
 20
947.7199560193434
 10
-1945.777092327281
 20
947.7199560193434
 10
-1945.777092327281
 20
947.7199560193434
 10
-1944.614380524525
 20
947.7199560193434
 10
-1944.614380524525
 20
947.7199560193434
 10
-1944.614380524525
 20
948.8826678220991
 10
-1944.614380524525
 20
948.8826678220991
 10
-1944.614380524525
 20
948.8826678220991
 10
-1943.45166872177
 20
950.0453796248546
 10
-1943.45166872177
 20
950.0453796248546
 10
-1943.45166872177
 20
950.0453796248546
 10
-1943.45166872177
 20
950.0453796248546
 10
-1943.45166872177
 20
950.0453796248546
 10
-1943.45166872177
 20
950.0453796248546
 10
-1942.288956919014
 20
950.0453796248546
 10
-1942.288956919014
 20
951.2080914276103
 10
-1942.288956919014
 20
951.2080914276103
 10
-1941.126245116258
 20
951.2080914276103
 10
-1941.126245116258
 20
951.2080914276103
 10
-1941.126245116258
 20
951.2080914276103
 10
-1941.126245116258
 20
952.3708032303658
 10
-1939.963533313503
 20
952.3708032303658
 10
-1939.963533313503
 20
952.3708032303658
 10
-1939.963533313503
 20
952.3708032303658
 10
-1938.800821510747
 20
952.3708032303658
 10
-1938.800821510747
 20
952.3708032303658
 10
-1938.800821510747
 20
952.3708032303658
 10
-1937.638109707992
 20
953.5335150331215
 10
-1937.638109707992
 20
953.5335150331215
 10
-1937.638109707992
 20
953.5335150331215
 10
-1936.475397905236
 20
953.5335150331215
 10
-1936.475397905236
 20
953.5335150331215
 10
-1936.475397905236
 20
953.5335150331215
 10
-1936.475397905236
 20
954.6962268358772
 10
-1936.475397905236
 20
954.6962268358772
 10
-1935.31268610248
 20
954.6962268358772
 10
-1934.149974299725
 20
955.8589386386327
 10
-1934.149974299725
 20
955.8589386386327
 10
-1934.149974299725
 20
955.8589386386327
 10
-1934.149974299725
 20
955.8589386386327
 10
-1934.149974299725
 20
955.8589386386327
 10
-1932.987262496969
 20
955.8589386386327
 10
-1932.987262496969
 20
955.8589386386327
 10
-1932.987262496969
 20
955.8589386386327
 10
-1932.987262496969
 20
955.8589386386327
 10
-1931.824550694213
 20
955.8589386386327
 10
-1931.824550694213
 20
957.0216504413884
 10
-1930.661838891458
 20
957.0216504413884
 10
-1930.661838891458
 20
957.0216504413884
 10
-1929.499127088702
 20
957.0216504413884
 10
-1929.499127088702
 20
957.0216504413884
 10
-1929.499127088702
 20
957.0216504413884
 10
-1928.336415285947
 20
957.0216504413884
 10
-1928.336415285947
 20
957.0216504413884
 10
-1928.336415285947
 20
958.1843622441439
 10
-1927.173703483191
 20
958.1843622441439
 10
-1927.173703483191
 20
958.1843622441439
 10
-1927.173703483191
 20
958.1843622441439
 10
-1927.173703483191
 20
958.1843622441439
 10
-1927.173703483191
 20
958.1843622441439
 10
-1927.173703483191
 20
958.1843622441439
 10
-1926.010991680435
 20
958.1843622441439
 10
-1926.010991680435
 20
958.1843622441439
 10
-1924.84827987768
 20
958.1843622441439
 10
-1924.84827987768
 20
958.1843622441439
 10
-1924.84827987768
 20
958.1843622441439
 10
-1923.685568074924
 20
958.1843622441439
 10
-1923.685568074924
 20
958.1843622441439
 10
-1922.522856272169
 20
958.1843622441439
 10
-1922.522856272169
 20
958.1843622441439
 10
-1921.360144469413
 20
958.1843622441439
 10
-1921.360144469413
 20
958.1843622441439
 10
-1921.360144469413
 20
958.1843622441439
 10
-1920.197432666657
 20
958.1843622441439
 10
-1920.197432666657
 20
958.1843622441439
 10
-1919.034720863902
 20
958.1843622441439
 10
-1919.034720863902
 20
958.1843622441439
 10
-1917.872009061146
 20
958.1843622441439
 10
-1917.872009061146
 20
958.1843622441439
 10
-1917.872009061146
 20
958.1843622441439
 10
-1916.709297258391
 20
958.1843622441439
 10
-1916.709297258391
 20
958.1843622441439
 10
-1915.546585455635
 20
958.1843622441439
 10
-1915.546585455635
 20
958.1843622441439
 10
-1914.383873652879
 20
958.1843622441439
 10
-1914.383873652879
 20
958.1843622441439
 10
-1914.383873652879
 20
958.1843622441439
 10
-1914.383873652879
 20
958.1843622441439
 10
-1913.221161850124
 20
958.1843622441439
 10
-1913.221161850124
 20
958.1843622441439
 10
-1913.221161850124
 20
958.1843622441439
 10
-1913.221161850124
 20
958.1843622441439
 10
-1912.058450047368
 20
958.1843622441439
 10
-1912.058450047368
 20
958.1843622441439
 10
-1912.058450047368
 20
958.1843622441439
 10
-1912.058450047368
 20
958.1843622441439
 10
-1910.895738244612
 20
958.1843622441439
 10
-1909.733026441857
 20
958.1843622441439
 10
-1909.733026441857
 20
958.1843622441439
 10
-1909.733026441857
 20
958.1843622441439
 10
-1908.570314639101
 20
958.1843622441439
 10
-1908.570314639101
 20
959.3470740468996
 10
-1908.570314639101
 20
959.3470740468996
 10
-1907.407602836346
 20
959.3470740468996
 10
-1907.407602836346
 20
959.3470740468996
 10
-1907.407602836346
 20
959.3470740468996
 10
-1906.24489103359
 20
959.3470740468996
 10
-1905.082179230834
 20
959.3470740468996
 10
-1905.082179230834
 20
959.3470740468996
 10
-1905.082179230834
 20
959.3470740468996
 10
-1905.082179230834
 20
959.3470740468996
 10
-1905.082179230834
 20
959.3470740468996
 10
-1905.082179230834
 20
959.3470740468996
 10
-1903.919467428079
 20
959.3470740468996
 10
-1903.919467428079
 20
959.3470740468996
 10
-1903.919467428079
 20
959.3470740468996
 10
-1902.756755625323
 20
959.3470740468996
 10
-1902.756755625323
 20
959.3470740468996
 10
-1901.594043822568
 20
959.3470740468996
 10
-1900.431332019812
 20
959.3470740468996
 10
-1900.431332019812
 20
959.3470740468996
 10
-1899.268620217056
 20
959.3470740468996
 10
-1899.268620217056
 20
959.3470740468996
 10
-1898.105908414301
 20
959.3470740468996
 10
-1896.943196611545
 20
959.3470740468996
 10
-1896.943196611545
 20
959.3470740468996
 10
-1895.780484808789
 20
959.3470740468996
 10
-1895.780484808789
 20
959.3470740468996
 10
-1895.780484808789
 20
959.3470740468996
 10
-1894.617773006034
 20
959.3470740468996
 10
-1894.617773006034
 20
959.3470740468996
 10
-1894.617773006034
 20
959.3470740468996
 10
-1893.455061203278
 20
959.3470740468996
 10
-1893.455061203278
 20
959.3470740468996
 10
-1893.455061203278
 20
959.3470740468996
 10
-1893.455061203278
 20
959.3470740468996
 10
-1892.292349400523
 20
959.3470740468996
 10
-1892.292349400523
 20
959.3470740468996
 10
-1891.129637597767
 20
959.3470740468996
 10
-1891.129637597767
 20
959.3470740468996
 10
-1891.129637597767
 20
959.3470740468996
 10
-1891.129637597767
 20
959.3470740468996
 10
-1891.129637597767
 20
959.3470740468996
 10
-1891.129637597767
 20
959.3470740468996
 10
-1889.966925795011
 20
959.3470740468996
 10
-1889.966925795011
 20
959.3470740468996
 10
-1889.966925795011
 20
959.3470740468996
 10
-1889.966925795011
 20
958.1843622441439
 10
-1888.804213992256
 20
958.1843622441439
 10
-1888.804213992256
 20
958.1843622441439
 10
-1887.6415021895
 20
958.1843622441439
 10
-1887.6415021895
 20
958.1843622441439
 10
-1886.478790386745
 20
958.1843622441439
 10
-1886.478790386745
 20
958.1843622441439
 10
-1886.478790386745
 20
958.1843622441439
 10
-1885.316078583989
 20
958.1843622441439
 10
-1885.316078583989
 20
958.1843622441439
 10
-1884.153366781233
 20
958.1843622441439
 10
-1884.153366781233
 20
958.1843622441439
 10
-1884.153366781233
 20
957.0216504413884
 10
-1882.990654978478
 20
957.0216504413884
 10
-1882.990654978478
 20
957.0216504413884
 10
-1882.990654978478
 20
957.0216504413884
 10
-1881.827943175722
 20
957.0216504413884
 10
-1881.827943175722
 20
957.0216504413884
 10
-1881.827943175722
 20
957.0216504413884
 10
-1880.665231372966
 20
957.0216504413884
 10
-1880.665231372966
 20
955.8589386386327
 10
-1878.339807767455
 20
954.6962268358772
 10
-1878.339807767455
 20
954.6962268358772
 10
-1877.1770959647
 20
954.6962268358772
 10
-1877.1770959647
 20
954.6962268358772
 10
-1874.851672359188
 20
953.5335150331215
 10
-1874.851672359188
 20
953.5335150331215
 10
-1872.526248753677
 20
952.3708032303658
 10
-1872.526248753677
 20
952.3708032303658
 10
-1872.526248753677
 20
952.3708032303658
 10
-1871.363536950922
 20
951.2080914276103
 10
-1871.363536950922
 20
951.2080914276103
 10
-1871.363536950922
 20
951.2080914276103
 10
-1870.200825148166
 20
951.2080914276103
 10
-1869.03811334541
 20
951.2080914276103
 10
-1869.03811334541
 20
950.0453796248546
 10
-1869.03811334541
 20
950.0453796248546
 10
-1867.875401542655
 20
950.0453796248546
 10
-1867.875401542655
 20
950.0453796248546
 10
-1867.875401542655
 20
950.0453796248546
 10
-1866.712689739899
 20
950.0453796248546
 10
-1866.712689739899
 20
950.0453796248546
 10
-1866.712689739899
 20
950.0453796248546
 10
-1865.549977937143
 20
950.0453796248546
 10
-1865.549977937143
 20
948.8826678220991
 10
-1865.549977937143
 20
948.8826678220991
 10
-1865.549977937143
 20
948.8826678220991
 10
-1864.387266134388
 20
948.8826678220991
 10
-1863.224554331632
 20
947.7199560193434
 10
-1863.224554331632
 20
947.7199560193434
 10
-1863.224554331632
 20
947.7199560193434
 10
-1860.899130726121
 20
947.7199560193434
 10
-1860.899130726121
 20
947.7199560193434
 10
-1859.736418923365
 20
947.7199560193434
 10
-1859.736418923365
 20
946.5572442165878
 10
-1858.57370712061
 20
946.5572442165878
 10
-1857.410995317854
 20
946.5572442165878
 10
-1857.410995317854
 20
946.5572442165878
 10
-1856.248283515099
 20
946.5572442165878
 10
-1856.248283515099
 20
946.5572442165878
 10
-1856.248283515099
 20
946.5572442165878
 10
-1856.248283515099
 20
946.5572442165878
 10
-1855.085571712343
 20
946.5572442165878
 10
-1855.085571712343
 20
946.5572442165878
 10
-1855.085571712343
 20
946.5572442165878
 10
-1855.085571712343
 20
945.3945324138322
 10
-1855.085571712343
 20
945.3945324138322
 10
-1852.760148106832
 20
945.3945324138322
 10
-1852.760148106832
 20
945.3945324138322
 10
-1852.760148106832
 20
945.3945324138322
 10
-1851.597436304076
 20
945.3945324138322
 10
-1851.597436304076
 20
945.3945324138322
 10
-1850.43472450132
 20
945.3945324138322
 10
-1850.43472450132
 20
945.3945324138322
 10
-1849.272012698565
 20
945.3945324138322
 10
-1848.109300895809
 20
944.2318206110766
 10
-1848.109300895809
 20
944.2318206110766
 10
-1846.946589093054
 20
944.2318206110766
 10
-1846.946589093054
 20
944.2318206110766
 10
-1846.946589093054
 20
944.2318206110766
 10
-1845.783877290298
 20
944.2318206110766
 10
-1844.621165487542
 20
943.0691088083209
 10
-1844.621165487542
 20
943.0691088083209
 10
-1844.621165487542
 20
943.0691088083209
 10
-1843.458453684787
 20
943.0691088083209
 10
-1843.458453684787
 20
943.0691088083209
 10
-1843.458453684787
 20
943.0691088083209
 10
-1842.295741882031
 20
943.0691088083209
 10
-1842.295741882031
 20
941.9063970055654
 10
-1842.295741882031
 20
941.9063970055654
 10
-1841.133030079276
 20
941.9063970055654
 10
-1839.97031827652
 20
941.9063970055654
 10
-1839.97031827652
 20
941.9063970055654
 10
-1839.97031827652
 20
941.9063970055654
 10
-1839.97031827652
 20
941.9063970055654
 10
-1839.97031827652
 20
941.9063970055654
 10
-1838.807606473764
 20
941.9063970055654
 10
-1838.807606473764
 20
941.9063970055654
 10
-1838.807606473764
 20
941.9063970055654
 10
-1838.807606473764
 20
940.7436852028097
 10
-1838.807606473764
 20
940.7436852028097
 10
-1837.644894671009
 20
940.7436852028097
 10
-1837.644894671009
 20
940.7436852028097
 10
-1837.644894671009
 20
940.7436852028097
 10
-1837.644894671009
 20
940.7436852028097
 10
-1836.482182868253
 20
939.5809734000541
 10
-1835.319471065498
 20
939.5809734000541
 10
-1835.319471065498
 20
939.5809734000541
 10
-1835.319471065498
 20
938.4182615972985
 10
-1834.156759262742
 20
938.4182615972985
 10
-1834.156759262742
 20
938.4182615972985
 10
-1834.156759262742
 20
938.4182615972985
 10
-1834.156759262742
 20
938.4182615972985
 10
-1832.994047459986
 20
937.2555497945428
 10
-1832.994047459986
 20
937.2555497945428
 10
-1831.831335657231
 20
936.0928379917873
 10
-1831.831335657231
 20
936.0928379917873
 10
-1830.668623854475
 20
936.0928379917873
 10
-1830.668623854475
 20
934.9301261890316
 10
-1829.505912051719
 20
933.7674143862761
 10
-1828.343200248964
 20
933.7674143862761
 10
-1828.343200248964
 20
933.7674143862761
 10
-1828.343200248964
 20
932.6047025835204
 10
-1827.180488446208
 20
932.6047025835204
 10
-1827.180488446208
 20
932.6047025835204
 10
-1827.180488446208
 20
932.6047025835204
 10
-1826.017776643453
 20
931.4419907807649
 10
-1826.017776643453
 20
931.4419907807649
 10
-1826.017776643453
 20
930.2792789780092
 10
-1824.855064840697
 20
930.2792789780092
 10
-1824.855064840697
 20
929.1165671752536
 10
-1824.855064840697
 20
929.1165671752536
 10
-1823.692353037941
 20
929.1165671752536
 10
-1823.692353037941
 20
929.1165671752536
 10
-1823.692353037941
 20
929.1165671752536
 10
-1823.692353037941
 20
927.953855372498
 10
-1823.692353037941
 20
927.953855372498
 10
-1822.529641235186
 20
927.953855372498
 10
-1822.529641235186
 20
927.953855372498
 10
-1822.529641235186
 20
927.953855372498
 10
-1821.36692943243
 20
926.7911435697423
 10
-1821.36692943243
 20
926.7911435697423
 10
-1821.36692943243
 20
925.6284317669868
 10
-1821.36692943243
 20
925.6284317669868
 10
-1821.36692943243
 20
925.6284317669868
 10
-1821.36692943243
 20
925.6284317669868
 10
-1820.204217629675
 20
924.4657199642311
 10
-1820.204217629675
 20
924.4657199642311
 10
-1820.204217629675
 20
924.4657199642311
 10
-1820.204217629675
 20
924.4657199642311
 10
-1820.204217629675
 20
923.3030081614755
 10
-1820.204217629675
 20
923.3030081614755
 10
-1820.204217629675
 20
923.3030081614755
 10
-1819.041505826919
 20
923.3030081614755
 10
-1819.041505826919
 20
923.3030081614755
 10
-1819.041505826919
 20
923.3030081614755
 10
-1819.041505826919
 20
923.3030081614755
 10
-1819.041505826919
 20
923.3030081614755
 10
-1819.041505826919
 20
923.3030081614755
 10
-1819.041505826919
 20
923.3030081614755
 10
-1819.041505826919
 20
923.3030081614755
 10
-1819.041505826919
 20
923.3030081614755
 10
-1819.041505826919
 20
923.3030081614755
 10
-1819.041505826919
 20
923.3030081614755
 10
-1819.041505826919
 20
923.3030081614755
 10
-1819.041505826919
 20
923.3030081614755
 10
-1819.041505826919
 20
923.3030081614755
 10
-1819.041505826919
 20
923.3030081614755
 10
-1819.041505826919
 20
922.1402963587199
 10
-1819.041505826919
 20
922.1402963587199
 10
-1819.041505826919
 20
922.1402963587199
 10
-1819.041505826919
 20
922.1402963587199
 10
-1819.041505826919
 20
922.1402963587199
 10
-1819.041505826919
 20
922.1402963587199
 10
-1819.041505826919
 20
922.1402963587199
 10
-1819.041505826919
 20
922.1402963587199
 10
-1819.041505826919
 20
922.1402963587199
 10
-1819.041505826919
 20
922.1402963587199
 10
-1819.041505826919
 20
922.1402963587199
 10
-1819.041505826919
 20
922.1402963587199
 10
-1819.041505826919
 20
922.1402963587199
 10
-1819.041505826919
 20
920.9775845559643
 10
-1817.878794024163
 20
920.9775845559643
 10
-1817.878794024163
 20
920.9775845559643
 10
-1817.878794024163
 20
920.9775845559643
 10
-1816.716082221408
 20
919.8148727532086
 10
-1816.716082221408
 20
919.8148727532086
 10
-1816.716082221408
 20
919.8148727532086
 10
-1816.716082221408
 20
919.8148727532086
 10
-1815.553370418652
 20
919.8148727532086
 10
-1815.553370418652
 20
919.8148727532086
 10
-1815.553370418652
 20
918.6521609504531
 10
-1815.553370418652
 20
918.6521609504531
 10
-1815.553370418652
 20
918.6521609504531
 10
-1815.553370418652
 20
918.6521609504531
 10
-1814.390658615896
 20
918.6521609504531
 10
-1814.390658615896
 20
918.6521609504531
 10
-1814.390658615896
 20
918.6521609504531
 10
-1814.390658615896
 20
918.6521609504531
 10
-1814.390658615896
 20
917.4894491476974
 10
-1814.390658615896
 20
917.4894491476974
 10
-1814.390658615896
 20
917.4894491476974
 10
-1813.227946813141
 20
917.4894491476974
 10
-1813.227946813141
 20
917.4894491476974
 10
-1813.227946813141
 20
917.4894491476974
 10
-1812.065235010385
 20
917.4894491476974
 10
-1812.065235010385
 20
917.4894491476974
 10
-1812.065235010385
 20
917.4894491476974
 10
-1812.065235010385
 20
916.3267373449418
 10
-1812.065235010385
 20
916.3267373449418
 10
-1810.90252320763
 20
916.3267373449418
 10
-1810.90252320763
 20
916.3267373449418
 10
-1810.90252320763
 20
916.3267373449418
 10
-1810.90252320763
 20
916.3267373449418
 10
-1810.90252320763
 20
915.1640255421862
 10
-1810.90252320763
 20
915.1640255421862
 10
-1810.90252320763
 20
915.1640255421862
 10
-1810.90252320763
 20
915.1640255421862
 10
-1810.90252320763
 20
915.1640255421862
 10
-1810.90252320763
 20
915.1640255421862
 10
-1810.90252320763
 20
915.1640255421862
 10
-1809.739811404874
 20
915.1640255421862
 10
-1809.739811404874
 20
915.1640255421862
 10
-1809.739811404874
 20
915.1640255421862
 10
-1809.739811404874
 20
915.1640255421862
 10
-1809.739811404874
 20
914.0013137394305
 10
-1808.577099602118
 20
914.0013137394305
 10
-1808.577099602118
 20
914.0013137394305
 10
-1808.577099602118
 20
914.0013137394305
 10
-1807.414387799363
 20
914.0013137394305
 10
-1807.414387799363
 20
912.838601936675
 10
-1807.414387799363
 20
912.838601936675
 10
-1807.414387799363
 20
912.838601936675
 10
-1807.414387799363
 20
912.838601936675
 10
-1807.414387799363
 20
912.838601936675
 10
-1807.414387799363
 20
912.838601936675
 10
-1807.414387799363
 20
912.838601936675
 10
-1807.414387799363
 20
912.838601936675
 10
-1807.414387799363
 20
912.838601936675
 10
-1807.414387799363
 20
912.838601936675
 10
-1807.414387799363
 20
912.838601936675
 10
-1807.414387799363
 20
912.838601936675
 10
-1807.414387799363
 20
912.838601936675
 10
-1807.414387799363
 20
912.838601936675
 10
-1807.414387799363
 20
912.838601936675
 10
-1807.414387799363
 20
912.838601936675
 10
-1807.414387799363
 20
912.838601936675
 10
-1807.414387799363
 20
912.838601936675
 10
-1807.414387799363
 20
911.6758901339193
 10
-1807.414387799363
 20
911.6758901339193
 10
-1806.251675996607
 20
910.5131783311638
 10
-1806.251675996607
 20
910.5131783311638
 10
-1806.251675996607
 20
910.5131783311638
 10
-1806.251675996607
 20
910.5131783311638
 10
-1805.088964193852
 20
909.3504665284081
 10
-1805.088964193852
 20
909.3504665284081
 10
-1805.088964193852
 20
909.3504665284081
 10
-1805.088964193852
 20
909.3504665284081
 10
-1805.088964193852
 20
909.3504665284081
 10
-1805.088964193852
 20
908.1877547256526
 10
-1805.088964193852
 20
908.1877547256526
 10
-1805.088964193852
 20
908.1877547256526
 10
-1803.926252391096
 20
908.1877547256526
 10
-1803.926252391096
 20
908.1877547256526
 10
-1803.926252391096
 20
908.1877547256526
 10
-1803.926252391096
 20
908.1877547256526
 10
-1803.926252391096
 20
907.0250429228969
 10
-1803.926252391096
 20
907.0250429228969
 10
-1802.76354058834
 20
907.0250429228969
 10
-1802.76354058834
 20
905.8623311201413
 10
-1802.76354058834
 20
905.8623311201413
 10
-1802.76354058834
 20
905.8623311201413
 10
-1802.76354058834
 20
905.8623311201413
 10
-1802.76354058834
 20
905.8623311201413
 10
-1802.76354058834
 20
905.8623311201413
 10
-1802.76354058834
 20
904.6996193173857
 10
-1802.76354058834
 20
904.6996193173857
 10
-1802.76354058834
 20
904.6996193173857
 10
-1802.76354058834
 20
904.6996193173857
 10
-1802.76354058834
 20
904.6996193173857
 10
-1802.76354058834
 20
904.6996193173857
 10
-1802.76354058834
 20
904.6996193173857
 10
-1802.76354058834
 20
904.6996193173857
 10
-1802.76354058834
 20
904.6996193173857
 10
-1802.76354058834
 20
904.6996193173857
 10
-1802.76354058834
 20
904.6996193173857
 10
-1802.76354058834
 20
904.6996193173857
 10
-1802.76354058834
 20
904.6996193173857
 10
-1802.76354058834
 20
904.6996193173857
 10
-1802.76354058834
 20
904.6996193173857
 10
-1802.76354058834
 20
904.6996193173857
 10
-1802.76354058834
 20
904.6996193173857
 10
-1802.76354058834
 20
904.6996193173857
 10
-1802.76354058834
 20
904.6996193173857
 10
-1802.76354058834
 20
904.6996193173857
 10
-1802.76354058834
 20
904.6996193173857
 10
-1802.76354058834
 20
903.53690751463
 10
-1802.76354058834
 20
903.53690751463
 10
-1802.76354058834
 20
903.53690751463
 10
-1802.76354058834
 20
903.53690751463
 10
-1802.76354058834
 20
903.53690751463
 10
-1802.76354058834
 20
903.53690751463
 10
-1802.76354058834
 20
903.53690751463
 10
-1802.76354058834
 20
903.53690751463
 10
-1802.76354058834
 20
903.53690751463
 10
-1802.76354058834
 20
903.53690751463
 10
-1802.76354058834
 20
903.53690751463
 10
-1802.76354058834
 20
903.53690751463
 10
-1802.76354058834
 20
903.53690751463
 10
-1802.76354058834
 20
903.53690751463
 10
-1802.76354058834
 20
903.53690751463
 10
-1802.76354058834
 20
903.53690751463
 10
-1802.76354058834
 20
903.53690751463
 10
-1802.76354058834
 20
903.53690751463
 10
-1802.76354058834
 20
903.53690751463
 10
-1802.76354058834
 20
903.53690751463
 10
-1802.76354058834
 20
903.53690751463
 10
-1802.76354058834
 20
903.53690751463
 10
-1802.76354058834
 20
903.53690751463
 10
-1802.76354058834
 20
903.53690751463
 10
-1802.76354058834
 20
903.53690751463
 10
-1802.76354058834
 20
903.53690751463
 10
-1802.76354058834
 20
903.53690751463
 10
-1802.76354058834
 20
903.53690751463
 10
-1802.76354058834
 20
903.53690751463
 10
-1802.76354058834
 20
903.53690751463
 10
-1802.76354058834
 20
903.53690751463
 10
-1802.76354058834
 20
903.53690751463
 10
-1802.76354058834
 20
903.53690751463
 10
-1802.76354058834
 20
903.53690751463
 10
-1802.76354058834
 20
903.53690751463
 10
-1802.76354058834
 20
903.53690751463
 10
-1802.76354058834
 20
903.53690751463
 10
-1802.76354058834
 20
903.53690751463
 10
-1801.600828785585
 20
903.53690751463
 10
-1800.438116982829
 20
902.3741957118744
 10
-1800.438116982829
 20
901.2114839091188
 10
-1799.275405180073
 20
901.2114839091188
 10
-1799.275405180073
 20
901.2114839091188
 10
-1798.112693377318
 20
901.2114839091188
 10
-1798.112693377318
 20
901.2114839091188
 10
-1798.112693377318
 20
901.2114839091188
 10
-1798.112693377318
 20
900.0487721063632
 10
-1796.949981574562
 20
900.0487721063632
 10
-1796.949981574562
 20
900.0487721063632
 10
-1796.949981574562
 20
900.0487721063632
 10
-1796.949981574562
 20
900.0487721063632
 10
-1796.949981574562
 20
900.0487721063632
 10
-1796.949981574562
 20
900.0487721063632
 10
-1796.949981574562
 20
900.0487721063632
 10
-1796.949981574562
 20
900.0487721063632
 10
-1796.949981574562
 20
900.0487721063632
 10
-1796.949981574562
 20
900.0487721063632
 10
-1796.949981574562
 20
900.0487721063632
 10
-1796.949981574562
 20
900.0487721063632
 10
-1796.949981574562
 20
900.0487721063632
 10
-1796.949981574562
 20
900.0487721063632
 10
-1796.949981574562
 20
900.0487721063632
 10
-1796.949981574562
 20
900.0487721063632
 10
-1796.949981574562
 20
900.0487721063632
 10
-1796.949981574562
 20
900.0487721063632
 10
-1796.949981574562
 20
900.0487721063632
 10
-1796.949981574562
 20
900.0487721063632
 10
-1796.949981574562
 20
900.0487721063632
 10
-1796.949981574562
 20
900.0487721063632
 10
-1796.949981574562
 20
900.0487721063632
 10
-1796.949981574562
 20
900.0487721063632
 10
-1796.949981574562
 20
900.0487721063632
 10
-1796.949981574562
 20
900.0487721063632
 10
-1796.949981574562
 20
900.0487721063632
 10
-1796.949981574562
 20
900.0487721063632
 10
-1796.949981574562
 20
900.0487721063632
 10
-1796.949981574562
 20
900.0487721063632
 10
-1796.949981574562
 20
900.0487721063632
 10
-1796.949981574562
 20
900.0487721063632
 10
-1796.949981574562
 20
900.0487721063632
 10
-1796.949981574562
 20
900.0487721063632
 10
-1796.949981574562
 20
900.0487721063632
 10
-1796.949981574562
 20
900.0487721063632
 10
-1796.949981574562
 20
900.0487721063632
 10
-1796.949981574562
 20
900.0487721063632
 10
-1796.949981574562
 20
900.0487721063632
 10
-1796.949981574562
 20
900.0487721063632
 10
-1796.949981574562
 20
900.0487721063632
 10
-1796.949981574562
 20
900.0487721063632
 10
-1796.949981574562
 20
900.0487721063632
 10
-1796.949981574562
 20
900.0487721063632
 10
-1796.949981574562
 20
900.0487721063632
 10
-1796.949981574562
 20
900.0487721063632
 10
-1796.949981574562
 20
900.0487721063632
 10
-1796.949981574562
 20
900.0487721063632
 10
-1796.949981574562
 20
900.0487721063632
 10
-1796.949981574562
 20
900.0487721063632
 10
-1796.949981574562
 20
900.0487721063632
 10
-1796.949981574562
 20
900.0487721063632
 10
-1796.949981574562
 20
900.0487721063632
 10
-1796.949981574562
 20
900.0487721063632
 10
-1796.949981574562
 20
900.0487721063632
 10
-1796.949981574562
 20
900.0487721063632
 10
-1796.949981574562
 20
900.0487721063632
 10
-1796.949981574562
 20
900.0487721063632
 10
-1796.949981574562
 20
900.0487721063632
 10
-1796.949981574562
 20
900.0487721063632
 10
-1796.949981574562
 20
900.0487721063632
 10
-1796.949981574562
 20
900.0487721063632
 10
-1796.949981574562
 20
900.0487721063632
 10
-1796.949981574562
 20
900.0487721063632
 10
-1796.949981574562
 20
900.0487721063632
 10
-1796.949981574562
 20
900.0487721063632
 10
-1796.949981574562
 20
900.0487721063632
 10
-1796.949981574562
 20
900.0487721063632
 10
-1796.949981574562
 20
900.0487721063632
 10
-1796.949981574562
 20
900.0487721063632
 10
-1796.949981574562
 20
900.0487721063632
 10
-1796.949981574562
 20
900.0487721063632
 10
-1796.949981574562
 20
900.0487721063632
 10
-1796.949981574562
 20
900.0487721063632
 10
-1796.949981574562
 20
900.0487721063632
 10
-1796.949981574562
 20
900.0487721063632
 10
-1796.949981574562
 20
900.0487721063632
 10
-1796.949981574562
 20
900.0487721063632
 10
-1796.949981574562
 20
900.0487721063632
 10
-1796.949981574562
 20
900.0487721063632
 10
-1796.949981574562
 20
900.0487721063632
 10
-1796.949981574562
 20
900.0487721063632
 10
-1796.949981574562
 20
900.0487721063632
 10
-1796.949981574562
 20
900.0487721063632
 10
-1796.949981574562
 20
900.0487721063632
 10
-1796.949981574562
 20
900.0487721063632
 10
-1796.949981574562
 20
900.0487721063632
 10
-1796.949981574562
 20
900.0487721063632
 10
-1796.949981574562
 20
900.0487721063632
 10
-1796.949981574562
 20
900.0487721063632
 10
-1796.949981574562
 20
900.0487721063632
 10
-1796.949981574562
 20
900.0487721063632
 10
-1796.949981574562
 20
900.0487721063632
 10
-1796.949981574562
 20
900.0487721063632
 10
-1796.949981574562
 20
900.0487721063632
 10
-1796.949981574562
 20
900.0487721063632
 10
-1796.949981574562
 20
900.0487721063632
 10
-1796.949981574562
 20
900.0487721063632
 10
-1796.949981574562
 20
900.0487721063632
 10
-1796.949981574562
 20
900.0487721063632
 10
-1796.949981574562
 20
900.0487721063632
 10
-1796.949981574562
 20
900.0487721063632
 10
-1796.949981574562
 20
900.0487721063632
 10
-1796.949981574562
 20
900.0487721063632
 10
-1796.949981574562
 20
900.0487721063632
 10
-1796.949981574562
 20
900.0487721063632
 10
-1796.949981574562
 20
900.0487721063632
 10
-1796.949981574562
 20
900.0487721063632
 10
-1796.949981574562
 20
900.0487721063632
 10
-1796.949981574562
 20
900.0487721063632
 10
-1796.949981574562
 20
900.0487721063632
 10
-1796.949981574562
 20
900.0487721063632
 10
-1796.949981574562
 20
900.0487721063632
 10
-1796.949981574562
 20
900.0487721063632
 10
-1796.949981574562
 20
900.0487721063632
 10
-1796.949981574562
 20
900.0487721063632
 10
-1796.949981574562
 20
900.0487721063632
 10
-1796.949981574562
 20
900.0487721063632
 10
-1796.949981574562
 20
900.0487721063632
 10
-1796.949981574562
 20
900.0487721063632
 10
-1796.949981574562
 20
900.0487721063632
 10
-1796.949981574562
 20
900.0487721063632
 10
-1796.949981574562
 20
900.0487721063632
 10
-1796.949981574562
 20
900.0487721063632
 10
-1796.949981574562
 20
900.0487721063632
 10
-1796.949981574562
 20
900.0487721063632
 10
-1796.949981574562
 20
900.0487721063632
 10
-1796.949981574562
 20
900.0487721063632
 10
-1796.949981574562
 20
900.0487721063632
 10
-1796.949981574562
 20
900.0487721063632
 10
-1796.949981574562
 20
900.0487721063632
 10
-1796.949981574562
 20
900.0487721063632
 10
-1796.949981574562
 20
900.0487721063632
 10
-1796.949981574562
 20
900.0487721063632
 10
-1796.949981574562
 20
900.0487721063632
 10
-1796.949981574562
 20
900.0487721063632
  0
ENDSEC
  0
SECTION
  2
OBJECTS
  0
DICTIONARY
  5
C
330
0
100
AcDbDictionary
281
    1
  3
ACAD_GROUP
350
D
  0
DICTIONARY
  5
D
330
C
100
AcDbDictionary
281
    1
  0
PLOTSETTINGS
  5
7B
100
AcDbPlotSettings
  6
1x1
 40
0
 41
0
 42
0
 43
0
  0
ENDSEC
  0
EOF
