  0
SECTION
  2
HEADER
  0
ENDSEC
  0
SECTION
  2
TABLES
  0
ENDSEC
  0
SECTION
  2
BLOCKS
  0
ENDSEC
  0
SECTION
  2
ENTITIES
  0
TEXT
  1
MARK_1
  8
72
 10
-3169.2
 20
2264.4
 11
-3169.2
 21
2264.4
 62
3
 40
8
 50
90
 72
0
 73
1
  0
TEXT
  1
MARK_2
  8
72
 10
-3191.6
 20
1078.8
 11
-3191.6
 21
1078.8
 62
3
 40
8
 50
90
 72
0
 73
1
  0
POLYLINE
  8
51
 62
7
 66
1
 70
1
  0
VERTEX
  8
51
 62
7
  6
CONTINUOUS
 10
-1961.47004188055
 20
887.415638253673
  0
VERTEX
  8
51
 62
7
  6
CONTINUOUS
 10
-1956.5749186388
 20
854.369189209216
  0
VERTEX
  8
51
 62
7
  6
CONTINUOUS
 10
-1943.45091358517
 20
817.968177879414
  0
VERTEX
  8
51
 62
7
  6
CONTINUOUS
 10
-1923.44347061366
 20
781.743492470961
  0
VERTEX
  8
51
 62
7
  6
CONTINUOUS
 10
-1896.09470981104
 20
748.870035002039
  0
VERTEX
  8
51
 62
7
  6
CONTINUOUS
 10
-1864.32566374668
 20
719.196031005945
  0
VERTEX
  8
51
 62
7
  6
CONTINUOUS
 10
-1844.11035378357
 20
704.764501582656
  0
VERTEX
  8
51
 62
7
  6
CONTINUOUS
 10
-1789.07435887436
 20
677.650915046884
  0
VERTEX
  8
51
 62
7
  6
CONTINUOUS
 10
-1797.38237949442
 20
904.500099404445
  0
VERTEX
  8
51
 62
7
  6
CONTINUOUS
 10
-1818.40996725749
 20
921.370202832287
  0
VERTEX
  8
51
 62
7
  6
CONTINUOUS
 10
-1834.53651916234
 20
932.80365658258
  0
VERTEX
  8
51
 62
7
  6
CONTINUOUS
 10
-1855.56504793981
 20
945.279560111181
  0
VERTEX
  8
51
 62
7
  6
CONTINUOUS
 10
-1876.08591397109
 20
956.180554888102
  0
VERTEX
  8
51
 62
7
  6
CONTINUOUS
 10
-1897.21761472982
 20
961.315880342582
  0
VERTEX
  8
51
 62
7
  6
CONTINUOUS
 10
-1918.24862930833
 20
962.18398413735
  0
VERTEX
  8
51
 62
7
  6
CONTINUOUS
 10
-1935.69954398307
 20
956.980721117387
  0
VERTEX
  8
51
 62
7
  6
CONTINUOUS
 10
-1949.64702653979
 20
943.521707650949
  0
VERTEX
  8
51
 62
7
  6
CONTINUOUS
 10
-1959.99027113172
 20
918.098522065512
  0
SEQEND
  0
POLYLINE
  8
51
 62
7
 66
1
 70
1
  0
VERTEX
  8
51
 62
7
  6
CONTINUOUS
 10
-1770.24008573153
 20
2396.23074397512
  0
VERTEX
  8
51
 62
7
  6
CONTINUOUS
 10
-1770.23175928865
 20
2370.60213274097
  0
VERTEX
  8
51
 62
7
  6
CONTINUOUS
 10
-1764.32911123999
 20
2347.2555952672
  0
VERTEX
  8
51
 62
7
  6
CONTINUOUS
 10
-1749.40735003474
 20
2327.07805004153
  0
VERTEX
  8
51
 62
7
  6
CONTINUOUS
 10
-1726.83971673075
 20
2307.60661135874
  0
VERTEX
  8
51
 62
7
  6
CONTINUOUS
 10
-1697.63676245681
 20
2297.02075425432
  0
VERTEX
  8
51
 62
7
  6
CONTINUOUS
 10
-1680.31440625359
 20
2296.34881410145
  0
VERTEX
  8
51
 62
7
  6
CONTINUOUS
 10
-1656.4320830005
 20
2305.83250600892
  0
VERTEX
  8
51
 62
7
  6
CONTINUOUS
 10
-1633.38283241959
 20
2323.01295461014
  0
VERTEX
  8
51
 62
7
  6
CONTINUOUS
 10
-1611.95495116292
 20
2346.54448476291
  0
VERTEX
  8
51
 62
7
  6
CONTINUOUS
 10
-1591.76373355906
 20
2381.98944141396
  0
VERTEX
  8
51
 62
7
  6
CONTINUOUS
 10
-1581.15471006661
 20
2407.83957951065
  0
VERTEX
  8
51
 62
7
  6
CONTINUOUS
 10
-1618.07331225801
 20
2617.99842099936
  0
VERTEX
  8
51
 62
7
  6
CONTINUOUS
 10
-1643.78448586905
 20
2608.43974743953
  0
VERTEX
  8
51
 62
7
  6
CONTINUOUS
 10
-1658.67614178673
 20
2597.55306571598
  0
VERTEX
  8
51
 62
7
  6
CONTINUOUS
 10
-1675.17002790053
 20
2583.61945070819
  0
VERTEX
  8
51
 62
7
  6
CONTINUOUS
 10
-1713.52845157684
 20
2538.86479482669
  0
VERTEX
  8
51
 62
7
  6
CONTINUOUS
 10
-1729.29428309047
 20
2512.10369194873
  0
VERTEX
  8
51
 62
7
  6
CONTINUOUS
 10
-1743.05469953758
 20
2483.56325268576
  0
VERTEX
  8
51
 62
7
  6
CONTINUOUS
 10
-1755.34184862656
 20
2455.12343196716
  0
VERTEX
  8
51
 62
7
  6
CONTINUOUS
 10
-1764.98856586867
 20
2424.92925182642
  0
SEQEND
  0
POLYLINE
  8
51
 62
7
 66
1
 70
1
  0
VERTEX
  8
51
 62
7
  6
CONTINUOUS
 10
-1697.85184419342
 20
1606.54424216554
  0
VERTEX
  8
51
 62
7
  6
CONTINUOUS
 10
-1694.19680622978
 20
1594.58005916776
  0
VERTEX
  8
51
 62
7
  6
CONTINUOUS
 10
-1683.73439980115
 20
1583.40181839552
  0
VERTEX
  8
51
 62
7
  6
CONTINUOUS
 10
-1649.0407366097
 20
1570.61818848231
  0
VERTEX
  8
51
 62
7
  6
CONTINUOUS
 10
-1624.14936814967
 20
1567.66645794809
  0
VERTEX
  8
51
 62
7
  6
CONTINUOUS
 10
-1594.4062734375
 20
1566.23768845551
  0
VERTEX
  8
51
 62
7
  6
CONTINUOUS
 10
-1562.27534488633
 20
1565.90060763526
  0
VERTEX
  8
51
 62
7
  6
CONTINUOUS
 10
-1528.72143435309
 20
1568.28102214688
  0
VERTEX
  8
51
 62
7
  6
CONTINUOUS
 10
-1488.62678548943
 20
1628.75541012636
  0
VERTEX
  8
51
 62
7
  6
CONTINUOUS
 10
-1600.68518103825
 20
1651.2646799048
  0
VERTEX
  8
51
 62
7
  6
CONTINUOUS
 10
-1650.9307355746
 20
1644.74495161154
  0
VERTEX
  8
51
 62
7
  6
CONTINUOUS
 10
-1670.87440141783
 20
1637.74783635639
  0
VERTEX
  8
51
 62
7
  6
CONTINUOUS
 10
-1685.23040692627
 20
1630.23899853674
  0
VERTEX
  8
51
 62
7
  6
CONTINUOUS
 10
-1694.66106405577
 20
1619.34867874226
  0
SEQEND
  0
POLYLINE
  8
51
 62
7
 66
1
 70
1
  0
VERTEX
  8
51
 62
7
  6
CONTINUOUS
 10
-1577.60734568034
 20
1581.79715464328
  0
VERTEX
  8
51
 62
7
  6
CONTINUOUS
 10
-1577.38107918372
 20
1570.90050593864
  0
VERTEX
  8
51
 62
7
  6
CONTINUOUS
 10
-1570.04274757749
 20
1560.30713419792
  0
VERTEX
  8
51
 62
7
  6
CONTINUOUS
 10
-1555.97280147458
 20
1552.58252095315
  0
VERTEX
  8
51
 62
7
  6
CONTINUOUS
 10
-1536.16270571523
 20
1543.68827843312
  0
VERTEX
  8
51
 62
7
  6
CONTINUOUS
 10
-1511.6274757466
 20
1538.22202410801
  0
VERTEX
  8
51
 62
7
  6
CONTINUOUS
 10
-1477.3388200621
 20
1531.94088107594
  0
VERTEX
  8
51
 62
7
  6
CONTINUOUS
 10
-1405.71150162823
 20
1528.75054207013
  0
VERTEX
  8
51
 62
7
  6
CONTINUOUS
 10
-1340.30676965805
 20
1527.4919356705
  0
VERTEX
  8
51
 62
7
  6
CONTINUOUS
 10
-1254.86091052662
 20
1528.69283753601
  0
VERTEX
  8
51
 62
7
  6
CONTINUOUS
 10
-1225.01566099905
 20
1529.85484622646
  0
VERTEX
  8
51
 62
7
  6
CONTINUOUS
 10
-1187.77859824735
 20
1532.94567201028
  0
VERTEX
  8
51
 62
7
  6
CONTINUOUS
 10
-1156.50964329889
 20
1540.20337595514
  0
VERTEX
  8
51
 62
7
  6
CONTINUOUS
 10
-1123.99643106051
 20
1545.8606134066
  0
VERTEX
  8
51
 62
7
  6
CONTINUOUS
 10
-1101.18530603962
 20
1554.84732862858
  0
VERTEX
  8
51
 62
7
  6
CONTINUOUS
 10
-1087.95031260191
 20
1562.28669453596
  0
VERTEX
  8
51
 62
7
  6
CONTINUOUS
 10
-1074.10499573937
 20
1573.10412982053
  0
VERTEX
  8
51
 62
7
  6
CONTINUOUS
 10
-1087.4376971543
 20
1626.36978443489
  0
VERTEX
  8
51
 62
7
  6
CONTINUOUS
 10
-1094.16663126692
 20
1629.47306788119
  0
VERTEX
  8
51
 62
7
  6
CONTINUOUS
 10
-1126.29369840454
 20
1635.38727196762
  0
VERTEX
  8
51
 62
7
  6
CONTINUOUS
 10
-1149.12369075467
 20
1642.31128264739
  0
VERTEX
  8
51
 62
7
  6
CONTINUOUS
 10
-1239.41310691403
 20
1653.72523520771
  0
VERTEX
  8
51
 62
7
  6
CONTINUOUS
 10
-1276.57250336877
 20
1654.94379074638
  0
VERTEX
  8
51
 62
7
  6
CONTINUOUS
 10
-1313.07413968664
 20
1652.19950721157
  0
VERTEX
  8
51
 62
7
  6
CONTINUOUS
 10
-1330.75432941729
 20
1649.51888500608
  0
VERTEX
  8
51
 62
7
  6
CONTINUOUS
 10
-1405.30844001632
 20
1641.87235061241
  0
VERTEX
  8
51
 62
7
  6
CONTINUOUS
 10
-1471.73644760012
 20
1631.37560204677
  0
VERTEX
  8
51
 62
7
  6
CONTINUOUS
 10
-1497.87857505234
 20
1623.08721586655
  0
VERTEX
  8
51
 62
7
  6
CONTINUOUS
 10
-1496.36953698923
 20
1621.98795855344
  0
VERTEX
  8
51
 62
7
  6
CONTINUOUS
 10
-1518.23992645667
 20
1617.36984197386
  0
VERTEX
  8
51
 62
7
  6
CONTINUOUS
 10
-1559.06074438193
 20
1603.28158339616
  0
VERTEX
  8
51
 62
7
  6
CONTINUOUS
 10
-1571.73753072591
 20
1593.07349788569
  0
SEQEND
  0
POLYLINE
  8
51
 62
7
 66
1
 70
1
  0
VERTEX
  8
51
 62
7
  6
CONTINUOUS
 10
-3138.53892831152
 20
558.281501296824
  0
VERTEX
  8
51
 62
7
  6
CONTINUOUS
 10
-3138.46791205154
 20
534.075285533704
  0
VERTEX
  8
51
 62
7
  6
CONTINUOUS
 10
-3130.08930642283
 20
518.223890898574
  0
VERTEX
  8
51
 62
7
  6
CONTINUOUS
 10
-3119.90644685132
 20
506.359909975345
  0
VERTEX
  8
51
 62
7
  6
CONTINUOUS
 10
-2838.77993671074
 20
621.717309604355
  0
VERTEX
  8
51
 62
7
  6
CONTINUOUS
 10
-2841.47093872588
 20
628.245686029968
  0
VERTEX
  8
51
 62
7
  6
CONTINUOUS
 10
-2855.10844843011
 20
638.942006736972
  0
VERTEX
  8
51
 62
7
  6
CONTINUOUS
 10
-2867.09630714081
 20
643.338774028094
  0
VERTEX
  8
51
 62
7
  6
CONTINUOUS
 10
-2885.1031171687
 20
651.699230363688
  0
VERTEX
  8
51
 62
7
  6
CONTINUOUS
 10
-2909.73945215054
 20
659.476906393358
  0
VERTEX
  8
51
 62
7
  6
CONTINUOUS
 10
-2934.731816836
 20
665.248058620493
  0
VERTEX
  8
51
 62
7
  6
CONTINUOUS
 10
-2958.42974976251
 20
666.497733542431
  0
VERTEX
  8
51
 62
7
  6
CONTINUOUS
 10
-2989.29107541824
 20
664.980342435714
  0
VERTEX
  8
51
 62
7
  6
CONTINUOUS
 10
-3018.4771053085
 20
658.306392447517
  0
VERTEX
  8
51
 62
7
  6
CONTINUOUS
 10
-3046.01275532703
 20
648.736488965393
  0
VERTEX
  8
51
 62
7
  6
CONTINUOUS
 10
-3070.95897613113
 20
632.765230812302
  0
VERTEX
  8
51
 62
7
  6
CONTINUOUS
 10
-3093.79724175611
 20
615.650521216086
  0
VERTEX
  8
51
 62
7
  6
CONTINUOUS
 10
-3113.43547733297
 20
596.807926296387
  0
VERTEX
  8
51
 62
7
  6
CONTINUOUS
 10
-3129.97492929905
 20
577.888467772907
  0
SEQEND
  0
POLYLINE
  8
52
 62
7
 66
1
 70
1
  0
VERTEX
  8
52
 62
7
  6
CONTINUOUS
 10
-3084.71192208355
 20
1352.11540117785
  0
VERTEX
  8
52
 62
7
  6
CONTINUOUS
 10
-3078.25996323178
 20
1353.79041953446
  0
VERTEX
  8
52
 62
7
  6
CONTINUOUS
 10
-3083.31456855526
 20
1353.76610197357
  0
SEQEND
  0
POLYLINE
  8
52
 62
7
 66
1
 70
1
  0
VERTEX
  8
52
 62
7
  6
CONTINUOUS
 10
-3410.00986470086
 20
2771.86494543987
  0
VERTEX
  8
52
 62
7
  6
CONTINUOUS
 10
-3298.16975905393
 20
2625.18160597967
  0
VERTEX
  8
52
 62
7
  6
CONTINUOUS
 10
-3292.25002053254
 20
2627.48906281315
  0
VERTEX
  8
52
 62
7
  6
CONTINUOUS
 10
-3282.31170194097
 20
2637.87104429515
  0
VERTEX
  8
52
 62
7
  6
CONTINUOUS
 10
-3274.30154931469
 20
2651.60711104892
  0
VERTEX
  8
52
 62
7
  6
CONTINUOUS
 10
-3268.57507796851
 20
2668.82449994392
  0
VERTEX
  8
52
 62
7
  6
CONTINUOUS
 10
-3264.47171883635
 20
2689.77677097102
  0
VERTEX
  8
52
 62
7
  6
CONTINUOUS
 10
-3264.83566212159
 20
2715.38021910844
  0
VERTEX
  8
52
 62
7
  6
CONTINUOUS
 10
-3272.2344900975
 20
2742.35995413056
  0
VERTEX
  8
52
 62
7
  6
CONTINUOUS
 10
-3282.02223740188
 20
2767.36008019077
  0
VERTEX
  8
52
 62
7
  6
CONTINUOUS
 10
-3298.11053700924
 20
2790.3324031744
  0
VERTEX
  8
52
 62
7
  6
CONTINUOUS
 10
-3314.35661754351
 20
2805.22762947797
  0
VERTEX
  8
52
 62
7
  6
CONTINUOUS
 10
-3334.62080435268
 20
2812.75953097519
  0
VERTEX
  8
52
 62
7
  6
CONTINUOUS
 10
-3350.87593776112
 20
2814.06576029422
  0
VERTEX
  8
52
 62
7
  6
CONTINUOUS
 10
-3388.11969024634
 20
2803.04156931341
  0
VERTEX
  8
52
 62
7
  6
CONTINUOUS
 10
-3401.15912636291
 20
2789.18185299733
  0
SEQEND
  0
POLYLINE
  8
52
 62
7
 66
1
 70
1
  0
VERTEX
  8
52
 62
7
  6
CONTINUOUS
 10
-1684.56913788665
 20
2429.44767810227
  0
VERTEX
  8
52
 62
7
  6
CONTINUOUS
 10
-1682.51980978428
 20
2417.33051016876
  0
VERTEX
  8
52
 62
7
  6
CONTINUOUS
 10
-1675.62730649089
 20
2392.86571301384
  0
VERTEX
  8
52
 62
7
  6
CONTINUOUS
 10
-1673.70526602176
 20
2380.31682978244
  0
VERTEX
  8
52
 62
7
  6
CONTINUOUS
 10
-1671.87027206348
 20
2351.48660092775
  0
VERTEX
  8
52
 62
7
  6
CONTINUOUS
 10
-1669.74252729294
 20
2342.69678149209
  0
VERTEX
  8
52
 62
7
  6
CONTINUOUS
 10
-1663.85534645895
 20
2334.26005763102
  0
VERTEX
  8
52
 62
7
  6
CONTINUOUS
 10
-1654.02790069539
 20
2330.7229098868
  0
VERTEX
  8
52
 62
7
  6
CONTINUOUS
 10
-1642.77543245215
 20
2331.12181367838
  0
VERTEX
  8
52
 62
7
  6
CONTINUOUS
 10
-1630.93524471643
 20
2336.80352710861
  0
VERTEX
  8
52
 62
7
  6
CONTINUOUS
 10
-1619.34640028651
 20
2346.47320886652
  0
VERTEX
  8
52
 62
7
  6
CONTINUOUS
 10
-1608.18602227253
 20
2361.14697717549
  0
VERTEX
  8
52
 62
7
  6
CONTINUOUS
 10
-1594.62745207951
 20
2391.71955135762
  0
VERTEX
  8
52
 62
7
  6
CONTINUOUS
 10
-1588.33908426672
 20
2413.58476695344
  0
VERTEX
  8
52
 62
7
  6
CONTINUOUS
 10
-1668.9528635675
 20
2460.47608156088
  0
VERTEX
  8
52
 62
7
  6
CONTINUOUS
 10
-1674.84742207091
 20
2457.83840787942
  0
VERTEX
  8
52
 62
7
  6
CONTINUOUS
 10
-1680.87170486903
 20
2451.11141971171
  0
VERTEX
  8
52
 62
7
  6
CONTINUOUS
 10
-1684.4862540058
 20
2439.48062511212
  0
SEQEND
  0
POLYLINE
  8
52
 62
7
 66
1
 70
1
  0
VERTEX
  8
52
 62
7
  6
CONTINUOUS
 10
-1627.47791064689
 20
2646.22409252484
  0
VERTEX
  8
52
 62
7
  6
CONTINUOUS
 10
-1625.65721633632
 20
2634.05627689394
  0
VERTEX
  8
52
 62
7
  6
CONTINUOUS
 10
-1618.40006024766
 20
2623.18023982592
  0
VERTEX
  8
52
 62
7
  6
CONTINUOUS
 10
-1607.96480827295
 20
2616.95028656891
  0
VERTEX
  8
52
 62
7
  6
CONTINUOUS
 10
-1577.58814098261
 20
2614.3392493167
  0
VERTEX
  8
52
 62
7
  6
CONTINUOUS
 10
-1579.67853934912
 20
2641.06144785181
  0
VERTEX
  8
52
 62
7
  6
CONTINUOUS
 10
-1581.60645149552
 20
2644.79653303903
  0
VERTEX
  8
52
 62
7
  6
CONTINUOUS
 10
-1584.14462343578
 20
2647.54142455632
  0
VERTEX
  8
52
 62
7
  6
CONTINUOUS
 10
-1596.8655872418
 20
2654.20470063091
  0
VERTEX
  8
52
 62
7
  6
CONTINUOUS
 10
-1606.05820235887
 20
2657.48742539999
  0
VERTEX
  8
52
 62
7
  6
CONTINUOUS
 10
-1616.11631246543
 20
2657.92592612319
  0
VERTEX
  8
52
 62
7
  6
CONTINUOUS
 10
-1624.29857950885
 20
2652.72437592441
  0
SEQEND
  0
POLYLINE
  8
52
 62
7
 66
1
 70
1
  0
VERTEX
  8
52
 62
7
  6
CONTINUOUS
 10
-1610.05783783005
 20
711.86122063469
  0
VERTEX
  8
52
 62
7
  6
CONTINUOUS
 10
-1605.21078401357
 20
691.565582176636
  0
VERTEX
  8
52
 62
7
  6
CONTINUOUS
 10
-1591.4485969316
 20
670.023434521378
  0
VERTEX
  8
52
 62
7
  6
CONTINUOUS
 10
-1569.27823220971
 20
652.111686344883
  0
VERTEX
  8
52
 62
7
  6
CONTINUOUS
 10
-1542.76357552752
 20
638.364607937254
  0
VERTEX
  8
52
 62
7
  6
CONTINUOUS
 10
-1512.64133021655
 20
628.299757051853
  0
VERTEX
  8
52
 62
7
  6
CONTINUOUS
 10
-1476.9040586568
 20
625.828303887211
  0
VERTEX
  8
52
 62
7
  6
CONTINUOUS
 10
-1435.2216478861
 20
630.543777740583
  0
VERTEX
  8
52
 62
7
  6
CONTINUOUS
 10
-1411.26714213414
 20
641.308248149263
  0
VERTEX
  8
52
 62
7
  6
CONTINUOUS
 10
-1487.14135871834
 20
857.910301518401
  0
VERTEX
  8
52
 62
7
  6
CONTINUOUS
 10
-1492.52717032133
 20
853.187054777322
  0
VERTEX
  8
52
 62
7
  6
CONTINUOUS
 10
-1505.68598551834
 20
845.646072554103
  0
VERTEX
  8
52
 62
7
  6
CONTINUOUS
 10
-1535.58505390597
 20
830.387075065672
  0
VERTEX
  8
52
 62
7
  6
CONTINUOUS
 10
-1556.23863129339
 20
814.618097651083
  0
VERTEX
  8
52
 62
7
  6
CONTINUOUS
 10
-1573.03196358707
 20
796.257493508686
  0
VERTEX
  8
52
 62
7
  6
CONTINUOUS
 10
-1586.42145118627
 20
779.039160461876
  0
VERTEX
  8
52
 62
7
  6
CONTINUOUS
 10
-1604.05659521541
 20
743.813136206062
  0
VERTEX
  8
52
 62
7
  6
CONTINUOUS
 10
-1607.94535707879
 20
731.850568706989
  0
SEQEND
  0
POLYLINE
  8
52
 62
7
 66
1
 70
1
  0
VERTEX
  8
52
 62
7
  6
CONTINUOUS
 10
-1069.81467621373
 20
1647.21198539129
  0
VERTEX
  8
52
 62
7
  6
CONTINUOUS
 10
-991.16624598415
 20
1776.62341920502
  0
VERTEX
  8
52
 62
7
  6
CONTINUOUS
 10
-996.52539097597
 20
1777.00798950636
  0
VERTEX
  8
52
 62
7
  6
CONTINUOUS
 10
-1001.91135734801
 20
1775.25897720242
  0
VERTEX
  8
52
 62
7
  6
CONTINUOUS
 10
-1017.74205160043
 20
1765.51592131186
  0
VERTEX
  8
52
 62
7
  6
CONTINUOUS
 10
-1024.78284181089
 20
1758.02761016365
  0
VERTEX
  8
52
 62
7
  6
CONTINUOUS
 10
-1035.99442592385
 20
1742.74427583248
  0
VERTEX
  8
52
 62
7
  6
CONTINUOUS
 10
-1055.72950966855
 20
1705.69881495384
  0
VERTEX
  8
52
 62
7
  6
CONTINUOUS
 10
-1067.74314741806
 20
1668.41961006284
  0
SEQEND
  0
POLYLINE
  8
52
 62
7
 66
1
 70
1
  0
VERTEX
  8
52
 62
7
  6
CONTINUOUS
 10
-1820.35163218904
 20
868.767217432091
  0
VERTEX
  8
52
 62
7
  6
CONTINUOUS
 10
-1819.18879671137
 20
842.782767815988
  0
VERTEX
  8
52
 62
7
  6
CONTINUOUS
 10
-1811.57498147205
 20
813.901336661329
  0
VERTEX
  8
52
 62
7
  6
CONTINUOUS
 10
-1798.9575567261
 20
784.129833967307
  0
VERTEX
  8
52
 62
7
  6
CONTINUOUS
 10
-1778.97399072492
 20
755.017153835164
  0
VERTEX
  8
52
 62
7
  6
CONTINUOUS
 10
-1759.52225816732
 20
733.219787762465
  0
VERTEX
  8
52
 62
7
  6
CONTINUOUS
 10
-1737.7577223002
 20
717.975126555049
  0
VERTEX
  8
52
 62
7
  6
CONTINUOUS
 10
-1662.31375701963
 20
745.822770929085
  0
VERTEX
  8
52
 62
7
  6
CONTINUOUS
 10
-1661.19450891021
 20
753.51873141947
  0
VERTEX
  8
52
 62
7
  6
CONTINUOUS
 10
-1662.00586201395
 20
760.275305325012
  0
VERTEX
  8
52
 62
7
  6
CONTINUOUS
 10
-1664.56877071469
 20
771.90905443661
  0
VERTEX
  8
52
 62
7
  6
CONTINUOUS
 10
-1669.26449065503
 20
787.226260372482
  0
VERTEX
  8
52
 62
7
  6
CONTINUOUS
 10
-1677.5911975282
 20
808.208444011183
  0
VERTEX
  8
52
 62
7
  6
CONTINUOUS
 10
-1688.12736166916
 20
830.791300840084
  0
VERTEX
  8
52
 62
7
  6
CONTINUOUS
 10
-1701.76205920898
 20
854.619421245976
  0
VERTEX
  8
52
 62
7
  6
CONTINUOUS
 10
-1719.79034199701
 20
881.318682600451
  0
VERTEX
  8
52
 62
7
  6
CONTINUOUS
 10
-1735.10266880043
 20
899.406762137683
  0
VERTEX
  8
52
 62
7
  6
CONTINUOUS
 10
-1753.03095621072
 20
918.613001906414
  0
VERTEX
  8
52
 62
7
  6
CONTINUOUS
 10
-1770.60538967322
 20
929.665765710649
  0
VERTEX
  8
52
 62
7
  6
CONTINUOUS
 10
-1785.05799478121
 20
929.643460723901
  0
VERTEX
  8
52
 62
7
  6
CONTINUOUS
 10
-1797.88671333419
 20
921.619807799684
  0
VERTEX
  8
52
 62
7
  6
CONTINUOUS
 10
-1809.26860013172
 20
909.074644933931
  0
VERTEX
  8
52
 62
7
  6
CONTINUOUS
 10
-1817.78115729739
 20
892.464867510344
  0
SEQEND
  0
POLYLINE
  8
52
 62
7
 66
1
 70
1
  0
VERTEX
  8
52
 62
7
  6
CONTINUOUS
 10
-1948.0315686561
 20
627.165102641238
  0
VERTEX
  8
52
 62
7
  6
CONTINUOUS
 10
-1940.46354373781
 20
621.677081828946
  0
VERTEX
  8
52
 62
7
  6
CONTINUOUS
 10
-1932.92061965251
 20
617.586066424012
  0
SEQEND
  0
POLYLINE
  8
52
 62
7
 66
1
 70
1
  0
VERTEX
  8
52
 62
7
  6
CONTINUOUS
 10
-3287.83908319336
 20
2004.44938602866
  0
VERTEX
  8
52
 62
7
  6
CONTINUOUS
 10
-3286.97673555825
 20
2002.56921112291
  0
VERTEX
  8
52
 62
7
  6
CONTINUOUS
 10
-3277.37856659437
 20
1998.01621589549
  0
VERTEX
  8
52
 62
7
  6
CONTINUOUS
 10
-3264.45577345552
 20
1989.29540490736
  0
VERTEX
  8
52
 62
7
  6
CONTINUOUS
 10
-3252.19131577638
 20
1983.67383318435
  0
VERTEX
  8
52
 62
7
  6
CONTINUOUS
 10
-3231.59016053644
 20
1986.3017094562
  0
VERTEX
  8
52
 62
7
  6
CONTINUOUS
 10
-3258.6830877821
 20
1999.6293614873
  0
VERTEX
  8
52
 62
7
  6
CONTINUOUS
 10
-3277.11960872151
 20
2005.45824503142
  0
VERTEX
  8
52
 62
7
  6
CONTINUOUS
 10
-3286.26286215697
 20
2006.58193643707
  0
SEQEND
  0
POLYLINE
  8
52
 62
7
 66
1
 70
1
  0
VERTEX
  8
52
 62
7
  6
CONTINUOUS
 10
-1975.19597694827
 20
572.027518613135
  0
VERTEX
  8
52
 62
7
  6
CONTINUOUS
 10
-1973.08891926842
 20
566.693067266109
  0
VERTEX
  8
52
 62
7
  6
CONTINUOUS
 10
-1959.34630116024
 20
572.379724425884
  0
VERTEX
  8
52
 62
7
  6
CONTINUOUS
 10
-1960.81907685408
 20
574.361239865051
  0
VERTEX
  8
52
 62
7
  6
CONTINUOUS
 10
-1964.57786337427
 20
576.292444850445
  0
VERTEX
  8
52
 62
7
  6
CONTINUOUS
 10
-1973.18812049529
 20
577.894488766819
  0
VERTEX
  8
52
 62
7
  6
CONTINUOUS
 10
-1975.1950740096
 20
576.243918516453
  0
SEQEND
  0
POLYLINE
  8
52
 62
7
 66
1
 70
1
  0
VERTEX
  8
52
 62
7
  6
CONTINUOUS
 10
-1551.93552393332
 20
1735.32956470779
  0
VERTEX
  8
52
 62
7
  6
CONTINUOUS
 10
-1541.9042182857
 20
1732.78288137367
  0
VERTEX
  8
52
 62
7
  6
CONTINUOUS
 10
-1541.04039850096
 20
1733.11250597755
  0
VERTEX
  8
52
 62
7
  6
CONTINUOUS
 10
-1541.03967088677
 20
1734.20470573519
  0
VERTEX
  8
52
 62
7
  6
CONTINUOUS
 10
-1542.5626891155
 20
1735.67892068389
  0
VERTEX
  8
52
 62
7
  6
CONTINUOUS
 10
-1545.4069470039
 20
1736.49361568466
  0
VERTEX
  8
52
 62
7
  6
CONTINUOUS
 10
-1548.40414633881
 20
1736.49561239335
  0
SEQEND
  0
POLYLINE
  8
52
 62
7
 66
1
 70
1
  0
VERTEX
  8
52
 62
7
  6
CONTINUOUS
 10
-3354.08987555811
 20
352.124265320332
  0
VERTEX
  8
52
 62
7
  6
CONTINUOUS
 10
-3345.93840128898
 20
343.130919482455
  0
VERTEX
  8
52
 62
7
  6
CONTINUOUS
 10
-3327.14415320341
 20
334.948094521706
  0
VERTEX
  8
52
 62
7
  6
CONTINUOUS
 10
-3247.02487462229
 20
370.795737864596
  0
VERTEX
  8
52
 62
7
  6
CONTINUOUS
 10
-3249.43767330954
 20
371.736054585057
  0
VERTEX
  8
52
 62
7
  6
CONTINUOUS
 10
-3289.39164937842
 20
372.786010720984
  0
VERTEX
  8
52
 62
7
  6
CONTINUOUS
 10
-3329.09203340734
 20
371.930912506697
  0
VERTEX
  8
52
 62
7
  6
CONTINUOUS
 10
-3343.62198622479
 20
366.54922396101
  0
VERTEX
  8
52
 62
7
  6
CONTINUOUS
 10
-3353.35122492513
 20
361.699907358461
  0
SEQEND
  0
POLYLINE
  8
52
 62
7
 66
1
 70
1
  0
VERTEX
  8
52
 62
7
  6
CONTINUOUS
 10
-1168.63901300168
 20
2316.41503317378
  0
VERTEX
  8
52
 62
7
  6
CONTINUOUS
 10
-1167.78715654785
 20
2298.78686176259
  0
VERTEX
  8
52
 62
7
  6
CONTINUOUS
 10
-1166.01012145423
 20
2297.33787759565
  0
VERTEX
  8
52
 62
7
  6
CONTINUOUS
 10
-1156.03181674206
 20
2329.61463729783
  0
VERTEX
  8
52
 62
7
  6
CONTINUOUS
 10
-1164.89856377499
 20
2326.39474353344
  0
VERTEX
  8
52
 62
7
  6
CONTINUOUS
 10
-1166.88231844564
 20
2322.56066424283
  0
SEQEND
  0
POLYLINE
  8
52
 62
7
 66
1
 70
1
  0
VERTEX
  8
52
 62
7
  6
CONTINUOUS
 10
-1134.97120181493
 20
2214.41108773938
  0
VERTEX
  8
52
 62
7
  6
CONTINUOUS
 10
-1125.53668545522
 20
2192.96719778772
  0
VERTEX
  8
52
 62
7
  6
CONTINUOUS
 10
-1113.66251746335
 20
2173.401282978
  0
VERTEX
  8
52
 62
7
  6
CONTINUOUS
 10
-1098.30946399172
 20
2152.46145026
  0
VERTEX
  8
52
 62
7
  6
CONTINUOUS
 10
-1078.25764846046
 20
2131.16288718778
  0
VERTEX
  8
52
 62
7
  6
CONTINUOUS
 10
-1055.20587542889
 20
2114.00252648814
  0
VERTEX
  8
52
 62
7
  6
CONTINUOUS
 10
-1029.96757080328
 20
2100.04110984994
  0
VERTEX
  8
52
 62
7
  6
CONTINUOUS
 10
-1002.82204991531
 20
2089.40582337886
  0
VERTEX
  8
52
 62
7
  6
CONTINUOUS
 10
-975.342894084813
 20
2083.92651578721
  0
VERTEX
  8
52
 62
7
  6
CONTINUOUS
 10
-942.807514934981
 20
2080.88224032371
  0
VERTEX
  8
52
 62
7
  6
CONTINUOUS
 10
-915.348885775926
 20
2082.71814803004
  0
VERTEX
  8
52
 62
7
  6
CONTINUOUS
 10
-889.614867280794
 20
2088.4414055197
  0
VERTEX
  8
52
 62
7
  6
CONTINUOUS
 10
-867.306362245163
 20
2099.39934621838
  0
VERTEX
  8
52
 62
7
  6
CONTINUOUS
 10
-853.781788046665
 20
2117.06874018506
  0
VERTEX
  8
52
 62
7
  6
CONTINUOUS
 10
-847.645194113431
 20
2139.87385709989
  0
VERTEX
  8
52
 62
7
  6
CONTINUOUS
 10
-847.803077750794
 20
2169.76976891468
  0
VERTEX
  8
52
 62
7
  6
CONTINUOUS
 10
-852.206567730412
 20
2193.95350784811
  0
VERTEX
  8
52
 62
7
  6
CONTINUOUS
 10
-862.217246361917
 20
2227.46278431147
  0
VERTEX
  8
52
 62
7
  6
CONTINUOUS
 10
-875.356050032499
 20
2255.08134339747
  0
VERTEX
  8
52
 62
7
  6
CONTINUOUS
 10
-892.561137171378
 20
2279.273610646
  0
VERTEX
  8
52
 62
7
  6
CONTINUOUS
 10
-911.904578710899
 20
2296.32990086421
  0
VERTEX
  8
52
 62
7
  6
CONTINUOUS
 10
-934.885143531116
 20
2305.99721246281
  0
VERTEX
  8
52
 62
7
  6
CONTINUOUS
 10
-959.803434828608
 20
2304.66761251773
  0
SEQEND
  0
POLYLINE
  8
52
 62
7
 66
1
 70
1
  0
VERTEX
  8
52
 62
7
  6
CONTINUOUS
 10
-2379.79025709693
 20
2761.31219223476
  0
VERTEX
  8
52
 62
7
  6
CONTINUOUS
 10
-2375.57614240269
 20
2757.88038406649
  0
VERTEX
  8
52
 62
7
  6
CONTINUOUS
 10
-2364.53154438215
 20
2751.26902478379
  0
VERTEX
  8
52
 62
7
  6
CONTINUOUS
 10
-2350.61689928987
 20
2744.42715344943
  0
VERTEX
  8
52
 62
7
  6
CONTINUOUS
 10
-2334.21212408065
 20
2738.98062352156
  0
VERTEX
  8
52
 62
7
  6
CONTINUOUS
 10
-2291.41521489296
 20
2735.82791189151
  0
SEQEND
  0
POLYLINE
  8
52
 62
7
 66
1
 70
1
  0
VERTEX
  8
52
 62
7
  6
CONTINUOUS
 10
-1358.08087754374
 20
872.28446364972
  0
VERTEX
  8
52
 62
7
  6
CONTINUOUS
 10
-1221.68618782021
 20
856.812054481796
  0
VERTEX
  8
52
 62
7
  6
CONTINUOUS
 10
-1228.69527676657
 20
862.934955612956
  0
VERTEX
  8
52
 62
7
  6
CONTINUOUS
 10
-1242.00310322038
 20
871.218205663226
  0
VERTEX
  8
52
 62
7
  6
CONTINUOUS
 10
-1260.77178812484
 20
880.163025167111
  0
VERTEX
  8
52
 62
7
  6
CONTINUOUS
 10
-1306.51493516861
 20
890.688421266619
  0
VERTEX
  8
52
 62
7
  6
CONTINUOUS
 10
-1332.37163415186
 20
893.030758511627
  0
VERTEX
  8
52
 62
7
  6
CONTINUOUS
 10
-1348.7042362922
 20
891.154656082226
  0
VERTEX
  8
52
 62
7
  6
CONTINUOUS
 10
-1356.68118507793
 20
884.857164194994
  0
SEQEND
  0
POLYLINE
  8
53
 62
7
 66
1
 70
1
  0
VERTEX
  8
53
 62
7
  6
CONTINUOUS
 10
-874.625041600098
 20
2128.74225860071
  0
VERTEX
  8
53
 62
7
  6
CONTINUOUS
 10
-874.277902309076
 20
2116.04202452126
  0
VERTEX
  8
53
 62
7
  6
CONTINUOUS
 10
-869.628297693047
 20
2080.02171900179
  0
VERTEX
  8
53
 62
7
  6
CONTINUOUS
 10
-860.953835219331
 20
2061.49933603975
  0
VERTEX
  8
53
 62
7
  6
CONTINUOUS
 10
-847.100464375801
 20
2038.93490203683
  0
VERTEX
  8
53
 62
7
  6
CONTINUOUS
 10
-835.858335022502
 20
2023.81440927224
  0
VERTEX
  8
53
 62
7
  6
CONTINUOUS
 10
-820.346197686934
 20
2012.9074728003
  0
VERTEX
  8
53
 62
7
  6
CONTINUOUS
 10
-873.65476543624
 20
2136.36161390191
  0
SEQEND
  0
POLYLINE
  8
53
 62
7
 66
1
 70
1
  0
VERTEX
  8
53
 62
7
  6
CONTINUOUS
 10
-1425.01335764047
 20
2307.50919448123
  0
VERTEX
  8
53
 62
7
  6
CONTINUOUS
 10
-1424.01218088981
 20
2285.2581225683
  0
VERTEX
  8
53
 62
7
  6
CONTINUOUS
 10
-1418.24328439577
 20
2251.77707194975
  0
VERTEX
  8
53
 62
7
  6
CONTINUOUS
 10
-1403.16083180686
 20
2244.04542243469
  0
VERTEX
  8
53
 62
7
  6
CONTINUOUS
 10
-1396.82932933619
 20
2254.40440674127
  0
VERTEX
  8
53
 62
7
  6
CONTINUOUS
 10
-1413.59737334603
 20
2362.72120150319
  0
VERTEX
  8
53
 62
7
  6
CONTINUOUS
 10
-1417.05642592602
 20
2355.73850434457
  0
VERTEX
  8
53
 62
7
  6
CONTINUOUS
 10
-1423.65291023816
 20
2328.89509290861
  0
SEQEND
  0
POLYLINE
  8
53
 62
7
 66
1
 70
1
  0
VERTEX
  8
53
 62
7
  6
CONTINUOUS
 10
-1143.97605606158
 20
2239.48738585465
  0
VERTEX
  8
53
 62
7
  6
CONTINUOUS
 10
-1142.45801268333
 20
2230.54557256305
  0
VERTEX
  8
53
 62
7
  6
CONTINUOUS
 10
-1136.49595172454
 20
2220.12759837783
  0
VERTEX
  8
53
 62
7
  6
CONTINUOUS
 10
-1126.39125502302
 20
2213.36446521558
  0
VERTEX
  8
53
 62
7
  6
CONTINUOUS
 10
-1112.47681298586
 20
2206.21779394885
  0
VERTEX
  8
53
 62
7
  6
CONTINUOUS
 10
-1097.84744842928
 20
2204.65864764683
  0
VERTEX
  8
53
 62
7
  6
CONTINUOUS
 10
-1081.132949201
 20
2206.60331302366
  0
SEQEND
  0
POLYLINE
  8
53
 62
7
 66
1
 70
1
  0
VERTEX
  8
53
 62
7
  6
CONTINUOUS
 10
-3270.67338684379
 20
2950.56276033853
  0
VERTEX
  8
53
 62
7
  6
CONTINUOUS
 10
-3269.23815966134
 20
2931.68960001454
  0
VERTEX
  8
53
 62
7
  6
CONTINUOUS
 10
-3262.54037877153
 20
2919.95033540587
  0
VERTEX
  8
53
 62
7
  6
CONTINUOUS
 10
-3252.66463736575
 20
2912.65395465332
  0
VERTEX
  8
53
 62
7
  6
CONTINUOUS
 10
-3239.23022318995
 20
2909.3684040338
  0
VERTEX
  8
53
 62
7
  6
CONTINUOUS
 10
-3224.52171435103
 20
2912.22880598727
  0
VERTEX
  8
53
 62
7
  6
CONTINUOUS
 10
-3210.29438401915
 20
2917.22312897122
  0
VERTEX
  8
53
 62
7
  6
CONTINUOUS
 10
-3198.98455033825
 20
2927.47719673336
  0
VERTEX
  8
53
 62
7
  6
CONTINUOUS
 10
-3190.84702547244
 20
2941.77197875683
  0
VERTEX
  8
53
 62
7
  6
CONTINUOUS
 10
-3188.70569293001
 20
2953.37835479515
  0
VERTEX
  8
53
 62
7
  6
CONTINUOUS
 10
-3192.32910999
 20
2966.56337161007
  0
VERTEX
  8
53
 62
7
  6
CONTINUOUS
 10
-3198.67061410831
 20
2979.31839909564
  0
VERTEX
  8
53
 62
7
  6
CONTINUOUS
 10
-3210.01918291946
 20
2987.17456115727
  0
VERTEX
  8
53
 62
7
  6
CONTINUOUS
 10
-3222.64074651184
 20
2990.53577027956
  0
SEQEND
  0
POLYLINE
  8
53
 62
7
 66
1
 70
1
  0
VERTEX
  8
53
 62
7
  6
CONTINUOUS
 10
-2821.79355405354
 20
2768.42098780682
  0
VERTEX
  8
53
 62
7
  6
CONTINUOUS
 10
-2816.57315238808
 20
2750.40890602343
  0
VERTEX
  8
53
 62
7
  6
CONTINUOUS
 10
-2811.29900643462
 20
2736.81638941679
  0
VERTEX
  8
53
 62
7
  6
CONTINUOUS
 10
-2802.18993512754
 20
2722.51011785769
  0
VERTEX
  8
53
 62
7
  6
CONTINUOUS
 10
-2787.92635709066
 20
2705.66041184641
  0
VERTEX
  8
53
 62
7
  6
CONTINUOUS
 10
-2775.99489134617
 20
2695.84806102979
  0
VERTEX
  8
53
 62
7
  6
CONTINUOUS
 10
-2760.71154009374
 20
2684.6618769112
  0
VERTEX
  8
53
 62
7
  6
CONTINUOUS
 10
-2745.17263214174
 20
2675.81232306146
  0
SEQEND
  0
POLYLINE
  8
53
 62
7
 66
1
 70
1
  0
VERTEX
  8
53
 62
7
  6
CONTINUOUS
 10
-2930.60733676682
 20
591.841173683192
  0
VERTEX
  8
53
 62
7
  6
CONTINUOUS
 10
-2928.55173725195
 20
583.433333285417
  0
VERTEX
  8
53
 62
7
  6
CONTINUOUS
 10
-2909.11709330648
 20
600.447171762167
  0
VERTEX
  8
53
 62
7
  6
CONTINUOUS
 10
-2911.12326354869
 20
602.454201427933
  0
VERTEX
  8
53
 62
7
  6
CONTINUOUS
 10
-2914.882093584
 20
604.182206417986
  0
VERTEX
  8
53
 62
7
  6
CONTINUOUS
 10
-2918.94600646058
 20
604.589476710999
  0
VERTEX
  8
53
 62
7
  6
CONTINUOUS
 10
-2922.52765659038
 20
603.421843691721
  0
VERTEX
  8
53
 62
7
  6
CONTINUOUS
 10
-2925.75419083401
 20
599.993534572825
  0
SEQEND
  0
POLYLINE
  8
53
 62
7
 66
1
 70
1
  0
VERTEX
  8
53
 62
7
  6
CONTINUOUS
 10
-3371.3166916924
 20
800.336364706606
  0
VERTEX
  8
53
 62
7
  6
CONTINUOUS
 10
-3354.53115948337
 20
782.273369684196
  0
VERTEX
  8
53
 62
7
  6
CONTINUOUS
 10
-3354.53048499906
 20
785.422969611976
  0
VERTEX
  8
53
 62
7
  6
CONTINUOUS
 10
-3366.51515078808
 20
804.729536561216
  0
VERTEX
  8
53
 62
7
  6
CONTINUOUS
 10
-3370.27411136874
 20
805.847941565247
  0
SEQEND
  0
POLYLINE
  8
54
 62
7
 66
1
 70
1
  0
VERTEX
  8
54
 62
7
  6
CONTINUOUS
 10
-1405.33853405181
 20
2368.48150081418
  0
VERTEX
  8
54
 62
7
  6
CONTINUOUS
 10
-1404.57749873273
 20
2367.03319349765
  0
VERTEX
  8
54
 62
7
  6
CONTINUOUS
 10
-1401.29834434954
 20
2370.866409804
  0
VERTEX
  8
54
 62
7
  6
CONTINUOUS
 10
-1404.60267993361
 20
2405.48881880668
  0
SEQEND
  0
POLYLINE
  8
54
 62
7
 66
1
 70
1
  0
VERTEX
  8
54
 62
7
  6
CONTINUOUS
 10
-3381.68801400297
 20
999.62699028665
  0
VERTEX
  8
54
 62
7
  6
CONTINUOUS
 10
-3380.98042577396
 20
982.76123837047
  0
VERTEX
  8
54
 62
7
  6
CONTINUOUS
 10
-3380.09132244594
 20
983.243647980769
  0
VERTEX
  8
54
 62
7
  6
CONTINUOUS
 10
-3378.92229694293
 20
986.164397701869
  0
VERTEX
  8
54
 62
7
  6
CONTINUOUS
 10
-3378.59101995137
 20
991.193526874485
  0
VERTEX
  8
54
 62
7
  6
CONTINUOUS
 10
-3379.73210526003
 20
1000.134571442
  0
SEQEND
  0
POLYLINE
  8
54
 62
7
 66
1
 70
1
  0
VERTEX
  8
54
 62
7
  6
CONTINUOUS
 10
-3236.96252154591
 20
982.298597041461
  0
VERTEX
  8
54
 62
7
  6
CONTINUOUS
 10
-3233.76590199506
 20
964.644912083158
  0
VERTEX
  8
54
 62
7
  6
CONTINUOUS
 10
-3228.04876988539
 20
974.600487992193
  0
VERTEX
  8
54
 62
7
  6
CONTINUOUS
 10
-3228.12376233915
 20
980.239304181064
  0
VERTEX
  8
54
 62
7
  6
CONTINUOUS
 10
-3231.06952042362
 20
983.23713508153
  0
VERTEX
  8
54
 62
7
  6
CONTINUOUS
 10
-3234.90472995704
 20
984.126956408971
  0
SEQEND
  0
POLYLINE
  8
54
 62
7
 66
1
 70
1
  0
VERTEX
  8
54
 62
7
  6
CONTINUOUS
 10
-3411.70573869418
 20
2132.59873335947
  0
VERTEX
  8
54
 62
7
  6
CONTINUOUS
 10
-3399.43901238329
 20
2092.25535242014
  0
VERTEX
  8
54
 62
7
  6
CONTINUOUS
 10
-3397.07478235626
 20
2095.30177806658
  0
VERTEX
  8
54
 62
7
  6
CONTINUOUS
 10
-3395.06300489593
 20
2103.0728395623
  0
VERTEX
  8
54
 62
7
  6
CONTINUOUS
 10
-3394.3682537015
 20
2116.50897970662
  0
VERTEX
  8
54
 62
7
  6
CONTINUOUS
 10
-3396.29090333599
 20
2128.14346314093
  0
VERTEX
  8
54
 62
7
  6
CONTINUOUS
 10
-3400.19818754665
 20
2134.62306757771
  0
VERTEX
  8
54
 62
7
  6
CONTINUOUS
 10
-3404.05849597338
 20
2135.3622394458
  0
SEQEND
  0
POLYLINE
  8
54
 62
7
 66
1
 70
1
  0
VERTEX
  8
54
 62
7
  6
CONTINUOUS
 10
-3255.13473662008
 20
2521.92731350749
  0
VERTEX
  8
54
 62
7
  6
CONTINUOUS
 10
-3239.51384043112
 20
2483.63909850528
  0
VERTEX
  8
54
 62
7
  6
CONTINUOUS
 10
-3235.11884610699
 20
2484.82997086237
  0
VERTEX
  8
54
 62
7
  6
CONTINUOUS
 10
-3228.71493401549
 20
2489.49930566772
  0
VERTEX
  8
54
 62
7
  6
CONTINUOUS
 10
-3224.89955390023
 20
2497.57396568633
  0
VERTEX
  8
54
 62
7
  6
CONTINUOUS
 10
-3223.77461032133
 20
2508.59681870469
  0
VERTEX
  8
54
 62
7
  6
CONTINUOUS
 10
-3224.83433699786
 20
2519.21472704161
  0
VERTEX
  8
54
 62
7
  6
CONTINUOUS
 10
-3227.82857511224
 20
2523.66172276393
  0
VERTEX
  8
54
 62
7
  6
CONTINUOUS
 10
-3235.42137977339
 20
2526.35918162326
  0
VERTEX
  8
54
 62
7
  6
CONTINUOUS
 10
-3248.40030309791
 20
2527.07902822937
  0
SEQEND
  0
POLYLINE
  8
54
 62
7
 66
1
 70
1
  0
VERTEX
  8
54
 62
7
  6
CONTINUOUS
 10
-953.435815582332
 20
1793.76868732352
  0
VERTEX
  8
54
 62
7
  6
CONTINUOUS
 10
-948.942351713871
 20
1790.2604930383
  0
VERTEX
  8
54
 62
7
  6
CONTINUOUS
 10
-940.255062924972
 20
1790.99130580387
  0
VERTEX
  8
54
 62
7
  6
CONTINUOUS
 10
-927.170918473325
 20
1795.70699030653
  0
VERTEX
  8
54
 62
7
  6
CONTINUOUS
 10
-913.857243403099
 20
1801.81952220785
  0
VERTEX
  8
54
 62
7
  6
CONTINUOUS
 10
-900.338168614146
 20
1811.23391800636
  0
VERTEX
  8
54
 62
7
  6
CONTINUOUS
 10
-891.187537509271
 20
1821.18462414325
  0
VERTEX
  8
54
 62
7
  6
CONTINUOUS
 10
-874.417923370921
 20
1829.60625424028
  0
VERTEX
  8
54
 62
7
  6
CONTINUOUS
 10
-876.11809855231
 20
1832.04578742361
  0
VERTEX
  8
54
 62
7
  6
CONTINUOUS
 10
-880.510283947258
 20
1835.07131413089
  0
VERTEX
  8
54
 62
7
  6
CONTINUOUS
 10
-885.005287650391
 20
1836.26810892902
  0
VERTEX
  8
54
 62
7
  6
CONTINUOUS
 10
-902.174922383487
 20
1837.42254744724
  0
VERTEX
  8
54
 62
7
  6
CONTINUOUS
 10
-912.717121453857
 20
1835.62617017038
  0
VERTEX
  8
54
 62
7
  6
CONTINUOUS
 10
-924.658959930806
 20
1829.8683244421
  0
VERTEX
  8
54
 62
7
  6
CONTINUOUS
 10
-936.170402968165
 20
1822.00199152022
  0
VERTEX
  8
54
 62
7
  6
CONTINUOUS
 10
-946.693310619081
 20
1811.03619935684
  0
VERTEX
  8
54
 62
7
  6
CONTINUOUS
 10
-951.602633381776
 20
1800.34606753296
  0
SEQEND
  0
POLYLINE
  8
54
 62
7
 66
1
 70
1
  0
VERTEX
  8
54
 62
7
  6
CONTINUOUS
 10
-1884.0267204597
 20
2633.0854002057
  0
VERTEX
  8
54
 62
7
  6
CONTINUOUS
 10
-1881.05960830821
 20
2626.04762197954
  0
VERTEX
  8
54
 62
7
  6
CONTINUOUS
 10
-1876.21020609346
 20
2623.04719068395
  0
VERTEX
  8
54
 62
7
  6
CONTINUOUS
 10
-1862.54560136994
 20
2622.14908724327
  0
VERTEX
  8
54
 62
7
  6
CONTINUOUS
 10
-1855.65998621232
 20
2625.4719008434
  0
SEQEND
  0
POLYLINE
  8
54
 62
7
 66
1
 70
1
  0
VERTEX
  8
54
 62
7
  6
CONTINUOUS
 10
-964.833225465548
 20
1426.35961774351
  0
VERTEX
  8
54
 62
7
  6
CONTINUOUS
 10
-963.995498711662
 20
1424.14963829433
  0
VERTEX
  8
54
 62
7
  6
CONTINUOUS
 10
-957.976895515403
 20
1418.56034928713
  0
VERTEX
  8
54
 62
7
  6
CONTINUOUS
 10
-944.490632657091
 20
1413.24886109299
  0
VERTEX
  8
54
 62
7
  6
CONTINUOUS
 10
-927.11881173586
 20
1404.93934074097
  0
VERTEX
  8
54
 62
7
  6
CONTINUOUS
 10
-906.545633555448
 20
1401.09953492336
  0
VERTEX
  8
54
 62
7
  6
CONTINUOUS
 10
-888.63909631417
 20
1398.93670020321
  0
VERTEX
  8
54
 62
7
  6
CONTINUOUS
 10
-876.294147218879
 20
1401.49945660105
  0
VERTEX
  8
54
 62
7
  6
CONTINUOUS
 10
-876.673091120882
 20
1411.10073797174
  0
VERTEX
  8
54
 62
7
  6
CONTINUOUS
 10
-882.157967965997
 20
1418.21391271681
  0
SEQEND
  0
POLYLINE
  8
1
 62
7
 66
1
 70
1
  0
VERTEX
  8
1
 62
7
  6
CONTINUOUS
 10
-1337.4
 20
302.656755745989
  0
VERTEX
  8
1
 62
7
  6
CONTINUOUS
 10
-1337.4
 20
1
  0
VERTEX
  8
1
 62
7
  6
CONTINUOUS
 10
-1331.42002026054
 20
1
  0
SEQEND
  0
POLYLINE
  8
1
 62
7
 66
1
 70
1
  0
VERTEX
  8
1
 62
7
  6
CONTINUOUS
 10
-1352.6
 20
3217.4
  0
VERTEX
  8
1
 62
7
  6
CONTINUOUS
 10
-1352.6
 20
2911.66431461938
  0
VERTEX
  8
1
 62
7
  6
CONTINUOUS
 10
-1348.21444713593
 20
3217.4
  0
SEQEND
  0
POLYLINE
  8
1
 62
7
 66
1
 70
1
  0
VERTEX
  8
1
 62
7
  6
CONTINUOUS
 10
-3433.29220074338
 20
525.123084262013
  0
VERTEX
  8
1
 62
7
  6
CONTINUOUS
 10
-3422.2
 20
497.392582403568
  0
VERTEX
  8
1
 62
7
  6
CONTINUOUS
 10
-3422.2
 20
483.104115532051
  0
VERTEX
  8
1
 62
7
  6
CONTINUOUS
 10
-3431.49348938308
 20
435.087753719483
  0
VERTEX
  8
1
 62
7
  6
CONTINUOUS
 10
-3382.63766321183
 20
393.634325452973
  0
VERTEX
  8
1
 62
7
  6
CONTINUOUS
 10
-3365.54608900662
 20
384.681596107385
  0
VERTEX
  8
1
 62
7
  6
CONTINUOUS
 10
-3328.75251134032
 20
352.487215649374
  0
VERTEX
  8
1
 62
7
  6
CONTINUOUS
 10
-3312.01682169157
 20
349.024659170322
  0
VERTEX
  8
1
 62
7
  6
CONTINUOUS
 10
-3289.15923745715
 20
354.542007088977
  0
VERTEX
  8
1
 62
7
  6
CONTINUOUS
 10
-3244.69038246704
 20
378.364607976533
  0
VERTEX
  8
1
 62
7
  6
CONTINUOUS
 10
-3223.25310333875
 20
410.12354001844
  0
VERTEX
  8
1
 62
7
  6
CONTINUOUS
 10
-3215.20614058228
 20
424.608072980092
  0
VERTEX
  8
1
 62
7
  6
CONTINUOUS
 10
-3204.65662420669
 20
435.157589355684
  0
VERTEX
  8
1
 62
7
  6
CONTINUOUS
 10
-3162.4312092921
 20
456.668649783871
  0
VERTEX
  8
1
 62
7
  6
CONTINUOUS
 10
-3156.13891239511
 20
475.54554047483
  0
VERTEX
  8
1
 62
7
  6
CONTINUOUS
 10
-3136.4205315215
 20
524.412832205079
  0
VERTEX
  8
1
 62
7
  6
CONTINUOUS
 10
-3113.63971877844
 20
542.854442520893
  0
VERTEX
  8
1
 62
7
  6
CONTINUOUS
 10
-3091.40011844869
 20
552.738709334116
  0
VERTEX
  8
1
 62
7
  6
CONTINUOUS
 10
-3030.33655564126
 20
543.278157349867
  0
VERTEX
  8
1
 62
7
  6
CONTINUOUS
 10
-2961.21937885123
 20
528.811771510093
  0
VERTEX
  8
1
 62
7
  6
CONTINUOUS
 10
-2943.83154380631
 20
561.655459928267
  0
VERTEX
  8
1
 62
7
  6
CONTINUOUS
 10
-2932.8024190085
 20
578.199147124979
  0
VERTEX
  8
1
 62
7
  6
CONTINUOUS
 10
-2926.12736235592
 20
586.209215108084
  0
VERTEX
  8
1
 62
7
  6
CONTINUOUS
 10
-2910.55224850066
 20
589.204429311017
  0
VERTEX
  8
1
 62
7
  6
CONTINUOUS
 10
-2871.73614031149
 20
606.456032950651
  0
VERTEX
  8
1
 62
7
  6
CONTINUOUS
 10
-2846.20169927517
 20
628.000717575041
  0
VERTEX
  8
1
 62
7
  6
CONTINUOUS
 10
-2830.30277563773
 20
638.6
  0
VERTEX
  8
1
 62
7
  6
CONTINUOUS
 10
-2815.83772233983
 20
638.6
  0
VERTEX
  8
1
 62
7
  6
CONTINUOUS
 10
-2803.83772233983
 20
634.6
  0
VERTEX
  8
1
 62
7
  6
CONTINUOUS
 10
-2763.51760364462
 20
634.6
  0
VERTEX
  8
1
 62
7
  6
CONTINUOUS
 10
-2748.03534698188
 20
637.378866580491
  0
VERTEX
  8
1
 62
7
  6
CONTINUOUS
 10
-2719.03708941166
 20
666.377124150718
  0
VERTEX
  8
1
 62
7
  6
CONTINUOUS
 10
-2711.6432736153
 20
671.306334681624
  0
VERTEX
  8
1
 62
7
  6
CONTINUOUS
 10
-2701.76227766017
 20
674.6
  0
VERTEX
  8
1
 62
7
  6
CONTINUOUS
 10
-2688.03744886538
 20
674.6
  0
VERTEX
  8
1
 62
7
  6
CONTINUOUS
 10
-2657.18489024126
 20
668.628537040491
  0
VERTEX
  8
1
 62
7
  6
CONTINUOUS
 10
-2648.48953727412
 20
661.672254666781
  0
VERTEX
  8
1
 62
7
  6
CONTINUOUS
 10
-2642.28858588351
 20
650.820589733223
  0
VERTEX
  8
1
 62
7
  6
CONTINUOUS
 10
-2635.16585690767
 20
631.035231466981
  0
VERTEX
  8
1
 62
7
  6
CONTINUOUS
 10
-2625.47074892845
 20
624.191625834594
  0
VERTEX
  8
1
 62
7
  6
CONTINUOUS
 10
-2599.77771039271
 20
620.979996017626
  0
VERTEX
  8
1
 62
7
  6
CONTINUOUS
 10
-2589.94112097751
 20
617.701132879225
  0
VERTEX
  8
1
 62
7
  6
CONTINUOUS
 10
-2583.71706560886
 20
613.255379044477
  0
VERTEX
  8
1
 62
7
  6
CONTINUOUS
 10
-2570.4095780925
 20
598.617142776482
  0
VERTEX
  8
1
 62
7
  6
CONTINUOUS
 10
-2561.63345334545
 20
585.452955655903
  0
VERTEX
  8
1
 62
7
  6
CONTINUOUS
 10
-2550.20218759362
 20
553.608715347253
  0
VERTEX
  8
1
 62
7
  6
CONTINUOUS
 10
-2508.51280287149
 20
568.2
  0
VERTEX
  8
1
 62
7
  6
CONTINUOUS
 10
-2489.24577449946
 20
568.2
  0
VERTEX
  8
1
 62
7
  6
CONTINUOUS
 10
-2441.7697960682
 20
559.821886159191
  0
VERTEX
  8
1
 62
7
  6
CONTINUOUS
 10
-2417.69016994375
 20
564.2
  0
VERTEX
  8
1
 62
7
  6
CONTINUOUS
 10
-2387.61421356237
 20
564.2
  0
VERTEX
  8
1
 62
7
  6
CONTINUOUS
 10
-2371.05685424949
 20
580.757359312881
  0
VERTEX
  8
1
 62
7
  6
CONTINUOUS
 10
-2356.79017787187
 20
591.4573665961
  0
VERTEX
  8
1
 62
7
  6
CONTINUOUS
 10
-2345.44764235376
 20
595.238211768802
  0
VERTEX
  8
1
 62
7
  6
CONTINUOUS
 10
-2311.63422977462
 20
597.71236390874
  0
VERTEX
  8
1
 62
7
  6
CONTINUOUS
 10
-2285.210577645
 20
615.328131995154
  0
VERTEX
  8
1
 62
7
  6
CONTINUOUS
 10
-2275.32310562562
 20
617.8
  0
VERTEX
  8
1
 62
7
  6
CONTINUOUS
 10
-2249.69300046816
 20
617.8
  0
VERTEX
  8
1
 62
7
  6
CONTINUOUS
 10
-2239.60995804126
 20
644.688113138414
  0
VERTEX
  8
1
 62
7
  6
CONTINUOUS
 10
-2204.19274441165
 20
683.141087936276
  0
VERTEX
  8
1
 62
7
  6
CONTINUOUS
 10
-2194.9510228717
 20
690.842522552898
  0
VERTEX
  8
1
 62
7
  6
CONTINUOUS
 10
-2179.05640283234
 20
698.78983257258
  0
VERTEX
  8
1
 62
7
  6
CONTINUOUS
 10
-2151.20047014521
 20
695.307840986689
  0
VERTEX
  8
1
 62
7
  6
CONTINUOUS
 10
-2150.79105161083
 20
695.018171199165
  0
VERTEX
  8
1
 62
7
  6
CONTINUOUS
 10
-2149.4
 20
692.236067977499
  0
VERTEX
  8
1
 62
7
  6
CONTINUOUS
 10
-2149.4
 20
675.955313294106
  0
VERTEX
  8
1
 62
7
  6
CONTINUOUS
 10
-2154.1561020986
 20
622.845506526369
  0
VERTEX
  8
1
 62
7
  6
CONTINUOUS
 10
-2146.87633017317
 20
617.021688986021
  0
VERTEX
  8
1
 62
7
  6
CONTINUOUS
 10
-2112.4254296049
 20
619.130927796323
  0
VERTEX
  8
1
 62
7
  6
CONTINUOUS
 10
-2100.54535420515
 20
628.040984346137
  0
VERTEX
  8
1
 62
7
  6
CONTINUOUS
 10
-2087.86928447086
 20
635.083245309635
  0
VERTEX
  8
1
 62
7
  6
CONTINUOUS
 10
-2076.19085919244
 20
638.586772893159
  0
VERTEX
  8
1
 62
7
  6
CONTINUOUS
 10
-2066.46546124748
 20
639.470899979065
  0
VERTEX
  8
1
 62
7
  6
CONTINUOUS
 10
-2042.33491002573
 20
631.749123588107
  0
VERTEX
  8
1
 62
7
  6
CONTINUOUS
 10
-2031.22287584928
 20
620.637089411656
  0
VERTEX
  8
1
 62
7
  6
CONTINUOUS
 10
-2004.89961968468
 20
581.152205164747
  0
VERTEX
  8
1
 62
7
  6
CONTINUOUS
 10
-1965.02165943861
 20
537.648975805403
  0
VERTEX
  8
1
 62
7
  6
CONTINUOUS
 10
-1954.96139100941
 20
533.779641794172
  0
VERTEX
  8
1
 62
7
  6
CONTINUOUS
 10
-1940.96318173648
 20
532.224285208291
  0
VERTEX
  8
1
 62
7
  6
CONTINUOUS
 10
-1932.57888386875
 20
536.035329693621
  0
VERTEX
  8
1
 62
7
  6
CONTINUOUS
 10
-1913.63321995558
 20
554.980993606796
  0
VERTEX
  8
1
 62
7
  6
CONTINUOUS
 10
-1899.63978211872
 20
585.300108919981
  0
VERTEX
  8
1
 62
7
  6
CONTINUOUS
 10
-1886.19892682167
 20
652.50438540522
  0
VERTEX
  8
1
 62
7
  6
CONTINUOUS
 10
-1879.17712415072
 20
663.037089411656
  0
VERTEX
  8
1
 62
7
  6
CONTINUOUS
 10
-1873.09301207457
 20
669.121201487805
  0
VERTEX
  8
1
 62
7
  6
CONTINUOUS
 10
-1856.21688759561
 20
672.496426383596
  0
VERTEX
  8
1
 62
7
  6
CONTINUOUS
 10
-1855.73687744034
 20
672.351091002716
  0
VERTEX
  8
1
 62
7
  6
CONTINUOUS
 10
-1851.55671689531
 20
668.170930457686
  0
VERTEX
  8
1
 62
7
  6
CONTINUOUS
 10
-1846.54531097343
 20
656.477649973295
  0
VERTEX
  8
1
 62
7
  6
CONTINUOUS
 10
-1834.45573007633
 20
616.98501904277
  0
VERTEX
  8
1
 62
7
  6
CONTINUOUS
 10
-1796.31602933428
 20
616.206657803136
  0
VERTEX
  8
1
 62
7
  6
CONTINUOUS
 10
-1789.08227382165
 20
621.467570903227
  0
VERTEX
  8
1
 62
7
  6
CONTINUOUS
 10
-1761.78903536855
 20
698.384879271055
  0
VERTEX
  8
1
 62
7
  6
CONTINUOUS
 10
-1747.87166102694
 20
709.692745923615
  0
VERTEX
  8
1
 62
7
  6
CONTINUOUS
 10
-1729.80411642315
 20
745.827835131198
  0
VERTEX
  8
1
 62
7
  6
CONTINUOUS
 10
-1719.7674460841
 20
754.430695421813
  0
VERTEX
  8
1
 62
7
  6
CONTINUOUS
 10
-1695.89015649263
 20
767.165249870598
  0
VERTEX
  8
1
 62
7
  6
CONTINUOUS
 10
-1678.72724760593
 20
768.485473631113
  0
VERTEX
  8
1
 62
7
  6
CONTINUOUS
 10
-1667.70866723721
 20
766.911390721297
  0
VERTEX
  8
1
 62
7
  6
CONTINUOUS
 10
-1646.40715586049
 20
754.130483895262
  0
VERTEX
  8
1
 62
7
  6
CONTINUOUS
 10
-1624.59008700421
 20
736.469047202083
  0
VERTEX
  8
1
 62
7
  6
CONTINUOUS
 10
-1613.2147079918
 20
723.671745813129
  0
VERTEX
  8
1
 62
7
  6
CONTINUOUS
 10
-1599.09297715861
 20
696.369732868959
  0
VERTEX
  8
1
 62
7
  6
CONTINUOUS
 10
-1559.34169044372
 20
666.556267832793
  0
VERTEX
  8
1
 62
7
  6
CONTINUOUS
 10
-1534.24885570644
 20
665.79587890136
  0
VERTEX
  8
1
 62
7
  6
CONTINUOUS
 10
-1519.69484471894
 20
661.753098071499
  0
VERTEX
  8
1
 62
7
  6
CONTINUOUS
 10
-1478.98351195193
 20
646.948977065312
  0
VERTEX
  8
1
 62
7
  6
CONTINUOUS
 10
-1464.65825852248
 20
651.246553094147
  0
VERTEX
  8
1
 62
7
  6
CONTINUOUS
 10
-1448.15210197366
 20
678.756814008854
  0
VERTEX
  8
1
 62
7
  6
CONTINUOUS
 10
-1444.20719660912
 20
700.848284050272
  0
VERTEX
  8
1
 62
7
  6
CONTINUOUS
 10
-1446.01408422039
 20
723.133231255933
  0
VERTEX
  8
1
 62
7
  6
CONTINUOUS
 10
-1463.37425209321
 20
792.573902747229
  0
VERTEX
  8
1
 62
7
  6
CONTINUOUS
 10
-1472.2
 20
833.760726312241
  0
VERTEX
  8
1
 62
7
  6
CONTINUOUS
 10
-1472.2
 20
853.641594578792
  0
VERTEX
  8
1
 62
7
  6
CONTINUOUS
 10
-1470.49748583378
 20
874.071764573465
  0
VERTEX
  8
1
 62
7
  6
CONTINUOUS
 10
-1469.92339981086
 20
874.6
  0
VERTEX
  8
1
 62
7
  6
CONTINUOUS
 10
-1461.81803398875
 20
874.6
  0
VERTEX
  8
1
 62
7
  6
CONTINUOUS
 10
-1455.22185441513
 20
887.792359147246
  0
VERTEX
  8
1
 62
7
  6
CONTINUOUS
 10
-1450.19235914725
 20
892.821854415127
  0
VERTEX
  8
1
 62
7
  6
CONTINUOUS
 10
-1443.4360679775
 20
896.2
  0
VERTEX
  8
1
 62
7
  6
CONTINUOUS
 10
-1435.92234610372
 20
896.2
  0
VERTEX
  8
1
 62
7
  6
CONTINUOUS
 10
-1420.56234610372
 20
893.8
  0
VERTEX
  8
1
 62
7
  6
CONTINUOUS
 10
-1385.56777543299
 20
893.8
  0
VERTEX
  8
1
 62
7
  6
CONTINUOUS
 10
-1352.26891525337
 20
891.651686440024
  0
VERTEX
  8
1
 62
7
  6
CONTINUOUS
 10
-1343.23898770659
 20
884.879240779944
  0
VERTEX
  8
1
 62
7
  6
CONTINUOUS
 10
-1341.55114875367
 20
879.815723921184
  0
VERTEX
  8
1
 62
7
  6
CONTINUOUS
 10
-1340.59784579004
 20
871.235997248528
  0
VERTEX
  8
1
 62
7
  6
CONTINUOUS
 10
-1340.62602719522
 20
881.212214680927
  0
VERTEX
  8
1
 62
7
  6
CONTINUOUS
 10
-1340.03989994144
 20
881.8
  0
VERTEX
  8
1
 62
7
  6
CONTINUOUS
 10
-1337.18578643763
 20
881.8
  0
VERTEX
  8
1
 62
7
  6
CONTINUOUS
 10
-1327.54890118311
 20
872.163114745481
  0
VERTEX
  8
1
 62
7
  6
CONTINUOUS
 10
-1315.54635508645
 20
871.07197419124
  0
VERTEX
  8
1
 62
7
  6
CONTINUOUS
 10
-1271.36227766017
 20
885.8
  0
VERTEX
  8
1
 62
7
  6
CONTINUOUS
 10
-1259.90098048641
 20
885.8
  0
VERTEX
  8
1
 62
7
  6
CONTINUOUS
 10
-1236.78608060121
 20
881.177020022962
  0
VERTEX
  8
1
 62
7
  6
CONTINUOUS
 10
-1220.32601067951
 20
873.86143339109
  0
VERTEX
  8
1
 62
7
  6
CONTINUOUS
 10
-1208.93205642557
 20
864.74626998794
  0
VERTEX
  8
1
 62
7
  6
CONTINUOUS
 10
-1200.06978883357
 20
855.884002395946
  0
VERTEX
  8
1
 62
7
  6
CONTINUOUS
 10
-1154.56052317877
 20
873.500492326837
  0
VERTEX
  8
1
 62
7
  6
CONTINUOUS
 10
-1153.16323562324
 20
897.254380770779
  0
VERTEX
  8
1
 62
7
  6
CONTINUOUS
 10
-1176.07317937772
 20
933.910290777943
  0
VERTEX
  8
1
 62
7
  6
CONTINUOUS
 10
-1188.17418816581
 20
958.112308354111
  0
VERTEX
  8
1
 62
7
  6
CONTINUOUS
 10
-1189.8
 20
972.744614861862
  0
VERTEX
  8
1
 62
7
  6
CONTINUOUS
 10
-1189.8
 20
982.871924368621
  0
VERTEX
  8
1
 62
7
  6
CONTINUOUS
 10
-1181.12319221174
 20
1003.11780920789
  0
VERTEX
  8
1
 62
7
  6
CONTINUOUS
 10
-1118.24607170034
 20
1032.70704238973
  0
VERTEX
  8
1
 62
7
  6
CONTINUOUS
 10
-1108.58864580907
 20
1038.41370314366
  0
VERTEX
  8
1
 62
7
  6
CONTINUOUS
 10
-1092.39606855973
 20
1052.58220823682
  0
VERTEX
  8
1
 62
7
  6
CONTINUOUS
 10
-1103.34593361748
 20
1095.53937115568
  0
VERTEX
  8
1
 62
7
  6
CONTINUOUS
 10
-1100.76095557711
 20
1105.87928331717
  0
VERTEX
  8
1
 62
7
  6
CONTINUOUS
 10
-1092.527864045
 20
1112.05410196625
  0
VERTEX
  8
1
 62
7
  6
CONTINUOUS
 10
-1081.14903032938
 20
1117.74351882406
  0
VERTEX
  8
1
 62
7
  6
CONTINUOUS
 10
-1069.09779249408
 20
1120.75632828288
  0
VERTEX
  8
1
 62
7
  6
CONTINUOUS
 10
-1032.51461054037
 20
1134.47502151553
  0
VERTEX
  8
1
 62
7
  6
CONTINUOUS
 10
-1021.67743871214
 20
1143.68661756952
  0
VERTEX
  8
1
 62
7
  6
CONTINUOUS
 10
-987.977124150718
 20
1194.23708941166
  0
VERTEX
  8
1
 62
7
  6
CONTINUOUS
 10
-977.475031698332
 20
1204.73918186404
  0
VERTEX
  8
1
 62
7
  6
CONTINUOUS
 10
-968.292771123304
 20
1212.39106567657
  0
VERTEX
  8
1
 62
7
  6
CONTINUOUS
 10
-955.671924368621
 20
1217.8
  0
VERTEX
  8
1
 62
7
  6
CONTINUOUS
 10
-943.918904206346
 20
1217.8
  0
VERTEX
  8
1
 62
7
  6
CONTINUOUS
 10
-904.574815590383
 20
1211.37647532801
  0
VERTEX
  8
1
 62
7
  6
CONTINUOUS
 10
-894.915036979281
 20
1208.47854174468
  0
VERTEX
  8
1
 62
7
  6
CONTINUOUS
 10
-862.702134966708
 20
1187.00327373629
  0
VERTEX
  8
1
 62
7
  6
CONTINUOUS
 10
-819.533033676075
 20
1200.49361788962
  0
VERTEX
  8
1
 62
7
  6
CONTINUOUS
 10
-770.356094638282
 20
1205.72520714896
  0
VERTEX
  8
1
 62
7
  6
CONTINUOUS
 10
-749.557359312881
 20
1233.45685424949
  0
VERTEX
  8
1
 62
7
  6
CONTINUOUS
 10
-741.431134579226
 20
1241.58307898315
  0
VERTEX
  8
1
 62
7
  6
CONTINUOUS
 10
-724.130839857976
 20
1252.70469701824
  0
VERTEX
  8
1
 62
7
  6
CONTINUOUS
 10
-693.567394621397
 20
1264.93007511287
  0
VERTEX
  8
1
 62
7
  6
CONTINUOUS
 10
-689.800731118647
 20
1277.64256443465
  0
VERTEX
  8
1
 62
7
  6
CONTINUOUS
 10
-685.790171221505
 20
1317.74816340607
  0
VERTEX
  8
1
 62
7
  6
CONTINUOUS
 10
-676.620994085079
 20
1363.5940490882
  0
VERTEX
  8
1
 62
7
  6
CONTINUOUS
 10
-675.75366313165
 20
1397.4199562719
  0
VERTEX
  8
1
 62
7
  6
CONTINUOUS
 10
-682.374849298112
 20
1412.86939066031
  0
VERTEX
  8
1
 62
7
  6
CONTINUOUS
 10
-697.831388009515
 20
1420.59766001601
  0
VERTEX
  8
1
 62
7
  6
CONTINUOUS
 10
-814.830056073302
 20
1419.43925736191
  0
VERTEX
  8
1
 62
7
  6
CONTINUOUS
 10
-880.2889840904
 20
1431.25823047611
  0
VERTEX
  8
1
 62
7
  6
CONTINUOUS
 10
-920.489092001431
 20
1422.64392163803
  0
VERTEX
  8
1
 62
7
  6
CONTINUOUS
 10
-932.259345078319
 20
1423.82094694572
  0
VERTEX
  8
1
 62
7
  6
CONTINUOUS
 10
-942.016992812817
 20
1428.15767927216
  0
VERTEX
  8
1
 62
7
  6
CONTINUOUS
 10
-963.814846197509
 20
1444.01066355194
  0
VERTEX
  8
1
 62
7
  6
CONTINUOUS
 10
-1003.02386260015
 20
1476.68484388747
  0
VERTEX
  8
1
 62
7
  6
CONTINUOUS
 10
-1016.36407416886
 20
1499.55377800528
  0
VERTEX
  8
1
 62
7
  6
CONTINUOUS
 10
-1033.98361380099
 20
1541.84067312237
  0
VERTEX
  8
1
 62
7
  6
CONTINUOUS
 10
-1053.40847725307
 20
1543.8063579398
  0
VERTEX
  8
1
 62
7
  6
CONTINUOUS
 10
-1057.51852434082
 20
1546.88889325561
  0
VERTEX
  8
1
 62
7
  6
CONTINUOUS
 10
-1055.52696658198
 20
1541.90999885853
  0
VERTEX
  8
1
 62
7
  6
CONTINUOUS
 10
-1080.01056242787
 20
1544.41938796308
  0
VERTEX
  8
1
 62
7
  6
CONTINUOUS
 10
-1078.12612042756
 20
1555.72603996495
  0
VERTEX
  8
1
 62
7
  6
CONTINUOUS
 10
-1077.5666293647
 20
1556.2
  0
VERTEX
  8
1
 62
7
  6
CONTINUOUS
 10
-1073.38339080528
 20
1556.2
  0
VERTEX
  8
1
 62
7
  6
CONTINUOUS
 10
-1064.62555260726
 20
1552.21916445545
  0
VERTEX
  8
1
 62
7
  6
CONTINUOUS
 10
-1073.28571428571
 20
1558.71428571429
  0
VERTEX
  8
1
 62
7
  6
CONTINUOUS
 10
-1077.8
 20
1564.73333333333
  0
VERTEX
  8
1
 62
7
  6
CONTINUOUS
 10
-1077.8
 20
1567.56204993518
  0
VERTEX
  8
1
 62
7
  6
CONTINUOUS
 10
-1070.08143228297
 20
1576.82433119562
  0
VERTEX
  8
1
 62
7
  6
CONTINUOUS
 10
-1061.58363344393
 20
1630.23906675527
  0
VERTEX
  8
1
 62
7
  6
CONTINUOUS
 10
-1030.03419423311
 20
1658.92037512874
  0
VERTEX
  8
1
 62
7
  6
CONTINUOUS
 10
-1020.48208147351
 20
1692.35276978737
  0
VERTEX
  8
1
 62
7
  6
CONTINUOUS
 10
-1004.84594886668
 20
1718.93419521897
  0
VERTEX
  8
1
 62
7
  6
CONTINUOUS
 10
-981.356530869906
 20
1753.65768269247
  0
VERTEX
  8
1
 62
7
  6
CONTINUOUS
 10
-968.320495446644
 20
1766.69371811573
  0
VERTEX
  8
1
 62
7
  6
CONTINUOUS
 10
-890.132245419597
 20
1799.88684312721
  0
VERTEX
  8
1
 62
7
  6
CONTINUOUS
 10
-859.712252263015
 20
1818.13883902116
  0
VERTEX
  8
1
 62
7
  6
CONTINUOUS
 10
-847.446783748302
 20
1820.96933175532
  0
VERTEX
  8
1
 62
7
  6
CONTINUOUS
 10
-789.987041277617
 20
1836.98270260781
  0
VERTEX
  8
1
 62
7
  6
CONTINUOUS
 10
-659.069703823976
 20
1843.21686153417
  0
VERTEX
  8
1
 62
7
  6
CONTINUOUS
 10
-652.564392163213
 20
1845.65635340696
  0
VERTEX
  8
1
 62
7
  6
CONTINUOUS
 10
-634.477574353482
 20
1864.52955459972
  0
VERTEX
  8
1
 62
7
  6
CONTINUOUS
 10
-629.010401434603
 20
1880.93107335636
  0
VERTEX
  8
1
 62
7
  6
CONTINUOUS
 10
-631.549157518016
 20
1920.70491866316
  0
VERTEX
  8
1
 62
7
  6
CONTINUOUS
 10
-648.136042315409
 20
1922.28462197719
  0
VERTEX
  8
1
 62
7
  6
CONTINUOUS
 10
-661.337161654369
 20
1927.94224455104
  0
VERTEX
  8
1
 62
7
  6
CONTINUOUS
 10
-673.32979358618
 20
1938.33585889194
  0
VERTEX
  8
1
 62
7
  6
CONTINUOUS
 10
-701.378342623998
 20
1949.73058193855
  0
VERTEX
  8
1
 62
7
  6
CONTINUOUS
 10
-737.229801302938
 20
1972.30372258825
  0
VERTEX
  8
1
 62
7
  6
CONTINUOUS
 10
-748.068126075723
 20
2001.8627901504
  0
VERTEX
  8
1
 62
7
  6
CONTINUOUS
 10
-761.374841778566
 20
2015.95225383576
  0
VERTEX
  8
1
 62
7
  6
CONTINUOUS
 10
-814.722236463958
 20
2037.12185490139
  0
VERTEX
  8
1
 62
7
  6
CONTINUOUS
 10
-826.154492644901
 20
2050.31291972556
  0
VERTEX
  8
1
 62
7
  6
CONTINUOUS
 10
-838.044941421206
 20
2053.4837060659
  0
VERTEX
  8
1
 62
7
  6
CONTINUOUS
 10
-844.756709779944
 20
2058.51753233496
  0
VERTEX
  8
1
 62
7
  6
CONTINUOUS
 10
-848.943753343812
 20
2065.49593827474
  0
VERTEX
  8
1
 62
7
  6
CONTINUOUS
 10
-849.764977199239
 20
2090.13265393755
  0
VERTEX
  8
1
 62
7
  6
CONTINUOUS
 10
-873.697701879848
 20
2161.93082797937
  0
VERTEX
  8
1
 62
7
  6
CONTINUOUS
 10
-876.811055814756
 20
2199.29107519828
  0
VERTEX
  8
1
 62
7
  6
CONTINUOUS
 10
-887.990963160727
 20
2220.9521456811
  0
VERTEX
  8
1
 62
7
  6
CONTINUOUS
 10
-905.790808167492
 20
2235.19202168651
  0
VERTEX
  8
1
 62
7
  6
CONTINUOUS
 10
-947.837089411655
 20
2263.22287584928
  0
VERTEX
  8
1
 62
7
  6
CONTINUOUS
 10
-966.662648937021
 20
2282.04843537465
  0
VERTEX
  8
1
 62
7
  6
CONTINUOUS
 10
-1015.22661411128
 20
2253.09684075153
  0
VERTEX
  8
1
 62
7
  6
CONTINUOUS
 10
-1056.71519546915
 20
2234.94558640746
  0
VERTEX
  8
1
 62
7
  6
CONTINUOUS
 10
-1073.42964760943
 20
2231.01277413916
  0
VERTEX
  8
1
 62
7
  6
CONTINUOUS
 10
-1082.73067928288
 20
2229.97932617544
  0
VERTEX
  8
1
 62
7
  6
CONTINUOUS
 10
-1104.38881268078
 20
2237.47637235164
  0
VERTEX
  8
1
 62
7
  6
CONTINUOUS
 10
-1116.68474164898
 20
2243.62433683574
  0
VERTEX
  8
1
 62
7
  6
CONTINUOUS
 10
-1120.90633468162
 20
2249.9567263847
  0
VERTEX
  8
1
 62
7
  6
CONTINUOUS
 10
-1124.96286718885
 20
2262.12632390638
  0
VERTEX
  8
1
 62
7
  6
CONTINUOUS
 10
-1135.35471586487
 20
2306.09183753568
  0
VERTEX
  8
1
 62
7
  6
CONTINUOUS
 10
-1144.76917997788
 20
2328.84345914213
  0
VERTEX
  8
1
 62
7
  6
CONTINUOUS
 10
-1168.18646242955
 20
2338.99094820452
  0
VERTEX
  8
1
 62
7
  6
CONTINUOUS
 10
-1183.75360788597
 20
2338.31411579337
  0
VERTEX
  8
1
 62
7
  6
CONTINUOUS
 10
-1250.54767357855
 20
2310.81067697878
  0
VERTEX
  8
1
 62
7
  6
CONTINUOUS
 10
-1259.77877867867
 20
2311.9645651163
  0
VERTEX
  8
1
 62
7
  6
CONTINUOUS
 10
-1279.71124954129
 20
2331.89703597892
  0
VERTEX
  8
1
 62
7
  6
CONTINUOUS
 10
-1316.93716175222
 20
2341.20351403165
  0
VERTEX
  8
1
 62
7
  6
CONTINUOUS
 10
-1332.39732568412
 20
2338.25872090177
  0
VERTEX
  8
1
 62
7
  6
CONTINUOUS
 10
-1350.08851221881
 20
2325.62215909128
  0
VERTEX
  8
1
 62
7
  6
CONTINUOUS
 10
-1350.82775225553
 20
2325.68925387923
  0
VERTEX
  8
1
 62
7
  6
CONTINUOUS
 10
-1351.34422225809
 20
2326.22239202166
  0
VERTEX
  8
1
 62
7
  6
CONTINUOUS
 10
-1352.7602845865
 20
2350.29545160457
  0
VERTEX
  8
1
 62
7
  6
CONTINUOUS
 10
-1355.08672477901
 20
2326.25556961526
  0
VERTEX
  8
1
 62
7
  6
CONTINUOUS
 10
-1363.11421533126
 20
2315.21777010592
  0
VERTEX
  8
1
 62
7
  6
CONTINUOUS
 10
-1363.54186574224
 20
2315
  0
VERTEX
  8
1
 62
7
  6
CONTINUOUS
 10
-1365.91422044993
 20
2315
  0
VERTEX
  8
1
 62
7
  6
CONTINUOUS
 10
-1366.42971542342
 20
2315.35944804482
  0
VERTEX
  8
1
 62
7
  6
CONTINUOUS
 10
-1371.98452012354
 20
2330.43677508799
  0
VERTEX
  8
1
 62
7
  6
CONTINUOUS
 10
-1381.20618195115
 20
2334.12543981903
  0
VERTEX
  8
1
 62
7
  6
CONTINUOUS
 10
-1381.51713465439
 20
2334.46991634571
  0
VERTEX
  8
1
 62
7
  6
CONTINUOUS
 10
-1385.32314653349
 20
2347.79095792259
  0
VERTEX
  8
1
 62
7
  6
CONTINUOUS
 10
-1389.8
 20
2379.12893218813
  0
VERTEX
  8
1
 62
7
  6
CONTINUOUS
 10
-1389.8
 20
2393.75261092285
  0
VERTEX
  8
1
 62
7
  6
CONTINUOUS
 10
-1384.10797012366
 20
2411.96710652713
  0
VERTEX
  8
1
 62
7
  6
CONTINUOUS
 10
-1375.93278739387
 20
2432.98900497516
  0
VERTEX
  8
1
 62
7
  6
CONTINUOUS
 10
-1367.92195049087
 20
2446.34039981351
  0
VERTEX
  8
1
 62
7
  6
CONTINUOUS
 10
-1367.4634471391
 20
2446.6
  0
VERTEX
  8
1
 62
7
  6
CONTINUOUS
 10
-1362.84847601372
 20
2446.6
  0
VERTEX
  8
1
 62
7
  6
CONTINUOUS
 10
-1362.30006919909
 20
2446.16008362457
  0
VERTEX
  8
1
 62
7
  6
CONTINUOUS
 10
-1354.11278771108
 20
2409.31731692852
  0
VERTEX
  8
1
 62
7
  6
CONTINUOUS
 10
-1352.96721471833
 20
2399.57994649009
  0
VERTEX
  8
1
 62
7
  6
CONTINUOUS
 10
-1353.23989432417
 20
2522.83112832962
  0
VERTEX
  8
1
 62
7
  6
CONTINUOUS
 10
-1353.57541081437
 20
2522.71511817207
  0
VERTEX
  8
1
 62
7
  6
CONTINUOUS
 10
-1368.89418772301
 20
2527.22064079226
  0
VERTEX
  8
1
 62
7
  6
CONTINUOUS
 10
-1421.91308829113
 20
2566.98481621835
  0
VERTEX
  8
1
 62
7
  6
CONTINUOUS
 10
-1477.85994505536
 20
2551
  0
VERTEX
  8
1
 62
7
  6
CONTINUOUS
 10
-1505.59009698966
 20
2551
  0
VERTEX
  8
1
 62
7
  6
CONTINUOUS
 10
-1548.90206335789
 20
2509.800812479
  0
VERTEX
  8
1
 62
7
  6
CONTINUOUS
 10
-1611.83188523182
 20
2460.16602339534
  0
VERTEX
  8
1
 62
7
  6
CONTINUOUS
 10
-1621.5726619461
 20
2455.2956350382
  0
VERTEX
  8
1
 62
7
  6
CONTINUOUS
 10
-1638.25640283234
 20
2453.21016742742
  0
VERTEX
  8
1
 62
7
  6
CONTINUOUS
 10
-1640.6715045325
 20
2454.4177182775
  0
VERTEX
  8
1
 62
7
  6
CONTINUOUS
 10
-1640.96117432002
 20
2454.82713681188
  0
VERTEX
  8
1
 62
7
  6
CONTINUOUS
 10
-1642.13316140906
 20
2464.20303352415
  0
VERTEX
  8
1
 62
7
  6
CONTINUOUS
 10
-1637.57712415072
 20
2471.03708941166
  0
VERTEX
  8
1
 62
7
  6
CONTINUOUS
 10
-1623.27507793992
 20
2485.33913562246
  0
VERTEX
  8
1
 62
7
  6
CONTINUOUS
 10
-1620.991331943
 20
2508.93784425723
  0
VERTEX
  8
1
 62
7
  6
CONTINUOUS
 10
-1616.77322979893
 20
2532.13740604966
  0
VERTEX
  8
1
 62
7
  6
CONTINUOUS
 10
-1586.97665469538
 20
2586.76446040616
  0
VERTEX
  8
1
 62
7
  6
CONTINUOUS
 10
-1567.31453632157
 20
2612.98061823791
  0
VERTEX
  8
1
 62
7
  6
CONTINUOUS
 10
-1563.38566787152
 20
2627.38646922144
  0
VERTEX
  8
1
 62
7
  6
CONTINUOUS
 10
-1560.63591322881
 20
2652.82169966644
  0
VERTEX
  8
1
 62
7
  6
CONTINUOUS
 10
-1580.35840071046
 20
2672.54418714809
  0
VERTEX
  8
1
 62
7
  6
CONTINUOUS
 10
-1600.67995389949
 20
2718.26768182341
  0
VERTEX
  8
1
 62
7
  6
CONTINUOUS
 10
-1629.67280305737
 20
2721.40204389453
  0
VERTEX
  8
1
 62
7
  6
CONTINUOUS
 10
-1696.74084863625
 20
2723.94893170132
  0
VERTEX
  8
1
 62
7
  6
CONTINUOUS
 10
-1708.91288293517
 20
2709.34249054262
  0
VERTEX
  8
1
 62
7
  6
CONTINUOUS
 10
-1737.4717876061
 20
2688.78007917955
  0
VERTEX
  8
1
 62
7
  6
CONTINUOUS
 10
-1754.14288939719
 20
2682.52841600789
  0
VERTEX
  8
1
 62
7
  6
CONTINUOUS
 10
-1754.82636968252
 20
2682.76696550592
  0
VERTEX
  8
1
 62
7
  6
CONTINUOUS
 10
-1762.1458866263
 20
2694.96616041222
  0
VERTEX
  8
1
 62
7
  6
CONTINUOUS
 10
-1773.06173473785
 20
2694.32405169978
  0
VERTEX
  8
1
 62
7
  6
CONTINUOUS
 10
-1800.96291058835
 20
2666.42287584928
  0
VERTEX
  8
1
 62
7
  6
CONTINUOUS
 10
-1812.53193451102
 20
2658.71019323416
  0
VERTEX
  8
1
 62
7
  6
CONTINUOUS
 10
-1829.96742262521
 20
2651.73599798849
  0
VERTEX
  8
1
 62
7
  6
CONTINUOUS
 10
-1844.39941524967
 20
2647.8
  0
VERTEX
  8
1
 62
7
  6
CONTINUOUS
 10
-1861.0360679775
 20
2647.8
  0
VERTEX
  8
1
 62
7
  6
CONTINUOUS
 10
-1867.38165235202
 20
2650.97279218726
  0
VERTEX
  8
1
 62
7
  6
CONTINUOUS
 10
-1868.68543833685
 20
2645.10575525552
  0
VERTEX
  8
1
 62
7
  6
CONTINUOUS
 10
-1869.08186722113
 20
2644.69875678831
  0
VERTEX
  8
1
 62
7
  6
CONTINUOUS
 10
-1873.96258384015
 20
2643.47857763356
  0
VERTEX
  8
1
 62
7
  6
CONTINUOUS
 10
-1898.33757256965
 20
2646.18690971461
  0
VERTEX
  8
1
 62
7
  6
CONTINUOUS
 10
-1916.0815140847
 20
2641.96216173484
  0
VERTEX
  8
1
 62
7
  6
CONTINUOUS
 10
-1971.37845717356
 20
2643.80539317113
  0
VERTEX
  8
1
 62
7
  6
CONTINUOUS
 10
-1985.2432736153
 20
2648.42699865171
  0
VERTEX
  8
1
 62
7
  6
CONTINUOUS
 10
-2012.56180056553
 20
2666.63934995186
  0
VERTEX
  8
1
 62
7
  6
CONTINUOUS
 10
-2028.08995154407
 20
2648.89289169068
  0
VERTEX
  8
1
 62
7
  6
CONTINUOUS
 10
-2041.80701423853
 20
2636.78960107791
  0
VERTEX
  8
1
 62
7
  6
CONTINUOUS
 10
-2049.9985351075
 20
2631.87468855653
  0
VERTEX
  8
1
 62
7
  6
CONTINUOUS
 10
-2077.18788245122
 20
2624.10630360118
  0
VERTEX
  8
1
 62
7
  6
CONTINUOUS
 10
-2089.81530356655
 20
2622.70325681059
  0
VERTEX
  8
1
 62
7
  6
CONTINUOUS
 10
-2103.99821611677
 20
2625.53983932064
  0
VERTEX
  8
1
 62
7
  6
CONTINUOUS
 10
-2118.26924171154
 20
2631.65599314697
  0
VERTEX
  8
1
 62
7
  6
CONTINUOUS
 10
-2166.46605148976
 20
2671.82000129548
  0
VERTEX
  8
1
 62
7
  6
CONTINUOUS
 10
-2180.67919456276
 20
2679.26498100038
  0
VERTEX
  8
1
 62
7
  6
CONTINUOUS
 10
-2192.95527119452
 20
2691.54105763214
  0
VERTEX
  8
1
 62
7
  6
CONTINUOUS
 10
-2293.7523125785
 20
2754.25921671551
  0
VERTEX
  8
1
 62
7
  6
CONTINUOUS
 10
-2345.74705033685
 20
2755.00199868349
  0
VERTEX
  8
1
 62
7
  6
CONTINUOUS
 10
-2357.55003672336
 20
2758.37428050821
  0
VERTEX
  8
1
 62
7
  6
CONTINUOUS
 10
-2382.00570194084
 20
2767.88481698167
  0
VERTEX
  8
1
 62
7
  6
CONTINUOUS
 10
-2398.96849327058
 20
2776.36621264654
  0
VERTEX
  8
1
 62
7
  6
CONTINUOUS
 10
-2411.61580651336
 20
2775.03491651572
  0
VERTEX
  8
1
 62
7
  6
CONTINUOUS
 10
-2423.18218892817
 20
2766.19003584558
  0
VERTEX
  8
1
 62
7
  6
CONTINUOUS
 10
-2427.04199631469
 20
2746.89099891297
  0
VERTEX
  8
1
 62
7
  6
CONTINUOUS
 10
-2433.08091903037
 20
2733.60536893846
  0
VERTEX
  8
1
 62
7
  6
CONTINUOUS
 10
-2451.52707432697
 20
2718.51306005943
  0
VERTEX
  8
1
 62
7
  6
CONTINUOUS
 10
-2461.54461486186
 20
2717.4
  0
VERTEX
  8
1
 62
7
  6
CONTINUOUS
 10
-2474.01421356237
 20
2717.4
  0
VERTEX
  8
1
 62
7
  6
CONTINUOUS
 10
-2474.6
 20
2717.98578643763
  0
VERTEX
  8
1
 62
7
  6
CONTINUOUS
 10
-2474.6
 20
2720.52012270689
  0
VERTEX
  8
1
 62
7
  6
CONTINUOUS
 10
-2481.87391950784
 20
2719.96059043706
  0
VERTEX
  8
1
 62
7
  6
CONTINUOUS
 10
-2508.60797431775
 20
2692.30467166818
  0
VERTEX
  8
1
 62
7
  6
CONTINUOUS
 10
-2522.7464962004
 20
2679.10871791105
  0
VERTEX
  8
1
 62
7
  6
CONTINUOUS
 10
-2534.85096967062
 20
2673.05648117594
  0
VERTEX
  8
1
 62
7
  6
CONTINUOUS
 10
-2543.04965173201
 20
2671.00681066059
  0
VERTEX
  8
1
 62
7
  6
CONTINUOUS
 10
-2579.10188169343
 20
2669.00390899607
  0
VERTEX
  8
1
 62
7
  6
CONTINUOUS
 10
-2610.90312405075
 20
2673.89640782027
  0
VERTEX
  8
1
 62
7
  6
CONTINUOUS
 10
-2647.24678289726
 20
2658.32055402891
  0
VERTEX
  8
1
 62
7
  6
CONTINUOUS
 10
-2657.72922229503
 20
2656.41465595659
  0
VERTEX
  8
1
 62
7
  6
CONTINUOUS
 10
-2676.40585897032
 20
2663.8853106267
  0
VERTEX
  8
1
 62
7
  6
CONTINUOUS
 10
-2710.62423540424
 20
2680.61429466106
  0
VERTEX
  8
1
 62
7
  6
CONTINUOUS
 10
-2732.8139307863
 20
2682.32119430584
  0
VERTEX
  8
1
 62
7
  6
CONTINUOUS
 10
-2775.34453288956
 20
2720.80126287546
  0
VERTEX
  8
1
 62
7
  6
CONTINUOUS
 10
-2797.40994592896
 20
2754.30800119454
  0
VERTEX
  8
1
 62
7
  6
CONTINUOUS
 10
-2809.30480093711
 20
2756.85689869629
  0
VERTEX
  8
1
 62
7
  6
CONTINUOUS
 10
-2809.74436354064
 20
2757.37078735413
  0
VERTEX
  8
1
 62
7
  6
CONTINUOUS
 10
-2811.12734693552
 20
2782.26448846206
  0
VERTEX
  8
1
 62
7
  6
CONTINUOUS
 10
-2809.67328380898
 20
2806.98356161319
  0
VERTEX
  8
1
 62
7
  6
CONTINUOUS
 10
-2804.57033655291
 20
2824.84387700947
  0
VERTEX
  8
1
 62
7
  6
CONTINUOUS
 10
-2803.20614058228
 20
2826.20807298009
  0
VERTEX
  8
1
 62
7
  6
CONTINUOUS
 10
-2799.4
 20
2833.0591260282
  0
VERTEX
  8
1
 62
7
  6
CONTINUOUS
 10
-2799.4
 20
2835.47698396495
  0
VERTEX
  8
1
 62
7
  6
CONTINUOUS
 10
-2796.99436378284
 20
2839.48637766022
  0
VERTEX
  8
1
 62
7
  6
CONTINUOUS
 10
-2796.23150525588
 20
2876.86644548111
  0
VERTEX
  8
1
 62
7
  6
CONTINUOUS
 10
-2842.73456669889
 20
2856.82202244533
  0
VERTEX
  8
1
 62
7
  6
CONTINUOUS
 10
-2866.95020554765
 20
2855.61124050289
  0
VERTEX
  8
1
 62
7
  6
CONTINUOUS
 10
-2874.3127207011
 20
2856.8383263618
  0
VERTEX
  8
1
 62
7
  6
CONTINUOUS
 10
-2889.28542189451
 20
2864.32467695851
  0
VERTEX
  8
1
 62
7
  6
CONTINUOUS
 10
-2912.22543271726
 20
2857.87279891461
  0
VERTEX
  8
1
 62
7
  6
CONTINUOUS
 10
-2951.03467954936
 20
2861.19930578593
  0
VERTEX
  8
1
 62
7
  6
CONTINUOUS
 10
-2959.79235914725
 20
2865.57814558487
  0
VERTEX
  8
1
 62
7
  6
CONTINUOUS
 10
-2976.87907906277
 20
2882.6648655004
  0
VERTEX
  8
1
 62
7
  6
CONTINUOUS
 10
-2984.28640398321
 20
2886.89762259779
  0
VERTEX
  8
1
 62
7
  6
CONTINUOUS
 10
-2994.49682589907
 20
2884.34501711883
  0
VERTEX
  8
1
 62
7
  6
CONTINUOUS
 10
-3017.06909006809
 20
2891.11669636954
  0
VERTEX
  8
1
 62
7
  6
CONTINUOUS
 10
-3024.20764085275
 20
2883.97814558487
  0
VERTEX
  8
1
 62
7
  6
CONTINUOUS
 10
-3042.8872792989
 20
2874.6383263618
  0
VERTEX
  8
1
 62
7
  6
CONTINUOUS
 10
-3051.11764245642
 20
2873.26659916888
  0
VERTEX
  8
1
 62
7
  6
CONTINUOUS
 10
-3051.53911332705
 20
2873.38088615989
  0
VERTEX
  8
1
 62
7
  6
CONTINUOUS
 10
-3066.01660873783
 20
2885.44546566888
  0
VERTEX
  8
1
 62
7
  6
CONTINUOUS
 10
-3084.26424980404
 20
2887.8
  0
VERTEX
  8
1
 62
7
  6
CONTINUOUS
 10
-3095.35036762718
 20
2887.8
  0
VERTEX
  8
1
 62
7
  6
CONTINUOUS
 10
-3109.1931464412
 20
2892.05931655816
  0
VERTEX
  8
1
 62
7
  6
CONTINUOUS
 10
-3128.97186327177
 20
2903.69385587025
  0
VERTEX
  8
1
 62
7
  6
CONTINUOUS
 10
-3152.93155922582
 20
2920.80792440887
  0
VERTEX
  8
1
 62
7
  6
CONTINUOUS
 10
-3175.68793563459
 20
2939.77157141617
  0
VERTEX
  8
1
 62
7
  6
CONTINUOUS
 10
-3206.14064328785
 20
2976.68394432922
  0
VERTEX
  8
1
 62
7
  6
CONTINUOUS
 10
-3243.82677173712
 20
2983.75009341345
  0
VERTEX
  8
1
 62
7
  6
CONTINUOUS
 10
-3255.84086910785
 20
2976.99216364241
  0
VERTEX
  8
1
 62
7
  6
CONTINUOUS
 10
-3258.19532532972
 20
2944.02977653637
  0
VERTEX
  8
1
 62
7
  6
CONTINUOUS
 10
-3247.16609178279
 20
2860.03792106364
  0
VERTEX
  8
1
 62
7
  6
CONTINUOUS
 10
-3251.98132807504
 20
2832.75158207421
  0
VERTEX
  8
1
 62
7
  6
CONTINUOUS
 10
-3256.96370264558
 20
2812.82208379204
  0
VERTEX
  8
1
 62
7
  6
CONTINUOUS
 10
-3262.56291058834
 20
2807.22287584928
  0
VERTEX
  8
1
 62
7
  6
CONTINUOUS
 10
-3271.5567263847
 20
2801.22699865171
  0
VERTEX
  8
1
 62
7
  6
CONTINUOUS
 10
-3285.43772233983
 20
2796.6
  0
VERTEX
  8
1
 62
7
  6
CONTINUOUS
 10
-3303.2622577483
 20
2796.6
  0
VERTEX
  8
1
 62
7
  6
CONTINUOUS
 10
-3355.42160862244
 20
2803.11991885927
  0
VERTEX
  8
1
 62
7
  6
CONTINUOUS
 10
-3383.49134249279
 20
2793.51711516678
  0
VERTEX
  8
1
 62
7
  6
CONTINUOUS
 10
-3401.4
 20
2777.94436950834
  0
VERTEX
  8
1
 62
7
  6
CONTINUOUS
 10
-3401.4
 20
2771.46927203655
  0
VERTEX
  8
1
 62
7
  6
CONTINUOUS
 10
-3387.1975386157
 20
2747.00947743025
  0
VERTEX
  8
1
 62
7
  6
CONTINUOUS
 10
-3352.69310465564
 20
2711.64243262119
  0
VERTEX
  8
1
 62
7
  6
CONTINUOUS
 10
-3341.59202168651
 20
2694.99080816749
  0
VERTEX
  8
1
 62
7
  6
CONTINUOUS
 10
-3303.74846369302
 20
2647.68636067563
  0
VERTEX
  8
1
 62
7
  6
CONTINUOUS
 10
-3292.43187671366
 20
2627.31650411279
  0
VERTEX
  8
1
 62
7
  6
CONTINUOUS
 10
-3284.6978598319
 20
2608.75486359655
  0
VERTEX
  8
1
 62
7
  6
CONTINUOUS
 10
-3286.38000398237
 20
2595.29771039271
  0
VERTEX
  8
1
 62
7
  6
CONTINUOUS
 10
-3288.7259679511
 20
2588.25981848653
  0
VERTEX
  8
1
 62
7
  6
CONTINUOUS
 10
-3300.27962275898
 20
2576.70616367864
  0
VERTEX
  8
1
 62
7
  6
CONTINUOUS
 10
-3286.29935051678
 20
2558.06580068904
  0
VERTEX
  8
1
 62
7
  6
CONTINUOUS
 10
-3255.88663423012
 20
2539.81817091704
  0
VERTEX
  8
1
 62
7
  6
CONTINUOUS
 10
-3240.96280322134
 20
2523.6506873242
  0
VERTEX
  8
1
 62
7
  6
CONTINUOUS
 10
-3236.6
 20
2510.56227766017
  0
VERTEX
  8
1
 62
7
  6
CONTINUOUS
 10
-3236.6
 20
2497.3639320225
  0
VERTEX
  8
1
 62
7
  6
CONTINUOUS
 10
-3248.28295469134
 20
2473.99802263983
  0
VERTEX
  8
1
 62
7
  6
CONTINUOUS
 10
-3250.06319301817
 20
2457.97587769831
  0
VERTEX
  8
1
 62
7
  6
CONTINUOUS
 10
-3247
 20
2445.72310562562
  0
VERTEX
  8
1
 62
7
  6
CONTINUOUS
 10
-3247
 20
2430.48533208489
  0
VERTEX
  8
1
 62
7
  6
CONTINUOUS
 10
-3251.07926203807
 20
2419.60729998339
  0
VERTEX
  8
1
 62
7
  6
CONTINUOUS
 10
-3257.80397208098
 20
2405.59748739398
  0
VERTEX
  8
1
 62
7
  6
CONTINUOUS
 10
-3263.42128187366
 20
2391.55421291229
  0
VERTEX
  8
1
 62
7
  6
CONTINUOUS
 10
-3268.80584439614
 20
2382.57994204149
  0
VERTEX
  8
1
 62
7
  6
CONTINUOUS
 10
-3284.12496830167
 20
2367.26081813596
  0
VERTEX
  8
1
 62
7
  6
CONTINUOUS
 10
-3314.31512125445
 20
2342.10235734198
  0
VERTEX
  8
1
 62
7
  6
CONTINUOUS
 10
-3331.80781062447
 20
2302.55366833149
  0
VERTEX
  8
1
 62
7
  6
CONTINUOUS
 10
-3354.62332761519
 20
2266.70071306037
  0
VERTEX
  8
1
 62
7
  6
CONTINUOUS
 10
-3368.99658555773
 20
2255.20210670633
  0
VERTEX
  8
1
 62
7
  6
CONTINUOUS
 10
-3386.64112097751
 20
2242.59886712078
  0
VERTEX
  8
1
 62
7
  6
CONTINUOUS
 10
-3402.23772233983
 20
2237.4
  0
VERTEX
  8
1
 62
7
  6
CONTINUOUS
 10
-3419.45488955631
 20
2237.4
  0
VERTEX
  8
1
 62
7
  6
CONTINUOUS
 10
-3427
 20
2219.79474229805
  0
VERTEX
  8
1
 62
7
  6
CONTINUOUS
 10
-3427
 20
2206.60067105405
  0
VERTEX
  8
1
 62
7
  6
CONTINUOUS
 10
-3405.87896642384
 20
2156.0938516328
  0
VERTEX
  8
1
 62
7
  6
CONTINUOUS
 10
-3393.97901615464
 20
2096.59410028677
  0
VERTEX
  8
1
 62
7
  6
CONTINUOUS
 10
-3377.83274171783
 20
2064.30155141316
  0
VERTEX
  8
1
 62
7
  6
CONTINUOUS
 10
-3367.77426007631
 20
2031.89088834604
  0
VERTEX
  8
1
 62
7
  6
CONTINUOUS
 10
-3362.39996274991
 20
1994.27080706125
  0
VERTEX
  8
1
 62
7
  6
CONTINUOUS
 10
-3342.56062675007
 20
1975.0927822614
  0
VERTEX
  8
1
 62
7
  6
CONTINUOUS
 10
-3327.79258240357
 20
1981
  0
VERTEX
  8
1
 62
7
  6
CONTINUOUS
 10
-3312.38578643763
 20
1981
  0
VERTEX
  8
1
 62
7
  6
CONTINUOUS
 10
-3307.20584439614
 20
1975.82005795851
  0
VERTEX
  8
1
 62
7
  6
CONTINUOUS
 10
-3297.72417784763
 20
1960.01728037766
  0
VERTEX
  8
1
 62
7
  6
CONTINUOUS
 10
-3229.56635485751
 20
1895.26734853705
  0
VERTEX
  8
1
 62
7
  6
CONTINUOUS
 10
-3208.52434624045
 20
1871.59508884286
  0
VERTEX
  8
1
 62
7
  6
CONTINUOUS
 10
-3152.92004952068
 20
1823.93426308305
  0
VERTEX
  8
1
 62
7
  6
CONTINUOUS
 10
-3135.26573691695
 20
1806.27995047932
  0
VERTEX
  8
1
 62
7
  6
CONTINUOUS
 10
-3119.06461652424
 20
1787.3786433545
  0
VERTEX
  8
1
 62
7
  6
CONTINUOUS
 10
-3102.44344985312
 20
1758.29160168004
  0
VERTEX
  8
1
 62
7
  6
CONTINUOUS
 10
-3097.25453398228
 20
1740.9952154439
  0
VERTEX
  8
1
 62
7
  6
CONTINUOUS
 10
-3095.50493317273
 20
1723.49920734843
  0
VERTEX
  8
1
 62
7
  6
CONTINUOUS
 10
-3097.01018888085
 20
1705.43613885097
  0
VERTEX
  8
1
 62
7
  6
CONTINUOUS
 10
-3100.64631785197
 20
1690.89162296652
  0
VERTEX
  8
1
 62
7
  6
CONTINUOUS
 10
-3108.96397604468
 20
1670.09747748474
  0
VERTEX
  8
1
 62
7
  6
CONTINUOUS
 10
-3117.47260485001
 20
1655.2073770754
  0
VERTEX
  8
1
 62
7
  6
CONTINUOUS
 10
-3148.74925952214
 20
1620.25111597126
  0
VERTEX
  8
1
 62
7
  6
CONTINUOUS
 10
-3164.41923379105
 20
1584.78748999424
  0
VERTEX
  8
1
 62
7
  6
CONTINUOUS
 10
-3182.62512197525
 20
1556.46721948549
  0
VERTEX
  8
1
 62
7
  6
CONTINUOUS
 10
-3202.98030538562
 20
1530.005481052
  0
VERTEX
  8
1
 62
7
  6
CONTINUOUS
 10
-3222.25206177843
 20
1510.7337246592
  0
VERTEX
  8
1
 62
7
  6
CONTINUOUS
 10
-3247.89150801527
 20
1488.59056654556
  0
VERTEX
  8
1
 62
7
  6
CONTINUOUS
 10
-3352.88993797676
 20
1412.08008269766
  0
VERTEX
  8
1
 62
7
  6
CONTINUOUS
 10
-3374.26978676815
 20
1383.57361764247
  0
VERTEX
  8
1
 62
7
  6
CONTINUOUS
 10
-3381.41091561146
 20
1351.0418084674
  0
VERTEX
  8
1
 62
7
  6
CONTINUOUS
 10
-3386.99559907557
 20
1295.9927857497
  0
VERTEX
  8
1
 62
7
  6
CONTINUOUS
 10
-3385.00661536767
 20
1273.11947310886
  0
VERTEX
  8
1
 62
7
  6
CONTINUOUS
 10
-3373.82891159818
 20
1200.46439860716
  0
VERTEX
  8
1
 62
7
  6
CONTINUOUS
 10
-3367.8
 20
1142.18491982474
  0
VERTEX
  8
1
 62
7
  6
CONTINUOUS
 10
-3367.8
 20
1035.83772233983
  0
VERTEX
  8
1
 62
7
  6
CONTINUOUS
 10
-3373.4606094868
 20
1018.85589387944
  0
VERTEX
  8
1
 62
7
  6
CONTINUOUS
 10
-3384.63337721397
 20
990.923974561517
  0
VERTEX
  8
1
 62
7
  6
CONTINUOUS
 10
-3381.33153216706
 20
985.145745729438
  0
VERTEX
  8
1
 62
7
  6
CONTINUOUS
 10
-3356.84887034281
 20
960.663083905183
  0
VERTEX
  8
1
 62
7
  6
CONTINUOUS
 10
-3348.15163175122
 20
949.480920001712
  0
VERTEX
  8
1
 62
7
  6
CONTINUOUS
 10
-3337.50669997325
 20
930.852289390264
  0
VERTEX
  8
1
 62
7
  6
CONTINUOUS
 10
-3330.91447523283
 20
916.019783724318
  0
VERTEX
  8
1
 62
7
  6
CONTINUOUS
 10
-3328.53222919085
 20
902.91743049344
  0
VERTEX
  8
1
 62
7
  6
CONTINUOUS
 10
-3330.21213348678
 20
888.638243978058
  0
VERTEX
  8
1
 62
7
  6
CONTINUOUS
 10
-3333.44184927264
 20
873.297093995214
  0
VERTEX
  8
1
 62
7
  6
CONTINUOUS
 10
-3336.30356002222
 20
866.619768912868
  0
VERTEX
  8
1
 62
7
  6
CONTINUOUS
 10
-3344.05373001206
 20
856.932056425567
  0
VERTEX
  8
1
 62
7
  6
CONTINUOUS
 10
-3374.37814558487
 20
826.607640852753
  0
VERTEX
  8
1
 62
7
  6
CONTINUOUS
 10
-3387.13004154904
 20
801.103848924412
  0
VERTEX
  8
1
 62
7
  6
CONTINUOUS
 10
-3401.66882102533
 20
778.568740736166
  0
VERTEX
  8
1
 62
7
  6
CONTINUOUS
 10
-3394.2
 20
756.162277660167
  0
VERTEX
  8
1
 62
7
  6
CONTINUOUS
 10
-3394.2
 20
735.736939731148
  0
VERTEX
  8
1
 62
7
  6
CONTINUOUS
 10
-3403.32434194351
 20
691.940098402295
  0
VERTEX
  8
1
 62
7
  6
CONTINUOUS
 10
-3375.20379739165
 20
669.443662760811
  0
VERTEX
  8
1
 62
7
  6
CONTINUOUS
 10
-3369.4383263618
 20
657.912720701101
  0
VERTEX
  8
1
 62
7
  6
CONTINUOUS
 10
-3367.8
 20
648.082762530298
  0
VERTEX
  8
1
 62
7
  6
CONTINUOUS
 10
-3367.8
 20
627.100980486407
  0
VERTEX
  8
1
 62
7
  6
CONTINUOUS
 10
-3370.1629904381
 20
615.286028295883
  0
VERTEX
  8
1
 62
7
  6
CONTINUOUS
 10
-3378.07578271922
 20
598.330044836355
  0
VERTEX
  8
1
 62
7
  6
CONTINUOUS
 10
-3391.27357493613
 20
576.333724474831
  0
VERTEX
  8
1
 62
7
  6
CONTINUOUS
 10
-3403.24887034281
 20
560.936916094817
  0
VERTEX
  8
1
 62
7
  6
CONTINUOUS
 10
-3414.45061845711
 20
549.735167980513
  0
VERTEX
  8
1
 62
7
  6
CONTINUOUS
 10
-3431.96824476323
 20
527.440007227276
  0
SEQEND
  0
ENDSEC
  0
EOF
