999
dxfrw 0.6.3
  0
SECTION
  2
HEADER
  9
$ACADVER
  1
AC1021
  9
$DWGCODEPAGE
  3
ANSI_1250
  9
$INSBASE
 10
0
 20
0
 30
0
  9
$EXTMIN
 10
-3552.8
 20
369.6
 30
0
  9
$EXTMAX
 10
-772
 20
2944.8
 30
0
  9
$LIMMIN
 10
0
 20
0
  9
$LIMMAX
 10
420
 20
297
  9
$ORTHOMODE
 70
    0
  9
$REGENMODE
 70
    1
  9
$FILLMODE
 70
    1
  9
$QTEXTMODE
 70
    0
  9
$MIRRTEXT
 70
    0
  9
$LTSCALE
 40
1
  9
$ATTMODE
 70
    0
  9
$TEXTSIZE
 40
2.5
  9
$TRACEWID
 40
15.68
  9
$TEXTSTYLE
  7
STANDARD
  9
$CLAYER
  8
0
  9
$CELTYPE
  6
BYLAYER
  9
$CECOLOR
 62
  256
  9
$CELTSCALE
 40
1
  9
$DISPSILH
 70
    0
  9
$DIMSCALE
 40
2.5
  9
$DIMASZ
 40
2.5
  9
$DIMEXO
 40
0.625
  9
$DIMDLI
 40
3.75
  9
$DIMRND
 40
0
  9
$DIMDLE
 40
0
  9
$DIMEXE
 40
1.25
  9
$DIMTP
 40
0
  9
$DIMTM
 40
0
  9
$DIMTXT
 40
2.5
  9
$DIMCEN
 40
2.5
  9
$DIMTSZ
 40
0
  9
$DIMTOL
 70
    0
  9
$DIMLIM
 70
    0
  9
$DIMTIH
 70
    0
  9
$DIMTOH
 70
    0
  9
$DIMSE1
 70
    0
  9
$DIMSE2
 70
    0
  9
$DIMTAD
 70
    1
  9
$DIMZIN
 70
    8
  9
$DIMBLK
  1

  9
$DIMASO
 70
    1
  9
$DIMSHO
 70
    1
  9
$DIMPOST
  1

  9
$DIMAPOST
  1

  9
$DIMALT
 70
    0
  9
$DIMALTD
 70
    3
  9
$DIMALTF
 40
0.03937
  9
$DIMLFAC
 40
1
  9
$DIMTOFL
 70
    1
  9
$DIMTVP
 40
0
  9
$DIMTIX
 70
    0
  9
$DIMSOXD
 70
    0
  9
$DIMSAH
 70
    0
  9
$DIMBLK1
  1

  9
$DIMBLK2
  1

  9
$DIMSTYLE
  2
Standard
  9
$DIMCLRD
 70
    0
  9
$DIMCLRE
 70
    0
  9
$DIMCLRT
 70
    0
  9
$DIMTFAC
 40
1
  9
$DIMGAP
 40
0.625
  9
$DIMJUST
 70
    0
  9
$DIMSD1
 70
    0
  9
$DIMSD2
 70
    0
  9
$DIMTOLJ
 70
    0
  9
$DIMTZIN
 70
    8
  9
$DIMALTZ
 70
    0
  9
$DIMALTTZ
 70
    0
  9
$DIMUPT
 70
    0
  9
$DIMDEC
 70
    2
  9
$DIMTDEC
 70
    2
  9
$DIMALTU
 70
    2
  9
$DIMALTTD
 70
    3
  9
$DIMTXSTY
  7
STANDARD
  9
$DIMAUNIT
 70
    0
  9
$DIMADEC
 70
    0
  9
$DIMALTRND
 40
0
  9
$DIMAZIN
 70
    0
  9
$DIMDSEP
 70
   44
  9
$DIMATFIT
 70
    3
  9
$DIMFRAC
 70
    0
  9
$DIMLDRBLK
  1
STANDARD
  9
$DIMLUNIT
 70
    2
  9
$DIMLWD
 70
   -2
  9
$DIMLWE
 70
   -2
  9
$DIMTMOVE
 70
    0
  9
$DIMFXL
 40
1
  9
$DIMFXLON
 70
    0
  9
$DIMJOGANG
 40
0.7854
  9
$DIMTFILL
 70
    0
  9
$DIMTFILLCLR
 70
    0
  9
$DIMARCSYM
 70
    0
  9
$DIMLTYPE
  6

  9
$DIMLTEX1
  6

  9
$DIMLTEX2
  6

  9
$LUNITS
 70
    2
  9
$LUPREC
 70
    4
  9
$SKETCHINC
 40
1
  9
$FILLETRAD
 40
0
  9
$AUNITS
 70
    0
  9
$AUPREC
 70
    2
  9
$MENU
  1
.
  9
$ELEVATION
 40
0
  9
$PELEVATION
 40
0
  9
$THICKNESS
 40
0
  9
$LIMCHECK
 70
    0
  9
$CHAMFERA
 40
0
  9
$CHAMFERB
 40
0
  9
$CHAMFERC
 40
0
  9
$CHAMFERD
 40
0
  9
$SKPOLY
 70
    0
  9
$USRTIMER
 70
    1
  9
$ANGBASE
 50
0
  9
$ANGDIR
 70
    0
  9
$PDMODE
 70
   34
  9
$PDSIZE
 40
0
  9
$PLINEWID
 40
0
  9
$SPLFRAME
 70
    0
  9
$SPLINETYPE
 70
    2
  9
$SPLINESEGS
 70
    8
  9
$HANDSEED
  5
20000
  9
$SURFTAB1
 70
    6
  9
$SURFTAB2
 70
    6
  9
$SURFTYPE
 70
    6
  9
$SURFU
 70
    6
  9
$SURFV
 70
    6
  9
$UCSBASE
  2

  9
$UCSNAME
  2

  9
$UCSORG
 10
0
 20
0
 30
0
  9
$UCSXDIR
 10
1
 20
0
 30
0
  9
$UCSYDIR
 10
0
 20
1
 30
0
  9
$UCSORTHOREF
  2

  9
$UCSORTHOVIEW
 70
    0
  9
$UCSORGTOP
 10
0
 20
0
 30
0
  9
$UCSORGBOTTOM
 10
0
 20
0
 30
0
  9
$UCSORGLEFT
 10
0
 20
0
 30
0
  9
$UCSORGRIGHT
 10
0
 20
0
 30
0
  9
$UCSORGFRONT
 10
0
 20
0
 30
0
  9
$UCSORGBACK
 10
0
 20
0
 30
0
  9
$PUCSBASE
  2

  9
$PUCSNAME
  2

  9
$PUCSORG
 10
0
 20
0
 30
0
  9
$PUCSXDIR
 10
1
 20
0
 30
0
  9
$PUCSYDIR
 10
0
 20
1
 30
0
  9
$PUCSORTHOREF
  2

  9
$PUCSORTHOVIEW
 70
    0
  9
$PUCSORGTOP
 10
0
 20
0
 30
0
  9
$PUCSORGBOTTOM
 10
0
 20
0
 30
0
  9
$PUCSORGLEFT
 10
0
 20
0
 30
0
  9
$PUCSORGRIGHT
 10
0
 20
0
 30
0
  9
$PUCSORGFRONT
 10
0
 20
0
 30
0
  9
$PUCSORGBACK
 10
0
 20
0
 30
0
  9
$USERI1
 70
    0
  9
$USERI2
 70
    0
  9
$USERI3
 70
    0
  9
$USERI4
 70
    0
  9
$USERI5
 70
    0
  9
$USERR1
 40
0
  9
$USERR2
 40
0
  9
$USERR3
 40
0
  9
$USERR4
 40
0
  9
$USERR5
 40
0
  9
$WORLDVIEW
 70
    1
  9
$SHADEDGE
 70
    3
  9
$SHADEDIF
 70
   70
  9
$TILEMODE
 70
    1
  9
$MAXACTVP
 70
   64
  9
$PINSBASE
 10
0
 20
0
 30
0
  9
$PLIMCHECK
 70
    0
  9
$PEXTMIN
 10
0
 20
0
 30
0
  9
$PEXTMAX
 10
0
 20
0
 30
0
  9
$SNAPSTYLE
 70
    0
  9
$PLIMMIN
 10
0
 20
0
  9
$PLIMMAX
 10
297
 20
210
  9
$UNITMODE
 70
    0
  9
$VISRETAIN
 70
    1
  9
$PLINEGEN
 70
    0
  9
$PSLTSCALE
 70
    1
  9
$TREEDEPTH
 70
 3020
  9
$CMLSTYLE
  2
Standard
  9
$CMLJUST
 70
    0
  9
$CMLSCALE
 40
20
  9
$PROXYGRAPHICS
 70
    1
  9
$MEASUREMENT
 70
    1
  9
$CELWEIGHT
370
   -1
  9
$ENDCAPS
280
    0
  9
$JOINSTYLE
280
    0
  9
$LWDISPLAY
290
    0
  9
$INSUNITS
 70
    4
  9
$HYPERLINKBASE
  1

  9
$STYLESHEET
  1

  9
$XEDIT
290
    1
  9
$CEPSNTYPE
380
    0
  9
$PSTYLEMODE
290
    1
  9
$EXTNAMES
290
    1
  9
$PSVPSCALE
 40
1
  9
$OLESTARTUP
290
    0
  9
$SORTENTS
280
  127
  9
$INDEXCTL
280
    0
  9
$HIDETEXT
280
    1
  9
$XCLIPFRAME
290
    0
  9
$HALOGAP
280
    0
  9
$OBSCOLOR
 70
  257
  9
$OBSLTYPE
280
    0
  9
$INTERSECTIONDISPLAY
280
    0
  9
$INTERSECTIONCOLOR
 70
  257
  9
$DIMASSOC
280
    1
  9
$PROJECTNAME
  1

  9
$CAMERADISPLAY
290
    0
  9
$LENSLENGTH
 40
50
  9
$CAMERAHEIGHT
 40
0
  9
$STEPSPERSEC
 40
2
  9
$STEPSIZE
 40
50
  9
$3DDWFPREC
 40
2
  9
$PSOLWIDTH
 40
5
  9
$PSOLHEIGHT
 40
80
  9
$LOFTANG1
 40
1.570796326794897
  9
$LOFTANG2
 40
1.570796326794897
  9
$LOFTMAG1
 40
0
  9
$LOFTMAG2
 40
0
  9
$LOFTPARAM
 70
    7
  9
$LOFTNORMALS
280
    1
  9
$LATITUDE
 40
1
  9
$LONGITUDE
 40
1
  9
$NORTHDIRECTION
 40
0
  9
$TIMEZONE
 70
-8000
  9
$LIGHTGLYPHDISPLAY
280
    1
  9
$TILEMODELIGHTSYNCH
280
    1
  9
$SOLIDHIST
280
    1
  9
$SHOWHIST
280
    1
  9
$DWFFRAME
280
    2
  9
$DGNFRAME
280
    0
  9
$REALWORLDSCALE
290
    1
  9
$INTERFERECOLOR
 62
    1
  9
$CSHADOW
280
    0
  9
$SHADOWPLANELOCATION
 40
0
  0
ENDSEC
  0
SECTION
  2
CLASSES
  0
ENDSEC
  0
SECTION
  2
TABLES
  0
TABLE
  2
VPORT
  5
8
330
0
100
AcDbSymbolTable
 70
    1
  0
VPORT
  5
31
330
2
100
AcDbSymbolTableRecord
100
AcDbViewportTableRecord
  2
*ACTIVE
 70
    0
 10
0
 20
0
 11
1
 21
1
 12
3788.563492737068
 22
2649.924191641228
 13
0
 23
0
 14
10
 24
10
 15
10
 25
10
 16
0
 26
0
 36
1
 17
0
 27
0
 37
0
 40
8581.199823713196
 41
1.932448733413751
 42
50
 43
0
 44
0
 50
0
 51
0
 71
    0
 72
  100
 73
    1
 74
    3
 75
    0
 76
    1
 77
    0
 78
    0
281
    0
 65
    1
110
0
120
0
130
0
111
1
121
0
131
0
112
0
122
1
132
0
 79
    0
146
0
348
10020
 60
    7
 61
    5
292
1
282
    1
141
0
142
0
 63
  250
421
3358443
  0
ENDTAB
  0
TABLE
  2
LTYPE
  5
5
330
0
100
AcDbSymbolTable
 70
    4
  0
LTYPE
  5
14
330
5
100
AcDbSymbolTableRecord
100
AcDbLinetypeTableRecord
  2
ByBlock
 70
    0
  3

 72
   65
 73
    0
 40
0
  0
LTYPE
  5
15
330
5
100
AcDbSymbolTableRecord
100
AcDbLinetypeTableRecord
  2
ByLayer
 70
    0
  3

 72
   65
 73
    0
 40
0
  0
LTYPE
  5
16
330
5
100
AcDbSymbolTableRecord
100
AcDbLinetypeTableRecord
  2
Continuous
 70
    0
  3
Solid line
 72
   65
 73
    0
 40
0
  0
LTYPE
  5
32
330
5
100
AcDbSymbolTableRecord
100
AcDbLinetypeTableRecord
  2
DOT
 70
    0
  3
Dot . . . . . . . . . . . . . . . . . . . . . .
 72
   65
 73
    2
 40
6.35
 49
0
 74
    0
 49
-6.35
 74
    0
  0
LTYPE
  5
33
330
5
100
AcDbSymbolTableRecord
100
AcDbLinetypeTableRecord
  2
DOTTINY
 70
    0
  3
Dot (.15x) .....................................
 72
   65
 73
    2
 40
0.9525
 49
0
 74
    0
 49
-0.9525
 74
    0
  0
LTYPE
  5
34
330
5
100
AcDbSymbolTableRecord
100
AcDbLinetypeTableRecord
  2
DOT2
 70
    0
  3
Dot (.5x) .....................................
 72
   65
 73
    2
 40
3.175
 49
0
 74
    0
 49
-3.175
 74
    0
  0
LTYPE
  5
35
330
5
100
AcDbSymbolTableRecord
100
AcDbLinetypeTableRecord
  2
DOTX2
 70
    0
  3
Dot (2x) .  .  .  .  .  .  .  .  .  .  .  .  .
 72
   65
 73
    2
 40
12.7
 49
0
 74
    0
 49
-12.7
 74
    0
  0
LTYPE
  5
36
330
5
100
AcDbSymbolTableRecord
100
AcDbLinetypeTableRecord
  2
DASHED
 70
    0
  3
Dashed _ _ _ _ _ _ _ _ _ _ _ _ _ _ _ _ _
 72
   65
 73
    2
 40
19.05
 49
12.7
 74
    0
 49
-6.35
 74
    0
  0
LTYPE
  5
37
330
5
100
AcDbSymbolTableRecord
100
AcDbLinetypeTableRecord
  2
DASHEDTINY
 70
    0
  3
Dashed (.15x) _ _ _ _ _ _ _ _ _ _ _ _ _ _ _ _ _
 72
   65
 73
    2
 40
2.8575
 49
1.905
 74
    0
 49
-0.9525
 74
    0
  0
LTYPE
  5
38
330
5
100
AcDbSymbolTableRecord
100
AcDbLinetypeTableRecord
  2
DASHED2
 70
    0
  3
Dashed (.5x) _ _ _ _ _ _ _ _ _ _ _ _ _ _ _ _ _
 72
   65
 73
    2
 40
9.524999999999999
 49
6.35
 74
    0
 49
-3.175
 74
    0
  0
LTYPE
  5
39
330
5
100
AcDbSymbolTableRecord
100
AcDbLinetypeTableRecord
  2
DASHEDX2
 70
    0
  3
Dashed (2x) ____  ____  ____  ____  ____  ___
 72
   65
 73
    2
 40
38.09999999999999
 49
25.4
 74
    0
 49
-12.7
 74
    0
  0
LTYPE
  5
3A
330
5
100
AcDbSymbolTableRecord
100
AcDbLinetypeTableRecord
  2
DASHDOT
 70
    0
  3
Dash dot __ . __ . __ . __ . __ . __ . __ . __
 72
   65
 73
    4
 40
25.4
 49
12.7
 74
    0
 49
-6.35
 74
    0
 49
0
 74
    0
 49
-6.35
 74
    0
  0
LTYPE
  5
3B
330
5
100
AcDbSymbolTableRecord
100
AcDbLinetypeTableRecord
  2
DASHDOTTINY
 70
    0
  3
Dash dot (.15x) _._._._._._._._._._._._._._._.
 72
   65
 73
    4
 40
3.81
 49
1.905
 74
    0
 49
-0.9525
 74
    0
 49
0
 74
    0
 49
-0.9525
 74
    0
  0
LTYPE
  5
3C
330
5
100
AcDbSymbolTableRecord
100
AcDbLinetypeTableRecord
  2
DASHDOT2
 70
    0
  3
Dash dot (.5x) _._._._._._._._._._._._._._._.
 72
   65
 73
    4
 40
12.7
 49
6.35
 74
    0
 49
-3.175
 74
    0
 49
0
 74
    0
 49
-3.175
 74
    0
  0
LTYPE
  5
3D
330
5
100
AcDbSymbolTableRecord
100
AcDbLinetypeTableRecord
  2
DASHDOTX2
 70
    0
  3
Dash dot (2x) ____  .  ____  .  ____  .  ___
 72
   65
 73
    4
 40
50.8
 49
25.4
 74
    0
 49
-12.7
 74
    0
 49
0
 74
    0
 49
-12.7
 74
    0
  0
LTYPE
  5
3E
330
5
100
AcDbSymbolTableRecord
100
AcDbLinetypeTableRecord
  2
DIVIDE
 70
    0
  3
Divide ____ . . ____ . . ____ . . ____ . . ____
 72
   65
 73
    6
 40
31.75
 49
12.7
 74
    0
 49
-6.35
 74
    0
 49
0
 74
    0
 49
-6.35
 74
    0
 49
0
 74
    0
 49
-6.35
 74
    0
  0
LTYPE
  5
3F
330
5
100
AcDbSymbolTableRecord
100
AcDbLinetypeTableRecord
  2
DIVIDETINY
 70
    0
  3
Divide (.15x) __..__..__..__..__..__..__..__.._
 72
   65
 73
    6
 40
4.7625
 49
1.905
 74
    0
 49
-0.9525
 74
    0
 49
0
 74
    0
 49
-0.9525
 74
    0
 49
0
 74
    0
 49
-0.9525
 74
    0
  0
LTYPE
  5
40
330
5
100
AcDbSymbolTableRecord
100
AcDbLinetypeTableRecord
  2
DIVIDE2
 70
    0
  3
Divide (.5x) __..__..__..__..__..__..__..__.._
 72
   65
 73
    6
 40
15.875
 49
6.35
 74
    0
 49
-3.175
 74
    0
 49
0
 74
    0
 49
-3.175
 74
    0
 49
0
 74
    0
 49
-3.175
 74
    0
  0
LTYPE
  5
41
330
5
100
AcDbSymbolTableRecord
100
AcDbLinetypeTableRecord
  2
DIVIDEX2
 70
    0
  3
Divide (2x) ________  .  .  ________  .  .  _
 72
   65
 73
    6
 40
63.5
 49
25.4
 74
    0
 49
-12.7
 74
    0
 49
0
 74
    0
 49
-12.7
 74
    0
 49
0
 74
    0
 49
-12.7
 74
    0
  0
LTYPE
  5
42
330
5
100
AcDbSymbolTableRecord
100
AcDbLinetypeTableRecord
  2
BORDER
 70
    0
  3
Border __ __ . __ __ . __ __ . __ __ . __ __ .
 72
   65
 73
    6
 40
44.45
 49
12.7
 74
    0
 49
-6.35
 74
    0
 49
12.7
 74
    0
 49
-6.35
 74
    0
 49
0
 74
    0
 49
-6.35
 74
    0
  0
LTYPE
  5
43
330
5
100
AcDbSymbolTableRecord
100
AcDbLinetypeTableRecord
  2
BORDERTINY
 70
    0
  3
Border (.15x) __.__.__.__.__.__.__.__.__.__.__.
 72
   65
 73
    6
 40
6.6675
 49
1.905
 74
    0
 49
-0.9525
 74
    0
 49
1.905
 74
    0
 49
-0.9525
 74
    0
 49
0
 74
    0
 49
-0.9525
 74
    0
  0
LTYPE
  5
44
330
5
100
AcDbSymbolTableRecord
100
AcDbLinetypeTableRecord
  2
BORDER2
 70
    0
  3
Border (.5x) __.__.__.__.__.__.__.__.__.__.__.
 72
   65
 73
    6
 40
22.225
 49
6.35
 74
    0
 49
-3.175
 74
    0
 49
6.35
 74
    0
 49
-3.175
 74
    0
 49
0
 74
    0
 49
-3.175
 74
    0
  0
LTYPE
  5
45
330
5
100
AcDbSymbolTableRecord
100
AcDbLinetypeTableRecord
  2
BORDERX2
 70
    0
  3
Border (2x) ____  ____  .  ____  ____  .  ___
 72
   65
 73
    6
 40
88.89999999999999
 49
25.4
 74
    0
 49
-12.7
 74
    0
 49
25.4
 74
    0
 49
-12.7
 74
    0
 49
0
 74
    0
 49
-12.7
 74
    0
  0
LTYPE
  5
46
330
5
100
AcDbSymbolTableRecord
100
AcDbLinetypeTableRecord
  2
CENTER
 70
    0
  3
Center ____ _ ____ _ ____ _ ____ _ ____ _ ____
 72
   65
 73
    4
 40
50.8
 49
31.75
 74
    0
 49
-6.35
 74
    0
 49
6.35
 74
    0
 49
-6.35
 74
    0
  0
LTYPE
  5
47
330
5
100
AcDbSymbolTableRecord
100
AcDbLinetypeTableRecord
  2
CENTERTINY
 70
    0
  3
Center (.15x) ___ _ ___ _ ___ _ ___ _ ___ _ ___
 72
   65
 73
    4
 40
7.62
 49
4.7625
 74
    0
 49
-0.9525
 74
    0
 49
0.9525
 74
    0
 49
-0.9525
 74
    0
  0
LTYPE
  5
48
330
5
100
AcDbSymbolTableRecord
100
AcDbLinetypeTableRecord
  2
CENTER2
 70
    0
  3
Center (.5x) ___ _ ___ _ ___ _ ___ _ ___ _ ___
 72
   65
 73
    4
 40
28.575
 49
19.05
 74
    0
 49
-3.175
 74
    0
 49
3.175
 74
    0
 49
-3.175
 74
    0
  0
LTYPE
  5
49
330
5
100
AcDbSymbolTableRecord
100
AcDbLinetypeTableRecord
  2
CENTERX2
 70
    0
  3
Center (2x) ________  __  ________  __  _____
 72
   65
 73
    4
 40
101.6
 49
63.5
 74
    0
 49
-12.7
 74
    0
 49
12.7
 74
    0
 49
-12.7
 74
    0
  0
ENDTAB
  0
TABLE
  2
LAYER
  5
2
330
0
100
AcDbSymbolTable
 70
    1
  0
LAYER
  5
10
330
2
100
AcDbSymbolTableRecord
100
AcDbLayerTableRecord
  2
0
 70
    0
 62
    7
  6
CONTINUOUS
370
    0
390
F
  0
LAYER
  5
4A
330
2
100
AcDbSymbolTableRecord
100
AcDbLayerTableRecord
  2
1
 70
    0
 62
    7
  6
CONTINUOUS
370
   -3
390
F
  0
LAYER
  5
4B
330
2
100
AcDbSymbolTableRecord
100
AcDbLayerTableRecord
  2
51
 70
    0
 62
    7
  6
CONTINUOUS
370
   -3
390
F
  0
LAYER
  5
4C
330
2
100
AcDbSymbolTableRecord
100
AcDbLayerTableRecord
  2
52
 70
    0
 62
    7
  6
CONTINUOUS
370
   -3
390
F
  0
LAYER
  5
4D
330
2
100
AcDbSymbolTableRecord
100
AcDbLayerTableRecord
  2
53
 70
    0
 62
    7
  6
CONTINUOUS
370
   -3
390
F
  0
LAYER
  5
4E
330
2
100
AcDbSymbolTableRecord
100
AcDbLayerTableRecord
  2
54
 70
    0
 62
    7
  6
CONTINUOUS
370
   -3
390
F
  0
LAYER
  5
4F
330
2
100
AcDbSymbolTableRecord
100
AcDbLayerTableRecord
  2
72
 70
    0
 62
    7
  6
CONTINUOUS
370
   -3
390
F
  0
ENDTAB
  0
TABLE
  2
STYLE
  5
3
330
0
100
AcDbSymbolTable
 70
    3
  0
STYLE
  5
50
330
2
100
AcDbSymbolTableRecord
100
AcDbTextStyleTableRecord
  2
STANDARD
 70
    0
 40
0
 41
1
 50
0
 71
    0
 42
1
  3
STANDARD
  4

  0
ENDTAB
  0
TABLE
  2
VIEW
  5
6
330
0
100
AcDbSymbolTable
 70
    0
  0
ENDTAB
  0
TABLE
  2
UCS
  5
7
330
0
100
AcDbSymbolTable
 70
    0
  0
ENDTAB
  0
TABLE
  2
APPID
  5
9
330
0
100
AcDbSymbolTable
 70
    1
  0
APPID
  5
12
330
9
100
AcDbSymbolTableRecord
100
AcDbRegAppTableRecord
  2
ACAD
 70
    0
  0
APPID
  5
51
330
9
100
AcDbSymbolTableRecord
100
AcDbRegAppTableRecord
  2
LibreCad
 70
    0
  0
ENDTAB
  0
TABLE
  2
DIMSTYLE
  5
A
330
0
100
AcDbSymbolTable
 70
    1
100
AcDbDimStyleTable
 71
    1
  0
DIMSTYLE
105
52
330
A
100
AcDbSymbolTableRecord
100
AcDbDimStyleTableRecord
  2
Standard
 70
    0
 40
1
 41
2.5
 42
0.625
 43
0.38
 44
1.25
 45
0
 46
0
 47
0
 48
0
 49
1
140
2.5
141
0.09
142
2.5
143
25.4
144
1
145
0
146
1
147
0.625
148
0
 71
    0
 72
    0
 73
    0
 74
    1
 75
    0
 76
    0
 77
    0
 78
    1
 79
    0
170
    0
171
    2
172
    0
173
    0
174
    0
175
    0
176
    0
177
    0
178
    0
179
    0
271
    2
272
    4
273
    2
274
    2
275
    0
276
    0
277
    2
278
    0
279
    0
280
    0
281
    0
282
    0
283
    1
284
    0
285
    0
286
    0
288
    0
289
    3
340
standard
341

371
   -2
372
   -2
  0
ENDTAB
  0
TABLE
  2
BLOCK_RECORD
  5
1
330
0
100
AcDbSymbolTable
 70
    2
  0
BLOCK_RECORD
  5
1F
330
1
100
AcDbSymbolTableRecord
100
AcDbBlockTableRecord
  2
*Model_Space
 70
    0
280
    1
281
    0
  0
BLOCK_RECORD
  5
1E
330
1
100
AcDbSymbolTableRecord
100
AcDbBlockTableRecord
  2
*Paper_Space
 70
    0
280
    1
281
    0
  0
ENDTAB
  0
ENDSEC
  0
SECTION
  2
BLOCKS
  0
BLOCK
  5
20
330
1F
100
AcDbEntity
  8
0
100
AcDbBlockBegin
  2
*Model_Space
 70
    0
 10
0
 20
0
 30
0
  3
*Model_Space
  1

  0
ENDBLK
  5
21
330
1F
100
AcDbEntity
  8
0
100
AcDbBlockEnd
  0
BLOCK
  5
1C
330
1B
100
AcDbEntity
  8
0
100
AcDbBlockBegin
  2
*Paper_Space
 70
    0
 10
0
 20
0
 30
0
  3
*Paper_Space
  1

  0
ENDBLK
  5
1D
330
1F
100
AcDbEntity
  8
0
100
AcDbBlockEnd
  0
ENDSEC
  0
SECTION
  2
ENTITIES
  0
TEXT
  5
53
100
AcDbEntity
  8
72
  6
ByLayer
 62
    3
370
   -1
100
AcDbText
 10
-3330.8
 20
2295.6
 30
0
 40
8
  1
MARK_1
 50
90
 41
1
 51
0
  7
STANDARD
 71
    0
 11
-3330.8
 21
2295.6
 31
0
210
0
220
0
230
1
100
AcDbText
 73
    1
  0
TEXT
  5
54
100
AcDbEntity
  8
72
  6
ByLayer
 62
    3
370
   -1
100
AcDbText
 10
-3374.8
 20
1059.6
 30
0
 40
8
  1
MARK_2
 50
90
 41
1
 51
0
  7
STANDARD
 71
    0
 11
-3374.8
 21
1059.6
 31
0
210
0
220
0
230
1
100
AcDbText
 73
    1
  0
LWPOLYLINE
  5
55
100
AcDbEntity
  8
51
  6
ByLayer
 62
    7
370
   -1
100
AcDbPolyline
 90
    6
 70
    1
 43
0
 10
-1054.44915950492
 20
1980.70533567993
 10
-831.4075822316941
 20
2101.2829740687
 10
-838.368195962933
 20
2099.76361083216
 10
-866.291216556092
 20
2087.13301010397
 10
-942.287930824084
 20
2049.15983003071
 10
-968.866477684506
 20
2033.93753305065
  0
LWPOLYLINE
  5
56
100
AcDbEntity
  8
51
  6
ByLayer
 62
    7
370
   -1
100
AcDbPolyline
 90
   23
 70
    1
 43
0
 10
-1981.90535377253
 20
846.524172433568
 10
-1980.1564145219
 20
829.429597507657
 10
-1968.70969061095
 20
788.914145271921
 10
-1960.73743057903
 20
773.3168376612
 10
-1952.33247849713
 20
761.88503748534
 10
-1940.14779610149
 20
749.718091786043
 10
-1861.28407456609
 20
831.004341127738
 10
-1855.46285665772
 20
852.567695013048
 10
-1853.17377257624
 20
866.969005137753
 10
-1850.39807423633
 20
900.115411484228
 10
-1850.85103150197
 20
919.927508938951
 10
-1854.35166777374
 20
941.238859086061
 10
-1859.42817012976
 20
957.572146589479
 10
-1878.80331105306
 20
981.1982963020751
 10
-1891.95975467622
 20
984.73171382492
 10
-1907.91092167412
 20
984.887529758081
 10
-1923.3294991533
 20
981.258631550842
 10
-1937.88573315127
 20
971.762148538896
 10
-1951.50293412473
 20
958.684064351657
 10
-1963.114160674
 20
942.68455051962
 10
-1971.42396387427
 20
923.9919296286751
 10
-1977.85571734368
 20
898.059906388891
 10
-1981.51814743776
 20
875.505490178181
  0
LWPOLYLINE
  5
57
100
AcDbEntity
  8
51
  6
ByLayer
 62
    7
370
   -1
100
AcDbPolyline
 90
   31
 70
    1
 43
0
 10
-2458.39446598176
 20
2070.29143148593
 10
-2457.19113915503
 20
2066.59443069001
 10
-2453.80658904816
 20
2064.68115315889
 10
-2449.08329790827
 20
2065.77264058231
 10
-2390.13875817528
 20
2068.96175347745
 10
-2377.83582525377
 20
2068.95355736821
 10
-2352.00024479133
 20
2067.03178587049
 10
-2339.1989293242
 20
2065.21204742021
 10
-2299.41965247712
 20
2057.27384349541
 10
-2273.16706630563
 20
2048.45279236161
 10
-2260.72326453106
 20
2045.8029942987
 10
-2213.58148426626
 20
2029.95371157159
 10
-2201.55549792091
 20
2024.27561773765
 10
-2178.16291914923
 20
2017.16454337202
 10
-2172.62739192232
 20
2014.63299721284
 10
-2168.46840908524
 20
2023.72710859113
 10
-2174.61332580098
 20
2026.53734502798
 10
-2197.94729459518
 20
2033.63060263589
 10
-2209.84058990086
 20
2039.24604612644
 10
-2258.07986767801
 20
2055.46431255056
 10
-2270.52454075768
 20
2058.11429615022
 10
-2296.83819956433
 20
2066.95586811325
 10
-2337.51544446728
 20
2075.07326718965
 10
-2350.92445267943
 20
2076.97939065692
 10
-2377.46108856322
 20
2078.95330994087
 10
-2390.40575003913
 20
2078.96193356421
 10
-2450.3215583344
 20
2075.72027152524
 10
-2450.32808592801
 20
2075.74851896482
 10
-2450.48968717156
 20
2075.71117514676
 10
-2452.63670182156
 20
2075.59501388505
 10
-2456.78453609933
 20
2073.83034885013
  0
LWPOLYLINE
  5
58
100
AcDbEntity
  8
51
  6
ByLayer
 62
    7
370
   -1
100
AcDbPolyline
 90
   11
 70
    1
 43
0
 10
-2240.65301712819
 20
2513.18066594553
 10
-2239.68934025578
 20
2510.89402344492
 10
-2239.30903411199
 20
2509.85236985711
 10
-2231.16081382688
 20
2502.07453985734
 10
-2226.56529310694
 20
2499.25207773489
 10
-2222.8312739591
 20
2499.57979023638
 10
-2222.21881440141
 20
2503.87198317359
 10
-2224.01852516652
 20
2509.41038335432
 10
-2228.2054123703
 20
2515.58537399261
 10
-2235.00932813529
 20
2520.51750779686
 10
-2238.23516126199
 20
2520.46885680817
  0
LWPOLYLINE
  5
59
100
AcDbEntity
  8
51
  6
ByLayer
 62
    7
370
   -1
100
AcDbPolyline
 90
   15
 70
    1
 43
0
 10
-2666.93648310984
 20
1031.2742245873
 10
-2665.3225003197
 20
1028.19198173192
 10
-2662.14389148498
 20
1026.7772000024
 10
-2640.76806999139
 20
1032.25544233714
 10
-2617.92919865512
 20
1039.98045838827
 10
-2596.68469470772
 20
1043.55033283755
 10
-2559.6635851944
 20
1055.38629785824
 10
-2562.70882409706
 20
1064.9113448411
 10
-2599.04793889768
 20
1053.29341935705
 10
-2620.375367882
 20
1049.7096103875
 10
-2643.61543527442
 20
1041.84889384893
 10
-2662.94131846544
 20
1036.8960141907
 10
-2659.44556008323
 20
1030.22012126079
 10
-2664.59279650798
 20
1036.16181065211
 10
-2666.28872575207
 20
1034.69264116107
  0
LWPOLYLINE
  5
5A
100
AcDbEntity
  8
51
  6
ByLayer
 62
    7
370
   -1
100
AcDbPolyline
 90
   23
 70
    1
 43
0
 10
-2639.95216850983
 20
1070.15971277646
 10
-2620.58791849583
 20
1067.15861825866
 10
-2620.42412821994
 20
1067.14416558479
 10
-2585.00160960674
 20
1064.01852148823
 10
-2573.28481590624
 20
1064.01601234622
 10
-2573.19231773324
 20
1064.01941836905
 10
-2533.95951543712
 20
1065.4640719893
 10
-2518.91319876812
 20
1066.87632852374
 10
-2501.63553708725
 20
1070.81248858145
 10
-2492.19110844122
 20
1075.00538182547
 10
-2492.04584836376
 20
1074.5821236279
 10
-2488.01618074298
 20
1075.96508521985
 10
-2486.15445767199
 20
1078.57174027261
 10
-2486.15358298832
 20
1082.65619944212
 10
-2488.27115034016
 20
1085.36934317562
 10
-2491.6099577332
 20
1086.20457104895
 10
-2504.80466056466
 20
1080.34672803563
 10
-2520.49780818712
 20
1076.77154859341
 10
-2534.61127830358
 20
1075.44684960999
 10
-2573.46779613216
 20
1074.01605176059
 10
-2584.56020190865
 20
1074.01842719042
 10
-2619.38136419404
 20
1077.09100826579
 10
-2638.42064048225
 20
1080.04173796874
  0
LWPOLYLINE
  5
5B
100
AcDbEntity
  8
51
  6
ByLayer
 62
    7
370
   -1
100
AcDbPolyline
 90
   16
 70
    1
 43
0
 10
-2538.43893695276
 20
999.552468659499
 10
-2538.43586501678
 20
995.605104160065
 10
-2535.73740009709
 20
992.724135051349
 10
-2508.6387235056
 20
990.928251630639
 10
-2464.05247623979
 20
990.409145139334
 10
-2463.96111335188
 20
990.408081424147
 10
-2463.86977259836
 20
990.410356401693
 10
-2437.419445084
 20
991.069141213057
 10
-2398.80251305161
 20
994.5296970356929
 10
-2399.69506043396
 20
1004.48978534706
 10
-2437.99080615196
 20
1001.05801179976
 10
-2464.02741952673
 20
1000.40953115538
 10
-2508.24958975895
 20
1000.92439878912
 10
-2533.10676778722
 20
1002.5717336232
 10
-2530.23022672549
 20
995.301063979777
 10
-2536.73626658404
 20
1001.37597531924
  0
LWPOLYLINE
  5
5C
100
AcDbEntity
  8
51
  6
ByLayer
 62
    7
370
   -1
100
AcDbPolyline
 90
    9
 70
    1
 43
0
 10
-1203.82672614871
 20
1143.6567671888
 10
-1001.27608722728
 20
1278.95505061167
 10
-1025.23696215934
 20
1273.2855253068
 10
-1044.66999060609
 20
1263.81548665707
 10
-1066.97386083501
 20
1251.34886272709
 10
-1090.11634987771
 20
1236.92661834181
 10
-1113.43704143115
 20
1220.62481207535
 10
-1157.84344216488
 20
1187.00472089946
 10
-1178.80239068122
 20
1168.56880881871
  0
LWPOLYLINE
  5
5D
100
AcDbEntity
  8
51
  6
ByLayer
 62
    7
370
   -1
100
AcDbPolyline
 90
   14
 70
    1
 43
0
 10
-3102.81428455095
 20
2483.02008122679
 10
-3024.35008639856
 20
2475.29311189403
 10
-2977.54754804428
 20
2466.46316645326
 10
-2953.21730875393
 20
2463.26560617644
 10
-2953.217395448
 20
2463.1354723148
 10
-2949.92009641898
 20
2463.13327568224
 10
-2947.03374642058
 20
2465.83423641929
 10
-2946.77433833602
 20
2469.77871517598
 10
-2949.28210210562
 20
2472.83441903798
 10
-2975.96783864583
 20
2476.34154653066
 10
-3022.71324517457
 20
2485.16071326327
 10
-3022.93033612746
 20
2485.20167047066
 10
-3023.15019337173
 20
2485.22332149398
 10
-3101.83424876838
 20
2492.97194185006
  0
LWPOLYLINE
  5
5E
100
AcDbEntity
  8
51
  6
ByLayer
 62
    7
370
   -1
100
AcDbPolyline
 90
   35
 70
    1
 43
0
 10
-3065.12116968737
 20
2781.13809220723
 10
-3062.13574754952
 20
2763.45769942146
 10
-3055.57002608831
 20
2744.12392110437
 10
-3045.49817473561
 20
2726.18480734339
 10
-3033.64752847824
 20
2709.43830882928
 10
-3019.76479806547
 20
2692.81745658618
 10
-2989.50604284735
 20
2665.72089245249
 10
-2968.68676191816
 20
2652.62601992191
 10
-2956.90536100596
 20
2646.31896985503
 10
-2905.54474372374
 20
2610.90254599726
 10
-2846.59754880411
 20
2563.44146535436
 10
-2829.20533809035
 20
2553.24447655136
 10
-2815.13775155156
 20
2547.21530350906
 10
-2800.43323613002
 20
2544.08130679272
 10
-2785.95576390183
 20
2543.28426184917
 10
-2772.79684085294
 20
2545.86629606151
 10
-2761.43910071879
 20
2551.77693094495
 10
-2752.87292330318
 20
2561.34702635536
 10
-2748.08890838629
 20
2574.5772422219
 10
-2746.27635438474
 20
2588.31743776314
 10
-2747.35870596898
 20
2603.10096209695
 10
-2753.10396227971
 20
2633.94039638043
 10
-2763.09193139722
 20
2663.41105681871
 10
-2779.88083813792
 20
2702.28425006925
 10
-2799.84565792212
 20
2739.78795878167
 10
-2803.67527000006
 20
2748.47731196431
 10
-2942.47449939136
 20
2880.57360812244
 10
-2956.33807375475
 20
2887.8218455241
 10
-2976.90998787428
 20
2890.95975105154
 10
-2993.62435173249
 20
2889.21828562962
 10
-3010.90105201006
 20
2882.16859365343
 10
-3027.26524767168
 20
2872.27349314315
 10
-3041.95649564237
 20
2857.19567697952
 10
-3060.03785543056
 20
2824.23851531151
 10
-3065.07920377933
 20
2806.00466976794
  0
LWPOLYLINE
  5
5F
100
AcDbEntity
  8
51
  6
ByLayer
 62
    7
370
   -1
100
AcDbPolyline
 90
   10
 70
    1
 43
0
 10
-2906.90604101902
 20
1760.1930455025
 10
-2904.97714743954
 20
1757.93115998837
 10
-2894.26587977886
 20
1746.62102172478
 10
-2888.95877002775
 20
1744.38228567742
 10
-2887.2309443244
 20
1745.32093482318
 10
-2887.17714927263
 20
1749.81669998302
 10
-2891.05835663852
 20
1757.31228727309
 10
-2899.53757214959
 20
1763.89653751415
 10
-2903.77886357051
 20
1764.6613631955
 10
-2906.49842277847
 20
1762.02157435652
  0
LWPOLYLINE
  5
60
100
AcDbEntity
  8
51
  6
ByLayer
 62
    7
370
   -1
100
AcDbPolyline
 90
   14
 70
    1
 43
0
 10
-2956.56301057513
 20
1121.21681030334
 10
-2936.77308479951
 20
1111.23882350667
 10
-2924.73478370435
 20
1107.58966371425
 10
-2904.53654487045
 20
1103.4465998178
 10
-2882.57080941593
 20
1101.35484756891
 10
-2859.56871409447
 20
1102.05009367702
 10
-2842.44281031718
 20
1103.66156120389
 10
-2843.37962548464
 20
1113.61758336849
 10
-2860.18880629232
 20
1112.03591799321
 10
-2882.24660366468
 20
1111.36921360988
 10
-2903.05359692703
 20
1113.35062119986
 10
-2922.27442746332
 20
1117.29319905082
 10
-2933.04384633118
 20
1120.55772367183
 10
-2952.06093133564
 20
1130.14604781397
  0
LWPOLYLINE
  5
61
100
AcDbEntity
  8
51
  6
ByLayer
 62
    7
370
   -1
100
AcDbPolyline
 90
   18
 70
    1
 43
0
 10
-3087.35869120895
 20
1257.96031208776
 10
-3086.28513106131
 20
1248.01810566215
 10
-3055.43801468355
 20
1251.34897945367
 10
-3033.83636004271
 20
1252.44315404799
 10
-3023.58232807907
 20
1252.02885401421
 10
-3012.14535808621
 20
1250.35384920229
 10
-2987.95582398931
 20
1245.66821879973
 10
-2982.22621806635
 20
1242.89739548446
 10
-2978.51138018359
 20
1244.00203858194
 10
-2976.51118532875
 20
1247.32159840377
 10
-2977.11916723554
 20
1250.36489673607
 10
-2984.62747362795
 20
1248.8649075997
 10
-2979.61711797208
 20
1252.74359581327
 10
-2984.77507988705
 20
1255.23797349394
 10
-3010.46907767823
 20
1260.21502583118
 10
-3022.65336738674
 20
1261.99947957236
 10
-3033.88754999112
 20
1262.45338124237
 10
-3056.22837300898
 20
1261.32176603191
  0
LWPOLYLINE
  5
62
100
AcDbEntity
  8
51
  6
ByLayer
 62
    7
370
   -1
100
AcDbPolyline
 90
   36
 70
    1
 43
0
 10
-3106.61051863688
 20
531.963630056315
 10
-3104.40384089717
 20
517.383557163731
 10
-3099.91037993778
 20
506.460594642218
 10
-3085.00389286791
 20
490.98880207523
 10
-3075.37785334578
 20
488.370540606569
 10
-3065.62432972088
 20
488.012851889125
 10
-3048.35199287477
 20
489.583953068102
 10
-2826.66417581908
 20
473.763078437546
 10
-2822.39534953945
 20
481.356764445952
 10
-2814.18619444366
 20
504.494406992532
 10
-2810.72864511631
 20
519.200266898327
 10
-2805.89549242967
 20
552.600232648422
 10
-2804.469486147
 20
569.44012765646
 10
-2804.46526518068
 20
589.1505272045
 10
-2805.70629691258
 20
605.813193352521
 10
-2808.36936961215
 20
624.152564067918
 10
-2811.99806656198
 20
640.510941525548
 10
-2824.99704067754
 20
667.717125869238
 10
-2835.51016007477
 20
679.301777510939
 10
-2847.64954847964
 20
687.762577345211
 10
-2861.36475945364
 20
691.448514531132
 10
-2873.88688301505
 20
691.806796142041
 10
-2889.4575178092
 20
689.7781305344459
 10
-2912.70018716888
 20
681.985307754714
 10
-2930.40493865611
 20
677.544099111174
 10
-2949.48165455099
 20
671.401384233693
 10
-2962.36013961879
 20
668.203742077594
 10
-2980.85204087604
 20
664.93110202834
 10
-3018.72572455127
 20
654.2712124028189
 10
-3035.05938737257
 20
647.442110086989
 10
-3049.86929500134
 20
639.469681433994
 10
-3072.27626649946
 20
619.99267942232
 10
-3083.88713404901
 20
605.669565551843
 10
-3099.53959860962
 20
577.351916865224
 10
-3103.47981863797
 20
562.315960315402
 10
-3105.921694352
 20
546.085882868969
  0
LWPOLYLINE
  5
63
100
AcDbEntity
  8
51
  6
ByLayer
 62
    7
370
   -1
100
AcDbPolyline
 90
   14
 70
    1
 43
0
 10
-3299.19638278461
 20
793.379722417752
 10
-3293.54286550897
 20
785.131223013976
 10
-3292.63019961955
 20
785.756763748132
 10
-3290.08742198294
 20
786.238164062754
 10
-3266.94192383649
 20
787.6299005827379
 10
-3229.35446820841
 20
788.2529345735539
 10
-3146.73280143396
 20
785.504762760532
 10
-3122.15045228783
 20
782.106128950971
 10
-3120.7809287231
 20
792.011905306495
 10
-3145.87950980257
 20
795.481910785696
 10
-3229.27106431325
 20
798.255690697154
 10
-3267.3250789202
 20
797.624923219255
 10
-3291.32258890441
 20
796.181955311528
 10
-3296.55252657417
 20
795.191820113144
  0
LWPOLYLINE
  5
64
100
AcDbEntity
  8
51
  6
ByLayer
 62
    7
370
   -1
100
AcDbPolyline
 90
   11
 70
    1
 43
0
 10
-2246.46177048578
 20
1295.65892140295
 10
-2245.03970232116
 20
1294.10921683266
 10
-2240.21386561351
 20
1293.34618336612
 10
-2234.65093393829
 20
1294.89439210427
 10
-2205.51721619717
 20
1294.50715313316
 10
-2202.06214179208
 20
1297.65601330396
 10
-2205.36360865618
 20
1300.14592036753
 10
-2213.92312017226
 20
1301.49395341094
 10
-2224.26084922315
 20
1301.82636723493
 10
-2234.67495777215
 20
1301.32059739631
 10
-2246.08016672227
 20
1298.47823974746
  0
LWPOLYLINE
  5
65
100
AcDbEntity
  8
51
  6
ByLayer
 62
    7
370
   -1
100
AcDbPolyline
 90
   26
 70
    1
 43
0
 10
-1776.73628707576
 20
2438.04766638603
 10
-1774.58760952354
 20
2422.55223151711
 10
-1769.00820676369
 20
2409.64531170317
 10
-1760.47834355524
 20
2402.83242767031
 10
-1750.19361328683
 20
2399.42197531523
 10
-1739.34632662268
 20
2401.64994944115
 10
-1728.0892896392
 20
2408.90685171091
 10
-1715.76059649078
 20
2423.45284167009
 10
-1695.7455544065
 20
2461.33631622887
 10
-1686.43436728805
 20
2483.52971812146
 10
-1678.7987337346
 20
2506.9942365354
 10
-1673.62876097304
 20
2527.66639693157
 10
-1672.93018557382
 20
2546.84293580207
 10
-1676.50148278678
 20
2562.00911833483
 10
-1684.03792036462
 20
2573.06314149726
 10
-1694.82938142578
 20
2578.37893185482
 10
-1707.96182151966
 20
2577.42248036049
 10
-1718.93810486433
 20
2572.19739150596
 10
-1724.98829529461
 20
2564.70842042861
 10
-1729.99755975126
 20
2556.50755573741
 10
-1729.03796090255
 20
2548.09951459517
 10
-1741.36831233445
 20
2531.06432518835
 10
-1758.2795802559
 20
2500.64638457874
 10
-1765.24939915266
 20
2485.30942440839
 10
-1771.99053349384
 20
2470.09931191852
 10
-1775.75985157321
 20
2454.91261963558
  0
LWPOLYLINE
  5
66
100
AcDbEntity
  8
51
  6
ByLayer
 62
    7
370
   -1
100
AcDbPolyline
 90
   27
 70
    1
 43
0
 10
-1847.22388477818
 20
896.330131647312
 10
-1847.0980270529
 20
890.996104572672
 10
-1845.54920366372
 20
888.303372831645
 10
-1845.98247228901
 20
881.445465458522
 10
-1846.0122727546
 20
860.8968713690909
 10
-1843.32297870778
 20
846.392895126358
 10
-1836.82437011142
 20
828.687703048574
 10
-1828.5226280865
 20
809.737524802669
 10
-1817.50248235165
 20
793.60616447743
 10
-1804.7293123846
 20
779.455628788881
 10
-1787.28236302487
 20
766.14229223343
 10
-1775.396539463
 20
759.71354674646
 10
-1762.41770001775
 20
757.0945672783751
 10
-1752.18087472266
 20
760.013375137396
 10
-1744.76218742454
 20
768.825586633539
 10
-1740.82222848689
 20
782.642343211317
 10
-1739.97939414619
 20
804.282963215237
 10
-1742.46417186538
 20
824.933695801907
 10
-1747.5395265102
 20
846.626383182434
 10
-1757.03400782678
 20
870.529816966077
 10
-1767.41864227357
 20
889.0486412518291
 10
-1775.13813161335
 20
898.905494600281
 10
-1800.12864146697
 20
913.338046628811
 10
-1814.96206162698
 20
914.179423213105
 10
-1826.39259986446
 20
911.667270996075
 10
-1836.35013395374
 20
908.240403315416
 10
-1842.4214354958
 20
904.965103404658
  0
LWPOLYLINE
  5
67
100
AcDbEntity
  8
51
  6
ByLayer
 62
    7
370
   -1
100
AcDbPolyline
 90
    9
 70
    1
 43
0
 10
-1586.45623499404
 20
1774.70607912212
 10
-1576.32813500686
 20
1764.9457297037
 10
-1561.78466631543
 20
1748.83243739511
 10
-1468.32485107758
 20
1654.25675428828
 10
-1438.31249963144
 20
1621.93961369543
 10
-1401.26153738417
 20
1586.27007844375
 10
-1367.56229806087
 20
1555.63046107619
 10
-1277.43385511493
 20
1480.17315841236
 10
-1221.43577155869
 20
1438.53056551293
  0
LWPOLYLINE
  5
68
100
AcDbEntity
  8
51
  6
ByLayer
 62
    7
370
   -1
100
AcDbPolyline
 90
   75
 70
    1
 43
0
 10
-3325.84955082301
 20
1366.00535401775
 10
-3325.56745202922
 20
1365.98026823697
 10
-3325.43534949942
 20
1349.45458487654
 10
-3321.73283480961
 20
1335.89532922767
 10
-3314.71385323994
 20
1324.18220034193
 10
-3305.98728187311
 20
1313.13276991184
 10
-3294.22272674068
 20
1304.28512617306
 10
-3282.98786587946
 20
1297.47687390649
 10
-3269.2906544408
 20
1291.82565119583
 10
-3254.61193889902
 20
1286.92925306011
 10
-3239.46595453216
 20
1284.70095414535
 10
-3209.22918094476
 20
1284.66845763867
 10
-3195.1729238897
 20
1286.68110133358
 10
-3183.85522748178
 20
1290.30761868391
 10
-3183.63992526937
 20
1290.39958022509
 10
-3161.68412073435
 20
1299.77751276032
 10
-3149.19720279628
 20
1309.68684582395
 10
-3140.77606856895
 20
1318.32159942014
 10
-3136.28151672212
 20
1325.06030005464
 10
-3131.75146899517
 20
1336.03899432079
 10
-3130.6983266825
 20
1346.09822666532
 10
-3134.77439473424
 20
1363.73185119335
 10
-3158.90118477944
 20
1403.17941709273
 10
-3175.16598376213
 20
1431.56292035462
 10
-3179.74743257737
 20
1443.12445883992
 10
-3187.75332236855
 20
1458.56528465527
 10
-3193.41630981485
 20
1475.74201106334
 10
-3205.83981017547
 20
1506.44358348142
 10
-3215.74647892243
 20
1520.97284868006
 10
-3224.15167995058
 20
1529.1302260352
 10
-3234.37960328487
 20
1535.39465327104
 10
-3245.99725288635
 20
1538.68482893781
 10
-3259.86820863826
 20
1540.42510862794
 10
-3271.97235146371
 20
1539.42368822876
 10
-3283.2212998146
 20
1535.85614446192
 10
-3292.55675354207
 20
1529.88895281097
 10
-3299.16190910494
 20
1521.77366640046
 10
-3291.40614396456
 20
1515.46113069069
 10
-3285.81609056714
 20
1522.32923302956
 10
-3278.94412539524
 20
1526.72177081043
 10
-3270.02410348241
 20
1529.55070802149
 10
-3260.08065517735
 20
1530.37336619023
 10
-3247.99350776636
 20
1528.85688689875
 10
-3238.42884154952
 20
1526.14812625206
 10
-3230.32036951451
 20
1521.18182650606
 10
-3223.43794749679
 20
1514.50232968881
 10
-3214.70686945444
 20
1501.69720300219
 10
-3202.81003996877
 20
1472.29716586307
 10
-3196.99967964204
 20
1454.67343446496
 10
-3188.85783849526
 20
1438.97040154259
 10
-3184.19868088214
 20
1427.21276062475
 10
-3167.50659539882
 20
1398.08360487756
 10
-3144.1520093077
 20
1359.89860089831
 10
-3140.81814203915
 20
1345.4758378596
 10
-3141.54664407673
 20
1338.51745135162
 10
-3145.14881712971
 20
1329.7874866744
 10
-3148.5816107355
 20
1324.64068467103
 10
-3155.91193559883
 20
1317.12441105917
 10
-3166.84779875694
 20
1308.44595966632
 10
-3187.35259651276
 20
1299.6877923354
 10
-3197.42316824963
 20
1296.46088980902
 10
-3209.93612649379
 20
1294.66922319278
 10
-3238.72894067406
 20
1294.70016782633
 10
-3252.2840527104
 20
1296.6944153251
 10
-3265.79732394799
 20
1301.20205469633
 10
-3278.46298384604
 20
1306.42767782276
 10
-3288.61214840573
 20
1312.57800522519
 10
-3298.9420354058
 20
1320.34669337443
 10
-3306.46705776067
 20
1329.87474368192
 10
-3312.4482306541
 20
1339.85599926625
 10
-3315.44606136019
 20
1350.83457905361
 10
-3315.60528096711
 20
1370.75253832884
 10
-3318.38844527792
 20
1373.62724280557
 10
-3322.38642955958
 20
1373.78864631585
 10
-3325.3922694098
 20
1371.14765101023
  0
LWPOLYLINE
  5
69
100
AcDbEntity
  8
51
  6
ByLayer
 62
    7
370
   -1
100
AcDbPolyline
 90
   20
 70
    1
 43
0
 10
-3307.73100615984
 20
2322.60255577078
 10
-3305.3539211687
 20
2319.80075497445
 10
-3301.72829712977
 20
2319.20454101476
 10
-3293.10283156876
 20
2324.38959753675
 10
-3288.78640741217
 20
2325.94568394997
 10
-3262.43897883844
 20
2334.49924794794
 10
-3252.42303782956
 20
2336.83740663608
 10
-3217.02860189996
 20
2342.18068393951
 10
-3182.37690721937
 20
2348.54002577502
 10
-3154.71599721673
 20
2351.57517992623
 10
-3155.80672264517
 20
2361.51551785005
 10
-3183.82669523252
 20
2358.44096476748
 10
-3218.67791344589
 20
2352.04500601147
 10
-3254.30903637125
 20
2346.66599754807
 10
-3265.12433962247
 20
2344.1412327517
 10
-3292.0268395343
 20
2335.40746755494
 10
-3297.4155483585
 20
2333.46481866736
 10
-3305.30583295977
 20
2328.72170406761
 10
-3298.62824136368
 20
2324.94165165051
 10
-3307.72944383485
 20
2324.94771479417
  0
LWPOLYLINE
  5
6A
100
AcDbEntity
  8
51
  6
ByLayer
 62
    7
370
   -1
100
AcDbPolyline
 90
   45
 70
    1
 43
0
 10
-3173.67862319941
 20
1139.95532293937
 10
-3166.90559065794
 20
1131.96515746911
 10
-3153.32024512097
 20
1128.71010822623
 10
-3137.48781806223
 20
1129.13752957569
 10
-3137.25130037169
 20
1129.16658547059
 10
-3101.13154930671
 20
1133.60385055669
 10
-3102.35087005735
 20
1143.52923502818
 10
-3138.23410343178
 20
1139.12102583698
 10
-3152.27224974858
 20
1138.74204392723
 10
-3161.39333966156
 20
1140.927457374
 10
-3163.40648764762
 20
1143.3023736949
 10
-3163.21686979283
 20
1145.88952219064
 10
-3159.53184967334
 20
1149.27103754419
 10
-3153.51279627182
 20
1150.40250234301
 10
-3150.46738645353
 20
1148.92788663221
 10
-3146.7916909933
 20
1144.78880736655
 10
-3138.92531051047
 20
1140.89285146212
 10
-3134.90879512976
 20
1142.34816199962
 10
-3133.00346509719
 20
1146.66440692229
 10
-3133.71048741733
 20
1149.86350471056
 10
-3138.95540849691
 20
1154.46429940379
 10
-3144.31438675296
 20
1157.05916643375
 10
-3144.68283372218
 20
1157.4740623976
 10
-3146.42844667356
 20
1163.35193160084
 10
-3144.69631091263
 20
1170.88654287491
 10
-3140.39287131102
 20
1174.0722498864
 10
-3133.2199308303
 20
1175.25674863564
 10
-3123.61330917795
 20
1171.67262601944
 10
-3115.79968278778
 20
1164.40769021202
 10
-3110.75000377474
 20
1156.65980862256
 10
-3109.98826658212
 20
1149.37561033477
 10
-3108.78299332558
 20
1152.22671903035
 10
-3103.11742823413
 20
1145.0267482651
 10
-3100.91141183224
 20
1146.76263441314
 10
-3099.90856455957
 20
1149.13489859799
 10
-3101.05512995056
 20
1160.09906017352
 10
-3108.09187990589
 20
1170.89576730833
 10
-3118.25787398502
 20
1180.34788220549
 10
-3132.22056976339
 20
1185.5572071413
 10
-3144.40311420195
 20
1183.54545077879
 10
-3153.61461740998
 20
1176.726451775
 10
-3156.76382886691
 20
1163.02770789878
 10
-3155.90278497146
 20
1160.12838053544
 10
-3164.18759615093
 20
1158.57099740738
 10
-3172.90021259375
 20
1150.57596744397
  0
LWPOLYLINE
  5
6B
100
AcDbEntity
  8
51
  6
ByLayer
 62
    7
370
   -1
100
AcDbPolyline
 90
   59
 70
    1
 43
0
 10
-3261.99603119295
 20
1123.87347694909
 10
-3261.62845931897
 20
1108.10810758673
 10
-3259.29359630176
 20
1091.98128645302
 10
-3253.65971629586
 20
1077.88783469379
 10
-3245.88974113081
 20
1065.96829491486
 10
-3234.75951412167
 20
1054.48364783816
 10
-3222.3351653429
 20
1045.24371717192
 10
-3221.60430365488
 20
1044.99126139542
 10
-3193.955391467
 20
1035.44071618268
 10
-3175.21672632867
 20
1033.13401003111
 10
-3159.54409877363
 20
1032.68286163136
 10
-3147.22853403829
 20
1033.93404407252
 10
-3140.85778012382
 20
1036.67499380065
 10
-3144.80991395964
 20
1045.86088723263
 10
-3149.76860414822
 20
1043.72746304034
 10
-3159.90712844307
 20
1042.69745395431
 10
-3174.46031525571
 20
1043.11637840835
 10
-3191.68710283888
 20
1045.23697433109
 10
-3217.60851344826
 20
1054.19080232694
 10
-3228.14210887318
 20
1062.02458847748
 10
-3238.03843614309
 20
1072.23604471796
 10
-3244.74170661957
 20
1082.51920488206
 10
-3249.56702380245
 20
1094.58999355145
 10
-3251.6452334164
 20
1108.94411817261
 10
-3251.98238865252
 20
1123.40490042008
 10
-3250.3321158149
 20
1137.46595463927
 10
-3244.74658218676
 20
1153.37262321947
 10
-3237.63326377745
 20
1165.75590321904
 10
-3230.41778845704
 20
1172.96828882457
 10
-3214.7011377869
 20
1184.89189832885
 10
-3200.50273310831
 20
1193.13825593144
 10
-3184.11902019523
 20
1197.53248260031
 10
-3167.12350211807
 20
1200.63437746071
 10
-3146.76838718645
 20
1200.53262543045
 10
-3129.87605713361
 20
1197.62819800629
 10
-3113.11448793485
 20
1192.58392529807
 10
-3085.69415299556
 20
1171.97902071628
 10
-3073.13182508727
 20
1157.29254020902
 10
-3065.53135936096
 20
1143.42723619457
 10
-3060.20089232152
 20
1128.15220808868
 10
-3054.83173219708
 20
1100.76051466353
 10
-3055.66650827624
 20
1084.84245598929
 10
-3045.68023083604
 20
1084.31875484599
 10
-3044.78072486958
 20
1101.47112553494
 10
-3050.52462377249
 20
1130.77461326246
 10
-3056.36330284592
 20
1147.50597775414
 10
-3064.860148816
 20
1163.0065216394
 10
-3078.80878424438
 20
1179.3137191443
 10
-3108.52925542625
 20
1201.64705220477
 10
-3127.5793791051
 20
1207.38004878891
 10
-3145.8901536703
 20
1210.5283602201
 10
-3168.00379424974
 20
1210.63890284454
 10
-3186.31565696797
 20
1207.29675860439
 10
-3204.37632320294
 20
1202.45276129754
 10
-3220.25526013479
 20
1193.23035953809
 10
-3237.00508492821
 20
1180.5229211472
 10
-3245.64260342346
 20
1171.88910129526
 10
-3253.87660690021
 20
1157.55486729885
 10
-3260.13469651002
 20
1139.73287140805
  0
LWPOLYLINE
  5
6C
100
AcDbEntity
  8
51
  6
ByLayer
 62
    7
370
   -1
100
AcDbPolyline
 90
   10
 70
    1
 43
0
 10
-1583.05985843461
 20
1537.16000928195
 10
-1130.77591435833
 20
1801.12736648362
 10
-1141.2805523519
 20
1797.49811199347
 10
-1184.75204140904
 20
1779.36606829959
 10
-1253.68466370846
 20
1745.73158315219
 10
-1290.9357938631
 20
1723.63299462884
 10
-1368.76860078839
 20
1674.7136353156
 10
-1446.66789733473
 20
1627.55480312589
 10
-1520.33814889506
 20
1579.69157845353
 10
-1547.08841694518
 20
1560.69810656641
  0
LWPOLYLINE
  5
6D
100
AcDbEntity
  8
51
  6
ByLayer
 62
    7
370
   -1
100
AcDbPolyline
 90
   98
 70
    1
 43
0
 10
-3364.88382630141
 20
1976.24496454799
 10
-3362.95633221441
 20
1955.58872623338
 10
-3360.00858630637
 20
1936.26482581568
 10
-3350.81594828936
 20
1902.34043020888
 10
-3344.16732879396
 20
1885.5028708175
 10
-3331.16805534191
 20
1861.17786763003
 10
-3320.76511728151
 20
1846.65638701536
 10
-3308.64710011905
 20
1833.21173180797
 10
-3298.6550655985
 20
1824.26227615519
 10
-3281.95005560013
 20
1811.87387242691
 10
-3250.79168529401
 20
1796.71339671405
 10
-3234.77307333683
 20
1792.74421787848
 10
-3213.17881538807
 20
1790.10972744628
 10
-3209.53655113095
 20
1790.49859081566
 10
-3210.5981596888
 20
1800.44208050841
 10
-3213.10313402043
 20
1800.17463896929
 10
-3232.95831646358
 20
1802.59696291764
 10
-3247.36388906101
 20
1806.16645408334
 10
-3276.7395104985
 20
1820.45951212771
 10
-3292.32735350359
 20
1832.01942693285
 10
-3301.5770420963
 20
1840.30399377378
 10
-3312.96205850164
 20
1852.93540187035
 10
-3322.65723490602
 20
1866.46891667113
 10
-3335.07707920734
 20
1889.70965803501
 10
-3341.30992995064
 20
1905.49428740666
 10
-3350.20841883761
 20
1938.33315876717
 10
-3353.02669280939
 20
1956.80830800983
 10
-3354.88219154575
 20
1976.69299888857
 10
-3354.75840229556
 20
2011.9490568784
 10
-3351.3114936998
 20
2050.42983892265
 10
-3340.77267505226
 20
2088.90457892039
 10
-3334.70566432283
 20
2104.91014545889
 10
-3322.1048834641
 20
2132.6080388506
 10
-3314.4370569748
 20
2147.47696934762
 10
-3288.64287573675
 20
2180.73725847147
 10
-3264.72527444721
 20
2201.91922767217
 10
-3254.37625591383
 20
2209.21686318101
 10
-3231.36112606409
 20
2217.14949428397
 10
-3219.78781045517
 20
2220.36535432869
 10
-3206.74561117299
 20
2221.20566938106
 10
-3194.1172213273
 20
2219.55095393338
 10
-3170.4613387637
 20
2211.13524388487
 10
-3142.68338174653
 20
2194.76157459942
 10
-3130.10308080531
 20
2185.71369746434
 10
-3105.39237157674
 20
2163.77478147396
 10
-3082.21799976041
 20
2138.88497273866
 10
-3071.0157894632
 20
2125.48433872663
 10
-3059.21342124112
 20
2110.30333083109
 10
-3049.81103288532
 20
2096.50166788532
 10
-3033.58191482668
 20
2066.09851154318
 10
-3025.63998659791
 20
2048.32151336598
 10
-3019.72973620095
 20
2030.47651144554
 10
-3010.69036495245
 20
1997.03526188514
 10
-3008.06668100527
 20
1980.26400474107
 10
-3006.43504470445
 20
1947.95109774284
 10
-3007.59421341513
 20
1904.37865132573
 10
-3010.95062598024
 20
1881.8265148047
 10
-3016.556799152
 20
1865.68960660646
 10
-3020.83720075239
 20
1859.03045693881
 10
-3012.42514000707
 20
1853.62331036996
 10
-3007.50120005712
 20
1861.28363202721
 10
-3001.19733216552
 20
1879.42879707011
 10
-2997.61387883011
 20
1903.50644761791
 10
-2996.4283312754
 20
1948.07045872914
 10
-2998.10583737942
 20
1981.29177079536
 10
-3000.89470546974
 20
1999.1189271242
 10
-3010.14905191476
 20
2033.35547969829
 10
-3016.30493374785
 20
2051.94212421509
 10
-3024.5948045098
 20
2070.49794758434
 10
-3024.67744473129
 20
2070.65276336455
 10
-3041.24306201182
 20
2101.68630753275
 10
-3051.12581908858
 20
2116.19309846574
 10
-3063.22977083225
 20
2131.76202357722
 10
-3074.71708359028
 20
2145.5037111521
 10
-3098.23559532963
 20
2170.76313408579
 10
-3098.39759727411
 20
2170.93712790296
 10
-3098.57537690937
 20
2171.09496604701
 10
-3123.84763086028
 20
2193.53243844766
 10
-3137.21370395373
 20
2203.14545070334
 10
-3166.20786595526
 20
2220.23600993807
 10
-3191.76553064137
 20
2229.32828941388
 10
-3206.41436576577
 20
2231.24774661049
 10
-3221.46577858048
 20
2230.27797698239
 10
-3234.33179244707
 20
2226.70291678991
 10
-3258.97801700004
 20
2218.20809582927
 10
-3270.9406846992
 20
2209.77259169907
 10
-3295.62260888973
 20
2187.91372083285
 10
-3295.97237406629
 20
2187.60396087375
 10
-3296.25869585531
 20
2187.23476344129
 10
-3322.6211475777
 20
2153.24171833518
 10
-3322.90309627302
 20
2152.87815978536
 10
-3331.10537483391
 20
2136.97285598002
 10
-3331.15629097084
 20
2136.8609367467
 10
-3343.94184895361
 20
2108.75688304318
 10
-3350.2918638992
 20
2092.00471442757
 10
-3361.19199182957
 20
2052.2109194977
 10
-3364.75683301318
 20
2012.41355533856
 10
-3364.88297810346
 20
1976.48653735187
  0
LWPOLYLINE
  5
6E
100
AcDbEntity
  8
51
  6
ByLayer
 62
    7
370
   -1
100
AcDbPolyline
 90
   56
 70
    1
 43
0
 10
-3242.84401147427
 20
1917.85639691366
 10
-3233.88592226398
 20
1907.65245357516
 10
-3219.18141030723
 20
1901.02363994721
 10
-3201.14583103221
 20
1897.37689823196
 10
-3181.30802206531
 20
1898.21804578384
 10
-3180.95589890088
 20
1898.28410151969
 10
-3130.05239428448
 20
1907.83322749133
 10
-3115.5536619845
 20
1911.62753713255
 10
-3118.08539673214
 20
1921.30174610112
 10
-3132.24286676732
 20
1917.59674459214
 10
-3182.44754126238
 20
1908.17871405119
 10
-3200.35520688047
 20
1907.41940695636
 10
-3216.09708521133
 20
1910.60236900654
 10
-3227.80064824299
 20
1915.8783508513
 10
-3232.49740018912
 20
1921.22830770129
 10
-3232.16486957972
 20
1924.89712429822
 10
-3227.32714957212
 20
1930.78168762607
 10
-3217.05454241187
 20
1934.00027875187
 10
-3204.10570872035
 20
1934.68161930045
 10
-3189.71836328388
 20
1931.24378280927
 10
-3186.51097344793
 20
1928.6274177579
 10
-3182.77159942007
 20
1921.04103435088
 10
-3175.74516670921
 20
1917.25526049517
 10
-3170.47741875067
 20
1919.09085516982
 10
-3168.61567472646
 20
1921.89270364116
 10
-3168.82590303977
 20
1925.25012076215
 10
-3174.22076463201
 20
1931.50702154009
 10
-3178.50357951684
 20
1935.00064338194
 10
-3179.29912861268
 20
1936.61464091606
 10
-3181.58392821412
 20
1944.81401657264
 10
-3179.93213153389
 20
1954.4501253951
 10
-3175.45807650989
 20
1963.55496947463
 10
-3167.34363077882
 20
1969.98457919018
 10
-3154.65528154178
 20
1971.61041822646
 10
-3141.82777516129
 20
1968.48295511353
 10
-3128.3943025141
 20
1958.35896351885
 10
-3116.10670533165
 20
1944.25947958785
 10
-3110.86651598386
 20
1933.82869686889
 10
-3110.19844084389
 20
1925.56155577851
 10
-3111.17632397926
 20
1922.7467996337
 10
-3101.73014615547
 20
1919.46507378877
 10
-3100.06135349898
 20
1924.26855614199
 10
-3101.0559717663
 20
1936.57652728931
 10
-3107.73797531244
 20
1949.87729229823
 10
-3121.54163909133
 20
1965.71639678298
 10
-3137.45583843217
 20
1977.70996126137
 10
-3154.08755371811
 20
1981.76492522074
 10
-3171.37376986168
 20
1979.54993220071
 10
-3183.4375800492
 20
1969.99098094773
 10
-3189.54427190906
 20
1957.56366905114
 10
-3191.81933733746
 20
1944.29158883168
 10
-3191.14338071468
 20
1941.86580834997
 10
-3203.18761323367
 20
1944.74376121799
 10
-3218.84018847118
 20
1943.92015544367
 10
-3233.159919918
 20
1939.43352806275
 10
-3241.84596188841
 20
1928.86789715337
  0
LWPOLYLINE
  5
6F
100
AcDbEntity
  8
51
  6
ByLayer
 62
    7
370
   -1
100
AcDbPolyline
 90
   83
 70
    1
 43
0
 10
-1750.57682513023
 20
1671.85725806689
 10
-1750.11479007072
 20
1670.55241712374
 10
-1734.46404917598
 20
1626.3528978675
 10
-1734.26503613397
 20
1625.79086180535
 10
-1728.6803599615
 20
1617.22368258325
 10
-1713.60164588125
 20
1602.64134450826
 10
-1696.35694309619
 20
1589.30645602224
 10
-1678.24784042065
 20
1577.21952944166
 10
-1658.65653359867
 20
1565.59754676154
 10
-1638.10280345028
 20
1554.34109311283
 10
-1637.98998904297
 20
1554.28646972695
 10
-1591.24621574913
 20
1531.65369411649
 10
-1520.09051960513
 20
1502.4966745607
 10
-1519.76320066272
 20
1502.36255114793
 10
-1495.10499786493
 20
1496.1283021111
 10
-1467.94676687719
 20
1487.83422110231
 10
-1442.91036451494
 20
1482.70407577152
 10
-1418.22441124575
 20
1476.19540756987
 10
-1394.95889107449
 20
1472.42301111103
 10
-1367.70043518982
 20
1465.83106767673
 10
-1367.47949919168
 20
1465.79813189399
 10
-1280.96985894593
 20
1452.90180562837
 10
-1280.8459153292
 20
1452.88332887462
 10
-1280.72120175029
 20
1452.87108412912
 10
-1239.4978675585
 20
1448.82365609244
 10
-1238.52073660654
 20
1458.77580234853
 10
-1279.61935721941
 20
1462.81098563972
 10
-1365.7841178503
 20
1475.65589936884
 10
-1392.98044311312
 20
1482.2328176841
 10
-1416.14451181787
 20
1485.98876425701
 10
-1440.63018333244
 20
1492.44462641655
 10
-1465.47719319169
 20
1497.53596381276
 10
-1492.41742536017
 20
1505.76346832519
 10
-1516.62617789846
 20
1511.88408439086
 10
-1587.16750335301
 20
1540.78935715507
 10
-1633.51925315849
 20
1563.2323196841
 10
-1653.70234629185
 20
1574.28579030491
 10
-1672.91731049296
 20
1585.68451848439
 10
-1690.51550485111
 20
1597.43043913925
 10
-1707.04720959894
 20
1610.21398444264
 10
-1720.91850064742
 20
1623.62864662994
 10
-1725.23657149283
 20
1630.25278842149
 10
-1740.22626428605
 20
1672.58543067241
 10
-1738.36481694657
 20
1681.77551321728
 10
-1733.40734591093
 20
1694.85107685201
 10
-1724.15397156796
 20
1707.45600922391
 10
-1711.40464328373
 20
1719.65378199011
 10
-1693.47696910436
 20
1732.54358144145
 10
-1674.38965758724
 20
1743.451517061
 10
-1653.15125019875
 20
1753.40685517723
 10
-1616.34854080861
 20
1765.44699044158
 10
-1585.32519263203
 20
1772.05516782588
 10
-1559.3804357455
 20
1779.14020974658
 10
-1506.03786622972
 20
1791.8370216658
 10
-1443.4389391277
 20
1803.94396964113
 10
-1416.42301148178
 20
1807.82506746377
 10
-1386.09303005982
 20
1814.83424382563
 10
-1340.9247578927
 20
1820.80075728987
 10
-1294.02524004506
 20
1828.20988403066
 10
-1271.86964331198
 20
1829.58294592669
 10
-1271.77973602409
 20
1829.59178759817
 10
-1220.06130791147
 20
1834.67788642295
 10
-1187.52100504609
 20
1839.91313692128
 10
-1189.10943015398
 20
1849.78617625456
 10
-1221.34608447498
 20
1844.59977828843
 10
-1272.66852853733
 20
1839.55262136669
 10
-1295.11718324536
 20
1838.16139761551
 10
-1342.35999421024
 20
1830.69803786057
 10
-1387.87772259852
 20
1824.68536289515
 10
-1418.26310208371
 20
1817.66338419129
 10
-1445.10034039425
 20
1813.80795681016
 10
-1508.1460298244
 20
1801.61460274906
 10
-1561.85605934458
 20
1788.8303265287
 10
-1587.68593303425
 20
1781.77665712267
 10
-1618.95223777756
 20
1775.1167283903
 10
-1656.55122058542
 20
1762.81608948869
 10
-1656.84182391122
 20
1762.72101759293
 10
-1679.00017774641
 20
1752.33446174186
 10
-1698.89131444947
 20
1740.9671595232
 10
-1717.81129789292
 20
1727.36390068614
 10
-1731.69815264694
 20
1714.07781259189
 10
-1742.27477812837
 20
1699.67034954382
 10
-1748.0040873242
 20
1684.55902636419
  0
LWPOLYLINE
  5
70
100
AcDbEntity
  8
51
  6
ByLayer
 62
    7
370
   -1
100
AcDbPolyline
 90
   43
 70
    1
 43
0
 10
-3277.39102942505
 20
1378.56031880419
 10
-3271.9653243428
 20
1367.16364578383
 10
-3258.87510382941
 20
1360.24094236389
 10
-3243.25331552824
 20
1359.31371602672
 10
-3227.99179761228
 20
1360.64777225852
 10
-3211.96045012753
 20
1362.78527231584
 10
-3196.35420489132
 20
1366.9813756933
 10
-3198.95072112175
 20
1376.63839922362
 10
-3213.92783754652
 20
1372.61145181485
 10
-3229.08858140646
 20
1370.59003153808
 10
-3243.3932176303
 20
1369.33961927876
 10
-3256.11746967943
 20
1370.09486326192
 10
-3264.36083358783
 20
1374.45432867063
 10
-3266.6024797567
 20
1379.16289797666
 10
-3265.25647709939
 20
1383.057750048
 10
-3258.62238413725
 20
1384.56174868964
 10
-3248.55694131817
 20
1383.3667764947
 10
-3233.79568335333
 20
1372.62648229928
 10
-3229.93712358121
 20
1373.05931301643
 10
-3227.38164815829
 20
1375.98255972304
 10
-3227.46840550663
 20
1379.86435043189
 10
-3233.74947840038
 20
1386.43245005377
 10
-3235.89976566684
 20
1391.8400828113
 10
-3235.85771299522
 20
1400.21402855458
 10
-3231.94552860062
 20
1407.64939442621
 10
-3227.51368332609
 20
1411.59098971158
 10
-3219.56244198413
 20
1411.88701829244
 10
-3210.09055287362
 20
1404.69754070527
 10
-3204.39074065645
 20
1395.00089059131
 10
-3202.26068519864
 20
1387.48786973701
 10
-3203.21367543452
 20
1381.92533730101
 10
-3193.35727979503
 20
1380.23670916023
 10
-3192.02140896442
 20
1388.03408687281
 10
-3195.1198043898
 20
1398.96258610992
 10
-3202.47083784677
 20
1411.46833133317
 10
-3216.3631515065
 20
1422.01305757788
 10
-3231.47529457495
 20
1421.45042514429
 10
-3239.94910760864
 20
1413.91398390282
 10
-3245.84531550118
 20
1402.70784980632
 10
-3245.89346022949
 20
1393.1207932136
 10
-3259.1537130432
 20
1394.69505414728
 10
-3271.44419564702
 20
1391.90870954121
 10
-3273.37610914082
 20
1390.1780674768
  0
LWPOLYLINE
  5
71
100
AcDbEntity
  8
52
  6
ByLayer
 62
    7
370
   -1
100
AcDbPolyline
 90
   16
 70
    1
 43
0
 10
-1973.85459632773
 20
1121.24054665338
 10
-1973.4321898377
 20
1111.24947199861
 10
-1964.70780250882
 20
1111.61832499557
 10
-1923.752967971
 20
1109.38344735104
 10
-1888.35160869493
 20
1108.50930564543
 10
-1888.30520308344
 20
1108.50902139618
 10
-1738.63008655249
 20
1107.59221332016
 10
-1738.47717228563
 20
1107.12767455458
 10
-1734.57262802375
 20
1108.41295054766
 10
-1732.65665895272
 20
1111.5490329555
 10
-1733.22742118319
 20
1115.17948483181
 10
-1736.01325719158
 20
1117.57637199735
 10
-1737.85074485356
 20
1117.58762719839
 10
-1888.19754541493
 20
1118.50854955445
 10
-1923.35701464239
 20
1119.37671843348
 10
-1964.64642088612
 20
1121.62985342991
  0
LWPOLYLINE
  5
72
100
AcDbEntity
  8
52
  6
ByLayer
 62
    7
370
   -1
100
AcDbPolyline
 90
   14
 70
    1
 43
0
 10
-2027.36400177105
 20
2210.69741037518
 10
-1985.44072209152
 20
2209.55015017178
 10
-1917.86906800953
 20
2209.45438594305
 10
-1779.12006263767
 20
2201.85075923522
 10
-1779.06938931106
 20
2201.84798227074
 10
-1779.01867005823
 20
2201.84623442797
 10
-1745.86421074017
 20
2200.70369429019
 10
-1708.94975763238
 20
2200.67910219561
 10
-1708.94309571894
 20
2210.67909997655
 10
-1745.68862626563
 20
2210.70357953637
 10
-1778.62354394669
 20
2211.83855402121
 10
-1917.58818622271
 20
2219.45399791303
 10
-1985.29683443628
 20
2219.54995629325
 10
-2027.09044710832
 20
2220.69366806726
  0
LWPOLYLINE
  5
73
100
AcDbEntity
  8
52
  6
ByLayer
 62
    7
370
   -1
100
AcDbPolyline
 90
    5
 70
    1
 43
0
 10
-1203.10456757892
 20
1987.53134078678
 10
-1173.42111637992
 20
2126.2971967215
 10
-1174.81891136914
 20
2125.10432765571
 10
-1179.04510784312
 20
2110.40053984837
 10
-1190.17710653807
 20
2062.07174516509
  0
LWPOLYLINE
  5
74
100
AcDbEntity
  8
52
  6
ByLayer
 62
    7
370
   -1
100
AcDbPolyline
 90
   36
 70
    1
 43
0
 10
-1950.72113942884
 20
2483.95978377683
 10
-1950.71164541901
 20
2460.08377215377
 10
-1947.95272499418
 20
2445.55313096043
 10
-1944.53203409382
 20
2433.07944935778
 10
-1940.47493886977
 20
2422.7135442558
 10
-1931.79853045114
 20
2407.11216064557
 10
-1922.51006858506
 20
2395.19337010783
 10
-1910.42703201614
 20
2384.13631803983
 10
-1898.56855121532
 20
2379.15001691608
 10
-1885.38861077845
 20
2375.15343566698
 10
-1872.2816722065
 20
2375.95750411639
 10
-1859.12158159067
 20
2380.29213793981
 10
-1846.36684176652
 20
2386.20184215395
 10
-1833.99034369243
 20
2396.25199926825
 10
-1823.79694219657
 20
2408.25941117692
 10
-1815.5071358134
 20
2422.37629171229
 10
-1797.57540090473
 20
2459.49915398349
 10
-1788.97690269936
 20
2479.45783016737
 10
-1768.55483461863
 20
2518.28083377744
 10
-1745.23698104659
 20
2557.38130830186
 10
-1712.36125039684
 20
2607.70221794118
 10
-1701.81081067278
 20
2621.86839247312
 10
-1680.07799411367
 20
2645.60291952568
 10
-1671.76842251575
 20
2651.2615850167
 10
-1664.11843855081
 20
2658.13989018994
 10
-1782.90983194885
 20
2741.04844638586
 10
-1791.16894198323
 20
2734.88174716505
 10
-1806.59898955429
 20
2716.5024224507
 10
-1813.23270300452
 20
2710.02984033687
 10
-1833.31492604025
 20
2685.68461353768
 10
-1862.93267198614
 20
2645.54693571686
 10
-1906.10606074703
 20
2579.23088273882
 10
-1931.1278121777
 20
2536.98194263774
 10
-1939.08787550817
 20
2522.17904227818
 10
-1945.21829318145
 20
2508.64492330607
 10
-1948.32413173803
 20
2498.08059004454
  0
LWPOLYLINE
  5
75
100
AcDbEntity
  8
52
  6
ByLayer
 62
    7
370
   -1
100
AcDbPolyline
 90
   17
 70
    1
 43
0
 10
-1163.29485592636
 20
1917.59159313691
 10
-1163.23723977274
 20
1851.40386787748
 10
-1153.23724356155
 20
1851.41257283471
 10
-1153.29473528256
 20
1917.45735360233
 10
-1152.02368448022
 20
1963.30465941078
 10
-1147.74978369738
 20
2034.86926395608
 10
-1141.89470069764
 20
2078.5097778477
 10
-1136.44753024517
 20
2128.76853142082
 10
-1139.12101872506
 20
2132.01735056007
 10
-1143.31298694397
 20
2132.37758507169
 10
-1147.8553633027
 20
2128.46701532759
 10
-1146.68598810275
 20
2127.10871139483
 10
-1151.82278942494
 20
2079.71360341011
 10
-1157.68549622316
 20
2036.01626598868
 10
-1157.7100144949
 20
2035.83352050438
 10
-1157.72100641924
 20
2035.64946552541
 10
-1162.01541847685
 20
1963.74140862996
  0
LWPOLYLINE
  5
76
100
AcDbEntity
  8
52
  6
ByLayer
 62
    7
370
   -1
100
AcDbPolyline
 90
   11
 70
    1
 43
0
 10
-1277.79216999917
 20
1779.50425085856
 10
-1273.77736337001
 20
1781.914576764
 10
-1269.35492157904
 20
1786.17883151783
 10
-1260.07309402983
 20
1802.42865165059
 10
-1256.43322950499
 20
1813.93242935711
 10
-1248.81746269384
 20
1845.7027628492
 10
-1244.98533053104
 20
1878.92341728779
 10
-1243.54848009052
 20
1900.61406488375
 10
-1241.53919123833
 20
1942.77673566905
 10
-1233.02073769079
 20
2071.3458892793
 10
-1231.32760876719
 20
2108.69719176468
  0
LWPOLYLINE
  5
77
100
AcDbEntity
  8
52
  6
ByLayer
 62
    7
370
   -1
100
AcDbPolyline
 90
   18
 70
    1
 43
0
 10
-1495.58491958311
 20
575.852854551473
 10
-1475.75998711889
 20
517.631807723123
 10
-1456.68757378117
 20
503.683123061299
 10
-1443.55638873331
 20
500.810110962701
 10
-1429.35802295263
 20
499.714870368971
 10
-1416.20051864851
 20
501.134452732554
 10
-1405.58212222626
 20
506.720178939577
 10
-1398.4167114835
 20
518.910644752153
 10
-1397.95640560254
 20
533.4139465105779
 10
-1403.56588367393
 20
551.728548195749
 10
-1410.67491360415
 20
565.598470906828
 10
-1421.39064554264
 20
579.926366000744
 10
-1435.07849833698
 20
592.756297537604
 10
-1448.86901180996
 20
600.633250945594
 10
-1462.88951232203
 20
602.033253456608
 10
-1475.31056894595
 20
599.902313367036
 10
-1486.23412980032
 20
592.614852471709
 10
-1493.22074513886
 20
585.072548476823
  0
LWPOLYLINE
  5
78
100
AcDbEntity
  8
52
  6
ByLayer
 62
    7
370
   -1
100
AcDbPolyline
 90
   11
 70
    1
 43
0
 10
-1717.83628992028
 20
1106.71478547645
 10
-1621.82476534872
 20
1104.48442463451
 10
-1621.79304579082
 20
1104.48368778485
 10
-1621.76131943614
 20
1104.48335353902
 10
-1444.640440922
 20
1102.61733665832
 10
-1333.05203109076
 20
1098.35426427021
 10
-1332.67027416849
 20
1108.34697469593
 10
-1444.39684246047
 20
1112.61532522646
 10
-1444.4659682473
 20
1112.61605348552
 10
-1621.62424619358
 20
1114.48246437947
 10
-1717.60405120725
 20
1116.71208837174
  0
LWPOLYLINE
  5
79
100
AcDbEntity
  8
52
  6
ByLayer
 62
    7
370
   -1
100
AcDbPolyline
 90
   13
 70
    1
 43
0
 10
-1811.82797518323
 20
2209.68553203745
 10
-1811.43681286665
 20
2205.84793143482
 10
-1808.56977924153
 20
2203.26717485278
 10
-1781.89826902708
 20
2203.35849220214
 10
-1750.25548246568
 20
2202.21998349065
 10
-1750.16186413433
 20
2202.22012190292
 10
-1619.8851069095
 20
2202.41273269767
 10
-1619.89989163306
 20
2212.41272176826
 10
-1750.08303052653
 20
2212.22024938578
 10
-1781.73554084837
 20
2213.35910795855
 10
-1805.97835805341
 20
2213.27610591666
 10
-1806.02438259997
 20
2213.50346463196
 10
-1809.54060049768
 20
2212.79167166586
  0
LWPOLYLINE
  5
7A
100
AcDbEntity
  8
52
  6
ByLayer
 62
    7
370
   -1
100
AcDbPolyline
 90
    5
 70
    1
 43
0
 10
-1402.5071160162
 20
2200.16324752533
 10
-1292.21772152608
 20
2201.38255465343
 10
-1297.75449726584
 20
2202.02124334723
 10
-1321.24959357975
 20
2201.88449554668
 10
-1383.68350733969
 20
2200.83388824646
  0
LWPOLYLINE
  5
7B
100
AcDbEntity
  8
52
  6
ByLayer
 62
    7
370
   -1
100
AcDbPolyline
 90
   17
 70
    1
 43
0
 10
-1902.80747476787
 20
1108.38097331838
 10
-1837.50436999231
 20
1106.99538867923
 10
-1837.46436529824
 20
1106.99453986982
 10
-1837.42435214322
 20
1106.99433142242
 10
-1674.69493647793
 20
1106.1465971426
 10
-1674.6777428118
 20
1106.14662582208
 10
-1539.6985160653
 20
1106.37177467122
 10
-1486.97069310573
 20
1107.07088583332
 10
-1483.1209232142
 20
1110.33593956335
 10
-1482.88552108032
 20
1114.63224166355
 10
-1485.84328979325
 20
1117.75717848557
 10
-1490.1536628548
 20
1117.75810154852
 10
-1490.15381887136
 20
1117.02956014301
 10
-1539.77314719532
 20
1116.3716640961
 10
-1674.67722938172
 20
1116.14664059003
 10
-1837.33224497843
 20
1116.99398728481
 10
-1902.59534505993
 20
1118.37872311456
  0
LWPOLYLINE
  5
7C
100
AcDbEntity
  8
52
  6
ByLayer
 62
    7
370
   -1
100
AcDbPolyline
 90
   29
 70
    1
 43
0
 10
-3397.51738051959
 20
2751.67682543411
 10
-3396.63262795315
 20
2745.30083460474
 10
-3395.2912169685
 20
2738.11173937305
 10
-3391.6388972133
 20
2730.18450447014
 10
-3382.02131838115
 20
2716.63989431675
 10
-3367.60166846464
 20
2705.30188555482
 10
-3359.73074988126
 20
2700.67384099
 10
-3335.96144845622
 20
2693.01260438706
 10
-3327.65619177965
 20
2692.19427131536
 10
-3320.64425350062
 20
2694.50100053465
 10
-3313.22264950856
 20
2701.70965792596
 10
-3310.47381533767
 20
2710.16602855295
 10
-3308.91854400422
 20
2718.97879440025
 10
-3308.91131862614
 20
2729.82459199351
 10
-3312.02726035792
 20
2742.22187055795
 10
-3315.93168487561
 20
2752.99407404219
 10
-3321.68919217869
 20
2765.44391240641
 10
-3331.61108022666
 20
2779.72532545147
 10
-3339.04779608692
 20
2787.9598815545
 10
-3347.2985470188
 20
2794.34077954931
 10
-3356.23612999536
 20
2799.17273476197
 10
-3364.21074679245
 20
2800.65124771074
 10
-3371.55110826589
 20
2801.01173787601
 10
-3377.90166525838
 20
2800.17776837705
 10
-3382.11997642513
 20
2797.31037794314
 10
-3384.25701096749
 20
2792.15560047318
 10
-3393.17643624903
 20
2786.11634117695
 10
-3395.23864143036
 20
2778.90411339975
 10
-3397.07732304046
 20
2764.07173502213
  0
LWPOLYLINE
  5
7D
100
AcDbEntity
  8
52
  6
ByLayer
 62
    7
370
   -1
100
AcDbPolyline
 90
    6
 70
    1
 43
0
 10
-2456.31129186203
 20
2075.42823848155
 10
-2444.19745741677
 20
2072.47376769428
 10
-2445.74325284454
 20
2077.8849986906
 10
-2449.0948337698
 20
2079.71603189112
 10
-2452.80345292327
 20
2079.38830246837
 10
-2455.34458608406
 20
2077.68819497202
  0
LWPOLYLINE
  5
7E
100
AcDbEntity
  8
52
  6
ByLayer
 62
    7
370
   -1
100
AcDbPolyline
 90
   14
 70
    1
 43
0
 10
-3283.61605266801
 20
2115.07680409009
 10
-3282.32151593974
 20
2113.78054139328
 10
-3279.4772749726
 20
2112.94044639815
 10
-3277.69820932775
 20
2114.53946155484
 10
-3264.97188148228
 20
2115.92798369351
 10
-3250.94753112893
 20
2121.25264197428
 10
-3244.03607602419
 20
2125.23583850661
 10
-3238.801122075
 20
2129.06775187592
 10
-3238.44261169717
 20
2133.43631400882
 10
-3243.06351549021
 20
2136.28419304689
 10
-3250.65824917501
 20
2136.08605254877
 10
-3259.0169455569
 20
2132.94202034226
 10
-3273.62676487512
 20
2125.71275167321
 10
-3279.49763243144
 20
2120.50966163976
  0
LWPOLYLINE
  5
7F
100
AcDbEntity
  8
52
  6
ByLayer
 62
    7
370
   -1
100
AcDbPolyline
 90
   13
 70
    1
 43
0
 10
-3071.16085350958
 20
2091.28786299652
 10
-3068.1673768519
 20
2085.69786752783
 10
-3065.17251265089
 20
2082.19067159695
 10
-3061.00701510282
 20
2082.03549654411
 10
-3057.44871460054
 20
2085.48752680114
 10
-3056.63305508794
 20
2089.77958436827
 10
-3058.68749341087
 20
2094.22595400397
 10
-3062.13906679388
 20
2098.47005435407
 10
-3065.49088461679
 20
2099.9454876335
 10
-3067.87848408696
 20
2099.94707823195
 10
-3069.75986040219
 20
2097.28133099702
 10
-3070.29546004764
 20
2093.97968707622
 10
-3068.4170618742
 20
2092.17503530315
  0
LWPOLYLINE
  5
80
100
AcDbEntity
  8
52
  6
ByLayer
 62
    7
370
   -1
100
AcDbPolyline
 90
   10
 70
    1
 43
0
 10
-3274.69280945687
 20
1783.70238596875
 10
-3272.22924690124
 20
1783.34514468542
 10
-3256.50720879175
 20
1782.4964706114
 10
-3249.54635816287
 20
1784.37143376903
 10
-3244.56609792898
 20
1787.16211658204
 10
-3244.02992296069
 20
1791.32736031121
 10
-3248.04217447957
 20
1792.75243355467
 10
-3255.50990819255
 20
1792.55420845024
 10
-3264.02076764298
 20
1789.76587769239
 10
-3271.49068419852
 20
1786.29105331506
  0
LWPOLYLINE
  5
81
100
AcDbEntity
  8
52
  6
ByLayer
 62
    7
370
   -1
100
AcDbPolyline
 90
    9
 70
    1
 43
0
 10
-3223.95872785498
 20
1646.61015694116
 10
-3222.53658198952
 20
1646.22820943513
 10
-3200.91538279386
 20
1654.92600750948
 10
-3196.59420255514
 20
1659.69832983561
 10
-3196.56577365521
 20
1664.24491190544
 10
-3200.14526075808
 20
1667.11749716621
 10
-3205.75989476443
 20
1665.26703717615
 10
-3219.3555418042
 20
1655.29389226543
 10
-3223.19513742562
 20
1648.99724877353
  0
LWPOLYLINE
  5
82
100
AcDbEntity
  8
52
  6
ByLayer
 62
    7
370
   -1
100
AcDbPolyline
 90
    5
 70
    1
 43
0
 10
-3424.84008050187
 20
1185.16544794654
 10
-3368.08508837231
 20
1378.24718561576
 10
-3370.0669573718
 20
1375.12340995979
 10
-3384.19747805661
 20
1337.20423512995
 10
-3420.21792105684
 20
1203.45554581202
  0
LWPOLYLINE
  5
83
100
AcDbEntity
  8
52
  6
ByLayer
 62
    7
370
   -1
100
AcDbPolyline
 90
   14
 70
    1
 43
0
 10
-3155.24253449375
 20
1096.89659910264
 10
-3153.89661193349
 20
1095.6009108447
 10
-3152.55129314547
 20
1091.4858226514
 10
-3150.31717563525
 20
1086.43074410102
 10
-3147.39681211081
 20
1083.45831863936
 10
-3144.62865276485
 20
1081.40032579308
 10
-3141.37744196062
 20
1081.45042955004
 10
-3139.64967086432
 20
1084.1170596104
 10
-3139.67401018277
 20
1089.07006493622
 10
-3141.24726536002
 20
1096.28400201296
 10
-3145.48709620372
 20
1105.47971018019
 10
-3149.52512497521
 20
1108.14757498197
 10
-3152.14152073325
 20
1107.23373526007
 10
-3154.37761274189
 20
1103.06861402187
  0
LWPOLYLINE
  5
84
100
AcDbEntity
  8
52
  6
ByLayer
 62
    7
370
   -1
100
AcDbPolyline
 90
   11
 70
    1
 43
0
 10
-3295.70416293403
 20
1335.86448432695
 10
-3286.1305062731
 20
1325.85483390655
 10
-3281.43211015309
 20
1323.03442768413
 10
-3276.20008559095
 20
1321.28070721006
 10
-3271.62786268081
 20
1322.32112809606
 10
-3270.61110662896
 20
1325.85151043952
 10
-3273.88673834248
 20
1330.3734120171
 10
-3280.56554570557
 20
1336.87724242746
 10
-3286.20387234938
 20
1339.08824992128
 10
-3292.12198518344
 20
1339.49591728973
 10
-3294.30658639077
 20
1338.55658509878
  0
LWPOLYLINE
  5
85
100
AcDbEntity
  8
52
  6
ByLayer
 62
    7
370
   -1
100
AcDbPolyline
 90
   10
 70
    1
 43
0
 10
-3298.24349927026
 20
1338.96382819485
 10
-3297.81240096142
 20
1335.68713580036
 10
-3294.66374204803
 20
1331.29226141681
 10
-3280.87267919671
 20
1325.98070794999
 10
-3278.8661445154
 20
1325.67547824521
 10
-3277.64646587707
 20
1327.91041710325
 10
-3280.23608547012
 20
1333.42277179461
 10
-3285.01021924027
 20
1338.40219428569
 10
-3291.84225882647
 20
1341.0198574215
 10
-3296.49038256844
 20
1341.37645282164
  0
LWPOLYLINE
  5
86
100
AcDbEntity
  8
52
  6
ByLayer
 62
    7
370
   -1
100
AcDbPolyline
 90
   13
 70
    1
 43
0
 10
-3372.75251537868
 20
695.41996948436
 10
-3370.39133803808
 20
690.644263730625
 10
-3362.34019094946
 20
687.5945395140189
 10
-3353.90843006623
 20
682.741333747921
 10
-3344.33333196706
 20
679.462683173183
 10
-3336.35804763454
 20
677.987775238636
 10
-3332.31934981813
 20
678.444110365209
 10
-3331.78529710361
 20
681.491996068137
 10
-3336.83867312505
 20
687.208078375618
 10
-3344.48319176863
 20
691.324515537529
 10
-3364.39515405575
 20
698.9741798436499
 10
-3370.5162329914
 20
700.474090702175
 10
-3372.42159194743
 20
698.798098694833
  0
LWPOLYLINE
  5
87
100
AcDbEntity
  8
52
  6
ByLayer
 62
    7
370
   -1
100
AcDbPolyline
 90
   14
 70
    1
 43
0
 10
-3406.94294697652
 20
804.545693840037
 10
-3405.4202361468
 20
798.525567614696
 10
-3402.82982240287
 20
796.721612838312
 10
-3398.61331371176
 20
797.228709887993
 10
-3394.26917949376
 20
800.656779673748
 10
-3388.65441433569
 20
807.030977422463
 10
-3386.74750515363
 20
815.945969263815
 10
-3387.55829256085
 20
825.344143108785
 10
-3390.9097707123
 20
831.517060966681
 10
-3394.7196835947
 20
831.924276865799
 10
-3401.27452614009
 20
824.254880404202
 10
-3402.90097464759
 20
820.292828615993
 10
-3403.91731730584
 20
818.692846228268
 10
-3405.54345032874
 20
816.203994406279
  0
LWPOLYLINE
  5
88
100
AcDbEntity
  8
52
  6
ByLayer
 62
    7
370
   -1
100
AcDbPolyline
 90
   11
 70
    1
 43
0
 10
-2863.9738704546
 20
2597.48904886479
 10
-2862.73768059707
 20
2584.86442252433
 10
-2855.04395280887
 20
2581.15089620542
 10
-2845.59737159069
 20
2577.81720223502
 10
-2836.30048293706
 20
2578.54760889035
 10
-2832.61428563617
 20
2583.34575424236
 10
-2833.32174587986
 20
2588.959626792
 10
-2837.58449464153
 20
2595.64266808133
 10
-2843.88183190509
 20
2598.44086393384
 10
-2851.67907177314
 20
2599.2842585747
 10
-2858.84212400258
 20
2598.90803045461
  0
LWPOLYLINE
  5
89
100
AcDbEntity
  8
53
  6
ByLayer
 62
    7
370
   -1
100
AcDbPolyline
 90
   17
 70
    1
 43
0
 10
-2265.04604345685
 20
861.043491244388
 10
-2263.54787864238
 20
859.011170366997
 10
-2261.33815484451
 20
858.655097148257
 10
-2256.8175695992
 20
855.783929002726
 10
-2245.64340836914
 20
847.19633586817
 10
-2238.37982988354
 20
843.359380290696
 10
-2223.87845910842
 20
833.8820746164899
 10
-2199.1411007042
 20
823.411976890999
 10
-2194.28978240629
 20
823.029937976326
 10
-2192.71408494312
 20
827.220600638072
 10
-2196.9294622412
 20
831.996703467247
 10
-2204.97981517894
 20
838.754827598819
 10
-2226.97289664692
 20
854.253537754917
 10
-2249.67819526444
 20
865.002600322835
 10
-2256.28168381039
 20
867.391614509378
 10
-2261.97128367993
 20
867.392832932643
 10
-2264.25810497534
 20
863.557922565651
  0
LWPOLYLINE
  5
8A
100
AcDbEntity
  8
53
  6
ByLayer
 62
    7
370
   -1
100
AcDbPolyline
 90
   16
 70
    1
 43
0
 10
-1501.02893092089
 20
2357.24909746137
 10
-1498.26615244875
 20
2348.50965498293
 10
-1492.42648887901
 20
2345.00056387092
 10
-1484.32206318093
 20
2347.73836538021
 10
-1473.74937081689
 20
2357.18012403926
 10
-1443.29582787595
 20
2393.71044425885
 10
-1436.05236226964
 20
2400.41122021171
 10
-1429.14280234603
 20
2401.54961737531
 10
-1450.44080819956
 20
2420.4614101191
 10
-1454.22540735974
 20
2420.46393138686
 10
-1460.78082259063
 20
2417.14089781034
 10
-1467.33867448298
 20
2410.16026504546
 10
-1474.81011395193
 20
2404.3994411754
 10
-1483.09580846889
 20
2396.45475927039
 10
-1496.6195704469
 20
2380.00456503317
 10
-1500.53898720108
 20
2368.27237351124
  0
LWPOLYLINE
  5
8B
100
AcDbEntity
  8
53
  6
ByLayer
 62
    7
370
   -1
100
AcDbPolyline
 90
   10
 70
    1
 43
0
 10
-2458.35260586004
 20
652.939390279905
 10
-2426.52868025466
 20
642.315374968216
 10
-2412.55893078691
 20
641.143983330739
 10
-2402.60196239414
 20
641.929251071969
 10
-2399.88350429032
 20
645.002068986811
 10
-2403.4127824377
 20
651.175024920434
 10
-2412.73385878513
 20
654.555221098947
 10
-2430.97034580692
 20
657.886526504368
 10
-2445.65158354601
 20
657.711870475621
 10
-2456.32023602814
 20
654.666155089134
  0
LWPOLYLINE
  5
8C
100
AcDbEntity
  8
53
  6
ByLayer
 62
    7
370
   -1
100
AcDbPolyline
 90
   12
 70
    1
 43
0
 10
-2523.46121910297
 20
613.659532336401
 10
-2521.88720241118
 20
610.001595178116
 10
-2517.92521589564
 20
608.070346677606
 10
-2493.36376457978
 20
606.439486825159
 10
-2481.78179999653
 20
604.405006510105
 10
-2472.53629267815
 20
603.9712265822
 10
-2469.9703052829
 20
606.713877140951
 10
-2475.17628799765
 20
611.464792106901
 10
-2484.72600785497
 20
614.64183724458
 10
-2507.99188514007
 20
617.0852196695211
 10
-2517.38988492457
 20
617.087232243665
 10
-2522.87661660153
 20
615.539007187342
  0
LWPOLYLINE
  5
8D
100
AcDbEntity
  8
54
  6
ByLayer
 62
    7
370
   -1
100
AcDbPolyline
 90
   21
 70
    1
 43
0
 10
-3453.77685563614
 20
1296.22353455804
 10
-3453.21957867803
 20
1289.11141505454
 10
-3450.02019591727
 20
1284.36092980037
 10
-3445.6266922599
 20
1281.10878886052
 10
-3437.67661210876
 20
1280.5482863444
 10
-3430.15723863043
 20
1285.09327618083
 10
-3421.7992028232
 20
1291.7970864679
 10
-3411.78922603942
 20
1302.89474309389
 10
-3398.75422335721
 20
1325.32015217275
 10
-3396.56747903039
 20
1336.26708413423
 10
-3396.56607566788
 20
1342.82028398396
 10
-3399.79065717064
 20
1348.51057465597
 10
-3407.10546536686
 20
1350.34094115824
 10
-3413.78577944086
 20
1349.80897172993
 10
-3420.28898432142
 20
1346.05116429986
 10
-3421.58517844259
 20
1342.34304179376
 10
-3422.55059599604
 20
1341.32724851386
 10
-3427.40274108117
 20
1337.84848751706
 10
-3445.00884615927
 20
1319.61505743222
 10
-3449.17580591115
 20
1313.26594963772
 10
-3452.45450000101
 20
1303.4876515432
  0
LWPOLYLINE
  5
8E
100
AcDbEntity
  8
54
  6
ByLayer
 62
    7
370
   -1
100
AcDbPolyline
 90
   18
 70
    1
 43
0
 10
-3155.716052295
 20
1712.14750880454
 10
-3152.64334674867
 20
1711.10406156315
 10
-3154.21916167483
 20
1709.58111101946
 10
-3155.41969607145
 20
1699.47270856197
 10
-3152.27600229015
 20
1690.60601229281
 10
-3148.1381721853
 20
1687.04725491651
 10
-3142.98293784131
 20
1685.59602022197
 10
-3138.05496666705
 20
1686.1515373735
 10
-3132.08342980258
 20
1689.95756003191
 10
-3128.67614172315
 20
1695.49249135432
 10
-3127.35072251222
 20
1702.42580991006
 10
-3127.77736143206
 20
1710.17309585239
 10
-3130.56584448125
 20
1718.45535535354
 10
-3136.60770965155
 20
1723.46318150308
 10
-3142.2453915971
 20
1725.14333765083
 10
-3147.961371762
 20
1723.67394526127
 10
-3153.09421809593
 20
1720.60396403783
 10
-3155.6882494817
 20
1715.75429108291
  0
LWPOLYLINE
  5
8F
100
AcDbEntity
  8
54
  6
ByLayer
 62
    7
370
   -1
100
AcDbPolyline
 90
   17
 70
    1
 43
0
 10
-2855.24335139474
 20
2777.49307261253
 10
-2854.58384836807
 20
2776.1464329585
 10
-2853.33777649462
 20
2778.35540332638
 10
-2854.78926500806
 20
2772.81916906695
 10
-2853.52320794349
 20
2766.90012431722
 10
-2850.04667451888
 20
2761.9956071924
 10
-2842.43144800515
 20
2754.82773240382
 10
-2835.5760723223
 20
2750.88616453722
 10
-2829.60769973348
 20
2749.94238824964
 10
-2816.47427820652
 20
2752.37203941705
 10
-2813.57380552614
 20
2759.68530877012
 10
-2815.26902277831
 20
2769.56704030199
 10
-2821.05548354038
 20
2776.68289677112
 10
-2829.81311755636
 20
2784.74053281913
 10
-2839.84454165279
 20
2787.1094161927
 10
-2847.89696595269
 20
2786.17498044071
 10
-2853.51332592757
 20
2781.73372102557
  0
LWPOLYLINE
  5
90
100
AcDbEntity
  8
54
  6
ByLayer
 62
    7
370
   -1
100
AcDbPolyline
 90
    9
 70
    1
 43
0
 10
-1717.81426169587
 20
641.4844439618259
 10
-1714.99750530386
 20
629.13944047264
 10
-1709.51173639885
 20
626.191865632052
 10
-1703.69528339575
 20
625.5048200275641
 10
-1697.64956679235
 20
627.916525397514
 10
-1694.65095805918
 20
634.494483398697
 10
-1696.12250445096
 20
642.216398706236
 10
-1702.21719885768
 20
648.313704019953
 10
-1708.64310498329
 20
649.686680154066
  0
LWPOLYLINE
  5
91
100
AcDbEntity
  8
1
  6
ByLayer
 62
    7
370
   -1
100
AcDbPolyline
 90
  328
 70
    1
 43
0
 10
-3552.8
 20
1085.6
 10
-3552.8
 20
1084.66666666667
 10
-3532.63448275862
 20
1067.86206896552
 10
-3517.13333333333
 20
1048.13333333333
 10
-3495.85333333333
 20
1017.73333333333
 10
-3464.24307692308
 20
949.015384615387
 10
-3429.6
 20
859.2
 10
-3412
 20
808.076190476191
 10
-3412
 20
742.4
 10
-3413.47096774194
 20
726.219354838709
 10
-3421.89387755102
 20
691.591836734694
 10
-3429.66530612245
 20
670.220408163268
 10
-3443.76
 20
642.970666666666
 10
-3466
 20
614.800000000001
 10
-3483.2
 20
597.6
 10
-3517.28695652174
 20
568.382608695652
 10
-3519.37391304348
 20
563.1652173913041
 10
-3505.6
 20
544.8
 10
-3469
 20
486.24
 10
-3450.4
 20
466.4
 10
-3404
 20
445.6
 10
-3370.4
 20
444.8
 10
-3304.04
 20
461.6
 10
-3288.53333333333
 20
461.6
 10
-3274.88
 20
456.480000000001
 10
-3263.36
 20
444.96
 10
-3256.01176470588
 20
431.488235294118
 10
-3234.4
 20
369.6
 10
-3225.6
 20
369.6
 10
-3185.6
 20
394.4
 10
-3166.4
 20
407.2
 10
-3117.1642172524
 20
436.407667731629
 10
-3092.8
 20
459.2
 10
-3017.10769230769
 20
536.738461538462
 10
-3004.34285714286
 20
546.666666666667
 10
-2979.52
 20
556.3200000000001
 10
-2963.2
 20
559.2
 10
-2949.6
 20
559.2
 10
-2927.2
 20
551.733333333333
 10
-2912
 20
541.600000000001
 10
-2883.2
 20
512.8
 10
-2815.2
 20
448.8
 10
-2800
 20
435.2
 10
-2793.08571428571
 20
435.2
 10
-2611.70932475884
 20
489.227009646302
 10
-2577.6
 20
493.6
 10
-2511.2
 20
522.4
 10
-2469.01818181818
 20
555.127272727273
 10
-2403.36
 20
637.2
 10
-2387.55555555556
 20
654.133333333333
 10
-2374.96
 20
665.76
 10
-2360
 20
675.733333333333
 10
-2339.63636363636
 20
684.218181818182
 10
-2323.6
 20
688.8
 10
-2305.504
 20
691.5839999999999
 10
-2278.7027027027
 20
692.994594594595
 10
-2258.58461538462
 20
691.876923076923
 10
-2238.4
 20
687.84
 10
-2219.85882352941
 20
680.423529411764
 10
-2204.4
 20
668.399999999999
 10
-2191.2
 20
655.2
 10
-2172.42727272727
 20
625.7
 10
-2149.6
 20
579.2
 10
-2076
 20
555.2
 10
-2032
 20
544.8
 10
-1961.6
 20
544.8
 10
-1931.33551912568
 20
540.47650273224
 10
-1927.42857142857
 20
552.685714285715
 10
-1921.6
 20
576
 10
-1901.40992167102
 20
648.534725848564
 10
-1921.74545454545
 20
719.709090909092
 10
-1924
 20
740
 10
-1924
 20
768
 10
-1919.73333333333
 20
789.333333333333
 10
-1914.93333333333
 20
798.9333333333331
 10
-1907.32972972973
 20
809.5783783783791
 10
-1894.3619047619
 20
819.009523809524
 10
-1885.70666666667
 20
821.1733333333329
 10
-1868.65882352941
 20
819.623529411765
 10
-1853.6
 20
813.6
 10
-1839.2
 20
804
 10
-1818.17777777778
 20
784.888888888889
 10
-1801.26315789474
 20
765.557894736841
 10
-1780.8
 20
736
 10
-1736.8
 20
664
 10
-1721.49333333333
 20
631.2
 10
-1703.25818181818
 20
631.2
 10
-1606.68929889299
 20
583.350553505535
 10
-1517.9914893617
 20
537.191489361702
 10
-1508.8
 20
528
 10
-1488.8
 20
498.4
 10
-1472.8
 20
486.4
 10
-1444
 20
481.6
 10
-1393.6
 20
496.8
 10
-1361.6
 20
516
 10
-1355.2
 20
528
 10
-1354.4
 20
549.6
 10
-1361.6
 20
580
 10
-1384
 20
622.4
 10
-1438.41943319838
 20
698.762753036438
 10
-1446.13333333333
 20
715.733333333333
 10
-1450.16907216495
 20
731.876288659794
 10
-1446.8548004315
 20
879.361380798274
 10
-1433.42222222222
 20
911.111111111111
 10
-1426.8
 20
922.7
 10
-1416
 20
936.2
 10
-1407.41818181818
 20
943.7090909090909
 10
-1394.6
 20
951.4
 10
-1383.2
 20
955.2
 10
-1345.43728813559
 20
962.752542372881
 10
-1326.4
 20
975.2
 10
-1314.4
 20
1007.2
 10
-1315.2
 20
1040
 10
-1324.8
 20
1098.4
 10
-1324.8
 20
1113.6
 10
-1322.84444444444
 20
1124.35555555556
 10
-1313.06666666667
 20
1134.13333333333
 10
-1303.24210526316
 20
1136.58947368421
 10
-1288.37735849057
 20
1133.88679245283
 10
-1269.15862068966
 20
1122.67586206897
 10
-1255.2
 20
1111.93846153846
 10
-1221.6
 20
1079.2
 10
-1192.8
 20
1060.8
 10
-1172.71724137931
 20
1060.08275862069
 10
-1156
 20
1076.8
 10
-1126.13333333333
 20
1102
 10
-1083.96404494382
 20
1133.62696629213
 10
-1011.32229299363
 20
1169.53036093418
 10
-976.466666666667
 20
1174.17777777778
 10
-955.2
 20
1160
 10
-946.4
 20
1189.6
 10
-947.091891891892
 20
1205.51351351351
 10
-965.6
 20
1288.8
 10
-976.363636363636
 20
1366.83636363636
 10
-979.703394255875
 20
1372.68093994778
 10
-1101.44615384615
 20
1441.8188034188
 10
-1128.8
 20
1466.13333333333
 10
-1143.54285714286
 20
1482.51428571429
 10
-1179.41132075472
 20
1536.31698113208
 10
-1247.24137931034
 20
1610.40827586207
 10
-1251.2
 20
1611.2
 10
-1254
 20
1616.8
 10
-1256
 20
1624.8
 10
-1256
 20
1641.6
 10
-1234.4
 20
1692
 10
-1216.06153846154
 20
1747.01538461538
 10
-1180.59701492537
 20
1787.54626865672
 10
-1145.68888888889
 20
1818.87407407407
 10
-1137.4
 20
1824.4
 10
-1128.8
 20
1826.85714285714
 10
-1111.08571428571
 20
1829.38775510204
 10
-1088.25365853659
 20
1826.94146341463
 10
-1026.4
 20
1865.6
 10
-991.900000000003
 20
1879.4
 10
-942.813793103503
 20
1886.95172413792
 10
-860.471942446043
 20
1896.5582733813
 10
-833.6
 20
1902.4
 10
-776.8
 20
1964
 10
-772
 20
1972.8
 10
-772
 20
2008
 10
-779.2
 20
2069.6
 10
-793.114252844177
 20
2153.95515786783
 10
-858.874676524954
 20
2145.63105360444
 10
-925.010852713178
 20
2144.56434108527
 10
-933.6
 20
2148
 10
-944
 20
2158.4
 10
-951.2
 20
2170.4
 10
-958.9333333333331
 20
2185.86666666667
 10
-963.2
 20
2207.2
 10
-992.8
 20
2210.4
 10
-1036
 20
2200.8
 10
-1115.2
 20
2168
 10
-1141.41835748792
 20
2150.79420289855
 10
-1171.95616438356
 20
2141.15068493151
 10
-1189.275
 20
2143.075
 10
-1203.71428571429
 20
2148.62857142857
 10
-1268
 20
2187.2
 10
-1273.6
 20
2192.8
 10
-1279.2
 20
2204
 10
-1279.2
 20
2224.2
 10
-1268.8
 20
2304.8
 10
-1280.8
 20
2372.51428571429
 10
-1280.8
 20
2396.8
 10
-1301.89090909091
 20
2415.25454545455
 10
-1332.8
 20
2416.8
 10
-1376.51612903226
 20
2406.86451612903
 10
-1405.6
 20
2394.4
 10
-1414.76363636364
 20
2393.09090909091
 10
-1438.13333333333
 20
2398.93333333333
 10
-1441.33333333333
 20
2397.33333333333
 10
-1442.55238095238
 20
2398.55238095238
 10
-1439.2
 20
2412.8
 10
-1439.2
 20
2459.2
 10
-1434.4
 20
2520
 10
-1452
 20
2563.2
 10
-1472.8
 20
2584.8
 10
-1496
 20
2604
 10
-1505.04
 20
2613.04
 10
-1514.4
 20
2632.8
 10
-1516.52093023256
 20
2649.06046511628
 10
-1539.58709677419
 20
2660.5935483871
 10
-1578.4
 20
2692.8
 10
-1609.03829787234
 20
2690.50212765957
 10
-1671.2
 20
2679.2
 10
-1702.3
 20
2679.2
 10
-1732
 20
2688
 10
-1734.83636363636
 20
2683.27272727273
 10
-1736
 20
2685.6
 10
-1736
 20
2692.8
 10
-1744.8
 20
2710.4
 10
-1744.8
 20
2724
 10
-1742.04444444445
 20
2735.02222222222
 10
-1733.99402985075
 20
2749.11044776119
 10
-1705.6
 20
2782.4
 10
-1677.6
 20
2822.4
 10
-1644.8
 20
2884
 10
-1636
 20
2918.4
 10
-1642.4
 20
2936.8
 10
-1660.8
 20
2944.8
 10
-1683.2
 20
2944.8
 10
-1715.2
 20
2936
 10
-1763.60396039604
 20
2908.34059405941
 10
-1867.2
 20
2797.6
 10
-1871.2
 20
2792.8
 10
-1880.27906976744
 20
2783.72093023256
 10
-1961.84137931034
 20
2744.41379310345
 10
-1984
 20
2739.2
 10
-2012
 20
2735.2
 10
-2094.08
 20
2716.96
 10
-2106.08
 20
2715.96
 10
-2116.64
 20
2717.28
 10
-2139.78666666667
 20
2724.99555555556
 10
-2200.8
 20
2759.2
 10
-2259.2
 20
2774.4
 10
-2293.54666666667
 20
2776.64
 10
-2321.6
 20
2755.6
 10
-2331.12727272727
 20
2750.83636363636
 10
-2360.5875
 20
2742.5875
 10
-2385.43448275862
 20
2737.98620689655
 10
-2416.33684210526
 20
2736.16842105263
 10
-2451.2
 20
2739.2
 10
-2500.42105263158
 20
2746.23157894737
 10
-2562.4
 20
2762.4
 10
-2624.90507462687
 20
2784.14089552239
 10
-2701.6
 20
2792.8
 10
-2767.11111111111
 20
2770.31111111111
 10
-2811.2
 20
2764.8
 10
-2811.2
 20
2746.4
 10
-2816.10666666667
 20
2746.4
 10
-2823.2
 20
2776.8
 10
-2829.6
 20
2780.8
 10
-2838.86315789474
 20
2779.11578947368
 10
-2849.4
 20
2781.75
 10
-2868.63157894737
 20
2792.96842105263
 10
-2890.61463414634
 20
2808.95609756098
 10
-2955.2
 20
2880
 10
-2984.8
 20
2910.4
 10
-2995.01276595745
 20
2915.16595744681
 10
-3018.22222222222
 20
2889.63555555556
 10
-3023.2
 20
2888.64
 10
-3036.33488372093
 20
2889.95348837209
 10
-3046.66666666667
 20
2897.33333333333
 10
-3071.84
 20
2928.8
 10
-3078.4
 20
2928.8
 10
-3108
 20
2899.2
 10
-3149.45454545455
 20
2828.65454545455
 10
-3168
 20
2779.2
 10
-3172.8
 20
2769.6
 10
-3180.8
 20
2761.6
 10
-3189.44
 20
2757.28
 10
-3198.4
 20
2756
 10
-3223.2
 20
2756
 10
-3251.2
 20
2750.4
 10
-3259.2
 20
2750.4
 10
-3267.2
 20
2754.4
 10
-3277.76
 20
2761.44
 10
-3297.98918918919
 20
2791.78378378378
 10
-3348.65714285715
 20
2816.65714285714
 10
-3362.24
 20
2830.24
 10
-3397.16363636364
 20
2890.10909090909
 10
-3404.8
 20
2899.2
 10
-3421.6
 20
2907.2
 10
-3434.4
 20
2905.6
 10
-3456
 20
2892.8
 10
-3437.4288372093
 20
2828.20465116279
 10
-3422.34666666667
 20
2766.93333333334
 10
-3408
 20
2695.2
 10
-3386.02105263158
 20
2658.56842105263
 10
-3377.6
 20
2631.2
 10
-3367.4
 20
2612.6
 10
-3354.8
 20
2591.6
 10
-3348.8
 20
2573.6
 10
-3348.8
 20
2552.8
 10
-3355.84
 20
2538.72
 10
-3372.4
 20
2514.8
 10
-3404.58181818182
 20
2482.61818181818
 10
-3422.66285714286
 20
2442.43809523809
 10
-3451.2
 20
2399.2
 10
-3465.795599022
 20
2378.99070904645
 10
-3501.81682242991
 20
2352.72523364486
 10
-3478.4
 20
2317.6
 10
-3473.79649122807
 20
2307.24210526316
 10
-3466.423500612
 20
2275.64357405141
 10
-3465.67975830816
 20
2185.65075528701
 10
-3456
 20
2082.4
 10
-3419.50545454545
 20
1961.68727272727
 10
-3380.18156028369
 20
1873.2085106383
 10
-3359.49473684211
 20
1855.83157894737
 10
-3350.4
 20
1845.6
 10
-3343.68
 20
1835.52
 10
-3339.2
 20
1823.2
 10
-3337.6
 20
1812.8
 10
-3337.6
 20
1732.8
 10
-3327.2
 20
1660
 10
-3327.2
 20
1615.2
 10
-3333.7641025641
 20
1542.99487179487
 10
-3331.56363636364
 20
1524.29090909091
 10
-3336
 20
1488.8
 10
-3345.6
 20
1460
 10
-3359.6
 20
1432
 10
-3378.98378378378
 20
1410.85405405405
 10
-3395.2
 20
1396.8
 10
-3443.2
 20
1360.8
 10
-3529.6
 20
1300.8
 10
-3525.6
 20
1262.4
 10
-3525.6
 20
1213.2
 10
-3528
 20
1183.2
 10
-3535.73333333333
 20
1136.8
  0
ENDSEC
  0
SECTION
  2
OBJECTS
  0
DICTIONARY
  5
C
330
0
100
AcDbDictionary
281
    1
  3
ACAD_GROUP
350
D
  0
DICTIONARY
  5
D
330
C
100
AcDbDictionary
281
    1
  0
PLOTSETTINGS
  5
92
100
AcDbPlotSettings
  6
1x1
 40
0
 41
0
 42
0
 43
0
  0
ENDSEC
  0
EOF
