999
dxfrw 0.6.3
  0
SECTION
  2
HEADER
  9
$ACADVER
  1
AC1021
  9
$DWGCODEPAGE
  3
ANSI_1250
  9
$INSBASE
 10
0
 20
0
 30
0
  9
$EXTMIN
 10
-3577.78285714286
 20
323.2
 30
0
  9
$EXTMAX
 10
-796
 20
3080
 30
0
  9
$LIMMIN
 10
0
 20
0
  9
$LIMMAX
 10
420
 20
297
  9
$ORTHOMODE
 70
    0
  9
$REGENMODE
 70
    1
  9
$FILLMODE
 70
    1
  9
$QTEXTMODE
 70
    0
  9
$MIRRTEXT
 70
    0
  9
$LTSCALE
 40
1
  9
$ATTMODE
 70
    0
  9
$TEXTSIZE
 40
2.5
  9
$TRACEWID
 40
15.68
  9
$TEXTSTYLE
  7
STANDARD
  9
$CLAYER
  8
72
  9
$CELTYPE
  6
BYLAYER
  9
$CECOLOR
 62
  256
  9
$CELTSCALE
 40
1
  9
$DISPSILH
 70
    0
  9
$DIMSCALE
 40
2.5
  9
$DIMASZ
 40
2.5
  9
$DIMEXO
 40
0.625
  9
$DIMDLI
 40
3.75
  9
$DIMRND
 40
0
  9
$DIMDLE
 40
0
  9
$DIMEXE
 40
1.25
  9
$DIMTP
 40
0
  9
$DIMTM
 40
0
  9
$DIMTXT
 40
2.5
  9
$DIMCEN
 40
2.5
  9
$DIMTSZ
 40
0
  9
$DIMTOL
 70
    0
  9
$DIMLIM
 70
    0
  9
$DIMTIH
 70
    0
  9
$DIMTOH
 70
    0
  9
$DIMSE1
 70
    0
  9
$DIMSE2
 70
    0
  9
$DIMTAD
 70
    1
  9
$DIMZIN
 70
    8
  9
$DIMBLK
  1

  9
$DIMASO
 70
    1
  9
$DIMSHO
 70
    1
  9
$DIMPOST
  1

  9
$DIMAPOST
  1

  9
$DIMALT
 70
    0
  9
$DIMALTD
 70
    3
  9
$DIMALTF
 40
0.03937
  9
$DIMLFAC
 40
1
  9
$DIMTOFL
 70
    1
  9
$DIMTVP
 40
0
  9
$DIMTIX
 70
    0
  9
$DIMSOXD
 70
    0
  9
$DIMSAH
 70
    0
  9
$DIMBLK1
  1

  9
$DIMBLK2
  1

  9
$DIMSTYLE
  2
Standard
  9
$DIMCLRD
 70
    0
  9
$DIMCLRE
 70
    0
  9
$DIMCLRT
 70
    0
  9
$DIMTFAC
 40
1
  9
$DIMGAP
 40
0.625
  9
$DIMJUST
 70
    0
  9
$DIMSD1
 70
    0
  9
$DIMSD2
 70
    0
  9
$DIMTOLJ
 70
    0
  9
$DIMTZIN
 70
    8
  9
$DIMALTZ
 70
    0
  9
$DIMALTTZ
 70
    0
  9
$DIMUPT
 70
    0
  9
$DIMDEC
 70
    2
  9
$DIMTDEC
 70
    2
  9
$DIMALTU
 70
    2
  9
$DIMALTTD
 70
    3
  9
$DIMTXSTY
  7
STANDARD
  9
$DIMAUNIT
 70
    0
  9
$DIMADEC
 70
    0
  9
$DIMALTRND
 40
0
  9
$DIMAZIN
 70
    0
  9
$DIMDSEP
 70
   44
  9
$DIMATFIT
 70
    3
  9
$DIMFRAC
 70
    0
  9
$DIMLDRBLK
  1
STANDARD
  9
$DIMLUNIT
 70
    2
  9
$DIMLWD
 70
   -2
  9
$DIMLWE
 70
   -2
  9
$DIMTMOVE
 70
    0
  9
$DIMFXL
 40
1
  9
$DIMFXLON
 70
    0
  9
$DIMJOGANG
 40
0.7854
  9
$DIMTFILL
 70
    0
  9
$DIMTFILLCLR
 70
    0
  9
$DIMARCSYM
 70
    0
  9
$DIMLTYPE
  6

  9
$DIMLTEX1
  6

  9
$DIMLTEX2
  6

  9
$LUNITS
 70
    2
  9
$LUPREC
 70
    4
  9
$SKETCHINC
 40
1
  9
$FILLETRAD
 40
0
  9
$AUNITS
 70
    0
  9
$AUPREC
 70
    2
  9
$MENU
  1
.
  9
$ELEVATION
 40
0
  9
$PELEVATION
 40
0
  9
$THICKNESS
 40
0
  9
$LIMCHECK
 70
    0
  9
$CHAMFERA
 40
0
  9
$CHAMFERB
 40
0
  9
$CHAMFERC
 40
0
  9
$CHAMFERD
 40
0
  9
$SKPOLY
 70
    0
  9
$USRTIMER
 70
    1
  9
$ANGBASE
 50
0
  9
$ANGDIR
 70
    0
  9
$PDMODE
 70
   34
  9
$PDSIZE
 40
0
  9
$PLINEWID
 40
0
  9
$SPLFRAME
 70
    0
  9
$SPLINETYPE
 70
    2
  9
$SPLINESEGS
 70
    8
  9
$HANDSEED
  5
20000
  9
$SURFTAB1
 70
    6
  9
$SURFTAB2
 70
    6
  9
$SURFTYPE
 70
    6
  9
$SURFU
 70
    6
  9
$SURFV
 70
    6
  9
$UCSBASE
  2

  9
$UCSNAME
  2

  9
$UCSORG
 10
0
 20
0
 30
0
  9
$UCSXDIR
 10
1
 20
0
 30
0
  9
$UCSYDIR
 10
0
 20
1
 30
0
  9
$UCSORTHOREF
  2

  9
$UCSORTHOVIEW
 70
    0
  9
$UCSORGTOP
 10
0
 20
0
 30
0
  9
$UCSORGBOTTOM
 10
0
 20
0
 30
0
  9
$UCSORGLEFT
 10
0
 20
0
 30
0
  9
$UCSORGRIGHT
 10
0
 20
0
 30
0
  9
$UCSORGFRONT
 10
0
 20
0
 30
0
  9
$UCSORGBACK
 10
0
 20
0
 30
0
  9
$PUCSBASE
  2

  9
$PUCSNAME
  2

  9
$PUCSORG
 10
0
 20
0
 30
0
  9
$PUCSXDIR
 10
1
 20
0
 30
0
  9
$PUCSYDIR
 10
0
 20
1
 30
0
  9
$PUCSORTHOREF
  2

  9
$PUCSORTHOVIEW
 70
    0
  9
$PUCSORGTOP
 10
0
 20
0
 30
0
  9
$PUCSORGBOTTOM
 10
0
 20
0
 30
0
  9
$PUCSORGLEFT
 10
0
 20
0
 30
0
  9
$PUCSORGRIGHT
 10
0
 20
0
 30
0
  9
$PUCSORGFRONT
 10
0
 20
0
 30
0
  9
$PUCSORGBACK
 10
0
 20
0
 30
0
  9
$USERI1
 70
    0
  9
$USERI2
 70
    0
  9
$USERI3
 70
    0
  9
$USERI4
 70
    0
  9
$USERI5
 70
    0
  9
$USERR1
 40
0
  9
$USERR2
 40
0
  9
$USERR3
 40
0
  9
$USERR4
 40
0
  9
$USERR5
 40
0
  9
$WORLDVIEW
 70
    1
  9
$SHADEDGE
 70
    3
  9
$SHADEDIF
 70
   70
  9
$TILEMODE
 70
    1
  9
$MAXACTVP
 70
   64
  9
$PINSBASE
 10
0
 20
0
 30
0
  9
$PLIMCHECK
 70
    0
  9
$PEXTMIN
 10
0
 20
0
 30
0
  9
$PEXTMAX
 10
0
 20
0
 30
0
  9
$SNAPSTYLE
 70
    0
  9
$PLIMMIN
 10
0
 20
0
  9
$PLIMMAX
 10
297
 20
210
  9
$UNITMODE
 70
    0
  9
$VISRETAIN
 70
    1
  9
$PLINEGEN
 70
    0
  9
$PSLTSCALE
 70
    1
  9
$TREEDEPTH
 70
 3020
  9
$CMLSTYLE
  2
Standard
  9
$CMLJUST
 70
    0
  9
$CMLSCALE
 40
20
  9
$PROXYGRAPHICS
 70
    1
  9
$MEASUREMENT
 70
    1
  9
$CELWEIGHT
370
   -1
  9
$ENDCAPS
280
    0
  9
$JOINSTYLE
280
    0
  9
$LWDISPLAY
290
    0
  9
$INSUNITS
 70
    4
  9
$HYPERLINKBASE
  1

  9
$STYLESHEET
  1

  9
$XEDIT
290
    1
  9
$CEPSNTYPE
380
    0
  9
$PSTYLEMODE
290
    1
  9
$EXTNAMES
290
    1
  9
$PSVPSCALE
 40
1
  9
$OLESTARTUP
290
    0
  9
$SORTENTS
280
  127
  9
$INDEXCTL
280
    0
  9
$HIDETEXT
280
    1
  9
$XCLIPFRAME
290
    0
  9
$HALOGAP
280
    0
  9
$OBSCOLOR
 70
  257
  9
$OBSLTYPE
280
    0
  9
$INTERSECTIONDISPLAY
280
    0
  9
$INTERSECTIONCOLOR
 70
  257
  9
$DIMASSOC
280
    1
  9
$PROJECTNAME
  1

  9
$CAMERADISPLAY
290
    0
  9
$LENSLENGTH
 40
50
  9
$CAMERAHEIGHT
 40
0
  9
$STEPSPERSEC
 40
2
  9
$STEPSIZE
 40
50
  9
$3DDWFPREC
 40
2
  9
$PSOLWIDTH
 40
5
  9
$PSOLHEIGHT
 40
80
  9
$LOFTANG1
 40
1.570796326794897
  9
$LOFTANG2
 40
1.570796326794897
  9
$LOFTMAG1
 40
0
  9
$LOFTMAG2
 40
0
  9
$LOFTPARAM
 70
    7
  9
$LOFTNORMALS
280
    1
  9
$LATITUDE
 40
1
  9
$LONGITUDE
 40
1
  9
$NORTHDIRECTION
 40
0
  9
$TIMEZONE
 70
-8000
  9
$LIGHTGLYPHDISPLAY
280
    1
  9
$TILEMODELIGHTSYNCH
280
    1
  9
$SOLIDHIST
280
    1
  9
$SHOWHIST
280
    1
  9
$DWFFRAME
280
    2
  9
$DGNFRAME
280
    0
  9
$REALWORLDSCALE
290
    1
  9
$INTERFERECOLOR
 62
    1
  9
$CSHADOW
280
    0
  9
$SHADOWPLANELOCATION
 40
0
  0
ENDSEC
  0
SECTION
  2
CLASSES
  0
ENDSEC
  0
SECTION
  2
TABLES
  0
TABLE
  2
VPORT
  5
8
330
0
100
AcDbSymbolTable
 70
    1
  0
VPORT
  5
31
330
2
100
AcDbSymbolTableRecord
100
AcDbViewportTableRecord
  2
*ACTIVE
 70
    0
 10
0
 20
0
 11
1
 21
1
 12
-1371.361600307417
 22
736.6539362152918
 13
0
 23
0
 14
10
 24
10
 15
10
 25
10
 16
0
 26
0
 36
1
 17
0
 27
0
 37
0
 40
509.1172264464167
 41
1.932448733413751
 42
50
 43
0
 44
0
 50
0
 51
0
 71
    0
 72
  100
 73
    1
 74
    3
 75
    0
 76
    1
 77
    0
 78
    0
281
    0
 65
    1
110
0
120
0
130
0
111
1
121
0
131
0
112
0
122
1
132
0
 79
    0
146
0
348
10020
 60
    7
 61
    5
292
1
282
    1
141
0
142
0
 63
  250
421
3358443
  0
ENDTAB
  0
TABLE
  2
LTYPE
  5
5
330
0
100
AcDbSymbolTable
 70
    4
  0
LTYPE
  5
14
330
5
100
AcDbSymbolTableRecord
100
AcDbLinetypeTableRecord
  2
ByBlock
 70
    0
  3

 72
   65
 73
    0
 40
0
  0
LTYPE
  5
15
330
5
100
AcDbSymbolTableRecord
100
AcDbLinetypeTableRecord
  2
ByLayer
 70
    0
  3

 72
   65
 73
    0
 40
0
  0
LTYPE
  5
16
330
5
100
AcDbSymbolTableRecord
100
AcDbLinetypeTableRecord
  2
Continuous
 70
    0
  3
Solid line
 72
   65
 73
    0
 40
0
  0
LTYPE
  5
32
330
5
100
AcDbSymbolTableRecord
100
AcDbLinetypeTableRecord
  2
DOT
 70
    0
  3
Dot . . . . . . . . . . . . . . . . . . . . . .
 72
   65
 73
    2
 40
6.35
 49
0
 74
    0
 49
-6.35
 74
    0
  0
LTYPE
  5
33
330
5
100
AcDbSymbolTableRecord
100
AcDbLinetypeTableRecord
  2
DOTTINY
 70
    0
  3
Dot (.15x) .....................................
 72
   65
 73
    2
 40
0.9525
 49
0
 74
    0
 49
-0.9525
 74
    0
  0
LTYPE
  5
34
330
5
100
AcDbSymbolTableRecord
100
AcDbLinetypeTableRecord
  2
DOT2
 70
    0
  3
Dot (.5x) .....................................
 72
   65
 73
    2
 40
3.175
 49
0
 74
    0
 49
-3.175
 74
    0
  0
LTYPE
  5
35
330
5
100
AcDbSymbolTableRecord
100
AcDbLinetypeTableRecord
  2
DOTX2
 70
    0
  3
Dot (2x) .  .  .  .  .  .  .  .  .  .  .  .  .
 72
   65
 73
    2
 40
12.7
 49
0
 74
    0
 49
-12.7
 74
    0
  0
LTYPE
  5
36
330
5
100
AcDbSymbolTableRecord
100
AcDbLinetypeTableRecord
  2
DASHED
 70
    0
  3
Dashed _ _ _ _ _ _ _ _ _ _ _ _ _ _ _ _ _
 72
   65
 73
    2
 40
19.05
 49
12.7
 74
    0
 49
-6.35
 74
    0
  0
LTYPE
  5
37
330
5
100
AcDbSymbolTableRecord
100
AcDbLinetypeTableRecord
  2
DASHEDTINY
 70
    0
  3
Dashed (.15x) _ _ _ _ _ _ _ _ _ _ _ _ _ _ _ _ _
 72
   65
 73
    2
 40
2.8575
 49
1.905
 74
    0
 49
-0.9525
 74
    0
  0
LTYPE
  5
38
330
5
100
AcDbSymbolTableRecord
100
AcDbLinetypeTableRecord
  2
DASHED2
 70
    0
  3
Dashed (.5x) _ _ _ _ _ _ _ _ _ _ _ _ _ _ _ _ _
 72
   65
 73
    2
 40
9.524999999999999
 49
6.35
 74
    0
 49
-3.175
 74
    0
  0
LTYPE
  5
39
330
5
100
AcDbSymbolTableRecord
100
AcDbLinetypeTableRecord
  2
DASHEDX2
 70
    0
  3
Dashed (2x) ____  ____  ____  ____  ____  ___
 72
   65
 73
    2
 40
38.09999999999999
 49
25.4
 74
    0
 49
-12.7
 74
    0
  0
LTYPE
  5
3A
330
5
100
AcDbSymbolTableRecord
100
AcDbLinetypeTableRecord
  2
DASHDOT
 70
    0
  3
Dash dot __ . __ . __ . __ . __ . __ . __ . __
 72
   65
 73
    4
 40
25.4
 49
12.7
 74
    0
 49
-6.35
 74
    0
 49
0
 74
    0
 49
-6.35
 74
    0
  0
LTYPE
  5
3B
330
5
100
AcDbSymbolTableRecord
100
AcDbLinetypeTableRecord
  2
DASHDOTTINY
 70
    0
  3
Dash dot (.15x) _._._._._._._._._._._._._._._.
 72
   65
 73
    4
 40
3.81
 49
1.905
 74
    0
 49
-0.9525
 74
    0
 49
0
 74
    0
 49
-0.9525
 74
    0
  0
LTYPE
  5
3C
330
5
100
AcDbSymbolTableRecord
100
AcDbLinetypeTableRecord
  2
DASHDOT2
 70
    0
  3
Dash dot (.5x) _._._._._._._._._._._._._._._.
 72
   65
 73
    4
 40
12.7
 49
6.35
 74
    0
 49
-3.175
 74
    0
 49
0
 74
    0
 49
-3.175
 74
    0
  0
LTYPE
  5
3D
330
5
100
AcDbSymbolTableRecord
100
AcDbLinetypeTableRecord
  2
DASHDOTX2
 70
    0
  3
Dash dot (2x) ____  .  ____  .  ____  .  ___
 72
   65
 73
    4
 40
50.8
 49
25.4
 74
    0
 49
-12.7
 74
    0
 49
0
 74
    0
 49
-12.7
 74
    0
  0
LTYPE
  5
3E
330
5
100
AcDbSymbolTableRecord
100
AcDbLinetypeTableRecord
  2
DIVIDE
 70
    0
  3
Divide ____ . . ____ . . ____ . . ____ . . ____
 72
   65
 73
    6
 40
31.75
 49
12.7
 74
    0
 49
-6.35
 74
    0
 49
0
 74
    0
 49
-6.35
 74
    0
 49
0
 74
    0
 49
-6.35
 74
    0
  0
LTYPE
  5
3F
330
5
100
AcDbSymbolTableRecord
100
AcDbLinetypeTableRecord
  2
DIVIDETINY
 70
    0
  3
Divide (.15x) __..__..__..__..__..__..__..__.._
 72
   65
 73
    6
 40
4.7625
 49
1.905
 74
    0
 49
-0.9525
 74
    0
 49
0
 74
    0
 49
-0.9525
 74
    0
 49
0
 74
    0
 49
-0.9525
 74
    0
  0
LTYPE
  5
40
330
5
100
AcDbSymbolTableRecord
100
AcDbLinetypeTableRecord
  2
DIVIDE2
 70
    0
  3
Divide (.5x) __..__..__..__..__..__..__..__.._
 72
   65
 73
    6
 40
15.875
 49
6.35
 74
    0
 49
-3.175
 74
    0
 49
0
 74
    0
 49
-3.175
 74
    0
 49
0
 74
    0
 49
-3.175
 74
    0
  0
LTYPE
  5
41
330
5
100
AcDbSymbolTableRecord
100
AcDbLinetypeTableRecord
  2
DIVIDEX2
 70
    0
  3
Divide (2x) ________  .  .  ________  .  .  _
 72
   65
 73
    6
 40
63.5
 49
25.4
 74
    0
 49
-12.7
 74
    0
 49
0
 74
    0
 49
-12.7
 74
    0
 49
0
 74
    0
 49
-12.7
 74
    0
  0
LTYPE
  5
42
330
5
100
AcDbSymbolTableRecord
100
AcDbLinetypeTableRecord
  2
BORDER
 70
    0
  3
Border __ __ . __ __ . __ __ . __ __ . __ __ .
 72
   65
 73
    6
 40
44.45
 49
12.7
 74
    0
 49
-6.35
 74
    0
 49
12.7
 74
    0
 49
-6.35
 74
    0
 49
0
 74
    0
 49
-6.35
 74
    0
  0
LTYPE
  5
43
330
5
100
AcDbSymbolTableRecord
100
AcDbLinetypeTableRecord
  2
BORDERTINY
 70
    0
  3
Border (.15x) __.__.__.__.__.__.__.__.__.__.__.
 72
   65
 73
    6
 40
6.6675
 49
1.905
 74
    0
 49
-0.9525
 74
    0
 49
1.905
 74
    0
 49
-0.9525
 74
    0
 49
0
 74
    0
 49
-0.9525
 74
    0
  0
LTYPE
  5
44
330
5
100
AcDbSymbolTableRecord
100
AcDbLinetypeTableRecord
  2
BORDER2
 70
    0
  3
Border (.5x) __.__.__.__.__.__.__.__.__.__.__.
 72
   65
 73
    6
 40
22.225
 49
6.35
 74
    0
 49
-3.175
 74
    0
 49
6.35
 74
    0
 49
-3.175
 74
    0
 49
0
 74
    0
 49
-3.175
 74
    0
  0
LTYPE
  5
45
330
5
100
AcDbSymbolTableRecord
100
AcDbLinetypeTableRecord
  2
BORDERX2
 70
    0
  3
Border (2x) ____  ____  .  ____  ____  .  ___
 72
   65
 73
    6
 40
88.89999999999999
 49
25.4
 74
    0
 49
-12.7
 74
    0
 49
25.4
 74
    0
 49
-12.7
 74
    0
 49
0
 74
    0
 49
-12.7
 74
    0
  0
LTYPE
  5
46
330
5
100
AcDbSymbolTableRecord
100
AcDbLinetypeTableRecord
  2
CENTER
 70
    0
  3
Center ____ _ ____ _ ____ _ ____ _ ____ _ ____
 72
   65
 73
    4
 40
50.8
 49
31.75
 74
    0
 49
-6.35
 74
    0
 49
6.35
 74
    0
 49
-6.35
 74
    0
  0
LTYPE
  5
47
330
5
100
AcDbSymbolTableRecord
100
AcDbLinetypeTableRecord
  2
CENTERTINY
 70
    0
  3
Center (.15x) ___ _ ___ _ ___ _ ___ _ ___ _ ___
 72
   65
 73
    4
 40
7.62
 49
4.7625
 74
    0
 49
-0.9525
 74
    0
 49
0.9525
 74
    0
 49
-0.9525
 74
    0
  0
LTYPE
  5
48
330
5
100
AcDbSymbolTableRecord
100
AcDbLinetypeTableRecord
  2
CENTER2
 70
    0
  3
Center (.5x) ___ _ ___ _ ___ _ ___ _ ___ _ ___
 72
   65
 73
    4
 40
28.575
 49
19.05
 74
    0
 49
-3.175
 74
    0
 49
3.175
 74
    0
 49
-3.175
 74
    0
  0
LTYPE
  5
49
330
5
100
AcDbSymbolTableRecord
100
AcDbLinetypeTableRecord
  2
CENTERX2
 70
    0
  3
Center (2x) ________  __  ________  __  _____
 72
   65
 73
    4
 40
101.6
 49
63.5
 74
    0
 49
-12.7
 74
    0
 49
12.7
 74
    0
 49
-12.7
 74
    0
  0
ENDTAB
  0
TABLE
  2
LAYER
  5
2
330
0
100
AcDbSymbolTable
 70
    1
  0
LAYER
  5
10
330
2
100
AcDbSymbolTableRecord
100
AcDbLayerTableRecord
  2
0
 70
    0
 62
    7
  6
CONTINUOUS
370
    0
390
F
  0
LAYER
  5
4A
330
2
100
AcDbSymbolTableRecord
100
AcDbLayerTableRecord
  2
1
 70
    0
 62
    7
  6
CONTINUOUS
370
   -3
390
F
  0
LAYER
  5
4B
330
2
100
AcDbSymbolTableRecord
100
AcDbLayerTableRecord
  2
51
 70
    0
 62
    7
  6
CONTINUOUS
370
   -3
390
F
  0
LAYER
  5
4C
330
2
100
AcDbSymbolTableRecord
100
AcDbLayerTableRecord
  2
52
 70
    0
 62
    7
  6
CONTINUOUS
370
   -3
390
F
  0
LAYER
  5
4D
330
2
100
AcDbSymbolTableRecord
100
AcDbLayerTableRecord
  2
53
 70
    0
 62
    7
  6
CONTINUOUS
370
   -3
390
F
  0
LAYER
  5
4E
330
2
100
AcDbSymbolTableRecord
100
AcDbLayerTableRecord
  2
54
 70
    0
 62
    7
  6
CONTINUOUS
370
   -3
390
F
  0
LAYER
  5
4F
330
2
100
AcDbSymbolTableRecord
100
AcDbLayerTableRecord
  2
72
 70
    0
 62
    7
  6
CONTINUOUS
370
   -3
390
F
  0
ENDTAB
  0
TABLE
  2
STYLE
  5
3
330
0
100
AcDbSymbolTable
 70
    3
  0
STYLE
  5
50
330
2
100
AcDbSymbolTableRecord
100
AcDbTextStyleTableRecord
  2
STANDARD
 70
    0
 40
0
 41
1
 50
0
 71
    0
 42
1
  3
STANDARD
  4

  0
ENDTAB
  0
TABLE
  2
VIEW
  5
6
330
0
100
AcDbSymbolTable
 70
    0
  0
ENDTAB
  0
TABLE
  2
UCS
  5
7
330
0
100
AcDbSymbolTable
 70
    0
  0
ENDTAB
  0
TABLE
  2
APPID
  5
9
330
0
100
AcDbSymbolTable
 70
    1
  0
APPID
  5
12
330
9
100
AcDbSymbolTableRecord
100
AcDbRegAppTableRecord
  2
ACAD
 70
    0
  0
APPID
  5
51
330
9
100
AcDbSymbolTableRecord
100
AcDbRegAppTableRecord
  2
LibreCad
 70
    0
  0
ENDTAB
  0
TABLE
  2
DIMSTYLE
  5
A
330
0
100
AcDbSymbolTable
 70
    1
100
AcDbDimStyleTable
 71
    1
  0
DIMSTYLE
105
52
330
A
100
AcDbSymbolTableRecord
100
AcDbDimStyleTableRecord
  2
Standard
 70
    0
 40
1
 41
2.5
 42
0.625
 43
0.38
 44
1.25
 45
0
 46
0
 47
0
 48
0
 49
1
140
2.5
141
0.09
142
2.5
143
25.4
144
1
145
0
146
1
147
0.625
148
0
 71
    0
 72
    0
 73
    0
 74
    1
 75
    0
 76
    0
 77
    0
 78
    1
 79
    0
170
    0
171
    2
172
    0
173
    0
174
    0
175
    0
176
    0
177
    0
178
    0
179
    0
271
    2
272
    4
273
    2
274
    2
275
    0
276
    0
277
    2
278
    0
279
    0
280
    0
281
    0
282
    0
283
    1
284
    0
285
    0
286
    0
288
    0
289
    3
340
standard
341

371
   -2
372
   -2
  0
ENDTAB
  0
TABLE
  2
BLOCK_RECORD
  5
1
330
0
100
AcDbSymbolTable
 70
    2
  0
BLOCK_RECORD
  5
1F
330
1
100
AcDbSymbolTableRecord
100
AcDbBlockTableRecord
  2
*Model_Space
 70
    0
280
    1
281
    0
  0
BLOCK_RECORD
  5
1E
330
1
100
AcDbSymbolTableRecord
100
AcDbBlockTableRecord
  2
*Paper_Space
 70
    0
280
    1
281
    0
  0
ENDTAB
  0
ENDSEC
  0
SECTION
  2
BLOCKS
  0
BLOCK
  5
20
330
1F
100
AcDbEntity
  8
0
100
AcDbBlockBegin
  2
*Model_Space
 70
    0
 10
0
 20
0
 30
0
  3
*Model_Space
  1

  0
ENDBLK
  5
21
330
1F
100
AcDbEntity
  8
0
100
AcDbBlockEnd
  0
BLOCK
  5
1C
330
1B
100
AcDbEntity
  8
0
100
AcDbBlockBegin
  2
*Paper_Space
 70
    0
 10
0
 20
0
 30
0
  3
*Paper_Space
  1

  0
ENDBLK
  5
1D
330
1F
100
AcDbEntity
  8
0
100
AcDbBlockEnd
  0
ENDSEC
  0
SECTION
  2
ENTITIES
  0
TEXT
  5
53
100
AcDbEntity
  8
72
  6
ByLayer
 62
    3
370
   -1
100
AcDbText
 10
-3258.8
 20
2362.8
 30
0
 40
8
  1
MARK_1
 50
90
 41
1
 51
0
  7
STANDARD
 71
    0
 11
-3258.8
 21
2362.8
 31
0
210
0
220
0
230
1
100
AcDbText
 73
    1
  0
TEXT
  5
54
100
AcDbEntity
  8
72
  6
ByLayer
 62
    3
370
   -1
100
AcDbText
 10
-3310
 20
1153.2
 30
0
 40
8
  1
MARK_2
 50
90
 41
1
 51
0
  7
STANDARD
 71
    0
 11
-3310
 21
1153.2
 31
0
210
0
220
0
230
1
100
AcDbText
 73
    1
  0
LWPOLYLINE
  5
55
100
AcDbEntity
  8
51
  6
ByLayer
 62
    7
370
   -1
100
AcDbPolyline
 90
   17
 70
    1
 43
0
 10
-1565.98653565293
 20
1485.22451703326
 10
-1556.53578135619
 20
1470.04978936341
 10
-1540.94356742467
 20
1449.08829003679
 10
-1525.16609586243
 20
1430.33143484798
 10
-1499.93064149517
 20
1403.71387909814
 10
-1474.99826118631
 20
1379.81535279053
 10
-1447.2361486585
 20
1355.03604857873
 10
-1415.31770987353
 20
1330.0510785272
 10
-1390.39942499854
 20
1312.47814927008
 10
-1364.28355176404
 20
1295.4985912779
 10
-1336.62558400995
 20
1279.10176313396
 10
-1308.91395421272
 20
1264.3684236593
 10
-1281.91133066681
 20
1251.60891581111
 10
-1255.06630244998
 20
1240.15264828425
 10
-1220.32225017927
 20
1227.09423522062
 10
-1188.77383160881
 20
1216.85189672933
 10
-1155.69577590559
 20
1208.0050193363
  0
LWPOLYLINE
  5
56
100
AcDbEntity
  8
51
  6
ByLayer
 62
    7
370
   -1
100
AcDbPolyline
 90
   16
 70
    1
 43
0
 10
-1557.29487035466
 20
1238.05474768246
 10
-1242.21383536161
 20
1482.00540676441
 10
-1264.63064788203
 20
1476.17903792646
 10
-1287.36519176686
 20
1468.26078371471
 10
-1313.19405145115
 20
1457.85643343465
 10
-1334.183246553
 20
1448.11278405471
 10
-1356.24727789836
 20
1436.81955854388
 10
-1386.52069803606
 20
1419.87189834041
 10
-1408.95254765419
 20
1405.44976667226
 10
-1430.78977052246
 20
1388.96120931885
 10
-1444.92749003864
 20
1377.10657958437
 10
-1465.07654717208
 20
1358.52739174002
 10
-1483.33204763084
 20
1339.13386700747
 10
-1499.62616078703
 20
1320.26168855035
 10
-1541.85242012421
 20
1265.84324573924
 10
-1553.124876757
 20
1247.33598157757
  0
LWPOLYLINE
  5
57
100
AcDbEntity
  8
51
  6
ByLayer
 62
    7
370
   -1
100
AcDbPolyline
 90
   34
 70
    1
 43
0
 10
-2969.23150553409
 20
2805.89496710724
 10
-2968.30110953353
 20
2780.05987921769
 10
-2963.91636895453
 20
2751.30664545326
 10
-2958.19743584686
 20
2727.3854381776
 10
-2950.25897110893
 20
2702.64783619011
 10
-2940.12917652366
 20
2678.43264896408
 10
-2924.35109147905
 20
2648.799079348
 10
-2911.3933767612
 20
2628.61233674604
 10
-2891.55568926464
 20
2602.67722014113
 10
-2874.73346533859
 20
2583.87369706308
 10
-2855.8994464201
 20
2565.63940304551
 10
-2835.98763103493
 20
2549.1735047014
 10
-2815.17430637738
 20
2534.50174671658
 10
-2794.09926476058
 20
2522.27570714642
 10
-2773.29023523013
 20
2512.44143939593
 10
-2759.324167121
 20
2507.34533609911
 10
-2745.37932958779
 20
2503.37580949391
 10
-2724.6466516916
 20
2499.92647688614
 10
-2705.14764381863
 20
2499.38230321961
 10
-2692.9992394803
 20
2500.68623924595
 10
-2675.96857099452
 20
2504.73515789773
 10
-2654.81460738868
 20
2513.2864901139
 10
-2634.94318823705
 20
2524.49011511383
 10
-2617.24589533813
 20
2538.34952184382
 10
-2605.94723551213
 20
2550.44266704579
 10
-2599.47537390291
 20
2559.35142858517
 10
-2588.69656963502
 20
2579.31037975827
 10
-2582.28674639421
 20
2595.86442026042
 10
-2577.44657972169
 20
2613.49467249211
 10
-2571.81018157949
 20
2644.50898344198
 10
-2568.57824095257
 20
2669.88543591058
 10
-2565.83403437578
 20
2694.44570736583
 10
-2564.95080713703
 20
2723.73912147011
 10
-2967.27396913765
 20
2828.26678395174
  0
LWPOLYLINE
  5
58
100
AcDbEntity
  8
51
  6
ByLayer
 62
    7
370
   -1
100
AcDbPolyline
 90
   18
 70
    1
 43
0
 10
-1522.2155490631
 20
2018.51884131292
 10
-1520.87993210713
 20
2003.75734835171
 10
-1515.21775377284
 20
1975.20310655287
 10
-1507.70675026293
 20
1949.35298343404
 10
-1497.02409711866
 20
1922.45941526107
 10
-1486.66616283157
 20
1900.86114978386
 10
-1469.54274744244
 20
1871.3677649574
 10
-1449.28708977614
 20
1841.93084273222
 10
-1432.1668876095
 20
1819.9544178745
 10
-1413.88484089514
 20
1798.48393538517
 10
-1387.71775507672
 20
1770.78108463711
 10
-1359.29942748808
 20
1743.26668759042
 10
-1331.03435210938
 20
1717.93938949703
 10
-1310.09731650981
 20
1700.75834175176
 10
-1282.67051990461
 20
1679.94978408718
 10
-1256.33014358926
 20
1661.35235686027
 10
-1212.09170174863
 20
1631.8975029179
 10
-1197.64001684244
 20
1620.31095047886
  0
LWPOLYLINE
  5
59
100
AcDbEntity
  8
51
  6
ByLayer
 62
    7
370
   -1
100
AcDbPolyline
 90
    6
 70
    1
 43
0
 10
-3217.27646409428
 20
907.225365900508
 10
-3195.20344199224
 20
903.31599806059
 10
-3204.82731687639
 20
909.503611136555
 10
-3210.78220924714
 20
911.673506284357
 10
-3215.49510098325
 20
910.969108538955
 10
-3216.80332032034
 20
909.598726374432
  0
LWPOLYLINE
  5
5A
100
AcDbEntity
  8
51
  6
ByLayer
 62
    7
370
   -1
100
AcDbPolyline
 90
   39
 70
    1
 43
0
 10
-3158.03288637534
 20
619.502403613819
 10
-3156.38762666855
 20
597.503508115146
 10
-3151.8465972537
 20
580.948980163085
 10
-3144.65585373708
 20
564.989682354573
 10
-3136.04082821329
 20
551.2020863025371
 10
-3129.12511793674
 20
543.115535131775
 10
-3116.25025341794
 20
530.834480088827
 10
-3111.46174787352
 20
527.476585496149
 10
-3086.13986746923
 20
514.278144974429
 10
-3072.54036096054
 20
508.645387070977
 10
-3057.53033959394
 20
503.807763877697
 10
-3034.42242541348
 20
499.204585167937
 10
-3019.06090080412
 20
497.878430878996
 10
-3003.6029763
 20
497.834928922711
 10
-2780.45413145217
 20
691.897300953644
 10
-2780.12930980208
 20
731.736705805489
 10
-2782.36065448623
 20
745.9513665071941
 10
-2789.7828328923
 20
770.756662353103
 10
-2800.79884845785
 20
795.072256893438
 10
-2811.4318157715
 20
812.766256328545
 10
-2820.17036168547
 20
823.241963108389
 10
-2826.17546048273
 20
828.596138699649
 10
-2832.7711395077
 20
832.8788716734761
 10
-2844.66558035833
 20
838.426388573599
 10
-2853.42222159103
 20
841.434408875478
 10
-2862.56427269674
 20
843.315446412881
 10
-2880.95439898232
 20
843.458238143292
 10
-2900.27888955398
 20
839.9656040872241
 10
-2920.73881568168
 20
833.503606512693
 10
-2952.77874119665
 20
820.085668275009
 10
-2996.45499018636
 20
798.373075834165
 10
-3034.48394571
 20
777.403605186496
 10
-3065.97934963165
 20
757.1150165505489
 10
-3090.34492933899
 20
737.762244432967
 10
-3112.43275527183
 20
716.2999930837379
 10
-3127.84035075356
 20
697.820875278808
 10
-3140.75171559358
 20
678.413630250393
 10
-3150.5569207946
 20
657.420391012726
 10
-3156.76183307206
 20
636.217804361918
  0
LWPOLYLINE
  5
5B
100
AcDbEntity
  8
51
  6
ByLayer
 62
    7
370
   -1
100
AcDbPolyline
 90
   18
 70
    1
 43
0
 10
-1660.60399888984
 20
1613.68614415951
 10
-1141.81417388862
 20
1908.28638696335
 10
-1181.63289758219
 20
1904.57520029148
 10
-1200.50576934831
 20
1902.04306273306
 10
-1237.79465922898
 20
1894.41801675796
 10
-1254.20172005255
 20
1890.17868207657
 10
-1288.84878240653
 20
1878.79349197076
 10
-1325.52093448171
 20
1865.28142992398
 10
-1362.83126753834
 20
1849.19548436699
 10
-1399.78614966913
 20
1830.23690194617
 10
-1444.59718000355
 20
1802.51727203944
 10
-1495.87485706033
 20
1767.19697899581
 10
-1535.28902296956
 20
1738.32629453967
 10
-1577.32340586053
 20
1705.50328947345
 10
-1601.76339191847
 20
1684.05167242301
 10
-1622.87422128904
 20
1663.066603587
 10
-1636.34310951926
 20
1647.53798563362
 10
-1651.20475882897
 20
1627.67728474839
  0
LWPOLYLINE
  5
5C
100
AcDbEntity
  8
51
  6
ByLayer
 62
    7
370
   -1
100
AcDbPolyline
 90
   51
 70
    1
 43
0
 10
-1993.8249199253
 20
2334.81730044332
 10
-1993.51647281666
 20
2321.94597491127
 10
-1991.90606366245
 20
2308.67240297061
 10
-1988.77309610158
 20
2295.09045848057
 10
-1984.47653246808
 20
2281.91039725724
 10
-1975.58768735256
 20
2263.26452648348
 10
-1968.2129946786
 20
2252.0521442852
 10
-1960.1252589666
 20
2242.12957180679
 10
-1951.24907808947
 20
2233.48426013357
 10
-1941.75602317551
 20
2225.9065870157
 10
-1931.60242175162
 20
2219.44780647602
 10
-1920.99360627731
 20
2214.24221726627
 10
-1909.66394628857
 20
2210.29978966717
 10
-1897.85027053512
 20
2207.50481172764
 10
-1885.67877788506
 20
2205.76526321988
 10
-1867.18273062082
 20
2204.61581979642
 10
-1848.25994687352
 20
2205.28674538835
 10
-1835.48722399282
 20
2206.69508277531
 10
-1802.77842409793
 20
2212.57997664765
 10
-1776.6201321304
 20
2219.4692339489
 10
-1757.92274452694
 20
2226.25703261183
 10
-1746.59778170806
 20
2231.90471825935
 10
-1731.58815192391
 20
2242.79360929969
 10
-1722.78663189417
 20
2251.53084219298
 10
-1711.04128266108
 20
2266.84506117384
 10
-1700.71386809992
 20
2284.06135415193
 10
-1688.7767754742
 20
2309.32302937709
 10
-1659.87569253789
 20
2382.24306699866
 10
-1635.85166656489
 20
2436.88551132785
 10
-1630.37422077111
 20
2451.00328215677
 10
-1628.79399466605
 20
2456.06184374887
 10
-1628.10105168484
 20
2466.32984444256
 10
-1625.75985073669
 20
2479.54535201399
 10
-1624.73897245527
 20
2491.82308563813
 10
-1625.55282399581
 20
2503.17701399182
 10
-1628.21215797101
 20
2514.45361615595
 10
-1634.36659340361
 20
2529.22220263134
 10
-1640.11344844417
 20
2538.20051434668
 10
-1644.28493547972
 20
2542.61001418697
 10
-1651.56953391404
 20
2547.37830509
 10
-1659.45644569586
 20
2550.51528999388
 10
-1904.36651782144
 20
2497.75155273323
 10
-1914.49243616282
 20
2488.23823803084
 10
-1928.92209768002
 20
2472.58265668799
 10
-1943.59468303211
 20
2454.98078224552
 10
-1954.13003216706
 20
2440.82167647614
 10
-1969.9214686382
 20
2415.07219890211
 10
-1982.604344911
 20
2388.13172536245
 10
-1986.49188516149
 20
2376.5238531895
 10
-1990.99399347998
 20
2358.84938487446
 10
-1992.90486493808
 20
2347.09519434909
  0
LWPOLYLINE
  5
5D
100
AcDbEntity
  8
51
  6
ByLayer
 62
    7
370
   -1
100
AcDbPolyline
 90
   51
 70
    1
 43
0
 10
-2128.47477879099
 20
886.626938891793
 10
-2126.97960637678
 20
866.957709466555
 10
-2123.05311399002
 20
846.2206924393
 10
-2118.65021118041
 20
831.456479742193
 10
-2113.26031830225
 20
816.269379733453
 10
-2103.3055393831
 20
793.417449847063
 10
-2082.28788620353
 20
754.485582542287
 10
-2055.98133099162
 20
714.302665818823
 10
-2038.63897134458
 20
690.806323147457
 10
-2019.8482452335
 20
667.5367621678751
 10
-1985.73367167673
 20
629.114517621036
 10
-1950.4047685416
 20
594.58314637376
 10
-1928.89142170398
 20
576.574391485313
 10
-1908.13869651374
 20
560.904320527497
 10
-1887.57955768683
 20
547.131519306374
 10
-1867.39782567123
 20
535.689689673025
 10
-1847.80990466312
 20
527.441496179829
 10
-1836.25868506976
 20
524.087716204002
 10
-1825.64162401862
 20
522.5160429503979
 10
-1811.77963102584
 20
523.223508646677
 10
-1799.6780855138
 20
526.896677569427
 10
-1792.84206169531
 20
531.133146180779
 10
-1784.30980968349
 20
540.008106921704
 10
-1779.72770658411
 20
547.619781349018
 10
-1809.82166078118
 20
733.852997678365
 10
-1816.36117093373
 20
766.818517747702
 10
-1831.7119191556
 20
827.141834329521
 10
-1841.21309124102
 20
858.383326395059
 10
-1852.53735511023
 20
887.960654271721
 10
-1865.93162129266
 20
914.894529678464
 10
-1877.80214231446
 20
932.887703592284
 10
-1891.60125607949
 20
948.723741302892
 10
-1906.96796084168
 20
961.692434317671
 10
-1917.987807553
 20
968.353631543748
 10
-1929.47845801787
 20
973.981080809766
 10
-1953.69245882193
 20
981.9653726292451
 10
-1986.16366325416
 20
988.682169931839
 10
-2005.53166932067
 20
990.248288579148
 10
-2018.42266466543
 20
989.861387914292
 10
-2030.8509519271
 20
988.116642431479
 10
-2042.88310381667
 20
985.03583937522
 10
-2059.83899454411
 20
979.337484202188
 10
-2075.23497145481
 20
972.981221390811
 10
-2089.07162392414
 20
965.840621742326
 10
-2097.08158109751
 20
960.243729896664
 10
-2104.32400299523
 20
953.672869526309
 10
-2110.55443550484
 20
946.3038425739001
 10
-2115.998107226
 20
938.015423265892
 10
-2122.29453211491
 20
924.563264275254
 10
-2125.31920377988
 20
914.670694060306
 10
-2128.03747045812
 20
898.5766773517551
  0
LWPOLYLINE
  5
5E
100
AcDbEntity
  8
51
  6
ByLayer
 62
    7
370
   -1
100
AcDbPolyline
 90
   83
 70
    1
 43
0
 10
-1749.52953249312
 20
1616.44462127936
 10
-1748.54838111428
 20
1585.08635444862
 10
-1744.24134510629
 20
1555.01550403365
 10
-1736.97403165145
 20
1524.99218013304
 10
-1732.17642007372
 20
1510.26971516333
 10
-1723.87000659967
 20
1489.34980430924
 10
-1723.81412166512
 20
1489.22840311631
 10
-1693.54725519369
 20
1423.47841654829
 10
-1693.50472985509
 20
1423.38603696733
 10
-1693.45848333025
 20
1423.29546296254
 10
-1677.1534598298
 20
1391.36200889815
 10
-1654.9787563982
 20
1353.69320309064
 10
-1654.92595974804
 20
1353.61103452057
 10
-1625.13359342165
 20
1307.24452958546
 10
-1625.08879947793
 20
1307.17943483214
 10
-1578.50784455017
 20
1239.48778906905
 10
-1578.47791468521
 20
1239.44429485946
 10
-1542.02502408144
 20
1188.79531851515
 10
-1541.96446942112
 20
1188.71118166051
 10
-1541.90047956569
 20
1188.62962692063
 10
-1511.25489214096
 20
1149.57198420626
 10
-1496.80848784376
 20
1133.13291068653
 10
-1496.69873380741
 20
1133.02266738214
 10
-1473.03500678149
 20
1109.25345079294
 10
-1455.47889840734
 20
1094.10327285525
 10
-1448.94564338993
 20
1101.67404420812
 10
-1466.21523771759
 20
1116.57697265899
 10
-1489.50220362444
 20
1139.96774858111
 10
-1503.5594265883
 20
1155.96395892053
 10
-1533.96914335197
 20
1194.72098569698
 10
-1570.29979602017
 20
1245.20012019324
 10
-1616.80602713926
 20
1312.78317699341
 10
-1646.46016755828
 20
1358.93455795529
 10
-1668.38363022549
 20
1396.17657385808
 10
-1684.50602362888
 20
1427.75234614327
 10
-1714.67447982716
 20
1493.28855193739
 10
-1722.76606477721
 20
1513.66741176082
 10
-1727.34595681965
 20
1527.72175923508
 10
-1734.40992481056
 20
1556.90500560703
 10
-1738.57064425292
 20
1585.95430348561
 10
-1739.517490035
 20
1616.21614006101
 10
-1737.81169925946
 20
1638.35098030387
 10
-1735.67420722356
 20
1652.86940310417
 10
-1732.5238726096
 20
1666.93800660723
 10
-1723.52726329223
 20
1696.04664691348
 10
-1710.60520340862
 20
1727.81210562604
 10
-1698.65241652405
 20
1751.97820133044
 10
-1684.80509097841
 20
1775.2216332838
 10
-1663.38790446348
 20
1804.90094145722
 10
-1645.02747436997
 20
1827.62572985402
 10
-1618.1695431261
 20
1857.05186900027
 10
-1589.18652796596
 20
1885.30184414011
 10
-1543.78058304245
 20
1923.77423846822
 10
-1513.36598782585
 20
1947.0888698312
 10
-1467.69302388698
 20
1979.16097658238
 10
-1423.59300094226
 20
2007.33471638847
 10
-1389.1496714063
 20
2027.04942407067
 10
-1365.01706667466
 20
2038.66199188804
 10
-1336.17564836387
 20
2048.52150380937
 10
-1339.41038420838
 20
2057.98387581729
 10
-1368.81593134779
 20
2047.93151502663
 10
-1393.80745218037
 20
2035.90563826138
 10
-1428.66617669876
 20
2015.95316638036
 10
-1428.77173300246
 20
2015.89274795685
 10
-1428.87422685848
 20
2015.82726873397
 10
-1473.26092566509
 20
1987.4703831923
 10
-1519.19830210402
 20
1955.21260279095
 10
-1519.28384945579
 20
1955.1525304076
 10
-1550.05848455831
 20
1931.56190664175
 10
-1595.7839749777
 20
1892.81876185698
 10
-1595.9169111444
 20
1892.70612522681
 10
-1625.254062305
 20
1864.11097091379
 10
-1625.35865238091
 20
1864.00902613586
 10
-1625.45711341469
 20
1863.90115006551
 10
-1652.61659235798
 20
1834.14462863919
 10
-1671.33757726909
 20
1810.9735798937
 10
-1693.17125164655
 20
1780.71711507023
 10
-1707.44301879103
 20
1756.76123655899
 10
-1719.73055488755
 20
1731.91834626508
 10
-1732.95341483689
 20
1699.41345033008
 10
-1742.19534159911
 20
1669.51108240814
 10
-1745.51355781902
 20
1654.69276179908
 10
-1747.75551626691
 20
1639.46477493397
  0
LWPOLYLINE
  5
5F
100
AcDbEntity
  8
52
  6
ByLayer
 62
    7
370
   -1
100
AcDbPolyline
 90
    4
 70
    1
 43
0
 10
-1764.82784580236
 20
2442.86358941518
 10
-1763.03179605861
 20
2418.96147599152
 10
-1762.23919364609
 20
2416.00006490709
 10
-1759.8218384092
 20
2413.51420085194
  0
LWPOLYLINE
  5
60
100
AcDbEntity
  8
52
  6
ByLayer
 62
    7
370
   -1
100
AcDbPolyline
 90
    5
 70
    1
 43
0
 10
-1820.25381702184
 20
2043.91197244356
 10
-1818.55386428192
 20
2042.20893321424
 10
-1813.73693632462
 20
2041.12000951014
 10
-1814.26903518344
 20
2045.03760234191
 10
-1819.1457167877
 20
2045.97274152293
  0
LWPOLYLINE
  5
61
100
AcDbEntity
  8
52
  6
ByLayer
 62
    7
370
   -1
100
AcDbPolyline
 90
    8
 70
    1
 43
0
 10
-1264.73636781227
 20
1554.84678175641
 10
-1242.55532359018
 20
1554.59261815847
 10
-1227.34812572462
 20
1556.80720049376
 10
-1220.52283628371
 20
1558.63223155711
 10
-1206.13515041048
 20
1558.41635175206
 10
-1218.24319267718
 20
1562.21678659764
 10
-1253.35278243062
 20
1558.86918832107
 10
-1260.8814323933
 20
1556.76288000074
  0
LWPOLYLINE
  5
62
100
AcDbEntity
  8
52
  6
ByLayer
 62
    7
370
   -1
100
AcDbPolyline
 90
    5
 70
    1
 43
0
 10
-1087.0960946075
 20
1849.66281354963
 10
-1078.06346554912
 20
1866.58556523769
 10
-1070.38121752787
 20
1883.16426659143
 10
-1063.38673385932
 20
1904.56227765789
 10
-1059.9411401738
 20
1920.9584104021
  0
LWPOLYLINE
  5
63
100
AcDbEntity
  8
52
  6
ByLayer
 62
    7
370
   -1
100
AcDbPolyline
 90
   36
 70
    1
 43
0
 10
-2079.07117329233
 20
903.77758358035
 10
-2078.33208643732
 20
884.911014659027
 10
-2074.50108127671
 20
859.257358539181
 10
-2069.15739427577
 20
839.546723134367
 10
-2058.27775978605
 20
810.2494341516571
 10
-2048.19727950837
 20
789.5393027024299
 10
-2028.449320143
 20
756.396098387236
 10
-2011.271675303
 20
732.376064957596
 10
-1980.90943677505
 20
696.135671872172
 10
-1968.15846426072
 20
682.294791710994
 10
-1956.16408806391
 20
670.853526764019
 10
-1942.98259118666
 20
661.225655107981
 10
-1937.67551597009
 20
659.096655543276
 10
-1932.50993360489
 20
658.53968054021
 10
-1927.51404741719
 20
659.032825326433
 10
-1922.78148472185
 20
660.653569523373
 10
-1916.47749623977
 20
665.301302678345
 10
-1912.91806774764
 20
669.804970183135
 10
-1943.79627594911
 20
819.523796701563
 10
-1953.5408682375
 20
846.755118699603
 10
-1971.4530086365
 20
888.574315838365
 10
-1984.727608196
 20
912.078186414922
 10
-1996.63951959345
 20
927.929891180368
 10
-2002.89556055023
 20
934.612241328141
 10
-2012.37187859029
 20
942.93628285699
 10
-2025.44185607214
 20
951.6781290484309
 10
-2035.21592207857
 20
956.588417515727
 10
-2044.70134851336
 20
959.273198266789
 10
-2050.69124540584
 20
959.784390724487
 10
-2056.33102510312
 20
958.770426231163
 10
-2063.78165834242
 20
954.339792744955
 10
-2068.0822044846
 20
949.424157976769
 10
-2071.73109757595
 20
943.196568030893
 10
-2074.71954497915
 20
935.425536544132
 10
-2076.97466534014
 20
926.1734370736229
 10
-2078.5006848336
 20
915.477500057673
  0
LWPOLYLINE
  5
64
100
AcDbEntity
  8
52
  6
ByLayer
 62
    7
370
   -1
100
AcDbPolyline
 90
   37
 70
    1
 43
0
 10
-1935.85364281465
 20
2330.06372697872
 10
-1934.75276430855
 20
2311.49123146856
 10
-1932.63885640931
 20
2299.2575839977
 10
-1929.17297578412
 20
2287.13651239316
 10
-1921.69812075663
 20
2270.81143662866
 10
-1915.93584100208
 20
2262.00822617568
 10
-1906.62643532228
 20
2252.61662527077
 10
-1896.9385694119
 20
2247.6268404006
 10
-1890.52686100285
 20
2246.67117624455
 10
-1883.97745856953
 20
2247.23084471817
 10
-1874.32004035019
 20
2250.98215107562
 10
-1867.86787108013
 20
2255.89940558899
 10
-1862.90438687351
 20
2261.31664382457
 10
-1855.2694454243
 20
2272.82288510884
 10
-1834.72396805206
 20
2309.89709152377
 10
-1819.65418767275
 20
2332.6741124375
 10
-1791.31129660354
 20
2366.3530348595
 10
-1739.34157560893
 20
2422.86045047845
 10
-1726.97713465086
 20
2439.17064926046
 10
-1717.04854592411
 20
2455.77322379692
 10
-1708.4649303236
 20
2475.73443936361
 10
-1705.56486544293
 20
2486.27374722671
 10
-1704.72514364377
 20
2495.52563136556
 10
-1706.59007256354
 20
2498.8522662364
 10
-1707.91215299296
 20
2505.15366410659
 10
-1709.88354246339
 20
2509.32865883239
 10
-1714.40387697394
 20
2514.45245575457
 10
-1718.22513853161
 20
2516.77878149645
 10
-1722.66103990235
 20
2518.14449992141
 10
-1727.75878990425
 20
2518.74062951528
 10
-1735.99861568867
 20
2518.23530357888
 10
-1889.83236284382
 20
2470.06076513226
 10
-1906.22865290605
 20
2439.25104351107
 10
-1921.94937609804
 20
2400.56205989568
 10
-1928.84065888198
 20
2377.91006134343
 10
-1932.93676127323
 20
2360.04830394142
 10
-1935.42122328005
 20
2342.22242694035
  0
LWPOLYLINE
  5
65
100
AcDbEntity
  8
52
  6
ByLayer
 62
    7
370
   -1
100
AcDbPolyline
 90
    7
 70
    1
 43
0
 10
-2146.00692159495
 20
1196.08284069399
 10
-1561.90597034083
 20
1186.55066897196
 10
-1663.39810765815
 20
1188.36221070525
 10
-1770.24737829224
 20
1193.08793343177
 10
-1964.30143728163
 20
1197.25773777953
 10
-2024.74064947546
 20
1196.06253055872
 10
-2130.30293839982
 20
1196.41851854339
  0
LWPOLYLINE
  5
66
100
AcDbEntity
  8
52
  6
ByLayer
 62
    7
370
   -1
100
AcDbPolyline
 90
   31
 70
    1
 43
0
 10
-1959.1979576519
 20
652.757031903055
 10
-1958.53580179703
 20
639.249848852694
 10
-1953.93894568908
 20
610.297671680642
 10
-1948.97794414004
 20
589.16521136657
 10
-1942.83433928262
 20
569.137730226333
 10
-1937.8398565515
 20
556.535995560151
 10
-1931.89535754012
 20
544.532641930734
 10
-1920.34390030294
 20
527.108359801187
 10
-1912.09058665627
 20
517.275549795159
 10
-1903.4833525017
 20
509.070685191828
 10
-1895.12354432254
 20
502.82434901539
 10
-1887.23194628657
 20
498.501120342119
 10
-1880.87288630982
 20
496.349219876499
 10
-1872.27732604772
 20
496.741000597189
 10
-1867.56713173508
 20
499.336180873941
 10
-1844.35274977607
 20
667.0440530696879
 10
-1852.40566253944
 20
687.797811135216
 10
-1862.0245186812
 20
706.100627057793
 10
-1869.99184171041
 20
718.499563421899
 10
-1878.39099781616
 20
728.697849487445
 10
-1884.22401484565
 20
733.73458102905
 10
-1890.1643452079
 20
736.861596765352
 10
-1896.16194707983
 20
738.102175090581
 10
-1908.74819612249
 20
736.6929983818241
 10
-1918.37459098711
 20
733.139591791158
 10
-1927.5646179813
 20
727.536935217481
 10
-1936.27369550053
 20
719.8502018302401
 10
-1944.23123343445
 20
709.449714966278
 10
-1950.90832518315
 20
697.188508442345
 10
-1956.0127953472
 20
682.643686983698
 10
-1958.07117632072
 20
671.3787483276089
  0
LWPOLYLINE
  5
67
100
AcDbEntity
  8
52
  6
ByLayer
 62
    7
370
   -1
100
AcDbPolyline
 90
    6
 70
    1
 43
0
 10
-2332.4304158454
 20
2102.74071969916
 10
-2262.83048868218
 20
2096.70044522539
 10
-2182.4172504358
 20
2093.02523150914
 10
-2154.07440058481
 20
2090.47520708893
 10
-2125.23477807109
 20
2089.93194231267
 10
-2099.87566914554
 20
2090.87619100185
  0
LWPOLYLINE
  5
68
100
AcDbEntity
  8
52
  6
ByLayer
 62
    7
370
   -1
100
AcDbPolyline
 90
    5
 70
    1
 43
0
 10
-2124.25059894252
 20
2230.46051108418
 10
-2067.60263242632
 20
2131.92427954186
 10
-2071.52890751032
 20
2142.05391770788
 10
-2074.69788038268
 20
2147.94815466867
 10
-2108.42156989533
 20
2205.72788802551
  0
LWPOLYLINE
  5
69
100
AcDbEntity
  8
52
  6
ByLayer
 62
    7
370
   -1
100
AcDbPolyline
 90
    5
 70
    1
 43
0
 10
-2760.60346943567
 20
2132.86514540961
 10
-2374.97919579122
 20
2107.12942071544
 10
-2453.06130428306
 20
2115.41919989765
 10
-2570.34381200906
 20
2120.87916899425
 10
-2640.74711237757
 20
2126.20951031872
  0
LWPOLYLINE
  5
6A
100
AcDbEntity
  8
52
  6
ByLayer
 62
    7
370
   -1
100
AcDbPolyline
 90
    4
 70
    1
 43
0
 10
-3123.2268176632
 20
2157.06583840401
 10
-2822.32949941578
 20
2136.98460630095
 10
-3001.47691182159
 20
2150.72551222432
 10
-3078.26608067566
 20
2155.6818390063
  0
LWPOLYLINE
  5
6B
100
AcDbEntity
  8
52
  6
ByLayer
 62
    7
370
   -1
100
AcDbPolyline
 90
   38
 70
    1
 43
0
 10
-2952.91362578492
 20
2870.89570329232
 10
-2950.41339618168
 20
2851.12451352279
 10
-2946.07134533539
 20
2837.13946881601
 10
-2939.78209730918
 20
2823.41141593108
 10
-2906.41573376759
 20
2765.85443661639
 10
-2898.81324198586
 20
2751.05465221028
 10
-2873.77415952437
 20
2691.88228852794
 10
-2857.24608532829
 20
2655.90272347732
 10
-2842.92872778714
 20
2630.96563854728
 10
-2836.4642894345
 20
2622.33677671976
 10
-2826.00242666855
 20
2610.53685200969
 10
-2814.3080396286
 20
2600.43778247785
 10
-2806.21730479468
 20
2594.98416727258
 10
-2798.05251689596
 20
2590.69215719887
 10
-2790.22516620245
 20
2588.02188423416
 10
-2782.76221947953
 20
2587.24027945424
 10
-2776.2049673048
 20
2588.25600636752
 10
-2766.5056664668
 20
2592.15743028952
 10
-2756.3808090074
 20
2597.92931458756
 10
-2746.08767235521
 20
2605.21368020945
 10
-2735.76193027766
 20
2614.18788090554
 10
-2712.15679430545
 20
2639.09023330248
 10
-2699.70592791758
 20
2655.06868003486
 10
-2694.55251396253
 20
2663.84934265157
 10
-2688.32576199161
 20
2678.10158084615
 10
-2685.00418195047
 20
2688.10605431471
 10
-2680.78137386105
 20
2709.47169349644
 10
-2901.1738764211
 20
2940.33155367589
 10
-2909.12109231264
 20
2941.30611619009
 10
-2919.86367662718
 20
2939.01149994329
 10
-2925.01522260429
 20
2936.64671673913
 10
-2929.99765231254
 20
2932.8407017827
 10
-2937.46897054896
 20
2928.651556024
 10
-2937.56641754013
 20
2925.17348559393
 10
-2941.9756945919
 20
2917.71992611755
 10
-2947.52667374674
 20
2905.54697958418
 10
-2950.30417220374
 20
2896.43632905641
 10
-2952.06930051234
 20
2886.61230920627
  0
LWPOLYLINE
  5
6C
100
AcDbEntity
  8
52
  6
ByLayer
 62
    7
370
   -1
100
AcDbPolyline
 90
    4
 70
    1
 43
0
 10
-2810.49977700378
 20
1401.19786114739
 10
-2803.24015423622
 20
1394.32051592756
 10
-2782.22101116548
 20
1416.50800902461
 10
-2789.48063393304
 20
1423.38535424444
  0
LWPOLYLINE
  5
6D
100
AcDbEntity
  8
52
  6
ByLayer
 62
    7
370
   -1
100
AcDbPolyline
 90
    4
 70
    1
 43
0
 10
-2763.81349593998
 20
1440.86612167329
 10
-2757.55656800313
 20
1433.06542601244
 10
-2730.56517736076
 20
1454.71518566301
 10
-2736.8221052976
 20
1462.51588132385
  0
LWPOLYLINE
  5
6E
100
AcDbEntity
  8
52
  6
ByLayer
 62
    7
370
   -1
100
AcDbPolyline
 90
   25
 70
    1
 43
0
 10
-3102.40427890363
 20
565.526381289326
 10
-3101.67690833795
 20
555.8320817745119
 10
-3096.25138550788
 20
541.633414510496
 10
-3089.25019992505
 20
535.393685483314
 10
-3077.02781591948
 20
527.0581841187141
 10
-3064.63899732366
 20
521.32211515877
 10
-2801.24906870118
 20
687.463357904794
 10
-2805.1548127011
 20
690.890113957714
 10
-2812.34306633813
 20
694.879002486033
 10
-2820.40418800714
 20
698.95622105453
 10
-2830.41965410942
 20
702.519728310001
 10
-2840.12084505696
 20
704.452611446371
 10
-2846.85122101091
 20
704.936016285453
 10
-2853.65140170761
 20
704.672483200303
 10
-2864.59555093396
 20
702.768095011689
 10
-2870.90439455955
 20
700.509370268839
 10
-2883.42235684819
 20
692.687672129648
 10
-2905.1761619362
 20
683.648219671658
 10
-2941.43702782834
 20
664.478839564053
 10
-3040.33266294884
 20
627.091154445731
 10
-3059.35608533655
 20
617.714759429577
 10
-3074.93854528687
 20
606.223172058428
 10
-3090.18315713908
 20
590.710575594069
 10
-3098.66477526083
 20
578.464422837621
 10
-3101.2210836829
 20
572.051667169401
  0
LWPOLYLINE
  5
6F
100
AcDbEntity
  8
52
  6
ByLayer
 62
    7
370
   -1
100
AcDbPolyline
 90
   15
 70
    1
 43
0
 10
-3410.50695356021
 20
886.068609384322
 10
-3409.2306545083
 20
877.956788898952
 10
-3407.43619529292
 20
873.196122591885
 10
-3404.35820228901
 20
867.31836534886
 10
-3400.61156693363
 20
863.305804928017
 10
-3397.62617638174
 20
862.2007178490639
 10
-3390.15637098598
 20
863.387110072417
 10
-3364.47657701436
 20
906.4487889137019
 10
-3369.32539561311
 20
908.454743093939
 10
-3382.41014224573
 20
910.409557225368
 10
-3390.01770968457
 20
910.666970671104
 10
-3399.02306845477
 20
908.139752446845
 10
-3403.67918969843
 20
904.546014646211
 10
-3406.03252491541
 20
901.058214982369
 10
-3410.16680661679
 20
889.0510434750011
  0
LWPOLYLINE
  5
70
100
AcDbEntity
  8
52
  6
ByLayer
 62
    7
370
   -1
100
AcDbPolyline
 90
   33
 70
    1
 43
0
 10
-3057.61131232942
 20
1862.4918819682
 10
-3057.02407910214
 20
1839.52409940212
 10
-3054.74718047357
 20
1802.67137499047
 10
-3053.06733308905
 20
1787.40578958589
 10
-3049.12877339962
 20
1771.65704783153
 10
-3043.82678606958
 20
1760.31142868408
 10
-3037.63601703896
 20
1752.49201410652
 10
-3031.36667629347
 20
1748.52241882309
 10
-3026.00957724891
 20
1746.5799981487
 10
-3022.37545406133
 20
1745.98879509779
 10
-3017.30693459968
 20
1746.91184643718
 10
-3013.35689654686
 20
1750.20222053852
 10
-3011.45435490789
 20
1753.70549485345
 10
-3009.03469825405
 20
1760.67594394717
 10
-3008.28962822377
 20
1766.58981504403
 10
-2996.81767671544
 20
1789.92318445373
 10
-2997.32396595028
 20
1823.63292965323
 10
-3002.18448007225
 20
1883.20429815124
 10
-3003.28688912247
 20
1926.09399975748
 10
-3005.77163487098
 20
1951.68125430356
 10
-3008.74053931499
 20
1964.02807443242
 10
-3011.18522880675
 20
1970.26200226627
 10
-3016.33366524105
 20
1979.58723959572
 10
-3020.6548085774
 20
1984.53872732965
 10
-3024.29793816989
 20
1986.08606296521
 10
-3026.80612051525
 20
1986.05082637693
 10
-3030.55362360953
 20
1984.26837066011
 10
-3033.60305559713
 20
1981.07647764848
 10
-3036.41736534484
 20
1976.27805109653
 10
-3039.89879057436
 20
1967.26211532619
 10
-3047.62433118898
 20
1938.53254482896
 10
-3054.47705305675
 20
1901.94373725847
 10
-3056.51508772808
 20
1886.7644477459
  0
LWPOLYLINE
  5
71
100
AcDbEntity
  8
52
  6
ByLayer
 62
    7
370
   -1
100
AcDbPolyline
 90
    9
 70
    1
 43
0
 10
-1635.33892925055
 20
2040.73165234107
 10
-1595.31135096406
 20
2035.63369828633
 10
-1498.37161152969
 20
2026.94551682177
 10
-1422.23628056453
 20
2024.22679000961
 10
-1363.38943969498
 20
2019.82177792729
 10
-1312.95196772446
 20
2018.63704226953
 10
-1240.13109134901
 20
2011.00149518129
 10
-1179.38517829595
 20
2011.20734496668
 10
-1150.18100360962
 20
2010.18442436664
  0
LWPOLYLINE
  5
72
100
AcDbEntity
  8
52
  6
ByLayer
 62
    7
370
   -1
100
AcDbPolyline
 90
   23
 70
    1
 43
0
 10
-1195.86728680544
 20
2135.57354144534
 10
-1195.04349832752
 20
2126.26657898984
 10
-1191.76277418343
 20
2110.57440031486
 10
-1186.15948812205
 20
2093.2223916199
 10
-1175.4460535115
 20
2068.56087860988
 10
-1165.35751178945
 20
2050.56199097467
 10
-1153.95590684076
 20
2033.3007250403
 10
-1145.53403088657
 20
2021.9331514616
 10
-1132.94329148009
 20
2007.24814710964
 10
-1124.55904401831
 20
1999.31442211582
 10
-1115.92050391342
 20
1992.67965141548
 10
-1104.64037999117
 20
1986.36917906599
 10
-1095.69244337574
 20
1983.00530933333
 10
-1121.77260561987
 20
2074.29502428692
 10
-1147.15206983804
 20
2121.78603782807
 10
-1158.9947002725
 20
2142.43628812116
 10
-1166.66201791895
 20
2153.94823059367
 10
-1172.95566363935
 20
2160.45926845747
 10
-1178.78874081794
 20
2163.53219768658
 10
-1182.48393056567
 20
2163.77079237632
 10
-1187.72971098863
 20
2161.23802024439
 10
-1192.09703833854
 20
2155.85539876337
 10
-1194.95930556204
 20
2147.11854132394
  0
LWPOLYLINE
  5
73
100
AcDbEntity
  8
52
  6
ByLayer
 62
    7
370
   -1
100
AcDbPolyline
 90
   15
 70
    1
 43
0
 10
-3339.33645472118
 20
2935.38926384835
 10
-3339.14454248115
 20
2921.29326040348
 10
-3337.5413345261
 20
2913.59143226353
 10
-3334.51593927304
 20
2909.88123083411
 10
-3332.62685678432
 20
2910.14281634203
 10
-3330.38666962308
 20
2911.78756503508
 10
-3327.22310394175
 20
2916.6543869626
 10
-3325.04674320957
 20
2921.79560148475
 10
-3307.04645095801
 20
2982.72441668517
 10
-3297.28322081084
 20
3010.2981201422
 10
-3296.19479646503
 20
3015.48088074708
 10
-3292.21547169081
 20
3024.99237780402
 10
-3322.08966526382
 20
2993.94831756631
 10
-3332.89270474942
 20
2966.86946950013
 10
-3338.0378137996
 20
2946.60506143072
  0
LWPOLYLINE
  5
74
100
AcDbEntity
  8
52
  6
ByLayer
 62
    7
370
   -1
100
AcDbPolyline
 90
    3
 70
    1
 43
0
 10
-2036.67003964862
 20
2306.99339150493
 10
-2025.79765162149
 20
2337.6852918697
 10
-2018.36195399721
 20
2363.82227921518
  0
LWPOLYLINE
  5
75
100
AcDbEntity
  8
52
  6
ByLayer
 62
    7
370
   -1
100
AcDbPolyline
 90
    3
 70
    1
 43
0
 10
-1377.08129364547
 20
2390.38438513881
 10
-1352.48326543023
 20
2413.51711978579
 10
-1362.26164853925
 20
2405.55795360984
  0
LWPOLYLINE
  5
76
100
AcDbEntity
  8
53
  6
ByLayer
 62
    7
370
   -1
100
AcDbPolyline
 90
   18
 70
    1
 43
0
 10
-1720.95986365896
 20
1489.8065685706
 10
-1719.4836411923
 20
1488.15034995499
 10
-1716.67987982577
 20
1487.98817742347
 10
-1692.0011672619
 20
1491.78898951574
 10
-1645.12479205604
 20
1505.01471512059
 10
-1612.97335905436
 20
1511.36796002492
 10
-1541.09035753545
 20
1518.77153902713
 10
-1518.59646183535
 20
1522.19986881
 10
-1263.08220999174
 20
1601.03731872569
 10
-1414.72422648649
 20
1579.0839804726
 10
-1450.95975924909
 20
1571.8179271757
 10
-1535.03696136273
 20
1552.52020674541
 10
-1609.98737721157
 20
1532.86623190287
 10
-1658.32183382792
 20
1519.0942925801
 10
-1680.12232843987
 20
1510.79225352818
 10
-1704.26907498886
 20
1500.12260406026
 10
-1716.61089879511
 20
1494.2786450016
 10
-1720.35376658034
 20
1491.4750296799
  0
LWPOLYLINE
  5
77
100
AcDbEntity
  8
53
  6
ByLayer
 62
    7
370
   -1
100
AcDbPolyline
 90
    8
 70
    1
 43
0
 10
-3329.12744628773
 20
3022.39465009338
 10
-3328.372288504
 20
3018.98717236107
 10
-3321.44588919122
 20
3012.76534533421
 10
-3316.32219449702
 20
3010.81628401575
 10
-3312.6980688412
 20
3011.37154099801
 10
-3309.27357522475
 20
3014.59918929691
 10
-3307.11911496829
 20
3018.40940216533
 10
-3302.84790454503
 20
3038.64811096764
  0
LWPOLYLINE
  5
78
100
AcDbEntity
  8
53
  6
ByLayer
 62
    7
370
   -1
100
AcDbPolyline
 90
    9
 70
    1
 43
0
 10
-1495.66018880063
 20
2475.09284792687
 10
-1490.31832883719
 20
2474.35309677427
 10
-1482.59193957389
 20
2474.90400922974
 10
-1473.65256049525
 20
2477.42241055089
 10
-1469.36844605426
 20
2479.89415269413
 10
-1463.18950999919
 20
2485.66590465277
 10
-1457.69721485942
 20
2493.95701158618
 10
-1456.09403548408
 20
2497.35121575586
 10
-1455.40131325529
 20
2505.89572776841
  0
LWPOLYLINE
  5
79
100
AcDbEntity
  8
53
  6
ByLayer
 62
    7
370
   -1
100
AcDbPolyline
 90
    5
 70
    1
 43
0
 10
-1886.11551625709
 20
2446.3439662605
 10
-1800.86967298551
 20
2431.50238241709
 10
-1819.30737045728
 20
2435.37595455484
 10
-1838.0773667886
 20
2441.42854812488
 10
-1850.08671765201
 20
2443.90605455939
  0
LWPOLYLINE
  5
7A
100
AcDbEntity
  8
53
  6
ByLayer
 62
    7
370
   -1
100
AcDbPolyline
 90
   29
 70
    1
 43
0
 10
-1600.43543726357
 20
658.628355348918
 10
-1599.37494533243
 20
648.325234604809
 10
-1597.40572555361
 20
641.686194474308
 10
-1594.50467214318
 20
635.47654577259
 10
-1592.80548592116
 20
628.139618149987
 10
-1591.19101651191
 20
625.554888617025
 10
-1582.39854243461
 20
616.894878604504
 10
-1576.96742165387
 20
614.162602933483
 10
-1571.36673779845
 20
612.726048059556
 10
-1565.72069348257
 20
612.50604124491
 10
-1560.81615166114
 20
613.392706333532
 10
-1555.23448080243
 20
615.631669917826
 10
-1549.57981924494
 20
619.135210715273
 10
-1544.13817247046
 20
623.8225623606349
 10
-1539.05651240956
 20
629.63892867967
 10
-1534.73499726243
 20
636.5540517776381
 10
-1531.35478562753
 20
644.528149973732
 10
-1552.71348213286
 20
739.721805986681
 10
-1557.59554952258
 20
743.876566050275
 10
-1563.45904211755
 20
747.275626277249
 10
-1572.21733430204
 20
750.453331741558
 10
-1576.37880627861
 20
751.177922394804
 10
-1580.13291518796
 20
751.002686662991
 10
-1583.28940227632
 20
749.808436645793
 10
-1586.14590393921
 20
747.439797948738
 10
-1589.89312017941
 20
741.841647267339
 10
-1592.29215408199
 20
733.852642520527
 10
-1594.08974775591
 20
724.02874350486
 10
-1599.61068990892
 20
673.381704990999
  0
LWPOLYLINE
  5
7B
100
AcDbEntity
  8
53
  6
ByLayer
 62
    7
370
   -1
100
AcDbPolyline
 90
   15
 70
    1
 43
0
 10
-1705.14870889234
 20
653.70346413606
 10
-1704.7744971667
 20
648.133312005053
 10
-1702.90407397384
 20
642.365735219239
 10
-1698.02964171174
 20
634.126471629483
 10
-1631.9628392096
 20
660.517447006957
 10
-1645.35959421053
 20
669.821622990723
 10
-1655.07678801431
 20
674.012277463431
 10
-1662.61986689575
 20
676.2599308053281
 10
-1669.93189139572
 20
677.940665259405
 10
-1676.5472089434
 20
678.379656853094
 10
-1687.08425421957
 20
676.114246937011
 10
-1694.35901631428
 20
672.469529813391
 10
-1698.36504912598
 20
669.234913604795
 10
-1702.36213312066
 20
663.252001894256
 10
-1704.06413609176
 20
658.546459107774
  0
LWPOLYLINE
  5
7C
100
AcDbEntity
  8
53
  6
ByLayer
 62
    7
370
   -1
100
AcDbPolyline
 90
   10
 70
    1
 43
0
 10
-2286.13836153901
 20
2470.14509265895
 10
-2285.68099405525
 20
2468.60283502752
 10
-2283.85504962613
 20
2467.01571520064
 10
-2278.78601927923
 20
2465.28877174359
 10
-2271.75309404735
 20
2465.54700476542
 10
-2263.72394246862
 20
2467.91646748668
 10
-2258.37506978691
 20
2493.31678003759
 10
-2264.40102650136
 20
2490.60314985103
 10
-2271.05154888017
 20
2485.7202597623
 10
-2283.07368046336
 20
2474.59671956577
  0
LWPOLYLINE
  5
7D
100
AcDbEntity
  8
53
  6
ByLayer
 62
    7
370
   -1
100
AcDbPolyline
 90
    9
 70
    1
 43
0
 10
-3495.30692056469
 20
2378.9488983605
 10
-3494.99535563484
 20
2370.34717718568
 10
-3478.26939447754
 20
2362.18151798253
 10
-3478.73244651632
 20
2375.19535172516
 10
-3481.47329914382
 20
2392.58084337985
 10
-3482.54762799901
 20
2395.00701162556
 10
-3488.97817300127
 20
2397.72983174137
 10
-3491.70698077346
 20
2396.71130240928
 10
-3493.58308725072
 20
2393.05297827015
  0
LWPOLYLINE
  5
7E
100
AcDbEntity
  8
53
  6
ByLayer
 62
    7
370
   -1
100
AcDbPolyline
 90
   10
 70
    1
 43
0
 10
-3360.66486483635
 20
2489.66115707715
 10
-3355.13628481643
 20
2489.76174149615
 10
-3339.38442221354
 20
2493.61778233535
 10
-3333.27398608413
 20
2497.23319515221
 10
-3320.59631164961
 20
2508.66113746562
 10
-3310.75986459559
 20
2521.64637911971
 10
-3301.09275436031
 20
2538.60348570924
 10
-3294.71646853493
 20
2553.37930902397
 10
-3292.68007358774
 20
2559.97881015362
 10
-3291.63728367584
 20
2566.84329833853
  0
LWPOLYLINE
  5
7F
100
AcDbEntity
  8
53
  6
ByLayer
 62
    7
370
   -1
100
AcDbPolyline
 90
    4
 70
    1
 43
0
 10
-1454.99097277703
 20
2203.95410848681
 10
-1450.62073196087
 20
2202.38755075254
 10
-1444.25585629521
 20
2205.96243319568
 10
-1437.10402404256
 20
2220.16775474903
  0
LWPOLYLINE
  5
80
100
AcDbEntity
  8
53
  6
ByLayer
 62
    7
370
   -1
100
AcDbPolyline
 90
    3
 70
    1
 43
0
 10
-879.693996727766
 20
1689.92674229312
 10
-843.985617043114
 20
1708.67219365596
 10
-867.285605538125
 20
1697.66697661169
  0
LWPOLYLINE
  5
81
100
AcDbEntity
  8
54
  6
ByLayer
 62
    7
370
   -1
100
AcDbPolyline
 90
    4
 70
    1
 43
0
 10
-1781.34645597141
 20
2060.5536518004
 10
-1778.8974492782
 20
2059.45633722701
 10
-1775.92927149555
 20
2061.24904124924
 10
-1779.16054960484
 20
2062.48010459834
  0
LWPOLYLINE
  5
82
100
AcDbEntity
  8
54
  6
ByLayer
 62
    7
370
   -1
100
AcDbPolyline
 90
    9
 70
    1
 43
0
 10
-2024.45379970522
 20
1087.03280721268
 10
-2023.65172656733
 20
1082.20324552263
 10
-2020.54637442156
 20
1076.31848847268
 10
-2010.9724179383
 20
1096.63816187633
 10
-2011.55393524959
 20
1099.57398316296
 10
-2013.64646880546
 20
1102.90370531707
 10
-2016.47240424504
 20
1103.9825207038
 10
-2018.36072253242
 20
1102.78967134797
 10
-2023.20514262329
 20
1091.666748145
  0
LWPOLYLINE
  5
83
100
AcDbEntity
  8
1
  6
ByLayer
 62
    7
370
   -1
100
AcDbPolyline
 90
  448
 70
    1
 43
0
 10
-3577.78285714286
 20
1061.09714285714
 10
-3561.6
 20
1058.4
 10
-3560
 20
1058.4
 10
-3537.37142857143
 20
1044.57142857143
 10
-3513.6
 20
1027.2
 10
-3485.15555555556
 20
998.755555555555
 10
-3441.12214765101
 20
941.938255033557
 10
-3426.8
 20
917.2
 10
-3406.75789473684
 20
868.526315789474
 10
-3401.6
 20
844.8
 10
-3398.928
 20
819.415999999999
 10
-3400.8
 20
790.4
 10
-3403.10303030303
 20
769.672727272728
 10
-3412.3
 20
747.6
 10
-3420.4
 20
733.714285714286
 10
-3432.79999999999
 20
716.000000000007
 10
-3484.43428571429
 20
670.102857142857
 10
-3497.6
 20
652
 10
-3502.4
 20
623.2
 10
-3486.12019704434
 20
572.551724137932
 10
-3482.56153846154
 20
541.413461538462
 10
-3437.33333333333
 20
537.644444444445
 10
-3409.33333333333
 20
542.311111111111
 10
-3401.2
 20
539.6
 10
-3398.4
 20
536.8
 10
-3397.23076923077
 20
527.4461538461539
 10
-3398.88695652174
 20
497.634782608696
 10
-3411.02857142857
 20
465.257142857143
 10
-3413.6
 20
448.8
 10
-3409.6
 20
432
 10
-3394.4
 20
425.6
 10
-3363.2
 20
432
 10
-3353.6
 20
439.2
 10
-3332.8
 20
488
 10
-3332
 20
503.2
 10
-3335.2
 20
508.8
 10
-3336.4
 20
516
 10
-3335
 20
527.2
 10
-3333.33333333333
 20
527.2
 10
-3324.66666666667
 20
514.2
 10
-3312.8
 20
532
 10
-3309.6
 20
533.6
 10
-3302.4
 20
533.6
 10
-3297.6
 20
532
 10
-3286.77647058824
 20
511.435294117647
 10
-3280.75294117647
 20
494.870588235295
 10
-3277.7520661157
 20
473.864462809918
 10
-3284
 20
409.6
 10
-3271.2
 20
391.2
 10
-3254.4
 20
391.2
 10
-3215.74687131051
 20
414.243211334121
 10
-3140.8
 20
512
 10
-3128.8
 20
524
 10
-3106.36602972399
 20
541.256900212314
 10
-3105.6
 20
569.6
 10
-3102.9
 20
574.1
 10
-3100.44444444444
 20
571.644444444444
 10
-3092.35348837209
 20
548.989767441861
 10
-3071.2
 20
550.4
 10
-3068.8
 20
577.6
 10
-3067.33333333333
 20
579.0666666666669
 10
-3062.41245136187
 20
554.462256809339
 10
-3023.2
 20
556
 10
-2998.4
 20
567.2
 10
-2967.2
 20
611.2
 10
-2936
 20
650.2
 10
-2936
 20
658.4
 10
-2934.08
 20
661.28
 10
-2928.69333333333
 20
655.893333333333
 10
-2880
 20
673.6
 10
-2878.4
 20
700.8
 10
-2876
 20
704.8
 10
-2875.2
 20
704.8
 10
-2875.2
 20
677.333333333333
 10
-2835.2
 20
684
 10
-2810.4
 20
686.48
 10
-2810.4
 20
699.2
 10
-2808.4
 20
701.2
 10
-2806.4
 20
699.2
 10
-2806.4
 20
684
 10
-2744.8
 20
666.4
 10
-2610.22706164932
 20
645.589751801441
 10
-2460.78518518519
 20
644.725925925926
 10
-2382.4
 20
637.6
 10
-2344
 20
637.6
 10
-2296
 20
649.6
 10
-2160.43529411765
 20
723.470588235294
 10
-2116.8
 20
742.171428571429
 10
-2116.8
 20
767.2
 10
-2114.81739130435
 20
771.1652173913041
 10
-2102.51428571429
 20
760.4
 10
-2098.24
 20
745.4400000000001
 10
-2079.52
 20
726.72
 10
-2074.4
 20
708.8
 10
-2074.4
 20
683
 10
-2091.64280442804
 20
609.718081180812
 10
-2087.2
 20
585.6
 10
-2052.8
 20
539.2
 10
-1935.2
 20
361.6
 10
-1909.6
 20
337.6
 10
-1888.8
 20
324.8
 10
-1865.6
 20
323.2
 10
-1845.6
 20
331.2
 10
-1831.2
 20
348
 10
-1830.4
 20
363.2
 10
-1836.8
 20
388.8
 10
-1837.90476190476
 20
399.847619047619
 10
-1835.43529411765
 20
427.011764705882
 10
-1832.48
 20
434.4
 10
-1824.8
 20
444
 10
-1816.8
 20
452
 10
-1804.22857142857
 20
458.285714285714
 10
-1783.52
 20
463.808
 10
-1748.8
 20
464.8
 10
-1737.6
 20
473.6
 10
-1750.4
 20
501.6
 10
-1753.48571428571
 20
511.885714285714
 10
-1745.12727272727
 20
562.0363636363639
 10
-1755.2
 20
575.466666666667
 10
-1755.2
 20
585.6
 10
-1736.8
 20
567.2
 10
-1723.2
 20
583.2
 10
-1695.2
 20
633.6
 10
-1694.4
 20
648
 10
-1677.6
 20
656
 10
-1666.48888888889
 20
658.2222222222219
 10
-1647.36
 20
653.4400000000001
 10
-1620
 20
635.2
 10
-1576
 20
629.6
 10
-1559.2
 20
636.8
 10
-1542.4
 20
655.2
 10
-1540
 20
676
 10
-1549.6
 20
729.6
 10
-1556.8
 20
748
 10
-1608.38890356671
 20
808.9035667107
 10
-1670.53333333333
 20
856.133333333333
 10
-1682.93333333333
 20
868.533333333334
 10
-1698.17142857143
 20
888.342857142857
 10
-1707.2
 20
906.4
 10
-1707.2
 20
915.2
 10
-1702.88
 20
932.48
 10
-1683.5
 20
961.55
 10
-1650.32520568437
 20
987.89468960359
 10
-1572.2886756238
 20
1011.98003838772
 10
-1514.4
 20
1022.4
 10
-1472.98823529412
 20
1026.54117647059
 10
-1462.36108108108
 20
1030.88864864865
 10
-1471.2
 20
1101.6
 10
-1471.2
 20
1112.8
 10
-1470.4
 20
1112.8
 10
-1465.6
 20
1106.4
 10
-1452.97489093553
 20
1066.72108579738
 10
-1398.35604395604
 20
1109.68791208791
 10
-1390.24
 20
1125.92
 10
-1377.66153846154
 20
1142.09230769231
 10
-1364
 20
1151.2
 10
-1331.46666666667
 20
1167.46666666667
 10
-1289.6347826087
 20
1171.26956521739
 10
-1231.84950495049
 20
1170.27326732673
 10
-1196.93186813187
 20
1165.61758241758
 10
-1158.89523809524
 20
1150.05714285714
 10
-1135.78039215686
 20
1136.18823529412
 10
-1102.4
 20
1107.2
 10
-1081.76551724138
 20
1085.35172413793
 10
-1000.52852039857
 20
1029.70994547847
 10
-975.2
 20
1076
 10
-973.6
 20
1088
 10
-976.18064516129
 20
1184.77419354839
 10
-1009.2
 20
1228.8
 10
-1031.8843373494
 20
1274.1686746988
 10
-1082.6214532872
 20
1320.95224913495
 10
-1133.6
 20
1356
 10
-1162.05508982036
 20
1376.86706586826
 10
-1175.89189189189
 20
1406.27027027027
 10
-1180.4
 20
1422.8
 10
-1182.21538461538
 20
1450.03076923077
 10
-1173.06966292135
 20
1550.63370786517
 10
-1180.86666666667
 20
1564
 10
-1202.4
 20
1564
 10
-1212.96
 20
1565.92
 10
-1237.02857142857
 20
1573.94285714286
 10
-1240.12631578947
 20
1567.74736842105
 10
-1254.24
 20
1566.336
 10
-1257.91269035533
 20
1596.18680203046
 10
-1256
 20
1603.2
 10
-1253.6
 20
1604.8
 10
-1229.6
 20
1606.4
 10
-1217.6
 20
1620
 10
-1212.13023255814
 20
1631.8511627907
 10
-1177.6
 20
1644.8
 10
-1155.2
 20
1659.2
 10
-1081.36525096525
 20
1690.33513513514
 10
-1042.74285714286
 20
1701.6
 10
-1013.44
 20
1701.6
 10
-965.74647887324
 20
1685.34084507042
 10
-943.8
 20
1672.8
 10
-930.9333333333331
 20
1672.8
 10
-921.6
 20
1668.8
 10
-881.828571428572
 20
1638.97142857143
 10
-870.4
 20
1634.4
 10
-859.7787234042549
 20
1635.28510638298
 10
-821.312
 20
1650.08
 10
-800
 20
1685.6
 10
-796.8
 20
1702.4
 10
-796
 20
1732
 10
-808
 20
1766.4
 10
-854.4
 20
1809.6
 10
-879.127272727273
 20
1834.32727272727
 10
-899.2
 20
1873.6
 10
-932
 20
1912
 10
-949.6
 20
1922.4
 10
-1011.82222222222
 20
1935.67407407407
 10
-1028.52413793103
 20
1941.24137931034
 10
-1054.88813559322
 20
1961.61355932203
 10
-1059.8
 20
1969.8
 10
-1069.54626865672
 20
1999.03880597015
 10
-1064.8
 20
2112
 10
-1070.4
 20
2140
 10
-1078.4
 20
2158.4
 10
-1115.2
 20
2200.8
 10
-1135.9
 20
2207.7
 10
-1166.4
 20
2201.6
 10
-1189.01052631579
 20
2201.6
 10
-1221.6
 20
2187.2
 10
-1260.54039735099
 20
2160.31258278146
 10
-1286.51034482758
 20
2150.86896551724
 10
-1303.77142857143
 20
2149.14285714286
 10
-1324.73846153846
 20
2151.93846153846
 10
-1332.8
 20
2160
 10
-1344.48695652174
 20
2179.47826086957
 10
-1355.2
 20
2185.6
 10
-1376.8
 20
2185.6
 10
-1417.6
 20
2178.4
 10
-1435.36
 20
2178.4
 10
-1443.68
 20
2188.8
 10
-1446.03636363636
 20
2194.69090909091
 10
-1448
 20
2210.4
 10
-1440.96
 20
2231.52
 10
-1429.2
 20
2250
 10
-1400.8
 20
2278.4
 10
-1372.64
 20
2298.88
 10
-1352.26666666667
 20
2309.06666666667
 10
-1300.24116985377
 20
2325.3246344207
 10
-1279.2
 20
2375.2
 10
-1284
 20
2408
 10
-1294.4
 20
2421.6
 10
-1348
 20
2447.2
 10
-1361.6
 20
2439.2
 10
-1364
 20
2439.2
 10
-1364
 20
2449.6
 10
-1370.4
 20
2451.2
 10
-1408.8
 20
2487.2
 10
-1440.8
 20
2498.4
 10
-1483.6788249694
 20
2493.96425948592
 10
-1524.28070175439
 20
2458.84912280702
 10
-1582.31111111111
 20
2386.31111111111
 10
-1589.74545454545
 20
2380.36363636364
 10
-1602.27692307692
 20
2377.23076923077
 10
-1612.8
 20
2378.4
 10
-1619.2
 20
2381.6
 10
-1625.6
 20
2388
 10
-1633.6
 20
2404
 10
-1633.6
 20
2463.36
 10
-1640
 20
2483.2
 10
-1660
 20
2500
 10
-1704.8
 20
2498.4
 10
-1741.6
 20
2487.2
 10
-1743.2
 20
2473.6
 10
-1745.31764705882
 20
2470.42352941176
 10
-1748.8
 20
2480
 10
-1757.07889908257
 20
2480.68990825688
 10
-1810.97142857143
 20
2465.6
 10
-1829.86666666667
 20
2465.6
 10
-1836.57142857143
 20
2470.62857142857
 10
-1840
 20
2475.2
 10
-1840
 20
2482.4
 10
-1837.2
 20
2488
 10
-1807.2
 20
2528
 10
-1746.59104477612
 20
2600.9552238806
 10
-1683.48456375839
 20
2669.79865771812
 10
-1680.8
 20
2680
 10
-1680.8
 20
2716.8
 10
-1687.2
 20
2735.2
 10
-1700
 20
2749.6
 10
-1711.2
 20
2755.2
 10
-1744
 20
2759.2
 10
-1760.8
 20
2753.6
 10
-1827.2
 20
2725.6
 10
-1854.4
 20
2702.4
 10
-1864.03764705882
 20
2691.55764705882
 10
-1922.85714285714
 20
2568.57142857143
 10
-1934.4
 20
2549.33333333333
 10
-1949.3
 20
2529.46666666667
 10
-1981.22264150943
 20
2499.0641509434
 10
-2015.59999999999
 20
2475.00000000001
 10
-2053.6
 20
2456
 10
-2087.95789473684
 20
2444.54736842105
 10
-2136.88470588235
 20
2435.44470588235
 10
-2166.4
 20
2433.6
 10
-2199.2
 20
2433.6
 10
-2219.77142857143
 20
2437.02857142857
 10
-2242.4
 20
2443.2
 10
-2260
 20
2452
 10
-2268.8
 20
2460.8
 10
-2268.8
 20
2472
 10
-2264.71111111111
 20
2480.17777777778
 10
-2253.76
 20
2489.76
 10
-2237.43999999999
 20
2500.64000000001
 10
-2134.4
 20
2554.4
 10
-2102.4
 20
2584.8
 10
-2096
 20
2600.8
 10
-2098.4
 20
2624.8
 10
-2105.6
 20
2629.6
 10
-2130.87179487179
 20
2634.96068376068
 10
-2147.2
 20
2633.6
 10
-2180
 20
2633.6
 10
-2204.7
 20
2637.4
 10
-2228.64
 20
2642.72
 10
-2306.22929936306
 20
2666.59363057325
 10
-2334.76756756757
 20
2654.48648648649
 10
-2343.2
 20
2652.8
 10
-2360.71111111111
 20
2652.8
 10
-2402.85
 20
2663.05
 10
-2414.4
 20
2668
 10
-2422.4
 20
2669.6
 10
-2430.97142857143
 20
2673.02857142857
 10
-2476.60649819495
 20
2687.28953068592
 10
-2514.74346289753
 20
2713.25512367491
 10
-2565.73333333333
 20
2724.8
 10
-2576.8
 20
2724.8
 10
-2579.2
 20
2728
 10
-2605.6
 20
2735.2
 10
-2660.8
 20
2737.6
 10
-2714.4
 20
2716
 10
-2757.6
 20
2678.4
 10
-2772.8
 20
2664.36923076923
 10
-2772.8
 20
2654.4
 10
-2774.5
 20
2648.45
 10
-2776.8
 20
2649.6
 10
-2785.2
 20
2660.1
 10
-2797.6
 20
2663.2
 10
-2804.42352941176
 20
2667.29411764706
 10
-2812.16
 20
2676.32
 10
-2817.14285714286
 20
2686.28571428571
 10
-2824.12
 20
2716.52
 10
-2832.02962962963
 20
2803.52592592593
 10
-2831.2
 20
2816.8
 10
-2826.17142857143
 20
2846.97142857143
 10
-2839.39447513812
 20
2906.47513812155
 10
-2865.69493891798
 20
2929.61954624782
 10
-2892.8
 20
2935.2
 10
-2983.2
 20
2918.4
 10
-2997.11304347826
 20
2917.53043478261
 10
-3021.01818181818
 20
2920.94545454545
 10
-3033.04615384615
 20
2924.55384615385
 10
-3042.4
 20
2930.4
 10
-3061.12
 20
2946
 10
-3085.04615384615
 20
2975.90769230769
 10
-3090.4
 20
3000
 10
-3090.4
 20
3016.8
 10
-3087
 20
3037.2
 10
-3091.2
 20
3045.6
 10
-3126.4
 20
3079.2
 10
-3141.6
 20
3080
 10
-3178.4
 20
3059.2
 10
-3191.2
 20
3055.54285714286
 10
-3191.2
 20
3025.6
 10
-3192.40481927711
 20
3013.55180722892
 10
-3207.5
 20
2976.5
 10
-3214.66666666667
 20
2969.33333333333
 10
-3230.18181818182
 20
2965.45454545455
 10
-3240.32
 20
2966.90285714286
 10
-3247.2
 20
2972.8
 10
-3309.6
 20
3022.4
 10
-3356.8
 20
3026.4
 10
-3374.4
 20
3024
 10
-3393.6
 20
3012.8
 10
-3416
 20
2987.2
 10
-3427.2
 20
2956
 10
-3425.6
 20
2924.8
 10
-3400.52783505155
 20
2875.90927835052
 10
-3352.8
 20
2860
 10
-3338.4
 20
2852.8
 10
-3329.6
 20
2844
 10
-3323.2
 20
2834.4
 10
-3320.8
 20
2824.8
 10
-3320.8
 20
2809.67272727273
 10
-3344.90666666667
 20
2728.58666666667
 10
-3357.7
 20
2703
 10
-3316
 20
2675.2
 10
-3298.4
 20
2657.6
 10
-3288
 20
2636.8
 10
-3284.8380952381
 20
2627.31428571429
 10
-3288.43333333333
 20
2623
 10
-3295.675
 20
2579.55
 10
-3304
 20
2559.2
 10
-3317.6
 20
2532.8
 10
-3330.85
 20
2511.6
 10
-3345.03529411765
 20
2495.38823529412
 10
-3368.7452991453
 20
2475.80170940171
 10
-3408.42231759657
 20
2448.96137339056
 10
-3452
 20
2435.2
 10
-3476.07780548628
 20
2428.51172069825
 10
-3488
 20
2392
 10
-3490.4
 20
2372.8
 10
-3476
 20
2344
 10
-3465.6
 20
2318.00000000001
 10
-3451.81913043478
 20
2255.98608695652
 10
-3424.90322580645
 20
2233.65161290323
 10
-3382.4
 20
2212.4
 10
-3377.6
 20
2206.4
 10
-3372.8
 20
2198
 10
-3372.8
 20
2188.8
 10
-3376.8
 20
2176.8
 10
-3384.8
 20
2165.6
 10
-3412
 20
2133.6
 10
-3418.4
 20
2120
 10
-3397.21481481482
 20
2033.62962962963
 10
-3380
 20
1999.2
 10
-3361.88936170213
 20
1953.92340425532
 10
-3348.91428571429
 20
1932
 10
-3304.40888888889
 20
1884.07111111111
 10
-3292.27826086957
 20
1865.00869565217
 10
-3286.25454545455
 20
1848.94545454545
 10
-3280
 20
1820.8
 10
-3260.22663438257
 20
1677.89249394673
 10
-3258.95
 20
1644.7
 10
-3265.6
 20
1604.8
 10
-3265.6
 20
1595.73333333333
 10
-3269.6
 20
1586.4
 10
-3283.51538461538
 20
1563.20769230769
 10
-3272.33333333333
 20
1526.46666666667
 10
-3269.33333333333
 20
1511.46666666667
 10
-3267.2
 20
1484.8
 10
-3267.2
 20
1457.2
 10
-3270.35294117647
 20
1430.4
 10
-3274.98947368421
 20
1404.12631578947
 10
-3280.8
 20
1389.6
 10
-3292.09411764706
 20
1370.77647058824
 10
-3318.39999999999
 20
1338.40000000001
 10
-3335.66666666667
 20
1323.6
 10
-3380.50731707317
 20
1299.14146341463
 10
-3385.536
 20
1295.296
 10
-3409.92
 20
1258.72
 10
-3430.79999999999
 20
1233.20000000001
 10
-3459.2
 20
1204.8
 10
-3523.11631799163
 20
1123.71213389121
 10
-3571.2
 20
1072.8
  0
ENDSEC
  0
SECTION
  2
OBJECTS
  0
DICTIONARY
  5
C
330
0
100
AcDbDictionary
281
    1
  3
ACAD_GROUP
350
D
  0
DICTIONARY
  5
D
330
C
100
AcDbDictionary
281
    1
  0
PLOTSETTINGS
  5
84
100
AcDbPlotSettings
  6
1x1
 40
0
 41
0
 42
0
 43
0
  0
ENDSEC
  0
EOF
