999
dxfrw 0.6.3
  0
SECTION
  2
HEADER
  9
$ACADVER
  1
AC1021
  9
$DWGCODEPAGE
  3
ANSI_1252
  9
$INSBASE
 10
0
 20
0
 30
0
  9
$EXTMIN
 10
-3552.800000000005
 20
369.6000000000001
 30
0
  9
$EXTMAX
 10
-771.9999999999952
 20
2944.8
 30
0
  9
$LIMMIN
 10
0
 20
0
  9
$LIMMAX
 10
420
 20
297
  9
$ORTHOMODE
 70
    0
  9
$REGENMODE
 70
    1
  9
$FILLMODE
 70
    1
  9
$QTEXTMODE
 70
    0
  9
$MIRRTEXT
 70
    1
  9
$LTSCALE
 40
1
  9
$ATTMODE
 70
    1
  9
$TEXTSIZE
 40
2.5
  9
$TRACEWID
 40
1
  9
$TEXTSTYLE
  7
Standard
  9
$CLAYER
  8
0
  9
$CELTYPE
  6
ByLayer
  9
$CECOLOR
 62
  256
  9
$CELTSCALE
 40
1
  9
$DISPSILH
 70
    0
  9
$DIMSCALE
 40
1
  9
$DIMASZ
 40
2.5
  9
$DIMEXO
 40
0.625
  9
$DIMDLI
 40
3.75
  9
$DIMRND
 40
0
  9
$DIMDLE
 40
0
  9
$DIMEXE
 40
1.25
  9
$DIMTP
 40
0
  9
$DIMTM
 40
0
  9
$DIMTXT
 40
2.5
  9
$DIMCEN
 40
2.5
  9
$DIMTSZ
 40
0
  9
$DIMTOL
 70
    0
  9
$DIMLIM
 70
    0
  9
$DIMTIH
 70
    0
  9
$DIMTOH
 70
    0
  9
$DIMSE1
 70
    0
  9
$DIMSE2
 70
    0
  9
$DIMTAD
 70
    1
  9
$DIMZIN
 70
    8
  9
$DIMBLK
  1

  9
$DIMASO
 70
    1
  9
$DIMSHO
 70
    1
  9
$DIMPOST
  1

  9
$DIMAPOST
  1

  9
$DIMALT
 70
    0
  9
$DIMALTD
 70
    3
  9
$DIMALTF
 40
0.03937007874
  9
$DIMLFAC
 40
1
  9
$DIMTOFL
 70
    1
  9
$DIMTVP
 40
0
  9
$DIMTIX
 70
    0
  9
$DIMSOXD
 70
    0
  9
$DIMSAH
 70
    0
  9
$DIMBLK1
  1

  9
$DIMBLK2
  1

  9
$DIMSTYLE
  2
ISO-25
  9
$DIMCLRD
 70
    0
  9
$DIMCLRE
 70
    0
  9
$DIMCLRT
 70
    0
  9
$DIMTFAC
 40
1
  9
$DIMGAP
 40
0.625
  9
$DIMJUST
 70
    0
  9
$DIMSD1
 70
    0
  9
$DIMSD2
 70
    0
  9
$DIMTOLJ
 70
    0
  9
$DIMTZIN
 70
    8
  9
$DIMALTZ
 70
    0
  9
$DIMALTTZ
 70
    0
  9
$DIMUPT
 70
    0
  9
$DIMDEC
 70
    2
  9
$DIMTDEC
 70
    2
  9
$DIMALTU
 70
    2
  9
$DIMALTTD
 70
    3
  9
$DIMTXSTY
  7
Standard
  9
$DIMAUNIT
 70
    0
  9
$DIMADEC
 70
    0
  9
$DIMALTRND
 40
0
  9
$DIMAZIN
 70
    0
  9
$DIMDSEP
 70
   44
  9
$DIMATFIT
 70
    3
  9
$DIMFRAC
 70
    0
  9
$DIMLDRBLK
  1

  9
$DIMLUNIT
 70
    2
  9
$DIMLWD
 70
   -2
  9
$DIMLWE
 70
   -2
  9
$DIMTMOVE
 70
    0
  9
$DIMFXL
 40
1
  9
$DIMFXLON
 70
    0
  9
$DIMJOGANG
 40
0.785398163397
  9
$DIMTFILL
 70
    0
  9
$DIMTFILLCLR
 70
    0
  9
$DIMARCSYM
 70
    0
  9
$DIMLTYPE
  6

  9
$DIMLTEX1
  6

  9
$DIMLTEX2
  6

  9
$LUNITS
 70
    2
  9
$LUPREC
 70
    4
  9
$SKETCHINC
 40
1
  9
$FILLETRAD
 40
10
  9
$AUNITS
 70
    0
  9
$AUPREC
 70
    2
  9
$MENU
  1
.
  9
$ELEVATION
 40
0
  9
$PELEVATION
 40
0
  9
$THICKNESS
 40
0
  9
$LIMCHECK
 70
    0
  9
$CHAMFERA
 40
0
  9
$CHAMFERB
 40
0
  9
$CHAMFERC
 40
0
  9
$CHAMFERD
 40
0
  9
$SKPOLY
 70
    0
  9
$USRTIMER
 70
    1
  9
$ANGBASE
 50
0
  9
$ANGDIR
 70
    0
  9
$PDMODE
 70
    0
  9
$PDSIZE
 40
0
  9
$PLINEWID
 40
0
  9
$SPLFRAME
 70
    0
  9
$SPLINETYPE
 70
    6
  9
$SPLINESEGS
 70
    8
  9
$HANDSEED
  5
20000
  9
$SURFTAB1
 70
    6
  9
$SURFTAB2
 70
    6
  9
$SURFTYPE
 70
    6
  9
$SURFU
 70
    6
  9
$SURFV
 70
    6
  9
$UCSBASE
  2

  9
$UCSNAME
  2

  9
$UCSORG
 10
0
 20
0
 30
0
  9
$UCSXDIR
 10
1
 20
0
 30
0
  9
$UCSYDIR
 10
0
 20
1
 30
0
  9
$UCSORTHOREF
  2

  9
$UCSORTHOVIEW
 70
    0
  9
$UCSORGTOP
 10
0
 20
0
 30
0
  9
$UCSORGBOTTOM
 10
0
 20
0
 30
0
  9
$UCSORGLEFT
 10
0
 20
0
 30
0
  9
$UCSORGRIGHT
 10
0
 20
0
 30
0
  9
$UCSORGFRONT
 10
0
 20
0
 30
0
  9
$UCSORGBACK
 10
0
 20
0
 30
0
  9
$PUCSBASE
  2

  9
$PUCSNAME
  2

  9
$PUCSORG
 10
0
 20
0
 30
0
  9
$PUCSXDIR
 10
1
 20
0
 30
0
  9
$PUCSYDIR
 10
0
 20
1
 30
0
  9
$PUCSORTHOREF
  2

  9
$PUCSORTHOVIEW
 70
    0
  9
$PUCSORGTOP
 10
0
 20
0
 30
0
  9
$PUCSORGBOTTOM
 10
0
 20
0
 30
0
  9
$PUCSORGLEFT
 10
0
 20
0
 30
0
  9
$PUCSORGRIGHT
 10
0
 20
0
 30
0
  9
$PUCSORGFRONT
 10
0
 20
0
 30
0
  9
$PUCSORGBACK
 10
0
 20
0
 30
0
  9
$USERI1
 70
    0
  9
$USERI2
 70
    0
  9
$USERI3
 70
    0
  9
$USERI4
 70
    0
  9
$USERI5
 70
    0
  9
$USERR1
 40
0
  9
$USERR2
 40
0
  9
$USERR3
 40
0
  9
$USERR4
 40
0
  9
$USERR5
 40
0
  9
$WORLDVIEW
 70
    1
  9
$SHADEDGE
 70
    3
  9
$SHADEDIF
 70
   70
  9
$TILEMODE
 70
    1
  9
$MAXACTVP
 70
   64
  9
$PINSBASE
 10
0
 20
0
 30
0
  9
$PLIMCHECK
 70
    0
  9
$PEXTMIN
 10
1e+20
 20
1e+20
 30
1e+20
  9
$PEXTMAX
 10
-1e+20
 20
-1e+20
 30
-1e+20
  9
$GRIDMODE
 70
    0
  9
$SNAPSTYLE
 70
    0
  9
$PLIMMIN
 10
0
 20
0
  9
$PLIMMAX
 10
420
 20
297
  9
$UNITMODE
 70
    0
  9
$VISRETAIN
 70
    1
  9
$PLINEGEN
 70
    0
  9
$PSLTSCALE
 70
    1
  9
$TREEDEPTH
 70
 3020
  9
$CMLSTYLE
  2
Standard
  9
$CMLJUST
 70
    0
  9
$CMLSCALE
 40
20
  9
$PROXYGRAPHICS
 70
    1
  9
$MEASUREMENT
 70
    1
  9
$CELWEIGHT
370
   -1
  9
$ENDCAPS
280
    0
  9
$JOINSTYLE
280
    0
  9
$LWDISPLAY
290
    0
  9
$INSUNITS
 70
    6
  9
$HYPERLINKBASE
  1

  9
$STYLESHEET
  1

  9
$XEDIT
290
    1
  9
$CEPSNTYPE
380
    0
  9
$PSTYLEMODE
290
    1
  9
$EXTNAMES
290
    1
  9
$PSVPSCALE
 40
0
  9
$OLESTARTUP
290
    0
  9
$SORTENTS
280
  127
  9
$INDEXCTL
280
    0
  9
$HIDETEXT
280
    1
  9
$XCLIPFRAME
290
    0
  9
$HALOGAP
280
    0
  9
$OBSCOLOR
 70
  257
  9
$OBSLTYPE
280
    0
  9
$INTERSECTIONDISPLAY
280
    0
  9
$INTERSECTIONCOLOR
 70
  257
  9
$DIMASSOC
280
    2
  9
$PROJECTNAME
  1

  9
$CAMERADISPLAY
290
    0
  9
$LENSLENGTH
 40
50
  9
$CAMERAHEIGHT
 40
0
  9
$STEPSPERSEC
 40
24
  9
$STEPSIZE
 40
100
  9
$3DDWFPREC
 40
2
  9
$PSOLWIDTH
 40
0.005
  9
$PSOLHEIGHT
 40
0.08
  9
$LOFTANG1
 40
1.570796326795
  9
$LOFTANG2
 40
1.570796326795
  9
$LOFTMAG1
 40
0
  9
$LOFTMAG2
 40
0
  9
$LOFTPARAM
 70
    7
  9
$LOFTNORMALS
280
    1
  9
$LATITUDE
 40
37.795
  9
$LONGITUDE
 40
-122.394
  9
$NORTHDIRECTION
 40
0
  9
$TIMEZONE
 70
-8000
  9
$LIGHTGLYPHDISPLAY
280
    1
  9
$TILEMODELIGHTSYNCH
280
    1
  9
$SOLIDHIST
280
    0
  9
$SHOWHIST
280
    1
  9
$DWFFRAME
280
    2
  9
$DGNFRAME
280
    2
  9
$REALWORLDSCALE
290
    1
  9
$INTERFERECOLOR
 62
  256
  9
$CSHADOW
280
    0
  9
$SHADOWPLANELOCATION
 40
0
  0
ENDSEC
  0
SECTION
  2
CLASSES
  0
ENDSEC
  0
SECTION
  2
TABLES
  0
TABLE
  2
VPORT
  5
8
330
0
100
AcDbSymbolTable
 70
    1
  0
VPORT
  5
31
330
2
100
AcDbSymbolTableRecord
100
AcDbViewportTableRecord
  2
*ACTIVE
 70
    0
 10
0
 20
0
 11
1
 21
1
 12
-170.1526044369482
 22
1358.582810620594
 13
0
 23
0
 14
10
 24
10
 15
10
 25
10
 16
0
 26
0
 36
1
 17
0
 27
0
 37
0
 40
2160.542372617993
 41
1.956043956043956
 42
50
 43
0
 44
0
 50
0
 51
0
 71
    0
 72
  100
 73
    1
 74
    3
 75
    0
 76
    0
 77
    0
 78
    0
281
    0
 65
    1
110
0
120
0
130
0
111
1
121
0
131
0
112
0
122
1
132
0
 79
    0
146
0
348
10020
 60
    7
 61
    5
292
1
282
    1
141
0
142
0
 63
  250
421
3358443
  0
ENDTAB
  0
TABLE
  2
LTYPE
  5
5
330
0
100
AcDbSymbolTable
 70
    4
  0
LTYPE
  5
14
330
5
100
AcDbSymbolTableRecord
100
AcDbLinetypeTableRecord
  2
ByBlock
 70
    0
  3

 72
   65
 73
    0
 40
0
  0
LTYPE
  5
15
330
5
100
AcDbSymbolTableRecord
100
AcDbLinetypeTableRecord
  2
ByLayer
 70
    0
  3

 72
   65
 73
    0
 40
0
  0
LTYPE
  5
16
330
5
100
AcDbSymbolTableRecord
100
AcDbLinetypeTableRecord
  2
Continuous
 70
    0
  3
Solid line
 72
   65
 73
    0
 40
0
  0
LTYPE
  5
32
330
5
100
AcDbSymbolTableRecord
100
AcDbLinetypeTableRecord
  2
DOT
 70
    0
  3
Dot . . . . . . . . . . . . . . . . . . . . . .
 72
   65
 73
    2
 40
6.35
 49
0
 74
    0
 49
-6.35
 74
    0
  0
LTYPE
  5
33
330
5
100
AcDbSymbolTableRecord
100
AcDbLinetypeTableRecord
  2
DOTTINY
 70
    0
  3
Dot (.15x) .....................................
 72
   65
 73
    2
 40
0.9525
 49
0
 74
    0
 49
-0.9525
 74
    0
  0
LTYPE
  5
34
330
5
100
AcDbSymbolTableRecord
100
AcDbLinetypeTableRecord
  2
DOT2
 70
    0
  3
Dot (.5x) .....................................
 72
   65
 73
    2
 40
3.175
 49
0
 74
    0
 49
-3.175
 74
    0
  0
LTYPE
  5
35
330
5
100
AcDbSymbolTableRecord
100
AcDbLinetypeTableRecord
  2
DOTX2
 70
    0
  3
Dot (2x) .  .  .  .  .  .  .  .  .  .  .  .  .
 72
   65
 73
    2
 40
12.7
 49
0
 74
    0
 49
-12.7
 74
    0
  0
LTYPE
  5
36
330
5
100
AcDbSymbolTableRecord
100
AcDbLinetypeTableRecord
  2
DASHED
 70
    0
  3
Dashed _ _ _ _ _ _ _ _ _ _ _ _ _ _ _ _ _
 72
   65
 73
    2
 40
19.05
 49
12.7
 74
    0
 49
-6.35
 74
    0
  0
LTYPE
  5
37
330
5
100
AcDbSymbolTableRecord
100
AcDbLinetypeTableRecord
  2
DASHEDTINY
 70
    0
  3
Dashed (.15x) _ _ _ _ _ _ _ _ _ _ _ _ _ _ _ _ _
 72
   65
 73
    2
 40
2.8575
 49
1.905
 74
    0
 49
-0.9525
 74
    0
  0
LTYPE
  5
38
330
5
100
AcDbSymbolTableRecord
100
AcDbLinetypeTableRecord
  2
DASHED2
 70
    0
  3
Dashed (.5x) _ _ _ _ _ _ _ _ _ _ _ _ _ _ _ _ _
 72
   65
 73
    2
 40
9.524999999999999
 49
6.35
 74
    0
 49
-3.175
 74
    0
  0
LTYPE
  5
39
330
5
100
AcDbSymbolTableRecord
100
AcDbLinetypeTableRecord
  2
DASHEDX2
 70
    0
  3
Dashed (2x) ____  ____  ____  ____  ____  ___
 72
   65
 73
    2
 40
38.09999999999999
 49
25.4
 74
    0
 49
-12.7
 74
    0
  0
LTYPE
  5
3A
330
5
100
AcDbSymbolTableRecord
100
AcDbLinetypeTableRecord
  2
DASHDOT
 70
    0
  3
Dash dot __ . __ . __ . __ . __ . __ . __ . __
 72
   65
 73
    4
 40
25.4
 49
12.7
 74
    0
 49
-6.35
 74
    0
 49
0
 74
    0
 49
-6.35
 74
    0
  0
LTYPE
  5
3B
330
5
100
AcDbSymbolTableRecord
100
AcDbLinetypeTableRecord
  2
DASHDOTTINY
 70
    0
  3
Dash dot (.15x) _._._._._._._._._._._._._._._.
 72
   65
 73
    4
 40
3.81
 49
1.905
 74
    0
 49
-0.9525
 74
    0
 49
0
 74
    0
 49
-0.9525
 74
    0
  0
LTYPE
  5
3C
330
5
100
AcDbSymbolTableRecord
100
AcDbLinetypeTableRecord
  2
DASHDOT2
 70
    0
  3
Dash dot (.5x) _._._._._._._._._._._._._._._.
 72
   65
 73
    4
 40
12.7
 49
6.35
 74
    0
 49
-3.175
 74
    0
 49
0
 74
    0
 49
-3.175
 74
    0
  0
LTYPE
  5
3D
330
5
100
AcDbSymbolTableRecord
100
AcDbLinetypeTableRecord
  2
DASHDOTX2
 70
    0
  3
Dash dot (2x) ____  .  ____  .  ____  .  ___
 72
   65
 73
    4
 40
50.8
 49
25.4
 74
    0
 49
-12.7
 74
    0
 49
0
 74
    0
 49
-12.7
 74
    0
  0
LTYPE
  5
3E
330
5
100
AcDbSymbolTableRecord
100
AcDbLinetypeTableRecord
  2
DIVIDE
 70
    0
  3
Divide ____ . . ____ . . ____ . . ____ . . ____
 72
   65
 73
    6
 40
31.75
 49
12.7
 74
    0
 49
-6.35
 74
    0
 49
0
 74
    0
 49
-6.35
 74
    0
 49
0
 74
    0
 49
-6.35
 74
    0
  0
LTYPE
  5
3F
330
5
100
AcDbSymbolTableRecord
100
AcDbLinetypeTableRecord
  2
DIVIDETINY
 70
    0
  3
Divide (.15x) __..__..__..__..__..__..__..__.._
 72
   65
 73
    6
 40
4.7625
 49
1.905
 74
    0
 49
-0.9525
 74
    0
 49
0
 74
    0
 49
-0.9525
 74
    0
 49
0
 74
    0
 49
-0.9525
 74
    0
  0
LTYPE
  5
40
330
5
100
AcDbSymbolTableRecord
100
AcDbLinetypeTableRecord
  2
DIVIDE2
 70
    0
  3
Divide (.5x) __..__..__..__..__..__..__..__.._
 72
   65
 73
    6
 40
15.875
 49
6.35
 74
    0
 49
-3.175
 74
    0
 49
0
 74
    0
 49
-3.175
 74
    0
 49
0
 74
    0
 49
-3.175
 74
    0
  0
LTYPE
  5
41
330
5
100
AcDbSymbolTableRecord
100
AcDbLinetypeTableRecord
  2
DIVIDEX2
 70
    0
  3
Divide (2x) ________  .  .  ________  .  .  _
 72
   65
 73
    6
 40
63.5
 49
25.4
 74
    0
 49
-12.7
 74
    0
 49
0
 74
    0
 49
-12.7
 74
    0
 49
0
 74
    0
 49
-12.7
 74
    0
  0
LTYPE
  5
42
330
5
100
AcDbSymbolTableRecord
100
AcDbLinetypeTableRecord
  2
BORDER
 70
    0
  3
Border __ __ . __ __ . __ __ . __ __ . __ __ .
 72
   65
 73
    6
 40
44.45
 49
12.7
 74
    0
 49
-6.35
 74
    0
 49
12.7
 74
    0
 49
-6.35
 74
    0
 49
0
 74
    0
 49
-6.35
 74
    0
  0
LTYPE
  5
43
330
5
100
AcDbSymbolTableRecord
100
AcDbLinetypeTableRecord
  2
BORDERTINY
 70
    0
  3
Border (.15x) __.__.__.__.__.__.__.__.__.__.__.
 72
   65
 73
    6
 40
6.6675
 49
1.905
 74
    0
 49
-0.9525
 74
    0
 49
1.905
 74
    0
 49
-0.9525
 74
    0
 49
0
 74
    0
 49
-0.9525
 74
    0
  0
LTYPE
  5
44
330
5
100
AcDbSymbolTableRecord
100
AcDbLinetypeTableRecord
  2
BORDER2
 70
    0
  3
Border (.5x) __.__.__.__.__.__.__.__.__.__.__.
 72
   65
 73
    6
 40
22.225
 49
6.35
 74
    0
 49
-3.175
 74
    0
 49
6.35
 74
    0
 49
-3.175
 74
    0
 49
0
 74
    0
 49
-3.175
 74
    0
  0
LTYPE
  5
45
330
5
100
AcDbSymbolTableRecord
100
AcDbLinetypeTableRecord
  2
BORDERX2
 70
    0
  3
Border (2x) ____  ____  .  ____  ____  .  ___
 72
   65
 73
    6
 40
88.89999999999999
 49
25.4
 74
    0
 49
-12.7
 74
    0
 49
25.4
 74
    0
 49
-12.7
 74
    0
 49
0
 74
    0
 49
-12.7
 74
    0
  0
LTYPE
  5
46
330
5
100
AcDbSymbolTableRecord
100
AcDbLinetypeTableRecord
  2
CENTER
 70
    0
  3
Center ____ _ ____ _ ____ _ ____ _ ____ _ ____
 72
   65
 73
    4
 40
50.8
 49
31.75
 74
    0
 49
-6.35
 74
    0
 49
6.35
 74
    0
 49
-6.35
 74
    0
  0
LTYPE
  5
47
330
5
100
AcDbSymbolTableRecord
100
AcDbLinetypeTableRecord
  2
CENTERTINY
 70
    0
  3
Center (.15x) ___ _ ___ _ ___ _ ___ _ ___ _ ___
 72
   65
 73
    4
 40
7.62
 49
4.7625
 74
    0
 49
-0.9525
 74
    0
 49
0.9525
 74
    0
 49
-0.9525
 74
    0
  0
LTYPE
  5
48
330
5
100
AcDbSymbolTableRecord
100
AcDbLinetypeTableRecord
  2
CENTER2
 70
    0
  3
Center (.5x) ___ _ ___ _ ___ _ ___ _ ___ _ ___
 72
   65
 73
    4
 40
28.575
 49
19.05
 74
    0
 49
-3.175
 74
    0
 49
3.175
 74
    0
 49
-3.175
 74
    0
  0
LTYPE
  5
49
330
5
100
AcDbSymbolTableRecord
100
AcDbLinetypeTableRecord
  2
CENTERX2
 70
    0
  3
Center (2x) ________  __  ________  __  _____
 72
   65
 73
    4
 40
101.6
 49
63.5
 74
    0
 49
-12.7
 74
    0
 49
12.7
 74
    0
 49
-12.7
 74
    0
  0
ENDTAB
  0
TABLE
  2
LAYER
  5
2
330
0
100
AcDbSymbolTable
 70
    1
  0
LAYER
  5
10
330
2
100
AcDbSymbolTableRecord
100
AcDbLayerTableRecord
  2
0
 70
    0
 62
    7
  6
CONTINUOUS
370
   -3
390
F
  0
LAYER
  5
4A
330
2
100
AcDbSymbolTableRecord
100
AcDbLayerTableRecord
  2
1
 70
    0
 62
    7
  6
CONTINUOUS
370
   -3
390
F
  0
LAYER
  5
4B
330
2
100
AcDbSymbolTableRecord
100
AcDbLayerTableRecord
  2
51
 70
    0
 62
    7
  6
CONTINUOUS
370
   -3
390
F
  0
LAYER
  5
4C
330
2
100
AcDbSymbolTableRecord
100
AcDbLayerTableRecord
  2
52
 70
    0
 62
    7
  6
CONTINUOUS
370
   -3
390
F
  0
LAYER
  5
4D
330
2
100
AcDbSymbolTableRecord
100
AcDbLayerTableRecord
  2
53
 70
    0
 62
    7
  6
CONTINUOUS
370
   -3
390
F
  0
LAYER
  5
4E
330
2
100
AcDbSymbolTableRecord
100
AcDbLayerTableRecord
  2
54
 70
    0
 62
    7
  6
CONTINUOUS
370
   -3
390
F
  0
LAYER
  5
4F
330
2
100
AcDbSymbolTableRecord
100
AcDbLayerTableRecord
  2
72
 70
    0
 62
    7
  6
CONTINUOUS
370
   -3
390
F
  0
LAYER
  5
50
330
2
100
AcDbSymbolTableRecord
100
AcDbLayerTableRecord
  2
Defpoints
 70
    0
 62
    7
  6
CONTINUOUS
290
0
370
   -3
390
F
  0
ENDTAB
  0
TABLE
  2
STYLE
  5
3
330
0
100
AcDbSymbolTable
 70
    3
  0
STYLE
  5
51
330
2
100
AcDbSymbolTableRecord
100
AcDbTextStyleTableRecord
  2
STANDARD
 70
    0
 40
0
 41
1
 50
0
 71
    0
 42
1
  3
STANDARD
  4

  0
ENDTAB
  0
TABLE
  2
VIEW
  5
6
330
0
100
AcDbSymbolTable
 70
    0
  0
ENDTAB
  0
TABLE
  2
UCS
  5
7
330
0
100
AcDbSymbolTable
 70
    0
  0
ENDTAB
  0
TABLE
  2
APPID
  5
9
330
0
100
AcDbSymbolTable
 70
    1
  0
APPID
  5
12
330
9
100
AcDbSymbolTableRecord
100
AcDbRegAppTableRecord
  2
ACAD
 70
    0
  0
APPID
  5
52
330
9
100
AcDbSymbolTableRecord
100
AcDbRegAppTableRecord
  2
LibreCad
 70
    0
  0
ENDTAB
  0
TABLE
  2
DIMSTYLE
  5
A
330
0
100
AcDbSymbolTable
 70
    1
100
AcDbDimStyleTable
 71
    1
  0
DIMSTYLE
105
53
330
A
100
AcDbSymbolTableRecord
100
AcDbDimStyleTableRecord
  2
Standard
 70
    0
 40
1
 41
2.5
 42
0.625
 43
0.38
 44
1.25
 45
0
 46
0
 47
0
 48
0
 49
1
140
2.5
141
0.09
142
0
143
25.4
144
1
145
0
146
1
147
0.625
148
0
 71
    0
 72
    0
 73
    0
 74
    1
 75
    0
 76
    0
 77
    0
 78
    8
 79
    0
170
    0
171
    2
172
    0
173
    0
174
    0
175
    0
176
    0
177
    0
178
    0
179
    0
271
    2
272
    4
273
    2
274
    2
275
    0
276
    0
277
    2
278
   44
279
    0
280
    0
281
    0
282
    0
283
    1
284
    0
285
    0
286
    0
288
    0
289
    3
340
Standard
341

371
   -2
372
   -2
  0
ENDTAB
  0
TABLE
  2
BLOCK_RECORD
  5
1
330
0
100
AcDbSymbolTable
 70
    2
  0
BLOCK_RECORD
  5
1F
330
1
100
AcDbSymbolTableRecord
100
AcDbBlockTableRecord
  2
*Model_Space
 70
    0
280
    1
281
    0
  0
BLOCK_RECORD
  5
1E
330
1
100
AcDbSymbolTableRecord
100
AcDbBlockTableRecord
  2
*Paper_Space
 70
    0
280
    1
281
    0
  0
ENDTAB
  0
ENDSEC
  0
SECTION
  2
BLOCKS
  0
BLOCK
  5
20
330
1F
100
AcDbEntity
  8
0
100
AcDbBlockBegin
  2
*Model_Space
 70
    0
 10
0
 20
0
 30
0
  3
*Model_Space
  1

  0
ENDBLK
  5
21
330
1F
100
AcDbEntity
  8
0
100
AcDbBlockEnd
  0
BLOCK
  5
1C
330
1B
100
AcDbEntity
  8
0
100
AcDbBlockBegin
  2
*Paper_Space
 70
    0
 10
0
 20
0
 30
0
  3
*Paper_Space
  1

  0
ENDBLK
  5
1D
330
1F
100
AcDbEntity
  8
0
100
AcDbBlockEnd
  0
ENDSEC
  0
SECTION
  2
ENTITIES
  0
TEXT
  5
54
100
AcDbEntity
  8
72
  6
ByLayer
 62
  256
370
   -1
100
AcDbText
 10
-3330.8
 20
2295.6
 30
0
 40
2.5
  1
MARK_1
 50
0
 41
1
 51
0
  7
STANDARD
 71
    0
 11
-3330.8
 21
2295.6
 31
0
210
0
220
0
230
1
100
AcDbText
 73
    1
  0
TEXT
  5
55
100
AcDbEntity
  8
72
  6
ByLayer
 62
  256
370
   -1
100
AcDbText
 10
-3374.8
 20
1059.6
 30
0
 40
2.5
  1
MARK_2
 50
0
 41
1
 51
0
  7
STANDARD
 71
    0
 11
-3374.8
 21
1059.6
 31
0
210
0
220
0
230
1
100
AcDbText
 73
    1
  0
LWPOLYLINE
  5
56
100
AcDbEntity
  8
1
  6
ByLayer
 62
  256
370
   -1
100
AcDbPolyline
 90
  328
 70
    1
 43
0
 10
-3552.800000000002
 20
1085.600000000002
 10
-3552.800000000005
 20
1084.66666666667
 10
-3532.634482758624
 20
1067.86206896552
 10
-3517.133333333335
 20
1048.133333333331
 10
-3495.853333333335
 20
1017.73333333333
 10
-3464.243076923085
 20
949.0153846153876
 10
-3429.600000000003
 20
859.2000000000012
 10
-3412.000000000005
 20
808.0761904761911
 10
-3412.000000000004
 20
742.4000000000009
 10
-3413.470967741944
 20
726.2193548387095
 10
-3421.893877551023
 20
691.5918367346952
 10
-3429.665306122453
 20
670.2204081632689
 10
-3443.760000000003
 20
642.9706666666673
 10
-3466.000000000005
 20
614.8000000000011
 10
-3483.200000000003
 20
597.6000000000006
 10
-3517.286956521745
 20
568.3826086956519
 10
-3519.373913043485
 20
563.1652173913037
 10
-3505.600000000005
 20
544.7999999999995
 10
-3469.000000000003
 20
486.2400000000005
 10
-3450.400000000004
 20
466.4000000000001
 10
-3404.000000000005
 20
445.5999999999992
 10
-3370.400000000004
 20
444.8000000000002
 10
-3304.040000000004
 20
461.5999999999997
 10
-3288.533333333335
 20
461.5999999999997
 10
-3274.880000000003
 20
456.4800000000021
 10
-3263.360000000004
 20
444.96
 10
-3256.011764705883
 20
431.4882352941188
 10
-3234.400000000004
 20
369.6000000000001
 10
-3225.600000000003
 20
369.6000000000001
 10
-3185.600000000004
 20
394.4000000000001
 10
-3166.400000000004
 20
407.1999999999998
 10
-3117.164217252403
 20
436.4076677316293
 10
-3092.800000000003
 20
459.200000000001
 10
-3017.107692307693
 20
536.7384615384631
 10
-3004.342857142863
 20
546.6666666666677
 10
-2979.520000000004
 20
556.3200000000002
 10
-2963.200000000003
 20
559.2000000000012
 10
-2949.600000000003
 20
559.2000000000012
 10
-2927.200000000003
 20
551.7333333333336
 10
-2912.000000000004
 20
541.600000000001
 10
-2883.200000000003
 20
512.8000000000004
 10
-2815.200000000003
 20
448.8000000000006
 10
-2800.000000000004
 20
435.2000000000005
 10
-2793.085714285713
 20
435.2000000000005
 10
-2611.709324758844
 20
489.2270096463021
 10
-2577.600000000003
 20
493.6000000000001
 10
-2511.200000000003
 20
522.4000000000008
 10
-2469.018181818183
 20
555.1272727272735
 10
-2403.360000000004
 20
637.2000000000005
 10
-2387.555555555564
 20
654.1333333333336
 10
-2374.960000000003
 20
665.7600000000007
 10
-2360.000000000003
 20
675.7333333333332
 10
-2339.636363636364
 20
684.2181818181818
 10
-2323.600000000004
 20
688.8000000000008
 10
-2305.504000000004
 20
691.5840000000005
 10
-2278.702702702702
 20
692.9945945945962
 10
-2258.584615384623
 20
691.8769230769235
 10
-2238.400000000002
 20
687.8400000000019
 10
-2219.858823529413
 20
680.4235294117647
 10
-2204.400000000003
 20
668.3999999999993
 10
-2191.200000000003
 20
655.2000000000007
 10
-2172.427272727273
 20
625.7000000000014
 10
-2149.600000000003
 20
579.2000000000007
 10
-2076.000000000003
 20
555.2
 10
-2032.000000000002
 20
544.7999999999995
 10
-1961.600000000003
 20
544.7999999999995
 10
-1931.335519125682
 20
540.4765027322414
 10
-1927.428571428573
 20
552.6857142857154
 10
-1921.600000000003
 20
575.9999999999998
 10
-1901.409921671023
 20
648.5347258485646
 10
-1921.745454545453
 20
719.7090909090925
 10
-1924.000000000002
 20
739.9999999999997
 10
-1924.000000000002
 20
768.0000000000008
 10
-1919.733333333332
 20
789.3333333333336
 10
-1914.933333333333
 20
798.9333333333337
 10
-1907.329729729734
 20
809.5783783783796
 10
-1894.361904761901
 20
819.0095238095241
 10
-1885.706666666672
 20
821.1733333333328
 10
-1868.658823529413
 20
819.6235294117662
 10
-1853.600000000003
 20
813.6000000000006
 10
-1839.200000000003
 20
804.0000000000009
 10
-1818.177777777782
 20
784.8888888888902
 10
-1801.263157894743
 20
765.5578947368415
 10
-1780.800000000004
 20
736.0000000000003
 10
-1736.800000000002
 20
664.0000000000008
 10
-1721.493333333333
 20
631.2000000000003
 10
-1703.258181818181
 20
631.2000000000003
 10
-1606.689298892993
 20
583.3505535055356
 10
-1517.991489361702
 20
537.1914893617025
 10
-1508.800000000002
 20
528.0000000000002
 10
-1488.800000000001
 20
498.4000000000001
 10
-1472.800000000002
 20
486.4000000000008
 10
-1444.000000000001
 20
481.6000000000008
 10
-1393.600000000002
 20
496.7999999999997
 10
-1361.600000000002
 20
516.0000000000002
 10
-1355.200000000002
 20
528.0000000000002
 10
-1354.400000000003
 20
549.6000000000006
 10
-1361.600000000001
 20
579.9999999999998
 10
-1384.000000000004
 20
622.4000000000003
 10
-1438.419433198382
 20
698.7627530364373
 10
-1446.133333333333
 20
715.7333333333337
 10
-1450.169072164952
 20
731.876288659794
 10
-1446.854800431503
 20
879.3613807982747
 10
-1433.422222222225
 20
911.1111111111118
 10
-1426.800000000003
 20
922.7000000000013
 10
-1416.000000000003
 20
936.2000000000014
 10
-1407.418181818182
 20
943.7090909090913
 10
-1394.600000000002
 20
951.4000000000011
 10
-1383.200000000002
 20
955.2000000000018
 10
-1345.437288135591
 20
962.7525423728814
 10
-1326.400000000002
 20
975.2000000000005
 10
-1314.400000000003
 20
1007.200000000001
 10
-1315.200000000002
 20
1040
 10
-1324.800000000002
 20
1098.400000000001
 10
-1324.800000000003
 20
1113.600000000001
 10
-1322.844444444441
 20
1124.35555555556
 10
-1313.066666666671
 20
1134.13333333333
 10
-1303.242105263162
 20
1136.589473684211
 10
-1288.377358490572
 20
1133.886792452831
 10
-1269.158620689662
 20
1122.675862068972
 10
-1255.200000000007
 20
1111.938461538461
 10
-1221.6
 20
1079.199999999999
 10
-1192.800000000001
 20
1060.800000000001
 10
-1172.717241379312
 20
1060.08275862069
 10
-1156.000000000004
 20
1076.800000000001
 10
-1126.13333333333
 20
1102
 10
-1083.96404494382
 20
1133.626966292132
 10
-1011.322292993634
 20
1169.530360934181
 10
-976.4666666666626
 20
1174.17777777778
 10
-955.2
 20
1160.000000000001
 10
-946.3999999999994
 20
1189.6
 10
-947.0918918918928
 20
1205.513513513511
 10
-965.6000000000033
 20
1288.800000000002
 10
-976.3636363636351
 20
1366.836363636361
 10
-979.7033942558728
 20
1372.680939947781
 10
-1101.44615384616
 20
1441.818803418802
 10
-1128.800000000006
 20
1466.133333333332
 10
-1143.542857142865
 20
1482.514285714292
 10
-1179.411320754719
 20
1536.31698113208
 10
-1247.241379310363
 20
1610.408275862071
 10
-1251.200000000036
 20
1611.200000000002
 10
-1254.000000000111
 20
1616.800000000002
 10
-1255.999999999962
 20
1624.8
 10
-1256.000000000049
 20
1641.600000000001
 10
-1234.400000000004
 20
1692.000000000002
 10
-1216.061538461534
 20
1747.015384615382
 10
-1180.597014925363
 20
1787.546268656723
 10
-1145.688888888891
 20
1818.874074074072
 10
-1137.400000000002
 20
1824.400000000001
 10
-1128.799999999999
 20
1826.857142857142
 10
-1111.085714285726
 20
1829.38775510204
 10
-1088.2536585366
 20
1826.941463414631
 10
-1026.400000000004
 20
1865.600000000001
 10
-991.9000000000026
 20
1879.400000000001
 10
-942.8137931035155
 20
1886.951724137921
 10
-860.4719424460602
 20
1896.558273381301
 10
-833.6000000000179
 20
1902.400000000002
 10
-776.8000000000018
 20
1964.000000000002
 10
-771.9999999999952
 20
1972.800000000003
 10
-771.999999999998
 20
2008.000000000003
 10
-779.2000000000046
 20
2069.600000000001
 10
-793.1142528441862
 20
2153.955157867831
 10
-858.8746765249541
 20
2145.631053604443
 10
-925.0108527131727
 20
2144.564341085272
 10
-933.5999999999947
 20
2148.000000000003
 10
-944.000000000003
 20
2158.400000000002
 10
-951.2000000000048
 20
2170.400000000001
 10
-958.9333333333363
 20
2185.86666666667
 10
-963.1999999999982
 20
2207.200000000002
 10
-992.8000000000047
 20
2210.4
 10
-1036.000000000001
 20
2200.800000000002
 10
-1115.199999999996
 20
2168.000000000004
 10
-1141.418357487923
 20
2150.794202898552
 10
-1171.956164383565
 20
2141.150684931511
 10
-1189.275000000004
 20
2143.075000000002
 10
-1203.714285714297
 20
2148.62857142857
 10
-1268.000000000002
 20
2187.200000000002
 10
-1273.600000000005
 20
2192.8
 10
-1279.200000000007
 20
2204.000000000001
 10
-1279.200000000004
 20
2224.200000000002
 10
-1268.800000000004
 20
2304.8
 10
-1280.800000000005
 20
2372.51428571429
 10
-1280.800000000005
 20
2396.800000000001
 10
-1301.890909090909
 20
2415.254545454553
 10
-1332.800000000003
 20
2416.800000000003
 10
-1376.516129032264
 20
2406.864516129031
 10
-1405.600000000001
 20
2394.400000000003
 10
-1414.763636363642
 20
2393.090909090912
 10
-1438.133333333334
 20
2398.933333333332
 10
-1441.333333333329
 20
2397.333333333333
 10
-1442.55238095238
 20
2398.552380952383
 10
-1439.200000000006
 20
2412.8
 10
-1439.200000000003
 20
2459.200000000001
 10
-1434.400000000001
 20
2520.000000000004
 10
-1452.000000000003
 20
2563.200000000001
 10
-1472.800000000001
 20
2584.800000000003
 10
-1496.000000000003
 20
2604.000000000002
 10
-1505.040000000001
 20
2613.040000000006
 10
-1514.400000000003
 20
2632.800000000001
 10
-1516.520930232562
 20
2649.060465116282
 10
-1539.587096774191
 20
2660.593548387104
 10
-1578.400000000002
 20
2692.800000000003
 10
-1609.038297872342
 20
2690.502127659573
 10
-1671.200000000001
 20
2679.200000000003
 10
-1702.300000000003
 20
2679.200000000003
 10
-1732.000000000003
 20
2688.000000000004
 10
-1734.836363636359
 20
2683.272727272734
 10
-1736.000000000003
 20
2685.600000000003
 10
-1736.000000000001
 20
2692.800000000003
 10
-1744.800000000002
 20
2710.400000000004
 10
-1744.800000000004
 20
2724.000000000003
 10
-1742.044444444451
 20
2735.022222222223
 10
-1733.994029850754
 20
2749.110447761192
 10
-1705.600000000002
 20
2782.400000000003
 10
-1677.600000000002
 20
2822.400000000002
 10
-1644.800000000002
 20
2884.000000000004
 10
-1636.000000000002
 20
2918.400000000005
 10
-1642.400000000002
 20
2936.799999999999
 10
-1660.800000000002
 20
2944.8
 10
-1683.200000000003
 20
2944.8
 10
-1715.200000000005
 20
2936
 10
-1763.603960396042
 20
2908.34059405941
 10
-1867.200000000001
 20
2797.600000000004
 10
-1871.200000000002
 20
2792.800000000005
 10
-1880.27906976744
 20
2783.720930232562
 10
-1961.841379310341
 20
2744.413793103455
 10
-1984.000000000002
 20
2739.200000000003
 10
-2012.000000000002
 20
2735.2
 10
-2094.080000000003
 20
2716.960000000001
 10
-2106.080000000002
 20
2715.960000000002
 10
-2116.640000000003
 20
2717.280000000001
 10
-2139.786666666673
 20
2724.99555555556
 10
-2200.800000000003
 20
2759.2
 10
-2259.200000000003
 20
2774.400000000001
 10
-2293.546666666673
 20
2776.64
 10
-2321.600000000002
 20
2755.599999999999
 10
-2331.127272727273
 20
2750.836363636364
 10
-2360.587500000003
 20
2742.587500000002
 10
-2385.434482758624
 20
2737.986206896553
 10
-2416.336842105265
 20
2736.168421052633
 10
-2451.200000000003
 20
2739.200000000003
 10
-2500.421052631585
 20
2746.231578947374
 10
-2562.400000000002
 20
2762.400000000003
 10
-2624.905074626873
 20
2784.140895522391
 10
-2701.600000000005
 20
2792.800000000005
 10
-2767.111111111113
 20
2770.311111111111
 10
-2811.200000000003
 20
2764.800000000001
 10
-2811.200000000004
 20
2746.400000000005
 10
-2816.106666666675
 20
2746.400000000005
 10
-2823.200000000003
 20
2776.800000000003
 10
-2829.600000000005
 20
2780.800000000006
 10
-2838.863157894743
 20
2779.115789473682
 10
-2849.400000000003
 20
2781.750000000002
 10
-2868.63157894737
 20
2792.968421052627
 10
-2890.614634146343
 20
2808.956097560981
 10
-2955.200000000003
 20
2880.000000000001
 10
-2984.800000000002
 20
2910.400000000001
 10
-2995.012765957453
 20
2915.165957446811
 10
-3018.222222222223
 20
2889.635555555561
 10
-3023.200000000005
 20
2888.640000000003
 10
-3036.334883720935
 20
2889.953488372092
 10
-3046.666666666673
 20
2897.333333333331
 10
-3071.840000000005
 20
2928.800000000004
 10
-3078.400000000005
 20
2928.800000000004
 10
-3108
 20
2899.199999999998
 10
-3149.454545454557
 20
2828.654545454553
 10
-3168
 20
2779.200000000001
 10
-3172.800000000002
 20
2769.600000000003
 10
-3180.80000000001
 20
2761.600000000004
 10
-3189.440000000004
 20
2757.280000000002
 10
-3198.400000000006
 20
2756.000000000005
 10
-3223.200000000006
 20
2756.000000000005
 10
-3251.200000000003
 20
2750.399999999998
 10
-3259.2
 20
2750.399999999998
 10
-3267.200000000004
 20
2754.400000000003
 10
-3277.760000000004
 20
2761.440000000003
 10
-3297.989189189194
 20
2791.783783783782
 10
-3348.657142857152
 20
2816.657142857141
 10
-3362.240000000007
 20
2830.240000000005
 10
-3397.163636363644
 20
2890.109090909093
 10
-3404.800000000001
 20
2899.199999999998
 10
-3421.600000000006
 20
2907.200000000004
 10
-3434.400000000004
 20
2905.600000000003
 10
-3456.000000000005
 20
2892.800000000004
 10
-3437.428837209303
 20
2828.204651162792
 10
-3422.346666666671
 20
2766.93333333334
 10
-3408.000000000007
 20
2695.200000000004
 10
-3386.021052631585
 20
2658.568421052632
 10
-3377.600000000002
 20
2631.2
 10
-3367.400000000007
 20
2612.600000000004
 10
-3354.800000000005
 20
2591.600000000002
 10
-3348.800000000003
 20
2573.600000000001
 10
-3348.800000000005
 20
2552.800000000003
 10
-3355.840000000007
 20
2538.720000000003
 10
-3372.400000000002
 20
2514.800000000002
 10
-3404.58181818183
 20
2482.618181818184
 10
-3422.662857142865
 20
2442.438095238093
 10
-3451.200000000004
 20
2399.200000000002
 10
-3465.795599022004
 20
2378.990709046452
 10
-3501.816822429911
 20
2352.725233644862
 10
-3478.400000000006
 20
2317.600000000002
 10
-3473.796491228073
 20
2307.242105263162
 10
-3466.423500611998
 20
2275.643574051409
 10
-3465.679758308163
 20
2185.650755287013
 10
-3456.000000000007
 20
2082.400000000001
 10
-3419.505454545451
 20
1961.687272727272
 10
-3380.18156028369
 20
1873.208510638301
 10
-3359.494736842116
 20
1855.831578947371
 10
-3350.400000000004
 20
1845.600000000002
 10
-3343.679999999989
 20
1835.520000000002
 10
-3339.200000000002
 20
1823.200000000001
 10
-3337.600000000001
 20
1812.800000000001
 10
-3337.600000000015
 20
1732.8
 10
-3327.200000000512
 20
1660.000000000003
 10
-3327.200000000039
 20
1615.200000000001
 10
-3333.764102564103
 20
1542.994871794871
 10
-3331.563636363617
 20
1524.290909090912
 10
-3335.999999999988
 20
1488.800000000002
 10
-3345.599999999999
 20
1460.000000000002
 10
-3359.600000000015
 20
1431.999999999999
 10
-3378.983783783781
 20
1410.854054054051
 10
-3395.200000000001
 20
1396.800000000002
 10
-3443.200000000002
 20
1360.800000000001
 10
-3529.600000000004
 20
1300.800000000001
 10
-3525.600000000005
 20
1262.400000000001
 10
-3525.600000000004
 20
1213.200000000001
 10
-3528.000000000003
 20
1183.200000000001
 10
-3535.733333333329
 20
1136.800000000002
  0
LWPOLYLINE
  5
57
100
AcDbEntity
  8
51
  6
ByLayer
 62
  256
370
   -1
100
AcDbPolyline
 90
    6
 70
    1
 43
0
 10
-1054.449159504917
 20
1980.705335679932
 10
-831.4075822316988
 20
2101.282974068701
 10
-838.3681959629328
 20
2099.763610832162
 10
-866.2912165560931
 20
2087.133010103969
 10
-942.2879308240938
 20
2049.159830030711
 10
-968.8664776845094
 20
2033.937533050651
  0
LWPOLYLINE
  5
58
100
AcDbEntity
  8
51
  6
ByLayer
 62
  256
370
   -1
100
AcDbPolyline
 90
   23
 70
    1
 43
0
 10
-1981.905353772531
 20
846.5241724335688
 10
-1980.156414521902
 20
829.4295975076577
 10
-1968.709690610952
 20
788.9141452719215
 10
-1960.737430579034
 20
773.3168376612006
 10
-1952.332478497133
 20
761.8850374853408
 10
-1940.147796101493
 20
749.7180917860439
 10
-1861.284074566091
 20
831.0043411277392
 10
-1855.462856657721
 20
852.567695013048
 10
-1853.173772576243
 20
866.9690051377527
 10
-1850.398074236332
 20
900.1154114842286
 10
-1850.851031501973
 20
919.9275089389522
 10
-1854.351667773745
 20
941.2388590860614
 10
-1859.428170129763
 20
957.5721465894795
 10
-1878.803311053064
 20
981.1982963020764
 10
-1891.959754676222
 20
984.7317138249208
 10
-1907.910921674122
 20
984.887529758082
 10
-1923.329499153302
 20
981.2586315508419
 10
-1937.885733151274
 20
971.7621485388976
 10
-1951.502934124732
 20
958.6840643516576
 10
-1963.114160674003
 20
942.6845505196205
 10
-1971.423963874273
 20
923.9919296286758
 10
-1977.855717343682
 20
898.0599063888911
 10
-1981.518147437764
 20
875.505490178181
  0
LWPOLYLINE
  5
59
100
AcDbEntity
  8
51
  6
ByLayer
 62
  256
370
   -1
100
AcDbPolyline
 90
   31
 70
    1
 43
0
 10
-2458.394465981763
 20
2070.291431485933
 10
-2457.191139155033
 20
2066.594430690012
 10
-2453.806589048162
 20
2064.681153158891
 10
-2449.083297908275
 20
2065.772640582311
 10
-2390.138758175283
 20
2068.961753477452
 10
-2377.835825253771
 20
2068.953557368211
 10
-2352.000244791334
 20
2067.031785870491
 10
-2339.198929324204
 20
2065.212047420212
 10
-2299.419652477121
 20
2057.273843495412
 10
-2273.167066305633
 20
2048.45279236161
 10
-2260.723264531062
 20
2045.802994298701
 10
-2213.581484266263
 20
2029.953711571591
 10
-2201.555497920913
 20
2024.27561773765
 10
-2178.162919149232
 20
2017.16454337202
 10
-2172.627391922324
 20
2014.632997212841
 10
-2168.468409085244
 20
2023.727108591134
 10
-2174.613325800983
 20
2026.537345027983
 10
-2197.947294595183
 20
2033.630602635892
 10
-2209.840589900863
 20
2039.246046126442
 10
-2258.079867678012
 20
2055.464312550561
 10
-2270.524540757683
 20
2058.114296150222
 10
-2296.838199564334
 20
2066.955868113252
 10
-2337.515444467282
 20
2075.073267189652
 10
-2350.924452679432
 20
2076.979390656921
 10
-2377.461088563222
 20
2078.953309940872
 10
-2390.405750039134
 20
2078.961933564212
 10
-2450.321558334402
 20
2075.720271525242
 10
-2450.328085928013
 20
2075.748518964821
 10
-2450.489687171564
 20
2075.711175146763
 10
-2452.636701821564
 20
2075.595013885052
 10
-2456.784536099333
 20
2073.830348850132
  0
LWPOLYLINE
  5
5A
100
AcDbEntity
  8
51
  6
ByLayer
 62
  256
370
   -1
100
AcDbPolyline
 90
   11
 70
    1
 43
0
 10
-2240.653017128193
 20
2513.180665945531
 10
-2239.689340255783
 20
2510.894023444922
 10
-2239.309034111993
 20
2509.852369857114
 10
-2231.160813826883
 20
2502.074539857343
 10
-2226.565293106943
 20
2499.252077734892
 10
-2222.831273959103
 20
2499.579790236384
 10
-2222.218814401412
 20
2503.871983173593
 10
-2224.018525166523
 20
2509.410383354322
 10
-2228.205412370304
 20
2515.585373992611
 10
-2235.009328135292
 20
2520.517507796862
 10
-2238.235161261994
 20
2520.468856808173
  0
LWPOLYLINE
  5
5B
100
AcDbEntity
  8
51
  6
ByLayer
 62
  256
370
   -1
100
AcDbPolyline
 90
   15
 70
    1
 43
0
 10
-2666.936483109843
 20
1031.274224587301
 10
-2665.322500319703
 20
1028.191981731921
 10
-2662.143891484983
 20
1026.7772000024
 10
-2640.768069991394
 20
1032.25544233714
 10
-2617.929198655125
 20
1039.980458388269
 10
-2596.684694707723
 20
1043.550332837551
 10
-2559.663585194404
 20
1055.386297858241
 10
-2562.708824097063
 20
1064.911344841101
 10
-2599.047938897683
 20
1053.293419357051
 10
-2620.375367882003
 20
1049.709610387501
 10
-2643.615435274422
 20
1041.848893848932
 10
-2662.941318465443
 20
1036.8960141907
 10
-2659.445560083233
 20
1030.220121260791
 10
-2664.592796507984
 20
1036.16181065211
 10
-2666.288725752074
 20
1034.69264116107
  0
LWPOLYLINE
  5
5C
100
AcDbEntity
  8
51
  6
ByLayer
 62
  256
370
   -1
100
AcDbPolyline
 90
   23
 70
    1
 43
0
 10
-2639.952168509833
 20
1070.159712776461
 10
-2620.587918495833
 20
1067.158618258661
 10
-2620.424128219943
 20
1067.144165584791
 10
-2585.001609606744
 20
1064.018521488231
 10
-2573.284815906242
 20
1064.016012346221
 10
-2573.192317733243
 20
1064.019418369051
 10
-2533.959515437123
 20
1065.464071989301
 10
-2518.913198768123
 20
1066.876328523741
 10
-2501.635537087254
 20
1070.81248858145
 10
-2492.191108441223
 20
1075.005381825471
 10
-2492.045848363763
 20
1074.582123627902
 10
-2488.016180742983
 20
1075.965085219851
 10
-2486.154457671993
 20
1078.57174027261
 10
-2486.153582988323
 20
1082.656199442121
 10
-2488.271150340163
 20
1085.369343175621
 10
-2491.609957733203
 20
1086.204571048951
 10
-2504.804660564663
 20
1080.346728035631
 10
-2520.497808187123
 20
1076.771548593411
 10
-2534.611278303583
 20
1075.446849609991
 10
-2573.467796132164
 20
1074.01605176059
 10
-2584.560201908653
 20
1074.018427190421
 10
-2619.381364194044
 20
1077.091008265789
 10
-2638.420640482253
 20
1080.041737968741
  0
LWPOLYLINE
  5
5D
100
AcDbEntity
  8
51
  6
ByLayer
 62
  256
370
   -1
100
AcDbPolyline
 90
   16
 70
    1
 43
0
 10
-2538.438936952763
 20
999.5524686595003
 10
-2538.435865016784
 20
995.6051041600648
 10
-2535.737400097093
 20
992.7241350513499
 10
-2508.638723505603
 20
990.9282516306395
 10
-2464.052476239793
 20
990.4091451393351
 10
-2463.961113351884
 20
990.408081424148
 10
-2463.869772598362
 20
990.4103564016943
 10
-2437.419445084003
 20
991.0691412130577
 10
-2398.802513051613
 20
994.5296970356944
 10
-2399.695060433963
 20
1004.48978534706
 10
-2437.990806151962
 20
1001.058011799761
 10
-2464.027419526733
 20
1000.409531155381
 10
-2508.249589758953
 20
1000.92439878912
 10
-2533.106767787223
 20
1002.5717336232
 10
-2530.230226725493
 20
995.3010639797776
 10
-2536.736266584043
 20
1001.375975319241
  0
LWPOLYLINE
  5
5E
100
AcDbEntity
  8
51
  6
ByLayer
 62
  256
370
   -1
100
AcDbPolyline
 90
    9
 70
    1
 43
0
 10
-1203.826726148714
 20
1143.656767188801
 10
-1001.276087227285
 20
1278.955050611671
 10
-1025.23696215934
 20
1273.285525306801
 10
-1044.669990606085
 20
1263.815486657071
 10
-1066.973860835012
 20
1251.34886272709
 10
-1090.116349877711
 20
1236.92661834181
 10
-1113.437041431152
 20
1220.624812075351
 10
-1157.843442164882
 20
1187.004720899461
 10
-1178.802390681222
 20
1168.56880881871
  0
LWPOLYLINE
  5
5F
100
AcDbEntity
  8
51
  6
ByLayer
 62
  256
370
   -1
100
AcDbPolyline
 90
   14
 70
    1
 43
0
 10
-3102.814284550956
 20
2483.020081226794
 10
-3024.350086398564
 20
2475.293111894032
 10
-2977.547548044284
 20
2466.463166453262
 10
-2953.217308753933
 20
2463.265606176441
 10
-2953.217395448006
 20
2463.135472314803
 10
-2949.920096418987
 20
2463.133275682245
 10
-2947.033746420585
 20
2465.834236419292
 10
-2946.774338336024
 20
2469.778715175982
 10
-2949.28210210562
 20
2472.83441903798
 10
-2975.967838645835
 20
2476.341546530663
 10
-3022.713245174576
 20
2485.160713263274
 10
-3022.930336127465
 20
2485.201670470662
 10
-3023.150193371733
 20
2485.223321493981
 10
-3101.834248768382
 20
2492.971941850062
  0
LWPOLYLINE
  5
60
100
AcDbEntity
  8
51
  6
ByLayer
 62
  256
370
   -1
100
AcDbPolyline
 90
   35
 70
    1
 43
0
 10
-3065.121169687376
 20
2781.138092207232
 10
-3062.135747549523
 20
2763.457699421461
 10
-3055.57002608831
 20
2744.12392110437
 10
-3045.498174735613
 20
2726.184807343391
 10
-3033.647528478244
 20
2709.438308829283
 10
-3019.764798065475
 20
2692.817456586181
 10
-2989.506042847348
 20
2665.720892452488
 10
-2968.686761918163
 20
2652.626019921912
 10
-2956.905361005963
 20
2646.318969855031
 10
-2905.544743723745
 20
2610.902545997263
 10
-2846.597548804113
 20
2563.441465354362
 10
-2829.205338090354
 20
2553.244476551364
 10
-2815.137751551564
 20
2547.215303509063
 10
-2800.433236130024
 20
2544.081306792722
 10
-2785.955763901834
 20
2543.284261849173
 10
-2772.796840852944
 20
2545.866296061514
 10
-2761.439100718793
 20
2551.776930944951
 10
-2752.872923303183
 20
2561.347026355362
 10
-2748.088908386296
 20
2574.577242221907
 10
-2746.276354384745
 20
2588.317437763144
 10
-2747.358705968983
 20
2603.100962096952
 10
-2753.103962279713
 20
2633.94039638043
 10
-2763.091931397224
 20
2663.411056818712
 10
-2779.880838137924
 20
2702.284250069253
 10
-2799.845657922123
 20
2739.787958781672
 10
-2803.675270000063
 20
2748.477311964312
 10
-2942.474499391365
 20
2880.573608122444
 10
-2956.338073754756
 20
2887.821845524104
 10
-2976.909987874283
 20
2890.959751051541
 10
-2993.624351732493
 20
2889.218285629623
 10
-3010.901052010065
 20
2882.168593653435
 10
-3027.265247671683
 20
2872.273493143151
 10
-3041.956495642374
 20
2857.195676979523
 10
-3060.037855430563
 20
2824.238515311512
 10
-3065.079203779332
 20
2806.004669767939
  0
LWPOLYLINE
  5
61
100
AcDbEntity
  8
51
  6
ByLayer
 62
  256
370
   -1
100
AcDbPolyline
 90
   10
 70
    1
 43
0
 10
-2906.906041019028
 20
1760.193045502502
 10
-2904.977147439534
 20
1757.931159988372
 10
-2894.265879778864
 20
1746.621021724781
 10
-2888.958770027769
 20
1744.382285677422
 10
-2887.230944324407
 20
1745.320934823182
 10
-2887.177149272631
 20
1749.816699983022
 10
-2891.058356638529
 20
1757.312287273091
 10
-2899.537572149602
 20
1763.896537514152
 10
-2903.778863570518
 20
1764.661363195501
 10
-2906.498422778474
 20
1762.021574356521
  0
LWPOLYLINE
  5
62
100
AcDbEntity
  8
51
  6
ByLayer
 62
  256
370
   -1
100
AcDbPolyline
 90
   14
 70
    1
 43
0
 10
-2956.563010575135
 20
1121.216810303341
 10
-2936.773084799514
 20
1111.238823506671
 10
-2924.734783704354
 20
1107.589663714251
 10
-2904.536544870453
 20
1103.4465998178
 10
-2882.570809415933
 20
1101.35484756891
 10
-2859.568714094474
 20
1102.05009367702
 10
-2842.442810317184
 20
1103.661561203891
 10
-2843.379625484642
 20
1113.617583368492
 10
-2860.188806292324
 20
1112.03591799321
 10
-2882.246603664684
 20
1111.36921360988
 10
-2903.053596927034
 20
1113.350621199861
 10
-2922.274427463323
 20
1117.293199050821
 10
-2933.043846331185
 20
1120.55772367183
 10
-2952.060931335644
 20
1130.146047813971
  0
LWPOLYLINE
  5
63
100
AcDbEntity
  8
51
  6
ByLayer
 62
  256
370
   -1
100
AcDbPolyline
 90
   18
 70
    1
 43
0
 10
-3087.358691208954
 20
1257.960312087761
 10
-3086.285131061314
 20
1248.018105662151
 10
-3055.438014683556
 20
1251.34897945367
 10
-3033.836360042713
 20
1252.443154047991
 10
-3023.582328079075
 20
1252.028854014211
 10
-3012.145358086211
 20
1250.353849202291
 10
-2987.955823989314
 20
1245.668218799731
 10
-2982.226218066359
 20
1242.89739548446
 10
-2978.511380183589
 20
1244.002038581941
 10
-2976.511185328752
 20
1247.321598403772
 10
-2977.119167235543
 20
1250.364896736071
 10
-2984.627473627952
 20
1248.864907599702
 10
-2979.617117972087
 20
1252.74359581327
 10
-2984.775079887054
 20
1255.23797349394
 10
-3010.469077678236
 20
1260.215025831179
 10
-3022.653367386743
 20
1261.999479572361
 10
-3033.887549991127
 20
1262.453381242371
 10
-3056.228373008989
 20
1261.321766031909
  0
LWPOLYLINE
  5
64
100
AcDbEntity
  8
51
  6
ByLayer
 62
  256
370
   -1
100
AcDbPolyline
 90
   36
 70
    1
 43
0
 10
-3106.610518636884
 20
531.9636300563154
 10
-3104.403840897175
 20
517.3835571637305
 10
-3099.910379937784
 20
506.4605946422187
 10
-3085.003892867913
 20
490.9888020752303
 10
-3075.377853345783
 20
488.3705406065699
 10
-3065.624329720883
 20
488.0128518891258
 10
-3048.351992874773
 20
489.5839530681028
 10
-2826.664175819084
 20
473.7630784375456
 10
-2822.395349539453
 20
481.3567644459522
 10
-2814.186194443663
 20
504.4944069925323
 10
-2810.728645116313
 20
519.2002668983275
 10
-2805.895492429674
 20
552.6002326484224
 10
-2804.469486147003
 20
569.4401276564613
 10
-2804.465265180683
 20
589.1505272045008
 10
-2805.706296912583
 20
605.8131933525219
 10
-2808.369369612153
 20
624.1525640679183
 10
-2811.998066561984
 20
640.5109415255477
 10
-2824.997040677544
 20
667.7171258692383
 10
-2835.510160074773
 20
679.3017775109397
 10
-2847.649548479643
 20
687.7625773452116
 10
-2861.364759453643
 20
691.448514531133
 10
-2873.886883015054
 20
691.8067961420411
 10
-2889.457517809204
 20
689.7781305344464
 10
-2912.700187168884
 20
681.9853077547137
 10
-2930.404938656114
 20
677.5440991111743
 10
-2949.481654550993
 20
671.4013842336936
 10
-2962.360139618794
 20
668.2037420775948
 10
-2980.852040876044
 20
664.9311020283399
 10
-3018.725724551274
 20
654.2712124028188
 10
-3035.059387372573
 20
647.442110086989
 10
-3049.869295001343
 20
639.4696814339947
 10
-3072.276266499463
 20
619.9926794223204
 10
-3083.887134049013
 20
605.6695655518431
 10
-3099.539598609624
 20
577.3519168652235
 10
-3103.479818637974
 20
562.3159603154018
 10
-3105.921694352005
 20
546.0858828689682
  0
LWPOLYLINE
  5
65
100
AcDbEntity
  8
51
  6
ByLayer
 62
  256
370
   -1
100
AcDbPolyline
 90
   14
 70
    1
 43
0
 10
-3299.196382784613
 20
793.3797224177529
 10
-3293.542865508975
 20
785.131223013976
 10
-3292.630199619553
 20
785.7567637481335
 10
-3290.087421982943
 20
786.2381640627547
 10
-3266.941923836493
 20
787.6299005827393
 10
-3229.354468208413
 20
788.2529345735549
 10
-3146.732801433965
 20
785.5047627605318
 10
-3122.150452287834
 20
782.106128950971
 10
-3120.780928723104
 20
792.0119053064952
 10
-3145.879509802574
 20
795.4819107856963
 10
-3229.271064313253
 20
798.2556906971549
 10
-3267.325078920204
 20
797.6249232192556
 10
-3291.322588904413
 20
796.1819553115291
 10
-3296.552526574175
 20
795.1918201131438
  0
LWPOLYLINE
  5
66
100
AcDbEntity
  8
51
  6
ByLayer
 62
  256
370
   -1
100
AcDbPolyline
 90
   11
 70
    1
 43
0
 10
-2246.461770485783
 20
1295.658921402951
 10
-2245.039702321164
 20
1294.109216832661
 10
-2240.213865613513
 20
1293.346183366122
 10
-2234.650933938293
 20
1294.894392104271
 10
-2205.517216197172
 20
1294.507153133161
 10
-2202.062141792083
 20
1297.656013303962
 10
-2205.363608656182
 20
1300.145920367532
 10
-2213.923120172264
 20
1301.493953410941
 10
-2224.260849223153
 20
1301.826367234932
 10
-2234.674957772152
 20
1301.320597396311
 10
-2246.080166722272
 20
1298.478239747461
  0
LWPOLYLINE
  5
67
100
AcDbEntity
  8
51
  6
ByLayer
 62
  256
370
   -1
100
AcDbPolyline
 90
   26
 70
    1
 43
0
 10
-1776.736287075763
 20
2438.047666386032
 10
-1774.58760952354
 20
2422.552231517115
 10
-1769.008206763693
 20
2409.645311703171
 10
-1760.478343555242
 20
2402.832427670312
 10
-1750.193613286833
 20
2399.421975315232
 10
-1739.346326622683
 20
2401.64994944115
 10
-1728.089289639202
 20
2408.906851710912
 10
-1715.760596490783
 20
2423.452841670091
 10
-1695.745554406503
 20
2461.336316228872
 10
-1686.434367288053
 20
2483.529718121461
 10
-1678.798733734603
 20
2506.994236535402
 10
-1673.628760973042
 20
2527.666396931574
 10
-1672.930185573823
 20
2546.842935802071
 10
-1676.501482786783
 20
2562.009118334831
 10
-1684.037920364623
 20
2573.063141497261
 10
-1694.829381425783
 20
2578.378931854822
 10
-1707.961821519663
 20
2577.422480360491
 10
-1718.938104864329
 20
2572.197391505966
 10
-1724.988295294613
 20
2564.70842042861
 10
-1729.99755975126
 20
2556.507555737414
 10
-1729.037960902554
 20
2548.099514595168
 10
-1741.368312334452
 20
2531.064325188354
 10
-1758.279580255902
 20
2500.646384578742
 10
-1765.249399152664
 20
2485.309424408391
 10
-1771.990533493845
 20
2470.099311918519
 10
-1775.759851573212
 20
2454.912619635582
  0
LWPOLYLINE
  5
68
100
AcDbEntity
  8
51
  6
ByLayer
 62
  256
370
   -1
100
AcDbPolyline
 90
   27
 70
    1
 43
0
 10
-1847.223884778182
 20
896.3301316473121
 10
-1847.098027052902
 20
890.996104572674
 10
-1845.549203663724
 20
888.3033728316452
 10
-1845.982472289014
 20
881.4454654585229
 10
-1846.012272754603
 20
860.8968713690911
 10
-1843.322978707782
 20
846.3928951263588
 10
-1836.824370111422
 20
828.6877030485742
 10
-1828.522628086503
 20
809.7375248026697
 10
-1817.502482351651
 20
793.6061644774301
 10
-1804.729312384604
 20
779.4556287888822
 10
-1787.282363024872
 20
766.1422922334305
 10
-1775.396539463004
 20
759.7135467464603
 10
-1762.417700017751
 20
757.0945672783751
 10
-1752.180874722662
 20
760.0133751373974
 10
-1744.762187424545
 20
768.8255866335403
 10
-1740.822228486891
 20
782.6423432113178
 10
-1739.979394146194
 20
804.2829632152375
 10
-1742.464171865382
 20
824.9336958019065
 10
-1747.539526510203
 20
846.6263831824347
 10
-1757.034007826784
 20
870.5298169660784
 10
-1767.418642273573
 20
889.0486412518308
 10
-1775.138131613352
 20
898.9054946002818
 10
-1800.128641466972
 20
913.3380466288121
 10
-1814.962061626981
 20
914.1794232131055
 10
-1826.392599864463
 20
911.6672709960754
 10
-1836.350133953742
 20
908.2404033154168
 10
-1842.421435495803
 20
904.9651034046591
  0
LWPOLYLINE
  5
69
100
AcDbEntity
  8
51
  6
ByLayer
 62
  256
370
   -1
100
AcDbPolyline
 90
    9
 70
    1
 43
0
 10
-1586.456234994044
 20
1774.706079122122
 10
-1576.328135006855
 20
1764.945729703701
 10
-1561.784666315436
 20
1748.832437395111
 10
-1468.324851077376
 20
1654.256754288281
 10
-1438.312499631427
 20
1621.939613695432
 10
-1401.261537384165
 20
1586.27007844375
 10
-1367.562298060862
 20
1555.63046107619
 10
-1277.433855114935
 20
1480.173158412362
 10
-1221.435771558696
 20
1438.530565512932
  0
LWPOLYLINE
  5
6A
100
AcDbEntity
  8
51
  6
ByLayer
 62
  256
370
   -1
100
AcDbPolyline
 90
   75
 70
    1
 43
0
 10
-3325.849550823022
 20
1366.005354017751
 10
-3325.567452029227
 20
1365.98026823697
 10
-3325.435349499416
 20
1349.454584876542
 10
-3321.732834809603
 20
1335.895329227673
 10
-3314.713853239949
 20
1324.182200341932
 10
-3305.987281873112
 20
1313.132769911841
 10
-3294.222726740683
 20
1304.285126173062
 10
-3282.987865879468
 20
1297.47687390649
 10
-3269.290654440806
 20
1291.825651195831
 10
-3254.611938899026
 20
1286.929253060111
 10
-3239.465954532167
 20
1284.70095414535
 10
-3209.229180944768
 20
1284.668457638671
 10
-3195.1729238897
 20
1286.681101333581
 10
-3183.855227481784
 20
1290.30761868391
 10
-3183.639925269374
 20
1290.39958022509
 10
-3161.68412073435
 20
1299.777512760322
 10
-3149.197202796283
 20
1309.686845823952
 10
-3140.776068568956
 20
1318.321599420141
 10
-3136.281516722122
 20
1325.060300054641
 10
-3131.751468995176
 20
1336.038994320791
 10
-3130.698326682503
 20
1346.098226665321
 10
-3134.774394734241
 20
1363.731851193351
 10
-3158.901184779445
 20
1403.179417092731
 10
-3175.165983762129
 20
1431.56292035462
 10
-3179.747432577375
 20
1443.124458839921
 10
-3187.753322368558
 20
1458.565284655271
 10
-3193.41630981487
 20
1475.74201106334
 10
-3205.839810175469
 20
1506.443583481421
 10
-3215.746478922439
 20
1520.972848680061
 10
-3224.151679950571
 20
1529.130226035203
 10
-3234.379603284877
 20
1535.394653271041
 10
-3245.99725288637
 20
1538.68482893781
 10
-3259.868208638249
 20
1540.425108627942
 10
-3271.972351463725
 20
1539.423688228761
 10
-3283.221299814601
 20
1535.856144461922
 10
-3292.556753542052
 20
1529.888952810972
 10
-3299.16190910493
 20
1521.773666400462
 10
-3291.406143964572
 20
1515.461130690691
 10
-3285.816090567149
 20
1522.329233029561
 10
-3278.944125395232
 20
1526.721770810433
 10
-3270.024103482419
 20
1529.550708021492
 10
-3260.080655177354
 20
1530.373366190232
 10
-3247.993507766368
 20
1528.856886898751
 10
-3238.428841549518
 20
1526.148126252061
 10
-3230.320369514508
 20
1521.181826506061
 10
-3223.437947496788
 20
1514.502329688812
 10
-3214.706869454436
 20
1501.697203002192
 10
-3202.810039968779
 20
1472.297165863071
 10
-3196.999679642047
 20
1454.673434464961
 10
-3188.857838495254
 20
1438.970401542592
 10
-3184.19868088214
 20
1427.212760624751
 10
-3167.50659539882
 20
1398.083604877562
 10
-3144.152009307707
 20
1359.898600898312
 10
-3140.818142039152
 20
1345.475837859602
 10
-3141.546644076727
 20
1338.517451351622
 10
-3145.148817129713
 20
1329.787486674402
 10
-3148.581610735497
 20
1324.640684671032
 10
-3155.911935598835
 20
1317.124411059171
 10
-3166.847798756946
 20
1308.44595966632
 10
-3187.352596512763
 20
1299.6877923354
 10
-3197.423168249637
 20
1296.46088980902
 10
-3209.936126493795
 20
1294.66922319278
 10
-3238.728940674063
 20
1294.700167826332
 10
-3252.284052710405
 20
1296.6944153251
 10
-3265.797323947995
 20
1301.20205469633
 10
-3278.462983846047
 20
1306.42767782276
 10
-3288.612148405742
 20
1312.57800522519
 10
-3298.942035405807
 20
1320.346693374431
 10
-3306.467057760666
 20
1329.874743681922
 10
-3312.448230654101
 20
1339.855999266252
 10
-3315.446061360199
 20
1350.83457905361
 10
-3315.605280967111
 20
1370.752538328841
 10
-3318.388445277916
 20
1373.627242805572
 10
-3322.38642955958
 20
1373.788646315852
 10
-3325.392269409806
 20
1371.147651010232
  0
LWPOLYLINE
  5
6B
100
AcDbEntity
  8
51
  6
ByLayer
 62
  256
370
   -1
100
AcDbPolyline
 90
   20
 70
    1
 43
0
 10
-3307.731006159841
 20
2322.602555770782
 10
-3305.353921168706
 20
2319.800754974453
 10
-3301.728297129769
 20
2319.20454101476
 10
-3293.102831568764
 20
2324.389597536752
 10
-3288.786407412174
 20
2325.945683949973
 10
-3262.43897883844
 20
2334.499247947941
 10
-3252.423037829564
 20
2336.837406636081
 10
-3217.028601899968
 20
2342.180683939513
 10
-3182.376907219374
 20
2348.540025775023
 10
-3154.715997216732
 20
2351.575179926231
 10
-3155.806722645173
 20
2361.515517850053
 10
-3183.826695232519
 20
2358.440964767479
 10
-3218.677913445892
 20
2352.045006011473
 10
-3254.309036371256
 20
2346.665997548073
 10
-3265.124339622474
 20
2344.141232751702
 10
-3292.026839534311
 20
2335.407467554945
 10
-3297.415548358503
 20
2333.464818667361
 10
-3305.30583295977
 20
2328.721704067612
 10
-3298.628241363682
 20
2324.941651650512
 10
-3307.729443834854
 20
2324.947714794172
  0
LWPOLYLINE
  5
6C
100
AcDbEntity
  8
51
  6
ByLayer
 62
  256
370
   -1
100
AcDbPolyline
 90
   45
 70
    1
 43
0
 10
-3173.678623199412
 20
1139.955322939372
 10
-3166.905590657942
 20
1131.965157469111
 10
-3153.320245120973
 20
1128.710108226232
 10
-3137.487818062234
 20
1129.137529575692
 10
-3137.251300371692
 20
1129.166585470591
 10
-3101.131549306714
 20
1133.60385055669
 10
-3102.350870057353
 20
1143.529235028182
 10
-3138.234103431787
 20
1139.12102583698
 10
-3152.272249748585
 20
1138.742043927231
 10
-3161.393339661563
 20
1140.927457374
 10
-3163.406487647626
 20
1143.302373694901
 10
-3163.216869792831
 20
1145.889522190642
 10
-3159.531849673348
 20
1149.27103754419
 10
-3153.512796271826
 20
1150.40250234301
 10
-3150.467386453537
 20
1148.927886632211
 10
-3146.791690993302
 20
1144.788807366551
 10
-3138.925310510476
 20
1140.89285146212
 10
-3134.908795129759
 20
1142.348161999622
 10
-3133.003465097192
 20
1146.664406922292
 10
-3133.710487417332
 20
1149.86350471056
 10
-3138.95540849691
 20
1154.464299403792
 10
-3144.314386752963
 20
1157.059166433751
 10
-3144.682833722189
 20
1157.4740623976
 10
-3146.428446673561
 20
1163.351931600841
 10
-3144.696310912633
 20
1170.886542874911
 10
-3140.392871311024
 20
1174.072249886401
 10
-3133.219930830299
 20
1175.256748635642
 10
-3123.613309177955
 20
1171.67262601944
 10
-3115.799682787781
 20
1164.407690212021
 10
-3110.750003774741
 20
1156.659808622562
 10
-3109.988266582122
 20
1149.375610334772
 10
-3108.782993325582
 20
1152.226719030351
 10
-3103.117428234132
 20
1145.026748265101
 10
-3100.911411832243
 20
1146.762634413141
 10
-3099.908564559574
 20
1149.134898597991
 10
-3101.055129950561
 20
1160.099060173521
 10
-3108.091879905895
 20
1170.895767308331
 10
-3118.257873985027
 20
1180.34788220549
 10
-3132.22056976339
 20
1185.557207141302
 10
-3144.403114201949
 20
1183.545450778792
 10
-3153.614617409981
 20
1176.726451775002
 10
-3156.763828866913
 20
1163.02770789878
 10
-3155.902784971463
 20
1160.128380535441
 10
-3164.187596150932
 20
1158.570997407381
 10
-3172.900212593752
 20
1150.57596744397
  0
LWPOLYLINE
  5
6D
100
AcDbEntity
  8
51
  6
ByLayer
 62
  256
370
   -1
100
AcDbPolyline
 90
   59
 70
    1
 43
0
 10
-3261.996031192949
 20
1123.873476949092
 10
-3261.628459318972
 20
1108.108107586732
 10
-3259.293596301764
 20
1091.981286453021
 10
-3253.659716295864
 20
1077.887834693791
 10
-3245.889741130814
 20
1065.968294914861
 10
-3234.759514121673
 20
1054.483647838161
 10
-3222.335165342905
 20
1045.24371717192
 10
-3221.604303654883
 20
1044.991261395421
 10
-3193.955391467004
 20
1035.44071618268
 10
-3175.216726328674
 20
1033.134010031111
 10
-3159.544098773634
 20
1032.682861631361
 10
-3147.228534038292
 20
1033.934044072522
 10
-3140.857780123823
 20
1036.674993800651
 10
-3144.809913959642
 20
1045.860887232631
 10
-3149.768604148225
 20
1043.727463040341
 10
-3159.907128443075
 20
1042.69745395431
 10
-3174.460315255714
 20
1043.116378408351
 10
-3191.687102838885
 20
1045.236974331091
 10
-3217.608513448264
 20
1054.190802326941
 10
-3228.142108873183
 20
1062.024588477481
 10
-3238.038436143092
 20
1072.236044717961
 10
-3244.741706619576
 20
1082.519204882061
 10
-3249.567023802453
 20
1094.589993551452
 10
-3251.645233416399
 20
1108.944118172611
 10
-3251.982388652522
 20
1123.404900420081
 10
-3250.332115814905
 20
1137.46595463927
 10
-3244.746582186761
 20
1153.372623219471
 10
-3237.633263777456
 20
1165.755903219039
 10
-3230.417788457048
 20
1172.96828882457
 10
-3214.701137786905
 20
1184.891898328851
 10
-3200.502733108316
 20
1193.13825593144
 10
-3184.119020195228
 20
1197.532482600312
 10
-3167.123502118075
 20
1200.634377460712
 10
-3146.768387186454
 20
1200.532625430451
 10
-3129.876057133613
 20
1197.628198006291
 10
-3113.114487934856
 20
1192.58392529807
 10
-3085.694152995565
 20
1171.979020716281
 10
-3073.131825087272
 20
1157.292540209022
 10
-3065.531359360964
 20
1143.42723619457
 10
-3060.200892321522
 20
1128.152208088682
 10
-3054.831732197082
 20
1100.760514663532
 10
-3055.666508276245
 20
1084.84245598929
 10
-3045.680230836042
 20
1084.318754845991
 10
-3044.780724869584
 20
1101.471125534941
 10
-3050.524623772495
 20
1130.77461326246
 10
-3056.363302845924
 20
1147.505977754141
 10
-3064.860148816006
 20
1163.0065216394
 10
-3078.808784244382
 20
1179.313719144301
 10
-3108.52925542625
 20
1201.647052204772
 10
-3127.579379105106
 20
1207.380048788911
 10
-3145.890153670303
 20
1210.5283602201
 10
-3168.003794249746
 20
1210.63890284454
 10
-3186.315656967975
 20
1207.296758604392
 10
-3204.376323202939
 20
1202.452761297543
 10
-3220.255260134794
 20
1193.23035953809
 10
-3237.005084928214
 20
1180.522921147201
 10
-3245.642603423464
 20
1171.88910129526
 10
-3253.876606900213
 20
1157.554867298851
 10
-3260.134696510025
 20
1139.732871408051
  0
LWPOLYLINE
  5
6E
100
AcDbEntity
  8
51
  6
ByLayer
 62
  256
370
   -1
100
AcDbPolyline
 90
   10
 70
    1
 43
0
 10
-1583.059858434618
 20
1537.160009281952
 10
-1130.775914358326
 20
1801.127366483623
 10
-1141.280552351904
 20
1797.498111993472
 10
-1184.752041409048
 20
1779.36606829959
 10
-1253.684663708462
 20
1745.731583152191
 10
-1290.935793863129
 20
1723.63299462884
 10
-1368.768600788119
 20
1674.713635315602
 10
-1446.667897334746
 20
1627.554803125891
 10
-1520.338148895063
 20
1579.691578453531
 10
-1547.088416945181
 20
1560.69810656641
  0
LWPOLYLINE
  5
6F
100
AcDbEntity
  8
51
  6
ByLayer
 62
  256
370
   -1
100
AcDbPolyline
 90
   98
 70
    1
 43
0
 10
-3364.883826301413
 20
1976.244964547992
 10
-3362.956332214405
 20
1955.588726233381
 10
-3360.008586306379
 20
1936.264825815683
 10
-3350.815948289372
 20
1902.34043020888
 10
-3344.167328793963
 20
1885.502870817501
 10
-3331.168055341928
 20
1861.177867630031
 10
-3320.765117281526
 20
1846.656387015361
 10
-3308.647100119057
 20
1833.211731807972
 10
-3298.655065598486
 20
1824.262276155192
 10
-3281.950055600154
 20
1811.873872426911
 10
-3250.791685294015
 20
1796.713396714051
 10
-3234.773073336817
 20
1792.74421787848
 10
-3213.178815388095
 20
1790.109727446282
 10
-3209.536551130954
 20
1790.498590815661
 10
-3210.5981596888
 20
1800.442080508412
 10
-3213.103134020441
 20
1800.174638969293
 10
-3232.958316463592
 20
1802.596962917642
 10
-3247.36388906101
 20
1806.166454083341
 10
-3276.739510498493
 20
1820.459512127712
 10
-3292.327353503581
 20
1832.019426932852
 10
-3301.577042096309
 20
1840.303993773782
 10
-3312.96205850164
 20
1852.935401870352
 10
-3322.657234906032
 20
1866.468916671132
 10
-3335.077079207354
 20
1889.709658035012
 10
-3341.309929950655
 20
1905.494287406663
 10
-3350.208418837607
 20
1938.333158767171
 10
-3353.026692809382
 20
1956.80830800983
 10
-3354.882191545755
 20
1976.692998888572
 10
-3354.758402295574
 20
2011.949056878402
 10
-3351.311493699801
 20
2050.429838922651
 10
-3340.772675052256
 20
2088.90457892039
 10
-3334.705664322834
 20
2104.910145458892
 10
-3322.104883464102
 20
2132.608038850602
 10
-3314.437056974809
 20
2147.476969347621
 10
-3288.642875736755
 20
2180.737258471472
 10
-3264.725274447213
 20
2201.919227672171
 10
-3254.376255913831
 20
2209.216863181011
 10
-3231.361126064095
 20
2217.149494283973
 10
-3219.787810455177
 20
2220.365354328693
 10
-3206.745611172993
 20
2221.205669381062
 10
-3194.117221327304
 20
2219.55095393338
 10
-3170.461338763702
 20
2211.135243884872
 10
-3142.683381746534
 20
2194.761574599422
 10
-3130.103080805304
 20
2185.713697464341
 10
-3105.392371576741
 20
2163.774781473962
 10
-3082.217999760416
 20
2138.884972738663
 10
-3071.015789463198
 20
2125.48433872663
 10
-3059.21342124112
 20
2110.303330831091
 10
-3049.811032885324
 20
2096.501667885322
 10
-3033.581914826681
 20
2066.098511543182
 10
-3025.639986597914
 20
2048.321513365981
 10
-3019.729736200957
 20
2030.476511445541
 10
-3010.690364952452
 20
1997.035261885141
 10
-3008.066681005276
 20
1980.264004741072
 10
-3006.435044704445
 20
1947.951097742841
 10
-3007.594213415123
 20
1904.378651325731
 10
-3010.950625980238
 20
1881.826514804702
 10
-3016.556799152012
 20
1865.689606606462
 10
-3020.837200752399
 20
1859.030456938812
 10
-3012.425140007079
 20
1853.623310369961
 10
-3007.501200057129
 20
1861.283632027212
 10
-3001.197332165521
 20
1879.428797070111
 10
-2997.613878830109
 20
1903.506447617912
 10
-2996.428331275404
 20
1948.070458729142
 10
-2998.105837379425
 20
1981.29177079536
 10
-3000.894705469746
 20
1999.118927124201
 10
-3010.149051914771
 20
2033.355479698292
 10
-3016.304933747853
 20
2051.942124215093
 10
-3024.594804509808
 20
2070.497947584343
 10
-3024.677444731291
 20
2070.652763364552
 10
-3041.243062011822
 20
2101.686307532751
 10
-3051.125819088587
 20
2116.193098465742
 10
-3063.229770832253
 20
2131.76202357722
 10
-3074.717083590281
 20
2145.503711152101
 10
-3098.235595329636
 20
2170.763134085792
 10
-3098.397597274113
 20
2170.937127902961
 10
-3098.575376909374
 20
2171.094966047012
 10
-3123.847630860289
 20
2193.532438447663
 10
-3137.213703953735
 20
2203.145450703341
 10
-3166.207865955269
 20
2220.236009938074
 10
-3191.76553064137
 20
2229.328289413882
 10
-3206.414365765775
 20
2231.247746610491
 10
-3221.465778580483
 20
2230.277976982391
 10
-3234.331792447078
 20
2226.702916789913
 10
-3258.978017000049
 20
2218.208095829273
 10
-3270.940684699205
 20
2209.772591699073
 10
-3295.622608889734
 20
2187.913720832853
 10
-3295.972374066287
 20
2187.603960873752
 10
-3296.258695855322
 20
2187.234763441293
 10
-3322.621147577704
 20
2153.24171833518
 10
-3322.903096273029
 20
2152.878159785361
 10
-3331.105374833915
 20
2136.972855980021
 10
-3331.156290970853
 20
2136.860936746703
 10
-3343.941848953612
 20
2108.756883043181
 10
-3350.291863899205
 20
2092.004714427572
 10
-3361.191991829579
 20
2052.210919497701
 10
-3364.756833013183
 20
2012.413555338562
 10
-3364.882978103461
 20
1976.48653735187
  0
LWPOLYLINE
  5
70
100
AcDbEntity
  8
51
  6
ByLayer
 62
  256
370
   -1
100
AcDbPolyline
 90
   56
 70
    1
 43
0
 10
-3242.844011474278
 20
1917.856396913661
 10
-3233.885922263979
 20
1907.652453575161
 10
-3219.181410307238
 20
1901.023639947212
 10
-3201.145831032214
 20
1897.376898231962
 10
-3181.30802206532
 20
1898.218045783841
 10
-3180.955898900882
 20
1898.284101519691
 10
-3130.052394284482
 20
1907.833227491332
 10
-3115.553661984512
 20
1911.627537132552
 10
-3118.085396732139
 20
1921.301746101121
 10
-3132.242866767318
 20
1917.596744592142
 10
-3182.447541262392
 20
1908.178714051192
 10
-3200.355206880474
 20
1907.419406956363
 10
-3216.097085211337
 20
1910.602369006541
 10
-3227.800648242991
 20
1915.878350851301
 10
-3232.497400189121
 20
1921.228307701292
 10
-3232.164869579719
 20
1924.897124298221
 10
-3227.327149572133
 20
1930.781687626072
 10
-3217.054542411871
 20
1934.000278751871
 10
-3204.105708720355
 20
1934.681619300451
 10
-3189.718363283881
 20
1931.243782809272
 10
-3186.510973447927
 20
1928.6274177579
 10
-3182.771599420076
 20
1921.041034350882
 10
-3175.745166709205
 20
1917.25526049517
 10
-3170.477418750675
 20
1919.090855169821
 10
-3168.615674726469
 20
1921.892703641161
 10
-3168.825903039768
 20
1925.250120762151
 10
-3174.220764632012
 20
1931.507021540092
 10
-3178.503579516836
 20
1935.000643381941
 10
-3179.299128612679
 20
1936.61464091606
 10
-3181.583928214124
 20
1944.814016572642
 10
-3179.932131533891
 20
1954.450125395102
 10
-3175.458076509887
 20
1963.554969474631
 10
-3167.343630778826
 20
1969.984579190182
 10
-3154.655281541774
 20
1971.610418226461
 10
-3141.82777516129
 20
1968.482955113532
 10
-3128.394302514113
 20
1958.358963518853
 10
-3116.106705331655
 20
1944.259479587852
 10
-3110.866515983866
 20
1933.828696868891
 10
-3110.198440843888
 20
1925.561555778512
 10
-3111.176323979272
 20
1922.746799633704
 10
-3101.73014615548
 20
1919.465073788771
 10
-3100.061353498982
 20
1924.268556141992
 10
-3101.055971766305
 20
1936.576527289312
 10
-3107.737975312445
 20
1949.877292298232
 10
-3121.541639091331
 20
1965.716396782982
 10
-3137.455838432173
 20
1977.709961261371
 10
-3154.087553718134
 20
1981.764925220744
 10
-3171.373769861685
 20
1979.549932200712
 10
-3183.437580049197
 20
1969.990980947731
 10
-3189.544271909062
 20
1957.563669051141
 10
-3191.819337337463
 20
1944.291588831681
 10
-3191.143380714679
 20
1941.865808349972
 10
-3203.187613233666
 20
1944.743761217991
 10
-3218.840188471175
 20
1943.920155443671
 10
-3233.159919918005
 20
1939.433528062751
 10
-3241.845961888423
 20
1928.867897153372
  0
LWPOLYLINE
  5
71
100
AcDbEntity
  8
51
  6
ByLayer
 62
  256
370
   -1
100
AcDbPolyline
 90
   83
 70
    1
 43
0
 10
-1750.576825130213
 20
1671.857258066892
 10
-1750.114790070695
 20
1670.55241712374
 10
-1734.464049175969
 20
1626.352897867501
 10
-1734.265036133957
 20
1625.790861805352
 10
-1728.68035996149
 20
1617.22368258325
 10
-1713.601645881273
 20
1602.641344508261
 10
-1696.356943096193
 20
1589.306456022241
 10
-1678.24784042064
 20
1577.21952944166
 10
-1658.656533598658
 20
1565.59754676154
 10
-1638.102803450289
 20
1554.341093112833
 10
-1637.989989042959
 20
1554.28646972695
 10
-1591.246215749124
 20
1531.653694116491
 10
-1520.090519605127
 20
1502.496674560701
 10
-1519.763200662727
 20
1502.362551147932
 10
-1495.104997864925
 20
1496.128302111101
 10
-1467.946766877189
 20
1487.834221102312
 10
-1442.910364514933
 20
1482.70407577152
 10
-1418.224411245754
 20
1476.195407569872
 10
-1394.958891074491
 20
1472.423011111031
 10
-1367.700435189827
 20
1465.831067676731
 10
-1367.479499191676
 20
1465.798131893991
 10
-1280.969858945926
 20
1452.901805628371
 10
-1280.845915329196
 20
1452.883328874621
 10
-1280.72120175029
 20
1452.871084129121
 10
-1239.497867558503
 20
1448.823656092442
 10
-1238.520736606533
 20
1458.775802348531
 10
-1279.619357219407
 20
1462.810985639721
 10
-1365.784117850304
 20
1475.655899368842
 10
-1392.980443113122
 20
1482.232817684101
 10
-1416.144511817871
 20
1485.988764257011
 10
-1440.630183332452
 20
1492.444626416553
 10
-1465.477193191688
 20
1497.53596381276
 10
-1492.417425360167
 20
1505.76346832519
 10
-1516.626177898462
 20
1511.884084390861
 10
-1587.167503353006
 20
1540.789357155071
 10
-1633.519253158486
 20
1563.232319684102
 10
-1653.702346291853
 20
1574.285790304912
 10
-1672.917310492969
 20
1585.684518484391
 10
-1690.515504851095
 20
1597.430439139251
 10
-1707.047209598934
 20
1610.21398444264
 10
-1720.918500647418
 20
1623.628646629942
 10
-1725.236571492822
 20
1630.252788421491
 10
-1740.226264286079
 20
1672.585430672411
 10
-1738.364816946553
 20
1681.775513217282
 10
-1733.40734591092
 20
1694.851076852012
 10
-1724.153971567977
 20
1707.45600922391
 10
-1711.404643283721
 20
1719.653781990111
 10
-1693.476969104365
 20
1732.543581441451
 10
-1674.389657587245
 20
1743.451517061002
 10
-1653.151250198744
 20
1753.406855177234
 10
-1616.348540808616
 20
1765.446990441581
 10
-1585.325192632037
 20
1772.055167825881
 10
-1559.380435745499
 20
1779.140209746581
 10
-1506.037866229727
 20
1791.837021665802
 10
-1443.438939127713
 20
1803.94396964113
 10
-1416.423011481789
 20
1807.825067463771
 10
-1386.093030059824
 20
1814.834243825632
 10
-1340.924757892709
 20
1820.800757289871
 10
-1294.025240045069
 20
1828.209884030662
 10
-1271.869643311979
 20
1829.582945926692
 10
-1271.779736024091
 20
1829.591787598172
 10
-1220.061307911487
 20
1834.677886422951
 10
-1187.521005046097
 20
1839.913136921281
 10
-1189.109430153992
 20
1849.786176254561
 10
-1221.346084474982
 20
1844.599778288432
 10
-1272.66852853732
 20
1839.552621366691
 10
-1295.11718324536
 20
1838.161397615512
 10
-1342.359994210251
 20
1830.698037860571
 10
-1387.877722598525
 20
1824.68536289515
 10
-1418.26310208372
 20
1817.663384191292
 10
-1445.100340394248
 20
1813.807956810162
 10
-1508.1460298244
 20
1801.614602749061
 10
-1561.856059344584
 20
1788.830326528702
 10
-1587.685933034253
 20
1781.776657122671
 10
-1618.952237777567
 20
1775.116728390301
 10
-1656.551220585426
 20
1762.816089488691
 10
-1656.841823911225
 20
1762.721017592931
 10
-1679.000177746422
 20
1752.334461741861
 10
-1698.891314449479
 20
1740.967159523201
 10
-1717.811297892932
 20
1727.363900686141
 10
-1731.698152646961
 20
1714.077812591889
 10
-1742.274778128364
 20
1699.670349543823
 10
-1748.0040873242
 20
1684.559026364191
  0
LWPOLYLINE
  5
72
100
AcDbEntity
  8
51
  6
ByLayer
 62
  256
370
   -1
100
AcDbPolyline
 90
   43
 70
    1
 43
0
 10
-3277.391029425052
 20
1378.560318804191
 10
-3271.965324342802
 20
1367.163645783832
 10
-3258.875103829408
 20
1360.240942363892
 10
-3243.253315528246
 20
1359.313716026722
 10
-3227.991797612274
 20
1360.647772258522
 10
-3211.960450127535
 20
1362.785272315841
 10
-3196.354204891324
 20
1366.9813756933
 10
-3198.95072112176
 20
1376.638399223621
 10
-3213.927837546522
 20
1372.611451814852
 10
-3229.088581406454
 20
1370.590031538082
 10
-3243.393217630313
 20
1369.33961927876
 10
-3256.117469679434
 20
1370.094863261921
 10
-3264.360833587827
 20
1374.454328670632
 10
-3266.602479756701
 20
1379.162897976661
 10
-3265.256477099387
 20
1383.057750048001
 10
-3258.622384137249
 20
1384.561748689642
 10
-3248.55694131818
 20
1383.366776494701
 10
-3233.79568335332
 20
1372.626482299283
 10
-3229.937123581212
 20
1373.059313016432
 10
-3227.381648158291
 20
1375.982559723041
 10
-3227.468405506642
 20
1379.864350431889
 10
-3233.749478400387
 20
1386.432450053771
 10
-3235.89976566685
 20
1391.8400828113
 10
-3235.857712995225
 20
1400.214028554581
 10
-3231.94552860062
 20
1407.649394426212
 10
-3227.513683326091
 20
1411.590989711581
 10
-3219.562441984132
 20
1411.887018292442
 10
-3210.090552873622
 20
1404.697540705271
 10
-3204.390740656449
 20
1395.000890591312
 10
-3202.260685198653
 20
1387.48786973701
 10
-3203.213675434524
 20
1381.925337301011
 10
-3193.35727979502
 20
1380.236709160233
 10
-3192.021408964422
 20
1388.034086872811
 10
-3195.119804389795
 20
1398.962586109922
 10
-3202.470837846771
 20
1411.468331333172
 10
-3216.363151506495
 20
1422.013057577882
 10
-3231.475294574951
 20
1421.450425144291
 10
-3239.949107608635
 20
1413.913983902822
 10
-3245.845315501185
 20
1402.707849806321
 10
-3245.893460229488
 20
1393.120793213601
 10
-3259.153713043206
 20
1394.695054147281
 10
-3271.444195647034
 20
1391.908709541211
 10
-3273.376109140819
 20
1390.178067476802
  0
LWPOLYLINE
  5
73
100
AcDbEntity
  8
52
  6
ByLayer
 62
  256
370
   -1
100
AcDbPolyline
 90
   16
 70
    1
 43
0
 10
-1973.854596327732
 20
1121.240546653381
 10
-1973.432189837702
 20
1111.249471998611
 10
-1964.707802508823
 20
1111.618324995571
 10
-1923.752967971002
 20
1109.383447351042
 10
-1888.351608694933
 20
1108.509305645431
 10
-1888.305203083441
 20
1108.509021396182
 10
-1738.630086552492
 20
1107.592213320161
 10
-1738.477172285633
 20
1107.127674554581
 10
-1734.572628023753
 20
1108.412950547661
 10
-1732.656658952722
 20
1111.549032955501
 10
-1733.227421183192
 20
1115.179484831811
 10
-1736.013257191581
 20
1117.57637199735
 10
-1737.850744853564
 20
1117.587627198391
 10
-1888.197545414933
 20
1118.508549554452
 10
-1923.357014642392
 20
1119.376718433481
 10
-1964.646420886121
 20
1121.62985342991
  0
LWPOLYLINE
  5
74
100
AcDbEntity
  8
52
  6
ByLayer
 62
  256
370
   -1
100
AcDbPolyline
 90
   14
 70
    1
 43
0
 10
-2027.364001771053
 20
2210.69741037518
 10
-1985.440722091523
 20
2209.550150171781
 10
-1917.869068009531
 20
2209.454385943054
 10
-1779.120062637671
 20
2201.850759235222
 10
-1779.069389311061
 20
2201.847982270742
 10
-1779.018670058233
 20
2201.846234427973
 10
-1745.864210740172
 20
2200.703694290191
 10
-1708.949757632383
 20
2200.679102195612
 10
-1708.943095718942
 20
2210.679099976554
 10
-1745.688626265633
 20
2210.703579536372
 10
-1778.623543946692
 20
2211.838554021212
 10
-1917.588186222712
 20
2219.453997913031
 10
-1985.296834436282
 20
2219.549956293252
 10
-2027.090447108323
 20
2220.693668067262
  0
LWPOLYLINE
  5
75
100
AcDbEntity
  8
52
  6
ByLayer
 62
  256
370
   -1
100
AcDbPolyline
 90
    5
 70
    1
 43
0
 10
-1203.104567578926
 20
1987.531340786782
 10
-1173.421116379923
 20
2126.297196721502
 10
-1174.818911369138
 20
2125.104327655712
 10
-1179.045107843119
 20
2110.400539848372
 10
-1190.177106538072
 20
2062.071745165093
  0
LWPOLYLINE
  5
76
100
AcDbEntity
  8
52
  6
ByLayer
 62
  256
370
   -1
100
AcDbPolyline
 90
   36
 70
    1
 43
0
 10
-1950.721139428842
 20
2483.959783776835
 10
-1950.711645419012
 20
2460.083772153776
 10
-1947.952724994183
 20
2445.553130960431
 10
-1944.532034093822
 20
2433.079449357781
 10
-1940.474938869773
 20
2422.713544255801
 10
-1931.798530451144
 20
2407.11216064557
 10
-1922.510068585062
 20
2395.193370107832
 10
-1910.427032016143
 20
2384.13631803983
 10
-1898.568551215323
 20
2379.15001691608
 10
-1885.388610778452
 20
2375.153435666983
 10
-1872.281672206502
 20
2375.957504116392
 10
-1859.121581590675
 20
2380.292137939809
 10
-1846.366841766523
 20
2386.201842153951
 10
-1833.990343692434
 20
2396.251999268253
 10
-1823.796942196572
 20
2408.25941117692
 10
-1815.507135813403
 20
2422.37629171229
 10
-1797.575400904734
 20
2459.49915398349
 10
-1788.976902699364
 20
2479.457830167368
 10
-1768.554834618634
 20
2518.280833777444
 10
-1745.236981046592
 20
2557.381308301861
 10
-1712.361250396842
 20
2607.702217941184
 10
-1701.810810672781
 20
2621.868392473122
 10
-1680.077994113673
 20
2645.602919525682
 10
-1671.768422515753
 20
2651.261585016703
 10
-1664.118438550811
 20
2658.139890189943
 10
-1782.909831948851
 20
2741.048446385863
 10
-1791.168941983232
 20
2734.881747165055
 10
-1806.598989554294
 20
2716.502422450699
 10
-1813.232703004522
 20
2710.029840336872
 10
-1833.314926040252
 20
2685.684613537683
 10
-1862.932671986145
 20
2645.546935716859
 10
-1906.106060747033
 20
2579.230882738821
 10
-1931.127812177702
 20
2536.981942637744
 10
-1939.087875508172
 20
2522.179042278182
 10
-1945.218293181452
 20
2508.644923306073
 10
-1948.324131738032
 20
2498.080590044546
  0
LWPOLYLINE
  5
77
100
AcDbEntity
  8
52
  6
ByLayer
 62
  256
370
   -1
100
AcDbPolyline
 90
   17
 70
    1
 43
0
 10
-1163.29485592637
 20
1917.59159313691
 10
-1163.237239772729
 20
1851.403867877482
 10
-1153.237243561572
 20
1851.412572834711
 10
-1153.294735282565
 20
1917.457353602331
 10
-1152.023684480213
 20
1963.304659410782
 10
-1147.749783697375
 20
2034.869263956083
 10
-1141.894700697638
 20
2078.509777847703
 10
-1136.447530245177
 20
2128.768531420822
 10
-1139.121018725064
 20
2132.017350560072
 10
-1143.312986943969
 20
2132.377585071692
 10
-1147.8553633027
 20
2128.467015327591
 10
-1146.685988102754
 20
2127.108711394832
 10
-1151.822789424941
 20
2079.713603410111
 10
-1157.685496223168
 20
2036.01626598868
 10
-1157.7100144949
 20
2035.833520504381
 10
-1157.721006419247
 20
2035.649465525411
 10
-1162.015418476847
 20
1963.741408629963
  0
LWPOLYLINE
  5
78
100
AcDbEntity
  8
52
  6
ByLayer
 62
  256
370
   -1
100
AcDbPolyline
 90
   11
 70
    1
 43
0
 10
-1277.792169999178
 20
1779.504250858562
 10
-1273.777363370015
 20
1781.914576764001
 10
-1269.354921579048
 20
1786.178831517831
 10
-1260.073094029817
 20
1802.428651650592
 10
-1256.433229505004
 20
1813.932429357112
 10
-1248.817462693839
 20
1845.702762849201
 10
-1244.985330531054
 20
1878.92341728779
 10
-1243.548480090515
 20
1900.614064883752
 10
-1241.539191238331
 20
1942.776735669052
 10
-1233.020737690797
 20
2071.345889279301
 10
-1231.327608767188
 20
2108.697191764683
  0
LWPOLYLINE
  5
79
100
AcDbEntity
  8
52
  6
ByLayer
 62
  256
370
   -1
100
AcDbPolyline
 90
   18
 70
    1
 43
0
 10
-1495.584919583112
 20
575.8528545514739
 10
-1475.759987118892
 20
517.6318077231238
 10
-1456.687573781171
 20
503.6831230612986
 10
-1443.556388733311
 20
500.8101109627016
 10
-1429.35802295263
 20
499.7148703689711
 10
-1416.200518648512
 20
501.1344527325548
 10
-1405.582122226262
 20
506.720178939577
 10
-1398.416711483503
 20
518.9106447521531
 10
-1397.956405602541
 20
533.4139465105779
 10
-1403.565883673931
 20
551.728548195749
 10
-1410.674913604151
 20
565.5984709068266
 10
-1421.390645542642
 20
579.9263660007443
 10
-1435.078498336982
 20
592.7562975376047
 10
-1448.869011809963
 20
600.6332509455947
 10
-1462.889512322031
 20
602.0332534566078
 10
-1475.310568945954
 20
599.902313367036
 10
-1486.234129800324
 20
592.6148524717091
 10
-1493.220745138861
 20
585.0725484768222
  0
LWPOLYLINE
  5
7A
100
AcDbEntity
  8
52
  6
ByLayer
 62
  256
370
   -1
100
AcDbPolyline
 90
   11
 70
    1
 43
0
 10
-1717.836289920282
 20
1106.714785476451
 10
-1621.824765348724
 20
1104.484424634511
 10
-1621.793045790822
 20
1104.48368778485
 10
-1621.761319436142
 20
1104.483353539022
 10
-1444.640440922004
 20
1102.617336658322
 10
-1333.052031090761
 20
1098.354264270211
 10
-1332.670274168493
 20
1108.346974695931
 10
-1444.39684246047
 20
1112.615325226461
 10
-1444.465968247302
 20
1112.616053485522
 10
-1621.624246193585
 20
1114.48246437947
 10
-1717.604051207251
 20
1116.71208837174
  0
LWPOLYLINE
  5
7B
100
AcDbEntity
  8
52
  6
ByLayer
 62
  256
370
   -1
100
AcDbPolyline
 90
   13
 70
    1
 43
0
 10
-1811.827975183233
 20
2209.685532037452
 10
-1811.436812866651
 20
2205.847931434821
 10
-1808.569779241533
 20
2203.267174852782
 10
-1781.898269027083
 20
2203.35849220214
 10
-1750.255482465683
 20
2202.219983490651
 10
-1750.161864134333
 20
2202.22012190292
 10
-1619.885106909499
 20
2202.412732697672
 10
-1619.899891633061
 20
2212.412721768262
 10
-1750.083030526531
 20
2212.220249385782
 10
-1781.735540848371
 20
2213.359107958551
 10
-1805.978358053411
 20
2213.276105916663
 10
-1806.024382599973
 20
2213.503464631962
 10
-1809.540600497681
 20
2212.791671665864
  0
LWPOLYLINE
  5
7C
100
AcDbEntity
  8
52
  6
ByLayer
 62
  256
370
   -1
100
AcDbPolyline
 90
    5
 70
    1
 43
0
 10
-1402.507116016199
 20
2200.163247525333
 10
-1292.217721526078
 20
2201.382554653432
 10
-1297.754497265841
 20
2202.021243347232
 10
-1321.24959357975
 20
2201.884495546683
 10
-1383.683507339692
 20
2200.833888246463
  0
LWPOLYLINE
  5
7D
100
AcDbEntity
  8
52
  6
ByLayer
 62
  256
370
   -1
100
AcDbPolyline
 90
   17
 70
    1
 43
0
 10
-1902.807474767873
 20
1108.380973318381
 10
-1837.504369992312
 20
1106.99538867923
 10
-1837.464365298243
 20
1106.994539869821
 10
-1837.424352143224
 20
1106.994331422422
 10
-1674.694936477932
 20
1106.146597142601
 10
-1674.677742811802
 20
1106.146625822082
 10
-1539.698516065301
 20
1106.371774671221
 10
-1486.970693105733
 20
1107.070885833322
 10
-1483.120923214202
 20
1110.335939563351
 10
-1482.88552108032
 20
1114.63224166355
 10
-1485.843289793251
 20
1117.757178485571
 10
-1490.153662854802
 20
1117.75810154852
 10
-1490.153818871363
 20
1117.029560143011
 10
-1539.773147195322
 20
1116.371664096101
 10
-1674.677229381722
 20
1116.146640590031
 10
-1837.332244978432
 20
1116.99398728481
 10
-1902.595345059933
 20
1118.378723114561
  0
LWPOLYLINE
  5
7E
100
AcDbEntity
  8
52
  6
ByLayer
 62
  256
370
   -1
100
AcDbPolyline
 90
   29
 70
    1
 43
0
 10
-3397.517380519596
 20
2751.676825434114
 10
-3396.632627953153
 20
2745.300834604742
 10
-3395.2912169685
 20
2738.111739373049
 10
-3391.638897213305
 20
2730.184504470143
 10
-3382.021318381157
 20
2716.639894316754
 10
-3367.601668464648
 20
2705.301885554825
 10
-3359.730749881266
 20
2700.673840990004
 10
-3335.961448456225
 20
2693.012604387063
 10
-3327.65619177965
 20
2692.194271315359
 10
-3320.644253500624
 20
2694.501000534652
 10
-3313.222649508562
 20
2701.70965792596
 10
-3310.473815337675
 20
2710.166028552953
 10
-3308.918544004225
 20
2718.978794400253
 10
-3308.911318626144
 20
2729.824591993512
 10
-3312.027260357924
 20
2742.221870557952
 10
-3315.931684875614
 20
2752.994074042192
 10
-3321.689192178694
 20
2765.443912406412
 10
-3331.611080226666
 20
2779.725325451474
 10
-3339.047796086922
 20
2787.959881554501
 10
-3347.2985470188
 20
2794.340779549309
 10
-3356.236129995364
 20
2799.172734761972
 10
-3364.210746792449
 20
2800.651247710738
 10
-3371.551108265897
 20
2801.011737876015
 10
-3377.901665258381
 20
2800.17776837705
 10
-3382.119976425131
 20
2797.31037794314
 10
-3384.257010967498
 20
2792.155600473186
 10
-3393.176436249038
 20
2786.116341176957
 10
-3395.238641430365
 20
2778.904113399753
 10
-3397.077323040461
 20
2764.071735022129
  0
LWPOLYLINE
  5
7F
100
AcDbEntity
  8
52
  6
ByLayer
 62
  256
370
   -1
100
AcDbPolyline
 90
    6
 70
    1
 43
0
 10
-2456.311291862032
 20
2075.428238481551
 10
-2444.197457416774
 20
2072.473767694281
 10
-2445.743252844543
 20
2077.8849986906
 10
-2449.094833769803
 20
2079.716031891122
 10
-2452.803452923274
 20
2079.388302468373
 10
-2455.344586084063
 20
2077.688194972022
  0
LWPOLYLINE
  5
80
100
AcDbEntity
  8
52
  6
ByLayer
 62
  256
370
   -1
100
AcDbPolyline
 90
   14
 70
    1
 43
0
 10
-3283.616052668013
 20
2115.076804090092
 10
-3282.321515939743
 20
2113.780541393282
 10
-3279.477274972603
 20
2112.94044639815
 10
-3277.698209327751
 20
2114.539461554839
 10
-3264.971881482295
 20
2115.927983693512
 10
-3250.947531128927
 20
2121.252641974281
 10
-3244.036076024197
 20
2125.235838506612
 10
-3238.801122075004
 20
2129.06775187592
 10
-3238.442611697174
 20
2133.436314008821
 10
-3243.06351549021
 20
2136.284193046891
 10
-3250.658249175015
 20
2136.086052548772
 10
-3259.016945556907
 20
2132.942020342262
 10
-3273.626764875131
 20
2125.712751673211
 10
-3279.497632431446
 20
2120.509661639762
  0
LWPOLYLINE
  5
81
100
AcDbEntity
  8
52
  6
ByLayer
 62
  256
370
   -1
100
AcDbPolyline
 90
   13
 70
    1
 43
0
 10
-3071.160853509586
 20
2091.287862996522
 10
-3068.167376851909
 20
2085.697867527832
 10
-3065.172512650897
 20
2082.190671596951
 10
-3061.007015102822
 20
2082.035496544113
 10
-3057.448714600546
 20
2085.487526801142
 10
-3056.633055087943
 20
2089.779584368272
 10
-3058.687493410873
 20
2094.225954003971
 10
-3062.139066793882
 20
2098.470054354071
 10
-3065.490884616793
 20
2099.945487633502
 10
-3067.878484086965
 20
2099.947078231951
 10
-3069.759860402195
 20
2097.281330997023
 10
-3070.295460047645
 20
2093.979687076222
 10
-3068.417061874203
 20
2092.175035303151
  0
LWPOLYLINE
  5
82
100
AcDbEntity
  8
52
  6
ByLayer
 62
  256
370
   -1
100
AcDbPolyline
 90
   10
 70
    1
 43
0
 10
-3274.692809456879
 20
1783.702385968752
 10
-3272.229246901256
 20
1783.345144685422
 10
-3256.507208791757
 20
1782.496470611402
 10
-3249.54635816286
 20
1784.37143376903
 10
-3244.56609792897
 20
1787.16211658204
 10
-3244.029922960694
 20
1791.327360311213
 10
-3248.042174479573
 20
1792.752433554671
 10
-3255.509908192566
 20
1792.554208450241
 10
-3264.020767642987
 20
1789.765877692391
 10
-3271.490684198524
 20
1786.29105331506
  0
LWPOLYLINE
  5
83
100
AcDbEntity
  8
52
  6
ByLayer
 62
  256
370
   -1
100
AcDbPolyline
 90
    9
 70
    1
 43
0
 10
-3223.958727855095
 20
1646.610156941161
 10
-3222.53658198915
 20
1646.228209435133
 10
-3200.915382794605
 20
1654.926007509481
 10
-3196.594202556042
 20
1659.698329835611
 10
-3196.565773655535
 20
1664.244911905441
 10
-3200.14526075815
 20
1667.11749716621
 10
-3205.759894764376
 20
1665.267037176152
 10
-3219.35554180484
 20
1655.293892265431
 10
-3223.195137425535
 20
1648.997248773532
  0
LWPOLYLINE
  5
84
100
AcDbEntity
  8
52
  6
ByLayer
 62
  256
370
   -1
100
AcDbPolyline
 90
    5
 70
    1
 43
0
 10
-3424.840080501876
 20
1185.165447946541
 10
-3368.085088372313
 20
1378.247185615762
 10
-3370.066957371813
 20
1375.12340995979
 10
-3384.197478056614
 20
1337.20423512995
 10
-3420.217921056843
 20
1203.455545812021
  0
LWPOLYLINE
  5
85
100
AcDbEntity
  8
52
  6
ByLayer
 62
  256
370
   -1
100
AcDbPolyline
 90
   14
 70
    1
 43
0
 10
-3155.242534493755
 20
1096.89659910264
 10
-3153.896611933494
 20
1095.600910844701
 10
-3152.551293145473
 20
1091.485822651402
 10
-3150.317175635253
 20
1086.430744101021
 10
-3147.396812110812
 20
1083.458318639362
 10
-3144.628652764854
 20
1081.400325793081
 10
-3141.377441960623
 20
1081.450429550041
 10
-3139.649670864323
 20
1084.117059610401
 10
-3139.674010182774
 20
1089.070064936221
 10
-3141.247265360024
 20
1096.284002012961
 10
-3145.487096203722
 20
1105.479710180192
 10
-3149.525124975212
 20
1108.147574981972
 10
-3152.141520733256
 20
1107.23373526007
 10
-3154.377612741895
 20
1103.06861402187
  0
LWPOLYLINE
  5
86
100
AcDbEntity
  8
52
  6
ByLayer
 62
  256
370
   -1
100
AcDbPolyline
 90
   11
 70
    1
 43
0
 10
-3295.704162934032
 20
1335.864484326951
 10
-3286.130506273105
 20
1325.854833906552
 10
-3281.432110153102
 20
1323.03442768413
 10
-3276.200085590951
 20
1321.280707210061
 10
-3271.627862680815
 20
1322.321128096061
 10
-3270.611106628968
 20
1325.851510439521
 10
-3273.886738342493
 20
1330.3734120171
 10
-3280.565545705579
 20
1336.877242427462
 10
-3286.203872349385
 20
1339.088249921281
 10
-3292.121985183444
 20
1339.495917289732
 10
-3294.306586390768
 20
1338.556585098781
  0
LWPOLYLINE
  5
87
100
AcDbEntity
  8
52
  6
ByLayer
 62
  256
370
   -1
100
AcDbPolyline
 90
   10
 70
    1
 43
0
 10
-3298.24349927027
 20
1338.963828194851
 10
-3297.812400961424
 20
1335.687135800361
 10
-3294.663742048042
 20
1331.29226141681
 10
-3280.872679196718
 20
1325.98070794999
 10
-3278.866144515392
 20
1325.675478245212
 10
-3277.64646587707
 20
1327.910417103251
 10
-3280.236085470129
 20
1333.422771794611
 10
-3285.010219240282
 20
1338.40219428569
 10
-3291.84225882648
 20
1341.019857421501
 10
-3296.490382568445
 20
1341.376452821641
  0
LWPOLYLINE
  5
88
100
AcDbEntity
  8
52
  6
ByLayer
 62
  256
370
   -1
100
AcDbPolyline
 90
   13
 70
    1
 43
0
 10
-3372.752515378685
 20
695.4199694843597
 10
-3370.391338038083
 20
690.6442637306259
 10
-3362.340190949464
 20
687.5945395140194
 10
-3353.908430066233
 20
682.7413337479212
 10
-3344.333331967064
 20
679.4626831731834
 10
-3336.358047634543
 20
677.987775238637
 10
-3332.319349818133
 20
678.44411036521
 10
-3331.785297103613
 20
681.4919960681382
 10
-3336.838673125052
 20
687.2080783756192
 10
-3344.483191768633
 20
691.3245155375298
 10
-3364.395154055755
 20
698.9741798436502
 10
-3370.516232991405
 20
700.4740907021754
 10
-3372.421591947434
 20
698.7980986948331
  0
LWPOLYLINE
  5
89
100
AcDbEntity
  8
52
  6
ByLayer
 62
  256
370
   -1
100
AcDbPolyline
 90
   14
 70
    1
 43
0
 10
-3406.942946976525
 20
804.5456938400374
 10
-3405.420236146804
 20
798.5255676146969
 10
-3402.829822402873
 20
796.7216128383131
 10
-3398.613313711764
 20
797.2287098879935
 10
-3394.269179493763
 20
800.6567796737492
 10
-3388.654414335694
 20
807.0309774224635
 10
-3386.747505153633
 20
815.9459692638163
 10
-3387.558292560853
 20
825.3441431087857
 10
-3390.909770712303
 20
831.5170609666827
 10
-3394.719683594704
 20
831.9242768657997
 10
-3401.274526140094
 20
824.2548804042024
 10
-3402.900974647594
 20
820.2928286159936
 10
-3403.917317305844
 20
818.6928462282684
 10
-3405.543450328743
 20
816.2039944062805
  0
LWPOLYLINE
  5
8A
100
AcDbEntity
  8
52
  6
ByLayer
 62
  256
370
   -1
100
AcDbPolyline
 90
   11
 70
    1
 43
0
 10
-2863.973870454602
 20
2597.489048864792
 10
-2862.73768059707
 20
2584.864422524329
 10
-2855.043952808873
 20
2581.150896205421
 10
-2845.597371590693
 20
2577.817202235022
 10
-2836.300482937061
 20
2578.547608890351
 10
-2832.614285636174
 20
2583.345754242363
 10
-2833.321745879863
 20
2588.959626792001
 10
-2837.584494641533
 20
2595.642668081332
 10
-2843.881831905093
 20
2598.440863933841
 10
-2851.679071773143
 20
2599.284258574701
 10
-2858.842124002584
 20
2598.908030454612
  0
LWPOLYLINE
  5
8B
100
AcDbEntity
  8
53
  6
ByLayer
 62
  256
370
   -1
100
AcDbPolyline
 90
   17
 70
    1
 43
0
 10
-2265.046043456853
 20
861.0434912443893
 10
-2263.547878642383
 20
859.0111703669983
 10
-2261.338154844512
 20
858.6550971482582
 10
-2256.817569599203
 20
855.7839290027265
 10
-2245.643408369143
 20
847.1963358681706
 10
-2238.379829883543
 20
843.3593802906967
 10
-2223.878459108422
 20
833.8820746164904
 10
-2199.141100704202
 20
823.4119768909997
 10
-2194.289782406293
 20
823.0299379763273
 10
-2192.714084943123
 20
827.2206006380728
 10
-2196.929462241203
 20
831.9967034672469
 10
-2204.979815178944
 20
838.7548275988206
 10
-2226.972896646924
 20
854.2535377549173
 10
-2249.678195264443
 20
865.002600322835
 10
-2256.281683810393
 20
867.3916145093796
 10
-2261.971283679934
 20
867.3928329326438
 10
-2264.258104975343
 20
863.5579225656513
  0
LWPOLYLINE
  5
8C
100
AcDbEntity
  8
53
  6
ByLayer
 62
  256
370
   -1
100
AcDbPolyline
 90
   16
 70
    1
 43
0
 10
-1501.028930920891
 20
2357.249097461374
 10
-1498.266152448751
 20
2348.509654982931
 10
-1492.426488879012
 20
2345.000563870923
 10
-1484.322063180936
 20
2347.73836538021
 10
-1473.749370816889
 20
2357.180124039263
 10
-1443.295827875951
 20
2393.710444258851
 10
-1436.052362269645
 20
2400.411220211711
 10
-1429.14280234603
 20
2401.549617375313
 10
-1450.440808199564
 20
2420.461410119101
 10
-1454.225407359743
 20
2420.46393138686
 10
-1460.780822590632
 20
2417.140897810343
 10
-1467.338674482981
 20
2410.160265045462
 10
-1474.810113951932
 20
2404.399441175403
 10
-1483.095808468892
 20
2396.454759270392
 10
-1496.619570446902
 20
2380.004565033171
 10
-1500.538987201083
 20
2368.272373511241
  0
LWPOLYLINE
  5
8D
100
AcDbEntity
  8
53
  6
ByLayer
 62
  256
370
   -1
100
AcDbPolyline
 90
   10
 70
    1
 43
0
 10
-2458.352605860043
 20
652.9393902799047
 10
-2426.528680254663
 20
642.3153749682168
 10
-2412.558930786913
 20
641.1439833307397
 10
-2402.601962394143
 20
641.9292510719691
 10
-2399.883504290324
 20
645.0020689868118
 10
-2403.412782437704
 20
651.175024920434
 10
-2412.733858785133
 20
654.5552210989476
 10
-2430.970345806922
 20
657.8865265043686
 10
-2445.651583546013
 20
657.7118704756222
 10
-2456.320236028143
 20
654.6661550891346
  0
LWPOLYLINE
  5
8E
100
AcDbEntity
  8
53
  6
ByLayer
 62
  256
370
   -1
100
AcDbPolyline
 90
   12
 70
    1
 43
0
 10
-2523.461219102974
 20
613.6595323364011
 10
-2521.887202411183
 20
610.0015951781168
 10
-2517.925215895644
 20
608.0703466776072
 10
-2493.363764579783
 20
606.4394868251597
 10
-2481.781799996534
 20
604.4050065101057
 10
-2472.536292678153
 20
603.9712265822004
 10
-2469.970305282903
 20
606.7138771409509
 10
-2475.176287997653
 20
611.4647921069013
 10
-2484.726007854973
 20
614.641837244581
 10
-2507.991885140073
 20
617.0852196695209
 10
-2517.389884924573
 20
617.0872322436651
 10
-2522.876616601533
 20
615.5390071873433
  0
LWPOLYLINE
  5
8F
100
AcDbEntity
  8
54
  6
ByLayer
 62
  256
370
   -1
100
AcDbPolyline
 90
   21
 70
    1
 43
0
 10
-3453.776855636132
 20
1296.223534558042
 10
-3453.219578678031
 20
1289.111415054543
 10
-3450.020195917269
 20
1284.360929800371
 10
-3445.626692259911
 20
1281.108788860519
 10
-3437.676612108768
 20
1280.5482863444
 10
-3430.157238630431
 20
1285.093276180832
 10
-3421.799202823207
 20
1291.7970864679
 10
-3411.789226039418
 20
1302.894743093892
 10
-3398.754223357222
 20
1325.320152172751
 10
-3396.567479030395
 20
1336.26708413423
 10
-3396.566075667884
 20
1342.820283983961
 10
-3399.79065717065
 20
1348.510574655971
 10
-3407.105465366864
 20
1350.340941158241
 10
-3413.78577944086
 20
1349.808971729932
 10
-3420.288984321412
 20
1346.051164299861
 10
-3421.585178442593
 20
1342.343041793761
 10
-3422.550595996047
 20
1341.327248513861
 10
-3427.402741081181
 20
1337.848487517061
 10
-3445.008846159267
 20
1319.615057432221
 10
-3449.175805911149
 20
1313.265949637722
 10
-3452.454500001008
 20
1303.487651543202
  0
LWPOLYLINE
  5
90
100
AcDbEntity
  8
54
  6
ByLayer
 62
  256
370
   -1
100
AcDbPolyline
 90
   18
 70
    1
 43
0
 10
-3155.716052294983
 20
1712.147508804541
 10
-3152.64334674866
 20
1711.104061563151
 10
-3154.219161674844
 20
1709.581111019461
 10
-3155.4196960715
 20
1699.472708561972
 10
-3152.2760022901
 20
1690.606012292811
 10
-3148.138172185279
 20
1687.047254916511
 10
-3142.982937841318
 20
1685.596020221971
 10
-3138.054966667101
 20
1686.151537373502
 10
-3132.083429802506
 20
1689.957560031911
 10
-3128.67614172313
 20
1695.492491354322
 10
-3127.350722512192
 20
1702.42580991006
 10
-3127.777361432029
 20
1710.173095852391
 10
-3130.565844481262
 20
1718.455355353542
 10
-3136.607709651524
 20
1723.46318150308
 10
-3142.245391597145
 20
1725.143337650832
 10
-3147.961371762001
 20
1723.673945261271
 10
-3153.094218095941
 20
1720.603964037831
 10
-3155.68824948172
 20
1715.754291082911
  0
LWPOLYLINE
  5
91
100
AcDbEntity
  8
54
  6
ByLayer
 62
  256
370
   -1
100
AcDbPolyline
 90
   17
 70
    1
 43
0
 10
-2855.243351394744
 20
2777.493072612532
 10
-2854.583848368073
 20
2776.146432958501
 10
-2853.337776494623
 20
2778.355403326381
 10
-2854.789265008063
 20
2772.819169066953
 10
-2853.523207943492
 20
2766.90012431722
 10
-2850.046674518883
 20
2761.995607192401
 10
-2842.431448005155
 20
2754.827732403825
 10
-2835.576072322303
 20
2750.88616453722
 10
-2829.607699733484
 20
2749.942388249643
 10
-2816.474278206524
 20
2752.372039417052
 10
-2813.573805526143
 20
2759.685308770122
 10
-2815.269022778313
 20
2769.567040301992
 10
-2821.055483540383
 20
2776.682896771122
 10
-2829.813117556364
 20
2784.740532819132
 10
-2839.844541652794
 20
2787.109416192704
 10
-2847.896965952693
 20
2786.174980440713
 10
-2853.513325927574
 20
2781.733721025573
  0
LWPOLYLINE
  5
92
100
AcDbEntity
  8
54
  6
ByLayer
 62
  256
370
   -1
100
AcDbPolyline
 90
    9
 70
    1
 43
0
 10
-1717.81426169587
 20
641.4844439618264
 10
-1714.997505303862
 20
629.1394404726407
 10
-1709.511736398853
 20
626.1918656320527
 10
-1703.695283395751
 20
625.5048200275655
 10
-1697.649566792353
 20
627.9165253975139
 10
-1694.650958059181
 20
634.4944833986972
 10
-1696.122504450964
 20
642.2163987062371
 10
-1702.217198857682
 20
648.3137040199543
 10
-1708.643104983292
 20
649.6866801540667
  0
LWPOLYLINE
  5
93
100
AcDbEntity
  8
54
  6
ByLayer
 62
  256
370
   -1
100
AcDbPolyline
 90
  266
 70
    1
 43
0
 10
-2766.340959578251
 20
1454.425606731539
 10
-2766.340959578252
 20
1451.387717685626
 10
-2766.340959578251
 20
1442.103517502171
 10
-2763.354923933505
 20
1424.187303633692
 10
-2756.965943413086
 20
1411.409342592855
 10
-2750.217999730648
 20
1391.165511545539
 10
-2737.258880632642
 20
1365.247273349528
 10
-2721.254866319273
 20
1339.640850448137
 10
-2716.280539103392
 20
1334.666523232256
 10
-2694.903105475871
 20
1322.450846873672
 10
-2673.280718783214
 20
1316.273022104342
 10
-2644.317369604865
 20
1313.054872195636
 10
-2628.008114088262
 20
1313.054872195636
 10
-2595.514460419058
 20
1313.054872195636
 10
-2584.305363820391
 20
1315.857146345303
 10
-2566.798844944483
 20
1324.610405783257
 10
-2541.730072590051
 20
1352.812774681993
 10
-2532.939548509623
 20
1367.463648149373
 10
-2526.788958851684
 20
1395.141301610102
 10
-2526.788958851684
 20
1414.274027432215
 10
-2526.788958851684
 20
1423.393675804092
 10
-2529.635135556729
 20
1437.624559329318
 10
-2552.3704339779
 20
1476.599356622754
 10
-2561.615113994672
 20
1492.007156650707
 10
-2582.480372753605
 20
1509.891664158364
 10
-2609.406843808547
 20
1518.867154510012
 10
-2618.870710279729
 20
1518.867154510012
 10
-2627.211627379564
 20
1514.696695960095
 10
-2629.811288649262
 20
1509.497373420699
 10
-2631.382085929481
 20
1507.926576140479
 10
-2631.382085929481
 20
1508.745238986354
 10
-2631.382085929481
 20
1509.292759242221
 10
-2617.376911562745
 20
1504.624367786642
 10
-2596.141990221281
 20
1494.00690711591
 10
-2579.634260909065
 20
1484.102269528581
 10
-2548.457458919968
 20
1471.631548732942
 10
-2535.926362660216
 20
1471.631548732942
 10
-2532.131954123154
 20
1473.528753001473
 10
-2519.941694711524
 20
1482.671447560195
 10
-2515.684853346657
 20
1486.928288925062
 10
-2513.293071486807
 20
1496.495416364466
 10
-2513.293071486807
 20
1501.997295303915
 10
-2513.293071486807
 20
1532.363041874889
 10
-2513.293071486807
 20
1535.560409307204
 10
-2537.716612468677
 20
1566.089835534543
 10
-2574.433896051691
 20
1602.807119117556
 10
-2593.437988642059
 20
1621.811211707926
 10
-2654.93150382742
 20
1650.939718900989
 10
-2683.776424151472
 20
1657.349701195244
 10
-2756.905995893268
 20
1667.321915523659
 10
-2786.584790625571
 20
1667.321915523659
 10
-2816.950537196541
 20
1667.321915523659
 10
-2867.560114814833
 20
1667.321915523659
 10
-2874.308058497269
 20
1667.321915523659
 10
-2894.551889544584
 20
1677.443831047317
 10
-2884.429974020923
 20
1687.565746570975
 10
-2860.812171132389
 20
1687.565746570975
 10
-2840.568340085074
 20
1687.565746570975
 10
-2809.57242584513
 20
1687.565746570975
 10
-2782.221810306635
 20
1684.146919628663
 10
-2735.61417594486
 20
1680.817802888536
 10
-2688.739607230209
 20
1680.817802888536
 10
-2654.999888818016
 20
1680.817802888536
 10
-2607.764283040946
 20
1680.817802888536
 10
-2587.520451993631
 20
1680.817802888536
 10
-2553.780733581436
 20
1680.817802888536
 10
-2546.048278183873
 20
1680.817802888536
 10
-2543.574730718612
 20
1682.054576621168
 10
-2535.87202773117
 20
1692.324847271089
 10
-2533.536902534122
 20
1699.330222862234
 10
-2533.536902534122
 20
1706.167016850689
 10
-2538.920389135484
 20
1722.317476654777
 10
-2569.655146661216
 20
1749.978758427935
 10
-2588.869856691519
 20
1759.586113443087
 10
-2619.785984452878
 20
1776.761739977175
 10
-2628.582698364487
 20
1782.626215918247
 10
-2659.376127811015
 20
1788.784901807553
 10
-2671.869748024112
 20
1788.784901807553
 10
-2692.113579071428
 20
1788.784901807553
 10
-2685.365635388989
 20
1788.784901807553
 10
-2685.365635388989
 20
1791.340210802898
 10
-2686.116016112067
 20
1790.58983007982
 10
-2680.877980585203
 20
1781.859770868379
 10
-2655.581506430396
 20
1759.725355982924
 10
-2637.01722336525
 20
1747.349167272826
 10
-2619.617609638221
 20
1741.549296030483
 10
-2597.642367517288
 20
1741.549296030483
 10
-2570.650592787534
 20
1741.549296030483
 10
-2554.500075969591
 20
1741.549296030483
 10
-2536.844491243681
 20
1744.071522419899
 10
-2535.842275321048
 20
1746.075954265165
 10
-2533.536902534122
 20
1750.686699839016
 10
-2533.536902534122
 20
1761.162959408828
 10
-2536.401950515609
 20
1784.083343260727
 10
-2547.442121321937
 20
1795.123514067054
 10
-2553.30896417481
 20
1800.990356919928
 10
-2584.688647714112
 20
1819.818167043509
 10
-2596.827773862411
 20
1822.852948580584
 10
-2632.737593459417
 20
1832.646535743404
 10
-2634.7560577707
 20
1832.646535743404
 10
-2579.129947543591
 20
1832.646535743404
 10
-2607.937424148308
 20
1842.249027944976
 10
-2587.342751381597
 20
1835.384137022739
 10
-2547.338632487455
 20
1818.715754150179
 10
-2517.715274283968
 20
1812.132785660516
 10
-2490.827985331665
 20
1805.41096342244
 10
-2423.479155729095
 20
1791.941197501926
 10
-2392.801105177373
 20
1785.123852934877
 10
-2341.899896634195
 20
1771.550197323362
 10
-2318.195972488167
 20
1764.777647567355
 10
-2293.400456370779
 20
1757.693214390958
 10
-2266.058316124675
 20
1742.069134250328
 10
-2261.595601998664
 20
1733.143705998305
 10
-2253.497239712923
 20
1720.996162569693
 10
-2253.497239712923
 20
1714.557521300729
 10
-2253.497239712923
 20
1711.18354945951
 10
-2253.497239712923
 20
1704.435605777071
 10
-2253.497239712923
 20
1693.495027407539
 10
-2261.52545543096
 20
1685.466811689502
 10
-2273.23178375838
 20
1681.564702247029
 10
-2288.221469840241
 20
1674.069859206098
 10
-2304.736985000183
 20
1674.069859206098
 10
-2335.115854190248
 20
1677.867217854856
 10
-2368.176017905301
 20
1703.58067852212
 10
-2379.068190540042
 20
1714.472851156861
 10
-2413.602822595801
 20
1755.914409623771
 10
-2423.919383974094
 20
1773.108678587594
 10
-2440.649155109795
 20
1796.530358177574
 10
-2446.931675984943
 20
1805.954139490296
 10
-2456.344881609016
 20
1815.36734511437
 10
-2460.128184873173
 20
1819.150648378527
 10
-2469.431437550956
 20
1819.150648378527
 10
-2469.431437550956
 20
1805.031531678665
 10
-2459.309522027298
 20
1832.646535743404
 10
-2459.309522027298
 20
1829.272563902184
 10
-2455.935550186079
 20
1829.272563902184
 10
-2449.18760650364
 20
1822.524620219746
 10
-2439.065690979983
 20
1812.402704696088
 10
-2432.317747297544
 20
1802.28078917243
 10
-2415.447888091448
 20
1778.662986283895
 10
-2405.32597256779
 20
1761.793127077799
 10
-2371.586254155598
 20
1721.305464983168
 10
-2361.464338631939
 20
1711.18354945951
 10
-2331.098592060966
 20
1687.565746570975
 10
-2304.106817331212
 20
1684.191774729756
 10
-2290.610929966335
 20
1684.191774729756
 10
-2277.115042601457
 20
1690.939718412194
 10
-2266.9931270778
 20
1694.313690253413
 10
-2263.619155236581
 20
1697.687662094633
 10
-2263.619155236581
 20
1704.435605777071
 10
-2263.619155236581
 20
1711.18354945951
 10
-2263.619155236581
 20
1714.557521300729
 10
-2263.619155236581
 20
1717.931493141949
 10
-2270.36709891902
 20
1728.053408665606
 10
-2273.741070760238
 20
1734.801352348045
 10
-2297.358873648774
 20
1748.297239712922
 10
-2320.976676537309
 20
1755.04518339536
 10
-2344.594479425843
 20
1761.793127077799
 10
-2395.204057044132
 20
1775.289014442676
 10
-2425.569803615106
 20
1782.036958125114
 10
-2493.049240439491
 20
1795.532845489991
 10
-2520.041015169245
 20
1802.28078917243
 10
-2550.406761740219
 20
1809.028732854869
 10
-2590.894423834849
 20
1825.898592060965
 10
-2611.138254882166
 20
1832.646535743404
 10
-2641.504001453139
 20
1842.768451267061
 10
-2634.7560577707
 20
1842.768451267061
 10
-2631.382085929481
 20
1842.768451267061
 10
-2594.268395676069
 20
1832.646535743404
 10
-2580.772508311192
 20
1829.272563902184
 10
-2547.032789899
 20
1809.028732854869
 10
-2540.28484621656
 20
1802.28078917243
 10
-2526.788958851684
 20
1788.784901807553
 10
-2523.414987010465
 20
1761.793127077799
 10
-2523.414987010464
 20
1748.297239712922
 10
-2526.788958851684
 20
1741.549296030483
 10
-2530.162930692903
 20
1734.801352348045
 10
-2553.780733581437
 20
1731.427380506826
 10
-2570.650592787534
 20
1731.427380506826
 10
-2597.642367517288
 20
1731.427380506826
 10
-2621.260170405822
 20
1731.427380506826
 10
-2641.504001453139
 20
1738.175324189264
 10
-2661.747832500454
 20
1751.671211554141
 10
-2688.739607230209
 20
1775.289014442676
 10
-2698.861522753867
 20
1792.158873648772
 10
-2695.487550912647
 20
1795.532845489991
 10
-2695.487550912647
 20
1798.906817331211
 10
-2692.113579071428
 20
1798.906817331211
 10
-2671.869748024112
 20
1798.906817331211
 10
-2658.373860659235
 20
1798.906817331211
 10
-2624.634142247042
 20
1792.158873648772
 10
-2614.512226723385
 20
1785.410929966334
 10
-2584.146480152412
 20
1768.541070760237
 10
-2563.902649105096
 20
1758.41915523658
 10
-2530.162930692903
 20
1728.053408665606
 10
-2523.414987010465
 20
1707.809577618291
 10
-2523.414987010464
 20
1697.687662094633
 10
-2526.788958851685
 20
1687.565746570975
 10
-2536.91087437534
 20
1674.069859206098
 10
-2543.65881805778
 20
1670.695887364879
 10
-2553.780733581438
 20
1670.695887364879
 10
-2587.520451993629
 20
1670.695887364879
 10
-2607.764283040948
 20
1670.695887364879
 10
-2654.999888818014
 20
1670.695887364879
 10
-2688.739607230205
 20
1670.695887364879
 10
-2735.975213007279
 20
1670.695887364879
 10
-2783.210818784346
 20
1674.069859206098
 10
-2810.202593514105
 20
1677.443831047317
 10
-2840.568340085074
 20
1677.443831047317
 10
-2860.812171132389
 20
1677.443831047317
 10
-2884.429974020926
 20
1677.443831047317
 10
-2894.551889544584
 20
1677.443831047317
 10
-2874.308058497269
 20
1677.443831047317
 10
-2867.560114814829
 20
1677.443831047317
 10
-2816.950537196541
 20
1677.443831047317
 10
-2786.584790625568
 20
1677.443831047317
 10
-2756.219044054591
 20
1677.443831047317
 10
-2681.991663547769
 20
1667.321915523659
 10
-2651.625916976807
 20
1660.573971841221
 10
-2587.520451993632
 20
1630.208225270248
 10
-2567.276620946314
 20
1609.964394222932
 10
-2530.162930692903
 20
1572.85070396952
 10
-2503.171155963149
 20
1539.110985557327
 10
-2503.171155963149
 20
1532.363041874889
 10
-2503.171155963149
 20
1501.997295303915
 10
-2503.171155963149
 20
1495.249351621477
 10
-2506.545127804368
 20
1481.7534642566
 10
-2513.293071486807
 20
1475.005520574161
 10
-2526.788958851684
 20
1464.883605050503
 10
-2533.536902534122
 20
1461.509633209284
 10
-2550.406761740218
 20
1461.509633209284
 10
-2584.146480152411
 20
1475.005520574161
 10
-2601.016339358508
 20
1485.127436097819
 10
-2621.260170405823
 20
1495.249351621477
 10
-2641.504001453139
 20
1501.997295303915
 10
-2641.504001453139
 20
1508.745238986354
 10
-2641.504001453139
 20
1512.119210827573
 10
-2638.130029611919
 20
1515.493182668793
 10
-2634.7560577707
 20
1522.241126351231
 10
-2621.260170405823
 20
1528.98907003367
 10
-2607.764283040946
 20
1528.98907003367
 10
-2577.398536469973
 20
1518.867154510012
 10
-2553.780733581438
 20
1498.623323462696
 10
-2543.65881805778
 20
1481.7534642566
 10
-2520.041015169245
 20
1441.265802161969
 10
-2516.667043328026
 20
1424.395942955872
 10
-2516.667043328026
 20
1414.274027432215
 10
-2516.667043328026
 20
1394.030196384899
 10
-2523.414987010464
 20
1363.664449813925
 10
-2533.536902534122
 20
1346.794590607829
 10
-2560.528677263876
 20
1316.428844036856
 10
-2580.772508311192
 20
1306.306928513198
 10
-2594.268395676069
 20
1302.932956671979
 10
-2628.008114088262
 20
1302.932956671979
 10
-2644.877973294358
 20
1302.932956671979
 10
-2675.243719865332
 20
1306.306928513198
 10
-2698.861522753866
 20
1313.054872195636
 10
-2722.479325642401
 20
1326.550759560514
 10
-2729.22726932484
 20
1333.298703242952
 10
-2746.097128530936
 20
1360.290477972706
 10
-2759.593015895813
 20
1387.28225270246
 10
-2766.340959578251
 20
1407.526083749776
 10
-2773.08890326069
 20
1421.021971114653
 10
-2776.46287510191
 20
1441.265802161969
 10
-2776.46287510191
 20
1451.387717685626
 10
-2776.46287510191
 20
1458.135661368065
  0
ENDSEC
  0
SECTION
  2
OBJECTS
  0
DICTIONARY
  5
C
330
0
100
AcDbDictionary
281
    1
  3
ACAD_GROUP
350
D
  0
DICTIONARY
  5
D
330
C
100
AcDbDictionary
281
    1
  0
PLOTSETTINGS
  5
94
100
AcDbPlotSettings
  6
1x1
 40
0
 41
0
 42
0
 43
0
  0
ENDSEC
  0
EOF
