  0
SECTION
  2
HEADER
  0
ENDSEC
  0
SECTION
  2
TABLES
  0
ENDSEC
  0
SECTION
  2
BLOCKS
  0
ENDSEC
  0
SECTION
  2
ENTITIES
  0
POLYLINE
  8
1
 62
7
 10
0
 20
0
 66
1
 70
1
  0
VERTEX
  8
1
 62
7
  6
CONTINUOUS
 10
-797.4640211613648
 20
1965.117878284346
  0
VERTEX
  8
1
 62
7
  6
CONTINUOUS
 10
-821.2631537494368
 20
1962.840502800208
  0
VERTEX
  8
1
 62
7
  6
CONTINUOUS
 10
-843.8549063616783
 20
1955.017596374355
  0
VERTEX
  8
1
 62
7
  6
CONTINUOUS
 10
-863.9661603579316
 20
1942.090005193529
  0
VERTEX
  8
1
 62
7
  6
CONTINUOUS
 10
-880.4635812519774
 20
1924.786241010986
  0
VERTEX
  8
1
 62
7
  6
CONTINUOUS
 10
-889.5352162012086
 20
1909.073675088331
  0
VERTEX
  8
1
 62
7
  6
CONTINUOUS
 10
-1314.90894694029
 20
1663.483516923394
  0
VERTEX
  8
1
 62
7
  6
CONTINUOUS
 10
-1332.685233047493
 20
1646.248335975246
  0
VERTEX
  8
1
 62
7
  6
CONTINUOUS
 10
-1345.721877436312
 20
1625.198544689822
  0
VERTEX
  8
1
 62
7
  6
CONTINUOUS
 10
-1353.231735410715
 20
1601.605116721746
  0
VERTEX
  8
1
 62
7
  6
CONTINUOUS
 10
-1354.485957477713
 20
1581.342076191568
  0
VERTEX
  8
1
 62
7
  6
CONTINUOUS
 10
-1373.657041281745
 20
1568.271370557258
  0
VERTEX
  8
1
 62
7
  6
CONTINUOUS
 10
-1408.843083132399
 20
1610.688931670622
  0
VERTEX
  8
1
 62
7
  6
CONTINUOUS
 10
-1431.053935629223
 20
1626.183953359644
  0
VERTEX
  8
1
 62
7
  6
CONTINUOUS
 10
-1456.58571879005
 20
1635.214219934196
  0
VERTEX
  8
1
 62
7
  6
CONTINUOUS
 10
-1478.061782080655
 20
1636.736758542535
  0
VERTEX
  8
1
 62
7
  6
CONTINUOUS
 10
-1486.173332065452
 20
1639.671409773325
  0
VERTEX
  8
1
 62
7
  6
CONTINUOUS
 10
-1507.913120892957
 20
1647.525544022787
  0
VERTEX
  8
1
 62
7
  6
CONTINUOUS
 10
-1518.950910731912
 20
1649.418104020877
  0
VERTEX
  8
1
 62
7
  6
CONTINUOUS
 10
-1524.839276916257
 20
1650.298753598758
  0
VERTEX
  8
1
 62
7
  6
CONTINUOUS
 10
-1530.745886217753
 20
1651.054438426904
  0
VERTEX
  8
1
 62
7
  6
CONTINUOUS
 10
-1535.734270746027
 20
1651.603838825562
  0
VERTEX
  8
1
 62
7
  6
CONTINUOUS
 10
-1540.729112846143
 20
1652.082145625596
  0
VERTEX
  8
1
 62
7
  6
CONTINUOUS
 10
-1544.910777563619
 20
1652.429088258634
  0
VERTEX
  8
1
 62
7
  6
CONTINUOUS
 10
-1549.094853177733
 20
1652.725640539646
  0
VERTEX
  8
1
 62
7
  6
CONTINUOUS
 10
-1553.28325732817
 20
1652.972370498616
  0
VERTEX
  8
1
 62
7
  6
CONTINUOUS
 10
-1557.47446316508
 20
1653.170911760233
  0
VERTEX
  8
1
 62
7
  6
CONTINUOUS
 10
-1566.004747256352
 20
1654.554621745161
  0
VERTEX
  8
1
 62
7
  6
CONTINUOUS
 10
-1574.513520981096
 20
1656.060242780171
  0
VERTEX
  8
1
 62
7
  6
CONTINUOUS
 10
-1583.000500324331
 20
1657.688733685101
  0
VERTEX
  8
1
 62
7
  6
CONTINUOUS
 10
-1591.462524811536
 20
1659.440201234808
  0
VERTEX
  8
1
 62
7
  6
CONTINUOUS
 10
-1601.745559568442
 20
1661.709173951476
  0
VERTEX
  8
1
 62
7
  6
CONTINUOUS
 10
-1612.000763009756
 20
1664.100271267928
  0
VERTEX
  8
1
 62
7
  6
CONTINUOUS
 10
-1622.227176315727
 20
1666.613209169189
  0
VERTEX
  8
1
 62
7
  6
CONTINUOUS
 10
-1632.424124681482
 20
1669.246744820419
  0
VERTEX
  8
1
 62
7
  6
CONTINUOUS
 10
-1642.428232715428
 20
1671.679231705368
  0
VERTEX
  8
1
 62
7
  6
CONTINUOUS
 10
-1652.41952591887
 20
1674.172585495269
  0
VERTEX
  8
1
 62
7
  6
CONTINUOUS
 10
-1662.394453027611
 20
1676.724711310352
  0
VERTEX
  8
1
 62
7
  6
CONTINUOUS
 10
-1672.3542568764
 20
1679.334934345751
  0
VERTEX
  8
1
 62
7
  6
CONTINUOUS
 10
-1682.299328254995
 20
1682.005456256114
  0
VERTEX
  8
1
 62
7
  6
CONTINUOUS
 10
-1692.227642749018
 20
1684.732548536983
  0
VERTEX
  8
1
 62
7
  6
CONTINUOUS
 10
-1702.140549968032
 20
1687.518696857989
  0
VERTEX
  8
1
 62
7
  6
CONTINUOUS
 10
-1712.035848257462
 20
1690.364292009009
  0
VERTEX
  8
1
 62
7
  6
CONTINUOUS
 10
-1754.783856871918
 20
1702.829694710498
  0
VERTEX
  8
1
 62
7
  6
CONTINUOUS
 10
-1797.51113239153
 20
1715.365091260133
  0
VERTEX
  8
1
 62
7
  6
CONTINUOUS
 10
-1843.05649480766
 20
1728.851009373927
  0
VERTEX
  8
1
 62
7
  6
CONTINUOUS
 10
-1888.573171709723
 20
1742.433768291532
  0
VERTEX
  8
1
 62
7
  6
CONTINUOUS
 10
-1927.867610061982
 20
1754.255295576516
  0
VERTEX
  8
1
 62
7
  6
CONTINUOUS
 10
-1954.497783035486
 20
1754.984851518214
  0
VERTEX
  8
1
 62
7
  6
CONTINUOUS
 10
-1980.390426980351
 20
1748.718325046941
  0
VERTEX
  8
1
 62
7
  6
CONTINUOUS
 10
-2003.739980293546
 20
1735.892697399726
  0
VERTEX
  8
1
 62
7
  6
CONTINUOUS
 10
-2022.918217715414
 20
1717.402333047956
  0
VERTEX
  8
1
 62
7
  6
CONTINUOUS
 10
-2036.587790724246
 20
1694.536613329851
  0
VERTEX
  8
1
 62
7
  6
CONTINUOUS
 10
-2043.795484337165
 20
1668.890024526405
  0
VERTEX
  8
1
 62
7
  6
CONTINUOUS
 10
-2044.038687277327
 20
1642.250970173807
  0
VERTEX
  8
1
 62
7
  6
CONTINUOUS
 10
-2037.300440369325
 20
1616.477061019829
  0
VERTEX
  8
1
 62
7
  6
CONTINUOUS
 10
-2024.050619146713
 20
1593.365578980817
  0
VERTEX
  8
1
 62
7
  6
CONTINUOUS
 10
-1801.73257606843
 20
1371.047771302972
  0
VERTEX
  8
1
 62
7
  6
CONTINUOUS
 10
-1800.119173193483
 20
1368.228456101845
  0
VERTEX
  8
1
 62
7
  6
CONTINUOUS
 10
-1781.251943446711
 20
1349.350367008501
  0
VERTEX
  8
1
 62
7
  6
CONTINUOUS
 10
-1758.094567539276
 20
1336.080455659308
  0
VERTEX
  8
1
 62
7
  6
CONTINUOUS
 10
-1732.267807871508
 20
1329.347470348394
  0
VERTEX
  8
1
 62
7
  6
CONTINUOUS
 10
-1690.09558089579
 20
1329.782292694609
  0
VERTEX
  8
1
 62
7
  6
CONTINUOUS
 10
-1643.34358116396
 20
1330.169325085349
  0
VERTEX
  8
1
 62
7
  6
CONTINUOUS
 10
-1596.590581362785
 20
1330.456357476781
  0
VERTEX
  8
1
 62
7
  6
CONTINUOUS
 10
-1549.836581497143
 20
1330.650389868907
  0
VERTEX
  8
1
 62
7
  6
CONTINUOUS
 10
-1506.561581612295
 20
1330.81641985071
  0
VERTEX
  8
1
 62
7
  6
CONTINUOUS
 10
-1463.285581681521
 20
1330.916449833207
  0
VERTEX
  8
1
 62
7
  6
CONTINUOUS
 10
-1420.009581703742
 20
1330.948479815703
  0
VERTEX
  8
1
 62
7
  6
CONTINUOUS
 10
-1376.733581678759
 20
1330.912509798198
  0
VERTEX
  8
1
 62
7
  6
CONTINUOUS
 10
-1353.538581630241
 20
1330.842525868168
  0
VERTEX
  8
1
 62
7
  6
CONTINUOUS
 10
-1330.343581535367
 20
1330.705541938138
  0
VERTEX
  8
1
 62
7
  6
CONTINUOUS
 10
-1307.149581394023
 20
1330.501558007414
  0
VERTEX
  8
1
 62
7
  6
CONTINUOUS
 10
-1283.955581206973
 20
1330.231574076691
  0
VERTEX
  8
1
 62
7
  6
CONTINUOUS
 10
-1276.873581134921
 20
1330.127578983245
  0
VERTEX
  8
1
 62
7
  6
CONTINUOUS
 10
-1269.795580965182
 20
1329.882583887028
  0
VERTEX
  8
1
 62
7
  6
CONTINUOUS
 10
-1262.72358069568
 20
1329.493588786654
  0
VERTEX
  8
1
 62
7
  6
CONTINUOUS
 10
-1255.660580327784
 20
1328.962593680044
  0
VERTEX
  8
1
 62
7
  6
CONTINUOUS
 10
-1248.610579861527
 20
1328.289598564429
  0
VERTEX
  8
1
 62
7
  6
CONTINUOUS
 10
-1241.574579296184
 20
1327.473603439114
  0
VERTEX
  8
1
 62
7
  6
CONTINUOUS
 10
-1234.556578633154
 20
1326.516608301328
  0
VERTEX
  8
1
 62
7
  6
CONTINUOUS
 10
-1227.559577872447
 20
1325.418613148993
  0
VERTEX
  8
1
 62
7
  6
CONTINUOUS
 10
-1221.769577151218
 20
1324.377617160423
  0
VERTEX
  8
1
 62
7
  6
CONTINUOUS
 10
-1216.006576332302
 20
1323.195621153146
  0
VERTEX
  8
1
 62
7
  6
CONTINUOUS
 10
-1210.273575417089
 20
1321.874625125087
  0
VERTEX
  8
1
 62
7
  6
CONTINUOUS
 10
-1204.574574405575
 20
1320.414629073471
  0
VERTEX
  8
1
 62
7
  6
CONTINUOUS
 10
-1198.91257329776
 20
1318.815632996222
  0
VERTEX
  8
1
 62
7
  6
CONTINUOUS
 10
-1193.290572095714
 20
1317.080636891257
  0
VERTEX
  8
1
 62
7
  6
CONTINUOUS
 10
-1187.713570799449
 20
1315.209640755117
  0
VERTEX
  8
1
 62
7
  6
CONTINUOUS
 10
-1182.182569408958
 20
1313.202644587107
  0
VERTEX
  8
1
 62
7
  6
CONTINUOUS
 10
-1184.360566360548
 20
1308.802643078146
  0
VERTEX
  8
1
 62
7
  6
CONTINUOUS
 10
-1186.64156334886
 20
1304.45564149782
  0
VERTEX
  8
1
 62
7
  6
CONTINUOUS
 10
-1189.026560375964
 20
1300.164639845447
  0
VERTEX
  8
1
 62
7
  6
CONTINUOUS
 10
-1191.512557443256
 20
1295.931638123096
  0
VERTEX
  8
1
 62
7
  6
CONTINUOUS
 10
-1192.910555916279
 20
1293.727637154534
  0
VERTEX
  8
1
 62
7
  6
CONTINUOUS
 10
-1194.405554434335
 20
1291.588636118768
  0
VERTEX
  8
1
 62
7
  6
CONTINUOUS
 10
-1195.995553000887
 20
1289.519635017188
  0
VERTEX
  8
1
 62
7
  6
CONTINUOUS
 10
-1197.676551617325
 20
1287.522633852557
  0
VERTEX
  8
1
 62
7
  6
CONTINUOUS
 10
-1201.249548101256
 20
1282.447631377116
  0
VERTEX
  8
1
 62
7
  6
CONTINUOUS
 10
-1204.868544608064
 20
1277.405628869788
  0
VERTEX
  8
1
 62
7
  6
CONTINUOUS
 10
-1208.531541137021
 20
1272.395626332004
  0
VERTEX
  8
1
 62
7
  6
CONTINUOUS
 10
-1212.240537688864
 20
1267.418623762319
  0
VERTEX
  8
1
 62
7
  6
CONTINUOUS
 10
-1215.134535055457
 20
1263.617621757292
  0
VERTEX
  8
1
 62
7
  6
CONTINUOUS
 10
-1218.072532444909
 20
1259.849619721788
  0
VERTEX
  8
1
 62
7
  6
CONTINUOUS
 10
-1221.053529859291
 20
1256.117617656505
  0
VERTEX
  8
1
 62
7
  6
CONTINUOUS
 10
-1224.078527297246
 20
1252.419615560718
  0
VERTEX
  8
1
 62
7
  6
CONTINUOUS
 10
-1227.353527960277
 20
1253.376613291731
  0
VERTEX
  8
1
 62
7
  6
CONTINUOUS
 10
-1230.646528579656
 20
1254.270611010273
  0
VERTEX
  8
1
 62
7
  6
CONTINUOUS
 10
-1233.956529154687
 20
1255.100608717035
  0
VERTEX
  8
1
 62
7
  6
CONTINUOUS
 10
-1237.280529686085
 20
1255.867606414101
  0
VERTEX
  8
1
 62
7
  6
CONTINUOUS
 10
-1243.405530599218
 20
1257.185602170575
  0
VERTEX
  8
1
 62
7
  6
CONTINUOUS
 10
-1249.542531468033
 20
1258.43959791874
  0
VERTEX
  8
1
 62
7
  6
CONTINUOUS
 10
-1255.693532292464
 20
1259.629593657197
  0
VERTEX
  8
1
 62
7
  6
CONTINUOUS
 10
-1261.855533072579
 20
1260.755589388039
  0
VERTEX
  8
1
 62
7
  6
CONTINUOUS
 10
-1274.593533806282
 20
1261.814580562892
  0
VERTEX
  8
1
 62
7
  6
CONTINUOUS
 10
-1287.34553440903
 20
1262.684571728046
  0
VERTEX
  8
1
 62
7
  6
CONTINUOUS
 10
-1300.108534881531
 20
1263.366562885579
  0
VERTEX
  8
1
 62
7
  6
CONTINUOUS
 10
-1323.591905209168
 20
1264.274844817433
  0
VERTEX
  8
1
 62
7
  6
CONTINUOUS
 10
-1351.053616743976
 20
1257.485709196802
  0
VERTEX
  8
1
 62
7
  6
CONTINUOUS
 10
-1375.555209943789
 20
1243.346759675454
  0
VERTEX
  8
1
 62
7
  6
CONTINUOUS
 10
-1395.174430820994
 20
1222.967256858462
  0
VERTEX
  8
1
 62
7
  6
CONTINUOUS
 10
-1406.242492354112
 20
1201.983489353792
  0
VERTEX
  8
1
 62
7
  6
CONTINUOUS
 10
-1433.342659106417
 20
1201.983470578242
  0
VERTEX
  8
1
 62
7
  6
CONTINUOUS
 10
-1459.898821222421
 20
1194.515530629328
  0
VERTEX
  8
1
 62
7
  6
CONTINUOUS
 10
-1483.441725946989
 20
1180.137369740607
  0
VERTEX
  8
1
 62
7
  6
CONTINUOUS
 10
-1502.213207624639
 20
1159.922737687617
  0
VERTEX
  8
1
 62
7
  6
CONTINUOUS
 10
-1514.811426729861
 20
1135.381247333751
  0
VERTEX
  8
1
 62
7
  6
CONTINUOUS
 10
-1520.295558143147
 20
1108.345637925899
  0
VERTEX
  8
1
 62
7
  6
CONTINUOUS
 10
-1518.256051232841
 20
1080.834907565277
  0
VERTEX
  8
1
 62
7
  6
CONTINUOUS
 10
-1508.845214775015
 20
1054.903536013117
  0
VERTEX
  8
1
 62
7
  6
CONTINUOUS
 10
-1492.765842653564
 20
1032.488057753844
  0
VERTEX
  8
1
 62
7
  6
CONTINUOUS
 10
-1382.065512784812
 20
943.9898337888537
  0
VERTEX
  8
1
 62
7
  6
CONTINUOUS
 10
-1423.693096340148
 20
891.6566676984233
  0
VERTEX
  8
1
 62
7
  6
CONTINUOUS
 10
-1434.178046743819
 20
867.599825939402
  0
VERTEX
  8
1
 62
7
  6
CONTINUOUS
 10
-1438.101824175412
 20
841.6523830778527
  0
VERTEX
  8
1
 62
7
  6
CONTINUOUS
 10
-1435.198784987049
 20
815.5710068899124
  0
VERTEX
  8
1
 62
7
  6
CONTINUOUS
 10
-1425.665467828887
 20
791.1214325715741
  0
VERTEX
  8
1
 62
7
  6
CONTINUOUS
 10
-1410.147287786369
 20
769.9589207037922
  0
VERTEX
  8
1
 62
7
  6
CONTINUOUS
 10
-1389.694841134833
 20
753.5161944592743
  0
VERTEX
  8
1
 62
7
  6
CONTINUOUS
 10
-1365.692778923235
 20
742.9064428138942
  0
VERTEX
  8
1
 62
7
  6
CONTINUOUS
 10
-1339.766064716306
 20
738.8479565421106
  0
VERTEX
  8
1
 62
7
  6
CONTINUOUS
 10
-1290.741513935594
 20
744.0471061105513
  0
VERTEX
  8
1
 62
7
  6
CONTINUOUS
 10
-1290.618514753784
 20
744.0407776832557
  0
VERTEX
  8
1
 62
7
  6
CONTINUOUS
 10
-1290.624528368851
 20
744.0357664537627
  0
VERTEX
  8
1
 62
7
  6
CONTINUOUS
 10
-1290.62554264253
 20
744.0280045444547
  0
VERTEX
  8
1
 62
7
  6
CONTINUOUS
 10
-1290.621018629611
 20
744.0216163291866
  0
VERTEX
  8
1
 62
7
  6
CONTINUOUS
 10
-1242.155506814802
 20
733.7691397719267
  0
VERTEX
  8
1
 62
7
  6
CONTINUOUS
 10
-1208.214154778687
 20
723.7872381630916
  0
VERTEX
  8
1
 62
7
  6
CONTINUOUS
 10
-1208.208214063772
 20
723.7892109876884
  0
VERTEX
  8
1
 62
7
  6
CONTINUOUS
 10
-1199.341508090987
 20
735.6111694343391
  0
VERTEX
  8
1
 62
7
  6
CONTINUOUS
 10
-1185.013834273214
 20
813.6960781620622
  0
VERTEX
  8
1
 62
7
  6
CONTINUOUS
 10
-1185.017761600684
 20
813.7025723979419
  0
VERTEX
  8
1
 62
7
  6
CONTINUOUS
 10
-1185.025008590165
 20
813.70482631546
  0
VERTEX
  8
1
 62
7
  6
CONTINUOUS
 10
-1185.031926463127
 20
813.7017050922364
  0
VERTEX
  8
1
 62
7
  6
CONTINUOUS
 10
-1184.999559445121
 20
813.7738750649593
  0
VERTEX
  8
1
 62
7
  6
CONTINUOUS
 10
-1175.821596898099
 20
863.7931857294451
  0
VERTEX
  8
1
 62
7
  6
CONTINUOUS
 10
-1174.590621633174
 20
899.4951865822978
  0
VERTEX
  8
1
 62
7
  6
CONTINUOUS
 10
-1174.569442495293
 20
899.5661459317367
  0
VERTEX
  8
1
 62
7
  6
CONTINUOUS
 10
-1174.566287174327
 20
899.5592921666835
  0
VERTEX
  8
1
 62
7
  6
CONTINUOUS
 10
-1174.559391112591
 20
899.5562303896903
  0
VERTEX
  8
1
 62
7
  6
CONTINUOUS
 10
-1174.552191105
 20
899.5584865006111
  0
VERTEX
  8
1
 62
7
  6
CONTINUOUS
 10
-1160.911637243114
 20
922.0261960593839
  0
VERTEX
  8
1
 62
7
  6
CONTINUOUS
 10
-1153.261527810157
 20
944.2806555244023
  0
VERTEX
  8
1
 62
7
  6
CONTINUOUS
 10
-1153.262196433532
 20
944.2854067932155
  0
VERTEX
  8
1
 62
7
  6
CONTINUOUS
 10
-1175.107234973091
 20
975.493268486686
  0
VERTEX
  8
1
 62
7
  6
CONTINUOUS
 10
-1175.115125327081
 20
975.4948296645018
  0
VERTEX
  8
1
 62
7
  6
CONTINUOUS
 10
-1175.121899571853
 20
975.4904932408585
  0
VERTEX
  8
1
 62
7
  6
CONTINUOUS
 10
-1175.123785258422
 20
975.4826740881928
  0
VERTEX
  8
1
 62
7
  6
CONTINUOUS
 10
-1186.747688083656
 20
995.4081781596577
  0
VERTEX
  8
1
 62
7
  6
CONTINUOUS
 10
-1192.200698159344
 20
1009.95117438172
  0
VERTEX
  8
1
 62
7
  6
CONTINUOUS
 10
-1192.200708055588
 20
1024.235174381701
  0
VERTEX
  8
1
 62
7
  6
CONTINUOUS
 10
-1187.376714740613
 20
1033.884177723864
  0
VERTEX
  8
1
 62
7
  6
CONTINUOUS
 10
-1181.893717272873
 20
1037.539181522597
  0
VERTEX
  8
1
 62
7
  6
CONTINUOUS
 10
-1172.169718235203
 20
1038.928188259583
  0
VERTEX
  8
1
 62
7
  6
CONTINUOUS
 10
-1160.418717217454
 20
1037.459196400916
  0
VERTEX
  8
1
 62
7
  6
CONTINUOUS
 10
-1146.844714083136
 20
1032.935205805261
  0
VERTEX
  8
1
 62
7
  6
CONTINUOUS
 10
-1093.060807064858
 20
1009.884011871037
  0
VERTEX
  8
1
 62
7
  6
CONTINUOUS
 10
-1092.968137472257
 20
1009.864990037783
  0
VERTEX
  8
1
 62
7
  6
CONTINUOUS
 10
-1092.974769687575
 20
1009.861083307877
  0
VERTEX
  8
1
 62
7
  6
CONTINUOUS
 10
-1092.977071447113
 20
1009.853738192383
  0
VERTEX
  8
1
 62
7
  6
CONTINUOUS
 10
-1092.973854928255
 20
1009.846745136897
  0
VERTEX
  8
1
 62
7
  6
CONTINUOUS
 10
-1084.892695687384
 20
1006.383248726878
  0
VERTEX
  8
1
 62
7
  6
CONTINUOUS
 10
-1074.37269528278
 20
1005.799256015349
  0
VERTEX
  8
1
 62
7
  6
CONTINUOUS
 10
-1073.255508582939
 20
1005.799256789358
  0
VERTEX
  8
1
 62
7
  6
CONTINUOUS
 10
-1073.24979736283
 20
1005.804417291606
  0
VERTEX
  8
1
 62
7
  6
CONTINUOUS
 10
-1073.24901952219
 20
1005.812075214466
  0
VERTEX
  8
1
 62
7
  6
CONTINUOUS
 10
-1073.253576465549
 20
1005.818278688154
  0
VERTEX
  8
1
 62
7
  6
CONTINUOUS
 10
-1073.160906872948
 20
1005.7992568549
  0
VERTEX
  8
1
 62
7
  6
CONTINUOUS
 10
-1013.59469528279
 20
1005.799298123588
  0
VERTEX
  8
1
 62
7
  6
CONTINUOUS
 10
-934.5726945719792
 20
1004.773352871642
  0
VERTEX
  8
1
 62
7
  6
CONTINUOUS
 10
-909.1036565333043
 20
999.3157924558138
  0
VERTEX
  8
1
 62
7
  6
CONTINUOUS
 10
-909.1105062243394
 20
999.3115449646147
  0
VERTEX
  8
1
 62
7
  6
CONTINUOUS
 10
-909.1124968857904
 20
999.303734925194
  0
VERTEX
  8
1
 62
7
  6
CONTINUOUS
 10
-909.1085160570256
 20
999.2967268975748
  0
VERTEX
  8
1
 62
7
  6
CONTINUOUS
 10
-884.9926858272113
 20
992.1513872216817
  0
VERTEX
  8
1
 62
7
  6
CONTINUOUS
 10
-847.5056719133108
 20
972.0684131934465
  0
VERTEX
  8
1
 62
7
  6
CONTINUOUS
 10
-757.7600610885175
 20
917.7779434284316
  0
VERTEX
  8
1
 62
7
  6
CONTINUOUS
 10
-757.7550641415886
 20
917.7776748678558
  0
VERTEX
  8
1
 62
7
  6
CONTINUOUS
 10
-747.8326375078707
 20
922.408482248946
  0
VERTEX
  8
1
 62
7
  6
CONTINUOUS
 10
-723.96365790243
 20
951.8454987858707
  0
VERTEX
  8
1
 62
7
  6
CONTINUOUS
 10
-687.2306866718072
 20
993.3705242352318
  0
VERTEX
  8
1
 62
7
  6
CONTINUOUS
 10
-677.7596992485785
 20
1011.52353079693
  0
VERTEX
  8
1
 62
7
  6
CONTINUOUS
 10
-673.0317183579523
 20
1039.105534072578
  0
VERTEX
  8
1
 62
7
  6
CONTINUOUS
 10
-684.8637407658401
 20
1071.448525875119
  0
VERTEX
  8
1
 62
7
  6
CONTINUOUS
 10
-694.1367471903613
 20
1080.721519450593
  0
VERTEX
  8
1
 62
7
  6
CONTINUOUS
 10
-740.3557637937912
 20
1104.686487429121
  0
VERTEX
  8
1
 62
7
  6
CONTINUOUS
 10
-794.4107907583492
 20
1143.606449978704
  0
VERTEX
  8
1
 62
7
  6
CONTINUOUS
 10
-814.3127073633823
 20
1162.145117795628
  0
VERTEX
  8
1
 62
7
  6
CONTINUOUS
 10
-814.3202358826173
 20
1162.14534085109
  0
VERTEX
  8
1
 62
7
  6
CONTINUOUS
 10
-814.3260413635206
 20
1162.140542440197
  0
VERTEX
  8
1
 62
7
  6
CONTINUOUS
 10
-814.3272395062136
 20
1162.133106526689
  0
VERTEX
  8
1
 62
7
  6
CONTINUOUS
 10
-814.3658612949938
 20
1162.194630769724
  0
VERTEX
  8
1
 62
7
  6
CONTINUOUS
 10
-857.2748313285119
 20
1202.164406425228
  0
VERTEX
  8
1
 62
7
  6
CONTINUOUS
 10
-882.3808545213622
 20
1235.64038903127
  0
VERTEX
  8
1
 62
7
  6
CONTINUOUS
 10
-909.9038767678187
 20
1267.750369962766
  0
VERTEX
  8
1
 62
7
  6
CONTINUOUS
 10
-921.2789162553223
 20
1294.634871246408
  0
VERTEX
  8
1
 62
7
  6
CONTINUOUS
 10
-921.3346101985234
 20
1294.71754695295
  0
VERTEX
  8
1
 62
7
  6
CONTINUOUS
 10
-921.327107191668
 20
1294.715705125931
  0
VERTEX
  8
1
 62
7
  6
CONTINUOUS
 10
-921.3203144275022
 20
1294.719385586994
  0
VERTEX
  8
1
 62
7
  6
CONTINUOUS
 10
-921.3177598918735
 20
1294.726676799949
  0
VERTEX
  8
1
 62
7
  6
CONTINUOUS
 10
-925.1129016719377
 20
1303.696359425652
  0
VERTEX
  8
1
 62
7
  6
CONTINUOUS
 10
-931.9995728418121
 20
1310.58345371386
  0
VERTEX
  8
1
 62
7
  6
CONTINUOUS
 10
-932.0072896455409
 20
1310.583825706955
  0
VERTEX
  8
1
 62
7
  6
CONTINUOUS
 10
-932.0132525722062
 20
1310.578913381209
  0
VERTEX
  8
1
 62
7
  6
CONTINUOUS
 10
-932.0143646320747
 20
1310.571268071438
  0
VERTEX
  8
1
 62
7
  6
CONTINUOUS
 10
-932.0700585752747
 20
1310.653943777978
  0
VERTEX
  8
1
 62
7
  6
CONTINUOUS
 10
-941.0299127002494
 20
1319.614348398026
  0
VERTEX
  8
1
 62
7
  6
CONTINUOUS
 10
-963.2139338333445
 20
1350.11733302849
  0
VERTEX
  8
1
 62
7
  6
CONTINUOUS
 10
-975.9429505885106
 20
1374.301324209574
  0
VERTEX
  8
1
 62
7
  6
CONTINUOUS
 10
-998.3259941100979
 20
1437.119308702158
  0
VERTEX
  8
1
 62
7
  6
CONTINUOUS
 10
-1010.601015370678
 20
1467.806300197796
  0
VERTEX
  8
1
 62
7
  6
CONTINUOUS
 10
-1010.601023473903
 20
1479.502300197778
  0
VERTEX
  8
1
 62
7
  6
CONTINUOUS
 10
-1008.694025455369
 20
1482.362301518987
  0
VERTEX
  8
1
 62
7
  6
CONTINUOUS
 10
-1008.252025619568
 20
1482.599301825213
  0
VERTEX
  8
1
 62
7
  6
CONTINUOUS
 10
-1004.73402561957
 20
1482.599304262555
  0
VERTEX
  8
1
 62
7
  6
CONTINUOUS
 10
-1004.692622102197
 20
1482.590284233444
  0
VERTEX
  8
1
 62
7
  6
CONTINUOUS
 10
-1004.69893130444
 20
1482.587129689
  0
VERTEX
  8
1
 62
7
  6
CONTINUOUS
 10
-1004.701865514376
 20
1482.580715049833
  0
VERTEX
  8
1
 62
7
  6
CONTINUOUS
 10
-1004.700126271167
 20
1482.573878953239
  0
VERTEX
  8
1
 62
7
  6
CONTINUOUS
 10
-984.4280150679191
 20
1467.36931833097
  0
VERTEX
  8
1
 62
7
  6
CONTINUOUS
 10
-967.3900139947441
 20
1465.820330135245
  0
VERTEX
  8
1
 62
7
  6
CONTINUOUS
 10
-917.3360310589233
 20
1490.450364813672
  0
VERTEX
  8
1
 62
7
  6
CONTINUOUS
 10
-889.5310461949772
 20
1512.297384077538
  0
VERTEX
  8
1
 62
7
  6
CONTINUOUS
 10
-882.6010632660737
 20
1536.937388878777
  0
VERTEX
  8
1
 62
7
  6
CONTINUOUS
 10
-882.6010842514605
 20
1567.227181925313
  0
VERTEX
  8
1
 62
7
  6
CONTINUOUS
 10
-882.6060697542081
 20
1567.232847461016
  0
VERTEX
  8
1
 62
7
  6
CONTINUOUS
 10
-882.613555232667
 20
1567.233807223846
  0
VERTEX
  8
1
 62
7
  6
CONTINUOUS
 10
-882.6198088024329
 20
1567.229582724156
  0
VERTEX
  8
1
 62
7
  6
CONTINUOUS
 10
-882.6010843028812
 20
1567.301401121068
  0
VERTEX
  8
1
 62
7
  6
CONTINUOUS
 10
-882.6011053126517
 20
1597.626388878763
  0
VERTEX
  8
1
 62
7
  6
CONTINUOUS
 10
-880.915126918257
 20
1628.811390046851
  0
VERTEX
  8
1
 62
7
  6
CONTINUOUS
 10
-875.2391377324916
 20
1644.420393979297
  0
VERTEX
  8
1
 62
7
  6
CONTINUOUS
 10
-865.7501426639895
 20
1651.538400553468
  0
VERTEX
  8
1
 62
7
  6
CONTINUOUS
 10
-856.0181455530496
 20
1655.708407295995
  0
VERTEX
  8
1
 62
7
  6
CONTINUOUS
 10
-850.2536796263088
 20
1656.151840088761
  0
VERTEX
  8
1
 62
7
  6
CONTINUOUS
 10
-850.1734133946164
 20
1656.176958374098
  0
VERTEX
  8
1
 62
7
  6
CONTINUOUS
 10
-850.1773271766664
 20
1656.170410537223
  0
VERTEX
  8
1
 62
7
  6
CONTINUOUS
 10
-850.1758862794236
 20
1656.162919497722
  0
VERTEX
  8
1
 62
7
  6
CONTINUOUS
 10
-850.1698226974526
 20
1656.158290801216
  0
VERTEX
  8
1
 62
7
  6
CONTINUOUS
 10
-802.7227598023455
 20
1659.808166414229
  0
VERTEX
  8
1
 62
7
  6
CONTINUOUS
 10
-802.718002924271
 20
1659.811880405157
  0
VERTEX
  8
1
 62
7
  6
CONTINUOUS
 10
-792.9071687861083
 20
1689.242451020575
  0
VERTEX
  8
1
 62
7
  6
CONTINUOUS
 10
-792.4139415133186
 20
1689.982318388699
  0
VERTEX
  8
1
 62
7
  6
CONTINUOUS
 10
-792.4150119261129
 20
1689.989871273852
  0
VERTEX
  8
1
 62
7
  6
CONTINUOUS
 10
-792.4208403154099
 20
1689.994792832128
  0
VERTEX
  8
1
 62
7
  6
CONTINUOUS
 10
-792.4284657835436
 20
1689.994582847832
  0
VERTEX
  8
1
 62
7
  6
CONTINUOUS
 10
-792.3672897891395
 20
1690.052298477577
  0
VERTEX
  8
1
 62
7
  6
CONTINUOUS
 10
-783.1781788971319
 20
1703.836457761021
  0
VERTEX
  8
1
 62
7
  6
CONTINUOUS
 10
-769.4581884026312
 20
1717.556467266514
  0
VERTEX
  8
1
 62
7
  6
CONTINUOUS
 10
-751.0991979427716
 20
1731.326479986002
  0
VERTEX
  8
1
 62
7
  6
CONTINUOUS
 10
-735.8092027578783
 20
1738.276490579223
  0
VERTEX
  8
1
 62
7
  6
CONTINUOUS
 10
-700.3302067436819
 20
1744.029515159797
  0
VERTEX
  8
1
 62
7
  6
CONTINUOUS
 10
-637.4879870016886
 20
1766.473066284843
  0
VERTEX
  8
1
 62
7
  6
CONTINUOUS
 10
-634.0590458657165
 20
1768.911843042644
  0
VERTEX
  8
1
 62
7
  6
CONTINUOUS
 10
-634.0605711549741
 20
1768.90399435809
  0
VERTEX
  8
1
 62
7
  6
CONTINUOUS
 10
-634.0562653900834
 20
1768.897257241105
  0
VERTEX
  8
1
 62
7
  6
CONTINUOUS
 10
-634.0485018726052
 20
1768.895345134171
  0
VERTEX
  8
1
 62
7
  6
CONTINUOUS
 10
-611.7632327937499
 20
1781.629576520815
  0
VERTEX
  8
1
 62
7
  6
CONTINUOUS
 10
-580.7572498697039
 20
1806.276598002398
  0
VERTEX
  8
1
 62
7
  6
CONTINUOUS
 10
-563.3622690428195
 20
1833.950610054002
  0
VERTEX
  8
1
 62
7
  6
CONTINUOUS
 10
-558.5852927594492
 20
1868.182613363597
  0
VERTEX
  8
1
 62
7
  6
CONTINUOUS
 10
-551.4653139701476
 20
1898.797618296471
  0
VERTEX
  8
1
 62
7
  6
CONTINUOUS
 10
-552.9591071804056
 20
1927.172315804617
  0
VERTEX
  8
1
 62
7
  6
CONTINUOUS
 10
-552.9635520270361
 20
1927.177488439515
  0
VERTEX
  8
1
 62
7
  6
CONTINUOUS
 10
-627.9643443634661
 20
1942.666565296391
  0
VERTEX
  8
1
 62
7
  6
CONTINUOUS
 10
-639.3381230325832
 20
1946.457758392506
  0
VERTEX
  8
1
 62
7
  6
CONTINUOUS
 10
-639.3450359975484
 20
1946.454877495044
  0
VERTEX
  8
1
 62
7
  6
CONTINUOUS
 10
-639.3483564446447
 20
1946.448164575718
  0
VERTEX
  8
1
 62
7
  6
CONTINUOUS
 10
-639.3464510123845
 20
1946.440921787395
  0
VERTEX
  8
1
 62
7
  6
CONTINUOUS
 10
-639.4030793223757
 20
1946.479410109544
  0
VERTEX
  8
1
 62
7
  6
CONTINUOUS
 10
-680.8544062841106
 20
1960.296276884772
  0
VERTEX
  8
1
 62
7
  6
CONTINUOUS
 10
-680.9271177971458
 20
1960.300804026893
  0
VERTEX
  8
1
 62
7
  6
CONTINUOUS
 10
-680.9211583904834
 20
1960.305413185184
  0
VERTEX
  8
1
 62
7
  6
CONTINUOUS
 10
-680.9197210335108
 20
1960.312808648175
  0
VERTEX
  8
1
 62
7
  6
CONTINUOUS
 10
-680.9235201754512
 20
1960.3193144447
  0
VERTEX
  8
1
 62
7
  6
CONTINUOUS
 10
-693.6653595362194
 20
1964.566519777392
  0
VERTEX
  8
1
 62
7
  6
CONTINUOUS
 10
-706.8356265444181
 20
1961.932646134556
  0
VERTEX
  8
1
 62
7
  6
CONTINUOUS
 10
-706.8402033407276
 20
1961.926661838152
  0
VERTEX
  8
1
 62
7
  6
CONTINUOUS
 10
-706.83969443661
 20
1961.919145197645
  0
VERTEX
  8
1
 62
7
  6
CONTINUOUS
 10
-706.8343527867302
 20
1961.913832416408
  0
VERTEX
  8
1
 62
7
  6
CONTINUOUS
 10
-706.9070642997659
 20
1961.918359558529
  0
VERTEX
  8
1
 62
7
  6
CONTINUOUS
 10
-721.5023556792815
 20
1958.999500491352
  0
VERTEX
  8
1
 62
7
  6
CONTINUOUS
 10
-755.2723556792741
 20
1958.999477094807
  0
VERTEX
  8
1
 62
7
  6
CONTINUOUS
 10
-773.5063574840907
 20
1961.604464461923
  0
VERTEX
  8
1
 62
7
  6
CONTINUOUS
 10
-773.7986670209592
 20
1961.721385321073
  0
SEQEND
  0
POLYLINE
  8
51
 62
7
 10
0
 20
0
 66
1
 70
1
  0
VERTEX
  8
51
 62
7
  6
CONTINUOUS
 10
-1734.99485962122
 20
1545.358447934678
  0
VERTEX
  8
51
 62
7
  6
CONTINUOUS
 10
-1732.093352750112
 20
1534.539630374668
  0
VERTEX
  8
51
 62
7
  6
CONTINUOUS
 10
-1723.984527716106
 20
1523.139455617765
  0
VERTEX
  8
51
 62
7
  6
CONTINUOUS
 10
-1712.70117463012
 20
1512.60461409562
  0
VERTEX
  8
51
 62
7
  6
CONTINUOUS
 10
-1694.560557512251
 20
1503.419716437887
  0
VERTEX
  8
51
 62
7
  6
CONTINUOUS
 10
-1676.422658308269
 20
1499.213218038253
  0
VERTEX
  8
51
 62
7
  6
CONTINUOUS
 10
-1656.634438828795
 20
1496.252220802135
  0
VERTEX
  8
51
 62
7
  6
CONTINUOUS
 10
-1638.853720399288
 20
1494.941127834279
  0
VERTEX
  8
51
 62
7
  6
CONTINUOUS
 10
-1621.760535231017
 20
1496.804659986757
  0
VERTEX
  8
51
 62
7
  6
CONTINUOUS
 10
-1607.919728265387
 20
1500.825416853312
  0
VERTEX
  8
51
 62
7
  6
CONTINUOUS
 10
-1598.400609253664
 20
1511.600215338704
  0
VERTEX
  8
51
 62
7
  6
CONTINUOUS
 10
-1594.190838263848
 20
1523.743715436013
  0
VERTEX
  8
51
 62
7
  6
CONTINUOUS
 10
-1593.563146218772
 20
1537.129860113864
  0
VERTEX
  8
51
 62
7
  6
CONTINUOUS
 10
-1596.465568305785
 20
1549.625077424059
  0
VERTEX
  8
51
 62
7
  6
CONTINUOUS
 10
-1638.714092338692
 20
1579.545266316667
  0
VERTEX
  8
51
 62
7
  6
CONTINUOUS
 10
-1638.721667353886
 20
1578.735812415058
  0
VERTEX
  8
51
 62
7
  6
CONTINUOUS
 10
-1647.841860689348
 20
1581.651833759933
  0
VERTEX
  8
51
 62
7
  6
CONTINUOUS
 10
-1671.642503023927
 20
1583.188240236623
  0
VERTEX
  8
51
 62
7
  6
CONTINUOUS
 10
-1703.264749498261
 20
1581.799376141094
  0
VERTEX
  8
51
 62
7
  6
CONTINUOUS
 10
-1714.541446468622
 20
1580.142219480168
  0
VERTEX
  8
51
 62
7
  6
CONTINUOUS
 10
-1721.524393125352
 20
1576.379206640799
  0
VERTEX
  8
51
 62
7
  6
CONTINUOUS
 10
-1733.833545785114
 20
1558.338483878163
  0
SEQEND
  0
POLYLINE
  8
51
 62
7
 10
0
 20
0
 66
1
 70
1
  0
VERTEX
  8
51
 62
7
  6
CONTINUOUS
 10
-1876.702459209301
 20
1620.400098015488
  0
VERTEX
  8
51
 62
7
  6
CONTINUOUS
 10
-1847.460434794248
 20
1599.456119588714
  0
VERTEX
  8
51
 62
7
  6
CONTINUOUS
 10
-1833.979455619207
 20
1594.103479931151
  0
VERTEX
  8
51
 62
7
  6
CONTINUOUS
 10
-1819.777666282644
 20
1586.627964722458
  0
VERTEX
  8
51
 62
7
  6
CONTINUOUS
 10
-1803.956282356816
 20
1581.363765609095
  0
VERTEX
  8
51
 62
7
  6
CONTINUOUS
 10
-1787.308544298162
 20
1573.655607068656
  0
VERTEX
  8
51
 62
7
  6
CONTINUOUS
 10
-1769.631822461407
 20
1569.529226240968
  0
VERTEX
  8
51
 62
7
  6
CONTINUOUS
 10
-1750.104176911101
 20
1562.349629023038
  0
VERTEX
  8
51
 62
7
  6
CONTINUOUS
 10
-1734.712151631389
 20
1559.731016697717
  0
VERTEX
  8
51
 62
7
  6
CONTINUOUS
 10
-1698.639125951989
 20
1556.634065367495
  0
VERTEX
  8
51
 62
7
  6
CONTINUOUS
 10
-1698.406649832741
 20
1556.614106763709
  0
VERTEX
  8
51
 62
7
  6
CONTINUOUS
 10
-1698.173325319304
 20
1556.615885332631
  0
VERTEX
  8
51
 62
7
  6
CONTINUOUS
 10
-1651.418325944964
 20
1556.972285898579
  0
VERTEX
  8
51
 62
7
  6
CONTINUOUS
 10
-1639.235448292936
 20
1557.530331061995
  0
VERTEX
  8
51
 62
7
  6
CONTINUOUS
 10
-1630.45422096731
 20
1559.007561902829
  0
VERTEX
  8
51
 62
7
  6
CONTINUOUS
 10
-1632.113170711993
 20
1568.868996166907
  0
VERTEX
  8
51
 62
7
  6
CONTINUOUS
 10
-1640.297587764158
 20
1567.492164337436
  0
VERTEX
  8
51
 62
7
  6
CONTINUOUS
 10
-1651.685324189299
 20
1566.970541169589
  0
VERTEX
  8
51
 62
7
  6
CONTINUOUS
 10
-1698.016225854868
 20
1566.617373384425
  0
VERTEX
  8
51
 62
7
  6
CONTINUOUS
 10
-1733.4436968921
 20
1569.658902379811
  0
VERTEX
  8
51
 62
7
  6
CONTINUOUS
 10
-1747.518412869183
 20
1572.053403692221
  0
VERTEX
  8
51
 62
7
  6
CONTINUOUS
 10
-1766.758954744637
 20
1579.127443446002
  0
VERTEX
  8
51
 62
7
  6
CONTINUOUS
 10
-1784.037092843599
 20
1583.160780534636
  0
VERTEX
  8
51
 62
7
  6
CONTINUOUS
 10
-1800.265270031374
 20
1590.674675944636
  0
VERTEX
  8
51
 62
7
  6
CONTINUOUS
 10
-1815.843994592874
 20
1595.858135773969
  0
VERTEX
  8
51
 62
7
  6
CONTINUOUS
 10
-1829.793499336273
 20
1603.200853821089
  0
VERTEX
  8
51
 62
7
  6
CONTINUOUS
 10
-1842.63262940563
 20
1608.298646487739
  0
VERTEX
  8
51
 62
7
  6
CONTINUOUS
 10
-1870.87962219283
 20
1628.52995466119
  0
SEQEND
  0
POLYLINE
  8
51
 62
7
 10
0
 20
0
 66
1
 70
1
  0
VERTEX
  8
51
 62
7
  6
CONTINUOUS
 10
-1467.772876022243
 20
1110.325664055908
  0
VERTEX
  8
51
 62
7
  6
CONTINUOUS
 10
-1460.72717609875
 20
1092.193907891979
  0
VERTEX
  8
51
 62
7
  6
CONTINUOUS
 10
-1450.844136995481
 20
1087.728902785238
  0
VERTEX
  8
51
 62
7
  6
CONTINUOUS
 10
-1440.53261214747
 20
1089.334732511244
  0
VERTEX
  8
51
 62
7
  6
CONTINUOUS
 10
-1431.619570850389
 20
1093.657599152312
  0
VERTEX
  8
51
 62
7
  6
CONTINUOUS
 10
-1425.680007006247
 20
1101.052242907175
  0
VERTEX
  8
51
 62
7
  6
CONTINUOUS
 10
-1432.360816154658
 20
1102.166195743924
  0
VERTEX
  8
51
 62
7
  6
CONTINUOUS
 10
-1445.974493046565
 20
1100.837963278301
  0
VERTEX
  8
51
 62
7
  6
CONTINUOUS
 10
-1414.506574049664
 20
1105.757343646238
  0
VERTEX
  8
51
 62
7
  6
CONTINUOUS
 10
-1417.229643069519
 20
1115.407858448723
  0
VERTEX
  8
51
 62
7
  6
CONTINUOUS
 10
-1423.812471495951
 20
1123.151265765157
  0
VERTEX
  8
51
 62
7
  6
CONTINUOUS
 10
-1431.258747257693
 20
1130.614801648367
  0
VERTEX
  8
51
 62
7
  6
CONTINUOUS
 10
-1438.446946186466
 20
1130.610877313526
  0
VERTEX
  8
51
 62
7
  6
CONTINUOUS
 10
-1443.929878641953
 20
1124.257883007797
  0
VERTEX
  8
51
 62
7
  6
CONTINUOUS
 10
-1447.609355898571
 20
1117.804273267658
  0
VERTEX
  8
51
 62
7
  6
CONTINUOUS
 10
-1449.073625390547
 20
1101.445871424728
  0
VERTEX
  8
51
 62
7
  6
CONTINUOUS
 10
-1454.209721784614
 20
1111.145868863428
  0
VERTEX
  8
51
 62
7
  6
CONTINUOUS
 10
-1460.157162032262
 20
1118.178422958533
  0
VERTEX
  8
51
 62
7
  6
CONTINUOUS
 10
-1464.907113860401
 20
1118.455229805179
  0
SEQEND
  0
POLYLINE
  8
51
 62
7
 10
0
 20
0
 66
1
 70
1
  0
VERTEX
  8
51
 62
7
  6
CONTINUOUS
 10
-1523.155728135312
 20
1499.440925209471
  0
VERTEX
  8
51
 62
7
  6
CONTINUOUS
 10
-1523.154256585843
 20
1499.371486375571
  0
VERTEX
  8
51
 62
7
  6
CONTINUOUS
 10
-1522.137462145053
 20
1451.391434335325
  0
VERTEX
  8
51
 62
7
  6
CONTINUOUS
 10
-1522.135631934169
 20
1451.305071143123
  0
VERTEX
  8
51
 62
7
  6
CONTINUOUS
 10
-1522.130819595685
 20
1451.218822711027
  0
VERTEX
  8
51
 62
7
  6
CONTINUOUS
 10
-1519.556613310546
 20
1405.082987325119
  0
VERTEX
  8
51
 62
7
  6
CONTINUOUS
 10
-1513.503262144287
 20
1355.344632587182
  0
VERTEX
  8
51
 62
7
  6
CONTINUOUS
 10
-1506.173222866878
 20
1310.340809736972
  0
VERTEX
  8
51
 62
7
  6
CONTINUOUS
 10
-1486.559147056364
 20
1224.093915366563
  0
VERTEX
  8
51
 62
7
  6
CONTINUOUS
 10
-1486.5180521968
 20
1223.913213301025
  0
VERTEX
  8
51
 62
7
  6
CONTINUOUS
 10
-1486.463693665337
 20
1223.736049043835
  0
VERTEX
  8
51
 62
7
  6
CONTINUOUS
 10
-1472.929034967473
 20
1179.624155466443
  0
VERTEX
  8
51
 62
7
  6
CONTINUOUS
 10
-1457.435036462258
 20
1134.29521965806
  0
VERTEX
  8
51
 62
7
  6
CONTINUOUS
 10
-1440.95893860909
 20
1090.711985995867
  0
VERTEX
  8
51
 62
7
  6
CONTINUOUS
 10
-1421.228419622013
 20
1045.048562029972
  0
VERTEX
  8
51
 62
7
  6
CONTINUOUS
 10
-1421.198685591637
 20
1044.979746930052
  0
VERTEX
  8
51
 62
7
  6
CONTINUOUS
 10
-1403.620436978343
 20
1007.431027908383
  0
VERTEX
  8
51
 62
7
  6
CONTINUOUS
 10
-1403.52713332683
 20
1007.231722922365
  0
VERTEX
  8
51
 62
7
  6
CONTINUOUS
 10
-1403.416680456461
 20
1007.041385820719
  0
VERTEX
  8
51
 62
7
  6
CONTINUOUS
 10
-1352.492564005732
 20
919.2867743184627
  0
VERTEX
  8
51
 62
7
  6
CONTINUOUS
 10
-1352.411455548478
 20
919.1470047622672
  0
VERTEX
  8
51
 62
7
  6
CONTINUOUS
 10
-1327.256668938842
 20
881.6122425793918
  0
VERTEX
  8
51
 62
7
  6
CONTINUOUS
 10
-1327.206658603902
 20
881.537619563968
  0
VERTEX
  8
51
 62
7
  6
CONTINUOUS
 10
-1327.154000021669
 20
881.4648411210749
  0
VERTEX
  8
51
 62
7
  6
CONTINUOUS
 10
-1279.518450223892
 20
815.6286375210603
  0
VERTEX
  8
51
 62
7
  6
CONTINUOUS
 10
-1279.448389706207
 20
815.5318081882097
  0
VERTEX
  8
51
 62
7
  6
CONTINUOUS
 10
-1279.373782734097
 20
815.4384369102319
  0
VERTEX
  8
51
 62
7
  6
CONTINUOUS
 10
-1239.922995711592
 20
766.0654319791836
  0
VERTEX
  8
51
 62
7
  6
CONTINUOUS
 10
-1221.247340229738
 20
746.9489061437633
  0
VERTEX
  8
51
 62
7
  6
CONTINUOUS
 10
-1214.094270521577
 20
753.9370098744016
  0
VERTEX
  8
51
 62
7
  6
CONTINUOUS
 10
-1232.421698954497
 20
772.6970881739365
  0
VERTEX
  8
51
 62
7
  6
CONTINUOUS
 10
-1271.486813655827
 20
821.5874208225725
  0
VERTEX
  8
51
 62
7
  6
CONTINUOUS
 10
-1318.999644353686
 20
887.2540166468382
  0
VERTEX
  8
51
 62
7
  6
CONTINUOUS
 10
-1343.924491854302
 20
924.4456747554231
  0
VERTEX
  8
51
 62
7
  6
CONTINUOUS
 10
-1394.657046977396
 20
1011.870179599843
  0
VERTEX
  8
51
 62
7
  6
CONTINUOUS
 10
-1412.078424600101
 20
1049.083808085596
  0
VERTEX
  8
51
 62
7
  6
CONTINUOUS
 10
-1431.687120187473
 20
1094.465289465333
  0
VERTEX
  8
51
 62
7
  6
CONTINUOUS
 10
-1448.024414541409
 20
1137.681354554352
  0
VERTEX
  8
51
 62
7
  6
CONTINUOUS
 10
-1463.415349898066
 20
1182.708770852209
  0
VERTEX
  8
51
 62
7
  6
CONTINUOUS
 10
-1476.849219084284
 20
1226.49217323449
  0
VERTEX
  8
51
 62
7
  6
CONTINUOUS
 10
-1496.353260225861
 20
1312.255223830623
  0
VERTEX
  8
51
 62
7
  6
CONTINUOUS
 10
-1503.600885765609
 20
1356.753055770021
  0
VERTEX
  8
51
 62
7
  6
CONTINUOUS
 10
-1509.590358284627
 20
1405.966541104334
  0
VERTEX
  8
51
 62
7
  6
CONTINUOUS
 10
-1512.141537109405
 20
1451.689670202166
  0
VERTEX
  8
51
 62
7
  6
CONTINUOUS
 10
-1513.155029789832
 20
1499.513920216319
  0
VERTEX
  8
51
 62
7
  6
CONTINUOUS
 10
-1512.734961636789
 20
1563.245337157796
  0
VERTEX
  8
51
 62
7
  6
CONTINUOUS
 10
-1504.35511531635
 20
1639.278638379143
  0
VERTEX
  8
51
 62
7
  6
CONTINUOUS
 10
-1497.021331255212
 20
1684.461651655669
  0
VERTEX
  8
51
 62
7
  6
CONTINUOUS
 10
-1477.215136487838
 20
1773.697260779687
  0
VERTEX
  8
51
 62
7
  6
CONTINUOUS
 10
-1465.396957426177
 20
1817.419602949263
  0
VERTEX
  8
51
 62
7
  6
CONTINUOUS
 10
-1452.018243775813
 20
1859.777216394519
  0
VERTEX
  8
51
 62
7
  6
CONTINUOUS
 10
-1421.644332741725
 20
1940.153816815824
  0
VERTEX
  8
51
 62
7
  6
CONTINUOUS
 10
-1403.033493905707
 20
1979.757263429922
  0
VERTEX
  8
51
 62
7
  6
CONTINUOUS
 10
-1384.543248507872
 20
2013.1519336514
  0
VERTEX
  8
51
 62
7
  6
CONTINUOUS
 10
-1364.596914428952
 20
2045.887162553045
  0
VERTEX
  8
51
 62
7
  6
CONTINUOUS
 10
-1343.581571818924
 20
2077.887515090471
  0
VERTEX
  8
51
 62
7
  6
CONTINUOUS
 10
-1303.068785337365
 20
2132.715505123999
  0
VERTEX
  8
51
 62
7
  6
CONTINUOUS
 10
-1264.584157359811
 20
2176.922393931656
  0
VERTEX
  8
51
 62
7
  6
CONTINUOUS
 10
-1246.946853032944
 20
2194.711791424305
  0
VERTEX
  8
51
 62
7
  6
CONTINUOUS
 10
-1232.450138285496
 20
2211.067566841778
  0
VERTEX
  8
51
 62
7
  6
CONTINUOUS
 10
-1239.933709841698
 20
2217.700526721289
  0
VERTEX
  8
51
 62
7
  6
CONTINUOUS
 10
-1254.245016597104
 20
2201.55393604196
  0
VERTEX
  8
51
 62
7
  6
CONTINUOUS
 10
-1271.913702584401
 20
2183.73288627291
  0
VERTEX
  8
51
 62
7
  6
CONTINUOUS
 10
-1310.873733955792
 20
2138.979906569373
  0
VERTEX
  8
51
 62
7
  6
CONTINUOUS
 10
-1351.706337830361
 20
2083.719091584529
  0
VERTEX
  8
51
 62
7
  6
CONTINUOUS
 10
-1351.788483612949
 20
2083.607919568486
  0
VERTEX
  8
51
 62
7
  6
CONTINUOUS
 10
-1373.002026283842
 20
2051.305765060083
  0
VERTEX
  8
51
 62
7
  6
CONTINUOUS
 10
-1373.048470052456
 20
2051.235044491956
  0
VERTEX
  8
51
 62
7
  6
CONTINUOUS
 10
-1373.092494521598
 20
2051.162793066255
  0
VERTEX
  8
51
 62
7
  6
CONTINUOUS
 10
-1393.191036303923
 20
2018.177766182067
  0
VERTEX
  8
51
 62
7
  6
CONTINUOUS
 10
-1411.942790656757
 20
1984.310792585281
  0
VERTEX
  8
51
 62
7
  6
CONTINUOUS
 10
-1430.860762883667
 20
1944.053773020644
  0
VERTEX
  8
51
 62
7
  6
CONTINUOUS
 10
-1461.470494704628
 20
1863.053134649917
  0
VERTEX
  8
51
 62
7
  6
CONTINUOUS
 10
-1474.964200625197
 20
1820.331450468322
  0
VERTEX
  8
51
 62
7
  6
CONTINUOUS
 10
-1474.995786893102
 20
1820.231446913339
  0
VERTEX
  8
51
 62
7
  6
CONTINUOUS
 10
-1475.023152146071
 20
1820.130206870559
  0
VERTEX
  8
51
 62
7
  6
CONTINUOUS
 10
-1486.928172590566
 20
1776.086587739827
  0
VERTEX
  8
51
 62
7
  6
CONTINUOUS
 10
-1506.814914638174
 20
1686.488077730555
  0
VERTEX
  8
51
 62
7
  6
CONTINUOUS
 10
-1506.846073102423
 20
1686.347695159888
  0
VERTEX
  8
51
 62
7
  6
CONTINUOUS
 10
-1514.24642294549
 20
1640.754574006744
  0
VERTEX
  8
51
 62
7
  6
CONTINUOUS
 10
-1514.266910939299
 20
1640.628348679089
  0
VERTEX
  8
51
 62
7
  6
CONTINUOUS
 10
-1514.280919829416
 20
1640.501241078113
  0
VERTEX
  8
51
 62
7
  6
CONTINUOUS
 10
-1522.731341106467
 20
1563.827588383811
  0
VERTEX
  8
51
 62
7
  6
CONTINUOUS
 10
-1523.15527035547
 20
1499.510378125518
  0
SEQEND
  0
POLYLINE
  8
51
 62
7
 10
0
 20
0
 66
1
 70
1
  0
VERTEX
  8
51
 62
7
  6
CONTINUOUS
 10
-1817.994877708628
 20
1170.841016036641
  0
VERTEX
  8
51
 62
7
  6
CONTINUOUS
 10
-1812.943449862071
 20
1136.871815888915
  0
VERTEX
  8
51
 62
7
  6
CONTINUOUS
 10
-1801.298932766338
 20
1104.807213998037
  0
VERTEX
  8
51
 62
7
  6
CONTINUOUS
 10
-1801.141065472574
 20
1104.37250709825
  0
VERTEX
  8
51
 62
7
  6
CONTINUOUS
 10
-1800.906140655242
 20
1103.974132273031
  0
VERTEX
  8
51
 62
7
  6
CONTINUOUS
 10
-1782.781793424868
 20
1073.239688197291
  0
VERTEX
  8
51
 62
7
  6
CONTINUOUS
 10
-1760.544524392506
 20
1046.327827956959
  0
VERTEX
  8
51
 62
7
  6
CONTINUOUS
 10
-1760.228253250305
 20
1045.945072108458
  0
VERTEX
  8
51
 62
7
  6
CONTINUOUS
 10
-1759.842883150746
 20
1045.6319916694
  0
VERTEX
  8
51
 62
7
  6
CONTINUOUS
 10
-1730.848618979495
 20
1022.076617323672
  0
VERTEX
  8
51
 62
7
  6
CONTINUOUS
 10
-1730.661288507434
 20
1021.924427243258
  0
VERTEX
  8
51
 62
7
  6
CONTINUOUS
 10
-1730.460170167865
 20
1021.790988344047
  0
VERTEX
  8
51
 62
7
  6
CONTINUOUS
 10
-1705.396598547247
 20
1005.161697278387
  0
VERTEX
  8
51
 62
7
  6
CONTINUOUS
 10
-1681.735473627371
 20
994.1704078598079
  0
VERTEX
  8
51
 62
7
  6
CONTINUOUS
 10
-1656.978372566544
 20
986.7399801260132
  0
VERTEX
  8
51
 62
7
  6
CONTINUOUS
 10
-1656.70313145772
 20
986.6573711338158
  0
VERTEX
  8
51
 62
7
  6
CONTINUOUS
 10
-1656.420238259612
 20
986.6068404298079
  0
VERTEX
  8
51
 62
7
  6
CONTINUOUS
 10
-1632.225846037702
 20
982.2852106413088
  0
VERTEX
  8
51
 62
7
  6
CONTINUOUS
 10
-1608.210310988149
 20
983.0891880361929
  0
VERTEX
  8
51
 62
7
  6
CONTINUOUS
 10
-1583.934230900822
 20
987.3327680724226
  0
VERTEX
  8
51
 62
7
  6
CONTINUOUS
 10
-1555.164907613897
 20
998.1968992465947
  0
VERTEX
  8
51
 62
7
  6
CONTINUOUS
 10
-1532.021976104473
 20
1005.120875610515
  0
VERTEX
  8
51
 62
7
  6
CONTINUOUS
 10
-1507.875259488641
 20
1011.495938715935
  0
VERTEX
  8
51
 62
7
  6
CONTINUOUS
 10
-1483.068851261297
 20
1014.241082921321
  0
VERTEX
  8
51
 62
7
  6
CONTINUOUS
 10
-1457.989197338874
 20
1015.003433750397
  0
VERTEX
  8
51
 62
7
  6
CONTINUOUS
 10
-1428.735978858446
 20
1012.995986763394
  0
VERTEX
  8
51
 62
7
  6
CONTINUOUS
 10
-1403.895150872352
 20
1008.822989134856
  0
VERTEX
  8
51
 62
7
  6
CONTINUOUS
 10
-1365.728534977598
 20
1008.125644022816
  0
VERTEX
  8
51
 62
7
  6
CONTINUOUS
 10
-1365.545854714566
 20
1018.123975279653
  0
VERTEX
  8
51
 62
7
  6
CONTINUOUS
 10
-1402.970404101696
 20
1018.807762038671
  0
VERTEX
  8
51
 62
7
  6
CONTINUOUS
 10
-1427.562517095173
 20
1022.938978166425
  0
VERTEX
  8
51
 62
7
  6
CONTINUOUS
 10
-1457.798336188697
 20
1025.013854268662
  0
VERTEX
  8
51
 62
7
  6
CONTINUOUS
 10
-1483.771842643437
 20
1024.224332840607
  0
VERTEX
  8
51
 62
7
  6
CONTINUOUS
 10
-1509.71157613349
 20
1021.353771797409
  0
VERTEX
  8
51
 62
7
  6
CONTINUOUS
 10
-1534.732180066516
 20
1014.747990500232
  0
VERTEX
  8
51
 62
7
  6
CONTINUOUS
 10
-1558.199810655945
 20
1007.726869625717
  0
VERTEX
  8
51
 62
7
  6
CONTINUOUS
 10
-1558.368414785477
 20
1007.676426102285
  0
VERTEX
  8
51
 62
7
  6
CONTINUOUS
 10
-1558.533055077372
 20
1007.614253151269
  0
VERTEX
  8
51
 62
7
  6
CONTINUOUS
 10
-1586.584951600617
 20
997.0210431381795
  0
VERTEX
  8
51
 62
7
  6
CONTINUOUS
 10
-1609.243599373888
 20
993.060198348054
  0
VERTEX
  8
51
 62
7
  6
CONTINUOUS
 10
-1631.506025413133
 20
992.3149104644435
  0
VERTEX
  8
51
 62
7
  6
CONTINUOUS
 10
-1654.378964484519
 20
996.4005007919355
  0
VERTEX
  8
51
 62
7
  6
CONTINUOUS
 10
-1678.173430112178
 20
1003.542009681694
  0
VERTEX
  8
51
 62
7
  6
CONTINUOUS
 10
-1700.497974277164
 20
1013.912417973196
  0
VERTEX
  8
51
 62
7
  6
CONTINUOUS
 10
-1724.730420721704
 20
1029.990270374237
  0
VERTEX
  8
51
 62
7
  6
CONTINUOUS
 10
-1753.151984321336
 20
1053.080374200503
  0
VERTEX
  8
51
 62
7
  6
CONTINUOUS
 10
-1774.569502636568
 20
1079.000160427645
  0
VERTEX
  8
51
 62
7
  6
CONTINUOUS
 10
-1792.057422628384
 20
1108.655380125084
  0
VERTEX
  8
51
 62
7
  6
CONTINUOUS
 10
-1803.200335690644
 20
1139.338753966054
  0
VERTEX
  8
51
 62
7
  6
CONTINUOUS
 10
-1807.938449414993
 20
1171.20101911442
  0
VERTEX
  8
51
 62
7
  6
CONTINUOUS
 10
-1805.359723262864
 20
1205.040237611442
  0
VERTEX
  8
51
 62
7
  6
CONTINUOUS
 10
-1799.049033752617
 20
1233.795517213183
  0
VERTEX
  8
51
 62
7
  6
CONTINUOUS
 10
-1785.843366990607
 20
1261.156551635475
  0
VERTEX
  8
51
 62
7
  6
CONTINUOUS
 10
-1774.183392877682
 20
1279.079144495918
  0
VERTEX
  8
51
 62
7
  6
CONTINUOUS
 10
-1743.904611052548
 20
1304.758356899572
  0
VERTEX
  8
51
 62
7
  6
CONTINUOUS
 10
-1719.424620514313
 20
1318.105886819862
  0
VERTEX
  8
51
 62
7
  6
CONTINUOUS
 10
-1692.647946383525
 20
1330.297023807912
  0
VERTEX
  8
51
 62
7
  6
CONTINUOUS
 10
-1665.651544171981
 20
1339.756145736313
  0
VERTEX
  8
51
 62
7
  6
CONTINUOUS
 10
-1636.178290513496
 20
1342.261313957525
  0
VERTEX
  8
51
 62
7
  6
CONTINUOUS
 10
-1604.940624037884
 20
1341.501197106918
  0
VERTEX
  8
51
 62
7
  6
CONTINUOUS
 10
-1579.758637028308
 20
1339.492581610612
  0
VERTEX
  8
51
 62
7
  6
CONTINUOUS
 10
-1523.457255623531
 20
1320.518871758824
  0
VERTEX
  8
51
 62
7
  6
CONTINUOUS
 10
-1501.727738962911
 20
1307.276457937763
  0
VERTEX
  8
51
 62
7
  6
CONTINUOUS
 10
-1481.748275618877
 20
1291.168532910049
  0
VERTEX
  8
51
 62
7
  6
CONTINUOUS
 10
-1465.487423815724
 20
1270.316940007535
  0
VERTEX
  8
51
 62
7
  6
CONTINUOUS
 10
-1416.380944660654
 20
1194.534346671308
  0
VERTEX
  8
51
 62
7
  6
CONTINUOUS
 10
-1393.83015365124
 20
1167.431018696099
  0
VERTEX
  8
51
 62
7
  6
CONTINUOUS
 10
-1367.259364506643
 20
1143.266991975269
  0
VERTEX
  8
51
 62
7
  6
CONTINUOUS
 10
-1339.346906293778
 20
1123.256959892495
  0
VERTEX
  8
51
 62
7
  6
CONTINUOUS
 10
-1310.970856756361
 20
1105.585165738107
  0
VERTEX
  8
51
 62
7
  6
CONTINUOUS
 10
-1257.906597293478
 20
1077.898871172782
  0
VERTEX
  8
51
 62
7
  6
CONTINUOUS
 10
-1241.577918754968
 20
1066.258947730901
  0
VERTEX
  8
51
 62
7
  6
CONTINUOUS
 10
-1238.305032204485
 20
1057.722952091452
  0
VERTEX
  8
51
 62
7
  6
CONTINUOUS
 10
-1241.307236412737
 20
1050.506567630311
  0
VERTEX
  8
51
 62
7
  6
CONTINUOUS
 10
-1248.873006997629
 20
1046.31675146579
  0
VERTEX
  8
51
 62
7
  6
CONTINUOUS
 10
-1244.02841290175
 20
1037.568614061392
  0
VERTEX
  8
51
 62
7
  6
CONTINUOUS
 10
-1233.413277492289
 20
1043.447125103736
  0
VERTEX
  8
51
 62
7
  6
CONTINUOUS
 10
-1227.537131227757
 20
1057.571590880633
  0
VERTEX
  8
51
 62
7
  6
CONTINUOUS
 10
-1233.319539553767
 20
1072.652655101787
  0
VERTEX
  8
51
 62
7
  6
CONTINUOUS
 10
-1252.666350342138
 20
1086.444058728834
  0
VERTEX
  8
51
 62
7
  6
CONTINUOUS
 10
-1306.007615820372
 20
1114.274881272413
  0
VERTEX
  8
51
 62
7
  6
CONTINUOUS
 10
-1333.784666516179
 20
1131.57363603619
  0
VERTEX
  8
51
 62
7
  6
CONTINUOUS
 10
-1360.96097700506
 20
1151.055934607912
  0
VERTEX
  8
51
 62
7
  6
CONTINUOUS
 10
-1386.587711202711
 20
1174.361418180483
  0
VERTEX
  8
51
 62
7
  6
CONTINUOUS
 10
-1408.312778637656
 20
1200.472326118349
  0
VERTEX
  8
51
 62
7
  6
CONTINUOUS
 10
-1457.214140624228
 20
1275.938376480325
  0
VERTEX
  8
51
 62
7
  6
CONTINUOUS
 10
-1457.332987108296
 20
1276.121783943576
  0
VERTEX
  8
51
 62
7
  6
CONTINUOUS
 10
-1474.572793123799
 20
1298.228708052212
  0
VERTEX
  8
51
 62
7
  6
CONTINUOUS
 10
-1495.962744733918
 20
1315.473802725131
  0
VERTEX
  8
51
 62
7
  6
CONTINUOUS
 10
-1519.206197633571
 20
1329.638840389566
  0
VERTEX
  8
51
 62
7
  6
CONTINUOUS
 10
-1577.149521388022
 20
1349.165889022003
  0
VERTEX
  8
51
 62
7
  6
CONTINUOUS
 10
-1577.733960020388
 20
1349.362846339212
  0
VERTEX
  8
51
 62
7
  6
CONTINUOUS
 10
-1604.421039454159
 20
1351.491513996839
  0
VERTEX
  8
51
 62
7
  6
CONTINUOUS
 10
-1636.481023293945
 20
1352.271640577858
  0
VERTEX
  8
51
 62
7
  6
CONTINUOUS
 10
-1667.761759465781
 20
1349.612839920765
  0
VERTEX
  8
51
 62
7
  6
CONTINUOUS
 10
-1696.380726913321
 20
1339.585196221067
  0
VERTEX
  8
51
 62
7
  6
CONTINUOUS
 10
-1723.732013446377
 20
1327.132444273795
  0
VERTEX
  8
51
 62
7
  6
CONTINUOUS
 10
-1723.895766055464
 20
1327.057889439984
  0
VERTEX
  8
51
 62
7
  6
CONTINUOUS
 10
-1724.05373631568
 20
1326.971757348908
  0
VERTEX
  8
51
 62
7
  6
CONTINUOUS
 10
-1749.591247245001
 20
1313.047622423837
  0
VERTEX
  8
51
 62
7
  6
CONTINUOUS
 10
-1781.767557472725
 20
1285.759130123336
  0
VERTEX
  8
51
 62
7
  6
CONTINUOUS
 10
-1794.572656687603
 20
1266.076360887057
  0
VERTEX
  8
51
 62
7
  6
CONTINUOUS
 10
-1808.565029066774
 20
1237.085338380128
  0
VERTEX
  8
51
 62
7
  6
CONTINUOUS
 10
-1815.277544514805
 20
1206.499099233743
  0
SEQEND
  0
POLYLINE
  8
51
 62
7
 10
0
 20
0
 66
1
 70
1
  0
VERTEX
  8
51
 62
7
  6
CONTINUOUS
 10
-1474.476931257098
 20
1463.064164084026
  0
VERTEX
  8
51
 62
7
  6
CONTINUOUS
 10
-1456.751889793012
 20
1424.161035117628
  0
VERTEX
  8
51
 62
7
  6
CONTINUOUS
 10
-1417.275784751871
 20
1369.394778589916
  0
VERTEX
  8
51
 62
7
  6
CONTINUOUS
 10
-1390.234768778166
 20
1341.164737188787
  0
VERTEX
  8
51
 62
7
  6
CONTINUOUS
 10
-1315.529340462032
 20
1287.28131393318
  0
VERTEX
  8
51
 62
7
  6
CONTINUOUS
 10
-1267.406272162456
 20
1258.961182080487
  0
VERTEX
  8
51
 62
7
  6
CONTINUOUS
 10
-1216.617202677687
 20
1232.471305980555
  0
VERTEX
  8
51
 62
7
  6
CONTINUOUS
 10
-1208.918909921573
 20
1228.640108225118
  0
VERTEX
  8
51
 62
7
  6
CONTINUOUS
 10
-1052.445499563145
 20
1164.920724017486
  0
VERTEX
  8
51
 62
7
  6
CONTINUOUS
 10
-1001.584695233964
 20
1146.609688299415
  0
VERTEX
  8
51
 62
7
  6
CONTINUOUS
 10
-952.9871114134298
 20
1133.09801771116
  0
VERTEX
  8
51
 62
7
  6
CONTINUOUS
 10
-909.1915690358672
 20
1122.225325883703
  0
VERTEX
  8
51
 62
7
  6
CONTINUOUS
 10
-831.3320940902508
 20
1106.723030272013
  0
VERTEX
  8
51
 62
7
  6
CONTINUOUS
 10
-799.6554560944171
 20
1101.533323081743
  0
VERTEX
  8
51
 62
7
  6
CONTINUOUS
 10
-774.2537265162299
 20
1098.372190462489
  0
VERTEX
  8
51
 62
7
  6
CONTINUOUS
 10
-752.281772973857
 20
1096.631585598727
  0
VERTEX
  8
51
 62
7
  6
CONTINUOUS
 10
-743.1887823325936
 20
1097.017549894856
  0
SEQEND
  0
POLYLINE
  8
51
 62
7
 10
0
 20
0
 66
1
 70
1
  0
VERTEX
  8
51
 62
7
  6
CONTINUOUS
 10
-1462.195368605858
 20
1637.951221277596
  0
VERTEX
  8
51
 62
7
  6
CONTINUOUS
 10
-836.7033418191435
 20
2071.203559371594
  0
VERTEX
  8
51
 62
7
  6
CONTINUOUS
 10
-908.1934251347271
 20
2063.506875820033
  0
VERTEX
  8
51
 62
7
  6
CONTINUOUS
 10
-931.5057416031865
 20
2060.069986285203
  0
VERTEX
  8
51
 62
7
  6
CONTINUOUS
 10
-1050.965073891976
 20
2026.599984515232
  0
VERTEX
  8
51
 62
7
  6
CONTINUOUS
 10
-1124.706918933919
 20
1994.922461385209
  0
VERTEX
  8
51
 62
7
  6
CONTINUOUS
 10
-1153.844655478967
 20
1979.869442298266
  0
VERTEX
  8
51
 62
7
  6
CONTINUOUS
 10
-1203.177814473525
 20
1948.709371156839
  0
VERTEX
  8
51
 62
7
  6
CONTINUOUS
 10
-1249.636787036004
 20
1914.759401021946
  0
VERTEX
  8
51
 62
7
  6
CONTINUOUS
 10
-1303.316292372805
 20
1867.870508002398
  0
VERTEX
  8
51
 62
7
  6
CONTINUOUS
 10
-1335.071073541141
 20
1835.61793468752
  0
VERTEX
  8
51
 62
7
  6
CONTINUOUS
 10
-1370.67856325769
 20
1797.695654579285
  0
VERTEX
  8
51
 62
7
  6
CONTINUOUS
 10
-1398.033309936096
 20
1761.359959604779
  0
VERTEX
  8
51
 62
7
  6
CONTINUOUS
 10
-1419.675818723662
 20
1726.96282271258
  0
VERTEX
  8
51
 62
7
  6
CONTINUOUS
 10
-1448.217522894777
 20
1668.04480994492
  0
VERTEX
  8
51
 62
7
  6
CONTINUOUS
 10
-1457.615707801031
 20
1650.378372923601
  0
SEQEND
  0
POLYLINE
  8
51
 62
7
 10
0
 20
0
 66
1
 70
1
  0
VERTEX
  8
51
 62
7
  6
CONTINUOUS
 10
-1378.862571746799
 20
1028.319099118082
  0
VERTEX
  8
51
 62
7
  6
CONTINUOUS
 10
-1047.432161391917
 20
1473.127106936283
  0
VERTEX
  8
51
 62
7
  6
CONTINUOUS
 10
-1051.01170269258
 20
1469.721552209533
  0
VERTEX
  8
51
 62
7
  6
CONTINUOUS
 10
-1115.228019700775
 20
1432.551688334318
  0
VERTEX
  8
51
 62
7
  6
CONTINUOUS
 10
-1144.019412529618
 20
1410.183966592148
  0
VERTEX
  8
51
 62
7
  6
CONTINUOUS
 10
-1172.326499800754
 20
1384.692308786814
  0
VERTEX
  8
51
 62
7
  6
CONTINUOUS
 10
-1230.713057980481
 20
1323.42102402564
  0
VERTEX
  8
51
 62
7
  6
CONTINUOUS
 10
-1258.252765005022
 20
1288.074583696211
  0
VERTEX
  8
51
 62
7
  6
CONTINUOUS
 10
-1308.455393647796
 20
1217.409765479827
  0
VERTEX
  8
51
 62
7
  6
CONTINUOUS
 10
-1329.772212535
 20
1182.269922512482
  0
VERTEX
  8
51
 62
7
  6
CONTINUOUS
 10
-1342.382767756987
 20
1158.006034274336
  0
VERTEX
  8
51
 62
7
  6
CONTINUOUS
 10
-1358.668030019374
 20
1118.550937598175
  0
VERTEX
  8
51
 62
7
  6
CONTINUOUS
 10
-1373.927613331686
 20
1061.36719824043
  0
SEQEND
  0
POLYLINE
  8
51
 62
7
 10
0
 20
0
 66
1
 70
1
  0
VERTEX
  8
51
 62
7
  6
CONTINUOUS
 10
-1306.362117239077
 20
2204.340302062029
  0
VERTEX
  8
51
 62
7
  6
CONTINUOUS
 10
-1302.766626221535
 20
2176.684807622342
  0
VERTEX
  8
51
 62
7
  6
CONTINUOUS
 10
-1297.730771392107
 20
2154.2383750876
  0
VERTEX
  8
51
 62
7
  6
CONTINUOUS
 10
-1293.963609660089
 20
2130.875730140481
  0
VERTEX
  8
51
 62
7
  6
CONTINUOUS
 10
-1286.280100952871
 20
2104.191273686086
  0
VERTEX
  8
51
 62
7
  6
CONTINUOUS
 10
-1279.830746112878
 20
2070.189847610872
  0
VERTEX
  8
51
 62
7
  6
CONTINUOUS
 10
-1255.217910558043
 20
1981.096299745306
  0
VERTEX
  8
51
 62
7
  6
CONTINUOUS
 10
-1234.974605851227
 20
1928.089949716768
  0
VERTEX
  8
51
 62
7
  6
CONTINUOUS
 10
-1203.679387940841
 20
1855.261959739396
  0
VERTEX
  8
51
 62
7
  6
CONTINUOUS
 10
-1178.77463740594
 20
1810.771274144825
  0
VERTEX
  8
51
 62
7
  6
CONTINUOUS
 10
-1136.674480220132
 20
1748.779122832479
  0
VERTEX
  8
51
 62
7
  6
CONTINUOUS
 10
-1089.756016534223
 20
1692.178656740084
  0
VERTEX
  8
51
 62
7
  6
CONTINUOUS
 10
-989.3116438285916
 20
1602.978256675075
  0
VERTEX
  8
51
 62
7
  6
CONTINUOUS
 10
-955.8976555138064
 20
1579.196695205332
  0
VERTEX
  8
51
 62
7
  6
CONTINUOUS
 10
-934.3001844680925
 20
1565.517884117038
  0
VERTEX
  8
51
 62
7
  6
CONTINUOUS
 10
-917.1265144367388
 20
1559.532859039876
  0
SEQEND
  0
POLYLINE
  8
52
 62
7
 10
0
 20
0
 66
1
 70
1
  0
VERTEX
  8
52
 62
7
  6
CONTINUOUS
 10
-1098.514701595907
 20
1312.145428496528
  0
VERTEX
  8
52
 62
7
  6
CONTINUOUS
 10
-1085.607218644374
 20
1304.303874055223
  0
VERTEX
  8
52
 62
7
  6
CONTINUOUS
 10
-1090.656437530971
 20
1294.445916009289
  0
VERTEX
  8
52
 62
7
  6
CONTINUOUS
 10
-1095.546877662783
 20
1272.904042906027
  0
VERTEX
  8
52
 62
7
  6
CONTINUOUS
 10
-1094.046100781631
 20
1268.917061647865
  0
VERTEX
  8
52
 62
7
  6
CONTINUOUS
 10
-1089.449172941618
 20
1269.783171429441
  0
VERTEX
  8
52
 62
7
  6
CONTINUOUS
 10
-1083.101905668723
 20
1274.790437410638
  0
VERTEX
  8
52
 62
7
  6
CONTINUOUS
 10
-1077.697904982671
 20
1286.147189369943
  0
VERTEX
  8
52
 62
7
  6
CONTINUOUS
 10
-1074.758535943906
 20
1299.026596012091
  0
VERTEX
  8
52
 62
7
  6
CONTINUOUS
 10
-1073.851166602323
 20
1311.904893301638
  0
VERTEX
  8
52
 62
7
  6
CONTINUOUS
 10
-1075.405766461761
 20
1321.429046000802
  0
VERTEX
  8
52
 62
7
  6
CONTINUOUS
 10
-1080.487623870324
 20
1324.829872112058
  0
VERTEX
  8
52
 62
7
  6
CONTINUOUS
 10
-1089.833560588756
 20
1322.513369434532
  0
SEQEND
  0
POLYLINE
  8
52
 62
7
 10
0
 20
0
 66
1
 70
1
  0
VERTEX
  8
52
 62
7
  6
CONTINUOUS
 10
-1496.632804618313
 20
1120.444509738573
  0
VERTEX
  8
52
 62
7
  6
CONTINUOUS
 10
-1470.158714569171
 20
1107.098561047319
  0
VERTEX
  8
52
 62
7
  6
CONTINUOUS
 10
-1450.227191803783
 20
1120.800044529519
  0
VERTEX
  8
52
 62
7
  6
CONTINUOUS
 10
-1445.278616085421
 20
1128.905347368995
  0
VERTEX
  8
52
 62
7
  6
CONTINUOUS
 10
-1447.210582758304
 20
1131.77449305629
  0
VERTEX
  8
52
 62
7
  6
CONTINUOUS
 10
-1459.6068902637
 20
1133.799725702565
  0
VERTEX
  8
52
 62
7
  6
CONTINUOUS
 10
-1486.37590702923
 20
1129.060710686033
  0
SEQEND
  0
POLYLINE
  8
52
 62
7
 10
0
 20
0
 66
1
 70
1
  0
VERTEX
  8
52
 62
7
  6
CONTINUOUS
 10
-1220.439303713358
 20
1129.13060089693
  0
VERTEX
  8
52
 62
7
  6
CONTINUOUS
 10
-1216.769762628975
 20
1096.654794010016
  0
VERTEX
  8
52
 62
7
  6
CONTINUOUS
 10
-1210.412429843997
 20
1069.303439602899
  0
VERTEX
  8
52
 62
7
  6
CONTINUOUS
 10
-1204.880811747192
 20
1049.982714141592
  0
VERTEX
  8
52
 62
7
  6
CONTINUOUS
 10
-1195.26707351964
 20
1052.735174366947
  0
VERTEX
  8
52
 62
7
  6
CONTINUOUS
 10
-1200.729220551874
 20
1071.813252678254
  0
VERTEX
  8
52
 62
7
  6
CONTINUOUS
 10
-1206.898111482425
 20
1098.353867720288
  0
VERTEX
  8
52
 62
7
  6
CONTINUOUS
 10
-1210.426147534806
 20
1129.577340871989
  0
VERTEX
  8
52
 62
7
  6
CONTINUOUS
 10
-1208.952372244205
 20
1192.697795072966
  0
VERTEX
  8
52
 62
7
  6
CONTINUOUS
 10
-1203.913102701128
 20
1225.798587393993
  0
VERTEX
  8
52
 62
7
  6
CONTINUOUS
 10
-1197.319750562814
 20
1255.607391845519
  0
VERTEX
  8
52
 62
7
  6
CONTINUOUS
 10
-1185.975865119791
 20
1278.0589524134
  0
VERTEX
  8
52
 62
7
  6
CONTINUOUS
 10
-1172.036715323781
 20
1295.085115816501
  0
VERTEX
  8
52
 62
7
  6
CONTINUOUS
 10
-1154.965572182722
 20
1308.291344770011
  0
VERTEX
  8
52
 62
7
  6
CONTINUOUS
 10
-1139.3320827467
 20
1316.433470141814
  0
VERTEX
  8
52
 62
7
  6
CONTINUOUS
 10
-1122.926670557496
 20
1316.972355139028
  0
VERTEX
  8
52
 62
7
  6
CONTINUOUS
 10
-1106.121000538772
 20
1308.066815537917
  0
VERTEX
  8
52
 62
7
  6
CONTINUOUS
 10
-1085.059475895574
 20
1286.444555258436
  0
VERTEX
  8
52
 62
7
  6
CONTINUOUS
 10
-1071.679213893554
 20
1265.02787011473
  0
VERTEX
  8
52
 62
7
  6
CONTINUOUS
 10
-1058.088467119595
 20
1232.500038052429
  0
VERTEX
  8
52
 62
7
  6
CONTINUOUS
 10
-1047.317383102564
 20
1198.252954362457
  0
VERTEX
  8
52
 62
7
  6
CONTINUOUS
 10
-1043.098514415137
 20
1167.374208537919
  0
VERTEX
  8
52
 62
7
  6
CONTINUOUS
 10
-1041.956779434269
 20
1136.059878302478
  0
VERTEX
  8
52
 62
7
  6
CONTINUOUS
 10
-1043.908747854744
 20
1107.678156337648
  0
VERTEX
  8
52
 62
7
  6
CONTINUOUS
 10
-1050.708791504713
 20
1088.153626452554
  0
VERTEX
  8
52
 62
7
  6
CONTINUOUS
 10
-1058.994913821499
 20
1074.801126008206
  0
VERTEX
  8
52
 62
7
  6
CONTINUOUS
 10
-1050.498045557021
 20
1069.528249213139
  0
VERTEX
  8
52
 62
7
  6
CONTINUOUS
 10
-1041.628857628086
 20
1083.820318679947
  0
VERTEX
  8
52
 62
7
  6
CONTINUOUS
 10
-1034.02427875363
 20
1105.654859035959
  0
VERTEX
  8
52
 62
7
  6
CONTINUOUS
 10
-1031.944252602443
 20
1135.898547039961
  0
VERTEX
  8
52
 62
7
  6
CONTINUOUS
 10
-1033.123267751298
 20
1168.235359296973
  0
VERTEX
  8
52
 62
7
  6
CONTINUOUS
 10
-1037.524043182873
 20
1200.445517055084
  0
VERTEX
  8
52
 62
7
  6
CONTINUOUS
 10
-1048.61748962291
 20
1235.717564700556
  0
VERTEX
  8
52
 62
7
  6
CONTINUOUS
 10
-1048.685834431164
 20
1235.934869696456
  0
VERTEX
  8
52
 62
7
  6
CONTINUOUS
 10
-1048.773655846768
 20
1236.145059784291
  0
VERTEX
  8
52
 62
7
  6
CONTINUOUS
 10
-1062.766448433813
 20
1269.635140566747
  0
VERTEX
  8
52
 62
7
  6
CONTINUOUS
 10
-1077.147249386561
 20
1292.65330613576
  0
VERTEX
  8
52
 62
7
  6
CONTINUOUS
 10
-1100.05237355654
 20
1316.168249375978
  0
VERTEX
  8
52
 62
7
  6
CONTINUOUS
 10
-1120.595514161398
 20
1327.054322468213
  0
VERTEX
  8
52
 62
7
  6
CONTINUOUS
 10
-1141.933830735731
 20
1326.353401422452
  0
VERTEX
  8
52
 62
7
  6
CONTINUOUS
 10
-1160.377457118393
 20
1316.747720046399
  0
VERTEX
  8
52
 62
7
  6
CONTINUOUS
 10
-1179.054421452238
 20
1302.299228512403
  0
VERTEX
  8
52
 62
7
  6
CONTINUOUS
 10
-1194.407342682167
 20
1283.546194833802
  0
VERTEX
  8
52
 62
7
  6
CONTINUOUS
 10
-1206.812199917121
 20
1258.994782978917
  0
VERTEX
  8
52
 62
7
  6
CONTINUOUS
 10
-1213.749054244023
 20
1227.632991616705
  0
VERTEX
  8
52
 62
7
  6
CONTINUOUS
 10
-1218.934719068058
 20
1193.570591715303
  0
VERTEX
  8
52
 62
7
  6
CONTINUOUS
 10
-1220.431363286322
 20
1129.470682159222
  0
SEQEND
  0
POLYLINE
  8
52
 62
7
 10
0
 20
0
 66
1
 70
1
  0
VERTEX
  8
52
 62
7
  6
CONTINUOUS
 10
-1260.324905631876
 20
1878.459646554961
  0
VERTEX
  8
52
 62
7
  6
CONTINUOUS
 10
-1202.751970406503
 20
1795.763166638706
  0
VERTEX
  8
52
 62
7
  6
CONTINUOUS
 10
-1181.45388109102
 20
1786.751167509235
  0
VERTEX
  8
52
 62
7
  6
CONTINUOUS
 10
-1157.770080087566
 20
1779.063376120984
  0
VERTEX
  8
52
 62
7
  6
CONTINUOUS
 10
-1132.843384896591
 20
1772.571160593405
  0
VERTEX
  8
52
 62
7
  6
CONTINUOUS
 10
-1108.759204611013
 20
1769.100345177396
  0
VERTEX
  8
52
 62
7
  6
CONTINUOUS
 10
-1087.142738637992
 20
1768.369209076855
  0
VERTEX
  8
52
 62
7
  6
CONTINUOUS
 10
-1068.098560758881
 20
1772.460405101121
  0
VERTEX
  8
52
 62
7
  6
CONTINUOUS
 10
-1050.94087167276
 20
1781.37491245621
  0
VERTEX
  8
52
 62
7
  6
CONTINUOUS
 10
-1042.79926672292
 20
1789.641545712912
  0
VERTEX
  8
52
 62
7
  6
CONTINUOUS
 10
-1034.184818058208
 20
1804.741461075692
  0
VERTEX
  8
52
 62
7
  6
CONTINUOUS
 10
-1034.610692963448
 20
1818.380666901741
  0
VERTEX
  8
52
 62
7
  6
CONTINUOUS
 10
-1042.481117630284
 20
1833.660244846294
  0
VERTEX
  8
52
 62
7
  6
CONTINUOUS
 10
-1056.834120795727
 20
1852.842170746814
  0
VERTEX
  8
52
 62
7
  6
CONTINUOUS
 10
-1075.729548634327
 20
1869.09660785169
  0
VERTEX
  8
52
 62
7
  6
CONTINUOUS
 10
-1097.847581698457
 20
1883.111241340089
  0
VERTEX
  8
52
 62
7
  6
CONTINUOUS
 10
-1122.373788806636
 20
1893.744232917574
  0
VERTEX
  8
52
 62
7
  6
CONTINUOUS
 10
-1152.329207401539
 20
1899.89906793768
  0
VERTEX
  8
52
 62
7
  6
CONTINUOUS
 10
-1177.300500902681
 20
1902.047815358919
  0
VERTEX
  8
52
 62
7
  6
CONTINUOUS
 10
-1202.190662184562
 20
1900.742275102077
  0
VERTEX
  8
52
 62
7
  6
CONTINUOUS
 10
-1224.485891681996
 20
1896.544837019556
  0
VERTEX
  8
52
 62
7
  6
CONTINUOUS
 10
-1244.315365278896
 20
1890.97931822343
  0
SEQEND
  0
POLYLINE
  8
52
 62
7
 10
0
 20
0
 66
1
 70
1
  0
VERTEX
  8
52
 62
7
  6
CONTINUOUS
 10
-1212.941005544829
 20
1533.293668753001
  0
VERTEX
  8
52
 62
7
  6
CONTINUOUS
 10
-1212.683527136622
 20
1523.296984059095
  0
VERTEX
  8
52
 62
7
  6
CONTINUOUS
 10
-1209.660969187787
 20
1523.374834209735
  0
VERTEX
  8
52
 62
7
  6
CONTINUOUS
 10
-1209.918447595994
 20
1533.371518903642
  0
SEQEND
  0
POLYLINE
  8
52
 62
7
 10
0
 20
0
 66
1
 70
1
  0
VERTEX
  8
52
 62
7
  6
CONTINUOUS
 10
-1040.801796033315
 20
1478.757626633667
  0
VERTEX
  8
52
 62
7
  6
CONTINUOUS
 10
-1039.829038712518
 20
1464.915155639119
  0
VERTEX
  8
52
 62
7
  6
CONTINUOUS
 10
-1030.955995086859
 20
1449.451397495091
  0
VERTEX
  8
52
 62
7
  6
CONTINUOUS
 10
-1026.688310381024
 20
1448.56472726805
  0
VERTEX
  8
52
 62
7
  6
CONTINUOUS
 10
-988.9284766278163
 20
1513.355351574119
  0
VERTEX
  8
52
 62
7
  6
CONTINUOUS
 10
-994.1418546293246
 20
1525.036507116838
  0
VERTEX
  8
52
 62
7
  6
CONTINUOUS
 10
-1001.851393447483
 20
1549.467101802428
  0
VERTEX
  8
52
 62
7
  6
CONTINUOUS
 10
-1010.245359339585
 20
1571.382722456242
  0
VERTEX
  8
52
 62
7
  6
CONTINUOUS
 10
-1015.884560639584
 20
1572.116243892988
  0
VERTEX
  8
52
 62
7
  6
CONTINUOUS
 10
-1021.901489292608
 20
1566.855158219436
  0
VERTEX
  8
52
 62
7
  6
CONTINUOUS
 10
-1029.032786789611
 20
1555.675263283925
  0
VERTEX
  8
52
 62
7
  6
CONTINUOUS
 10
-1035.322625688255
 20
1538.526826845892
  0
VERTEX
  8
52
 62
7
  6
CONTINUOUS
 10
-1040.010157055404
 20
1517.518464598399
  0
SEQEND
  0
POLYLINE
  8
52
 62
7
 10
0
 20
0
 66
1
 70
1
  0
VERTEX
  8
52
 62
7
  6
CONTINUOUS
 10
-1607.823245169423
 20
1510.198070924179
  0
VERTEX
  8
52
 62
7
  6
CONTINUOUS
 10
-1595.586641323135
 20
1475.02574614931
  0
VERTEX
  8
52
 62
7
  6
CONTINUOUS
 10
-1583.006917746664
 20
1462.713612104416
  0
VERTEX
  8
52
 62
7
  6
CONTINUOUS
 10
-1563.974818584814
 20
1448.98260046602
  0
VERTEX
  8
52
 62
7
  6
CONTINUOUS
 10
-1515.983132209112
 20
1428.688798082645
  0
VERTEX
  8
52
 62
7
  6
CONTINUOUS
 10
-1488.624521303602
 20
1423.547533510518
  0
VERTEX
  8
52
 62
7
  6
CONTINUOUS
 10
-1461.267796297511
 20
1421.860668423595
  0
VERTEX
  8
52
 62
7
  6
CONTINUOUS
 10
-1435.74174305142
 20
1423.601804408316
  0
VERTEX
  8
52
 62
7
  6
CONTINUOUS
 10
-1414.180196984771
 20
1429.201576580097
  0
VERTEX
  8
52
 62
7
  6
CONTINUOUS
 10
-1396.227821621815
 20
1439.142779003721
  0
VERTEX
  8
52
 62
7
  6
CONTINUOUS
 10
-1382.342205167822
 20
1454.136361968863
  0
VERTEX
  8
52
 62
7
  6
CONTINUOUS
 10
-1370.871793192541
 20
1473.167226975924
  0
VERTEX
  8
52
 62
7
  6
CONTINUOUS
 10
-1362.323185062588
 20
1493.669697069079
  0
VERTEX
  8
52
 62
7
  6
CONTINUOUS
 10
-1358.903975610356
 20
1511.603966429201
  0
VERTEX
  8
52
 62
7
  6
CONTINUOUS
 10
-1357.870174830904
 20
1525.523732898092
  0
VERTEX
  8
52
 62
7
  6
CONTINUOUS
 10
-1358.330938558013
 20
1532.051282320948
  0
VERTEX
  8
52
 62
7
  6
CONTINUOUS
 10
-1421.083216301702
 20
1604.711834092716
  0
VERTEX
  8
52
 62
7
  6
CONTINUOUS
 10
-1423.218119473053
 20
1607.098268916662
  0
VERTEX
  8
52
 62
7
  6
CONTINUOUS
 10
-1459.99171127304
 20
1627.450900377352
  0
VERTEX
  8
52
 62
7
  6
CONTINUOUS
 10
-1477.950762308887
 20
1628.314258780485
  0
VERTEX
  8
52
 62
7
  6
CONTINUOUS
 10
-1519.692326045129
 20
1617.053247432775
  0
VERTEX
  8
52
 62
7
  6
CONTINUOUS
 10
-1540.12371044013
 20
1606.102063720302
  0
VERTEX
  8
52
 62
7
  6
CONTINUOUS
 10
-1542.164637717765
 20
1603.985330642696
  0
VERTEX
  8
52
 62
7
  6
CONTINUOUS
 10
-1561.817578672338
 20
1591.782599473154
  0
VERTEX
  8
52
 62
7
  6
CONTINUOUS
 10
-1579.51408204062
 20
1578.412536229622
  0
VERTEX
  8
52
 62
7
  6
CONTINUOUS
 10
-1591.699243838267
 20
1565.88368198011
  0
VERTEX
  8
52
 62
7
  6
CONTINUOUS
 10
-1607.678541325838
 20
1524.295152024807
  0
SEQEND
  0
POLYLINE
  8
52
 62
7
 10
0
 20
0
 66
1
 70
1
  0
VERTEX
  8
52
 62
7
  6
CONTINUOUS
 10
-859.9614442791692
 20
1881.90018390119
  0
VERTEX
  8
52
 62
7
  6
CONTINUOUS
 10
-859.9614428935284
 20
1879.900183901191
  0
VERTEX
  8
52
 62
7
  6
CONTINUOUS
 10
-857.9614428935289
 20
1879.900185286832
  0
VERTEX
  8
52
 62
7
  6
CONTINUOUS
 10
-857.9614442791698
 20
1881.900185286831
  0
SEQEND
  0
POLYLINE
  8
52
 62
7
 10
0
 20
0
 66
1
 70
1
  0
VERTEX
  8
52
 62
7
  6
CONTINUOUS
 10
-1123.371732288816
 20
2020.425993802169
  0
VERTEX
  8
52
 62
7
  6
CONTINUOUS
 10
-1120.006763183392
 20
1994.116371588232
  0
VERTEX
  8
52
 62
7
  6
CONTINUOUS
 10
-1113.768079115438
 20
1965.347050044263
  0
VERTEX
  8
52
 62
7
  6
CONTINUOUS
 10
-1102.548715308206
 20
1934.98463844173
  0
VERTEX
  8
52
 62
7
  6
CONTINUOUS
 10
-1085.310863245263
 20
1905.545221159859
  0
VERTEX
  8
52
 62
7
  6
CONTINUOUS
 10
-1064.421253879864
 20
1880.20042214149
  0
VERTEX
  8
52
 62
7
  6
CONTINUOUS
 10
-1039.191803097047
 20
1857.351022223814
  0
VERTEX
  8
52
 62
7
  6
CONTINUOUS
 10
-1017.327588439548
 20
1843.209026195984
  0
VERTEX
  8
52
 62
7
  6
CONTINUOUS
 10
-991.7324064054595
 20
1831.053559381326
  0
VERTEX
  8
52
 62
7
  6
CONTINUOUS
 10
-970.0598455184
 20
1826.614099594727
  0
VERTEX
  8
52
 62
7
  6
CONTINUOUS
 10
-950.4529151179794
 20
1827.937496312729
  0
VERTEX
  8
52
 62
7
  6
CONTINUOUS
 10
-935.0936918966212
 20
1833.395032239914
  0
VERTEX
  8
52
 62
7
  6
CONTINUOUS
 10
-921.0129900996517
 20
1844.819748738144
  0
VERTEX
  8
52
 62
7
  6
CONTINUOUS
 10
-907.1433580105077
 20
1861.755969482813
  0
VERTEX
  8
52
 62
7
  6
CONTINUOUS
 10
-896.1219321091027
 20
1881.075725902086
  0
VERTEX
  8
52
 62
7
  6
CONTINUOUS
 10
-872.66970156944
 20
1928.835860391382
  0
VERTEX
  8
52
 62
7
  6
CONTINUOUS
 10
-863.5097996895756
 20
1953.283764097655
  0
VERTEX
  8
52
 62
7
  6
CONTINUOUS
 10
-857.1175883153086
 20
1977.092715360305
  0
VERTEX
  8
52
 62
7
  6
CONTINUOUS
 10
-852.8333571907136
 20
2000.746256626493
  0
VERTEX
  8
52
 62
7
  6
CONTINUOUS
 10
-853.4230197438152
 20
2022.360836721268
  0
VERTEX
  8
52
 62
7
  6
CONTINUOUS
 10
-859.7286194104506
 20
2044.627656092795
  0
VERTEX
  8
52
 62
7
  6
CONTINUOUS
 10
-868.2908999487095
 20
2064.148050507467
  0
VERTEX
  8
52
 62
7
  6
CONTINUOUS
 10
-1116.391849852255
 20
2077.382817948648
  0
VERTEX
  8
52
 62
7
  6
CONTINUOUS
 10
-1119.647121581404
 20
2062.442954744135
  0
SEQEND
  0
POLYLINE
  8
52
 62
7
 10
0
 20
0
 66
1
 70
1
  0
VERTEX
  8
52
 62
7
  6
CONTINUOUS
 10
-1247.79180001842
 20
1085.950212217632
  0
VERTEX
  8
52
 62
7
  6
CONTINUOUS
 10
-1243.063322133564
 20
1074.009015820405
  0
VERTEX
  8
52
 62
7
  6
CONTINUOUS
 10
-1232.638156389806
 20
1064.28950518538
  0
VERTEX
  8
52
 62
7
  6
CONTINUOUS
 10
-1216.760659825986
 20
1062.550849369034
  0
VERTEX
  8
52
 62
7
  6
CONTINUOUS
 10
-1188.787731428884
 20
1068.977933028821
  0
VERTEX
  8
52
 62
7
  6
CONTINUOUS
 10
-1187.758995400801
 20
1069.214296287701
  0
VERTEX
  8
52
 62
7
  6
CONTINUOUS
 10
-1179.874185235843
 20
1075.10878793653
  0
VERTEX
  8
52
 62
7
  6
CONTINUOUS
 10
-1178.868184677408
 20
1077.998014500178
  0
VERTEX
  8
52
 62
7
  6
CONTINUOUS
 10
-1179.650916611217
 20
1080.955546914116
  0
VERTEX
  8
52
 62
7
  6
CONTINUOUS
 10
-1183.843565825008
 20
1084.620075495334
  0
VERTEX
  8
52
 62
7
  6
CONTINUOUS
 10
-1196.617901172949
 20
1084.613101457774
  0
VERTEX
  8
52
 62
7
  6
CONTINUOUS
 10
-1204.323432667456
 20
1083.984431585054
  0
VERTEX
  8
52
 62
7
  6
CONTINUOUS
 10
-1203.390933302972
 20
1090.40935231708
  0
VERTEX
  8
52
 62
7
  6
CONTINUOUS
 10
-1199.560837123153
 20
1098.461758695391
  0
VERTEX
  8
52
 62
7
  6
CONTINUOUS
 10
-1194.778309431421
 20
1102.697112704505
  0
VERTEX
  8
52
 62
7
  6
CONTINUOUS
 10
-1186.715265601148
 20
1104.123396398056
  0
VERTEX
  8
52
 62
7
  6
CONTINUOUS
 10
-1178.589460929469
 20
1102.046456274879
  0
VERTEX
  8
52
 62
7
  6
CONTINUOUS
 10
-1170.87541210363
 20
1087.622086649486
  0
VERTEX
  8
52
 62
7
  6
CONTINUOUS
 10
-1172.131440647703
 20
1080.267703823662
  0
VERTEX
  8
52
 62
7
  6
CONTINUOUS
 10
-1162.274165839376
 20
1078.584215376123
  0
VERTEX
  8
52
 62
7
  6
CONTINUOUS
 10
-1160.441268083448
 20
1089.316321617914
  0
VERTEX
  8
52
 62
7
  6
CONTINUOUS
 10
-1171.847541016959
 20
1110.644718748371
  0
VERTEX
  8
52
 62
7
  6
CONTINUOUS
 10
-1186.330894631327
 20
1114.346636214409
  0
VERTEX
  8
52
 62
7
  6
CONTINUOUS
 10
-1199.297023098359
 20
1112.05303866114
  0
VERTEX
  8
52
 62
7
  6
CONTINUOUS
 10
-1207.716114660802
 20
1104.597183619529
  0
VERTEX
  8
52
 62
7
  6
CONTINUOUS
 10
-1212.642330430637
 20
1094.240291932334
  0
VERTEX
  8
52
 62
7
  6
CONTINUOUS
 10
-1214.903083046053
 20
1096.740224998829
  0
VERTEX
  8
52
 62
7
  6
CONTINUOUS
 10
-1229.238298831383
 20
1102.932475335651
  0
VERTEX
  8
52
 62
7
  6
CONTINUOUS
 10
-1241.121288505571
 20
1099.477906708792
  0
VERTEX
  8
52
 62
7
  6
CONTINUOUS
 10
-1247.623078193106
 20
1088.236442161377
  0
SEQEND
  0
POLYLINE
  8
52
 62
7
 10
0
 20
0
 66
1
 70
1
  0
VERTEX
  8
52
 62
7
  6
CONTINUOUS
 10
-1395.351662369977
 20
1141.210163660671
  0
VERTEX
  8
52
 62
7
  6
CONTINUOUS
 10
-1395.150115879953
 20
1132.550251504564
  0
VERTEX
  8
52
 62
7
  6
CONTINUOUS
 10
-1384.501025257003
 20
1120.549858206609
  0
VERTEX
  8
52
 62
7
  6
CONTINUOUS
 10
-1377.414260133036
 20
1115.055497605083
  0
VERTEX
  8
52
 62
7
  6
CONTINUOUS
 10
-1368.849077916712
 20
1105.859778083984
  0
VERTEX
  8
52
 62
7
  6
CONTINUOUS
 10
-1362.491806637378
 20
1095.595138260118
  0
VERTEX
  8
52
 62
7
  6
CONTINUOUS
 10
-1344.579064000778
 20
1074.051724688747
  0
VERTEX
  8
52
 62
7
  6
CONTINUOUS
 10
-1344.494947406338
 20
1073.950558797015
  0
VERTEX
  8
52
 62
7
  6
CONTINUOUS
 10
-1344.40562682308
 20
1073.853956661868
  0
VERTEX
  8
52
 62
7
  6
CONTINUOUS
 10
-1324.015616225066
 20
1051.801720911598
  0
VERTEX
  8
52
 62
7
  6
CONTINUOUS
 10
-1299.254849900125
 20
1028.247024962817
  0
VERTEX
  8
52
 62
7
  6
CONTINUOUS
 10
-1228.640625503324
 20
969.5221756311637
  0
VERTEX
  8
52
 62
7
  6
CONTINUOUS
 10
-1209.787178301197
 20
952.4336447781608
  0
VERTEX
  8
52
 62
7
  6
CONTINUOUS
 10
-1203.071424269313
 20
959.8430069493039
  0
VERTEX
  8
52
 62
7
  6
CONTINUOUS
 10
-1222.003795478812
 20
977.003073544321
  0
VERTEX
  8
52
 62
7
  6
CONTINUOUS
 10
-1222.082719486193
 20
977.0746092863378
  0
VERTEX
  8
52
 62
7
  6
CONTINUOUS
 10
-1222.164618478211
 20
977.1427188776775
  0
VERTEX
  8
52
 62
7
  6
CONTINUOUS
 10
-1292.604194646705
 20
1035.722325646928
  0
VERTEX
  8
52
 62
7
  6
CONTINUOUS
 10
-1316.890908392349
 20
1058.826059609223
  0
VERTEX
  8
52
 62
7
  6
CONTINUOUS
 10
-1336.973933186089
 20
1080.546283598369
  0
VERTEX
  8
52
 62
7
  6
CONTINUOUS
 10
-1354.357109623081
 20
1101.452795055824
  0
VERTEX
  8
52
 62
7
  6
CONTINUOUS
 10
-1360.863579558805
 20
1111.958335480391
  0
VERTEX
  8
52
 62
7
  6
CONTINUOUS
 10
-1370.647955329804
 20
1122.463001114649
  0
VERTEX
  8
52
 62
7
  6
CONTINUOUS
 10
-1377.638750879072
 20
1127.882956618654
  0
VERTEX
  8
52
 62
7
  6
CONTINUOUS
 10
-1385.238089733433
 20
1136.446603814989
  0
VERTEX
  8
52
 62
7
  6
CONTINUOUS
 10
-1385.296644644893
 20
1138.962551324302
  0
VERTEX
  8
52
 62
7
  6
CONTINUOUS
 10
-1384.03940904337
 20
1141.480458163021
  0
VERTEX
  8
52
 62
7
  6
CONTINUOUS
 10
-1378.597847005285
 20
1145.981576227217
  0
VERTEX
  8
52
 62
7
  6
CONTINUOUS
 10
-1366.881934767003
 20
1152.775488580702
  0
VERTEX
  8
52
 62
7
  6
CONTINUOUS
 10
-1350.664621627573
 20
1156.946892051579
  0
VERTEX
  8
52
 62
7
  6
CONTINUOUS
 10
-1326.555222495751
 20
1159.702763163423
  0
VERTEX
  8
52
 62
7
  6
CONTINUOUS
 10
-1295.629505456954
 20
1161.885537790912
  0
VERTEX
  8
52
 62
7
  6
CONTINUOUS
 10
-1233.403052606629
 20
1162.374827246228
  0
VERTEX
  8
52
 62
7
  6
CONTINUOUS
 10
-1204.558906195206
 20
1161.439135089692
  0
VERTEX
  8
52
 62
7
  6
CONTINUOUS
 10
-1178.571876314717
 20
1157.274128041136
  0
VERTEX
  8
52
 62
7
  6
CONTINUOUS
 10
-1129.300428821225
 20
1137.537467707495
  0
VERTEX
  8
52
 62
7
  6
CONTINUOUS
 10
-1110.483793113755
 20
1119.95636704663
  0
VERTEX
  8
52
 62
7
  6
CONTINUOUS
 10
-1088.041619743641
 20
1080.823890973057
  0
VERTEX
  8
52
 62
7
  6
CONTINUOUS
 10
-1086.034841508543
 20
1064.95623266008
  0
VERTEX
  8
52
 62
7
  6
CONTINUOUS
 10
-1087.487560425384
 20
1044.210669499172
  0
VERTEX
  8
52
 62
7
  6
CONTINUOUS
 10
-1077.511988492955
 20
1043.512124854221
  0
VERTEX
  8
52
 62
7
  6
CONTINUOUS
 10
-1075.990693325936
 20
1065.236991659451
  0
VERTEX
  8
52
 62
7
  6
CONTINUOUS
 10
-1078.371656635528
 20
1084.063343067706
  0
VERTEX
  8
52
 62
7
  6
CONTINUOUS
 10
-1102.557478161315
 20
1126.236222965225
  0
VERTEX
  8
52
 62
7
  6
CONTINUOUS
 10
-1123.842504036285
 20
1146.123634737159
  0
VERTEX
  8
52
 62
7
  6
CONTINUOUS
 10
-1124.712232823555
 20
1146.472021937653
  0
VERTEX
  8
52
 62
7
  6
CONTINUOUS
 10
-1175.370918801809
 20
1166.764368295736
  0
VERTEX
  8
52
 62
7
  6
CONTINUOUS
 10
-1175.88842849931
 20
1166.971667119665
  0
VERTEX
  8
52
 62
7
  6
CONTINUOUS
 10
-1203.601705365351
 20
1171.413344141503
  0
VERTEX
  8
52
 62
7
  6
CONTINUOUS
 10
-1233.280204117677
 20
1172.376102342213
  0
VERTEX
  8
52
 62
7
  6
CONTINUOUS
 10
-1296.021233435189
 20
1171.882766748517
  0
VERTEX
  8
52
 62
7
  6
CONTINUOUS
 10
-1327.475521991678
 20
1169.662684902053
  0
VERTEX
  8
52
 62
7
  6
CONTINUOUS
 10
-1352.486664819508
 20
1166.803738247392
  0
VERTEX
  8
52
 62
7
  6
CONTINUOUS
 10
-1370.706920863431
 20
1162.117139508856
  0
VERTEX
  8
52
 62
7
  6
CONTINUOUS
 10
-1384.332189774864
 20
1154.216014876459
  0
VERTEX
  8
52
 62
7
  6
CONTINUOUS
 10
-1392.041890739577
 20
1147.83875150263
  0
SEQEND
  0
POLYLINE
  8
52
 62
7
 10
0
 20
0
 66
1
 70
1
  0
VERTEX
  8
52
 62
7
  6
CONTINUOUS
 10
-902.2099953320844
 20
1907.391118644928
  0
VERTEX
  8
52
 62
7
  6
CONTINUOUS
 10
-898.7807218439862
 20
1889.412796739264
  0
VERTEX
  8
52
 62
7
  6
CONTINUOUS
 10
-888.9991337478515
 20
1869.817943212943
  0
VERTEX
  8
52
 62
7
  6
CONTINUOUS
 10
-874.0683504173047
 20
1855.132646868082
  0
VERTEX
  8
52
 62
7
  6
CONTINUOUS
 10
-852.8668924344291
 20
1842.640706218181
  0
VERTEX
  8
52
 62
7
  6
CONTINUOUS
 10
-832.052817035681
 20
1834.618617008046
  0
VERTEX
  8
52
 62
7
  6
CONTINUOUS
 10
-810.1000222949755
 20
1829.595356752729
  0
VERTEX
  8
52
 62
7
  6
CONTINUOUS
 10
-778.0070527840375
 20
1820.674970973491
  0
VERTEX
  8
52
 62
7
  6
CONTINUOUS
 10
-711.5447268180344
 20
1809.568456573805
  0
VERTEX
  8
52
 62
7
  6
CONTINUOUS
 10
-674.7368277809967
 20
1807.284209678278
  0
VERTEX
  8
52
 62
7
  6
CONTINUOUS
 10
-644.1055832796982
 20
1808.115346744029
  0
VERTEX
  8
52
 62
7
  6
CONTINUOUS
 10
-616.681553691243
 20
1813.717109314128
  0
VERTEX
  8
52
 62
7
  6
CONTINUOUS
 10
-590.2739945366881
 20
1819.647620872076
  0
VERTEX
  8
52
 62
7
  6
CONTINUOUS
 10
-566.4872386102397
 20
1828.800193652218
  0
VERTEX
  8
52
 62
7
  6
CONTINUOUS
 10
-545.4493737891146
 20
1841.936645543363
  0
VERTEX
  8
52
 62
7
  6
CONTINUOUS
 10
-533.3513206481775
 20
1854.374532188575
  0
VERTEX
  8
52
 62
7
  6
CONTINUOUS
 10
-524.2588058365609
 20
1872.650133385819
  0
VERTEX
  8
52
 62
7
  6
CONTINUOUS
 10
-526.1935427438488
 20
1893.475392138109
  0
VERTEX
  8
52
 62
7
  6
CONTINUOUS
 10
-536.0011110843194
 20
1913.47660898327
  0
VERTEX
  8
52
 62
7
  6
CONTINUOUS
 10
-558.1532844428614
 20
1933.612599964927
  0
VERTEX
  8
52
 62
7
  6
CONTINUOUS
 10
-594.8621816478247
 20
1955.505808206669
  0
VERTEX
  8
52
 62
7
  6
CONTINUOUS
 10
-636.5159500207646
 20
1971.702350204702
  0
VERTEX
  8
52
 62
7
  6
CONTINUOUS
 10
-739.5449412277217
 20
1994.034265055009
  0
VERTEX
  8
52
 62
7
  6
CONTINUOUS
 10
-822.5817360813675
 20
1996.912905538993
  0
VERTEX
  8
52
 62
7
  6
CONTINUOUS
 10
-859.8927385705331
 20
1995.767430592088
  0
VERTEX
  8
52
 62
7
  6
CONTINUOUS
 10
-875.4402690449612
 20
1962.090197028334
  0
VERTEX
  8
52
 62
7
  6
CONTINUOUS
 10
-884.675559823924
 20
1954.863403233854
  0
VERTEX
  8
52
 62
7
  6
CONTINUOUS
 10
-900.964984513322
 20
1924.893514150161
  0
SEQEND
  0
POLYLINE
  8
52
 62
7
 10
0
 20
0
 66
1
 70
1
  0
VERTEX
  8
52
 62
7
  6
CONTINUOUS
 10
-1772.015288084346
 20
1576.241194787656
  0
VERTEX
  8
52
 62
7
  6
CONTINUOUS
 10
-1772.015286698705
 20
1574.241194787657
  0
VERTEX
  8
52
 62
7
  6
CONTINUOUS
 10
-1770.015286698706
 20
1574.241196173298
  0
VERTEX
  8
52
 62
7
  6
CONTINUOUS
 10
-1770.015288084347
 20
1576.241196173298
  0
SEQEND
  0
POLYLINE
  8
52
 62
7
 10
0
 20
0
 66
1
 70
1
  0
VERTEX
  8
52
 62
7
  6
CONTINUOUS
 10
-1144.617213479343
 20
1188.590617544987
  0
VERTEX
  8
52
 62
7
  6
CONTINUOUS
 10
-1140.410342681585
 20
1179.51855944932
  0
VERTEX
  8
52
 62
7
  6
CONTINUOUS
 10
-1125.452211947792
 20
1186.45490429075
  0
VERTEX
  8
52
 62
7
  6
CONTINUOUS
 10
-1113.78254815438
 20
1188.963881634472
  0
VERTEX
  8
52
 62
7
  6
CONTINUOUS
 10
-1101.163733498239
 20
1189.280878215505
  0
VERTEX
  8
52
 62
7
  6
CONTINUOUS
 10
-1078.209020288685
 20
1186.638767844778
  0
VERTEX
  8
52
 62
7
  6
CONTINUOUS
 10
-1075.445763936139
 20
1188.124973819329
  0
VERTEX
  8
52
 62
7
  6
CONTINUOUS
 10
-1074.026835657786
 20
1190.923372720402
  0
VERTEX
  8
52
 62
7
  6
CONTINUOUS
 10
-1074.840309557369
 20
1196.746920933562
  0
VERTEX
  8
52
 62
7
  6
CONTINUOUS
 10
-1075.686990269263
 20
1197.813984702444
  0
VERTEX
  8
52
 62
7
  6
CONTINUOUS
 10
-1096.591411598369
 20
1224.159631055901
  0
VERTEX
  8
52
 62
7
  6
CONTINUOUS
 10
-1098.228081734549
 20
1227.166382780633
  0
VERTEX
  8
52
 62
7
  6
CONTINUOUS
 10
-1087.27047578154
 20
1219.461649841304
  0
VERTEX
  8
52
 62
7
  6
CONTINUOUS
 10
-1083.561481471733
 20
1219.836932897691
  0
VERTEX
  8
52
 62
7
  6
CONTINUOUS
 10
-1075.315756603864
 20
1228.57725447794
  0
VERTEX
  8
52
 62
7
  6
CONTINUOUS
 10
-1072.678618124414
 20
1239.856758956316
  0
VERTEX
  8
52
 62
7
  6
CONTINUOUS
 10
-1070.522139842627
 20
1254.881853915562
  0
VERTEX
  8
52
 62
7
  6
CONTINUOUS
 10
-1080.420707001724
 20
1256.302546773563
  0
VERTEX
  8
52
 62
7
  6
CONTINUOUS
 10
-1082.515259269769
 20
1241.708916505951
  0
VERTEX
  8
52
 62
7
  6
CONTINUOUS
 10
-1084.439470323947
 20
1233.478727848046
  0
VERTEX
  8
52
 62
7
  6
CONTINUOUS
 10
-1086.585141743435
 20
1231.204354337851
  0
VERTEX
  8
52
 62
7
  6
CONTINUOUS
 10
-1101.088161775403
 20
1241.402010344015
  0
VERTEX
  8
52
 62
7
  6
CONTINUOUS
 10
-1112.856579801697
 20
1256.076002276608
  0
VERTEX
  8
52
 62
7
  6
CONTINUOUS
 10
-1116.126351161096
 20
1256.892531643304
  0
VERTEX
  8
52
 62
7
  6
CONTINUOUS
 10
-1119.223347555839
 20
1255.563344568281
  0
VERTEX
  8
52
 62
7
  6
CONTINUOUS
 10
-1120.884039376904
 20
1252.630730099099
  0
VERTEX
  8
52
 62
7
  6
CONTINUOUS
 10
-1120.023819263996
 20
1246.291182449006
  0
VERTEX
  8
52
 62
7
  6
CONTINUOUS
 10
-1104.96169798296
 20
1218.620329209444
  0
VERTEX
  8
52
 62
7
  6
CONTINUOUS
 10
-1088.51352408722
 20
1197.89084974693
  0
VERTEX
  8
52
 62
7
  6
CONTINUOUS
 10
-1100.715384049322
 20
1199.295295990873
  0
VERTEX
  8
52
 62
7
  6
CONTINUOUS
 10
-1114.969404848784
 20
1198.937221482096
  0
VERTEX
  8
52
 62
7
  6
CONTINUOUS
 10
-1128.645969759456
 20
1195.996760462112
  0
SEQEND
  0
POLYLINE
  8
53
 62
7
 10
0
 20
0
 66
1
 70
1
  0
VERTEX
  8
53
 62
7
  6
CONTINUOUS
 10
-1455.057507510688
 20
1577.323982976047
  0
VERTEX
  8
53
 62
7
  6
CONTINUOUS
 10
-1453.963712979083
 20
1574.40357968837
  0
VERTEX
  8
53
 62
7
  6
CONTINUOUS
 10
-1448.474998023141
 20
1570.164775572552
  0
VERTEX
  8
53
 62
7
  6
CONTINUOUS
 10
-1429.090793375
 20
1562.834757116973
  0
VERTEX
  8
53
 62
7
  6
CONTINUOUS
 10
-1379.049750112295
 20
1557.274075757658
  0
VERTEX
  8
53
 62
7
  6
CONTINUOUS
 10
-915.7668040909028
 20
1488.261190740514
  0
VERTEX
  8
53
 62
7
  6
CONTINUOUS
 10
-884.9820502793615
 20
1488.354197421149
  0
VERTEX
  8
53
 62
7
  6
CONTINUOUS
 10
-854.8626052546864
 20
1497.438442222198
  0
VERTEX
  8
53
 62
7
  6
CONTINUOUS
 10
-843.8162970813453
 20
1502.372073592657
  0
VERTEX
  8
53
 62
7
  6
CONTINUOUS
 10
-932.2972691860716
 20
1525.742571663539
  0
VERTEX
  8
53
 62
7
  6
CONTINUOUS
 10
-955.4641041693288
 20
1529.463724487393
  0
VERTEX
  8
53
 62
7
  6
CONTINUOUS
 10
-991.6134850063381
 20
1538.943590462227
  0
VERTEX
  8
53
 62
7
  6
CONTINUOUS
 10
-1037.008977541098
 20
1549.358208742636
  0
VERTEX
  8
53
 62
7
  6
CONTINUOUS
 10
-1179.668099971135
 20
1572.622928711009
  0
VERTEX
  8
53
 62
7
  6
CONTINUOUS
 10
-1234.433001720387
 20
1577.190430973138
  0
VERTEX
  8
53
 62
7
  6
CONTINUOUS
 10
-1363.035220991029
 20
1580.854022263627
  0
VERTEX
  8
53
 62
7
  6
CONTINUOUS
 10
-1401.568499007901
 20
1583.550785759805
  0
VERTEX
  8
53
 62
7
  6
CONTINUOUS
 10
-1428.697539263953
 20
1586.914175399063
  0
VERTEX
  8
53
 62
7
  6
CONTINUOUS
 10
-1446.931852229361
 20
1581.621019746758
  0
SEQEND
  0
POLYLINE
  8
54
 62
7
 10
0
 20
0
 66
1
 70
1
  0
VERTEX
  8
54
 62
7
  6
CONTINUOUS
 10
-924.3447878691995
 20
1261.796107532417
  0
VERTEX
  8
54
 62
7
  6
CONTINUOUS
 10
-923.5554327525734
 20
1258.215137940278
  0
VERTEX
  8
54
 62
7
  6
CONTINUOUS
 10
-912.6041932506214
 20
1251.185315625958
  0
VERTEX
  8
54
 62
7
  6
CONTINUOUS
 10
-909.9910443601702
 20
1256.774743084682
  0
VERTEX
  8
54
 62
7
  6
CONTINUOUS
 10
-911.0609919892103
 20
1262.539959815312
  0
VERTEX
  8
54
 62
7
  6
CONTINUOUS
 10
-913.9604742918128
 20
1269.650377927973
  0
VERTEX
  8
54
 62
7
  6
CONTINUOUS
 10
-920.5910658579118
 20
1271.831158339565
  0
SEQEND
  0
TEXT
  8
72
 62
3
 10
-1769.39626880431
 20
1550.843420326481
 11
-1769.39626880431
 21
1550.843420326481
 40
50
  1
MARK_1
 50
359.9663930821645
 72
0
 73
1
  0
TEXT
  8
72
 62
3
 10
-1698.258870145375
 20
1479.706096991054
 11
-1698.258870145375
 21
1479.706096991054
 40
50
  1
MARK_2
 50
359.9663930821645
 72
0
 73
1
  0
ENDSEC
  0
EOF

