  0
SECTION
  2
HEADER
  0
ENDSEC
  0
SECTION
  2
TABLES
  0
ENDSEC
  0
SECTION
  2
BLOCKS
  0
ENDSEC
  0
SECTION
  2
ENTITIES
  0
POLYLINE
  8
1
 62
7
 10
0
 20
0
 66
1
 70
1
  0
VERTEX
  8
1
 62
7
  6
CONTINUOUS
 10
-1780.355281439635
 20
2738.245220387887
  0
VERTEX
  8
1
 62
7
  6
CONTINUOUS
 10
-1792.799169455675
 20
2732.80058654453
  0
VERTEX
  8
1
 62
7
  6
CONTINUOUS
 10
-1827.799182664394
 20
2689.80059729582
  0
VERTEX
  8
1
 62
7
  6
CONTINUOUS
 10
-1849.155189224522
 20
2668.444603855945
  0
VERTEX
  8
1
 62
7
  6
CONTINUOUS
 10
-1855.999193047065
 20
2656.000605958282
  0
VERTEX
  8
1
 62
7
  6
CONTINUOUS
 10
-1873.251206295719
 20
2612.870611257747
  0
VERTEX
  8
1
 62
7
  6
CONTINUOUS
 10
-1897.100219654958
 20
2569.380618583676
  0
VERTEX
  8
1
 62
7
  6
CONTINUOUS
 10
-1912.621224720656
 20
2552.889623351411
  0
VERTEX
  8
1
 62
7
  6
CONTINUOUS
 10
-1920.676910410902
 20
2548.861783599465
  0
VERTEX
  8
1
 62
7
  6
CONTINUOUS
 10
-1920.679662956387
 20
2548.854408953331
  0
VERTEX
  8
1
 62
7
  6
CONTINUOUS
 10
-1920.676650712162
 20
2548.847136519283
  0
VERTEX
  8
1
 62
7
  6
CONTINUOUS
 10
-1920.6694897804
 20
2548.843868038207
  0
VERTEX
  8
1
 62
7
  6
CONTINUOUS
 10
-1934.399227369156
 20
2544.267630041169
  0
VERTEX
  8
1
 62
7
  6
CONTINUOUS
 10
-1944.431227882762
 20
2542.595633122795
  0
VERTEX
  8
1
 62
7
  6
CONTINUOUS
 10
-1960.37935136709
 20
2547.502059075465
  0
VERTEX
  8
1
 62
7
  6
CONTINUOUS
 10
-1988.388924016615
 20
2548.065634404813
  0
VERTEX
  8
1
 62
7
  6
CONTINUOUS
 10
-2015.475326552031
 20
2540.911574379193
  0
VERTEX
  8
1
 62
7
  6
CONTINUOUS
 10
-2039.553582481256
 20
2526.59056294258
  0
VERTEX
  8
1
 62
7
  6
CONTINUOUS
 10
-2058.770267470172
 20
2506.204960297635
  0
VERTEX
  8
1
 62
7
  6
CONTINUOUS
 10
-2071.6461767257
 20
2481.323948702359
  0
VERTEX
  8
1
 62
7
  6
CONTINUOUS
 10
-2077.190186820618
 20
2453.862744627733
  0
VERTEX
  8
1
 62
7
  6
CONTINUOUS
 10
-2075.769920648081
 20
2435.952567945919
  0
VERTEX
  8
1
 62
7
  6
CONTINUOUS
 10
-2075.738739496132
 20
2434.337180148599
  0
VERTEX
  8
1
 62
7
  6
CONTINUOUS
 10
-2075.805072423483
 20
2432.72185821699
  0
VERTEX
  8
1
 62
7
  6
CONTINUOUS
 10
-2075.967346021288
 20
2431.113123223438
  0
VERTEX
  8
1
 62
7
  6
CONTINUOUS
 10
-2076.224961250931
 20
2429.517271290003
  0
VERTEX
  8
1
 62
7
  6
CONTINUOUS
 10
-2076.572224758965
 20
2427.967432248045
  0
VERTEX
  8
1
 62
7
  6
CONTINUOUS
 10
-2077.014156291234
 20
2426.44089481949
  0
VERTEX
  8
1
 62
7
  6
CONTINUOUS
 10
-2077.547008748109
 20
2424.943655607067
  0
VERTEX
  8
1
 62
7
  6
CONTINUOUS
 10
-2078.170183090979
 20
2423.482010732829
  0
VERTEX
  8
1
 62
7
  6
CONTINUOUS
 10
-2078.881880960683
 20
2422.061506898888
  0
VERTEX
  8
1
 62
7
  6
CONTINUOUS
 10
-2079.677905356977
 20
2420.686191967493
  0
VERTEX
  8
1
 62
7
  6
CONTINUOUS
 10
-2080.556457920697
 20
2419.361612640766
  0
VERTEX
  8
1
 62
7
  6
CONTINUOUS
 10
-2082.140761484399
 20
2417.146448940717
  0
VERTEX
  8
1
 62
7
  6
CONTINUOUS
 10
-2082.831670737201
 20
2416.244922787801
  0
VERTEX
  8
1
 62
7
  6
CONTINUOUS
 10
-2083.583296680607
 20
2415.393009974648
  0
VERTEX
  8
1
 62
7
  6
CONTINUOUS
 10
-2084.391442314348
 20
2414.594758363531
  0
VERTEX
  8
1
 62
7
  6
CONTINUOUS
 10
-2085.252885008427
 20
2413.85399086639
  0
VERTEX
  8
1
 62
7
  6
CONTINUOUS
 10
-2086.163427762589
 20
2413.174755345488
  0
VERTEX
  8
1
 62
7
  6
CONTINUOUS
 10
-2087.11864862626
 20
2412.560125292857
  0
VERTEX
  8
1
 62
7
  6
CONTINUOUS
 10
-2088.11292632834
 20
2412.012424780593
  0
VERTEX
  8
1
 62
7
  6
CONTINUOUS
 10
-2090.504723115785
 20
2410.845480854071
  0
VERTEX
  8
1
 62
7
  6
CONTINUOUS
 10
-2092.928756149958
 20
2409.7470411201
  0
VERTEX
  8
1
 62
7
  6
CONTINUOUS
 10
-2095.383751541357
 20
2408.72047858999
  0
VERTEX
  8
1
 62
7
  6
CONTINUOUS
 10
-2097.867310648879
 20
2407.764294423894
  0
VERTEX
  8
1
 62
7
  6
CONTINUOUS
 10
-2100.376735312106
 20
2406.880137842987
  0
VERTEX
  8
1
 62
7
  6
CONTINUOUS
 10
-2102.911051160809
 20
2406.068233797575
  0
VERTEX
  8
1
 62
7
  6
CONTINUOUS
 10
-2105.467784984924
 20
2405.331205879056
  0
VERTEX
  8
1
 62
7
  6
CONTINUOUS
 10
-2108.045287563249
 20
2404.66635592704
  0
VERTEX
  8
1
 62
7
  6
CONTINUOUS
 10
-2536.985529658351
 20
2305.639042930648
  0
VERTEX
  8
1
 62
7
  6
CONTINUOUS
 10
-2559.976888123161
 20
2293.511906198124
  0
VERTEX
  8
1
 62
7
  6
CONTINUOUS
 10
-2579.104497629215
 20
2275.91064022176
  0
VERTEX
  8
1
 62
7
  6
CONTINUOUS
 10
-2593.097431148976
 20
2254.004754690735
  0
VERTEX
  8
1
 62
7
  6
CONTINUOUS
 10
-2601.02593332545
 20
2229.249778168339
  0
VERTEX
  8
1
 62
7
  6
CONTINUOUS
 10
-2602.363197727297
 20
2203.290546028186
  0
VERTEX
  8
1
 62
7
  6
CONTINUOUS
 10
-2597.020370309753
 20
2177.85190996858
  0
VERTEX
  8
1
 62
7
  6
CONTINUOUS
 10
-2585.352453289183
 20
2154.624130871388
  0
VERTEX
  8
1
 62
7
  6
CONTINUOUS
 10
-2568.134717150475
 20
2135.150570035101
  0
VERTEX
  8
1
 62
7
  6
CONTINUOUS
 10
-2546.511188082822
 20
2120.725141097036
  0
VERTEX
  8
1
 62
7
  6
CONTINUOUS
 10
-2521.918633577433
 20
2112.306336414293
  0
VERTEX
  8
1
 62
7
  6
CONTINUOUS
 10
-2505.314327662933
 20
2111.119783583445
  0
VERTEX
  8
1
 62
7
  6
CONTINUOUS
 10
-2494.801846881613
 20
2110.253261326368
  0
VERTEX
  8
1
 62
7
  6
CONTINUOUS
 10
-2484.299563342174
 20
2109.270184291365
  0
VERTEX
  8
1
 62
7
  6
CONTINUOUS
 10
-2473.80838608331
 20
2108.171635829019
  0
VERTEX
  8
1
 62
7
  6
CONTINUOUS
 10
-2463.33030749456
 20
2106.957790251181
  0
VERTEX
  8
1
 62
7
  6
CONTINUOUS
 10
-2452.865327575731
 20
2105.628647557825
  0
VERTEX
  8
1
 62
7
  6
CONTINUOUS
 10
-2442.416434910996
 20
2104.184469216711
  0
VERTEX
  8
1
 62
7
  6
CONTINUOUS
 10
-2431.98462569503
 20
2102.625342383746
  0
VERTEX
  8
1
 62
7
  6
CONTINUOUS
 10
-2424.916190158671
 20
2101.02519736899
  0
VERTEX
  8
1
 62
7
  6
CONTINUOUS
 10
-2417.882134200952
 20
2099.284513944638
  0
VERTEX
  8
1
 62
7
  6
CONTINUOUS
 10
-2410.884537367172
 20
2097.402470227834
  0
VERTEX
  8
1
 62
7
  6
CONTINUOUS
 10
-2403.926301085473
 20
2095.380323881005
  0
VERTEX
  8
1
 62
7
  6
CONTINUOUS
 10
-2397.009330589305
 20
2093.219245410661
  0
VERTEX
  8
1
 62
7
  6
CONTINUOUS
 10
-2390.137610657373
 20
2090.919583440447
  0
VERTEX
  8
1
 62
7
  6
CONTINUOUS
 10
-2383.314042717861
 20
2088.482595632801
  0
VERTEX
  8
1
 62
7
  6
CONTINUOUS
 10
-2376.539535809482
 20
2085.909365338303
  0
VERTEX
  8
1
 62
7
  6
CONTINUOUS
 10
-2373.426839441386
 20
2084.611135266225
  0
VERTEX
  8
1
 62
7
  6
CONTINUOUS
 10
-2370.371995544776
 20
2083.17943949989
  0
VERTEX
  8
1
 62
7
  6
CONTINUOUS
 10
-2367.383795559971
 20
2081.617054831888
  0
VERTEX
  8
1
 62
7
  6
CONTINUOUS
 10
-2364.465140915107
 20
2079.925238924642
  0
VERTEX
  8
1
 62
7
  6
CONTINUOUS
 10
-2361.623652544001
 20
2078.108673804192
  0
VERTEX
  8
1
 62
7
  6
CONTINUOUS
 10
-2358.863053757627
 20
2076.170696678234
  0
VERTEX
  8
1
 62
7
  6
CONTINUOUS
 10
-2356.189147412281
 20
2074.113822871631
  0
VERTEX
  8
1
 62
7
  6
CONTINUOUS
 10
-2353.608471091164
 20
2071.943643449181
  0
VERTEX
  8
1
 62
7
  6
CONTINUOUS
 10
-2344.331175369638
 20
2061.364816477566
  0
VERTEX
  8
1
 62
7
  6
CONTINUOUS
 10
-2342.875696049773
 20
2058.851398496127
  0
VERTEX
  8
1
 62
7
  6
CONTINUOUS
 10
-2341.496126230937
 20
2056.296438395659
  0
VERTEX
  8
1
 62
7
  6
CONTINUOUS
 10
-2340.194371146596
 20
2053.701106682697
  0
VERTEX
  8
1
 62
7
  6
CONTINUOUS
 10
-2338.969260290219
 20
2051.067308590648
  0
VERTEX
  8
1
 62
7
  6
CONTINUOUS
 10
-2337.823433622225
 20
2048.399290366037
  0
VERTEX
  8
1
 62
7
  6
CONTINUOUS
 10
-2336.757887337272
 20
2045.697139164723
  0
VERTEX
  8
1
 62
7
  6
CONTINUOUS
 10
-2335.773181850505
 20
2042.965923116103
  0
VERTEX
  8
1
 62
7
  6
CONTINUOUS
 10
-2334.87031335659
 20
2040.205729376047
  0
VERTEX
  8
1
 62
7
  6
CONTINUOUS
 10
-2333.93586113166
 20
2037.049275029887
  0
VERTEX
  8
1
 62
7
  6
CONTINUOUS
 10
-2333.084628197561
 20
2033.870990666917
  0
VERTEX
  8
1
 62
7
  6
CONTINUOUS
 10
-2332.316701710202
 20
2030.669880092448
  0
VERTEX
  8
1
 62
7
  6
CONTINUOUS
 10
-2331.632729240611
 20
2027.450015241112
  0
VERTEX
  8
1
 62
7
  6
CONTINUOUS
 10
-2331.034528866327
 20
2024.213562814119
  0
VERTEX
  8
1
 62
7
  6
CONTINUOUS
 10
-2330.520930080842
 20
2020.96242804491
  0
VERTEX
  8
1
 62
7
  6
CONTINUOUS
 10
-2330.093663805786
 20
2017.69977382938
  0
VERTEX
  8
1
 62
7
  6
CONTINUOUS
 10
-2329.751733846464
 20
2014.425513011573
  0
VERTEX
  8
1
 62
7
  6
CONTINUOUS
 10
-2329.769926713129
 20
1990.811238832182
  0
VERTEX
  8
1
 62
7
  6
CONTINUOUS
 10
-2332.316373828996
 20
1952.744320069475
  0
VERTEX
  8
1
 62
7
  6
CONTINUOUS
 10
-2351.146290567642
 20
1734.950852498061
  0
VERTEX
  8
1
 62
7
  6
CONTINUOUS
 10
-2346.380020667961
 20
1708.662185638727
  0
VERTEX
  8
1
 62
7
  6
CONTINUOUS
 10
-2334.880411697889
 20
1684.546416367707
  0
VERTEX
  8
1
 62
7
  6
CONTINUOUS
 10
-2317.453927208776
 20
1664.294775141665
  0
VERTEX
  8
1
 62
7
  6
CONTINUOUS
 10
-2295.322680457277
 20
1649.327502470202
  0
VERTEX
  8
1
 62
7
  6
CONTINUOUS
 10
-2270.038728030495
 20
1640.694247946109
  0
VERTEX
  8
1
 62
7
  6
CONTINUOUS
 10
-2243.375224660851
 20
1639.000458686879
  0
VERTEX
  8
1
 62
7
  6
CONTINUOUS
 10
-2229.828447069459
 20
1641.777012219586
  0
VERTEX
  8
1
 62
7
  6
CONTINUOUS
 10
-2222.14966262341
 20
1643.266113771056
  0
VERTEX
  8
1
 62
7
  6
CONTINUOUS
 10
-2214.455732582488
 20
1644.675593648616
  0
VERTEX
  8
1
 62
7
  6
CONTINUOUS
 10
-2206.747596639369
 20
1646.005109832273
  0
VERTEX
  8
1
 62
7
  6
CONTINUOUS
 10
-2180.897775975216
 20
1651.113328370217
  0
VERTEX
  8
1
 62
7
  6
CONTINUOUS
 10
-2175.01388661695
 20
1642.079805641638
  0
VERTEX
  8
1
 62
7
  6
CONTINUOUS
 10
-2156.110235402708
 20
1624.850630289472
  0
VERTEX
  8
1
 62
7
  6
CONTINUOUS
 10
-2133.479138756941
 20
1612.93316507428
  0
VERTEX
  8
1
 62
7
  6
CONTINUOUS
 10
-2108.577282257332
 20
1607.09449609769
  0
VERTEX
  8
1
 62
7
  6
CONTINUOUS
 10
-2083.00751245561
 20
1607.710438328996
  0
VERTEX
  8
1
 62
7
  6
CONTINUOUS
 10
-2058.415667177396
 20
1614.741345692752
  0
VERTEX
  8
1
 62
7
  6
CONTINUOUS
 10
-2047.277810342675
 20
1621.310158721801
  0
VERTEX
  8
1
 62
7
  6
CONTINUOUS
 10
-2042.509214932066
 20
1623.831181889066
  0
VERTEX
  8
1
 62
7
  6
CONTINUOUS
 10
-2037.663759042686
 20
1626.204024535334
  0
VERTEX
  8
1
 62
7
  6
CONTINUOUS
 10
-2032.748276073936
 20
1628.425324421448
  0
VERTEX
  8
1
 62
7
  6
CONTINUOUS
 10
-2027.765657242891
 20
1630.492927280936
  0
VERTEX
  8
1
 62
7
  6
CONTINUOUS
 10
-2022.720791025682
 20
1632.404574175755
  0
VERTEX
  8
1
 62
7
  6
CONTINUOUS
 10
-2017.619616863785
 20
1634.15895246161
  0
VERTEX
  8
1
 62
7
  6
CONTINUOUS
 10
-2012.466076939553
 20
1635.754854165805
  0
VERTEX
  8
1
 62
7
  6
CONTINUOUS
 10
-2007.26600602291
 20
1637.188969384949
  0
VERTEX
  8
1
 62
7
  6
CONTINUOUS
 10
-1998.902296394195
 20
1639.171407592483
  0
VERTEX
  8
1
 62
7
  6
CONTINUOUS
 10
-1990.509813262661
 20
1641.025175346782
  0
VERTEX
  8
1
 62
7
  6
CONTINUOUS
 10
-1982.089502922032
 20
1642.749221682519
  0
VERTEX
  8
1
 62
7
  6
CONTINUOUS
 10
-1973.643362631446
 20
1644.343441928099
  0
VERTEX
  8
1
 62
7
  6
CONTINUOUS
 10
-1965.173389649935
 20
1645.807731411951
  0
VERTEX
  8
1
 62
7
  6
CONTINUOUS
 10
-1956.682527530369
 20
1647.140934497152
  0
VERTEX
  8
1
 62
7
  6
CONTINUOUS
 10
-1948.171827238058
 20
1648.343997477459
  0
VERTEX
  8
1
 62
7
  6
CONTINUOUS
 10
-1939.643181360542
 20
1649.414818422194
  0
VERTEX
  8
1
 62
7
  6
CONTINUOUS
 10
-1931.553495456026
 20
1650.301413575925
  0
VERTEX
  8
1
 62
7
  6
CONTINUOUS
 10
-1923.450909449823
 20
1651.056503644672
  0
VERTEX
  8
1
 62
7
  6
CONTINUOUS
 10
-1915.336421971422
 20
1651.680036292649
  0
VERTEX
  8
1
 62
7
  6
CONTINUOUS
 10
-1907.212030279957
 20
1652.171906848271
  0
VERTEX
  8
1
 62
7
  6
CONTINUOUS
 10
-1899.081676557782
 20
1652.53090733883
  0
VERTEX
  8
1
 62
7
  6
CONTINUOUS
 10
-1890.946411770218
 20
1652.757984058079
  0
VERTEX
  8
1
 62
7
  6
CONTINUOUS
 10
-1882.809179470142
 20
1652.851981369098
  0
VERTEX
  8
1
 62
7
  6
CONTINUOUS
 10
-1874.671082958656
 20
1652.814844195184
  0
VERTEX
  8
1
 62
7
  6
CONTINUOUS
 10
-1866.380050526473
 20
1652.496325422435
  0
VERTEX
  8
1
 62
7
  6
CONTINUOUS
 10
-1858.095776568705
 20
1652.039263071618
  0
VERTEX
  8
1
 62
7
  6
CONTINUOUS
 10
-1849.821256973952
 20
1651.443500135359
  0
VERTEX
  8
1
 62
7
  6
CONTINUOUS
 10
-1841.556491742249
 20
1650.70903661366
  0
VERTEX
  8
1
 62
7
  6
CONTINUOUS
 10
-1833.306526357081
 20
1649.836609457106
  0
VERTEX
  8
1
 62
7
  6
CONTINUOUS
 10
-1825.071308482659
 20
1648.825220036152
  0
VERTEX
  8
1
 62
7
  6
CONTINUOUS
 10
-1816.854937308744
 20
1647.676656266721
  0
VERTEX
  8
1
 62
7
  6
CONTINUOUS
 10
-1808.658359129074
 20
1646.389867183478
  0
VERTEX
  8
1
 62
7
  6
CONTINUOUS
 10
-1805.246434051307
 20
1645.754562324699
  0
VERTEX
  8
1
 62
7
  6
CONTINUOUS
 10
-1801.862343339907
 20
1644.981612095313
  0
VERTEX
  8
1
 62
7
  6
CONTINUOUS
 10
-1798.51218344377
 20
1644.072699739675
  0
VERTEX
  8
1
 62
7
  6
CONTINUOUS
 10
-1795.200999846362
 20
1643.028562208358
  0
VERTEX
  8
1
 62
7
  6
CONTINUOUS
 10
-1791.934993668131
 20
1641.852880004791
  0
VERTEX
  8
1
 62
7
  6
CONTINUOUS
 10
-1788.719210392587
 20
1640.546390079567
  0
VERTEX
  8
1
 62
7
  6
CONTINUOUS
 10
-1785.558747839024
 20
1639.110828012811
  0
VERTEX
  8
1
 62
7
  6
CONTINUOUS
 10
-1782.458756162529
 20
1637.548928014196
  0
VERTEX
  8
1
 62
7
  6
CONTINUOUS
 10
-1775.857028507843
 20
1633.179446471081
  0
VERTEX
  8
1
 62
7
  6
CONTINUOUS
 10
-1769.256247145041
 20
1628.808913961395
  0
VERTEX
  8
1
 62
7
  6
CONTINUOUS
 10
-1767.573484796036
 20
1627.099640175031
  0
VERTEX
  8
1
 62
7
  6
CONTINUOUS
 10
-1765.972836410786
 20
1625.313964183487
  0
VERTEX
  8
1
 62
7
  6
CONTINUOUS
 10
-1764.456508591531
 20
1623.455775833341
  0
VERTEX
  8
1
 62
7
  6
CONTINUOUS
 10
-1763.027706570091
 20
1621.528912635416
  0
VERTEX
  8
1
 62
7
  6
CONTINUOUS
 10
-1761.689687914041
 20
1619.538210730049
  0
VERTEX
  8
1
 62
7
  6
CONTINUOUS
 10
-1755.709143115238
 20
1609.679669384316
  0
VERTEX
  8
1
 62
7
  6
CONTINUOUS
 10
-1739.080437304832
 20
1592.887792129695
  0
VERTEX
  8
1
 62
7
  6
CONTINUOUS
 10
-1718.996030440813
 20
1580.433973454934
  0
VERTEX
  8
1
 62
7
  6
CONTINUOUS
 10
-1696.562153262279
 20
1573.004158288876
  0
VERTEX
  8
1
 62
7
  6
CONTINUOUS
 10
-1673.014443181883
 20
1571.007574047505
  0
VERTEX
  8
1
 62
7
  6
CONTINUOUS
 10
-1649.649886508591
 20
1574.554190762595
  0
VERTEX
  8
1
 62
7
  6
CONTINUOUS
 10
-1636.082589451637
 20
1580.065800259656
  0
VERTEX
  8
1
 62
7
  6
CONTINUOUS
 10
-1624.468580829892
 20
1584.708929025448
  0
VERTEX
  8
1
 62
7
  6
CONTINUOUS
 10
-1614.698601811615
 20
1588.545299573471
  0
VERTEX
  8
1
 62
7
  6
CONTINUOUS
 10
-1604.90277809908
 20
1592.31612584807
  0
VERTEX
  8
1
 62
7
  6
CONTINUOUS
 10
-1595.081816799974
 20
1596.020183104843
  0
VERTEX
  8
1
 62
7
  6
CONTINUOUS
 10
-1585.235976732659
 20
1599.658437269801
  0
VERTEX
  8
1
 62
7
  6
CONTINUOUS
 10
-1577.679842038189
 20
1602.422278885861
  0
VERTEX
  8
1
 62
7
  6
CONTINUOUS
 10
-1554.656697975432
 20
1610.69450905858
  0
VERTEX
  8
1
 62
7
  6
CONTINUOUS
 10
-1531.694801071822
 20
1627.314100294974
  0
VERTEX
  8
1
 62
7
  6
CONTINUOUS
 10
-1514.255309403894
 20
1649.6596513654
  0
VERTEX
  8
1
 62
7
  6
CONTINUOUS
 10
-1503.711824701336
 20
1675.971140350324
  0
VERTEX
  8
1
 62
7
  6
CONTINUOUS
 10
-1500.894792547091
 20
1704.176172740285
  0
VERTEX
  8
1
 62
7
  6
CONTINUOUS
 10
-1506.026093275363
 20
1732.053211232794
  0
VERTEX
  8
1
 62
7
  6
CONTINUOUS
 10
-1508.799475160817
 20
1737.600499305588
  0
VERTEX
  8
1
 62
7
  6
CONTINUOUS
 10
-1508.799473112847
 20
1744.267499305574
  0
VERTEX
  8
1
 62
7
  6
CONTINUOUS
 10
-1501.828471685385
 20
1748.914497164224
  0
VERTEX
  8
1
 62
7
  6
CONTINUOUS
 10
-1487.296906241097
 20
1751.820716270938
  0
VERTEX
  8
1
 62
7
  6
CONTINUOUS
 10
-1487.225965699753
 20
1751.854075109818
  0
VERTEX
  8
1
 62
7
  6
CONTINUOUS
 10
-1487.228963413119
 20
1751.847109188751
  0
VERTEX
  8
1
 62
7
  6
CONTINUOUS
 10
-1487.226588881781
 20
1751.839906970851
  0
VERTEX
  8
1
 62
7
  6
CONTINUOUS
 10
-1487.220036046915
 20
1751.836089812622
  0
VERTEX
  8
1
 62
7
  6
CONTINUOUS
 10
-1469.297469686875
 20
1755.420487171365
  0
VERTEX
  8
1
 62
7
  6
CONTINUOUS
 10
-1423.265457019406
 20
1796.658473031272
  0
VERTEX
  8
1
 62
7
  6
CONTINUOUS
 10
-1408.803817507857
 20
1792.80163119048
  0
VERTEX
  8
1
 62
7
  6
CONTINUOUS
 10
-1408.797381464633
 20
1792.80447387445
  0
VERTEX
  8
1
 62
7
  6
CONTINUOUS
 10
-1398.82269173805
 20
1812.042075077606
  0
VERTEX
  8
1
 62
7
  6
CONTINUOUS
 10
-1398.822656489299
 20
1812.046873916737
  0
VERTEX
  8
1
 62
7
  6
CONTINUOUS
 10
-1407.19944714604
 20
1828.800468096123
  0
VERTEX
  8
1
 62
7
  6
CONTINUOUS
 10
-1420.098504464894
 20
1867.497679675994
  0
VERTEX
  8
1
 62
7
  6
CONTINUOUS
 10
-1420.105069778113
 20
1867.501475331941
  0
VERTEX
  8
1
 62
7
  6
CONTINUOUS
 10
-1420.112501161735
 20
1867.499963750245
  0
VERTEX
  8
1
 62
7
  6
CONTINUOUS
 10
-1420.117062032142
 20
1867.493904971253
  0
VERTEX
  8
1
 62
7
  6
CONTINUOUS
 10
-1420.123294303963
 20
1867.572049269349
  0
VERTEX
  8
1
 62
7
  6
CONTINUOUS
 10
-1424.799430926957
 20
1881.600473502483
  0
VERTEX
  8
1
 62
7
  6
CONTINUOUS
 10
-1430.59942380039
 20
1904.800475284122
  0
VERTEX
  8
1
 62
7
  6
CONTINUOUS
 10
-1432.181417969508
 20
1923.782475770096
  0
VERTEX
  8
1
 62
7
  6
CONTINUOUS
 10
-1430.276412118044
 20
1942.831475184897
  0
VERTEX
  8
1
 62
7
  6
CONTINUOUS
 10
-1422.186403419946
 20
1971.147472699816
  0
VERTEX
  8
1
 62
7
  6
CONTINUOUS
 10
-1415.168619088293
 20
1983.563130817634
  0
VERTEX
  8
1
 62
7
  6
CONTINUOUS
 10
-1408.690197650118
 20
2005.654616499841
  0
VERTEX
  8
1
 62
7
  6
CONTINUOUS
 10
-1407.400563278742
 20
2028.640275663023
  0
VERTEX
  8
1
 62
7
  6
CONTINUOUS
 10
-1411.367173255752
 20
2051.317790722395
  0
VERTEX
  8
1
 62
7
  6
CONTINUOUS
 10
-1420.382544954983
 20
2072.500962276779
  0
VERTEX
  8
1
 62
7
  6
CONTINUOUS
 10
-1429.95436826693
 20
2085.585475085987
  0
VERTEX
  8
1
 62
7
  6
CONTINUOUS
 10
-1432.71142371916
 20
2102.493171683518
  0
VERTEX
  8
1
 62
7
  6
CONTINUOUS
 10
-1443.594331081741
 20
2126.577303031174
  0
VERTEX
  8
1
 62
7
  6
CONTINUOUS
 10
-1460.359598044381
 20
2147.007889882879
  0
VERTEX
  8
1
 62
7
  6
CONTINUOUS
 10
-1481.856296708635
 20
2162.382381808531
  0
VERTEX
  8
1
 62
7
  6
CONTINUOUS
 10
-1501.87134237568
 20
2169.872497177413
  0
VERTEX
  8
1
 62
7
  6
CONTINUOUS
 10
-1513.599338773077
 20
2181.600500780014
  0
VERTEX
  8
1
 62
7
  6
CONTINUOUS
 10
-1517.399123281719
 20
2194.901288864637
  0
VERTEX
  8
1
 62
7
  6
CONTINUOUS
 10
-1517.392168317452
 20
2194.897238574855
  0
VERTEX
  8
1
 62
7
  6
CONTINUOUS
 10
-1517.384346494056
 20
2194.899134743107
  0
VERTEX
  8
1
 62
7
  6
CONTINUOUS
 10
-1517.380018354749
 20
2194.905920285487
  0
VERTEX
  8
1
 62
7
  6
CONTINUOUS
 10
-1525.732321857618
 20
2236.667504507022
  0
VERTEX
  8
1
 62
7
  6
CONTINUOUS
 10
-1534.399318376351
 20
2248.000507169347
  0
VERTEX
  8
1
 62
7
  6
CONTINUOUS
 10
-1577.762768097273
 20
2256.503079894429
  0
VERTEX
  8
1
 62
7
  6
CONTINUOUS
 10
-1577.769264160876
 20
2256.499323654942
  0
VERTEX
  8
1
 62
7
  6
CONTINUOUS
 10
-1577.771686185193
 20
2256.492221403493
  0
VERTEX
  8
1
 62
7
  6
CONTINUOUS
 10
-1577.768838664364
 20
2256.48527879573
  0
VERTEX
  8
1
 62
7
  6
CONTINUOUS
 10
-1587.770314233725
 20
2261.486523563828
  0
VERTEX
  8
1
 62
7
  6
CONTINUOUS
 10
-1602.544310199842
 20
2274.618528102098
  0
VERTEX
  8
1
 62
7
  6
CONTINUOUS
 10
-1610.399306580651
 20
2286.400530514994
  0
VERTEX
  8
1
 62
7
  6
CONTINUOUS
 10
-1612.799304000347
 20
2294.800531252238
  0
VERTEX
  8
1
 62
7
  6
CONTINUOUS
 10
-1612.79929882488
 20
2311.648861817559
  0
VERTEX
  8
1
 62
7
  6
CONTINUOUS
 10
-1612.794720289037
 20
2311.643317401446
  0
VERTEX
  8
1
 62
7
  6
CONTINUOUS
 10
-1612.787659514969
 20
2311.641957618355
  0
VERTEX
  8
1
 62
7
  6
CONTINUOUS
 10
-1612.781349304594
 20
2311.645405050081
  0
VERTEX
  8
1
 62
7
  6
CONTINUOUS
 10
-1602.079290607313
 20
2338.400527959258
  0
VERTEX
  8
1
 62
7
  6
CONTINUOUS
 10
-1565.182271716999
 20
2399.896516625249
  0
VERTEX
  8
1
 62
7
  6
CONTINUOUS
 10
-1562.399267015923
 20
2415.200515770367
  0
VERTEX
  8
1
 62
7
  6
CONTINUOUS
 10
-1567.19926283828
 20
2428.800517244829
  0
VERTEX
  8
1
 62
7
  6
CONTINUOUS
 10
-1650.399242441553
 20
2495.200542802168
  0
VERTEX
  8
1
 62
7
  6
CONTINUOUS
 10
-1663.996817380675
 20
2496.800261735597
  0
VERTEX
  8
1
 62
7
  6
CONTINUOUS
 10
-1664.001021280702
 20
2496.798875488421
  0
VERTEX
  8
1
 62
7
  6
CONTINUOUS
 10
-1690.399249568116
 20
2472.000555089352
  0
VERTEX
  8
1
 62
7
  6
CONTINUOUS
 10
-1721.59926136381
 20
2433.600564673357
  0
VERTEX
  8
1
 62
7
  6
CONTINUOUS
 10
-1740.399267138786
 20
2414.800570448334
  0
VERTEX
  8
1
 62
7
  6
CONTINUOUS
 10
-1740.71608884734
 20
2414.664776820494
  0
VERTEX
  8
1
 62
7
  6
CONTINUOUS
 10
-1740.719328289609
 20
2414.657935152831
  0
VERTEX
  8
1
 62
7
  6
CONTINUOUS
 10
-1740.71722582363
 20
2414.650663149019
  0
VERTEX
  8
1
 62
7
  6
CONTINUOUS
 10
-1740.710835249701
 20
2414.646605690765
  0
VERTEX
  8
1
 62
7
  6
CONTINUOUS
 10
-1740.786665346169
 20
2414.634526876889
  0
VERTEX
  8
1
 62
7
  6
CONTINUOUS
 10
-1750.835268512798
 20
2410.32757365406
  0
VERTEX
  8
1
 62
7
  6
CONTINUOUS
 10
-1761.370269052208
 20
2408.571576890198
  0
VERTEX
  8
1
 62
7
  6
CONTINUOUS
 10
-1773.866268572392
 20
2410.133580728713
  0
VERTEX
  8
1
 62
7
  6
CONTINUOUS
 10
-1783.999267015913
 20
2415.200583841363
  0
VERTEX
  8
1
 62
7
  6
CONTINUOUS
 10
-1790.502265303693
 20
2420.774585838953
  0
VERTEX
  8
1
 62
7
  6
CONTINUOUS
 10
-1793.599263084016
 20
2428.000586790301
  0
VERTEX
  8
1
 62
7
  6
CONTINUOUS
 10
-1793.599258251158
 20
2443.733586790272
  0
VERTEX
  8
1
 62
7
  6
CONTINUOUS
 10
-1793.579934905917
 20
2443.865250504986
  0
VERTEX
  8
1
 62
7
  6
CONTINUOUS
 10
-1793.575475442222
 20
2443.85877730036
  0
VERTEX
  8
1
 62
7
  6
CONTINUOUS
 10
-1793.56780187079
 20
2443.85707274879
  0
VERTEX
  8
1
 62
7
  6
CONTINUOUS
 10
-1793.561021206717
 20
2443.861049152858
  0
VERTEX
  8
1
 62
7
  6
CONTINUOUS
 10
-1789.119253663737
 20
2458.66758541412
  0
VERTEX
  8
1
 62
7
  6
CONTINUOUS
 10
-1779.022248494519
 20
2475.495582312528
  0
VERTEX
  8
1
 62
7
  6
CONTINUOUS
 10
-1734.139235007187
 20
2519.402568525385
  0
VERTEX
  8
1
 62
7
  6
CONTINUOUS
 10
-1707.999228761919
 20
2539.73356049571
  0
VERTEX
  8
1
 62
7
  6
CONTINUOUS
 10
-1667.171221655017
 20
2562.869547954179
  0
VERTEX
  8
1
 62
7
  6
CONTINUOUS
 10
-1622.5122157756
 20
2582.009534235846
  0
VERTEX
  8
1
 62
7
  6
CONTINUOUS
 10
-1616.799212460827
 20
2592.800532480928
  0
VERTEX
  8
1
 62
7
  6
CONTINUOUS
 10
-1608.799204597029
 20
2618.40053002349
  0
VERTEX
  8
1
 62
7
  6
CONTINUOUS
 10
-1622.399195750256
 20
2647.200534201132
  0
VERTEX
  8
1
 62
7
  6
CONTINUOUS
 10
-1679.199179285427
 20
2700.800551648931
  0
VERTEX
  8
1
 62
7
  6
CONTINUOUS
 10
-1731.488177411627
 20
2706.900567711043
  0
VERTEX
  8
1
 62
7
  6
CONTINUOUS
 10
-1756.799175107782
 20
2714.400575486066
  0
VERTEX
  8
1
 62
7
  6
CONTINUOUS
 10
-1758.398189596982
 20
2719.197623865516
  0
VERTEX
  8
1
 62
7
  6
CONTINUOUS
 10
-1758.402225003093
 20
2719.201186252481
  0
VERTEX
  8
1
 62
7
  6
CONTINUOUS
 10
-1766.399173141831
 20
2720.800578434989
  0
VERTEX
  8
1
 62
7
  6
CONTINUOUS
 10
-1771.199170192907
 20
2730.40057990945
  0
VERTEX
  8
1
 62
7
  6
CONTINUOUS
 10
-1780.349587416845
 20
2738.244370816369
  0
SEQEND
  0
POLYLINE
  8
51
 62
7
 10
0
 20
0
 66
1
 70
1
  0
VERTEX
  8
51
 62
7
  6
CONTINUOUS
 10
-2313.107706754987
 20
1807.826307617418
  0
VERTEX
  8
51
 62
7
  6
CONTINUOUS
 10
-2311.479209090582
 20
1805.796629141146
  0
VERTEX
  8
51
 62
7
  6
CONTINUOUS
 10
-2304.567371838112
 20
1803.672888998061
  0
VERTEX
  8
51
 62
7
  6
CONTINUOUS
 10
-2279.110255484447
 20
1799.264207494934
  0
VERTEX
  8
51
 62
7
  6
CONTINUOUS
 10
-2247.735343811423
 20
1795.143369974392
  0
VERTEX
  8
51
 62
7
  6
CONTINUOUS
 10
-2211.408560666345
 20
1791.816998742745
  0
VERTEX
  8
51
 62
7
  6
CONTINUOUS
 10
-2188.902299016643
 20
1790.528310046681
  0
VERTEX
  8
51
 62
7
  6
CONTINUOUS
 10
-2169.547518718328
 20
1790.555926061468
  0
VERTEX
  8
51
 62
7
  6
CONTINUOUS
 10
-2153.142578362293
 20
1792.992335607265
  0
VERTEX
  8
51
 62
7
  6
CONTINUOUS
 10
-2144.383102706803
 20
1795.468636413093
  0
VERTEX
  8
51
 62
7
  6
CONTINUOUS
 10
-2146.082550587511
 20
1811.62062803088
  0
VERTEX
  8
51
 62
7
  6
CONTINUOUS
 10
-2153.960420411741
 20
1814.3271904027
  0
VERTEX
  8
51
 62
7
  6
CONTINUOUS
 10
-2161.249669368941
 20
1813.935789483119
  0
VERTEX
  8
51
 62
7
  6
CONTINUOUS
 10
-2185.159815479559
 20
1820.048479984788
  0
VERTEX
  8
51
 62
7
  6
CONTINUOUS
 10
-2205.860830649031
 20
1820.044343145207
  0
VERTEX
  8
51
 62
7
  6
CONTINUOUS
 10
-2252.338760528647
 20
1817.158624089848
  0
VERTEX
  8
51
 62
7
  6
CONTINUOUS
 10
-2290.336070846031
 20
1816.367807571756
  0
VERTEX
  8
51
 62
7
  6
CONTINUOUS
 10
-2301.993136835931
 20
1815.284373814119
  0
VERTEX
  8
51
 62
7
  6
CONTINUOUS
 10
-2310.06387762888
 20
1810.751653622776
  0
SEQEND
  0
POLYLINE
  8
51
 62
7
 10
0
 20
0
 66
1
 70
1
  0
VERTEX
  8
51
 62
7
  6
CONTINUOUS
 10
-2021.182616275392
 20
1766.973399241547
  0
VERTEX
  8
51
 62
7
  6
CONTINUOUS
 10
-2019.840732189416
 20
1723.803982556366
  0
VERTEX
  8
51
 62
7
  6
CONTINUOUS
 10
-2014.936472155146
 20
1656.321277058114
  0
VERTEX
  8
51
 62
7
  6
CONTINUOUS
 10
-2014.914775516833
 20
1656.022730928169
  0
VERTEX
  8
51
 62
7
  6
CONTINUOUS
 10
-2014.85761556074
 20
1655.728905682091
  0
VERTEX
  8
51
 62
7
  6
CONTINUOUS
 10
-2002.826209763015
 20
1593.882623596596
  0
VERTEX
  8
51
 62
7
  6
CONTINUOUS
 10
-2002.773148880689
 20
1593.609869244256
  0
VERTEX
  8
51
 62
7
  6
CONTINUOUS
 10
-1985.194900622846
 20
1537.415811874045
  0
VERTEX
  8
51
 62
7
  6
CONTINUOUS
 10
-1970.56264227667
 20
1501.964415127542
  0
VERTEX
  8
51
 62
7
  6
CONTINUOUS
 10
-1970.521690931448
 20
1501.865197197342
  0
VERTEX
  8
51
 62
7
  6
CONTINUOUS
 10
-1962.981902720628
 20
1485.612881062843
  0
VERTEX
  8
51
 62
7
  6
CONTINUOUS
 10
-1953.869665099383
 20
1470.692240705639
  0
VERTEX
  8
51
 62
7
  6
CONTINUOUS
 10
-1936.96274259187
 20
1439.829813204756
  0
VERTEX
  8
51
 62
7
  6
CONTINUOUS
 10
-1910.063586012662
 20
1401.417808802562
  0
VERTEX
  8
51
 62
7
  6
CONTINUOUS
 10
-1909.968676503695
 20
1401.282277992668
  0
VERTEX
  8
51
 62
7
  6
CONTINUOUS
 10
-1899.929132830787
 20
1388.792668484394
  0
VERTEX
  8
51
 62
7
  6
CONTINUOUS
 10
-1890.438062055859
 20
1379.671646454431
  0
VERTEX
  8
51
 62
7
  6
CONTINUOUS
 10
-1871.146712636319
 20
1358.540647724631
  0
VERTEX
  8
51
 62
7
  6
CONTINUOUS
 10
-1860.092009205495
 20
1348.851865113711
  0
VERTEX
  8
51
 62
7
  6
CONTINUOUS
 10
-1848.328472465795
 20
1341.241690575583
  0
VERTEX
  8
51
 62
7
  6
CONTINUOUS
 10
-1836.154228274011
 20
1332.032300404983
  0
VERTEX
  8
51
 62
7
  6
CONTINUOUS
 10
-1822.781663340071
 20
1323.645118736243
  0
VERTEX
  8
51
 62
7
  6
CONTINUOUS
 10
-1805.772117039625
 20
1315.878344869497
  0
VERTEX
  8
51
 62
7
  6
CONTINUOUS
 10
-1793.08449893979
 20
1308.40455561485
  0
VERTEX
  8
51
 62
7
  6
CONTINUOUS
 10
-1777.257519157264
 20
1303.181633767404
  0
VERTEX
  8
51
 62
7
  6
CONTINUOUS
 10
-1760.697783805267
 20
1296.087985343971
  0
VERTEX
  8
51
 62
7
  6
CONTINUOUS
 10
-1760.38972683382
 20
1296.000470110142
  0
VERTEX
  8
51
 62
7
  6
CONTINUOUS
 10
-1725.270279920651
 20
1286.023462954425
  0
VERTEX
  8
51
 62
7
  6
CONTINUOUS
 10
-1709.329094942462
 20
1282.469870941008
  0
VERTEX
  8
51
 62
7
  6
CONTINUOUS
 10
-1695.037893940206
 20
1280.665112835443
  0
VERTEX
  8
51
 62
7
  6
CONTINUOUS
 10
-1681.867242011885
 20
1280.284163024728
  0
VERTEX
  8
51
 62
7
  6
CONTINUOUS
 10
-1681.578121503463
 20
1290.279982617526
  0
VERTEX
  8
51
 62
7
  6
CONTINUOUS
 10
-1694.265080981081
 20
1290.646942038951
  0
VERTEX
  8
51
 62
7
  6
CONTINUOUS
 10
-1707.610986003577
 20
1292.332323852681
  0
VERTEX
  8
51
 62
7
  6
CONTINUOUS
 10
-1722.813988974725
 20
1295.721361117603
  0
VERTEX
  8
51
 62
7
  6
CONTINUOUS
 10
-1757.348926445601
 20
1305.532316259382
  0
VERTEX
  8
51
 62
7
  6
CONTINUOUS
 10
-1773.715282084084
 20
1312.543127145222
  0
VERTEX
  8
51
 62
7
  6
CONTINUOUS
 10
-1788.932689661962
 20
1317.564889451859
  0
VERTEX
  8
51
 62
7
  6
CONTINUOUS
 10
-1801.145068257531
 20
1324.758733339903
  0
VERTEX
  8
51
 62
7
  6
CONTINUOUS
 10
-1818.027560245648
 20
1332.46749260149
  0
VERTEX
  8
51
 62
7
  6
CONTINUOUS
 10
-1830.470222361803
 20
1340.271445554893
  0
VERTEX
  8
51
 62
7
  6
CONTINUOUS
 10
-1842.588395816047
 20
1349.438420172538
  0
VERTEX
  8
51
 62
7
  6
CONTINUOUS
 10
-1854.048649801766
 20
1356.852392263805
  0
VERTEX
  8
51
 62
7
  6
CONTINUOUS
 10
-1864.136847533678
 20
1365.694090765444
  0
VERTEX
  8
51
 62
7
  6
CONTINUOUS
 10
-1883.163035458266
 20
1386.534641839611
  0
VERTEX
  8
51
 62
7
  6
CONTINUOUS
 10
-1883.273241631345
 20
1386.655357423194
  0
VERTEX
  8
51
 62
7
  6
CONTINUOUS
 10
-1892.537195543499
 20
1395.558117682932
  0
VERTEX
  8
51
 62
7
  6
CONTINUOUS
 10
-1901.967253779938
 20
1407.289501981924
  0
VERTEX
  8
51
 62
7
  6
CONTINUOUS
 10
-1928.456415011531
 20
1445.116032893496
  0
VERTEX
  8
51
 62
7
  6
CONTINUOUS
 10
-1945.156006541202
 20
1475.599991913801
  0
VERTEX
  8
51
 62
7
  6
CONTINUOUS
 10
-1945.212583959027
 20
1475.70327010977
  0
VERTEX
  8
51
 62
7
  6
CONTINUOUS
 10
-1954.150455174915
 20
1490.338397892262
  0
VERTEX
  8
51
 62
7
  6
CONTINUOUS
 10
-1961.359994344176
 20
1505.878848961556
  0
VERTEX
  8
51
 62
7
  6
CONTINUOUS
 10
-1975.782804363341
 20
1540.822789130761
  0
VERTEX
  8
51
 62
7
  6
CONTINUOUS
 10
-1993.063287473947
 20
1596.064952346225
  0
VERTEX
  8
51
 62
7
  6
CONTINUOUS
 10
-2004.984472433234
 20
1657.344654833313
  0
VERTEX
  8
51
 62
7
  6
CONTINUOUS
 10
-2009.852003329241
 20
1724.321966734312
  0
VERTEX
  8
51
 62
7
  6
CONTINUOUS
 10
-2011.172322959432
 20
1766.797638716359
  0
VERTEX
  8
51
 62
7
  6
CONTINUOUS
 10
-2007.989800296979
 20
1814.811583275856
  0
VERTEX
  8
51
 62
7
  6
CONTINUOUS
 10
-2002.415501351758
 20
1860.947722097537
  0
VERTEX
  8
51
 62
7
  6
CONTINUOUS
 10
-1996.81478613269
 20
1884.961226951643
  0
VERTEX
  8
51
 62
7
  6
CONTINUOUS
 10
-1992.032558494987
 20
1912.603826782311
  0
VERTEX
  8
51
 62
7
  6
CONTINUOUS
 10
-1979.987116453431
 20
1961.99335741101
  0
VERTEX
  8
51
 62
7
  6
CONTINUOUS
 10
-1972.229288641885
 20
1987.162721629795
  0
VERTEX
  8
51
 62
7
  6
CONTINUOUS
 10
-1965.807279200314
 20
2012.880058522785
  0
VERTEX
  8
51
 62
7
  6
CONTINUOUS
 10
-1939.265594001185
 20
2090.623073389405
  0
VERTEX
  8
51
 62
7
  6
CONTINUOUS
 10
-1929.352558878632
 20
2116.953281742464
  0
VERTEX
  8
51
 62
7
  6
CONTINUOUS
 10
-1906.417456447658
 20
2172.204262639131
  0
VERTEX
  8
51
 62
7
  6
CONTINUOUS
 10
-1894.120024115445
 20
2198.480820182462
  0
VERTEX
  8
51
 62
7
  6
CONTINUOUS
 10
-1867.921221026648
 20
2249.541460167577
  0
VERTEX
  8
51
 62
7
  6
CONTINUOUS
 10
-1852.840231171397
 20
2277.326282995596
  0
VERTEX
  8
51
 62
7
  6
CONTINUOUS
 10
-1838.915646119683
 20
2301.014715988879
  0
VERTEX
  8
51
 62
7
  6
CONTINUOUS
 10
-1825.322747891075
 20
2323.36362174084
  0
VERTEX
  8
51
 62
7
  6
CONTINUOUS
 10
-1806.855410436318
 20
2350.272784291802
  0
VERTEX
  8
51
 62
7
  6
CONTINUOUS
 10
-1798.15055320253
 20
2364.340638951368
  0
VERTEX
  8
51
 62
7
  6
CONTINUOUS
 10
-1734.689287859021
 20
2444.648207125736
  0
VERTEX
  8
51
 62
7
  6
CONTINUOUS
 10
-1742.535237425881
 20
2450.848293850482
  0
VERTEX
  8
51
 62
7
  6
CONTINUOUS
 10
-1806.174395732841
 20
2370.315609596039
  0
VERTEX
  8
51
 62
7
  6
CONTINUOUS
 10
-1806.352288696302
 20
2370.090493515963
  0
VERTEX
  8
51
 62
7
  6
CONTINUOUS
 10
-1815.234495534012
 20
2355.736025488156
  0
VERTEX
  8
51
 62
7
  6
CONTINUOUS
 10
-1833.723560908134
 20
2328.795202709208
  0
VERTEX
  8
51
 62
7
  6
CONTINUOUS
 10
-1847.498487319926
 20
2306.147013416553
  0
VERTEX
  8
51
 62
7
  6
CONTINUOUS
 10
-1861.54762965619
 20
2282.246684206752
  0
VERTEX
  8
51
 62
7
  6
CONTINUOUS
 10
-1876.765422567733
 20
2254.209818991716
  0
VERTEX
  8
51
 62
7
  6
CONTINUOUS
 10
-1903.100185136528
 20
2202.884198273075
  0
VERTEX
  8
51
 62
7
  6
CONTINUOUS
 10
-1915.568472737324
 20
2176.242565470528
  0
VERTEX
  8
51
 62
7
  6
CONTINUOUS
 10
-1938.620435026255
 20
2120.710067549937
  0
VERTEX
  8
51
 62
7
  6
CONTINUOUS
 10
-1938.652437925497
 20
2120.632972120317
  0
VERTEX
  8
51
 62
7
  6
CONTINUOUS
 10
-1948.679055165462
 20
2094.001076062169
  0
VERTEX
  8
51
 62
7
  6
CONTINUOUS
 10
-1948.704161526112
 20
2093.927537243731
  0
VERTEX
  8
51
 62
7
  6
CONTINUOUS
 10
-1975.339072928602
 20
2015.911454331138
  0
VERTEX
  8
51
 62
7
  6
CONTINUOUS
 10
-1975.407192771323
 20
2015.711925103613
  0
VERTEX
  8
51
 62
7
  6
CONTINUOUS
 10
-1981.865599920437
 20
1989.848831323223
  0
VERTEX
  8
51
 62
7
  6
CONTINUOUS
 10
-1989.587500042217
 20
1964.796030288282
  0
VERTEX
  8
51
 62
7
  6
CONTINUOUS
 10
-1989.631525602123
 20
1964.653194512685
  0
VERTEX
  8
51
 62
7
  6
CONTINUOUS
 10
-1989.666940493529
 20
1964.507983995914
  0
VERTEX
  8
51
 62
7
  6
CONTINUOUS
 10
-2001.788039730077
 20
1914.808238653926
  0
VERTEX
  8
51
 62
7
  6
CONTINUOUS
 10
-2001.828282033673
 20
1914.643234457418
  0
VERTEX
  8
51
 62
7
  6
CONTINUOUS
 10
-2006.619110607427
 20
1886.950918834871
  0
VERTEX
  8
51
 62
7
  6
CONTINUOUS
 10
-2012.277925027386
 20
1862.688309109732
  0
VERTEX
  8
51
 62
7
  6
CONTINUOUS
 10
-2017.933812372456
 20
1815.876897257513
  0
VERTEX
  8
51
 62
7
  6
CONTINUOUS
 10
-2017.950025682477
 20
1815.742706477823
  0
VERTEX
  8
51
 62
7
  6
CONTINUOUS
 10
-2017.958965360706
 20
1815.60783572885
  0
SEQEND
  0
POLYLINE
  8
51
 62
7
 10
0
 20
0
 66
1
 70
1
  0
VERTEX
  8
51
 62
7
  6
CONTINUOUS
 10
-1954.001258936605
 20
1819.881519149528
  0
VERTEX
  8
51
 62
7
  6
CONTINUOUS
 10
-1951.633190219881
 20
1815.770093796575
  0
VERTEX
  8
51
 62
7
  6
CONTINUOUS
 10
-1942.887770952409
 20
1810.296166453601
  0
VERTEX
  8
51
 62
7
  6
CONTINUOUS
 10
-1926.421629340676
 20
1805.442855902828
  0
VERTEX
  8
51
 62
7
  6
CONTINUOUS
 10
-1903.456138632965
 20
1802.732421001458
  0
VERTEX
  8
51
 62
7
  6
CONTINUOUS
 10
-1841.244716069486
 20
1797.995181321088
  0
VERTEX
  8
51
 62
7
  6
CONTINUOUS
 10
-1784.448090667969
 20
1796.476018919885
  0
VERTEX
  8
51
 62
7
  6
CONTINUOUS
 10
-1794.706465349524
 20
1829.811615893289
  0
VERTEX
  8
51
 62
7
  6
CONTINUOUS
 10
-1853.865288346507
 20
1831.327407835993
  0
VERTEX
  8
51
 62
7
  6
CONTINUOUS
 10
-1908.346565778517
 20
1830.081271030929
  0
VERTEX
  8
51
 62
7
  6
CONTINUOUS
 10
-1930.646003486145
 20
1828.830252244441
  0
VERTEX
  8
51
 62
7
  6
CONTINUOUS
 10
-1945.500313208713
 20
1825.532454308561
  0
SEQEND
  0
POLYLINE
  8
51
 62
7
 10
0
 20
0
 66
1
 70
1
  0
VERTEX
  8
51
 62
7
  6
CONTINUOUS
 10
-2088.850813394225
 20
2481.665554042219
  0
VERTEX
  8
51
 62
7
  6
CONTINUOUS
 10
-2086.188196019422
 20
2466.937338153137
  0
VERTEX
  8
51
 62
7
  6
CONTINUOUS
 10
-2079.617570533751
 20
2454.729300893724
  0
VERTEX
  8
51
 62
7
  6
CONTINUOUS
 10
-2069.800532234125
 20
2445.87869913205
  0
VERTEX
  8
51
 62
7
  6
CONTINUOUS
 10
-2057.727933802631
 20
2440.561919269034
  0
VERTEX
  8
51
 62
7
  6
CONTINUOUS
 10
-2045.712984960874
 20
2440.045662036397
  0
VERTEX
  8
51
 62
7
  6
CONTINUOUS
 10
-2029.286921126419
 20
2445.479304772765
  0
VERTEX
  8
51
 62
7
  6
CONTINUOUS
 10
-2017.337631243549
 20
2455.376964456508
  0
VERTEX
  8
51
 62
7
  6
CONTINUOUS
 10
-2009.205694504702
 20
2470.425382668254
  0
VERTEX
  8
51
 62
7
  6
CONTINUOUS
 10
-2005.881818626004
 20
2490.699345912358
  0
VERTEX
  8
51
 62
7
  6
CONTINUOUS
 10
-2005.560648402743
 20
2514.829828730732
  0
VERTEX
  8
51
 62
7
  6
CONTINUOUS
 10
-2007.582183163552
 20
2543.097173117698
  0
VERTEX
  8
51
 62
7
  6
CONTINUOUS
 10
-2011.732604358921
 20
2568.059476580744
  0
VERTEX
  8
51
 62
7
  6
CONTINUOUS
 10
-2061.067891210091
 20
2520.567235155905
  0
VERTEX
  8
51
 62
7
  6
CONTINUOUS
 10
-2068.505191033461
 20
2517.127619890021
  0
VERTEX
  8
51
 62
7
  6
CONTINUOUS
 10
-2083.32127129471
 20
2504.838267348388
  0
VERTEX
  8
51
 62
7
  6
CONTINUOUS
 10
-2087.725862819351
 20
2494.316372033328
  0
SEQEND
  0
POLYLINE
  8
51
 62
7
 10
0
 20
0
 66
1
 70
1
  0
VERTEX
  8
51
 62
7
  6
CONTINUOUS
 10
-1784.145826281313
 20
2278.899141269477
  0
VERTEX
  8
51
 62
7
  6
CONTINUOUS
 10
-1774.94276727155
 20
2255.315648466604
  0
VERTEX
  8
51
 62
7
  6
CONTINUOUS
 10
-1760.801059623495
 20
2223.992194398489
  0
VERTEX
  8
51
 62
7
  6
CONTINUOUS
 10
-1741.543157208554
 20
2185.106832574572
  0
VERTEX
  8
51
 62
7
  6
CONTINUOUS
 10
-1717.170038546922
 20
2139.345362296756
  0
VERTEX
  8
51
 62
7
  6
CONTINUOUS
 10
-1689.594094963285
 20
2091.886660178887
  0
VERTEX
  8
51
 62
7
  6
CONTINUOUS
 10
-1599.90982430625
 20
1951.730281743914
  0
VERTEX
  8
51
 62
7
  6
CONTINUOUS
 10
-1555.815042301327
 20
1889.316762094474
  0
SEQEND
  0
POLYLINE
  8
51
 62
7
 10
0
 20
0
 66
1
 70
1
  0
VERTEX
  8
51
 62
7
  6
CONTINUOUS
 10
-1832.978923581483
 20
1665.82524066531
  0
VERTEX
  8
51
 62
7
  6
CONTINUOUS
 10
-1803.314932411844
 20
1632.491932215536
  0
VERTEX
  8
51
 62
7
  6
CONTINUOUS
 10
-1764.218635428133
 20
1592.92367571865
  0
SEQEND
  0
POLYLINE
  8
51
 62
7
 10
0
 20
0
 66
1
 70
1
  0
VERTEX
  8
51
 62
7
  6
CONTINUOUS
 10
-1864.447152867333
 20
1459.630199166108
  0
VERTEX
  8
51
 62
7
  6
CONTINUOUS
 10
-1468.903014971255
 20
1671.475520949203
  0
VERTEX
  8
51
 62
7
  6
CONTINUOUS
 10
-1474.741493600094
 20
1669.003387914634
  0
VERTEX
  8
51
 62
7
  6
CONTINUOUS
 10
-1505.950559835745
 20
1663.701052476402
  0
VERTEX
  8
51
 62
7
  6
CONTINUOUS
 10
-1531.492496276473
 20
1656.349400984543
  0
VERTEX
  8
51
 62
7
  6
CONTINUOUS
 10
-1637.91070196142
 20
1610.807470668221
  0
VERTEX
  8
51
 62
7
  6
CONTINUOUS
 10
-1692.909985689179
 20
1579.383094624247
  0
VERTEX
  8
51
 62
7
  6
CONTINUOUS
 10
-1735.771074826824
 20
1553.477134002507
  0
VERTEX
  8
51
 62
7
  6
CONTINUOUS
 10
-1774.644696752753
 20
1528.18294640695
  0
VERTEX
  8
51
 62
7
  6
CONTINUOUS
 10
-1833.092621900443
 20
1486.190289486857
  0
VERTEX
  8
51
 62
7
  6
CONTINUOUS
 10
-1852.210361899438
 20
1470.660469135976
  0
SEQEND
  0
POLYLINE
  8
51
 62
7
 10
0
 20
0
 66
1
 70
1
  0
VERTEX
  8
51
 62
7
  6
CONTINUOUS
 10
-1797.018021337249
 20
1615.020115093392
  0
VERTEX
  8
51
 62
7
  6
CONTINUOUS
 10
-1491.149598768832
 20
1284.751398433341
  0
VERTEX
  8
51
 62
7
  6
CONTINUOUS
 10
-1495.169248315485
 20
1296.585609717666
  0
VERTEX
  8
51
 62
7
  6
CONTINUOUS
 10
-1500.890960598097
 20
1308.90149354933
  0
VERTEX
  8
51
 62
7
  6
CONTINUOUS
 10
-1528.903141571217
 20
1348.129234381151
  0
VERTEX
  8
51
 62
7
  6
CONTINUOUS
 10
-1575.670970099274
 20
1406.523757332957
  0
VERTEX
  8
51
 62
7
  6
CONTINUOUS
 10
-1619.840815269582
 20
1451.737094075904
  0
VERTEX
  8
51
 62
7
  6
CONTINUOUS
 10
-1630.667746854539
 20
1463.719995813566
  0
VERTEX
  8
51
 62
7
  6
CONTINUOUS
 10
-1657.8843614551
 20
1487.962167957256
  0
VERTEX
  8
51
 62
7
  6
CONTINUOUS
 10
-1691.808914274805
 20
1516.493285305568
  0
VERTEX
  8
51
 62
7
  6
CONTINUOUS
 10
-1778.244241274115
 20
1596.281866977849
  0
SEQEND
  0
POLYLINE
  8
51
 62
7
 10
0
 20
0
 66
1
 70
1
  0
VERTEX
  8
51
 62
7
  6
CONTINUOUS
 10
-1912.880378524349
 20
1856.719429165195
  0
VERTEX
  8
51
 62
7
  6
CONTINUOUS
 10
-1466.149253711216
 20
2237.870641318349
  0
VERTEX
  8
51
 62
7
  6
CONTINUOUS
 10
-1511.428892036974
 20
2209.895391809909
  0
VERTEX
  8
51
 62
7
  6
CONTINUOUS
 10
-1551.520623132647
 20
2181.644158956239
  0
VERTEX
  8
51
 62
7
  6
CONTINUOUS
 10
-1602.136237515493
 20
2141.389098088201
  0
VERTEX
  8
51
 62
7
  6
CONTINUOUS
 10
-1653.508378657798
 20
2097.297553879631
  0
VERTEX
  8
51
 62
7
  6
CONTINUOUS
 10
-1756.189430163322
 20
2000.402346813811
  0
VERTEX
  8
51
 62
7
  6
CONTINUOUS
 10
-1883.071867842419
 20
1882.31438690468
  0
SEQEND
  0
POLYLINE
  8
53
 62
7
 10
0
 20
0
 66
1
 70
1
  0
VERTEX
  8
53
 62
7
  6
CONTINUOUS
 10
-1770.539590092143
 20
2391.440669617954
  0
VERTEX
  8
53
 62
7
  6
CONTINUOUS
 10
-1757.993814939095
 20
2392.728571620869
  0
VERTEX
  8
53
 62
7
  6
CONTINUOUS
 10
-1746.142174630476
 20
2399.857489156877
  0
VERTEX
  8
53
 62
7
  6
CONTINUOUS
 10
-1734.648453415193
 20
2408.611497657291
  0
VERTEX
  8
53
 62
7
  6
CONTINUOUS
 10
-1724.48027849053
 20
2420.691018213236
  0
VERTEX
  8
53
 62
7
  6
CONTINUOUS
 10
-1717.368182315329
 20
2438.430384024756
  0
VERTEX
  8
53
 62
7
  6
CONTINUOUS
 10
-1715.534786817585
 20
2453.012614812565
  0
SEQEND
  0
POLYLINE
  8
53
 62
7
 10
0
 20
0
 66
1
 70
1
  0
VERTEX
  8
53
 62
7
  6
CONTINUOUS
 10
-1806.136914234416
 20
1794.514670653078
  0
VERTEX
  8
53
 62
7
  6
CONTINUOUS
 10
-1800.924048413485
 20
1790.407304346923
  0
VERTEX
  8
53
 62
7
  6
CONTINUOUS
 10
-1785.116095398665
 20
1784.003653094601
  0
VERTEX
  8
53
 62
7
  6
CONTINUOUS
 10
-1740.461128777709
 20
1782.797366925437
  0
VERTEX
  8
53
 62
7
  6
CONTINUOUS
 10
-1653.271389322743
 20
1788.789177985409
  0
VERTEX
  8
53
 62
7
  6
CONTINUOUS
 10
-1621.599433638682
 20
1790.104369829721
  0
VERTEX
  8
53
 62
7
  6
CONTINUOUS
 10
-1556.881604211438
 20
1791.111112213495
  0
VERTEX
  8
53
 62
7
  6
CONTINUOUS
 10
-1518.42205679245
 20
1788.371984672267
  0
VERTEX
  8
53
 62
7
  6
CONTINUOUS
 10
-1492.735688324668
 20
1783.506429807939
  0
VERTEX
  8
53
 62
7
  6
CONTINUOUS
 10
-1440.025668165795
 20
1780.025634517826
  0
VERTEX
  8
53
 62
7
  6
CONTINUOUS
 10
-1449.859973343708
 20
1854.382878323328
  0
VERTEX
  8
53
 62
7
  6
CONTINUOUS
 10
-1454.483312260399
 20
1854.757281984453
  0
VERTEX
  8
53
 62
7
  6
CONTINUOUS
 10
-1540.765315770362
 20
1835.634952743762
  0
VERTEX
  8
53
 62
7
  6
CONTINUOUS
 10
-1565.428690664923
 20
1835.599762257718
  0
VERTEX
  8
53
 62
7
  6
CONTINUOUS
 10
-1652.060210552527
 20
1830.015148096822
  0
VERTEX
  8
53
 62
7
  6
CONTINUOUS
 10
-1708.536379940957
 20
1820.561956565348
  0
VERTEX
  8
53
 62
7
  6
CONTINUOUS
 10
-1759.378683911785
 20
1814.571207128175
  0
VERTEX
  8
53
 62
7
  6
CONTINUOUS
 10
-1782.918371373791
 20
1810.270415611337
  0
VERTEX
  8
53
 62
7
  6
CONTINUOUS
 10
-1798.457864292959
 20
1806.539839594792
  0
VERTEX
  8
53
 62
7
  6
CONTINUOUS
 10
-1805.843204440382
 20
1802.287497639247
  0
SEQEND
  0
POLYLINE
  8
53
 62
7
 10
0
 20
0
 66
1
 70
1
  0
VERTEX
  8
53
 62
7
  6
CONTINUOUS
 10
-1812.425910141886
 20
2713.046832318312
  0
VERTEX
  8
53
 62
7
  6
CONTINUOUS
 10
-1805.137670636571
 20
2696.344014396974
  0
VERTEX
  8
53
 62
7
  6
CONTINUOUS
 10
-1799.212844468317
 20
2691.704263395477
  0
VERTEX
  8
53
 62
7
  6
CONTINUOUS
 10
-1792.038853139315
 20
2683.865891484704
  0
VERTEX
  8
53
 62
7
  6
CONTINUOUS
 10
-1783.597436248818
 20
2677.832729812672
  0
VERTEX
  8
53
 62
7
  6
CONTINUOUS
 10
-1778.760967370923
 20
2670.499023167798
  0
VERTEX
  8
53
 62
7
  6
CONTINUOUS
 10
-1771.206592535073
 20
2663.092994439828
  0
VERTEX
  8
53
 62
7
  6
CONTINUOUS
 10
-1759.291208756704
 20
2643.348775572153
  0
VERTEX
  8
53
 62
7
  6
CONTINUOUS
 10
-1751.204915055065
 20
2619.179488738429
  0
VERTEX
  8
53
 62
7
  6
CONTINUOUS
 10
-1739.663639696101
 20
2576.803313043952
  0
VERTEX
  8
53
 62
7
  6
CONTINUOUS
 10
-1733.802800068404
 20
2563.603662031191
  0
VERTEX
  8
53
 62
7
  6
CONTINUOUS
 10
-1726.572318877308
 20
2551.777566662674
  0
VERTEX
  8
53
 62
7
  6
CONTINUOUS
 10
-1715.406436319304
 20
2541.074687587362
  0
VERTEX
  8
53
 62
7
  6
CONTINUOUS
 10
-1701.7823012171
 20
2534.261519980646
  0
VERTEX
  8
53
 62
7
  6
CONTINUOUS
 10
-1677.747619657026
 20
2529.876208928272
  0
VERTEX
  8
53
 62
7
  6
CONTINUOUS
 10
-1656.846304013537
 20
2531.912633631345
  0
VERTEX
  8
53
 62
7
  6
CONTINUOUS
 10
-1642.785300852192
 20
2539.349503866652
  0
VERTEX
  8
53
 62
7
  6
CONTINUOUS
 10
-1614.08808832331
 20
2578.328689596386
  0
VERTEX
  8
53
 62
7
  6
CONTINUOUS
 10
-1609.707742354964
 20
2605.843167614294
  0
VERTEX
  8
53
 62
7
  6
CONTINUOUS
 10
-1614.122202184293
 20
2637.840901500548
  0
VERTEX
  8
53
 62
7
  6
CONTINUOUS
 10
-1626.30535747002
 20
2667.236748128335
  0
VERTEX
  8
53
 62
7
  6
CONTINUOUS
 10
-1659.757465521499
 20
2720.833872205224
  0
VERTEX
  8
53
 62
7
  6
CONTINUOUS
 10
-1677.824970541827
 20
2744.303116831773
  0
VERTEX
  8
53
 62
7
  6
CONTINUOUS
 10
-1694.23502625765
 20
2763.253521757358
  0
VERTEX
  8
53
 62
7
  6
CONTINUOUS
 10
-1763.889541972974
 20
2750.809723918043
  0
VERTEX
  8
53
 62
7
  6
CONTINUOUS
 10
-1769.936439169424
 20
2751.994897228406
  0
VERTEX
  8
53
 62
7
  6
CONTINUOUS
 10
-1781.951134320747
 20
2752.333354642024
  0
VERTEX
  8
53
 62
7
  6
CONTINUOUS
 10
-1791.500074939607
 20
2751.303728876285
  0
VERTEX
  8
53
 62
7
  6
CONTINUOUS
 10
-1801.955115326648
 20
2744.456204337779
  0
VERTEX
  8
53
 62
7
  6
CONTINUOUS
 10
-1807.781960437442
 20
2733.830679602747
  0
VERTEX
  8
53
 62
7
  6
CONTINUOUS
 10
-1811.297407901074
 20
2723.20845284323
  0
SEQEND
  0
POLYLINE
  8
53
 62
7
 10
0
 20
0
 66
1
 70
1
  0
VERTEX
  8
53
 62
7
  6
CONTINUOUS
 10
-1986.293349749638
 20
2558.367564214013
  0
VERTEX
  8
53
 62
7
  6
CONTINUOUS
 10
-1983.201614684572
 20
2545.519562516965
  0
VERTEX
  8
53
 62
7
  6
CONTINUOUS
 10
-1974.75088373134
 20
2532.958607489732
  0
VERTEX
  8
53
 62
7
  6
CONTINUOUS
 10
-1965.649103754562
 20
2526.951788070571
  0
VERTEX
  8
53
 62
7
  6
CONTINUOUS
 10
-1954.060916906272
 20
2522.904318326497
  0
VERTEX
  8
53
 62
7
  6
CONTINUOUS
 10
-1942.301489948517
 20
2523.454497593051
  0
VERTEX
  8
53
 62
7
  6
CONTINUOUS
 10
-1928.338390051857
 20
2528.300425499631
  0
VERTEX
  8
53
 62
7
  6
CONTINUOUS
 10
-1916.866662110726
 20
2534.666800188951
  0
VERTEX
  8
53
 62
7
  6
CONTINUOUS
 10
-1906.061023411175
 20
2545.02002854029
  0
VERTEX
  8
53
 62
7
  6
CONTINUOUS
 10
-1891.576380334259
 20
2575.977927180455
  0
VERTEX
  8
53
 62
7
  6
CONTINUOUS
 10
-1980.52770589454
 20
2576.282809045626
  0
VERTEX
  8
53
 62
7
  6
CONTINUOUS
 10
-1984.632317847515
 20
2569.139545189689
  0
SEQEND
  0
POLYLINE
  8
54
 62
7
 10
0
 20
0
 66
1
 70
1
  0
VERTEX
  8
54
 62
7
  6
CONTINUOUS
 10
-1431.569020216158
 20
2095.489291855141
  0
VERTEX
  8
54
 62
7
  6
CONTINUOUS
 10
-1429.954687664235
 20
2085.58558515251
  0
VERTEX
  8
54
 62
7
  6
CONTINUOUS
 10
-1422.752433283447
 20
2075.740651525795
  0
VERTEX
  8
54
 62
7
  6
CONTINUOUS
 10
-1418.558538230418
 20
2073.714633439937
  0
VERTEX
  8
54
 62
7
  6
CONTINUOUS
 10
-1410.685669731704
 20
2074.513267500081
  0
VERTEX
  8
54
 62
7
  6
CONTINUOUS
 10
-1404.118057599447
 20
2082.218846211656
  0
VERTEX
  8
54
 62
7
  6
CONTINUOUS
 10
-1399.304529584242
 20
2090.963323200408
  0
VERTEX
  8
54
 62
7
  6
CONTINUOUS
 10
-1398.584057796752
 20
2102.267362698014
  0
VERTEX
  8
54
 62
7
  6
CONTINUOUS
 10
-1402.538993326363
 20
2114.83473246885
  0
VERTEX
  8
54
 62
7
  6
CONTINUOUS
 10
-1400.408693473723
 20
2117.149174401116
  0
VERTEX
  8
54
 62
7
  6
CONTINUOUS
 10
-1407.401115868822
 20
2122.346202691255
  0
VERTEX
  8
54
 62
7
  6
CONTINUOUS
 10
-1412.786635217296
 20
2122.846518978427
  0
VERTEX
  8
54
 62
7
  6
CONTINUOUS
 10
-1420.29966382374
 20
2119.076595324196
  0
VERTEX
  8
54
 62
7
  6
CONTINUOUS
 10
-1430.057633805721
 20
2104.330657346874
  0
SEQEND
  0
TEXT
  8
72
 62
3
 10
-2288.241277351013
 20
2209.119888279246
 11
-2288.241277351013
 21
2209.119888279246
 40
50
  1
MARK_1
 50
0.09946822481401796
 72
0
 73
1
  0
TEXT
  8
72
 62
3
 10
-2252.363204024283
 20
2182.791127459934
 11
-2252.363204024283
 21
2182.791127459934
 40
50
  1
MARK_2
 50
0.09946822481401796
 72
0
 73
1
  0
ENDSEC
  0
EOF

