  0
SECTION
  2
HEADER
  0
ENDSEC
  0
SECTION
  2
TABLES
  0
ENDSEC
  0
SECTION
  2
BLOCKS
  0
ENDSEC
  0
SECTION
  2
ENTITIES
  0
TEXT
  1
MARK_1
  8
72
 10
-3263.6
 20
1082
 11
-3263.6
 21
1082
 62
3
 40
8
 50
90
 72
0
 73
1
  0
TEXT
  1
MARK_2
  8
72
 10
-3276.4
 20
2313.2
 11
-3276.4
 21
2313.2
 62
3
 40
8
 50
90
 72
0
 73
1
  0
POLYLINE
  8
51
 62
7
 66
1
 70
1
  0
VERTEX
  8
51
 62
7
  6
CONTINUOUS
 10
-1683.84834697422
 20
1674.3347375458
  0
VERTEX
  8
51
 62
7
  6
CONTINUOUS
 10
-1607.3465420928
 20
1669.81337170226
  0
VERTEX
  8
51
 62
7
  6
CONTINUOUS
 10
-1499.47379822741
 20
1668.19210745428
  0
VERTEX
  8
51
 62
7
  6
CONTINUOUS
 10
-1433.48386833529
 20
1669.26574577244
  0
VERTEX
  8
51
 62
7
  6
CONTINUOUS
 10
-1397.7450948326
 20
1670.71513723252
  0
VERTEX
  8
51
 62
7
  6
CONTINUOUS
 10
-1366.06954205012
 20
1673.33563583494
  0
VERTEX
  8
51
 62
7
  6
CONTINUOUS
 10
-1341.09845405521
 20
1677.6624012724
  0
VERTEX
  8
51
 62
7
  6
CONTINUOUS
 10
-1318.76837323
 20
1682.87992632365
  0
VERTEX
  8
51
 62
7
  6
CONTINUOUS
 10
-1298.79940891997
 20
1689.72462469135
  0
VERTEX
  8
51
 62
7
  6
CONTINUOUS
 10
-1283.27385302511
 20
1698.95988374977
  0
VERTEX
  8
51
 62
7
  6
CONTINUOUS
 10
-1272.90285462383
 20
1710.66237727726
  0
VERTEX
  8
51
 62
7
  6
CONTINUOUS
 10
-1269.71887013925
 20
1724.14765912682
  0
VERTEX
  8
51
 62
7
  6
CONTINUOUS
 10
-1273.49145520473
 20
1742.18417639274
  0
VERTEX
  8
51
 62
7
  6
CONTINUOUS
 10
-1281.38450797926
 20
1751.714436791
  0
VERTEX
  8
51
 62
7
  6
CONTINUOUS
 10
-1298.11542201278
 20
1763.25718534251
  0
VERTEX
  8
51
 62
7
  6
CONTINUOUS
 10
-1319.77576244893
 20
1772.06001722722
  0
VERTEX
  8
51
 62
7
  6
CONTINUOUS
 10
-1345.1476324953
 20
1776.16632065864
  0
VERTEX
  8
51
 62
7
  6
CONTINUOUS
 10
-1382.45819366423
 20
1779.23917731341
  0
VERTEX
  8
51
 62
7
  6
CONTINUOUS
 10
-1558.04718713294
 20
1781.10875359583
  0
VERTEX
  8
51
 62
7
  6
CONTINUOUS
 10
-1594.5982358962
 20
1780.44730344135
  0
VERTEX
  8
51
 62
7
  6
CONTINUOUS
 10
-1622.15860040279
 20
1778.40826346515
  0
VERTEX
  8
51
 62
7
  6
CONTINUOUS
 10
-1645.93555023741
 20
1774.58870261573
  0
VERTEX
  8
51
 62
7
  6
CONTINUOUS
 10
-1663.5152906363
 20
1770.18081310848
  0
VERTEX
  8
51
 62
7
  6
CONTINUOUS
 10
-1675.07805822145
 20
1761.52711420385
  0
VERTEX
  8
51
 62
7
  6
CONTINUOUS
 10
-1682.96452744289
 20
1742.81256394851
  0
VERTEX
  8
51
 62
7
  6
CONTINUOUS
 10
-1680.17597670866
 20
1734.63190442481
  0
SEQEND
  0
POLYLINE
  8
51
 62
7
 66
1
 70
1
  0
VERTEX
  8
51
 62
7
  6
CONTINUOUS
 10
-2068.12403249546
 20
2513.2107314761
  0
VERTEX
  8
51
 62
7
  6
CONTINUOUS
 10
-2067.80071952161
 20
2502.87271379373
  0
VERTEX
  8
51
 62
7
  6
CONTINUOUS
 10
-2063.81943509167
 20
2493.0910593259
  0
VERTEX
  8
51
 62
7
  6
CONTINUOUS
 10
-2056.46150816731
 20
2480.97035484901
  0
VERTEX
  8
51
 62
7
  6
CONTINUOUS
 10
-2037.42545551295
 20
2460.02806854829
  0
VERTEX
  8
51
 62
7
  6
CONTINUOUS
 10
-2027.22129091276
 20
2450.06446841118
  0
VERTEX
  8
51
 62
7
  6
CONTINUOUS
 10
-1991.34947536548
 20
2422.45616479172
  0
VERTEX
  8
51
 62
7
  6
CONTINUOUS
 10
-1979.26271611933
 20
2416.98711148372
  0
VERTEX
  8
51
 62
7
  6
CONTINUOUS
 10
-1967.32805225668
 20
2411.97535960183
  0
VERTEX
  8
51
 62
7
  6
CONTINUOUS
 10
-1956.78837445407
 20
2409.98713771851
  0
VERTEX
  8
51
 62
7
  6
CONTINUOUS
 10
-1942.61453459129
 20
2410.94289544117
  0
VERTEX
  8
51
 62
7
  6
CONTINUOUS
 10
-1931.53739580461
 20
2415.05031685865
  0
VERTEX
  8
51
 62
7
  6
CONTINUOUS
 10
-1921.47535996569
 20
2420.50461482781
  0
VERTEX
  8
51
 62
7
  6
CONTINUOUS
 10
-1906.45342135173
 20
2436.3188108516
  0
VERTEX
  8
51
 62
7
  6
CONTINUOUS
 10
-1902.2561106517
 20
2445.79021674131
  0
VERTEX
  8
51
 62
7
  6
CONTINUOUS
 10
-1899.27742435828
 20
2456.12603465986
  0
VERTEX
  8
51
 62
7
  6
CONTINUOUS
 10
-1902.28902486846
 20
2472.63804462617
  0
VERTEX
  8
51
 62
7
  6
CONTINUOUS
 10
-1904.64800930485
 20
2477.46561723245
  0
VERTEX
  8
51
 62
7
  6
CONTINUOUS
 10
-2031.67359243815
 20
2531.99095480551
  0
VERTEX
  8
51
 62
7
  6
CONTINUOUS
 10
-2031.58625118304
 20
2532.08399451055
  0
VERTEX
  8
51
 62
7
  6
CONTINUOUS
 10
-2032.37253420514
 20
2533.76091869762
  0
VERTEX
  8
51
 62
7
  6
CONTINUOUS
 10
-2038.23859612359
 20
2535.77142706343
  0
VERTEX
  8
51
 62
7
  6
CONTINUOUS
 10
-2044.28406552229
 20
2535.36905441353
  0
VERTEX
  8
51
 62
7
  6
CONTINUOUS
 10
-2053.32752955512
 20
2533.77487873723
  0
VERTEX
  8
51
 62
7
  6
CONTINUOUS
 10
-2059.88319860492
 20
2530.07084524526
  0
VERTEX
  8
51
 62
7
  6
CONTINUOUS
 10
-2065.552406041
 20
2522.55622035464
  0
SEQEND
  0
POLYLINE
  8
51
 62
7
 66
1
 70
1
  0
VERTEX
  8
51
 62
7
  6
CONTINUOUS
 10
-1740.18676474307
 20
1626.25030891934
  0
VERTEX
  8
51
 62
7
  6
CONTINUOUS
 10
-1732.37252467836
 20
1602.04931104024
  0
VERTEX
  8
51
 62
7
  6
CONTINUOUS
 10
-1723.19434977166
 20
1578.62764427767
  0
VERTEX
  8
51
 62
7
  6
CONTINUOUS
 10
-1714.09138036676
 20
1557.73517474119
  0
VERTEX
  8
51
 62
7
  6
CONTINUOUS
 10
-1704.28201666915
 20
1539.3170237591
  0
VERTEX
  8
51
 62
7
  6
CONTINUOUS
 10
-1693.00537634954
 20
1519.91369629554
  0
VERTEX
  8
51
 62
7
  6
CONTINUOUS
 10
-1680.67454029809
 20
1501.61450268996
  0
VERTEX
  8
51
 62
7
  6
CONTINUOUS
 10
-1665.69551414996
 20
1481.009066613
  0
VERTEX
  8
51
 62
7
  6
CONTINUOUS
 10
-1651.84554171818
 20
1464.39218274712
  0
VERTEX
  8
51
 62
7
  6
CONTINUOUS
 10
-1621.10151230823
 20
1432.17643184997
  0
VERTEX
  8
51
 62
7
  6
CONTINUOUS
 10
-1588.92660902543
 20
1402.29238926105
  0
VERTEX
  8
51
 62
7
  6
CONTINUOUS
 10
-1521.65286628637
 20
1348.94373159568
  0
VERTEX
  8
51
 62
7
  6
CONTINUOUS
 10
-1521.58609389058
 20
1348.89078051046
  0
VERTEX
  8
51
 62
7
  6
CONTINUOUS
 10
-1490.23789246921
 20
1325.72664228823
  0
VERTEX
  8
51
 62
7
  6
CONTINUOUS
 10
-1462.89109758617
 20
1307.41900249655
  0
VERTEX
  8
51
 62
7
  6
CONTINUOUS
 10
-1457.32802471123
 20
1315.72876905092
  0
VERTEX
  8
51
 62
7
  6
CONTINUOUS
 10
-1484.48181761487
 20
1333.90720135291
  0
VERTEX
  8
51
 62
7
  6
CONTINUOUS
 10
-1515.50614771038
 20
1356.83202121497
  0
VERTEX
  8
51
 62
7
  6
CONTINUOUS
 10
-1582.40723845451
 20
1409.88516263735
  0
VERTEX
  8
51
 62
7
  6
CONTINUOUS
 10
-1614.07523817223
 20
1439.29839331446
  0
VERTEX
  8
51
 62
7
  6
CONTINUOUS
 10
-1644.37911097918
 20
1471.05291724331
  0
VERTEX
  8
51
 62
7
  6
CONTINUOUS
 10
-1657.80173198811
 20
1487.15707453168
  0
VERTEX
  8
51
 62
7
  6
CONTINUOUS
 10
-1672.48116950004
 20
1507.35039072638
  0
VERTEX
  8
51
 62
7
  6
CONTINUOUS
 10
-1684.5265871987
 20
1525.22601810543
  0
VERTEX
  8
51
 62
7
  6
CONTINUOUS
 10
-1695.54293288946
 20
1544.18146554645
  0
VERTEX
  8
51
 62
7
  6
CONTINUOUS
 10
-1705.08059042095
 20
1562.08945854636
  0
VERTEX
  8
51
 62
7
  6
CONTINUOUS
 10
-1713.95198703502
 20
1582.45043915185
  0
VERTEX
  8
51
 62
7
  6
CONTINUOUS
 10
-1722.95027938594
 20
1605.41306592872
  0
VERTEX
  8
51
 62
7
  6
CONTINUOUS
 10
-1730.67053676092
 20
1629.32299585293
  0
SEQEND
  0
POLYLINE
  8
51
 62
7
 66
1
 70
1
  0
VERTEX
  8
51
 62
7
  6
CONTINUOUS
 10
-1751.7041511218
 20
1773.18000641221
  0
VERTEX
  8
51
 62
7
  6
CONTINUOUS
 10
-1750.4377921985
 20
1739.43738469922
  0
VERTEX
  8
51
 62
7
  6
CONTINUOUS
 10
-1747.45672245048
 20
1706.73765485553
  0
VERTEX
  8
51
 62
7
  6
CONTINUOUS
 10
-1741.82591300364
 20
1674.56751441861
  0
VERTEX
  8
51
 62
7
  6
CONTINUOUS
 10
-1737.94554101417
 20
1658.66384470262
  0
VERTEX
  8
51
 62
7
  6
CONTINUOUS
 10
-1727.79576790098
 20
1626.9215745689
  0
VERTEX
  8
51
 62
7
  6
CONTINUOUS
 10
-1718.2708513232
 20
1629.96722132886
  0
VERTEX
  8
51
 62
7
  6
CONTINUOUS
 10
-1728.31373167298
 20
1661.37519640651
  0
VERTEX
  8
51
 62
7
  6
CONTINUOUS
 10
-1732.03261252766
 20
1676.61699615835
  0
VERTEX
  8
51
 62
7
  6
CONTINUOUS
 10
-1737.53542976543
 20
1708.05588696238
  0
VERTEX
  8
51
 62
7
  6
CONTINUOUS
 10
-1740.45484332766
 20
1740.07930233204
  0
VERTEX
  8
51
 62
7
  6
CONTINUOUS
 10
-1741.68418398168
 20
1772.83555798901
  0
VERTEX
  8
51
 62
7
  6
CONTINUOUS
 10
-1738.31525119303
 20
1804.42744294318
  0
VERTEX
  8
51
 62
7
  6
CONTINUOUS
 10
-1734.37139164066
 20
1818.68988061005
  0
VERTEX
  8
51
 62
7
  6
CONTINUOUS
 10
-1728.57196691299
 20
1831.84220903995
  0
VERTEX
  8
51
 62
7
  6
CONTINUOUS
 10
-1720.22837327734
 20
1845.53417442753
  0
VERTEX
  8
51
 62
7
  6
CONTINUOUS
 10
-1710.27812014296
 20
1856.33941104287
  0
VERTEX
  8
51
 62
7
  6
CONTINUOUS
 10
-1698.58062027252
 20
1866.51542694012
  0
VERTEX
  8
51
 62
7
  6
CONTINUOUS
 10
-1667.99082691729
 20
1885.17284694338
  0
VERTEX
  8
51
 62
7
  6
CONTINUOUS
 10
-1667.91680250009
 20
1885.21799614155
  0
VERTEX
  8
51
 62
7
  6
CONTINUOUS
 10
-1667.84438801688
 20
1885.26568478862
  0
VERTEX
  8
51
 62
7
  6
CONTINUOUS
 10
-1635.95464658805
 20
1906.26671326361
  0
VERTEX
  8
51
 62
7
  6
CONTINUOUS
 10
-1582.442108443
 20
1939.62444848831
  0
VERTEX
  8
51
 62
7
  6
CONTINUOUS
 10
-1582.35799675479
 20
1939.6768806009
  0
VERTEX
  8
51
 62
7
  6
CONTINUOUS
 10
-1582.27602906464
 20
1939.73260492499
  0
VERTEX
  8
51
 62
7
  6
CONTINUOUS
 10
-1446.34122439445
 20
2032.14554344841
  0
VERTEX
  8
51
 62
7
  6
CONTINUOUS
 10
-1343.6218628911
 20
2098.95287137531
  0
VERTEX
  8
51
 62
7
  6
CONTINUOUS
 10
-1343.56059014137
 20
2098.99272236955
  0
VERTEX
  8
51
 62
7
  6
CONTINUOUS
 10
-1324.57877430743
 20
2112.14345150718
  0
VERTEX
  8
51
 62
7
  6
CONTINUOUS
 10
-1317.69556386368
 20
2119.9339558438
  0
VERTEX
  8
51
 62
7
  6
CONTINUOUS
 10
-1325.18953308733
 20
2126.55516610138
  0
VERTEX
  8
51
 62
7
  6
CONTINUOUS
 10
-1331.27010025738
 20
2119.67310353849
  0
VERTEX
  8
51
 62
7
  6
CONTINUOUS
 10
-1349.13529903837
 20
2107.29597417353
  0
VERTEX
  8
51
 62
7
  6
CONTINUOUS
 10
-1451.87896039661
 20
2040.47284193914
  0
VERTEX
  8
51
 62
7
  6
CONTINUOUS
 10
-1587.81621601702
 20
1948.05823717937
  0
VERTEX
  8
51
 62
7
  6
CONTINUOUS
 10
-1641.29756082564
 20
1914.71994672581
  0
VERTEX
  8
51
 62
7
  6
CONTINUOUS
 10
-1641.35047917742
 20
1914.68695938437
  0
VERTEX
  8
51
 62
7
  6
CONTINUOUS
 10
-1673.27196454483
 20
1893.66502589954
  0
VERTEX
  8
51
 62
7
  6
CONTINUOUS
 10
-1704.50771187724
 20
1874.61362367761
  0
VERTEX
  8
51
 62
7
  6
CONTINUOUS
 10
-1717.25918660059
 20
1863.5207225504
  0
VERTEX
  8
51
 62
7
  6
CONTINUOUS
 10
-1728.25369027091
 20
1851.5815073343
  0
VERTEX
  8
51
 62
7
  6
CONTINUOUS
 10
-1737.45528145515
 20
1836.48155478304
  0
VERTEX
  8
51
 62
7
  6
CONTINUOUS
 10
-1743.81543052179
 20
1822.0575776964
  0
VERTEX
  8
51
 62
7
  6
CONTINUOUS
 10
-1748.17197006145
 20
1806.30273835629
  0
VERTEX
  8
51
 62
7
  6
CONTINUOUS
 10
-1748.21542103971
 20
1805.89528044822
  0
SEQEND
  0
POLYLINE
  8
51
 62
7
 66
1
 70
1
  0
VERTEX
  8
51
 62
7
  6
CONTINUOUS
 10
-2777.08405047948
 20
1923.76980417486
  0
VERTEX
  8
51
 62
7
  6
CONTINUOUS
 10
-2776.67298129718
 20
1919.8969309596
  0
VERTEX
  8
51
 62
7
  6
CONTINUOUS
 10
-2773.75082071591
 20
1917.32222663651
  0
VERTEX
  8
51
 62
7
  6
CONTINUOUS
 10
-2750.4405063
 20
1917.80032094625
  0
VERTEX
  8
51
 62
7
  6
CONTINUOUS
 10
-2730.42341811519
 20
1916.39269536892
  0
VERTEX
  8
51
 62
7
  6
CONTINUOUS
 10
-2656.39723147527
 20
1905.86841601443
  0
VERTEX
  8
51
 62
7
  6
CONTINUOUS
 10
-2648.51935495712
 20
1904.38436545249
  0
VERTEX
  8
51
 62
7
  6
CONTINUOUS
 10
-2622.66946321905
 20
1896.55225369665
  0
VERTEX
  8
51
 62
7
  6
CONTINUOUS
 10
-2598.37590520606
 20
1891.6868650783
  0
VERTEX
  8
51
 62
7
  6
CONTINUOUS
 10
-2576.76941592148
 20
1885.03465005225
  0
VERTEX
  8
51
 62
7
  6
CONTINUOUS
 10
-2542.5842265922
 20
1877.36337945955
  0
VERTEX
  8
51
 62
7
  6
CONTINUOUS
 10
-2532.39630536162
 20
1873.76595928168
  0
VERTEX
  8
51
 62
7
  6
CONTINUOUS
 10
-2515.82546297557
 20
1869.70819105505
  0
VERTEX
  8
51
 62
7
  6
CONTINUOUS
 10
-2513.44699535933
 20
1879.42121796732
  0
VERTEX
  8
51
 62
7
  6
CONTINUOUS
 10
-2529.53523244921
 20
1883.36080871141
  0
VERTEX
  8
51
 62
7
  6
CONTINUOUS
 10
-2539.81490103781
 20
1886.99062546847
  0
VERTEX
  8
51
 62
7
  6
CONTINUOUS
 10
-2574.19947604917
 20
1894.70663887377
  0
VERTEX
  8
51
 62
7
  6
CONTINUOUS
 10
-2595.9165104086
 20
1901.39288856404
  0
VERTEX
  8
51
 62
7
  6
CONTINUOUS
 10
-2620.23207768619
 20
1906.2626850845
  0
VERTEX
  8
51
 62
7
  6
CONTINUOUS
 10
-2646.13695096493
 20
1914.11145538481
  0
VERTEX
  8
51
 62
7
  6
CONTINUOUS
 10
-2654.76700638938
 20
1915.73720295431
  0
VERTEX
  8
51
 62
7
  6
CONTINUOUS
 10
-2654.87834733827
 20
1915.75303226152
  0
VERTEX
  8
51
 62
7
  6
CONTINUOUS
 10
-2729.1917254445
 20
1926.31814153522
  0
VERTEX
  8
51
 62
7
  6
CONTINUOUS
 10
-2729.36757596193
 20
1926.34314214722
  0
VERTEX
  8
51
 62
7
  6
CONTINUOUS
 10
-2750.19178353268
 20
1927.80752532492
  0
VERTEX
  8
51
 62
7
  6
CONTINUOUS
 10
-2771.11085534112
 20
1927.37847537654
  0
VERTEX
  8
51
 62
7
  6
CONTINUOUS
 10
-2771.15354226766
 20
1927.59926373183
  0
VERTEX
  8
51
 62
7
  6
CONTINUOUS
 10
-2774.76747012489
 20
1926.90055173331
  0
SEQEND
  0
POLYLINE
  8
51
 62
7
 66
1
 70
1
  0
VERTEX
  8
51
 62
7
  6
CONTINUOUS
 10
-2831.5233662835
 20
2603.98457384157
  0
VERTEX
  8
51
 62
7
  6
CONTINUOUS
 10
-2830.46675311884
 20
2588.69306654175
  0
VERTEX
  8
51
 62
7
  6
CONTINUOUS
 10
-2827.07059922857
 20
2577.5148015729
  0
VERTEX
  8
51
 62
7
  6
CONTINUOUS
 10
-2818.41730643419
 20
2565.34243412303
  0
VERTEX
  8
51
 62
7
  6
CONTINUOUS
 10
-2807.2217805971
 20
2556.52117380313
  0
VERTEX
  8
51
 62
7
  6
CONTINUOUS
 10
-2794.57750749072
 20
2549.12134865577
  0
VERTEX
  8
51
 62
7
  6
CONTINUOUS
 10
-2778.73019537795
 20
2545.68179055036
  0
VERTEX
  8
51
 62
7
  6
CONTINUOUS
 10
-2767.93546851357
 20
2545.26819910498
  0
VERTEX
  8
51
 62
7
  6
CONTINUOUS
 10
-2753.68539482518
 20
2546.27470605259
  0
VERTEX
  8
51
 62
7
  6
CONTINUOUS
 10
-2740.11951346489
 20
2549.69466933876
  0
VERTEX
  8
51
 62
7
  6
CONTINUOUS
 10
-2714.91366618201
 20
2563.26688043324
  0
VERTEX
  8
51
 62
7
  6
CONTINUOUS
 10
-2703.45190633021
 20
2572.80964682564
  0
VERTEX
  8
51
 62
7
  6
CONTINUOUS
 10
-2691.55706055846
 20
2584.28252512824
  0
VERTEX
  8
51
 62
7
  6
CONTINUOUS
 10
-2683.62480004129
 20
2595.47864320943
  0
VERTEX
  8
51
 62
7
  6
CONTINUOUS
 10
-2677.29207923989
 20
2607.66642711019
  0
VERTEX
  8
51
 62
7
  6
CONTINUOUS
 10
-2673.9309547239
 20
2620.16099073075
  0
VERTEX
  8
51
 62
7
  6
CONTINUOUS
 10
-2672.65240976935
 20
2632.98714182137
  0
VERTEX
  8
51
 62
7
  6
CONTINUOUS
 10
-2674.31957038931
 20
2646.85665554707
  0
VERTEX
  8
51
 62
7
  6
CONTINUOUS
 10
-2681.64277370498
 20
2672.97273999705
  0
VERTEX
  8
51
 62
7
  6
CONTINUOUS
 10
-2692.19752953326
 20
2690.45497536343
  0
VERTEX
  8
51
 62
7
  6
CONTINUOUS
 10
-2698.8483515604
 20
2696.42840740904
  0
VERTEX
  8
51
 62
7
  6
CONTINUOUS
 10
-2766.79692379021
 20
2691.08887297482
  0
VERTEX
  8
51
 62
7
  6
CONTINUOUS
 10
-2777.41796256025
 20
2685.33014734102
  0
VERTEX
  8
51
 62
7
  6
CONTINUOUS
 10
-2798.15312317371
 20
2672.18675800894
  0
VERTEX
  8
51
 62
7
  6
CONTINUOUS
 10
-2807.98960489019
 20
2662.16030876298
  0
VERTEX
  8
51
 62
7
  6
CONTINUOUS
 10
-2817.62452801398
 20
2649.66992469368
  0
VERTEX
  8
51
 62
7
  6
CONTINUOUS
 10
-2825.4060299272
 20
2636.00990563165
  0
VERTEX
  8
51
 62
7
  6
CONTINUOUS
 10
-2830.11506319173
 20
2620.95083940716
  0
SEQEND
  0
POLYLINE
  8
51
 62
7
 66
1
 70
1
  0
VERTEX
  8
51
 62
7
  6
CONTINUOUS
 10
-3043.58320384837
 20
2657.06155995113
  0
VERTEX
  8
51
 62
7
  6
CONTINUOUS
 10
-3040.34203887709
 20
2641.99719737221
  0
VERTEX
  8
51
 62
7
  6
CONTINUOUS
 10
-3030.52388288535
 20
2624.51545272237
  0
VERTEX
  8
51
 62
7
  6
CONTINUOUS
 10
-3019.05249365363
 20
2610.38540744662
  0
VERTEX
  8
51
 62
7
  6
CONTINUOUS
 10
-3005.11715267731
 20
2596.48232075791
  0
VERTEX
  8
51
 62
7
  6
CONTINUOUS
 10
-2990.41850893304
 20
2584.53452599739
  0
VERTEX
  8
51
 62
7
  6
CONTINUOUS
 10
-2939.18358868561
 20
2551.07398631192
  0
VERTEX
  8
51
 62
7
  6
CONTINUOUS
 10
-2890.94062218244
 20
2525.48944158786
  0
VERTEX
  8
51
 62
7
  6
CONTINUOUS
 10
-2875.22144376591
 20
2520.34816846639
  0
VERTEX
  8
51
 62
7
  6
CONTINUOUS
 10
-2858.40935489882
 20
2516.272967494
  0
VERTEX
  8
51
 62
7
  6
CONTINUOUS
 10
-2839.76630051626
 20
2515.44774746942
  0
VERTEX
  8
51
 62
7
  6
CONTINUOUS
 10
-2824.16902877224
 20
2517.95195725769
  0
VERTEX
  8
51
 62
7
  6
CONTINUOUS
 10
-2808.6976740394
 20
2522.08185129154
  0
VERTEX
  8
51
 62
7
  6
CONTINUOUS
 10
-2794.54469927327
 20
2529.84482442491
  0
VERTEX
  8
51
 62
7
  6
CONTINUOUS
 10
-2782.47364413942
 20
2538.92998480852
  0
VERTEX
  8
51
 62
7
  6
CONTINUOUS
 10
-2764.39856213874
 20
2562.46374856763
  0
VERTEX
  8
51
 62
7
  6
CONTINUOUS
 10
-2754.19614161124
 20
2588.00935747211
  0
VERTEX
  8
51
 62
7
  6
CONTINUOUS
 10
-2752.86493532934
 20
2603.6294741002
  0
VERTEX
  8
51
 62
7
  6
CONTINUOUS
 10
-2753.515656222
 20
2618.15871082895
  0
VERTEX
  8
51
 62
7
  6
CONTINUOUS
 10
-2755.8430136403
 20
2632.33346443978
  0
VERTEX
  8
51
 62
7
  6
CONTINUOUS
 10
-2763.95337988359
 20
2658.80567336991
  0
VERTEX
  8
51
 62
7
  6
CONTINUOUS
 10
-2767.68134122029
 20
2667.5711588506
  0
VERTEX
  8
51
 62
7
  6
CONTINUOUS
 10
-2774.96377885449
 20
2678.62501280043
  0
VERTEX
  8
51
 62
7
  6
CONTINUOUS
 10
-2981.65309468608
 20
2702.53711273977
  0
VERTEX
  8
51
 62
7
  6
CONTINUOUS
 10
-2995.23759061542
 20
2709.30256411466
  0
VERTEX
  8
51
 62
7
  6
CONTINUOUS
 10
-3007.2531078077
 20
2707.32936831035
  0
VERTEX
  8
51
 62
7
  6
CONTINUOUS
 10
-3020.46474294771
 20
2701.87716857744
  0
VERTEX
  8
51
 62
7
  6
CONTINUOUS
 10
-3031.23940001466
 20
2694.28974487702
  0
VERTEX
  8
51
 62
7
  6
CONTINUOUS
 10
-3039.72981739994
 20
2684.05919884937
  0
VERTEX
  8
51
 62
7
  6
CONTINUOUS
 10
-3043.49734182575
 20
2671.56490596897
  0
SEQEND
  0
POLYLINE
  8
51
 62
7
 66
1
 70
1
  0
VERTEX
  8
51
 62
7
  6
CONTINUOUS
 10
-3278.36754663783
 20
2041.44542428157
  0
VERTEX
  8
51
 62
7
  6
CONTINUOUS
 10
-3268.18120991203
 20
2039.68847673922
  0
VERTEX
  8
51
 62
7
  6
CONTINUOUS
 10
-3242.5199735025
 20
2038.23262369898
  0
VERTEX
  8
51
 62
7
  6
CONTINUOUS
 10
-3229.47319358516
 20
2039.89781645772
  0
VERTEX
  8
51
 62
7
  6
CONTINUOUS
 10
-3176.64516042736
 20
2049.20508678147
  0
VERTEX
  8
51
 62
7
  6
CONTINUOUS
 10
-3176.33545164163
 20
2049.25965143622
  0
VERTEX
  8
51
 62
7
  6
CONTINUOUS
 10
-3149.22143646876
 20
2057.64750025
  0
VERTEX
  8
51
 62
7
  6
CONTINUOUS
 10
-3131.44951551438
 20
2062.01239406247
  0
VERTEX
  8
51
 62
7
  6
CONTINUOUS
 10
-3127.75824743054
 20
2064.1445575812
  0
VERTEX
  8
51
 62
7
  6
CONTINUOUS
 10
-3132.76002237997
 20
2072.80378660897
  0
VERTEX
  8
51
 62
7
  6
CONTINUOUS
 10
-3135.21792190855
 20
2071.38404586175
  0
VERTEX
  8
51
 62
7
  6
CONTINUOUS
 10
-3151.89404501211
 20
2067.28828678553
  0
VERTEX
  8
51
 62
7
  6
CONTINUOUS
 10
-3152.03542233412
 20
2067.2445510424
  0
VERTEX
  8
51
 62
7
  6
CONTINUOUS
 10
-3178.689952068
 20
2058.99884622205
  0
VERTEX
  8
51
 62
7
  6
CONTINUOUS
 10
-3230.97460693841
 20
2049.78730856723
  0
VERTEX
  8
51
 62
7
  6
CONTINUOUS
 10
-3242.87275356491
 20
2048.26871871361
  0
VERTEX
  8
51
 62
7
  6
CONTINUOUS
 10
-3267.04444475817
 20
2049.64006456577
  0
VERTEX
  8
51
 62
7
  6
CONTINUOUS
 10
-3276.66783618713
 20
2051.29991485104
  0
SEQEND
  0
POLYLINE
  8
51
 62
7
 66
1
 70
1
  0
VERTEX
  8
51
 62
7
  6
CONTINUOUS
 10
-3273.5976936811
 20
1952.30061719274
  0
VERTEX
  8
51
 62
7
  6
CONTINUOUS
 10
-3269.07216705311
 20
1943.38324040697
  0
VERTEX
  8
51
 62
7
  6
CONTINUOUS
 10
-3259.63409926015
 20
1948.17301526341
  0
VERTEX
  8
51
 62
7
  6
CONTINUOUS
 10
-3248.61567925733
 20
1955.71048588345
  0
VERTEX
  8
51
 62
7
  6
CONTINUOUS
 10
-3237.03797856937
 20
1961.338124899
  0
VERTEX
  8
51
 62
7
  6
CONTINUOUS
 10
-3224.06757368305
 20
1969.71997255112
  0
VERTEX
  8
51
 62
7
  6
CONTINUOUS
 10
-3211.45065670152
 20
1975.37615508911
  0
VERTEX
  8
51
 62
7
  6
CONTINUOUS
 10
-3201.00735574935
 20
1981.42095087154
  0
VERTEX
  8
51
 62
7
  6
CONTINUOUS
 10
-3189.39374991557
 20
1986.14434821991
  0
VERTEX
  8
51
 62
7
  6
CONTINUOUS
 10
-3178.39857625455
 20
1993.01566427381
  0
VERTEX
  8
51
 62
7
  6
CONTINUOUS
 10
-3168.01720953506
 20
1997.19485916733
  0
VERTEX
  8
51
 62
7
  6
CONTINUOUS
 10
-3134.31944828545
 20
2013.27019210606
  0
VERTEX
  8
51
 62
7
  6
CONTINUOUS
 10
-3126.11823821515
 20
2018.47687276837
  0
VERTEX
  8
51
 62
7
  6
CONTINUOUS
 10
-3113.09316057724
 20
2024.45163197043
  0
VERTEX
  8
51
 62
7
  6
CONTINUOUS
 10
-3111.56093803355
 20
2027.91778924298
  0
VERTEX
  8
51
 62
7
  6
CONTINUOUS
 10
-3112.71078312986
 20
2031.52885673278
  0
VERTEX
  8
51
 62
7
  6
CONTINUOUS
 10
-3115.96509046669
 20
2033.47087524939
  0
VERTEX
  8
51
 62
7
  6
CONTINUOUS
 10
-3122.12024242763
 20
2032.30964967881
  0
VERTEX
  8
51
 62
7
  6
CONTINUOUS
 10
-3121.94713833354
 20
2031.39210012497
  0
VERTEX
  8
51
 62
7
  6
CONTINUOUS
 10
-3130.90477970835
 20
2027.28312268001
  0
VERTEX
  8
51
 62
7
  6
CONTINUOUS
 10
-3139.16973754485
 20
2022.03597064109
  0
VERTEX
  8
51
 62
7
  6
CONTINUOUS
 10
-3172.04114694561
 20
2006.35484433812
  0
VERTEX
  8
51
 62
7
  6
CONTINUOUS
 10
-3182.95069488874
 20
2001.96302115274
  0
VERTEX
  8
51
 62
7
  6
CONTINUOUS
 10
-3193.9610876696
 20
1995.08219407285
  0
VERTEX
  8
51
 62
7
  6
CONTINUOUS
 10
-3205.41693758425
 20
1990.42295801088
  0
VERTEX
  8
51
 62
7
  6
CONTINUOUS
 10
-3216.01295417
 20
1984.28976730217
  0
VERTEX
  8
51
 62
7
  6
CONTINUOUS
 10
-3228.85444610788
 20
1978.5329074792
  0
VERTEX
  8
51
 62
7
  6
CONTINUOUS
 10
-3241.95567115536
 20
1970.06652008678
  0
VERTEX
  8
51
 62
7
  6
CONTINUOUS
 10
-3253.65191218648
 20
1964.38126149044
  0
VERTEX
  8
51
 62
7
  6
CONTINUOUS
 10
-3264.74157235105
 20
1956.79505696609
  0
SEQEND
  0
POLYLINE
  8
51
 62
7
 66
1
 70
1
  0
VERTEX
  8
51
 62
7
  6
CONTINUOUS
 10
-3059.61670382431
 20
1322.14007729508
  0
VERTEX
  8
51
 62
7
  6
CONTINUOUS
 10
-3058.24587080969
 20
1318.55838365016
  0
VERTEX
  8
51
 62
7
  6
CONTINUOUS
 10
-3050.93105717408
 20
1316.75341714732
  0
VERTEX
  8
51
 62
7
  6
CONTINUOUS
 10
-3027.79186440148
 20
1315.78326188554
  0
VERTEX
  8
51
 62
7
  6
CONTINUOUS
 10
-3016.03116968668
 20
1318.09214339517
  0
VERTEX
  8
51
 62
7
  6
CONTINUOUS
 10
-3015.72562993669
 20
1321.54647804328
  0
VERTEX
  8
51
 62
7
  6
CONTINUOUS
 10
-3020.70335533823
 20
1324.69714409142
  0
VERTEX
  8
51
 62
7
  6
CONTINUOUS
 10
-3027.66269408795
 20
1325.91783445621
  0
VERTEX
  8
51
 62
7
  6
CONTINUOUS
 10
-3053.51980646481
 20
1326.32977174548
  0
SEQEND
  0
POLYLINE
  8
51
 62
7
 66
1
 70
1
  0
VERTEX
  8
51
 62
7
  6
CONTINUOUS
 10
-2056.91346217524
 20
945.956828079687
  0
VERTEX
  8
51
 62
7
  6
CONTINUOUS
 10
-2051.13031260461
 20
908.363588760847
  0
VERTEX
  8
51
 62
7
  6
CONTINUOUS
 10
-2041.96826686958
 20
874.020825928644
  0
VERTEX
  8
51
 62
7
  6
CONTINUOUS
 10
-2025.03557279621
 20
831.49759883077
  0
VERTEX
  8
51
 62
7
  6
CONTINUOUS
 10
-2015.87020903353
 20
812.648835643289
  0
VERTEX
  8
51
 62
7
  6
CONTINUOUS
 10
-1986.72201902666
 20
761.232992402875
  0
VERTEX
  8
51
 62
7
  6
CONTINUOUS
 10
-1977.40344479842
 20
746.168796492276
  0
VERTEX
  8
51
 62
7
  6
CONTINUOUS
 10
-1959.78140969816
 20
720.180822151726
  0
VERTEX
  8
51
 62
7
  6
CONTINUOUS
 10
-1948.45605601609
 20
705.954396510131
  0
VERTEX
  8
51
 62
7
  6
CONTINUOUS
 10
-1943.80880257646
 20
701.533801203179
  0
VERTEX
  8
51
 62
7
  6
CONTINUOUS
 10
-1941.37142523761
 20
696.758079131275
  0
VERTEX
  8
51
 62
7
  6
CONTINUOUS
 10
-1830.32975687378
 20
782.052901603072
  0
VERTEX
  8
51
 62
7
  6
CONTINUOUS
 10
-1829.46511797018
 20
786.904116552584
  0
VERTEX
  8
51
 62
7
  6
CONTINUOUS
 10
-1830.60650244526
 20
794.448161152136
  0
VERTEX
  8
51
 62
7
  6
CONTINUOUS
 10
-1837.30733194684
 20
816.7253966402
  0
VERTEX
  8
51
 62
7
  6
CONTINUOUS
 10
-1844.03532381006
 20
830.773037756359
  0
VERTEX
  8
51
 62
7
  6
CONTINUOUS
 10
-1852.16057673195
 20
843.601778066901
  0
VERTEX
  8
51
 62
7
  6
CONTINUOUS
 10
-1861.60666225989
 20
856.278401229196
  0
VERTEX
  8
51
 62
7
  6
CONTINUOUS
 10
-1903.15034570958
 20
906.325298923175
  0
VERTEX
  8
51
 62
7
  6
CONTINUOUS
 10
-1912.72304503795
 20
920.805349241065
  0
VERTEX
  8
51
 62
7
  6
CONTINUOUS
 10
-1920.69544649399
 20
935.742256866929
  0
VERTEX
  8
51
 62
7
  6
CONTINUOUS
 10
-1928.79394500846
 20
954.895591593058
  0
VERTEX
  8
51
 62
7
  6
CONTINUOUS
 10
-1939.78541623136
 20
986.317746128289
  0
VERTEX
  8
51
 62
7
  6
CONTINUOUS
 10
-1948.87219754315
 20
1016.2916927425
  0
VERTEX
  8
51
 62
7
  6
CONTINUOUS
 10
-1960.06760851838
 20
1044.25949087206
  0
VERTEX
  8
51
 62
7
  6
CONTINUOUS
 10
-1976.14181563775
 20
1062.90653357816
  0
VERTEX
  8
51
 62
7
  6
CONTINUOUS
 10
-1984.87789784771
 20
1069.99500456568
  0
VERTEX
  8
51
 62
7
  6
CONTINUOUS
 10
-1994.80898757478
 20
1071.44493133381
  0
VERTEX
  8
51
 62
7
  6
CONTINUOUS
 10
-2004.91860617597
 20
1069.49129625571
  0
VERTEX
  8
51
 62
7
  6
CONTINUOUS
 10
-2024.20040953437
 20
1054.53482509545
  0
VERTEX
  8
51
 62
7
  6
CONTINUOUS
 10
-2033.98153611147
 20
1044.60551948816
  0
VERTEX
  8
51
 62
7
  6
CONTINUOUS
 10
-2042.64566104704
 20
1031.8819746118
  0
VERTEX
  8
51
 62
7
  6
CONTINUOUS
 10
-2049.30430654288
 20
1013.92560014364
  0
VERTEX
  8
51
 62
7
  6
CONTINUOUS
 10
-2054.18455500404
 20
997.823044875696
  0
VERTEX
  8
51
 62
7
  6
CONTINUOUS
 10
-2056.34703616387
 20
981.56750759656
  0
SEQEND
  0
POLYLINE
  8
51
 62
7
 66
1
 70
1
  0
VERTEX
  8
51
 62
7
  6
CONTINUOUS
 10
-1878.67432199053
 20
2423.54950182248
  0
VERTEX
  8
51
 62
7
  6
CONTINUOUS
 10
-1876.14104029444
 20
2413.46401193411
  0
VERTEX
  8
51
 62
7
  6
CONTINUOUS
 10
-1869.74511503773
 20
2406.14454939984
  0
VERTEX
  8
51
 62
7
  6
CONTINUOUS
 10
-1861.5182411868
 20
2402.04966781901
  0
VERTEX
  8
51
 62
7
  6
CONTINUOUS
 10
-1852.8553201954
 20
2404.32989716203
  0
VERTEX
  8
51
 62
7
  6
CONTINUOUS
 10
-1842.86872288286
 20
2410.92724564133
  0
VERTEX
  8
51
 62
7
  6
CONTINUOUS
 10
-1833.46280581858
 20
2422.80818213725
  0
VERTEX
  8
51
 62
7
  6
CONTINUOUS
 10
-1824.86752265264
 20
2437.94085939204
  0
VERTEX
  8
51
 62
7
  6
CONTINUOUS
 10
-1807.97791512706
 20
2473.97221567728
  0
VERTEX
  8
51
 62
7
  6
CONTINUOUS
 10
-1803.21644051157
 20
2491.49504751252
  0
VERTEX
  8
51
 62
7
  6
CONTINUOUS
 10
-1801.52976967867
 20
2506.91172728807
  0
VERTEX
  8
51
 62
7
  6
CONTINUOUS
 10
-1802.02919048705
 20
2519.78986285562
  0
VERTEX
  8
51
 62
7
  6
CONTINUOUS
 10
-1805.24916885774
 20
2528.52960991674
  0
VERTEX
  8
51
 62
7
  6
CONTINUOUS
 10
-1813.72914582552
 20
2533.97086041144
  0
VERTEX
  8
51
 62
7
  6
CONTINUOUS
 10
-1820.20585672682
 20
2534.40697523696
  0
VERTEX
  8
51
 62
7
  6
CONTINUOUS
 10
-1828.25990546768
 20
2531.03414002606
  0
VERTEX
  8
51
 62
7
  6
CONTINUOUS
 10
-1834.76946171781
 20
2520.29427425285
  0
VERTEX
  8
51
 62
7
  6
CONTINUOUS
 10
-1833.83062643818
 20
2518.8458484875
  0
VERTEX
  8
51
 62
7
  6
CONTINUOUS
 10
-1828.33874516736
 20
2527.07179166912
  0
VERTEX
  8
51
 62
7
  6
CONTINUOUS
 10
-1841.12807323012
 20
2507.3699074368
  0
VERTEX
  8
51
 62
7
  6
CONTINUOUS
 10
-1863.17442109183
 20
2470.52918634774
  0
VERTEX
  8
51
 62
7
  6
CONTINUOUS
 10
-1874.64519997529
 20
2447.44822295954
  0
VERTEX
  8
51
 62
7
  6
CONTINUOUS
 10
-1877.90418303349
 20
2435.76639147357
  0
SEQEND
  0
POLYLINE
  8
51
 62
7
 66
1
 70
1
  0
VERTEX
  8
51
 62
7
  6
CONTINUOUS
 10
-1571.15553016948
 20
1778.19648561425
  0
VERTEX
  8
51
 62
7
  6
CONTINUOUS
 10
-1112.3431960203
 20
1991.51974861767
  0
VERTEX
  8
51
 62
7
  6
CONTINUOUS
 10
-1120.74899443758
 20
1989.30067552414
  0
VERTEX
  8
51
 62
7
  6
CONTINUOUS
 10
-1142.03684635213
 20
1985.32705642505
  0
VERTEX
  8
51
 62
7
  6
CONTINUOUS
 10
-1201.84007491105
 20
1967.89169294925
  0
VERTEX
  8
51
 62
7
  6
CONTINUOUS
 10
-1236.95127698786
 20
1955.29128093204
  0
VERTEX
  8
51
 62
7
  6
CONTINUOUS
 10
-1274.07134606824
 20
1939.28860644966
  0
VERTEX
  8
51
 62
7
  6
CONTINUOUS
 10
-1353.16834871949
 20
1899.08229126614
  0
VERTEX
  8
51
 62
7
  6
CONTINUOUS
 10
-1465.5286316465
 20
1836.85093090453
  0
VERTEX
  8
51
 62
7
  6
CONTINUOUS
 10
-1498.81372460948
 20
1820.21070145278
  0
SEQEND
  0
POLYLINE
  8
51
 62
7
 66
1
 70
1
  0
VERTEX
  8
51
 62
7
  6
CONTINUOUS
 10
-1396.40477775944
 20
1961.66328817269
  0
VERTEX
  8
51
 62
7
  6
CONTINUOUS
 10
-1383.81709022509
 20
1950.81712067271
  0
VERTEX
  8
51
 62
7
  6
CONTINUOUS
 10
-1259.78097812787
 20
1848.27086613286
  0
VERTEX
  8
51
 62
7
  6
CONTINUOUS
 10
-1202.53434757861
 20
1802.66511880293
  0
SEQEND
  0
POLYLINE
  8
51
 62
7
 66
1
 70
1
  0
VERTEX
  8
51
 62
7
  6
CONTINUOUS
 10
-3243.12049332111
 20
1259.60117547935
  0
VERTEX
  8
51
 62
7
  6
CONTINUOUS
 10
-3239.7712942739
 20
1242.78565786549
  0
VERTEX
  8
51
 62
7
  6
CONTINUOUS
 10
-3237.46111818955
 20
1237.07016301208
  0
VERTEX
  8
51
 62
7
  6
CONTINUOUS
 10
-3234.33733709419
 20
1235.11369401201
  0
VERTEX
  8
51
 62
7
  6
CONTINUOUS
 10
-3231.31450326974
 20
1236.2052466996
  0
VERTEX
  8
51
 62
7
  6
CONTINUOUS
 10
-3229.05263594381
 20
1242.12296245823
  0
VERTEX
  8
51
 62
7
  6
CONTINUOUS
 10
-3228.69499618087
 20
1251.64788608836
  0
VERTEX
  8
51
 62
7
  6
CONTINUOUS
 10
-3230.29292791872
 20
1262.24002852704
  0
VERTEX
  8
51
 62
7
  6
CONTINUOUS
 10
-3232.62780776062
 20
1271.20672874528
  0
VERTEX
  8
51
 62
7
  6
CONTINUOUS
 10
-3235.776466674
 20
1275.60160312883
  0
VERTEX
  8
51
 62
7
  6
CONTINUOUS
 10
-3238.4435427643
 20
1275.24657427289
  0
VERTEX
  8
51
 62
7
  6
CONTINUOUS
 10
-3242.56015942607
 20
1266.76385564853
  0
VERTEX
  8
51
 62
7
  6
CONTINUOUS
 10
-3242.56083934976
 20
1263.58885572134
  0
VERTEX
  8
51
 62
7
  6
CONTINUOUS
 10
-3243.11943264015
 20
1264.55417536577
  0
SEQEND
  0
POLYLINE
  8
51
 62
7
 66
1
 70
1
  0
VERTEX
  8
51
 62
7
  6
CONTINUOUS
 10
-3148.11979935625
 20
1400.11903437917
  0
VERTEX
  8
51
 62
7
  6
CONTINUOUS
 10
-3136.00771473715
 20
1382.76824018814
  0
VERTEX
  8
51
 62
7
  6
CONTINUOUS
 10
-3131.99434076871
 20
1383.58018074595
  0
VERTEX
  8
51
 62
7
  6
CONTINUOUS
 10
-3128.2086366594
 20
1388.73557015867
  0
VERTEX
  8
51
 62
7
  6
CONTINUOUS
 10
-3127.9278333033
 20
1395.28871017512
  0
VERTEX
  8
51
 62
7
  6
CONTINUOUS
 10
-3131.15200685185
 20
1402.88400080345
  0
VERTEX
  8
51
 62
7
  6
CONTINUOUS
 10
-3136.18036907053
 20
1406.79667771289
  0
VERTEX
  8
51
 62
7
  6
CONTINUOUS
 10
-3140.93017440101
 20
1406.77229487933
  0
VERTEX
  8
51
 62
7
  6
CONTINUOUS
 10
-3145.90921069544
 20
1403.80156106783
  0
SEQEND
  0
POLYLINE
  8
51
 62
7
 66
1
 70
1
  0
VERTEX
  8
51
 62
7
  6
CONTINUOUS
 10
-3193.45059027776
 20
1438.45734281069
  0
VERTEX
  8
51
 62
7
  6
CONTINUOUS
 10
-3191.54606354833
 20
1436.24713490715
  0
VERTEX
  8
51
 62
7
  6
CONTINUOUS
 10
-3187.17872140492
 20
1429.43899948823
  0
VERTEX
  8
51
 62
7
  6
CONTINUOUS
 10
-3181.00679351592
 20
1428.16767774568
  0
VERTEX
  8
51
 62
7
  6
CONTINUOUS
 10
-3174.27562504919
 20
1428.95363628939
  0
VERTEX
  8
51
 62
7
  6
CONTINUOUS
 10
-3170.03256864746
 20
1434.82012777679
  0
VERTEX
  8
51
 62
7
  6
CONTINUOUS
 10
-3169.98028913466
 20
1441.72891673959
  0
VERTEX
  8
51
 62
7
  6
CONTINUOUS
 10
-3173.71279447432
 20
1447.77491619124
  0
VERTEX
  8
51
 62
7
  6
CONTINUOUS
 10
-3179.173011077
 20
1451.43368557613
  0
VERTEX
  8
51
 62
7
  6
CONTINUOUS
 10
-3184.48171974307
 20
1450.9268224202
  0
VERTEX
  8
51
 62
7
  6
CONTINUOUS
 10
-3193.06894299913
 20
1441.47986115054
  0
SEQEND
  0
POLYLINE
  8
51
 62
7
 66
1
 70
1
  0
VERTEX
  8
51
 62
7
  6
CONTINUOUS
 10
-1556.15889666924
 20
1394.09906086709
  0
VERTEX
  8
51
 62
7
  6
CONTINUOUS
 10
-1152.97092055092
 20
1576.99432267993
  0
VERTEX
  8
51
 62
7
  6
CONTINUOUS
 10
-1191.35238119953
 20
1567.37594181832
  0
VERTEX
  8
51
 62
7
  6
CONTINUOUS
 10
-1247.54123225645
 20
1548.46497418198
  0
VERTEX
  8
51
 62
7
  6
CONTINUOUS
 10
-1281.19888046746
 20
1536.10238165681
  0
VERTEX
  8
51
 62
7
  6
CONTINUOUS
 10
-1357.81232272038
 20
1503.22578761001
  0
VERTEX
  8
51
 62
7
  6
CONTINUOUS
 10
-1434.24901477957
 20
1465.4469555999
  0
VERTEX
  8
51
 62
7
  6
CONTINUOUS
 10
-1503.34507981012
 20
1427.79355160328
  0
VERTEX
  8
51
 62
7
  6
CONTINUOUS
 10
-1527.55438514653
 20
1413.29533567411
  0
SEQEND
  0
POLYLINE
  8
51
 62
7
 66
1
 70
1
  0
VERTEX
  8
51
 62
7
  6
CONTINUOUS
 10
-1595.86296470447
 20
1613.25876848664
  0
VERTEX
  8
51
 62
7
  6
CONTINUOUS
 10
-1582.45444663105
 20
1600.73369677608
  0
VERTEX
  8
51
 62
7
  6
CONTINUOUS
 10
-1553.55413186569
 20
1577.91830727375
  0
VERTEX
  8
51
 62
7
  6
CONTINUOUS
 10
-1520.15839796068
 20
1553.32395504024
  0
VERTEX
  8
51
 62
7
  6
CONTINUOUS
 10
-1440.38866728072
 20
1498.82387116687
  0
VERTEX
  8
51
 62
7
  6
CONTINUOUS
 10
-1396.57978215928
 20
1470.26488887449
  0
VERTEX
  8
51
 62
7
  6
CONTINUOUS
 10
-1286.04130141811
 20
1404.90186786393
  0
SEQEND
  0
POLYLINE
  8
51
 62
7
 66
1
 70
1
  0
VERTEX
  8
51
 62
7
  6
CONTINUOUS
 10
-3239.74493741484
 20
1746.87061859209
  0
VERTEX
  8
51
 62
7
  6
CONTINUOUS
 10
-3225.57693538681
 20
1739.06337825931
  0
VERTEX
  8
51
 62
7
  6
CONTINUOUS
 10
-3203.50740303292
 20
1734.45127470443
  0
VERTEX
  8
51
 62
7
  6
CONTINUOUS
 10
-3179.3025621052
 20
1732.40314919443
  0
VERTEX
  8
51
 62
7
  6
CONTINUOUS
 10
-3167.69476468103
 20
1732.39541617855
  0
VERTEX
  8
51
 62
7
  6
CONTINUOUS
 10
-3156.77242867948
 20
1732.89613992396
  0
VERTEX
  8
51
 62
7
  6
CONTINUOUS
 10
-3147.11948323074
 20
1734.31210952947
  0
VERTEX
  8
51
 62
7
  6
CONTINUOUS
 10
-3141.1999308432
 20
1736.34016642495
  0
VERTEX
  8
51
 62
7
  6
CONTINUOUS
 10
-3140.05295460071
 20
1742.30840364369
  0
VERTEX
  8
51
 62
7
  6
CONTINUOUS
 10
-3142.64126660056
 20
1746.04392878368
  0
VERTEX
  8
51
 62
7
  6
CONTINUOUS
 10
-3163.00480285957
 20
1756.9540972163
  0
VERTEX
  8
51
 62
7
  6
CONTINUOUS
 10
-3176.28732470699
 20
1759.47754647735
  0
VERTEX
  8
51
 62
7
  6
CONTINUOUS
 10
-3193.15210874394
 20
1760.70798192353
  0
VERTEX
  8
51
 62
7
  6
CONTINUOUS
 10
-3217.35881101027
 20
1759.96210805353
  0
VERTEX
  8
51
 62
7
  6
CONTINUOUS
 10
-3229.19637595066
 20
1758.21739374967
  0
VERTEX
  8
51
 62
7
  6
CONTINUOUS
 10
-3235.34539127174
 20
1754.89408943299
  0
VERTEX
  8
51
 62
7
  6
CONTINUOUS
 10
-3239.05707317329
 20
1749.96896103043
  0
SEQEND
  0
POLYLINE
  8
51
 62
7
 66
1
 70
1
  0
VERTEX
  8
51
 62
7
  6
CONTINUOUS
 10
-1031.33107872314
 20
1925.56169646342
  0
VERTEX
  8
51
 62
7
  6
CONTINUOUS
 10
-873.790315581066
 20
2016.71896439903
  0
VERTEX
  8
51
 62
7
  6
CONTINUOUS
 10
-917.871793691916
 20
1998.00312694502
  0
VERTEX
  8
51
 62
7
  6
CONTINUOUS
 10
-960.660494885544
 20
1975.34942738039
  0
VERTEX
  8
51
 62
7
  6
CONTINUOUS
 10
-982.538621402845
 20
1962.25759949374
  0
VERTEX
  8
51
 62
7
  6
CONTINUOUS
 10
-1004.59568160512
 20
1947.46409043355
  0
SEQEND
  0
POLYLINE
  8
51
 62
7
 66
1
 70
1
  0
VERTEX
  8
51
 62
7
  6
CONTINUOUS
 10
-3108.88190981627
 20
779.505014956777
  0
VERTEX
  8
51
 62
7
  6
CONTINUOUS
 10
-3104.21211205675
 20
761.749414516207
  0
VERTEX
  8
51
 62
7
  6
CONTINUOUS
 10
-3099.36289880261
 20
751.537575826932
  0
VERTEX
  8
51
 62
7
  6
CONTINUOUS
 10
-3093.49744079922
 20
742.468519535864
  0
VERTEX
  8
51
 62
7
  6
CONTINUOUS
 10
-3075.94825503324
 20
732.126961154711
  0
VERTEX
  8
51
 62
7
  6
CONTINUOUS
 10
-3067.28658326236
 20
733.395106293744
  0
VERTEX
  8
51
 62
7
  6
CONTINUOUS
 10
-3045.4398967048
 20
745.93802813099
  0
VERTEX
  8
51
 62
7
  6
CONTINUOUS
 10
-3032.96654424991
 20
755.053957181617
  0
VERTEX
  8
51
 62
7
  6
CONTINUOUS
 10
-3019.04558220685
 20
763.280576207424
  0
VERTEX
  8
51
 62
7
  6
CONTINUOUS
 10
-2989.68069707909
 20
774.882088006904
  0
VERTEX
  8
51
 62
7
  6
CONTINUOUS
 10
-2973.62685852377
 20
779.730050201448
  0
VERTEX
  8
51
 62
7
  6
CONTINUOUS
 10
-2951.22345526523
 20
782.544652595191
  0
VERTEX
  8
51
 62
7
  6
CONTINUOUS
 10
-2939.93372427651
 20
782.852521685836
  0
VERTEX
  8
51
 62
7
  6
CONTINUOUS
 10
-2772.43821716363
 20
757.487365305634
  0
VERTEX
  8
51
 62
7
  6
CONTINUOUS
 10
-2762.4526340922
 20
773.284027263263
  0
VERTEX
  8
51
 62
7
  6
CONTINUOUS
 10
-2753.40592086361
 20
793.424290378713
  0
VERTEX
  8
51
 62
7
  6
CONTINUOUS
 10
-2749.51715356084
 20
805.412257877204
  0
VERTEX
  8
51
 62
7
  6
CONTINUOUS
 10
-2745.75484775559
 20
819.914852514984
  0
VERTEX
  8
51
 62
7
  6
CONTINUOUS
 10
-2743.31354317747
 20
833.47793002257
  0
VERTEX
  8
51
 62
7
  6
CONTINUOUS
 10
-2742.11686032836
 20
846.939674062577
  0
VERTEX
  8
51
 62
7
  6
CONTINUOUS
 10
-2741.78284188445
 20
864.770402941652
  0
VERTEX
  8
51
 62
7
  6
CONTINUOUS
 10
-2743.04969788815
 20
879.451874574491
  0
VERTEX
  8
51
 62
7
  6
CONTINUOUS
 10
-2746.19650740908
 20
892.482748760016
  0
VERTEX
  8
51
 62
7
  6
CONTINUOUS
 10
-2750.74046376149
 20
904.828122127694
  0
VERTEX
  8
51
 62
7
  6
CONTINUOUS
 10
-2757.72318993648
 20
915.446817716375
  0
VERTEX
  8
51
 62
7
  6
CONTINUOUS
 10
-2773.51906862201
 20
929.090000703932
  0
VERTEX
  8
51
 62
7
  6
CONTINUOUS
 10
-2782.0781558657
 20
932.419233701923
  0
VERTEX
  8
51
 62
7
  6
CONTINUOUS
 10
-2795.71752040177
 20
934.454154607533
  0
VERTEX
  8
51
 62
7
  6
CONTINUOUS
 10
-2828.48369371092
 20
933.648371438727
  0
VERTEX
  8
51
 62
7
  6
CONTINUOUS
 10
-2845.32452429396
 20
930.705577821578
  0
VERTEX
  8
51
 62
7
  6
CONTINUOUS
 10
-2875.2728914089
 20
922.456991051178
  0
VERTEX
  8
51
 62
7
  6
CONTINUOUS
 10
-2892.87579812593
 20
919.158760623871
  0
VERTEX
  8
51
 62
7
  6
CONTINUOUS
 10
-2931.89214997218
 20
910.048515735353
  0
VERTEX
  8
51
 62
7
  6
CONTINUOUS
 10
-2965.85310234408
 20
904.670988322693
  0
VERTEX
  8
51
 62
7
  6
CONTINUOUS
 10
-3001.11051536723
 20
894.340738432473
  0
VERTEX
  8
51
 62
7
  6
CONTINUOUS
 10
-3034.08225480618
 20
882.485999032137
  0
VERTEX
  8
51
 62
7
  6
CONTINUOUS
 10
-3045.41162819716
 20
877.941825104142
  0
VERTEX
  8
51
 62
7
  6
CONTINUOUS
 10
-3059.78973583583
 20
869.969303981524
  0
VERTEX
  8
51
 62
7
  6
CONTINUOUS
 10
-3075.38763090063
 20
859.253844012508
  0
VERTEX
  8
51
 62
7
  6
CONTINUOUS
 10
-3086.26093569512
 20
849.426372296644
  0
VERTEX
  8
51
 62
7
  6
CONTINUOUS
 10
-3098.98985468838
 20
832.99529780765
  0
VERTEX
  8
51
 62
7
  6
CONTINUOUS
 10
-3105.46962862855
 20
820.042685149028
  0
VERTEX
  8
51
 62
7
  6
CONTINUOUS
 10
-3108.26621771392
 20
807.952883759114
  0
SEQEND
  0
POLYLINE
  8
52
 62
7
 66
1
 70
1
  0
VERTEX
  8
52
 62
7
  6
CONTINUOUS
 10
-1433.47266527819
 20
1647.95513358011
  0
VERTEX
  8
52
 62
7
  6
CONTINUOUS
 10
-1432.30732828554
 20
1643.35695622233
  0
VERTEX
  8
52
 62
7
  6
CONTINUOUS
 10
-1429.87214386606
 20
1638.52933285227
  0
VERTEX
  8
52
 62
7
  6
CONTINUOUS
 10
-1426.54635212414
 20
1636.11411670265
  0
VERTEX
  8
52
 62
7
  6
CONTINUOUS
 10
-1422.73554074911
 20
1637.33077824308
  0
VERTEX
  8
52
 62
7
  6
CONTINUOUS
 10
-1419.09882357866
 20
1644.11015699797
  0
VERTEX
  8
52
 62
7
  6
CONTINUOUS
 10
-1418.24994644952
 20
1660.13699503982
  0
VERTEX
  8
52
 62
7
  6
CONTINUOUS
 10
-1419.51283923844
 20
1670.80583873555
  0
VERTEX
  8
52
 62
7
  6
CONTINUOUS
 10
-1421.89482085025
 20
1679.24022746272
  0
VERTEX
  8
52
 62
7
  6
CONTINUOUS
 10
-1424.48357280286
 20
1682.31535274925
  0
VERTEX
  8
52
 62
7
  6
CONTINUOUS
 10
-1427.5572936248
 20
1681.83480032882
  0
VERTEX
  8
52
 62
7
  6
CONTINUOUS
 10
-1430.81116646245
 20
1677.82376714066
  0
VERTEX
  8
52
 62
7
  6
CONTINUOUS
 10
-1432.38891041226
 20
1673.40521723952
  0
VERTEX
  8
52
 62
7
  6
CONTINUOUS
 10
-1430.15256026257
 20
1675.13092778536
  0
VERTEX
  8
52
 62
7
  6
CONTINUOUS
 10
-1433.05717865167
 20
1661.59465981321
  0
SEQEND
  0
POLYLINE
  8
52
 62
7
 66
1
 70
1
  0
VERTEX
  8
52
 62
7
  6
CONTINUOUS
 10
-1317.14372514316
 20
2365.40079997739
  0
VERTEX
  8
52
 62
7
  6
CONTINUOUS
 10
-1287.5316962174
 20
2320.70246278121
  0
VERTEX
  8
52
 62
7
  6
CONTINUOUS
 10
-1277.15267595592
 20
2306.31914517601
  0
VERTEX
  8
52
 62
7
  6
CONTINUOUS
 10
-1255.98649263335
 20
2280.1684386449
  0
VERTEX
  8
52
 62
7
  6
CONTINUOUS
 10
-1243.72682367083
 20
2267.35866851699
  0
VERTEX
  8
52
 62
7
  6
CONTINUOUS
 10
-1232.93842535775
 20
2257.44547917962
  0
VERTEX
  8
52
 62
7
  6
CONTINUOUS
 10
-1221.84240126186
 20
2251.77388584586
  0
VERTEX
  8
52
 62
7
  6
CONTINUOUS
 10
-1211.27889714209
 20
2247.42344756546
  0
VERTEX
  8
52
 62
7
  6
CONTINUOUS
 10
-1204.74944030714
 20
2249.90829824924
  0
VERTEX
  8
52
 62
7
  6
CONTINUOUS
 10
-1202.78939350485
 20
2256.28239389748
  0
VERTEX
  8
52
 62
7
  6
CONTINUOUS
 10
-1204.61051084693
 20
2267.81520966929
  0
VERTEX
  8
52
 62
7
  6
CONTINUOUS
 10
-1217.87337019006
 20
2299.85345238086
  0
VERTEX
  8
52
 62
7
  6
CONTINUOUS
 10
-1235.63216390564
 20
2331.69149020056
  0
VERTEX
  8
52
 62
7
  6
CONTINUOUS
 10
-1246.77144110823
 20
2348.69151486302
  0
VERTEX
  8
52
 62
7
  6
CONTINUOUS
 10
-1258.41986884379
 20
2363.96467833395
  0
VERTEX
  8
52
 62
7
  6
CONTINUOUS
 10
-1270.42599473669
 20
2376.08847940144
  0
VERTEX
  8
52
 62
7
  6
CONTINUOUS
 10
-1284.21211694375
 20
2385.21626562223
  0
VERTEX
  8
52
 62
7
  6
CONTINUOUS
 10
-1292.18510929986
 20
2389.13317802991
  0
VERTEX
  8
52
 62
7
  6
CONTINUOUS
 10
-1301.32756743609
 20
2391.45066917065
  0
VERTEX
  8
52
 62
7
  6
CONTINUOUS
 10
-1309.86293005409
 20
2390.00855503533
  0
VERTEX
  8
52
 62
7
  6
CONTINUOUS
 10
-1313.95486733565
 20
2386.20128020367
  0
VERTEX
  8
52
 62
7
  6
CONTINUOUS
 10
-1312.30386770202
 20
2386.20018032176
  0
SEQEND
  0
POLYLINE
  8
52
 62
7
 66
1
 70
1
  0
VERTEX
  8
52
 62
7
  6
CONTINUOUS
 10
-1691.01424047189
 20
2578.35406742629
  0
VERTEX
  8
52
 62
7
  6
CONTINUOUS
 10
-1689.78133333883
 20
2560.80184217929
  0
VERTEX
  8
52
 62
7
  6
CONTINUOUS
 10
-1686.56233640123
 20
2550.58889544508
  0
VERTEX
  8
52
 62
7
  6
CONTINUOUS
 10
-1680.14145110292
 20
2542.60901613609
  0
VERTEX
  8
52
 62
7
  6
CONTINUOUS
 10
-1677.67479195668
 20
2546.89997382131
  0
VERTEX
  8
52
 62
7
  6
CONTINUOUS
 10
-1675.06803578329
 20
2570.85044253766
  0
VERTEX
  8
52
 62
7
  6
CONTINUOUS
 10
-1675.53444203024
 20
2595.15855864758
  0
VERTEX
  8
52
 62
7
  6
CONTINUOUS
 10
-1678.04433736192
 20
2602.22143228542
  0
VERTEX
  8
52
 62
7
  6
CONTINUOUS
 10
-1680.65984300971
 20
2603.26457494412
  0
VERTEX
  8
52
 62
7
  6
CONTINUOUS
 10
-1688.74123768985
 20
2596.97075730267
  0
VERTEX
  8
52
 62
7
  6
CONTINUOUS
 10
-1688.7864012665
 20
2596.65456675675
  0
VERTEX
  8
52
 62
7
  6
CONTINUOUS
 10
-1689.57830377942
 20
2598.67311532661
  0
SEQEND
  0
POLYLINE
  8
52
 62
7
 66
1
 70
1
  0
VERTEX
  8
52
 62
7
  6
CONTINUOUS
 10
-3189.2559363482
 20
2652.60118424362
  0
VERTEX
  8
52
 62
7
  6
CONTINUOUS
 10
-3146.01416286061
 20
2630.93157213981
  0
VERTEX
  8
52
 62
7
  6
CONTINUOUS
 10
-3149.0598439716
 20
2634.41340191884
  0
VERTEX
  8
52
 62
7
  6
CONTINUOUS
 10
-3163.0987308703
 20
2645.39555694078
  0
VERTEX
  8
52
 62
7
  6
CONTINUOUS
 10
-3183.56574536665
 20
2653.48639368408
  0
VERTEX
  8
52
 62
7
  6
CONTINUOUS
 10
-3187.50243991032
 20
2653.94621637794
  0
SEQEND
  0
POLYLINE
  8
52
 62
7
 66
1
 70
1
  0
VERTEX
  8
52
 62
7
  6
CONTINUOUS
 10
-2649.55556971547
 20
1910.59483955716
  0
VERTEX
  8
52
 62
7
  6
CONTINUOUS
 10
-2649.55556971547
 20
1908.59483955716
  0
VERTEX
  8
52
 62
7
  6
CONTINUOUS
 10
-2647.55556971547
 20
1908.59483955716
  0
VERTEX
  8
52
 62
7
  6
CONTINUOUS
 10
-2647.55556971547
 20
1910.59483955716
  0
SEQEND
  0
POLYLINE
  8
52
 62
7
 66
1
 70
1
  0
VERTEX
  8
52
 62
7
  6
CONTINUOUS
 10
-2712.03699855591
 20
2661.90909727858
  0
VERTEX
  8
52
 62
7
  6
CONTINUOUS
 10
-2711.40254017715
 20
2661.09587442744
  0
VERTEX
  8
52
 62
7
  6
CONTINUOUS
 10
-2709.72583596647
 20
2661.55195752281
  0
VERTEX
  8
52
 62
7
  6
CONTINUOUS
 10
-2709.45432133569
 20
2649.71537401551
  0
VERTEX
  8
52
 62
7
  6
CONTINUOUS
 10
-2706.17863581083
 20
2648.34159147732
  0
VERTEX
  8
52
 62
7
  6
CONTINUOUS
 10
-2702.82554889341
 20
2648.77115777516
  0
VERTEX
  8
52
 62
7
  6
CONTINUOUS
 10
-2699.52168828753
 20
2651.56295739134
  0
VERTEX
  8
52
 62
7
  6
CONTINUOUS
 10
-2698.45040439032
 20
2658.29324520477
  0
VERTEX
  8
52
 62
7
  6
CONTINUOUS
 10
-2701.72243492299
 20
2665.1534265255
  0
VERTEX
  8
52
 62
7
  6
CONTINUOUS
 10
-2705.22472368843
 20
2669.52456068994
  0
VERTEX
  8
52
 62
7
  6
CONTINUOUS
 10
-2708.37513521
 20
2668.30745919675
  0
VERTEX
  8
52
 62
7
  6
CONTINUOUS
 10
-2710.73960213467
 20
2664.90543362922
  0
SEQEND
  0
POLYLINE
  8
52
 62
7
 66
1
 70
1
  0
VERTEX
  8
52
 62
7
  6
CONTINUOUS
 10
-1062.00552200845
 20
1251.05694669807
  0
VERTEX
  8
52
 62
7
  6
CONTINUOUS
 10
-1059.89780072307
 20
1248.82129527999
  0
VERTEX
  8
52
 62
7
  6
CONTINUOUS
 10
-1058.22169448855
 20
1247.44933631173
  0
VERTEX
  8
52
 62
7
  6
CONTINUOUS
 10
-1053.11777411958
 20
1240.53944315284
  0
VERTEX
  8
52
 62
7
  6
CONTINUOUS
 10
-1047.04801736417
 20
1236.60114322901
  0
VERTEX
  8
52
 62
7
  6
CONTINUOUS
 10
-1040.0889669021
 20
1234.03425289509
  0
VERTEX
  8
52
 62
7
  6
CONTINUOUS
 10
-1036.5582364377
 20
1234.64309680596
  0
VERTEX
  8
52
 62
7
  6
CONTINUOUS
 10
-1034.44943815319
 20
1237.43664527256
  0
VERTEX
  8
52
 62
7
  6
CONTINUOUS
 10
-1035.76910672987
 20
1242.72012799967
  0
VERTEX
  8
52
 62
7
  6
CONTINUOUS
 10
-1041.40626934431
 20
1250.36673536885
  0
VERTEX
  8
52
 62
7
  6
CONTINUOUS
 10
-1049.86306578786
 20
1256.92174653531
  0
VERTEX
  8
52
 62
7
  6
CONTINUOUS
 10
-1054.86628365843
 20
1259.64061803274
  0
VERTEX
  8
52
 62
7
  6
CONTINUOUS
 10
-1059.33717854038
 20
1257.33017541831
  0
VERTEX
  8
52
 62
7
  6
CONTINUOUS
 10
-1061.21750193609
 20
1253.9523780106
  0
SEQEND
  0
POLYLINE
  8
52
 62
7
 66
1
 70
1
  0
VERTEX
  8
52
 62
7
  6
CONTINUOUS
 10
-2979.07407127515
 20
2646.73158223312
  0
VERTEX
  8
52
 62
7
  6
CONTINUOUS
 10
-2977.35382629634
 20
2636.29103390398
  0
VERTEX
  8
52
 62
7
  6
CONTINUOUS
 10
-2969.63869193118
 20
2626.583091994
  0
VERTEX
  8
52
 62
7
  6
CONTINUOUS
 10
-2959.17927521409
 20
2618.49892222719
  0
VERTEX
  8
52
 62
7
  6
CONTINUOUS
 10
-2945.54477459526
 20
2610.53963727469
  0
VERTEX
  8
52
 62
7
  6
CONTINUOUS
 10
-2928.50689470808
 20
2602.2478849466
  0
VERTEX
  8
52
 62
7
  6
CONTINUOUS
 10
-2913.49889921247
 20
2597.13248561477
  0
VERTEX
  8
52
 62
7
  6
CONTINUOUS
 10
-2883.83673141003
 20
2589.56892325694
  0
VERTEX
  8
52
 62
7
  6
CONTINUOUS
 10
-2869.05564373768
 20
2586.99367565281
  0
VERTEX
  8
52
 62
7
  6
CONTINUOUS
 10
-2854.1712470406
 20
2586.98375979437
  0
VERTEX
  8
52
 62
7
  6
CONTINUOUS
 10
-2842.38454977398
 20
2588.6269079633
  0
VERTEX
  8
52
 62
7
  6
CONTINUOUS
 10
-2833.87253967786
 20
2593.14243833788
  0
VERTEX
  8
52
 62
7
  6
CONTINUOUS
 10
-2826.22341869719
 20
2598.72534379857
  0
VERTEX
  8
52
 62
7
  6
CONTINUOUS
 10
-2822.33122943346
 20
2607.71435285049
  0
VERTEX
  8
52
 62
7
  6
CONTINUOUS
 10
-2823.99502272266
 20
2626.63846545455
  0
VERTEX
  8
52
 62
7
  6
CONTINUOUS
 10
-2828.00191020208
 20
2636.11533691128
  0
VERTEX
  8
52
 62
7
  6
CONTINUOUS
 10
-2834.59929252391
 20
2646.05113423509
  0
VERTEX
  8
52
 62
7
  6
CONTINUOUS
 10
-2947.76483075433
 20
2671.39952976206
  0
VERTEX
  8
52
 62
7
  6
CONTINUOUS
 10
-2953.17475881362
 20
2671.80953390029
  0
VERTEX
  8
52
 62
7
  6
CONTINUOUS
 10
-2961.88871669139
 20
2669.1737384787
  0
VERTEX
  8
52
 62
7
  6
CONTINUOUS
 10
-2968.08956419806
 20
2664.30106834836
  0
VERTEX
  8
52
 62
7
  6
CONTINUOUS
 10
-2976.80758317826
 20
2655.5692742795
  0
SEQEND
  0
POLYLINE
  8
52
 62
7
 66
1
 70
1
  0
VERTEX
  8
52
 62
7
  6
CONTINUOUS
 10
-2916.7858951618
 20
878.549280020757
  0
VERTEX
  8
52
 62
7
  6
CONTINUOUS
 10
-2914.01739857369
 20
878.066087138359
  0
VERTEX
  8
52
 62
7
  6
CONTINUOUS
 10
-2912.03586681635
 20
879.615062830444
  0
VERTEX
  8
52
 62
7
  6
CONTINUOUS
 10
-2895.14566135454
 20
875.903045721408
  0
VERTEX
  8
52
 62
7
  6
CONTINUOUS
 10
-2855.49426056834
 20
885.241754619945
  0
VERTEX
  8
52
 62
7
  6
CONTINUOUS
 10
-2835.98463504789
 20
896.565976908988
  0
VERTEX
  8
52
 62
7
  6
CONTINUOUS
 10
-2834.4338861148
 20
902.864844961784
  0
VERTEX
  8
52
 62
7
  6
CONTINUOUS
 10
-2839.94482112547
 20
906.904625216717
  0
VERTEX
  8
52
 62
7
  6
CONTINUOUS
 10
-2852.41599782453
 20
907.94869593312
  0
VERTEX
  8
52
 62
7
  6
CONTINUOUS
 10
-2869.61199324825
 20
907.037978420832
  0
VERTEX
  8
52
 62
7
  6
CONTINUOUS
 10
-2884.67519918995
 20
902.3422040866
  0
VERTEX
  8
52
 62
7
  6
CONTINUOUS
 10
-2904.08285483424
 20
892.745160000394
  0
VERTEX
  8
52
 62
7
  6
CONTINUOUS
 10
-2916.78543281369
 20
880.708279971251
  0
SEQEND
  0
POLYLINE
  8
52
 62
7
 66
1
 70
1
  0
VERTEX
  8
52
 62
7
  6
CONTINUOUS
 10
-3160.18429141363
 20
1911.13025242859
  0
VERTEX
  8
52
 62
7
  6
CONTINUOUS
 10
-3159.35324929267
 20
1900.3854964112
  0
VERTEX
  8
52
 62
7
  6
CONTINUOUS
 10
-3155.37397849269
 20
1887.5812426141
  0
VERTEX
  8
52
 62
7
  6
CONTINUOUS
 10
-3149.58772078575
 20
1880.16058621261
  0
VERTEX
  8
52
 62
7
  6
CONTINUOUS
 10
-3141.8698620977
 20
1874.54204339517
  0
VERTEX
  8
52
 62
7
  6
CONTINUOUS
 10
-3118.68433751152
 20
1867.51619584031
  0
VERTEX
  8
52
 62
7
  6
CONTINUOUS
 10
-3102.35454395466
 20
1863.89851627041
  0
VERTEX
  8
52
 62
7
  6
CONTINUOUS
 10
-3050.71979042924
 20
1858.70791649273
  0
VERTEX
  8
52
 62
7
  6
CONTINUOUS
 10
-3026.20136743515
 20
1869.84218500233
  0
VERTEX
  8
52
 62
7
  6
CONTINUOUS
 10
-3025.3365323748
 20
1871.69580926803
  0
VERTEX
  8
52
 62
7
  6
CONTINUOUS
 10
-3021.45101245337
 20
1946.92803746277
  0
VERTEX
  8
52
 62
7
  6
CONTINUOUS
 10
-3022.43650201299
 20
1954.59949568972
  0
VERTEX
  8
52
 62
7
  6
CONTINUOUS
 10
-3027.0038476519
 20
1961.58753996654
  0
VERTEX
  8
52
 62
7
  6
CONTINUOUS
 10
-3033.1741172586
 20
1964.48725119021
  0
VERTEX
  8
52
 62
7
  6
CONTINUOUS
 10
-3062.58243740875
 20
1971.82204438617
  0
VERTEX
  8
52
 62
7
  6
CONTINUOUS
 10
-3087.62497051265
 20
1974.63272812866
  0
VERTEX
  8
52
 62
7
  6
CONTINUOUS
 10
-3112.21158973379
 20
1975.51270771684
  0
VERTEX
  8
52
 62
7
  6
CONTINUOUS
 10
-3124.30274850757
 20
1974.3777624903
  0
VERTEX
  8
52
 62
7
  6
CONTINUOUS
 10
-3134.64283058368
 20
1970.95565020409
  0
VERTEX
  8
52
 62
7
  6
CONTINUOUS
 10
-3142.59702223688
 20
1964.9665478887
  0
VERTEX
  8
52
 62
7
  6
CONTINUOUS
 10
-3149.15470491663
 20
1958.23991506746
  0
VERTEX
  8
52
 62
7
  6
CONTINUOUS
 10
-3154.39373688951
 20
1948.28660305651
  0
VERTEX
  8
52
 62
7
  6
CONTINUOUS
 10
-3157.8819967474
 20
1935.58892408734
  0
VERTEX
  8
52
 62
7
  6
CONTINUOUS
 10
-3159.33800323729
 20
1923.27089133282
  0
SEQEND
  0
POLYLINE
  8
52
 62
7
 66
1
 70
1
  0
VERTEX
  8
52
 62
7
  6
CONTINUOUS
 10
-3292.89485149139
 20
2117.48371780065
  0
VERTEX
  8
52
 62
7
  6
CONTINUOUS
 10
-3291.17848260176
 20
2130.34336826957
  0
VERTEX
  8
52
 62
7
  6
CONTINUOUS
 10
-3284.02629737002
 20
2228.78902539136
  0
SEQEND
  0
POLYLINE
  8
52
 62
7
 66
1
 70
1
  0
VERTEX
  8
52
 62
7
  6
CONTINUOUS
 10
-3308.00115826321
 20
1927.89113046512
  0
VERTEX
  8
52
 62
7
  6
CONTINUOUS
 10
-3304.04297371916
 20
1959.68930061305
  0
VERTEX
  8
52
 62
7
  6
CONTINUOUS
 10
-3300.63607712191
 20
2020.32701241878
  0
SEQEND
  0
POLYLINE
  8
52
 62
7
 66
1
 70
1
  0
VERTEX
  8
52
 62
7
  6
CONTINUOUS
 10
-1942.86975672324
 20
816.6210027462
  0
VERTEX
  8
52
 62
7
  6
CONTINUOUS
 10
-1941.06759150603
 20
810.85481668175
  0
VERTEX
  8
52
 62
7
  6
CONTINUOUS
 10
-1937.6144154479
 20
805.139077055812
  0
VERTEX
  8
52
 62
7
  6
CONTINUOUS
 10
-1923.31782753048
 20
788.270415066208
  0
VERTEX
  8
52
 62
7
  6
CONTINUOUS
 10
-1914.45469092954
 20
781.435916875917
  0
VERTEX
  8
52
 62
7
  6
CONTINUOUS
 10
-1904.75264722718
 20
777.903239110054
  0
VERTEX
  8
52
 62
7
  6
CONTINUOUS
 10
-1895.40581732
 20
776.174037454294
  0
VERTEX
  8
52
 62
7
  6
CONTINUOUS
 10
-1888.34429655793
 20
777.671125269628
  0
VERTEX
  8
52
 62
7
  6
CONTINUOUS
 10
-1882.7553393535
 20
782.140328501415
  0
VERTEX
  8
52
 62
7
  6
CONTINUOUS
 10
-1882.52496611773
 20
790.420679357039
  0
VERTEX
  8
52
 62
7
  6
CONTINUOUS
 10
-1887.62817936606
 20
800.632572440211
  0
VERTEX
  8
52
 62
7
  6
CONTINUOUS
 10
-1893.39220599285
 20
808.914206991775
  0
VERTEX
  8
52
 62
7
  6
CONTINUOUS
 10
-1914.11388956682
 20
830.940445028712
  0
VERTEX
  8
52
 62
7
  6
CONTINUOUS
 10
-1922.87572533652
 20
836.377921493478
  0
VERTEX
  8
52
 62
7
  6
CONTINUOUS
 10
-1930.06349002053
 20
838.411460794135
  0
VERTEX
  8
52
 62
7
  6
CONTINUOUS
 10
-1934.68689912616
 20
835.567650828269
  0
VERTEX
  8
52
 62
7
  6
CONTINUOUS
 10
-1937.81195303869
 20
831.580519964628
  0
VERTEX
  8
52
 62
7
  6
CONTINUOUS
 10
-1938.67624382136
 20
828.354904977841
  0
SEQEND
  0
POLYLINE
  8
52
 62
7
 66
1
 70
1
  0
VERTEX
  8
52
 62
7
  6
CONTINUOUS
 10
-1337.56596892498
 20
1389.08876091128
  0
VERTEX
  8
52
 62
7
  6
CONTINUOUS
 10
-1316.7153108555
 20
1376.28269546598
  0
VERTEX
  8
52
 62
7
  6
CONTINUOUS
 10
-1297.86935439304
 20
1372.34165952919
  0
VERTEX
  8
52
 62
7
  6
CONTINUOUS
 10
-1292.12848673716
 20
1374.52483017705
  0
VERTEX
  8
52
 62
7
  6
CONTINUOUS
 10
-1291.89922857627
 20
1377.59818115207
  0
VERTEX
  8
52
 62
7
  6
CONTINUOUS
 10
-1296.77500041981
 20
1382.3998254048
  0
VERTEX
  8
52
 62
7
  6
CONTINUOUS
 10
-1304.54621445466
 20
1387.93868973104
  0
VERTEX
  8
52
 62
7
  6
CONTINUOUS
 10
-1313.61355733801
 20
1390.07423154419
  0
VERTEX
  8
52
 62
7
  6
CONTINUOUS
 10
-1329.0564958932
 20
1391.2967386651
  0
VERTEX
  8
52
 62
7
  6
CONTINUOUS
 10
-1334.51756648004
 20
1390.96770814143
  0
SEQEND
  0
POLYLINE
  8
53
 62
7
 66
1
 70
1
  0
VERTEX
  8
53
 62
7
  6
CONTINUOUS
 10
-2279.37608651392
 20
2701.67476273886
  0
VERTEX
  8
53
 62
7
  6
CONTINUOUS
 10
-2263.12861843632
 20
2688.86233597311
  0
VERTEX
  8
53
 62
7
  6
CONTINUOUS
 10
-2245.78307892381
 20
2684.86297963735
  0
VERTEX
  8
53
 62
7
  6
CONTINUOUS
 10
-2236.20751794637
 20
2684.50100040119
  0
VERTEX
  8
53
 62
7
  6
CONTINUOUS
 10
-2231.15185302862
 20
2686.09783271533
  0
VERTEX
  8
53
 62
7
  6
CONTINUOUS
 10
-2231.09771955165
 20
2691.10159776244
  0
VERTEX
  8
53
 62
7
  6
CONTINUOUS
 10
-2236.3508988809
 20
2698.03929892456
  0
VERTEX
  8
53
 62
7
  6
CONTINUOUS
 10
-2254.96268159184
 20
2707.67830007205
  0
VERTEX
  8
53
 62
7
  6
CONTINUOUS
 10
-2264.84224720241
 20
2709.23428209842
  0
VERTEX
  8
53
 62
7
  6
CONTINUOUS
 10
-2272.94511614457
 20
2708.83328007059
  0
VERTEX
  8
53
 62
7
  6
CONTINUOUS
 10
-2277.64641639322
 20
2705.38201127026
  0
SEQEND
  0
POLYLINE
  8
53
 62
7
 66
1
 70
1
  0
VERTEX
  8
53
 62
7
  6
CONTINUOUS
 10
-1662.73451179546
 20
2325.75757166317
  0
VERTEX
  8
53
 62
7
  6
CONTINUOUS
 10
-1662.25475467425
 20
2321.49005110614
  0
VERTEX
  8
53
 62
7
  6
CONTINUOUS
 10
-1652.86349142125
 20
2311.37459248317
  0
VERTEX
  8
53
 62
7
  6
CONTINUOUS
 10
-1644.68679147242
 20
2308.21954453632
  0
VERTEX
  8
53
 62
7
  6
CONTINUOUS
 10
-1635.64461345536
 20
2307.88332064098
  0
VERTEX
  8
53
 62
7
  6
CONTINUOUS
 10
-1626.0420618851
 20
2309.90892395374
  0
VERTEX
  8
53
 62
7
  6
CONTINUOUS
 10
-1620.67888963337
 20
2315.56955231094
  0
VERTEX
  8
53
 62
7
  6
CONTINUOUS
 10
-1617.98269986855
 20
2321.25735739481
  0
VERTEX
  8
53
 62
7
  6
CONTINUOUS
 10
-1619.7045016033
 20
2329.36110624249
  0
VERTEX
  8
53
 62
7
  6
CONTINUOUS
 10
-1624.22223174169
 20
2334.57111707134
  0
VERTEX
  8
53
 62
7
  6
CONTINUOUS
 10
-1630.34027997381
 20
2339.60439397903
  0
VERTEX
  8
53
 62
7
  6
CONTINUOUS
 10
-1637.40080155649
 20
2340.62509786389
  0
VERTEX
  8
53
 62
7
  6
CONTINUOUS
 10
-1644.69132755304
 20
2339.53775450791
  0
VERTEX
  8
53
 62
7
  6
CONTINUOUS
 10
-1657.49725655489
 20
2333.04388426594
  0
VERTEX
  8
53
 62
7
  6
CONTINUOUS
 10
-1661.36018777694
 20
2329.84605700766
  0
SEQEND
  0
POLYLINE
  8
53
 62
7
 66
1
 70
1
  0
VERTEX
  8
53
 62
7
  6
CONTINUOUS
 10
-3429.60117599179
 20
576.533494504951
  0
VERTEX
  8
53
 62
7
  6
CONTINUOUS
 10
-3428.68658019473
 20
577.447698665959
  0
VERTEX
  8
53
 62
7
  6
CONTINUOUS
 10
-3412.12472533289
 20
582.371752070964
  0
VERTEX
  8
53
 62
7
  6
CONTINUOUS
 10
-3407.55136015094
 20
588.746172834652
  0
VERTEX
  8
53
 62
7
  6
CONTINUOUS
 10
-3401.04751342242
 20
595.501180195996
  0
VERTEX
  8
53
 62
7
  6
CONTINUOUS
 10
-3395.76239887843
 20
604.440848597951
  0
VERTEX
  8
53
 62
7
  6
CONTINUOUS
 10
-3393.44941606906
 20
611.831753444014
  0
VERTEX
  8
53
 62
7
  6
CONTINUOUS
 10
-3395.17586539369
 20
615.337323242131
  0
VERTEX
  8
53
 62
7
  6
CONTINUOUS
 10
-3398.90971970197
 20
615.084122838223
  0
VERTEX
  8
53
 62
7
  6
CONTINUOUS
 10
-3404.47294510423
 20
612.16431413152
  0
VERTEX
  8
53
 62
7
  6
CONTINUOUS
 10
-3410.72283535369
 20
605.20605238094
  0
VERTEX
  8
53
 62
7
  6
CONTINUOUS
 10
-3423.22305644319
 20
589.232128926956
  0
SEQEND
  0
POLYLINE
  8
53
 62
7
 66
1
 70
1
  0
VERTEX
  8
53
 62
7
  6
CONTINUOUS
 10
-3451.1182482459
 20
605.455700968401
  0
VERTEX
  8
53
 62
7
  6
CONTINUOUS
 10
-3445.85258477423
 20
597.974575222717
  0
VERTEX
  8
53
 62
7
  6
CONTINUOUS
 10
-3440.74623843751
 20
602.39308180407
  0
VERTEX
  8
53
 62
7
  6
CONTINUOUS
 10
-3427.8908742649
 20
616.233329155524
  0
VERTEX
  8
53
 62
7
  6
CONTINUOUS
 10
-3415.99998119195
 20
633.477383125736
  0
VERTEX
  8
53
 62
7
  6
CONTINUOUS
 10
-3413.35686366283
 20
640.563417266724
  0
VERTEX
  8
53
 62
7
  6
CONTINUOUS
 10
-3413.35602055744
 20
644.500417176449
  0
VERTEX
  8
53
 62
7
  6
CONTINUOUS
 10
-3416.86105729538
 20
645.263167794738
  0
VERTEX
  8
53
 62
7
  6
CONTINUOUS
 10
-3427.58170644206
 20
636.629463415164
  0
VERTEX
  8
53
 62
7
  6
CONTINUOUS
 10
-3434.56830546243
 20
629.16335941853
  0
VERTEX
  8
53
 62
7
  6
CONTINUOUS
 10
-3446.23009267739
 20
614.281456439646
  0
SEQEND
  0
POLYLINE
  8
54
 62
7
 66
1
 70
1
  0
VERTEX
  8
54
 62
7
  6
CONTINUOUS
 10
-2337.83438383688
 20
2714.64421843799
  0
VERTEX
  8
54
 62
7
  6
CONTINUOUS
 10
-2336.28554258229
 20
2713.80498642712
  0
VERTEX
  8
54
 62
7
  6
CONTINUOUS
 10
-2330.7511527402
 20
2709.58489852805
  0
VERTEX
  8
54
 62
7
  6
CONTINUOUS
 10
-2321.45802060633
 20
2704.67650643466
  0
VERTEX
  8
54
 62
7
  6
CONTINUOUS
 10
-2311.12303182952
 20
2700.45322041743
  0
VERTEX
  8
54
 62
7
  6
CONTINUOUS
 10
-2300.93951234959
 20
2697.62703561775
  0
VERTEX
  8
54
 62
7
  6
CONTINUOUS
 10
-2290.11985928613
 20
2696.50222740893
  0
VERTEX
  8
54
 62
7
  6
CONTINUOUS
 10
-2283.94667922269
 20
2697.97131521581
  0
VERTEX
  8
54
 62
7
  6
CONTINUOUS
 10
-2283.05514123094
 20
2701.78072212625
  0
VERTEX
  8
54
 62
7
  6
CONTINUOUS
 10
-2288.56238818887
 20
2708.61699252351
  0
VERTEX
  8
54
 62
7
  6
CONTINUOUS
 10
-2310.19663485899
 20
2718.46120725586
  0
VERTEX
  8
54
 62
7
  6
CONTINUOUS
 10
-2320.45599897555
 20
2721.82084270096
  0
VERTEX
  8
54
 62
7
  6
CONTINUOUS
 10
-2328.91374022461
 20
2722.5122773284
  0
VERTEX
  8
54
 62
7
  6
CONTINUOUS
 10
-2335.56979092113
 20
2720.63711111565
  0
VERTEX
  8
54
 62
7
  6
CONTINUOUS
 10
-2337.83259018331
 20
2717.33661784053
  0
SEQEND
  0
POLYLINE
  8
54
 62
7
 66
1
 70
1
  0
VERTEX
  8
54
 62
7
  6
CONTINUOUS
 10
-3447.63304795624
 20
1298.12597256186
  0
VERTEX
  8
54
 62
7
  6
CONTINUOUS
 10
-3447.51285263552
 20
1266.35054609352
  0
VERTEX
  8
54
 62
7
  6
CONTINUOUS
 10
-3436.3670558722
 20
1243.91995871578
  0
VERTEX
  8
54
 62
7
  6
CONTINUOUS
 10
-3431.08434009901
 20
1241.65822737458
  0
VERTEX
  8
54
 62
7
  6
CONTINUOUS
 10
-3426.74077157753
 20
1242.44469722091
  0
VERTEX
  8
54
 62
7
  6
CONTINUOUS
 10
-3422.49788379688
 20
1247.52378872636
  0
VERTEX
  8
54
 62
7
  6
CONTINUOUS
 10
-3418.96592403044
 20
1253.87303250561
  0
VERTEX
  8
54
 62
7
  6
CONTINUOUS
 10
-3418.20160142856
 20
1264.71866907523
  0
VERTEX
  8
54
 62
7
  6
CONTINUOUS
 10
-3423.78411295635
 20
1290.34846515327
  0
VERTEX
  8
54
 62
7
  6
CONTINUOUS
 10
-3427.82046095646
 20
1300.86492977509
  0
VERTEX
  8
54
 62
7
  6
CONTINUOUS
 10
-3431.83219222925
 20
1307.72378904139
  0
VERTEX
  8
54
 62
7
  6
CONTINUOUS
 10
-3438.00352722478
 20
1311.76371072045
  0
VERTEX
  8
54
 62
7
  6
CONTINUOUS
 10
-3441.99144136052
 20
1311.23116471685
  0
VERTEX
  8
54
 62
7
  6
CONTINUOUS
 10
-3445.64997685166
 20
1306.86314808912
  0
VERTEX
  8
54
 62
7
  6
CONTINUOUS
 10
-3447.63214501757
 20
1302.34237246518
  0
SEQEND
  0
POLYLINE
  8
54
 62
7
 66
1
 70
1
  0
VERTEX
  8
54
 62
7
  6
CONTINUOUS
 10
-3320.11886176256
 20
1734.40196023791
  0
VERTEX
  8
54
 62
7
  6
CONTINUOUS
 10
-3319.71985644343
 20
1723.30189196084
  0
VERTEX
  8
54
 62
7
  6
CONTINUOUS
 10
-3316.3430447364
 20
1721.21684189543
  0
VERTEX
  8
54
 62
7
  6
CONTINUOUS
 10
-3312.66060395526
 20
1720.37618849871
  0
VERTEX
  8
54
 62
7
  6
CONTINUOUS
 10
-3308.69793409437
 20
1720.77994869195
  0
VERTEX
  8
54
 62
7
  6
CONTINUOUS
 10
-3304.07269845873
 20
1724.43446821096
  0
VERTEX
  8
54
 62
7
  6
CONTINUOUS
 10
-3301.95949023355
 20
1731.951462078
  0
VERTEX
  8
54
 62
7
  6
CONTINUOUS
 10
-3301.95478612323
 20
1739.01266051108
  0
VERTEX
  8
54
 62
7
  6
CONTINUOUS
 10
-3305.2263090181
 20
1746.63484166273
  0
VERTEX
  8
54
 62
7
  6
CONTINUOUS
 10
-3309.97348516877
 20
1750.57500506473
  0
VERTEX
  8
54
 62
7
  6
CONTINUOUS
 10
-3314.11414112407
 20
1749.89196338232
  0
VERTEX
  8
54
 62
7
  6
CONTINUOUS
 10
-3317.24037098201
 20
1746.84604537368
  0
SEQEND
  0
POLYLINE
  8
1
 62
7
 66
1
 70
1
  0
VERTEX
  8
1
 62
7
  6
CONTINUOUS
 10
-3500.71724137931
 20
2364.93793103448
  0
VERTEX
  8
1
 62
7
  6
CONTINUOUS
 10
-3479.2
 20
2338.4
  0
VERTEX
  8
1
 62
7
  6
CONTINUOUS
 10
-3468.4
 20
2321.6
  0
VERTEX
  8
1
 62
7
  6
CONTINUOUS
 10
-3457.86666666667
 20
2300.53333333333
  0
VERTEX
  8
1
 62
7
  6
CONTINUOUS
 10
-3453.0752
 20
2283.7632
  0
VERTEX
  8
1
 62
7
  6
CONTINUOUS
 10
-3441.6
 20
2178.4
  0
VERTEX
  8
1
 62
7
  6
CONTINUOUS
 10
-3430.4
 20
2124
  0
VERTEX
  8
1
 62
7
  6
CONTINUOUS
 10
-3415.2
 20
2075.2
  0
VERTEX
  8
1
 62
7
  6
CONTINUOUS
 10
-3385.50967741936
 20
2015.05806451613
  0
VERTEX
  8
1
 62
7
  6
CONTINUOUS
 10
-3346.4
 20
1953.6
  0
VERTEX
  8
1
 62
7
  6
CONTINUOUS
 10
-3335.05454545455
 20
1929.01818181818
  0
VERTEX
  8
1
 62
7
  6
CONTINUOUS
 10
-3327.4
 20
1898.4
  0
VERTEX
  8
1
 62
7
  6
CONTINUOUS
 10
-3325.06666666667
 20
1891.73333333333
  0
VERTEX
  8
1
 62
7
  6
CONTINUOUS
 10
-3313.06666666667
 20
1867.73333333334
  0
VERTEX
  8
1
 62
7
  6
CONTINUOUS
 10
-3309.08571428571
 20
1847.82857142857
  0
VERTEX
  8
1
 62
7
  6
CONTINUOUS
 10
-3307.43414634146
 20
1816.4487804878
  0
VERTEX
  8
1
 62
7
  6
CONTINUOUS
 10
-3309.55897435897
 20
1769.70256410256
  0
VERTEX
  8
1
 62
7
  6
CONTINUOUS
 10
-3319.2
 20
1708
  0
VERTEX
  8
1
 62
7
  6
CONTINUOUS
 10
-3324.32941176471
 20
1682.35294117647
  0
VERTEX
  8
1
 62
7
  6
CONTINUOUS
 10
-3341.66588235294
 20
1644.79058823529
  0
VERTEX
  8
1
 62
7
  6
CONTINUOUS
 10
-3338.98181818182
 20
1612.58181818182
  0
VERTEX
  8
1
 62
7
  6
CONTINUOUS
 10
-3340.65454545455
 20
1595.85454545455
  0
VERTEX
  8
1
 62
7
  6
CONTINUOUS
 10
-3344
 20
1580.8
  0
VERTEX
  8
1
 62
7
  6
CONTINUOUS
 10
-3348.8
 20
1566.4
  0
VERTEX
  8
1
 62
7
  6
CONTINUOUS
 10
-3355.2
 20
1553.6
  0
VERTEX
  8
1
 62
7
  6
CONTINUOUS
 10
-3371.2
 20
1529.6
  0
VERTEX
  8
1
 62
7
  6
CONTINUOUS
 10
-3432
 20
1468.8
  0
VERTEX
  8
1
 62
7
  6
CONTINUOUS
 10
-3453.79459459459
 20
1450.8972972973
  0
VERTEX
  8
1
 62
7
  6
CONTINUOUS
 10
-3457.09473684211
 20
1391.49473684211
  0
VERTEX
  8
1
 62
7
  6
CONTINUOUS
 10
-3460.86956521739
 20
1359.40869565217
  0
VERTEX
  8
1
 62
7
  6
CONTINUOUS
 10
-3466.14736842105
 20
1334.77894736843
  0
VERTEX
  8
1
 62
7
  6
CONTINUOUS
 10
-3473.48571428571
 20
1309.82857142857
  0
VERTEX
  8
1
 62
7
  6
CONTINUOUS
 10
-3492.01818181818
 20
1272.76363636364
  0
VERTEX
  8
1
 62
7
  6
CONTINUOUS
 10
-3455.2
 20
1226.4
  0
VERTEX
  8
1
 62
7
  6
CONTINUOUS
 10
-3452
 20
1221.06666666667
  0
VERTEX
  8
1
 62
7
  6
CONTINUOUS
 10
-3429.6
 20
1191.2
  0
VERTEX
  8
1
 62
7
  6
CONTINUOUS
 10
-3405.6
 20
1150.4
  0
VERTEX
  8
1
 62
7
  6
CONTINUOUS
 10
-3389.9137254902
 20
1132.75294117647
  0
VERTEX
  8
1
 62
7
  6
CONTINUOUS
 10
-3356.32095808383
 20
1106.23233532934
  0
VERTEX
  8
1
 62
7
  6
CONTINUOUS
 10
-3336.98823529412
 20
1081.52941176471
  0
VERTEX
  8
1
 62
7
  6
CONTINUOUS
 10
-3330.72
 20
1070.56
  0
VERTEX
  8
1
 62
7
  6
CONTINUOUS
 10
-3326.24
 20
1057.12
  0
VERTEX
  8
1
 62
7
  6
CONTINUOUS
 10
-3324
 20
1039.2
  0
VERTEX
  8
1
 62
7
  6
CONTINUOUS
 10
-3324
 20
1028.8
  0
VERTEX
  8
1
 62
7
  6
CONTINUOUS
 10
-3329.06666666667
 20
1021.2
  0
VERTEX
  8
1
 62
7
  6
CONTINUOUS
 10
-3347.2
 20
1007.6
  0
VERTEX
  8
1
 62
7
  6
CONTINUOUS
 10
-3347.2
 20
998.4
  0
VERTEX
  8
1
 62
7
  6
CONTINUOUS
 10
-3355.80377358491
 20
958.822641509434
  0
VERTEX
  8
1
 62
7
  6
CONTINUOUS
 10
-3361.6
 20
942.4
  0
VERTEX
  8
1
 62
7
  6
CONTINUOUS
 10
-3377.42300884956
 20
909.699115044254
  0
VERTEX
  8
1
 62
7
  6
CONTINUOUS
 10
-3398.07567567568
 20
886.464864864865
  0
VERTEX
  8
1
 62
7
  6
CONTINUOUS
 10
-3436
 20
857.292307692308
  0
VERTEX
  8
1
 62
7
  6
CONTINUOUS
 10
-3436
 20
780.799999999998
  0
VERTEX
  8
1
 62
7
  6
CONTINUOUS
 10
-3456.52941176471
 20
678.152941176471
  0
VERTEX
  8
1
 62
7
  6
CONTINUOUS
 10
-3458.4
 20
626.4
  0
VERTEX
  8
1
 62
7
  6
CONTINUOUS
 10
-3447.2
 20
587.2
  0
VERTEX
  8
1
 62
7
  6
CONTINUOUS
 10
-3427.2
 20
570.4
  0
VERTEX
  8
1
 62
7
  6
CONTINUOUS
 10
-3390.4
 20
566.4
  0
VERTEX
  8
1
 62
7
  6
CONTINUOUS
 10
-3360.8
 20
570.4
  0
VERTEX
  8
1
 62
7
  6
CONTINUOUS
 10
-3304.30344827586
 20
588.055172413793
  0
VERTEX
  8
1
 62
7
  6
CONTINUOUS
 10
-3272.22857142857
 20
591.619047619048
  0
VERTEX
  8
1
 62
7
  6
CONTINUOUS
 10
-3228.8
 20
588
  0
VERTEX
  8
1
 62
7
  6
CONTINUOUS
 10
-3220.44
 20
590.2
  0
VERTEX
  8
1
 62
7
  6
CONTINUOUS
 10
-3184.72727272727
 20
615.709090909091
  0
VERTEX
  8
1
 62
7
  6
CONTINUOUS
 10
-3172.61538461539
 20
620.553846153846
  0
VERTEX
  8
1
 62
7
  6
CONTINUOUS
 10
-3160.05
 20
621.95
  0
VERTEX
  8
1
 62
7
  6
CONTINUOUS
 10
-3137.74020618557
 20
618.762886597938
  0
VERTEX
  8
1
 62
7
  6
CONTINUOUS
 10
-3122.4
 20
627.2
  0
VERTEX
  8
1
 62
7
  6
CONTINUOUS
 10
-3101.64210526316
 20
641.515789473684
  0
VERTEX
  8
1
 62
7
  6
CONTINUOUS
 10
-3062.39999999998
 20
720.000000000042
  0
VERTEX
  8
1
 62
7
  6
CONTINUOUS
 10
-3044.15999999999
 20
750.400000000014
  0
VERTEX
  8
1
 62
7
  6
CONTINUOUS
 10
-3032
 20
765.600000000001
  0
VERTEX
  8
1
 62
7
  6
CONTINUOUS
 10
-3019.6
 20
778
  0
VERTEX
  8
1
 62
7
  6
CONTINUOUS
 10
-3000.45405405405
 20
793.664864864865
  0
VERTEX
  8
1
 62
7
  6
CONTINUOUS
 10
-2984.61176470588
 20
800.705882352941
  0
VERTEX
  8
1
 62
7
  6
CONTINUOUS
 10
-2965.82857142857
 20
805.828571428572
  0
VERTEX
  8
1
 62
7
  6
CONTINUOUS
 10
-2952.8
 20
808
  0
VERTEX
  8
1
 62
7
  6
CONTINUOUS
 10
-2900.8
 20
808
  0
VERTEX
  8
1
 62
7
  6
CONTINUOUS
 10
-2886.05714285714
 20
805.542857142857
  0
VERTEX
  8
1
 62
7
  6
CONTINUOUS
 10
-2829.84242424242
 20
787.975757575758
  0
VERTEX
  8
1
 62
7
  6
CONTINUOUS
 10
-2810.52
 20
779.84
  0
VERTEX
  8
1
 62
7
  6
CONTINUOUS
 10
-2781.4
 20
763.2
  0
VERTEX
  8
1
 62
7
  6
CONTINUOUS
 10
-2752.8
 20
763.2
  0
VERTEX
  8
1
 62
7
  6
CONTINUOUS
 10
-2704
 20
758.4
  0
VERTEX
  8
1
 62
7
  6
CONTINUOUS
 10
-2643.2
 20
760.8
  0
VERTEX
  8
1
 62
7
  6
CONTINUOUS
 10
-2620.8
 20
765.6
  0
VERTEX
  8
1
 62
7
  6
CONTINUOUS
 10
-2589.6
 20
778.4
  0
VERTEX
  8
1
 62
7
  6
CONTINUOUS
 10
-2467.35628626692
 20
787.201547388781
  0
VERTEX
  8
1
 62
7
  6
CONTINUOUS
 10
-2382.88
 20
822.4
  0
VERTEX
  8
1
 62
7
  6
CONTINUOUS
 10
-2360.8
 20
830.285714285714
  0
VERTEX
  8
1
 62
7
  6
CONTINUOUS
 10
-2348.8
 20
832
  0
VERTEX
  8
1
 62
7
  6
CONTINUOUS
 10
-2328.26666666667
 20
832
  0
VERTEX
  8
1
 62
7
  6
CONTINUOUS
 10
-2302.97283950617
 20
826.162962962963
  0
VERTEX
  8
1
 62
7
  6
CONTINUOUS
 10
-2275.84761904762
 20
813.142857142857
  0
VERTEX
  8
1
 62
7
  6
CONTINUOUS
 10
-2221.51578947369
 20
784.378947368421
  0
VERTEX
  8
1
 62
7
  6
CONTINUOUS
 10
-2197.6
 20
778.4
  0
VERTEX
  8
1
 62
7
  6
CONTINUOUS
 10
-2153.96363636364
 20
763.854545454546
  0
VERTEX
  8
1
 62
7
  6
CONTINUOUS
 10
-2130.4
 20
746.4
  0
VERTEX
  8
1
 62
7
  6
CONTINUOUS
 10
-2100.60451321728
 20
720.986202450032
  0
VERTEX
  8
1
 62
7
  6
CONTINUOUS
 10
-2005.6
 20
601.6
  0
VERTEX
  8
1
 62
7
  6
CONTINUOUS
 10
-1977.6
 20
599.2
  0
VERTEX
  8
1
 62
7
  6
CONTINUOUS
 10
-1962.4
 20
603.2
  0
VERTEX
  8
1
 62
7
  6
CONTINUOUS
 10
-1944
 20
616.8
  0
VERTEX
  8
1
 62
7
  6
CONTINUOUS
 10
-1933.52727272727
 20
638.909090909091
  0
VERTEX
  8
1
 62
7
  6
CONTINUOUS
 10
-1904.8
 20
713.6
  0
VERTEX
  8
1
 62
7
  6
CONTINUOUS
 10
-1898.4275862069
 20
724.524137931035
  0
VERTEX
  8
1
 62
7
  6
CONTINUOUS
 10
-1886.05901639344
 20
740.603278688525
  0
VERTEX
  8
1
 62
7
  6
CONTINUOUS
 10
-1850.77333333333
 20
773.813333333333
  0
VERTEX
  8
1
 62
7
  6
CONTINUOUS
 10
-1835.2
 20
781.6
  0
VERTEX
  8
1
 62
7
  6
CONTINUOUS
 10
-1820.8
 20
781.6
  0
VERTEX
  8
1
 62
7
  6
CONTINUOUS
 10
-1805.96363636364
 20
778.981818181818
  0
VERTEX
  8
1
 62
7
  6
CONTINUOUS
 10
-1800
 20
776
  0
VERTEX
  8
1
 62
7
  6
CONTINUOUS
 10
-1785.6
 20
761.6
  0
VERTEX
  8
1
 62
7
  6
CONTINUOUS
 10
-1761.6
 20
728
  0
VERTEX
  8
1
 62
7
  6
CONTINUOUS
 10
-1744.8
 20
720.8
  0
VERTEX
  8
1
 62
7
  6
CONTINUOUS
 10
-1717.6
 20
725.6
  0
VERTEX
  8
1
 62
7
  6
CONTINUOUS
 10
-1699.2
 20
742.4
  0
VERTEX
  8
1
 62
7
  6
CONTINUOUS
 10
-1685.76
 20
778.24
  0
VERTEX
  8
1
 62
7
  6
CONTINUOUS
 10
-1677.37142857143
 20
786.628571428571
  0
VERTEX
  8
1
 62
7
  6
CONTINUOUS
 10
-1664.8
 20
790.4
  0
VERTEX
  8
1
 62
7
  6
CONTINUOUS
 10
-1650.4
 20
790.4
  0
VERTEX
  8
1
 62
7
  6
CONTINUOUS
 10
-1634.0618556701
 20
785.731958762887
  0
VERTEX
  8
1
 62
7
  6
CONTINUOUS
 10
-1571.2
 20
756
  0
VERTEX
  8
1
 62
7
  6
CONTINUOUS
 10
-1535.2
 20
756.8
  0
VERTEX
  8
1
 62
7
  6
CONTINUOUS
 10
-1535.2
 20
809.44
  0
VERTEX
  8
1
 62
7
  6
CONTINUOUS
 10
-1572.64
 20
869.344000000003
  0
VERTEX
  8
1
 62
7
  6
CONTINUOUS
 10
-1592.25531914894
 20
910.536170212767
  0
VERTEX
  8
1
 62
7
  6
CONTINUOUS
 10
-1597.6
 20
930.133333333333
  0
VERTEX
  8
1
 62
7
  6
CONTINUOUS
 10
-1597.6
 20
959.2
  0
VERTEX
  8
1
 62
7
  6
CONTINUOUS
 10
-1595.61081081081
 20
985.059459459459
  0
VERTEX
  8
1
 62
7
  6
CONTINUOUS
 10
-1590.28571428571
 20
1005.02857142857
  0
VERTEX
  8
1
 62
7
  6
CONTINUOUS
 10
-1578.5
 20
1028.6
  0
VERTEX
  8
1
 62
7
  6
CONTINUOUS
 10
-1570.4
 20
1037.6
  0
VERTEX
  8
1
 62
7
  6
CONTINUOUS
 10
-1558
 20
1046.45714285714
  0
VERTEX
  8
1
 62
7
  6
CONTINUOUS
 10
-1532
 20
1057.6
  0
VERTEX
  8
1
 62
7
  6
CONTINUOUS
 10
-1472.8
 20
1085.6
  0
VERTEX
  8
1
 62
7
  6
CONTINUOUS
 10
-1441.6
 20
1123.2
  0
VERTEX
  8
1
 62
7
  6
CONTINUOUS
 10
-1430.4
 20
1146.4
  0
VERTEX
  8
1
 62
7
  6
CONTINUOUS
 10
-1427.7
 20
1190.5
  0
VERTEX
  8
1
 62
7
  6
CONTINUOUS
 10
-1422.8
 20
1205.2
  0
VERTEX
  8
1
 62
7
  6
CONTINUOUS
 10
-1412.2
 20
1215.8
  0
VERTEX
  8
1
 62
7
  6
CONTINUOUS
 10
-1398.83636363636
 20
1221.52727272727
  0
VERTEX
  8
1
 62
7
  6
CONTINUOUS
 10
-1346.30588235294
 20
1230.28235294118
  0
VERTEX
  8
1
 62
7
  6
CONTINUOUS
 10
-1328.8
 20
1245.6
  0
VERTEX
  8
1
 62
7
  6
CONTINUOUS
 10
-1316
 20
1253.6
  0
VERTEX
  8
1
 62
7
  6
CONTINUOUS
 10
-1300.58181818182
 20
1261.30909090909
  0
VERTEX
  8
1
 62
7
  6
CONTINUOUS
 10
-1256.4
 20
1267.2
  0
VERTEX
  8
1
 62
7
  6
CONTINUOUS
 10
-1209.6
 20
1267.2
  0
VERTEX
  8
1
 62
7
  6
CONTINUOUS
 10
-1184.8
 20
1265.6
  0
VERTEX
  8
1
 62
7
  6
CONTINUOUS
 10
-1164.25945945946
 20
1259.84864864865
  0
VERTEX
  8
1
 62
7
  6
CONTINUOUS
 10
-1144.8
 20
1251.2
  0
VERTEX
  8
1
 62
7
  6
CONTINUOUS
 10
-1071.2
 20
1210.4
  0
VERTEX
  8
1
 62
7
  6
CONTINUOUS
 10
-1010.4
 20
1196.8
  0
VERTEX
  8
1
 62
7
  6
CONTINUOUS
 10
-955.2
 20
1198.4
  0
VERTEX
  8
1
 62
7
  6
CONTINUOUS
 10
-944.8
 20
1203.2
  0
VERTEX
  8
1
 62
7
  6
CONTINUOUS
 10
-932.8
 20
1218.4
  0
VERTEX
  8
1
 62
7
  6
CONTINUOUS
 10
-933.6
 20
1238.4
  0
VERTEX
  8
1
 62
7
  6
CONTINUOUS
 10
-950.4
 20
1289.6
  0
VERTEX
  8
1
 62
7
  6
CONTINUOUS
 10
-959.38125
 20
1322.53125
  0
VERTEX
  8
1
 62
7
  6
CONTINUOUS
 10
-970.679069767442
 20
1338.58604651163
  0
VERTEX
  8
1
 62
7
  6
CONTINUOUS
 10
-1006.4
 20
1362.4
  0
VERTEX
  8
1
 62
7
  6
CONTINUOUS
 10
-1049.49333333333
 20
1394.72
  0
VERTEX
  8
1
 62
7
  6
CONTINUOUS
 10
-1093.62962962963
 20
1436.53333333333
  0
VERTEX
  8
1
 62
7
  6
CONTINUOUS
 10
-1132.45283018868
 20
1477.16226415094
  0
VERTEX
  8
1
 62
7
  6
CONTINUOUS
 10
-1147.2
 20
1488.96
  0
VERTEX
  8
1
 62
7
  6
CONTINUOUS
 10
-1147.2
 20
1492
  0
VERTEX
  8
1
 62
7
  6
CONTINUOUS
 10
-1193.48571428571
 20
1593.82857142857
  0
VERTEX
  8
1
 62
7
  6
CONTINUOUS
 10
-1226.4
 20
1643.2
  0
VERTEX
  8
1
 62
7
  6
CONTINUOUS
 10
-1234.336
 20
1661.056
  0
VERTEX
  8
1
 62
7
  6
CONTINUOUS
 10
-1239.90886075949
 20
1685.20506329114
  0
VERTEX
  8
1
 62
7
  6
CONTINUOUS
 10
-1243.2
 20
1742.8
  0
VERTEX
  8
1
 62
7
  6
CONTINUOUS
 10
-1243.2
 20
1764.8
  0
VERTEX
  8
1
 62
7
  6
CONTINUOUS
 10
-1237.86666666667
 20
1783.46666666667
  0
VERTEX
  8
1
 62
7
  6
CONTINUOUS
 10
-1229.6
 20
1800
  0
VERTEX
  8
1
 62
7
  6
CONTINUOUS
 10
-1217.6
 20
1812
  0
VERTEX
  8
1
 62
7
  6
CONTINUOUS
 10
-1201.00740740741
 20
1825.48148148148
  0
VERTEX
  8
1
 62
7
  6
CONTINUOUS
 10
-1148.26181818182
 20
1847.02545454545
  0
VERTEX
  8
1
 62
7
  6
CONTINUOUS
 10
-1091.36
 20
1884.96
  0
VERTEX
  8
1
 62
7
  6
CONTINUOUS
 10
-1063.36
 20
1896.96
  0
VERTEX
  8
1
 62
7
  6
CONTINUOUS
 10
-1051.2
 20
1900
  0
VERTEX
  8
1
 62
7
  6
CONTINUOUS
 10
-1021.6
 20
1900
  0
VERTEX
  8
1
 62
7
  6
CONTINUOUS
 10
-964.8
 20
1896.8
  0
VERTEX
  8
1
 62
7
  6
CONTINUOUS
 10
-887.2
 20
1904.8
  0
VERTEX
  8
1
 62
7
  6
CONTINUOUS
 10
-865.6
 20
1915.2
  0
VERTEX
  8
1
 62
7
  6
CONTINUOUS
 10
-851.2
 20
1930.4
  0
VERTEX
  8
1
 62
7
  6
CONTINUOUS
 10
-835.2
 20
1965.6
  0
VERTEX
  8
1
 62
7
  6
CONTINUOUS
 10
-832.8
 20
1996.8
  0
VERTEX
  8
1
 62
7
  6
CONTINUOUS
 10
-843.2
 20
2036.8
  0
VERTEX
  8
1
 62
7
  6
CONTINUOUS
 10
-892
 20
2101.6
  0
VERTEX
  8
1
 62
7
  6
CONTINUOUS
 10
-925.822580645161
 20
2136.92580645161
  0
VERTEX
  8
1
 62
7
  6
CONTINUOUS
 10
-966.32131147542
 20
2159.81639344263
  0
VERTEX
  8
1
 62
7
  6
CONTINUOUS
 10
-983.2
 20
2172.8
  0
VERTEX
  8
1
 62
7
  6
CONTINUOUS
 10
-1093.03786191537
 20
2270.78485523385
  0
VERTEX
  8
1
 62
7
  6
CONTINUOUS
 10
-1126.66666666667
 20
2257.33333333333
  0
VERTEX
  8
1
 62
7
  6
CONTINUOUS
 10
-1144
 20
2253
  0
VERTEX
  8
1
 62
7
  6
CONTINUOUS
 10
-1158.4
 20
2251.2
  0
VERTEX
  8
1
 62
7
  6
CONTINUOUS
 10
-1170.8
 20
2251.2
  0
VERTEX
  8
1
 62
7
  6
CONTINUOUS
 10
-1182.85217391304
 20
2254.64347826087
  0
VERTEX
  8
1
 62
7
  6
CONTINUOUS
 10
-1194.56
 20
2264.4
  0
VERTEX
  8
1
 62
7
  6
CONTINUOUS
 10
-1201.82857142857
 20
2273.48571428571
  0
VERTEX
  8
1
 62
7
  6
CONTINUOUS
 10
-1210.0345177665
 20
2286.61522842639
  0
VERTEX
  8
1
 62
7
  6
CONTINUOUS
 10
-1244
 20
2373.6
  0
VERTEX
  8
1
 62
7
  6
CONTINUOUS
 10
-1275.2
 20
2396.8
  0
VERTEX
  8
1
 62
7
  6
CONTINUOUS
 10
-1297.6
 20
2403.2
  0
VERTEX
  8
1
 62
7
  6
CONTINUOUS
 10
-1323.2
 20
2404
  0
VERTEX
  8
1
 62
7
  6
CONTINUOUS
 10
-1361.2
 20
2396.66666666667
  0
VERTEX
  8
1
 62
7
  6
CONTINUOUS
 10
-1441.71428571428
 20
2369.82857142857
  0
VERTEX
  8
1
 62
7
  6
CONTINUOUS
 10
-1482.6976744186
 20
2365.73023255814
  0
VERTEX
  8
1
 62
7
  6
CONTINUOUS
 10
-1532.77466504263
 20
2364.78538367844
  0
VERTEX
  8
1
 62
7
  6
CONTINUOUS
 10
-1558.57106918239
 20
2379.6679245283
  0
VERTEX
  8
1
 62
7
  6
CONTINUOUS
 10
-1565.7
 20
2392.5
  0
VERTEX
  8
1
 62
7
  6
CONTINUOUS
 10
-1568.8
 20
2408
  0
VERTEX
  8
1
 62
7
  6
CONTINUOUS
 10
-1579.2
 20
2418.4
  0
VERTEX
  8
1
 62
7
  6
CONTINUOUS
 10
-1584.4
 20
2428.8
  0
VERTEX
  8
1
 62
7
  6
CONTINUOUS
 10
-1586.4
 20
2436.8
  0
VERTEX
  8
1
 62
7
  6
CONTINUOUS
 10
-1586.4
 20
2456.8
  0
VERTEX
  8
1
 62
7
  6
CONTINUOUS
 10
-1575.37215189873
 20
2515.61518987342
  0
VERTEX
  8
1
 62
7
  6
CONTINUOUS
 10
-1576
 20
2528.8
  0
VERTEX
  8
1
 62
7
  6
CONTINUOUS
 10
-1605.6
 20
2561.6
  0
VERTEX
  8
1
 62
7
  6
CONTINUOUS
 10
-1639.25117845118
 20
2606.1063973064
  0
VERTEX
  8
1
 62
7
  6
CONTINUOUS
 10
-1667.2
 20
2609.6
  0
VERTEX
  8
1
 62
7
  6
CONTINUOUS
 10
-1680.64
 20
2613.44
  0
VERTEX
  8
1
 62
7
  6
CONTINUOUS
 10
-1689.06666666667
 20
2621.86666666667
  0
VERTEX
  8
1
 62
7
  6
CONTINUOUS
 10
-1697.6
 20
2636.8
  0
VERTEX
  8
1
 62
7
  6
CONTINUOUS
 10
-1704.04210526316
 20
2662.56842105263
  0
VERTEX
  8
1
 62
7
  6
CONTINUOUS
 10
-1724.8
 20
2664
  0
VERTEX
  8
1
 62
7
  6
CONTINUOUS
 10
-1773.30952380952
 20
2647.3
  0
VERTEX
  8
1
 62
7
  6
CONTINUOUS
 10
-1808.8
 20
2621.6
  0
VERTEX
  8
1
 62
7
  6
CONTINUOUS
 10
-1839.2
 20
2596
  0
VERTEX
  8
1
 62
7
  6
CONTINUOUS
 10
-1878.4
 20
2537.6
  0
VERTEX
  8
1
 62
7
  6
CONTINUOUS
 10
-1900.4
 20
2506.8
  0
VERTEX
  8
1
 62
7
  6
CONTINUOUS
 10
-1913.6
 20
2493.6
  0
VERTEX
  8
1
 62
7
  6
CONTINUOUS
 10
-1924.8
 20
2485.2
  0
VERTEX
  8
1
 62
7
  6
CONTINUOUS
 10
-1935.2
 20
2480
  0
VERTEX
  8
1
 62
7
  6
CONTINUOUS
 10
-1946.93333333333
 20
2476.8
  0
VERTEX
  8
1
 62
7
  6
CONTINUOUS
 10
-1960.8
 20
2476.8
  0
VERTEX
  8
1
 62
7
  6
CONTINUOUS
 10
-1980.8
 20
2482.8
  0
VERTEX
  8
1
 62
7
  6
CONTINUOUS
 10
-1991.2
 20
2488
  0
VERTEX
  8
1
 62
7
  6
CONTINUOUS
 10
-2005.6
 20
2497.6
  0
VERTEX
  8
1
 62
7
  6
CONTINUOUS
 10
-2023.2
 20
2515.2
  0
VERTEX
  8
1
 62
7
  6
CONTINUOUS
 10
-2104
 20
2636.4
  0
VERTEX
  8
1
 62
7
  6
CONTINUOUS
 10
-2124.95238095238
 20
2660.49523809524
  0
VERTEX
  8
1
 62
7
  6
CONTINUOUS
 10
-2188.40975609756
 20
2700.15609756098
  0
VERTEX
  8
1
 62
7
  6
CONTINUOUS
 10
-2214.4
 20
2701.6
  0
VERTEX
  8
1
 62
7
  6
CONTINUOUS
 10
-2291.2
 20
2717.6
  0
VERTEX
  8
1
 62
7
  6
CONTINUOUS
 10
-2355.43529411764
 20
2732.89411764706
  0
VERTEX
  8
1
 62
7
  6
CONTINUOUS
 10
-2391.325
 20
2747.25
  0
VERTEX
  8
1
 62
7
  6
CONTINUOUS
 10
-2394.04444444444
 20
2746.75555555556
  0
VERTEX
  8
1
 62
7
  6
CONTINUOUS
 10
-2426.4
 20
2714.4
  0
VERTEX
  8
1
 62
7
  6
CONTINUOUS
 10
-2442.04444444444
 20
2700.17777777778
  0
VERTEX
  8
1
 62
7
  6
CONTINUOUS
 10
-2453.6
 20
2694.4
  0
VERTEX
  8
1
 62
7
  6
CONTINUOUS
 10
-2470.66666666667
 20
2689.06666666667
  0
VERTEX
  8
1
 62
7
  6
CONTINUOUS
 10
-2501.21739130435
 20
2687.26956521739
  0
VERTEX
  8
1
 62
7
  6
CONTINUOUS
 10
-2529.6
 20
2692
  0
VERTEX
  8
1
 62
7
  6
CONTINUOUS
 10
-2560.8
 20
2699.8
  0
VERTEX
  8
1
 62
7
  6
CONTINUOUS
 10
-2645.6
 20
2710.4
  0
VERTEX
  8
1
 62
7
  6
CONTINUOUS
 10
-2677.6
 20
2708
  0
VERTEX
  8
1
 62
7
  6
CONTINUOUS
 10
-2726.4
 20
2708
  0
VERTEX
  8
1
 62
7
  6
CONTINUOUS
 10
-2745.46086956522
 20
2698.46956521739
  0
VERTEX
  8
1
 62
7
  6
CONTINUOUS
 10
-2807.2
 20
2677.6
  0
VERTEX
  8
1
 62
7
  6
CONTINUOUS
 10
-2834.93333333333
 20
2668.93333333333
  0
VERTEX
  8
1
 62
7
  6
CONTINUOUS
 10
-2854.4
 20
2659.2
  0
VERTEX
  8
1
 62
7
  6
CONTINUOUS
 10
-2872.91428571429
 20
2653.02857142857
  0
VERTEX
  8
1
 62
7
  6
CONTINUOUS
 10
-2885.28
 20
2651.12615384615
  0
VERTEX
  8
1
 62
7
  6
CONTINUOUS
 10
-2912.57142857143
 20
2652.17582417582
  0
VERTEX
  8
1
 62
7
  6
CONTINUOUS
 10
-2936.96
 20
2659.68
  0
VERTEX
  8
1
 62
7
  6
CONTINUOUS
 10
-2947.2
 20
2664.8
  0
VERTEX
  8
1
 62
7
  6
CONTINUOUS
 10
-2969.72307692308
 20
2679.81538461538
  0
VERTEX
  8
1
 62
7
  6
CONTINUOUS
 10
-3032
 20
2733.6
  0
VERTEX
  8
1
 62
7
  6
CONTINUOUS
 10
-3051.58441558441
 20
2743.72987012987
  0
VERTEX
  8
1
 62
7
  6
CONTINUOUS
 10
-3141.6
 20
2763.73333333334
  0
VERTEX
  8
1
 62
7
  6
CONTINUOUS
 10
-3172.4
 20
2781.7
  0
VERTEX
  8
1
 62
7
  6
CONTINUOUS
 10
-3244.8
 20
2836
  0
VERTEX
  8
1
 62
7
  6
CONTINUOUS
 10
-3257.84347826087
 20
2819.47826086957
  0
VERTEX
  8
1
 62
7
  6
CONTINUOUS
 10
-3268
 20
2814.4
  0
VERTEX
  8
1
 62
7
  6
CONTINUOUS
 10
-3284
 20
2814.4
  0
VERTEX
  8
1
 62
7
  6
CONTINUOUS
 10
-3296.8
 20
2820.8
  0
VERTEX
  8
1
 62
7
  6
CONTINUOUS
 10
-3310.4
 20
2834.4
  0
VERTEX
  8
1
 62
7
  6
CONTINUOUS
 10
-3316
 20
2845.6
  0
VERTEX
  8
1
 62
7
  6
CONTINUOUS
 10
-3333.6
 20
2890.4
  0
VERTEX
  8
1
 62
7
  6
CONTINUOUS
 10
-3382.4
 20
2979.2
  0
VERTEX
  8
1
 62
7
  6
CONTINUOUS
 10
-3399.2
 20
3000
  0
VERTEX
  8
1
 62
7
  6
CONTINUOUS
 10
-3415.2
 20
3007.2
  0
VERTEX
  8
1
 62
7
  6
CONTINUOUS
 10
-3429.6
 20
3009.6
  0
VERTEX
  8
1
 62
7
  6
CONTINUOUS
 10
-3440.8
 20
3007.2
  0
VERTEX
  8
1
 62
7
  6
CONTINUOUS
 10
-3456.8
 20
2995.2
  0
VERTEX
  8
1
 62
7
  6
CONTINUOUS
 10
-3468.8
 20
2961.6
  0
VERTEX
  8
1
 62
7
  6
CONTINUOUS
 10
-3464.42666666667
 20
2915.68
  0
VERTEX
  8
1
 62
7
  6
CONTINUOUS
 10
-3441.6
 20
2847.2
  0
VERTEX
  8
1
 62
7
  6
CONTINUOUS
 10
-3432.26666666667
 20
2809.86666666667
  0
VERTEX
  8
1
 62
7
  6
CONTINUOUS
 10
-3412
 20
2789.6
  0
VERTEX
  8
1
 62
7
  6
CONTINUOUS
 10
-3405.6
 20
2776.8
  0
VERTEX
  8
1
 62
7
  6
CONTINUOUS
 10
-3402.4
 20
2767.2
  0
VERTEX
  8
1
 62
7
  6
CONTINUOUS
 10
-3402.4
 20
2757.6
  0
VERTEX
  8
1
 62
7
  6
CONTINUOUS
 10
-3413.6
 20
2746.4
  0
VERTEX
  8
1
 62
7
  6
CONTINUOUS
 10
-3436
 20
2726.4
  0
VERTEX
  8
1
 62
7
  6
CONTINUOUS
 10
-3448
 20
2715.2
  0
VERTEX
  8
1
 62
7
  6
CONTINUOUS
 10
-3445.6
 20
2677.6
  0
VERTEX
  8
1
 62
7
  6
CONTINUOUS
 10
-3429.72549019608
 20
2650.18039215686
  0
VERTEX
  8
1
 62
7
  6
CONTINUOUS
 10
-3392
 20
2620
  0
VERTEX
  8
1
 62
7
  6
CONTINUOUS
 10
-3378.4
 20
2606.4
  0
VERTEX
  8
1
 62
7
  6
CONTINUOUS
 10
-3368.8
 20
2594.4
  0
VERTEX
  8
1
 62
7
  6
CONTINUOUS
 10
-3362.8
 20
2580.4
  0
VERTEX
  8
1
 62
7
  6
CONTINUOUS
 10
-3356.75294117647
 20
2562.25882352941
  0
VERTEX
  8
1
 62
7
  6
CONTINUOUS
 10
-3351.68571428571
 20
2518.34285714286
  0
VERTEX
  8
1
 62
7
  6
CONTINUOUS
 10
-3352.8
 20
2507.2
  0
VERTEX
  8
1
 62
7
  6
CONTINUOUS
 10
-3356
 20
2492
  0
VERTEX
  8
1
 62
7
  6
CONTINUOUS
 10
-3360.91428571429
 20
2477.25714285714
  0
VERTEX
  8
1
 62
7
  6
CONTINUOUS
 10
-3369.6
 20
2466.4
  0
VERTEX
  8
1
 62
7
  6
CONTINUOUS
 10
-3403.2
 20
2436.8
  0
VERTEX
  8
1
 62
7
  6
CONTINUOUS
 10
-3429.6
 20
2396.8
  0
VERTEX
  8
1
 62
7
  6
CONTINUOUS
 10
-3437.55789473684
 20
2386.56842105263
  0
VERTEX
  8
1
 62
7
  6
CONTINUOUS
 10
-3451.36
 20
2379.04
  0
SEQEND
  0
ENDSEC
  0
EOF
