  0
SECTION
  2
HEADER
  0
ENDSEC
  0
SECTION
  2
TABLES
  0
ENDSEC
  0
SECTION
  2
BLOCKS
  0
ENDSEC
  0
SECTION
  2
ENTITIES
  0
TEXT
  1
MARK_1
  8
72
 10
-3330.8
 20
2295.6
 11
-3330.8
 21
2295.6
 62
3
 40
8
 50
90
 72
0
 73
1
  0
TEXT
  1
MARK_2
  8
72
 10
-3374.8
 20
1059.6
 11
-3374.8
 21
1059.6
 62
3
 40
8
 50
90
 72
0
 73
1
  0
POLYLINE
  8
51
 62
7
 66
1
 70
1
  0
VERTEX
  8
51
 62
7
  6
CONTINUOUS
 10
-1054.44915950492
 20
1980.70533567993
  0
VERTEX
  8
51
 62
7
  6
CONTINUOUS
 10
-831.407582231694
 20
2101.2829740687
  0
VERTEX
  8
51
 62
7
  6
CONTINUOUS
 10
-838.368195962933
 20
2099.76361083216
  0
VERTEX
  8
51
 62
7
  6
CONTINUOUS
 10
-866.291216556092
 20
2087.13301010397
  0
VERTEX
  8
51
 62
7
  6
CONTINUOUS
 10
-942.287930824084
 20
2049.15983003071
  0
VERTEX
  8
51
 62
7
  6
CONTINUOUS
 10
-968.866477684506
 20
2033.93753305065
  0
SEQEND
  0
POLYLINE
  8
51
 62
7
 66
1
 70
1
  0
VERTEX
  8
51
 62
7
  6
CONTINUOUS
 10
-1981.90535377253
 20
846.524172433568
  0
VERTEX
  8
51
 62
7
  6
CONTINUOUS
 10
-1980.1564145219
 20
829.429597507657
  0
VERTEX
  8
51
 62
7
  6
CONTINUOUS
 10
-1968.70969061095
 20
788.914145271921
  0
VERTEX
  8
51
 62
7
  6
CONTINUOUS
 10
-1960.73743057903
 20
773.3168376612
  0
VERTEX
  8
51
 62
7
  6
CONTINUOUS
 10
-1952.33247849713
 20
761.88503748534
  0
VERTEX
  8
51
 62
7
  6
CONTINUOUS
 10
-1940.14779610149
 20
749.718091786043
  0
VERTEX
  8
51
 62
7
  6
CONTINUOUS
 10
-1861.28407456609
 20
831.004341127738
  0
VERTEX
  8
51
 62
7
  6
CONTINUOUS
 10
-1855.46285665772
 20
852.567695013048
  0
VERTEX
  8
51
 62
7
  6
CONTINUOUS
 10
-1853.17377257624
 20
866.969005137753
  0
VERTEX
  8
51
 62
7
  6
CONTINUOUS
 10
-1850.39807423633
 20
900.115411484228
  0
VERTEX
  8
51
 62
7
  6
CONTINUOUS
 10
-1850.85103150197
 20
919.927508938951
  0
VERTEX
  8
51
 62
7
  6
CONTINUOUS
 10
-1854.35166777374
 20
941.238859086061
  0
VERTEX
  8
51
 62
7
  6
CONTINUOUS
 10
-1859.42817012976
 20
957.572146589479
  0
VERTEX
  8
51
 62
7
  6
CONTINUOUS
 10
-1878.80331105306
 20
981.198296302075
  0
VERTEX
  8
51
 62
7
  6
CONTINUOUS
 10
-1891.95975467622
 20
984.73171382492
  0
VERTEX
  8
51
 62
7
  6
CONTINUOUS
 10
-1907.91092167412
 20
984.887529758081
  0
VERTEX
  8
51
 62
7
  6
CONTINUOUS
 10
-1923.3294991533
 20
981.258631550842
  0
VERTEX
  8
51
 62
7
  6
CONTINUOUS
 10
-1937.88573315127
 20
971.762148538896
  0
VERTEX
  8
51
 62
7
  6
CONTINUOUS
 10
-1951.50293412473
 20
958.684064351657
  0
VERTEX
  8
51
 62
7
  6
CONTINUOUS
 10
-1963.114160674
 20
942.68455051962
  0
VERTEX
  8
51
 62
7
  6
CONTINUOUS
 10
-1971.42396387427
 20
923.991929628675
  0
VERTEX
  8
51
 62
7
  6
CONTINUOUS
 10
-1977.85571734368
 20
898.059906388891
  0
VERTEX
  8
51
 62
7
  6
CONTINUOUS
 10
-1981.51814743776
 20
875.505490178181
  0
SEQEND
  0
POLYLINE
  8
51
 62
7
 66
1
 70
1
  0
VERTEX
  8
51
 62
7
  6
CONTINUOUS
 10
-2458.39446598176
 20
2070.29143148593
  0
VERTEX
  8
51
 62
7
  6
CONTINUOUS
 10
-2457.19113915503
 20
2066.59443069001
  0
VERTEX
  8
51
 62
7
  6
CONTINUOUS
 10
-2453.80658904816
 20
2064.68115315889
  0
VERTEX
  8
51
 62
7
  6
CONTINUOUS
 10
-2449.08329790827
 20
2065.77264058231
  0
VERTEX
  8
51
 62
7
  6
CONTINUOUS
 10
-2390.13875817528
 20
2068.96175347745
  0
VERTEX
  8
51
 62
7
  6
CONTINUOUS
 10
-2377.83582525377
 20
2068.95355736821
  0
VERTEX
  8
51
 62
7
  6
CONTINUOUS
 10
-2352.00024479133
 20
2067.03178587049
  0
VERTEX
  8
51
 62
7
  6
CONTINUOUS
 10
-2339.1989293242
 20
2065.21204742021
  0
VERTEX
  8
51
 62
7
  6
CONTINUOUS
 10
-2299.41965247712
 20
2057.27384349541
  0
VERTEX
  8
51
 62
7
  6
CONTINUOUS
 10
-2273.16706630563
 20
2048.45279236161
  0
VERTEX
  8
51
 62
7
  6
CONTINUOUS
 10
-2260.72326453106
 20
2045.8029942987
  0
VERTEX
  8
51
 62
7
  6
CONTINUOUS
 10
-2213.58148426626
 20
2029.95371157159
  0
VERTEX
  8
51
 62
7
  6
CONTINUOUS
 10
-2201.55549792091
 20
2024.27561773765
  0
VERTEX
  8
51
 62
7
  6
CONTINUOUS
 10
-2178.16291914923
 20
2017.16454337202
  0
VERTEX
  8
51
 62
7
  6
CONTINUOUS
 10
-2172.62739192232
 20
2014.63299721284
  0
VERTEX
  8
51
 62
7
  6
CONTINUOUS
 10
-2168.46840908524
 20
2023.72710859113
  0
VERTEX
  8
51
 62
7
  6
CONTINUOUS
 10
-2174.61332580098
 20
2026.53734502798
  0
VERTEX
  8
51
 62
7
  6
CONTINUOUS
 10
-2197.94729459518
 20
2033.63060263589
  0
VERTEX
  8
51
 62
7
  6
CONTINUOUS
 10
-2209.84058990086
 20
2039.24604612644
  0
VERTEX
  8
51
 62
7
  6
CONTINUOUS
 10
-2258.07986767801
 20
2055.46431255056
  0
VERTEX
  8
51
 62
7
  6
CONTINUOUS
 10
-2270.52454075768
 20
2058.11429615022
  0
VERTEX
  8
51
 62
7
  6
CONTINUOUS
 10
-2296.83819956433
 20
2066.95586811325
  0
VERTEX
  8
51
 62
7
  6
CONTINUOUS
 10
-2337.51544446728
 20
2075.07326718965
  0
VERTEX
  8
51
 62
7
  6
CONTINUOUS
 10
-2350.92445267943
 20
2076.97939065692
  0
VERTEX
  8
51
 62
7
  6
CONTINUOUS
 10
-2377.46108856322
 20
2078.95330994087
  0
VERTEX
  8
51
 62
7
  6
CONTINUOUS
 10
-2390.40575003913
 20
2078.96193356421
  0
VERTEX
  8
51
 62
7
  6
CONTINUOUS
 10
-2450.3215583344
 20
2075.72027152524
  0
VERTEX
  8
51
 62
7
  6
CONTINUOUS
 10
-2450.32808592801
 20
2075.74851896482
  0
VERTEX
  8
51
 62
7
  6
CONTINUOUS
 10
-2450.48968717156
 20
2075.71117514676
  0
VERTEX
  8
51
 62
7
  6
CONTINUOUS
 10
-2452.63670182156
 20
2075.59501388505
  0
VERTEX
  8
51
 62
7
  6
CONTINUOUS
 10
-2456.78453609933
 20
2073.83034885013
  0
SEQEND
  0
POLYLINE
  8
51
 62
7
 66
1
 70
1
  0
VERTEX
  8
51
 62
7
  6
CONTINUOUS
 10
-2240.65301712819
 20
2513.18066594553
  0
VERTEX
  8
51
 62
7
  6
CONTINUOUS
 10
-2239.68934025578
 20
2510.89402344492
  0
VERTEX
  8
51
 62
7
  6
CONTINUOUS
 10
-2239.30903411199
 20
2509.85236985711
  0
VERTEX
  8
51
 62
7
  6
CONTINUOUS
 10
-2231.16081382688
 20
2502.07453985734
  0
VERTEX
  8
51
 62
7
  6
CONTINUOUS
 10
-2226.56529310694
 20
2499.25207773489
  0
VERTEX
  8
51
 62
7
  6
CONTINUOUS
 10
-2222.8312739591
 20
2499.57979023638
  0
VERTEX
  8
51
 62
7
  6
CONTINUOUS
 10
-2222.21881440141
 20
2503.87198317359
  0
VERTEX
  8
51
 62
7
  6
CONTINUOUS
 10
-2224.01852516652
 20
2509.41038335432
  0
VERTEX
  8
51
 62
7
  6
CONTINUOUS
 10
-2228.2054123703
 20
2515.58537399261
  0
VERTEX
  8
51
 62
7
  6
CONTINUOUS
 10
-2235.00932813529
 20
2520.51750779686
  0
VERTEX
  8
51
 62
7
  6
CONTINUOUS
 10
-2238.23516126199
 20
2520.46885680817
  0
SEQEND
  0
POLYLINE
  8
51
 62
7
 66
1
 70
1
  0
VERTEX
  8
51
 62
7
  6
CONTINUOUS
 10
-2666.93648310984
 20
1031.2742245873
  0
VERTEX
  8
51
 62
7
  6
CONTINUOUS
 10
-2665.3225003197
 20
1028.19198173192
  0
VERTEX
  8
51
 62
7
  6
CONTINUOUS
 10
-2662.14389148498
 20
1026.7772000024
  0
VERTEX
  8
51
 62
7
  6
CONTINUOUS
 10
-2640.76806999139
 20
1032.25544233714
  0
VERTEX
  8
51
 62
7
  6
CONTINUOUS
 10
-2617.92919865512
 20
1039.98045838827
  0
VERTEX
  8
51
 62
7
  6
CONTINUOUS
 10
-2596.68469470772
 20
1043.55033283755
  0
VERTEX
  8
51
 62
7
  6
CONTINUOUS
 10
-2559.6635851944
 20
1055.38629785824
  0
VERTEX
  8
51
 62
7
  6
CONTINUOUS
 10
-2562.70882409706
 20
1064.9113448411
  0
VERTEX
  8
51
 62
7
  6
CONTINUOUS
 10
-2599.04793889768
 20
1053.29341935705
  0
VERTEX
  8
51
 62
7
  6
CONTINUOUS
 10
-2620.375367882
 20
1049.7096103875
  0
VERTEX
  8
51
 62
7
  6
CONTINUOUS
 10
-2643.61543527442
 20
1041.84889384893
  0
VERTEX
  8
51
 62
7
  6
CONTINUOUS
 10
-2662.94131846544
 20
1036.8960141907
  0
VERTEX
  8
51
 62
7
  6
CONTINUOUS
 10
-2659.44556008323
 20
1030.22012126079
  0
VERTEX
  8
51
 62
7
  6
CONTINUOUS
 10
-2664.59279650798
 20
1036.16181065211
  0
VERTEX
  8
51
 62
7
  6
CONTINUOUS
 10
-2666.28872575207
 20
1034.69264116107
  0
SEQEND
  0
POLYLINE
  8
51
 62
7
 66
1
 70
1
  0
VERTEX
  8
51
 62
7
  6
CONTINUOUS
 10
-2639.95216850983
 20
1070.15971277646
  0
VERTEX
  8
51
 62
7
  6
CONTINUOUS
 10
-2620.58791849583
 20
1067.15861825866
  0
VERTEX
  8
51
 62
7
  6
CONTINUOUS
 10
-2620.42412821994
 20
1067.14416558479
  0
VERTEX
  8
51
 62
7
  6
CONTINUOUS
 10
-2585.00160960674
 20
1064.01852148823
  0
VERTEX
  8
51
 62
7
  6
CONTINUOUS
 10
-2573.28481590624
 20
1064.01601234622
  0
VERTEX
  8
51
 62
7
  6
CONTINUOUS
 10
-2573.19231773324
 20
1064.01941836905
  0
VERTEX
  8
51
 62
7
  6
CONTINUOUS
 10
-2533.95951543712
 20
1065.4640719893
  0
VERTEX
  8
51
 62
7
  6
CONTINUOUS
 10
-2518.91319876812
 20
1066.87632852374
  0
VERTEX
  8
51
 62
7
  6
CONTINUOUS
 10
-2501.63553708725
 20
1070.81248858145
  0
VERTEX
  8
51
 62
7
  6
CONTINUOUS
 10
-2492.19110844122
 20
1075.00538182547
  0
VERTEX
  8
51
 62
7
  6
CONTINUOUS
 10
-2492.04584836376
 20
1074.5821236279
  0
VERTEX
  8
51
 62
7
  6
CONTINUOUS
 10
-2488.01618074298
 20
1075.96508521985
  0
VERTEX
  8
51
 62
7
  6
CONTINUOUS
 10
-2486.15445767199
 20
1078.57174027261
  0
VERTEX
  8
51
 62
7
  6
CONTINUOUS
 10
-2486.15358298832
 20
1082.65619944212
  0
VERTEX
  8
51
 62
7
  6
CONTINUOUS
 10
-2488.27115034016
 20
1085.36934317562
  0
VERTEX
  8
51
 62
7
  6
CONTINUOUS
 10
-2491.6099577332
 20
1086.20457104895
  0
VERTEX
  8
51
 62
7
  6
CONTINUOUS
 10
-2504.80466056466
 20
1080.34672803563
  0
VERTEX
  8
51
 62
7
  6
CONTINUOUS
 10
-2520.49780818712
 20
1076.77154859341
  0
VERTEX
  8
51
 62
7
  6
CONTINUOUS
 10
-2534.61127830358
 20
1075.44684960999
  0
VERTEX
  8
51
 62
7
  6
CONTINUOUS
 10
-2573.46779613216
 20
1074.01605176059
  0
VERTEX
  8
51
 62
7
  6
CONTINUOUS
 10
-2584.56020190865
 20
1074.01842719042
  0
VERTEX
  8
51
 62
7
  6
CONTINUOUS
 10
-2619.38136419404
 20
1077.09100826579
  0
VERTEX
  8
51
 62
7
  6
CONTINUOUS
 10
-2638.42064048225
 20
1080.04173796874
  0
SEQEND
  0
POLYLINE
  8
51
 62
7
 66
1
 70
1
  0
VERTEX
  8
51
 62
7
  6
CONTINUOUS
 10
-2538.43893695276
 20
999.552468659499
  0
VERTEX
  8
51
 62
7
  6
CONTINUOUS
 10
-2538.43586501678
 20
995.605104160065
  0
VERTEX
  8
51
 62
7
  6
CONTINUOUS
 10
-2535.73740009709
 20
992.724135051349
  0
VERTEX
  8
51
 62
7
  6
CONTINUOUS
 10
-2508.6387235056
 20
990.928251630639
  0
VERTEX
  8
51
 62
7
  6
CONTINUOUS
 10
-2464.05247623979
 20
990.409145139334
  0
VERTEX
  8
51
 62
7
  6
CONTINUOUS
 10
-2463.96111335188
 20
990.408081424147
  0
VERTEX
  8
51
 62
7
  6
CONTINUOUS
 10
-2463.86977259836
 20
990.410356401693
  0
VERTEX
  8
51
 62
7
  6
CONTINUOUS
 10
-2437.419445084
 20
991.069141213057
  0
VERTEX
  8
51
 62
7
  6
CONTINUOUS
 10
-2398.80251305161
 20
994.529697035693
  0
VERTEX
  8
51
 62
7
  6
CONTINUOUS
 10
-2399.69506043396
 20
1004.48978534706
  0
VERTEX
  8
51
 62
7
  6
CONTINUOUS
 10
-2437.99080615196
 20
1001.05801179976
  0
VERTEX
  8
51
 62
7
  6
CONTINUOUS
 10
-2464.02741952673
 20
1000.40953115538
  0
VERTEX
  8
51
 62
7
  6
CONTINUOUS
 10
-2508.24958975895
 20
1000.92439878912
  0
VERTEX
  8
51
 62
7
  6
CONTINUOUS
 10
-2533.10676778722
 20
1002.5717336232
  0
VERTEX
  8
51
 62
7
  6
CONTINUOUS
 10
-2530.23022672549
 20
995.301063979777
  0
VERTEX
  8
51
 62
7
  6
CONTINUOUS
 10
-2536.73626658404
 20
1001.37597531924
  0
SEQEND
  0
POLYLINE
  8
51
 62
7
 66
1
 70
1
  0
VERTEX
  8
51
 62
7
  6
CONTINUOUS
 10
-1203.82672614871
 20
1143.6567671888
  0
VERTEX
  8
51
 62
7
  6
CONTINUOUS
 10
-1001.27608722728
 20
1278.95505061167
  0
VERTEX
  8
51
 62
7
  6
CONTINUOUS
 10
-1025.23696215934
 20
1273.2855253068
  0
VERTEX
  8
51
 62
7
  6
CONTINUOUS
 10
-1044.66999060609
 20
1263.81548665707
  0
VERTEX
  8
51
 62
7
  6
CONTINUOUS
 10
-1066.97386083501
 20
1251.34886272709
  0
VERTEX
  8
51
 62
7
  6
CONTINUOUS
 10
-1090.11634987771
 20
1236.92661834181
  0
VERTEX
  8
51
 62
7
  6
CONTINUOUS
 10
-1113.43704143115
 20
1220.62481207535
  0
VERTEX
  8
51
 62
7
  6
CONTINUOUS
 10
-1157.84344216488
 20
1187.00472089946
  0
VERTEX
  8
51
 62
7
  6
CONTINUOUS
 10
-1178.80239068122
 20
1168.56880881871
  0
SEQEND
  0
POLYLINE
  8
51
 62
7
 66
1
 70
1
  0
VERTEX
  8
51
 62
7
  6
CONTINUOUS
 10
-3102.81428455095
 20
2483.02008122679
  0
VERTEX
  8
51
 62
7
  6
CONTINUOUS
 10
-3024.35008639856
 20
2475.29311189403
  0
VERTEX
  8
51
 62
7
  6
CONTINUOUS
 10
-2977.54754804428
 20
2466.46316645326
  0
VERTEX
  8
51
 62
7
  6
CONTINUOUS
 10
-2953.21730875393
 20
2463.26560617644
  0
VERTEX
  8
51
 62
7
  6
CONTINUOUS
 10
-2953.217395448
 20
2463.1354723148
  0
VERTEX
  8
51
 62
7
  6
CONTINUOUS
 10
-2949.92009641898
 20
2463.13327568224
  0
VERTEX
  8
51
 62
7
  6
CONTINUOUS
 10
-2947.03374642058
 20
2465.83423641929
  0
VERTEX
  8
51
 62
7
  6
CONTINUOUS
 10
-2946.77433833602
 20
2469.77871517598
  0
VERTEX
  8
51
 62
7
  6
CONTINUOUS
 10
-2949.28210210562
 20
2472.83441903798
  0
VERTEX
  8
51
 62
7
  6
CONTINUOUS
 10
-2975.96783864583
 20
2476.34154653066
  0
VERTEX
  8
51
 62
7
  6
CONTINUOUS
 10
-3022.71324517457
 20
2485.16071326327
  0
VERTEX
  8
51
 62
7
  6
CONTINUOUS
 10
-3022.93033612746
 20
2485.20167047066
  0
VERTEX
  8
51
 62
7
  6
CONTINUOUS
 10
-3023.15019337173
 20
2485.22332149398
  0
VERTEX
  8
51
 62
7
  6
CONTINUOUS
 10
-3101.83424876838
 20
2492.97194185006
  0
SEQEND
  0
POLYLINE
  8
51
 62
7
 66
1
 70
1
  0
VERTEX
  8
51
 62
7
  6
CONTINUOUS
 10
-3065.12116968737
 20
2781.13809220723
  0
VERTEX
  8
51
 62
7
  6
CONTINUOUS
 10
-3062.13574754952
 20
2763.45769942146
  0
VERTEX
  8
51
 62
7
  6
CONTINUOUS
 10
-3055.57002608831
 20
2744.12392110437
  0
VERTEX
  8
51
 62
7
  6
CONTINUOUS
 10
-3045.49817473561
 20
2726.18480734339
  0
VERTEX
  8
51
 62
7
  6
CONTINUOUS
 10
-3033.64752847824
 20
2709.43830882928
  0
VERTEX
  8
51
 62
7
  6
CONTINUOUS
 10
-3019.76479806547
 20
2692.81745658618
  0
VERTEX
  8
51
 62
7
  6
CONTINUOUS
 10
-2989.50604284735
 20
2665.72089245249
  0
VERTEX
  8
51
 62
7
  6
CONTINUOUS
 10
-2968.68676191816
 20
2652.62601992191
  0
VERTEX
  8
51
 62
7
  6
CONTINUOUS
 10
-2956.90536100596
 20
2646.31896985503
  0
VERTEX
  8
51
 62
7
  6
CONTINUOUS
 10
-2905.54474372374
 20
2610.90254599726
  0
VERTEX
  8
51
 62
7
  6
CONTINUOUS
 10
-2846.59754880411
 20
2563.44146535436
  0
VERTEX
  8
51
 62
7
  6
CONTINUOUS
 10
-2829.20533809035
 20
2553.24447655136
  0
VERTEX
  8
51
 62
7
  6
CONTINUOUS
 10
-2815.13775155156
 20
2547.21530350906
  0
VERTEX
  8
51
 62
7
  6
CONTINUOUS
 10
-2800.43323613002
 20
2544.08130679272
  0
VERTEX
  8
51
 62
7
  6
CONTINUOUS
 10
-2785.95576390183
 20
2543.28426184917
  0
VERTEX
  8
51
 62
7
  6
CONTINUOUS
 10
-2772.79684085294
 20
2545.86629606151
  0
VERTEX
  8
51
 62
7
  6
CONTINUOUS
 10
-2761.43910071879
 20
2551.77693094495
  0
VERTEX
  8
51
 62
7
  6
CONTINUOUS
 10
-2752.87292330318
 20
2561.34702635536
  0
VERTEX
  8
51
 62
7
  6
CONTINUOUS
 10
-2748.08890838629
 20
2574.5772422219
  0
VERTEX
  8
51
 62
7
  6
CONTINUOUS
 10
-2746.27635438474
 20
2588.31743776314
  0
VERTEX
  8
51
 62
7
  6
CONTINUOUS
 10
-2747.35870596898
 20
2603.10096209695
  0
VERTEX
  8
51
 62
7
  6
CONTINUOUS
 10
-2753.10396227971
 20
2633.94039638043
  0
VERTEX
  8
51
 62
7
  6
CONTINUOUS
 10
-2763.09193139722
 20
2663.41105681871
  0
VERTEX
  8
51
 62
7
  6
CONTINUOUS
 10
-2779.88083813792
 20
2702.28425006925
  0
VERTEX
  8
51
 62
7
  6
CONTINUOUS
 10
-2799.84565792212
 20
2739.78795878167
  0
VERTEX
  8
51
 62
7
  6
CONTINUOUS
 10
-2803.67527000006
 20
2748.47731196431
  0
VERTEX
  8
51
 62
7
  6
CONTINUOUS
 10
-2942.47449939136
 20
2880.57360812244
  0
VERTEX
  8
51
 62
7
  6
CONTINUOUS
 10
-2956.33807375475
 20
2887.8218455241
  0
VERTEX
  8
51
 62
7
  6
CONTINUOUS
 10
-2976.90998787428
 20
2890.95975105154
  0
VERTEX
  8
51
 62
7
  6
CONTINUOUS
 10
-2993.62435173249
 20
2889.21828562962
  0
VERTEX
  8
51
 62
7
  6
CONTINUOUS
 10
-3010.90105201006
 20
2882.16859365343
  0
VERTEX
  8
51
 62
7
  6
CONTINUOUS
 10
-3027.26524767168
 20
2872.27349314315
  0
VERTEX
  8
51
 62
7
  6
CONTINUOUS
 10
-3041.95649564237
 20
2857.19567697952
  0
VERTEX
  8
51
 62
7
  6
CONTINUOUS
 10
-3060.03785543056
 20
2824.23851531151
  0
VERTEX
  8
51
 62
7
  6
CONTINUOUS
 10
-3065.07920377933
 20
2806.00466976794
  0
SEQEND
  0
POLYLINE
  8
51
 62
7
 66
1
 70
1
  0
VERTEX
  8
51
 62
7
  6
CONTINUOUS
 10
-2906.90604101902
 20
1760.1930455025
  0
VERTEX
  8
51
 62
7
  6
CONTINUOUS
 10
-2904.97714743954
 20
1757.93115998837
  0
VERTEX
  8
51
 62
7
  6
CONTINUOUS
 10
-2894.26587977886
 20
1746.62102172478
  0
VERTEX
  8
51
 62
7
  6
CONTINUOUS
 10
-2888.95877002775
 20
1744.38228567742
  0
VERTEX
  8
51
 62
7
  6
CONTINUOUS
 10
-2887.2309443244
 20
1745.32093482318
  0
VERTEX
  8
51
 62
7
  6
CONTINUOUS
 10
-2887.17714927263
 20
1749.81669998302
  0
VERTEX
  8
51
 62
7
  6
CONTINUOUS
 10
-2891.05835663852
 20
1757.31228727309
  0
VERTEX
  8
51
 62
7
  6
CONTINUOUS
 10
-2899.53757214959
 20
1763.89653751415
  0
VERTEX
  8
51
 62
7
  6
CONTINUOUS
 10
-2903.77886357051
 20
1764.6613631955
  0
VERTEX
  8
51
 62
7
  6
CONTINUOUS
 10
-2906.49842277847
 20
1762.02157435652
  0
SEQEND
  0
POLYLINE
  8
51
 62
7
 66
1
 70
1
  0
VERTEX
  8
51
 62
7
  6
CONTINUOUS
 10
-2956.56301057513
 20
1121.21681030334
  0
VERTEX
  8
51
 62
7
  6
CONTINUOUS
 10
-2936.77308479951
 20
1111.23882350667
  0
VERTEX
  8
51
 62
7
  6
CONTINUOUS
 10
-2924.73478370435
 20
1107.58966371425
  0
VERTEX
  8
51
 62
7
  6
CONTINUOUS
 10
-2904.53654487045
 20
1103.4465998178
  0
VERTEX
  8
51
 62
7
  6
CONTINUOUS
 10
-2882.57080941593
 20
1101.35484756891
  0
VERTEX
  8
51
 62
7
  6
CONTINUOUS
 10
-2859.56871409447
 20
1102.05009367702
  0
VERTEX
  8
51
 62
7
  6
CONTINUOUS
 10
-2842.44281031718
 20
1103.66156120389
  0
VERTEX
  8
51
 62
7
  6
CONTINUOUS
 10
-2843.37962548464
 20
1113.61758336849
  0
VERTEX
  8
51
 62
7
  6
CONTINUOUS
 10
-2860.18880629232
 20
1112.03591799321
  0
VERTEX
  8
51
 62
7
  6
CONTINUOUS
 10
-2882.24660366468
 20
1111.36921360988
  0
VERTEX
  8
51
 62
7
  6
CONTINUOUS
 10
-2903.05359692703
 20
1113.35062119986
  0
VERTEX
  8
51
 62
7
  6
CONTINUOUS
 10
-2922.27442746332
 20
1117.29319905082
  0
VERTEX
  8
51
 62
7
  6
CONTINUOUS
 10
-2933.04384633118
 20
1120.55772367183
  0
VERTEX
  8
51
 62
7
  6
CONTINUOUS
 10
-2952.06093133564
 20
1130.14604781397
  0
SEQEND
  0
POLYLINE
  8
51
 62
7
 66
1
 70
1
  0
VERTEX
  8
51
 62
7
  6
CONTINUOUS
 10
-3087.35869120895
 20
1257.96031208776
  0
VERTEX
  8
51
 62
7
  6
CONTINUOUS
 10
-3086.28513106131
 20
1248.01810566215
  0
VERTEX
  8
51
 62
7
  6
CONTINUOUS
 10
-3055.43801468355
 20
1251.34897945367
  0
VERTEX
  8
51
 62
7
  6
CONTINUOUS
 10
-3033.83636004271
 20
1252.44315404799
  0
VERTEX
  8
51
 62
7
  6
CONTINUOUS
 10
-3023.58232807907
 20
1252.02885401421
  0
VERTEX
  8
51
 62
7
  6
CONTINUOUS
 10
-3012.14535808621
 20
1250.35384920229
  0
VERTEX
  8
51
 62
7
  6
CONTINUOUS
 10
-2987.95582398931
 20
1245.66821879973
  0
VERTEX
  8
51
 62
7
  6
CONTINUOUS
 10
-2982.22621806635
 20
1242.89739548446
  0
VERTEX
  8
51
 62
7
  6
CONTINUOUS
 10
-2978.51138018359
 20
1244.00203858194
  0
VERTEX
  8
51
 62
7
  6
CONTINUOUS
 10
-2976.51118532875
 20
1247.32159840377
  0
VERTEX
  8
51
 62
7
  6
CONTINUOUS
 10
-2977.11916723554
 20
1250.36489673607
  0
VERTEX
  8
51
 62
7
  6
CONTINUOUS
 10
-2984.62747362795
 20
1248.8649075997
  0
VERTEX
  8
51
 62
7
  6
CONTINUOUS
 10
-2979.61711797208
 20
1252.74359581327
  0
VERTEX
  8
51
 62
7
  6
CONTINUOUS
 10
-2984.77507988705
 20
1255.23797349394
  0
VERTEX
  8
51
 62
7
  6
CONTINUOUS
 10
-3010.46907767823
 20
1260.21502583118
  0
VERTEX
  8
51
 62
7
  6
CONTINUOUS
 10
-3022.65336738674
 20
1261.99947957236
  0
VERTEX
  8
51
 62
7
  6
CONTINUOUS
 10
-3033.88754999112
 20
1262.45338124237
  0
VERTEX
  8
51
 62
7
  6
CONTINUOUS
 10
-3056.22837300898
 20
1261.32176603191
  0
SEQEND
  0
POLYLINE
  8
51
 62
7
 66
1
 70
1
  0
VERTEX
  8
51
 62
7
  6
CONTINUOUS
 10
-3106.61051863688
 20
531.963630056315
  0
VERTEX
  8
51
 62
7
  6
CONTINUOUS
 10
-3104.40384089717
 20
517.383557163731
  0
VERTEX
  8
51
 62
7
  6
CONTINUOUS
 10
-3099.91037993778
 20
506.460594642218
  0
VERTEX
  8
51
 62
7
  6
CONTINUOUS
 10
-3085.00389286791
 20
490.98880207523
  0
VERTEX
  8
51
 62
7
  6
CONTINUOUS
 10
-3075.37785334578
 20
488.370540606569
  0
VERTEX
  8
51
 62
7
  6
CONTINUOUS
 10
-3065.62432972088
 20
488.012851889125
  0
VERTEX
  8
51
 62
7
  6
CONTINUOUS
 10
-3048.35199287477
 20
489.583953068102
  0
VERTEX
  8
51
 62
7
  6
CONTINUOUS
 10
-2826.66417581908
 20
473.763078437546
  0
VERTEX
  8
51
 62
7
  6
CONTINUOUS
 10
-2822.39534953945
 20
481.356764445952
  0
VERTEX
  8
51
 62
7
  6
CONTINUOUS
 10
-2814.18619444366
 20
504.494406992532
  0
VERTEX
  8
51
 62
7
  6
CONTINUOUS
 10
-2810.72864511631
 20
519.200266898327
  0
VERTEX
  8
51
 62
7
  6
CONTINUOUS
 10
-2805.89549242967
 20
552.600232648422
  0
VERTEX
  8
51
 62
7
  6
CONTINUOUS
 10
-2804.469486147
 20
569.44012765646
  0
VERTEX
  8
51
 62
7
  6
CONTINUOUS
 10
-2804.46526518068
 20
589.1505272045
  0
VERTEX
  8
51
 62
7
  6
CONTINUOUS
 10
-2805.70629691258
 20
605.813193352521
  0
VERTEX
  8
51
 62
7
  6
CONTINUOUS
 10
-2808.36936961215
 20
624.152564067918
  0
VERTEX
  8
51
 62
7
  6
CONTINUOUS
 10
-2811.99806656198
 20
640.510941525548
  0
VERTEX
  8
51
 62
7
  6
CONTINUOUS
 10
-2824.99704067754
 20
667.717125869238
  0
VERTEX
  8
51
 62
7
  6
CONTINUOUS
 10
-2835.51016007477
 20
679.301777510939
  0
VERTEX
  8
51
 62
7
  6
CONTINUOUS
 10
-2847.64954847964
 20
687.762577345211
  0
VERTEX
  8
51
 62
7
  6
CONTINUOUS
 10
-2861.36475945364
 20
691.448514531132
  0
VERTEX
  8
51
 62
7
  6
CONTINUOUS
 10
-2873.88688301505
 20
691.806796142041
  0
VERTEX
  8
51
 62
7
  6
CONTINUOUS
 10
-2889.4575178092
 20
689.778130534446
  0
VERTEX
  8
51
 62
7
  6
CONTINUOUS
 10
-2912.70018716888
 20
681.985307754714
  0
VERTEX
  8
51
 62
7
  6
CONTINUOUS
 10
-2930.40493865611
 20
677.544099111174
  0
VERTEX
  8
51
 62
7
  6
CONTINUOUS
 10
-2949.48165455099
 20
671.401384233693
  0
VERTEX
  8
51
 62
7
  6
CONTINUOUS
 10
-2962.36013961879
 20
668.203742077594
  0
VERTEX
  8
51
 62
7
  6
CONTINUOUS
 10
-2980.85204087604
 20
664.93110202834
  0
VERTEX
  8
51
 62
7
  6
CONTINUOUS
 10
-3018.72572455127
 20
654.271212402819
  0
VERTEX
  8
51
 62
7
  6
CONTINUOUS
 10
-3035.05938737257
 20
647.442110086989
  0
VERTEX
  8
51
 62
7
  6
CONTINUOUS
 10
-3049.86929500134
 20
639.469681433994
  0
VERTEX
  8
51
 62
7
  6
CONTINUOUS
 10
-3072.27626649946
 20
619.99267942232
  0
VERTEX
  8
51
 62
7
  6
CONTINUOUS
 10
-3083.88713404901
 20
605.669565551843
  0
VERTEX
  8
51
 62
7
  6
CONTINUOUS
 10
-3099.53959860962
 20
577.351916865224
  0
VERTEX
  8
51
 62
7
  6
CONTINUOUS
 10
-3103.47981863797
 20
562.315960315402
  0
VERTEX
  8
51
 62
7
  6
CONTINUOUS
 10
-3105.921694352
 20
546.085882868969
  0
SEQEND
  0
POLYLINE
  8
51
 62
7
 66
1
 70
1
  0
VERTEX
  8
51
 62
7
  6
CONTINUOUS
 10
-3299.19638278461
 20
793.379722417752
  0
VERTEX
  8
51
 62
7
  6
CONTINUOUS
 10
-3293.54286550897
 20
785.131223013976
  0
VERTEX
  8
51
 62
7
  6
CONTINUOUS
 10
-3292.63019961955
 20
785.756763748132
  0
VERTEX
  8
51
 62
7
  6
CONTINUOUS
 10
-3290.08742198294
 20
786.238164062754
  0
VERTEX
  8
51
 62
7
  6
CONTINUOUS
 10
-3266.94192383649
 20
787.629900582738
  0
VERTEX
  8
51
 62
7
  6
CONTINUOUS
 10
-3229.35446820841
 20
788.252934573554
  0
VERTEX
  8
51
 62
7
  6
CONTINUOUS
 10
-3146.73280143396
 20
785.504762760532
  0
VERTEX
  8
51
 62
7
  6
CONTINUOUS
 10
-3122.15045228783
 20
782.106128950971
  0
VERTEX
  8
51
 62
7
  6
CONTINUOUS
 10
-3120.7809287231
 20
792.011905306495
  0
VERTEX
  8
51
 62
7
  6
CONTINUOUS
 10
-3145.87950980257
 20
795.481910785696
  0
VERTEX
  8
51
 62
7
  6
CONTINUOUS
 10
-3229.27106431325
 20
798.255690697154
  0
VERTEX
  8
51
 62
7
  6
CONTINUOUS
 10
-3267.3250789202
 20
797.624923219255
  0
VERTEX
  8
51
 62
7
  6
CONTINUOUS
 10
-3291.32258890441
 20
796.181955311528
  0
VERTEX
  8
51
 62
7
  6
CONTINUOUS
 10
-3296.55252657417
 20
795.191820113144
  0
SEQEND
  0
POLYLINE
  8
51
 62
7
 66
1
 70
1
  0
VERTEX
  8
51
 62
7
  6
CONTINUOUS
 10
-2246.46177048578
 20
1295.65892140295
  0
VERTEX
  8
51
 62
7
  6
CONTINUOUS
 10
-2245.03970232116
 20
1294.10921683266
  0
VERTEX
  8
51
 62
7
  6
CONTINUOUS
 10
-2240.21386561351
 20
1293.34618336612
  0
VERTEX
  8
51
 62
7
  6
CONTINUOUS
 10
-2234.65093393829
 20
1294.89439210427
  0
VERTEX
  8
51
 62
7
  6
CONTINUOUS
 10
-2205.51721619717
 20
1294.50715313316
  0
VERTEX
  8
51
 62
7
  6
CONTINUOUS
 10
-2202.06214179208
 20
1297.65601330396
  0
VERTEX
  8
51
 62
7
  6
CONTINUOUS
 10
-2205.36360865618
 20
1300.14592036753
  0
VERTEX
  8
51
 62
7
  6
CONTINUOUS
 10
-2213.92312017226
 20
1301.49395341094
  0
VERTEX
  8
51
 62
7
  6
CONTINUOUS
 10
-2224.26084922315
 20
1301.82636723493
  0
VERTEX
  8
51
 62
7
  6
CONTINUOUS
 10
-2234.67495777215
 20
1301.32059739631
  0
VERTEX
  8
51
 62
7
  6
CONTINUOUS
 10
-2246.08016672227
 20
1298.47823974746
  0
SEQEND
  0
POLYLINE
  8
51
 62
7
 66
1
 70
1
  0
VERTEX
  8
51
 62
7
  6
CONTINUOUS
 10
-1776.73628707576
 20
2438.04766638603
  0
VERTEX
  8
51
 62
7
  6
CONTINUOUS
 10
-1774.58760952354
 20
2422.55223151711
  0
VERTEX
  8
51
 62
7
  6
CONTINUOUS
 10
-1769.00820676369
 20
2409.64531170317
  0
VERTEX
  8
51
 62
7
  6
CONTINUOUS
 10
-1760.47834355524
 20
2402.83242767031
  0
VERTEX
  8
51
 62
7
  6
CONTINUOUS
 10
-1750.19361328683
 20
2399.42197531523
  0
VERTEX
  8
51
 62
7
  6
CONTINUOUS
 10
-1739.34632662268
 20
2401.64994944115
  0
VERTEX
  8
51
 62
7
  6
CONTINUOUS
 10
-1728.0892896392
 20
2408.90685171091
  0
VERTEX
  8
51
 62
7
  6
CONTINUOUS
 10
-1715.76059649078
 20
2423.45284167009
  0
VERTEX
  8
51
 62
7
  6
CONTINUOUS
 10
-1695.7455544065
 20
2461.33631622887
  0
VERTEX
  8
51
 62
7
  6
CONTINUOUS
 10
-1686.43436728805
 20
2483.52971812146
  0
VERTEX
  8
51
 62
7
  6
CONTINUOUS
 10
-1678.7987337346
 20
2506.9942365354
  0
VERTEX
  8
51
 62
7
  6
CONTINUOUS
 10
-1673.62876097304
 20
2527.66639693157
  0
VERTEX
  8
51
 62
7
  6
CONTINUOUS
 10
-1672.93018557382
 20
2546.84293580207
  0
VERTEX
  8
51
 62
7
  6
CONTINUOUS
 10
-1676.50148278678
 20
2562.00911833483
  0
VERTEX
  8
51
 62
7
  6
CONTINUOUS
 10
-1684.03792036462
 20
2573.06314149726
  0
VERTEX
  8
51
 62
7
  6
CONTINUOUS
 10
-1694.82938142578
 20
2578.37893185482
  0
VERTEX
  8
51
 62
7
  6
CONTINUOUS
 10
-1707.96182151966
 20
2577.42248036049
  0
VERTEX
  8
51
 62
7
  6
CONTINUOUS
 10
-1718.93810486433
 20
2572.19739150596
  0
VERTEX
  8
51
 62
7
  6
CONTINUOUS
 10
-1724.98829529461
 20
2564.70842042861
  0
VERTEX
  8
51
 62
7
  6
CONTINUOUS
 10
-1729.99755975126
 20
2556.50755573741
  0
VERTEX
  8
51
 62
7
  6
CONTINUOUS
 10
-1729.03796090255
 20
2548.09951459517
  0
VERTEX
  8
51
 62
7
  6
CONTINUOUS
 10
-1741.36831233445
 20
2531.06432518835
  0
VERTEX
  8
51
 62
7
  6
CONTINUOUS
 10
-1758.2795802559
 20
2500.64638457874
  0
VERTEX
  8
51
 62
7
  6
CONTINUOUS
 10
-1765.24939915266
 20
2485.30942440839
  0
VERTEX
  8
51
 62
7
  6
CONTINUOUS
 10
-1771.99053349384
 20
2470.09931191852
  0
VERTEX
  8
51
 62
7
  6
CONTINUOUS
 10
-1775.75985157321
 20
2454.91261963558
  0
SEQEND
  0
POLYLINE
  8
51
 62
7
 66
1
 70
1
  0
VERTEX
  8
51
 62
7
  6
CONTINUOUS
 10
-1847.22388477818
 20
896.330131647312
  0
VERTEX
  8
51
 62
7
  6
CONTINUOUS
 10
-1847.0980270529
 20
890.996104572672
  0
VERTEX
  8
51
 62
7
  6
CONTINUOUS
 10
-1845.54920366372
 20
888.303372831645
  0
VERTEX
  8
51
 62
7
  6
CONTINUOUS
 10
-1845.98247228901
 20
881.445465458522
  0
VERTEX
  8
51
 62
7
  6
CONTINUOUS
 10
-1846.0122727546
 20
860.896871369091
  0
VERTEX
  8
51
 62
7
  6
CONTINUOUS
 10
-1843.32297870778
 20
846.392895126358
  0
VERTEX
  8
51
 62
7
  6
CONTINUOUS
 10
-1836.82437011142
 20
828.687703048574
  0
VERTEX
  8
51
 62
7
  6
CONTINUOUS
 10
-1828.5226280865
 20
809.737524802669
  0
VERTEX
  8
51
 62
7
  6
CONTINUOUS
 10
-1817.50248235165
 20
793.60616447743
  0
VERTEX
  8
51
 62
7
  6
CONTINUOUS
 10
-1804.7293123846
 20
779.455628788881
  0
VERTEX
  8
51
 62
7
  6
CONTINUOUS
 10
-1787.28236302487
 20
766.14229223343
  0
VERTEX
  8
51
 62
7
  6
CONTINUOUS
 10
-1775.396539463
 20
759.71354674646
  0
VERTEX
  8
51
 62
7
  6
CONTINUOUS
 10
-1762.41770001775
 20
757.094567278375
  0
VERTEX
  8
51
 62
7
  6
CONTINUOUS
 10
-1752.18087472266
 20
760.013375137396
  0
VERTEX
  8
51
 62
7
  6
CONTINUOUS
 10
-1744.76218742454
 20
768.825586633539
  0
VERTEX
  8
51
 62
7
  6
CONTINUOUS
 10
-1740.82222848689
 20
782.642343211317
  0
VERTEX
  8
51
 62
7
  6
CONTINUOUS
 10
-1739.97939414619
 20
804.282963215237
  0
VERTEX
  8
51
 62
7
  6
CONTINUOUS
 10
-1742.46417186538
 20
824.933695801907
  0
VERTEX
  8
51
 62
7
  6
CONTINUOUS
 10
-1747.5395265102
 20
846.626383182434
  0
VERTEX
  8
51
 62
7
  6
CONTINUOUS
 10
-1757.03400782678
 20
870.529816966077
  0
VERTEX
  8
51
 62
7
  6
CONTINUOUS
 10
-1767.41864227357
 20
889.048641251829
  0
VERTEX
  8
51
 62
7
  6
CONTINUOUS
 10
-1775.13813161335
 20
898.905494600281
  0
VERTEX
  8
51
 62
7
  6
CONTINUOUS
 10
-1800.12864146697
 20
913.338046628811
  0
VERTEX
  8
51
 62
7
  6
CONTINUOUS
 10
-1814.96206162698
 20
914.179423213105
  0
VERTEX
  8
51
 62
7
  6
CONTINUOUS
 10
-1826.39259986446
 20
911.667270996075
  0
VERTEX
  8
51
 62
7
  6
CONTINUOUS
 10
-1836.35013395374
 20
908.240403315416
  0
VERTEX
  8
51
 62
7
  6
CONTINUOUS
 10
-1842.4214354958
 20
904.965103404658
  0
SEQEND
  0
POLYLINE
  8
51
 62
7
 66
1
 70
1
  0
VERTEX
  8
51
 62
7
  6
CONTINUOUS
 10
-1586.45623499404
 20
1774.70607912212
  0
VERTEX
  8
51
 62
7
  6
CONTINUOUS
 10
-1576.32813500686
 20
1764.9457297037
  0
VERTEX
  8
51
 62
7
  6
CONTINUOUS
 10
-1561.78466631543
 20
1748.83243739511
  0
VERTEX
  8
51
 62
7
  6
CONTINUOUS
 10
-1468.32485107758
 20
1654.25675428828
  0
VERTEX
  8
51
 62
7
  6
CONTINUOUS
 10
-1438.31249963144
 20
1621.93961369543
  0
VERTEX
  8
51
 62
7
  6
CONTINUOUS
 10
-1401.26153738417
 20
1586.27007844375
  0
VERTEX
  8
51
 62
7
  6
CONTINUOUS
 10
-1367.56229806087
 20
1555.63046107619
  0
VERTEX
  8
51
 62
7
  6
CONTINUOUS
 10
-1277.43385511493
 20
1480.17315841236
  0
VERTEX
  8
51
 62
7
  6
CONTINUOUS
 10
-1221.43577155869
 20
1438.53056551293
  0
SEQEND
  0
POLYLINE
  8
51
 62
7
 66
1
 70
1
  0
VERTEX
  8
51
 62
7
  6
CONTINUOUS
 10
-3325.84955082301
 20
1366.00535401775
  0
VERTEX
  8
51
 62
7
  6
CONTINUOUS
 10
-3325.56745202922
 20
1365.98026823697
  0
VERTEX
  8
51
 62
7
  6
CONTINUOUS
 10
-3325.43534949942
 20
1349.45458487654
  0
VERTEX
  8
51
 62
7
  6
CONTINUOUS
 10
-3321.73283480961
 20
1335.89532922767
  0
VERTEX
  8
51
 62
7
  6
CONTINUOUS
 10
-3314.71385323994
 20
1324.18220034193
  0
VERTEX
  8
51
 62
7
  6
CONTINUOUS
 10
-3305.98728187311
 20
1313.13276991184
  0
VERTEX
  8
51
 62
7
  6
CONTINUOUS
 10
-3294.22272674068
 20
1304.28512617306
  0
VERTEX
  8
51
 62
7
  6
CONTINUOUS
 10
-3282.98786587946
 20
1297.47687390649
  0
VERTEX
  8
51
 62
7
  6
CONTINUOUS
 10
-3269.2906544408
 20
1291.82565119583
  0
VERTEX
  8
51
 62
7
  6
CONTINUOUS
 10
-3254.61193889902
 20
1286.92925306011
  0
VERTEX
  8
51
 62
7
  6
CONTINUOUS
 10
-3239.46595453216
 20
1284.70095414535
  0
VERTEX
  8
51
 62
7
  6
CONTINUOUS
 10
-3209.22918094476
 20
1284.66845763867
  0
VERTEX
  8
51
 62
7
  6
CONTINUOUS
 10
-3195.1729238897
 20
1286.68110133358
  0
VERTEX
  8
51
 62
7
  6
CONTINUOUS
 10
-3183.85522748178
 20
1290.30761868391
  0
VERTEX
  8
51
 62
7
  6
CONTINUOUS
 10
-3183.63992526937
 20
1290.39958022509
  0
VERTEX
  8
51
 62
7
  6
CONTINUOUS
 10
-3161.68412073435
 20
1299.77751276032
  0
VERTEX
  8
51
 62
7
  6
CONTINUOUS
 10
-3149.19720279628
 20
1309.68684582395
  0
VERTEX
  8
51
 62
7
  6
CONTINUOUS
 10
-3140.77606856895
 20
1318.32159942014
  0
VERTEX
  8
51
 62
7
  6
CONTINUOUS
 10
-3136.28151672212
 20
1325.06030005464
  0
VERTEX
  8
51
 62
7
  6
CONTINUOUS
 10
-3131.75146899517
 20
1336.03899432079
  0
VERTEX
  8
51
 62
7
  6
CONTINUOUS
 10
-3130.6983266825
 20
1346.09822666532
  0
VERTEX
  8
51
 62
7
  6
CONTINUOUS
 10
-3134.77439473424
 20
1363.73185119335
  0
VERTEX
  8
51
 62
7
  6
CONTINUOUS
 10
-3158.90118477944
 20
1403.17941709273
  0
VERTEX
  8
51
 62
7
  6
CONTINUOUS
 10
-3175.16598376213
 20
1431.56292035462
  0
VERTEX
  8
51
 62
7
  6
CONTINUOUS
 10
-3179.74743257737
 20
1443.12445883992
  0
VERTEX
  8
51
 62
7
  6
CONTINUOUS
 10
-3187.75332236855
 20
1458.56528465527
  0
VERTEX
  8
51
 62
7
  6
CONTINUOUS
 10
-3193.41630981485
 20
1475.74201106334
  0
VERTEX
  8
51
 62
7
  6
CONTINUOUS
 10
-3205.83981017547
 20
1506.44358348142
  0
VERTEX
  8
51
 62
7
  6
CONTINUOUS
 10
-3215.74647892243
 20
1520.97284868006
  0
VERTEX
  8
51
 62
7
  6
CONTINUOUS
 10
-3224.15167995058
 20
1529.1302260352
  0
VERTEX
  8
51
 62
7
  6
CONTINUOUS
 10
-3234.37960328487
 20
1535.39465327104
  0
VERTEX
  8
51
 62
7
  6
CONTINUOUS
 10
-3245.99725288635
 20
1538.68482893781
  0
VERTEX
  8
51
 62
7
  6
CONTINUOUS
 10
-3259.86820863826
 20
1540.42510862794
  0
VERTEX
  8
51
 62
7
  6
CONTINUOUS
 10
-3271.97235146371
 20
1539.42368822876
  0
VERTEX
  8
51
 62
7
  6
CONTINUOUS
 10
-3283.2212998146
 20
1535.85614446192
  0
VERTEX
  8
51
 62
7
  6
CONTINUOUS
 10
-3292.55675354207
 20
1529.88895281097
  0
VERTEX
  8
51
 62
7
  6
CONTINUOUS
 10
-3299.16190910494
 20
1521.77366640046
  0
VERTEX
  8
51
 62
7
  6
CONTINUOUS
 10
-3291.40614396456
 20
1515.46113069069
  0
VERTEX
  8
51
 62
7
  6
CONTINUOUS
 10
-3285.81609056714
 20
1522.32923302956
  0
VERTEX
  8
51
 62
7
  6
CONTINUOUS
 10
-3278.94412539524
 20
1526.72177081043
  0
VERTEX
  8
51
 62
7
  6
CONTINUOUS
 10
-3270.02410348241
 20
1529.55070802149
  0
VERTEX
  8
51
 62
7
  6
CONTINUOUS
 10
-3260.08065517735
 20
1530.37336619023
  0
VERTEX
  8
51
 62
7
  6
CONTINUOUS
 10
-3247.99350776636
 20
1528.85688689875
  0
VERTEX
  8
51
 62
7
  6
CONTINUOUS
 10
-3238.42884154952
 20
1526.14812625206
  0
VERTEX
  8
51
 62
7
  6
CONTINUOUS
 10
-3230.32036951451
 20
1521.18182650606
  0
VERTEX
  8
51
 62
7
  6
CONTINUOUS
 10
-3223.43794749679
 20
1514.50232968881
  0
VERTEX
  8
51
 62
7
  6
CONTINUOUS
 10
-3214.70686945444
 20
1501.69720300219
  0
VERTEX
  8
51
 62
7
  6
CONTINUOUS
 10
-3202.81003996877
 20
1472.29716586307
  0
VERTEX
  8
51
 62
7
  6
CONTINUOUS
 10
-3196.99967964204
 20
1454.67343446496
  0
VERTEX
  8
51
 62
7
  6
CONTINUOUS
 10
-3188.85783849526
 20
1438.97040154259
  0
VERTEX
  8
51
 62
7
  6
CONTINUOUS
 10
-3184.19868088214
 20
1427.21276062475
  0
VERTEX
  8
51
 62
7
  6
CONTINUOUS
 10
-3167.50659539882
 20
1398.08360487756
  0
VERTEX
  8
51
 62
7
  6
CONTINUOUS
 10
-3144.1520093077
 20
1359.89860089831
  0
VERTEX
  8
51
 62
7
  6
CONTINUOUS
 10
-3140.81814203915
 20
1345.4758378596
  0
VERTEX
  8
51
 62
7
  6
CONTINUOUS
 10
-3141.54664407673
 20
1338.51745135162
  0
VERTEX
  8
51
 62
7
  6
CONTINUOUS
 10
-3145.14881712971
 20
1329.7874866744
  0
VERTEX
  8
51
 62
7
  6
CONTINUOUS
 10
-3148.5816107355
 20
1324.64068467103
  0
VERTEX
  8
51
 62
7
  6
CONTINUOUS
 10
-3155.91193559883
 20
1317.12441105917
  0
VERTEX
  8
51
 62
7
  6
CONTINUOUS
 10
-3166.84779875694
 20
1308.44595966632
  0
VERTEX
  8
51
 62
7
  6
CONTINUOUS
 10
-3187.35259651276
 20
1299.6877923354
  0
VERTEX
  8
51
 62
7
  6
CONTINUOUS
 10
-3197.42316824963
 20
1296.46088980902
  0
VERTEX
  8
51
 62
7
  6
CONTINUOUS
 10
-3209.93612649379
 20
1294.66922319278
  0
VERTEX
  8
51
 62
7
  6
CONTINUOUS
 10
-3238.72894067406
 20
1294.70016782633
  0
VERTEX
  8
51
 62
7
  6
CONTINUOUS
 10
-3252.2840527104
 20
1296.6944153251
  0
VERTEX
  8
51
 62
7
  6
CONTINUOUS
 10
-3265.79732394799
 20
1301.20205469633
  0
VERTEX
  8
51
 62
7
  6
CONTINUOUS
 10
-3278.46298384604
 20
1306.42767782276
  0
VERTEX
  8
51
 62
7
  6
CONTINUOUS
 10
-3288.61214840573
 20
1312.57800522519
  0
VERTEX
  8
51
 62
7
  6
CONTINUOUS
 10
-3298.9420354058
 20
1320.34669337443
  0
VERTEX
  8
51
 62
7
  6
CONTINUOUS
 10
-3306.46705776067
 20
1329.87474368192
  0
VERTEX
  8
51
 62
7
  6
CONTINUOUS
 10
-3312.4482306541
 20
1339.85599926625
  0
VERTEX
  8
51
 62
7
  6
CONTINUOUS
 10
-3315.44606136019
 20
1350.83457905361
  0
VERTEX
  8
51
 62
7
  6
CONTINUOUS
 10
-3315.60528096711
 20
1370.75253832884
  0
VERTEX
  8
51
 62
7
  6
CONTINUOUS
 10
-3318.38844527792
 20
1373.62724280557
  0
VERTEX
  8
51
 62
7
  6
CONTINUOUS
 10
-3322.38642955958
 20
1373.78864631585
  0
VERTEX
  8
51
 62
7
  6
CONTINUOUS
 10
-3325.3922694098
 20
1371.14765101023
  0
SEQEND
  0
POLYLINE
  8
51
 62
7
 66
1
 70
1
  0
VERTEX
  8
51
 62
7
  6
CONTINUOUS
 10
-3307.73100615984
 20
2322.60255577078
  0
VERTEX
  8
51
 62
7
  6
CONTINUOUS
 10
-3305.3539211687
 20
2319.80075497445
  0
VERTEX
  8
51
 62
7
  6
CONTINUOUS
 10
-3301.72829712977
 20
2319.20454101476
  0
VERTEX
  8
51
 62
7
  6
CONTINUOUS
 10
-3293.10283156876
 20
2324.38959753675
  0
VERTEX
  8
51
 62
7
  6
CONTINUOUS
 10
-3288.78640741217
 20
2325.94568394997
  0
VERTEX
  8
51
 62
7
  6
CONTINUOUS
 10
-3262.43897883844
 20
2334.49924794794
  0
VERTEX
  8
51
 62
7
  6
CONTINUOUS
 10
-3252.42303782956
 20
2336.83740663608
  0
VERTEX
  8
51
 62
7
  6
CONTINUOUS
 10
-3217.02860189996
 20
2342.18068393951
  0
VERTEX
  8
51
 62
7
  6
CONTINUOUS
 10
-3182.37690721937
 20
2348.54002577502
  0
VERTEX
  8
51
 62
7
  6
CONTINUOUS
 10
-3154.71599721673
 20
2351.57517992623
  0
VERTEX
  8
51
 62
7
  6
CONTINUOUS
 10
-3155.80672264517
 20
2361.51551785005
  0
VERTEX
  8
51
 62
7
  6
CONTINUOUS
 10
-3183.82669523252
 20
2358.44096476748
  0
VERTEX
  8
51
 62
7
  6
CONTINUOUS
 10
-3218.67791344589
 20
2352.04500601147
  0
VERTEX
  8
51
 62
7
  6
CONTINUOUS
 10
-3254.30903637125
 20
2346.66599754807
  0
VERTEX
  8
51
 62
7
  6
CONTINUOUS
 10
-3265.12433962247
 20
2344.1412327517
  0
VERTEX
  8
51
 62
7
  6
CONTINUOUS
 10
-3292.0268395343
 20
2335.40746755494
  0
VERTEX
  8
51
 62
7
  6
CONTINUOUS
 10
-3297.4155483585
 20
2333.46481866736
  0
VERTEX
  8
51
 62
7
  6
CONTINUOUS
 10
-3305.30583295977
 20
2328.72170406761
  0
VERTEX
  8
51
 62
7
  6
CONTINUOUS
 10
-3298.62824136368
 20
2324.94165165051
  0
VERTEX
  8
51
 62
7
  6
CONTINUOUS
 10
-3307.72944383485
 20
2324.94771479417
  0
SEQEND
  0
POLYLINE
  8
51
 62
7
 66
1
 70
1
  0
VERTEX
  8
51
 62
7
  6
CONTINUOUS
 10
-3173.67862319941
 20
1139.95532293937
  0
VERTEX
  8
51
 62
7
  6
CONTINUOUS
 10
-3166.90559065794
 20
1131.96515746911
  0
VERTEX
  8
51
 62
7
  6
CONTINUOUS
 10
-3153.32024512097
 20
1128.71010822623
  0
VERTEX
  8
51
 62
7
  6
CONTINUOUS
 10
-3137.48781806223
 20
1129.13752957569
  0
VERTEX
  8
51
 62
7
  6
CONTINUOUS
 10
-3137.25130037169
 20
1129.16658547059
  0
VERTEX
  8
51
 62
7
  6
CONTINUOUS
 10
-3101.13154930671
 20
1133.60385055669
  0
VERTEX
  8
51
 62
7
  6
CONTINUOUS
 10
-3102.35087005735
 20
1143.52923502818
  0
VERTEX
  8
51
 62
7
  6
CONTINUOUS
 10
-3138.23410343178
 20
1139.12102583698
  0
VERTEX
  8
51
 62
7
  6
CONTINUOUS
 10
-3152.27224974858
 20
1138.74204392723
  0
VERTEX
  8
51
 62
7
  6
CONTINUOUS
 10
-3161.39333966156
 20
1140.927457374
  0
VERTEX
  8
51
 62
7
  6
CONTINUOUS
 10
-3163.40648764762
 20
1143.3023736949
  0
VERTEX
  8
51
 62
7
  6
CONTINUOUS
 10
-3163.21686979283
 20
1145.88952219064
  0
VERTEX
  8
51
 62
7
  6
CONTINUOUS
 10
-3159.53184967334
 20
1149.27103754419
  0
VERTEX
  8
51
 62
7
  6
CONTINUOUS
 10
-3153.51279627182
 20
1150.40250234301
  0
VERTEX
  8
51
 62
7
  6
CONTINUOUS
 10
-3150.46738645353
 20
1148.92788663221
  0
VERTEX
  8
51
 62
7
  6
CONTINUOUS
 10
-3146.7916909933
 20
1144.78880736655
  0
VERTEX
  8
51
 62
7
  6
CONTINUOUS
 10
-3138.92531051047
 20
1140.89285146212
  0
VERTEX
  8
51
 62
7
  6
CONTINUOUS
 10
-3134.90879512976
 20
1142.34816199962
  0
VERTEX
  8
51
 62
7
  6
CONTINUOUS
 10
-3133.00346509719
 20
1146.66440692229
  0
VERTEX
  8
51
 62
7
  6
CONTINUOUS
 10
-3133.71048741733
 20
1149.86350471056
  0
VERTEX
  8
51
 62
7
  6
CONTINUOUS
 10
-3138.95540849691
 20
1154.46429940379
  0
VERTEX
  8
51
 62
7
  6
CONTINUOUS
 10
-3144.31438675296
 20
1157.05916643375
  0
VERTEX
  8
51
 62
7
  6
CONTINUOUS
 10
-3144.68283372218
 20
1157.4740623976
  0
VERTEX
  8
51
 62
7
  6
CONTINUOUS
 10
-3146.42844667356
 20
1163.35193160084
  0
VERTEX
  8
51
 62
7
  6
CONTINUOUS
 10
-3144.69631091263
 20
1170.88654287491
  0
VERTEX
  8
51
 62
7
  6
CONTINUOUS
 10
-3140.39287131102
 20
1174.0722498864
  0
VERTEX
  8
51
 62
7
  6
CONTINUOUS
 10
-3133.2199308303
 20
1175.25674863564
  0
VERTEX
  8
51
 62
7
  6
CONTINUOUS
 10
-3123.61330917795
 20
1171.67262601944
  0
VERTEX
  8
51
 62
7
  6
CONTINUOUS
 10
-3115.79968278778
 20
1164.40769021202
  0
VERTEX
  8
51
 62
7
  6
CONTINUOUS
 10
-3110.75000377474
 20
1156.65980862256
  0
VERTEX
  8
51
 62
7
  6
CONTINUOUS
 10
-3109.98826658212
 20
1149.37561033477
  0
VERTEX
  8
51
 62
7
  6
CONTINUOUS
 10
-3108.78299332558
 20
1152.22671903035
  0
VERTEX
  8
51
 62
7
  6
CONTINUOUS
 10
-3103.11742823413
 20
1145.0267482651
  0
VERTEX
  8
51
 62
7
  6
CONTINUOUS
 10
-3100.91141183224
 20
1146.76263441314
  0
VERTEX
  8
51
 62
7
  6
CONTINUOUS
 10
-3099.90856455957
 20
1149.13489859799
  0
VERTEX
  8
51
 62
7
  6
CONTINUOUS
 10
-3101.05512995056
 20
1160.09906017352
  0
VERTEX
  8
51
 62
7
  6
CONTINUOUS
 10
-3108.09187990589
 20
1170.89576730833
  0
VERTEX
  8
51
 62
7
  6
CONTINUOUS
 10
-3118.25787398502
 20
1180.34788220549
  0
VERTEX
  8
51
 62
7
  6
CONTINUOUS
 10
-3132.22056976339
 20
1185.5572071413
  0
VERTEX
  8
51
 62
7
  6
CONTINUOUS
 10
-3144.40311420195
 20
1183.54545077879
  0
VERTEX
  8
51
 62
7
  6
CONTINUOUS
 10
-3153.61461740998
 20
1176.726451775
  0
VERTEX
  8
51
 62
7
  6
CONTINUOUS
 10
-3156.76382886691
 20
1163.02770789878
  0
VERTEX
  8
51
 62
7
  6
CONTINUOUS
 10
-3155.90278497146
 20
1160.12838053544
  0
VERTEX
  8
51
 62
7
  6
CONTINUOUS
 10
-3164.18759615093
 20
1158.57099740738
  0
VERTEX
  8
51
 62
7
  6
CONTINUOUS
 10
-3172.90021259375
 20
1150.57596744397
  0
SEQEND
  0
POLYLINE
  8
51
 62
7
 66
1
 70
1
  0
VERTEX
  8
51
 62
7
  6
CONTINUOUS
 10
-3261.99603119295
 20
1123.87347694909
  0
VERTEX
  8
51
 62
7
  6
CONTINUOUS
 10
-3261.62845931897
 20
1108.10810758673
  0
VERTEX
  8
51
 62
7
  6
CONTINUOUS
 10
-3259.29359630176
 20
1091.98128645302
  0
VERTEX
  8
51
 62
7
  6
CONTINUOUS
 10
-3253.65971629586
 20
1077.88783469379
  0
VERTEX
  8
51
 62
7
  6
CONTINUOUS
 10
-3245.88974113081
 20
1065.96829491486
  0
VERTEX
  8
51
 62
7
  6
CONTINUOUS
 10
-3234.75951412167
 20
1054.48364783816
  0
VERTEX
  8
51
 62
7
  6
CONTINUOUS
 10
-3222.3351653429
 20
1045.24371717192
  0
VERTEX
  8
51
 62
7
  6
CONTINUOUS
 10
-3221.60430365488
 20
1044.99126139542
  0
VERTEX
  8
51
 62
7
  6
CONTINUOUS
 10
-3193.955391467
 20
1035.44071618268
  0
VERTEX
  8
51
 62
7
  6
CONTINUOUS
 10
-3175.21672632867
 20
1033.13401003111
  0
VERTEX
  8
51
 62
7
  6
CONTINUOUS
 10
-3159.54409877363
 20
1032.68286163136
  0
VERTEX
  8
51
 62
7
  6
CONTINUOUS
 10
-3147.22853403829
 20
1033.93404407252
  0
VERTEX
  8
51
 62
7
  6
CONTINUOUS
 10
-3140.85778012382
 20
1036.67499380065
  0
VERTEX
  8
51
 62
7
  6
CONTINUOUS
 10
-3144.80991395964
 20
1045.86088723263
  0
VERTEX
  8
51
 62
7
  6
CONTINUOUS
 10
-3149.76860414822
 20
1043.72746304034
  0
VERTEX
  8
51
 62
7
  6
CONTINUOUS
 10
-3159.90712844307
 20
1042.69745395431
  0
VERTEX
  8
51
 62
7
  6
CONTINUOUS
 10
-3174.46031525571
 20
1043.11637840835
  0
VERTEX
  8
51
 62
7
  6
CONTINUOUS
 10
-3191.68710283888
 20
1045.23697433109
  0
VERTEX
  8
51
 62
7
  6
CONTINUOUS
 10
-3217.60851344826
 20
1054.19080232694
  0
VERTEX
  8
51
 62
7
  6
CONTINUOUS
 10
-3228.14210887318
 20
1062.02458847748
  0
VERTEX
  8
51
 62
7
  6
CONTINUOUS
 10
-3238.03843614309
 20
1072.23604471796
  0
VERTEX
  8
51
 62
7
  6
CONTINUOUS
 10
-3244.74170661957
 20
1082.51920488206
  0
VERTEX
  8
51
 62
7
  6
CONTINUOUS
 10
-3249.56702380245
 20
1094.58999355145
  0
VERTEX
  8
51
 62
7
  6
CONTINUOUS
 10
-3251.6452334164
 20
1108.94411817261
  0
VERTEX
  8
51
 62
7
  6
CONTINUOUS
 10
-3251.98238865252
 20
1123.40490042008
  0
VERTEX
  8
51
 62
7
  6
CONTINUOUS
 10
-3250.3321158149
 20
1137.46595463927
  0
VERTEX
  8
51
 62
7
  6
CONTINUOUS
 10
-3244.74658218676
 20
1153.37262321947
  0
VERTEX
  8
51
 62
7
  6
CONTINUOUS
 10
-3237.63326377745
 20
1165.75590321904
  0
VERTEX
  8
51
 62
7
  6
CONTINUOUS
 10
-3230.41778845704
 20
1172.96828882457
  0
VERTEX
  8
51
 62
7
  6
CONTINUOUS
 10
-3214.7011377869
 20
1184.89189832885
  0
VERTEX
  8
51
 62
7
  6
CONTINUOUS
 10
-3200.50273310831
 20
1193.13825593144
  0
VERTEX
  8
51
 62
7
  6
CONTINUOUS
 10
-3184.11902019523
 20
1197.53248260031
  0
VERTEX
  8
51
 62
7
  6
CONTINUOUS
 10
-3167.12350211807
 20
1200.63437746071
  0
VERTEX
  8
51
 62
7
  6
CONTINUOUS
 10
-3146.76838718645
 20
1200.53262543045
  0
VERTEX
  8
51
 62
7
  6
CONTINUOUS
 10
-3129.87605713361
 20
1197.62819800629
  0
VERTEX
  8
51
 62
7
  6
CONTINUOUS
 10
-3113.11448793485
 20
1192.58392529807
  0
VERTEX
  8
51
 62
7
  6
CONTINUOUS
 10
-3085.69415299556
 20
1171.97902071628
  0
VERTEX
  8
51
 62
7
  6
CONTINUOUS
 10
-3073.13182508727
 20
1157.29254020902
  0
VERTEX
  8
51
 62
7
  6
CONTINUOUS
 10
-3065.53135936096
 20
1143.42723619457
  0
VERTEX
  8
51
 62
7
  6
CONTINUOUS
 10
-3060.20089232152
 20
1128.15220808868
  0
VERTEX
  8
51
 62
7
  6
CONTINUOUS
 10
-3054.83173219708
 20
1100.76051466353
  0
VERTEX
  8
51
 62
7
  6
CONTINUOUS
 10
-3055.66650827624
 20
1084.84245598929
  0
VERTEX
  8
51
 62
7
  6
CONTINUOUS
 10
-3045.68023083604
 20
1084.31875484599
  0
VERTEX
  8
51
 62
7
  6
CONTINUOUS
 10
-3044.78072486958
 20
1101.47112553494
  0
VERTEX
  8
51
 62
7
  6
CONTINUOUS
 10
-3050.52462377249
 20
1130.77461326246
  0
VERTEX
  8
51
 62
7
  6
CONTINUOUS
 10
-3056.36330284592
 20
1147.50597775414
  0
VERTEX
  8
51
 62
7
  6
CONTINUOUS
 10
-3064.860148816
 20
1163.0065216394
  0
VERTEX
  8
51
 62
7
  6
CONTINUOUS
 10
-3078.80878424438
 20
1179.3137191443
  0
VERTEX
  8
51
 62
7
  6
CONTINUOUS
 10
-3108.52925542625
 20
1201.64705220477
  0
VERTEX
  8
51
 62
7
  6
CONTINUOUS
 10
-3127.5793791051
 20
1207.38004878891
  0
VERTEX
  8
51
 62
7
  6
CONTINUOUS
 10
-3145.8901536703
 20
1210.5283602201
  0
VERTEX
  8
51
 62
7
  6
CONTINUOUS
 10
-3168.00379424974
 20
1210.63890284454
  0
VERTEX
  8
51
 62
7
  6
CONTINUOUS
 10
-3186.31565696797
 20
1207.29675860439
  0
VERTEX
  8
51
 62
7
  6
CONTINUOUS
 10
-3204.37632320294
 20
1202.45276129754
  0
VERTEX
  8
51
 62
7
  6
CONTINUOUS
 10
-3220.25526013479
 20
1193.23035953809
  0
VERTEX
  8
51
 62
7
  6
CONTINUOUS
 10
-3237.00508492821
 20
1180.5229211472
  0
VERTEX
  8
51
 62
7
  6
CONTINUOUS
 10
-3245.64260342346
 20
1171.88910129526
  0
VERTEX
  8
51
 62
7
  6
CONTINUOUS
 10
-3253.87660690021
 20
1157.55486729885
  0
VERTEX
  8
51
 62
7
  6
CONTINUOUS
 10
-3260.13469651002
 20
1139.73287140805
  0
SEQEND
  0
POLYLINE
  8
51
 62
7
 66
1
 70
1
  0
VERTEX
  8
51
 62
7
  6
CONTINUOUS
 10
-1583.05985843461
 20
1537.16000928195
  0
VERTEX
  8
51
 62
7
  6
CONTINUOUS
 10
-1130.77591435833
 20
1801.12736648362
  0
VERTEX
  8
51
 62
7
  6
CONTINUOUS
 10
-1141.2805523519
 20
1797.49811199347
  0
VERTEX
  8
51
 62
7
  6
CONTINUOUS
 10
-1184.75204140904
 20
1779.36606829959
  0
VERTEX
  8
51
 62
7
  6
CONTINUOUS
 10
-1253.68466370846
 20
1745.73158315219
  0
VERTEX
  8
51
 62
7
  6
CONTINUOUS
 10
-1290.9357938631
 20
1723.63299462884
  0
VERTEX
  8
51
 62
7
  6
CONTINUOUS
 10
-1368.76860078839
 20
1674.7136353156
  0
VERTEX
  8
51
 62
7
  6
CONTINUOUS
 10
-1446.66789733473
 20
1627.55480312589
  0
VERTEX
  8
51
 62
7
  6
CONTINUOUS
 10
-1520.33814889506
 20
1579.69157845353
  0
VERTEX
  8
51
 62
7
  6
CONTINUOUS
 10
-1547.08841694518
 20
1560.69810656641
  0
SEQEND
  0
POLYLINE
  8
51
 62
7
 66
1
 70
1
  0
VERTEX
  8
51
 62
7
  6
CONTINUOUS
 10
-3364.88382630141
 20
1976.24496454799
  0
VERTEX
  8
51
 62
7
  6
CONTINUOUS
 10
-3362.95633221441
 20
1955.58872623338
  0
VERTEX
  8
51
 62
7
  6
CONTINUOUS
 10
-3360.00858630637
 20
1936.26482581568
  0
VERTEX
  8
51
 62
7
  6
CONTINUOUS
 10
-3350.81594828936
 20
1902.34043020888
  0
VERTEX
  8
51
 62
7
  6
CONTINUOUS
 10
-3344.16732879396
 20
1885.5028708175
  0
VERTEX
  8
51
 62
7
  6
CONTINUOUS
 10
-3331.16805534191
 20
1861.17786763003
  0
VERTEX
  8
51
 62
7
  6
CONTINUOUS
 10
-3320.76511728151
 20
1846.65638701536
  0
VERTEX
  8
51
 62
7
  6
CONTINUOUS
 10
-3308.64710011905
 20
1833.21173180797
  0
VERTEX
  8
51
 62
7
  6
CONTINUOUS
 10
-3298.6550655985
 20
1824.26227615519
  0
VERTEX
  8
51
 62
7
  6
CONTINUOUS
 10
-3281.95005560013
 20
1811.87387242691
  0
VERTEX
  8
51
 62
7
  6
CONTINUOUS
 10
-3250.79168529401
 20
1796.71339671405
  0
VERTEX
  8
51
 62
7
  6
CONTINUOUS
 10
-3234.77307333683
 20
1792.74421787848
  0
VERTEX
  8
51
 62
7
  6
CONTINUOUS
 10
-3213.17881538807
 20
1790.10972744628
  0
VERTEX
  8
51
 62
7
  6
CONTINUOUS
 10
-3209.53655113095
 20
1790.49859081566
  0
VERTEX
  8
51
 62
7
  6
CONTINUOUS
 10
-3210.5981596888
 20
1800.44208050841
  0
VERTEX
  8
51
 62
7
  6
CONTINUOUS
 10
-3213.10313402043
 20
1800.17463896929
  0
VERTEX
  8
51
 62
7
  6
CONTINUOUS
 10
-3232.95831646358
 20
1802.59696291764
  0
VERTEX
  8
51
 62
7
  6
CONTINUOUS
 10
-3247.36388906101
 20
1806.16645408334
  0
VERTEX
  8
51
 62
7
  6
CONTINUOUS
 10
-3276.7395104985
 20
1820.45951212771
  0
VERTEX
  8
51
 62
7
  6
CONTINUOUS
 10
-3292.32735350359
 20
1832.01942693285
  0
VERTEX
  8
51
 62
7
  6
CONTINUOUS
 10
-3301.5770420963
 20
1840.30399377378
  0
VERTEX
  8
51
 62
7
  6
CONTINUOUS
 10
-3312.96205850164
 20
1852.93540187035
  0
VERTEX
  8
51
 62
7
  6
CONTINUOUS
 10
-3322.65723490602
 20
1866.46891667113
  0
VERTEX
  8
51
 62
7
  6
CONTINUOUS
 10
-3335.07707920734
 20
1889.70965803501
  0
VERTEX
  8
51
 62
7
  6
CONTINUOUS
 10
-3341.30992995064
 20
1905.49428740666
  0
VERTEX
  8
51
 62
7
  6
CONTINUOUS
 10
-3350.20841883761
 20
1938.33315876717
  0
VERTEX
  8
51
 62
7
  6
CONTINUOUS
 10
-3353.02669280939
 20
1956.80830800983
  0
VERTEX
  8
51
 62
7
  6
CONTINUOUS
 10
-3354.88219154575
 20
1976.69299888857
  0
VERTEX
  8
51
 62
7
  6
CONTINUOUS
 10
-3354.75840229556
 20
2011.9490568784
  0
VERTEX
  8
51
 62
7
  6
CONTINUOUS
 10
-3351.3114936998
 20
2050.42983892265
  0
VERTEX
  8
51
 62
7
  6
CONTINUOUS
 10
-3340.77267505226
 20
2088.90457892039
  0
VERTEX
  8
51
 62
7
  6
CONTINUOUS
 10
-3334.70566432283
 20
2104.91014545889
  0
VERTEX
  8
51
 62
7
  6
CONTINUOUS
 10
-3322.1048834641
 20
2132.6080388506
  0
VERTEX
  8
51
 62
7
  6
CONTINUOUS
 10
-3314.4370569748
 20
2147.47696934762
  0
VERTEX
  8
51
 62
7
  6
CONTINUOUS
 10
-3288.64287573675
 20
2180.73725847147
  0
VERTEX
  8
51
 62
7
  6
CONTINUOUS
 10
-3264.72527444721
 20
2201.91922767217
  0
VERTEX
  8
51
 62
7
  6
CONTINUOUS
 10
-3254.37625591383
 20
2209.21686318101
  0
VERTEX
  8
51
 62
7
  6
CONTINUOUS
 10
-3231.36112606409
 20
2217.14949428397
  0
VERTEX
  8
51
 62
7
  6
CONTINUOUS
 10
-3219.78781045517
 20
2220.36535432869
  0
VERTEX
  8
51
 62
7
  6
CONTINUOUS
 10
-3206.74561117299
 20
2221.20566938106
  0
VERTEX
  8
51
 62
7
  6
CONTINUOUS
 10
-3194.1172213273
 20
2219.55095393338
  0
VERTEX
  8
51
 62
7
  6
CONTINUOUS
 10
-3170.4613387637
 20
2211.13524388487
  0
VERTEX
  8
51
 62
7
  6
CONTINUOUS
 10
-3142.68338174653
 20
2194.76157459942
  0
VERTEX
  8
51
 62
7
  6
CONTINUOUS
 10
-3130.10308080531
 20
2185.71369746434
  0
VERTEX
  8
51
 62
7
  6
CONTINUOUS
 10
-3105.39237157674
 20
2163.77478147396
  0
VERTEX
  8
51
 62
7
  6
CONTINUOUS
 10
-3082.21799976041
 20
2138.88497273866
  0
VERTEX
  8
51
 62
7
  6
CONTINUOUS
 10
-3071.0157894632
 20
2125.48433872663
  0
VERTEX
  8
51
 62
7
  6
CONTINUOUS
 10
-3059.21342124112
 20
2110.30333083109
  0
VERTEX
  8
51
 62
7
  6
CONTINUOUS
 10
-3049.81103288532
 20
2096.50166788532
  0
VERTEX
  8
51
 62
7
  6
CONTINUOUS
 10
-3033.58191482668
 20
2066.09851154318
  0
VERTEX
  8
51
 62
7
  6
CONTINUOUS
 10
-3025.63998659791
 20
2048.32151336598
  0
VERTEX
  8
51
 62
7
  6
CONTINUOUS
 10
-3019.72973620095
 20
2030.47651144554
  0
VERTEX
  8
51
 62
7
  6
CONTINUOUS
 10
-3010.69036495245
 20
1997.03526188514
  0
VERTEX
  8
51
 62
7
  6
CONTINUOUS
 10
-3008.06668100527
 20
1980.26400474107
  0
VERTEX
  8
51
 62
7
  6
CONTINUOUS
 10
-3006.43504470445
 20
1947.95109774284
  0
VERTEX
  8
51
 62
7
  6
CONTINUOUS
 10
-3007.59421341513
 20
1904.37865132573
  0
VERTEX
  8
51
 62
7
  6
CONTINUOUS
 10
-3010.95062598024
 20
1881.8265148047
  0
VERTEX
  8
51
 62
7
  6
CONTINUOUS
 10
-3016.556799152
 20
1865.68960660646
  0
VERTEX
  8
51
 62
7
  6
CONTINUOUS
 10
-3020.83720075239
 20
1859.03045693881
  0
VERTEX
  8
51
 62
7
  6
CONTINUOUS
 10
-3012.42514000707
 20
1853.62331036996
  0
VERTEX
  8
51
 62
7
  6
CONTINUOUS
 10
-3007.50120005712
 20
1861.28363202721
  0
VERTEX
  8
51
 62
7
  6
CONTINUOUS
 10
-3001.19733216552
 20
1879.42879707011
  0
VERTEX
  8
51
 62
7
  6
CONTINUOUS
 10
-2997.61387883011
 20
1903.50644761791
  0
VERTEX
  8
51
 62
7
  6
CONTINUOUS
 10
-2996.4283312754
 20
1948.07045872914
  0
VERTEX
  8
51
 62
7
  6
CONTINUOUS
 10
-2998.10583737942
 20
1981.29177079536
  0
VERTEX
  8
51
 62
7
  6
CONTINUOUS
 10
-3000.89470546974
 20
1999.1189271242
  0
VERTEX
  8
51
 62
7
  6
CONTINUOUS
 10
-3010.14905191476
 20
2033.35547969829
  0
VERTEX
  8
51
 62
7
  6
CONTINUOUS
 10
-3016.30493374785
 20
2051.94212421509
  0
VERTEX
  8
51
 62
7
  6
CONTINUOUS
 10
-3024.5948045098
 20
2070.49794758434
  0
VERTEX
  8
51
 62
7
  6
CONTINUOUS
 10
-3024.67744473129
 20
2070.65276336455
  0
VERTEX
  8
51
 62
7
  6
CONTINUOUS
 10
-3041.24306201182
 20
2101.68630753275
  0
VERTEX
  8
51
 62
7
  6
CONTINUOUS
 10
-3051.12581908858
 20
2116.19309846574
  0
VERTEX
  8
51
 62
7
  6
CONTINUOUS
 10
-3063.22977083225
 20
2131.76202357722
  0
VERTEX
  8
51
 62
7
  6
CONTINUOUS
 10
-3074.71708359028
 20
2145.5037111521
  0
VERTEX
  8
51
 62
7
  6
CONTINUOUS
 10
-3098.23559532963
 20
2170.76313408579
  0
VERTEX
  8
51
 62
7
  6
CONTINUOUS
 10
-3098.39759727411
 20
2170.93712790296
  0
VERTEX
  8
51
 62
7
  6
CONTINUOUS
 10
-3098.57537690937
 20
2171.09496604701
  0
VERTEX
  8
51
 62
7
  6
CONTINUOUS
 10
-3123.84763086028
 20
2193.53243844766
  0
VERTEX
  8
51
 62
7
  6
CONTINUOUS
 10
-3137.21370395373
 20
2203.14545070334
  0
VERTEX
  8
51
 62
7
  6
CONTINUOUS
 10
-3166.20786595526
 20
2220.23600993807
  0
VERTEX
  8
51
 62
7
  6
CONTINUOUS
 10
-3191.76553064137
 20
2229.32828941388
  0
VERTEX
  8
51
 62
7
  6
CONTINUOUS
 10
-3206.41436576577
 20
2231.24774661049
  0
VERTEX
  8
51
 62
7
  6
CONTINUOUS
 10
-3221.46577858048
 20
2230.27797698239
  0
VERTEX
  8
51
 62
7
  6
CONTINUOUS
 10
-3234.33179244707
 20
2226.70291678991
  0
VERTEX
  8
51
 62
7
  6
CONTINUOUS
 10
-3258.97801700004
 20
2218.20809582927
  0
VERTEX
  8
51
 62
7
  6
CONTINUOUS
 10
-3270.9406846992
 20
2209.77259169907
  0
VERTEX
  8
51
 62
7
  6
CONTINUOUS
 10
-3295.62260888973
 20
2187.91372083285
  0
VERTEX
  8
51
 62
7
  6
CONTINUOUS
 10
-3295.97237406629
 20
2187.60396087375
  0
VERTEX
  8
51
 62
7
  6
CONTINUOUS
 10
-3296.25869585531
 20
2187.23476344129
  0
VERTEX
  8
51
 62
7
  6
CONTINUOUS
 10
-3322.6211475777
 20
2153.24171833518
  0
VERTEX
  8
51
 62
7
  6
CONTINUOUS
 10
-3322.90309627302
 20
2152.87815978536
  0
VERTEX
  8
51
 62
7
  6
CONTINUOUS
 10
-3331.10537483391
 20
2136.97285598002
  0
VERTEX
  8
51
 62
7
  6
CONTINUOUS
 10
-3331.15629097084
 20
2136.8609367467
  0
VERTEX
  8
51
 62
7
  6
CONTINUOUS
 10
-3343.94184895361
 20
2108.75688304318
  0
VERTEX
  8
51
 62
7
  6
CONTINUOUS
 10
-3350.2918638992
 20
2092.00471442757
  0
VERTEX
  8
51
 62
7
  6
CONTINUOUS
 10
-3361.19199182957
 20
2052.2109194977
  0
VERTEX
  8
51
 62
7
  6
CONTINUOUS
 10
-3364.75683301318
 20
2012.41355533856
  0
VERTEX
  8
51
 62
7
  6
CONTINUOUS
 10
-3364.88297810346
 20
1976.48653735187
  0
SEQEND
  0
POLYLINE
  8
51
 62
7
 66
1
 70
1
  0
VERTEX
  8
51
 62
7
  6
CONTINUOUS
 10
-3242.84401147427
 20
1917.85639691366
  0
VERTEX
  8
51
 62
7
  6
CONTINUOUS
 10
-3233.88592226398
 20
1907.65245357516
  0
VERTEX
  8
51
 62
7
  6
CONTINUOUS
 10
-3219.18141030723
 20
1901.02363994721
  0
VERTEX
  8
51
 62
7
  6
CONTINUOUS
 10
-3201.14583103221
 20
1897.37689823196
  0
VERTEX
  8
51
 62
7
  6
CONTINUOUS
 10
-3181.30802206531
 20
1898.21804578384
  0
VERTEX
  8
51
 62
7
  6
CONTINUOUS
 10
-3180.95589890088
 20
1898.28410151969
  0
VERTEX
  8
51
 62
7
  6
CONTINUOUS
 10
-3130.05239428448
 20
1907.83322749133
  0
VERTEX
  8
51
 62
7
  6
CONTINUOUS
 10
-3115.5536619845
 20
1911.62753713255
  0
VERTEX
  8
51
 62
7
  6
CONTINUOUS
 10
-3118.08539673214
 20
1921.30174610112
  0
VERTEX
  8
51
 62
7
  6
CONTINUOUS
 10
-3132.24286676732
 20
1917.59674459214
  0
VERTEX
  8
51
 62
7
  6
CONTINUOUS
 10
-3182.44754126238
 20
1908.17871405119
  0
VERTEX
  8
51
 62
7
  6
CONTINUOUS
 10
-3200.35520688047
 20
1907.41940695636
  0
VERTEX
  8
51
 62
7
  6
CONTINUOUS
 10
-3216.09708521133
 20
1910.60236900654
  0
VERTEX
  8
51
 62
7
  6
CONTINUOUS
 10
-3227.80064824299
 20
1915.8783508513
  0
VERTEX
  8
51
 62
7
  6
CONTINUOUS
 10
-3232.49740018912
 20
1921.22830770129
  0
VERTEX
  8
51
 62
7
  6
CONTINUOUS
 10
-3232.16486957972
 20
1924.89712429822
  0
VERTEX
  8
51
 62
7
  6
CONTINUOUS
 10
-3227.32714957212
 20
1930.78168762607
  0
VERTEX
  8
51
 62
7
  6
CONTINUOUS
 10
-3217.05454241187
 20
1934.00027875187
  0
VERTEX
  8
51
 62
7
  6
CONTINUOUS
 10
-3204.10570872035
 20
1934.68161930045
  0
VERTEX
  8
51
 62
7
  6
CONTINUOUS
 10
-3189.71836328388
 20
1931.24378280927
  0
VERTEX
  8
51
 62
7
  6
CONTINUOUS
 10
-3186.51097344793
 20
1928.6274177579
  0
VERTEX
  8
51
 62
7
  6
CONTINUOUS
 10
-3182.77159942007
 20
1921.04103435088
  0
VERTEX
  8
51
 62
7
  6
CONTINUOUS
 10
-3175.74516670921
 20
1917.25526049517
  0
VERTEX
  8
51
 62
7
  6
CONTINUOUS
 10
-3170.47741875067
 20
1919.09085516982
  0
VERTEX
  8
51
 62
7
  6
CONTINUOUS
 10
-3168.61567472646
 20
1921.89270364116
  0
VERTEX
  8
51
 62
7
  6
CONTINUOUS
 10
-3168.82590303977
 20
1925.25012076215
  0
VERTEX
  8
51
 62
7
  6
CONTINUOUS
 10
-3174.22076463201
 20
1931.50702154009
  0
VERTEX
  8
51
 62
7
  6
CONTINUOUS
 10
-3178.50357951684
 20
1935.00064338194
  0
VERTEX
  8
51
 62
7
  6
CONTINUOUS
 10
-3179.29912861268
 20
1936.61464091606
  0
VERTEX
  8
51
 62
7
  6
CONTINUOUS
 10
-3181.58392821412
 20
1944.81401657264
  0
VERTEX
  8
51
 62
7
  6
CONTINUOUS
 10
-3179.93213153389
 20
1954.4501253951
  0
VERTEX
  8
51
 62
7
  6
CONTINUOUS
 10
-3175.45807650989
 20
1963.55496947463
  0
VERTEX
  8
51
 62
7
  6
CONTINUOUS
 10
-3167.34363077882
 20
1969.98457919018
  0
VERTEX
  8
51
 62
7
  6
CONTINUOUS
 10
-3154.65528154178
 20
1971.61041822646
  0
VERTEX
  8
51
 62
7
  6
CONTINUOUS
 10
-3141.82777516129
 20
1968.48295511353
  0
VERTEX
  8
51
 62
7
  6
CONTINUOUS
 10
-3128.3943025141
 20
1958.35896351885
  0
VERTEX
  8
51
 62
7
  6
CONTINUOUS
 10
-3116.10670533165
 20
1944.25947958785
  0
VERTEX
  8
51
 62
7
  6
CONTINUOUS
 10
-3110.86651598386
 20
1933.82869686889
  0
VERTEX
  8
51
 62
7
  6
CONTINUOUS
 10
-3110.19844084389
 20
1925.56155577851
  0
VERTEX
  8
51
 62
7
  6
CONTINUOUS
 10
-3111.17632397926
 20
1922.7467996337
  0
VERTEX
  8
51
 62
7
  6
CONTINUOUS
 10
-3101.73014615547
 20
1919.46507378877
  0
VERTEX
  8
51
 62
7
  6
CONTINUOUS
 10
-3100.06135349898
 20
1924.26855614199
  0
VERTEX
  8
51
 62
7
  6
CONTINUOUS
 10
-3101.0559717663
 20
1936.57652728931
  0
VERTEX
  8
51
 62
7
  6
CONTINUOUS
 10
-3107.73797531244
 20
1949.87729229823
  0
VERTEX
  8
51
 62
7
  6
CONTINUOUS
 10
-3121.54163909133
 20
1965.71639678298
  0
VERTEX
  8
51
 62
7
  6
CONTINUOUS
 10
-3137.45583843217
 20
1977.70996126137
  0
VERTEX
  8
51
 62
7
  6
CONTINUOUS
 10
-3154.08755371811
 20
1981.76492522074
  0
VERTEX
  8
51
 62
7
  6
CONTINUOUS
 10
-3171.37376986168
 20
1979.54993220071
  0
VERTEX
  8
51
 62
7
  6
CONTINUOUS
 10
-3183.4375800492
 20
1969.99098094773
  0
VERTEX
  8
51
 62
7
  6
CONTINUOUS
 10
-3189.54427190906
 20
1957.56366905114
  0
VERTEX
  8
51
 62
7
  6
CONTINUOUS
 10
-3191.81933733746
 20
1944.29158883168
  0
VERTEX
  8
51
 62
7
  6
CONTINUOUS
 10
-3191.14338071468
 20
1941.86580834997
  0
VERTEX
  8
51
 62
7
  6
CONTINUOUS
 10
-3203.18761323367
 20
1944.74376121799
  0
VERTEX
  8
51
 62
7
  6
CONTINUOUS
 10
-3218.84018847118
 20
1943.92015544367
  0
VERTEX
  8
51
 62
7
  6
CONTINUOUS
 10
-3233.159919918
 20
1939.43352806275
  0
VERTEX
  8
51
 62
7
  6
CONTINUOUS
 10
-3241.84596188841
 20
1928.86789715337
  0
SEQEND
  0
POLYLINE
  8
51
 62
7
 66
1
 70
1
  0
VERTEX
  8
51
 62
7
  6
CONTINUOUS
 10
-1750.57682513023
 20
1671.85725806689
  0
VERTEX
  8
51
 62
7
  6
CONTINUOUS
 10
-1750.11479007072
 20
1670.55241712374
  0
VERTEX
  8
51
 62
7
  6
CONTINUOUS
 10
-1734.46404917598
 20
1626.3528978675
  0
VERTEX
  8
51
 62
7
  6
CONTINUOUS
 10
-1734.26503613397
 20
1625.79086180535
  0
VERTEX
  8
51
 62
7
  6
CONTINUOUS
 10
-1728.6803599615
 20
1617.22368258325
  0
VERTEX
  8
51
 62
7
  6
CONTINUOUS
 10
-1713.60164588125
 20
1602.64134450826
  0
VERTEX
  8
51
 62
7
  6
CONTINUOUS
 10
-1696.35694309619
 20
1589.30645602224
  0
VERTEX
  8
51
 62
7
  6
CONTINUOUS
 10
-1678.24784042065
 20
1577.21952944166
  0
VERTEX
  8
51
 62
7
  6
CONTINUOUS
 10
-1658.65653359867
 20
1565.59754676154
  0
VERTEX
  8
51
 62
7
  6
CONTINUOUS
 10
-1638.10280345028
 20
1554.34109311283
  0
VERTEX
  8
51
 62
7
  6
CONTINUOUS
 10
-1637.98998904297
 20
1554.28646972695
  0
VERTEX
  8
51
 62
7
  6
CONTINUOUS
 10
-1591.24621574913
 20
1531.65369411649
  0
VERTEX
  8
51
 62
7
  6
CONTINUOUS
 10
-1520.09051960513
 20
1502.4966745607
  0
VERTEX
  8
51
 62
7
  6
CONTINUOUS
 10
-1519.76320066272
 20
1502.36255114793
  0
VERTEX
  8
51
 62
7
  6
CONTINUOUS
 10
-1495.10499786493
 20
1496.1283021111
  0
VERTEX
  8
51
 62
7
  6
CONTINUOUS
 10
-1467.94676687719
 20
1487.83422110231
  0
VERTEX
  8
51
 62
7
  6
CONTINUOUS
 10
-1442.91036451494
 20
1482.70407577152
  0
VERTEX
  8
51
 62
7
  6
CONTINUOUS
 10
-1418.22441124575
 20
1476.19540756987
  0
VERTEX
  8
51
 62
7
  6
CONTINUOUS
 10
-1394.95889107449
 20
1472.42301111103
  0
VERTEX
  8
51
 62
7
  6
CONTINUOUS
 10
-1367.70043518982
 20
1465.83106767673
  0
VERTEX
  8
51
 62
7
  6
CONTINUOUS
 10
-1367.47949919168
 20
1465.79813189399
  0
VERTEX
  8
51
 62
7
  6
CONTINUOUS
 10
-1280.96985894593
 20
1452.90180562837
  0
VERTEX
  8
51
 62
7
  6
CONTINUOUS
 10
-1280.8459153292
 20
1452.88332887462
  0
VERTEX
  8
51
 62
7
  6
CONTINUOUS
 10
-1280.72120175029
 20
1452.87108412912
  0
VERTEX
  8
51
 62
7
  6
CONTINUOUS
 10
-1239.4978675585
 20
1448.82365609244
  0
VERTEX
  8
51
 62
7
  6
CONTINUOUS
 10
-1238.52073660654
 20
1458.77580234853
  0
VERTEX
  8
51
 62
7
  6
CONTINUOUS
 10
-1279.61935721941
 20
1462.81098563972
  0
VERTEX
  8
51
 62
7
  6
CONTINUOUS
 10
-1365.7841178503
 20
1475.65589936884
  0
VERTEX
  8
51
 62
7
  6
CONTINUOUS
 10
-1392.98044311312
 20
1482.2328176841
  0
VERTEX
  8
51
 62
7
  6
CONTINUOUS
 10
-1416.14451181787
 20
1485.98876425701
  0
VERTEX
  8
51
 62
7
  6
CONTINUOUS
 10
-1440.63018333244
 20
1492.44462641655
  0
VERTEX
  8
51
 62
7
  6
CONTINUOUS
 10
-1465.47719319169
 20
1497.53596381276
  0
VERTEX
  8
51
 62
7
  6
CONTINUOUS
 10
-1492.41742536017
 20
1505.76346832519
  0
VERTEX
  8
51
 62
7
  6
CONTINUOUS
 10
-1516.62617789846
 20
1511.88408439086
  0
VERTEX
  8
51
 62
7
  6
CONTINUOUS
 10
-1587.16750335301
 20
1540.78935715507
  0
VERTEX
  8
51
 62
7
  6
CONTINUOUS
 10
-1633.51925315849
 20
1563.2323196841
  0
VERTEX
  8
51
 62
7
  6
CONTINUOUS
 10
-1653.70234629185
 20
1574.28579030491
  0
VERTEX
  8
51
 62
7
  6
CONTINUOUS
 10
-1672.91731049296
 20
1585.68451848439
  0
VERTEX
  8
51
 62
7
  6
CONTINUOUS
 10
-1690.51550485111
 20
1597.43043913925
  0
VERTEX
  8
51
 62
7
  6
CONTINUOUS
 10
-1707.04720959894
 20
1610.21398444264
  0
VERTEX
  8
51
 62
7
  6
CONTINUOUS
 10
-1720.91850064742
 20
1623.62864662994
  0
VERTEX
  8
51
 62
7
  6
CONTINUOUS
 10
-1725.23657149283
 20
1630.25278842149
  0
VERTEX
  8
51
 62
7
  6
CONTINUOUS
 10
-1740.22626428605
 20
1672.58543067241
  0
VERTEX
  8
51
 62
7
  6
CONTINUOUS
 10
-1738.36481694657
 20
1681.77551321728
  0
VERTEX
  8
51
 62
7
  6
CONTINUOUS
 10
-1733.40734591093
 20
1694.85107685201
  0
VERTEX
  8
51
 62
7
  6
CONTINUOUS
 10
-1724.15397156796
 20
1707.45600922391
  0
VERTEX
  8
51
 62
7
  6
CONTINUOUS
 10
-1711.40464328373
 20
1719.65378199011
  0
VERTEX
  8
51
 62
7
  6
CONTINUOUS
 10
-1693.47696910436
 20
1732.54358144145
  0
VERTEX
  8
51
 62
7
  6
CONTINUOUS
 10
-1674.38965758724
 20
1743.451517061
  0
VERTEX
  8
51
 62
7
  6
CONTINUOUS
 10
-1653.15125019875
 20
1753.40685517723
  0
VERTEX
  8
51
 62
7
  6
CONTINUOUS
 10
-1616.34854080861
 20
1765.44699044158
  0
VERTEX
  8
51
 62
7
  6
CONTINUOUS
 10
-1585.32519263203
 20
1772.05516782588
  0
VERTEX
  8
51
 62
7
  6
CONTINUOUS
 10
-1559.3804357455
 20
1779.14020974658
  0
VERTEX
  8
51
 62
7
  6
CONTINUOUS
 10
-1506.03786622972
 20
1791.8370216658
  0
VERTEX
  8
51
 62
7
  6
CONTINUOUS
 10
-1443.4389391277
 20
1803.94396964113
  0
VERTEX
  8
51
 62
7
  6
CONTINUOUS
 10
-1416.42301148178
 20
1807.82506746377
  0
VERTEX
  8
51
 62
7
  6
CONTINUOUS
 10
-1386.09303005982
 20
1814.83424382563
  0
VERTEX
  8
51
 62
7
  6
CONTINUOUS
 10
-1340.9247578927
 20
1820.80075728987
  0
VERTEX
  8
51
 62
7
  6
CONTINUOUS
 10
-1294.02524004506
 20
1828.20988403066
  0
VERTEX
  8
51
 62
7
  6
CONTINUOUS
 10
-1271.86964331198
 20
1829.58294592669
  0
VERTEX
  8
51
 62
7
  6
CONTINUOUS
 10
-1271.77973602409
 20
1829.59178759817
  0
VERTEX
  8
51
 62
7
  6
CONTINUOUS
 10
-1220.06130791147
 20
1834.67788642295
  0
VERTEX
  8
51
 62
7
  6
CONTINUOUS
 10
-1187.52100504609
 20
1839.91313692128
  0
VERTEX
  8
51
 62
7
  6
CONTINUOUS
 10
-1189.10943015398
 20
1849.78617625456
  0
VERTEX
  8
51
 62
7
  6
CONTINUOUS
 10
-1221.34608447498
 20
1844.59977828843
  0
VERTEX
  8
51
 62
7
  6
CONTINUOUS
 10
-1272.66852853733
 20
1839.55262136669
  0
VERTEX
  8
51
 62
7
  6
CONTINUOUS
 10
-1295.11718324536
 20
1838.16139761551
  0
VERTEX
  8
51
 62
7
  6
CONTINUOUS
 10
-1342.35999421024
 20
1830.69803786057
  0
VERTEX
  8
51
 62
7
  6
CONTINUOUS
 10
-1387.87772259852
 20
1824.68536289515
  0
VERTEX
  8
51
 62
7
  6
CONTINUOUS
 10
-1418.26310208371
 20
1817.66338419129
  0
VERTEX
  8
51
 62
7
  6
CONTINUOUS
 10
-1445.10034039425
 20
1813.80795681016
  0
VERTEX
  8
51
 62
7
  6
CONTINUOUS
 10
-1508.1460298244
 20
1801.61460274906
  0
VERTEX
  8
51
 62
7
  6
CONTINUOUS
 10
-1561.85605934458
 20
1788.8303265287
  0
VERTEX
  8
51
 62
7
  6
CONTINUOUS
 10
-1587.68593303425
 20
1781.77665712267
  0
VERTEX
  8
51
 62
7
  6
CONTINUOUS
 10
-1618.95223777756
 20
1775.1167283903
  0
VERTEX
  8
51
 62
7
  6
CONTINUOUS
 10
-1656.55122058542
 20
1762.81608948869
  0
VERTEX
  8
51
 62
7
  6
CONTINUOUS
 10
-1656.84182391122
 20
1762.72101759293
  0
VERTEX
  8
51
 62
7
  6
CONTINUOUS
 10
-1679.00017774641
 20
1752.33446174186
  0
VERTEX
  8
51
 62
7
  6
CONTINUOUS
 10
-1698.89131444947
 20
1740.9671595232
  0
VERTEX
  8
51
 62
7
  6
CONTINUOUS
 10
-1717.81129789292
 20
1727.36390068614
  0
VERTEX
  8
51
 62
7
  6
CONTINUOUS
 10
-1731.69815264694
 20
1714.07781259189
  0
VERTEX
  8
51
 62
7
  6
CONTINUOUS
 10
-1742.27477812837
 20
1699.67034954382
  0
VERTEX
  8
51
 62
7
  6
CONTINUOUS
 10
-1748.0040873242
 20
1684.55902636419
  0
SEQEND
  0
POLYLINE
  8
51
 62
7
 66
1
 70
1
  0
VERTEX
  8
51
 62
7
  6
CONTINUOUS
 10
-3277.39102942505
 20
1378.56031880419
  0
VERTEX
  8
51
 62
7
  6
CONTINUOUS
 10
-3271.9653243428
 20
1367.16364578383
  0
VERTEX
  8
51
 62
7
  6
CONTINUOUS
 10
-3258.87510382941
 20
1360.24094236389
  0
VERTEX
  8
51
 62
7
  6
CONTINUOUS
 10
-3243.25331552824
 20
1359.31371602672
  0
VERTEX
  8
51
 62
7
  6
CONTINUOUS
 10
-3227.99179761228
 20
1360.64777225852
  0
VERTEX
  8
51
 62
7
  6
CONTINUOUS
 10
-3211.96045012753
 20
1362.78527231584
  0
VERTEX
  8
51
 62
7
  6
CONTINUOUS
 10
-3196.35420489132
 20
1366.9813756933
  0
VERTEX
  8
51
 62
7
  6
CONTINUOUS
 10
-3198.95072112175
 20
1376.63839922362
  0
VERTEX
  8
51
 62
7
  6
CONTINUOUS
 10
-3213.92783754652
 20
1372.61145181485
  0
VERTEX
  8
51
 62
7
  6
CONTINUOUS
 10
-3229.08858140646
 20
1370.59003153808
  0
VERTEX
  8
51
 62
7
  6
CONTINUOUS
 10
-3243.3932176303
 20
1369.33961927876
  0
VERTEX
  8
51
 62
7
  6
CONTINUOUS
 10
-3256.11746967943
 20
1370.09486326192
  0
VERTEX
  8
51
 62
7
  6
CONTINUOUS
 10
-3264.36083358783
 20
1374.45432867063
  0
VERTEX
  8
51
 62
7
  6
CONTINUOUS
 10
-3266.6024797567
 20
1379.16289797666
  0
VERTEX
  8
51
 62
7
  6
CONTINUOUS
 10
-3265.25647709939
 20
1383.057750048
  0
VERTEX
  8
51
 62
7
  6
CONTINUOUS
 10
-3258.62238413725
 20
1384.56174868964
  0
VERTEX
  8
51
 62
7
  6
CONTINUOUS
 10
-3248.55694131817
 20
1383.3667764947
  0
VERTEX
  8
51
 62
7
  6
CONTINUOUS
 10
-3233.79568335333
 20
1372.62648229928
  0
VERTEX
  8
51
 62
7
  6
CONTINUOUS
 10
-3229.93712358121
 20
1373.05931301643
  0
VERTEX
  8
51
 62
7
  6
CONTINUOUS
 10
-3227.38164815829
 20
1375.98255972304
  0
VERTEX
  8
51
 62
7
  6
CONTINUOUS
 10
-3227.46840550663
 20
1379.86435043189
  0
VERTEX
  8
51
 62
7
  6
CONTINUOUS
 10
-3233.74947840038
 20
1386.43245005377
  0
VERTEX
  8
51
 62
7
  6
CONTINUOUS
 10
-3235.89976566684
 20
1391.8400828113
  0
VERTEX
  8
51
 62
7
  6
CONTINUOUS
 10
-3235.85771299522
 20
1400.21402855458
  0
VERTEX
  8
51
 62
7
  6
CONTINUOUS
 10
-3231.94552860062
 20
1407.64939442621
  0
VERTEX
  8
51
 62
7
  6
CONTINUOUS
 10
-3227.51368332609
 20
1411.59098971158
  0
VERTEX
  8
51
 62
7
  6
CONTINUOUS
 10
-3219.56244198413
 20
1411.88701829244
  0
VERTEX
  8
51
 62
7
  6
CONTINUOUS
 10
-3210.09055287362
 20
1404.69754070527
  0
VERTEX
  8
51
 62
7
  6
CONTINUOUS
 10
-3204.39074065645
 20
1395.00089059131
  0
VERTEX
  8
51
 62
7
  6
CONTINUOUS
 10
-3202.26068519864
 20
1387.48786973701
  0
VERTEX
  8
51
 62
7
  6
CONTINUOUS
 10
-3203.21367543452
 20
1381.92533730101
  0
VERTEX
  8
51
 62
7
  6
CONTINUOUS
 10
-3193.35727979503
 20
1380.23670916023
  0
VERTEX
  8
51
 62
7
  6
CONTINUOUS
 10
-3192.02140896442
 20
1388.03408687281
  0
VERTEX
  8
51
 62
7
  6
CONTINUOUS
 10
-3195.1198043898
 20
1398.96258610992
  0
VERTEX
  8
51
 62
7
  6
CONTINUOUS
 10
-3202.47083784677
 20
1411.46833133317
  0
VERTEX
  8
51
 62
7
  6
CONTINUOUS
 10
-3216.3631515065
 20
1422.01305757788
  0
VERTEX
  8
51
 62
7
  6
CONTINUOUS
 10
-3231.47529457495
 20
1421.45042514429
  0
VERTEX
  8
51
 62
7
  6
CONTINUOUS
 10
-3239.94910760864
 20
1413.91398390282
  0
VERTEX
  8
51
 62
7
  6
CONTINUOUS
 10
-3245.84531550118
 20
1402.70784980632
  0
VERTEX
  8
51
 62
7
  6
CONTINUOUS
 10
-3245.89346022949
 20
1393.1207932136
  0
VERTEX
  8
51
 62
7
  6
CONTINUOUS
 10
-3259.1537130432
 20
1394.69505414728
  0
VERTEX
  8
51
 62
7
  6
CONTINUOUS
 10
-3271.44419564702
 20
1391.90870954121
  0
VERTEX
  8
51
 62
7
  6
CONTINUOUS
 10
-3273.37610914082
 20
1390.1780674768
  0
SEQEND
  0
POLYLINE
  8
52
 62
7
 66
1
 70
1
  0
VERTEX
  8
52
 62
7
  6
CONTINUOUS
 10
-1973.85459632773
 20
1121.24054665338
  0
VERTEX
  8
52
 62
7
  6
CONTINUOUS
 10
-1973.4321898377
 20
1111.24947199861
  0
VERTEX
  8
52
 62
7
  6
CONTINUOUS
 10
-1964.70780250882
 20
1111.61832499557
  0
VERTEX
  8
52
 62
7
  6
CONTINUOUS
 10
-1923.752967971
 20
1109.38344735104
  0
VERTEX
  8
52
 62
7
  6
CONTINUOUS
 10
-1888.35160869493
 20
1108.50930564543
  0
VERTEX
  8
52
 62
7
  6
CONTINUOUS
 10
-1888.30520308344
 20
1108.50902139618
  0
VERTEX
  8
52
 62
7
  6
CONTINUOUS
 10
-1738.63008655249
 20
1107.59221332016
  0
VERTEX
  8
52
 62
7
  6
CONTINUOUS
 10
-1738.47717228563
 20
1107.12767455458
  0
VERTEX
  8
52
 62
7
  6
CONTINUOUS
 10
-1734.57262802375
 20
1108.41295054766
  0
VERTEX
  8
52
 62
7
  6
CONTINUOUS
 10
-1732.65665895272
 20
1111.5490329555
  0
VERTEX
  8
52
 62
7
  6
CONTINUOUS
 10
-1733.22742118319
 20
1115.17948483181
  0
VERTEX
  8
52
 62
7
  6
CONTINUOUS
 10
-1736.01325719158
 20
1117.57637199735
  0
VERTEX
  8
52
 62
7
  6
CONTINUOUS
 10
-1737.85074485356
 20
1117.58762719839
  0
VERTEX
  8
52
 62
7
  6
CONTINUOUS
 10
-1888.19754541493
 20
1118.50854955445
  0
VERTEX
  8
52
 62
7
  6
CONTINUOUS
 10
-1923.35701464239
 20
1119.37671843348
  0
VERTEX
  8
52
 62
7
  6
CONTINUOUS
 10
-1964.64642088612
 20
1121.62985342991
  0
SEQEND
  0
POLYLINE
  8
52
 62
7
 66
1
 70
1
  0
VERTEX
  8
52
 62
7
  6
CONTINUOUS
 10
-2027.36400177105
 20
2210.69741037518
  0
VERTEX
  8
52
 62
7
  6
CONTINUOUS
 10
-1985.44072209152
 20
2209.55015017178
  0
VERTEX
  8
52
 62
7
  6
CONTINUOUS
 10
-1917.86906800953
 20
2209.45438594305
  0
VERTEX
  8
52
 62
7
  6
CONTINUOUS
 10
-1779.12006263767
 20
2201.85075923522
  0
VERTEX
  8
52
 62
7
  6
CONTINUOUS
 10
-1779.06938931106
 20
2201.84798227074
  0
VERTEX
  8
52
 62
7
  6
CONTINUOUS
 10
-1779.01867005823
 20
2201.84623442797
  0
VERTEX
  8
52
 62
7
  6
CONTINUOUS
 10
-1745.86421074017
 20
2200.70369429019
  0
VERTEX
  8
52
 62
7
  6
CONTINUOUS
 10
-1708.94975763238
 20
2200.67910219561
  0
VERTEX
  8
52
 62
7
  6
CONTINUOUS
 10
-1708.94309571894
 20
2210.67909997655
  0
VERTEX
  8
52
 62
7
  6
CONTINUOUS
 10
-1745.68862626563
 20
2210.70357953637
  0
VERTEX
  8
52
 62
7
  6
CONTINUOUS
 10
-1778.62354394669
 20
2211.83855402121
  0
VERTEX
  8
52
 62
7
  6
CONTINUOUS
 10
-1917.58818622271
 20
2219.45399791303
  0
VERTEX
  8
52
 62
7
  6
CONTINUOUS
 10
-1985.29683443628
 20
2219.54995629325
  0
VERTEX
  8
52
 62
7
  6
CONTINUOUS
 10
-2027.09044710832
 20
2220.69366806726
  0
SEQEND
  0
POLYLINE
  8
52
 62
7
 66
1
 70
1
  0
VERTEX
  8
52
 62
7
  6
CONTINUOUS
 10
-1203.10456757892
 20
1987.53134078678
  0
VERTEX
  8
52
 62
7
  6
CONTINUOUS
 10
-1173.42111637992
 20
2126.2971967215
  0
VERTEX
  8
52
 62
7
  6
CONTINUOUS
 10
-1174.81891136914
 20
2125.10432765571
  0
VERTEX
  8
52
 62
7
  6
CONTINUOUS
 10
-1179.04510784312
 20
2110.40053984837
  0
VERTEX
  8
52
 62
7
  6
CONTINUOUS
 10
-1190.17710653807
 20
2062.07174516509
  0
SEQEND
  0
POLYLINE
  8
52
 62
7
 66
1
 70
1
  0
VERTEX
  8
52
 62
7
  6
CONTINUOUS
 10
-1950.72113942884
 20
2483.95978377683
  0
VERTEX
  8
52
 62
7
  6
CONTINUOUS
 10
-1950.71164541901
 20
2460.08377215377
  0
VERTEX
  8
52
 62
7
  6
CONTINUOUS
 10
-1947.95272499418
 20
2445.55313096043
  0
VERTEX
  8
52
 62
7
  6
CONTINUOUS
 10
-1944.53203409382
 20
2433.07944935778
  0
VERTEX
  8
52
 62
7
  6
CONTINUOUS
 10
-1940.47493886977
 20
2422.7135442558
  0
VERTEX
  8
52
 62
7
  6
CONTINUOUS
 10
-1931.79853045114
 20
2407.11216064557
  0
VERTEX
  8
52
 62
7
  6
CONTINUOUS
 10
-1922.51006858506
 20
2395.19337010783
  0
VERTEX
  8
52
 62
7
  6
CONTINUOUS
 10
-1910.42703201614
 20
2384.13631803983
  0
VERTEX
  8
52
 62
7
  6
CONTINUOUS
 10
-1898.56855121532
 20
2379.15001691608
  0
VERTEX
  8
52
 62
7
  6
CONTINUOUS
 10
-1885.38861077845
 20
2375.15343566698
  0
VERTEX
  8
52
 62
7
  6
CONTINUOUS
 10
-1872.2816722065
 20
2375.95750411639
  0
VERTEX
  8
52
 62
7
  6
CONTINUOUS
 10
-1859.12158159067
 20
2380.29213793981
  0
VERTEX
  8
52
 62
7
  6
CONTINUOUS
 10
-1846.36684176652
 20
2386.20184215395
  0
VERTEX
  8
52
 62
7
  6
CONTINUOUS
 10
-1833.99034369243
 20
2396.25199926825
  0
VERTEX
  8
52
 62
7
  6
CONTINUOUS
 10
-1823.79694219657
 20
2408.25941117692
  0
VERTEX
  8
52
 62
7
  6
CONTINUOUS
 10
-1815.5071358134
 20
2422.37629171229
  0
VERTEX
  8
52
 62
7
  6
CONTINUOUS
 10
-1797.57540090473
 20
2459.49915398349
  0
VERTEX
  8
52
 62
7
  6
CONTINUOUS
 10
-1788.97690269936
 20
2479.45783016737
  0
VERTEX
  8
52
 62
7
  6
CONTINUOUS
 10
-1768.55483461863
 20
2518.28083377744
  0
VERTEX
  8
52
 62
7
  6
CONTINUOUS
 10
-1745.23698104659
 20
2557.38130830186
  0
VERTEX
  8
52
 62
7
  6
CONTINUOUS
 10
-1712.36125039684
 20
2607.70221794118
  0
VERTEX
  8
52
 62
7
  6
CONTINUOUS
 10
-1701.81081067278
 20
2621.86839247312
  0
VERTEX
  8
52
 62
7
  6
CONTINUOUS
 10
-1680.07799411367
 20
2645.60291952568
  0
VERTEX
  8
52
 62
7
  6
CONTINUOUS
 10
-1671.76842251575
 20
2651.2615850167
  0
VERTEX
  8
52
 62
7
  6
CONTINUOUS
 10
-1664.11843855081
 20
2658.13989018994
  0
VERTEX
  8
52
 62
7
  6
CONTINUOUS
 10
-1782.90983194885
 20
2741.04844638586
  0
VERTEX
  8
52
 62
7
  6
CONTINUOUS
 10
-1791.16894198323
 20
2734.88174716505
  0
VERTEX
  8
52
 62
7
  6
CONTINUOUS
 10
-1806.59898955429
 20
2716.5024224507
  0
VERTEX
  8
52
 62
7
  6
CONTINUOUS
 10
-1813.23270300452
 20
2710.02984033687
  0
VERTEX
  8
52
 62
7
  6
CONTINUOUS
 10
-1833.31492604025
 20
2685.68461353768
  0
VERTEX
  8
52
 62
7
  6
CONTINUOUS
 10
-1862.93267198614
 20
2645.54693571686
  0
VERTEX
  8
52
 62
7
  6
CONTINUOUS
 10
-1906.10606074703
 20
2579.23088273882
  0
VERTEX
  8
52
 62
7
  6
CONTINUOUS
 10
-1931.1278121777
 20
2536.98194263774
  0
VERTEX
  8
52
 62
7
  6
CONTINUOUS
 10
-1939.08787550817
 20
2522.17904227818
  0
VERTEX
  8
52
 62
7
  6
CONTINUOUS
 10
-1945.21829318145
 20
2508.64492330607
  0
VERTEX
  8
52
 62
7
  6
CONTINUOUS
 10
-1948.32413173803
 20
2498.08059004454
  0
SEQEND
  0
POLYLINE
  8
52
 62
7
 66
1
 70
1
  0
VERTEX
  8
52
 62
7
  6
CONTINUOUS
 10
-1163.29485592636
 20
1917.59159313691
  0
VERTEX
  8
52
 62
7
  6
CONTINUOUS
 10
-1163.23723977274
 20
1851.40386787748
  0
VERTEX
  8
52
 62
7
  6
CONTINUOUS
 10
-1153.23724356155
 20
1851.41257283471
  0
VERTEX
  8
52
 62
7
  6
CONTINUOUS
 10
-1153.29473528256
 20
1917.45735360233
  0
VERTEX
  8
52
 62
7
  6
CONTINUOUS
 10
-1152.02368448022
 20
1963.30465941078
  0
VERTEX
  8
52
 62
7
  6
CONTINUOUS
 10
-1147.74978369738
 20
2034.86926395608
  0
VERTEX
  8
52
 62
7
  6
CONTINUOUS
 10
-1141.89470069764
 20
2078.5097778477
  0
VERTEX
  8
52
 62
7
  6
CONTINUOUS
 10
-1136.44753024517
 20
2128.76853142082
  0
VERTEX
  8
52
 62
7
  6
CONTINUOUS
 10
-1139.12101872506
 20
2132.01735056007
  0
VERTEX
  8
52
 62
7
  6
CONTINUOUS
 10
-1143.31298694397
 20
2132.37758507169
  0
VERTEX
  8
52
 62
7
  6
CONTINUOUS
 10
-1147.8553633027
 20
2128.46701532759
  0
VERTEX
  8
52
 62
7
  6
CONTINUOUS
 10
-1146.68598810275
 20
2127.10871139483
  0
VERTEX
  8
52
 62
7
  6
CONTINUOUS
 10
-1151.82278942494
 20
2079.71360341011
  0
VERTEX
  8
52
 62
7
  6
CONTINUOUS
 10
-1157.68549622316
 20
2036.01626598868
  0
VERTEX
  8
52
 62
7
  6
CONTINUOUS
 10
-1157.7100144949
 20
2035.83352050438
  0
VERTEX
  8
52
 62
7
  6
CONTINUOUS
 10
-1157.72100641924
 20
2035.64946552541
  0
VERTEX
  8
52
 62
7
  6
CONTINUOUS
 10
-1162.01541847685
 20
1963.74140862996
  0
SEQEND
  0
POLYLINE
  8
52
 62
7
 66
1
 70
1
  0
VERTEX
  8
52
 62
7
  6
CONTINUOUS
 10
-1277.79216999917
 20
1779.50425085856
  0
VERTEX
  8
52
 62
7
  6
CONTINUOUS
 10
-1273.77736337001
 20
1781.914576764
  0
VERTEX
  8
52
 62
7
  6
CONTINUOUS
 10
-1269.35492157904
 20
1786.17883151783
  0
VERTEX
  8
52
 62
7
  6
CONTINUOUS
 10
-1260.07309402983
 20
1802.42865165059
  0
VERTEX
  8
52
 62
7
  6
CONTINUOUS
 10
-1256.43322950499
 20
1813.93242935711
  0
VERTEX
  8
52
 62
7
  6
CONTINUOUS
 10
-1248.81746269384
 20
1845.7027628492
  0
VERTEX
  8
52
 62
7
  6
CONTINUOUS
 10
-1244.98533053104
 20
1878.92341728779
  0
VERTEX
  8
52
 62
7
  6
CONTINUOUS
 10
-1243.54848009052
 20
1900.61406488375
  0
VERTEX
  8
52
 62
7
  6
CONTINUOUS
 10
-1241.53919123833
 20
1942.77673566905
  0
VERTEX
  8
52
 62
7
  6
CONTINUOUS
 10
-1233.02073769079
 20
2071.3458892793
  0
VERTEX
  8
52
 62
7
  6
CONTINUOUS
 10
-1231.32760876719
 20
2108.69719176468
  0
SEQEND
  0
POLYLINE
  8
52
 62
7
 66
1
 70
1
  0
VERTEX
  8
52
 62
7
  6
CONTINUOUS
 10
-1495.58491958311
 20
575.852854551473
  0
VERTEX
  8
52
 62
7
  6
CONTINUOUS
 10
-1475.75998711889
 20
517.631807723123
  0
VERTEX
  8
52
 62
7
  6
CONTINUOUS
 10
-1456.68757378117
 20
503.683123061299
  0
VERTEX
  8
52
 62
7
  6
CONTINUOUS
 10
-1443.55638873331
 20
500.810110962701
  0
VERTEX
  8
52
 62
7
  6
CONTINUOUS
 10
-1429.35802295263
 20
499.714870368971
  0
VERTEX
  8
52
 62
7
  6
CONTINUOUS
 10
-1416.20051864851
 20
501.134452732554
  0
VERTEX
  8
52
 62
7
  6
CONTINUOUS
 10
-1405.58212222626
 20
506.720178939577
  0
VERTEX
  8
52
 62
7
  6
CONTINUOUS
 10
-1398.4167114835
 20
518.910644752153
  0
VERTEX
  8
52
 62
7
  6
CONTINUOUS
 10
-1397.95640560254
 20
533.413946510578
  0
VERTEX
  8
52
 62
7
  6
CONTINUOUS
 10
-1403.56588367393
 20
551.728548195749
  0
VERTEX
  8
52
 62
7
  6
CONTINUOUS
 10
-1410.67491360415
 20
565.598470906828
  0
VERTEX
  8
52
 62
7
  6
CONTINUOUS
 10
-1421.39064554264
 20
579.926366000744
  0
VERTEX
  8
52
 62
7
  6
CONTINUOUS
 10
-1435.07849833698
 20
592.756297537604
  0
VERTEX
  8
52
 62
7
  6
CONTINUOUS
 10
-1448.86901180996
 20
600.633250945594
  0
VERTEX
  8
52
 62
7
  6
CONTINUOUS
 10
-1462.88951232203
 20
602.033253456608
  0
VERTEX
  8
52
 62
7
  6
CONTINUOUS
 10
-1475.31056894595
 20
599.902313367036
  0
VERTEX
  8
52
 62
7
  6
CONTINUOUS
 10
-1486.23412980032
 20
592.614852471709
  0
VERTEX
  8
52
 62
7
  6
CONTINUOUS
 10
-1493.22074513886
 20
585.072548476823
  0
SEQEND
  0
POLYLINE
  8
52
 62
7
 66
1
 70
1
  0
VERTEX
  8
52
 62
7
  6
CONTINUOUS
 10
-1717.83628992028
 20
1106.71478547645
  0
VERTEX
  8
52
 62
7
  6
CONTINUOUS
 10
-1621.82476534872
 20
1104.48442463451
  0
VERTEX
  8
52
 62
7
  6
CONTINUOUS
 10
-1621.79304579082
 20
1104.48368778485
  0
VERTEX
  8
52
 62
7
  6
CONTINUOUS
 10
-1621.76131943614
 20
1104.48335353902
  0
VERTEX
  8
52
 62
7
  6
CONTINUOUS
 10
-1444.640440922
 20
1102.61733665832
  0
VERTEX
  8
52
 62
7
  6
CONTINUOUS
 10
-1333.05203109076
 20
1098.35426427021
  0
VERTEX
  8
52
 62
7
  6
CONTINUOUS
 10
-1332.67027416849
 20
1108.34697469593
  0
VERTEX
  8
52
 62
7
  6
CONTINUOUS
 10
-1444.39684246047
 20
1112.61532522646
  0
VERTEX
  8
52
 62
7
  6
CONTINUOUS
 10
-1444.4659682473
 20
1112.61605348552
  0
VERTEX
  8
52
 62
7
  6
CONTINUOUS
 10
-1621.62424619358
 20
1114.48246437947
  0
VERTEX
  8
52
 62
7
  6
CONTINUOUS
 10
-1717.60405120725
 20
1116.71208837174
  0
SEQEND
  0
POLYLINE
  8
52
 62
7
 66
1
 70
1
  0
VERTEX
  8
52
 62
7
  6
CONTINUOUS
 10
-1811.82797518323
 20
2209.68553203745
  0
VERTEX
  8
52
 62
7
  6
CONTINUOUS
 10
-1811.43681286665
 20
2205.84793143482
  0
VERTEX
  8
52
 62
7
  6
CONTINUOUS
 10
-1808.56977924153
 20
2203.26717485278
  0
VERTEX
  8
52
 62
7
  6
CONTINUOUS
 10
-1781.89826902708
 20
2203.35849220214
  0
VERTEX
  8
52
 62
7
  6
CONTINUOUS
 10
-1750.25548246568
 20
2202.21998349065
  0
VERTEX
  8
52
 62
7
  6
CONTINUOUS
 10
-1750.16186413433
 20
2202.22012190292
  0
VERTEX
  8
52
 62
7
  6
CONTINUOUS
 10
-1619.8851069095
 20
2202.41273269767
  0
VERTEX
  8
52
 62
7
  6
CONTINUOUS
 10
-1619.89989163306
 20
2212.41272176826
  0
VERTEX
  8
52
 62
7
  6
CONTINUOUS
 10
-1750.08303052653
 20
2212.22024938578
  0
VERTEX
  8
52
 62
7
  6
CONTINUOUS
 10
-1781.73554084837
 20
2213.35910795855
  0
VERTEX
  8
52
 62
7
  6
CONTINUOUS
 10
-1805.97835805341
 20
2213.27610591666
  0
VERTEX
  8
52
 62
7
  6
CONTINUOUS
 10
-1806.02438259997
 20
2213.50346463196
  0
VERTEX
  8
52
 62
7
  6
CONTINUOUS
 10
-1809.54060049768
 20
2212.79167166586
  0
SEQEND
  0
POLYLINE
  8
52
 62
7
 66
1
 70
1
  0
VERTEX
  8
52
 62
7
  6
CONTINUOUS
 10
-1402.5071160162
 20
2200.16324752533
  0
VERTEX
  8
52
 62
7
  6
CONTINUOUS
 10
-1292.21772152608
 20
2201.38255465343
  0
VERTEX
  8
52
 62
7
  6
CONTINUOUS
 10
-1297.75449726584
 20
2202.02124334723
  0
VERTEX
  8
52
 62
7
  6
CONTINUOUS
 10
-1321.24959357975
 20
2201.88449554668
  0
VERTEX
  8
52
 62
7
  6
CONTINUOUS
 10
-1383.68350733969
 20
2200.83388824646
  0
SEQEND
  0
POLYLINE
  8
52
 62
7
 66
1
 70
1
  0
VERTEX
  8
52
 62
7
  6
CONTINUOUS
 10
-1902.80747476787
 20
1108.38097331838
  0
VERTEX
  8
52
 62
7
  6
CONTINUOUS
 10
-1837.50436999231
 20
1106.99538867923
  0
VERTEX
  8
52
 62
7
  6
CONTINUOUS
 10
-1837.46436529824
 20
1106.99453986982
  0
VERTEX
  8
52
 62
7
  6
CONTINUOUS
 10
-1837.42435214322
 20
1106.99433142242
  0
VERTEX
  8
52
 62
7
  6
CONTINUOUS
 10
-1674.69493647793
 20
1106.1465971426
  0
VERTEX
  8
52
 62
7
  6
CONTINUOUS
 10
-1674.6777428118
 20
1106.14662582208
  0
VERTEX
  8
52
 62
7
  6
CONTINUOUS
 10
-1539.6985160653
 20
1106.37177467122
  0
VERTEX
  8
52
 62
7
  6
CONTINUOUS
 10
-1486.97069310573
 20
1107.07088583332
  0
VERTEX
  8
52
 62
7
  6
CONTINUOUS
 10
-1483.1209232142
 20
1110.33593956335
  0
VERTEX
  8
52
 62
7
  6
CONTINUOUS
 10
-1482.88552108032
 20
1114.63224166355
  0
VERTEX
  8
52
 62
7
  6
CONTINUOUS
 10
-1485.84328979325
 20
1117.75717848557
  0
VERTEX
  8
52
 62
7
  6
CONTINUOUS
 10
-1490.1536628548
 20
1117.75810154852
  0
VERTEX
  8
52
 62
7
  6
CONTINUOUS
 10
-1490.15381887136
 20
1117.02956014301
  0
VERTEX
  8
52
 62
7
  6
CONTINUOUS
 10
-1539.77314719532
 20
1116.3716640961
  0
VERTEX
  8
52
 62
7
  6
CONTINUOUS
 10
-1674.67722938172
 20
1116.14664059003
  0
VERTEX
  8
52
 62
7
  6
CONTINUOUS
 10
-1837.33224497843
 20
1116.99398728481
  0
VERTEX
  8
52
 62
7
  6
CONTINUOUS
 10
-1902.59534505993
 20
1118.37872311456
  0
SEQEND
  0
POLYLINE
  8
52
 62
7
 66
1
 70
1
  0
VERTEX
  8
52
 62
7
  6
CONTINUOUS
 10
-3397.51738051959
 20
2751.67682543411
  0
VERTEX
  8
52
 62
7
  6
CONTINUOUS
 10
-3396.63262795315
 20
2745.30083460474
  0
VERTEX
  8
52
 62
7
  6
CONTINUOUS
 10
-3395.2912169685
 20
2738.11173937305
  0
VERTEX
  8
52
 62
7
  6
CONTINUOUS
 10
-3391.6388972133
 20
2730.18450447014
  0
VERTEX
  8
52
 62
7
  6
CONTINUOUS
 10
-3382.02131838115
 20
2716.63989431675
  0
VERTEX
  8
52
 62
7
  6
CONTINUOUS
 10
-3367.60166846464
 20
2705.30188555482
  0
VERTEX
  8
52
 62
7
  6
CONTINUOUS
 10
-3359.73074988126
 20
2700.67384099
  0
VERTEX
  8
52
 62
7
  6
CONTINUOUS
 10
-3335.96144845622
 20
2693.01260438706
  0
VERTEX
  8
52
 62
7
  6
CONTINUOUS
 10
-3327.65619177965
 20
2692.19427131536
  0
VERTEX
  8
52
 62
7
  6
CONTINUOUS
 10
-3320.64425350062
 20
2694.50100053465
  0
VERTEX
  8
52
 62
7
  6
CONTINUOUS
 10
-3313.22264950856
 20
2701.70965792596
  0
VERTEX
  8
52
 62
7
  6
CONTINUOUS
 10
-3310.47381533767
 20
2710.16602855295
  0
VERTEX
  8
52
 62
7
  6
CONTINUOUS
 10
-3308.91854400422
 20
2718.97879440025
  0
VERTEX
  8
52
 62
7
  6
CONTINUOUS
 10
-3308.91131862614
 20
2729.82459199351
  0
VERTEX
  8
52
 62
7
  6
CONTINUOUS
 10
-3312.02726035792
 20
2742.22187055795
  0
VERTEX
  8
52
 62
7
  6
CONTINUOUS
 10
-3315.93168487561
 20
2752.99407404219
  0
VERTEX
  8
52
 62
7
  6
CONTINUOUS
 10
-3321.68919217869
 20
2765.44391240641
  0
VERTEX
  8
52
 62
7
  6
CONTINUOUS
 10
-3331.61108022666
 20
2779.72532545147
  0
VERTEX
  8
52
 62
7
  6
CONTINUOUS
 10
-3339.04779608692
 20
2787.9598815545
  0
VERTEX
  8
52
 62
7
  6
CONTINUOUS
 10
-3347.2985470188
 20
2794.34077954931
  0
VERTEX
  8
52
 62
7
  6
CONTINUOUS
 10
-3356.23612999536
 20
2799.17273476197
  0
VERTEX
  8
52
 62
7
  6
CONTINUOUS
 10
-3364.21074679245
 20
2800.65124771074
  0
VERTEX
  8
52
 62
7
  6
CONTINUOUS
 10
-3371.55110826589
 20
2801.01173787601
  0
VERTEX
  8
52
 62
7
  6
CONTINUOUS
 10
-3377.90166525838
 20
2800.17776837705
  0
VERTEX
  8
52
 62
7
  6
CONTINUOUS
 10
-3382.11997642513
 20
2797.31037794314
  0
VERTEX
  8
52
 62
7
  6
CONTINUOUS
 10
-3384.25701096749
 20
2792.15560047318
  0
VERTEX
  8
52
 62
7
  6
CONTINUOUS
 10
-3393.17643624903
 20
2786.11634117695
  0
VERTEX
  8
52
 62
7
  6
CONTINUOUS
 10
-3395.23864143036
 20
2778.90411339975
  0
VERTEX
  8
52
 62
7
  6
CONTINUOUS
 10
-3397.07732304046
 20
2764.07173502213
  0
SEQEND
  0
POLYLINE
  8
52
 62
7
 66
1
 70
1
  0
VERTEX
  8
52
 62
7
  6
CONTINUOUS
 10
-2456.31129186203
 20
2075.42823848155
  0
VERTEX
  8
52
 62
7
  6
CONTINUOUS
 10
-2444.19745741677
 20
2072.47376769428
  0
VERTEX
  8
52
 62
7
  6
CONTINUOUS
 10
-2445.74325284454
 20
2077.8849986906
  0
VERTEX
  8
52
 62
7
  6
CONTINUOUS
 10
-2449.0948337698
 20
2079.71603189112
  0
VERTEX
  8
52
 62
7
  6
CONTINUOUS
 10
-2452.80345292327
 20
2079.38830246837
  0
VERTEX
  8
52
 62
7
  6
CONTINUOUS
 10
-2455.34458608406
 20
2077.68819497202
  0
SEQEND
  0
POLYLINE
  8
52
 62
7
 66
1
 70
1
  0
VERTEX
  8
52
 62
7
  6
CONTINUOUS
 10
-3283.61605266801
 20
2115.07680409009
  0
VERTEX
  8
52
 62
7
  6
CONTINUOUS
 10
-3282.32151593974
 20
2113.78054139328
  0
VERTEX
  8
52
 62
7
  6
CONTINUOUS
 10
-3279.4772749726
 20
2112.94044639815
  0
VERTEX
  8
52
 62
7
  6
CONTINUOUS
 10
-3277.69820932775
 20
2114.53946155484
  0
VERTEX
  8
52
 62
7
  6
CONTINUOUS
 10
-3264.97188148228
 20
2115.92798369351
  0
VERTEX
  8
52
 62
7
  6
CONTINUOUS
 10
-3250.94753112893
 20
2121.25264197428
  0
VERTEX
  8
52
 62
7
  6
CONTINUOUS
 10
-3244.03607602419
 20
2125.23583850661
  0
VERTEX
  8
52
 62
7
  6
CONTINUOUS
 10
-3238.801122075
 20
2129.06775187592
  0
VERTEX
  8
52
 62
7
  6
CONTINUOUS
 10
-3238.44261169717
 20
2133.43631400882
  0
VERTEX
  8
52
 62
7
  6
CONTINUOUS
 10
-3243.06351549021
 20
2136.28419304689
  0
VERTEX
  8
52
 62
7
  6
CONTINUOUS
 10
-3250.65824917501
 20
2136.08605254877
  0
VERTEX
  8
52
 62
7
  6
CONTINUOUS
 10
-3259.0169455569
 20
2132.94202034226
  0
VERTEX
  8
52
 62
7
  6
CONTINUOUS
 10
-3273.62676487512
 20
2125.71275167321
  0
VERTEX
  8
52
 62
7
  6
CONTINUOUS
 10
-3279.49763243144
 20
2120.50966163976
  0
SEQEND
  0
POLYLINE
  8
52
 62
7
 66
1
 70
1
  0
VERTEX
  8
52
 62
7
  6
CONTINUOUS
 10
-3071.16085350958
 20
2091.28786299652
  0
VERTEX
  8
52
 62
7
  6
CONTINUOUS
 10
-3068.1673768519
 20
2085.69786752783
  0
VERTEX
  8
52
 62
7
  6
CONTINUOUS
 10
-3065.17251265089
 20
2082.19067159695
  0
VERTEX
  8
52
 62
7
  6
CONTINUOUS
 10
-3061.00701510282
 20
2082.03549654411
  0
VERTEX
  8
52
 62
7
  6
CONTINUOUS
 10
-3057.44871460054
 20
2085.48752680114
  0
VERTEX
  8
52
 62
7
  6
CONTINUOUS
 10
-3056.63305508794
 20
2089.77958436827
  0
VERTEX
  8
52
 62
7
  6
CONTINUOUS
 10
-3058.68749341087
 20
2094.22595400397
  0
VERTEX
  8
52
 62
7
  6
CONTINUOUS
 10
-3062.13906679388
 20
2098.47005435407
  0
VERTEX
  8
52
 62
7
  6
CONTINUOUS
 10
-3065.49088461679
 20
2099.9454876335
  0
VERTEX
  8
52
 62
7
  6
CONTINUOUS
 10
-3067.87848408696
 20
2099.94707823195
  0
VERTEX
  8
52
 62
7
  6
CONTINUOUS
 10
-3069.75986040219
 20
2097.28133099702
  0
VERTEX
  8
52
 62
7
  6
CONTINUOUS
 10
-3070.29546004764
 20
2093.97968707622
  0
VERTEX
  8
52
 62
7
  6
CONTINUOUS
 10
-3068.4170618742
 20
2092.17503530315
  0
SEQEND
  0
POLYLINE
  8
52
 62
7
 66
1
 70
1
  0
VERTEX
  8
52
 62
7
  6
CONTINUOUS
 10
-3274.69280945687
 20
1783.70238596875
  0
VERTEX
  8
52
 62
7
  6
CONTINUOUS
 10
-3272.22924690124
 20
1783.34514468542
  0
VERTEX
  8
52
 62
7
  6
CONTINUOUS
 10
-3256.50720879175
 20
1782.4964706114
  0
VERTEX
  8
52
 62
7
  6
CONTINUOUS
 10
-3249.54635816287
 20
1784.37143376903
  0
VERTEX
  8
52
 62
7
  6
CONTINUOUS
 10
-3244.56609792898
 20
1787.16211658204
  0
VERTEX
  8
52
 62
7
  6
CONTINUOUS
 10
-3244.02992296069
 20
1791.32736031121
  0
VERTEX
  8
52
 62
7
  6
CONTINUOUS
 10
-3248.04217447957
 20
1792.75243355467
  0
VERTEX
  8
52
 62
7
  6
CONTINUOUS
 10
-3255.50990819255
 20
1792.55420845024
  0
VERTEX
  8
52
 62
7
  6
CONTINUOUS
 10
-3264.02076764298
 20
1789.76587769239
  0
VERTEX
  8
52
 62
7
  6
CONTINUOUS
 10
-3271.49068419852
 20
1786.29105331506
  0
SEQEND
  0
POLYLINE
  8
52
 62
7
 66
1
 70
1
  0
VERTEX
  8
52
 62
7
  6
CONTINUOUS
 10
-3223.95872785498
 20
1646.61015694116
  0
VERTEX
  8
52
 62
7
  6
CONTINUOUS
 10
-3222.53658198952
 20
1646.22820943513
  0
VERTEX
  8
52
 62
7
  6
CONTINUOUS
 10
-3200.91538279386
 20
1654.92600750948
  0
VERTEX
  8
52
 62
7
  6
CONTINUOUS
 10
-3196.59420255514
 20
1659.69832983561
  0
VERTEX
  8
52
 62
7
  6
CONTINUOUS
 10
-3196.56577365521
 20
1664.24491190544
  0
VERTEX
  8
52
 62
7
  6
CONTINUOUS
 10
-3200.14526075808
 20
1667.11749716621
  0
VERTEX
  8
52
 62
7
  6
CONTINUOUS
 10
-3205.75989476443
 20
1665.26703717615
  0
VERTEX
  8
52
 62
7
  6
CONTINUOUS
 10
-3219.3555418042
 20
1655.29389226543
  0
VERTEX
  8
52
 62
7
  6
CONTINUOUS
 10
-3223.19513742562
 20
1648.99724877353
  0
SEQEND
  0
POLYLINE
  8
52
 62
7
 66
1
 70
1
  0
VERTEX
  8
52
 62
7
  6
CONTINUOUS
 10
-3424.84008050187
 20
1185.16544794654
  0
VERTEX
  8
52
 62
7
  6
CONTINUOUS
 10
-3368.08508837231
 20
1378.24718561576
  0
VERTEX
  8
52
 62
7
  6
CONTINUOUS
 10
-3370.0669573718
 20
1375.12340995979
  0
VERTEX
  8
52
 62
7
  6
CONTINUOUS
 10
-3384.19747805661
 20
1337.20423512995
  0
VERTEX
  8
52
 62
7
  6
CONTINUOUS
 10
-3420.21792105684
 20
1203.45554581202
  0
SEQEND
  0
POLYLINE
  8
52
 62
7
 66
1
 70
1
  0
VERTEX
  8
52
 62
7
  6
CONTINUOUS
 10
-3155.24253449375
 20
1096.89659910264
  0
VERTEX
  8
52
 62
7
  6
CONTINUOUS
 10
-3153.89661193349
 20
1095.6009108447
  0
VERTEX
  8
52
 62
7
  6
CONTINUOUS
 10
-3152.55129314547
 20
1091.4858226514
  0
VERTEX
  8
52
 62
7
  6
CONTINUOUS
 10
-3150.31717563525
 20
1086.43074410102
  0
VERTEX
  8
52
 62
7
  6
CONTINUOUS
 10
-3147.39681211081
 20
1083.45831863936
  0
VERTEX
  8
52
 62
7
  6
CONTINUOUS
 10
-3144.62865276485
 20
1081.40032579308
  0
VERTEX
  8
52
 62
7
  6
CONTINUOUS
 10
-3141.37744196062
 20
1081.45042955004
  0
VERTEX
  8
52
 62
7
  6
CONTINUOUS
 10
-3139.64967086432
 20
1084.1170596104
  0
VERTEX
  8
52
 62
7
  6
CONTINUOUS
 10
-3139.67401018277
 20
1089.07006493622
  0
VERTEX
  8
52
 62
7
  6
CONTINUOUS
 10
-3141.24726536002
 20
1096.28400201296
  0
VERTEX
  8
52
 62
7
  6
CONTINUOUS
 10
-3145.48709620372
 20
1105.47971018019
  0
VERTEX
  8
52
 62
7
  6
CONTINUOUS
 10
-3149.52512497521
 20
1108.14757498197
  0
VERTEX
  8
52
 62
7
  6
CONTINUOUS
 10
-3152.14152073325
 20
1107.23373526007
  0
VERTEX
  8
52
 62
7
  6
CONTINUOUS
 10
-3154.37761274189
 20
1103.06861402187
  0
SEQEND
  0
POLYLINE
  8
52
 62
7
 66
1
 70
1
  0
VERTEX
  8
52
 62
7
  6
CONTINUOUS
 10
-3295.70416293403
 20
1335.86448432695
  0
VERTEX
  8
52
 62
7
  6
CONTINUOUS
 10
-3286.1305062731
 20
1325.85483390655
  0
VERTEX
  8
52
 62
7
  6
CONTINUOUS
 10
-3281.43211015309
 20
1323.03442768413
  0
VERTEX
  8
52
 62
7
  6
CONTINUOUS
 10
-3276.20008559095
 20
1321.28070721006
  0
VERTEX
  8
52
 62
7
  6
CONTINUOUS
 10
-3271.62786268081
 20
1322.32112809606
  0
VERTEX
  8
52
 62
7
  6
CONTINUOUS
 10
-3270.61110662896
 20
1325.85151043952
  0
VERTEX
  8
52
 62
7
  6
CONTINUOUS
 10
-3273.88673834248
 20
1330.3734120171
  0
VERTEX
  8
52
 62
7
  6
CONTINUOUS
 10
-3280.56554570557
 20
1336.87724242746
  0
VERTEX
  8
52
 62
7
  6
CONTINUOUS
 10
-3286.20387234938
 20
1339.08824992128
  0
VERTEX
  8
52
 62
7
  6
CONTINUOUS
 10
-3292.12198518344
 20
1339.49591728973
  0
VERTEX
  8
52
 62
7
  6
CONTINUOUS
 10
-3294.30658639077
 20
1338.55658509878
  0
SEQEND
  0
POLYLINE
  8
52
 62
7
 66
1
 70
1
  0
VERTEX
  8
52
 62
7
  6
CONTINUOUS
 10
-3298.24349927026
 20
1338.96382819485
  0
VERTEX
  8
52
 62
7
  6
CONTINUOUS
 10
-3297.81240096142
 20
1335.68713580036
  0
VERTEX
  8
52
 62
7
  6
CONTINUOUS
 10
-3294.66374204803
 20
1331.29226141681
  0
VERTEX
  8
52
 62
7
  6
CONTINUOUS
 10
-3280.87267919671
 20
1325.98070794999
  0
VERTEX
  8
52
 62
7
  6
CONTINUOUS
 10
-3278.8661445154
 20
1325.67547824521
  0
VERTEX
  8
52
 62
7
  6
CONTINUOUS
 10
-3277.64646587707
 20
1327.91041710325
  0
VERTEX
  8
52
 62
7
  6
CONTINUOUS
 10
-3280.23608547012
 20
1333.42277179461
  0
VERTEX
  8
52
 62
7
  6
CONTINUOUS
 10
-3285.01021924027
 20
1338.40219428569
  0
VERTEX
  8
52
 62
7
  6
CONTINUOUS
 10
-3291.84225882647
 20
1341.0198574215
  0
VERTEX
  8
52
 62
7
  6
CONTINUOUS
 10
-3296.49038256844
 20
1341.37645282164
  0
SEQEND
  0
POLYLINE
  8
52
 62
7
 66
1
 70
1
  0
VERTEX
  8
52
 62
7
  6
CONTINUOUS
 10
-3372.75251537868
 20
695.41996948436
  0
VERTEX
  8
52
 62
7
  6
CONTINUOUS
 10
-3370.39133803808
 20
690.644263730625
  0
VERTEX
  8
52
 62
7
  6
CONTINUOUS
 10
-3362.34019094946
 20
687.594539514019
  0
VERTEX
  8
52
 62
7
  6
CONTINUOUS
 10
-3353.90843006623
 20
682.741333747921
  0
VERTEX
  8
52
 62
7
  6
CONTINUOUS
 10
-3344.33333196706
 20
679.462683173183
  0
VERTEX
  8
52
 62
7
  6
CONTINUOUS
 10
-3336.35804763454
 20
677.987775238636
  0
VERTEX
  8
52
 62
7
  6
CONTINUOUS
 10
-3332.31934981813
 20
678.444110365209
  0
VERTEX
  8
52
 62
7
  6
CONTINUOUS
 10
-3331.78529710361
 20
681.491996068137
  0
VERTEX
  8
52
 62
7
  6
CONTINUOUS
 10
-3336.83867312505
 20
687.208078375618
  0
VERTEX
  8
52
 62
7
  6
CONTINUOUS
 10
-3344.48319176863
 20
691.324515537529
  0
VERTEX
  8
52
 62
7
  6
CONTINUOUS
 10
-3364.39515405575
 20
698.97417984365
  0
VERTEX
  8
52
 62
7
  6
CONTINUOUS
 10
-3370.5162329914
 20
700.474090702175
  0
VERTEX
  8
52
 62
7
  6
CONTINUOUS
 10
-3372.42159194743
 20
698.798098694833
  0
SEQEND
  0
POLYLINE
  8
52
 62
7
 66
1
 70
1
  0
VERTEX
  8
52
 62
7
  6
CONTINUOUS
 10
-3406.94294697652
 20
804.545693840037
  0
VERTEX
  8
52
 62
7
  6
CONTINUOUS
 10
-3405.4202361468
 20
798.525567614696
  0
VERTEX
  8
52
 62
7
  6
CONTINUOUS
 10
-3402.82982240287
 20
796.721612838312
  0
VERTEX
  8
52
 62
7
  6
CONTINUOUS
 10
-3398.61331371176
 20
797.228709887993
  0
VERTEX
  8
52
 62
7
  6
CONTINUOUS
 10
-3394.26917949376
 20
800.656779673748
  0
VERTEX
  8
52
 62
7
  6
CONTINUOUS
 10
-3388.65441433569
 20
807.030977422463
  0
VERTEX
  8
52
 62
7
  6
CONTINUOUS
 10
-3386.74750515363
 20
815.945969263815
  0
VERTEX
  8
52
 62
7
  6
CONTINUOUS
 10
-3387.55829256085
 20
825.344143108785
  0
VERTEX
  8
52
 62
7
  6
CONTINUOUS
 10
-3390.9097707123
 20
831.517060966681
  0
VERTEX
  8
52
 62
7
  6
CONTINUOUS
 10
-3394.7196835947
 20
831.924276865799
  0
VERTEX
  8
52
 62
7
  6
CONTINUOUS
 10
-3401.27452614009
 20
824.254880404202
  0
VERTEX
  8
52
 62
7
  6
CONTINUOUS
 10
-3402.90097464759
 20
820.292828615993
  0
VERTEX
  8
52
 62
7
  6
CONTINUOUS
 10
-3403.91731730584
 20
818.692846228268
  0
VERTEX
  8
52
 62
7
  6
CONTINUOUS
 10
-3405.54345032874
 20
816.203994406279
  0
SEQEND
  0
POLYLINE
  8
52
 62
7
 66
1
 70
1
  0
VERTEX
  8
52
 62
7
  6
CONTINUOUS
 10
-2863.9738704546
 20
2597.48904886479
  0
VERTEX
  8
52
 62
7
  6
CONTINUOUS
 10
-2862.73768059707
 20
2584.86442252433
  0
VERTEX
  8
52
 62
7
  6
CONTINUOUS
 10
-2855.04395280887
 20
2581.15089620542
  0
VERTEX
  8
52
 62
7
  6
CONTINUOUS
 10
-2845.59737159069
 20
2577.81720223502
  0
VERTEX
  8
52
 62
7
  6
CONTINUOUS
 10
-2836.30048293706
 20
2578.54760889035
  0
VERTEX
  8
52
 62
7
  6
CONTINUOUS
 10
-2832.61428563617
 20
2583.34575424236
  0
VERTEX
  8
52
 62
7
  6
CONTINUOUS
 10
-2833.32174587986
 20
2588.959626792
  0
VERTEX
  8
52
 62
7
  6
CONTINUOUS
 10
-2837.58449464153
 20
2595.64266808133
  0
VERTEX
  8
52
 62
7
  6
CONTINUOUS
 10
-2843.88183190509
 20
2598.44086393384
  0
VERTEX
  8
52
 62
7
  6
CONTINUOUS
 10
-2851.67907177314
 20
2599.2842585747
  0
VERTEX
  8
52
 62
7
  6
CONTINUOUS
 10
-2858.84212400258
 20
2598.90803045461
  0
SEQEND
  0
POLYLINE
  8
53
 62
7
 66
1
 70
1
  0
VERTEX
  8
53
 62
7
  6
CONTINUOUS
 10
-2265.04604345685
 20
861.043491244388
  0
VERTEX
  8
53
 62
7
  6
CONTINUOUS
 10
-2263.54787864238
 20
859.011170366997
  0
VERTEX
  8
53
 62
7
  6
CONTINUOUS
 10
-2261.33815484451
 20
858.655097148257
  0
VERTEX
  8
53
 62
7
  6
CONTINUOUS
 10
-2256.8175695992
 20
855.783929002726
  0
VERTEX
  8
53
 62
7
  6
CONTINUOUS
 10
-2245.64340836914
 20
847.19633586817
  0
VERTEX
  8
53
 62
7
  6
CONTINUOUS
 10
-2238.37982988354
 20
843.359380290696
  0
VERTEX
  8
53
 62
7
  6
CONTINUOUS
 10
-2223.87845910842
 20
833.88207461649
  0
VERTEX
  8
53
 62
7
  6
CONTINUOUS
 10
-2199.1411007042
 20
823.411976890999
  0
VERTEX
  8
53
 62
7
  6
CONTINUOUS
 10
-2194.28978240629
 20
823.029937976326
  0
VERTEX
  8
53
 62
7
  6
CONTINUOUS
 10
-2192.71408494312
 20
827.220600638072
  0
VERTEX
  8
53
 62
7
  6
CONTINUOUS
 10
-2196.9294622412
 20
831.996703467247
  0
VERTEX
  8
53
 62
7
  6
CONTINUOUS
 10
-2204.97981517894
 20
838.754827598819
  0
VERTEX
  8
53
 62
7
  6
CONTINUOUS
 10
-2226.97289664692
 20
854.253537754917
  0
VERTEX
  8
53
 62
7
  6
CONTINUOUS
 10
-2249.67819526444
 20
865.002600322835
  0
VERTEX
  8
53
 62
7
  6
CONTINUOUS
 10
-2256.28168381039
 20
867.391614509378
  0
VERTEX
  8
53
 62
7
  6
CONTINUOUS
 10
-2261.97128367993
 20
867.392832932643
  0
VERTEX
  8
53
 62
7
  6
CONTINUOUS
 10
-2264.25810497534
 20
863.557922565651
  0
SEQEND
  0
POLYLINE
  8
53
 62
7
 66
1
 70
1
  0
VERTEX
  8
53
 62
7
  6
CONTINUOUS
 10
-1501.02893092089
 20
2357.24909746137
  0
VERTEX
  8
53
 62
7
  6
CONTINUOUS
 10
-1498.26615244875
 20
2348.50965498293
  0
VERTEX
  8
53
 62
7
  6
CONTINUOUS
 10
-1492.42648887901
 20
2345.00056387092
  0
VERTEX
  8
53
 62
7
  6
CONTINUOUS
 10
-1484.32206318093
 20
2347.73836538021
  0
VERTEX
  8
53
 62
7
  6
CONTINUOUS
 10
-1473.74937081689
 20
2357.18012403926
  0
VERTEX
  8
53
 62
7
  6
CONTINUOUS
 10
-1443.29582787595
 20
2393.71044425885
  0
VERTEX
  8
53
 62
7
  6
CONTINUOUS
 10
-1436.05236226964
 20
2400.41122021171
  0
VERTEX
  8
53
 62
7
  6
CONTINUOUS
 10
-1429.14280234603
 20
2401.54961737531
  0
VERTEX
  8
53
 62
7
  6
CONTINUOUS
 10
-1450.44080819956
 20
2420.4614101191
  0
VERTEX
  8
53
 62
7
  6
CONTINUOUS
 10
-1454.22540735974
 20
2420.46393138686
  0
VERTEX
  8
53
 62
7
  6
CONTINUOUS
 10
-1460.78082259063
 20
2417.14089781034
  0
VERTEX
  8
53
 62
7
  6
CONTINUOUS
 10
-1467.33867448298
 20
2410.16026504546
  0
VERTEX
  8
53
 62
7
  6
CONTINUOUS
 10
-1474.81011395193
 20
2404.3994411754
  0
VERTEX
  8
53
 62
7
  6
CONTINUOUS
 10
-1483.09580846889
 20
2396.45475927039
  0
VERTEX
  8
53
 62
7
  6
CONTINUOUS
 10
-1496.6195704469
 20
2380.00456503317
  0
VERTEX
  8
53
 62
7
  6
CONTINUOUS
 10
-1500.53898720108
 20
2368.27237351124
  0
SEQEND
  0
POLYLINE
  8
53
 62
7
 66
1
 70
1
  0
VERTEX
  8
53
 62
7
  6
CONTINUOUS
 10
-2458.35260586004
 20
652.939390279905
  0
VERTEX
  8
53
 62
7
  6
CONTINUOUS
 10
-2426.52868025466
 20
642.315374968216
  0
VERTEX
  8
53
 62
7
  6
CONTINUOUS
 10
-2412.55893078691
 20
641.143983330739
  0
VERTEX
  8
53
 62
7
  6
CONTINUOUS
 10
-2402.60196239414
 20
641.929251071969
  0
VERTEX
  8
53
 62
7
  6
CONTINUOUS
 10
-2399.88350429032
 20
645.002068986811
  0
VERTEX
  8
53
 62
7
  6
CONTINUOUS
 10
-2403.4127824377
 20
651.175024920434
  0
VERTEX
  8
53
 62
7
  6
CONTINUOUS
 10
-2412.73385878513
 20
654.555221098947
  0
VERTEX
  8
53
 62
7
  6
CONTINUOUS
 10
-2430.97034580692
 20
657.886526504368
  0
VERTEX
  8
53
 62
7
  6
CONTINUOUS
 10
-2445.65158354601
 20
657.711870475621
  0
VERTEX
  8
53
 62
7
  6
CONTINUOUS
 10
-2456.32023602814
 20
654.666155089134
  0
SEQEND
  0
POLYLINE
  8
53
 62
7
 66
1
 70
1
  0
VERTEX
  8
53
 62
7
  6
CONTINUOUS
 10
-2523.46121910297
 20
613.659532336401
  0
VERTEX
  8
53
 62
7
  6
CONTINUOUS
 10
-2521.88720241118
 20
610.001595178116
  0
VERTEX
  8
53
 62
7
  6
CONTINUOUS
 10
-2517.92521589564
 20
608.070346677606
  0
VERTEX
  8
53
 62
7
  6
CONTINUOUS
 10
-2493.36376457978
 20
606.439486825159
  0
VERTEX
  8
53
 62
7
  6
CONTINUOUS
 10
-2481.78179999653
 20
604.405006510105
  0
VERTEX
  8
53
 62
7
  6
CONTINUOUS
 10
-2472.53629267815
 20
603.9712265822
  0
VERTEX
  8
53
 62
7
  6
CONTINUOUS
 10
-2469.9703052829
 20
606.713877140951
  0
VERTEX
  8
53
 62
7
  6
CONTINUOUS
 10
-2475.17628799765
 20
611.464792106901
  0
VERTEX
  8
53
 62
7
  6
CONTINUOUS
 10
-2484.72600785497
 20
614.64183724458
  0
VERTEX
  8
53
 62
7
  6
CONTINUOUS
 10
-2507.99188514007
 20
617.085219669521
  0
VERTEX
  8
53
 62
7
  6
CONTINUOUS
 10
-2517.38988492457
 20
617.087232243665
  0
VERTEX
  8
53
 62
7
  6
CONTINUOUS
 10
-2522.87661660153
 20
615.539007187342
  0
SEQEND
  0
POLYLINE
  8
54
 62
7
 66
1
 70
1
  0
VERTEX
  8
54
 62
7
  6
CONTINUOUS
 10
-3453.77685563614
 20
1296.22353455804
  0
VERTEX
  8
54
 62
7
  6
CONTINUOUS
 10
-3453.21957867803
 20
1289.11141505454
  0
VERTEX
  8
54
 62
7
  6
CONTINUOUS
 10
-3450.02019591727
 20
1284.36092980037
  0
VERTEX
  8
54
 62
7
  6
CONTINUOUS
 10
-3445.6266922599
 20
1281.10878886052
  0
VERTEX
  8
54
 62
7
  6
CONTINUOUS
 10
-3437.67661210876
 20
1280.5482863444
  0
VERTEX
  8
54
 62
7
  6
CONTINUOUS
 10
-3430.15723863043
 20
1285.09327618083
  0
VERTEX
  8
54
 62
7
  6
CONTINUOUS
 10
-3421.7992028232
 20
1291.7970864679
  0
VERTEX
  8
54
 62
7
  6
CONTINUOUS
 10
-3411.78922603942
 20
1302.89474309389
  0
VERTEX
  8
54
 62
7
  6
CONTINUOUS
 10
-3398.75422335721
 20
1325.32015217275
  0
VERTEX
  8
54
 62
7
  6
CONTINUOUS
 10
-3396.56747903039
 20
1336.26708413423
  0
VERTEX
  8
54
 62
7
  6
CONTINUOUS
 10
-3396.56607566788
 20
1342.82028398396
  0
VERTEX
  8
54
 62
7
  6
CONTINUOUS
 10
-3399.79065717064
 20
1348.51057465597
  0
VERTEX
  8
54
 62
7
  6
CONTINUOUS
 10
-3407.10546536686
 20
1350.34094115824
  0
VERTEX
  8
54
 62
7
  6
CONTINUOUS
 10
-3413.78577944086
 20
1349.80897172993
  0
VERTEX
  8
54
 62
7
  6
CONTINUOUS
 10
-3420.28898432142
 20
1346.05116429986
  0
VERTEX
  8
54
 62
7
  6
CONTINUOUS
 10
-3421.58517844259
 20
1342.34304179376
  0
VERTEX
  8
54
 62
7
  6
CONTINUOUS
 10
-3422.55059599604
 20
1341.32724851386
  0
VERTEX
  8
54
 62
7
  6
CONTINUOUS
 10
-3427.40274108117
 20
1337.84848751706
  0
VERTEX
  8
54
 62
7
  6
CONTINUOUS
 10
-3445.00884615927
 20
1319.61505743222
  0
VERTEX
  8
54
 62
7
  6
CONTINUOUS
 10
-3449.17580591115
 20
1313.26594963772
  0
VERTEX
  8
54
 62
7
  6
CONTINUOUS
 10
-3452.45450000101
 20
1303.4876515432
  0
SEQEND
  0
POLYLINE
  8
54
 62
7
 66
1
 70
1
  0
VERTEX
  8
54
 62
7
  6
CONTINUOUS
 10
-3155.716052295
 20
1712.14750880454
  0
VERTEX
  8
54
 62
7
  6
CONTINUOUS
 10
-3152.64334674867
 20
1711.10406156315
  0
VERTEX
  8
54
 62
7
  6
CONTINUOUS
 10
-3154.21916167483
 20
1709.58111101946
  0
VERTEX
  8
54
 62
7
  6
CONTINUOUS
 10
-3155.41969607145
 20
1699.47270856197
  0
VERTEX
  8
54
 62
7
  6
CONTINUOUS
 10
-3152.27600229015
 20
1690.60601229281
  0
VERTEX
  8
54
 62
7
  6
CONTINUOUS
 10
-3148.1381721853
 20
1687.04725491651
  0
VERTEX
  8
54
 62
7
  6
CONTINUOUS
 10
-3142.98293784131
 20
1685.59602022197
  0
VERTEX
  8
54
 62
7
  6
CONTINUOUS
 10
-3138.05496666705
 20
1686.1515373735
  0
VERTEX
  8
54
 62
7
  6
CONTINUOUS
 10
-3132.08342980258
 20
1689.95756003191
  0
VERTEX
  8
54
 62
7
  6
CONTINUOUS
 10
-3128.67614172315
 20
1695.49249135432
  0
VERTEX
  8
54
 62
7
  6
CONTINUOUS
 10
-3127.35072251222
 20
1702.42580991006
  0
VERTEX
  8
54
 62
7
  6
CONTINUOUS
 10
-3127.77736143206
 20
1710.17309585239
  0
VERTEX
  8
54
 62
7
  6
CONTINUOUS
 10
-3130.56584448125
 20
1718.45535535354
  0
VERTEX
  8
54
 62
7
  6
CONTINUOUS
 10
-3136.60770965155
 20
1723.46318150308
  0
VERTEX
  8
54
 62
7
  6
CONTINUOUS
 10
-3142.2453915971
 20
1725.14333765083
  0
VERTEX
  8
54
 62
7
  6
CONTINUOUS
 10
-3147.961371762
 20
1723.67394526127
  0
VERTEX
  8
54
 62
7
  6
CONTINUOUS
 10
-3153.09421809593
 20
1720.60396403783
  0
VERTEX
  8
54
 62
7
  6
CONTINUOUS
 10
-3155.6882494817
 20
1715.75429108291
  0
SEQEND
  0
POLYLINE
  8
54
 62
7
 66
1
 70
1
  0
VERTEX
  8
54
 62
7
  6
CONTINUOUS
 10
-2855.24335139474
 20
2777.49307261253
  0
VERTEX
  8
54
 62
7
  6
CONTINUOUS
 10
-2854.58384836807
 20
2776.1464329585
  0
VERTEX
  8
54
 62
7
  6
CONTINUOUS
 10
-2853.33777649462
 20
2778.35540332638
  0
VERTEX
  8
54
 62
7
  6
CONTINUOUS
 10
-2854.78926500806
 20
2772.81916906695
  0
VERTEX
  8
54
 62
7
  6
CONTINUOUS
 10
-2853.52320794349
 20
2766.90012431722
  0
VERTEX
  8
54
 62
7
  6
CONTINUOUS
 10
-2850.04667451888
 20
2761.9956071924
  0
VERTEX
  8
54
 62
7
  6
CONTINUOUS
 10
-2842.43144800515
 20
2754.82773240382
  0
VERTEX
  8
54
 62
7
  6
CONTINUOUS
 10
-2835.5760723223
 20
2750.88616453722
  0
VERTEX
  8
54
 62
7
  6
CONTINUOUS
 10
-2829.60769973348
 20
2749.94238824964
  0
VERTEX
  8
54
 62
7
  6
CONTINUOUS
 10
-2816.47427820652
 20
2752.37203941705
  0
VERTEX
  8
54
 62
7
  6
CONTINUOUS
 10
-2813.57380552614
 20
2759.68530877012
  0
VERTEX
  8
54
 62
7
  6
CONTINUOUS
 10
-2815.26902277831
 20
2769.56704030199
  0
VERTEX
  8
54
 62
7
  6
CONTINUOUS
 10
-2821.05548354038
 20
2776.68289677112
  0
VERTEX
  8
54
 62
7
  6
CONTINUOUS
 10
-2829.81311755636
 20
2784.74053281913
  0
VERTEX
  8
54
 62
7
  6
CONTINUOUS
 10
-2839.84454165279
 20
2787.1094161927
  0
VERTEX
  8
54
 62
7
  6
CONTINUOUS
 10
-2847.89696595269
 20
2786.17498044071
  0
VERTEX
  8
54
 62
7
  6
CONTINUOUS
 10
-2853.51332592757
 20
2781.73372102557
  0
SEQEND
  0
POLYLINE
  8
54
 62
7
 66
1
 70
1
  0
VERTEX
  8
54
 62
7
  6
CONTINUOUS
 10
-1717.81426169587
 20
641.484443961826
  0
VERTEX
  8
54
 62
7
  6
CONTINUOUS
 10
-1714.99750530386
 20
629.13944047264
  0
VERTEX
  8
54
 62
7
  6
CONTINUOUS
 10
-1709.51173639885
 20
626.191865632052
  0
VERTEX
  8
54
 62
7
  6
CONTINUOUS
 10
-1703.69528339575
 20
625.504820027564
  0
VERTEX
  8
54
 62
7
  6
CONTINUOUS
 10
-1697.64956679235
 20
627.916525397514
  0
VERTEX
  8
54
 62
7
  6
CONTINUOUS
 10
-1694.65095805918
 20
634.494483398697
  0
VERTEX
  8
54
 62
7
  6
CONTINUOUS
 10
-1696.12250445096
 20
642.216398706236
  0
VERTEX
  8
54
 62
7
  6
CONTINUOUS
 10
-1702.21719885768
 20
648.313704019953
  0
VERTEX
  8
54
 62
7
  6
CONTINUOUS
 10
-1708.64310498329
 20
649.686680154066
  0
SEQEND
  0
POLYLINE
  8
1
 62
7
 66
1
 70
1
  0
VERTEX
  8
1
 62
7
  6
CONTINUOUS
 10
-3552.8
 20
1085.6
  0
VERTEX
  8
1
 62
7
  6
CONTINUOUS
 10
-3552.8
 20
1084.66666666667
  0
VERTEX
  8
1
 62
7
  6
CONTINUOUS
 10
-3532.63448275862
 20
1067.86206896552
  0
VERTEX
  8
1
 62
7
  6
CONTINUOUS
 10
-3517.13333333333
 20
1048.13333333333
  0
VERTEX
  8
1
 62
7
  6
CONTINUOUS
 10
-3495.85333333333
 20
1017.73333333333
  0
VERTEX
  8
1
 62
7
  6
CONTINUOUS
 10
-3464.24307692308
 20
949.015384615387
  0
VERTEX
  8
1
 62
7
  6
CONTINUOUS
 10
-3429.6
 20
859.2
  0
VERTEX
  8
1
 62
7
  6
CONTINUOUS
 10
-3412
 20
808.076190476191
  0
VERTEX
  8
1
 62
7
  6
CONTINUOUS
 10
-3412
 20
742.4
  0
VERTEX
  8
1
 62
7
  6
CONTINUOUS
 10
-3413.47096774194
 20
726.219354838709
  0
VERTEX
  8
1
 62
7
  6
CONTINUOUS
 10
-3421.89387755102
 20
691.591836734694
  0
VERTEX
  8
1
 62
7
  6
CONTINUOUS
 10
-3429.66530612245
 20
670.220408163268
  0
VERTEX
  8
1
 62
7
  6
CONTINUOUS
 10
-3443.76
 20
642.970666666666
  0
VERTEX
  8
1
 62
7
  6
CONTINUOUS
 10
-3466
 20
614.800000000001
  0
VERTEX
  8
1
 62
7
  6
CONTINUOUS
 10
-3483.2
 20
597.6
  0
VERTEX
  8
1
 62
7
  6
CONTINUOUS
 10
-3517.28695652174
 20
568.382608695652
  0
VERTEX
  8
1
 62
7
  6
CONTINUOUS
 10
-3519.37391304348
 20
563.165217391304
  0
VERTEX
  8
1
 62
7
  6
CONTINUOUS
 10
-3505.6
 20
544.8
  0
VERTEX
  8
1
 62
7
  6
CONTINUOUS
 10
-3469
 20
486.24
  0
VERTEX
  8
1
 62
7
  6
CONTINUOUS
 10
-3450.4
 20
466.4
  0
VERTEX
  8
1
 62
7
  6
CONTINUOUS
 10
-3404
 20
445.6
  0
VERTEX
  8
1
 62
7
  6
CONTINUOUS
 10
-3370.4
 20
444.8
  0
VERTEX
  8
1
 62
7
  6
CONTINUOUS
 10
-3304.04
 20
461.6
  0
VERTEX
  8
1
 62
7
  6
CONTINUOUS
 10
-3288.53333333333
 20
461.6
  0
VERTEX
  8
1
 62
7
  6
CONTINUOUS
 10
-3274.88
 20
456.480000000001
  0
VERTEX
  8
1
 62
7
  6
CONTINUOUS
 10
-3263.36
 20
444.96
  0
VERTEX
  8
1
 62
7
  6
CONTINUOUS
 10
-3256.01176470588
 20
431.488235294118
  0
VERTEX
  8
1
 62
7
  6
CONTINUOUS
 10
-3234.4
 20
369.6
  0
VERTEX
  8
1
 62
7
  6
CONTINUOUS
 10
-3225.6
 20
369.6
  0
VERTEX
  8
1
 62
7
  6
CONTINUOUS
 10
-3185.6
 20
394.4
  0
VERTEX
  8
1
 62
7
  6
CONTINUOUS
 10
-3166.4
 20
407.2
  0
VERTEX
  8
1
 62
7
  6
CONTINUOUS
 10
-3117.1642172524
 20
436.407667731629
  0
VERTEX
  8
1
 62
7
  6
CONTINUOUS
 10
-3092.8
 20
459.2
  0
VERTEX
  8
1
 62
7
  6
CONTINUOUS
 10
-3017.10769230769
 20
536.738461538462
  0
VERTEX
  8
1
 62
7
  6
CONTINUOUS
 10
-3004.34285714286
 20
546.666666666667
  0
VERTEX
  8
1
 62
7
  6
CONTINUOUS
 10
-2979.52
 20
556.32
  0
VERTEX
  8
1
 62
7
  6
CONTINUOUS
 10
-2963.2
 20
559.2
  0
VERTEX
  8
1
 62
7
  6
CONTINUOUS
 10
-2949.6
 20
559.2
  0
VERTEX
  8
1
 62
7
  6
CONTINUOUS
 10
-2927.2
 20
551.733333333333
  0
VERTEX
  8
1
 62
7
  6
CONTINUOUS
 10
-2912
 20
541.600000000001
  0
VERTEX
  8
1
 62
7
  6
CONTINUOUS
 10
-2883.2
 20
512.8
  0
VERTEX
  8
1
 62
7
  6
CONTINUOUS
 10
-2815.2
 20
448.8
  0
VERTEX
  8
1
 62
7
  6
CONTINUOUS
 10
-2800
 20
435.2
  0
VERTEX
  8
1
 62
7
  6
CONTINUOUS
 10
-2793.08571428571
 20
435.2
  0
VERTEX
  8
1
 62
7
  6
CONTINUOUS
 10
-2611.70932475884
 20
489.227009646302
  0
VERTEX
  8
1
 62
7
  6
CONTINUOUS
 10
-2577.6
 20
493.6
  0
VERTEX
  8
1
 62
7
  6
CONTINUOUS
 10
-2511.2
 20
522.4
  0
VERTEX
  8
1
 62
7
  6
CONTINUOUS
 10
-2469.01818181818
 20
555.127272727273
  0
VERTEX
  8
1
 62
7
  6
CONTINUOUS
 10
-2403.36
 20
637.2
  0
VERTEX
  8
1
 62
7
  6
CONTINUOUS
 10
-2387.55555555556
 20
654.133333333333
  0
VERTEX
  8
1
 62
7
  6
CONTINUOUS
 10
-2374.96
 20
665.76
  0
VERTEX
  8
1
 62
7
  6
CONTINUOUS
 10
-2360
 20
675.733333333333
  0
VERTEX
  8
1
 62
7
  6
CONTINUOUS
 10
-2339.63636363636
 20
684.218181818182
  0
VERTEX
  8
1
 62
7
  6
CONTINUOUS
 10
-2323.6
 20
688.8
  0
VERTEX
  8
1
 62
7
  6
CONTINUOUS
 10
-2305.504
 20
691.584
  0
VERTEX
  8
1
 62
7
  6
CONTINUOUS
 10
-2278.7027027027
 20
692.994594594595
  0
VERTEX
  8
1
 62
7
  6
CONTINUOUS
 10
-2258.58461538462
 20
691.876923076923
  0
VERTEX
  8
1
 62
7
  6
CONTINUOUS
 10
-2238.4
 20
687.84
  0
VERTEX
  8
1
 62
7
  6
CONTINUOUS
 10
-2219.85882352941
 20
680.423529411764
  0
VERTEX
  8
1
 62
7
  6
CONTINUOUS
 10
-2204.4
 20
668.399999999999
  0
VERTEX
  8
1
 62
7
  6
CONTINUOUS
 10
-2191.2
 20
655.2
  0
VERTEX
  8
1
 62
7
  6
CONTINUOUS
 10
-2172.42727272727
 20
625.7
  0
VERTEX
  8
1
 62
7
  6
CONTINUOUS
 10
-2149.6
 20
579.2
  0
VERTEX
  8
1
 62
7
  6
CONTINUOUS
 10
-2076
 20
555.2
  0
VERTEX
  8
1
 62
7
  6
CONTINUOUS
 10
-2032
 20
544.8
  0
VERTEX
  8
1
 62
7
  6
CONTINUOUS
 10
-1961.6
 20
544.8
  0
VERTEX
  8
1
 62
7
  6
CONTINUOUS
 10
-1931.33551912568
 20
540.47650273224
  0
VERTEX
  8
1
 62
7
  6
CONTINUOUS
 10
-1927.42857142857
 20
552.685714285715
  0
VERTEX
  8
1
 62
7
  6
CONTINUOUS
 10
-1921.6
 20
576
  0
VERTEX
  8
1
 62
7
  6
CONTINUOUS
 10
-1901.40992167102
 20
648.534725848564
  0
VERTEX
  8
1
 62
7
  6
CONTINUOUS
 10
-1921.74545454545
 20
719.709090909092
  0
VERTEX
  8
1
 62
7
  6
CONTINUOUS
 10
-1924
 20
740
  0
VERTEX
  8
1
 62
7
  6
CONTINUOUS
 10
-1924
 20
768
  0
VERTEX
  8
1
 62
7
  6
CONTINUOUS
 10
-1919.73333333333
 20
789.333333333333
  0
VERTEX
  8
1
 62
7
  6
CONTINUOUS
 10
-1914.93333333333
 20
798.933333333333
  0
VERTEX
  8
1
 62
7
  6
CONTINUOUS
 10
-1907.32972972973
 20
809.578378378379
  0
VERTEX
  8
1
 62
7
  6
CONTINUOUS
 10
-1894.3619047619
 20
819.009523809524
  0
VERTEX
  8
1
 62
7
  6
CONTINUOUS
 10
-1885.70666666667
 20
821.173333333333
  0
VERTEX
  8
1
 62
7
  6
CONTINUOUS
 10
-1868.65882352941
 20
819.623529411765
  0
VERTEX
  8
1
 62
7
  6
CONTINUOUS
 10
-1853.6
 20
813.6
  0
VERTEX
  8
1
 62
7
  6
CONTINUOUS
 10
-1839.2
 20
804
  0
VERTEX
  8
1
 62
7
  6
CONTINUOUS
 10
-1818.17777777778
 20
784.888888888889
  0
VERTEX
  8
1
 62
7
  6
CONTINUOUS
 10
-1801.26315789474
 20
765.557894736841
  0
VERTEX
  8
1
 62
7
  6
CONTINUOUS
 10
-1780.8
 20
736
  0
VERTEX
  8
1
 62
7
  6
CONTINUOUS
 10
-1736.8
 20
664
  0
VERTEX
  8
1
 62
7
  6
CONTINUOUS
 10
-1721.49333333333
 20
631.2
  0
VERTEX
  8
1
 62
7
  6
CONTINUOUS
 10
-1703.25818181818
 20
631.2
  0
VERTEX
  8
1
 62
7
  6
CONTINUOUS
 10
-1606.68929889299
 20
583.350553505535
  0
VERTEX
  8
1
 62
7
  6
CONTINUOUS
 10
-1517.9914893617
 20
537.191489361702
  0
VERTEX
  8
1
 62
7
  6
CONTINUOUS
 10
-1508.8
 20
528
  0
VERTEX
  8
1
 62
7
  6
CONTINUOUS
 10
-1488.8
 20
498.4
  0
VERTEX
  8
1
 62
7
  6
CONTINUOUS
 10
-1472.8
 20
486.4
  0
VERTEX
  8
1
 62
7
  6
CONTINUOUS
 10
-1444
 20
481.6
  0
VERTEX
  8
1
 62
7
  6
CONTINUOUS
 10
-1393.6
 20
496.8
  0
VERTEX
  8
1
 62
7
  6
CONTINUOUS
 10
-1361.6
 20
516
  0
VERTEX
  8
1
 62
7
  6
CONTINUOUS
 10
-1355.2
 20
528
  0
VERTEX
  8
1
 62
7
  6
CONTINUOUS
 10
-1354.4
 20
549.6
  0
VERTEX
  8
1
 62
7
  6
CONTINUOUS
 10
-1361.6
 20
580
  0
VERTEX
  8
1
 62
7
  6
CONTINUOUS
 10
-1384
 20
622.4
  0
VERTEX
  8
1
 62
7
  6
CONTINUOUS
 10
-1438.41943319838
 20
698.762753036438
  0
VERTEX
  8
1
 62
7
  6
CONTINUOUS
 10
-1446.13333333333
 20
715.733333333333
  0
VERTEX
  8
1
 62
7
  6
CONTINUOUS
 10
-1450.16907216495
 20
731.876288659794
  0
VERTEX
  8
1
 62
7
  6
CONTINUOUS
 10
-1446.8548004315
 20
879.361380798274
  0
VERTEX
  8
1
 62
7
  6
CONTINUOUS
 10
-1433.42222222222
 20
911.111111111111
  0
VERTEX
  8
1
 62
7
  6
CONTINUOUS
 10
-1426.8
 20
922.7
  0
VERTEX
  8
1
 62
7
  6
CONTINUOUS
 10
-1416
 20
936.2
  0
VERTEX
  8
1
 62
7
  6
CONTINUOUS
 10
-1407.41818181818
 20
943.709090909091
  0
VERTEX
  8
1
 62
7
  6
CONTINUOUS
 10
-1394.6
 20
951.4
  0
VERTEX
  8
1
 62
7
  6
CONTINUOUS
 10
-1383.2
 20
955.2
  0
VERTEX
  8
1
 62
7
  6
CONTINUOUS
 10
-1345.43728813559
 20
962.752542372881
  0
VERTEX
  8
1
 62
7
  6
CONTINUOUS
 10
-1326.4
 20
975.2
  0
VERTEX
  8
1
 62
7
  6
CONTINUOUS
 10
-1314.4
 20
1007.2
  0
VERTEX
  8
1
 62
7
  6
CONTINUOUS
 10
-1315.2
 20
1040
  0
VERTEX
  8
1
 62
7
  6
CONTINUOUS
 10
-1324.8
 20
1098.4
  0
VERTEX
  8
1
 62
7
  6
CONTINUOUS
 10
-1324.8
 20
1113.6
  0
VERTEX
  8
1
 62
7
  6
CONTINUOUS
 10
-1322.84444444444
 20
1124.35555555556
  0
VERTEX
  8
1
 62
7
  6
CONTINUOUS
 10
-1313.06666666667
 20
1134.13333333333
  0
VERTEX
  8
1
 62
7
  6
CONTINUOUS
 10
-1303.24210526316
 20
1136.58947368421
  0
VERTEX
  8
1
 62
7
  6
CONTINUOUS
 10
-1288.37735849057
 20
1133.88679245283
  0
VERTEX
  8
1
 62
7
  6
CONTINUOUS
 10
-1269.15862068966
 20
1122.67586206897
  0
VERTEX
  8
1
 62
7
  6
CONTINUOUS
 10
-1255.2
 20
1111.93846153846
  0
VERTEX
  8
1
 62
7
  6
CONTINUOUS
 10
-1221.6
 20
1079.2
  0
VERTEX
  8
1
 62
7
  6
CONTINUOUS
 10
-1192.8
 20
1060.8
  0
VERTEX
  8
1
 62
7
  6
CONTINUOUS
 10
-1172.71724137931
 20
1060.08275862069
  0
VERTEX
  8
1
 62
7
  6
CONTINUOUS
 10
-1156
 20
1076.8
  0
VERTEX
  8
1
 62
7
  6
CONTINUOUS
 10
-1126.13333333333
 20
1102
  0
VERTEX
  8
1
 62
7
  6
CONTINUOUS
 10
-1083.96404494382
 20
1133.62696629213
  0
VERTEX
  8
1
 62
7
  6
CONTINUOUS
 10
-1011.32229299363
 20
1169.53036093418
  0
VERTEX
  8
1
 62
7
  6
CONTINUOUS
 10
-976.466666666667
 20
1174.17777777778
  0
VERTEX
  8
1
 62
7
  6
CONTINUOUS
 10
-955.2
 20
1160
  0
VERTEX
  8
1
 62
7
  6
CONTINUOUS
 10
-946.4
 20
1189.6
  0
VERTEX
  8
1
 62
7
  6
CONTINUOUS
 10
-947.091891891892
 20
1205.51351351351
  0
VERTEX
  8
1
 62
7
  6
CONTINUOUS
 10
-965.6
 20
1288.8
  0
VERTEX
  8
1
 62
7
  6
CONTINUOUS
 10
-976.363636363636
 20
1366.83636363636
  0
VERTEX
  8
1
 62
7
  6
CONTINUOUS
 10
-979.703394255875
 20
1372.68093994778
  0
VERTEX
  8
1
 62
7
  6
CONTINUOUS
 10
-1101.44615384615
 20
1441.8188034188
  0
VERTEX
  8
1
 62
7
  6
CONTINUOUS
 10
-1128.8
 20
1466.13333333333
  0
VERTEX
  8
1
 62
7
  6
CONTINUOUS
 10
-1143.54285714286
 20
1482.51428571429
  0
VERTEX
  8
1
 62
7
  6
CONTINUOUS
 10
-1179.41132075472
 20
1536.31698113208
  0
VERTEX
  8
1
 62
7
  6
CONTINUOUS
 10
-1247.24137931034
 20
1610.40827586207
  0
VERTEX
  8
1
 62
7
  6
CONTINUOUS
 10
-1251.2
 20
1611.2
  0
VERTEX
  8
1
 62
7
  6
CONTINUOUS
 10
-1254
 20
1616.8
  0
VERTEX
  8
1
 62
7
  6
CONTINUOUS
 10
-1256
 20
1624.8
  0
VERTEX
  8
1
 62
7
  6
CONTINUOUS
 10
-1256
 20
1641.6
  0
VERTEX
  8
1
 62
7
  6
CONTINUOUS
 10
-1234.4
 20
1692
  0
VERTEX
  8
1
 62
7
  6
CONTINUOUS
 10
-1216.06153846154
 20
1747.01538461538
  0
VERTEX
  8
1
 62
7
  6
CONTINUOUS
 10
-1180.59701492537
 20
1787.54626865672
  0
VERTEX
  8
1
 62
7
  6
CONTINUOUS
 10
-1145.68888888889
 20
1818.87407407407
  0
VERTEX
  8
1
 62
7
  6
CONTINUOUS
 10
-1137.4
 20
1824.4
  0
VERTEX
  8
1
 62
7
  6
CONTINUOUS
 10
-1128.8
 20
1826.85714285714
  0
VERTEX
  8
1
 62
7
  6
CONTINUOUS
 10
-1111.08571428571
 20
1829.38775510204
  0
VERTEX
  8
1
 62
7
  6
CONTINUOUS
 10
-1088.25365853659
 20
1826.94146341463
  0
VERTEX
  8
1
 62
7
  6
CONTINUOUS
 10
-1026.4
 20
1865.6
  0
VERTEX
  8
1
 62
7
  6
CONTINUOUS
 10
-991.900000000003
 20
1879.4
  0
VERTEX
  8
1
 62
7
  6
CONTINUOUS
 10
-942.813793103503
 20
1886.95172413792
  0
VERTEX
  8
1
 62
7
  6
CONTINUOUS
 10
-860.471942446043
 20
1896.5582733813
  0
VERTEX
  8
1
 62
7
  6
CONTINUOUS
 10
-833.6
 20
1902.4
  0
VERTEX
  8
1
 62
7
  6
CONTINUOUS
 10
-776.8
 20
1964
  0
VERTEX
  8
1
 62
7
  6
CONTINUOUS
 10
-772
 20
1972.8
  0
VERTEX
  8
1
 62
7
  6
CONTINUOUS
 10
-772
 20
2008
  0
VERTEX
  8
1
 62
7
  6
CONTINUOUS
 10
-779.2
 20
2069.6
  0
VERTEX
  8
1
 62
7
  6
CONTINUOUS
 10
-793.114252844177
 20
2153.95515786783
  0
VERTEX
  8
1
 62
7
  6
CONTINUOUS
 10
-858.874676524954
 20
2145.63105360444
  0
VERTEX
  8
1
 62
7
  6
CONTINUOUS
 10
-925.010852713178
 20
2144.56434108527
  0
VERTEX
  8
1
 62
7
  6
CONTINUOUS
 10
-933.6
 20
2148
  0
VERTEX
  8
1
 62
7
  6
CONTINUOUS
 10
-944
 20
2158.4
  0
VERTEX
  8
1
 62
7
  6
CONTINUOUS
 10
-951.2
 20
2170.4
  0
VERTEX
  8
1
 62
7
  6
CONTINUOUS
 10
-958.933333333333
 20
2185.86666666667
  0
VERTEX
  8
1
 62
7
  6
CONTINUOUS
 10
-963.2
 20
2207.2
  0
VERTEX
  8
1
 62
7
  6
CONTINUOUS
 10
-992.8
 20
2210.4
  0
VERTEX
  8
1
 62
7
  6
CONTINUOUS
 10
-1036
 20
2200.8
  0
VERTEX
  8
1
 62
7
  6
CONTINUOUS
 10
-1115.2
 20
2168
  0
VERTEX
  8
1
 62
7
  6
CONTINUOUS
 10
-1141.41835748792
 20
2150.79420289855
  0
VERTEX
  8
1
 62
7
  6
CONTINUOUS
 10
-1171.95616438356
 20
2141.15068493151
  0
VERTEX
  8
1
 62
7
  6
CONTINUOUS
 10
-1189.275
 20
2143.075
  0
VERTEX
  8
1
 62
7
  6
CONTINUOUS
 10
-1203.71428571429
 20
2148.62857142857
  0
VERTEX
  8
1
 62
7
  6
CONTINUOUS
 10
-1268
 20
2187.2
  0
VERTEX
  8
1
 62
7
  6
CONTINUOUS
 10
-1273.6
 20
2192.8
  0
VERTEX
  8
1
 62
7
  6
CONTINUOUS
 10
-1279.2
 20
2204
  0
VERTEX
  8
1
 62
7
  6
CONTINUOUS
 10
-1279.2
 20
2224.2
  0
VERTEX
  8
1
 62
7
  6
CONTINUOUS
 10
-1268.8
 20
2304.8
  0
VERTEX
  8
1
 62
7
  6
CONTINUOUS
 10
-1280.8
 20
2372.51428571429
  0
VERTEX
  8
1
 62
7
  6
CONTINUOUS
 10
-1280.8
 20
2396.8
  0
VERTEX
  8
1
 62
7
  6
CONTINUOUS
 10
-1301.89090909091
 20
2415.25454545455
  0
VERTEX
  8
1
 62
7
  6
CONTINUOUS
 10
-1332.8
 20
2416.8
  0
VERTEX
  8
1
 62
7
  6
CONTINUOUS
 10
-1376.51612903226
 20
2406.86451612903
  0
VERTEX
  8
1
 62
7
  6
CONTINUOUS
 10
-1405.6
 20
2394.4
  0
VERTEX
  8
1
 62
7
  6
CONTINUOUS
 10
-1414.76363636364
 20
2393.09090909091
  0
VERTEX
  8
1
 62
7
  6
CONTINUOUS
 10
-1438.13333333333
 20
2398.93333333333
  0
VERTEX
  8
1
 62
7
  6
CONTINUOUS
 10
-1441.33333333333
 20
2397.33333333333
  0
VERTEX
  8
1
 62
7
  6
CONTINUOUS
 10
-1442.55238095238
 20
2398.55238095238
  0
VERTEX
  8
1
 62
7
  6
CONTINUOUS
 10
-1439.2
 20
2412.8
  0
VERTEX
  8
1
 62
7
  6
CONTINUOUS
 10
-1439.2
 20
2459.2
  0
VERTEX
  8
1
 62
7
  6
CONTINUOUS
 10
-1434.4
 20
2520
  0
VERTEX
  8
1
 62
7
  6
CONTINUOUS
 10
-1452
 20
2563.2
  0
VERTEX
  8
1
 62
7
  6
CONTINUOUS
 10
-1472.8
 20
2584.8
  0
VERTEX
  8
1
 62
7
  6
CONTINUOUS
 10
-1496
 20
2604
  0
VERTEX
  8
1
 62
7
  6
CONTINUOUS
 10
-1505.04
 20
2613.04
  0
VERTEX
  8
1
 62
7
  6
CONTINUOUS
 10
-1514.4
 20
2632.8
  0
VERTEX
  8
1
 62
7
  6
CONTINUOUS
 10
-1516.52093023256
 20
2649.06046511628
  0
VERTEX
  8
1
 62
7
  6
CONTINUOUS
 10
-1539.58709677419
 20
2660.5935483871
  0
VERTEX
  8
1
 62
7
  6
CONTINUOUS
 10
-1578.4
 20
2692.8
  0
VERTEX
  8
1
 62
7
  6
CONTINUOUS
 10
-1609.03829787234
 20
2690.50212765957
  0
VERTEX
  8
1
 62
7
  6
CONTINUOUS
 10
-1671.2
 20
2679.2
  0
VERTEX
  8
1
 62
7
  6
CONTINUOUS
 10
-1702.3
 20
2679.2
  0
VERTEX
  8
1
 62
7
  6
CONTINUOUS
 10
-1732
 20
2688
  0
VERTEX
  8
1
 62
7
  6
CONTINUOUS
 10
-1734.83636363636
 20
2683.27272727273
  0
VERTEX
  8
1
 62
7
  6
CONTINUOUS
 10
-1736
 20
2685.6
  0
VERTEX
  8
1
 62
7
  6
CONTINUOUS
 10
-1736
 20
2692.8
  0
VERTEX
  8
1
 62
7
  6
CONTINUOUS
 10
-1744.8
 20
2710.4
  0
VERTEX
  8
1
 62
7
  6
CONTINUOUS
 10
-1744.8
 20
2724
  0
VERTEX
  8
1
 62
7
  6
CONTINUOUS
 10
-1742.04444444445
 20
2735.02222222222
  0
VERTEX
  8
1
 62
7
  6
CONTINUOUS
 10
-1733.99402985075
 20
2749.11044776119
  0
VERTEX
  8
1
 62
7
  6
CONTINUOUS
 10
-1705.6
 20
2782.4
  0
VERTEX
  8
1
 62
7
  6
CONTINUOUS
 10
-1677.6
 20
2822.4
  0
VERTEX
  8
1
 62
7
  6
CONTINUOUS
 10
-1644.8
 20
2884
  0
VERTEX
  8
1
 62
7
  6
CONTINUOUS
 10
-1636
 20
2918.4
  0
VERTEX
  8
1
 62
7
  6
CONTINUOUS
 10
-1642.4
 20
2936.8
  0
VERTEX
  8
1
 62
7
  6
CONTINUOUS
 10
-1660.8
 20
2944.8
  0
VERTEX
  8
1
 62
7
  6
CONTINUOUS
 10
-1683.2
 20
2944.8
  0
VERTEX
  8
1
 62
7
  6
CONTINUOUS
 10
-1715.2
 20
2936
  0
VERTEX
  8
1
 62
7
  6
CONTINUOUS
 10
-1763.60396039604
 20
2908.34059405941
  0
VERTEX
  8
1
 62
7
  6
CONTINUOUS
 10
-1867.2
 20
2797.6
  0
VERTEX
  8
1
 62
7
  6
CONTINUOUS
 10
-1871.2
 20
2792.8
  0
VERTEX
  8
1
 62
7
  6
CONTINUOUS
 10
-1880.27906976744
 20
2783.72093023256
  0
VERTEX
  8
1
 62
7
  6
CONTINUOUS
 10
-1961.84137931034
 20
2744.41379310345
  0
VERTEX
  8
1
 62
7
  6
CONTINUOUS
 10
-1984
 20
2739.2
  0
VERTEX
  8
1
 62
7
  6
CONTINUOUS
 10
-2012
 20
2735.2
  0
VERTEX
  8
1
 62
7
  6
CONTINUOUS
 10
-2094.08
 20
2716.96
  0
VERTEX
  8
1
 62
7
  6
CONTINUOUS
 10
-2106.08
 20
2715.96
  0
VERTEX
  8
1
 62
7
  6
CONTINUOUS
 10
-2116.64
 20
2717.28
  0
VERTEX
  8
1
 62
7
  6
CONTINUOUS
 10
-2139.78666666667
 20
2724.99555555556
  0
VERTEX
  8
1
 62
7
  6
CONTINUOUS
 10
-2200.8
 20
2759.2
  0
VERTEX
  8
1
 62
7
  6
CONTINUOUS
 10
-2259.2
 20
2774.4
  0
VERTEX
  8
1
 62
7
  6
CONTINUOUS
 10
-2293.54666666667
 20
2776.64
  0
VERTEX
  8
1
 62
7
  6
CONTINUOUS
 10
-2321.6
 20
2755.6
  0
VERTEX
  8
1
 62
7
  6
CONTINUOUS
 10
-2331.12727272727
 20
2750.83636363636
  0
VERTEX
  8
1
 62
7
  6
CONTINUOUS
 10
-2360.5875
 20
2742.5875
  0
VERTEX
  8
1
 62
7
  6
CONTINUOUS
 10
-2385.43448275862
 20
2737.98620689655
  0
VERTEX
  8
1
 62
7
  6
CONTINUOUS
 10
-2416.33684210526
 20
2736.16842105263
  0
VERTEX
  8
1
 62
7
  6
CONTINUOUS
 10
-2451.2
 20
2739.2
  0
VERTEX
  8
1
 62
7
  6
CONTINUOUS
 10
-2500.42105263158
 20
2746.23157894737
  0
VERTEX
  8
1
 62
7
  6
CONTINUOUS
 10
-2562.4
 20
2762.4
  0
VERTEX
  8
1
 62
7
  6
CONTINUOUS
 10
-2624.90507462687
 20
2784.14089552239
  0
VERTEX
  8
1
 62
7
  6
CONTINUOUS
 10
-2701.6
 20
2792.8
  0
VERTEX
  8
1
 62
7
  6
CONTINUOUS
 10
-2767.11111111111
 20
2770.31111111111
  0
VERTEX
  8
1
 62
7
  6
CONTINUOUS
 10
-2811.2
 20
2764.8
  0
VERTEX
  8
1
 62
7
  6
CONTINUOUS
 10
-2811.2
 20
2746.4
  0
VERTEX
  8
1
 62
7
  6
CONTINUOUS
 10
-2816.10666666667
 20
2746.4
  0
VERTEX
  8
1
 62
7
  6
CONTINUOUS
 10
-2823.2
 20
2776.8
  0
VERTEX
  8
1
 62
7
  6
CONTINUOUS
 10
-2829.6
 20
2780.8
  0
VERTEX
  8
1
 62
7
  6
CONTINUOUS
 10
-2838.86315789474
 20
2779.11578947368
  0
VERTEX
  8
1
 62
7
  6
CONTINUOUS
 10
-2849.4
 20
2781.75
  0
VERTEX
  8
1
 62
7
  6
CONTINUOUS
 10
-2868.63157894737
 20
2792.96842105263
  0
VERTEX
  8
1
 62
7
  6
CONTINUOUS
 10
-2890.61463414634
 20
2808.95609756098
  0
VERTEX
  8
1
 62
7
  6
CONTINUOUS
 10
-2955.2
 20
2880
  0
VERTEX
  8
1
 62
7
  6
CONTINUOUS
 10
-2984.8
 20
2910.4
  0
VERTEX
  8
1
 62
7
  6
CONTINUOUS
 10
-2995.01276595745
 20
2915.16595744681
  0
VERTEX
  8
1
 62
7
  6
CONTINUOUS
 10
-3018.22222222222
 20
2889.63555555556
  0
VERTEX
  8
1
 62
7
  6
CONTINUOUS
 10
-3023.2
 20
2888.64
  0
VERTEX
  8
1
 62
7
  6
CONTINUOUS
 10
-3036.33488372093
 20
2889.95348837209
  0
VERTEX
  8
1
 62
7
  6
CONTINUOUS
 10
-3046.66666666667
 20
2897.33333333333
  0
VERTEX
  8
1
 62
7
  6
CONTINUOUS
 10
-3071.84
 20
2928.8
  0
VERTEX
  8
1
 62
7
  6
CONTINUOUS
 10
-3078.4
 20
2928.8
  0
VERTEX
  8
1
 62
7
  6
CONTINUOUS
 10
-3108
 20
2899.2
  0
VERTEX
  8
1
 62
7
  6
CONTINUOUS
 10
-3149.45454545455
 20
2828.65454545455
  0
VERTEX
  8
1
 62
7
  6
CONTINUOUS
 10
-3168
 20
2779.2
  0
VERTEX
  8
1
 62
7
  6
CONTINUOUS
 10
-3172.8
 20
2769.6
  0
VERTEX
  8
1
 62
7
  6
CONTINUOUS
 10
-3180.8
 20
2761.6
  0
VERTEX
  8
1
 62
7
  6
CONTINUOUS
 10
-3189.44
 20
2757.28
  0
VERTEX
  8
1
 62
7
  6
CONTINUOUS
 10
-3198.4
 20
2756
  0
VERTEX
  8
1
 62
7
  6
CONTINUOUS
 10
-3223.2
 20
2756
  0
VERTEX
  8
1
 62
7
  6
CONTINUOUS
 10
-3251.2
 20
2750.4
  0
VERTEX
  8
1
 62
7
  6
CONTINUOUS
 10
-3259.2
 20
2750.4
  0
VERTEX
  8
1
 62
7
  6
CONTINUOUS
 10
-3267.2
 20
2754.4
  0
VERTEX
  8
1
 62
7
  6
CONTINUOUS
 10
-3277.76
 20
2761.44
  0
VERTEX
  8
1
 62
7
  6
CONTINUOUS
 10
-3297.98918918919
 20
2791.78378378378
  0
VERTEX
  8
1
 62
7
  6
CONTINUOUS
 10
-3348.65714285715
 20
2816.65714285714
  0
VERTEX
  8
1
 62
7
  6
CONTINUOUS
 10
-3362.24
 20
2830.24
  0
VERTEX
  8
1
 62
7
  6
CONTINUOUS
 10
-3397.16363636364
 20
2890.10909090909
  0
VERTEX
  8
1
 62
7
  6
CONTINUOUS
 10
-3404.8
 20
2899.2
  0
VERTEX
  8
1
 62
7
  6
CONTINUOUS
 10
-3421.6
 20
2907.2
  0
VERTEX
  8
1
 62
7
  6
CONTINUOUS
 10
-3434.4
 20
2905.6
  0
VERTEX
  8
1
 62
7
  6
CONTINUOUS
 10
-3456
 20
2892.8
  0
VERTEX
  8
1
 62
7
  6
CONTINUOUS
 10
-3437.4288372093
 20
2828.20465116279
  0
VERTEX
  8
1
 62
7
  6
CONTINUOUS
 10
-3422.34666666667
 20
2766.93333333334
  0
VERTEX
  8
1
 62
7
  6
CONTINUOUS
 10
-3408
 20
2695.2
  0
VERTEX
  8
1
 62
7
  6
CONTINUOUS
 10
-3386.02105263158
 20
2658.56842105263
  0
VERTEX
  8
1
 62
7
  6
CONTINUOUS
 10
-3377.6
 20
2631.2
  0
VERTEX
  8
1
 62
7
  6
CONTINUOUS
 10
-3367.4
 20
2612.6
  0
VERTEX
  8
1
 62
7
  6
CONTINUOUS
 10
-3354.8
 20
2591.6
  0
VERTEX
  8
1
 62
7
  6
CONTINUOUS
 10
-3348.8
 20
2573.6
  0
VERTEX
  8
1
 62
7
  6
CONTINUOUS
 10
-3348.8
 20
2552.8
  0
VERTEX
  8
1
 62
7
  6
CONTINUOUS
 10
-3355.84
 20
2538.72
  0
VERTEX
  8
1
 62
7
  6
CONTINUOUS
 10
-3372.4
 20
2514.8
  0
VERTEX
  8
1
 62
7
  6
CONTINUOUS
 10
-3404.58181818182
 20
2482.61818181818
  0
VERTEX
  8
1
 62
7
  6
CONTINUOUS
 10
-3422.66285714286
 20
2442.43809523809
  0
VERTEX
  8
1
 62
7
  6
CONTINUOUS
 10
-3451.2
 20
2399.2
  0
VERTEX
  8
1
 62
7
  6
CONTINUOUS
 10
-3465.795599022
 20
2378.99070904645
  0
VERTEX
  8
1
 62
7
  6
CONTINUOUS
 10
-3501.81682242991
 20
2352.72523364486
  0
VERTEX
  8
1
 62
7
  6
CONTINUOUS
 10
-3478.4
 20
2317.6
  0
VERTEX
  8
1
 62
7
  6
CONTINUOUS
 10
-3473.79649122807
 20
2307.24210526316
  0
VERTEX
  8
1
 62
7
  6
CONTINUOUS
 10
-3466.423500612
 20
2275.64357405141
  0
VERTEX
  8
1
 62
7
  6
CONTINUOUS
 10
-3465.67975830816
 20
2185.65075528701
  0
VERTEX
  8
1
 62
7
  6
CONTINUOUS
 10
-3456
 20
2082.4
  0
VERTEX
  8
1
 62
7
  6
CONTINUOUS
 10
-3419.50545454545
 20
1961.68727272727
  0
VERTEX
  8
1
 62
7
  6
CONTINUOUS
 10
-3380.18156028369
 20
1873.2085106383
  0
VERTEX
  8
1
 62
7
  6
CONTINUOUS
 10
-3359.49473684211
 20
1855.83157894737
  0
VERTEX
  8
1
 62
7
  6
CONTINUOUS
 10
-3350.4
 20
1845.6
  0
VERTEX
  8
1
 62
7
  6
CONTINUOUS
 10
-3343.68
 20
1835.52
  0
VERTEX
  8
1
 62
7
  6
CONTINUOUS
 10
-3339.2
 20
1823.2
  0
VERTEX
  8
1
 62
7
  6
CONTINUOUS
 10
-3337.6
 20
1812.8
  0
VERTEX
  8
1
 62
7
  6
CONTINUOUS
 10
-3337.6
 20
1732.8
  0
VERTEX
  8
1
 62
7
  6
CONTINUOUS
 10
-3327.2
 20
1660
  0
VERTEX
  8
1
 62
7
  6
CONTINUOUS
 10
-3327.2
 20
1615.2
  0
VERTEX
  8
1
 62
7
  6
CONTINUOUS
 10
-3333.7641025641
 20
1542.99487179487
  0
VERTEX
  8
1
 62
7
  6
CONTINUOUS
 10
-3331.56363636364
 20
1524.29090909091
  0
VERTEX
  8
1
 62
7
  6
CONTINUOUS
 10
-3336
 20
1488.8
  0
VERTEX
  8
1
 62
7
  6
CONTINUOUS
 10
-3345.6
 20
1460
  0
VERTEX
  8
1
 62
7
  6
CONTINUOUS
 10
-3359.6
 20
1432
  0
VERTEX
  8
1
 62
7
  6
CONTINUOUS
 10
-3378.98378378378
 20
1410.85405405405
  0
VERTEX
  8
1
 62
7
  6
CONTINUOUS
 10
-3395.2
 20
1396.8
  0
VERTEX
  8
1
 62
7
  6
CONTINUOUS
 10
-3443.2
 20
1360.8
  0
VERTEX
  8
1
 62
7
  6
CONTINUOUS
 10
-3529.6
 20
1300.8
  0
VERTEX
  8
1
 62
7
  6
CONTINUOUS
 10
-3525.6
 20
1262.4
  0
VERTEX
  8
1
 62
7
  6
CONTINUOUS
 10
-3525.6
 20
1213.2
  0
VERTEX
  8
1
 62
7
  6
CONTINUOUS
 10
-3528
 20
1183.2
  0
VERTEX
  8
1
 62
7
  6
CONTINUOUS
 10
-3535.73333333333
 20
1136.8
  0
SEQEND
  0
ENDSEC
  0
EOF
