  0
SECTION
  2
HEADER
  0
ENDSEC
  0
SECTION
  2
TABLES
  0
ENDSEC
  0
SECTION
  2
BLOCKS
  0
ENDSEC
  0
SECTION
  2
ENTITIES
  0
TEXT
  1
MARK_1
  8
72
 10
-3258.8
 20
2362.8
 11
-3258.8
 21
2362.8
 62
3
 40
8
 50
90
 72
0
 73
1
  0
TEXT
  1
MARK_2
  8
72
 10
-3310
 20
1153.2
 11
-3310
 21
1153.2
 62
3
 40
8
 50
90
 72
0
 73
1
  0
POLYLINE
  8
51
 62
7
 66
1
 70
1
  0
VERTEX
  8
51
 62
7
  6
CONTINUOUS
 10
-1565.98653565293
 20
1485.22451703326
  0
VERTEX
  8
51
 62
7
  6
CONTINUOUS
 10
-1556.53578135619
 20
1470.04978936341
  0
VERTEX
  8
51
 62
7
  6
CONTINUOUS
 10
-1540.94356742467
 20
1449.08829003679
  0
VERTEX
  8
51
 62
7
  6
CONTINUOUS
 10
-1525.16609586243
 20
1430.33143484798
  0
VERTEX
  8
51
 62
7
  6
CONTINUOUS
 10
-1499.93064149517
 20
1403.71387909814
  0
VERTEX
  8
51
 62
7
  6
CONTINUOUS
 10
-1474.99826118631
 20
1379.81535279053
  0
VERTEX
  8
51
 62
7
  6
CONTINUOUS
 10
-1447.2361486585
 20
1355.03604857873
  0
VERTEX
  8
51
 62
7
  6
CONTINUOUS
 10
-1415.31770987353
 20
1330.0510785272
  0
VERTEX
  8
51
 62
7
  6
CONTINUOUS
 10
-1390.39942499854
 20
1312.47814927008
  0
VERTEX
  8
51
 62
7
  6
CONTINUOUS
 10
-1364.28355176404
 20
1295.4985912779
  0
VERTEX
  8
51
 62
7
  6
CONTINUOUS
 10
-1336.62558400995
 20
1279.10176313396
  0
VERTEX
  8
51
 62
7
  6
CONTINUOUS
 10
-1308.91395421272
 20
1264.3684236593
  0
VERTEX
  8
51
 62
7
  6
CONTINUOUS
 10
-1281.91133066681
 20
1251.60891581111
  0
VERTEX
  8
51
 62
7
  6
CONTINUOUS
 10
-1255.06630244998
 20
1240.15264828425
  0
VERTEX
  8
51
 62
7
  6
CONTINUOUS
 10
-1220.32225017927
 20
1227.09423522062
  0
VERTEX
  8
51
 62
7
  6
CONTINUOUS
 10
-1188.77383160881
 20
1216.85189672933
  0
VERTEX
  8
51
 62
7
  6
CONTINUOUS
 10
-1155.69577590559
 20
1208.0050193363
  0
SEQEND
  0
POLYLINE
  8
51
 62
7
 66
1
 70
1
  0
VERTEX
  8
51
 62
7
  6
CONTINUOUS
 10
-1557.29487035466
 20
1238.05474768246
  0
VERTEX
  8
51
 62
7
  6
CONTINUOUS
 10
-1242.21383536161
 20
1482.00540676441
  0
VERTEX
  8
51
 62
7
  6
CONTINUOUS
 10
-1264.63064788203
 20
1476.17903792646
  0
VERTEX
  8
51
 62
7
  6
CONTINUOUS
 10
-1287.36519176686
 20
1468.26078371471
  0
VERTEX
  8
51
 62
7
  6
CONTINUOUS
 10
-1313.19405145115
 20
1457.85643343465
  0
VERTEX
  8
51
 62
7
  6
CONTINUOUS
 10
-1334.183246553
 20
1448.11278405471
  0
VERTEX
  8
51
 62
7
  6
CONTINUOUS
 10
-1356.24727789836
 20
1436.81955854388
  0
VERTEX
  8
51
 62
7
  6
CONTINUOUS
 10
-1386.52069803606
 20
1419.87189834041
  0
VERTEX
  8
51
 62
7
  6
CONTINUOUS
 10
-1408.95254765419
 20
1405.44976667226
  0
VERTEX
  8
51
 62
7
  6
CONTINUOUS
 10
-1430.78977052246
 20
1388.96120931885
  0
VERTEX
  8
51
 62
7
  6
CONTINUOUS
 10
-1444.92749003864
 20
1377.10657958437
  0
VERTEX
  8
51
 62
7
  6
CONTINUOUS
 10
-1465.07654717208
 20
1358.52739174002
  0
VERTEX
  8
51
 62
7
  6
CONTINUOUS
 10
-1483.33204763084
 20
1339.13386700747
  0
VERTEX
  8
51
 62
7
  6
CONTINUOUS
 10
-1499.62616078703
 20
1320.26168855035
  0
VERTEX
  8
51
 62
7
  6
CONTINUOUS
 10
-1541.85242012421
 20
1265.84324573924
  0
VERTEX
  8
51
 62
7
  6
CONTINUOUS
 10
-1553.124876757
 20
1247.33598157757
  0
SEQEND
  0
POLYLINE
  8
51
 62
7
 66
1
 70
1
  0
VERTEX
  8
51
 62
7
  6
CONTINUOUS
 10
-2969.23150553409
 20
2805.89496710724
  0
VERTEX
  8
51
 62
7
  6
CONTINUOUS
 10
-2968.30110953353
 20
2780.05987921769
  0
VERTEX
  8
51
 62
7
  6
CONTINUOUS
 10
-2963.91636895453
 20
2751.30664545326
  0
VERTEX
  8
51
 62
7
  6
CONTINUOUS
 10
-2958.19743584686
 20
2727.3854381776
  0
VERTEX
  8
51
 62
7
  6
CONTINUOUS
 10
-2950.25897110893
 20
2702.64783619011
  0
VERTEX
  8
51
 62
7
  6
CONTINUOUS
 10
-2940.12917652366
 20
2678.43264896408
  0
VERTEX
  8
51
 62
7
  6
CONTINUOUS
 10
-2924.35109147905
 20
2648.799079348
  0
VERTEX
  8
51
 62
7
  6
CONTINUOUS
 10
-2911.3933767612
 20
2628.61233674604
  0
VERTEX
  8
51
 62
7
  6
CONTINUOUS
 10
-2891.55568926464
 20
2602.67722014113
  0
VERTEX
  8
51
 62
7
  6
CONTINUOUS
 10
-2874.73346533859
 20
2583.87369706308
  0
VERTEX
  8
51
 62
7
  6
CONTINUOUS
 10
-2855.8994464201
 20
2565.63940304551
  0
VERTEX
  8
51
 62
7
  6
CONTINUOUS
 10
-2835.98763103493
 20
2549.1735047014
  0
VERTEX
  8
51
 62
7
  6
CONTINUOUS
 10
-2815.17430637738
 20
2534.50174671658
  0
VERTEX
  8
51
 62
7
  6
CONTINUOUS
 10
-2794.09926476058
 20
2522.27570714642
  0
VERTEX
  8
51
 62
7
  6
CONTINUOUS
 10
-2773.29023523013
 20
2512.44143939593
  0
VERTEX
  8
51
 62
7
  6
CONTINUOUS
 10
-2759.324167121
 20
2507.34533609911
  0
VERTEX
  8
51
 62
7
  6
CONTINUOUS
 10
-2745.37932958779
 20
2503.37580949391
  0
VERTEX
  8
51
 62
7
  6
CONTINUOUS
 10
-2724.6466516916
 20
2499.92647688614
  0
VERTEX
  8
51
 62
7
  6
CONTINUOUS
 10
-2705.14764381863
 20
2499.38230321961
  0
VERTEX
  8
51
 62
7
  6
CONTINUOUS
 10
-2692.9992394803
 20
2500.68623924595
  0
VERTEX
  8
51
 62
7
  6
CONTINUOUS
 10
-2675.96857099452
 20
2504.73515789773
  0
VERTEX
  8
51
 62
7
  6
CONTINUOUS
 10
-2654.81460738868
 20
2513.2864901139
  0
VERTEX
  8
51
 62
7
  6
CONTINUOUS
 10
-2634.94318823705
 20
2524.49011511383
  0
VERTEX
  8
51
 62
7
  6
CONTINUOUS
 10
-2617.24589533813
 20
2538.34952184382
  0
VERTEX
  8
51
 62
7
  6
CONTINUOUS
 10
-2605.94723551213
 20
2550.44266704579
  0
VERTEX
  8
51
 62
7
  6
CONTINUOUS
 10
-2599.47537390291
 20
2559.35142858517
  0
VERTEX
  8
51
 62
7
  6
CONTINUOUS
 10
-2588.69656963502
 20
2579.31037975827
  0
VERTEX
  8
51
 62
7
  6
CONTINUOUS
 10
-2582.28674639421
 20
2595.86442026042
  0
VERTEX
  8
51
 62
7
  6
CONTINUOUS
 10
-2577.44657972169
 20
2613.49467249211
  0
VERTEX
  8
51
 62
7
  6
CONTINUOUS
 10
-2571.81018157949
 20
2644.50898344198
  0
VERTEX
  8
51
 62
7
  6
CONTINUOUS
 10
-2568.57824095257
 20
2669.88543591058
  0
VERTEX
  8
51
 62
7
  6
CONTINUOUS
 10
-2565.83403437578
 20
2694.44570736583
  0
VERTEX
  8
51
 62
7
  6
CONTINUOUS
 10
-2564.95080713703
 20
2723.73912147011
  0
VERTEX
  8
51
 62
7
  6
CONTINUOUS
 10
-2967.27396913765
 20
2828.26678395174
  0
SEQEND
  0
POLYLINE
  8
51
 62
7
 66
1
 70
1
  0
VERTEX
  8
51
 62
7
  6
CONTINUOUS
 10
-1522.2155490631
 20
2018.51884131292
  0
VERTEX
  8
51
 62
7
  6
CONTINUOUS
 10
-1520.87993210713
 20
2003.75734835171
  0
VERTEX
  8
51
 62
7
  6
CONTINUOUS
 10
-1515.21775377284
 20
1975.20310655287
  0
VERTEX
  8
51
 62
7
  6
CONTINUOUS
 10
-1507.70675026293
 20
1949.35298343404
  0
VERTEX
  8
51
 62
7
  6
CONTINUOUS
 10
-1497.02409711866
 20
1922.45941526107
  0
VERTEX
  8
51
 62
7
  6
CONTINUOUS
 10
-1486.66616283157
 20
1900.86114978386
  0
VERTEX
  8
51
 62
7
  6
CONTINUOUS
 10
-1469.54274744244
 20
1871.3677649574
  0
VERTEX
  8
51
 62
7
  6
CONTINUOUS
 10
-1449.28708977614
 20
1841.93084273222
  0
VERTEX
  8
51
 62
7
  6
CONTINUOUS
 10
-1432.1668876095
 20
1819.9544178745
  0
VERTEX
  8
51
 62
7
  6
CONTINUOUS
 10
-1413.88484089514
 20
1798.48393538517
  0
VERTEX
  8
51
 62
7
  6
CONTINUOUS
 10
-1387.71775507672
 20
1770.78108463711
  0
VERTEX
  8
51
 62
7
  6
CONTINUOUS
 10
-1359.29942748808
 20
1743.26668759042
  0
VERTEX
  8
51
 62
7
  6
CONTINUOUS
 10
-1331.03435210938
 20
1717.93938949703
  0
VERTEX
  8
51
 62
7
  6
CONTINUOUS
 10
-1310.09731650981
 20
1700.75834175176
  0
VERTEX
  8
51
 62
7
  6
CONTINUOUS
 10
-1282.67051990461
 20
1679.94978408718
  0
VERTEX
  8
51
 62
7
  6
CONTINUOUS
 10
-1256.33014358926
 20
1661.35235686027
  0
VERTEX
  8
51
 62
7
  6
CONTINUOUS
 10
-1212.09170174863
 20
1631.8975029179
  0
VERTEX
  8
51
 62
7
  6
CONTINUOUS
 10
-1197.64001684244
 20
1620.31095047886
  0
SEQEND
  0
POLYLINE
  8
51
 62
7
 66
1
 70
1
  0
VERTEX
  8
51
 62
7
  6
CONTINUOUS
 10
-3217.27646409428
 20
907.225365900508
  0
VERTEX
  8
51
 62
7
  6
CONTINUOUS
 10
-3195.20344199224
 20
903.31599806059
  0
VERTEX
  8
51
 62
7
  6
CONTINUOUS
 10
-3204.82731687639
 20
909.503611136555
  0
VERTEX
  8
51
 62
7
  6
CONTINUOUS
 10
-3210.78220924714
 20
911.673506284357
  0
VERTEX
  8
51
 62
7
  6
CONTINUOUS
 10
-3215.49510098325
 20
910.969108538955
  0
VERTEX
  8
51
 62
7
  6
CONTINUOUS
 10
-3216.80332032034
 20
909.598726374432
  0
SEQEND
  0
POLYLINE
  8
51
 62
7
 66
1
 70
1
  0
VERTEX
  8
51
 62
7
  6
CONTINUOUS
 10
-3158.03288637534
 20
619.502403613819
  0
VERTEX
  8
51
 62
7
  6
CONTINUOUS
 10
-3156.38762666855
 20
597.503508115146
  0
VERTEX
  8
51
 62
7
  6
CONTINUOUS
 10
-3151.8465972537
 20
580.948980163085
  0
VERTEX
  8
51
 62
7
  6
CONTINUOUS
 10
-3144.65585373708
 20
564.989682354573
  0
VERTEX
  8
51
 62
7
  6
CONTINUOUS
 10
-3136.04082821329
 20
551.202086302537
  0
VERTEX
  8
51
 62
7
  6
CONTINUOUS
 10
-3129.12511793674
 20
543.115535131775
  0
VERTEX
  8
51
 62
7
  6
CONTINUOUS
 10
-3116.25025341794
 20
530.834480088827
  0
VERTEX
  8
51
 62
7
  6
CONTINUOUS
 10
-3111.46174787352
 20
527.476585496149
  0
VERTEX
  8
51
 62
7
  6
CONTINUOUS
 10
-3086.13986746923
 20
514.278144974429
  0
VERTEX
  8
51
 62
7
  6
CONTINUOUS
 10
-3072.54036096054
 20
508.645387070977
  0
VERTEX
  8
51
 62
7
  6
CONTINUOUS
 10
-3057.53033959394
 20
503.807763877697
  0
VERTEX
  8
51
 62
7
  6
CONTINUOUS
 10
-3034.42242541348
 20
499.204585167937
  0
VERTEX
  8
51
 62
7
  6
CONTINUOUS
 10
-3019.06090080412
 20
497.878430878996
  0
VERTEX
  8
51
 62
7
  6
CONTINUOUS
 10
-3003.6029763
 20
497.834928922711
  0
VERTEX
  8
51
 62
7
  6
CONTINUOUS
 10
-2780.45413145217
 20
691.897300953644
  0
VERTEX
  8
51
 62
7
  6
CONTINUOUS
 10
-2780.12930980208
 20
731.736705805489
  0
VERTEX
  8
51
 62
7
  6
CONTINUOUS
 10
-2782.36065448623
 20
745.951366507194
  0
VERTEX
  8
51
 62
7
  6
CONTINUOUS
 10
-2789.7828328923
 20
770.756662353103
  0
VERTEX
  8
51
 62
7
  6
CONTINUOUS
 10
-2800.79884845785
 20
795.072256893438
  0
VERTEX
  8
51
 62
7
  6
CONTINUOUS
 10
-2811.4318157715
 20
812.766256328545
  0
VERTEX
  8
51
 62
7
  6
CONTINUOUS
 10
-2820.17036168547
 20
823.241963108389
  0
VERTEX
  8
51
 62
7
  6
CONTINUOUS
 10
-2826.17546048273
 20
828.596138699649
  0
VERTEX
  8
51
 62
7
  6
CONTINUOUS
 10
-2832.7711395077
 20
832.878871673476
  0
VERTEX
  8
51
 62
7
  6
CONTINUOUS
 10
-2844.66558035833
 20
838.426388573599
  0
VERTEX
  8
51
 62
7
  6
CONTINUOUS
 10
-2853.42222159103
 20
841.434408875478
  0
VERTEX
  8
51
 62
7
  6
CONTINUOUS
 10
-2862.56427269674
 20
843.315446412881
  0
VERTEX
  8
51
 62
7
  6
CONTINUOUS
 10
-2880.95439898232
 20
843.458238143292
  0
VERTEX
  8
51
 62
7
  6
CONTINUOUS
 10
-2900.27888955398
 20
839.965604087224
  0
VERTEX
  8
51
 62
7
  6
CONTINUOUS
 10
-2920.73881568168
 20
833.503606512693
  0
VERTEX
  8
51
 62
7
  6
CONTINUOUS
 10
-2952.77874119665
 20
820.085668275009
  0
VERTEX
  8
51
 62
7
  6
CONTINUOUS
 10
-2996.45499018636
 20
798.373075834165
  0
VERTEX
  8
51
 62
7
  6
CONTINUOUS
 10
-3034.48394571
 20
777.403605186496
  0
VERTEX
  8
51
 62
7
  6
CONTINUOUS
 10
-3065.97934963165
 20
757.115016550549
  0
VERTEX
  8
51
 62
7
  6
CONTINUOUS
 10
-3090.34492933899
 20
737.762244432967
  0
VERTEX
  8
51
 62
7
  6
CONTINUOUS
 10
-3112.43275527183
 20
716.299993083738
  0
VERTEX
  8
51
 62
7
  6
CONTINUOUS
 10
-3127.84035075356
 20
697.820875278808
  0
VERTEX
  8
51
 62
7
  6
CONTINUOUS
 10
-3140.75171559358
 20
678.413630250393
  0
VERTEX
  8
51
 62
7
  6
CONTINUOUS
 10
-3150.5569207946
 20
657.420391012726
  0
VERTEX
  8
51
 62
7
  6
CONTINUOUS
 10
-3156.76183307206
 20
636.217804361918
  0
SEQEND
  0
POLYLINE
  8
51
 62
7
 66
1
 70
1
  0
VERTEX
  8
51
 62
7
  6
CONTINUOUS
 10
-1660.60399888984
 20
1613.68614415951
  0
VERTEX
  8
51
 62
7
  6
CONTINUOUS
 10
-1141.81417388862
 20
1908.28638696335
  0
VERTEX
  8
51
 62
7
  6
CONTINUOUS
 10
-1181.63289758219
 20
1904.57520029148
  0
VERTEX
  8
51
 62
7
  6
CONTINUOUS
 10
-1200.50576934831
 20
1902.04306273306
  0
VERTEX
  8
51
 62
7
  6
CONTINUOUS
 10
-1237.79465922898
 20
1894.41801675796
  0
VERTEX
  8
51
 62
7
  6
CONTINUOUS
 10
-1254.20172005255
 20
1890.17868207657
  0
VERTEX
  8
51
 62
7
  6
CONTINUOUS
 10
-1288.84878240653
 20
1878.79349197076
  0
VERTEX
  8
51
 62
7
  6
CONTINUOUS
 10
-1325.52093448171
 20
1865.28142992398
  0
VERTEX
  8
51
 62
7
  6
CONTINUOUS
 10
-1362.83126753834
 20
1849.19548436699
  0
VERTEX
  8
51
 62
7
  6
CONTINUOUS
 10
-1399.78614966913
 20
1830.23690194617
  0
VERTEX
  8
51
 62
7
  6
CONTINUOUS
 10
-1444.59718000355
 20
1802.51727203944
  0
VERTEX
  8
51
 62
7
  6
CONTINUOUS
 10
-1495.87485706033
 20
1767.19697899581
  0
VERTEX
  8
51
 62
7
  6
CONTINUOUS
 10
-1535.28902296956
 20
1738.32629453967
  0
VERTEX
  8
51
 62
7
  6
CONTINUOUS
 10
-1577.32340586053
 20
1705.50328947345
  0
VERTEX
  8
51
 62
7
  6
CONTINUOUS
 10
-1601.76339191847
 20
1684.05167242301
  0
VERTEX
  8
51
 62
7
  6
CONTINUOUS
 10
-1622.87422128904
 20
1663.066603587
  0
VERTEX
  8
51
 62
7
  6
CONTINUOUS
 10
-1636.34310951926
 20
1647.53798563362
  0
VERTEX
  8
51
 62
7
  6
CONTINUOUS
 10
-1651.20475882897
 20
1627.67728474839
  0
SEQEND
  0
POLYLINE
  8
51
 62
7
 66
1
 70
1
  0
VERTEX
  8
51
 62
7
  6
CONTINUOUS
 10
-1993.8249199253
 20
2334.81730044332
  0
VERTEX
  8
51
 62
7
  6
CONTINUOUS
 10
-1993.51647281666
 20
2321.94597491127
  0
VERTEX
  8
51
 62
7
  6
CONTINUOUS
 10
-1991.90606366245
 20
2308.67240297061
  0
VERTEX
  8
51
 62
7
  6
CONTINUOUS
 10
-1988.77309610158
 20
2295.09045848057
  0
VERTEX
  8
51
 62
7
  6
CONTINUOUS
 10
-1984.47653246808
 20
2281.91039725724
  0
VERTEX
  8
51
 62
7
  6
CONTINUOUS
 10
-1975.58768735256
 20
2263.26452648348
  0
VERTEX
  8
51
 62
7
  6
CONTINUOUS
 10
-1968.2129946786
 20
2252.0521442852
  0
VERTEX
  8
51
 62
7
  6
CONTINUOUS
 10
-1960.1252589666
 20
2242.12957180679
  0
VERTEX
  8
51
 62
7
  6
CONTINUOUS
 10
-1951.24907808947
 20
2233.48426013357
  0
VERTEX
  8
51
 62
7
  6
CONTINUOUS
 10
-1941.75602317551
 20
2225.9065870157
  0
VERTEX
  8
51
 62
7
  6
CONTINUOUS
 10
-1931.60242175162
 20
2219.44780647602
  0
VERTEX
  8
51
 62
7
  6
CONTINUOUS
 10
-1920.99360627731
 20
2214.24221726627
  0
VERTEX
  8
51
 62
7
  6
CONTINUOUS
 10
-1909.66394628857
 20
2210.29978966717
  0
VERTEX
  8
51
 62
7
  6
CONTINUOUS
 10
-1897.85027053512
 20
2207.50481172764
  0
VERTEX
  8
51
 62
7
  6
CONTINUOUS
 10
-1885.67877788506
 20
2205.76526321988
  0
VERTEX
  8
51
 62
7
  6
CONTINUOUS
 10
-1867.18273062082
 20
2204.61581979642
  0
VERTEX
  8
51
 62
7
  6
CONTINUOUS
 10
-1848.25994687352
 20
2205.28674538835
  0
VERTEX
  8
51
 62
7
  6
CONTINUOUS
 10
-1835.48722399282
 20
2206.69508277531
  0
VERTEX
  8
51
 62
7
  6
CONTINUOUS
 10
-1802.77842409793
 20
2212.57997664765
  0
VERTEX
  8
51
 62
7
  6
CONTINUOUS
 10
-1776.6201321304
 20
2219.4692339489
  0
VERTEX
  8
51
 62
7
  6
CONTINUOUS
 10
-1757.92274452694
 20
2226.25703261183
  0
VERTEX
  8
51
 62
7
  6
CONTINUOUS
 10
-1746.59778170806
 20
2231.90471825935
  0
VERTEX
  8
51
 62
7
  6
CONTINUOUS
 10
-1731.58815192391
 20
2242.79360929969
  0
VERTEX
  8
51
 62
7
  6
CONTINUOUS
 10
-1722.78663189417
 20
2251.53084219298
  0
VERTEX
  8
51
 62
7
  6
CONTINUOUS
 10
-1711.04128266108
 20
2266.84506117384
  0
VERTEX
  8
51
 62
7
  6
CONTINUOUS
 10
-1700.71386809992
 20
2284.06135415193
  0
VERTEX
  8
51
 62
7
  6
CONTINUOUS
 10
-1688.7767754742
 20
2309.32302937709
  0
VERTEX
  8
51
 62
7
  6
CONTINUOUS
 10
-1659.87569253789
 20
2382.24306699866
  0
VERTEX
  8
51
 62
7
  6
CONTINUOUS
 10
-1635.85166656489
 20
2436.88551132785
  0
VERTEX
  8
51
 62
7
  6
CONTINUOUS
 10
-1630.37422077111
 20
2451.00328215677
  0
VERTEX
  8
51
 62
7
  6
CONTINUOUS
 10
-1628.79399466605
 20
2456.06184374887
  0
VERTEX
  8
51
 62
7
  6
CONTINUOUS
 10
-1628.10105168484
 20
2466.32984444256
  0
VERTEX
  8
51
 62
7
  6
CONTINUOUS
 10
-1625.75985073669
 20
2479.54535201399
  0
VERTEX
  8
51
 62
7
  6
CONTINUOUS
 10
-1624.73897245527
 20
2491.82308563813
  0
VERTEX
  8
51
 62
7
  6
CONTINUOUS
 10
-1625.55282399581
 20
2503.17701399182
  0
VERTEX
  8
51
 62
7
  6
CONTINUOUS
 10
-1628.21215797101
 20
2514.45361615595
  0
VERTEX
  8
51
 62
7
  6
CONTINUOUS
 10
-1634.36659340361
 20
2529.22220263134
  0
VERTEX
  8
51
 62
7
  6
CONTINUOUS
 10
-1640.11344844417
 20
2538.20051434668
  0
VERTEX
  8
51
 62
7
  6
CONTINUOUS
 10
-1644.28493547972
 20
2542.61001418697
  0
VERTEX
  8
51
 62
7
  6
CONTINUOUS
 10
-1651.56953391404
 20
2547.37830509
  0
VERTEX
  8
51
 62
7
  6
CONTINUOUS
 10
-1659.45644569586
 20
2550.51528999388
  0
VERTEX
  8
51
 62
7
  6
CONTINUOUS
 10
-1904.36651782144
 20
2497.75155273323
  0
VERTEX
  8
51
 62
7
  6
CONTINUOUS
 10
-1914.49243616282
 20
2488.23823803084
  0
VERTEX
  8
51
 62
7
  6
CONTINUOUS
 10
-1928.92209768002
 20
2472.58265668799
  0
VERTEX
  8
51
 62
7
  6
CONTINUOUS
 10
-1943.59468303211
 20
2454.98078224552
  0
VERTEX
  8
51
 62
7
  6
CONTINUOUS
 10
-1954.13003216706
 20
2440.82167647614
  0
VERTEX
  8
51
 62
7
  6
CONTINUOUS
 10
-1969.9214686382
 20
2415.07219890211
  0
VERTEX
  8
51
 62
7
  6
CONTINUOUS
 10
-1982.604344911
 20
2388.13172536245
  0
VERTEX
  8
51
 62
7
  6
CONTINUOUS
 10
-1986.49188516149
 20
2376.5238531895
  0
VERTEX
  8
51
 62
7
  6
CONTINUOUS
 10
-1990.99399347998
 20
2358.84938487446
  0
VERTEX
  8
51
 62
7
  6
CONTINUOUS
 10
-1992.90486493808
 20
2347.09519434909
  0
SEQEND
  0
POLYLINE
  8
51
 62
7
 66
1
 70
1
  0
VERTEX
  8
51
 62
7
  6
CONTINUOUS
 10
-2128.47477879099
 20
886.626938891793
  0
VERTEX
  8
51
 62
7
  6
CONTINUOUS
 10
-2126.97960637678
 20
866.957709466555
  0
VERTEX
  8
51
 62
7
  6
CONTINUOUS
 10
-2123.05311399002
 20
846.2206924393
  0
VERTEX
  8
51
 62
7
  6
CONTINUOUS
 10
-2118.65021118041
 20
831.456479742193
  0
VERTEX
  8
51
 62
7
  6
CONTINUOUS
 10
-2113.26031830225
 20
816.269379733453
  0
VERTEX
  8
51
 62
7
  6
CONTINUOUS
 10
-2103.3055393831
 20
793.417449847063
  0
VERTEX
  8
51
 62
7
  6
CONTINUOUS
 10
-2082.28788620353
 20
754.485582542287
  0
VERTEX
  8
51
 62
7
  6
CONTINUOUS
 10
-2055.98133099162
 20
714.302665818823
  0
VERTEX
  8
51
 62
7
  6
CONTINUOUS
 10
-2038.63897134458
 20
690.806323147457
  0
VERTEX
  8
51
 62
7
  6
CONTINUOUS
 10
-2019.8482452335
 20
667.536762167875
  0
VERTEX
  8
51
 62
7
  6
CONTINUOUS
 10
-1985.73367167673
 20
629.114517621036
  0
VERTEX
  8
51
 62
7
  6
CONTINUOUS
 10
-1950.4047685416
 20
594.58314637376
  0
VERTEX
  8
51
 62
7
  6
CONTINUOUS
 10
-1928.89142170398
 20
576.574391485313
  0
VERTEX
  8
51
 62
7
  6
CONTINUOUS
 10
-1908.13869651374
 20
560.904320527497
  0
VERTEX
  8
51
 62
7
  6
CONTINUOUS
 10
-1887.57955768683
 20
547.131519306374
  0
VERTEX
  8
51
 62
7
  6
CONTINUOUS
 10
-1867.39782567123
 20
535.689689673025
  0
VERTEX
  8
51
 62
7
  6
CONTINUOUS
 10
-1847.80990466312
 20
527.441496179829
  0
VERTEX
  8
51
 62
7
  6
CONTINUOUS
 10
-1836.25868506976
 20
524.087716204002
  0
VERTEX
  8
51
 62
7
  6
CONTINUOUS
 10
-1825.64162401862
 20
522.516042950398
  0
VERTEX
  8
51
 62
7
  6
CONTINUOUS
 10
-1811.77963102584
 20
523.223508646677
  0
VERTEX
  8
51
 62
7
  6
CONTINUOUS
 10
-1799.6780855138
 20
526.896677569427
  0
VERTEX
  8
51
 62
7
  6
CONTINUOUS
 10
-1792.84206169531
 20
531.133146180779
  0
VERTEX
  8
51
 62
7
  6
CONTINUOUS
 10
-1784.30980968349
 20
540.008106921704
  0
VERTEX
  8
51
 62
7
  6
CONTINUOUS
 10
-1779.72770658411
 20
547.619781349018
  0
VERTEX
  8
51
 62
7
  6
CONTINUOUS
 10
-1809.82166078118
 20
733.852997678365
  0
VERTEX
  8
51
 62
7
  6
CONTINUOUS
 10
-1816.36117093373
 20
766.818517747702
  0
VERTEX
  8
51
 62
7
  6
CONTINUOUS
 10
-1831.7119191556
 20
827.141834329521
  0
VERTEX
  8
51
 62
7
  6
CONTINUOUS
 10
-1841.21309124102
 20
858.383326395059
  0
VERTEX
  8
51
 62
7
  6
CONTINUOUS
 10
-1852.53735511023
 20
887.960654271721
  0
VERTEX
  8
51
 62
7
  6
CONTINUOUS
 10
-1865.93162129266
 20
914.894529678464
  0
VERTEX
  8
51
 62
7
  6
CONTINUOUS
 10
-1877.80214231446
 20
932.887703592284
  0
VERTEX
  8
51
 62
7
  6
CONTINUOUS
 10
-1891.60125607949
 20
948.723741302892
  0
VERTEX
  8
51
 62
7
  6
CONTINUOUS
 10
-1906.96796084168
 20
961.692434317671
  0
VERTEX
  8
51
 62
7
  6
CONTINUOUS
 10
-1917.987807553
 20
968.353631543748
  0
VERTEX
  8
51
 62
7
  6
CONTINUOUS
 10
-1929.47845801787
 20
973.981080809766
  0
VERTEX
  8
51
 62
7
  6
CONTINUOUS
 10
-1953.69245882193
 20
981.965372629245
  0
VERTEX
  8
51
 62
7
  6
CONTINUOUS
 10
-1986.16366325416
 20
988.682169931839
  0
VERTEX
  8
51
 62
7
  6
CONTINUOUS
 10
-2005.53166932067
 20
990.248288579148
  0
VERTEX
  8
51
 62
7
  6
CONTINUOUS
 10
-2018.42266466543
 20
989.861387914292
  0
VERTEX
  8
51
 62
7
  6
CONTINUOUS
 10
-2030.8509519271
 20
988.116642431479
  0
VERTEX
  8
51
 62
7
  6
CONTINUOUS
 10
-2042.88310381667
 20
985.03583937522
  0
VERTEX
  8
51
 62
7
  6
CONTINUOUS
 10
-2059.83899454411
 20
979.337484202188
  0
VERTEX
  8
51
 62
7
  6
CONTINUOUS
 10
-2075.23497145481
 20
972.981221390811
  0
VERTEX
  8
51
 62
7
  6
CONTINUOUS
 10
-2089.07162392414
 20
965.840621742326
  0
VERTEX
  8
51
 62
7
  6
CONTINUOUS
 10
-2097.08158109751
 20
960.243729896664
  0
VERTEX
  8
51
 62
7
  6
CONTINUOUS
 10
-2104.32400299523
 20
953.672869526309
  0
VERTEX
  8
51
 62
7
  6
CONTINUOUS
 10
-2110.55443550484
 20
946.3038425739
  0
VERTEX
  8
51
 62
7
  6
CONTINUOUS
 10
-2115.998107226
 20
938.015423265892
  0
VERTEX
  8
51
 62
7
  6
CONTINUOUS
 10
-2122.29453211491
 20
924.563264275254
  0
VERTEX
  8
51
 62
7
  6
CONTINUOUS
 10
-2125.31920377988
 20
914.670694060306
  0
VERTEX
  8
51
 62
7
  6
CONTINUOUS
 10
-2128.03747045812
 20
898.576677351755
  0
SEQEND
  0
POLYLINE
  8
51
 62
7
 66
1
 70
1
  0
VERTEX
  8
51
 62
7
  6
CONTINUOUS
 10
-1749.52953249312
 20
1616.44462127936
  0
VERTEX
  8
51
 62
7
  6
CONTINUOUS
 10
-1748.54838111428
 20
1585.08635444862
  0
VERTEX
  8
51
 62
7
  6
CONTINUOUS
 10
-1744.24134510629
 20
1555.01550403365
  0
VERTEX
  8
51
 62
7
  6
CONTINUOUS
 10
-1736.97403165145
 20
1524.99218013304
  0
VERTEX
  8
51
 62
7
  6
CONTINUOUS
 10
-1732.17642007372
 20
1510.26971516333
  0
VERTEX
  8
51
 62
7
  6
CONTINUOUS
 10
-1723.87000659967
 20
1489.34980430924
  0
VERTEX
  8
51
 62
7
  6
CONTINUOUS
 10
-1723.81412166512
 20
1489.22840311631
  0
VERTEX
  8
51
 62
7
  6
CONTINUOUS
 10
-1693.54725519369
 20
1423.47841654829
  0
VERTEX
  8
51
 62
7
  6
CONTINUOUS
 10
-1693.50472985509
 20
1423.38603696733
  0
VERTEX
  8
51
 62
7
  6
CONTINUOUS
 10
-1693.45848333025
 20
1423.29546296254
  0
VERTEX
  8
51
 62
7
  6
CONTINUOUS
 10
-1677.1534598298
 20
1391.36200889815
  0
VERTEX
  8
51
 62
7
  6
CONTINUOUS
 10
-1654.9787563982
 20
1353.69320309064
  0
VERTEX
  8
51
 62
7
  6
CONTINUOUS
 10
-1654.92595974804
 20
1353.61103452057
  0
VERTEX
  8
51
 62
7
  6
CONTINUOUS
 10
-1625.13359342165
 20
1307.24452958546
  0
VERTEX
  8
51
 62
7
  6
CONTINUOUS
 10
-1625.08879947793
 20
1307.17943483214
  0
VERTEX
  8
51
 62
7
  6
CONTINUOUS
 10
-1578.50784455017
 20
1239.48778906905
  0
VERTEX
  8
51
 62
7
  6
CONTINUOUS
 10
-1578.47791468521
 20
1239.44429485946
  0
VERTEX
  8
51
 62
7
  6
CONTINUOUS
 10
-1542.02502408144
 20
1188.79531851515
  0
VERTEX
  8
51
 62
7
  6
CONTINUOUS
 10
-1541.96446942112
 20
1188.71118166051
  0
VERTEX
  8
51
 62
7
  6
CONTINUOUS
 10
-1541.90047956569
 20
1188.62962692063
  0
VERTEX
  8
51
 62
7
  6
CONTINUOUS
 10
-1511.25489214096
 20
1149.57198420626
  0
VERTEX
  8
51
 62
7
  6
CONTINUOUS
 10
-1496.80848784376
 20
1133.13291068653
  0
VERTEX
  8
51
 62
7
  6
CONTINUOUS
 10
-1496.69873380741
 20
1133.02266738214
  0
VERTEX
  8
51
 62
7
  6
CONTINUOUS
 10
-1473.03500678149
 20
1109.25345079294
  0
VERTEX
  8
51
 62
7
  6
CONTINUOUS
 10
-1455.47889840734
 20
1094.10327285525
  0
VERTEX
  8
51
 62
7
  6
CONTINUOUS
 10
-1448.94564338993
 20
1101.67404420812
  0
VERTEX
  8
51
 62
7
  6
CONTINUOUS
 10
-1466.21523771759
 20
1116.57697265899
  0
VERTEX
  8
51
 62
7
  6
CONTINUOUS
 10
-1489.50220362444
 20
1139.96774858111
  0
VERTEX
  8
51
 62
7
  6
CONTINUOUS
 10
-1503.5594265883
 20
1155.96395892053
  0
VERTEX
  8
51
 62
7
  6
CONTINUOUS
 10
-1533.96914335197
 20
1194.72098569698
  0
VERTEX
  8
51
 62
7
  6
CONTINUOUS
 10
-1570.29979602017
 20
1245.20012019324
  0
VERTEX
  8
51
 62
7
  6
CONTINUOUS
 10
-1616.80602713926
 20
1312.78317699341
  0
VERTEX
  8
51
 62
7
  6
CONTINUOUS
 10
-1646.46016755828
 20
1358.93455795529
  0
VERTEX
  8
51
 62
7
  6
CONTINUOUS
 10
-1668.38363022549
 20
1396.17657385808
  0
VERTEX
  8
51
 62
7
  6
CONTINUOUS
 10
-1684.50602362888
 20
1427.75234614327
  0
VERTEX
  8
51
 62
7
  6
CONTINUOUS
 10
-1714.67447982716
 20
1493.28855193739
  0
VERTEX
  8
51
 62
7
  6
CONTINUOUS
 10
-1722.76606477721
 20
1513.66741176082
  0
VERTEX
  8
51
 62
7
  6
CONTINUOUS
 10
-1727.34595681965
 20
1527.72175923508
  0
VERTEX
  8
51
 62
7
  6
CONTINUOUS
 10
-1734.40992481056
 20
1556.90500560703
  0
VERTEX
  8
51
 62
7
  6
CONTINUOUS
 10
-1738.57064425292
 20
1585.95430348561
  0
VERTEX
  8
51
 62
7
  6
CONTINUOUS
 10
-1739.517490035
 20
1616.21614006101
  0
VERTEX
  8
51
 62
7
  6
CONTINUOUS
 10
-1737.81169925946
 20
1638.35098030387
  0
VERTEX
  8
51
 62
7
  6
CONTINUOUS
 10
-1735.67420722356
 20
1652.86940310417
  0
VERTEX
  8
51
 62
7
  6
CONTINUOUS
 10
-1732.5238726096
 20
1666.93800660723
  0
VERTEX
  8
51
 62
7
  6
CONTINUOUS
 10
-1723.52726329223
 20
1696.04664691348
  0
VERTEX
  8
51
 62
7
  6
CONTINUOUS
 10
-1710.60520340862
 20
1727.81210562604
  0
VERTEX
  8
51
 62
7
  6
CONTINUOUS
 10
-1698.65241652405
 20
1751.97820133044
  0
VERTEX
  8
51
 62
7
  6
CONTINUOUS
 10
-1684.80509097841
 20
1775.2216332838
  0
VERTEX
  8
51
 62
7
  6
CONTINUOUS
 10
-1663.38790446348
 20
1804.90094145722
  0
VERTEX
  8
51
 62
7
  6
CONTINUOUS
 10
-1645.02747436997
 20
1827.62572985402
  0
VERTEX
  8
51
 62
7
  6
CONTINUOUS
 10
-1618.1695431261
 20
1857.05186900027
  0
VERTEX
  8
51
 62
7
  6
CONTINUOUS
 10
-1589.18652796596
 20
1885.30184414011
  0
VERTEX
  8
51
 62
7
  6
CONTINUOUS
 10
-1543.78058304245
 20
1923.77423846822
  0
VERTEX
  8
51
 62
7
  6
CONTINUOUS
 10
-1513.36598782585
 20
1947.0888698312
  0
VERTEX
  8
51
 62
7
  6
CONTINUOUS
 10
-1467.69302388698
 20
1979.16097658238
  0
VERTEX
  8
51
 62
7
  6
CONTINUOUS
 10
-1423.59300094226
 20
2007.33471638847
  0
VERTEX
  8
51
 62
7
  6
CONTINUOUS
 10
-1389.1496714063
 20
2027.04942407067
  0
VERTEX
  8
51
 62
7
  6
CONTINUOUS
 10
-1365.01706667466
 20
2038.66199188804
  0
VERTEX
  8
51
 62
7
  6
CONTINUOUS
 10
-1336.17564836387
 20
2048.52150380937
  0
VERTEX
  8
51
 62
7
  6
CONTINUOUS
 10
-1339.41038420838
 20
2057.98387581729
  0
VERTEX
  8
51
 62
7
  6
CONTINUOUS
 10
-1368.81593134779
 20
2047.93151502663
  0
VERTEX
  8
51
 62
7
  6
CONTINUOUS
 10
-1393.80745218037
 20
2035.90563826138
  0
VERTEX
  8
51
 62
7
  6
CONTINUOUS
 10
-1428.66617669876
 20
2015.95316638036
  0
VERTEX
  8
51
 62
7
  6
CONTINUOUS
 10
-1428.77173300246
 20
2015.89274795685
  0
VERTEX
  8
51
 62
7
  6
CONTINUOUS
 10
-1428.87422685848
 20
2015.82726873397
  0
VERTEX
  8
51
 62
7
  6
CONTINUOUS
 10
-1473.26092566509
 20
1987.4703831923
  0
VERTEX
  8
51
 62
7
  6
CONTINUOUS
 10
-1519.19830210402
 20
1955.21260279095
  0
VERTEX
  8
51
 62
7
  6
CONTINUOUS
 10
-1519.28384945579
 20
1955.1525304076
  0
VERTEX
  8
51
 62
7
  6
CONTINUOUS
 10
-1550.05848455831
 20
1931.56190664175
  0
VERTEX
  8
51
 62
7
  6
CONTINUOUS
 10
-1595.7839749777
 20
1892.81876185698
  0
VERTEX
  8
51
 62
7
  6
CONTINUOUS
 10
-1595.9169111444
 20
1892.70612522681
  0
VERTEX
  8
51
 62
7
  6
CONTINUOUS
 10
-1625.254062305
 20
1864.11097091379
  0
VERTEX
  8
51
 62
7
  6
CONTINUOUS
 10
-1625.35865238091
 20
1864.00902613586
  0
VERTEX
  8
51
 62
7
  6
CONTINUOUS
 10
-1625.45711341469
 20
1863.90115006551
  0
VERTEX
  8
51
 62
7
  6
CONTINUOUS
 10
-1652.61659235798
 20
1834.14462863919
  0
VERTEX
  8
51
 62
7
  6
CONTINUOUS
 10
-1671.33757726909
 20
1810.9735798937
  0
VERTEX
  8
51
 62
7
  6
CONTINUOUS
 10
-1693.17125164655
 20
1780.71711507023
  0
VERTEX
  8
51
 62
7
  6
CONTINUOUS
 10
-1707.44301879103
 20
1756.76123655899
  0
VERTEX
  8
51
 62
7
  6
CONTINUOUS
 10
-1719.73055488755
 20
1731.91834626508
  0
VERTEX
  8
51
 62
7
  6
CONTINUOUS
 10
-1732.95341483689
 20
1699.41345033008
  0
VERTEX
  8
51
 62
7
  6
CONTINUOUS
 10
-1742.19534159911
 20
1669.51108240814
  0
VERTEX
  8
51
 62
7
  6
CONTINUOUS
 10
-1745.51355781902
 20
1654.69276179908
  0
VERTEX
  8
51
 62
7
  6
CONTINUOUS
 10
-1747.75551626691
 20
1639.46477493397
  0
SEQEND
  0
POLYLINE
  8
52
 62
7
 66
1
 70
1
  0
VERTEX
  8
52
 62
7
  6
CONTINUOUS
 10
-1764.82784580236
 20
2442.86358941518
  0
VERTEX
  8
52
 62
7
  6
CONTINUOUS
 10
-1763.03179605861
 20
2418.96147599152
  0
VERTEX
  8
52
 62
7
  6
CONTINUOUS
 10
-1762.23919364609
 20
2416.00006490709
  0
VERTEX
  8
52
 62
7
  6
CONTINUOUS
 10
-1759.8218384092
 20
2413.51420085194
  0
SEQEND
  0
POLYLINE
  8
52
 62
7
 66
1
 70
1
  0
VERTEX
  8
52
 62
7
  6
CONTINUOUS
 10
-1820.25381702184
 20
2043.91197244356
  0
VERTEX
  8
52
 62
7
  6
CONTINUOUS
 10
-1818.55386428192
 20
2042.20893321424
  0
VERTEX
  8
52
 62
7
  6
CONTINUOUS
 10
-1813.73693632462
 20
2041.12000951014
  0
VERTEX
  8
52
 62
7
  6
CONTINUOUS
 10
-1814.26903518344
 20
2045.03760234191
  0
VERTEX
  8
52
 62
7
  6
CONTINUOUS
 10
-1819.1457167877
 20
2045.97274152293
  0
SEQEND
  0
POLYLINE
  8
52
 62
7
 66
1
 70
1
  0
VERTEX
  8
52
 62
7
  6
CONTINUOUS
 10
-1264.73636781227
 20
1554.84678175641
  0
VERTEX
  8
52
 62
7
  6
CONTINUOUS
 10
-1242.55532359018
 20
1554.59261815847
  0
VERTEX
  8
52
 62
7
  6
CONTINUOUS
 10
-1227.34812572462
 20
1556.80720049376
  0
VERTEX
  8
52
 62
7
  6
CONTINUOUS
 10
-1220.52283628371
 20
1558.63223155711
  0
VERTEX
  8
52
 62
7
  6
CONTINUOUS
 10
-1206.13515041048
 20
1558.41635175206
  0
VERTEX
  8
52
 62
7
  6
CONTINUOUS
 10
-1218.24319267718
 20
1562.21678659764
  0
VERTEX
  8
52
 62
7
  6
CONTINUOUS
 10
-1253.35278243062
 20
1558.86918832107
  0
VERTEX
  8
52
 62
7
  6
CONTINUOUS
 10
-1260.8814323933
 20
1556.76288000074
  0
SEQEND
  0
POLYLINE
  8
52
 62
7
 66
1
 70
1
  0
VERTEX
  8
52
 62
7
  6
CONTINUOUS
 10
-1087.0960946075
 20
1849.66281354963
  0
VERTEX
  8
52
 62
7
  6
CONTINUOUS
 10
-1078.06346554912
 20
1866.58556523769
  0
VERTEX
  8
52
 62
7
  6
CONTINUOUS
 10
-1070.38121752787
 20
1883.16426659143
  0
VERTEX
  8
52
 62
7
  6
CONTINUOUS
 10
-1063.38673385932
 20
1904.56227765789
  0
VERTEX
  8
52
 62
7
  6
CONTINUOUS
 10
-1059.9411401738
 20
1920.9584104021
  0
SEQEND
  0
POLYLINE
  8
52
 62
7
 66
1
 70
1
  0
VERTEX
  8
52
 62
7
  6
CONTINUOUS
 10
-2079.07117329233
 20
903.77758358035
  0
VERTEX
  8
52
 62
7
  6
CONTINUOUS
 10
-2078.33208643732
 20
884.911014659027
  0
VERTEX
  8
52
 62
7
  6
CONTINUOUS
 10
-2074.50108127671
 20
859.257358539181
  0
VERTEX
  8
52
 62
7
  6
CONTINUOUS
 10
-2069.15739427577
 20
839.546723134367
  0
VERTEX
  8
52
 62
7
  6
CONTINUOUS
 10
-2058.27775978605
 20
810.249434151657
  0
VERTEX
  8
52
 62
7
  6
CONTINUOUS
 10
-2048.19727950837
 20
789.53930270243
  0
VERTEX
  8
52
 62
7
  6
CONTINUOUS
 10
-2028.449320143
 20
756.396098387236
  0
VERTEX
  8
52
 62
7
  6
CONTINUOUS
 10
-2011.271675303
 20
732.376064957596
  0
VERTEX
  8
52
 62
7
  6
CONTINUOUS
 10
-1980.90943677505
 20
696.135671872172
  0
VERTEX
  8
52
 62
7
  6
CONTINUOUS
 10
-1968.15846426072
 20
682.294791710994
  0
VERTEX
  8
52
 62
7
  6
CONTINUOUS
 10
-1956.16408806391
 20
670.853526764019
  0
VERTEX
  8
52
 62
7
  6
CONTINUOUS
 10
-1942.98259118666
 20
661.225655107981
  0
VERTEX
  8
52
 62
7
  6
CONTINUOUS
 10
-1937.67551597009
 20
659.096655543276
  0
VERTEX
  8
52
 62
7
  6
CONTINUOUS
 10
-1932.50993360489
 20
658.53968054021
  0
VERTEX
  8
52
 62
7
  6
CONTINUOUS
 10
-1927.51404741719
 20
659.032825326433
  0
VERTEX
  8
52
 62
7
  6
CONTINUOUS
 10
-1922.78148472185
 20
660.653569523373
  0
VERTEX
  8
52
 62
7
  6
CONTINUOUS
 10
-1916.47749623977
 20
665.301302678345
  0
VERTEX
  8
52
 62
7
  6
CONTINUOUS
 10
-1912.91806774764
 20
669.804970183135
  0
VERTEX
  8
52
 62
7
  6
CONTINUOUS
 10
-1943.79627594911
 20
819.523796701563
  0
VERTEX
  8
52
 62
7
  6
CONTINUOUS
 10
-1953.5408682375
 20
846.755118699603
  0
VERTEX
  8
52
 62
7
  6
CONTINUOUS
 10
-1971.4530086365
 20
888.574315838365
  0
VERTEX
  8
52
 62
7
  6
CONTINUOUS
 10
-1984.727608196
 20
912.078186414922
  0
VERTEX
  8
52
 62
7
  6
CONTINUOUS
 10
-1996.63951959345
 20
927.929891180368
  0
VERTEX
  8
52
 62
7
  6
CONTINUOUS
 10
-2002.89556055023
 20
934.612241328141
  0
VERTEX
  8
52
 62
7
  6
CONTINUOUS
 10
-2012.37187859029
 20
942.93628285699
  0
VERTEX
  8
52
 62
7
  6
CONTINUOUS
 10
-2025.44185607214
 20
951.678129048431
  0
VERTEX
  8
52
 62
7
  6
CONTINUOUS
 10
-2035.21592207857
 20
956.588417515727
  0
VERTEX
  8
52
 62
7
  6
CONTINUOUS
 10
-2044.70134851336
 20
959.273198266789
  0
VERTEX
  8
52
 62
7
  6
CONTINUOUS
 10
-2050.69124540584
 20
959.784390724487
  0
VERTEX
  8
52
 62
7
  6
CONTINUOUS
 10
-2056.33102510312
 20
958.770426231163
  0
VERTEX
  8
52
 62
7
  6
CONTINUOUS
 10
-2063.78165834242
 20
954.339792744955
  0
VERTEX
  8
52
 62
7
  6
CONTINUOUS
 10
-2068.0822044846
 20
949.424157976769
  0
VERTEX
  8
52
 62
7
  6
CONTINUOUS
 10
-2071.73109757595
 20
943.196568030893
  0
VERTEX
  8
52
 62
7
  6
CONTINUOUS
 10
-2074.71954497915
 20
935.425536544132
  0
VERTEX
  8
52
 62
7
  6
CONTINUOUS
 10
-2076.97466534014
 20
926.173437073623
  0
VERTEX
  8
52
 62
7
  6
CONTINUOUS
 10
-2078.5006848336
 20
915.477500057673
  0
SEQEND
  0
POLYLINE
  8
52
 62
7
 66
1
 70
1
  0
VERTEX
  8
52
 62
7
  6
CONTINUOUS
 10
-1935.85364281465
 20
2330.06372697872
  0
VERTEX
  8
52
 62
7
  6
CONTINUOUS
 10
-1934.75276430855
 20
2311.49123146856
  0
VERTEX
  8
52
 62
7
  6
CONTINUOUS
 10
-1932.63885640931
 20
2299.2575839977
  0
VERTEX
  8
52
 62
7
  6
CONTINUOUS
 10
-1929.17297578412
 20
2287.13651239316
  0
VERTEX
  8
52
 62
7
  6
CONTINUOUS
 10
-1921.69812075663
 20
2270.81143662866
  0
VERTEX
  8
52
 62
7
  6
CONTINUOUS
 10
-1915.93584100208
 20
2262.00822617568
  0
VERTEX
  8
52
 62
7
  6
CONTINUOUS
 10
-1906.62643532228
 20
2252.61662527077
  0
VERTEX
  8
52
 62
7
  6
CONTINUOUS
 10
-1896.9385694119
 20
2247.6268404006
  0
VERTEX
  8
52
 62
7
  6
CONTINUOUS
 10
-1890.52686100285
 20
2246.67117624455
  0
VERTEX
  8
52
 62
7
  6
CONTINUOUS
 10
-1883.97745856953
 20
2247.23084471817
  0
VERTEX
  8
52
 62
7
  6
CONTINUOUS
 10
-1874.32004035019
 20
2250.98215107562
  0
VERTEX
  8
52
 62
7
  6
CONTINUOUS
 10
-1867.86787108013
 20
2255.89940558899
  0
VERTEX
  8
52
 62
7
  6
CONTINUOUS
 10
-1862.90438687351
 20
2261.31664382457
  0
VERTEX
  8
52
 62
7
  6
CONTINUOUS
 10
-1855.2694454243
 20
2272.82288510884
  0
VERTEX
  8
52
 62
7
  6
CONTINUOUS
 10
-1834.72396805206
 20
2309.89709152377
  0
VERTEX
  8
52
 62
7
  6
CONTINUOUS
 10
-1819.65418767275
 20
2332.6741124375
  0
VERTEX
  8
52
 62
7
  6
CONTINUOUS
 10
-1791.31129660354
 20
2366.3530348595
  0
VERTEX
  8
52
 62
7
  6
CONTINUOUS
 10
-1739.34157560893
 20
2422.86045047845
  0
VERTEX
  8
52
 62
7
  6
CONTINUOUS
 10
-1726.97713465086
 20
2439.17064926046
  0
VERTEX
  8
52
 62
7
  6
CONTINUOUS
 10
-1717.04854592411
 20
2455.77322379692
  0
VERTEX
  8
52
 62
7
  6
CONTINUOUS
 10
-1708.4649303236
 20
2475.73443936361
  0
VERTEX
  8
52
 62
7
  6
CONTINUOUS
 10
-1705.56486544293
 20
2486.27374722671
  0
VERTEX
  8
52
 62
7
  6
CONTINUOUS
 10
-1704.72514364377
 20
2495.52563136556
  0
VERTEX
  8
52
 62
7
  6
CONTINUOUS
 10
-1706.59007256354
 20
2498.8522662364
  0
VERTEX
  8
52
 62
7
  6
CONTINUOUS
 10
-1707.91215299296
 20
2505.15366410659
  0
VERTEX
  8
52
 62
7
  6
CONTINUOUS
 10
-1709.88354246339
 20
2509.32865883239
  0
VERTEX
  8
52
 62
7
  6
CONTINUOUS
 10
-1714.40387697394
 20
2514.45245575457
  0
VERTEX
  8
52
 62
7
  6
CONTINUOUS
 10
-1718.22513853161
 20
2516.77878149645
  0
VERTEX
  8
52
 62
7
  6
CONTINUOUS
 10
-1722.66103990235
 20
2518.14449992141
  0
VERTEX
  8
52
 62
7
  6
CONTINUOUS
 10
-1727.75878990425
 20
2518.74062951528
  0
VERTEX
  8
52
 62
7
  6
CONTINUOUS
 10
-1735.99861568867
 20
2518.23530357888
  0
VERTEX
  8
52
 62
7
  6
CONTINUOUS
 10
-1889.83236284382
 20
2470.06076513226
  0
VERTEX
  8
52
 62
7
  6
CONTINUOUS
 10
-1906.22865290605
 20
2439.25104351107
  0
VERTEX
  8
52
 62
7
  6
CONTINUOUS
 10
-1921.94937609804
 20
2400.56205989568
  0
VERTEX
  8
52
 62
7
  6
CONTINUOUS
 10
-1928.84065888198
 20
2377.91006134343
  0
VERTEX
  8
52
 62
7
  6
CONTINUOUS
 10
-1932.93676127323
 20
2360.04830394142
  0
VERTEX
  8
52
 62
7
  6
CONTINUOUS
 10
-1935.42122328005
 20
2342.22242694035
  0
SEQEND
  0
POLYLINE
  8
52
 62
7
 66
1
 70
1
  0
VERTEX
  8
52
 62
7
  6
CONTINUOUS
 10
-2146.00692159495
 20
1196.08284069399
  0
VERTEX
  8
52
 62
7
  6
CONTINUOUS
 10
-1561.90597034083
 20
1186.55066897196
  0
VERTEX
  8
52
 62
7
  6
CONTINUOUS
 10
-1663.39810765815
 20
1188.36221070525
  0
VERTEX
  8
52
 62
7
  6
CONTINUOUS
 10
-1770.24737829224
 20
1193.08793343177
  0
VERTEX
  8
52
 62
7
  6
CONTINUOUS
 10
-1964.30143728163
 20
1197.25773777953
  0
VERTEX
  8
52
 62
7
  6
CONTINUOUS
 10
-2024.74064947546
 20
1196.06253055872
  0
VERTEX
  8
52
 62
7
  6
CONTINUOUS
 10
-2130.30293839982
 20
1196.41851854339
  0
SEQEND
  0
POLYLINE
  8
52
 62
7
 66
1
 70
1
  0
VERTEX
  8
52
 62
7
  6
CONTINUOUS
 10
-1959.1979576519
 20
652.757031903055
  0
VERTEX
  8
52
 62
7
  6
CONTINUOUS
 10
-1958.53580179703
 20
639.249848852694
  0
VERTEX
  8
52
 62
7
  6
CONTINUOUS
 10
-1953.93894568908
 20
610.297671680642
  0
VERTEX
  8
52
 62
7
  6
CONTINUOUS
 10
-1948.97794414004
 20
589.16521136657
  0
VERTEX
  8
52
 62
7
  6
CONTINUOUS
 10
-1942.83433928262
 20
569.137730226333
  0
VERTEX
  8
52
 62
7
  6
CONTINUOUS
 10
-1937.8398565515
 20
556.535995560151
  0
VERTEX
  8
52
 62
7
  6
CONTINUOUS
 10
-1931.89535754012
 20
544.532641930734
  0
VERTEX
  8
52
 62
7
  6
CONTINUOUS
 10
-1920.34390030294
 20
527.108359801187
  0
VERTEX
  8
52
 62
7
  6
CONTINUOUS
 10
-1912.09058665627
 20
517.275549795159
  0
VERTEX
  8
52
 62
7
  6
CONTINUOUS
 10
-1903.4833525017
 20
509.070685191828
  0
VERTEX
  8
52
 62
7
  6
CONTINUOUS
 10
-1895.12354432254
 20
502.82434901539
  0
VERTEX
  8
52
 62
7
  6
CONTINUOUS
 10
-1887.23194628657
 20
498.501120342119
  0
VERTEX
  8
52
 62
7
  6
CONTINUOUS
 10
-1880.87288630982
 20
496.349219876499
  0
VERTEX
  8
52
 62
7
  6
CONTINUOUS
 10
-1872.27732604772
 20
496.741000597189
  0
VERTEX
  8
52
 62
7
  6
CONTINUOUS
 10
-1867.56713173508
 20
499.336180873941
  0
VERTEX
  8
52
 62
7
  6
CONTINUOUS
 10
-1844.35274977607
 20
667.044053069688
  0
VERTEX
  8
52
 62
7
  6
CONTINUOUS
 10
-1852.40566253944
 20
687.797811135216
  0
VERTEX
  8
52
 62
7
  6
CONTINUOUS
 10
-1862.0245186812
 20
706.100627057793
  0
VERTEX
  8
52
 62
7
  6
CONTINUOUS
 10
-1869.99184171041
 20
718.499563421899
  0
VERTEX
  8
52
 62
7
  6
CONTINUOUS
 10
-1878.39099781616
 20
728.697849487445
  0
VERTEX
  8
52
 62
7
  6
CONTINUOUS
 10
-1884.22401484565
 20
733.73458102905
  0
VERTEX
  8
52
 62
7
  6
CONTINUOUS
 10
-1890.1643452079
 20
736.861596765352
  0
VERTEX
  8
52
 62
7
  6
CONTINUOUS
 10
-1896.16194707983
 20
738.102175090581
  0
VERTEX
  8
52
 62
7
  6
CONTINUOUS
 10
-1908.74819612249
 20
736.692998381824
  0
VERTEX
  8
52
 62
7
  6
CONTINUOUS
 10
-1918.37459098711
 20
733.139591791158
  0
VERTEX
  8
52
 62
7
  6
CONTINUOUS
 10
-1927.5646179813
 20
727.536935217481
  0
VERTEX
  8
52
 62
7
  6
CONTINUOUS
 10
-1936.27369550053
 20
719.85020183024
  0
VERTEX
  8
52
 62
7
  6
CONTINUOUS
 10
-1944.23123343445
 20
709.449714966278
  0
VERTEX
  8
52
 62
7
  6
CONTINUOUS
 10
-1950.90832518315
 20
697.188508442345
  0
VERTEX
  8
52
 62
7
  6
CONTINUOUS
 10
-1956.0127953472
 20
682.643686983698
  0
VERTEX
  8
52
 62
7
  6
CONTINUOUS
 10
-1958.07117632072
 20
671.378748327609
  0
SEQEND
  0
POLYLINE
  8
52
 62
7
 66
1
 70
1
  0
VERTEX
  8
52
 62
7
  6
CONTINUOUS
 10
-2332.4304158454
 20
2102.74071969916
  0
VERTEX
  8
52
 62
7
  6
CONTINUOUS
 10
-2262.83048868218
 20
2096.70044522539
  0
VERTEX
  8
52
 62
7
  6
CONTINUOUS
 10
-2182.4172504358
 20
2093.02523150914
  0
VERTEX
  8
52
 62
7
  6
CONTINUOUS
 10
-2154.07440058481
 20
2090.47520708893
  0
VERTEX
  8
52
 62
7
  6
CONTINUOUS
 10
-2125.23477807109
 20
2089.93194231267
  0
VERTEX
  8
52
 62
7
  6
CONTINUOUS
 10
-2099.87566914554
 20
2090.87619100185
  0
SEQEND
  0
POLYLINE
  8
52
 62
7
 66
1
 70
1
  0
VERTEX
  8
52
 62
7
  6
CONTINUOUS
 10
-2124.25059894252
 20
2230.46051108418
  0
VERTEX
  8
52
 62
7
  6
CONTINUOUS
 10
-2067.60263242632
 20
2131.92427954186
  0
VERTEX
  8
52
 62
7
  6
CONTINUOUS
 10
-2071.52890751032
 20
2142.05391770788
  0
VERTEX
  8
52
 62
7
  6
CONTINUOUS
 10
-2074.69788038268
 20
2147.94815466867
  0
VERTEX
  8
52
 62
7
  6
CONTINUOUS
 10
-2108.42156989533
 20
2205.72788802551
  0
SEQEND
  0
POLYLINE
  8
52
 62
7
 66
1
 70
1
  0
VERTEX
  8
52
 62
7
  6
CONTINUOUS
 10
-2760.60346943567
 20
2132.86514540961
  0
VERTEX
  8
52
 62
7
  6
CONTINUOUS
 10
-2374.97919579122
 20
2107.12942071544
  0
VERTEX
  8
52
 62
7
  6
CONTINUOUS
 10
-2453.06130428306
 20
2115.41919989765
  0
VERTEX
  8
52
 62
7
  6
CONTINUOUS
 10
-2570.34381200906
 20
2120.87916899425
  0
VERTEX
  8
52
 62
7
  6
CONTINUOUS
 10
-2640.74711237757
 20
2126.20951031872
  0
SEQEND
  0
POLYLINE
  8
52
 62
7
 66
1
 70
1
  0
VERTEX
  8
52
 62
7
  6
CONTINUOUS
 10
-3123.2268176632
 20
2157.06583840401
  0
VERTEX
  8
52
 62
7
  6
CONTINUOUS
 10
-2822.32949941578
 20
2136.98460630095
  0
VERTEX
  8
52
 62
7
  6
CONTINUOUS
 10
-3001.47691182159
 20
2150.72551222432
  0
VERTEX
  8
52
 62
7
  6
CONTINUOUS
 10
-3078.26608067566
 20
2155.6818390063
  0
SEQEND
  0
POLYLINE
  8
52
 62
7
 66
1
 70
1
  0
VERTEX
  8
52
 62
7
  6
CONTINUOUS
 10
-2952.91362578492
 20
2870.89570329232
  0
VERTEX
  8
52
 62
7
  6
CONTINUOUS
 10
-2950.41339618168
 20
2851.12451352279
  0
VERTEX
  8
52
 62
7
  6
CONTINUOUS
 10
-2946.07134533539
 20
2837.13946881601
  0
VERTEX
  8
52
 62
7
  6
CONTINUOUS
 10
-2939.78209730918
 20
2823.41141593108
  0
VERTEX
  8
52
 62
7
  6
CONTINUOUS
 10
-2906.41573376759
 20
2765.85443661639
  0
VERTEX
  8
52
 62
7
  6
CONTINUOUS
 10
-2898.81324198586
 20
2751.05465221028
  0
VERTEX
  8
52
 62
7
  6
CONTINUOUS
 10
-2873.77415952437
 20
2691.88228852794
  0
VERTEX
  8
52
 62
7
  6
CONTINUOUS
 10
-2857.24608532829
 20
2655.90272347732
  0
VERTEX
  8
52
 62
7
  6
CONTINUOUS
 10
-2842.92872778714
 20
2630.96563854728
  0
VERTEX
  8
52
 62
7
  6
CONTINUOUS
 10
-2836.4642894345
 20
2622.33677671976
  0
VERTEX
  8
52
 62
7
  6
CONTINUOUS
 10
-2826.00242666855
 20
2610.53685200969
  0
VERTEX
  8
52
 62
7
  6
CONTINUOUS
 10
-2814.3080396286
 20
2600.43778247785
  0
VERTEX
  8
52
 62
7
  6
CONTINUOUS
 10
-2806.21730479468
 20
2594.98416727258
  0
VERTEX
  8
52
 62
7
  6
CONTINUOUS
 10
-2798.05251689596
 20
2590.69215719887
  0
VERTEX
  8
52
 62
7
  6
CONTINUOUS
 10
-2790.22516620245
 20
2588.02188423416
  0
VERTEX
  8
52
 62
7
  6
CONTINUOUS
 10
-2782.76221947953
 20
2587.24027945424
  0
VERTEX
  8
52
 62
7
  6
CONTINUOUS
 10
-2776.2049673048
 20
2588.25600636752
  0
VERTEX
  8
52
 62
7
  6
CONTINUOUS
 10
-2766.5056664668
 20
2592.15743028952
  0
VERTEX
  8
52
 62
7
  6
CONTINUOUS
 10
-2756.3808090074
 20
2597.92931458756
  0
VERTEX
  8
52
 62
7
  6
CONTINUOUS
 10
-2746.08767235521
 20
2605.21368020945
  0
VERTEX
  8
52
 62
7
  6
CONTINUOUS
 10
-2735.76193027766
 20
2614.18788090554
  0
VERTEX
  8
52
 62
7
  6
CONTINUOUS
 10
-2712.15679430545
 20
2639.09023330248
  0
VERTEX
  8
52
 62
7
  6
CONTINUOUS
 10
-2699.70592791758
 20
2655.06868003486
  0
VERTEX
  8
52
 62
7
  6
CONTINUOUS
 10
-2694.55251396253
 20
2663.84934265157
  0
VERTEX
  8
52
 62
7
  6
CONTINUOUS
 10
-2688.32576199161
 20
2678.10158084615
  0
VERTEX
  8
52
 62
7
  6
CONTINUOUS
 10
-2685.00418195047
 20
2688.10605431471
  0
VERTEX
  8
52
 62
7
  6
CONTINUOUS
 10
-2680.78137386105
 20
2709.47169349644
  0
VERTEX
  8
52
 62
7
  6
CONTINUOUS
 10
-2901.1738764211
 20
2940.33155367589
  0
VERTEX
  8
52
 62
7
  6
CONTINUOUS
 10
-2909.12109231264
 20
2941.30611619009
  0
VERTEX
  8
52
 62
7
  6
CONTINUOUS
 10
-2919.86367662718
 20
2939.01149994329
  0
VERTEX
  8
52
 62
7
  6
CONTINUOUS
 10
-2925.01522260429
 20
2936.64671673913
  0
VERTEX
  8
52
 62
7
  6
CONTINUOUS
 10
-2929.99765231254
 20
2932.8407017827
  0
VERTEX
  8
52
 62
7
  6
CONTINUOUS
 10
-2937.46897054896
 20
2928.651556024
  0
VERTEX
  8
52
 62
7
  6
CONTINUOUS
 10
-2937.56641754013
 20
2925.17348559393
  0
VERTEX
  8
52
 62
7
  6
CONTINUOUS
 10
-2941.9756945919
 20
2917.71992611755
  0
VERTEX
  8
52
 62
7
  6
CONTINUOUS
 10
-2947.52667374674
 20
2905.54697958418
  0
VERTEX
  8
52
 62
7
  6
CONTINUOUS
 10
-2950.30417220374
 20
2896.43632905641
  0
VERTEX
  8
52
 62
7
  6
CONTINUOUS
 10
-2952.06930051234
 20
2886.61230920627
  0
SEQEND
  0
POLYLINE
  8
52
 62
7
 66
1
 70
1
  0
VERTEX
  8
52
 62
7
  6
CONTINUOUS
 10
-2810.49977700378
 20
1401.19786114739
  0
VERTEX
  8
52
 62
7
  6
CONTINUOUS
 10
-2803.24015423622
 20
1394.32051592756
  0
VERTEX
  8
52
 62
7
  6
CONTINUOUS
 10
-2782.22101116548
 20
1416.50800902461
  0
VERTEX
  8
52
 62
7
  6
CONTINUOUS
 10
-2789.48063393304
 20
1423.38535424444
  0
SEQEND
  0
POLYLINE
  8
52
 62
7
 66
1
 70
1
  0
VERTEX
  8
52
 62
7
  6
CONTINUOUS
 10
-2763.81349593998
 20
1440.86612167329
  0
VERTEX
  8
52
 62
7
  6
CONTINUOUS
 10
-2757.55656800313
 20
1433.06542601244
  0
VERTEX
  8
52
 62
7
  6
CONTINUOUS
 10
-2730.56517736076
 20
1454.71518566301
  0
VERTEX
  8
52
 62
7
  6
CONTINUOUS
 10
-2736.8221052976
 20
1462.51588132385
  0
SEQEND
  0
POLYLINE
  8
52
 62
7
 66
1
 70
1
  0
VERTEX
  8
52
 62
7
  6
CONTINUOUS
 10
-3102.40427890363
 20
565.526381289326
  0
VERTEX
  8
52
 62
7
  6
CONTINUOUS
 10
-3101.67690833795
 20
555.832081774512
  0
VERTEX
  8
52
 62
7
  6
CONTINUOUS
 10
-3096.25138550788
 20
541.633414510496
  0
VERTEX
  8
52
 62
7
  6
CONTINUOUS
 10
-3089.25019992505
 20
535.393685483314
  0
VERTEX
  8
52
 62
7
  6
CONTINUOUS
 10
-3077.02781591948
 20
527.058184118714
  0
VERTEX
  8
52
 62
7
  6
CONTINUOUS
 10
-3064.63899732366
 20
521.32211515877
  0
VERTEX
  8
52
 62
7
  6
CONTINUOUS
 10
-2801.24906870118
 20
687.463357904794
  0
VERTEX
  8
52
 62
7
  6
CONTINUOUS
 10
-2805.1548127011
 20
690.890113957714
  0
VERTEX
  8
52
 62
7
  6
CONTINUOUS
 10
-2812.34306633813
 20
694.879002486033
  0
VERTEX
  8
52
 62
7
  6
CONTINUOUS
 10
-2820.40418800714
 20
698.95622105453
  0
VERTEX
  8
52
 62
7
  6
CONTINUOUS
 10
-2830.41965410942
 20
702.519728310001
  0
VERTEX
  8
52
 62
7
  6
CONTINUOUS
 10
-2840.12084505696
 20
704.452611446371
  0
VERTEX
  8
52
 62
7
  6
CONTINUOUS
 10
-2846.85122101091
 20
704.936016285453
  0
VERTEX
  8
52
 62
7
  6
CONTINUOUS
 10
-2853.65140170761
 20
704.672483200303
  0
VERTEX
  8
52
 62
7
  6
CONTINUOUS
 10
-2864.59555093396
 20
702.768095011689
  0
VERTEX
  8
52
 62
7
  6
CONTINUOUS
 10
-2870.90439455955
 20
700.509370268839
  0
VERTEX
  8
52
 62
7
  6
CONTINUOUS
 10
-2883.42235684819
 20
692.687672129648
  0
VERTEX
  8
52
 62
7
  6
CONTINUOUS
 10
-2905.1761619362
 20
683.648219671658
  0
VERTEX
  8
52
 62
7
  6
CONTINUOUS
 10
-2941.43702782834
 20
664.478839564053
  0
VERTEX
  8
52
 62
7
  6
CONTINUOUS
 10
-3040.33266294884
 20
627.091154445731
  0
VERTEX
  8
52
 62
7
  6
CONTINUOUS
 10
-3059.35608533655
 20
617.714759429577
  0
VERTEX
  8
52
 62
7
  6
CONTINUOUS
 10
-3074.93854528687
 20
606.223172058428
  0
VERTEX
  8
52
 62
7
  6
CONTINUOUS
 10
-3090.18315713908
 20
590.710575594069
  0
VERTEX
  8
52
 62
7
  6
CONTINUOUS
 10
-3098.66477526083
 20
578.464422837621
  0
VERTEX
  8
52
 62
7
  6
CONTINUOUS
 10
-3101.2210836829
 20
572.051667169401
  0
SEQEND
  0
POLYLINE
  8
52
 62
7
 66
1
 70
1
  0
VERTEX
  8
52
 62
7
  6
CONTINUOUS
 10
-3410.50695356021
 20
886.068609384322
  0
VERTEX
  8
52
 62
7
  6
CONTINUOUS
 10
-3409.2306545083
 20
877.956788898952
  0
VERTEX
  8
52
 62
7
  6
CONTINUOUS
 10
-3407.43619529292
 20
873.196122591885
  0
VERTEX
  8
52
 62
7
  6
CONTINUOUS
 10
-3404.35820228901
 20
867.31836534886
  0
VERTEX
  8
52
 62
7
  6
CONTINUOUS
 10
-3400.61156693363
 20
863.305804928017
  0
VERTEX
  8
52
 62
7
  6
CONTINUOUS
 10
-3397.62617638174
 20
862.200717849064
  0
VERTEX
  8
52
 62
7
  6
CONTINUOUS
 10
-3390.15637098598
 20
863.387110072417
  0
VERTEX
  8
52
 62
7
  6
CONTINUOUS
 10
-3364.47657701436
 20
906.448788913702
  0
VERTEX
  8
52
 62
7
  6
CONTINUOUS
 10
-3369.32539561311
 20
908.454743093939
  0
VERTEX
  8
52
 62
7
  6
CONTINUOUS
 10
-3382.41014224573
 20
910.409557225368
  0
VERTEX
  8
52
 62
7
  6
CONTINUOUS
 10
-3390.01770968457
 20
910.666970671104
  0
VERTEX
  8
52
 62
7
  6
CONTINUOUS
 10
-3399.02306845477
 20
908.139752446845
  0
VERTEX
  8
52
 62
7
  6
CONTINUOUS
 10
-3403.67918969843
 20
904.546014646211
  0
VERTEX
  8
52
 62
7
  6
CONTINUOUS
 10
-3406.03252491541
 20
901.058214982369
  0
VERTEX
  8
52
 62
7
  6
CONTINUOUS
 10
-3410.16680661679
 20
889.051043475001
  0
SEQEND
  0
POLYLINE
  8
52
 62
7
 66
1
 70
1
  0
VERTEX
  8
52
 62
7
  6
CONTINUOUS
 10
-3057.61131232942
 20
1862.4918819682
  0
VERTEX
  8
52
 62
7
  6
CONTINUOUS
 10
-3057.02407910214
 20
1839.52409940212
  0
VERTEX
  8
52
 62
7
  6
CONTINUOUS
 10
-3054.74718047357
 20
1802.67137499047
  0
VERTEX
  8
52
 62
7
  6
CONTINUOUS
 10
-3053.06733308905
 20
1787.40578958589
  0
VERTEX
  8
52
 62
7
  6
CONTINUOUS
 10
-3049.12877339962
 20
1771.65704783153
  0
VERTEX
  8
52
 62
7
  6
CONTINUOUS
 10
-3043.82678606958
 20
1760.31142868408
  0
VERTEX
  8
52
 62
7
  6
CONTINUOUS
 10
-3037.63601703896
 20
1752.49201410652
  0
VERTEX
  8
52
 62
7
  6
CONTINUOUS
 10
-3031.36667629347
 20
1748.52241882309
  0
VERTEX
  8
52
 62
7
  6
CONTINUOUS
 10
-3026.00957724891
 20
1746.5799981487
  0
VERTEX
  8
52
 62
7
  6
CONTINUOUS
 10
-3022.37545406133
 20
1745.98879509779
  0
VERTEX
  8
52
 62
7
  6
CONTINUOUS
 10
-3017.30693459968
 20
1746.91184643718
  0
VERTEX
  8
52
 62
7
  6
CONTINUOUS
 10
-3013.35689654686
 20
1750.20222053852
  0
VERTEX
  8
52
 62
7
  6
CONTINUOUS
 10
-3011.45435490789
 20
1753.70549485345
  0
VERTEX
  8
52
 62
7
  6
CONTINUOUS
 10
-3009.03469825405
 20
1760.67594394717
  0
VERTEX
  8
52
 62
7
  6
CONTINUOUS
 10
-3008.28962822377
 20
1766.58981504403
  0
VERTEX
  8
52
 62
7
  6
CONTINUOUS
 10
-2996.81767671544
 20
1789.92318445373
  0
VERTEX
  8
52
 62
7
  6
CONTINUOUS
 10
-2997.32396595028
 20
1823.63292965323
  0
VERTEX
  8
52
 62
7
  6
CONTINUOUS
 10
-3002.18448007225
 20
1883.20429815124
  0
VERTEX
  8
52
 62
7
  6
CONTINUOUS
 10
-3003.28688912247
 20
1926.09399975748
  0
VERTEX
  8
52
 62
7
  6
CONTINUOUS
 10
-3005.77163487098
 20
1951.68125430356
  0
VERTEX
  8
52
 62
7
  6
CONTINUOUS
 10
-3008.74053931499
 20
1964.02807443242
  0
VERTEX
  8
52
 62
7
  6
CONTINUOUS
 10
-3011.18522880675
 20
1970.26200226627
  0
VERTEX
  8
52
 62
7
  6
CONTINUOUS
 10
-3016.33366524105
 20
1979.58723959572
  0
VERTEX
  8
52
 62
7
  6
CONTINUOUS
 10
-3020.6548085774
 20
1984.53872732965
  0
VERTEX
  8
52
 62
7
  6
CONTINUOUS
 10
-3024.29793816989
 20
1986.08606296521
  0
VERTEX
  8
52
 62
7
  6
CONTINUOUS
 10
-3026.80612051525
 20
1986.05082637693
  0
VERTEX
  8
52
 62
7
  6
CONTINUOUS
 10
-3030.55362360953
 20
1984.26837066011
  0
VERTEX
  8
52
 62
7
  6
CONTINUOUS
 10
-3033.60305559713
 20
1981.07647764848
  0
VERTEX
  8
52
 62
7
  6
CONTINUOUS
 10
-3036.41736534484
 20
1976.27805109653
  0
VERTEX
  8
52
 62
7
  6
CONTINUOUS
 10
-3039.89879057436
 20
1967.26211532619
  0
VERTEX
  8
52
 62
7
  6
CONTINUOUS
 10
-3047.62433118898
 20
1938.53254482896
  0
VERTEX
  8
52
 62
7
  6
CONTINUOUS
 10
-3054.47705305675
 20
1901.94373725847
  0
VERTEX
  8
52
 62
7
  6
CONTINUOUS
 10
-3056.51508772808
 20
1886.7644477459
  0
SEQEND
  0
POLYLINE
  8
52
 62
7
 66
1
 70
1
  0
VERTEX
  8
52
 62
7
  6
CONTINUOUS
 10
-1635.33892925055
 20
2040.73165234107
  0
VERTEX
  8
52
 62
7
  6
CONTINUOUS
 10
-1595.31135096406
 20
2035.63369828633
  0
VERTEX
  8
52
 62
7
  6
CONTINUOUS
 10
-1498.37161152969
 20
2026.94551682177
  0
VERTEX
  8
52
 62
7
  6
CONTINUOUS
 10
-1422.23628056453
 20
2024.22679000961
  0
VERTEX
  8
52
 62
7
  6
CONTINUOUS
 10
-1363.38943969498
 20
2019.82177792729
  0
VERTEX
  8
52
 62
7
  6
CONTINUOUS
 10
-1312.95196772446
 20
2018.63704226953
  0
VERTEX
  8
52
 62
7
  6
CONTINUOUS
 10
-1240.13109134901
 20
2011.00149518129
  0
VERTEX
  8
52
 62
7
  6
CONTINUOUS
 10
-1179.38517829595
 20
2011.20734496668
  0
VERTEX
  8
52
 62
7
  6
CONTINUOUS
 10
-1150.18100360962
 20
2010.18442436664
  0
SEQEND
  0
POLYLINE
  8
52
 62
7
 66
1
 70
1
  0
VERTEX
  8
52
 62
7
  6
CONTINUOUS
 10
-1195.86728680544
 20
2135.57354144534
  0
VERTEX
  8
52
 62
7
  6
CONTINUOUS
 10
-1195.04349832752
 20
2126.26657898984
  0
VERTEX
  8
52
 62
7
  6
CONTINUOUS
 10
-1191.76277418343
 20
2110.57440031486
  0
VERTEX
  8
52
 62
7
  6
CONTINUOUS
 10
-1186.15948812205
 20
2093.2223916199
  0
VERTEX
  8
52
 62
7
  6
CONTINUOUS
 10
-1175.4460535115
 20
2068.56087860988
  0
VERTEX
  8
52
 62
7
  6
CONTINUOUS
 10
-1165.35751178945
 20
2050.56199097467
  0
VERTEX
  8
52
 62
7
  6
CONTINUOUS
 10
-1153.95590684076
 20
2033.3007250403
  0
VERTEX
  8
52
 62
7
  6
CONTINUOUS
 10
-1145.53403088657
 20
2021.9331514616
  0
VERTEX
  8
52
 62
7
  6
CONTINUOUS
 10
-1132.94329148009
 20
2007.24814710964
  0
VERTEX
  8
52
 62
7
  6
CONTINUOUS
 10
-1124.55904401831
 20
1999.31442211582
  0
VERTEX
  8
52
 62
7
  6
CONTINUOUS
 10
-1115.92050391342
 20
1992.67965141548
  0
VERTEX
  8
52
 62
7
  6
CONTINUOUS
 10
-1104.64037999117
 20
1986.36917906599
  0
VERTEX
  8
52
 62
7
  6
CONTINUOUS
 10
-1095.69244337574
 20
1983.00530933333
  0
VERTEX
  8
52
 62
7
  6
CONTINUOUS
 10
-1121.77260561987
 20
2074.29502428692
  0
VERTEX
  8
52
 62
7
  6
CONTINUOUS
 10
-1147.15206983804
 20
2121.78603782807
  0
VERTEX
  8
52
 62
7
  6
CONTINUOUS
 10
-1158.9947002725
 20
2142.43628812116
  0
VERTEX
  8
52
 62
7
  6
CONTINUOUS
 10
-1166.66201791895
 20
2153.94823059367
  0
VERTEX
  8
52
 62
7
  6
CONTINUOUS
 10
-1172.95566363935
 20
2160.45926845747
  0
VERTEX
  8
52
 62
7
  6
CONTINUOUS
 10
-1178.78874081794
 20
2163.53219768658
  0
VERTEX
  8
52
 62
7
  6
CONTINUOUS
 10
-1182.48393056567
 20
2163.77079237632
  0
VERTEX
  8
52
 62
7
  6
CONTINUOUS
 10
-1187.72971098863
 20
2161.23802024439
  0
VERTEX
  8
52
 62
7
  6
CONTINUOUS
 10
-1192.09703833854
 20
2155.85539876337
  0
VERTEX
  8
52
 62
7
  6
CONTINUOUS
 10
-1194.95930556204
 20
2147.11854132394
  0
SEQEND
  0
POLYLINE
  8
52
 62
7
 66
1
 70
1
  0
VERTEX
  8
52
 62
7
  6
CONTINUOUS
 10
-3339.33645472118
 20
2935.38926384835
  0
VERTEX
  8
52
 62
7
  6
CONTINUOUS
 10
-3339.14454248115
 20
2921.29326040348
  0
VERTEX
  8
52
 62
7
  6
CONTINUOUS
 10
-3337.5413345261
 20
2913.59143226353
  0
VERTEX
  8
52
 62
7
  6
CONTINUOUS
 10
-3334.51593927304
 20
2909.88123083411
  0
VERTEX
  8
52
 62
7
  6
CONTINUOUS
 10
-3332.62685678432
 20
2910.14281634203
  0
VERTEX
  8
52
 62
7
  6
CONTINUOUS
 10
-3330.38666962308
 20
2911.78756503508
  0
VERTEX
  8
52
 62
7
  6
CONTINUOUS
 10
-3327.22310394175
 20
2916.6543869626
  0
VERTEX
  8
52
 62
7
  6
CONTINUOUS
 10
-3325.04674320957
 20
2921.79560148475
  0
VERTEX
  8
52
 62
7
  6
CONTINUOUS
 10
-3307.04645095801
 20
2982.72441668517
  0
VERTEX
  8
52
 62
7
  6
CONTINUOUS
 10
-3297.28322081084
 20
3010.2981201422
  0
VERTEX
  8
52
 62
7
  6
CONTINUOUS
 10
-3296.19479646503
 20
3015.48088074708
  0
VERTEX
  8
52
 62
7
  6
CONTINUOUS
 10
-3292.21547169081
 20
3024.99237780402
  0
VERTEX
  8
52
 62
7
  6
CONTINUOUS
 10
-3322.08966526382
 20
2993.94831756631
  0
VERTEX
  8
52
 62
7
  6
CONTINUOUS
 10
-3332.89270474942
 20
2966.86946950013
  0
VERTEX
  8
52
 62
7
  6
CONTINUOUS
 10
-3338.0378137996
 20
2946.60506143072
  0
SEQEND
  0
POLYLINE
  8
52
 62
7
 66
1
 70
1
  0
VERTEX
  8
52
 62
7
  6
CONTINUOUS
 10
-2036.67003964862
 20
2306.99339150493
  0
VERTEX
  8
52
 62
7
  6
CONTINUOUS
 10
-2025.79765162149
 20
2337.6852918697
  0
VERTEX
  8
52
 62
7
  6
CONTINUOUS
 10
-2018.36195399721
 20
2363.82227921518
  0
SEQEND
  0
POLYLINE
  8
52
 62
7
 66
1
 70
1
  0
VERTEX
  8
52
 62
7
  6
CONTINUOUS
 10
-1377.08129364547
 20
2390.38438513881
  0
VERTEX
  8
52
 62
7
  6
CONTINUOUS
 10
-1352.48326543023
 20
2413.51711978579
  0
VERTEX
  8
52
 62
7
  6
CONTINUOUS
 10
-1362.26164853925
 20
2405.55795360984
  0
SEQEND
  0
POLYLINE
  8
53
 62
7
 66
1
 70
1
  0
VERTEX
  8
53
 62
7
  6
CONTINUOUS
 10
-1720.95986365896
 20
1489.8065685706
  0
VERTEX
  8
53
 62
7
  6
CONTINUOUS
 10
-1719.4836411923
 20
1488.15034995499
  0
VERTEX
  8
53
 62
7
  6
CONTINUOUS
 10
-1716.67987982577
 20
1487.98817742347
  0
VERTEX
  8
53
 62
7
  6
CONTINUOUS
 10
-1692.0011672619
 20
1491.78898951574
  0
VERTEX
  8
53
 62
7
  6
CONTINUOUS
 10
-1645.12479205604
 20
1505.01471512059
  0
VERTEX
  8
53
 62
7
  6
CONTINUOUS
 10
-1612.97335905436
 20
1511.36796002492
  0
VERTEX
  8
53
 62
7
  6
CONTINUOUS
 10
-1541.09035753545
 20
1518.77153902713
  0
VERTEX
  8
53
 62
7
  6
CONTINUOUS
 10
-1518.59646183535
 20
1522.19986881
  0
VERTEX
  8
53
 62
7
  6
CONTINUOUS
 10
-1263.08220999174
 20
1601.03731872569
  0
VERTEX
  8
53
 62
7
  6
CONTINUOUS
 10
-1414.72422648649
 20
1579.0839804726
  0
VERTEX
  8
53
 62
7
  6
CONTINUOUS
 10
-1450.95975924909
 20
1571.8179271757
  0
VERTEX
  8
53
 62
7
  6
CONTINUOUS
 10
-1535.03696136273
 20
1552.52020674541
  0
VERTEX
  8
53
 62
7
  6
CONTINUOUS
 10
-1609.98737721157
 20
1532.86623190287
  0
VERTEX
  8
53
 62
7
  6
CONTINUOUS
 10
-1658.32183382792
 20
1519.0942925801
  0
VERTEX
  8
53
 62
7
  6
CONTINUOUS
 10
-1680.12232843987
 20
1510.79225352818
  0
VERTEX
  8
53
 62
7
  6
CONTINUOUS
 10
-1704.26907498886
 20
1500.12260406026
  0
VERTEX
  8
53
 62
7
  6
CONTINUOUS
 10
-1716.61089879511
 20
1494.2786450016
  0
VERTEX
  8
53
 62
7
  6
CONTINUOUS
 10
-1720.35376658034
 20
1491.4750296799
  0
SEQEND
  0
POLYLINE
  8
53
 62
7
 66
1
 70
1
  0
VERTEX
  8
53
 62
7
  6
CONTINUOUS
 10
-3329.12744628773
 20
3022.39465009338
  0
VERTEX
  8
53
 62
7
  6
CONTINUOUS
 10
-3328.372288504
 20
3018.98717236107
  0
VERTEX
  8
53
 62
7
  6
CONTINUOUS
 10
-3321.44588919122
 20
3012.76534533421
  0
VERTEX
  8
53
 62
7
  6
CONTINUOUS
 10
-3316.32219449702
 20
3010.81628401575
  0
VERTEX
  8
53
 62
7
  6
CONTINUOUS
 10
-3312.6980688412
 20
3011.37154099801
  0
VERTEX
  8
53
 62
7
  6
CONTINUOUS
 10
-3309.27357522475
 20
3014.59918929691
  0
VERTEX
  8
53
 62
7
  6
CONTINUOUS
 10
-3307.11911496829
 20
3018.40940216533
  0
VERTEX
  8
53
 62
7
  6
CONTINUOUS
 10
-3302.84790454503
 20
3038.64811096764
  0
SEQEND
  0
POLYLINE
  8
53
 62
7
 66
1
 70
1
  0
VERTEX
  8
53
 62
7
  6
CONTINUOUS
 10
-1495.66018880063
 20
2475.09284792687
  0
VERTEX
  8
53
 62
7
  6
CONTINUOUS
 10
-1490.31832883719
 20
2474.35309677427
  0
VERTEX
  8
53
 62
7
  6
CONTINUOUS
 10
-1482.59193957389
 20
2474.90400922974
  0
VERTEX
  8
53
 62
7
  6
CONTINUOUS
 10
-1473.65256049525
 20
2477.42241055089
  0
VERTEX
  8
53
 62
7
  6
CONTINUOUS
 10
-1469.36844605426
 20
2479.89415269413
  0
VERTEX
  8
53
 62
7
  6
CONTINUOUS
 10
-1463.18950999919
 20
2485.66590465277
  0
VERTEX
  8
53
 62
7
  6
CONTINUOUS
 10
-1457.69721485942
 20
2493.95701158618
  0
VERTEX
  8
53
 62
7
  6
CONTINUOUS
 10
-1456.09403548408
 20
2497.35121575586
  0
VERTEX
  8
53
 62
7
  6
CONTINUOUS
 10
-1455.40131325529
 20
2505.89572776841
  0
SEQEND
  0
POLYLINE
  8
53
 62
7
 66
1
 70
1
  0
VERTEX
  8
53
 62
7
  6
CONTINUOUS
 10
-1886.11551625709
 20
2446.3439662605
  0
VERTEX
  8
53
 62
7
  6
CONTINUOUS
 10
-1800.86967298551
 20
2431.50238241709
  0
VERTEX
  8
53
 62
7
  6
CONTINUOUS
 10
-1819.30737045728
 20
2435.37595455484
  0
VERTEX
  8
53
 62
7
  6
CONTINUOUS
 10
-1838.0773667886
 20
2441.42854812488
  0
VERTEX
  8
53
 62
7
  6
CONTINUOUS
 10
-1850.08671765201
 20
2443.90605455939
  0
SEQEND
  0
POLYLINE
  8
53
 62
7
 66
1
 70
1
  0
VERTEX
  8
53
 62
7
  6
CONTINUOUS
 10
-1600.43543726357
 20
658.628355348918
  0
VERTEX
  8
53
 62
7
  6
CONTINUOUS
 10
-1599.37494533243
 20
648.325234604809
  0
VERTEX
  8
53
 62
7
  6
CONTINUOUS
 10
-1597.40572555361
 20
641.686194474308
  0
VERTEX
  8
53
 62
7
  6
CONTINUOUS
 10
-1594.50467214318
 20
635.47654577259
  0
VERTEX
  8
53
 62
7
  6
CONTINUOUS
 10
-1592.80548592116
 20
628.139618149987
  0
VERTEX
  8
53
 62
7
  6
CONTINUOUS
 10
-1591.19101651191
 20
625.554888617025
  0
VERTEX
  8
53
 62
7
  6
CONTINUOUS
 10
-1582.39854243461
 20
616.894878604504
  0
VERTEX
  8
53
 62
7
  6
CONTINUOUS
 10
-1576.96742165387
 20
614.162602933483
  0
VERTEX
  8
53
 62
7
  6
CONTINUOUS
 10
-1571.36673779845
 20
612.726048059556
  0
VERTEX
  8
53
 62
7
  6
CONTINUOUS
 10
-1565.72069348257
 20
612.50604124491
  0
VERTEX
  8
53
 62
7
  6
CONTINUOUS
 10
-1560.81615166114
 20
613.392706333532
  0
VERTEX
  8
53
 62
7
  6
CONTINUOUS
 10
-1555.23448080243
 20
615.631669917826
  0
VERTEX
  8
53
 62
7
  6
CONTINUOUS
 10
-1549.57981924494
 20
619.135210715273
  0
VERTEX
  8
53
 62
7
  6
CONTINUOUS
 10
-1544.13817247046
 20
623.822562360635
  0
VERTEX
  8
53
 62
7
  6
CONTINUOUS
 10
-1539.05651240956
 20
629.63892867967
  0
VERTEX
  8
53
 62
7
  6
CONTINUOUS
 10
-1534.73499726243
 20
636.554051777638
  0
VERTEX
  8
53
 62
7
  6
CONTINUOUS
 10
-1531.35478562753
 20
644.528149973732
  0
VERTEX
  8
53
 62
7
  6
CONTINUOUS
 10
-1552.71348213286
 20
739.721805986681
  0
VERTEX
  8
53
 62
7
  6
CONTINUOUS
 10
-1557.59554952258
 20
743.876566050275
  0
VERTEX
  8
53
 62
7
  6
CONTINUOUS
 10
-1563.45904211755
 20
747.275626277249
  0
VERTEX
  8
53
 62
7
  6
CONTINUOUS
 10
-1572.21733430204
 20
750.453331741558
  0
VERTEX
  8
53
 62
7
  6
CONTINUOUS
 10
-1576.37880627861
 20
751.177922394804
  0
VERTEX
  8
53
 62
7
  6
CONTINUOUS
 10
-1580.13291518796
 20
751.002686662991
  0
VERTEX
  8
53
 62
7
  6
CONTINUOUS
 10
-1583.28940227632
 20
749.808436645793
  0
VERTEX
  8
53
 62
7
  6
CONTINUOUS
 10
-1586.14590393921
 20
747.439797948738
  0
VERTEX
  8
53
 62
7
  6
CONTINUOUS
 10
-1589.89312017941
 20
741.841647267339
  0
VERTEX
  8
53
 62
7
  6
CONTINUOUS
 10
-1592.29215408199
 20
733.852642520527
  0
VERTEX
  8
53
 62
7
  6
CONTINUOUS
 10
-1594.08974775591
 20
724.02874350486
  0
VERTEX
  8
53
 62
7
  6
CONTINUOUS
 10
-1599.61068990892
 20
673.381704990999
  0
SEQEND
  0
POLYLINE
  8
53
 62
7
 66
1
 70
1
  0
VERTEX
  8
53
 62
7
  6
CONTINUOUS
 10
-1705.14870889234
 20
653.70346413606
  0
VERTEX
  8
53
 62
7
  6
CONTINUOUS
 10
-1704.7744971667
 20
648.133312005053
  0
VERTEX
  8
53
 62
7
  6
CONTINUOUS
 10
-1702.90407397384
 20
642.365735219239
  0
VERTEX
  8
53
 62
7
  6
CONTINUOUS
 10
-1698.02964171174
 20
634.126471629483
  0
VERTEX
  8
53
 62
7
  6
CONTINUOUS
 10
-1631.9628392096
 20
660.517447006957
  0
VERTEX
  8
53
 62
7
  6
CONTINUOUS
 10
-1645.35959421053
 20
669.821622990723
  0
VERTEX
  8
53
 62
7
  6
CONTINUOUS
 10
-1655.07678801431
 20
674.012277463431
  0
VERTEX
  8
53
 62
7
  6
CONTINUOUS
 10
-1662.61986689575
 20
676.259930805328
  0
VERTEX
  8
53
 62
7
  6
CONTINUOUS
 10
-1669.93189139572
 20
677.940665259405
  0
VERTEX
  8
53
 62
7
  6
CONTINUOUS
 10
-1676.5472089434
 20
678.379656853094
  0
VERTEX
  8
53
 62
7
  6
CONTINUOUS
 10
-1687.08425421957
 20
676.114246937011
  0
VERTEX
  8
53
 62
7
  6
CONTINUOUS
 10
-1694.35901631428
 20
672.469529813391
  0
VERTEX
  8
53
 62
7
  6
CONTINUOUS
 10
-1698.36504912598
 20
669.234913604795
  0
VERTEX
  8
53
 62
7
  6
CONTINUOUS
 10
-1702.36213312066
 20
663.252001894256
  0
VERTEX
  8
53
 62
7
  6
CONTINUOUS
 10
-1704.06413609176
 20
658.546459107774
  0
SEQEND
  0
POLYLINE
  8
53
 62
7
 66
1
 70
1
  0
VERTEX
  8
53
 62
7
  6
CONTINUOUS
 10
-2286.13836153901
 20
2470.14509265895
  0
VERTEX
  8
53
 62
7
  6
CONTINUOUS
 10
-2285.68099405525
 20
2468.60283502752
  0
VERTEX
  8
53
 62
7
  6
CONTINUOUS
 10
-2283.85504962613
 20
2467.01571520064
  0
VERTEX
  8
53
 62
7
  6
CONTINUOUS
 10
-2278.78601927923
 20
2465.28877174359
  0
VERTEX
  8
53
 62
7
  6
CONTINUOUS
 10
-2271.75309404735
 20
2465.54700476542
  0
VERTEX
  8
53
 62
7
  6
CONTINUOUS
 10
-2263.72394246862
 20
2467.91646748668
  0
VERTEX
  8
53
 62
7
  6
CONTINUOUS
 10
-2258.37506978691
 20
2493.31678003759
  0
VERTEX
  8
53
 62
7
  6
CONTINUOUS
 10
-2264.40102650136
 20
2490.60314985103
  0
VERTEX
  8
53
 62
7
  6
CONTINUOUS
 10
-2271.05154888017
 20
2485.7202597623
  0
VERTEX
  8
53
 62
7
  6
CONTINUOUS
 10
-2283.07368046336
 20
2474.59671956577
  0
SEQEND
  0
POLYLINE
  8
53
 62
7
 66
1
 70
1
  0
VERTEX
  8
53
 62
7
  6
CONTINUOUS
 10
-3495.30692056469
 20
2378.9488983605
  0
VERTEX
  8
53
 62
7
  6
CONTINUOUS
 10
-3494.99535563484
 20
2370.34717718568
  0
VERTEX
  8
53
 62
7
  6
CONTINUOUS
 10
-3478.26939447754
 20
2362.18151798253
  0
VERTEX
  8
53
 62
7
  6
CONTINUOUS
 10
-3478.73244651632
 20
2375.19535172516
  0
VERTEX
  8
53
 62
7
  6
CONTINUOUS
 10
-3481.47329914382
 20
2392.58084337985
  0
VERTEX
  8
53
 62
7
  6
CONTINUOUS
 10
-3482.54762799901
 20
2395.00701162556
  0
VERTEX
  8
53
 62
7
  6
CONTINUOUS
 10
-3488.97817300127
 20
2397.72983174137
  0
VERTEX
  8
53
 62
7
  6
CONTINUOUS
 10
-3491.70698077346
 20
2396.71130240928
  0
VERTEX
  8
53
 62
7
  6
CONTINUOUS
 10
-3493.58308725072
 20
2393.05297827015
  0
SEQEND
  0
POLYLINE
  8
53
 62
7
 66
1
 70
1
  0
VERTEX
  8
53
 62
7
  6
CONTINUOUS
 10
-3360.66486483635
 20
2489.66115707715
  0
VERTEX
  8
53
 62
7
  6
CONTINUOUS
 10
-3355.13628481643
 20
2489.76174149615
  0
VERTEX
  8
53
 62
7
  6
CONTINUOUS
 10
-3339.38442221354
 20
2493.61778233535
  0
VERTEX
  8
53
 62
7
  6
CONTINUOUS
 10
-3333.27398608413
 20
2497.23319515221
  0
VERTEX
  8
53
 62
7
  6
CONTINUOUS
 10
-3320.59631164961
 20
2508.66113746562
  0
VERTEX
  8
53
 62
7
  6
CONTINUOUS
 10
-3310.75986459559
 20
2521.64637911971
  0
VERTEX
  8
53
 62
7
  6
CONTINUOUS
 10
-3301.09275436031
 20
2538.60348570924
  0
VERTEX
  8
53
 62
7
  6
CONTINUOUS
 10
-3294.71646853493
 20
2553.37930902397
  0
VERTEX
  8
53
 62
7
  6
CONTINUOUS
 10
-3292.68007358774
 20
2559.97881015362
  0
VERTEX
  8
53
 62
7
  6
CONTINUOUS
 10
-3291.63728367584
 20
2566.84329833853
  0
SEQEND
  0
POLYLINE
  8
53
 62
7
 66
1
 70
1
  0
VERTEX
  8
53
 62
7
  6
CONTINUOUS
 10
-1454.99097277703
 20
2203.95410848681
  0
VERTEX
  8
53
 62
7
  6
CONTINUOUS
 10
-1450.62073196087
 20
2202.38755075254
  0
VERTEX
  8
53
 62
7
  6
CONTINUOUS
 10
-1444.25585629521
 20
2205.96243319568
  0
VERTEX
  8
53
 62
7
  6
CONTINUOUS
 10
-1437.10402404256
 20
2220.16775474903
  0
SEQEND
  0
POLYLINE
  8
53
 62
7
 66
1
 70
1
  0
VERTEX
  8
53
 62
7
  6
CONTINUOUS
 10
-879.693996727766
 20
1689.92674229312
  0
VERTEX
  8
53
 62
7
  6
CONTINUOUS
 10
-843.985617043114
 20
1708.67219365596
  0
VERTEX
  8
53
 62
7
  6
CONTINUOUS
 10
-867.285605538125
 20
1697.66697661169
  0
SEQEND
  0
POLYLINE
  8
54
 62
7
 66
1
 70
1
  0
VERTEX
  8
54
 62
7
  6
CONTINUOUS
 10
-1781.34645597141
 20
2060.5536518004
  0
VERTEX
  8
54
 62
7
  6
CONTINUOUS
 10
-1778.8974492782
 20
2059.45633722701
  0
VERTEX
  8
54
 62
7
  6
CONTINUOUS
 10
-1775.92927149555
 20
2061.24904124924
  0
VERTEX
  8
54
 62
7
  6
CONTINUOUS
 10
-1779.16054960484
 20
2062.48010459834
  0
SEQEND
  0
POLYLINE
  8
54
 62
7
 66
1
 70
1
  0
VERTEX
  8
54
 62
7
  6
CONTINUOUS
 10
-2024.45379970522
 20
1087.03280721268
  0
VERTEX
  8
54
 62
7
  6
CONTINUOUS
 10
-2023.65172656733
 20
1082.20324552263
  0
VERTEX
  8
54
 62
7
  6
CONTINUOUS
 10
-2020.54637442156
 20
1076.31848847268
  0
VERTEX
  8
54
 62
7
  6
CONTINUOUS
 10
-2010.9724179383
 20
1096.63816187633
  0
VERTEX
  8
54
 62
7
  6
CONTINUOUS
 10
-2011.55393524959
 20
1099.57398316296
  0
VERTEX
  8
54
 62
7
  6
CONTINUOUS
 10
-2013.64646880546
 20
1102.90370531707
  0
VERTEX
  8
54
 62
7
  6
CONTINUOUS
 10
-2016.47240424504
 20
1103.9825207038
  0
VERTEX
  8
54
 62
7
  6
CONTINUOUS
 10
-2018.36072253242
 20
1102.78967134797
  0
VERTEX
  8
54
 62
7
  6
CONTINUOUS
 10
-2023.20514262329
 20
1091.666748145
  0
SEQEND
  0
POLYLINE
  8
1
 62
7
 66
1
 70
1
  0
VERTEX
  8
1
 62
7
  6
CONTINUOUS
 10
-3577.78285714286
 20
1061.09714285714
  0
VERTEX
  8
1
 62
7
  6
CONTINUOUS
 10
-3561.6
 20
1058.4
  0
VERTEX
  8
1
 62
7
  6
CONTINUOUS
 10
-3560
 20
1058.4
  0
VERTEX
  8
1
 62
7
  6
CONTINUOUS
 10
-3537.37142857143
 20
1044.57142857143
  0
VERTEX
  8
1
 62
7
  6
CONTINUOUS
 10
-3513.6
 20
1027.2
  0
VERTEX
  8
1
 62
7
  6
CONTINUOUS
 10
-3485.15555555556
 20
998.755555555555
  0
VERTEX
  8
1
 62
7
  6
CONTINUOUS
 10
-3441.12214765101
 20
941.938255033557
  0
VERTEX
  8
1
 62
7
  6
CONTINUOUS
 10
-3426.8
 20
917.2
  0
VERTEX
  8
1
 62
7
  6
CONTINUOUS
 10
-3406.75789473684
 20
868.526315789474
  0
VERTEX
  8
1
 62
7
  6
CONTINUOUS
 10
-3401.6
 20
844.8
  0
VERTEX
  8
1
 62
7
  6
CONTINUOUS
 10
-3398.928
 20
819.415999999999
  0
VERTEX
  8
1
 62
7
  6
CONTINUOUS
 10
-3400.8
 20
790.4
  0
VERTEX
  8
1
 62
7
  6
CONTINUOUS
 10
-3403.10303030303
 20
769.672727272728
  0
VERTEX
  8
1
 62
7
  6
CONTINUOUS
 10
-3412.3
 20
747.6
  0
VERTEX
  8
1
 62
7
  6
CONTINUOUS
 10
-3420.4
 20
733.714285714286
  0
VERTEX
  8
1
 62
7
  6
CONTINUOUS
 10
-3432.79999999999
 20
716.000000000007
  0
VERTEX
  8
1
 62
7
  6
CONTINUOUS
 10
-3484.43428571429
 20
670.102857142857
  0
VERTEX
  8
1
 62
7
  6
CONTINUOUS
 10
-3497.6
 20
652
  0
VERTEX
  8
1
 62
7
  6
CONTINUOUS
 10
-3502.4
 20
623.2
  0
VERTEX
  8
1
 62
7
  6
CONTINUOUS
 10
-3486.12019704434
 20
572.551724137932
  0
VERTEX
  8
1
 62
7
  6
CONTINUOUS
 10
-3482.56153846154
 20
541.413461538462
  0
VERTEX
  8
1
 62
7
  6
CONTINUOUS
 10
-3437.33333333333
 20
537.644444444445
  0
VERTEX
  8
1
 62
7
  6
CONTINUOUS
 10
-3409.33333333333
 20
542.311111111111
  0
VERTEX
  8
1
 62
7
  6
CONTINUOUS
 10
-3401.2
 20
539.6
  0
VERTEX
  8
1
 62
7
  6
CONTINUOUS
 10
-3398.4
 20
536.8
  0
VERTEX
  8
1
 62
7
  6
CONTINUOUS
 10
-3397.23076923077
 20
527.446153846154
  0
VERTEX
  8
1
 62
7
  6
CONTINUOUS
 10
-3398.88695652174
 20
497.634782608696
  0
VERTEX
  8
1
 62
7
  6
CONTINUOUS
 10
-3411.02857142857
 20
465.257142857143
  0
VERTEX
  8
1
 62
7
  6
CONTINUOUS
 10
-3413.6
 20
448.8
  0
VERTEX
  8
1
 62
7
  6
CONTINUOUS
 10
-3409.6
 20
432
  0
VERTEX
  8
1
 62
7
  6
CONTINUOUS
 10
-3394.4
 20
425.6
  0
VERTEX
  8
1
 62
7
  6
CONTINUOUS
 10
-3363.2
 20
432
  0
VERTEX
  8
1
 62
7
  6
CONTINUOUS
 10
-3353.6
 20
439.2
  0
VERTEX
  8
1
 62
7
  6
CONTINUOUS
 10
-3332.8
 20
488
  0
VERTEX
  8
1
 62
7
  6
CONTINUOUS
 10
-3332
 20
503.2
  0
VERTEX
  8
1
 62
7
  6
CONTINUOUS
 10
-3335.2
 20
508.8
  0
VERTEX
  8
1
 62
7
  6
CONTINUOUS
 10
-3336.4
 20
516
  0
VERTEX
  8
1
 62
7
  6
CONTINUOUS
 10
-3335
 20
527.2
  0
VERTEX
  8
1
 62
7
  6
CONTINUOUS
 10
-3333.33333333333
 20
527.2
  0
VERTEX
  8
1
 62
7
  6
CONTINUOUS
 10
-3324.66666666667
 20
514.2
  0
VERTEX
  8
1
 62
7
  6
CONTINUOUS
 10
-3312.8
 20
532
  0
VERTEX
  8
1
 62
7
  6
CONTINUOUS
 10
-3309.6
 20
533.6
  0
VERTEX
  8
1
 62
7
  6
CONTINUOUS
 10
-3302.4
 20
533.6
  0
VERTEX
  8
1
 62
7
  6
CONTINUOUS
 10
-3297.6
 20
532
  0
VERTEX
  8
1
 62
7
  6
CONTINUOUS
 10
-3286.77647058824
 20
511.435294117647
  0
VERTEX
  8
1
 62
7
  6
CONTINUOUS
 10
-3280.75294117647
 20
494.870588235295
  0
VERTEX
  8
1
 62
7
  6
CONTINUOUS
 10
-3277.7520661157
 20
473.864462809918
  0
VERTEX
  8
1
 62
7
  6
CONTINUOUS
 10
-3284
 20
409.6
  0
VERTEX
  8
1
 62
7
  6
CONTINUOUS
 10
-3271.2
 20
391.2
  0
VERTEX
  8
1
 62
7
  6
CONTINUOUS
 10
-3254.4
 20
391.2
  0
VERTEX
  8
1
 62
7
  6
CONTINUOUS
 10
-3215.74687131051
 20
414.243211334121
  0
VERTEX
  8
1
 62
7
  6
CONTINUOUS
 10
-3140.8
 20
512
  0
VERTEX
  8
1
 62
7
  6
CONTINUOUS
 10
-3128.8
 20
524
  0
VERTEX
  8
1
 62
7
  6
CONTINUOUS
 10
-3106.36602972399
 20
541.256900212314
  0
VERTEX
  8
1
 62
7
  6
CONTINUOUS
 10
-3105.6
 20
569.6
  0
VERTEX
  8
1
 62
7
  6
CONTINUOUS
 10
-3102.9
 20
574.1
  0
VERTEX
  8
1
 62
7
  6
CONTINUOUS
 10
-3100.44444444444
 20
571.644444444444
  0
VERTEX
  8
1
 62
7
  6
CONTINUOUS
 10
-3092.35348837209
 20
548.989767441861
  0
VERTEX
  8
1
 62
7
  6
CONTINUOUS
 10
-3071.2
 20
550.4
  0
VERTEX
  8
1
 62
7
  6
CONTINUOUS
 10
-3068.8
 20
577.6
  0
VERTEX
  8
1
 62
7
  6
CONTINUOUS
 10
-3067.33333333333
 20
579.066666666667
  0
VERTEX
  8
1
 62
7
  6
CONTINUOUS
 10
-3062.41245136187
 20
554.462256809339
  0
VERTEX
  8
1
 62
7
  6
CONTINUOUS
 10
-3023.2
 20
556
  0
VERTEX
  8
1
 62
7
  6
CONTINUOUS
 10
-2998.4
 20
567.2
  0
VERTEX
  8
1
 62
7
  6
CONTINUOUS
 10
-2967.2
 20
611.2
  0
VERTEX
  8
1
 62
7
  6
CONTINUOUS
 10
-2936
 20
650.2
  0
VERTEX
  8
1
 62
7
  6
CONTINUOUS
 10
-2936
 20
658.4
  0
VERTEX
  8
1
 62
7
  6
CONTINUOUS
 10
-2934.08
 20
661.28
  0
VERTEX
  8
1
 62
7
  6
CONTINUOUS
 10
-2928.69333333333
 20
655.893333333333
  0
VERTEX
  8
1
 62
7
  6
CONTINUOUS
 10
-2880
 20
673.6
  0
VERTEX
  8
1
 62
7
  6
CONTINUOUS
 10
-2878.4
 20
700.8
  0
VERTEX
  8
1
 62
7
  6
CONTINUOUS
 10
-2876
 20
704.8
  0
VERTEX
  8
1
 62
7
  6
CONTINUOUS
 10
-2875.2
 20
704.8
  0
VERTEX
  8
1
 62
7
  6
CONTINUOUS
 10
-2875.2
 20
677.333333333333
  0
VERTEX
  8
1
 62
7
  6
CONTINUOUS
 10
-2835.2
 20
684
  0
VERTEX
  8
1
 62
7
  6
CONTINUOUS
 10
-2810.4
 20
686.48
  0
VERTEX
  8
1
 62
7
  6
CONTINUOUS
 10
-2810.4
 20
699.2
  0
VERTEX
  8
1
 62
7
  6
CONTINUOUS
 10
-2808.4
 20
701.2
  0
VERTEX
  8
1
 62
7
  6
CONTINUOUS
 10
-2806.4
 20
699.2
  0
VERTEX
  8
1
 62
7
  6
CONTINUOUS
 10
-2806.4
 20
684
  0
VERTEX
  8
1
 62
7
  6
CONTINUOUS
 10
-2744.8
 20
666.4
  0
VERTEX
  8
1
 62
7
  6
CONTINUOUS
 10
-2610.22706164932
 20
645.589751801441
  0
VERTEX
  8
1
 62
7
  6
CONTINUOUS
 10
-2460.78518518519
 20
644.725925925926
  0
VERTEX
  8
1
 62
7
  6
CONTINUOUS
 10
-2382.4
 20
637.6
  0
VERTEX
  8
1
 62
7
  6
CONTINUOUS
 10
-2344
 20
637.6
  0
VERTEX
  8
1
 62
7
  6
CONTINUOUS
 10
-2296
 20
649.6
  0
VERTEX
  8
1
 62
7
  6
CONTINUOUS
 10
-2160.43529411765
 20
723.470588235294
  0
VERTEX
  8
1
 62
7
  6
CONTINUOUS
 10
-2116.8
 20
742.171428571429
  0
VERTEX
  8
1
 62
7
  6
CONTINUOUS
 10
-2116.8
 20
767.2
  0
VERTEX
  8
1
 62
7
  6
CONTINUOUS
 10
-2114.81739130435
 20
771.165217391304
  0
VERTEX
  8
1
 62
7
  6
CONTINUOUS
 10
-2102.51428571429
 20
760.4
  0
VERTEX
  8
1
 62
7
  6
CONTINUOUS
 10
-2098.24
 20
745.44
  0
VERTEX
  8
1
 62
7
  6
CONTINUOUS
 10
-2079.52
 20
726.72
  0
VERTEX
  8
1
 62
7
  6
CONTINUOUS
 10
-2074.4
 20
708.8
  0
VERTEX
  8
1
 62
7
  6
CONTINUOUS
 10
-2074.4
 20
683
  0
VERTEX
  8
1
 62
7
  6
CONTINUOUS
 10
-2091.64280442804
 20
609.718081180812
  0
VERTEX
  8
1
 62
7
  6
CONTINUOUS
 10
-2087.2
 20
585.6
  0
VERTEX
  8
1
 62
7
  6
CONTINUOUS
 10
-2052.8
 20
539.2
  0
VERTEX
  8
1
 62
7
  6
CONTINUOUS
 10
-1935.2
 20
361.6
  0
VERTEX
  8
1
 62
7
  6
CONTINUOUS
 10
-1909.6
 20
337.6
  0
VERTEX
  8
1
 62
7
  6
CONTINUOUS
 10
-1888.8
 20
324.8
  0
VERTEX
  8
1
 62
7
  6
CONTINUOUS
 10
-1865.6
 20
323.2
  0
VERTEX
  8
1
 62
7
  6
CONTINUOUS
 10
-1845.6
 20
331.2
  0
VERTEX
  8
1
 62
7
  6
CONTINUOUS
 10
-1831.2
 20
348
  0
VERTEX
  8
1
 62
7
  6
CONTINUOUS
 10
-1830.4
 20
363.2
  0
VERTEX
  8
1
 62
7
  6
CONTINUOUS
 10
-1836.8
 20
388.8
  0
VERTEX
  8
1
 62
7
  6
CONTINUOUS
 10
-1837.90476190476
 20
399.847619047619
  0
VERTEX
  8
1
 62
7
  6
CONTINUOUS
 10
-1835.43529411765
 20
427.011764705882
  0
VERTEX
  8
1
 62
7
  6
CONTINUOUS
 10
-1832.48
 20
434.4
  0
VERTEX
  8
1
 62
7
  6
CONTINUOUS
 10
-1824.8
 20
444
  0
VERTEX
  8
1
 62
7
  6
CONTINUOUS
 10
-1816.8
 20
452
  0
VERTEX
  8
1
 62
7
  6
CONTINUOUS
 10
-1804.22857142857
 20
458.285714285714
  0
VERTEX
  8
1
 62
7
  6
CONTINUOUS
 10
-1783.52
 20
463.808
  0
VERTEX
  8
1
 62
7
  6
CONTINUOUS
 10
-1748.8
 20
464.8
  0
VERTEX
  8
1
 62
7
  6
CONTINUOUS
 10
-1737.6
 20
473.6
  0
VERTEX
  8
1
 62
7
  6
CONTINUOUS
 10
-1750.4
 20
501.6
  0
VERTEX
  8
1
 62
7
  6
CONTINUOUS
 10
-1753.48571428571
 20
511.885714285714
  0
VERTEX
  8
1
 62
7
  6
CONTINUOUS
 10
-1745.12727272727
 20
562.036363636364
  0
VERTEX
  8
1
 62
7
  6
CONTINUOUS
 10
-1755.2
 20
575.466666666667
  0
VERTEX
  8
1
 62
7
  6
CONTINUOUS
 10
-1755.2
 20
585.6
  0
VERTEX
  8
1
 62
7
  6
CONTINUOUS
 10
-1736.8
 20
567.2
  0
VERTEX
  8
1
 62
7
  6
CONTINUOUS
 10
-1723.2
 20
583.2
  0
VERTEX
  8
1
 62
7
  6
CONTINUOUS
 10
-1695.2
 20
633.6
  0
VERTEX
  8
1
 62
7
  6
CONTINUOUS
 10
-1694.4
 20
648
  0
VERTEX
  8
1
 62
7
  6
CONTINUOUS
 10
-1677.6
 20
656
  0
VERTEX
  8
1
 62
7
  6
CONTINUOUS
 10
-1666.48888888889
 20
658.222222222222
  0
VERTEX
  8
1
 62
7
  6
CONTINUOUS
 10
-1647.36
 20
653.44
  0
VERTEX
  8
1
 62
7
  6
CONTINUOUS
 10
-1620
 20
635.2
  0
VERTEX
  8
1
 62
7
  6
CONTINUOUS
 10
-1576
 20
629.6
  0
VERTEX
  8
1
 62
7
  6
CONTINUOUS
 10
-1559.2
 20
636.8
  0
VERTEX
  8
1
 62
7
  6
CONTINUOUS
 10
-1542.4
 20
655.2
  0
VERTEX
  8
1
 62
7
  6
CONTINUOUS
 10
-1540
 20
676
  0
VERTEX
  8
1
 62
7
  6
CONTINUOUS
 10
-1549.6
 20
729.6
  0
VERTEX
  8
1
 62
7
  6
CONTINUOUS
 10
-1556.8
 20
748
  0
VERTEX
  8
1
 62
7
  6
CONTINUOUS
 10
-1608.38890356671
 20
808.9035667107
  0
VERTEX
  8
1
 62
7
  6
CONTINUOUS
 10
-1670.53333333333
 20
856.133333333333
  0
VERTEX
  8
1
 62
7
  6
CONTINUOUS
 10
-1682.93333333333
 20
868.533333333334
  0
VERTEX
  8
1
 62
7
  6
CONTINUOUS
 10
-1698.17142857143
 20
888.342857142857
  0
VERTEX
  8
1
 62
7
  6
CONTINUOUS
 10
-1707.2
 20
906.4
  0
VERTEX
  8
1
 62
7
  6
CONTINUOUS
 10
-1707.2
 20
915.2
  0
VERTEX
  8
1
 62
7
  6
CONTINUOUS
 10
-1702.88
 20
932.48
  0
VERTEX
  8
1
 62
7
  6
CONTINUOUS
 10
-1683.5
 20
961.55
  0
VERTEX
  8
1
 62
7
  6
CONTINUOUS
 10
-1650.32520568437
 20
987.89468960359
  0
VERTEX
  8
1
 62
7
  6
CONTINUOUS
 10
-1572.2886756238
 20
1011.98003838772
  0
VERTEX
  8
1
 62
7
  6
CONTINUOUS
 10
-1514.4
 20
1022.4
  0
VERTEX
  8
1
 62
7
  6
CONTINUOUS
 10
-1472.98823529412
 20
1026.54117647059
  0
VERTEX
  8
1
 62
7
  6
CONTINUOUS
 10
-1462.36108108108
 20
1030.88864864865
  0
VERTEX
  8
1
 62
7
  6
CONTINUOUS
 10
-1471.2
 20
1101.6
  0
VERTEX
  8
1
 62
7
  6
CONTINUOUS
 10
-1471.2
 20
1112.8
  0
VERTEX
  8
1
 62
7
  6
CONTINUOUS
 10
-1470.4
 20
1112.8
  0
VERTEX
  8
1
 62
7
  6
CONTINUOUS
 10
-1465.6
 20
1106.4
  0
VERTEX
  8
1
 62
7
  6
CONTINUOUS
 10
-1452.97489093553
 20
1066.72108579738
  0
VERTEX
  8
1
 62
7
  6
CONTINUOUS
 10
-1398.35604395604
 20
1109.68791208791
  0
VERTEX
  8
1
 62
7
  6
CONTINUOUS
 10
-1390.24
 20
1125.92
  0
VERTEX
  8
1
 62
7
  6
CONTINUOUS
 10
-1377.66153846154
 20
1142.09230769231
  0
VERTEX
  8
1
 62
7
  6
CONTINUOUS
 10
-1364
 20
1151.2
  0
VERTEX
  8
1
 62
7
  6
CONTINUOUS
 10
-1331.46666666667
 20
1167.46666666667
  0
VERTEX
  8
1
 62
7
  6
CONTINUOUS
 10
-1289.6347826087
 20
1171.26956521739
  0
VERTEX
  8
1
 62
7
  6
CONTINUOUS
 10
-1231.84950495049
 20
1170.27326732673
  0
VERTEX
  8
1
 62
7
  6
CONTINUOUS
 10
-1196.93186813187
 20
1165.61758241758
  0
VERTEX
  8
1
 62
7
  6
CONTINUOUS
 10
-1158.89523809524
 20
1150.05714285714
  0
VERTEX
  8
1
 62
7
  6
CONTINUOUS
 10
-1135.78039215686
 20
1136.18823529412
  0
VERTEX
  8
1
 62
7
  6
CONTINUOUS
 10
-1102.4
 20
1107.2
  0
VERTEX
  8
1
 62
7
  6
CONTINUOUS
 10
-1081.76551724138
 20
1085.35172413793
  0
VERTEX
  8
1
 62
7
  6
CONTINUOUS
 10
-1000.52852039857
 20
1029.70994547847
  0
VERTEX
  8
1
 62
7
  6
CONTINUOUS
 10
-975.2
 20
1076
  0
VERTEX
  8
1
 62
7
  6
CONTINUOUS
 10
-973.6
 20
1088
  0
VERTEX
  8
1
 62
7
  6
CONTINUOUS
 10
-976.18064516129
 20
1184.77419354839
  0
VERTEX
  8
1
 62
7
  6
CONTINUOUS
 10
-1009.2
 20
1228.8
  0
VERTEX
  8
1
 62
7
  6
CONTINUOUS
 10
-1031.8843373494
 20
1274.1686746988
  0
VERTEX
  8
1
 62
7
  6
CONTINUOUS
 10
-1082.6214532872
 20
1320.95224913495
  0
VERTEX
  8
1
 62
7
  6
CONTINUOUS
 10
-1133.6
 20
1356
  0
VERTEX
  8
1
 62
7
  6
CONTINUOUS
 10
-1162.05508982036
 20
1376.86706586826
  0
VERTEX
  8
1
 62
7
  6
CONTINUOUS
 10
-1175.89189189189
 20
1406.27027027027
  0
VERTEX
  8
1
 62
7
  6
CONTINUOUS
 10
-1180.4
 20
1422.8
  0
VERTEX
  8
1
 62
7
  6
CONTINUOUS
 10
-1182.21538461538
 20
1450.03076923077
  0
VERTEX
  8
1
 62
7
  6
CONTINUOUS
 10
-1173.06966292135
 20
1550.63370786517
  0
VERTEX
  8
1
 62
7
  6
CONTINUOUS
 10
-1180.86666666667
 20
1564
  0
VERTEX
  8
1
 62
7
  6
CONTINUOUS
 10
-1202.4
 20
1564
  0
VERTEX
  8
1
 62
7
  6
CONTINUOUS
 10
-1212.96
 20
1565.92
  0
VERTEX
  8
1
 62
7
  6
CONTINUOUS
 10
-1237.02857142857
 20
1573.94285714286
  0
VERTEX
  8
1
 62
7
  6
CONTINUOUS
 10
-1240.12631578947
 20
1567.74736842105
  0
VERTEX
  8
1
 62
7
  6
CONTINUOUS
 10
-1254.24
 20
1566.336
  0
VERTEX
  8
1
 62
7
  6
CONTINUOUS
 10
-1257.91269035533
 20
1596.18680203046
  0
VERTEX
  8
1
 62
7
  6
CONTINUOUS
 10
-1256
 20
1603.2
  0
VERTEX
  8
1
 62
7
  6
CONTINUOUS
 10
-1253.6
 20
1604.8
  0
VERTEX
  8
1
 62
7
  6
CONTINUOUS
 10
-1229.6
 20
1606.4
  0
VERTEX
  8
1
 62
7
  6
CONTINUOUS
 10
-1217.6
 20
1620
  0
VERTEX
  8
1
 62
7
  6
CONTINUOUS
 10
-1212.13023255814
 20
1631.8511627907
  0
VERTEX
  8
1
 62
7
  6
CONTINUOUS
 10
-1177.6
 20
1644.8
  0
VERTEX
  8
1
 62
7
  6
CONTINUOUS
 10
-1155.2
 20
1659.2
  0
VERTEX
  8
1
 62
7
  6
CONTINUOUS
 10
-1081.36525096525
 20
1690.33513513514
  0
VERTEX
  8
1
 62
7
  6
CONTINUOUS
 10
-1042.74285714286
 20
1701.6
  0
VERTEX
  8
1
 62
7
  6
CONTINUOUS
 10
-1013.44
 20
1701.6
  0
VERTEX
  8
1
 62
7
  6
CONTINUOUS
 10
-965.74647887324
 20
1685.34084507042
  0
VERTEX
  8
1
 62
7
  6
CONTINUOUS
 10
-943.8
 20
1672.8
  0
VERTEX
  8
1
 62
7
  6
CONTINUOUS
 10
-930.933333333333
 20
1672.8
  0
VERTEX
  8
1
 62
7
  6
CONTINUOUS
 10
-921.6
 20
1668.8
  0
VERTEX
  8
1
 62
7
  6
CONTINUOUS
 10
-881.828571428572
 20
1638.97142857143
  0
VERTEX
  8
1
 62
7
  6
CONTINUOUS
 10
-870.4
 20
1634.4
  0
VERTEX
  8
1
 62
7
  6
CONTINUOUS
 10
-859.778723404255
 20
1635.28510638298
  0
VERTEX
  8
1
 62
7
  6
CONTINUOUS
 10
-821.312
 20
1650.08
  0
VERTEX
  8
1
 62
7
  6
CONTINUOUS
 10
-800
 20
1685.6
  0
VERTEX
  8
1
 62
7
  6
CONTINUOUS
 10
-796.8
 20
1702.4
  0
VERTEX
  8
1
 62
7
  6
CONTINUOUS
 10
-796
 20
1732
  0
VERTEX
  8
1
 62
7
  6
CONTINUOUS
 10
-808
 20
1766.4
  0
VERTEX
  8
1
 62
7
  6
CONTINUOUS
 10
-854.4
 20
1809.6
  0
VERTEX
  8
1
 62
7
  6
CONTINUOUS
 10
-879.127272727273
 20
1834.32727272727
  0
VERTEX
  8
1
 62
7
  6
CONTINUOUS
 10
-899.2
 20
1873.6
  0
VERTEX
  8
1
 62
7
  6
CONTINUOUS
 10
-932
 20
1912
  0
VERTEX
  8
1
 62
7
  6
CONTINUOUS
 10
-949.6
 20
1922.4
  0
VERTEX
  8
1
 62
7
  6
CONTINUOUS
 10
-1011.82222222222
 20
1935.67407407407
  0
VERTEX
  8
1
 62
7
  6
CONTINUOUS
 10
-1028.52413793103
 20
1941.24137931034
  0
VERTEX
  8
1
 62
7
  6
CONTINUOUS
 10
-1054.88813559322
 20
1961.61355932203
  0
VERTEX
  8
1
 62
7
  6
CONTINUOUS
 10
-1059.8
 20
1969.8
  0
VERTEX
  8
1
 62
7
  6
CONTINUOUS
 10
-1069.54626865672
 20
1999.03880597015
  0
VERTEX
  8
1
 62
7
  6
CONTINUOUS
 10
-1064.8
 20
2112
  0
VERTEX
  8
1
 62
7
  6
CONTINUOUS
 10
-1070.4
 20
2140
  0
VERTEX
  8
1
 62
7
  6
CONTINUOUS
 10
-1078.4
 20
2158.4
  0
VERTEX
  8
1
 62
7
  6
CONTINUOUS
 10
-1115.2
 20
2200.8
  0
VERTEX
  8
1
 62
7
  6
CONTINUOUS
 10
-1135.9
 20
2207.7
  0
VERTEX
  8
1
 62
7
  6
CONTINUOUS
 10
-1166.4
 20
2201.6
  0
VERTEX
  8
1
 62
7
  6
CONTINUOUS
 10
-1189.01052631579
 20
2201.6
  0
VERTEX
  8
1
 62
7
  6
CONTINUOUS
 10
-1221.6
 20
2187.2
  0
VERTEX
  8
1
 62
7
  6
CONTINUOUS
 10
-1260.54039735099
 20
2160.31258278146
  0
VERTEX
  8
1
 62
7
  6
CONTINUOUS
 10
-1286.51034482758
 20
2150.86896551724
  0
VERTEX
  8
1
 62
7
  6
CONTINUOUS
 10
-1303.77142857143
 20
2149.14285714286
  0
VERTEX
  8
1
 62
7
  6
CONTINUOUS
 10
-1324.73846153846
 20
2151.93846153846
  0
VERTEX
  8
1
 62
7
  6
CONTINUOUS
 10
-1332.8
 20
2160
  0
VERTEX
  8
1
 62
7
  6
CONTINUOUS
 10
-1344.48695652174
 20
2179.47826086957
  0
VERTEX
  8
1
 62
7
  6
CONTINUOUS
 10
-1355.2
 20
2185.6
  0
VERTEX
  8
1
 62
7
  6
CONTINUOUS
 10
-1376.8
 20
2185.6
  0
VERTEX
  8
1
 62
7
  6
CONTINUOUS
 10
-1417.6
 20
2178.4
  0
VERTEX
  8
1
 62
7
  6
CONTINUOUS
 10
-1435.36
 20
2178.4
  0
VERTEX
  8
1
 62
7
  6
CONTINUOUS
 10
-1443.68
 20
2188.8
  0
VERTEX
  8
1
 62
7
  6
CONTINUOUS
 10
-1446.03636363636
 20
2194.69090909091
  0
VERTEX
  8
1
 62
7
  6
CONTINUOUS
 10
-1448
 20
2210.4
  0
VERTEX
  8
1
 62
7
  6
CONTINUOUS
 10
-1440.96
 20
2231.52
  0
VERTEX
  8
1
 62
7
  6
CONTINUOUS
 10
-1429.2
 20
2250
  0
VERTEX
  8
1
 62
7
  6
CONTINUOUS
 10
-1400.8
 20
2278.4
  0
VERTEX
  8
1
 62
7
  6
CONTINUOUS
 10
-1372.64
 20
2298.88
  0
VERTEX
  8
1
 62
7
  6
CONTINUOUS
 10
-1352.26666666667
 20
2309.06666666667
  0
VERTEX
  8
1
 62
7
  6
CONTINUOUS
 10
-1300.24116985377
 20
2325.3246344207
  0
VERTEX
  8
1
 62
7
  6
CONTINUOUS
 10
-1279.2
 20
2375.2
  0
VERTEX
  8
1
 62
7
  6
CONTINUOUS
 10
-1284
 20
2408
  0
VERTEX
  8
1
 62
7
  6
CONTINUOUS
 10
-1294.4
 20
2421.6
  0
VERTEX
  8
1
 62
7
  6
CONTINUOUS
 10
-1348
 20
2447.2
  0
VERTEX
  8
1
 62
7
  6
CONTINUOUS
 10
-1361.6
 20
2439.2
  0
VERTEX
  8
1
 62
7
  6
CONTINUOUS
 10
-1364
 20
2439.2
  0
VERTEX
  8
1
 62
7
  6
CONTINUOUS
 10
-1364
 20
2449.6
  0
VERTEX
  8
1
 62
7
  6
CONTINUOUS
 10
-1370.4
 20
2451.2
  0
VERTEX
  8
1
 62
7
  6
CONTINUOUS
 10
-1408.8
 20
2487.2
  0
VERTEX
  8
1
 62
7
  6
CONTINUOUS
 10
-1440.8
 20
2498.4
  0
VERTEX
  8
1
 62
7
  6
CONTINUOUS
 10
-1483.6788249694
 20
2493.96425948592
  0
VERTEX
  8
1
 62
7
  6
CONTINUOUS
 10
-1524.28070175439
 20
2458.84912280702
  0
VERTEX
  8
1
 62
7
  6
CONTINUOUS
 10
-1582.31111111111
 20
2386.31111111111
  0
VERTEX
  8
1
 62
7
  6
CONTINUOUS
 10
-1589.74545454545
 20
2380.36363636364
  0
VERTEX
  8
1
 62
7
  6
CONTINUOUS
 10
-1602.27692307692
 20
2377.23076923077
  0
VERTEX
  8
1
 62
7
  6
CONTINUOUS
 10
-1612.8
 20
2378.4
  0
VERTEX
  8
1
 62
7
  6
CONTINUOUS
 10
-1619.2
 20
2381.6
  0
VERTEX
  8
1
 62
7
  6
CONTINUOUS
 10
-1625.6
 20
2388
  0
VERTEX
  8
1
 62
7
  6
CONTINUOUS
 10
-1633.6
 20
2404
  0
VERTEX
  8
1
 62
7
  6
CONTINUOUS
 10
-1633.6
 20
2463.36
  0
VERTEX
  8
1
 62
7
  6
CONTINUOUS
 10
-1640
 20
2483.2
  0
VERTEX
  8
1
 62
7
  6
CONTINUOUS
 10
-1660
 20
2500
  0
VERTEX
  8
1
 62
7
  6
CONTINUOUS
 10
-1704.8
 20
2498.4
  0
VERTEX
  8
1
 62
7
  6
CONTINUOUS
 10
-1741.6
 20
2487.2
  0
VERTEX
  8
1
 62
7
  6
CONTINUOUS
 10
-1743.2
 20
2473.6
  0
VERTEX
  8
1
 62
7
  6
CONTINUOUS
 10
-1745.31764705882
 20
2470.42352941176
  0
VERTEX
  8
1
 62
7
  6
CONTINUOUS
 10
-1748.8
 20
2480
  0
VERTEX
  8
1
 62
7
  6
CONTINUOUS
 10
-1757.07889908257
 20
2480.68990825688
  0
VERTEX
  8
1
 62
7
  6
CONTINUOUS
 10
-1810.97142857143
 20
2465.6
  0
VERTEX
  8
1
 62
7
  6
CONTINUOUS
 10
-1829.86666666667
 20
2465.6
  0
VERTEX
  8
1
 62
7
  6
CONTINUOUS
 10
-1836.57142857143
 20
2470.62857142857
  0
VERTEX
  8
1
 62
7
  6
CONTINUOUS
 10
-1840
 20
2475.2
  0
VERTEX
  8
1
 62
7
  6
CONTINUOUS
 10
-1840
 20
2482.4
  0
VERTEX
  8
1
 62
7
  6
CONTINUOUS
 10
-1837.2
 20
2488
  0
VERTEX
  8
1
 62
7
  6
CONTINUOUS
 10
-1807.2
 20
2528
  0
VERTEX
  8
1
 62
7
  6
CONTINUOUS
 10
-1746.59104477612
 20
2600.9552238806
  0
VERTEX
  8
1
 62
7
  6
CONTINUOUS
 10
-1683.48456375839
 20
2669.79865771812
  0
VERTEX
  8
1
 62
7
  6
CONTINUOUS
 10
-1680.8
 20
2680
  0
VERTEX
  8
1
 62
7
  6
CONTINUOUS
 10
-1680.8
 20
2716.8
  0
VERTEX
  8
1
 62
7
  6
CONTINUOUS
 10
-1687.2
 20
2735.2
  0
VERTEX
  8
1
 62
7
  6
CONTINUOUS
 10
-1700
 20
2749.6
  0
VERTEX
  8
1
 62
7
  6
CONTINUOUS
 10
-1711.2
 20
2755.2
  0
VERTEX
  8
1
 62
7
  6
CONTINUOUS
 10
-1744
 20
2759.2
  0
VERTEX
  8
1
 62
7
  6
CONTINUOUS
 10
-1760.8
 20
2753.6
  0
VERTEX
  8
1
 62
7
  6
CONTINUOUS
 10
-1827.2
 20
2725.6
  0
VERTEX
  8
1
 62
7
  6
CONTINUOUS
 10
-1854.4
 20
2702.4
  0
VERTEX
  8
1
 62
7
  6
CONTINUOUS
 10
-1864.03764705882
 20
2691.55764705882
  0
VERTEX
  8
1
 62
7
  6
CONTINUOUS
 10
-1922.85714285714
 20
2568.57142857143
  0
VERTEX
  8
1
 62
7
  6
CONTINUOUS
 10
-1934.4
 20
2549.33333333333
  0
VERTEX
  8
1
 62
7
  6
CONTINUOUS
 10
-1949.3
 20
2529.46666666667
  0
VERTEX
  8
1
 62
7
  6
CONTINUOUS
 10
-1981.22264150943
 20
2499.0641509434
  0
VERTEX
  8
1
 62
7
  6
CONTINUOUS
 10
-2015.59999999999
 20
2475.00000000001
  0
VERTEX
  8
1
 62
7
  6
CONTINUOUS
 10
-2053.6
 20
2456
  0
VERTEX
  8
1
 62
7
  6
CONTINUOUS
 10
-2087.95789473684
 20
2444.54736842105
  0
VERTEX
  8
1
 62
7
  6
CONTINUOUS
 10
-2136.88470588235
 20
2435.44470588235
  0
VERTEX
  8
1
 62
7
  6
CONTINUOUS
 10
-2166.4
 20
2433.6
  0
VERTEX
  8
1
 62
7
  6
CONTINUOUS
 10
-2199.2
 20
2433.6
  0
VERTEX
  8
1
 62
7
  6
CONTINUOUS
 10
-2219.77142857143
 20
2437.02857142857
  0
VERTEX
  8
1
 62
7
  6
CONTINUOUS
 10
-2242.4
 20
2443.2
  0
VERTEX
  8
1
 62
7
  6
CONTINUOUS
 10
-2260
 20
2452
  0
VERTEX
  8
1
 62
7
  6
CONTINUOUS
 10
-2268.8
 20
2460.8
  0
VERTEX
  8
1
 62
7
  6
CONTINUOUS
 10
-2268.8
 20
2472
  0
VERTEX
  8
1
 62
7
  6
CONTINUOUS
 10
-2264.71111111111
 20
2480.17777777778
  0
VERTEX
  8
1
 62
7
  6
CONTINUOUS
 10
-2253.76
 20
2489.76
  0
VERTEX
  8
1
 62
7
  6
CONTINUOUS
 10
-2237.43999999999
 20
2500.64000000001
  0
VERTEX
  8
1
 62
7
  6
CONTINUOUS
 10
-2134.4
 20
2554.4
  0
VERTEX
  8
1
 62
7
  6
CONTINUOUS
 10
-2102.4
 20
2584.8
  0
VERTEX
  8
1
 62
7
  6
CONTINUOUS
 10
-2096
 20
2600.8
  0
VERTEX
  8
1
 62
7
  6
CONTINUOUS
 10
-2098.4
 20
2624.8
  0
VERTEX
  8
1
 62
7
  6
CONTINUOUS
 10
-2105.6
 20
2629.6
  0
VERTEX
  8
1
 62
7
  6
CONTINUOUS
 10
-2130.87179487179
 20
2634.96068376068
  0
VERTEX
  8
1
 62
7
  6
CONTINUOUS
 10
-2147.2
 20
2633.6
  0
VERTEX
  8
1
 62
7
  6
CONTINUOUS
 10
-2180
 20
2633.6
  0
VERTEX
  8
1
 62
7
  6
CONTINUOUS
 10
-2204.7
 20
2637.4
  0
VERTEX
  8
1
 62
7
  6
CONTINUOUS
 10
-2228.64
 20
2642.72
  0
VERTEX
  8
1
 62
7
  6
CONTINUOUS
 10
-2306.22929936306
 20
2666.59363057325
  0
VERTEX
  8
1
 62
7
  6
CONTINUOUS
 10
-2334.76756756757
 20
2654.48648648649
  0
VERTEX
  8
1
 62
7
  6
CONTINUOUS
 10
-2343.2
 20
2652.8
  0
VERTEX
  8
1
 62
7
  6
CONTINUOUS
 10
-2360.71111111111
 20
2652.8
  0
VERTEX
  8
1
 62
7
  6
CONTINUOUS
 10
-2402.85
 20
2663.05
  0
VERTEX
  8
1
 62
7
  6
CONTINUOUS
 10
-2414.4
 20
2668
  0
VERTEX
  8
1
 62
7
  6
CONTINUOUS
 10
-2422.4
 20
2669.6
  0
VERTEX
  8
1
 62
7
  6
CONTINUOUS
 10
-2430.97142857143
 20
2673.02857142857
  0
VERTEX
  8
1
 62
7
  6
CONTINUOUS
 10
-2476.60649819495
 20
2687.28953068592
  0
VERTEX
  8
1
 62
7
  6
CONTINUOUS
 10
-2514.74346289753
 20
2713.25512367491
  0
VERTEX
  8
1
 62
7
  6
CONTINUOUS
 10
-2565.73333333333
 20
2724.8
  0
VERTEX
  8
1
 62
7
  6
CONTINUOUS
 10
-2576.8
 20
2724.8
  0
VERTEX
  8
1
 62
7
  6
CONTINUOUS
 10
-2579.2
 20
2728
  0
VERTEX
  8
1
 62
7
  6
CONTINUOUS
 10
-2605.6
 20
2735.2
  0
VERTEX
  8
1
 62
7
  6
CONTINUOUS
 10
-2660.8
 20
2737.6
  0
VERTEX
  8
1
 62
7
  6
CONTINUOUS
 10
-2714.4
 20
2716
  0
VERTEX
  8
1
 62
7
  6
CONTINUOUS
 10
-2757.6
 20
2678.4
  0
VERTEX
  8
1
 62
7
  6
CONTINUOUS
 10
-2772.8
 20
2664.36923076923
  0
VERTEX
  8
1
 62
7
  6
CONTINUOUS
 10
-2772.8
 20
2654.4
  0
VERTEX
  8
1
 62
7
  6
CONTINUOUS
 10
-2774.5
 20
2648.45
  0
VERTEX
  8
1
 62
7
  6
CONTINUOUS
 10
-2776.8
 20
2649.6
  0
VERTEX
  8
1
 62
7
  6
CONTINUOUS
 10
-2785.2
 20
2660.1
  0
VERTEX
  8
1
 62
7
  6
CONTINUOUS
 10
-2797.6
 20
2663.2
  0
VERTEX
  8
1
 62
7
  6
CONTINUOUS
 10
-2804.42352941176
 20
2667.29411764706
  0
VERTEX
  8
1
 62
7
  6
CONTINUOUS
 10
-2812.16
 20
2676.32
  0
VERTEX
  8
1
 62
7
  6
CONTINUOUS
 10
-2817.14285714286
 20
2686.28571428571
  0
VERTEX
  8
1
 62
7
  6
CONTINUOUS
 10
-2824.12
 20
2716.52
  0
VERTEX
  8
1
 62
7
  6
CONTINUOUS
 10
-2832.02962962963
 20
2803.52592592593
  0
VERTEX
  8
1
 62
7
  6
CONTINUOUS
 10
-2831.2
 20
2816.8
  0
VERTEX
  8
1
 62
7
  6
CONTINUOUS
 10
-2826.17142857143
 20
2846.97142857143
  0
VERTEX
  8
1
 62
7
  6
CONTINUOUS
 10
-2839.39447513812
 20
2906.47513812155
  0
VERTEX
  8
1
 62
7
  6
CONTINUOUS
 10
-2865.69493891798
 20
2929.61954624782
  0
VERTEX
  8
1
 62
7
  6
CONTINUOUS
 10
-2892.8
 20
2935.2
  0
VERTEX
  8
1
 62
7
  6
CONTINUOUS
 10
-2983.2
 20
2918.4
  0
VERTEX
  8
1
 62
7
  6
CONTINUOUS
 10
-2997.11304347826
 20
2917.53043478261
  0
VERTEX
  8
1
 62
7
  6
CONTINUOUS
 10
-3021.01818181818
 20
2920.94545454545
  0
VERTEX
  8
1
 62
7
  6
CONTINUOUS
 10
-3033.04615384615
 20
2924.55384615385
  0
VERTEX
  8
1
 62
7
  6
CONTINUOUS
 10
-3042.4
 20
2930.4
  0
VERTEX
  8
1
 62
7
  6
CONTINUOUS
 10
-3061.12
 20
2946
  0
VERTEX
  8
1
 62
7
  6
CONTINUOUS
 10
-3085.04615384615
 20
2975.90769230769
  0
VERTEX
  8
1
 62
7
  6
CONTINUOUS
 10
-3090.4
 20
3000
  0
VERTEX
  8
1
 62
7
  6
CONTINUOUS
 10
-3090.4
 20
3016.8
  0
VERTEX
  8
1
 62
7
  6
CONTINUOUS
 10
-3087
 20
3037.2
  0
VERTEX
  8
1
 62
7
  6
CONTINUOUS
 10
-3091.2
 20
3045.6
  0
VERTEX
  8
1
 62
7
  6
CONTINUOUS
 10
-3126.4
 20
3079.2
  0
VERTEX
  8
1
 62
7
  6
CONTINUOUS
 10
-3141.6
 20
3080
  0
VERTEX
  8
1
 62
7
  6
CONTINUOUS
 10
-3178.4
 20
3059.2
  0
VERTEX
  8
1
 62
7
  6
CONTINUOUS
 10
-3191.2
 20
3055.54285714286
  0
VERTEX
  8
1
 62
7
  6
CONTINUOUS
 10
-3191.2
 20
3025.6
  0
VERTEX
  8
1
 62
7
  6
CONTINUOUS
 10
-3192.40481927711
 20
3013.55180722892
  0
VERTEX
  8
1
 62
7
  6
CONTINUOUS
 10
-3207.5
 20
2976.5
  0
VERTEX
  8
1
 62
7
  6
CONTINUOUS
 10
-3214.66666666667
 20
2969.33333333333
  0
VERTEX
  8
1
 62
7
  6
CONTINUOUS
 10
-3230.18181818182
 20
2965.45454545455
  0
VERTEX
  8
1
 62
7
  6
CONTINUOUS
 10
-3240.32
 20
2966.90285714286
  0
VERTEX
  8
1
 62
7
  6
CONTINUOUS
 10
-3247.2
 20
2972.8
  0
VERTEX
  8
1
 62
7
  6
CONTINUOUS
 10
-3309.6
 20
3022.4
  0
VERTEX
  8
1
 62
7
  6
CONTINUOUS
 10
-3356.8
 20
3026.4
  0
VERTEX
  8
1
 62
7
  6
CONTINUOUS
 10
-3374.4
 20
3024
  0
VERTEX
  8
1
 62
7
  6
CONTINUOUS
 10
-3393.6
 20
3012.8
  0
VERTEX
  8
1
 62
7
  6
CONTINUOUS
 10
-3416
 20
2987.2
  0
VERTEX
  8
1
 62
7
  6
CONTINUOUS
 10
-3427.2
 20
2956
  0
VERTEX
  8
1
 62
7
  6
CONTINUOUS
 10
-3425.6
 20
2924.8
  0
VERTEX
  8
1
 62
7
  6
CONTINUOUS
 10
-3400.52783505155
 20
2875.90927835052
  0
VERTEX
  8
1
 62
7
  6
CONTINUOUS
 10
-3352.8
 20
2860
  0
VERTEX
  8
1
 62
7
  6
CONTINUOUS
 10
-3338.4
 20
2852.8
  0
VERTEX
  8
1
 62
7
  6
CONTINUOUS
 10
-3329.6
 20
2844
  0
VERTEX
  8
1
 62
7
  6
CONTINUOUS
 10
-3323.2
 20
2834.4
  0
VERTEX
  8
1
 62
7
  6
CONTINUOUS
 10
-3320.8
 20
2824.8
  0
VERTEX
  8
1
 62
7
  6
CONTINUOUS
 10
-3320.8
 20
2809.67272727273
  0
VERTEX
  8
1
 62
7
  6
CONTINUOUS
 10
-3344.90666666667
 20
2728.58666666667
  0
VERTEX
  8
1
 62
7
  6
CONTINUOUS
 10
-3357.7
 20
2703
  0
VERTEX
  8
1
 62
7
  6
CONTINUOUS
 10
-3316
 20
2675.2
  0
VERTEX
  8
1
 62
7
  6
CONTINUOUS
 10
-3298.4
 20
2657.6
  0
VERTEX
  8
1
 62
7
  6
CONTINUOUS
 10
-3288
 20
2636.8
  0
VERTEX
  8
1
 62
7
  6
CONTINUOUS
 10
-3284.8380952381
 20
2627.31428571429
  0
VERTEX
  8
1
 62
7
  6
CONTINUOUS
 10
-3288.43333333333
 20
2623
  0
VERTEX
  8
1
 62
7
  6
CONTINUOUS
 10
-3295.675
 20
2579.55
  0
VERTEX
  8
1
 62
7
  6
CONTINUOUS
 10
-3304
 20
2559.2
  0
VERTEX
  8
1
 62
7
  6
CONTINUOUS
 10
-3317.6
 20
2532.8
  0
VERTEX
  8
1
 62
7
  6
CONTINUOUS
 10
-3330.85
 20
2511.6
  0
VERTEX
  8
1
 62
7
  6
CONTINUOUS
 10
-3345.03529411765
 20
2495.38823529412
  0
VERTEX
  8
1
 62
7
  6
CONTINUOUS
 10
-3368.7452991453
 20
2475.80170940171
  0
VERTEX
  8
1
 62
7
  6
CONTINUOUS
 10
-3408.42231759657
 20
2448.96137339056
  0
VERTEX
  8
1
 62
7
  6
CONTINUOUS
 10
-3452
 20
2435.2
  0
VERTEX
  8
1
 62
7
  6
CONTINUOUS
 10
-3476.07780548628
 20
2428.51172069825
  0
VERTEX
  8
1
 62
7
  6
CONTINUOUS
 10
-3488
 20
2392
  0
VERTEX
  8
1
 62
7
  6
CONTINUOUS
 10
-3490.4
 20
2372.8
  0
VERTEX
  8
1
 62
7
  6
CONTINUOUS
 10
-3476
 20
2344
  0
VERTEX
  8
1
 62
7
  6
CONTINUOUS
 10
-3465.6
 20
2318.00000000001
  0
VERTEX
  8
1
 62
7
  6
CONTINUOUS
 10
-3451.81913043478
 20
2255.98608695652
  0
VERTEX
  8
1
 62
7
  6
CONTINUOUS
 10
-3424.90322580645
 20
2233.65161290323
  0
VERTEX
  8
1
 62
7
  6
CONTINUOUS
 10
-3382.4
 20
2212.4
  0
VERTEX
  8
1
 62
7
  6
CONTINUOUS
 10
-3377.6
 20
2206.4
  0
VERTEX
  8
1
 62
7
  6
CONTINUOUS
 10
-3372.8
 20
2198
  0
VERTEX
  8
1
 62
7
  6
CONTINUOUS
 10
-3372.8
 20
2188.8
  0
VERTEX
  8
1
 62
7
  6
CONTINUOUS
 10
-3376.8
 20
2176.8
  0
VERTEX
  8
1
 62
7
  6
CONTINUOUS
 10
-3384.8
 20
2165.6
  0
VERTEX
  8
1
 62
7
  6
CONTINUOUS
 10
-3412
 20
2133.6
  0
VERTEX
  8
1
 62
7
  6
CONTINUOUS
 10
-3418.4
 20
2120
  0
VERTEX
  8
1
 62
7
  6
CONTINUOUS
 10
-3397.21481481482
 20
2033.62962962963
  0
VERTEX
  8
1
 62
7
  6
CONTINUOUS
 10
-3380
 20
1999.2
  0
VERTEX
  8
1
 62
7
  6
CONTINUOUS
 10
-3361.88936170213
 20
1953.92340425532
  0
VERTEX
  8
1
 62
7
  6
CONTINUOUS
 10
-3348.91428571429
 20
1932
  0
VERTEX
  8
1
 62
7
  6
CONTINUOUS
 10
-3304.40888888889
 20
1884.07111111111
  0
VERTEX
  8
1
 62
7
  6
CONTINUOUS
 10
-3292.27826086957
 20
1865.00869565217
  0
VERTEX
  8
1
 62
7
  6
CONTINUOUS
 10
-3286.25454545455
 20
1848.94545454545
  0
VERTEX
  8
1
 62
7
  6
CONTINUOUS
 10
-3280
 20
1820.8
  0
VERTEX
  8
1
 62
7
  6
CONTINUOUS
 10
-3260.22663438257
 20
1677.89249394673
  0
VERTEX
  8
1
 62
7
  6
CONTINUOUS
 10
-3258.95
 20
1644.7
  0
VERTEX
  8
1
 62
7
  6
CONTINUOUS
 10
-3265.6
 20
1604.8
  0
VERTEX
  8
1
 62
7
  6
CONTINUOUS
 10
-3265.6
 20
1595.73333333333
  0
VERTEX
  8
1
 62
7
  6
CONTINUOUS
 10
-3269.6
 20
1586.4
  0
VERTEX
  8
1
 62
7
  6
CONTINUOUS
 10
-3283.51538461538
 20
1563.20769230769
  0
VERTEX
  8
1
 62
7
  6
CONTINUOUS
 10
-3272.33333333333
 20
1526.46666666667
  0
VERTEX
  8
1
 62
7
  6
CONTINUOUS
 10
-3269.33333333333
 20
1511.46666666667
  0
VERTEX
  8
1
 62
7
  6
CONTINUOUS
 10
-3267.2
 20
1484.8
  0
VERTEX
  8
1
 62
7
  6
CONTINUOUS
 10
-3267.2
 20
1457.2
  0
VERTEX
  8
1
 62
7
  6
CONTINUOUS
 10
-3270.35294117647
 20
1430.4
  0
VERTEX
  8
1
 62
7
  6
CONTINUOUS
 10
-3274.98947368421
 20
1404.12631578947
  0
VERTEX
  8
1
 62
7
  6
CONTINUOUS
 10
-3280.8
 20
1389.6
  0
VERTEX
  8
1
 62
7
  6
CONTINUOUS
 10
-3292.09411764706
 20
1370.77647058824
  0
VERTEX
  8
1
 62
7
  6
CONTINUOUS
 10
-3318.39999999999
 20
1338.40000000001
  0
VERTEX
  8
1
 62
7
  6
CONTINUOUS
 10
-3335.66666666667
 20
1323.6
  0
VERTEX
  8
1
 62
7
  6
CONTINUOUS
 10
-3380.50731707317
 20
1299.14146341463
  0
VERTEX
  8
1
 62
7
  6
CONTINUOUS
 10
-3385.536
 20
1295.296
  0
VERTEX
  8
1
 62
7
  6
CONTINUOUS
 10
-3409.92
 20
1258.72
  0
VERTEX
  8
1
 62
7
  6
CONTINUOUS
 10
-3430.79999999999
 20
1233.20000000001
  0
VERTEX
  8
1
 62
7
  6
CONTINUOUS
 10
-3459.2
 20
1204.8
  0
VERTEX
  8
1
 62
7
  6
CONTINUOUS
 10
-3523.11631799163
 20
1123.71213389121
  0
VERTEX
  8
1
 62
7
  6
CONTINUOUS
 10
-3571.2
 20
1072.8
  0
SEQEND
  0
ENDSEC
  0
EOF
