  0
SECTION
  2
HEADER
  0
ENDSEC
  0
SECTION
  2
TABLES
  0
ENDSEC
  0
SECTION
  2
BLOCKS
  0
ENDSEC
  0
SECTION
  2
ENTITIES
  0
TEXT
  1
MARK_1
  8
72
 10
-3283.6
 20
2282
 11
-3283.6
 21
2282
 62
3
 40
8
 50
90
 72
0
 73
1
  0
TEXT
  1
MARK_2
  8
72
 10
-3286.8
 20
1118
 11
-3286.8
 21
1118
 62
3
 40
8
 50
90
 72
0
 73
1
  0
POLYLINE
  8
51
 62
7
 66
1
 70
1
  0
VERTEX
  8
51
 62
7
  6
CONTINUOUS
 10
-3031.46649600343
 20
2758.43494490465
  0
VERTEX
  8
51
 62
7
  6
CONTINUOUS
 10
-3030.33869227481
 20
2737.47770074152
  0
VERTEX
  8
51
 62
7
  6
CONTINUOUS
 10
-3026.81004565739
 20
2716.5458538114
  0
VERTEX
  8
51
 62
7
  6
CONTINUOUS
 10
-3018.75088693766
 20
2689.53700648396
  0
VERTEX
  8
51
 62
7
  6
CONTINUOUS
 10
-3009.98966438559
 20
2669.43270933211
  0
VERTEX
  8
51
 62
7
  6
CONTINUOUS
 10
-2999.32967637363
 20
2650.5074873698
  0
VERTEX
  8
51
 62
7
  6
CONTINUOUS
 10
-2986.61330741967
 20
2632.48504827788
  0
VERTEX
  8
51
 62
7
  6
CONTINUOUS
 10
-2972.35196708957
 20
2616.22126928096
  0
VERTEX
  8
51
 62
7
  6
CONTINUOUS
 10
-2952.24022850018
 20
2597.53236462132
  0
VERTEX
  8
51
 62
7
  6
CONTINUOUS
 10
-2936.72992573166
 20
2585.33146622016
  0
VERTEX
  8
51
 62
7
  6
CONTINUOUS
 10
-2910.13005174574
 20
2567.40412964982
  0
VERTEX
  8
51
 62
7
  6
CONTINUOUS
 10
-2864.21676088562
 20
2540.07120550262
  0
VERTEX
  8
51
 62
7
  6
CONTINUOUS
 10
-2838.86046208532
 20
2527.09461765457
  0
VERTEX
  8
51
 62
7
  6
CONTINUOUS
 10
-2819.96773537468
 20
2519.5520481211
  0
VERTEX
  8
51
 62
7
  6
CONTINUOUS
 10
-2801.7090447507
 20
2514.43550761151
  0
VERTEX
  8
51
 62
7
  6
CONTINUOUS
 10
-2790.21414354425
 20
2512.36966596552
  0
VERTEX
  8
51
 62
7
  6
CONTINUOUS
 10
-2779.2314520634
 20
2511.4006632666
  0
VERTEX
  8
51
 62
7
  6
CONTINUOUS
 10
-2769.2118887129
 20
2511.68619463538
  0
VERTEX
  8
51
 62
7
  6
CONTINUOUS
 10
-2760.02897785197
 20
2513.05538729754
  0
VERTEX
  8
51
 62
7
  6
CONTINUOUS
 10
-2747.55650503344
 20
2516.97413871559
  0
VERTEX
  8
51
 62
7
  6
CONTINUOUS
 10
-2739.83080517856
 20
2520.78049163861
  0
VERTEX
  8
51
 62
7
  6
CONTINUOUS
 10
-2733.12270146517
 20
2525.58645854965
  0
VERTEX
  8
51
 62
7
  6
CONTINUOUS
 10
-2727.11909071724
 20
2531.45634541984
  0
VERTEX
  8
51
 62
7
  6
CONTINUOUS
 10
-2721.9082435051
 20
2538.11580850936
  0
VERTEX
  8
51
 62
7
  6
CONTINUOUS
 10
-2717.600049498
 20
2545.79715941526
  0
VERTEX
  8
51
 62
7
  6
CONTINUOUS
 10
-2714.25831862087
 20
2554.16955920575
  0
VERTEX
  8
51
 62
7
  6
CONTINUOUS
 10
-2709.90725604361
 20
2573.13576482942
  0
VERTEX
  8
51
 62
7
  6
CONTINUOUS
 10
-2708.30703260477
 20
2588.7729792429
  0
VERTEX
  8
51
 62
7
  6
CONTINUOUS
 10
-2708.06351793634
 20
2599.96019993095
  0
VERTEX
  8
51
 62
7
  6
CONTINUOUS
 10
-2709.38896434124
 20
2635.23066801374
  0
VERTEX
  8
51
 62
7
  6
CONTINUOUS
 10
-2710.22934632698
 20
2641.45900364178
  0
VERTEX
  8
51
 62
7
  6
CONTINUOUS
 10
-2714.34716803082
 20
2653.85093463106
  0
VERTEX
  8
51
 62
7
  6
CONTINUOUS
 10
-2720.26443009369
 20
2682.5437170046
  0
VERTEX
  8
51
 62
7
  6
CONTINUOUS
 10
-2968.27283415937
 20
2861.85419259623
  0
VERTEX
  8
51
 62
7
  6
CONTINUOUS
 10
-2974.92396895425
 20
2861.44990200837
  0
VERTEX
  8
51
 62
7
  6
CONTINUOUS
 10
-2982.35283196407
 20
2859.51877464562
  0
VERTEX
  8
51
 62
7
  6
CONTINUOUS
 10
-2990.44795269823
 20
2855.29941125201
  0
VERTEX
  8
51
 62
7
  6
CONTINUOUS
 10
-2996.02359779766
 20
2850.99071508895
  0
VERTEX
  8
51
 62
7
  6
CONTINUOUS
 10
-3001.93995075723
 20
2844.84735580023
  0
VERTEX
  8
51
 62
7
  6
CONTINUOUS
 10
-3007.65762562157
 20
2837.22916936162
  0
VERTEX
  8
51
 62
7
  6
CONTINUOUS
 10
-3018.3851268275
 20
2818.60143789696
  0
VERTEX
  8
51
 62
7
  6
CONTINUOUS
 10
-3024.83907339516
 20
2802.56397777807
  0
VERTEX
  8
51
 62
7
  6
CONTINUOUS
 10
-3027.92332764006
 20
2791.08365020551
  0
VERTEX
  8
51
 62
7
  6
CONTINUOUS
 10
-3030.2027201593
 20
2778.41540457238
  0
SEQEND
  0
POLYLINE
  8
51
 62
7
 66
1
 70
1
  0
VERTEX
  8
51
 62
7
  6
CONTINUOUS
 10
-1625.17071159152
 20
1590.10403660915
  0
VERTEX
  8
51
 62
7
  6
CONTINUOUS
 10
-1625.15455258464
 20
1589.8651810175
  0
VERTEX
  8
51
 62
7
  6
CONTINUOUS
 10
-1622.80720401461
 20
1555.16766922011
  0
VERTEX
  8
51
 62
7
  6
CONTINUOUS
 10
-1618.98327475741
 20
1533.45273729431
  0
VERTEX
  8
51
 62
7
  6
CONTINUOUS
 10
-1613.37517891318
 20
1512.97062690423
  0
VERTEX
  8
51
 62
7
  6
CONTINUOUS
 10
-1602.86050612568
 20
1485.95669496644
  0
VERTEX
  8
51
 62
7
  6
CONTINUOUS
 10
-1589.61525592013
 20
1456.38856795268
  0
VERTEX
  8
51
 62
7
  6
CONTINUOUS
 10
-1570.41484298517
 20
1417.59609693633
  0
VERTEX
  8
51
 62
7
  6
CONTINUOUS
 10
-1557.91364756036
 20
1394.26100961685
  0
VERTEX
  8
51
 62
7
  6
CONTINUOUS
 10
-1535.29916834148
 20
1354.59562388732
  0
VERTEX
  8
51
 62
7
  6
CONTINUOUS
 10
-1515.55356317703
 20
1322.1208031546
  0
VERTEX
  8
51
 62
7
  6
CONTINUOUS
 10
-1515.52619038792
 20
1322.07578420423
  0
VERTEX
  8
51
 62
7
  6
CONTINUOUS
 10
-1515.49787500752
 20
1322.03135206824
  0
VERTEX
  8
51
 62
7
  6
CONTINUOUS
 10
-1473.96579873519
 20
1256.85974445887
  0
VERTEX
  8
51
 62
7
  6
CONTINUOUS
 10
-1473.93555845991
 20
1256.81229180225
  0
VERTEX
  8
51
 62
7
  6
CONTINUOUS
 10
-1446.9020664812
 20
1216.42676665201
  0
VERTEX
  8
51
 62
7
  6
CONTINUOUS
 10
-1446.86682760423
 20
1216.37412304411
  0
VERTEX
  8
51
 62
7
  6
CONTINUOUS
 10
-1446.83026627969
 20
1216.32238913403
  0
VERTEX
  8
51
 62
7
  6
CONTINUOUS
 10
-1406.94855233998
 20
1159.89016112172
  0
VERTEX
  8
51
 62
7
  6
CONTINUOUS
 10
-1388.45397081807
 20
1135.31202814006
  0
VERTEX
  8
51
 62
7
  6
CONTINUOUS
 10
-1369.4291046836
 20
1112.77396244837
  0
VERTEX
  8
51
 62
7
  6
CONTINUOUS
 10
-1347.84819386452
 20
1090.28346900006
  0
VERTEX
  8
51
 62
7
  6
CONTINUOUS
 10
-1328.91990049333
 20
1074.17681887165
  0
VERTEX
  8
51
 62
7
  6
CONTINUOUS
 10
-1322.43930590943
 20
1081.79271631313
  0
VERTEX
  8
51
 62
7
  6
CONTINUOUS
 10
-1340.98266757174
 20
1097.57181655436
  0
VERTEX
  8
51
 62
7
  6
CONTINUOUS
 10
-1361.99307347543
 20
1119.46775969989
  0
VERTEX
  8
51
 62
7
  6
CONTINUOUS
 10
-1380.63184875718
 20
1141.54843762652
  0
VERTEX
  8
51
 62
7
  6
CONTINUOUS
 10
-1398.86828408421
 20
1165.78351058821
  0
VERTEX
  8
51
 62
7
  6
CONTINUOUS
 10
-1438.62724563365
 20
1222.04204519087
  0
VERTEX
  8
51
 62
7
  6
CONTINUOUS
 10
-1465.56289767258
 20
1262.28140656204
  0
VERTEX
  8
51
 62
7
  6
CONTINUOUS
 10
-1507.03641828924
 20
1327.36112937879
  0
VERTEX
  8
51
 62
7
  6
CONTINUOUS
 10
-1526.68156345435
 20
1359.67072749907
  0
VERTEX
  8
51
 62
7
  6
CONTINUOUS
 10
-1549.1611077368
 20
1399.09943980136
  0
VERTEX
  8
51
 62
7
  6
CONTINUOUS
 10
-1561.52400888529
 20
1422.17638308709
  0
VERTEX
  8
51
 62
7
  6
CONTINUOUS
 10
-1580.56767567891
 20
1460.65216455276
  0
VERTEX
  8
51
 62
7
  6
CONTINUOUS
 10
-1593.63217428713
 20
1489.81678947295
  0
VERTEX
  8
51
 62
7
  6
CONTINUOUS
 10
-1603.86754405395
 20
1516.11314579589
  0
VERTEX
  8
51
 62
7
  6
CONTINUOUS
 10
-1609.21546415996
 20
1535.64503202092
  0
VERTEX
  8
51
 62
7
  6
CONTINUOUS
 10
-1612.86607427389
 20
1556.37573721435
  0
VERTEX
  8
51
 62
7
  6
CONTINUOUS
 10
-1615.16119914512
 20
1590.30130042755
  0
VERTEX
  8
51
 62
7
  6
CONTINUOUS
 10
-1614.42068261731
 20
1616.61102186029
  0
VERTEX
  8
51
 62
7
  6
CONTINUOUS
 10
-1611.928228452
 20
1644.42147300612
  0
VERTEX
  8
51
 62
7
  6
CONTINUOUS
 10
-1608.49216471527
 20
1666.31814017286
  0
VERTEX
  8
51
 62
7
  6
CONTINUOUS
 10
-1603.4695207096
 20
1687.75858794147
  0
VERTEX
  8
51
 62
7
  6
CONTINUOUS
 10
-1596.68383678313
 20
1709.0862646553
  0
VERTEX
  8
51
 62
7
  6
CONTINUOUS
 10
-1585.22696871184
 20
1736.60449207212
  0
VERTEX
  8
51
 62
7
  6
CONTINUOUS
 10
-1548.12830449322
 20
1816.73648988164
  0
VERTEX
  8
51
 62
7
  6
CONTINUOUS
 10
-1529.25853252581
 20
1854.00545481556
  0
VERTEX
  8
51
 62
7
  6
CONTINUOUS
 10
-1508.365996567
 20
1891.74611514507
  0
VERTEX
  8
51
 62
7
  6
CONTINUOUS
 10
-1475.2787054338
 20
1947.0579237491
  0
VERTEX
  8
51
 62
7
  6
CONTINUOUS
 10
-1451.58523880155
 20
1984.75495639557
  0
VERTEX
  8
51
 62
7
  6
CONTINUOUS
 10
-1420.063616564
 20
2031.8815700549
  0
VERTEX
  8
51
 62
7
  6
CONTINUOUS
 10
-1387.20709957823
 20
2077.32810970258
  0
VERTEX
  8
51
 62
7
  6
CONTINUOUS
 10
-1356.90776136212
 20
2115.31127851787
  0
VERTEX
  8
51
 62
7
  6
CONTINUOUS
 10
-1346.89226814355
 20
2127.08451008018
  0
VERTEX
  8
51
 62
7
  6
CONTINUOUS
 10
-1335.01407623247
 20
2139.37981633025
  0
VERTEX
  8
51
 62
7
  6
CONTINUOUS
 10
-1327.18317646431
 20
2149.51368416066
  0
VERTEX
  8
51
 62
7
  6
CONTINUOUS
 10
-1322.37541200699
 20
2153.48331481888
  0
VERTEX
  8
51
 62
7
  6
CONTINUOUS
 10
-1322.16801625924
 20
2153.70136006023
  0
VERTEX
  8
51
 62
7
  6
CONTINUOUS
 10
-1296.8971489969
 20
2180.26985247724
  0
VERTEX
  8
51
 62
7
  6
CONTINUOUS
 10
-1268.94129912436
 20
2207.51641946096
  0
VERTEX
  8
51
 62
7
  6
CONTINUOUS
 10
-1275.92093633364
 20
2214.67775065194
  0
VERTEX
  8
51
 62
7
  6
CONTINUOUS
 10
-1303.94460225576
 20
2187.36508821607
  0
VERTEX
  8
51
 62
7
  6
CONTINUOUS
 10
-1304.01241830534
 20
2187.29899276393
  0
VERTEX
  8
51
 62
7
  6
CONTINUOUS
 10
-1304.07768298731
 20
2187.23037682802
  0
VERTEX
  8
51
 62
7
  6
CONTINUOUS
 10
-1329.20641918388
 20
2160.81131371647
  0
VERTEX
  8
51
 62
7
  6
CONTINUOUS
 10
-1334.41228058116
 20
2156.51298604495
  0
VERTEX
  8
51
 62
7
  6
CONTINUOUS
 10
-1342.58946527743
 20
2145.93099529162
  0
VERTEX
  8
51
 62
7
  6
CONTINUOUS
 10
-1354.30406144909
 20
2133.80502960554
  0
VERTEX
  8
51
 62
7
  6
CONTINUOUS
 10
-1364.62678070575
 20
2121.67065324393
  0
VERTEX
  8
51
 62
7
  6
CONTINUOUS
 10
-1364.67598838239
 20
2121.60896663297
  0
VERTEX
  8
51
 62
7
  6
CONTINUOUS
 10
-1395.17223914375
 20
2083.37894878107
  0
VERTEX
  8
51
 62
7
  6
CONTINUOUS
 10
-1428.27431802553
 20
2037.59275236308
  0
VERTEX
  8
51
 62
7
  6
CONTINUOUS
 10
-1459.97622328444
 20
1990.19660535827
  0
VERTEX
  8
51
 62
7
  6
CONTINUOUS
 10
-1483.77457263094
 20
1952.33270109421
  0
VERTEX
  8
51
 62
7
  6
CONTINUOUS
 10
-1483.80389107839
 20
1952.28605454443
  0
VERTEX
  8
51
 62
7
  6
CONTINUOUS
 10
-1483.83217453303
 20
1952.23877327794
  0
VERTEX
  8
51
 62
7
  6
CONTINUOUS
 10
-1517.03375203977
 20
1896.73591288929
  0
VERTEX
  8
51
 62
7
  6
CONTINUOUS
 10
-1538.09680270349
 20
1858.68723166792
  0
VERTEX
  8
51
 62
7
  6
CONTINUOUS
 10
-1557.12921392607
 20
1821.0970441613
  0
VERTEX
  8
51
 62
7
  6
CONTINUOUS
 10
-1557.16608258264
 20
1821.0174089731
  0
VERTEX
  8
51
 62
7
  6
CONTINUOUS
 10
-1594.34266328016
 20
1740.7171139149
  0
VERTEX
  8
51
 62
7
  6
CONTINUOUS
 10
-1594.3837111025
 20
1740.62845185445
  0
VERTEX
  8
51
 62
7
  6
CONTINUOUS
 10
-1605.99882922306
 20
1712.73012397582
  0
VERTEX
  8
51
 62
7
  6
CONTINUOUS
 10
-1606.08197369517
 20
1712.53041944249
  0
VERTEX
  8
51
 62
7
  6
CONTINUOUS
 10
-1613.11701907242
 20
1690.41898968846
  0
VERTEX
  8
51
 62
7
  6
CONTINUOUS
 10
-1618.31352960696
 20
1668.23634792266
  0
VERTEX
  8
51
 62
7
  6
CONTINUOUS
 10
-1621.85871935308
 20
1645.64426411356
  0
VERTEX
  8
51
 62
7
  6
CONTINUOUS
 10
-1621.87351339377
 20
1645.47919429933
  0
VERTEX
  8
51
 62
7
  6
CONTINUOUS
 10
-1624.40810556117
 20
1617.19857328456
  0
SEQEND
  0
POLYLINE
  8
51
 62
7
 66
1
 70
1
  0
VERTEX
  8
51
 62
7
  6
CONTINUOUS
 10
-1507.6309913998
 20
1600.63057737558
  0
VERTEX
  8
51
 62
7
  6
CONTINUOUS
 10
-1505.99212686621
 20
1593.47985066678
  0
VERTEX
  8
51
 62
7
  6
CONTINUOUS
 10
-1503.3461601464
 20
1573.27586740871
  0
VERTEX
  8
51
 62
7
  6
CONTINUOUS
 10
-1494.46829139866
 20
1546.96472404637
  0
VERTEX
  8
51
 62
7
  6
CONTINUOUS
 10
-1487.14101456328
 20
1527.27462173192
  0
VERTEX
  8
51
 62
7
  6
CONTINUOUS
 10
-1481.02926601547
 20
1513.36804983388
  0
VERTEX
  8
51
 62
7
  6
CONTINUOUS
 10
-1465.5234727972
 20
1485.15534395515
  0
VERTEX
  8
51
 62
7
  6
CONTINUOUS
 10
-1446.16713595682
 20
1457.67109956674
  0
VERTEX
  8
51
 62
7
  6
CONTINUOUS
 10
-1417.16595211932
 20
1422.33461672589
  0
VERTEX
  8
51
 62
7
  6
CONTINUOUS
 10
-1388.87852011924
 20
1391.9299939056
  0
VERTEX
  8
51
 62
7
  6
CONTINUOUS
 10
-1365.503346646
 20
1369.0696670657
  0
VERTEX
  8
51
 62
7
  6
CONTINUOUS
 10
-1339.7654327151
 20
1347.46176814778
  0
VERTEX
  8
51
 62
7
  6
CONTINUOUS
 10
-1303.09991503849
 20
1319.94606303021
  0
VERTEX
  8
51
 62
7
  6
CONTINUOUS
 10
-1258.94363494784
 20
1290.18594663805
  0
VERTEX
  8
51
 62
7
  6
CONTINUOUS
 10
-1227.07810647438
 20
1271.10876775124
  0
VERTEX
  8
51
 62
7
  6
CONTINUOUS
 10
-1199.12185869857
 20
1256.13827313335
  0
VERTEX
  8
51
 62
7
  6
CONTINUOUS
 10
-1156.22801009421
 20
1235.66886342431
  0
VERTEX
  8
51
 62
7
  6
CONTINUOUS
 10
-1119.41060744774
 20
1220.96841953556
  0
VERTEX
  8
51
 62
7
  6
CONTINUOUS
 10
-1089.29224067692
 20
1211.38509131055
  0
SEQEND
  0
POLYLINE
  8
51
 62
7
 66
1
 70
1
  0
VERTEX
  8
51
 62
7
  6
CONTINUOUS
 10
-1919.87488796655
 20
754.560442491985
  0
VERTEX
  8
51
 62
7
  6
CONTINUOUS
 10
-1917.14645112519
 20
721.1326813955
  0
VERTEX
  8
51
 62
7
  6
CONTINUOUS
 10
-1914.87213488336
 20
707.732469916492
  0
VERTEX
  8
51
 62
7
  6
CONTINUOUS
 10
-1910.24081527499
 20
688.207579666811
  0
VERTEX
  8
51
 62
7
  6
CONTINUOUS
 10
-1901.56445305335
 20
663.893398788953
  0
VERTEX
  8
51
 62
7
  6
CONTINUOUS
 10
-1895.90308505422
 20
652.298758336862
  0
VERTEX
  8
51
 62
7
  6
CONTINUOUS
 10
-1886.53296532098
 20
636.496635818692
  0
VERTEX
  8
51
 62
7
  6
CONTINUOUS
 10
-1871.18267696103
 20
617.613116837012
  0
VERTEX
  8
51
 62
7
  6
CONTINUOUS
 10
-1852.84613795277
 20
600.802476852157
  0
VERTEX
  8
51
 62
7
  6
CONTINUOUS
 10
-1831.22463884046
 20
586.159783249969
  0
VERTEX
  8
51
 62
7
  6
CONTINUOUS
 10
-1819.40326156294
 20
579.880728112026
  0
VERTEX
  8
51
 62
7
  6
CONTINUOUS
 10
-1806.91342060921
 20
574.470769109397
  0
VERTEX
  8
51
 62
7
  6
CONTINUOUS
 10
-1794.25761798017
 20
570.082306941686
  0
VERTEX
  8
51
 62
7
  6
CONTINUOUS
 10
-1781.24233876593
 20
566.643715548506
  0
VERTEX
  8
51
 62
7
  6
CONTINUOUS
 10
-1754.28401001101
 20
561.930856867501
  0
VERTEX
  8
51
 62
7
  6
CONTINUOUS
 10
-1749.35972031046
 20
560.291039123108
  0
VERTEX
  8
51
 62
7
  6
CONTINUOUS
 10
-1706.11328766613
 20
558.986763167569
  0
VERTEX
  8
51
 62
7
  6
CONTINUOUS
 10
-1675.54321758341
 20
560.484827809649
  0
VERTEX
  8
51
 62
7
  6
CONTINUOUS
 10
-1660.49873591238
 20
562.892547142737
  0
VERTEX
  8
51
 62
7
  6
CONTINUOUS
 10
-1646.40294859792
 20
566.49929647406
  0
VERTEX
  8
51
 62
7
  6
CONTINUOUS
 10
-1676.63297067789
 20
721.635245723315
  0
VERTEX
  8
51
 62
7
  6
CONTINUOUS
 10
-1683.22824178644
 20
734.188997051885
  0
VERTEX
  8
51
 62
7
  6
CONTINUOUS
 10
-1690.82388431934
 20
745.08458079825
  0
VERTEX
  8
51
 62
7
  6
CONTINUOUS
 10
-1707.01185051931
 20
763.128097861054
  0
VERTEX
  8
51
 62
7
  6
CONTINUOUS
 10
-1721.88645198736
 20
777.503648416018
  0
VERTEX
  8
51
 62
7
  6
CONTINUOUS
 10
-1754.15069468854
 20
802.762611648352
  0
VERTEX
  8
51
 62
7
  6
CONTINUOUS
 10
-1816.846929928
 20
845.269941734974
  0
VERTEX
  8
51
 62
7
  6
CONTINUOUS
 10
-1836.1346161059
 20
857.365326522196
  0
VERTEX
  8
51
 62
7
  6
CONTINUOUS
 10
-1847.301250469
 20
863.080461960431
  0
VERTEX
  8
51
 62
7
  6
CONTINUOUS
 10
-1861.16138251362
 20
868.329066112995
  0
VERTEX
  8
51
 62
7
  6
CONTINUOUS
 10
-1870.91084168091
 20
870.177577825124
  0
VERTEX
  8
51
 62
7
  6
CONTINUOUS
 10
-1876.9006330183
 20
870.085719665772
  0
VERTEX
  8
51
 62
7
  6
CONTINUOUS
 10
-1885.38709862912
 20
867.378012266413
  0
VERTEX
  8
51
 62
7
  6
CONTINUOUS
 10
-1890.73640801713
 20
863.727136746976
  0
VERTEX
  8
51
 62
7
  6
CONTINUOUS
 10
-1895.66701299778
 20
858.610006894623
  0
VERTEX
  8
51
 62
7
  6
CONTINUOUS
 10
-1902.61406340442
 20
848.650454188559
  0
VERTEX
  8
51
 62
7
  6
CONTINUOUS
 10
-1908.48768774253
 20
836.309800283542
  0
VERTEX
  8
51
 62
7
  6
CONTINUOUS
 10
-1911.82638040801
 20
826.729214025926
  0
VERTEX
  8
51
 62
7
  6
CONTINUOUS
 10
-1915.85127130044
 20
810.477805420912
  0
VERTEX
  8
51
 62
7
  6
CONTINUOUS
 10
-1918.48658523289
 20
792.932679370212
  0
VERTEX
  8
51
 62
7
  6
CONTINUOUS
 10
-1919.82302490586
 20
774.133936021625
  0
SEQEND
  0
POLYLINE
  8
51
 62
7
 66
1
 70
1
  0
VERTEX
  8
51
 62
7
  6
CONTINUOUS
 10
-1404.70639288358
 20
2055.74667173275
  0
VERTEX
  8
51
 62
7
  6
CONTINUOUS
 10
-1401.69392447973
 20
2027.66074149029
  0
VERTEX
  8
51
 62
7
  6
CONTINUOUS
 10
-1396.59634730738
 20
2000.86013552336
  0
VERTEX
  8
51
 62
7
  6
CONTINUOUS
 10
-1388.10775310686
 20
1971.48386227097
  0
VERTEX
  8
51
 62
7
  6
CONTINUOUS
 10
-1379.49532042254
 20
1948.41044510035
  0
VERTEX
  8
51
 62
7
  6
CONTINUOUS
 10
-1365.2264928151
 20
1917.31023978072
  0
VERTEX
  8
51
 62
7
  6
CONTINUOUS
 10
-1347.82462454825
 20
1885.01479952221
  0
VERTEX
  8
51
 62
7
  6
CONTINUOUS
 10
-1327.90915177162
 20
1850.70455943731
  0
VERTEX
  8
51
 62
7
  6
CONTINUOUS
 10
-1304.98255793981
 20
1815.63677384255
  0
VERTEX
  8
51
 62
7
  6
CONTINUOUS
 10
-1285.68129601613
 20
1790.05378685817
  0
VERTEX
  8
51
 62
7
  6
CONTINUOUS
 10
-1265.02456303988
 20
1766.17535681456
  0
VERTEX
  8
51
 62
7
  6
CONTINUOUS
 10
-1243.82780020118
 20
1743.95141603833
  0
VERTEX
  8
51
 62
7
  6
CONTINUOUS
 10
-1222.33609930202
 20
1723.96277217688
  0
VERTEX
  8
51
 62
7
  6
CONTINUOUS
 10
-1193.61036535917
 20
1700.24004655487
  0
VERTEX
  8
51
 62
7
  6
CONTINUOUS
 10
-1173.29886934235
 20
1685.00790933193
  0
VERTEX
  8
51
 62
7
  6
CONTINUOUS
 10
-1154.59016961407
 20
1672.19798091866
  0
VERTEX
  8
51
 62
7
  6
CONTINUOUS
 10
-1127.28280784611
 20
1655.40102501793
  0
SEQEND
  0
POLYLINE
  8
51
 62
7
 66
1
 70
1
  0
VERTEX
  8
51
 62
7
  6
CONTINUOUS
 10
-1845.46915476604
 20
2529.80443955908
  0
VERTEX
  8
51
 62
7
  6
CONTINUOUS
 10
-1845.03650651396
 20
2513.90917077528
  0
VERTEX
  8
51
 62
7
  6
CONTINUOUS
 10
-1843.56496328967
 20
2498.43621360873
  0
VERTEX
  8
51
 62
7
  6
CONTINUOUS
 10
-1841.19465068688
 20
2483.60505372948
  0
VERTEX
  8
51
 62
7
  6
CONTINUOUS
 10
-1837.86253064256
 20
2469.80691996039
  0
VERTEX
  8
51
 62
7
  6
CONTINUOUS
 10
-1829.1610159446
 20
2446.09942427844
  0
VERTEX
  8
51
 62
7
  6
CONTINUOUS
 10
-1823.41649566817
 20
2435.79608069228
  0
VERTEX
  8
51
 62
7
  6
CONTINUOUS
 10
-1816.72600761719
 20
2426.78632241877
  0
VERTEX
  8
51
 62
7
  6
CONTINUOUS
 10
-1809.46218249759
 20
2419.13796185419
  0
VERTEX
  8
51
 62
7
  6
CONTINUOUS
 10
-1801.77310086901
 20
2412.90522690803
  0
VERTEX
  8
51
 62
7
  6
CONTINUOUS
 10
-1789.71615394198
 20
2406.69721746798
  0
VERTEX
  8
51
 62
7
  6
CONTINUOUS
 10
-1781.25620000901
 20
2404.46878938358
  0
VERTEX
  8
51
 62
7
  6
CONTINUOUS
 10
-1772.5830062243
 20
2403.72115180187
  0
VERTEX
  8
51
 62
7
  6
CONTINUOUS
 10
-1759.02394459771
 20
2404.82429130646
  0
VERTEX
  8
51
 62
7
  6
CONTINUOUS
 10
-1744.82687880518
 20
2408.00944073025
  0
VERTEX
  8
51
 62
7
  6
CONTINUOUS
 10
-1724.8714809577
 20
2414.88812453768
  0
VERTEX
  8
51
 62
7
  6
CONTINUOUS
 10
-1710.07187162487
 20
2422.05077486054
  0
VERTEX
  8
51
 62
7
  6
CONTINUOUS
 10
-1687.69212082636
 20
2435.57883418926
  0
VERTEX
  8
51
 62
7
  6
CONTINUOUS
 10
-1671.82252377946
 20
2447.76199377768
  0
VERTEX
  8
51
 62
7
  6
CONTINUOUS
 10
-1660.95992328426
 20
2459.34821705015
  0
VERTEX
  8
51
 62
7
  6
CONTINUOUS
 10
-1659.32665998409
 20
2468.97632943806
  0
VERTEX
  8
51
 62
7
  6
CONTINUOUS
 10
-1656.45620377119
 20
2474.86444371558
  0
VERTEX
  8
51
 62
7
  6
CONTINUOUS
 10
-1785.5226770844
 20
2725.4422693675
  0
VERTEX
  8
51
 62
7
  6
CONTINUOUS
 10
-1794.02883716832
 20
2711.94159215524
  0
VERTEX
  8
51
 62
7
  6
CONTINUOUS
 10
-1803.25770617976
 20
2694.33199296415
  0
VERTEX
  8
51
 62
7
  6
CONTINUOUS
 10
-1817.80049690806
 20
2660.59672061836
  0
VERTEX
  8
51
 62
7
  6
CONTINUOUS
 10
-1830.84639572014
 20
2618.62621165503
  0
VERTEX
  8
51
 62
7
  6
CONTINUOUS
 10
-1837.99676543745
 20
2589.8588113666
  0
VERTEX
  8
51
 62
7
  6
CONTINUOUS
 10
-1842.14381866447
 20
2568.07054847442
  0
VERTEX
  8
51
 62
7
  6
CONTINUOUS
 10
-1844.08272547839
 20
2553.10092779764
  0
SEQEND
  0
POLYLINE
  8
51
 62
7
 66
1
 70
1
  0
VERTEX
  8
51
 62
7
  6
CONTINUOUS
 10
-1506.22155177366
 20
1286.1659791826
  0
VERTEX
  8
51
 62
7
  6
CONTINUOUS
 10
-1118.26475090287
 20
1519.9031496289
  0
VERTEX
  8
51
 62
7
  6
CONTINUOUS
 10
-1184.76972849943
 20
1493.42441000685
  0
VERTEX
  8
51
 62
7
  6
CONTINUOUS
 10
-1222.50916172441
 20
1476.92034619661
  0
VERTEX
  8
51
 62
7
  6
CONTINUOUS
 10
-1254.90357158959
 20
1460.69355842828
  0
VERTEX
  8
51
 62
7
  6
CONTINUOUS
 10
-1297.45326302649
 20
1438.01333412112
  0
VERTEX
  8
51
 62
7
  6
CONTINUOUS
 10
-1350.05323650811
 20
1408.6261756531
  0
VERTEX
  8
51
 62
7
  6
CONTINUOUS
 10
-1407.70580486123
 20
1371.45459956705
  0
VERTEX
  8
51
 62
7
  6
CONTINUOUS
 10
-1437.36899878588
 20
1350.0464075211
  0
VERTEX
  8
51
 62
7
  6
CONTINUOUS
 10
-1463.33853693574
 20
1328.51777495042
  0
VERTEX
  8
51
 62
7
  6
CONTINUOUS
 10
-1480.11797880578
 20
1313.42087076711
  0
VERTEX
  8
51
 62
7
  6
CONTINUOUS
 10
-1494.39638497333
 20
1299.44225427119
  0
SEQEND
  0
POLYLINE
  8
51
 62
7
 66
1
 70
1
  0
VERTEX
  8
51
 62
7
  6
CONTINUOUS
 10
-2888.80922663927
 20
1417.80742227184
  0
VERTEX
  8
51
 62
7
  6
CONTINUOUS
 10
-2879.07313908476
 20
1415.52518671629
  0
VERTEX
  8
51
 62
7
  6
CONTINUOUS
 10
-2874.2826548344
 20
1435.96154087641
  0
VERTEX
  8
51
 62
7
  6
CONTINUOUS
 10
-2873.13179439357
 20
1449.66708740102
  0
VERTEX
  8
51
 62
7
  6
CONTINUOUS
 10
-2873.1668057649
 20
1450.08499424304
  0
VERTEX
  8
51
 62
7
  6
CONTINUOUS
 10
-2877.63033118045
 20
1503.36305047344
  0
VERTEX
  8
51
 62
7
  6
CONTINUOUS
 10
-2887.59542113168
 20
1502.52819583698
  0
VERTEX
  8
51
 62
7
  6
CONTINUOUS
 10
-2883.16690708746
 20
1449.66804644859
  0
VERTEX
  8
51
 62
7
  6
CONTINUOUS
 10
-2884.18619146555
 20
1437.52943348555
  0
SEQEND
  0
POLYLINE
  8
51
 62
7
 66
1
 70
1
  0
VERTEX
  8
51
 62
7
  6
CONTINUOUS
 10
-2904.29912925226
 20
553.36056968065
  0
VERTEX
  8
51
 62
7
  6
CONTINUOUS
 10
-2902.94492438073
 20
536.901994662944
  0
VERTEX
  8
51
 62
7
  6
CONTINUOUS
 10
-2900.49308999809
 20
526.183050880944
  0
VERTEX
  8
51
 62
7
  6
CONTINUOUS
 10
-2894.73778883968
 20
510.511849860544
  0
VERTEX
  8
51
 62
7
  6
CONTINUOUS
 10
-2886.17103878291
 20
495.895321449875
  0
VERTEX
  8
51
 62
7
  6
CONTINUOUS
 10
-2879.03850114822
 20
486.885349942311
  0
VERTEX
  8
51
 62
7
  6
CONTINUOUS
 10
-2856.37393223378
 20
466.093090105261
  0
VERTEX
  8
51
 62
7
  6
CONTINUOUS
 10
-2637.16364250014
 20
603.265686405288
  0
VERTEX
  8
51
 62
7
  6
CONTINUOUS
 10
-2639.13860651755
 20
619.060245483543
  0
VERTEX
  8
51
 62
7
  6
CONTINUOUS
 10
-2645.95906283362
 20
642.65217069236
  0
VERTEX
  8
51
 62
7
  6
CONTINUOUS
 10
-2653.04800961265
 20
661.394474790894
  0
VERTEX
  8
51
 62
7
  6
CONTINUOUS
 10
-2657.95822972583
 20
670.152180007769
  0
VERTEX
  8
51
 62
7
  6
CONTINUOUS
 10
-2666.06213028608
 20
681.829877440437
  0
VERTEX
  8
51
 62
7
  6
CONTINUOUS
 10
-2674.77337162828
 20
690.896758898786
  0
VERTEX
  8
51
 62
7
  6
CONTINUOUS
 10
-2684.7431693626
 20
697.155148357485
  0
VERTEX
  8
51
 62
7
  6
CONTINUOUS
 10
-2698.29970463512
 20
702.264377838444
  0
VERTEX
  8
51
 62
7
  6
CONTINUOUS
 10
-2708.71667963063
 20
704.368101285156
  0
VERTEX
  8
51
 62
7
  6
CONTINUOUS
 10
-2719.06000909488
 20
704.98668367887
  0
VERTEX
  8
51
 62
7
  6
CONTINUOUS
 10
-2735.54069968512
 20
703.603853801765
  0
VERTEX
  8
51
 62
7
  6
CONTINUOUS
 10
-2746.86914403196
 20
701.425230504635
  0
VERTEX
  8
51
 62
7
  6
CONTINUOUS
 10
-2770.05216630223
 20
695.006165193549
  0
VERTEX
  8
51
 62
7
  6
CONTINUOUS
 10
-2808.22156956436
 20
682.760356500513
  0
VERTEX
  8
51
 62
7
  6
CONTINUOUS
 10
-2827.47996225062
 20
674.839429662264
  0
VERTEX
  8
51
 62
7
  6
CONTINUOUS
 10
-2839.14485727696
 20
668.122378588196
  0
VERTEX
  8
51
 62
7
  6
CONTINUOUS
 10
-2849.84352232652
 20
660.252099315579
  0
VERTEX
  8
51
 62
7
  6
CONTINUOUS
 10
-2864.09466405639
 20
647.060600050545
  0
VERTEX
  8
51
 62
7
  6
CONTINUOUS
 10
-2876.59175285063
 20
633.255232425375
  0
VERTEX
  8
51
 62
7
  6
CONTINUOUS
 10
-2887.35666048641
 20
618.814186915291
  0
VERTEX
  8
51
 62
7
  6
CONTINUOUS
 10
-2893.19637211144
 20
608.586133931146
  0
VERTEX
  8
51
 62
7
  6
CONTINUOUS
 10
-2897.79144570899
 20
597.828410503975
  0
VERTEX
  8
51
 62
7
  6
CONTINUOUS
 10
-2902.63695947728
 20
581.505862528084
  0
VERTEX
  8
51
 62
7
  6
CONTINUOUS
 10
-2904.18475660364
 20
570.403014275251
  0
SEQEND
  0
POLYLINE
  8
51
 62
7
 66
1
 70
1
  0
VERTEX
  8
51
 62
7
  6
CONTINUOUS
 10
-1538.19914992773
 20
1696.51347297726
  0
VERTEX
  8
51
 62
7
  6
CONTINUOUS
 10
-1098.1873795632
 20
1905.49189781491
  0
VERTEX
  8
51
 62
7
  6
CONTINUOUS
 10
-1183.79286887096
 20
1888.02757868469
  0
VERTEX
  8
51
 62
7
  6
CONTINUOUS
 10
-1224.39084919853
 20
1877.12485272132
  0
VERTEX
  8
51
 62
7
  6
CONTINUOUS
 10
-1258.52478617679
 20
1865.95862050131
  0
VERTEX
  8
51
 62
7
  6
CONTINUOUS
 10
-1284.25012374244
 20
1856.17390690042
  0
VERTEX
  8
51
 62
7
  6
CONTINUOUS
 10
-1336.02568848741
 20
1833.38234424919
  0
VERTEX
  8
51
 62
7
  6
CONTINUOUS
 10
-1370.04090895947
 20
1815.78742859344
  0
VERTEX
  8
51
 62
7
  6
CONTINUOUS
 10
-1402.83916669928
 20
1797.46518687948
  0
VERTEX
  8
51
 62
7
  6
CONTINUOUS
 10
-1448.22220650617
 20
1769.00841622344
  0
VERTEX
  8
51
 62
7
  6
CONTINUOUS
 10
-1468.62445133183
 20
1754.4577807347
  0
VERTEX
  8
51
 62
7
  6
CONTINUOUS
 10
-1493.12459756312
 20
1735.26041462538
  0
VERTEX
  8
51
 62
7
  6
CONTINUOUS
 10
-1523.0629183649
 20
1708.29963316057
  0
SEQEND
  0
POLYLINE
  8
52
 62
7
 66
1
 70
1
  0
VERTEX
  8
52
 62
7
  6
CONTINUOUS
 10
-2424.15249667488
 20
1204.78660572508
  0
VERTEX
  8
52
 62
7
  6
CONTINUOUS
 10
-2111.58173926452
 20
1186.95183423199
  0
VERTEX
  8
52
 62
7
  6
CONTINUOUS
 10
-2131.04913764132
 20
1189.29814805334
  0
VERTEX
  8
52
 62
7
  6
CONTINUOUS
 10
-2181.56177837391
 20
1191.25560111406
  0
VERTEX
  8
52
 62
7
  6
CONTINUOUS
 10
-2287.54634855223
 20
1200.98245588225
  0
VERTEX
  8
52
 62
7
  6
CONTINUOUS
 10
-2322.11764356435
 20
1203.39713328681
  0
VERTEX
  8
52
 62
7
  6
CONTINUOUS
 10
-2393.50682174395
 20
1206.2896384872
  0
SEQEND
  0
POLYLINE
  8
52
 62
7
 66
1
 70
1
  0
VERTEX
  8
52
 62
7
  6
CONTINUOUS
 10
-1340.76641484359
 20
1187.3462025967
  0
VERTEX
  8
52
 62
7
  6
CONTINUOUS
 10
-1297.01127277732
 20
1108.24370076386
  0
VERTEX
  8
52
 62
7
  6
CONTINUOUS
 10
-1300.28139082428
 20
1117.556921186
  0
VERTEX
  8
52
 62
7
  6
CONTINUOUS
 10
-1327.37579610289
 20
1165.82582157238
  0
SEQEND
  0
POLYLINE
  8
52
 62
7
 66
1
 70
1
  0
VERTEX
  8
52
 62
7
  6
CONTINUOUS
 10
-2194.87499873696
 20
1918.41257115747
  0
VERTEX
  8
52
 62
7
  6
CONTINUOUS
 10
-2192.78373939313
 20
1910.97225289933
  0
VERTEX
  8
52
 62
7
  6
CONTINUOUS
 10
-2192.40322545426
 20
1912.09110771104
  0
VERTEX
  8
52
 62
7
  6
CONTINUOUS
 10
-2193.5401338556
 20
1916.20527339787
  0
SEQEND
  0
POLYLINE
  8
52
 62
7
 66
1
 70
1
  0
VERTEX
  8
52
 62
7
  6
CONTINUOUS
 10
-2211.96855361571
 20
1979.2283130387
  0
VERTEX
  8
52
 62
7
  6
CONTINUOUS
 10
-2195.13502510721
 20
1919.33769742451
  0
VERTEX
  8
52
 62
7
  6
CONTINUOUS
 10
-2199.65991694376
 20
1944.88734995392
  0
VERTEX
  8
52
 62
7
  6
CONTINUOUS
 10
-2201.86322649304
 20
1949.19912264186
  0
VERTEX
  8
52
 62
7
  6
CONTINUOUS
 10
-2204.08519604313
 20
1956.03844100499
  0
VERTEX
  8
52
 62
7
  6
CONTINUOUS
 10
-2204.0579322087
 20
1958.38197430312
  0
SEQEND
  0
POLYLINE
  8
52
 62
7
 66
1
 70
1
  0
VERTEX
  8
52
 62
7
  6
CONTINUOUS
 10
-975.30298137342
 20
1256.70382069748
  0
VERTEX
  8
52
 62
7
  6
CONTINUOUS
 10
-970.934150273363
 20
1193.35231034473
  0
VERTEX
  8
52
 62
7
  6
CONTINUOUS
 10
-970.635937974884
 20
1174.12680010063
  0
VERTEX
  8
52
 62
7
  6
CONTINUOUS
 10
-943.223312924581
 20
1422.98022710468
  0
VERTEX
  8
52
 62
7
  6
CONTINUOUS
 10
-949.707017992333
 20
1404.20026691649
  0
VERTEX
  8
52
 62
7
  6
CONTINUOUS
 10
-960.27218765972
 20
1362.36715469051
  0
VERTEX
  8
52
 62
7
  6
CONTINUOUS
 10
-973.106757725695
 20
1292.70814352776
  0
SEQEND
  0
POLYLINE
  8
52
 62
7
 66
1
 70
1
  0
VERTEX
  8
52
 62
7
  6
CONTINUOUS
 10
-1802.57463837241
 20
2172.04291091584
  0
VERTEX
  8
52
 62
7
  6
CONTINUOUS
 10
-1771.10337107589
 20
2169.2811869868
  0
VERTEX
  8
52
 62
7
  6
CONTINUOUS
 10
-1775.05697830976
 20
2169.74332842139
  0
VERTEX
  8
52
 62
7
  6
CONTINUOUS
 10
-1776.3911994303
 20
2170.70834895772
  0
VERTEX
  8
52
 62
7
  6
CONTINUOUS
 10
-1779.54024179656
 20
2170.16701587319
  0
VERTEX
  8
52
 62
7
  6
CONTINUOUS
 10
-1780.73986780085
 20
2171.1741775502
  0
VERTEX
  8
52
 62
7
  6
CONTINUOUS
 10
-1784.06188056737
 20
2170.64526497037
  0
VERTEX
  8
52
 62
7
  6
CONTINUOUS
 10
-1801.57414634492
 20
2172.62371913337
  0
SEQEND
  0
POLYLINE
  8
52
 62
7
 66
1
 70
1
  0
VERTEX
  8
52
 62
7
  6
CONTINUOUS
 10
-1809.68290532348
 20
2172.66668849518
  0
VERTEX
  8
52
 62
7
  6
CONTINUOUS
 10
-1803.12119810954
 20
2172.09087362069
  0
VERTEX
  8
52
 62
7
  6
CONTINUOUS
 10
-1804.53774637913
 20
2172.73304451783
  0
SEQEND
  0
POLYLINE
  8
52
 62
7
 66
1
 70
1
  0
VERTEX
  8
52
 62
7
  6
CONTINUOUS
 10
-2089.75233252018
 20
2197.24385062835
  0
VERTEX
  8
52
 62
7
  6
CONTINUOUS
 10
-1902.56574471257
 20
2180.81751247445
  0
VERTEX
  8
52
 62
7
  6
CONTINUOUS
 10
-1948.36156388554
 20
2187.66018460375
  0
VERTEX
  8
52
 62
7
  6
CONTINUOUS
 10
-2038.03130770009
 20
2196.30708943345
  0
VERTEX
  8
52
 62
7
  6
CONTINUOUS
 10
-2058.00875875467
 20
2197.51875478676
  0
SEQEND
  0
POLYLINE
  8
52
 62
7
 66
1
 70
1
  0
VERTEX
  8
52
 62
7
  6
CONTINUOUS
 10
-2816.1386753668
 20
1226.82084555787
  0
VERTEX
  8
52
 62
7
  6
CONTINUOUS
 10
-2681.98240551608
 20
1215.84674705983
  0
VERTEX
  8
52
 62
7
  6
CONTINUOUS
 10
-2606.0135719204
 20
1210.85755702979
  0
VERTEX
  8
52
 62
7
  6
CONTINUOUS
 10
-2551.99084398158
 20
1208.24943258501
  0
VERTEX
  8
52
 62
7
  6
CONTINUOUS
 10
-2527.12451797691
 20
1207.61081984498
  0
VERTEX
  8
52
 62
7
  6
CONTINUOUS
 10
-2454.48019845559
 20
1209.05508167142
  0
VERTEX
  8
52
 62
7
  6
CONTINUOUS
 10
-2432.02161868515
 20
1210.44095887011
  0
SEQEND
  0
POLYLINE
  8
52
 62
7
 66
1
 70
1
  0
VERTEX
  8
52
 62
7
  6
CONTINUOUS
 10
-1791.63127198986
 20
697.890217104432
  0
VERTEX
  8
52
 62
7
  6
CONTINUOUS
 10
-1791.47587648835
 20
679.351152358902
  0
VERTEX
  8
52
 62
7
  6
CONTINUOUS
 10
-1788.66860449617
 20
659.872471512152
  0
VERTEX
  8
52
 62
7
  6
CONTINUOUS
 10
-1783.08917143387
 20
641.198879635426
  0
VERTEX
  8
52
 62
7
  6
CONTINUOUS
 10
-1777.14361624469
 20
628.839418766083
  0
VERTEX
  8
52
 62
7
  6
CONTINUOUS
 10
-1767.44139114117
 20
615.255682424765
  0
VERTEX
  8
52
 62
7
  6
CONTINUOUS
 10
-1742.42127546613
 20
680.795152714622
  0
VERTEX
  8
52
 62
7
  6
CONTINUOUS
 10
-1749.75164407711
 20
697.927688419919
  0
VERTEX
  8
52
 62
7
  6
CONTINUOUS
 10
-1763.91278246175
 20
720.851292590645
  0
VERTEX
  8
52
 62
7
  6
CONTINUOUS
 10
-1769.3191349573
 20
727.312716785958
  0
VERTEX
  8
52
 62
7
  6
CONTINUOUS
 10
-1774.56420114976
 20
731.81086741737
  0
VERTEX
  8
52
 62
7
  6
CONTINUOUS
 10
-1777.5797589919
 20
732.957178262719
  0
VERTEX
  8
52
 62
7
  6
CONTINUOUS
 10
-1781.59252280375
 20
732.009829003988
  0
VERTEX
  8
52
 62
7
  6
CONTINUOUS
 10
-1785.41090496466
 20
727.217917658099
  0
VERTEX
  8
52
 62
7
  6
CONTINUOUS
 10
-1789.2559948878
 20
714.394465554566
  0
SEQEND
  0
POLYLINE
  8
52
 62
7
 66
1
 70
1
  0
VERTEX
  8
52
 62
7
  6
CONTINUOUS
 10
-2092.27296694186
 20
1847.99965291438
  0
VERTEX
  8
52
 62
7
  6
CONTINUOUS
 10
-2091.10711748982
 20
1837.47419406664
  0
VERTEX
  8
52
 62
7
  6
CONTINUOUS
 10
-2086.56581890795
 20
1829.34478201804
  0
VERTEX
  8
52
 62
7
  6
CONTINUOUS
 10
-2077.78503590422
 20
1841.52112524566
  0
VERTEX
  8
52
 62
7
  6
CONTINUOUS
 10
-2079.03905837175
 20
1853.3824339249
  0
VERTEX
  8
52
 62
7
  6
CONTINUOUS
 10
-2080.54046738686
 20
1859.32585549274
  0
VERTEX
  8
52
 62
7
  6
CONTINUOUS
 10
-2083.50858701068
 20
1862.84993300327
  0
VERTEX
  8
52
 62
7
  6
CONTINUOUS
 10
-2086.90250814851
 20
1862.84523946352
  0
VERTEX
  8
52
 62
7
  6
CONTINUOUS
 10
-2088.63635768446
 20
1861.01978818493
  0
VERTEX
  8
52
 62
7
  6
CONTINUOUS
 10
-2090.53872051167
 20
1856.79652359205
  0
SEQEND
  0
POLYLINE
  8
52
 62
7
 66
1
 70
1
  0
VERTEX
  8
52
 62
7
  6
CONTINUOUS
 10
-1834.493713177
 20
1149.76142293076
  0
VERTEX
  8
52
 62
7
  6
CONTINUOUS
 10
-1798.30550517399
 20
1148.90345138615
  0
VERTEX
  8
52
 62
7
  6
CONTINUOUS
 10
-1777.61495921931
 20
1146.50258630821
  0
VERTEX
  8
52
 62
7
  6
CONTINUOUS
 10
-1735.69568582636
 20
1138.60875719692
  0
VERTEX
  8
52
 62
7
  6
CONTINUOUS
 10
-1678.56927598147
 20
1125.64313294251
  0
VERTEX
  8
52
 62
7
  6
CONTINUOUS
 10
-1588.09893733354
 20
1107.24347272657
  0
VERTEX
  8
52
 62
7
  6
CONTINUOUS
 10
-1529.26304993878
 20
1097.34639923666
  0
VERTEX
  8
52
 62
7
  6
CONTINUOUS
 10
-1528.8862385633
 20
1097.28301394513
  0
VERTEX
  8
52
 62
7
  6
CONTINUOUS
 10
-1525.67149524297
 20
1097.23765394308
  0
VERTEX
  8
52
 62
7
  6
CONTINUOUS
 10
-1524.80996859774
 20
1096.36628722232
  0
VERTEX
  8
52
 62
7
  6
CONTINUOUS
 10
-1520.33452126694
 20
1096.38185074239
  0
VERTEX
  8
52
 62
7
  6
CONTINUOUS
 10
-1519.94808630983
 20
1095.90633178664
  0
VERTEX
  8
52
 62
7
  6
CONTINUOUS
 10
-1515.19350256112
 20
1095.2853880945
  0
VERTEX
  8
52
 62
7
  6
CONTINUOUS
 10
-1499.98960411146
 20
1094.11903057335
  0
VERTEX
  8
52
 62
7
  6
CONTINUOUS
 10
-1499.1647592
 20
1093.54394672403
  0
VERTEX
  8
52
 62
7
  6
CONTINUOUS
 10
-1481.9985838126
 20
1092.13248104902
  0
VERTEX
  8
52
 62
7
  6
CONTINUOUS
 10
-1472.32741107571
 20
1090.52095110179
  0
VERTEX
  8
52
 62
7
  6
CONTINUOUS
 10
-1470.68375084528
 20
1100.38494527489
  0
VERTEX
  8
52
 62
7
  6
CONTINUOUS
 10
-1480.76489074248
 20
1102.06478900103
  0
VERTEX
  8
52
 62
7
  6
CONTINUOUS
 10
-1495.06755334154
 20
1103.24080618973
  0
VERTEX
  8
52
 62
7
  6
CONTINUOUS
 10
-1495.92736960001
 20
1103.83678111232
  0
VERTEX
  8
52
 62
7
  6
CONTINUOUS
 10
-1514.162826329
 20
1105.23570272298
  0
VERTEX
  8
52
 62
7
  6
CONTINUOUS
 10
-1514.70110599609
 20
1105.30600148761
  0
VERTEX
  8
52
 62
7
  6
CONTINUOUS
 10
-1514.79639808494
 20
1105.4232610516
  0
VERTEX
  8
52
 62
7
  6
CONTINUOUS
 10
-1516.84541237608
 20
1106.39404470307
  0
VERTEX
  8
52
 62
7
  6
CONTINUOUS
 10
-1520.64889737539
 20
1106.38081795483
  0
VERTEX
  8
52
 62
7
  6
CONTINUOUS
 10
-1521.43798126765
 20
1107.17891450519
  0
VERTEX
  8
52
 62
7
  6
CONTINUOUS
 10
-1527.98101802679
 20
1107.27123670055
  0
VERTEX
  8
52
 62
7
  6
CONTINUOUS
 10
-1586.27249906813
 20
1117.07673292483
  0
VERTEX
  8
52
 62
7
  6
CONTINUOUS
 10
-1676.46584664883
 20
1135.42005930145
  0
VERTEX
  8
52
 62
7
  6
CONTINUOUS
 10
-1733.66302687845
 20
1148.40174586784
  0
VERTEX
  8
52
 62
7
  6
CONTINUOUS
 10
-1775.9379313056
 20
1156.36254395028
  0
VERTEX
  8
52
 62
7
  6
CONTINUOUS
 10
-1776.11148036121
 20
1156.3952250174
  0
VERTEX
  8
52
 62
7
  6
CONTINUOUS
 10
-1797.60921193415
 20
1158.88975334457
  0
VERTEX
  8
52
 62
7
  6
CONTINUOUS
 10
-1834.2566938379
 20
1159.7586136278
  0
SEQEND
  0
POLYLINE
  8
52
 62
7
 66
1
 70
1
  0
VERTEX
  8
52
 62
7
  6
CONTINUOUS
 10
-1443.62248059814
 20
869.31718148227
  0
VERTEX
  8
52
 62
7
  6
CONTINUOUS
 10
-1425.30757254722
 20
844.530618159338
  0
VERTEX
  8
52
 62
7
  6
CONTINUOUS
 10
-1401.484933419
 20
816.280334327636
  0
SEQEND
  0
POLYLINE
  8
52
 62
7
 66
1
 70
1
  0
VERTEX
  8
52
 62
7
  6
CONTINUOUS
 10
-1901.88400324412
 20
510.352951545323
  0
VERTEX
  8
52
 62
7
  6
CONTINUOUS
 10
-1850.55733294514
 20
493.433478895396
  0
VERTEX
  8
52
 62
7
  6
CONTINUOUS
 10
-1758.42102418946
 20
467.742840206815
  0
SEQEND
  0
POLYLINE
  8
52
 62
7
 66
1
 70
1
  0
VERTEX
  8
52
 62
7
  6
CONTINUOUS
 10
-1758.79988722813
 20
2632.6940647873
  0
VERTEX
  8
52
 62
7
  6
CONTINUOUS
 10
-1757.75453262971
 20
2612.53883980105
  0
VERTEX
  8
52
 62
7
  6
CONTINUOUS
 10
-1754.60137235523
 20
2588.52577478847
  0
VERTEX
  8
52
 62
7
  6
CONTINUOUS
 10
-1750.94441617535
 20
2571.58082697909
  0
VERTEX
  8
52
 62
7
  6
CONTINUOUS
 10
-1747.29997391315
 20
2559.19930917184
  0
VERTEX
  8
52
 62
7
  6
CONTINUOUS
 10
-1740.07596236589
 20
2540.45422861007
  0
VERTEX
  8
52
 62
7
  6
CONTINUOUS
 10
-1734.08331837345
 20
2527.55078620852
  0
VERTEX
  8
52
 62
7
  6
CONTINUOUS
 10
-1725.26227219725
 20
2511.98422084174
  0
VERTEX
  8
52
 62
7
  6
CONTINUOUS
 10
-1715.23461230495
 20
2491.17574258211
  0
VERTEX
  8
52
 62
7
  6
CONTINUOUS
 10
-1703.06518794039
 20
2470.63489079012
  0
VERTEX
  8
52
 62
7
  6
CONTINUOUS
 10
-1695.01390617064
 20
2461.65460013428
  0
VERTEX
  8
52
 62
7
  6
CONTINUOUS
 10
-1685.06921490952
 20
2453.43245618716
  0
VERTEX
  8
52
 62
7
  6
CONTINUOUS
 10
-1672.10705634552
 20
2445.39521092786
  0
VERTEX
  8
52
 62
7
  6
CONTINUOUS
 10
-1662.50802703273
 20
2442.57381178318
  0
VERTEX
  8
52
 62
7
  6
CONTINUOUS
 10
-1658.64189875574
 20
2442.91937999062
  0
VERTEX
  8
52
 62
7
  6
CONTINUOUS
 10
-1655.33017514052
 20
2444.34858876395
  0
VERTEX
  8
52
 62
7
  6
CONTINUOUS
 10
-1652.16062147095
 20
2446.58825426851
  0
VERTEX
  8
52
 62
7
  6
CONTINUOUS
 10
-1649.4317477657
 20
2449.95400108354
  0
VERTEX
  8
52
 62
7
  6
CONTINUOUS
 10
-1646.41968965069
 20
2457.15094240674
  0
VERTEX
  8
52
 62
7
  6
CONTINUOUS
 10
-1645.36104248151
 20
2467.76775199389
  0
SEQEND
  0
POLYLINE
  8
52
 62
7
 66
1
 70
1
  0
VERTEX
  8
52
 62
7
  6
CONTINUOUS
 10
-1717.09325704144
 20
2156.59869129221
  0
VERTEX
  8
52
 62
7
  6
CONTINUOUS
 10
-1314.42537620564
 20
2123.40342573306
  0
VERTEX
  8
52
 62
7
  6
CONTINUOUS
 10
-1336.40587920322
 20
2128.80387067644
  0
VERTEX
  8
52
 62
7
  6
CONTINUOUS
 10
-1354.51412869569
 20
2131.77171960802
  0
VERTEX
  8
52
 62
7
  6
CONTINUOUS
 10
-1389.54134695679
 20
2133.56997493918
  0
VERTEX
  8
52
 62
7
  6
CONTINUOUS
 10
-1473.68079712698
 20
2140.72491803983
  0
VERTEX
  8
52
 62
7
  6
CONTINUOUS
 10
-1586.3120965746
 20
2146.78996639072
  0
VERTEX
  8
52
 62
7
  6
CONTINUOUS
 10
-1648.28586888297
 20
2152.66236048816
  0
SEQEND
  0
POLYLINE
  8
52
 62
7
 66
1
 70
1
  0
VERTEX
  8
52
 62
7
  6
CONTINUOUS
 10
-1800.76216752641
 20
1902.56429644682
  0
VERTEX
  8
52
 62
7
  6
CONTINUOUS
 10
-1798.67096826751
 20
1902.99419149818
  0
VERTEX
  8
52
 62
7
  6
CONTINUOUS
 10
-1794.10574635819
 20
1906.5924797635
  0
VERTEX
  8
52
 62
7
  6
CONTINUOUS
 10
-1796.37735452575
 20
1906.73281354249
  0
VERTEX
  8
52
 62
7
  6
CONTINUOUS
 10
-1798.40762786245
 20
1905.85634960552
  0
SEQEND
  0
POLYLINE
  8
52
 62
7
 66
1
 70
1
  0
VERTEX
  8
52
 62
7
  6
CONTINUOUS
 10
-1494.64074258635
 20
2616.50631998416
  0
VERTEX
  8
52
 62
7
  6
CONTINUOUS
 10
-1494.52171656334
 20
2594.75776660371
  0
VERTEX
  8
52
 62
7
  6
CONTINUOUS
 10
-1493.34290293694
 20
2583.68103397194
  0
VERTEX
  8
52
 62
7
  6
CONTINUOUS
 10
-1489.07323129464
 20
2562.58698942371
  0
VERTEX
  8
52
 62
7
  6
CONTINUOUS
 10
-1484.36914579308
 20
2548.4880111764
  0
VERTEX
  8
52
 62
7
  6
CONTINUOUS
 10
-1478.92716041658
 20
2537.55610497142
  0
VERTEX
  8
52
 62
7
  6
CONTINUOUS
 10
-1472.90776509023
 20
2530.63499000452
  0
VERTEX
  8
52
 62
7
  6
CONTINUOUS
 10
-1468.74557043673
 20
2528.72104157505
  0
VERTEX
  8
52
 62
7
  6
CONTINUOUS
 10
-1464.43061903617
 20
2528.64607971933
  0
VERTEX
  8
52
 62
7
  6
CONTINUOUS
 10
-1460.24299640747
 20
2530.30757186431
  0
VERTEX
  8
52
 62
7
  6
CONTINUOUS
 10
-1456.61430088412
 20
2534.2284500573
  0
VERTEX
  8
52
 62
7
  6
CONTINUOUS
 10
-1444.26222506105
 20
2560.92517557178
  0
VERTEX
  8
52
 62
7
  6
CONTINUOUS
 10
-1433.07788239842
 20
2591.94126403451
  0
VERTEX
  8
52
 62
7
  6
CONTINUOUS
 10
-1491.46623769044
 20
2653.73708173339
  0
SEQEND
  0
POLYLINE
  8
52
 62
7
 66
1
 70
1
  0
VERTEX
  8
52
 62
7
  6
CONTINUOUS
 10
-1492.45996377582
 20
2540.38197176875
  0
VERTEX
  8
52
 62
7
  6
CONTINUOUS
 10
-1491.9742310108
 20
2530.50691131333
  0
VERTEX
  8
52
 62
7
  6
CONTINUOUS
 10
-1490.15668994464
 20
2520.14012698628
  0
VERTEX
  8
52
 62
7
  6
CONTINUOUS
 10
-1487.67289049382
 20
2514.2972277276
  0
VERTEX
  8
52
 62
7
  6
CONTINUOUS
 10
-1485.71897630912
 20
2511.74013260821
  0
SEQEND
  0
POLYLINE
  8
52
 62
7
 66
1
 70
1
  0
VERTEX
  8
52
 62
7
  6
CONTINUOUS
 10
-1444.46180557915
 20
2256.73455097865
  0
VERTEX
  8
52
 62
7
  6
CONTINUOUS
 10
-1438.60656475893
 20
2260.69764863817
  0
VERTEX
  8
52
 62
7
  6
CONTINUOUS
 10
-1424.13978902274
 20
2273.07585981289
  0
VERTEX
  8
52
 62
7
  6
CONTINUOUS
 10
-1409.42702561996
 20
2288.95706282989
  0
VERTEX
  8
52
 62
7
  6
CONTINUOUS
 10
-1399.24496022985
 20
2302.99846558455
  0
VERTEX
  8
52
 62
7
  6
CONTINUOUS
 10
-1387.78196340388
 20
2320.71023756612
  0
VERTEX
  8
52
 62
7
  6
CONTINUOUS
 10
-1383.18195897621
 20
2326.27851250367
  0
VERTEX
  8
52
 62
7
  6
CONTINUOUS
 10
-1381.23560526017
 20
2330.24851258282
  0
VERTEX
  8
52
 62
7
  6
CONTINUOUS
 10
-1377.83772433661
 20
2334.93140760326
  0
VERTEX
  8
52
 62
7
  6
CONTINUOUS
 10
-1376.57962709132
 20
2335.60838229774
  0
VERTEX
  8
52
 62
7
  6
CONTINUOUS
 10
-1363.34409198938
 20
2354.37583852939
  0
VERTEX
  8
52
 62
7
  6
CONTINUOUS
 10
-1361.01238319454
 20
2358.84232678651
  0
SEQEND
  0
POLYLINE
  8
52
 62
7
 66
1
 70
1
  0
VERTEX
  8
52
 62
7
  6
CONTINUOUS
 10
-1330.34874651194
 20
913.359185211651
  0
VERTEX
  8
52
 62
7
  6
CONTINUOUS
 10
-1296.4839373327
 20
870.379455253124
  0
VERTEX
  8
52
 62
7
  6
CONTINUOUS
 10
-1297.49687948537
 20
874.47486479364
  0
VERTEX
  8
52
 62
7
  6
CONTINUOUS
 10
-1306.89798370833
 20
886.723316197848
  0
VERTEX
  8
52
 62
7
  6
CONTINUOUS
 10
-1318.93389154753
 20
901.572516282313
  0
SEQEND
  0
POLYLINE
  8
52
 62
7
 66
1
 70
1
  0
VERTEX
  8
52
 62
7
  6
CONTINUOUS
 10
-2157.4585314499
 20
1190.13724097706
  0
VERTEX
  8
52
 62
7
  6
CONTINUOUS
 10
-1845.72163705825
 20
1160.62622749916
  0
VERTEX
  8
52
 62
7
  6
CONTINUOUS
 10
-1857.07913785439
 20
1161.8287652167
  0
VERTEX
  8
52
 62
7
  6
CONTINUOUS
 10
-1954.53715253142
 20
1174.29772124087
  0
VERTEX
  8
52
 62
7
  6
CONTINUOUS
 10
-1985.35630749699
 20
1176.32196976207
  0
VERTEX
  8
52
 62
7
  6
CONTINUOUS
 10
-2072.47746357058
 20
1184.47890582157
  0
VERTEX
  8
52
 62
7
  6
CONTINUOUS
 10
-2146.04128326833
 20
1190.0491238958
  0
SEQEND
  0
POLYLINE
  8
52
 62
7
 66
1
 70
1
  0
VERTEX
  8
52
 62
7
  6
CONTINUOUS
 10
-2141.85651544225
 20
2204.69023939291
  0
VERTEX
  8
52
 62
7
  6
CONTINUOUS
 10
-2139.70236641369
 20
2204.27741776129
  0
VERTEX
  8
52
 62
7
  6
CONTINUOUS
 10
-2123.11349594744
 20
2202.41686574188
  0
SEQEND
  0
POLYLINE
  8
52
 62
7
 66
1
 70
1
  0
VERTEX
  8
52
 62
7
  6
CONTINUOUS
 10
-2477.46364858566
 20
2245.39661617478
  0
VERTEX
  8
52
 62
7
  6
CONTINUOUS
 10
-2475.37133274709
 20
2244.32792015119
  0
VERTEX
  8
52
 62
7
  6
CONTINUOUS
 10
-2466.86737651837
 20
2242.84562709513
  0
VERTEX
  8
52
 62
7
  6
CONTINUOUS
 10
-2408.83063151496
 20
2234.52638528228
  0
VERTEX
  8
52
 62
7
  6
CONTINUOUS
 10
-2284.01370479272
 20
2221.42143608187
  0
VERTEX
  8
52
 62
7
  6
CONTINUOUS
 10
-2269.07906078928
 20
2220.1212846676
  0
SEQEND
  0
POLYLINE
  8
52
 62
7
 66
1
 70
1
  0
VERTEX
  8
52
 62
7
  6
CONTINUOUS
 10
-2482.55099764576
 20
2246.01366964954
  0
VERTEX
  8
52
 62
7
  6
CONTINUOUS
 10
-2478.75984011658
 20
2244.75618100678
  0
VERTEX
  8
52
 62
7
  6
CONTINUOUS
 10
-2478.71822033798
 20
2245.5487853792
  0
SEQEND
  0
POLYLINE
  8
52
 62
7
 66
1
 70
1
  0
VERTEX
  8
52
 62
7
  6
CONTINUOUS
 10
-2490.25129046411
 20
2246.94765164765
  0
VERTEX
  8
52
 62
7
  6
CONTINUOUS
 10
-2483.78150361727
 20
2245.28320309344
  0
VERTEX
  8
52
 62
7
  6
CONTINUOUS
 10
-2484.0615233103
 20
2246.19688395212
  0
SEQEND
  0
POLYLINE
  8
52
 62
7
 66
1
 70
1
  0
VERTEX
  8
52
 62
7
  6
CONTINUOUS
 10
-1496.09652636882
 20
1095.86079513962
  0
VERTEX
  8
52
 62
7
  6
CONTINUOUS
 10
-1473.9060170873
 20
1095.44771019543
  0
VERTEX
  8
52
 62
7
  6
CONTINUOUS
 10
-1427.50658415923
 20
1096.64735180829
  0
VERTEX
  8
52
 62
7
  6
CONTINUOUS
 10
-1381.73013916081
 20
1101.02809660924
  0
VERTEX
  8
52
 62
7
  6
CONTINUOUS
 10
-1376.27070040231
 20
1102.33346057063
  0
VERTEX
  8
52
 62
7
  6
CONTINUOUS
 10
-1370.15098785959
 20
1105.14843705038
  0
SEQEND
  0
POLYLINE
  8
52
 62
7
 66
1
 70
1
  0
VERTEX
  8
52
 62
7
  6
CONTINUOUS
 10
-2954.74001197314
 20
2693.22791637244
  0
VERTEX
  8
52
 62
7
  6
CONTINUOUS
 10
-2940.59809278274
 20
2733.31679726256
  0
VERTEX
  8
52
 62
7
  6
CONTINUOUS
 10
-2929.83838718877
 20
2770.0850340584
  0
SEQEND
  0
POLYLINE
  8
52
 62
7
 66
1
 70
1
  0
VERTEX
  8
52
 62
7
  6
CONTINUOUS
 10
-1063.19685574731
 20
1409.91435577084
  0
VERTEX
  8
52
 62
7
  6
CONTINUOUS
 10
-947.182484996724
 20
1169.25578104556
  0
VERTEX
  8
52
 62
7
  6
CONTINUOUS
 10
-955.369883205278
 20
1193.45281815519
  0
VERTEX
  8
52
 62
7
  6
CONTINUOUS
 10
-967.455341668161
 20
1220.57493420122
  0
VERTEX
  8
52
 62
7
  6
CONTINUOUS
 10
-996.964866059184
 20
1291.21160621193
  0
VERTEX
  8
52
 62
7
  6
CONTINUOUS
 10
-1015.85795584375
 20
1327.47227071704
  0
SEQEND
  0
POLYLINE
  8
52
 62
7
 66
1
 70
1
  0
VERTEX
  8
52
 62
7
  6
CONTINUOUS
 10
-1018.57941194971
 20
1963.19561091108
  0
VERTEX
  8
52
 62
7
  6
CONTINUOUS
 10
-1014.2184554961
 20
1947.87550974951
  0
VERTEX
  8
52
 62
7
  6
CONTINUOUS
 10
-995.432427856354
 20
1892.56443309601
  0
VERTEX
  8
52
 62
7
  6
CONTINUOUS
 10
-987.404388257442
 20
1873.05387169368
  0
VERTEX
  8
52
 62
7
  6
CONTINUOUS
 10
-974.153224853094
 20
1845.98989744972
  0
SEQEND
  0
POLYLINE
  8
52
 62
7
 66
1
 70
1
  0
VERTEX
  8
52
 62
7
  6
CONTINUOUS
 10
-3276.7133984352
 20
2843.70089821637
  0
VERTEX
  8
52
 62
7
  6
CONTINUOUS
 10
-3227.32611670852
 20
2813.51457843095
  0
VERTEX
  8
52
 62
7
  6
CONTINUOUS
 10
-3234.42892771369
 20
2818.41786139358
  0
VERTEX
  8
52
 62
7
  6
CONTINUOUS
 10
-3250.39659617735
 20
2828.01311197744
  0
VERTEX
  8
52
 62
7
  6
CONTINUOUS
 10
-3268.79209418052
 20
2840.45326676528
  0
SEQEND
  0
POLYLINE
  8
52
 62
7
 66
1
 70
1
  0
VERTEX
  8
52
 62
7
  6
CONTINUOUS
 10
-3237.2095227998
 20
2899.29192744681
  0
VERTEX
  8
52
 62
7
  6
CONTINUOUS
 10
-3219.55618751488
 20
2780.69763098397
  0
VERTEX
  8
52
 62
7
  6
CONTINUOUS
 10
-3222.50477227507
 20
2807.49941480899
  0
SEQEND
  0
POLYLINE
  8
52
 62
7
 66
1
 70
1
  0
VERTEX
  8
52
 62
7
  6
CONTINUOUS
 10
-3406.9626028787
 20
2752.27324220749
  0
VERTEX
  8
52
 62
7
  6
CONTINUOUS
 10
-3374.15738259381
 20
2770.24079276235
  0
VERTEX
  8
52
 62
7
  6
CONTINUOUS
 10
-3361.33647504077
 20
2778.07532226156
  0
VERTEX
  8
52
 62
7
  6
CONTINUOUS
 10
-3342.77612709037
 20
2791.54379746776
  0
VERTEX
  8
52
 62
7
  6
CONTINUOUS
 10
-3337.30072942956
 20
2796.57628709754
  0
VERTEX
  8
52
 62
7
  6
CONTINUOUS
 10
-3333.15270685428
 20
2801.73859316335
  0
SEQEND
  0
POLYLINE
  8
52
 62
7
 66
1
 70
1
  0
VERTEX
  8
52
 62
7
  6
CONTINUOUS
 10
-3489.16468791539
 20
2916.05863005075
  0
VERTEX
  8
52
 62
7
  6
CONTINUOUS
 10
-3489.05030537264
 20
2892.68063158603
  0
VERTEX
  8
52
 62
7
  6
CONTINUOUS
 10
-3486.00058179426
 20
2878.60676427975
  0
VERTEX
  8
52
 62
7
  6
CONTINUOUS
 10
-3483.36971911074
 20
2872.65999614881
  0
VERTEX
  8
52
 62
7
  6
CONTINUOUS
 10
-3479.06233760272
 20
2866.8728515642
  0
VERTEX
  8
52
 62
7
  6
CONTINUOUS
 10
-3460.81567963165
 20
2849.59552914005
  0
VERTEX
  8
52
 62
7
  6
CONTINUOUS
 10
-3447.88082433512
 20
2841.16420547342
  0
VERTEX
  8
52
 62
7
  6
CONTINUOUS
 10
-3440.67375852341
 20
2837.9837315573
  0
VERTEX
  8
52
 62
7
  6
CONTINUOUS
 10
-3429.37029056943
 20
2834.69170992152
  0
VERTEX
  8
52
 62
7
  6
CONTINUOUS
 10
-3417.80714291845
 20
2833.47639324625
  0
VERTEX
  8
52
 62
7
  6
CONTINUOUS
 10
-3410.41178158298
 20
2833.993986831
  0
VERTEX
  8
52
 62
7
  6
CONTINUOUS
 10
-3400.1382884712
 20
2837.07435256927
  0
VERTEX
  8
52
 62
7
  6
CONTINUOUS
 10
-3391.03826734403
 20
2842.94688467782
  0
VERTEX
  8
52
 62
7
  6
CONTINUOUS
 10
-3383.25394026793
 20
2851.09516296868
  0
VERTEX
  8
52
 62
7
  6
CONTINUOUS
 10
-3376.82059278674
 20
2861.11541230842
  0
VERTEX
  8
52
 62
7
  6
CONTINUOUS
 10
-3367.58274325125
 20
2891.92922822565
  0
VERTEX
  8
52
 62
7
  6
CONTINUOUS
 10
-3364.59239740731
 20
2908.25883500123
  0
VERTEX
  8
52
 62
7
  6
CONTINUOUS
 10
-3360.50109204935
 20
2939.1974783966
  0
VERTEX
  8
52
 62
7
  6
CONTINUOUS
 10
-3488.01046742447
 20
2922.46615440582
  0
SEQEND
  0
POLYLINE
  8
52
 62
7
 66
1
 70
1
  0
VERTEX
  8
52
 62
7
  6
CONTINUOUS
 10
-3334.5987690539
 20
2474.01483916009
  0
VERTEX
  8
52
 62
7
  6
CONTINUOUS
 10
-3195.36004715928
 20
2468.72751780954
  0
VERTEX
  8
52
 62
7
  6
CONTINUOUS
 10
-3224.50625205271
 20
2476.56728488966
  0
VERTEX
  8
52
 62
7
  6
CONTINUOUS
 10
-3240.44404412658
 20
2478.41149635348
  0
VERTEX
  8
52
 62
7
  6
CONTINUOUS
 10
-3275.92522718481
 20
2476.70626232355
  0
VERTEX
  8
52
 62
7
  6
CONTINUOUS
 10
-3305.06465453515
 20
2476.22964650679
  0
SEQEND
  0
POLYLINE
  8
52
 62
7
 66
1
 70
1
  0
VERTEX
  8
52
 62
7
  6
CONTINUOUS
 10
-3301.7949731365
 20
2474.03559802338
  0
VERTEX
  8
52
 62
7
  6
CONTINUOUS
 10
-3289.42428354312
 20
2489.0950602766
  0
VERTEX
  8
52
 62
7
  6
CONTINUOUS
 10
-3274.7131827176
 20
2512.76870648792
  0
SEQEND
  0
POLYLINE
  8
52
 62
7
 66
1
 70
1
  0
VERTEX
  8
52
 62
7
  6
CONTINUOUS
 10
-2997.47528936299
 20
2300.19441051742
  0
VERTEX
  8
52
 62
7
  6
CONTINUOUS
 10
-2982.06996220318
 20
2297.64162288083
  0
VERTEX
  8
52
 62
7
  6
CONTINUOUS
 10
-2930.27713674055
 20
2291.60483185901
  0
VERTEX
  8
52
 62
7
  6
CONTINUOUS
 10
-2920.04890739425
 20
2290.73159464642
  0
VERTEX
  8
52
 62
7
  6
CONTINUOUS
 10
-2919.99898671331
 20
2291.39577139979
  0
SEQEND
  0
POLYLINE
  8
52
 62
7
 66
1
 70
1
  0
VERTEX
  8
52
 62
7
  6
CONTINUOUS
 10
-3386.59819408824
 20
2344.3853681908
  0
VERTEX
  8
52
 62
7
  6
CONTINUOUS
 10
-3368.92685276547
 20
2342.23621919875
  0
VERTEX
  8
52
 62
7
  6
CONTINUOUS
 10
-3336.32056377233
 20
2336.25137185381
  0
VERTEX
  8
52
 62
7
  6
CONTINUOUS
 10
-3308.95495200887
 20
2332.59804804894
  0
VERTEX
  8
52
 62
7
  6
CONTINUOUS
 10
-3214.34894412624
 20
2322.12306304158
  0
VERTEX
  8
52
 62
7
  6
CONTINUOUS
 10
-3152.23160352948
 20
2317.76939684172
  0
SEQEND
  0
POLYLINE
  8
52
 62
7
 66
1
 70
1
  0
VERTEX
  8
52
 62
7
  6
CONTINUOUS
 10
-2734.88138194754
 20
2267.99330273619
  0
VERTEX
  8
52
 62
7
  6
CONTINUOUS
 10
-2725.90739922474
 20
2267.09068505421
  0
VERTEX
  8
52
 62
7
  6
CONTINUOUS
 10
-2692.81316961677
 20
2261.3100545446
  0
VERTEX
  8
52
 62
7
  6
CONTINUOUS
 10
-2668.06337288897
 20
2258.71045485856
  0
VERTEX
  8
52
 62
7
  6
CONTINUOUS
 10
-2522.21498543822
 20
2249.12727182549
  0
VERTEX
  8
52
 62
7
  6
CONTINUOUS
 10
-2494.1974765775
 20
2247.62511914099
  0
VERTEX
  8
52
 62
7
  6
CONTINUOUS
 10
-2478.02560648402
 20
2247.82650058702
  0
VERTEX
  8
52
 62
7
  6
CONTINUOUS
 10
-2467.38219724236
 20
2246.32710663349
  0
VERTEX
  8
52
 62
7
  6
CONTINUOUS
 10
-2462.78762706991
 20
2246.46074807169
  0
VERTEX
  8
52
 62
7
  6
CONTINUOUS
 10
-2462.71391481946
 20
2246.99417547343
  0
SEQEND
  0
POLYLINE
  8
52
 62
7
 66
1
 70
1
  0
VERTEX
  8
52
 62
7
  6
CONTINUOUS
 10
-3066.31468237869
 20
2416.59025805203
  0
VERTEX
  8
52
 62
7
  6
CONTINUOUS
 10
-3062.14808485116
 20
2418.97199555945
  0
VERTEX
  8
52
 62
7
  6
CONTINUOUS
 10
-3064.21948551534
 20
2419.76969046343
  0
VERTEX
  8
52
 62
7
  6
CONTINUOUS
 10
-3066.21577116024
 20
2417.7865527628
  0
SEQEND
  0
POLYLINE
  8
52
 62
7
 66
1
 70
1
  0
VERTEX
  8
52
 62
7
  6
CONTINUOUS
 10
-3160.66787338768
 20
1450.2006091067
  0
VERTEX
  8
52
 62
7
  6
CONTINUOUS
 10
-3159.25953590656
 20
1447.89412658907
  0
VERTEX
  8
52
 62
7
  6
CONTINUOUS
 10
-3155.94643769781
 20
1445.95326415604
  0
VERTEX
  8
52
 62
7
  6
CONTINUOUS
 10
-3151.35021189067
 20
1444.6526849849
  0
VERTEX
  8
52
 62
7
  6
CONTINUOUS
 10
-3145.23210471121
 20
1444.14713402839
  0
VERTEX
  8
52
 62
7
  6
CONTINUOUS
 10
-3128.81323100706
 20
1445.75233650295
  0
VERTEX
  8
52
 62
7
  6
CONTINUOUS
 10
-3112.59172893599
 20
1450.20316733034
  0
VERTEX
  8
52
 62
7
  6
CONTINUOUS
 10
-3006.61231666848
 20
1460.34268541966
  0
VERTEX
  8
52
 62
7
  6
CONTINUOUS
 10
-3020.64720027098
 20
1468.85501668301
  0
VERTEX
  8
52
 62
7
  6
CONTINUOUS
 10
-3028.66712925613
 20
1476.03447223892
  0
VERTEX
  8
52
 62
7
  6
CONTINUOUS
 10
-3033.69365342038
 20
1481.99020081623
  0
VERTEX
  8
52
 62
7
  6
CONTINUOUS
 10
-3049.61426513425
 20
1511.00019350595
  0
VERTEX
  8
52
 62
7
  6
CONTINUOUS
 10
-3076.11665117146
 20
1566.71722417519
  0
VERTEX
  8
52
 62
7
  6
CONTINUOUS
 10
-3086.15965818673
 20
1585.81422616996
  0
VERTEX
  8
52
 62
7
  6
CONTINUOUS
 10
-3097.79865674012
 20
1604.22536668179
  0
VERTEX
  8
52
 62
7
  6
CONTINUOUS
 10
-3101.42881932924
 20
1607.39574367742
  0
VERTEX
  8
52
 62
7
  6
CONTINUOUS
 10
-3104.69574423802
 20
1607.86382490994
  0
VERTEX
  8
52
 62
7
  6
CONTINUOUS
 10
-3107.61432656054
 20
1606.02860928379
  0
VERTEX
  8
52
 62
7
  6
CONTINUOUS
 10
-3109.82787809248
 20
1602.31186244865
  0
VERTEX
  8
52
 62
7
  6
CONTINUOUS
 10
-3112.7097183904
 20
1585.81431568079
  0
VERTEX
  8
52
 62
7
  6
CONTINUOUS
 10
-3113.0978399196
 20
1558.87984093629
  0
VERTEX
  8
52
 62
7
  6
CONTINUOUS
 10
-3109.78883890283
 20
1517.33781934953
  0
VERTEX
  8
52
 62
7
  6
CONTINUOUS
 10
-3110.49947905473
 20
1508.88211293533
  0
VERTEX
  8
52
 62
7
  6
CONTINUOUS
 10
-3112.35156377747
 20
1501.86839894714
  0
VERTEX
  8
52
 62
7
  6
CONTINUOUS
 10
-3118.78902429703
 20
1492.38857302329
  0
VERTEX
  8
52
 62
7
  6
CONTINUOUS
 10
-3128.99219151575
 20
1482.27675048891
  0
VERTEX
  8
52
 62
7
  6
CONTINUOUS
 10
-3153.95718597564
 20
1463.25205771265
  0
VERTEX
  8
52
 62
7
  6
CONTINUOUS
 10
-3157.98442012991
 20
1458.65234744998
  0
VERTEX
  8
52
 62
7
  6
CONTINUOUS
 10
-3159.87999841044
 20
1455.14544619546
  0
SEQEND
  0
POLYLINE
  8
52
 62
7
 66
1
 70
1
  0
VERTEX
  8
52
 62
7
  6
CONTINUOUS
 10
-3299.93126887215
 20
366.445675017865
  0
VERTEX
  8
52
 62
7
  6
CONTINUOUS
 10
-3298.51471072864
 20
357.352823677592
  0
VERTEX
  8
52
 62
7
  6
CONTINUOUS
 10
-3296.15408181302
 20
351.615990665307
  0
VERTEX
  8
52
 62
7
  6
CONTINUOUS
 10
-3292.4958632653
 20
346.451036240004
  0
VERTEX
  8
52
 62
7
  6
CONTINUOUS
 10
-3154.62113292584
 20
412.206478330501
  0
VERTEX
  8
52
 62
7
  6
CONTINUOUS
 10
-3159.00483734472
 20
423.382412444999
  0
VERTEX
  8
52
 62
7
  6
CONTINUOUS
 10
-3165.16361573358
 20
433.608732516916
  0
VERTEX
  8
52
 62
7
  6
CONTINUOUS
 10
-3172.13091556312
 20
441.090777043813
  0
VERTEX
  8
52
 62
7
  6
CONTINUOUS
 10
-3183.82362538885
 20
449.794223415353
  0
VERTEX
  8
52
 62
7
  6
CONTINUOUS
 10
-3196.52330513728
 20
455.913990683273
  0
VERTEX
  8
52
 62
7
  6
CONTINUOUS
 10
-3211.23500729828
 20
459.887812626555
  0
VERTEX
  8
52
 62
7
  6
CONTINUOUS
 10
-3221.84680018203
 20
460.116700967209
  0
VERTEX
  8
52
 62
7
  6
CONTINUOUS
 10
-3228.78791394365
 20
459.119019234386
  0
VERTEX
  8
52
 62
7
  6
CONTINUOUS
 10
-3231.73527653744
 20
457.938429654627
  0
VERTEX
  8
52
 62
7
  6
CONTINUOUS
 10
-3237.16929332751
 20
454.754118385202
  0
VERTEX
  8
52
 62
7
  6
CONTINUOUS
 10
-3244.90063516534
 20
448.469189864144
  0
VERTEX
  8
52
 62
7
  6
CONTINUOUS
 10
-3263.05428754321
 20
430.993967464174
  0
VERTEX
  8
52
 62
7
  6
CONTINUOUS
 10
-3281.46148646949
 20
410.283839866935
  0
VERTEX
  8
52
 62
7
  6
CONTINUOUS
 10
-3291.86346728718
 20
394.686186318981
  0
VERTEX
  8
52
 62
7
  6
CONTINUOUS
 10
-3297.20564400538
 20
382.033876390163
  0
VERTEX
  8
52
 62
7
  6
CONTINUOUS
 10
-3299.44146380111
 20
372.597424149094
  0
SEQEND
  0
POLYLINE
  8
52
 62
7
 66
1
 70
1
  0
VERTEX
  8
52
 62
7
  6
CONTINUOUS
 10
-2980.27641420863
 20
842.701593591183
  0
VERTEX
  8
52
 62
7
  6
CONTINUOUS
 10
-2979.84256785958
 20
841.593496927027
  0
VERTEX
  8
52
 62
7
  6
CONTINUOUS
 10
-2972.3135605154
 20
841.496264810311
  0
VERTEX
  8
52
 62
7
  6
CONTINUOUS
 10
-2976.05852715361
 20
844.135285569997
  0
VERTEX
  8
52
 62
7
  6
CONTINUOUS
 10
-2979.46953939477
 20
843.496075650492
  0
SEQEND
  0
POLYLINE
  8
52
 62
7
 66
1
 70
1
  0
VERTEX
  8
52
 62
7
  6
CONTINUOUS
 10
-2939.98151804006
 20
965.382345846704
  0
VERTEX
  8
52
 62
7
  6
CONTINUOUS
 10
-2939.74210359126
 20
964.032197920746
  0
VERTEX
  8
52
 62
7
  6
CONTINUOUS
 10
-2936.66312132272
 20
959.341401703377
  0
VERTEX
  8
52
 62
7
  6
CONTINUOUS
 10
-2934.36625372963
 20
957.625436377397
  0
VERTEX
  8
52
 62
7
  6
CONTINUOUS
 10
-2934.85204976632
 20
960.957996566726
  0
VERTEX
  8
52
 62
7
  6
CONTINUOUS
 10
-2937.43343734264
 20
966.977796794964
  0
VERTEX
  8
52
 62
7
  6
CONTINUOUS
 10
-2938.84176109334
 20
967.428578146035
  0
SEQEND
  0
POLYLINE
  8
52
 62
7
 66
1
 70
1
  0
VERTEX
  8
52
 62
7
  6
CONTINUOUS
 10
-2975.97240276785
 20
211.726393045006
  0
VERTEX
  8
52
 62
7
  6
CONTINUOUS
 10
-2954.19831920564
 20
222.677731884333
  0
VERTEX
  8
52
 62
7
  6
CONTINUOUS
 10
-2902.15342356304
 20
251.283158595771
  0
VERTEX
  8
52
 62
7
  6
CONTINUOUS
 10
-2895.92124332627
 20
253.942403799002
  0
VERTEX
  8
52
 62
7
  6
CONTINUOUS
 10
-2857.44557596584
 20
275.635089260207
  0
SEQEND
  0
POLYLINE
  8
52
 62
7
 66
1
 70
1
  0
VERTEX
  8
52
 62
7
  6
CONTINUOUS
 10
-2954.43516618714
 20
2291.55307277968
  0
VERTEX
  8
52
 62
7
  6
CONTINUOUS
 10
-2896.17292290136
 20
2282.38917566975
  0
VERTEX
  8
52
 62
7
  6
CONTINUOUS
 10
-2865.65091675428
 20
2278.68990344074
  0
VERTEX
  8
52
 62
7
  6
CONTINUOUS
 10
-2759.36229301498
 20
2270.06536974411
  0
VERTEX
  8
52
 62
7
  6
CONTINUOUS
 10
-2721.04774420496
 20
2267.56527067808
  0
VERTEX
  8
52
 62
7
  6
CONTINUOUS
 10
-2699.32630641673
 20
2267.31250292075
  0
SEQEND
  0
POLYLINE
  8
52
 62
7
 66
1
 70
1
  0
VERTEX
  8
52
 62
7
  6
CONTINUOUS
 10
-2917.17218656179
 20
2438.57806714055
  0
VERTEX
  8
52
 62
7
  6
CONTINUOUS
 10
-2914.76277975569
 20
2430.52019484943
  0
VERTEX
  8
52
 62
7
  6
CONTINUOUS
 10
-2907.8337800814
 20
2422.30449098186
  0
VERTEX
  8
52
 62
7
  6
CONTINUOUS
 10
-2903.20908426695
 20
2419.27960784211
  0
VERTEX
  8
52
 62
7
  6
CONTINUOUS
 10
-2898.38450960559
 20
2417.3200442698
  0
VERTEX
  8
52
 62
7
  6
CONTINUOUS
 10
-2890.54481385159
 20
2416.32884645587
  0
VERTEX
  8
52
 62
7
  6
CONTINUOUS
 10
-2895.61354512228
 20
2444.32490917083
  0
VERTEX
  8
52
 62
7
  6
CONTINUOUS
 10
-2903.00483268054
 20
2452.27973937254
  0
VERTEX
  8
52
 62
7
  6
CONTINUOUS
 10
-2907.65587413828
 20
2453.69709408721
  0
VERTEX
  8
52
 62
7
  6
CONTINUOUS
 10
-2911.57152036351
 20
2451.87859490584
  0
VERTEX
  8
52
 62
7
  6
CONTINUOUS
 10
-2914.31063699971
 20
2449.06197136907
  0
VERTEX
  8
52
 62
7
  6
CONTINUOUS
 10
-2916.65267043955
 20
2443.73883289039
  0
SEQEND
  0
POLYLINE
  8
52
 62
7
 66
1
 70
1
  0
VERTEX
  8
52
 62
7
  6
CONTINUOUS
 10
-2915.19015339485
 20
2665.49395104338
  0
VERTEX
  8
52
 62
7
  6
CONTINUOUS
 10
-2913.90918646606
 20
2646.25950686913
  0
VERTEX
  8
52
 62
7
  6
CONTINUOUS
 10
-2912.07676591058
 20
2636.32556724393
  0
VERTEX
  8
52
 62
7
  6
CONTINUOUS
 10
-2910.56480665914
 20
2634.03038588728
  0
VERTEX
  8
52
 62
7
  6
CONTINUOUS
 10
-2907.06085570796
 20
2635.6580363574
  0
VERTEX
  8
52
 62
7
  6
CONTINUOUS
 10
-2902.18267284394
 20
2643.60646555998
  0
VERTEX
  8
52
 62
7
  6
CONTINUOUS
 10
-2886.94605392816
 20
2681.01132970599
  0
VERTEX
  8
52
 62
7
  6
CONTINUOUS
 10
-2875.78097788787
 20
2712.02163242288
  0
VERTEX
  8
52
 62
7
  6
CONTINUOUS
 10
-2902.7499567108
 20
2711.55394697058
  0
VERTEX
  8
52
 62
7
  6
CONTINUOUS
 10
-2908.2233129483
 20
2702.74798189484
  0
VERTEX
  8
52
 62
7
  6
CONTINUOUS
 10
-2911.34514460716
 20
2694.87677484664
  0
VERTEX
  8
52
 62
7
  6
CONTINUOUS
 10
-2913.21465735978
 20
2688.56082744804
  0
VERTEX
  8
52
 62
7
  6
CONTINUOUS
 10
-2914.90708269771
 20
2677.72485345542
  0
SEQEND
  0
POLYLINE
  8
53
 62
7
 66
1
 70
1
  0
VERTEX
  8
53
 62
7
  6
CONTINUOUS
 10
-1188.49385150227
 20
2387.09781946808
  0
VERTEX
  8
53
 62
7
  6
CONTINUOUS
 10
-1183.49837115932
 20
2379.63964897893
  0
VERTEX
  8
53
 62
7
  6
CONTINUOUS
 10
-1176.60323903619
 20
2374.56630967007
  0
VERTEX
  8
53
 62
7
  6
CONTINUOUS
 10
-1167.39964456857
 20
2370.76705411204
  0
VERTEX
  8
53
 62
7
  6
CONTINUOUS
 10
-1156.75081139039
 20
2368.64290118634
  0
VERTEX
  8
53
 62
7
  6
CONTINUOUS
 10
-1148.08256705823
 20
2368.82824088662
  0
VERTEX
  8
53
 62
7
  6
CONTINUOUS
 10
-1139.3630403198
 20
2372.00674471797
  0
VERTEX
  8
53
 62
7
  6
CONTINUOUS
 10
-1136.44051358973
 20
2373.95017763452
  0
VERTEX
  8
53
 62
7
  6
CONTINUOUS
 10
-1129.43524241788
 20
2382.89040507382
  0
SEQEND
  0
POLYLINE
  8
53
 62
7
 66
1
 70
1
  0
VERTEX
  8
53
 62
7
  6
CONTINUOUS
 10
-1541.8458897565
 20
596.941406273496
  0
VERTEX
  8
53
 62
7
  6
CONTINUOUS
 10
-1540.10923934655
 20
590.197638632331
  0
VERTEX
  8
53
 62
7
  6
CONTINUOUS
 10
-1536.20519534142
 20
583.361472778141
  0
VERTEX
  8
53
 62
7
  6
CONTINUOUS
 10
-1529.68704053096
 20
576.120072238043
  0
VERTEX
  8
53
 62
7
  6
CONTINUOUS
 10
-1520.24052278498
 20
568.943121711979
  0
VERTEX
  8
53
 62
7
  6
CONTINUOUS
 10
-1509.68508195366
 20
563.001922976717
  0
VERTEX
  8
53
 62
7
  6
CONTINUOUS
 10
-1436.37924376092
 20
590.538550957837
  0
VERTEX
  8
53
 62
7
  6
CONTINUOUS
 10
-1438.36869824017
 20
596.226961405001
  0
VERTEX
  8
53
 62
7
  6
CONTINUOUS
 10
-1439.88657712153
 20
597.862823434929
  0
VERTEX
  8
53
 62
7
  6
CONTINUOUS
 10
-1453.46852738071
 20
608.569789523963
  0
VERTEX
  8
53
 62
7
  6
CONTINUOUS
 10
-1465.08794544405
 20
615.223645448272
  0
VERTEX
  8
53
 62
7
  6
CONTINUOUS
 10
-1479.49914201238
 20
620.95187504131
  0
VERTEX
  8
53
 62
7
  6
CONTINUOUS
 10
-1486.56519066485
 20
622.276278535138
  0
VERTEX
  8
53
 62
7
  6
CONTINUOUS
 10
-1490.89379839492
 20
622.229041262062
  0
VERTEX
  8
53
 62
7
  6
CONTINUOUS
 10
-1518.86084963795
 20
617.529592329853
  0
VERTEX
  8
53
 62
7
  6
CONTINUOUS
 10
-1528.25429701816
 20
614.533043462362
  0
VERTEX
  8
53
 62
7
  6
CONTINUOUS
 10
-1535.94416367227
 20
610.154025941294
  0
VERTEX
  8
53
 62
7
  6
CONTINUOUS
 10
-1541.44466508668
 20
602.130800162613
  0
SEQEND
  0
POLYLINE
  8
53
 62
7
 66
1
 70
1
  0
VERTEX
  8
53
 62
7
  6
CONTINUOUS
 10
-1139.98364460129
 20
2322.66779527952
  0
VERTEX
  8
53
 62
7
  6
CONTINUOUS
 10
-1136.91240237675
 20
2315.25317704208
  0
VERTEX
  8
53
 62
7
  6
CONTINUOUS
 10
-1132.39579409534
 20
2309.82204823151
  0
VERTEX
  8
53
 62
7
  6
CONTINUOUS
 10
-1129.59070725262
 20
2308.63770654255
  0
VERTEX
  8
53
 62
7
  6
CONTINUOUS
 10
-1122.65351707442
 20
2309.02143224195
  0
VERTEX
  8
53
 62
7
  6
CONTINUOUS
 10
-1125.12667148318
 20
2310.62254938596
  0
VERTEX
  8
53
 62
7
  6
CONTINUOUS
 10
-1116.73978951263
 20
2325.40069972457
  0
VERTEX
  8
53
 62
7
  6
CONTINUOUS
 10
-1116.47783831526
 20
2330.75021288941
  0
SEQEND
  0
POLYLINE
  8
53
 62
7
 66
1
 70
1
  0
VERTEX
  8
53
 62
7
  6
CONTINUOUS
 10
-1154.33693689198
 20
2164.94648770134
  0
VERTEX
  8
53
 62
7
  6
CONTINUOUS
 10
-1067.94834266273
 20
2224.42187864009
  0
VERTEX
  8
53
 62
7
  6
CONTINUOUS
 10
-1053.83225482604
 20
2235.15699003046
  0
VERTEX
  8
53
 62
7
  6
CONTINUOUS
 10
-1044.37447211069
 20
2266.36388604871
  0
VERTEX
  8
53
 62
7
  6
CONTINUOUS
 10
-1052.18642002368
 20
2259.88413053736
  0
VERTEX
  8
53
 62
7
  6
CONTINUOUS
 10
-1052.55850535091
 20
2256.73891923432
  0
VERTEX
  8
53
 62
7
  6
CONTINUOUS
 10
-1060.9432543398
 20
2248.80259991064
  0
VERTEX
  8
53
 62
7
  6
CONTINUOUS
 10
-1134.82252421512
 20
2186.18007297643
  0
SEQEND
  0
POLYLINE
  8
53
 62
7
 66
1
 70
1
  0
VERTEX
  8
53
 62
7
  6
CONTINUOUS
 10
-1640.71682633496
 20
707.085066497259
  0
VERTEX
  8
53
 62
7
  6
CONTINUOUS
 10
-1636.88888673382
 20
697.338623872382
  0
VERTEX
  8
53
 62
7
  6
CONTINUOUS
 10
-1633.10652782958
 20
691.398792860503
  0
VERTEX
  8
53
 62
7
  6
CONTINUOUS
 10
-1630.66709866363
 20
689.31052948883
  0
VERTEX
  8
53
 62
7
  6
CONTINUOUS
 10
-1626.91140017801
 20
688.228506806326
  0
VERTEX
  8
53
 62
7
  6
CONTINUOUS
 10
-1613.22706894166
 20
712.340331877734
  0
VERTEX
  8
53
 62
7
  6
CONTINUOUS
 10
-1622.14437773415
 20
717.91299480496
  0
VERTEX
  8
53
 62
7
  6
CONTINUOUS
 10
-1630.17123107374
 20
719.623245993403
  0
VERTEX
  8
53
 62
7
  6
CONTINUOUS
 10
-1634.14745898442
 20
719.147016077563
  0
VERTEX
  8
53
 62
7
  6
CONTINUOUS
 10
-1638.44183970496
 20
716.405208643072
  0
VERTEX
  8
53
 62
7
  6
CONTINUOUS
 10
-1640.13686125776
 20
714.151117684247
  0
SEQEND
  0
POLYLINE
  8
53
 62
7
 66
1
 70
1
  0
VERTEX
  8
53
 62
7
  6
CONTINUOUS
 10
-1571.22020202611
 20
1630.93556357393
  0
VERTEX
  8
53
 62
7
  6
CONTINUOUS
 10
-1570.16285007838
 20
1628.12469949904
  0
VERTEX
  8
53
 62
7
  6
CONTINUOUS
 10
-1565.0276576455
 20
1625.5278545985
  0
VERTEX
  8
53
 62
7
  6
CONTINUOUS
 10
-1524.98153451428
 20
1615.01346480949
  0
VERTEX
  8
53
 62
7
  6
CONTINUOUS
 10
-1183.83855843542
 20
1618.13046759533
  0
VERTEX
  8
53
 62
7
  6
CONTINUOUS
 10
-1264.72525212723
 20
1626.07344745692
  0
VERTEX
  8
53
 62
7
  6
CONTINUOUS
 10
-1468.23656868641
 20
1642.15539495271
  0
VERTEX
  8
53
 62
7
  6
CONTINUOUS
 10
-1507.61454230662
 20
1642.98341066865
  0
VERTEX
  8
53
 62
7
  6
CONTINUOUS
 10
-1522.13630084396
 20
1636.80833722417
  0
VERTEX
  8
53
 62
7
  6
CONTINUOUS
 10
-1566.15323258551
 20
1632.79226043346
  0
VERTEX
  8
53
 62
7
  6
CONTINUOUS
 10
-1569.67987136356
 20
1632.11494735829
  0
SEQEND
  0
POLYLINE
  8
53
 62
7
 66
1
 70
1
  0
VERTEX
  8
53
 62
7
  6
CONTINUOUS
 10
-3264.78569638983
 20
2977.33779109661
  0
VERTEX
  8
53
 62
7
  6
CONTINUOUS
 10
-3260.98048293762
 20
2966.40987543288
  0
VERTEX
  8
53
 62
7
  6
CONTINUOUS
 10
-3256.76509917641
 20
2958.08181849878
  0
VERTEX
  8
53
 62
7
  6
CONTINUOUS
 10
-3248.47108114978
 20
2944.65612440587
  0
VERTEX
  8
53
 62
7
  6
CONTINUOUS
 10
-3237.03047135964
 20
2929.42796413706
  0
VERTEX
  8
53
 62
7
  6
CONTINUOUS
 10
-3229.20130380923
 20
2920.92916816033
  0
VERTEX
  8
53
 62
7
  6
CONTINUOUS
 10
-3215.76176365968
 20
2909.41694018598
  0
VERTEX
  8
53
 62
7
  6
CONTINUOUS
 10
-3207.58355871605
 20
2903.7951064512
  0
VERTEX
  8
53
 62
7
  6
CONTINUOUS
 10
-3196.74366996064
 20
2898.56565654059
  0
VERTEX
  8
53
 62
7
  6
CONTINUOUS
 10
-3192.0946973335
 20
2897.77843473444
  0
VERTEX
  8
53
 62
7
  6
CONTINUOUS
 10
-3188.16674460156
 20
2898.31827098997
  0
VERTEX
  8
53
 62
7
  6
CONTINUOUS
 10
-3184.82604069999
 20
2900.33607075375
  0
VERTEX
  8
53
 62
7
  6
CONTINUOUS
 10
-3180.7048365359
 20
2905.80569953518
  0
VERTEX
  8
53
 62
7
  6
CONTINUOUS
 10
-3176.960648031
 20
2927.09164436938
  0
VERTEX
  8
53
 62
7
  6
CONTINUOUS
 10
-3175.74271651053
 20
2950.99374362889
  0
SEQEND
  0
POLYLINE
  8
53
 62
7
 66
1
 70
1
  0
VERTEX
  8
53
 62
7
  6
CONTINUOUS
 10
-1737.1813256195
 20
573.373658175242
  0
VERTEX
  8
53
 62
7
  6
CONTINUOUS
 10
-1729.98872275865
 20
566.106149013871
  0
VERTEX
  8
53
 62
7
  6
CONTINUOUS
 10
-1723.60882198544
 20
562.420472464537
  0
VERTEX
  8
53
 62
7
  6
CONTINUOUS
 10
-1702.23243563977
 20
596.945399899426
  0
VERTEX
  8
53
 62
7
  6
CONTINUOUS
 10
-1704.35241500945
 20
598.315891376323
  0
VERTEX
  8
53
 62
7
  6
CONTINUOUS
 10
-1717.10410817887
 20
598.950295570626
  0
VERTEX
  8
53
 62
7
  6
CONTINUOUS
 10
-1728.13936536895
 20
593.010136491013
  0
VERTEX
  8
53
 62
7
  6
CONTINUOUS
 10
-1732.72959368658
 20
589.282460845945
  0
VERTEX
  8
53
 62
7
  6
CONTINUOUS
 10
-1736.28386951538
 20
584.912422818979
  0
VERTEX
  8
53
 62
7
  6
CONTINUOUS
 10
-1737.16684921264
 20
581.815415811445
  0
SEQEND
  0
POLYLINE
  8
53
 62
7
 66
1
 70
1
  0
VERTEX
  8
53
 62
7
  6
CONTINUOUS
 10
-3154.61411312913
 20
2826.82652082071
  0
VERTEX
  8
53
 62
7
  6
CONTINUOUS
 10
-3153.95043170205
 20
2817.76698438242
  0
VERTEX
  8
53
 62
7
  6
CONTINUOUS
 10
-3149.94222583975
 20
2804.86566641871
  0
VERTEX
  8
53
 62
7
  6
CONTINUOUS
 10
-3146.0392107093
 20
2798.33101601145
  0
VERTEX
  8
53
 62
7
  6
CONTINUOUS
 10
-3142.44323561465
 20
2795.0305248404
  0
VERTEX
  8
53
 62
7
  6
CONTINUOUS
 10
-3139.90618177289
 20
2794.17161981968
  0
VERTEX
  8
53
 62
7
  6
CONTINUOUS
 10
-3137.56985246832
 20
2796.92885818304
  0
VERTEX
  8
53
 62
7
  6
CONTINUOUS
 10
-3136.05641449564
 20
2803.97733227989
  0
VERTEX
  8
53
 62
7
  6
CONTINUOUS
 10
-3137.19023444787
 20
2841.81467866607
  0
SEQEND
  0
POLYLINE
  8
53
 62
7
 66
1
 70
1
  0
VERTEX
  8
53
 62
7
  6
CONTINUOUS
 10
-3079.18223134049
 20
2849.69537760955
  0
VERTEX
  8
53
 62
7
  6
CONTINUOUS
 10
-3073.47043412735
 20
2843.3815652705
  0
VERTEX
  8
53
 62
7
  6
CONTINUOUS
 10
-3069.78181737442
 20
2841.5450609223
  0
VERTEX
  8
53
 62
7
  6
CONTINUOUS
 10
-3065.93281983869
 20
2841.47356741287
  0
VERTEX
  8
53
 62
7
  6
CONTINUOUS
 10
-3064.22806349083
 20
2843.86288139897
  0
VERTEX
  8
53
 62
7
  6
CONTINUOUS
 10
-3064.04634550712
 20
2846.67063252993
  0
VERTEX
  8
53
 62
7
  6
CONTINUOUS
 10
-3065.38111502327
 20
2853.18074906745
  0
VERTEX
  8
53
 62
7
  6
CONTINUOUS
 10
-3073.64234154149
 20
2870.52273125498
  0
SEQEND
  0
POLYLINE
  8
53
 62
7
 66
1
 70
1
  0
VERTEX
  8
53
 62
7
  6
CONTINUOUS
 10
-3105.43206298197
 20
2775.8826703234
  0
VERTEX
  8
53
 62
7
  6
CONTINUOUS
 10
-3104.91154984903
 20
2770.65106163462
  0
VERTEX
  8
53
 62
7
  6
CONTINUOUS
 10
-3102.51026467183
 20
2766.27192832898
  0
VERTEX
  8
53
 62
7
  6
CONTINUOUS
 10
-3095.91254771843
 20
2760.58831006291
  0
VERTEX
  8
53
 62
7
  6
CONTINUOUS
 10
-3094.70376218118
 20
2776.20054583527
  0
VERTEX
  8
53
 62
7
  6
CONTINUOUS
 10
-3098.27166185475
 20
2781.73471342528
  0
VERTEX
  8
53
 62
7
  6
CONTINUOUS
 10
-3100.63383928968
 20
2782.51406490975
  0
VERTEX
  8
53
 62
7
  6
CONTINUOUS
 10
-3102.45743948079
 20
2781.77556162645
  0
VERTEX
  8
53
 62
7
  6
CONTINUOUS
 10
-3104.09878799976
 20
2779.90328554262
  0
SEQEND
  0
POLYLINE
  8
53
 62
7
 66
1
 70
1
  0
VERTEX
  8
53
 62
7
  6
CONTINUOUS
 10
-3251.80070233109
 20
2727.27286495264
  0
VERTEX
  8
53
 62
7
  6
CONTINUOUS
 10
-3251.77275895384
 20
2718.97509181714
  0
VERTEX
  8
53
 62
7
  6
CONTINUOUS
 10
-3248.58841760388
 20
2707.3756550062
  0
VERTEX
  8
53
 62
7
  6
CONTINUOUS
 10
-3245.85203031453
 20
2702.98045826199
  0
VERTEX
  8
53
 62
7
  6
CONTINUOUS
 10
-3241.99073744053
 20
2700.20690626928
  0
VERTEX
  8
53
 62
7
  6
CONTINUOUS
 10
-3237.43689894323
 20
2700.33756139814
  0
VERTEX
  8
53
 62
7
  6
CONTINUOUS
 10
-3232.83964596973
 20
2704.00173447218
  0
VERTEX
  8
53
 62
7
  6
CONTINUOUS
 10
-3230.20419189275
 20
2718.92533204147
  0
VERTEX
  8
53
 62
7
  6
CONTINUOUS
 10
-3227.64108976651
 20
2729.26627088937
  0
VERTEX
  8
53
 62
7
  6
CONTINUOUS
 10
-3227.73554979262
 20
2736.5565876529
  0
VERTEX
  8
53
 62
7
  6
CONTINUOUS
 10
-3228.96034809151
 20
2740.86025526346
  0
VERTEX
  8
53
 62
7
  6
CONTINUOUS
 10
-3231.96326042029
 20
2742.6061316226
  0
VERTEX
  8
53
 62
7
  6
CONTINUOUS
 10
-3238.25221476764
 20
2742.70790128217
  0
VERTEX
  8
53
 62
7
  6
CONTINUOUS
 10
-3241.95658373822
 20
2742.32768812516
  0
VERTEX
  8
53
 62
7
  6
CONTINUOUS
 10
-3246.13243609844
 20
2740.25883734366
  0
VERTEX
  8
53
 62
7
  6
CONTINUOUS
 10
-3249.54740300808
 20
2736.39875614969
  0
SEQEND
  0
POLYLINE
  8
53
 62
7
 66
1
 70
1
  0
VERTEX
  8
53
 62
7
  6
CONTINUOUS
 10
-3411.09135866445
 20
2363.16186844867
  0
VERTEX
  8
53
 62
7
  6
CONTINUOUS
 10
-3398.93637772171
 20
2351.61417808511
  0
VERTEX
  8
53
 62
7
  6
CONTINUOUS
 10
-3394.8885781324
 20
2366.43780990275
  0
VERTEX
  8
53
 62
7
  6
CONTINUOUS
 10
-3394.67028697207
 20
2369.93807616269
  0
VERTEX
  8
53
 62
7
  6
CONTINUOUS
 10
-3395.55496525215
 20
2371.94054738063
  0
VERTEX
  8
53
 62
7
  6
CONTINUOUS
 10
-3396.93303397408
 20
2372.72022536207
  0
VERTEX
  8
53
 62
7
  6
CONTINUOUS
 10
-3406.15251541412
 20
2372.35464519108
  0
VERTEX
  8
53
 62
7
  6
CONTINUOUS
 10
-3409.48044241762
 20
2369.28876789827
  0
SEQEND
  0
POLYLINE
  8
53
 62
7
 66
1
 70
1
  0
VERTEX
  8
53
 62
7
  6
CONTINUOUS
 10
-3070.64234037877
 20
291.827563497767
  0
VERTEX
  8
53
 62
7
  6
CONTINUOUS
 10
-3070.39388011353
 20
286.857319162154
  0
VERTEX
  8
53
 62
7
  6
CONTINUOUS
 10
-3047.5069234741
 20
270.028094169133
  0
VERTEX
  8
53
 62
7
  6
CONTINUOUS
 10
-3046.96866050231
 20
277.213739400945
  0
VERTEX
  8
53
 62
7
  6
CONTINUOUS
 10
-3051.2341676707
 20
293.02194284536
  0
VERTEX
  8
53
 62
7
  6
CONTINUOUS
 10
-3056.86302018169
 20
302.608491984155
  0
VERTEX
  8
53
 62
7
  6
CONTINUOUS
 10
-3060.16729991967
 20
305.775360394645
  0
VERTEX
  8
53
 62
7
  6
CONTINUOUS
 10
-3061.7870720063
 20
305.790042341356
  0
VERTEX
  8
53
 62
7
  6
CONTINUOUS
 10
-3063.22572255423
 20
304.693050160835
  0
VERTEX
  8
53
 62
7
  6
CONTINUOUS
 10
-3069.5091377473
 20
295.247333723097
  0
SEQEND
  0
POLYLINE
  8
53
 62
7
 66
1
 70
1
  0
VERTEX
  8
53
 62
7
  6
CONTINUOUS
 10
-3455.28013533424
 20
1185.04717510475
  0
VERTEX
  8
53
 62
7
  6
CONTINUOUS
 10
-3451.33097105013
 20
1182.49834761574
  0
VERTEX
  8
53
 62
7
  6
CONTINUOUS
 10
-3443.08359355652
 20
1170.10152749257
  0
VERTEX
  8
53
 62
7
  6
CONTINUOUS
 10
-3441.32110726489
 20
1170.13721508875
  0
VERTEX
  8
53
 62
7
  6
CONTINUOUS
 10
-3439.88792422374
 20
1173.65686044604
  0
VERTEX
  8
53
 62
7
  6
CONTINUOUS
 10
-3440.02317602487
 20
1180.64812333962
  0
VERTEX
  8
53
 62
7
  6
CONTINUOUS
 10
-3440.96043908495
 20
1186.67615950019
  0
VERTEX
  8
53
 62
7
  6
CONTINUOUS
 10
-3443.67780359422
 20
1193.65375783098
  0
SEQEND
  0
POLYLINE
  8
53
 62
7
 66
1
 70
1
  0
VERTEX
  8
53
 62
7
  6
CONTINUOUS
 10
-2851.37681023638
 20
2618.90065033633
  0
VERTEX
  8
53
 62
7
  6
CONTINUOUS
 10
-2851.08268579395
 20
2609.92969053719
  0
VERTEX
  8
53
 62
7
  6
CONTINUOUS
 10
-2847.07824673973
 20
2595.65770585937
  0
VERTEX
  8
53
 62
7
  6
CONTINUOUS
 10
-2842.49918449908
 20
2586.19207920064
  0
VERTEX
  8
53
 62
7
  6
CONTINUOUS
 10
-2835.58083953769
 20
2578.30779129887
  0
VERTEX
  8
53
 62
7
  6
CONTINUOUS
 10
-2829.39766327312
 20
2575.64709557996
  0
VERTEX
  8
53
 62
7
  6
CONTINUOUS
 10
-2822.53105002079
 20
2575.71575153687
  0
VERTEX
  8
53
 62
7
  6
CONTINUOUS
 10
-2812.29301888518
 20
2578.83797560427
  0
VERTEX
  8
53
 62
7
  6
CONTINUOUS
 10
-2804.46091756086
 20
2583.08759258416
  0
VERTEX
  8
53
 62
7
  6
CONTINUOUS
 10
-2797.23368841895
 20
2589.03215621607
  0
VERTEX
  8
53
 62
7
  6
CONTINUOUS
 10
-2788.37409219941
 20
2599.33522909911
  0
VERTEX
  8
53
 62
7
  6
CONTINUOUS
 10
-2783.21605356748
 20
2609.34223825032
  0
VERTEX
  8
53
 62
7
  6
CONTINUOUS
 10
-2781.00114077736
 20
2617.34486492965
  0
VERTEX
  8
53
 62
7
  6
CONTINUOUS
 10
-2781.24322831508
 20
2636.6219851685
  0
VERTEX
  8
53
 62
7
  6
CONTINUOUS
 10
-2843.31563197731
 20
2629.07113896563
  0
VERTEX
  8
53
 62
7
  6
CONTINUOUS
 10
-2848.1045499938
 20
2626.11040737687
  0
VERTEX
  8
53
 62
7
  6
CONTINUOUS
 10
-2850.35694287523
 20
2622.74316851705
  0
SEQEND
  0
POLYLINE
  8
53
 62
7
 66
1
 70
1
  0
VERTEX
  8
53
 62
7
  6
CONTINUOUS
 10
-2369.52643550593
 20
697.358171123204
  0
VERTEX
  8
53
 62
7
  6
CONTINUOUS
 10
-2367.93269116456
 20
695.235478633167
  0
VERTEX
  8
53
 62
7
  6
CONTINUOUS
 10
-2365.99019853856
 20
700.643666555882
  0
VERTEX
  8
53
 62
7
  6
CONTINUOUS
 10
-2359.31034494619
 20
697.154196281975
  0
VERTEX
  8
53
 62
7
  6
CONTINUOUS
 10
-2356.08823161457
 20
696.3839043039
  0
VERTEX
  8
53
 62
7
  6
CONTINUOUS
 10
-2355.24353363292
 20
696.870933208897
  0
VERTEX
  8
53
 62
7
  6
CONTINUOUS
 10
-2356.14099263075
 20
698.618052091039
  0
VERTEX
  8
53
 62
7
  6
CONTINUOUS
 10
-2358.28829298809
 20
700.070105691198
  0
VERTEX
  8
53
 62
7
  6
CONTINUOUS
 10
-2365.39093505406
 20
700.997299204198
  0
VERTEX
  8
53
 62
7
  6
CONTINUOUS
 10
-2369.50960810077
 20
699.478089936126
  0
SEQEND
  0
POLYLINE
  8
53
 62
7
 66
1
 70
1
  0
VERTEX
  8
53
 62
7
  6
CONTINUOUS
 10
-2087.34717724314
 20
2549.40588249614
  0
VERTEX
  8
53
 62
7
  6
CONTINUOUS
 10
-2085.29349568978
 20
2541.72082776957
  0
VERTEX
  8
53
 62
7
  6
CONTINUOUS
 10
-2078.13902231904
 20
2530.23915374211
  0
VERTEX
  8
53
 62
7
  6
CONTINUOUS
 10
-2076.12968652005
 20
2528.05778036312
  0
VERTEX
  8
53
 62
7
  6
CONTINUOUS
 10
-2072.87795502989
 20
2529.04064192672
  0
VERTEX
  8
53
 62
7
  6
CONTINUOUS
 10
-2069.24780922996
 20
2532.50825987409
  0
VERTEX
  8
53
 62
7
  6
CONTINUOUS
 10
-2066.97654486396
 20
2536.26651479067
  0
VERTEX
  8
53
 62
7
  6
CONTINUOUS
 10
-2060.67224728707
 20
2554.3241774783
  0
VERTEX
  8
53
 62
7
  6
CONTINUOUS
 10
-2056.16800199467
 20
2575.04620785594
  0
VERTEX
  8
53
 62
7
  6
CONTINUOUS
 10
-2052.18466649776
 20
2599.68665275328
  0
SEQEND
  0
POLYLINE
  8
53
 62
7
 66
1
 70
1
  0
VERTEX
  8
53
 62
7
  6
CONTINUOUS
 10
-2058.7459322301
 20
692.225212056243
  0
VERTEX
  8
53
 62
7
  6
CONTINUOUS
 10
-2058.16552903242
 20
674.088937641824
  0
VERTEX
  8
53
 62
7
  6
CONTINUOUS
 10
-2055.9983818062
 20
660.920790109001
  0
VERTEX
  8
53
 62
7
  6
CONTINUOUS
 10
-2052.63648334139
 20
649.073766824295
  0
VERTEX
  8
53
 62
7
  6
CONTINUOUS
 10
-2052.23635301499
 20
644.22720391061
  0
VERTEX
  8
53
 62
7
  6
CONTINUOUS
 10
-2049.42009410071
 20
638.627039156445
  0
VERTEX
  8
53
 62
7
  6
CONTINUOUS
 10
-2003.84632174479
 20
650.513577593686
  0
VERTEX
  8
53
 62
7
  6
CONTINUOUS
 10
-2008.71054754048
 20
682.316445916677
  0
VERTEX
  8
53
 62
7
  6
CONTINUOUS
 10
-2014.6618392946
 20
705.392778114824
  0
VERTEX
  8
53
 62
7
  6
CONTINUOUS
 10
-2019.16522188359
 20
719.302395935968
  0
VERTEX
  8
53
 62
7
  6
CONTINUOUS
 10
-2030.2351701517
 20
743.746322726429
  0
VERTEX
  8
53
 62
7
  6
CONTINUOUS
 10
-2034.32555298255
 20
748.046485689926
  0
VERTEX
  8
53
 62
7
  6
CONTINUOUS
 10
-2038.66929492714
 20
748.739840095023
  0
VERTEX
  8
53
 62
7
  6
CONTINUOUS
 10
-2041.46036845912
 20
747.157401611388
  0
VERTEX
  8
53
 62
7
  6
CONTINUOUS
 10
-2044.30617675068
 20
743.966606499113
  0
VERTEX
  8
53
 62
7
  6
CONTINUOUS
 10
-2051.45144081137
 20
731.402218484598
  0
VERTEX
  8
53
 62
7
  6
CONTINUOUS
 10
-2054.95486926246
 20
721.505322720416
  0
VERTEX
  8
53
 62
7
  6
CONTINUOUS
 10
-2057.83698143253
 20
705.648812764274
  0
SEQEND
  0
POLYLINE
  8
53
 62
7
 66
1
 70
1
  0
VERTEX
  8
53
 62
7
  6
CONTINUOUS
 10
-2849.76795285273
 20
549.044305692919
  0
VERTEX
  8
53
 62
7
  6
CONTINUOUS
 10
-2849.13168972902
 20
534.244386532596
  0
VERTEX
  8
53
 62
7
  6
CONTINUOUS
 10
-2845.28429291289
 20
522.971656498046
  0
VERTEX
  8
53
 62
7
  6
CONTINUOUS
 10
-2840.90375307114
 20
514.985563848934
  0
VERTEX
  8
53
 62
7
  6
CONTINUOUS
 10
-2836.88152351758
 20
509.32405605947
  0
VERTEX
  8
53
 62
7
  6
CONTINUOUS
 10
-2832.02530873422
 20
504.812229988736
  0
VERTEX
  8
53
 62
7
  6
CONTINUOUS
 10
-2805.4930135125
 20
593.298602357588
  0
VERTEX
  8
53
 62
7
  6
CONTINUOUS
 10
-2810.86853245461
 20
596.430230733809
  0
VERTEX
  8
53
 62
7
  6
CONTINUOUS
 10
-2824.07669731786
 20
597.191248290011
  0
VERTEX
  8
53
 62
7
  6
CONTINUOUS
 10
-2830.81112636471
 20
595.62593494848
  0
VERTEX
  8
53
 62
7
  6
CONTINUOUS
 10
-2835.42254378746
 20
590.051943657002
  0
VERTEX
  8
53
 62
7
  6
CONTINUOUS
 10
-2837.74538307474
 20
583.898339925285
  0
VERTEX
  8
53
 62
7
  6
CONTINUOUS
 10
-2843.3284358884
 20
575.2630480124
  0
VERTEX
  8
53
 62
7
  6
CONTINUOUS
 10
-2846.71666399856
 20
567.285074569223
  0
VERTEX
  8
53
 62
7
  6
CONTINUOUS
 10
-2848.95033561981
 20
558.199979810202
  0
SEQEND
  0
POLYLINE
  8
53
 62
7
 66
1
 70
1
  0
VERTEX
  8
53
 62
7
  6
CONTINUOUS
 10
-997.545059800522
 20
1189.15313222073
  0
VERTEX
  8
53
 62
7
  6
CONTINUOUS
 10
-914.142648628236
 20
1182.67562448293
  0
VERTEX
  8
53
 62
7
  6
CONTINUOUS
 10
-920.404017610556
 20
1188.0539613402
  0
VERTEX
  8
53
 62
7
  6
CONTINUOUS
 10
-943.624564020236
 20
1199.96001114847
  0
VERTEX
  8
53
 62
7
  6
CONTINUOUS
 10
-963.027195098609
 20
1206.40540969466
  0
VERTEX
  8
53
 62
7
  6
CONTINUOUS
 10
-977.164036865993
 20
1208.83033568308
  0
VERTEX
  8
53
 62
7
  6
CONTINUOUS
 10
-984.578421675623
 20
1207.92397117772
  0
VERTEX
  8
53
 62
7
  6
CONTINUOUS
 10
-993.422519931719
 20
1203.19626839566
  0
VERTEX
  8
53
 62
7
  6
CONTINUOUS
 10
-995.773186041211
 20
1200.41032001558
  0
VERTEX
  8
53
 62
7
  6
CONTINUOUS
 10
-997.364413282733
 20
1196.88461160394
  0
SEQEND
  0
POLYLINE
  8
54
 62
7
 66
1
 70
1
  0
VERTEX
  8
54
 62
7
  6
CONTINUOUS
 10
-1304.12692837098
 20
2339.62521568207
  0
VERTEX
  8
54
 62
7
  6
CONTINUOUS
 10
-1302.44244154544
 20
2336.34697485976
  0
VERTEX
  8
54
 62
7
  6
CONTINUOUS
 10
-1303.30802232925
 20
2335.82694586677
  0
VERTEX
  8
54
 62
7
  6
CONTINUOUS
 10
-1300.26808294504
 20
2333.83006926343
  0
VERTEX
  8
54
 62
7
  6
CONTINUOUS
 10
-1298.93927092715
 20
2334.74690170368
  0
VERTEX
  8
54
 62
7
  6
CONTINUOUS
 10
-1299.83069010279
 20
2335.18210541961
  0
VERTEX
  8
54
 62
7
  6
CONTINUOUS
 10
-1298.89720896663
 20
2336.29081707181
  0
VERTEX
  8
54
 62
7
  6
CONTINUOUS
 10
-1296.44211289362
 20
2338.29245615871
  0
VERTEX
  8
54
 62
7
  6
CONTINUOUS
 10
-1295.33583360336
 20
2341.36430640803
  0
VERTEX
  8
54
 62
7
  6
CONTINUOUS
 10
-1296.22787113385
 20
2342.42162177044
  0
VERTEX
  8
54
 62
7
  6
CONTINUOUS
 10
-1294.24968655479
 20
2344.83651226881
  0
VERTEX
  8
54
 62
7
  6
CONTINUOUS
 10
-1295.42895623932
 20
2346.52300647451
  0
VERTEX
  8
54
 62
7
  6
CONTINUOUS
 10
-1293.87108297232
 20
2349.49228559007
  0
VERTEX
  8
54
 62
7
  6
CONTINUOUS
 10
-1293.51658810369
 20
2357.92093847181
  0
VERTEX
  8
54
 62
7
  6
CONTINUOUS
 10
-1295.86839892551
 20
2360.60838576442
  0
VERTEX
  8
54
 62
7
  6
CONTINUOUS
 10
-1296.80455004167
 20
2372.69929140011
  0
VERTEX
  8
54
 62
7
  6
CONTINUOUS
 10
-1302.55233835061
 20
2341.76134532225
  0
VERTEX
  8
54
 62
7
  6
CONTINUOUS
 10
-1302.944709444
 20
2340.29246928332
  0
SEQEND
  0
POLYLINE
  8
54
 62
7
 66
1
 70
1
  0
VERTEX
  8
54
 62
7
  6
CONTINUOUS
 10
-3348.57900853813
 20
1346.67219936735
  0
VERTEX
  8
54
 62
7
  6
CONTINUOUS
 10
-3347.66171358094
 20
1343.62111849352
  0
VERTEX
  8
54
 62
7
  6
CONTINUOUS
 10
-3345.52919215344
 20
1341.44455968525
  0
VERTEX
  8
54
 62
7
  6
CONTINUOUS
 10
-3342.84075907471
 20
1341.82152756412
  0
VERTEX
  8
54
 62
7
  6
CONTINUOUS
 10
-3340.50050054847
 20
1343.1976360934
  0
VERTEX
  8
54
 62
7
  6
CONTINUOUS
 10
-3335.26617954701
 20
1349.74831245603
  0
VERTEX
  8
54
 62
7
  6
CONTINUOUS
 10
-3303.68933279683
 20
1398.98219582043
  0
VERTEX
  8
54
 62
7
  6
CONTINUOUS
 10
-3300.8006479484
 20
1406.61669827529
  0
VERTEX
  8
54
 62
7
  6
CONTINUOUS
 10
-3300.14634101103
 20
1412.24264891548
  0
VERTEX
  8
54
 62
7
  6
CONTINUOUS
 10
-3302.43240157827
 20
1415.27265797151
  0
VERTEX
  8
54
 62
7
  6
CONTINUOUS
 10
-3307.53317559666
 20
1417.68864973733
  0
VERTEX
  8
54
 62
7
  6
CONTINUOUS
 10
-3314.27219064229
 20
1417.98943377858
  0
VERTEX
  8
54
 62
7
  6
CONTINUOUS
 10
-3320.00075915952
 20
1415.29602942606
  0
VERTEX
  8
54
 62
7
  6
CONTINUOUS
 10
-3324.63325229494
 20
1411.06144081428
  0
VERTEX
  8
54
 62
7
  6
CONTINUOUS
 10
-3329.27869138254
 20
1404.89383431101
  0
VERTEX
  8
54
 62
7
  6
CONTINUOUS
 10
-3335.24877799376
 20
1395.13373767307
  0
VERTEX
  8
54
 62
7
  6
CONTINUOUS
 10
-3340.45773979728
 20
1383.38612959674
  0
VERTEX
  8
54
 62
7
  6
CONTINUOUS
 10
-3344.90815272798
 20
1370.99469962631
  0
VERTEX
  8
54
 62
7
  6
CONTINUOUS
 10
-3348.52018503909
 20
1355.80832301565
  0
SEQEND
  0
POLYLINE
  8
54
 62
7
 66
1
 70
1
  0
VERTEX
  8
54
 62
7
  6
CONTINUOUS
 10
-2231.72347322114
 20
1987.51107537644
  0
VERTEX
  8
54
 62
7
  6
CONTINUOUS
 10
-2230.07644020064
 20
1987.12436859622
  0
VERTEX
  8
54
 62
7
  6
CONTINUOUS
 10
-2221.9774357507
 20
1979.18186110754
  0
VERTEX
  8
54
 62
7
  6
CONTINUOUS
 10
-2219.59793997311
 20
1977.92878355647
  0
VERTEX
  8
54
 62
7
  6
CONTINUOUS
 10
-2217.35903966365
 20
1978.12481918819
  0
VERTEX
  8
54
 62
7
  6
CONTINUOUS
 10
-2217.42506718858
 20
1979.46056401805
  0
VERTEX
  8
54
 62
7
  6
CONTINUOUS
 10
-2220.38041786332
 20
1983.9428094637
  0
VERTEX
  8
54
 62
7
  6
CONTINUOUS
 10
-2225.03361608482
 20
1988.17179326906
  0
VERTEX
  8
54
 62
7
  6
CONTINUOUS
 10
-2228.1262245309
 20
1988.99556030707
  0
VERTEX
  8
54
 62
7
  6
CONTINUOUS
 10
-2230.79581002743
 20
1988.45661795078
  0
SEQEND
  0
POLYLINE
  8
54
 62
7
 66
1
 70
1
  0
VERTEX
  8
54
 62
7
  6
CONTINUOUS
 10
-1073.30250859868
 20
1923.75287137401
  0
VERTEX
  8
54
 62
7
  6
CONTINUOUS
 10
-1061.02716826678
 20
1914.43759436906
  0
VERTEX
  8
54
 62
7
  6
CONTINUOUS
 10
-1057.62126472202
 20
1913.54811977639
  0
VERTEX
  8
54
 62
7
  6
CONTINUOUS
 10
-1054.83301843799
 20
1914.04059048108
  0
VERTEX
  8
54
 62
7
  6
CONTINUOUS
 10
-1051.90214639949
 20
1918.0522076265
  0
VERTEX
  8
54
 62
7
  6
CONTINUOUS
 10
-1053.4125914542
 20
1933.73346954111
  0
SEQEND
  0
POLYLINE
  8
1
 62
7
 66
1
 70
1
  0
VERTEX
  8
1
 62
7
  6
CONTINUOUS
 10
-3515.64444444445
 20
2869.33333333333
  0
VERTEX
  8
1
 62
7
  6
CONTINUOUS
 10
-3504.8
 20
2836.8
  0
VERTEX
  8
1
 62
7
  6
CONTINUOUS
 10
-3495.17181208054
 20
2801.4966442953
  0
VERTEX
  8
1
 62
7
  6
CONTINUOUS
 10
-3443.52566371681
 20
2765.26725663717
  0
VERTEX
  8
1
 62
7
  6
CONTINUOUS
 10
-3423.54285714286
 20
2747.50476190476
  0
VERTEX
  8
1
 62
7
  6
CONTINUOUS
 10
-3414.32727272727
 20
2732.14545454545
  0
VERTEX
  8
1
 62
7
  6
CONTINUOUS
 10
-3411.2
 20
2721.2
  0
VERTEX
  8
1
 62
7
  6
CONTINUOUS
 10
-3411.2
 20
2704.4
  0
VERTEX
  8
1
 62
7
  6
CONTINUOUS
 10
-3415.81538461539
 20
2679.01538461539
  0
VERTEX
  8
1
 62
7
  6
CONTINUOUS
 10
-3427.95051546392
 20
2638.56494845361
  0
VERTEX
  8
1
 62
7
  6
CONTINUOUS
 10
-3427.2
 20
2616.8
  0
VERTEX
  8
1
 62
7
  6
CONTINUOUS
 10
-3416.21492537313
 20
2598.65074626866
  0
VERTEX
  8
1
 62
7
  6
CONTINUOUS
 10
-3371.92727272727
 20
2546.98181818182
  0
VERTEX
  8
1
 62
7
  6
CONTINUOUS
 10
-3345.025
 20
2512.99999999999
  0
VERTEX
  8
1
 62
7
  6
CONTINUOUS
 10
-3336.4
 20
2499.2
  0
VERTEX
  8
1
 62
7
  6
CONTINUOUS
 10
-3322.64795321637
 20
2471.69590643275
  0
VERTEX
  8
1
 62
7
  6
CONTINUOUS
 10
-3370.4
 20
2428.8
  0
VERTEX
  8
1
 62
7
  6
CONTINUOUS
 10
-3379.6
 20
2416
  0
VERTEX
  8
1
 62
7
  6
CONTINUOUS
 10
-3415.2
 20
2344.8
  0
VERTEX
  8
1
 62
7
  6
CONTINUOUS
 10
-3427.2
 20
2332.8
  0
VERTEX
  8
1
 62
7
  6
CONTINUOUS
 10
-3456.52173913043
 20
2313.25217391304
  0
VERTEX
  8
1
 62
7
  6
CONTINUOUS
 10
-3464.8
 20
2303.2
  0
VERTEX
  8
1
 62
7
  6
CONTINUOUS
 10
-3457.33333333333
 20
2260.53333333333
  0
VERTEX
  8
1
 62
7
  6
CONTINUOUS
 10
-3458.88155339806
 20
2224.92427184466
  0
VERTEX
  8
1
 62
7
  6
CONTINUOUS
 10
-3476.56322869955
 20
2098.43228699552
  0
VERTEX
  8
1
 62
7
  6
CONTINUOUS
 10
-3475.2
 20
2084.8
  0
VERTEX
  8
1
 62
7
  6
CONTINUOUS
 10
-3456.8
 20
2033.6
  0
VERTEX
  8
1
 62
7
  6
CONTINUOUS
 10
-3427.52101910828
 20
1983.65350318471
  0
VERTEX
  8
1
 62
7
  6
CONTINUOUS
 10
-3417.6
 20
1958.4
  0
VERTEX
  8
1
 62
7
  6
CONTINUOUS
 10
-3388.8
 20
1900.8
  0
VERTEX
  8
1
 62
7
  6
CONTINUOUS
 10
-3314.26666666667
 20
1814.13333333333
  0
VERTEX
  8
1
 62
7
  6
CONTINUOUS
 10
-3300.7
 20
1787
  0
VERTEX
  8
1
 62
7
  6
CONTINUOUS
 10
-3275.05454545455
 20
1751.49090909091
  0
VERTEX
  8
1
 62
7
  6
CONTINUOUS
 10
-3258.97142857143
 20
1724.68571428571
  0
VERTEX
  8
1
 62
7
  6
CONTINUOUS
 10
-3246.69629629629
 20
1697.06666666665
  0
VERTEX
  8
1
 62
7
  6
CONTINUOUS
 10
-3235.87368421053
 20
1658.10526315789
  0
VERTEX
  8
1
 62
7
  6
CONTINUOUS
 10
-3232.4
 20
1639
  0
VERTEX
  8
1
 62
7
  6
CONTINUOUS
 10
-3229.51836734694
 20
1605.8612244898
  0
VERTEX
  8
1
 62
7
  6
CONTINUOUS
 10
-3231.43529411765
 20
1580.94117647059
  0
VERTEX
  8
1
 62
7
  6
CONTINUOUS
 10
-3236.8
 20
1556.8
  0
VERTEX
  8
1
 62
7
  6
CONTINUOUS
 10
-3243.2
 20
1537.6
  0
VERTEX
  8
1
 62
7
  6
CONTINUOUS
 10
-3256
 20
1512
  0
VERTEX
  8
1
 62
7
  6
CONTINUOUS
 10
-3272.45714285714
 20
1489.37142857143
  0
VERTEX
  8
1
 62
7
  6
CONTINUOUS
 10
-3291.57647058824
 20
1468.65882352941
  0
VERTEX
  8
1
 62
7
  6
CONTINUOUS
 10
-3332.02962962963
 20
1436.29629629629
  0
VERTEX
  8
1
 62
7
  6
CONTINUOUS
 10
-3359.2
 20
1393.6
  0
VERTEX
  8
1
 62
7
  6
CONTINUOUS
 10
-3364.8
 20
1367.2
  0
VERTEX
  8
1
 62
7
  6
CONTINUOUS
 10
-3380.6
 20
1319.8
  0
VERTEX
  8
1
 62
7
  6
CONTINUOUS
 10
-3382.61763224181
 20
1300.29622166247
  0
VERTEX
  8
1
 62
7
  6
CONTINUOUS
 10
-3404.68698884758
 20
1258.75390334573
  0
VERTEX
  8
1
 62
7
  6
CONTINUOUS
 10
-3452.59130434783
 20
1185.80869565217
  0
VERTEX
  8
1
 62
7
  6
CONTINUOUS
 10
-3464.22857142857
 20
1174.17142857143
  0
VERTEX
  8
1
 62
7
  6
CONTINUOUS
 10
-3470.4
 20
1175.2
  0
VERTEX
  8
1
 62
7
  6
CONTINUOUS
 10
-3475.2
 20
1182.4
  0
VERTEX
  8
1
 62
7
  6
CONTINUOUS
 10
-3484.8
 20
1180.8
  0
VERTEX
  8
1
 62
7
  6
CONTINUOUS
 10
-3476.60487804878
 20
1171.78536585366
  0
VERTEX
  8
1
 62
7
  6
CONTINUOUS
 10
-3477.72307692308
 20
1168.43076923077
  0
VERTEX
  8
1
 62
7
  6
CONTINUOUS
 10
-3487.42857142857
 20
1160.34285714286
  0
VERTEX
  8
1
 62
7
  6
CONTINUOUS
 10
-3509.62237762238
 20
1147.02657342657
  0
VERTEX
  8
1
 62
7
  6
CONTINUOUS
 10
-3512.07755458515
 20
1040.22637554585
  0
VERTEX
  8
1
 62
7
  6
CONTINUOUS
 10
-3475.53432835821
 20
1020.54925373134
  0
VERTEX
  8
1
 62
7
  6
CONTINUOUS
 10
-3466.4
 20
1010.4
  0
VERTEX
  8
1
 62
7
  6
CONTINUOUS
 10
-3444.13658536586
 20
975.414634146342
  0
VERTEX
  8
1
 62
7
  6
CONTINUOUS
 10
-3427.34328358209
 20
942.877611940298
  0
VERTEX
  8
1
 62
7
  6
CONTINUOUS
 10
-3424.8
 20
934.4
  0
VERTEX
  8
1
 62
7
  6
CONTINUOUS
 10
-3395.2
 20
878.4
  0
VERTEX
  8
1
 62
7
  6
CONTINUOUS
 10
-3328.18614958449
 20
808.873130193906
  0
VERTEX
  8
1
 62
7
  6
CONTINUOUS
 10
-3308.04705882353
 20
780.988235294118
  0
VERTEX
  8
1
 62
7
  6
CONTINUOUS
 10
-3297.6
 20
768.8
  0
VERTEX
  8
1
 62
7
  6
CONTINUOUS
 10
-3291.2
 20
763.2
  0
VERTEX
  8
1
 62
7
  6
CONTINUOUS
 10
-3284.4
 20
754.7
  0
VERTEX
  8
1
 62
7
  6
CONTINUOUS
 10
-3277.92
 20
743.360000000001
  0
VERTEX
  8
1
 62
7
  6
CONTINUOUS
 10
-3276
 20
732.8
  0
VERTEX
  8
1
 62
7
  6
CONTINUOUS
 10
-3276
 20
720
  0
VERTEX
  8
1
 62
7
  6
CONTINUOUS
 10
-3278.32727272727
 20
714.181818181818
  0
VERTEX
  8
1
 62
7
  6
CONTINUOUS
 10
-3289.6
 20
698.400000000001
  0
VERTEX
  8
1
 62
7
  6
CONTINUOUS
 10
-3318.75744680851
 20
678.96170212766
  0
VERTEX
  8
1
 62
7
  6
CONTINUOUS
 10
-3331.2
 20
659.2
  0
VERTEX
  8
1
 62
7
  6
CONTINUOUS
 10
-3345.6
 20
644.800000000001
  0
VERTEX
  8
1
 62
7
  6
CONTINUOUS
 10
-3407.46666666667
 20
598.4
  0
VERTEX
  8
1
 62
7
  6
CONTINUOUS
 10
-3411.15
 20
595.15
  0
VERTEX
  8
1
 62
7
  6
CONTINUOUS
 10
-3381.6
 20
565.6
  0
VERTEX
  8
1
 62
7
  6
CONTINUOUS
 10
-3370.62857142857
 20
549.142857142858
  0
VERTEX
  8
1
 62
7
  6
CONTINUOUS
 10
-3363.2
 20
529.333333333334
  0
VERTEX
  8
1
 62
7
  6
CONTINUOUS
 10
-3363.2
 20
516
  0
VERTEX
  8
1
 62
7
  6
CONTINUOUS
 10
-3365.06666666667
 20
506.666666666667
  0
VERTEX
  8
1
 62
7
  6
CONTINUOUS
 10
-3369.6
 20
497.6
  0
VERTEX
  8
1
 62
7
  6
CONTINUOUS
 10
-3389.1
 20
471.6
  0
VERTEX
  8
1
 62
7
  6
CONTINUOUS
 10
-3398.17142857143
 20
420.8
  0
VERTEX
  8
1
 62
7
  6
CONTINUOUS
 10
-3414.03835616438
 20
354.158904109589
  0
VERTEX
  8
1
 62
7
  6
CONTINUOUS
 10
-3413.6
 20
343.2
  0
VERTEX
  8
1
 62
7
  6
CONTINUOUS
 10
-3387.2
 20
323.2
  0
VERTEX
  8
1
 62
7
  6
CONTINUOUS
 10
-3364
 20
313.6
  0
VERTEX
  8
1
 62
7
  6
CONTINUOUS
 10
-3340.8
 20
313.6
  0
VERTEX
  8
1
 62
7
  6
CONTINUOUS
 10
-3316
 20
324
  0
VERTEX
  8
1
 62
7
  6
CONTINUOUS
 10
-3278.4
 20
356
  0
VERTEX
  8
1
 62
7
  6
CONTINUOUS
 10
-3242.74285714286
 20
414.579591836734
  0
VERTEX
  8
1
 62
7
  6
CONTINUOUS
 10
-3235.2
 20
423.2
  0
VERTEX
  8
1
 62
7
  6
CONTINUOUS
 10
-3227.2
 20
428.8
  0
VERTEX
  8
1
 62
7
  6
CONTINUOUS
 10
-3219.73333333333
 20
432
  0
VERTEX
  8
1
 62
7
  6
CONTINUOUS
 10
-3203.6
 20
432
  0
VERTEX
  8
1
 62
7
  6
CONTINUOUS
 10
-3198.4
 20
442.4
  0
VERTEX
  8
1
 62
7
  6
CONTINUOUS
 10
-3196.8
 20
442.4
  0
VERTEX
  8
1
 62
7
  6
CONTINUOUS
 10
-3193.48571428571
 20
432.457142857143
  0
VERTEX
  8
1
 62
7
  6
CONTINUOUS
 10
-3183.2
 20
425.6
  0
VERTEX
  8
1
 62
7
  6
CONTINUOUS
 10
-3173.6
 20
416
  0
VERTEX
  8
1
 62
7
  6
CONTINUOUS
 10
-3153.46440677966
 20
391.389830508474
  0
VERTEX
  8
1
 62
7
  6
CONTINUOUS
 10
-3099.48235294118
 20
339.56705882353
  0
VERTEX
  8
1
 62
7
  6
CONTINUOUS
 10
-3091.2
 20
328.8
  0
VERTEX
  8
1
 62
7
  6
CONTINUOUS
 10
-3079.12
 20
304.64
  0
VERTEX
  8
1
 62
7
  6
CONTINUOUS
 10
-3060.32941176471
 20
284.141176470588
  0
VERTEX
  8
1
 62
7
  6
CONTINUOUS
 10
-3048.8
 20
268
  0
VERTEX
  8
1
 62
7
  6
CONTINUOUS
 10
-3033.6
 20
233.6
  0
VERTEX
  8
1
 62
7
  6
CONTINUOUS
 10
-3025.09503546099
 20
208.085106382978
  0
VERTEX
  8
1
 62
7
  6
CONTINUOUS
 10
-2984.8
 20
194.4
  0
VERTEX
  8
1
 62
7
  6
CONTINUOUS
 10
-2947.2
 20
198.4
  0
VERTEX
  8
1
 62
7
  6
CONTINUOUS
 10
-2922.60392156863
 20
208.392156862745
  0
VERTEX
  8
1
 62
7
  6
CONTINUOUS
 10
-2892
 20
269.6
  0
VERTEX
  8
1
 62
7
  6
CONTINUOUS
 10
-2886.90149253731
 20
287.808955223881
  0
VERTEX
  8
1
 62
7
  6
CONTINUOUS
 10
-2891.12131147541
 20
313.127868852459
  0
VERTEX
  8
1
 62
7
  6
CONTINUOUS
 10
-2887.18873239437
 20
337.50985915493
  0
VERTEX
  8
1
 62
7
  6
CONTINUOUS
 10
-2890.4
 20
363.2
  0
VERTEX
  8
1
 62
7
  6
CONTINUOUS
 10
-2890.4
 20
393.333333333333
  0
VERTEX
  8
1
 62
7
  6
CONTINUOUS
 10
-2869.6
 20
459.2
  0
VERTEX
  8
1
 62
7
  6
CONTINUOUS
 10
-2866.4
 20
467.2
  0
VERTEX
  8
1
 62
7
  6
CONTINUOUS
 10
-2856.8
 20
493.6
  0
VERTEX
  8
1
 62
7
  6
CONTINUOUS
 10
-2848
 20
515.6
  0
VERTEX
  8
1
 62
7
  6
CONTINUOUS
 10
-2848
 20
557.359999999996
  0
VERTEX
  8
1
 62
7
  6
CONTINUOUS
 10
-2838.82627737226
 20
585.798540145985
  0
VERTEX
  8
1
 62
7
  6
CONTINUOUS
 10
-2845.6
 20
611.2
  0
VERTEX
  8
1
 62
7
  6
CONTINUOUS
 10
-2845.6
 20
613.92
  0
VERTEX
  8
1
 62
7
  6
CONTINUOUS
 10
-2840.8
 20
612
  0
VERTEX
  8
1
 62
7
  6
CONTINUOUS
 10
-2830.29422718808
 20
593.614897579143
  0
VERTEX
  8
1
 62
7
  6
CONTINUOUS
 10
-2773.6
 20
601.6
  0
VERTEX
  8
1
 62
7
  6
CONTINUOUS
 10
-2772
 20
603.2
  0
VERTEX
  8
1
 62
7
  6
CONTINUOUS
 10
-2712.18181818182
 20
607.472727272727
  0
VERTEX
  8
1
 62
7
  6
CONTINUOUS
 10
-2680
 20
606.4
  0
VERTEX
  8
1
 62
7
  6
CONTINUOUS
 10
-2667.2
 20
604
  0
VERTEX
  8
1
 62
7
  6
CONTINUOUS
 10
-2642.15652173913
 20
596.579710144928
  0
VERTEX
  8
1
 62
7
  6
CONTINUOUS
 10
-2598.62857142857
 20
565.142857142857
  0
VERTEX
  8
1
 62
7
  6
CONTINUOUS
 10
-2592
 20
555.2
  0
VERTEX
  8
1
 62
7
  6
CONTINUOUS
 10
-2584.89238845144
 20
549.513910761155
  0
VERTEX
  8
1
 62
7
  6
CONTINUOUS
 10
-2501.6
 20
550.4
  0
VERTEX
  8
1
 62
7
  6
CONTINUOUS
 10
-2430.4
 20
556.8
  0
VERTEX
  8
1
 62
7
  6
CONTINUOUS
 10
-2408.57109144543
 20
567.277876106195
  0
VERTEX
  8
1
 62
7
  6
CONTINUOUS
 10
-2367.2
 20
575.2
  0
VERTEX
  8
1
 62
7
  6
CONTINUOUS
 10
-2271.28888888889
 20
589.955555555556
  0
VERTEX
  8
1
 62
7
  6
CONTINUOUS
 10
-2187.2
 20
605.6
  0
VERTEX
  8
1
 62
7
  6
CONTINUOUS
 10
-2106.12317460317
 20
622.344126984127
  0
VERTEX
  8
1
 62
7
  6
CONTINUOUS
 10
-2075.15707317073
 20
623.159024390244
  0
VERTEX
  8
1
 62
7
  6
CONTINUOUS
 10
-2053.6
 20
652.8
  0
VERTEX
  8
1
 62
7
  6
CONTINUOUS
 10
-2040.3
 20
666.1
  0
VERTEX
  8
1
 62
7
  6
CONTINUOUS
 10
-2029.87692307692
 20
667.215384615385
  0
VERTEX
  8
1
 62
7
  6
CONTINUOUS
 10
-2019.2
 20
651.2
  0
VERTEX
  8
1
 62
7
  6
CONTINUOUS
 10
-2017.6
 20
641.6
  0
VERTEX
  8
1
 62
7
  6
CONTINUOUS
 10
-2017.6
 20
631.6
  0
VERTEX
  8
1
 62
7
  6
CONTINUOUS
 10
-2021.6
 20
617.6
  0
VERTEX
  8
1
 62
7
  6
CONTINUOUS
 10
-2032
 20
593.6
  0
VERTEX
  8
1
 62
7
  6
CONTINUOUS
 10
-2015.2
 20
559.2
  0
VERTEX
  8
1
 62
7
  6
CONTINUOUS
 10
-1944.82943882245
 20
478.655381784727
  0
VERTEX
  8
1
 62
7
  6
CONTINUOUS
 10
-1885.10344827586
 20
381.324137931035
  0
VERTEX
  8
1
 62
7
  6
CONTINUOUS
 10
-1839.08571428571
 20
355.75873015873
  0
VERTEX
  8
1
 62
7
  6
CONTINUOUS
 10
-1816.8
 20
337.6
  0
VERTEX
  8
1
 62
7
  6
CONTINUOUS
 10
-1800.07741935484
 20
351.225806451613
  0
VERTEX
  8
1
 62
7
  6
CONTINUOUS
 10
-1778.4
 20
376
  0
VERTEX
  8
1
 62
7
  6
CONTINUOUS
 10
-1764
 20
408.8
  0
VERTEX
  8
1
 62
7
  6
CONTINUOUS
 10
-1757.6
 20
432.8
  0
VERTEX
  8
1
 62
7
  6
CONTINUOUS
 10
-1762.4
 20
468.8
  0
VERTEX
  8
1
 62
7
  6
CONTINUOUS
 10
-1763.83333333333
 20
513.233333333333
  0
VERTEX
  8
1
 62
7
  6
CONTINUOUS
 10
-1767.2
 20
536.8
  0
VERTEX
  8
1
 62
7
  6
CONTINUOUS
 10
-1767.2
 20
549.066666666667
  0
VERTEX
  8
1
 62
7
  6
CONTINUOUS
 10
-1755.6
 20
568.4
  0
VERTEX
  8
1
 62
7
  6
CONTINUOUS
 10
-1747.2
 20
576.8
  0
VERTEX
  8
1
 62
7
  6
CONTINUOUS
 10
-1724.91428571429
 20
584.228571428571
  0
VERTEX
  8
1
 62
7
  6
CONTINUOUS
 10
-1721.25
 20
589.725
  0
VERTEX
  8
1
 62
7
  6
CONTINUOUS
 10
-1714.66690843155
 20
594.893200362647
  0
VERTEX
  8
1
 62
7
  6
CONTINUOUS
 10
-1679.2
 20
614.4
  0
VERTEX
  8
1
 62
7
  6
CONTINUOUS
 10
-1645.90476190476
 20
631.047619047619
  0
VERTEX
  8
1
 62
7
  6
CONTINUOUS
 10
-1642.73548387097
 20
665.909677419355
  0
VERTEX
  8
1
 62
7
  6
CONTINUOUS
 10
-1638.4
 20
680
  0
VERTEX
  8
1
 62
7
  6
CONTINUOUS
 10
-1629.08235294118
 20
703.294117647059
  0
VERTEX
  8
1
 62
7
  6
CONTINUOUS
 10
-1636.11707317073
 20
705.639024390244
  0
VERTEX
  8
1
 62
7
  6
CONTINUOUS
 10
-1622.4
 20
711.2
  0
VERTEX
  8
1
 62
7
  6
CONTINUOUS
 10
-1598.68387096774
 20
687.483870967742
  0
VERTEX
  8
1
 62
7
  6
CONTINUOUS
 10
-1548.31768953069
 20
607.091696750903
  0
VERTEX
  8
1
 62
7
  6
CONTINUOUS
 10
-1530.4
 20
594.4
  0
VERTEX
  8
1
 62
7
  6
CONTINUOUS
 10
-1496
 20
588.8
  0
VERTEX
  8
1
 62
7
  6
CONTINUOUS
 10
-1459.2
 20
589.6
  0
VERTEX
  8
1
 62
7
  6
CONTINUOUS
 10
-1433.6
 20
596.8
  0
VERTEX
  8
1
 62
7
  6
CONTINUOUS
 10
-1420
 20
621.6
  0
VERTEX
  8
1
 62
7
  6
CONTINUOUS
 10
-1419.26530612245
 20
629.926530612245
  0
VERTEX
  8
1
 62
7
  6
CONTINUOUS
 10
-1420.8
 20
712.8
  0
VERTEX
  8
1
 62
7
  6
CONTINUOUS
 10
-1429.6
 20
740
  0
VERTEX
  8
1
 62
7
  6
CONTINUOUS
 10
-1432.8
 20
755.2
  0
VERTEX
  8
1
 62
7
  6
CONTINUOUS
 10
-1432.8
 20
780
  0
VERTEX
  8
1
 62
7
  6
CONTINUOUS
 10
-1429.65714285714
 20
798.857142857143
  0
VERTEX
  8
1
 62
7
  6
CONTINUOUS
 10
-1424
 20
806.4
  0
VERTEX
  8
1
 62
7
  6
CONTINUOUS
 10
-1412.8
 20
818.4
  0
VERTEX
  8
1
 62
7
  6
CONTINUOUS
 10
-1412
 20
820
  0
VERTEX
  8
1
 62
7
  6
CONTINUOUS
 10
-1404.67692307692
 20
820
  0
VERTEX
  8
1
 62
7
  6
CONTINUOUS
 10
-1339.2
 20
850.4
  0
VERTEX
  8
1
 62
7
  6
CONTINUOUS
 10
-1315.008
 20
872.8
  0
VERTEX
  8
1
 62
7
  6
CONTINUOUS
 10
-1308.4
 20
872.8
  0
VERTEX
  8
1
 62
7
  6
CONTINUOUS
 10
-1292.16
 20
863.52
  0
VERTEX
  8
1
 62
7
  6
CONTINUOUS
 10
-1280
 20
854.4
  0
VERTEX
  8
1
 62
7
  6
CONTINUOUS
 10
-1266.4
 20
840.8
  0
VERTEX
  8
1
 62
7
  6
CONTINUOUS
 10
-1264
 20
836.8
  0
VERTEX
  8
1
 62
7
  6
CONTINUOUS
 10
-1213.33031161473
 20
778.89178470255
  0
VERTEX
  8
1
 62
7
  6
CONTINUOUS
 10
-1200
 20
803.2
  0
VERTEX
  8
1
 62
7
  6
CONTINUOUS
 10
-1196.8
 20
821.6
  0
VERTEX
  8
1
 62
7
  6
CONTINUOUS
 10
-1198.4
 20
899.2
  0
VERTEX
  8
1
 62
7
  6
CONTINUOUS
 10
-1199.2
 20
900.8
  0
VERTEX
  8
1
 62
7
  6
CONTINUOUS
 10
-1231.33913043478
 20
932.939130434783
  0
VERTEX
  8
1
 62
7
  6
CONTINUOUS
 10
-1275.11442307692
 20
999.088461538462
  0
VERTEX
  8
1
 62
7
  6
CONTINUOUS
 10
-1275.80833333333
 20
1012.96666666667
  0
VERTEX
  8
1
 62
7
  6
CONTINUOUS
 10
-1307.78181818182
 20
1038.54545454545
  0
VERTEX
  8
1
 62
7
  6
CONTINUOUS
 10
-1316.16
 20
1048.32
  0
VERTEX
  8
1
 62
7
  6
CONTINUOUS
 10
-1324.16
 20
1064.32
  0
VERTEX
  8
1
 62
7
  6
CONTINUOUS
 10
-1328
 20
1076.8
  0
VERTEX
  8
1
 62
7
  6
CONTINUOUS
 10
-1328
 20
1093.92
  0
VERTEX
  8
1
 62
7
  6
CONTINUOUS
 10
-1321.6
 20
1108
  0
VERTEX
  8
1
 62
7
  6
CONTINUOUS
 10
-1301.6
 20
1112.8
  0
VERTEX
  8
1
 62
7
  6
CONTINUOUS
 10
-1280.8
 20
1112.8
  0
VERTEX
  8
1
 62
7
  6
CONTINUOUS
 10
-1229.89090909091
 20
1108.55757575758
  0
VERTEX
  8
1
 62
7
  6
CONTINUOUS
 10
-1210.33924050633
 20
1109.48860759494
  0
VERTEX
  8
1
 62
7
  6
CONTINUOUS
 10
-1160.48
 20
1149.376
  0
VERTEX
  8
1
 62
7
  6
CONTINUOUS
 10
-1136.8
 20
1162.4
  0
VERTEX
  8
1
 62
7
  6
CONTINUOUS
 10
-1111.33333333333
 20
1175.13333333333
  0
VERTEX
  8
1
 62
7
  6
CONTINUOUS
 10
-1074.6
 20
1187.7
  0
VERTEX
  8
1
 62
7
  6
CONTINUOUS
 10
-1056.69873417722
 20
1190.6835443038
  0
VERTEX
  8
1
 62
7
  6
CONTINUOUS
 10
-962.773056994818
 20
1189.39689119171
  0
VERTEX
  8
1
 62
7
  6
CONTINUOUS
 10
-931.456880733945
 20
1185.78348623853
  0
VERTEX
  8
1
 62
7
  6
CONTINUOUS
 10
-870.4
 20
1162.4
  0
VERTEX
  8
1
 62
7
  6
CONTINUOUS
 10
-858.56
 20
1156.48
  0
VERTEX
  8
1
 62
7
  6
CONTINUOUS
 10
-807.474538745387
 20
1119.32693726937
  0
VERTEX
  8
1
 62
7
  6
CONTINUOUS
 10
-763.986740331492
 20
1105.55580110497
  0
VERTEX
  8
1
 62
7
  6
CONTINUOUS
 10
-745.6
 20
1129.6
  0
VERTEX
  8
1
 62
7
  6
CONTINUOUS
 10
-724.8
 20
1174.4
  0
VERTEX
  8
1
 62
7
  6
CONTINUOUS
 10
-724
 20
1201.6
  0
VERTEX
  8
1
 62
7
  6
CONTINUOUS
 10
-738.188441330998
 20
1281.27355516637
  0
VERTEX
  8
1
 62
7
  6
CONTINUOUS
 10
-754.4
 20
1338.4
  0
VERTEX
  8
1
 62
7
  6
CONTINUOUS
 10
-771.942168674699
 20
1356.61686746988
  0
VERTEX
  8
1
 62
7
  6
CONTINUOUS
 10
-856.177777777778
 20
1390.31111111111
  0
VERTEX
  8
1
 62
7
  6
CONTINUOUS
 10
-876.4
 20
1402.95
  0
VERTEX
  8
1
 62
7
  6
CONTINUOUS
 10
-903.968
 20
1427.072
  0
VERTEX
  8
1
 62
7
  6
CONTINUOUS
 10
-936.7
 20
1441.1
  0
VERTEX
  8
1
 62
7
  6
CONTINUOUS
 10
-979.36
 20
1464.8
  0
VERTEX
  8
1
 62
7
  6
CONTINUOUS
 10
-988.8
 20
1464.8
  0
VERTEX
  8
1
 62
7
  6
CONTINUOUS
 10
-997.333333333333
 20
1467.64444444444
  0
VERTEX
  8
1
 62
7
  6
CONTINUOUS
 10
-1016
 20
1477.6
  0
VERTEX
  8
1
 62
7
  6
CONTINUOUS
 10
-1028.4
 20
1489.17333333333
  0
VERTEX
  8
1
 62
7
  6
CONTINUOUS
 10
-1045.71076923077
 20
1507.63815384615
  0
VERTEX
  8
1
 62
7
  6
CONTINUOUS
 10
-1065.6
 20
1550.4
  0
VERTEX
  8
1
 62
7
  6
CONTINUOUS
 10
-1078.32380952381
 20
1582.20952380952
  0
VERTEX
  8
1
 62
7
  6
CONTINUOUS
 10
-1081.76
 20
1583.584
  0
VERTEX
  8
1
 62
7
  6
CONTINUOUS
 10
-1108.78873239437
 20
1608.08638497653
  0
VERTEX
  8
1
 62
7
  6
CONTINUOUS
 10
-1106.17278106509
 20
1628.14201183432
  0
VERTEX
  8
1
 62
7
  6
CONTINUOUS
 10
-1091.27272727273
 20
1637.45454545455
  0
VERTEX
  8
1
 62
7
  6
CONTINUOUS
 10
-1074.08695652174
 20
1634.01739130435
  0
VERTEX
  8
1
 62
7
  6
CONTINUOUS
 10
-1033.62309542903
 20
1610.4134723336
  0
VERTEX
  8
1
 62
7
  6
CONTINUOUS
 10
-961.6
 20
1665.6
  0
VERTEX
  8
1
 62
7
  6
CONTINUOUS
 10
-932
 20
1690.4
  0
VERTEX
  8
1
 62
7
  6
CONTINUOUS
 10
-925.066666666667
 20
1693.86666666667
  0
VERTEX
  8
1
 62
7
  6
CONTINUOUS
 10
-912.486956521738
 20
1697.46086956522
  0
VERTEX
  8
1
 62
7
  6
CONTINUOUS
 10
-874.4
 20
1700
  0
VERTEX
  8
1
 62
7
  6
CONTINUOUS
 10
-872.8
 20
1703.2
  0
VERTEX
  8
1
 62
7
  6
CONTINUOUS
 10
-850.4
 20
1703.2
  0
VERTEX
  8
1
 62
7
  6
CONTINUOUS
 10
-710.4
 20
1750.4
  0
VERTEX
  8
1
 62
7
  6
CONTINUOUS
 10
-680
 20
1776
  0
VERTEX
  8
1
 62
7
  6
CONTINUOUS
 10
-664
 20
1801.6
  0
VERTEX
  8
1
 62
7
  6
CONTINUOUS
 10
-655.2
 20
1837.6
  0
VERTEX
  8
1
 62
7
  6
CONTINUOUS
 10
-660
 20
1870.4
  0
VERTEX
  8
1
 62
7
  6
CONTINUOUS
 10
-677.958620689655
 20
1899.47586206897
  0
VERTEX
  8
1
 62
7
  6
CONTINUOUS
 10
-681.333333333333
 20
1909.6
  0
VERTEX
  8
1
 62
7
  6
CONTINUOUS
 10
-692
 20
1973.6
  0
VERTEX
  8
1
 62
7
  6
CONTINUOUS
 10
-709.942857142857
 20
1991.54285714286
  0
VERTEX
  8
1
 62
7
  6
CONTINUOUS
 10
-808
 20
2027.2
  0
VERTEX
  8
1
 62
7
  6
CONTINUOUS
 10
-825.36170212766
 20
2037.41276595745
  0
VERTEX
  8
1
 62
7
  6
CONTINUOUS
 10
-848
 20
2055.2
  0
VERTEX
  8
1
 62
7
  6
CONTINUOUS
 10
-880.8
 20
2067.2
  0
VERTEX
  8
1
 62
7
  6
CONTINUOUS
 10
-975.94606741573
 20
2073.76179775281
  0
VERTEX
  8
1
 62
7
  6
CONTINUOUS
 10
-977.8
 20
2068.2
  0
VERTEX
  8
1
 62
7
  6
CONTINUOUS
 10
-980
 20
2070.4
  0
VERTEX
  8
1
 62
7
  6
CONTINUOUS
 10
-984
 20
2080
  0
VERTEX
  8
1
 62
7
  6
CONTINUOUS
 10
-989.6
 20
2072.53333333333
  0
VERTEX
  8
1
 62
7
  6
CONTINUOUS
 10
-989.6
 20
2060.62222222222
  0
VERTEX
  8
1
 62
7
  6
CONTINUOUS
 10
-998.4
 20
2026.4
  0
VERTEX
  8
1
 62
7
  6
CONTINUOUS
 10
-1015.6
 20
1974.8
  0
VERTEX
  8
1
 62
7
  6
CONTINUOUS
 10
-1026.68235294118
 20
1919.38823529412
  0
VERTEX
  8
1
 62
7
  6
CONTINUOUS
 10
-1032.26666666667
 20
1915.2
  0
VERTEX
  8
1
 62
7
  6
CONTINUOUS
 10
-1051.2
 20
1915.2
  0
VERTEX
  8
1
 62
7
  6
CONTINUOUS
 10
-1060.8
 20
1920
  0
VERTEX
  8
1
 62
7
  6
CONTINUOUS
 10
-1070.4
 20
1929.6
  0
VERTEX
  8
1
 62
7
  6
CONTINUOUS
 10
-1074.8
 20
1936.2
  0
VERTEX
  8
1
 62
7
  6
CONTINUOUS
 10
-1080
 20
1954.4
  0
VERTEX
  8
1
 62
7
  6
CONTINUOUS
 10
-1080
 20
1975.2
  0
VERTEX
  8
1
 62
7
  6
CONTINUOUS
 10
-1055.75384615385
 20
2060.06153846154
  0
VERTEX
  8
1
 62
7
  6
CONTINUOUS
 10
-1052.8555984556
 20
2082.76447876448
  0
VERTEX
  8
1
 62
7
  6
CONTINUOUS
 10
-1070.4
 20
2096.8
  0
VERTEX
  8
1
 62
7
  6
CONTINUOUS
 10
-1080
 20
2106.4
  0
VERTEX
  8
1
 62
7
  6
CONTINUOUS
 10
-1085.6
 20
2117.6
  0
VERTEX
  8
1
 62
7
  6
CONTINUOUS
 10
-1090.83636363636
 20
2130.69090909091
  0
VERTEX
  8
1
 62
7
  6
CONTINUOUS
 10
-1092.55384615385
 20
2144.43076923077
  0
VERTEX
  8
1
 62
7
  6
CONTINUOUS
 10
-1090
 20
2157.2
  0
VERTEX
  8
1
 62
7
  6
CONTINUOUS
 10
-1083.68
 20
2176.16
  0
VERTEX
  8
1
 62
7
  6
CONTINUOUS
 10
-1038.2243902439
 20
2255.70731707317
  0
VERTEX
  8
1
 62
7
  6
CONTINUOUS
 10
-995.2
 20
2352
  0
VERTEX
  8
1
 62
7
  6
CONTINUOUS
 10
-995.2
 20
2363.2
  0
VERTEX
  8
1
 62
7
  6
CONTINUOUS
 10
-1004.8
 20
2378.4
  0
VERTEX
  8
1
 62
7
  6
CONTINUOUS
 10
-1034.1601609658
 20
2385.353722334
  0
VERTEX
  8
1
 62
7
  6
CONTINUOUS
 10
-1095.2
 20
2338.4
  0
VERTEX
  8
1
 62
7
  6
CONTINUOUS
 10
-1110.4
 20
2328.26666666667
  0
VERTEX
  8
1
 62
7
  6
CONTINUOUS
 10
-1122.61818181818
 20
2322.83636363636
  0
VERTEX
  8
1
 62
7
  6
CONTINUOUS
 10
-1130.98181818182
 20
2321.16363636364
  0
VERTEX
  8
1
 62
7
  6
CONTINUOUS
 10
-1135.06666666667
 20
2329.33333333333
  0
VERTEX
  8
1
 62
7
  6
CONTINUOUS
 10
-1142.47441860465
 20
2388.59534883721
  0
VERTEX
  8
1
 62
7
  6
CONTINUOUS
 10
-1145.6
 20
2396.8
  0
VERTEX
  8
1
 62
7
  6
CONTINUOUS
 10
-1154.4
 20
2404.8
  0
VERTEX
  8
1
 62
7
  6
CONTINUOUS
 10
-1166.4
 20
2404.8
  0
VERTEX
  8
1
 62
7
  6
CONTINUOUS
 10
-1231.78412698413
 20
2366.08571428572
  0
VERTEX
  8
1
 62
7
  6
CONTINUOUS
 10
-1264.8
 20
2356.8
  0
VERTEX
  8
1
 62
7
  6
CONTINUOUS
 10
-1283.8
 20
2355.74444444444
  0
VERTEX
  8
1
 62
7
  6
CONTINUOUS
 10
-1422.4
 20
2372
  0
VERTEX
  8
1
 62
7
  6
CONTINUOUS
 10
-1440.52413793103
 20
2375.02068965517
  0
VERTEX
  8
1
 62
7
  6
CONTINUOUS
 10
-1462.11764705882
 20
2348.8
  0
VERTEX
  8
1
 62
7
  6
CONTINUOUS
 10
-1465.1
 20
2348.8
  0
VERTEX
  8
1
 62
7
  6
CONTINUOUS
 10
-1463.68
 20
2360.16
  0
VERTEX
  8
1
 62
7
  6
CONTINUOUS
 10
-1452
 20
2395.2
  0
VERTEX
  8
1
 62
7
  6
CONTINUOUS
 10
-1456
 20
2411.2
  0
VERTEX
  8
1
 62
7
  6
CONTINUOUS
 10
-1462.4
 20
2447.04
  0
VERTEX
  8
1
 62
7
  6
CONTINUOUS
 10
-1462.4
 20
2517.6
  0
VERTEX
  8
1
 62
7
  6
CONTINUOUS
 10
-1464.74285714286
 20
2566.8
  0
VERTEX
  8
1
 62
7
  6
CONTINUOUS
 10
-1466.592
 20
2579.744
  0
VERTEX
  8
1
 62
7
  6
CONTINUOUS
 10
-1464
 20
2626.4
  0
VERTEX
  8
1
 62
7
  6
CONTINUOUS
 10
-1473.6
 20
2667.2
  0
VERTEX
  8
1
 62
7
  6
CONTINUOUS
 10
-1484
 20
2666.4
  0
VERTEX
  8
1
 62
7
  6
CONTINUOUS
 10
-1504
 20
2648
  0
VERTEX
  8
1
 62
7
  6
CONTINUOUS
 10
-1547.63636363636
 20
2572.94545454545
  0
VERTEX
  8
1
 62
7
  6
CONTINUOUS
 10
-1567.2
 20
2543.6
  0
VERTEX
  8
1
 62
7
  6
CONTINUOUS
 10
-1584.8
 20
2521.6
  0
VERTEX
  8
1
 62
7
  6
CONTINUOUS
 10
-1623.00000000001
 20
2483.4
  0
VERTEX
  8
1
 62
7
  6
CONTINUOUS
 10
-1661.66896551724
 20
2461.91724137931
  0
VERTEX
  8
1
 62
7
  6
CONTINUOUS
 10
-1664.34285714286
 20
2443.2
  0
VERTEX
  8
1
 62
7
  6
CONTINUOUS
 10
-1668.8
 20
2443.2
  0
VERTEX
  8
1
 62
7
  6
CONTINUOUS
 10
-1668.8
 20
2459.46666666667
  0
VERTEX
  8
1
 62
7
  6
CONTINUOUS
 10
-1681.568
 20
2467.97866666667
  0
VERTEX
  8
1
 62
7
  6
CONTINUOUS
 10
-1715.10404797601
 20
2515.74212893553
  0
VERTEX
  8
1
 62
7
  6
CONTINUOUS
 10
-1729.75566188198
 20
2555.11834130781
  0
VERTEX
  8
1
 62
7
  6
CONTINUOUS
 10
-1753.81728395062
 20
2660.78024691358
  0
VERTEX
  8
1
 62
7
  6
CONTINUOUS
 10
-1755.58518518519
 20
2699.67407407407
  0
VERTEX
  8
1
 62
7
  6
CONTINUOUS
 10
-1754.18181818182
 20
2744.58181818182
  0
VERTEX
  8
1
 62
7
  6
CONTINUOUS
 10
-1744.4987012987
 20
2841.41298701299
  0
VERTEX
  8
1
 62
7
  6
CONTINUOUS
 10
-1748.8
 20
2853.6
  0
VERTEX
  8
1
 62
7
  6
CONTINUOUS
 10
-1761.6
 20
2863.2
  0
VERTEX
  8
1
 62
7
  6
CONTINUOUS
 10
-1786.4
 20
2866.4
  0
VERTEX
  8
1
 62
7
  6
CONTINUOUS
 10
-1814.048
 20
2857.952
  0
VERTEX
  8
1
 62
7
  6
CONTINUOUS
 10
-1843.2
 20
2828.8
  0
VERTEX
  8
1
 62
7
  6
CONTINUOUS
 10
-1874.60317460317
 20
2805.24761904762
  0
VERTEX
  8
1
 62
7
  6
CONTINUOUS
 10
-1928.41834862385
 20
2711.9119266055
  0
VERTEX
  8
1
 62
7
  6
CONTINUOUS
 10
-1938.25454545453
 20
2700.43636363638
  0
VERTEX
  8
1
 62
7
  6
CONTINUOUS
 10
-1993.32173913043
 20
2656.38260869565
  0
VERTEX
  8
1
 62
7
  6
CONTINUOUS
 10
-2063.52975609756
 20
2592.24195121951
  0
VERTEX
  8
1
 62
7
  6
CONTINUOUS
 10
-2073.6
 20
2575.2
  0
VERTEX
  8
1
 62
7
  6
CONTINUOUS
 10
-2076.8
 20
2572
  0
VERTEX
  8
1
 62
7
  6
CONTINUOUS
 10
-2078.88
 20
2567.84
  0
VERTEX
  8
1
 62
7
  6
CONTINUOUS
 10
-2090.4
 20
2530.4
  0
VERTEX
  8
1
 62
7
  6
CONTINUOUS
 10
-2094.4
 20
2528.8
  0
VERTEX
  8
1
 62
7
  6
CONTINUOUS
 10
-2098.4
 20
2528.8
  0
VERTEX
  8
1
 62
7
  6
CONTINUOUS
 10
-2100.0347826087
 20
2538.60869565217
  0
VERTEX
  8
1
 62
7
  6
CONTINUOUS
 10
-2099.2
 20
2552.8
  0
VERTEX
  8
1
 62
7
  6
CONTINUOUS
 10
-2091.57220543807
 20
2578.22598187311
  0
VERTEX
  8
1
 62
7
  6
CONTINUOUS
 10
-2108.8
 20
2607.2
  0
VERTEX
  8
1
 62
7
  6
CONTINUOUS
 10
-2140
 20
2636.8
  0
VERTEX
  8
1
 62
7
  6
CONTINUOUS
 10
-2199.12767123288
 20
2662.45917808219
  0
VERTEX
  8
1
 62
7
  6
CONTINUOUS
 10
-2246.4
 20
2672.8
  0
VERTEX
  8
1
 62
7
  6
CONTINUOUS
 10
-2294.4
 20
2676.8
  0
VERTEX
  8
1
 62
7
  6
CONTINUOUS
 10
-2344
 20
2677.6
  0
VERTEX
  8
1
 62
7
  6
CONTINUOUS
 10
-2419.61831610045
 20
2684.56484490399
  0
VERTEX
  8
1
 62
7
  6
CONTINUOUS
 10
-2502.63529411765
 20
2701.81512605042
  0
VERTEX
  8
1
 62
7
  6
CONTINUOUS
 10
-2536.85333333333
 20
2716.48
  0
VERTEX
  8
1
 62
7
  6
CONTINUOUS
 10
-2543.2
 20
2717.6
  0
VERTEX
  8
1
 62
7
  6
CONTINUOUS
 10
-2581.40759493671
 20
2715.26075949367
  0
VERTEX
  8
1
 62
7
  6
CONTINUOUS
 10
-2608.11914893617
 20
2706.82553191489
  0
VERTEX
  8
1
 62
7
  6
CONTINUOUS
 10
-2647.2
 20
2682.4
  0
VERTEX
  8
1
 62
7
  6
CONTINUOUS
 10
-2669.27792207792
 20
2670.03636363637
  0
VERTEX
  8
1
 62
7
  6
CONTINUOUS
 10
-2680.25263157895
 20
2665.76842105263
  0
VERTEX
  8
1
 62
7
  6
CONTINUOUS
 10
-2720
 20
2641.92
  0
VERTEX
  8
1
 62
7
  6
CONTINUOUS
 10
-2744.8
 20
2632
  0
VERTEX
  8
1
 62
7
  6
CONTINUOUS
 10
-2788.96
 20
2617.28
  0
VERTEX
  8
1
 62
7
  6
CONTINUOUS
 10
-2794.8
 20
2605.6
  0
VERTEX
  8
1
 62
7
  6
CONTINUOUS
 10
-2796
 20
2605.6
  0
VERTEX
  8
1
 62
7
  6
CONTINUOUS
 10
-2800.8170212766
 20
2620.05106382979
  0
VERTEX
  8
1
 62
7
  6
CONTINUOUS
 10
-2821.83529411765
 20
2621.36470588235
  0
VERTEX
  8
1
 62
7
  6
CONTINUOUS
 10
-2829.6
 20
2613.6
  0
VERTEX
  8
1
 62
7
  6
CONTINUOUS
 10
-2829.6
 20
2616
  0
VERTEX
  8
1
 62
7
  6
CONTINUOUS
 10
-2826.8
 20
2627.2
  0
VERTEX
  8
1
 62
7
  6
CONTINUOUS
 10
-2835.2
 20
2694.4
  0
VERTEX
  8
1
 62
7
  6
CONTINUOUS
 10
-2855.66451612903
 20
2749.49677419355
  0
VERTEX
  8
1
 62
7
  6
CONTINUOUS
 10
-2892
 20
2804
  0
VERTEX
  8
1
 62
7
  6
CONTINUOUS
 10
-2922.60701330109
 20
2864.12091898428
  0
VERTEX
  8
1
 62
7
  6
CONTINUOUS
 10
-2936
 20
2916.8
  0
VERTEX
  8
1
 62
7
  6
CONTINUOUS
 10
-2949.6
 20
2934.4
  0
VERTEX
  8
1
 62
7
  6
CONTINUOUS
 10
-2971.2
 20
2944.8
  0
VERTEX
  8
1
 62
7
  6
CONTINUOUS
 10
-2988.8
 20
2944
  0
VERTEX
  8
1
 62
7
  6
CONTINUOUS
 10
-3025.6
 20
2918.4
  0
VERTEX
  8
1
 62
7
  6
CONTINUOUS
 10
-3068.8
 20
2866.4
  0
VERTEX
  8
1
 62
7
  6
CONTINUOUS
 10
-3072.8
 20
2847.2
  0
VERTEX
  8
1
 62
7
  6
CONTINUOUS
 10
-3074.4
 20
2847.2
  0
VERTEX
  8
1
 62
7
  6
CONTINUOUS
 10
-3077.8
 20
2872.7
  0
VERTEX
  8
1
 62
7
  6
CONTINUOUS
 10
-3124
 20
2849.6
  0
VERTEX
  8
1
 62
7
  6
CONTINUOUS
 10
-3148.44444444444
 20
2839.82222222222
  0
VERTEX
  8
1
 62
7
  6
CONTINUOUS
 10
-3149.6
 20
2835.2
  0
VERTEX
  8
1
 62
7
  6
CONTINUOUS
 10
-3152
 20
2835.2
  0
VERTEX
  8
1
 62
7
  6
CONTINUOUS
 10
-3155.52
 20
2845.76
  0
VERTEX
  8
1
 62
7
  6
CONTINUOUS
 10
-3164.8
 20
2850.4
  0
VERTEX
  8
1
 62
7
  6
CONTINUOUS
 10
-3170.25454545455
 20
2855.85454545455
  0
VERTEX
  8
1
 62
7
  6
CONTINUOUS
 10
-3180.73110047847
 20
2882.79425837321
  0
VERTEX
  8
1
 62
7
  6
CONTINUOUS
 10
-3188
 20
2925.6
  0
VERTEX
  8
1
 62
7
  6
CONTINUOUS
 10
-3215.2
 20
2954.4
  0
VERTEX
  8
1
 62
7
  6
CONTINUOUS
 10
-3266.4
 20
2990.4
  0
VERTEX
  8
1
 62
7
  6
CONTINUOUS
 10
-3299.43529411765
 20
2972.04705882353
  0
VERTEX
  8
1
 62
7
  6
CONTINUOUS
 10
-3320.26666666667
 20
2940.8
  0
VERTEX
  8
1
 62
7
  6
CONTINUOUS
 10
-3332.33103448276
 20
2931.75172413793
  0
VERTEX
  8
1
 62
7
  6
CONTINUOUS
 10
-3333.17446808511
 20
2925.00425531915
  0
VERTEX
  8
1
 62
7
  6
CONTINUOUS
 10
-3264
 20
2828.16
  0
VERTEX
  8
1
 62
7
  6
CONTINUOUS
 10
-3264
 20
2811.6
  0
VERTEX
  8
1
 62
7
  6
CONTINUOUS
 10
-3272
 20
2781.6
  0
VERTEX
  8
1
 62
7
  6
CONTINUOUS
 10
-3274.93333333333
 20
2776.71111111111
  0
VERTEX
  8
1
 62
7
  6
CONTINUOUS
 10
-3280.29473684211
 20
2773.13684210526
  0
VERTEX
  8
1
 62
7
  6
CONTINUOUS
 10
-3295.31428571429
 20
2771.77142857143
  0
VERTEX
  8
1
 62
7
  6
CONTINUOUS
 10
-3303.2
 20
2774.4
  0
VERTEX
  8
1
 62
7
  6
CONTINUOUS
 10
-3333.75024711697
 20
2791.28303130148
  0
VERTEX
  8
1
 62
7
  6
CONTINUOUS
 10
-3358.88888888889
 20
2819.02222222222
  0
VERTEX
  8
1
 62
7
  6
CONTINUOUS
 10
-3366
 20
2830.4
  0
VERTEX
  8
1
 62
7
  6
CONTINUOUS
 10
-3375
 20
2848.4
  0
VERTEX
  8
1
 62
7
  6
CONTINUOUS
 10
-3400
 20
2918.4
  0
VERTEX
  8
1
 62
7
  6
CONTINUOUS
 10
-3415.2
 20
2928.8
  0
VERTEX
  8
1
 62
7
  6
CONTINUOUS
 10
-3444
 20
2926.4
  0
VERTEX
  8
1
 62
7
  6
CONTINUOUS
 10
-3472.8
 20
2914.4
  0
VERTEX
  8
1
 62
7
  6
CONTINUOUS
 10
-3503.2
 20
2888
  0
SEQEND
  0
ENDSEC
  0
EOF
