  0
SECTION
  2
HEADER
  0
ENDSEC
  0
SECTION
  2
TABLES
  0
ENDSEC
  0
SECTION
  2
BLOCKS
  0
ENDSEC
  0
SECTION
  2
ENTITIES
  0
TEXT
  1
MARK_1
  8
72
 10
-3201.2
 20
1972.4
 11
-3201.2
 21
1972.4
 62
3
 40
8
 50
90
 72
0
 73
1
  0
TEXT
  1
MARK_2
  8
72
 10
-3244.4
 20
756.4
 11
-3244.4
 21
756.4
 62
3
 40
8
 50
90
 72
0
 73
1
  0
POLYLINE
  8
51
 62
7
 66
1
 70
1
  0
VERTEX
  8
51
 62
7
  6
CONTINUOUS
 10
-3177.58458856082
 20
2157.13767624291
  0
VERTEX
  8
51
 62
7
  6
CONTINUOUS
 10
-3176.01813647546
 20
2148.71169215098
  0
VERTEX
  8
51
 62
7
  6
CONTINUOUS
 10
-3169.29036939562
 20
2152.5872624918
  0
VERTEX
  8
51
 62
7
  6
CONTINUOUS
 10
-3175.69221778647
 20
2165.81702653509
  0
VERTEX
  8
51
 62
7
  6
CONTINUOUS
 10
-3176.9198848726
 20
2162.7438467516
  0
SEQEND
  0
POLYLINE
  8
51
 62
7
 66
1
 70
1
  0
VERTEX
  8
51
 62
7
  6
CONTINUOUS
 10
-3101.16655360292
 20
2767.18950022654
  0
VERTEX
  8
51
 62
7
  6
CONTINUOUS
 10
-3101.15995718255
 20
2760.81227402033
  0
VERTEX
  8
51
 62
7
  6
CONTINUOUS
 10
-3098.47577283821
 20
2752.01026786148
  0
VERTEX
  8
51
 62
7
  6
CONTINUOUS
 10
-3094.38439949186
 20
2745.32599377588
  0
VERTEX
  8
51
 62
7
  6
CONTINUOUS
 10
-3090.60428422754
 20
2741.00491347213
  0
VERTEX
  8
51
 62
7
  6
CONTINUOUS
 10
-3081.44002978348
 20
2732.99434135729
  0
VERTEX
  8
51
 62
7
  6
CONTINUOUS
 10
-3067.71151602014
 20
2725.07349351792
  0
VERTEX
  8
51
 62
7
  6
CONTINUOUS
 10
-3049.33975276991
 20
2717.8389854954
  0
VERTEX
  8
51
 62
7
  6
CONTINUOUS
 10
-3033.93207768445
 20
2714.27264344973
  0
VERTEX
  8
51
 62
7
  6
CONTINUOUS
 10
-3020.49796147551
 20
2713.96435970165
  0
VERTEX
  8
51
 62
7
  6
CONTINUOUS
 10
-3009.7328425859
 20
2716.07095677553
  0
VERTEX
  8
51
 62
7
  6
CONTINUOUS
 10
-2998.22311886641
 20
2721.34205838657
  0
VERTEX
  8
51
 62
7
  6
CONTINUOUS
 10
-3034.89927812673
 20
2803.66322884869
  0
VERTEX
  8
51
 62
7
  6
CONTINUOUS
 10
-3060.90872088553
 20
2797.48173031039
  0
VERTEX
  8
51
 62
7
  6
CONTINUOUS
 10
-3071.4089477952
 20
2793.92015572614
  0
VERTEX
  8
51
 62
7
  6
CONTINUOUS
 10
-3083.27220817936
 20
2788.28215298393
  0
VERTEX
  8
51
 62
7
  6
CONTINUOUS
 10
-3092.3598757261
 20
2781.73546638836
  0
VERTEX
  8
51
 62
7
  6
CONTINUOUS
 10
-3098.33998571467
 20
2774.83966923777
  0
SEQEND
  0
POLYLINE
  8
51
 62
7
 66
1
 70
1
  0
VERTEX
  8
51
 62
7
  6
CONTINUOUS
 10
-1951.05171353455
 20
2371.74883978695
  0
VERTEX
  8
51
 62
7
  6
CONTINUOUS
 10
-1950.9225965973
 20
2357.65598509981
  0
VERTEX
  8
51
 62
7
  6
CONTINUOUS
 10
-1949.49393881255
 20
2348.28506423744
  0
VERTEX
  8
51
 62
7
  6
CONTINUOUS
 10
-1945.14495105124
 20
2334.59274769974
  0
VERTEX
  8
51
 62
7
  6
CONTINUOUS
 10
-1938.67542649743
 20
2321.86469202289
  0
VERTEX
  8
51
 62
7
  6
CONTINUOUS
 10
-1933.16328937988
 20
2314.19401011134
  0
VERTEX
  8
51
 62
7
  6
CONTINUOUS
 10
-1923.02278325908
 20
2304.27099233721
  0
VERTEX
  8
51
 62
7
  6
CONTINUOUS
 10
-1911.0934764071
 20
2296.46884151313
  0
VERTEX
  8
51
 62
7
  6
CONTINUOUS
 10
-1902.56142621323
 20
2292.90369423963
  0
VERTEX
  8
51
 62
7
  6
CONTINUOUS
 10
-1888.96524868904
 20
2289.98597578746
  0
VERTEX
  8
51
 62
7
  6
CONTINUOUS
 10
-1874.98243744135
 20
2289.84157248766
  0
VERTEX
  8
51
 62
7
  6
CONTINUOUS
 10
-1861.15592082707
 20
2292.60969005602
  0
VERTEX
  8
51
 62
7
  6
CONTINUOUS
 10
-1852.29513301607
 20
2296.0224016811
  0
VERTEX
  8
51
 62
7
  6
CONTINUOUS
 10
-1839.50260161294
 20
2302.83106476317
  0
VERTEX
  8
51
 62
7
  6
CONTINUOUS
 10
-1827.10425356977
 20
2311.20221570372
  0
VERTEX
  8
51
 62
7
  6
CONTINUOUS
 10
-1811.52821794798
 20
2323.44993480607
  0
VERTEX
  8
51
 62
7
  6
CONTINUOUS
 10
-1793.98579234801
 20
2338.62886860677
  0
VERTEX
  8
51
 62
7
  6
CONTINUOUS
 10
-1774.58790714458
 20
2356.25413708408
  0
VERTEX
  8
51
 62
7
  6
CONTINUOUS
 10
-1765.23378904277
 20
2366.28304520619
  0
VERTEX
  8
51
 62
7
  6
CONTINUOUS
 10
-1800.97080740365
 20
2509.65079399723
  0
VERTEX
  8
51
 62
7
  6
CONTINUOUS
 10
-1851.38491611979
 20
2488.29330065871
  0
VERTEX
  8
51
 62
7
  6
CONTINUOUS
 10
-1874.10579468835
 20
2476.71184231517
  0
VERTEX
  8
51
 62
7
  6
CONTINUOUS
 10
-1889.86730323005
 20
2467.05739545017
  0
VERTEX
  8
51
 62
7
  6
CONTINUOUS
 10
-1899.53268386455
 20
2459.88962780428
  0
VERTEX
  8
51
 62
7
  6
CONTINUOUS
 10
-1917.10267212892
 20
2443.34392956109
  0
VERTEX
  8
51
 62
7
  6
CONTINUOUS
 10
-1924.71104042973
 20
2434.15529598564
  0
VERTEX
  8
51
 62
7
  6
CONTINUOUS
 10
-1934.37063264479
 20
2419.78260123065
  0
VERTEX
  8
51
 62
7
  6
CONTINUOUS
 10
-1945.80178578109
 20
2395.46388854522
  0
VERTEX
  8
51
 62
7
  6
CONTINUOUS
 10
-1949.68100422817
 20
2381.14904823676
  0
SEQEND
  0
POLYLINE
  8
51
 62
7
 66
1
 70
1
  0
VERTEX
  8
51
 62
7
  6
CONTINUOUS
 10
-1625.11243879044
 20
1554.9920227433
  0
VERTEX
  8
51
 62
7
  6
CONTINUOUS
 10
-1613.6637326856
 20
1530.93886948269
  0
VERTEX
  8
51
 62
7
  6
CONTINUOUS
 10
-1596.37853342039
 20
1503.30966316672
  0
VERTEX
  8
51
 62
7
  6
CONTINUOUS
 10
-1578.96784136774
 20
1479.04800994724
  0
VERTEX
  8
51
 62
7
  6
CONTINUOUS
 10
-1552.10203643195
 20
1445.60833641062
  0
VERTEX
  8
51
 62
7
  6
CONTINUOUS
 10
-1532.92923755613
 20
1423.7804390659
  0
VERTEX
  8
51
 62
7
  6
CONTINUOUS
 10
-1512.21813269375
 20
1402.67922132738
  0
VERTEX
  8
51
 62
7
  6
CONTINUOUS
 10
-1482.9172569407
 20
1376.08395946365
  0
VERTEX
  8
51
 62
7
  6
CONTINUOUS
 10
-1459.35638038446
 20
1356.50583656487
  0
VERTEX
  8
51
 62
7
  6
CONTINUOUS
 10
-1433.79153950122
 20
1337.15262011651
  0
VERTEX
  8
51
 62
7
  6
CONTINUOUS
 10
-1407.53600083202
 20
1319.04075919471
  0
VERTEX
  8
51
 62
7
  6
CONTINUOUS
 10
-1372.50698482442
 20
1297.13908584283
  0
VERTEX
  8
51
 62
7
  6
CONTINUOUS
 10
-1338.07438661951
 20
1277.71618809032
  0
VERTEX
  8
51
 62
7
  6
CONTINUOUS
 10
-1305.3547823428
 20
1261.2087441143
  0
VERTEX
  8
51
 62
7
  6
CONTINUOUS
 10
-1275.2261812046
 20
1247.53754074829
  0
VERTEX
  8
51
 62
7
  6
CONTINUOUS
 10
-1235.04968962609
 20
1231.23403070858
  0
VERTEX
  8
51
 62
7
  6
CONTINUOUS
 10
-1201.75532139007
 20
1219.8491672032
  0
SEQEND
  0
POLYLINE
  8
51
 62
7
 66
1
 70
1
  0
VERTEX
  8
51
 62
7
  6
CONTINUOUS
 10
-1626.25311268183
 20
1273.08338574035
  0
VERTEX
  8
51
 62
7
  6
CONTINUOUS
 10
-1247.30073106483
 20
1516.98746641178
  0
VERTEX
  8
51
 62
7
  6
CONTINUOUS
 10
-1304.74060918606
 20
1501.07323404314
  0
VERTEX
  8
51
 62
7
  6
CONTINUOUS
 10
-1324.42787015066
 20
1494.25118811587
  0
VERTEX
  8
51
 62
7
  6
CONTINUOUS
 10
-1345.33732580767
 20
1485.64216131205
  0
VERTEX
  8
51
 62
7
  6
CONTINUOUS
 10
-1367.24444173778
 20
1475.76597089732
  0
VERTEX
  8
51
 62
7
  6
CONTINUOUS
 10
-1397.18208770165
 20
1460.38837534803
  0
VERTEX
  8
51
 62
7
  6
CONTINUOUS
 10
-1442.87537146794
 20
1433.2090201521
  0
VERTEX
  8
51
 62
7
  6
CONTINUOUS
 10
-1516.31276622104
 20
1383.6662093315
  0
VERTEX
  8
51
 62
7
  6
CONTINUOUS
 10
-1549.42148931588
 20
1357.91016611272
  0
VERTEX
  8
51
 62
7
  6
CONTINUOUS
 10
-1572.83715871735
 20
1336.75781476268
  0
VERTEX
  8
51
 62
7
  6
CONTINUOUS
 10
-1598.60173308794
 20
1310.34794860218
  0
VERTEX
  8
51
 62
7
  6
CONTINUOUS
 10
-1611.52901277373
 20
1294.98672287704
  0
SEQEND
  0
POLYLINE
  8
51
 62
7
 66
1
 70
1
  0
VERTEX
  8
51
 62
7
  6
CONTINUOUS
 10
-2043.8917964376
 20
799.715119380464
  0
VERTEX
  8
51
 62
7
  6
CONTINUOUS
 10
-2042.2110856033
 20
781.051397362702
  0
VERTEX
  8
51
 62
7
  6
CONTINUOUS
 10
-2037.97715835613
 20
761.238436181498
  0
VERTEX
  8
51
 62
7
  6
CONTINUOUS
 10
-2033.53435441657
 20
747.696959939403
  0
VERTEX
  8
51
 62
7
  6
CONTINUOUS
 10
-2027.94548161369
 20
734.125224953445
  0
VERTEX
  8
51
 62
7
  6
CONTINUOUS
 10
-2013.51629110763
 20
707.07214461453
  0
VERTEX
  8
51
 62
7
  6
CONTINUOUS
 10
-2000.62696562775
 20
687.648925005235
  0
VERTEX
  8
51
 62
7
  6
CONTINUOUS
 10
-1986.2055165775
 20
669.235900726992
  0
VERTEX
  8
51
 62
7
  6
CONTINUOUS
 10
-1965.51745107933
 20
647.288453777981
  0
VERTEX
  8
51
 62
7
  6
CONTINUOUS
 10
-1949.18503089994
 20
633.154631418194
  0
VERTEX
  8
51
 62
7
  6
CONTINUOUS
 10
-1930.1498208674
 20
619.979648482584
  0
VERTEX
  8
51
 62
7
  6
CONTINUOUS
 10
-1903.46590751147
 20
605.024137429175
  0
VERTEX
  8
51
 62
7
  6
CONTINUOUS
 10
-1864.94029589541
 20
587.736503702416
  0
VERTEX
  8
51
 62
7
  6
CONTINUOUS
 10
-1837.19245177569
 20
578.501495658417
  0
VERTEX
  8
51
 62
7
  6
CONTINUOUS
 10
-1821.07517368594
 20
574.05717228823
  0
VERTEX
  8
51
 62
7
  6
CONTINUOUS
 10
-1806.42036662913
 20
655.34196989523
  0
VERTEX
  8
51
 62
7
  6
CONTINUOUS
 10
-1811.70208437589
 20
687.390484429714
  0
VERTEX
  8
51
 62
7
  6
CONTINUOUS
 10
-1814.22106107825
 20
696.860006819415
  0
VERTEX
  8
51
 62
7
  6
CONTINUOUS
 10
-1819.52039781133
 20
712.080159796821
  0
VERTEX
  8
51
 62
7
  6
CONTINUOUS
 10
-1832.64480633885
 20
740.034089975026
  0
VERTEX
  8
51
 62
7
  6
CONTINUOUS
 10
-1853.76378036125
 20
776.892172411108
  0
VERTEX
  8
51
 62
7
  6
CONTINUOUS
 10
-1865.4730777951
 20
794.831081974105
  0
VERTEX
  8
51
 62
7
  6
CONTINUOUS
 10
-1882.14612282847
 20
817.064827349691
  0
VERTEX
  8
51
 62
7
  6
CONTINUOUS
 10
-1898.85282250465
 20
835.687012364321
  0
VERTEX
  8
51
 62
7
  6
CONTINUOUS
 10
-1912.05078002786
 20
846.846206414602
  0
VERTEX
  8
51
 62
7
  6
CONTINUOUS
 10
-1921.03016629764
 20
852.792438999052
  0
VERTEX
  8
51
 62
7
  6
CONTINUOUS
 10
-1929.94370625721
 20
857.393303561492
  0
VERTEX
  8
51
 62
7
  6
CONTINUOUS
 10
-1952.25515238647
 20
865.122045930333
  0
VERTEX
  8
51
 62
7
  6
CONTINUOUS
 10
-1975.26428842394
 20
870.845185803016
  0
VERTEX
  8
51
 62
7
  6
CONTINUOUS
 10
-1989.2360226798
 20
872.560471711862
  0
VERTEX
  8
51
 62
7
  6
CONTINUOUS
 10
-2002.12259347844
 20
871.387771131941
  0
VERTEX
  8
51
 62
7
  6
CONTINUOUS
 10
-2006.1835384405
 20
870.095283320074
  0
VERTEX
  8
51
 62
7
  6
CONTINUOUS
 10
-2013.42666144662
 20
866.216731297601
  0
VERTEX
  8
51
 62
7
  6
CONTINUOUS
 10
-2022.84160969205
 20
857.828223650989
  0
VERTEX
  8
51
 62
7
  6
CONTINUOUS
 10
-2030.74565443452
 20
847.512359465698
  0
VERTEX
  8
51
 62
7
  6
CONTINUOUS
 10
-2035.32033980082
 20
839.699579441297
  0
VERTEX
  8
51
 62
7
  6
CONTINUOUS
 10
-2038.88216569119
 20
831.083160958259
  0
VERTEX
  8
51
 62
7
  6
CONTINUOUS
 10
-2041.71440799404
 20
821.508370982344
  0
VERTEX
  8
51
 62
7
  6
CONTINUOUS
 10
-2043.33770353532
 20
811.045350926856
  0
SEQEND
  0
POLYLINE
  8
51
 62
7
 66
1
 70
1
  0
VERTEX
  8
51
 62
7
  6
CONTINUOUS
 10
-1529.53282907724
 20
2074.26938695565
  0
VERTEX
  8
51
 62
7
  6
CONTINUOUS
 10
-1523.60522302361
 20
2042.39553419945
  0
VERTEX
  8
51
 62
7
  6
CONTINUOUS
 10
-1516.80988360466
 20
2015.35570229642
  0
VERTEX
  8
51
 62
7
  6
CONTINUOUS
 10
-1506.63659299474
 20
1985.83164656219
  0
VERTEX
  8
51
 62
7
  6
CONTINUOUS
 10
-1496.76380402911
 20
1961.78675943196
  0
VERTEX
  8
51
 62
7
  6
CONTINUOUS
 10
-1484.92517203873
 20
1937.93437579166
  0
VERTEX
  8
51
 62
7
  6
CONTINUOUS
 10
-1471.58078838617
 20
1914.05173981066
  0
VERTEX
  8
51
 62
7
  6
CONTINUOUS
 10
-1456.81494867711
 20
1890.09172318797
  0
VERTEX
  8
51
 62
7
  6
CONTINUOUS
 10
-1434.84465803165
 20
1857.45215881063
  0
VERTEX
  8
51
 62
7
  6
CONTINUOUS
 10
-1410.81323304247
 20
1826.72281615963
  0
VERTEX
  8
51
 62
7
  6
CONTINUOUS
 10
-1391.2524545743
 20
1803.3807833983
  0
VERTEX
  8
51
 62
7
  6
CONTINUOUS
 10
-1378.02968878136
 20
1788.3868485171
  0
VERTEX
  8
51
 62
7
  6
CONTINUOUS
 10
-1350.96983952536
 20
1760.1030539633
  0
VERTEX
  8
51
 62
7
  6
CONTINUOUS
 10
-1318.64853252499
 20
1729.38437660792
  0
VERTEX
  8
51
 62
7
  6
CONTINUOUS
 10
-1259.72461439349
 20
1679.19880431659
  0
VERTEX
  8
51
 62
7
  6
CONTINUOUS
 10
-1230.11957949999
 20
1652.92328069329
  0
SEQEND
  0
POLYLINE
  8
51
 62
7
 66
1
 70
1
  0
VERTEX
  8
51
 62
7
  6
CONTINUOUS
 10
-1760.38158104909
 20
1636.23878612663
  0
VERTEX
  8
51
 62
7
  6
CONTINUOUS
 10
-1759.91969656922
 20
1615.21205220558
  0
VERTEX
  8
51
 62
7
  6
CONTINUOUS
 10
-1758.07060082399
 20
1593.23456667087
  0
VERTEX
  8
51
 62
7
  6
CONTINUOUS
 10
-1758.04132054085
 20
1593.05106741712
  0
VERTEX
  8
51
 62
7
  6
CONTINUOUS
 10
-1753.26896156297
 20
1563.14273944972
  0
VERTEX
  8
51
 62
7
  6
CONTINUOUS
 10
-1745.23735368743
 20
1527.21955972058
  0
VERTEX
  8
51
 62
7
  6
CONTINUOUS
 10
-1737.49813860083
 20
1498.94844577534
  0
VERTEX
  8
51
 62
7
  6
CONTINUOUS
 10
-1737.45633985724
 20
1498.82243840269
  0
VERTEX
  8
51
 62
7
  6
CONTINUOUS
 10
-1725.08395804444
 20
1461.52439564322
  0
VERTEX
  8
51
 62
7
  6
CONTINUOUS
 10
-1716.14618609478
 20
1439.15817425446
  0
VERTEX
  8
51
 62
7
  6
CONTINUOUS
 10
-1702.10796860664
 20
1409.35811012766
  0
VERTEX
  8
51
 62
7
  6
CONTINUOUS
 10
-1686.18267466018
 20
1379.76558018998
  0
VERTEX
  8
51
 62
7
  6
CONTINUOUS
 10
-1664.62246960157
 20
1343.51570526323
  0
VERTEX
  8
51
 62
7
  6
CONTINUOUS
 10
-1634.56671261594
 20
1296.67077743991
  0
VERTEX
  8
51
 62
7
  6
CONTINUOUS
 10
-1593.23656150109
 20
1234.74285054681
  0
VERTEX
  8
51
 62
7
  6
CONTINUOUS
 10
-1567.66684323872
 20
1191.87604881291
  0
VERTEX
  8
51
 62
7
  6
CONTINUOUS
 10
-1545.28072422608
 20
1157.21483093659
  0
VERTEX
  8
51
 62
7
  6
CONTINUOUS
 10
-1545.18782324332
 20
1157.07098906733
  0
VERTEX
  8
51
 62
7
  6
CONTINUOUS
 10
-1545.0852992171
 20
1156.93383987847
  0
VERTEX
  8
51
 62
7
  6
CONTINUOUS
 10
-1519.2192152278
 20
1122.33207316326
  0
VERTEX
  8
51
 62
7
  6
CONTINUOUS
 10
-1500.56164320431
 20
1100.1326151248
  0
VERTEX
  8
51
 62
7
  6
CONTINUOUS
 10
-1493.31079212804
 20
1093.33720930976
  0
VERTEX
  8
51
 62
7
  6
CONTINUOUS
 10
-1486.05564535939
 20
1087.95530776381
  0
VERTEX
  8
51
 62
7
  6
CONTINUOUS
 10
-1482.79212182455
 20
1085.97007478371
  0
VERTEX
  8
51
 62
7
  6
CONTINUOUS
 10
-1480.11936054638
 20
1085.39776827654
  0
VERTEX
  8
51
 62
7
  6
CONTINUOUS
 10
-1479.07605172793
 20
1083.75661420114
  0
VERTEX
  8
51
 62
7
  6
CONTINUOUS
 10
-1470.71761581281
 20
1081.06917653073
  0
VERTEX
  8
51
 62
7
  6
CONTINUOUS
 10
-1467.65670069116
 20
1090.58919746653
  0
VERTEX
  8
51
 62
7
  6
CONTINUOUS
 10
-1469.62232589479
 20
1091.22119312598
  0
VERTEX
  8
51
 62
7
  6
CONTINUOUS
 10
-1471.49885264703
 20
1093.77857678615
  0
VERTEX
  8
51
 62
7
  6
CONTINUOUS
 10
-1479.04211270373
 20
1095.39378157491
  0
VERTEX
  8
51
 62
7
  6
CONTINUOUS
 10
-1480.46646932307
 20
1096.26023150424
  0
VERTEX
  8
51
 62
7
  6
CONTINUOUS
 10
-1486.89169030279
 20
1101.02649024808
  0
VERTEX
  8
51
 62
7
  6
CONTINUOUS
 10
-1493.28920492312
 20
1107.02215994195
  0
VERTEX
  8
51
 62
7
  6
CONTINUOUS
 10
-1511.38044625665
 20
1128.54777711988
  0
VERTEX
  8
51
 62
7
  6
CONTINUOUS
 10
-1536.97331417507
 20
1162.78405523808
  0
VERTEX
  8
51
 62
7
  6
CONTINUOUS
 10
-1559.1698974421
 20
1197.15180823243
  0
VERTEX
  8
51
 62
7
  6
CONTINUOUS
 10
-1584.77817829509
 20
1240.08325889634
  0
VERTEX
  8
51
 62
7
  6
CONTINUOUS
 10
-1626.19887523911
 20
1302.14685709327
  0
VERTEX
  8
51
 62
7
  6
CONTINUOUS
 10
-1656.11437717083
 20
1348.77318327298
  0
VERTEX
  8
51
 62
7
  6
CONTINUOUS
 10
-1677.4783992025
 20
1384.69320928735
  0
VERTEX
  8
51
 62
7
  6
CONTINUOUS
 10
-1693.17542937778
 20
1413.86157735366
  0
VERTEX
  8
51
 62
7
  6
CONTINUOUS
 10
-1706.97166778278
 20
1443.14797283264
  0
VERTEX
  8
51
 62
7
  6
CONTINUOUS
 10
-1715.68681787793
 20
1464.95709680248
  0
VERTEX
  8
51
 62
7
  6
CONTINUOUS
 10
-1727.92311479709
 20
1501.84489517583
  0
VERTEX
  8
51
 62
7
  6
CONTINUOUS
 10
-1735.52984195334
 20
1529.63203479894
  0
VERTEX
  8
51
 62
7
  6
CONTINUOUS
 10
-1743.44253627931
 20
1565.02334682741
  0
VERTEX
  8
51
 62
7
  6
CONTINUOUS
 10
-1748.13696655913
 20
1594.44329639111
  0
VERTEX
  8
51
 62
7
  6
CONTINUOUS
 10
-1749.92891578092
 20
1615.74156512717
  0
VERTEX
  8
51
 62
7
  6
CONTINUOUS
 10
-1750.37707998091
 20
1636.1436998534
  0
VERTEX
  8
51
 62
7
  6
CONTINUOUS
 10
-1749.55997498097
 20
1656.07597323812
  0
VERTEX
  8
51
 62
7
  6
CONTINUOUS
 10
-1746.5530822472
 20
1681.64941578881
  0
VERTEX
  8
51
 62
7
  6
CONTINUOUS
 10
-1741.63173054463
 20
1707.89890088238
  0
VERTEX
  8
51
 62
7
  6
CONTINUOUS
 10
-1734.21907215608
 20
1734.91022972873
  0
VERTEX
  8
51
 62
7
  6
CONTINUOUS
 10
-1724.83751141355
 20
1761.17437617969
  0
VERTEX
  8
51
 62
7
  6
CONTINUOUS
 10
-1716.27475902276
 20
1780.48907781211
  0
VERTEX
  8
51
 62
7
  6
CONTINUOUS
 10
-1699.46626804367
 20
1812.98720213621
  0
VERTEX
  8
51
 62
7
  6
CONTINUOUS
 10
-1687.66836306895
 20
1833.11532004096
  0
VERTEX
  8
51
 62
7
  6
CONTINUOUS
 10
-1665.71669170812
 20
1868.34574164428
  0
VERTEX
  8
51
 62
7
  6
CONTINUOUS
 10
-1642.04177754724
 20
1903.22861621344
  0
VERTEX
  8
51
 62
7
  6
CONTINUOUS
 10
-1621.37933318927
 20
1931.92554291969
  0
VERTEX
  8
51
 62
7
  6
CONTINUOUS
 10
-1576.81908303979
 20
1990.68031422677
  0
VERTEX
  8
51
 62
7
  6
CONTINUOUS
 10
-1538.04044098263
 20
2037.49435063102
  0
VERTEX
  8
51
 62
7
  6
CONTINUOUS
 10
-1512.68243070107
 20
2065.73618396397
  0
VERTEX
  8
51
 62
7
  6
CONTINUOUS
 10
-1482.27633229662
 20
2096.8848060193
  0
VERTEX
  8
51
 62
7
  6
CONTINUOUS
 10
-1460.18615720349
 20
2117.54614352811
  0
VERTEX
  8
51
 62
7
  6
CONTINUOUS
 10
-1467.0170822698
 20
2124.84946213943
  0
VERTEX
  8
51
 62
7
  6
CONTINUOUS
 10
-1489.19029528613
 20
2104.11045776967
  0
VERTEX
  8
51
 62
7
  6
CONTINUOUS
 10
-1489.27333320933
 20
2104.03279090873
  0
VERTEX
  8
51
 62
7
  6
CONTINUOUS
 10
-1489.35275487067
 20
2103.95142975284
  0
VERTEX
  8
51
 62
7
  6
CONTINUOUS
 10
-1519.91108722202
 20
2072.64685616394
  0
VERTEX
  8
51
 62
7
  6
CONTINUOUS
 10
-1519.98389950758
 20
2072.57226578627
  0
VERTEX
  8
51
 62
7
  6
CONTINUOUS
 10
-1520.05353985016
 20
2072.4947056415
  0
VERTEX
  8
51
 62
7
  6
CONTINUOUS
 10
-1545.61433998667
 20
2044.02702031063
  0
VERTEX
  8
51
 62
7
  6
CONTINUOUS
 10
-1584.65707013138
 20
1996.89417363639
  0
VERTEX
  8
51
 62
7
  6
CONTINUOUS
 10
-1629.42205887352
 20
1937.8694449312
  0
VERTEX
  8
51
 62
7
  6
CONTINUOUS
 10
-1650.23812016111
 20
1908.95916816366
  0
VERTEX
  8
51
 62
7
  6
CONTINUOUS
 10
-1674.04581238606
 20
1873.8806569589
  0
VERTEX
  8
51
 62
7
  6
CONTINUOUS
 10
-1674.10065941075
 20
1873.79984475956
  0
VERTEX
  8
51
 62
7
  6
CONTINUOUS
 10
-1674.15230873331
 20
1873.7169523283
  0
VERTEX
  8
51
 62
7
  6
CONTINUOUS
 10
-1696.2271774234
 20
1838.28881029728
  0
VERTEX
  8
51
 62
7
  6
CONTINUOUS
 10
-1708.22713471497
 20
1817.81597586317
  0
VERTEX
  8
51
 62
7
  6
CONTINUOUS
 10
-1725.2260021555
 20
1784.94977103025
  0
VERTEX
  8
51
 62
7
  6
CONTINUOUS
 10
-1725.29497030143
 20
1784.81642560478
  0
VERTEX
  8
51
 62
7
  6
CONTINUOUS
 10
-1734.12987473767
 20
1764.88784010459
  0
VERTEX
  8
51
 62
7
  6
CONTINUOUS
 10
-1743.76292874415
 20
1737.91962573816
  0
VERTEX
  8
51
 62
7
  6
CONTINUOUS
 10
-1751.32980889927
 20
1710.34632106159
  0
VERTEX
  8
51
 62
7
  6
CONTINUOUS
 10
-1751.38442382616
 20
1710.14730720274
  0
VERTEX
  8
51
 62
7
  6
CONTINUOUS
 10
-1756.44477840482
 20
1683.15640915104
  0
VERTEX
  8
51
 62
7
  6
CONTINUOUS
 10
-1759.53599641801
 20
1656.86578515101
  0
SEQEND
  0
POLYLINE
  8
51
 62
7
 66
1
 70
1
  0
VERTEX
  8
51
 62
7
  6
CONTINUOUS
 10
-3042.1687449504
 20
1305.12810987094
  0
VERTEX
  8
51
 62
7
  6
CONTINUOUS
 10
-3038.82215446114
 20
1310.33662208118
  0
VERTEX
  8
51
 62
7
  6
CONTINUOUS
 10
-3037.03192421918
 20
1315.54942761422
  0
VERTEX
  8
51
 62
7
  6
CONTINUOUS
 10
-3033.59874688514
 20
1337.07371325802
  0
VERTEX
  8
51
 62
7
  6
CONTINUOUS
 10
-3036.31527881179
 20
1340.56970293318
  0
VERTEX
  8
51
 62
7
  6
CONTINUOUS
 10
-3037.28760193015
 20
1347.62485746874
  0
VERTEX
  8
51
 62
7
  6
CONTINUOUS
 10
-3032.98066188475
 20
1374.41865412915
  0
VERTEX
  8
51
 62
7
  6
CONTINUOUS
 10
-3032.13933850025
 20
1383.65847563034
  0
VERTEX
  8
51
 62
7
  6
CONTINUOUS
 10
-3032.2119660893
 20
1396.00316413504
  0
SEQEND
  0
POLYLINE
  8
51
 62
7
 66
1
 70
1
  0
VERTEX
  8
51
 62
7
  6
CONTINUOUS
 10
-1644.1983871804
 20
1701.53192314303
  0
VERTEX
  8
51
 62
7
  6
CONTINUOUS
 10
-1175.56009491902
 20
1947.57349130175
  0
VERTEX
  8
51
 62
7
  6
CONTINUOUS
 10
-1184.58530714967
 20
1946.99617573349
  0
VERTEX
  8
51
 62
7
  6
CONTINUOUS
 10
-1208.68843735753
 20
1942.67303040526
  0
VERTEX
  8
51
 62
7
  6
CONTINUOUS
 10
-1261.53292514054
 20
1930.62764914951
  0
VERTEX
  8
51
 62
7
  6
CONTINUOUS
 10
-1301.77054687677
 20
1919.5292036313
  0
VERTEX
  8
51
 62
7
  6
CONTINUOUS
 10
-1354.25742646271
 20
1902.73473996639
  0
VERTEX
  8
51
 62
7
  6
CONTINUOUS
 10
-1389.94601337712
 20
1890.22822567588
  0
VERTEX
  8
51
 62
7
  6
CONTINUOUS
 10
-1416.97153090347
 20
1878.82597594633
  0
VERTEX
  8
51
 62
7
  6
CONTINUOUS
 10
-1435.51537873456
 20
1869.80491802082
  0
VERTEX
  8
51
 62
7
  6
CONTINUOUS
 10
-1463.22837286299
 20
1854.62785647022
  0
VERTEX
  8
51
 62
7
  6
CONTINUOUS
 10
-1499.4441856028
 20
1832.96707634916
  0
VERTEX
  8
51
 62
7
  6
CONTINUOUS
 10
-1525.00217770619
 20
1815.88119970451
  0
VERTEX
  8
51
 62
7
  6
CONTINUOUS
 10
-1564.45223786966
 20
1786.75476464275
  0
VERTEX
  8
51
 62
7
  6
CONTINUOUS
 10
-1585.67838483689
 20
1768.7768564317
  0
VERTEX
  8
51
 62
7
  6
CONTINUOUS
 10
-1616.75842587762
 20
1738.28853968147
  0
VERTEX
  8
51
 62
7
  6
CONTINUOUS
 10
-1631.8017358248
 20
1719.81479417085
  0
SEQEND
  0
POLYLINE
  8
52
 62
7
 66
1
 70
1
  0
VERTEX
  8
52
 62
7
  6
CONTINUOUS
 10
-1696.13152086149
 20
1022.87992733115
  0
VERTEX
  8
52
 62
7
  6
CONTINUOUS
 10
-1689.48058848381
 20
1022.7887459014
  0
VERTEX
  8
52
 62
7
  6
CONTINUOUS
 10
-1682.9962198907
 20
1023.80959783479
  0
VERTEX
  8
52
 62
7
  6
CONTINUOUS
 10
-1678.26127069424
 20
1025.84987974069
  0
VERTEX
  8
52
 62
7
  6
CONTINUOUS
 10
-1671.11468334814
 20
1031.05844553676
  0
VERTEX
  8
52
 62
7
  6
CONTINUOUS
 10
-1657.99901108454
 20
1045.58148431996
  0
VERTEX
  8
52
 62
7
  6
CONTINUOUS
 10
-1641.72390060932
 20
1069.11924268577
  0
VERTEX
  8
52
 62
7
  6
CONTINUOUS
 10
-1625.37192690811
 20
1107.82156329753
  0
VERTEX
  8
52
 62
7
  6
CONTINUOUS
 10
-1632.08292488474
 20
1104.69403823433
  0
VERTEX
  8
52
 62
7
  6
CONTINUOUS
 10
-1638.75231493614
 20
1099.88631873748
  0
VERTEX
  8
52
 62
7
  6
CONTINUOUS
 10
-1662.55817439983
 20
1074.47958473258
  0
VERTEX
  8
52
 62
7
  6
CONTINUOUS
 10
-1671.9556872563
 20
1062.53253764978
  0
VERTEX
  8
52
 62
7
  6
CONTINUOUS
 10
-1691.99525148704
 20
1034.0932633682
  0
VERTEX
  8
52
 62
7
  6
CONTINUOUS
 10
-1695.3480826035
 20
1027.62668712189
  0
SEQEND
  0
POLYLINE
  8
52
 62
7
 66
1
 70
1
  0
VERTEX
  8
52
 62
7
  6
CONTINUOUS
 10
-1066.5357052761
 20
1715.6716021593
  0
VERTEX
  8
52
 62
7
  6
CONTINUOUS
 10
-1033.49362227806
 20
1735.90665746627
  0
VERTEX
  8
52
 62
7
  6
CONTINUOUS
 10
-992.247541850257
 20
1763.44020413821
  0
VERTEX
  8
52
 62
7
  6
CONTINUOUS
 10
-937.059843662254
 20
1797.55876318401
  0
VERTEX
  8
52
 62
7
  6
CONTINUOUS
 10
-920.30934743403
 20
1809.43659737519
  0
VERTEX
  8
52
 62
7
  6
CONTINUOUS
 10
-883.83868392375
 20
1838.53353503257
  0
VERTEX
  8
52
 62
7
  6
CONTINUOUS
 10
-856.175113184423
 20
1858.68665488989
  0
VERTEX
  8
52
 62
7
  6
CONTINUOUS
 10
-855.028102396044
 20
1860.63347753704
  0
SEQEND
  0
POLYLINE
  8
52
 62
7
 66
1
 70
1
  0
VERTEX
  8
52
 62
7
  6
CONTINUOUS
 10
-3229.33796422546
 20
2851.69692779406
  0
VERTEX
  8
52
 62
7
  6
CONTINUOUS
 10
-3187.82211741875
 20
2817.15666107618
  0
VERTEX
  8
52
 62
7
  6
CONTINUOUS
 10
-3194.99759877548
 20
2825.31619868014
  0
VERTEX
  8
52
 62
7
  6
CONTINUOUS
 10
-3209.87320970798
 20
2838.72187766203
  0
VERTEX
  8
52
 62
7
  6
CONTINUOUS
 10
-3217.10339516487
 20
2844.02619493054
  0
SEQEND
  0
POLYLINE
  8
52
 62
7
 66
1
 70
1
  0
VERTEX
  8
52
 62
7
  6
CONTINUOUS
 10
-2252.78953711923
 20
2571.05247090669
  0
VERTEX
  8
52
 62
7
  6
CONTINUOUS
 10
-2243.68606577586
 20
2567.19481457048
  0
VERTEX
  8
52
 62
7
  6
CONTINUOUS
 10
-2237.55559012768
 20
2566.99032426198
  0
VERTEX
  8
52
 62
7
  6
CONTINUOUS
 10
-2233.89712119341
 20
2569.51715951514
  0
VERTEX
  8
52
 62
7
  6
CONTINUOUS
 10
-2233.53856641428
 20
2574.99547408208
  0
SEQEND
  0
POLYLINE
  8
52
 62
7
 66
1
 70
1
  0
VERTEX
  8
52
 62
7
  6
CONTINUOUS
 10
-1861.90306265482
 20
1080.68721357838
  0
VERTEX
  8
52
 62
7
  6
CONTINUOUS
 10
-1861.4329801512
 20
1077.96550988937
  0
VERTEX
  8
52
 62
7
  6
CONTINUOUS
 10
-1842.808325259
 20
1078.72382502384
  0
VERTEX
  8
52
 62
7
  6
CONTINUOUS
 10
-1845.01872728402
 20
1082.33764360578
  0
VERTEX
  8
52
 62
7
  6
CONTINUOUS
 10
-1847.27713921064
 20
1084.35591314994
  0
VERTEX
  8
52
 62
7
  6
CONTINUOUS
 10
-1850.25340368394
 20
1085.75393566191
  0
VERTEX
  8
52
 62
7
  6
CONTINUOUS
 10
-1854.46139836814
 20
1086.12638389928
  0
VERTEX
  8
52
 62
7
  6
CONTINUOUS
 10
-1857.21771271248
 20
1085.56427250873
  0
VERTEX
  8
52
 62
7
  6
CONTINUOUS
 10
-1860.46405187447
 20
1083.18125888758
  0
SEQEND
  0
POLYLINE
  8
52
 62
7
 66
1
 70
1
  0
VERTEX
  8
52
 62
7
  6
CONTINUOUS
 10
-1885.04268594979
 20
579.491063386189
  0
VERTEX
  8
52
 62
7
  6
CONTINUOUS
 10
-1884.6794423672
 20
576.047594057925
  0
VERTEX
  8
52
 62
7
  6
CONTINUOUS
 10
-1881.66513083557
 20
572.916289400111
  0
VERTEX
  8
52
 62
7
  6
CONTINUOUS
 10
-1875.16361182161
 20
569.783222468278
  0
VERTEX
  8
52
 62
7
  6
CONTINUOUS
 10
-1882.61589328926
 20
584.555684518042
  0
SEQEND
  0
POLYLINE
  8
52
 62
7
 66
1
 70
1
  0
VERTEX
  8
52
 62
7
  6
CONTINUOUS
 10
-1867.60240369728
 20
1294.6621686005
  0
VERTEX
  8
52
 62
7
  6
CONTINUOUS
 10
-1862.30931391352
 20
1269.95123504804
  0
VERTEX
  8
52
 62
7
  6
CONTINUOUS
 10
-1852.15147578542
 20
1230.98103090665
  0
VERTEX
  8
52
 62
7
  6
CONTINUOUS
 10
-1820.72331155666
 20
1127.86446352793
  0
VERTEX
  8
52
 62
7
  6
CONTINUOUS
 10
-1801.36881120447
 20
1060.35935985473
  0
VERTEX
  8
52
 62
7
  6
CONTINUOUS
 10
-1792.05523296771
 20
1024.92183399168
  0
VERTEX
  8
52
 62
7
  6
CONTINUOUS
 10
-1785.99385763117
 20
1006.80955220651
  0
VERTEX
  8
52
 62
7
  6
CONTINUOUS
 10
-1780.26033628481
 20
1001.07056856821
  0
VERTEX
  8
52
 62
7
  6
CONTINUOUS
 10
-1782.48638078138
 20
997.845943377106
  0
VERTEX
  8
52
 62
7
  6
CONTINUOUS
 10
-1780.68822846148
 20
993.325104723837
  0
VERTEX
  8
52
 62
7
  6
CONTINUOUS
 10
-1774.9834904027
 20
987.525340251952
  0
VERTEX
  8
52
 62
7
  6
CONTINUOUS
 10
-1776.80792278421
 20
984.426070389545
  0
VERTEX
  8
52
 62
7
  6
CONTINUOUS
 10
-1774.93422307152
 20
980.09124697296
  0
VERTEX
  8
52
 62
7
  6
CONTINUOUS
 10
-1769.6513345786
 20
974.659485859712
  0
VERTEX
  8
52
 62
7
  6
CONTINUOUS
 10
-1759.14995864534
 20
948.840683801642
  0
SEQEND
  0
POLYLINE
  8
52
 62
7
 66
1
 70
1
  0
VERTEX
  8
52
 62
7
  6
CONTINUOUS
 10
-2339.93820752255
 20
2286.32955256678
  0
VERTEX
  8
52
 62
7
  6
CONTINUOUS
 10
-2335.01304972085
 20
2285.91469230711
  0
VERTEX
  8
52
 62
7
  6
CONTINUOUS
 10
-2339.3644822394
 20
2286.69903702899
  0
SEQEND
  0
POLYLINE
  8
52
 62
7
 66
1
 70
1
  0
VERTEX
  8
52
 62
7
  6
CONTINUOUS
 10
-1657.196844602
 20
2524.57788701934
  0
VERTEX
  8
52
 62
7
  6
CONTINUOUS
 10
-1651.08964867654
 20
2511.2375866337
  0
VERTEX
  8
52
 62
7
  6
CONTINUOUS
 10
-1643.14232366047
 20
2499.09719872472
  0
VERTEX
  8
52
 62
7
  6
CONTINUOUS
 10
-1632.76519705562
 20
2489.05498053948
  0
VERTEX
  8
52
 62
7
  6
CONTINUOUS
 10
-1621.18122763693
 20
2482.2836811303
  0
VERTEX
  8
52
 62
7
  6
CONTINUOUS
 10
-1607.23619737853
 20
2476.78637588068
  0
VERTEX
  8
52
 62
7
  6
CONTINUOUS
 10
-1596.22010393545
 20
2475.71381380318
  0
VERTEX
  8
52
 62
7
  6
CONTINUOUS
 10
-1585.55449413012
 20
2477.71138285877
  0
VERTEX
  8
52
 62
7
  6
CONTINUOUS
 10
-1571.81372082417
 20
2483.78627539764
  0
VERTEX
  8
52
 62
7
  6
CONTINUOUS
 10
-1562.34516071557
 20
2491.09017885559
  0
VERTEX
  8
52
 62
7
  6
CONTINUOUS
 10
-1554.28309997738
 20
2500.92610337817
  0
VERTEX
  8
52
 62
7
  6
CONTINUOUS
 10
-1545.87296173627
 20
2517.7086000304
  0
VERTEX
  8
52
 62
7
  6
CONTINUOUS
 10
-1540.87949248649
 20
2531.45909114091
  0
VERTEX
  8
52
 62
7
  6
CONTINUOUS
 10
-1538.18487646904
 20
2540.87804736095
  0
VERTEX
  8
52
 62
7
  6
CONTINUOUS
 10
-1535.36080902511
 20
2555.36677511528
  0
VERTEX
  8
52
 62
7
  6
CONTINUOUS
 10
-1536.67294254429
 20
2565.78425530421
  0
VERTEX
  8
52
 62
7
  6
CONTINUOUS
 10
-1536.13284740289
 20
2585.15309207923
  0
VERTEX
  8
52
 62
7
  6
CONTINUOUS
 10
-1536.93302571327
 20
2598.61211825195
  0
SEQEND
  0
POLYLINE
  8
52
 62
7
 66
1
 70
1
  0
VERTEX
  8
52
 62
7
  6
CONTINUOUS
 10
-2416.39057919316
 20
967.543744931928
  0
VERTEX
  8
52
 62
7
  6
CONTINUOUS
 10
-2342.38880318399
 20
660.403542417881
  0
VERTEX
  8
52
 62
7
  6
CONTINUOUS
 10
-2342.17161224597
 20
667.212328057625
  0
VERTEX
  8
52
 62
7
  6
CONTINUOUS
 10
-2348.82290428756
 20
708.663161579198
  0
VERTEX
  8
52
 62
7
  6
CONTINUOUS
 10
-2360.39119992441
 20
760.247443060071
  0
SEQEND
  0
POLYLINE
  8
52
 62
7
 66
1
 70
1
  0
VERTEX
  8
52
 62
7
  6
CONTINUOUS
 10
-3377.74984841822
 20
461.935837738744
  0
VERTEX
  8
52
 62
7
  6
CONTINUOUS
 10
-3377.29876805685
 20
456.412075386443
  0
VERTEX
  8
52
 62
7
  6
CONTINUOUS
 10
-3334.5458336508
 20
461.381677247539
  0
VERTEX
  8
52
 62
7
  6
CONTINUOUS
 10
-3340.10798668843
 20
469.916117785055
  0
VERTEX
  8
52
 62
7
  6
CONTINUOUS
 10
-3346.18509143487
 20
476.125916926732
  0
VERTEX
  8
52
 62
7
  6
CONTINUOUS
 10
-3354.83175027649
 20
481.065618862379
  0
VERTEX
  8
52
 62
7
  6
CONTINUOUS
 10
-3361.31134209515
 20
482.13241043737
  0
VERTEX
  8
52
 62
7
  6
CONTINUOUS
 10
-3364.94493551269
 20
481.421940353954
  0
VERTEX
  8
52
 62
7
  6
CONTINUOUS
 10
-3368.02283607801
 20
479.693625430184
  0
VERTEX
  8
52
 62
7
  6
CONTINUOUS
 10
-3373.83174961838
 20
474.049153912911
  0
VERTEX
  8
52
 62
7
  6
CONTINUOUS
 10
-3376.93068835994
 20
467.356083206668
  0
SEQEND
  0
POLYLINE
  8
52
 62
7
 66
1
 70
1
  0
VERTEX
  8
52
 62
7
  6
CONTINUOUS
 10
-3105.75475225903
 20
1875.18183505227
  0
VERTEX
  8
52
 62
7
  6
CONTINUOUS
 10
-3105.63437745156
 20
1870.76273435776
  0
VERTEX
  8
52
 62
7
  6
CONTINUOUS
 10
-3102.36171974052
 20
1860.38060586788
  0
VERTEX
  8
52
 62
7
  6
CONTINUOUS
 10
-3096.39946453666
 20
1848.49280261879
  0
VERTEX
  8
52
 62
7
  6
CONTINUOUS
 10
-3088.44243467718
 20
1835.51306179481
  0
VERTEX
  8
52
 62
7
  6
CONTINUOUS
 10
-3078.3497682884
 20
1822.55639622486
  0
VERTEX
  8
52
 62
7
  6
CONTINUOUS
 10
-3070.33947257143
 20
1813.81869830602
  0
VERTEX
  8
52
 62
7
  6
CONTINUOUS
 10
-3057.21897259211
 20
1803.73280568357
  0
VERTEX
  8
52
 62
7
  6
CONTINUOUS
 10
-3043.80027999083
 20
1797.45013581009
  0
VERTEX
  8
52
 62
7
  6
CONTINUOUS
 10
-3026.74692026075
 20
1792.88731837795
  0
VERTEX
  8
52
 62
7
  6
CONTINUOUS
 10
-3016.11114764193
 20
1791.96862077334
  0
VERTEX
  8
52
 62
7
  6
CONTINUOUS
 10
-3009.7680379424
 20
1792.57083505049
  0
VERTEX
  8
52
 62
7
  6
CONTINUOUS
 10
-3020.2606017081
 20
1797.53134733433
  0
VERTEX
  8
52
 62
7
  6
CONTINUOUS
 10
-3011.74932337451
 20
1880.98132330713
  0
VERTEX
  8
52
 62
7
  6
CONTINUOUS
 10
-3012.27872692043
 20
1883.88249424392
  0
VERTEX
  8
52
 62
7
  6
CONTINUOUS
 10
-3011.82428954025
 20
1889.43071855725
  0
VERTEX
  8
52
 62
7
  6
CONTINUOUS
 10
-3013.11166925637
 20
1898.93407407975
  0
VERTEX
  8
52
 62
7
  6
CONTINUOUS
 10
-3017.53201980364
 20
1907.91342762731
  0
VERTEX
  8
52
 62
7
  6
CONTINUOUS
 10
-3022.04645092951
 20
1908.88934536544
  0
VERTEX
  8
52
 62
7
  6
CONTINUOUS
 10
-3025.95628827901
 20
1908.55498818647
  0
VERTEX
  8
52
 62
7
  6
CONTINUOUS
 10
-3046.70875912707
 20
1904.16217280453
  0
VERTEX
  8
52
 62
7
  6
CONTINUOUS
 10
-3089.45085135731
 20
1890.80024065113
  0
VERTEX
  8
52
 62
7
  6
CONTINUOUS
 10
-3095.58057519049
 20
1888.25500442739
  0
VERTEX
  8
52
 62
7
  6
CONTINUOUS
 10
-3101.66236512446
 20
1884.15508639264
  0
VERTEX
  8
52
 62
7
  6
CONTINUOUS
 10
-3105.33858707001
 20
1878.83433891572
  0
SEQEND
  0
POLYLINE
  8
52
 62
7
 66
1
 70
1
  0
VERTEX
  8
52
 62
7
  6
CONTINUOUS
 10
-3327.56755961921
 20
1930.66493807555
  0
VERTEX
  8
52
 62
7
  6
CONTINUOUS
 10
-3318.22767540135
 20
1927.09190535852
  0
VERTEX
  8
52
 62
7
  6
CONTINUOUS
 10
-3309.0494857776
 20
1951.08363317189
  0
VERTEX
  8
52
 62
7
  6
CONTINUOUS
 10
-3308.95931154165
 20
1951.31934803652
  0
VERTEX
  8
52
 62
7
  6
CONTINUOUS
 10
-3303.43851535453
 20
1971.70169505175
  0
VERTEX
  8
52
 62
7
  6
CONTINUOUS
 10
-3288.70389038255
 20
2009.00152373995
  0
VERTEX
  8
52
 62
7
  6
CONTINUOUS
 10
-3240.36648294798
 20
2118.86355145895
  0
VERTEX
  8
52
 62
7
  6
CONTINUOUS
 10
-3229.80272475087
 20
2139.98176633209
  0
VERTEX
  8
52
 62
7
  6
CONTINUOUS
 10
-3229.5762601563
 20
2143.5865507146
  0
VERTEX
  8
52
 62
7
  6
CONTINUOUS
 10
-3207.24452662849
 20
2199.50453605979
  0
VERTEX
  8
52
 62
7
  6
CONTINUOUS
 10
-3207.06609855836
 20
2199.95131455093
  0
VERTEX
  8
52
 62
7
  6
CONTINUOUS
 10
-3203.38759951627
 20
2219.27472102303
  0
VERTEX
  8
52
 62
7
  6
CONTINUOUS
 10
-3199.58256596257
 20
2260.01580162789
  0
VERTEX
  8
52
 62
7
  6
CONTINUOUS
 10
-3209.53923562997
 20
2260.94570976006
  0
VERTEX
  8
52
 62
7
  6
CONTINUOUS
 10
-3213.30007052277
 20
2220.67787102837
  0
VERTEX
  8
52
 62
7
  6
CONTINUOUS
 10
-3216.70975099817
 20
2202.76658683008
  0
VERTEX
  8
52
 62
7
  6
CONTINUOUS
 10
-3239.15967546608
 20
2146.55265494549
  0
VERTEX
  8
52
 62
7
  6
CONTINUOUS
 10
-3239.45629447631
 20
2145.80992991493
  0
VERTEX
  8
52
 62
7
  6
CONTINUOUS
 10
-3239.65559699337
 20
2142.63750200289
  0
VERTEX
  8
52
 62
7
  6
CONTINUOUS
 10
-3249.42033621193
 20
2123.11662154065
  0
VERTEX
  8
52
 62
7
  6
CONTINUOUS
 10
-3249.47001368477
 20
2123.00371379099
  0
VERTEX
  8
52
 62
7
  6
CONTINUOUS
 10
-3297.89564032659
 20
2012.9411800559
  0
VERTEX
  8
52
 62
7
  6
CONTINUOUS
 10
-3297.93418206101
 20
2012.85358178946
  0
VERTEX
  8
52
 62
7
  6
CONTINUOUS
 10
-3297.96934345314
 20
2012.76457281194
  0
VERTEX
  8
52
 62
7
  6
CONTINUOUS
 10
-3312.94454135054
 20
1974.8557480399
  0
VERTEX
  8
52
 62
7
  6
CONTINUOUS
 10
-3318.4795442314
 20
1954.4209510243
  0
SEQEND
  0
POLYLINE
  8
52
 62
7
 66
1
 70
1
  0
VERTEX
  8
52
 62
7
  6
CONTINUOUS
 10
-3325.10031308718
 20
2694.84860523233
  0
VERTEX
  8
52
 62
7
  6
CONTINUOUS
 10
-3323.54666236891
 20
2684.81400505753
  0
VERTEX
  8
52
 62
7
  6
CONTINUOUS
 10
-3320.18052921703
 20
2676.56144880832
  0
VERTEX
  8
52
 62
7
  6
CONTINUOUS
 10
-3279.07499354467
 20
2640.04227477585
  0
VERTEX
  8
52
 62
7
  6
CONTINUOUS
 10
-3277.79947872835
 20
2646.85991507555
  0
VERTEX
  8
52
 62
7
  6
CONTINUOUS
 10
-3283.25479163104
 20
2673.72099879019
  0
VERTEX
  8
52
 62
7
  6
CONTINUOUS
 10
-3291.12787393045
 20
2706.2312514435
  0
VERTEX
  8
52
 62
7
  6
CONTINUOUS
 10
-3294.40406061527
 20
2716.90419331708
  0
VERTEX
  8
52
 62
7
  6
CONTINUOUS
 10
-3297.91892461599
 20
2725.10425561358
  0
VERTEX
  8
52
 62
7
  6
CONTINUOUS
 10
-3300.42563688084
 20
2728.64609564462
  0
VERTEX
  8
52
 62
7
  6
CONTINUOUS
 10
-3303.22525559495
 20
2730.69812615364
  0
VERTEX
  8
52
 62
7
  6
CONTINUOUS
 10
-3310.53363962631
 20
2730.25130832839
  0
VERTEX
  8
52
 62
7
  6
CONTINUOUS
 10
-3313.21543107579
 20
2729.05051094631
  0
VERTEX
  8
52
 62
7
  6
CONTINUOUS
 10
-3319.84456873436
 20
2721.98956134448
  0
VERTEX
  8
52
 62
7
  6
CONTINUOUS
 10
-3322.87627788245
 20
2714.59652838797
  0
VERTEX
  8
52
 62
7
  6
CONTINUOUS
 10
-3324.8445571096
 20
2704.95141784812
  0
SEQEND
  0
POLYLINE
  8
52
 62
7
 66
1
 70
1
  0
VERTEX
  8
52
 62
7
  6
CONTINUOUS
 10
-1441.38652145024
 20
2303.3073439523
  0
VERTEX
  8
52
 62
7
  6
CONTINUOUS
 10
-1439.04031199639
 20
2296.77673424077
  0
VERTEX
  8
52
 62
7
  6
CONTINUOUS
 10
-1436.5389857608
 20
2281.93244295312
  0
VERTEX
  8
52
 62
7
  6
CONTINUOUS
 10
-1432.40128726551
 20
2271.48961704561
  0
VERTEX
  8
52
 62
7
  6
CONTINUOUS
 10
-1428.63861146742
 20
2265.34303830297
  0
VERTEX
  8
52
 62
7
  6
CONTINUOUS
 10
-1423.97746665799
 20
2259.46812259167
  0
VERTEX
  8
52
 62
7
  6
CONTINUOUS
 10
-1415.55393093991
 20
2251.11595513508
  0
VERTEX
  8
52
 62
7
  6
CONTINUOUS
 10
-1397.64570458923
 20
2238.01473479509
  0
VERTEX
  8
52
 62
7
  6
CONTINUOUS
 10
-1366.95756830984
 20
2220.34150781122
  0
VERTEX
  8
52
 62
7
  6
CONTINUOUS
 10
-1348.23810727969
 20
2208.46419027558
  0
VERTEX
  8
52
 62
7
  6
CONTINUOUS
 10
-1320.30320511937
 20
2187.94643416166
  0
VERTEX
  8
52
 62
7
  6
CONTINUOUS
 10
-1282.61141388964
 20
2158.77424710654
  0
VERTEX
  8
52
 62
7
  6
CONTINUOUS
 10
-1269.17004232278
 20
2149.40988093805
  0
VERTEX
  8
52
 62
7
  6
CONTINUOUS
 10
-1256.93332885589
 20
2142.3143965953
  0
VERTEX
  8
52
 62
7
  6
CONTINUOUS
 10
-1245.82434215728
 20
2136.99741756996
  0
VERTEX
  8
52
 62
7
  6
CONTINUOUS
 10
-1237.00925745129
 20
2134.72759174111
  0
VERTEX
  8
52
 62
7
  6
CONTINUOUS
 10
-1229.79330639884
 20
2135.72632085987
  0
VERTEX
  8
52
 62
7
  6
CONTINUOUS
 10
-1224.37749087213
 20
2140.10183875098
  0
VERTEX
  8
52
 62
7
  6
CONTINUOUS
 10
-1222.11356520656
 20
2145.1098514167
  0
VERTEX
  8
52
 62
7
  6
CONTINUOUS
 10
-1219.96599686598
 20
2155.1603167388
  0
VERTEX
  8
52
 62
7
  6
CONTINUOUS
 10
-1219.03085700826
 20
2167.21787403396
  0
VERTEX
  8
52
 62
7
  6
CONTINUOUS
 10
-1223.14867579453
 20
2208.8770006004
  0
VERTEX
  8
52
 62
7
  6
CONTINUOUS
 10
-1225.66561605507
 20
2225.95401767158
  0
VERTEX
  8
52
 62
7
  6
CONTINUOUS
 10
-1229.31705684979
 20
2243.04933631898
  0
VERTEX
  8
52
 62
7
  6
CONTINUOUS
 10
-1236.27435572835
 20
2266.20871939442
  0
VERTEX
  8
52
 62
7
  6
CONTINUOUS
 10
-1242.59833595629
 20
2281.97864235674
  0
VERTEX
  8
52
 62
7
  6
CONTINUOUS
 10
-1249.67711519006
 20
2295.55309916941
  0
VERTEX
  8
52
 62
7
  6
CONTINUOUS
 10
-1254.7717914859
 20
2303.49464097509
  0
VERTEX
  8
52
 62
7
  6
CONTINUOUS
 10
-1263.45329097352
 20
2313.70195106039
  0
VERTEX
  8
52
 62
7
  6
CONTINUOUS
 10
-1269.71684824578
 20
2319.26512262289
  0
VERTEX
  8
52
 62
7
  6
CONTINUOUS
 10
-1279.49547436612
 20
2325.36014432724
  0
VERTEX
  8
52
 62
7
  6
CONTINUOUS
 10
-1288.90372049628
 20
2329.04158470557
  0
VERTEX
  8
52
 62
7
  6
CONTINUOUS
 10
-1299.61897411517
 20
2331.43066533443
  0
VERTEX
  8
52
 62
7
  6
CONTINUOUS
 10
-1435.4635427577
 20
2323.71682849267
  0
VERTEX
  8
52
 62
7
  6
CONTINUOUS
 10
-1440.12773491478
 20
2312.02357500716
  0
SEQEND
  0
POLYLINE
  8
52
 62
7
 66
1
 70
1
  0
VERTEX
  8
52
 62
7
  6
CONTINUOUS
 10
-1190.77324398719
 20
1671.90941268523
  0
VERTEX
  8
52
 62
7
  6
CONTINUOUS
 10
-1004.16040831263
 20
1939.83497712197
  0
VERTEX
  8
52
 62
7
  6
CONTINUOUS
 10
-1029.94051456698
 20
1908.98168690718
  0
VERTEX
  8
52
 62
7
  6
CONTINUOUS
 10
-1062.94390808357
 20
1865.16582837163
  0
VERTEX
  8
52
 62
7
  6
CONTINUOUS
 10
-1090.60281891384
 20
1821.25070654077
  0
VERTEX
  8
52
 62
7
  6
CONTINUOUS
 10
-1117.97790524802
 20
1779.77658710747
  0
VERTEX
  8
52
 62
7
  6
CONTINUOUS
 10
-1137.4749167939
 20
1752.87818613518
  0
VERTEX
  8
52
 62
7
  6
CONTINUOUS
 10
-1171.33938521376
 20
1703.3005676001
  0
SEQEND
  0
POLYLINE
  8
52
 62
7
 66
1
 70
1
  0
VERTEX
  8
52
 62
7
  6
CONTINUOUS
 10
-2450.80791124338
 20
937.986664403659
  0
VERTEX
  8
52
 62
7
  6
CONTINUOUS
 10
-2445.44498267926
 20
909.406832026239
  0
VERTEX
  8
52
 62
7
  6
CONTINUOUS
 10
-2437.4000538638
 20
873.526037905518
  0
VERTEX
  8
52
 62
7
  6
CONTINUOUS
 10
-2430.56038285727
 20
835.045213722264
  0
VERTEX
  8
52
 62
7
  6
CONTINUOUS
 10
-2419.67239849453
 20
781.7818055447
  0
VERTEX
  8
52
 62
7
  6
CONTINUOUS
 10
-2409.11850582572
 20
741.551631851276
  0
VERTEX
  8
52
 62
7
  6
CONTINUOUS
 10
-2398.10812327344
 20
709.51199677845
  0
VERTEX
  8
52
 62
7
  6
CONTINUOUS
 10
-2393.9629348055
 20
695.622635843362
  0
SEQEND
  0
POLYLINE
  8
53
 62
7
 66
1
 70
1
  0
VERTEX
  8
53
 62
7
  6
CONTINUOUS
 10
-1745.79046347703
 20
1603.64763131459
  0
VERTEX
  8
53
 62
7
  6
CONTINUOUS
 10
-1733.80471034003
 20
1601.79621156461
  0
VERTEX
  8
53
 62
7
  6
CONTINUOUS
 10
-1667.87792481271
 20
1596.58881428654
  0
VERTEX
  8
53
 62
7
  6
CONTINUOUS
 10
-1588.24858947927
 20
1599.19252624528
  0
VERTEX
  8
53
 62
7
  6
CONTINUOUS
 10
-1496.53653410494
 20
1598.12007391625
  0
VERTEX
  8
53
 62
7
  6
CONTINUOUS
 10
-1417.66480439302
 20
1593.2959984017
  0
VERTEX
  8
53
 62
7
  6
CONTINUOUS
 10
-1384.62313981224
 20
1592.39359217397
  0
VERTEX
  8
53
 62
7
  6
CONTINUOUS
 10
-1274.20208664347
 20
1593.61079880837
  0
VERTEX
  8
53
 62
7
  6
CONTINUOUS
 10
-1217.67764622939
 20
1592.06802817025
  0
VERTEX
  8
53
 62
7
  6
CONTINUOUS
 10
-1186.90198877354
 20
1593.18486667044
  0
VERTEX
  8
53
 62
7
  6
CONTINUOUS
 10
-1277.03316849416
 20
1612.34373100776
  0
VERTEX
  8
53
 62
7
  6
CONTINUOUS
 10
-1315.82062749636
 20
1610.99089700288
  0
VERTEX
  8
53
 62
7
  6
CONTINUOUS
 10
-1352.72077238267
 20
1611.24305839567
  0
VERTEX
  8
53
 62
7
  6
CONTINUOUS
 10
-1500.91150867795
 20
1617.89567048085
  0
VERTEX
  8
53
 62
7
  6
CONTINUOUS
 10
-1610.7911678121
 20
1619.25001012812
  0
VERTEX
  8
53
 62
7
  6
CONTINUOUS
 10
-1632.07744685051
 20
1618.40958451119
  0
VERTEX
  8
53
 62
7
  6
CONTINUOUS
 10
-1715.59662138552
 20
1612.15726196795
  0
VERTEX
  8
53
 62
7
  6
CONTINUOUS
 10
-1732.66779269884
 20
1609.29812980885
  0
VERTEX
  8
53
 62
7
  6
CONTINUOUS
 10
-1739.74088761474
 20
1606.92314912663
  0
SEQEND
  0
POLYLINE
  8
53
 62
7
 66
1
 70
1
  0
VERTEX
  8
53
 62
7
  6
CONTINUOUS
 10
-1496.95986996589
 20
1024.3460946573
  0
VERTEX
  8
53
 62
7
  6
CONTINUOUS
 10
-1493.64503321686
 20
1017.77546436
  0
VERTEX
  8
53
 62
7
  6
CONTINUOUS
 10
-1490.68310929803
 20
1014.61685481348
  0
VERTEX
  8
53
 62
7
  6
CONTINUOUS
 10
-1429.10838966744
 20
1115.41208998753
  0
VERTEX
  8
53
 62
7
  6
CONTINUOUS
 10
-1437.06976893696
 20
1119.79590260577
  0
VERTEX
  8
53
 62
7
  6
CONTINUOUS
 10
-1440.77115356033
 20
1122.76435103605
  0
VERTEX
  8
53
 62
7
  6
CONTINUOUS
 10
-1449.88656331524
 20
1124.77931346511
  0
VERTEX
  8
53
 62
7
  6
CONTINUOUS
 10
-1455.40396299472
 20
1124.36144809774
  0
VERTEX
  8
53
 62
7
  6
CONTINUOUS
 10
-1460.79712379604
 20
1122.76730221817
  0
VERTEX
  8
53
 62
7
  6
CONTINUOUS
 10
-1463.97352516769
 20
1120.83221498576
  0
VERTEX
  8
53
 62
7
  6
CONTINUOUS
 10
-1467.95029614656
 20
1116.48234800623
  0
VERTEX
  8
53
 62
7
  6
CONTINUOUS
 10
-1472.77745552227
 20
1105.95470379748
  0
VERTEX
  8
53
 62
7
  6
CONTINUOUS
 10
-1484.98039713109
 20
1067.07122747261
  0
VERTEX
  8
53
 62
7
  6
CONTINUOUS
 10
-1495.799370697
 20
1037.66873484109
  0
SEQEND
  0
POLYLINE
  8
53
 62
7
 66
1
 70
1
  0
VERTEX
  8
53
 62
7
  6
CONTINUOUS
 10
-2144.57238123397
 20
2521.62126135158
  0
VERTEX
  8
53
 62
7
  6
CONTINUOUS
 10
-2138.12653976523
 20
2531.00527284571
  0
VERTEX
  8
53
 62
7
  6
CONTINUOUS
 10
-2128.31416929779
 20
2539.14129671067
  0
VERTEX
  8
53
 62
7
  6
CONTINUOUS
 10
-2125.82109480245
 20
2542.46973387764
  0
VERTEX
  8
53
 62
7
  6
CONTINUOUS
 10
-2123.87201262273
 20
2548.37246219227
  0
VERTEX
  8
53
 62
7
  6
CONTINUOUS
 10
-2124.13516384006
 20
2550.55216813344
  0
VERTEX
  8
53
 62
7
  6
CONTINUOUS
 10
-2126.23263787724
 20
2553.80320226274
  0
VERTEX
  8
53
 62
7
  6
CONTINUOUS
 10
-2126.49747228414
 20
2556.60886763023
  0
SEQEND
  0
POLYLINE
  8
53
 62
7
 66
1
 70
1
  0
VERTEX
  8
53
 62
7
  6
CONTINUOUS
 10
-1871.69773395414
 20
691.56090268273
  0
VERTEX
  8
53
 62
7
  6
CONTINUOUS
 10
-1871.61883628079
 20
686.353854493835
  0
VERTEX
  8
53
 62
7
  6
CONTINUOUS
 10
-1869.19240131724
 20
676.452133835089
  0
VERTEX
  8
53
 62
7
  6
CONTINUOUS
 10
-1858.86581412728
 20
653.932057265375
  0
VERTEX
  8
53
 62
7
  6
CONTINUOUS
 10
-1852.01888485582
 20
641.436368045416
  0
VERTEX
  8
53
 62
7
  6
CONTINUOUS
 10
-1844.78383879433
 20
684.353466941984
  0
VERTEX
  8
53
 62
7
  6
CONTINUOUS
 10
-1852.93863101367
 20
694.823955365947
  0
VERTEX
  8
53
 62
7
  6
CONTINUOUS
 10
-1859.03442601189
 20
699.330597751625
  0
VERTEX
  8
53
 62
7
  6
CONTINUOUS
 10
-1865.46743583226
 20
700.455302267796
  0
VERTEX
  8
53
 62
7
  6
CONTINUOUS
 10
-1868.55998502299
 20
698.986957973598
  0
VERTEX
  8
53
 62
7
  6
CONTINUOUS
 10
-1870.67262636671
 20
695.882327651932
  0
SEQEND
  0
POLYLINE
  8
53
 62
7
 66
1
 70
1
  0
VERTEX
  8
53
 62
7
  6
CONTINUOUS
 10
-1734.56547985233
 20
988.449733886908
  0
VERTEX
  8
53
 62
7
  6
CONTINUOUS
 10
-1730.31697279425
 20
972.99432431967
  0
VERTEX
  8
53
 62
7
  6
CONTINUOUS
 10
-1733.18346478366
 20
970.738104882905
  0
VERTEX
  8
53
 62
7
  6
CONTINUOUS
 10
-1732.02947229669
 20
967.032412929789
  0
VERTEX
  8
53
 62
7
  6
CONTINUOUS
 10
-1726.64060646835
 20
961.858796136297
  0
VERTEX
  8
53
 62
7
  6
CONTINUOUS
 10
-1724.29989796234
 20
955.073527935079
  0
VERTEX
  8
53
 62
7
  6
CONTINUOUS
 10
-1727.06957564569
 20
953.055472555466
  0
VERTEX
  8
53
 62
7
  6
CONTINUOUS
 10
-1721.9831867965
 20
948.685467272997
  0
VERTEX
  8
53
 62
7
  6
CONTINUOUS
 10
-1717.15263719624
 20
935.40226733283
  0
SEQEND
  0
POLYLINE
  8
53
 62
7
 66
1
 70
1
  0
VERTEX
  8
53
 62
7
  6
CONTINUOUS
 10
-1743.03975035755
 20
1006.10951190228
  0
VERTEX
  8
53
 62
7
  6
CONTINUOUS
 10
-1739.80735092514
 20
994.124214206839
  0
VERTEX
  8
53
 62
7
  6
CONTINUOUS
 10
-1734.64022907141
 20
988.677454126359
  0
VERTEX
  8
53
 62
7
  6
CONTINUOUS
 10
-1740.9727142899
 20
1007.96909446716
  0
SEQEND
  0
POLYLINE
  8
53
 62
7
 66
1
 70
1
  0
VERTEX
  8
53
 62
7
  6
CONTINUOUS
 10
-1748.95401238127
 20
1027.80354824342
  0
VERTEX
  8
53
 62
7
  6
CONTINUOUS
 10
-1745.27443728537
 20
1014.28763734844
  0
VERTEX
  8
53
 62
7
  6
CONTINUOUS
 10
-1741.80994773449
 20
1010.51968968166
  0
VERTEX
  8
53
 62
7
  6
CONTINUOUS
 10
-1747.90553360353
 20
1029.08962647498
  0
SEQEND
  0
POLYLINE
  8
53
 62
7
 66
1
 70
1
  0
VERTEX
  8
53
 62
7
  6
CONTINUOUS
 10
-1799.77111193193
 20
1187.09585130705
  0
VERTEX
  8
53
 62
7
  6
CONTINUOUS
 10
-1792.89284350241
 20
1158.97121798714
  0
VERTEX
  8
53
 62
7
  6
CONTINUOUS
 10
-1780.169890014
 20
1119.74574324905
  0
VERTEX
  8
53
 62
7
  6
CONTINUOUS
 10
-1761.79162074429
 20
1067.97210367091
  0
VERTEX
  8
53
 62
7
  6
CONTINUOUS
 10
-1752.15911681824
 20
1037.78682584534
  0
VERTEX
  8
53
 62
7
  6
CONTINUOUS
 10
-1749.852934986
 20
1035.02229994732
  0
SEQEND
  0
POLYLINE
  8
53
 62
7
 66
1
 70
1
  0
VERTEX
  8
53
 62
7
  6
CONTINUOUS
 10
-2467.81101113207
 20
2652.78394226244
  0
VERTEX
  8
53
 62
7
  6
CONTINUOUS
 10
-2460.99979714818
 20
2645.87155531905
  0
VERTEX
  8
53
 62
7
  6
CONTINUOUS
 10
-2452.97868143675
 20
2639.78306245689
  0
VERTEX
  8
53
 62
7
  6
CONTINUOUS
 10
-2442.79036048862
 20
2635.00865948415
  0
VERTEX
  8
53
 62
7
  6
CONTINUOUS
 10
-2437.24189051114
 20
2633.55071395076
  0
VERTEX
  8
53
 62
7
  6
CONTINUOUS
 10
-2425.6163115216
 20
2632.79153199202
  0
VERTEX
  8
53
 62
7
  6
CONTINUOUS
 10
-2413.10180288305
 20
2633.67614430978
  0
VERTEX
  8
53
 62
7
  6
CONTINUOUS
 10
-2402.42910336886
 20
2637.06045955823
  0
VERTEX
  8
53
 62
7
  6
CONTINUOUS
 10
-2397.04597424385
 20
2640.13258261026
  0
SEQEND
  0
POLYLINE
  8
53
 62
7
 66
1
 70
1
  0
VERTEX
  8
53
 62
7
  6
CONTINUOUS
 10
-2884.51520827378
 20
2675.4790127442
  0
VERTEX
  8
53
 62
7
  6
CONTINUOUS
 10
-2872.79896257662
 20
2659.59418062201
  0
VERTEX
  8
53
 62
7
  6
CONTINUOUS
 10
-2865.3034597253
 20
2651.86342358244
  0
VERTEX
  8
53
 62
7
  6
CONTINUOUS
 10
-2854.77051541138
 20
2643.65151429804
  0
VERTEX
  8
53
 62
7
  6
CONTINUOUS
 10
-2842.07539346467
 20
2637.56954345646
  0
VERTEX
  8
53
 62
7
  6
CONTINUOUS
 10
-2826.07683718199
 20
2633.41223744467
  0
VERTEX
  8
53
 62
7
  6
CONTINUOUS
 10
-2818.60744079724
 20
2633.02340688526
  0
VERTEX
  8
53
 62
7
  6
CONTINUOUS
 10
-2812.25207799278
 20
2634.44510525813
  0
VERTEX
  8
53
 62
7
  6
CONTINUOUS
 10
-2808.91748287227
 20
2636.72550540737
  0
VERTEX
  8
53
 62
7
  6
CONTINUOUS
 10
-2806.33861670773
 20
2640.35698253572
  0
VERTEX
  8
53
 62
7
  6
CONTINUOUS
 10
-2805.3646233584
 20
2642.76483015813
  0
VERTEX
  8
53
 62
7
  6
CONTINUOUS
 10
-2806.09923237745
 20
2648.21712507838
  0
SEQEND
  0
POLYLINE
  8
53
 62
7
 66
1
 70
1
  0
VERTEX
  8
53
 62
7
  6
CONTINUOUS
 10
-2908.36619764938
 20
749.588448029684
  0
VERTEX
  8
53
 62
7
  6
CONTINUOUS
 10
-2906.18823761019
 20
741.919561430468
  0
VERTEX
  8
53
 62
7
  6
CONTINUOUS
 10
-2903.44357191899
 20
737.861688352556
  0
VERTEX
  8
53
 62
7
  6
CONTINUOUS
 10
-2850.71562010008
 20
756.631934656857
  0
VERTEX
  8
53
 62
7
  6
CONTINUOUS
 10
-2848.87903062537
 20
763.21740551903
  0
VERTEX
  8
53
 62
7
  6
CONTINUOUS
 10
-2850.23408224288
 20
766.352734386965
  0
VERTEX
  8
53
 62
7
  6
CONTINUOUS
 10
-2853.89837168473
 20
770.749232776359
  0
VERTEX
  8
53
 62
7
  6
CONTINUOUS
 10
-2860.63749599009
 20
775.557567098323
  0
VERTEX
  8
53
 62
7
  6
CONTINUOUS
 10
-2877.02712827549
 20
778.974097222694
  0
VERTEX
  8
53
 62
7
  6
CONTINUOUS
 10
-2884.51420101551
 20
778.736495668221
  0
VERTEX
  8
53
 62
7
  6
CONTINUOUS
 10
-2891.30179863214
 20
777.368128610432
  0
VERTEX
  8
53
 62
7
  6
CONTINUOUS
 10
-2896.92610198644
 20
774.709165335103
  0
VERTEX
  8
53
 62
7
  6
CONTINUOUS
 10
-2900.04389346616
 20
771.920253218277
  0
VERTEX
  8
53
 62
7
  6
CONTINUOUS
 10
-2904.72172264424
 20
765.044297733639
  0
VERTEX
  8
53
 62
7
  6
CONTINUOUS
 10
-2907.58864000134
 20
757.957311389404
  0
SEQEND
  0
POLYLINE
  8
53
 62
7
 66
1
 70
1
  0
VERTEX
  8
53
 62
7
  6
CONTINUOUS
 10
-3352.83436401646
 20
910.865173564174
  0
VERTEX
  8
53
 62
7
  6
CONTINUOUS
 10
-3338.83479988652
 20
841.101140482775
  0
VERTEX
  8
53
 62
7
  6
CONTINUOUS
 10
-3331.96969339616
 20
852.419467899456
  0
VERTEX
  8
53
 62
7
  6
CONTINUOUS
 10
-3328.68906647039
 20
862.58223890708
  0
VERTEX
  8
53
 62
7
  6
CONTINUOUS
 10
-3327.1637557102
 20
881.651513808504
  0
VERTEX
  8
53
 62
7
  6
CONTINUOUS
 10
-3329.31973257133
 20
901.035259916121
  0
VERTEX
  8
53
 62
7
  6
CONTINUOUS
 10
-3333.3866184558
 20
914.812087195994
  0
VERTEX
  8
53
 62
7
  6
CONTINUOUS
 10
-3337.58851448516
 20
920.436881418305
  0
VERTEX
  8
53
 62
7
  6
CONTINUOUS
 10
-3340.99150383588
 20
921.052137764094
  0
VERTEX
  8
53
 62
7
  6
CONTINUOUS
 10
-3346.78864285505
 20
919.484706244413
  0
VERTEX
  8
53
 62
7
  6
CONTINUOUS
 10
-3349.39718475577
 20
916.902527461776
  0
SEQEND
  0
POLYLINE
  8
53
 62
7
 66
1
 70
1
  0
VERTEX
  8
53
 62
7
  6
CONTINUOUS
 10
-3216.20266246265
 20
2707.02693720267
  0
VERTEX
  8
53
 62
7
  6
CONTINUOUS
 10
-3212.81621391454
 20
2697.98828517133
  0
VERTEX
  8
53
 62
7
  6
CONTINUOUS
 10
-3208.34285767311
 20
2692.384594863
  0
VERTEX
  8
53
 62
7
  6
CONTINUOUS
 10
-3202.76738918878
 20
2689.75056683486
  0
VERTEX
  8
53
 62
7
  6
CONTINUOUS
 10
-3203.83276594802
 20
2700.07765710185
  0
VERTEX
  8
53
 62
7
  6
CONTINUOUS
 10
-3204.33572095225
 20
2705.19250588942
  0
VERTEX
  8
53
 62
7
  6
CONTINUOUS
 10
-3206.68796062057
 20
2709.42146324764
  0
VERTEX
  8
53
 62
7
  6
CONTINUOUS
 10
-3210.97557724783
 20
2712.12976503759
  0
VERTEX
  8
53
 62
7
  6
CONTINUOUS
 10
-3214.96094629059
 20
2710.97588873664
  0
SEQEND
  0
POLYLINE
  8
53
 62
7
 66
1
 70
1
  0
VERTEX
  8
53
 62
7
  6
CONTINUOUS
 10
-3172.15282671276
 20
2730.88683056533
  0
VERTEX
  8
53
 62
7
  6
CONTINUOUS
 10
-3170.8877378962
 20
2726.07434757913
  0
VERTEX
  8
53
 62
7
  6
CONTINUOUS
 10
-3165.50103736306
 20
2717.98526325342
  0
VERTEX
  8
53
 62
7
  6
CONTINUOUS
 10
-3160.18054940713
 20
2714.1971520118
  0
VERTEX
  8
53
 62
7
  6
CONTINUOUS
 10
-3155.88884653204
 20
2714.75920955079
  0
VERTEX
  8
53
 62
7
  6
CONTINUOUS
 10
-3158.23749705789
 20
2724.9303266564
  0
VERTEX
  8
53
 62
7
  6
CONTINUOUS
 10
-3162.71796129456
 20
2729.69147677353
  0
VERTEX
  8
53
 62
7
  6
CONTINUOUS
 10
-3167.48812297827
 20
2733.11721892488
  0
VERTEX
  8
53
 62
7
  6
CONTINUOUS
 10
-3169.78302221714
 20
2733.81309167678
  0
VERTEX
  8
53
 62
7
  6
CONTINUOUS
 10
-3171.67820201594
 20
2732.61263079425
  0
SEQEND
  0
POLYLINE
  8
53
 62
7
 66
1
 70
1
  0
VERTEX
  8
53
 62
7
  6
CONTINUOUS
 10
-3186.53792641627
 20
2901.59246519112
  0
VERTEX
  8
53
 62
7
  6
CONTINUOUS
 10
-3160.56986196672
 20
2778.41948941024
  0
VERTEX
  8
53
 62
7
  6
CONTINUOUS
 10
-3142.77060326405
 20
2758.32241088539
  0
VERTEX
  8
53
 62
7
  6
CONTINUOUS
 10
-3138.32877427003
 20
2754.59164459121
  0
VERTEX
  8
53
 62
7
  6
CONTINUOUS
 10
-3136.68875424034
 20
2754.39696792678
  0
VERTEX
  8
53
 62
7
  6
CONTINUOUS
 10
-3134.67458137766
 20
2757.63626483413
  0
VERTEX
  8
53
 62
7
  6
CONTINUOUS
 10
-3134.78273303692
 20
2762.98962504981
  0
VERTEX
  8
53
 62
7
  6
CONTINUOUS
 10
-3142.35956800485
 20
2787.5197913007
  0
VERTEX
  8
53
 62
7
  6
CONTINUOUS
 10
-3148.79498683763
 20
2794.60872457036
  0
VERTEX
  8
53
 62
7
  6
CONTINUOUS
 10
-3152.73588637251
 20
2802.91664512994
  0
VERTEX
  8
53
 62
7
  6
CONTINUOUS
 10
-3159.29897070008
 20
2821.37139065105
  0
VERTEX
  8
53
 62
7
  6
CONTINUOUS
 10
-3159.61962407537
 20
2827.00743824396
  0
VERTEX
  8
53
 62
7
  6
CONTINUOUS
 10
-3161.17671636189
 20
2832.48330241873
  0
VERTEX
  8
53
 62
7
  6
CONTINUOUS
 10
-3163.91111012848
 20
2836.47202579412
  0
VERTEX
  8
53
 62
7
  6
CONTINUOUS
 10
-3165.63034498449
 20
2840.72620538398
  0
VERTEX
  8
53
 62
7
  6
CONTINUOUS
 10
-3166.47631122157
 20
2850.58255608149
  0
VERTEX
  8
53
 62
7
  6
CONTINUOUS
 10
-3171.15512944548
 20
2867.2394076615
  0
VERTEX
  8
53
 62
7
  6
CONTINUOUS
 10
-3182.63937287041
 20
2897.99416339422
  0
SEQEND
  0
POLYLINE
  8
53
 62
7
 66
1
 70
1
  0
VERTEX
  8
53
 62
7
  6
CONTINUOUS
 10
-1576.2181030472
 20
2295.09239121705
  0
VERTEX
  8
53
 62
7
  6
CONTINUOUS
 10
-1573.97875142001
 20
2279.38638413004
  0
VERTEX
  8
53
 62
7
  6
CONTINUOUS
 10
-1570.12311730106
 20
2268.51510048198
  0
VERTEX
  8
53
 62
7
  6
CONTINUOUS
 10
-1562.24718037
 20
2257.01958723742
  0
VERTEX
  8
53
 62
7
  6
CONTINUOUS
 10
-1557.60622193637
 20
2253.01441488967
  0
VERTEX
  8
53
 62
7
  6
CONTINUOUS
 10
-1551.24751535882
 20
2250.44595643298
  0
VERTEX
  8
53
 62
7
  6
CONTINUOUS
 10
-1544.76095451616
 20
2250.75149362726
  0
VERTEX
  8
53
 62
7
  6
CONTINUOUS
 10
-1539.07064932072
 20
2254.06622866396
  0
VERTEX
  8
53
 62
7
  6
CONTINUOUS
 10
-1528.91312366428
 20
2267.99558379751
  0
VERTEX
  8
53
 62
7
  6
CONTINUOUS
 10
-1525.0902835877
 20
2274.83013461289
  0
VERTEX
  8
53
 62
7
  6
CONTINUOUS
 10
-1517.2023120097
 20
2291.09959661584
  0
VERTEX
  8
53
 62
7
  6
CONTINUOUS
 10
-1511.85834806117
 20
2305.17924257584
  0
VERTEX
  8
53
 62
7
  6
CONTINUOUS
 10
-1496.76838287251
 20
2494.07627469678
  0
VERTEX
  8
53
 62
7
  6
CONTINUOUS
 10
-1505.9160347955
 20
2501.24867124548
  0
VERTEX
  8
53
 62
7
  6
CONTINUOUS
 10
-1513.20764778772
 20
2504.41834883869
  0
VERTEX
  8
53
 62
7
  6
CONTINUOUS
 10
-1519.63829798897
 20
2504.25409174265
  0
VERTEX
  8
53
 62
7
  6
CONTINUOUS
 10
-1524.38973165046
 20
2501.84672811899
  0
VERTEX
  8
53
 62
7
  6
CONTINUOUS
 10
-1530.22942824224
 20
2494.6726943124
  0
VERTEX
  8
53
 62
7
  6
CONTINUOUS
 10
-1535.97917292734
 20
2483.02966734983
  0
VERTEX
  8
53
 62
7
  6
CONTINUOUS
 10
-1543.02769103194
 20
2463.51862793276
  0
VERTEX
  8
53
 62
7
  6
CONTINUOUS
 10
-1548.33095518126
 20
2445.94975494093
  0
VERTEX
  8
53
 62
7
  6
CONTINUOUS
 10
-1560.73273923632
 20
2390.63375556228
  0
VERTEX
  8
53
 62
7
  6
CONTINUOUS
 10
-1570.22982616919
 20
2353.40255196508
  0
VERTEX
  8
53
 62
7
  6
CONTINUOUS
 10
-1573.4478885084
 20
2334.7642651263
  0
VERTEX
  8
53
 62
7
  6
CONTINUOUS
 10
-1575.98620007126
 20
2312.03590067833
  0
SEQEND
  0
POLYLINE
  8
53
 62
7
 66
1
 70
1
  0
VERTEX
  8
53
 62
7
  6
CONTINUOUS
 10
-1194.87870591242
 20
1489.00859155927
  0
VERTEX
  8
53
 62
7
  6
CONTINUOUS
 10
-1183.20061013386
 20
1463.80335175554
  0
VERTEX
  8
53
 62
7
  6
CONTINUOUS
 10
-1174.12693985687
 20
1447.90772673738
  0
VERTEX
  8
53
 62
7
  6
CONTINUOUS
 10
-1163.56076547163
 20
1434.9105213988
  0
VERTEX
  8
53
 62
7
  6
CONTINUOUS
 10
-1154.89099873899
 20
1427.498122514
  0
VERTEX
  8
53
 62
7
  6
CONTINUOUS
 10
-1146.58636429212
 20
1422.54517150664
  0
VERTEX
  8
53
 62
7
  6
CONTINUOUS
 10
-1141.41690163268
 20
1420.57352591001
  0
VERTEX
  8
53
 62
7
  6
CONTINUOUS
 10
-1136.14948517158
 20
1419.69238289087
  0
VERTEX
  8
53
 62
7
  6
CONTINUOUS
 10
-1131.38985693565
 20
1420.43963144808
  0
VERTEX
  8
53
 62
7
  6
CONTINUOUS
 10
-1128.54770967273
 20
1423.25252890547
  0
VERTEX
  8
53
 62
7
  6
CONTINUOUS
 10
-1126.06732037089
 20
1427.38749537463
  0
VERTEX
  8
53
 62
7
  6
CONTINUOUS
 10
-1124.03317166096
 20
1436.79306432075
  0
SEQEND
  0
POLYLINE
  8
54
 62
7
 66
1
 70
1
  0
VERTEX
  8
54
 62
7
  6
CONTINUOUS
 10
-3195.69983588325
 20
2614.90808876352
  0
VERTEX
  8
54
 62
7
  6
CONTINUOUS
 10
-3177.94324108488
 20
2600.85974895136
  0
VERTEX
  8
54
 62
7
  6
CONTINUOUS
 10
-3172.6123374185
 20
2603.11597071686
  0
VERTEX
  8
54
 62
7
  6
CONTINUOUS
 10
-3168.44057376846
 20
2607.35981178977
  0
VERTEX
  8
54
 62
7
  6
CONTINUOUS
 10
-3166.91213884513
 20
2611.22922039933
  0
VERTEX
  8
54
 62
7
  6
CONTINUOUS
 10
-3166.88829537739
 20
2613.77224646452
  0
VERTEX
  8
54
 62
7
  6
CONTINUOUS
 10
-3169.63122111947
 20
2617.20264476173
  0
VERTEX
  8
54
 62
7
  6
CONTINUOUS
 10
-3175.65112983886
 20
2620.01344413539
  0
VERTEX
  8
54
 62
7
  6
CONTINUOUS
 10
-3180.15661044632
 20
2620.09217248473
  0
VERTEX
  8
54
 62
7
  6
CONTINUOUS
 10
-3186.79609021189
 20
2618.52200613594
  0
SEQEND
  0
POLYLINE
  8
54
 62
7
 66
1
 70
1
  0
VERTEX
  8
54
 62
7
  6
CONTINUOUS
 10
-3320.69330814817
 20
2766.77641269458
  0
VERTEX
  8
54
 62
7
  6
CONTINUOUS
 10
-3307.9986058852
 20
2754.4437617174
  0
VERTEX
  8
54
 62
7
  6
CONTINUOUS
 10
-3303.9828795061
 20
2754.44643978613
  0
VERTEX
  8
54
 62
7
  6
CONTINUOUS
 10
-3297.62855472757
 20
2751.19835407572
  0
VERTEX
  8
54
 62
7
  6
CONTINUOUS
 10
-3292.43156984603
 20
2749.71050161114
  0
VERTEX
  8
54
 62
7
  6
CONTINUOUS
 10
-3288.2179182814
 20
2750.19842231183
  0
VERTEX
  8
54
 62
7
  6
CONTINUOUS
 10
-3287.23645608855
 20
2751.91971564018
  0
VERTEX
  8
54
 62
7
  6
CONTINUOUS
 10
-3288.52393131326
 20
2755.25202313502
  0
VERTEX
  8
54
 62
7
  6
CONTINUOUS
 10
-3293.75456639404
 20
2761.44173556874
  0
VERTEX
  8
54
 62
7
  6
CONTINUOUS
 10
-3299.14188269966
 20
2765.7049250988
  0
VERTEX
  8
54
 62
7
  6
CONTINUOUS
 10
-3304.23868383599
 20
2768.32539121036
  0
VERTEX
  8
54
 62
7
  6
CONTINUOUS
 10
-3311.39564730279
 20
2769.08503952475
  0
SEQEND
  0
POLYLINE
  8
1
 62
7
 66
1
 70
1
  0
VERTEX
  8
1
 62
7
  6
CONTINUOUS
 10
-3513.49743589744
 20
468.376068376068
  0
VERTEX
  8
1
 62
7
  6
CONTINUOUS
 10
-3492
 20
442.4
  0
VERTEX
  8
1
 62
7
  6
CONTINUOUS
 10
-3463.2
 20
431.2
  0
VERTEX
  8
1
 62
7
  6
CONTINUOUS
 10
-3443.32203389831
 20
431.2
  0
VERTEX
  8
1
 62
7
  6
CONTINUOUS
 10
-3410.53559322034
 20
493.6
  0
VERTEX
  8
1
 62
7
  6
CONTINUOUS
 10
-3405.6
 20
493.6
  0
VERTEX
  8
1
 62
7
  6
CONTINUOUS
 10
-3405.6
 20
484.8
  0
VERTEX
  8
1
 62
7
  6
CONTINUOUS
 10
-3409.6
 20
464.8
  0
VERTEX
  8
1
 62
7
  6
CONTINUOUS
 10
-3416
 20
445.6
  0
VERTEX
  8
1
 62
7
  6
CONTINUOUS
 10
-3360
 20
451.2
  0
VERTEX
  8
1
 62
7
  6
CONTINUOUS
 10
-3344.8
 20
451.2
  0
VERTEX
  8
1
 62
7
  6
CONTINUOUS
 10
-3339.52
 20
445.92
  0
VERTEX
  8
1
 62
7
  6
CONTINUOUS
 10
-3327.70909090909
 20
404.581818181819
  0
VERTEX
  8
1
 62
7
  6
CONTINUOUS
 10
-3283.15223880597
 20
371.164179104478
  0
VERTEX
  8
1
 62
7
  6
CONTINUOUS
 10
-3264.8
 20
368
  0
VERTEX
  8
1
 62
7
  6
CONTINUOUS
 10
-3245.6
 20
376
  0
VERTEX
  8
1
 62
7
  6
CONTINUOUS
 10
-3228
 20
400.8
  0
VERTEX
  8
1
 62
7
  6
CONTINUOUS
 10
-3204
 20
457.527272727273
  0
VERTEX
  8
1
 62
7
  6
CONTINUOUS
 10
-3204
 20
502.800000000002
  0
VERTEX
  8
1
 62
7
  6
CONTINUOUS
 10
-3199.46666666667
 20
518.666666666667
  0
VERTEX
  8
1
 62
7
  6
CONTINUOUS
 10
-3193.6
 20
530.4
  0
VERTEX
  8
1
 62
7
  6
CONTINUOUS
 10
-3187.2
 20
536.8
  0
VERTEX
  8
1
 62
7
  6
CONTINUOUS
 10
-3179.63636363636
 20
541.527272727273
  0
VERTEX
  8
1
 62
7
  6
CONTINUOUS
 10
-3168
 20
543.466666666667
  0
VERTEX
  8
1
 62
7
  6
CONTINUOUS
 10
-3162.74285714286
 20
541.714285714286
  0
VERTEX
  8
1
 62
7
  6
CONTINUOUS
 10
-3157.1
 20
537.2
  0
VERTEX
  8
1
 62
7
  6
CONTINUOUS
 10
-3153.37142857143
 20
532.228571428572
  0
VERTEX
  8
1
 62
7
  6
CONTINUOUS
 10
-3149.87826086957
 20
523.495652173913
  0
VERTEX
  8
1
 62
7
  6
CONTINUOUS
 10
-3136.8
 20
472
  0
VERTEX
  8
1
 62
7
  6
CONTINUOUS
 10
-3131.31428571429
 20
463.771428571429
  0
VERTEX
  8
1
 62
7
  6
CONTINUOUS
 10
-3081.6
 20
447.2
  0
VERTEX
  8
1
 62
7
  6
CONTINUOUS
 10
-3033.42089552239
 20
427.928358208955
  0
VERTEX
  8
1
 62
7
  6
CONTINUOUS
 10
-3001.6
 20
425.6
  0
VERTEX
  8
1
 62
7
  6
CONTINUOUS
 10
-2992
 20
427.2
  0
VERTEX
  8
1
 62
7
  6
CONTINUOUS
 10
-2983.2
 20
466.4
  0
VERTEX
  8
1
 62
7
  6
CONTINUOUS
 10
-2978.06896551724
 20
532.248275862069
  0
VERTEX
  8
1
 62
7
  6
CONTINUOUS
 10
-2968.71578947368
 20
607.073684210526
  0
VERTEX
  8
1
 62
7
  6
CONTINUOUS
 10
-2962.4
 20
633.6
  0
VERTEX
  8
1
 62
7
  6
CONTINUOUS
 10
-2948.8
 20
674.4
  0
VERTEX
  8
1
 62
7
  6
CONTINUOUS
 10
-2938.10909090909
 20
699.345454545455
  0
VERTEX
  8
1
 62
7
  6
CONTINUOUS
 10
-2919.65714285714
 20
733.942857142857
  0
VERTEX
  8
1
 62
7
  6
CONTINUOUS
 10
-2908.8
 20
744.8
  0
VERTEX
  8
1
 62
7
  6
CONTINUOUS
 10
-2894.48421052632
 20
754.905263157895
  0
VERTEX
  8
1
 62
7
  6
CONTINUOUS
 10
-2870.61052631579
 20
762.863157894737
  0
VERTEX
  8
1
 62
7
  6
CONTINUOUS
 10
-2868
 20
772
  0
VERTEX
  8
1
 62
7
  6
CONTINUOUS
 10
-2866.4
 20
772
  0
VERTEX
  8
1
 62
7
  6
CONTINUOUS
 10
-2865.74082397004
 20
760.794007490637
  0
VERTEX
  8
1
 62
7
  6
CONTINUOUS
 10
-2835.77142857143
 20
751.428571428571
  0
VERTEX
  8
1
 62
7
  6
CONTINUOUS
 10
-2818.05714285715
 20
744.342857142858
  0
VERTEX
  8
1
 62
7
  6
CONTINUOUS
 10
-2792.15412844037
 20
729.952293577982
  0
VERTEX
  8
1
 62
7
  6
CONTINUOUS
 10
-2674.28061051442
 20
646.396382136801
  0
VERTEX
  8
1
 62
7
  6
CONTINUOUS
 10
-2626.18754098361
 20
644.939016393443
  0
VERTEX
  8
1
 62
7
  6
CONTINUOUS
 10
-2500.8
 20
656.8
  0
VERTEX
  8
1
 62
7
  6
CONTINUOUS
 10
-2420
 20
660
  0
VERTEX
  8
1
 62
7
  6
CONTINUOUS
 10
-2361.6
 20
660
  0
VERTEX
  8
1
 62
7
  6
CONTINUOUS
 10
-2217.47924528302
 20
680.920754716981
  0
VERTEX
  8
1
 62
7
  6
CONTINUOUS
 10
-2210.4
 20
688
  0
VERTEX
  8
1
 62
7
  6
CONTINUOUS
 10
-2204.45714285714
 20
694.857142857143
  0
VERTEX
  8
1
 62
7
  6
CONTINUOUS
 10
-2193.33333333333
 20
722.666666666667
  0
VERTEX
  8
1
 62
7
  6
CONTINUOUS
 10
-2180
 20
736
  0
VERTEX
  8
1
 62
7
  6
CONTINUOUS
 10
-2168.8
 20
741.6
  0
VERTEX
  8
1
 62
7
  6
CONTINUOUS
 10
-2160.4
 20
744
  0
VERTEX
  8
1
 62
7
  6
CONTINUOUS
 10
-2154.8
 20
744
  0
VERTEX
  8
1
 62
7
  6
CONTINUOUS
 10
-2146.74285714286
 20
738.628571428571
  0
VERTEX
  8
1
 62
7
  6
CONTINUOUS
 10
-2139.53548387097
 20
727.096774193549
  0
VERTEX
  8
1
 62
7
  6
CONTINUOUS
 10
-2135.69230769231
 20
673.292307692308
  0
VERTEX
  8
1
 62
7
  6
CONTINUOUS
 10
-2101.86666666667
 20
639.466666666667
  0
VERTEX
  8
1
 62
7
  6
CONTINUOUS
 10
-2085.45641025641
 20
618.133333333334
  0
VERTEX
  8
1
 62
7
  6
CONTINUOUS
 10
-2052
 20
556
  0
VERTEX
  8
1
 62
7
  6
CONTINUOUS
 10
-2021.97577255871
 20
512.543881334981
  0
VERTEX
  8
1
 62
7
  6
CONTINUOUS
 10
-1987.2
 20
494.4
  0
VERTEX
  8
1
 62
7
  6
CONTINUOUS
 10
-1965.6
 20
473.6
  0
VERTEX
  8
1
 62
7
  6
CONTINUOUS
 10
-1956
 20
471.2
  0
VERTEX
  8
1
 62
7
  6
CONTINUOUS
 10
-1910.4
 20
485.6
  0
VERTEX
  8
1
 62
7
  6
CONTINUOUS
 10
-1894.4
 20
495.2
  0
VERTEX
  8
1
 62
7
  6
CONTINUOUS
 10
-1881.6
 20
513.6
  0
VERTEX
  8
1
 62
7
  6
CONTINUOUS
 10
-1870.61398176292
 20
545.337386018237
  0
VERTEX
  8
1
 62
7
  6
CONTINUOUS
 10
-1876.8
 20
584
  0
VERTEX
  8
1
 62
7
  6
CONTINUOUS
 10
-1876.8
 20
607.2
  0
VERTEX
  8
1
 62
7
  6
CONTINUOUS
 10
-1873.6
 20
623.2
  0
VERTEX
  8
1
 62
7
  6
CONTINUOUS
 10
-1865.6
 20
639.2
  0
VERTEX
  8
1
 62
7
  6
CONTINUOUS
 10
-1859.2
 20
648.8
  0
VERTEX
  8
1
 62
7
  6
CONTINUOUS
 10
-1853.06666666667
 20
654.933333333333
  0
VERTEX
  8
1
 62
7
  6
CONTINUOUS
 10
-1849.6
 20
668.8
  0
VERTEX
  8
1
 62
7
  6
CONTINUOUS
 10
-1847.54285714286
 20
671.885714285714
  0
VERTEX
  8
1
 62
7
  6
CONTINUOUS
 10
-1845.6
 20
668
  0
VERTEX
  8
1
 62
7
  6
CONTINUOUS
 10
-1842.87058823529
 20
655.717647058824
  0
VERTEX
  8
1
 62
7
  6
CONTINUOUS
 10
-1828
 20
652
  0
VERTEX
  8
1
 62
7
  6
CONTINUOUS
 10
-1818.93333333333
 20
647.466666666667
  0
VERTEX
  8
1
 62
7
  6
CONTINUOUS
 10
-1759.2
 20
600.8
  0
VERTEX
  8
1
 62
7
  6
CONTINUOUS
 10
-1735.2
 20
606.4
  0
VERTEX
  8
1
 62
7
  6
CONTINUOUS
 10
-1716.8
 20
618.4
  0
VERTEX
  8
1
 62
7
  6
CONTINUOUS
 10
-1704.8
 20
632.8
  0
VERTEX
  8
1
 62
7
  6
CONTINUOUS
 10
-1695.2
 20
662.4
  0
VERTEX
  8
1
 62
7
  6
CONTINUOUS
 10
-1695.2
 20
682.4
  0
VERTEX
  8
1
 62
7
  6
CONTINUOUS
 10
-1705.55447154472
 20
716.052032520325
  0
VERTEX
  8
1
 62
7
  6
CONTINUOUS
 10
-1706.44897959184
 20
746.465306122449
  0
VERTEX
  8
1
 62
7
  6
CONTINUOUS
 10
-1702.47111111111
 20
806.133333333333
  0
VERTEX
  8
1
 62
7
  6
CONTINUOUS
 10
-1707.2
 20
841.6
  0
VERTEX
  8
1
 62
7
  6
CONTINUOUS
 10
-1708.99512195122
 20
869.424390243903
  0
VERTEX
  8
1
 62
7
  6
CONTINUOUS
 10
-1707.77142857143
 20
875.542857142857
  0
VERTEX
  8
1
 62
7
  6
CONTINUOUS
 10
-1699.52941176471
 20
887.905882352942
  0
VERTEX
  8
1
 62
7
  6
CONTINUOUS
 10
-1627.37959183673
 20
963.853061224489
  0
VERTEX
  8
1
 62
7
  6
CONTINUOUS
 10
-1616.8
 20
978.4
  0
VERTEX
  8
1
 62
7
  6
CONTINUOUS
 10
-1612.8
 20
978.4
  0
VERTEX
  8
1
 62
7
  6
CONTINUOUS
 10
-1546.08695652174
 20
997.460869565217
  0
VERTEX
  8
1
 62
7
  6
CONTINUOUS
 10
-1517.6
 20
1012.8
  0
VERTEX
  8
1
 62
7
  6
CONTINUOUS
 10
-1502.4
 20
1027.2
  0
VERTEX
  8
1
 62
7
  6
CONTINUOUS
 10
-1485.45230769231
 20
1054.19076923077
  0
VERTEX
  8
1
 62
7
  6
CONTINUOUS
 10
-1471.54782608696
 20
1109.80869565217
  0
VERTEX
  8
1
 62
7
  6
CONTINUOUS
 10
-1462.6
 20
1116.2
  0
VERTEX
  8
1
 62
7
  6
CONTINUOUS
 10
-1450.60594059406
 20
1120.19801980198
  0
VERTEX
  8
1
 62
7
  6
CONTINUOUS
 10
-1352.8
 20
1119.2
  0
VERTEX
  8
1
 62
7
  6
CONTINUOUS
 10
-1336.8
 20
1128.8
  0
VERTEX
  8
1
 62
7
  6
CONTINUOUS
 10
-1294.07567567568
 20
1143.58918918919
  0
VERTEX
  8
1
 62
7
  6
CONTINUOUS
 10
-1224
 20
1153.6
  0
VERTEX
  8
1
 62
7
  6
CONTINUOUS
 10
-1197.33333333333
 20
1153.6
  0
VERTEX
  8
1
 62
7
  6
CONTINUOUS
 10
-1171.92380952381
 20
1146.97142857143
  0
VERTEX
  8
1
 62
7
  6
CONTINUOUS
 10
-1148.56470588235
 20
1138.21176470588
  0
VERTEX
  8
1
 62
7
  6
CONTINUOUS
 10
-1109.34736842105
 20
1120.63157894737
  0
VERTEX
  8
1
 62
7
  6
CONTINUOUS
 10
-1054.4
 20
1084
  0
VERTEX
  8
1
 62
7
  6
CONTINUOUS
 10
-1053.6
 20
1079.2
  0
VERTEX
  8
1
 62
7
  6
CONTINUOUS
 10
-1029.6
 20
1072
  0
VERTEX
  8
1
 62
7
  6
CONTINUOUS
 10
-1018.4
 20
1088
  0
VERTEX
  8
1
 62
7
  6
CONTINUOUS
 10
-1005.6
 20
1138.4
  0
VERTEX
  8
1
 62
7
  6
CONTINUOUS
 10
-1008.8
 20
1162.4
  0
VERTEX
  8
1
 62
7
  6
CONTINUOUS
 10
-1070.23769507803
 20
1256.2631452581
  0
VERTEX
  8
1
 62
7
  6
CONTINUOUS
 10
-1087.69565217391
 20
1314.00869565217
  0
VERTEX
  8
1
 62
7
  6
CONTINUOUS
 10
-1118.24
 20
1353.28
  0
VERTEX
  8
1
 62
7
  6
CONTINUOUS
 10
-1128.2
 20
1373.2
  0
VERTEX
  8
1
 62
7
  6
CONTINUOUS
 10
-1135.2
 20
1392.8
  0
VERTEX
  8
1
 62
7
  6
CONTINUOUS
 10
-1141.12
 20
1422.4
  0
VERTEX
  8
1
 62
7
  6
CONTINUOUS
 10
-1158.94339622641
 20
1442.20377358491
  0
VERTEX
  8
1
 62
7
  6
CONTINUOUS
 10
-1168
 20
1457.6
  0
VERTEX
  8
1
 62
7
  6
CONTINUOUS
 10
-1187.01395348837
 20
1471.18139534884
  0
VERTEX
  8
1
 62
7
  6
CONTINUOUS
 10
-1193.20519480519
 20
1485.11168831169
  0
VERTEX
  8
1
 62
7
  6
CONTINUOUS
 10
-1191.90909090909
 20
1507.14545454545
  0
VERTEX
  8
1
 62
7
  6
CONTINUOUS
 10
-1187.23305785124
 20
1518.05619834711
  0
VERTEX
  8
1
 62
7
  6
CONTINUOUS
 10
-1148
 20
1572.8
  0
VERTEX
  8
1
 62
7
  6
CONTINUOUS
 10
-1174.4
 20
1599.2
  0
VERTEX
  8
1
 62
7
  6
CONTINUOUS
 10
-1189.6
 20
1598.4
  0
VERTEX
  8
1
 62
7
  6
CONTINUOUS
 10
-1202.77647058824
 20
1594.63529411765
  0
VERTEX
  8
1
 62
7
  6
CONTINUOUS
 10
-1254.97142857143
 20
1590.28571428571
  0
VERTEX
  8
1
 62
7
  6
CONTINUOUS
 10
-1269.6
 20
1591.2
  0
VERTEX
  8
1
 62
7
  6
CONTINUOUS
 10
-1277.45454545455
 20
1594.69090909091
  0
VERTEX
  8
1
 62
7
  6
CONTINUOUS
 10
-1273.5
 20
1602.6
  0
VERTEX
  8
1
 62
7
  6
CONTINUOUS
 10
-1266.07228915663
 20
1605.57108433735
  0
VERTEX
  8
1
 62
7
  6
CONTINUOUS
 10
-1227.19032258065
 20
1607.95161290323
  0
VERTEX
  8
1
 62
7
  6
CONTINUOUS
 10
-1229.65333333333
 20
1620.26666666667
  0
VERTEX
  8
1
 62
7
  6
CONTINUOUS
 10
-1228.8
 20
1628.8
  0
VERTEX
  8
1
 62
7
  6
CONTINUOUS
 10
-1226.18947368421
 20
1635.32631578947
  0
VERTEX
  8
1
 62
7
  6
CONTINUOUS
 10
-1220
 20
1642.4
  0
VERTEX
  8
1
 62
7
  6
CONTINUOUS
 10
-1211.04
 20
1650.08
  0
VERTEX
  8
1
 62
7
  6
CONTINUOUS
 10
-1197.82857142857
 20
1656.68571428571
  0
VERTEX
  8
1
 62
7
  6
CONTINUOUS
 10
-1184
 20
1659.2
  0
VERTEX
  8
1
 62
7
  6
CONTINUOUS
 10
-1169.07826086957
 20
1660.34782608696
  0
VERTEX
  8
1
 62
7
  6
CONTINUOUS
 10
-1122.67936507937
 20
1655.70793650794
  0
VERTEX
  8
1
 62
7
  6
CONTINUOUS
 10
-1108
 20
1648.8
  0
VERTEX
  8
1
 62
7
  6
CONTINUOUS
 10
-1091.37319587629
 20
1648.00824742268
  0
VERTEX
  8
1
 62
7
  6
CONTINUOUS
 10
-1081.6
 20
1665.6
  0
VERTEX
  8
1
 62
7
  6
CONTINUOUS
 10
-1080.41739130435
 20
1665.6
  0
VERTEX
  8
1
 62
7
  6
CONTINUOUS
 10
-1076.8
 20
1644.8
  0
VERTEX
  8
1
 62
7
  6
CONTINUOUS
 10
-1066.4
 20
1628.8
  0
VERTEX
  8
1
 62
7
  6
CONTINUOUS
 10
-1028.79920713578
 20
1618.22477700694
  0
VERTEX
  8
1
 62
7
  6
CONTINUOUS
 10
-948
 20
1630.4
  0
VERTEX
  8
1
 62
7
  6
CONTINUOUS
 10
-913.6
 20
1642.4
  0
VERTEX
  8
1
 62
7
  6
CONTINUOUS
 10
-879.2
 20
1664
  0
VERTEX
  8
1
 62
7
  6
CONTINUOUS
 10
-835.2
 20
1713.6
  0
VERTEX
  8
1
 62
7
  6
CONTINUOUS
 10
-804
 20
1784
  0
VERTEX
  8
1
 62
7
  6
CONTINUOUS
 10
-800.8
 20
1817.6
  0
VERTEX
  8
1
 62
7
  6
CONTINUOUS
 10
-805.6
 20
1833.6
  0
VERTEX
  8
1
 62
7
  6
CONTINUOUS
 10
-831.512933753943
 20
1875.51798107256
  0
VERTEX
  8
1
 62
7
  6
CONTINUOUS
 10
-889.362580645162
 20
1892.0464516129
  0
VERTEX
  8
1
 62
7
  6
CONTINUOUS
 10
-950.4
 20
1928
  0
VERTEX
  8
1
 62
7
  6
CONTINUOUS
 10
-992.818604651163
 20
1956.27906976744
  0
VERTEX
  8
1
 62
7
  6
CONTINUOUS
 10
-1027.2
 20
1968
  0
VERTEX
  8
1
 62
7
  6
CONTINUOUS
 10
-1073.82857142855
 20
1992.6857142857
  0
VERTEX
  8
1
 62
7
  6
CONTINUOUS
 10
-1102.70769230769
 20
2011.93846153846
  0
VERTEX
  8
1
 62
7
  6
CONTINUOUS
 10
-1136.11428571429
 20
2016.11428571429
  0
VERTEX
  8
1
 62
7
  6
CONTINUOUS
 10
-1156.90980392158
 20
2022.35294117648
  0
VERTEX
  8
1
 62
7
  6
CONTINUOUS
 10
-1183.45
 20
2036.2
  0
VERTEX
  8
1
 62
7
  6
CONTINUOUS
 10
-1191.2
 20
2042.4
  0
VERTEX
  8
1
 62
7
  6
CONTINUOUS
 10
-1197.92
 20
2050.24
  0
VERTEX
  8
1
 62
7
  6
CONTINUOUS
 10
-1204.26666666667
 20
2062.93333333333
  0
VERTEX
  8
1
 62
7
  6
CONTINUOUS
 10
-1207.57647058824
 20
2074.51764705882
  0
VERTEX
  8
1
 62
7
  6
CONTINUOUS
 10
-1218.4
 20
2158.4
  0
VERTEX
  8
1
 62
7
  6
CONTINUOUS
 10
-1228.8
 20
2182.4
  0
VERTEX
  8
1
 62
7
  6
CONTINUOUS
 10
-1242.4
 20
2196.8
  0
VERTEX
  8
1
 62
7
  6
CONTINUOUS
 10
-1319.5875
 20
2230.925
  0
VERTEX
  8
1
 62
7
  6
CONTINUOUS
 10
-1328.8
 20
2237.06666666667
  0
VERTEX
  8
1
 62
7
  6
CONTINUOUS
 10
-1335.90588235294
 20
2246.54117647059
  0
VERTEX
  8
1
 62
7
  6
CONTINUOUS
 10
-1363.2
 20
2309.6
  0
VERTEX
  8
1
 62
7
  6
CONTINUOUS
 10
-1373.6
 20
2321.6
  0
VERTEX
  8
1
 62
7
  6
CONTINUOUS
 10
-1386.4
 20
2327.2
  0
VERTEX
  8
1
 62
7
  6
CONTINUOUS
 10
-1400.8
 20
2327.2
  0
VERTEX
  8
1
 62
7
  6
CONTINUOUS
 10
-1414.19178082192
 20
2321.01917808219
  0
VERTEX
  8
1
 62
7
  6
CONTINUOUS
 10
-1487.52
 20
2261.44
  0
VERTEX
  8
1
 62
7
  6
CONTINUOUS
 10
-1497.96363636364
 20
2256.21818181818
  0
VERTEX
  8
1
 62
7
  6
CONTINUOUS
 10
-1526.69803921569
 20
2254.00784313725
  0
VERTEX
  8
1
 62
7
  6
CONTINUOUS
 10
-1527.31685393258
 20
2251.53258426966
  0
VERTEX
  8
1
 62
7
  6
CONTINUOUS
 10
-1544.14159292035
 20
2263.04424778761
  0
VERTEX
  8
1
 62
7
  6
CONTINUOUS
 10
-1547.2
 20
2271.2
  0
VERTEX
  8
1
 62
7
  6
CONTINUOUS
 10
-1547.2
 20
2276
  0
VERTEX
  8
1
 62
7
  6
CONTINUOUS
 10
-1544.51428571429
 20
2281.37142857143
  0
VERTEX
  8
1
 62
7
  6
CONTINUOUS
 10
-1512.8
 20
2320.8
  0
VERTEX
  8
1
 62
7
  6
CONTINUOUS
 10
-1505.6
 20
2346.4
  0
VERTEX
  8
1
 62
7
  6
CONTINUOUS
 10
-1505.6
 20
2368.8
  0
VERTEX
  8
1
 62
7
  6
CONTINUOUS
 10
-1525.24444444444
 20
2427.73333333333
  0
VERTEX
  8
1
 62
7
  6
CONTINUOUS
 10
-1522.99130434783
 20
2441.25217391304
  0
VERTEX
  8
1
 62
7
  6
CONTINUOUS
 10
-1489.6
 20
2488
  0
VERTEX
  8
1
 62
7
  6
CONTINUOUS
 10
-1488.8
 20
2500
  0
VERTEX
  8
1
 62
7
  6
CONTINUOUS
 10
-1496
 20
2514.4
  0
VERTEX
  8
1
 62
7
  6
CONTINUOUS
 10
-1528
 20
2548.8
  0
VERTEX
  8
1
 62
7
  6
CONTINUOUS
 10
-1552.8
 20
2567.2
  0
VERTEX
  8
1
 62
7
  6
CONTINUOUS
 10
-1583.2
 20
2580.8
  0
VERTEX
  8
1
 62
7
  6
CONTINUOUS
 10
-1597.6
 20
2580.8
  0
VERTEX
  8
1
 62
7
  6
CONTINUOUS
 10
-1618.4
 20
2572
  0
VERTEX
  8
1
 62
7
  6
CONTINUOUS
 10
-1649.6
 20
2544
  0
VERTEX
  8
1
 62
7
  6
CONTINUOUS
 10
-1716.7920661157
 20
2438.2347107438
  0
VERTEX
  8
1
 62
7
  6
CONTINUOUS
 10
-1747
 20
2405.4
  0
VERTEX
  8
1
 62
7
  6
CONTINUOUS
 10
-1753.6
 20
2394.4
  0
VERTEX
  8
1
 62
7
  6
CONTINUOUS
 10
-1759.2
 20
2383.2
  0
VERTEX
  8
1
 62
7
  6
CONTINUOUS
 10
-1769.67272727273
 20
2367.49090909091
  0
VERTEX
  8
1
 62
7
  6
CONTINUOUS
 10
-1774.944
 20
2369.248
  0
VERTEX
  8
1
 62
7
  6
CONTINUOUS
 10
-1761.29585947302
 20
2399.69385194479
  0
VERTEX
  8
1
 62
7
  6
CONTINUOUS
 10
-1770.4
 20
2435.2
  0
VERTEX
  8
1
 62
7
  6
CONTINUOUS
 10
-1799.2
 20
2482.4
  0
VERTEX
  8
1
 62
7
  6
CONTINUOUS
 10
-1850.81538461538
 20
2536.55384615385
  0
VERTEX
  8
1
 62
7
  6
CONTINUOUS
 10
-1865.72307692308
 20
2556.43076923077
  0
VERTEX
  8
1
 62
7
  6
CONTINUOUS
 10
-1872.24615384615
 20
2579.26153846154
  0
VERTEX
  8
1
 62
7
  6
CONTINUOUS
 10
-1873.6
 20
2592.8
  0
VERTEX
  8
1
 62
7
  6
CONTINUOUS
 10
-1874.4
 20
2667.2
  0
VERTEX
  8
1
 62
7
  6
CONTINUOUS
 10
-1889.6
 20
2681.6
  0
VERTEX
  8
1
 62
7
  6
CONTINUOUS
 10
-1903.2
 20
2683.2
  0
VERTEX
  8
1
 62
7
  6
CONTINUOUS
 10
-1948.8
 20
2664
  0
VERTEX
  8
1
 62
7
  6
CONTINUOUS
 10
-1975.95789473684
 20
2647.7052631579
  0
VERTEX
  8
1
 62
7
  6
CONTINUOUS
 10
-1988.10212765957
 20
2559.65957446808
  0
VERTEX
  8
1
 62
7
  6
CONTINUOUS
 10
-1994
 20
2540
  0
VERTEX
  8
1
 62
7
  6
CONTINUOUS
 10
-2002.4
 20
2523.2
  0
VERTEX
  8
1
 62
7
  6
CONTINUOUS
 10
-2026.84710578842
 20
2481.63992015968
  0
VERTEX
  8
1
 62
7
  6
CONTINUOUS
 10
-2041.06666666667
 20
2512.26666666667
  0
VERTEX
  8
1
 62
7
  6
CONTINUOUS
 10
-2063.80487804878
 20
2569.11219512195
  0
VERTEX
  8
1
 62
7
  6
CONTINUOUS
 10
-2069.6
 20
2570.4
  0
VERTEX
  8
1
 62
7
  6
CONTINUOUS
 10
-2118.4
 20
2560
  0
VERTEX
  8
1
 62
7
  6
CONTINUOUS
 10
-2128.8
 20
2545.6
  0
VERTEX
  8
1
 62
7
  6
CONTINUOUS
 10
-2132.2
 20
2545.6
  0
VERTEX
  8
1
 62
7
  6
CONTINUOUS
 10
-2139.2
 20
2528.8
  0
VERTEX
  8
1
 62
7
  6
CONTINUOUS
 10
-2143.4
 20
2523.2
  0
VERTEX
  8
1
 62
7
  6
CONTINUOUS
 10
-2146.4
 20
2523.2
  0
VERTEX
  8
1
 62
7
  6
CONTINUOUS
 10
-2151.2
 20
2528
  0
VERTEX
  8
1
 62
7
  6
CONTINUOUS
 10
-2165.28695652174
 20
2546.78260869565
  0
VERTEX
  8
1
 62
7
  6
CONTINUOUS
 10
-2256.51450980392
 20
2573.90431372549
  0
VERTEX
  8
1
 62
7
  6
CONTINUOUS
 10
-2416
 20
2636.8
  0
VERTEX
  8
1
 62
7
  6
CONTINUOUS
 10
-2432
 20
2642.4
  0
VERTEX
  8
1
 62
7
  6
CONTINUOUS
 10
-2465.68275862069
 20
2658.78620689655
  0
VERTEX
  8
1
 62
7
  6
CONTINUOUS
 10
-2506.7
 20
2691.6
  0
VERTEX
  8
1
 62
7
  6
CONTINUOUS
 10
-2511.2
 20
2693.6
  0
VERTEX
  8
1
 62
7
  6
CONTINUOUS
 10
-2548
 20
2693.6
  0
VERTEX
  8
1
 62
7
  6
CONTINUOUS
 10
-2636.08669950739
 20
2668.57536945813
  0
VERTEX
  8
1
 62
7
  6
CONTINUOUS
 10
-2710.3914893617
 20
2634.28085106383
  0
VERTEX
  8
1
 62
7
  6
CONTINUOUS
 10
-2733.6
 20
2636
  0
VERTEX
  8
1
 62
7
  6
CONTINUOUS
 10
-2751.2
 20
2636
  0
VERTEX
  8
1
 62
7
  6
CONTINUOUS
 10
-2825.03092783505
 20
2643.69072164948
  0
VERTEX
  8
1
 62
7
  6
CONTINUOUS
 10
-2832
 20
2641.6
  0
VERTEX
  8
1
 62
7
  6
CONTINUOUS
 10
-2833.06666666667
 20
2639.46666666667
  0
VERTEX
  8
1
 62
7
  6
CONTINUOUS
 10
-2834.4
 20
2640.8
  0
VERTEX
  8
1
 62
7
  6
CONTINUOUS
 10
-2834.4
 20
2648
  0
VERTEX
  8
1
 62
7
  6
CONTINUOUS
 10
-2845.5724137931
 20
2647.25517241379
  0
VERTEX
  8
1
 62
7
  6
CONTINUOUS
 10
-2848
 20
2642.4
  0
VERTEX
  8
1
 62
7
  6
CONTINUOUS
 10
-2848.8
 20
2642.4
  0
VERTEX
  8
1
 62
7
  6
CONTINUOUS
 10
-2848.8
 20
2650.4
  0
VERTEX
  8
1
 62
7
  6
CONTINUOUS
 10
-2871.78181818182
 20
2673.38181818182
  0
VERTEX
  8
1
 62
7
  6
CONTINUOUS
 10
-2932
 20
2743.2
  0
VERTEX
  8
1
 62
7
  6
CONTINUOUS
 10
-2945.6
 20
2748.8
  0
VERTEX
  8
1
 62
7
  6
CONTINUOUS
 10
-2998.15384615385
 20
2737.6
  0
VERTEX
  8
1
 62
7
  6
CONTINUOUS
 10
-3013.2
 20
2737.6
  0
VERTEX
  8
1
 62
7
  6
CONTINUOUS
 10
-3026.89230769231
 20
2743.07692307692
  0
VERTEX
  8
1
 62
7
  6
CONTINUOUS
 10
-3041.2
 20
2755
  0
VERTEX
  8
1
 62
7
  6
CONTINUOUS
 10
-3054.48
 20
2774.92
  0
VERTEX
  8
1
 62
7
  6
CONTINUOUS
 10
-3063.63870967742
 20
2803.92258064516
  0
VERTEX
  8
1
 62
7
  6
CONTINUOUS
 10
-3075.2
 20
2857.6
  0
VERTEX
  8
1
 62
7
  6
CONTINUOUS
 10
-3119.2
 20
2919.2
  0
VERTEX
  8
1
 62
7
  6
CONTINUOUS
 10
-3149.50857142857
 20
2917.64571428571
  0
VERTEX
  8
1
 62
7
  6
CONTINUOUS
 10
-3194.4
 20
2895.2
  0
VERTEX
  8
1
 62
7
  6
CONTINUOUS
 10
-3184.8
 20
2861.6
  0
VERTEX
  8
1
 62
7
  6
CONTINUOUS
 10
-3164.12307692308
 20
2842.64615384615
  0
VERTEX
  8
1
 62
7
  6
CONTINUOUS
 10
-3160.8
 20
2836
  0
VERTEX
  8
1
 62
7
  6
CONTINUOUS
 10
-3160.8
 20
2825
  0
VERTEX
  8
1
 62
7
  6
CONTINUOUS
 10
-3147.072
 20
2794.112
  0
VERTEX
  8
1
 62
7
  6
CONTINUOUS
 10
-3135.2
 20
2756.8
  0
VERTEX
  8
1
 62
7
  6
CONTINUOUS
 10
-3135.2
 20
2752
  0
VERTEX
  8
1
 62
7
  6
CONTINUOUS
 10
-3136.14545454545
 20
2752
  0
VERTEX
  8
1
 62
7
  6
CONTINUOUS
 10
-3144.68571428571
 20
2767.65714285714
  0
VERTEX
  8
1
 62
7
  6
CONTINUOUS
 10
-3149.26315789474
 20
2781.38947368421
  0
VERTEX
  8
1
 62
7
  6
CONTINUOUS
 10
-3160
 20
2800
  0
VERTEX
  8
1
 62
7
  6
CONTINUOUS
 10
-3181.38181818182
 20
2842.76363636364
  0
VERTEX
  8
1
 62
7
  6
CONTINUOUS
 10
-3205.6
 20
2876.8
  0
VERTEX
  8
1
 62
7
  6
CONTINUOUS
 10
-3239.2
 20
2901.6
  0
VERTEX
  8
1
 62
7
  6
CONTINUOUS
 10
-3260
 20
2908.8
  0
VERTEX
  8
1
 62
7
  6
CONTINUOUS
 10
-3302.4
 20
2905.6
  0
VERTEX
  8
1
 62
7
  6
CONTINUOUS
 10
-3329.96201117318
 20
2897.7251396648
  0
VERTEX
  8
1
 62
7
  6
CONTINUOUS
 10
-3320.8
 20
2783.2
  0
VERTEX
  8
1
 62
7
  6
CONTINUOUS
 10
-3318.4
 20
2773.6
  0
VERTEX
  8
1
 62
7
  6
CONTINUOUS
 10
-3309.86666666667
 20
2756.53333333333
  0
VERTEX
  8
1
 62
7
  6
CONTINUOUS
 10
-3308.47096774194
 20
2741.18064516129
  0
VERTEX
  8
1
 62
7
  6
CONTINUOUS
 10
-3315.2
 20
2696
  0
VERTEX
  8
1
 62
7
  6
CONTINUOUS
 10
-3310.53333333333
 20
2683.33333333333
  0
VERTEX
  8
1
 62
7
  6
CONTINUOUS
 10
-3301.28
 20
2674.08
  0
VERTEX
  8
1
 62
7
  6
CONTINUOUS
 10
-3304.8
 20
2668.8
  0
VERTEX
  8
1
 62
7
  6
CONTINUOUS
 10
-3284
 20
2642.4
  0
VERTEX
  8
1
 62
7
  6
CONTINUOUS
 10
-3276.96
 20
2639.2
  0
VERTEX
  8
1
 62
7
  6
CONTINUOUS
 10
-3245.6
 20
2639.2
  0
VERTEX
  8
1
 62
7
  6
CONTINUOUS
 10
-3223.7052631579
 20
2633.72631578947
  0
VERTEX
  8
1
 62
7
  6
CONTINUOUS
 10
-3200.2
 20
2622.53333333333
  0
VERTEX
  8
1
 62
7
  6
CONTINUOUS
 10
-3192.45714285714
 20
2617.37142857143
  0
VERTEX
  8
1
 62
7
  6
CONTINUOUS
 10
-3188.8
 20
2612.8
  0
VERTEX
  8
1
 62
7
  6
CONTINUOUS
 10
-3185.01818181818
 20
2603.34545454545
  0
VERTEX
  8
1
 62
7
  6
CONTINUOUS
 10
-3188.34285714286
 20
2593.37142857143
  0
VERTEX
  8
1
 62
7
  6
CONTINUOUS
 10
-3196.06486486486
 20
2583.71891891892
  0
VERTEX
  8
1
 62
7
  6
CONTINUOUS
 10
-3251.89806094183
 20
2531.73628808864
  0
VERTEX
  8
1
 62
7
  6
CONTINUOUS
 10
-3274.10909090909
 20
2497.89090909091
  0
VERTEX
  8
1
 62
7
  6
CONTINUOUS
 10
-3291.2
 20
2480.8
  0
VERTEX
  8
1
 62
7
  6
CONTINUOUS
 10
-3308.48
 20
2466.4
  0
VERTEX
  8
1
 62
7
  6
CONTINUOUS
 10
-3323.2
 20
2453.6
  0
VERTEX
  8
1
 62
7
  6
CONTINUOUS
 10
-3336.9
 20
2439.9
  0
VERTEX
  8
1
 62
7
  6
CONTINUOUS
 10
-3396.06530612245
 20
2416.45714285714
  0
VERTEX
  8
1
 62
7
  6
CONTINUOUS
 10
-3435.2
 20
2404.8
  0
VERTEX
  8
1
 62
7
  6
CONTINUOUS
 10
-3445.6
 20
2392
  0
VERTEX
  8
1
 62
7
  6
CONTINUOUS
 10
-3448.30588235294
 20
2381.71764705882
  0
VERTEX
  8
1
 62
7
  6
CONTINUOUS
 10
-3438.27368421053
 20
2351.62105263159
  0
VERTEX
  8
1
 62
7
  6
CONTINUOUS
 10
-3431.2
 20
2285.6
  0
VERTEX
  8
1
 62
7
  6
CONTINUOUS
 10
-3431.2
 20
2264.8
  0
VERTEX
  8
1
 62
7
  6
CONTINUOUS
 10
-3433.6
 20
2259.2
  0
VERTEX
  8
1
 62
7
  6
CONTINUOUS
 10
-3428.8
 20
2161.6
  0
VERTEX
  8
1
 62
7
  6
CONTINUOUS
 10
-3422.71886120996
 20
2104.58932384342
  0
VERTEX
  8
1
 62
7
  6
CONTINUOUS
 10
-3397.6
 20
2024.8
  0
VERTEX
  8
1
 62
7
  6
CONTINUOUS
 10
-3368.94482758621
 20
1962.39540229885
  0
VERTEX
  8
1
 62
7
  6
CONTINUOUS
 10
-3327.66153846154
 20
1887.69230769231
  0
VERTEX
  8
1
 62
7
  6
CONTINUOUS
 10
-3312.95
 20
1855
  0
VERTEX
  8
1
 62
7
  6
CONTINUOUS
 10
-3306.4
 20
1828.8
  0
VERTEX
  8
1
 62
7
  6
CONTINUOUS
 10
-3296.8
 20
1800
  0
VERTEX
  8
1
 62
7
  6
CONTINUOUS
 10
-3289.6
 20
1770.4
  0
VERTEX
  8
1
 62
7
  6
CONTINUOUS
 10
-3278.4
 20
1742.4
  0
VERTEX
  8
1
 62
7
  6
CONTINUOUS
 10
-3278.4
 20
1709.6
  0
VERTEX
  8
1
 62
7
  6
CONTINUOUS
 10
-3284.93333333333
 20
1663.86666666667
  0
VERTEX
  8
1
 62
7
  6
CONTINUOUS
 10
-3293.91460674157
 20
1611.77528089888
  0
VERTEX
  8
1
 62
7
  6
CONTINUOUS
 10
-3304
 20
1583.2
  0
VERTEX
  8
1
 62
7
  6
CONTINUOUS
 10
-3328.87782101167
 20
1543.11906614786
  0
VERTEX
  8
1
 62
7
  6
CONTINUOUS
 10
-3332.37647058823
 20
1532.94117647059
  0
VERTEX
  8
1
 62
7
  6
CONTINUOUS
 10
-3346.144
 20
1489.344
  0
VERTEX
  8
1
 62
7
  6
CONTINUOUS
 10
-3357.83783783784
 20
1459.27413127413
  0
VERTEX
  8
1
 62
7
  6
CONTINUOUS
 10
-3393.09090909091
 20
1405.89090909091
  0
VERTEX
  8
1
 62
7
  6
CONTINUOUS
 10
-3416
 20
1378.4
  0
VERTEX
  8
1
 62
7
  6
CONTINUOUS
 10
-3435.2
 20
1359.2
  0
VERTEX
  8
1
 62
7
  6
CONTINUOUS
 10
-3462.48207726409
 20
1335.32818239392
  0
VERTEX
  8
1
 62
7
  6
CONTINUOUS
 10
-3356.75034482759
 20
1312.54620689655
  0
VERTEX
  8
1
 62
7
  6
CONTINUOUS
 10
-3216.65979381443
 20
1290.99381443299
  0
VERTEX
  8
1
 62
7
  6
CONTINUOUS
 10
-3208
 20
1283.2
  0
VERTEX
  8
1
 62
7
  6
CONTINUOUS
 10
-3197.35652173913
 20
1270.78260869565
  0
VERTEX
  8
1
 62
7
  6
CONTINUOUS
 10
-3193.16012861736
 20
1249.80064308682
  0
VERTEX
  8
1
 62
7
  6
CONTINUOUS
 10
-3206.10659025788
 20
1004.81375358166
  0
VERTEX
  8
1
 62
7
  6
CONTINUOUS
 10
-3209.84615384615
 20
984.246153846154
  0
VERTEX
  8
1
 62
7
  6
CONTINUOUS
 10
-3214.17142857143
 20
969.828571428572
  0
VERTEX
  8
1
 62
7
  6
CONTINUOUS
 10
-3218.4
 20
965.6
  0
VERTEX
  8
1
 62
7
  6
CONTINUOUS
 10
-3248.8
 20
965.6
  0
VERTEX
  8
1
 62
7
  6
CONTINUOUS
 10
-3380
 20
969.6
  0
VERTEX
  8
1
 62
7
  6
CONTINUOUS
 10
-3364.65753424658
 20
953.161643835616
  0
VERTEX
  8
1
 62
7
  6
CONTINUOUS
 10
-3354.4
 20
928.8
  0
VERTEX
  8
1
 62
7
  6
CONTINUOUS
 10
-3343.93846153846
 20
899.507692307688
  0
VERTEX
  8
1
 62
7
  6
CONTINUOUS
 10
-3342.15652173913
 20
885.252173913043
  0
VERTEX
  8
1
 62
7
  6
CONTINUOUS
 10
-3343.2
 20
869.6
  0
VERTEX
  8
1
 62
7
  6
CONTINUOUS
 10
-3349.6
 20
847.2
  0
VERTEX
  8
1
 62
7
  6
CONTINUOUS
 10
-3361.21481481481
 20
818.162962962961
  0
VERTEX
  8
1
 62
7
  6
CONTINUOUS
 10
-3388.53953488372
 20
764.606511627907
  0
VERTEX
  8
1
 62
7
  6
CONTINUOUS
 10
-3404.96551724138
 20
746.537931034482
  0
VERTEX
  8
1
 62
7
  6
CONTINUOUS
 10
-3444.13913043478
 20
716.069565217391
  0
VERTEX
  8
1
 62
7
  6
CONTINUOUS
 10
-3448.21333333333
 20
671.253333333334
  0
VERTEX
  8
1
 62
7
  6
CONTINUOUS
 10
-3453.84
 20
651.560000000001
  0
VERTEX
  8
1
 62
7
  6
CONTINUOUS
 10
-3470.82352941176
 20
620.423529411765
  0
VERTEX
  8
1
 62
7
  6
CONTINUOUS
 10
-3481.44
 20
585.92
  0
SEQEND
  0
ENDSEC
  0
EOF
