  0
SECTION
  2
HEADER
  9
$ACADVER
  1
AC1015
  9
$ACADMAINTVER
 70
     6
  9
$DWGCODEPAGE
  3
ANSI_1252
  9
$INSBASE
 10
0.0
 20
0.0
 30
0.0
  9
$EXTMIN
 10
-13.80538
 20
-8.06173
 30
0.0
  9
$EXTMAX
 10
6.11422
 20
11.23346
 30
0.0
  9
$LIMMIN
 10
0.0
 20
0.0
  9
$LIMMAX
 10
12.0
 20
9.0
  9
$ORTHOMODE
 70
     0
  9
$REGENMODE
 70
     1
  9
$FILLMODE
 70
     1
  9
$QTEXTMODE
 70
     0
  9
$MIRRTEXT
 70
     1
  9
$LTSCALE
 40
1.0
  9
$ATTMODE
 70
     1
  9
$TEXTSIZE
 40
0.2
  9
$TRACEWID
 40
0.05
  9
$TEXTSTYLE
  7
Standard
  9
$CLAYER
  8
0
  9
$CELTYPE
  6
ByLayer
  9
$CECOLOR
 62
   256
  9
$CELTSCALE
 40
1.0
  9
$DISPSILH
 70
     0
  9
$DIMSCALE
 40
1.0
  9
$DIMASZ
 40
0.18
  9
$DIMEXO
 40
0.0625
  9
$DIMDLI
 40
0.38
  9
$DIMRND
 40
0.0
  9
$DIMDLE
 40
0.0
  9
$DIMEXE
 40
0.18
  9
$DIMTP
 40
0.0
  9
$DIMTM
 40
0.0
  9
$DIMTXT
 40
0.18
  9
$DIMCEN
 40
0.09
  9
$DIMTSZ
 40
0.0
  9
$DIMTOL
 70
     0
  9
$DIMLIM
 70
     0
  9
$DIMTIH
 70
     1
  9
$DIMTOH
 70
     1
  9
$DIMSE1
 70
     0
  9
$DIMSE2
 70
     0
  9
$DIMTAD
 70
     0
  9
$DIMZIN
 70
     0
  9
$DIMBLK
  1

  9
$DIMASO
 70
     1
  9
$DIMSHO
 70
     1
  9
$DIMPOST
  1

  9
$DIMAPOST
  1

  9
$DIMALT
 70
     0
  9
$DIMALTD
 70
     2
  9
$DIMALTF
 40
25.4
  9
$DIMLFAC
 40
1.0
  9
$DIMTOFL
 70
     0
  9
$DIMTVP
 40
0.0
  9
$DIMTIX
 70
     0
  9
$DIMSOXD
 70
     0
  9
$DIMSAH
 70
     0
  9
$DIMBLK1
  1

  9
$DIMBLK2
  1

  9
$DIMSTYLE
  2
Standard
  9
$DIMCLRD
 70
     0
  9
$DIMCLRE
 70
     0
  9
$DIMCLRT
 70
     0
  9
$DIMTFAC
 40
1.0
  9
$DIMGAP
 40
0.09
  9
$DIMJUST
 70
     0
  9
$DIMSD1
 70
     0
  9
$DIMSD2
 70
     0
  9
$DIMTOLJ
 70
     1
  9
$DIMTZIN
 70
     0
  9
$DIMALTZ
 70
     0
  9
$DIMALTTZ
 70
     0
  9
$DIMUPT
 70
     0
  9
$DIMDEC
 70
     4
  9
$DIMTDEC
 70
     4
  9
$DIMALTU
 70
     2
  9
$DIMALTTD
 70
     2
  9
$DIMTXSTY
  7
Standard
  9
$DIMAUNIT
 70
     0
  9
$DIMADEC
 70
     0
  9
$DIMALTRND
 40
0.0
  9
$DIMAZIN
 70
     0
  9
$DIMDSEP
 70
    46
  9
$DIMATFIT
 70
     3
  9
$DIMFRAC
 70
     0
  9
$DIMLDRBLK
  1

  9
$DIMLUNIT
 70
     2
  9
$DIMLWD
 70
    -2
  9
$DIMLWE
 70
    -2
  9
$DIMTMOVE
 70
     0
  9
$LUNITS
 70
     2
  9
$LUPREC
 70
     4
  9
$SKETCHINC
 40
0.1
  9
$FILLETRAD
 40
0.5
  9
$AUNITS
 70
     0
  9
$AUPREC
 70
     0
  9
$MENU
  1
.
  9
$ELEVATION
 40
0.0
  9
$PELEVATION
 40
0.0
  9
$THICKNESS
 40
0.0
  9
$LIMCHECK
 70
     0
  9
$CHAMFERA
 40
0.5
  9
$CHAMFERB
 40
0.5
  9
$CHAMFERC
 40
1.0
  9
$CHAMFERD
 40
0.0
  9
$SKPOLY
 70
     0
  9
$TDCREATE
 40
2458031.545003912
  9
$TDUCREATE
 40
2458031.315837245
  9
$TDUPDATE
 40
2458031.545004086
  9
$TDUUPDATE
 40
2458031.315837419
  9
$TDINDWG
 40
0.0000000116
  9
$TDUSRTIMER
 40
0.0000000116
  9
$USRTIMER
 70
     1
  9
$ANGBASE
 50
0.0
  9
$ANGDIR
 70
     0
  9
$PDMODE
 70
     0
  9
$PDSIZE
 40
0.0
  9
$PLINEWID
 40
0.0
  9
$SPLFRAME
 70
     0
  9
$SPLINETYPE
 70
     6
  9
$SPLINESEGS
 70
     8
  9
$HANDSEED
  5
DC
  9
$SURFTAB1
 70
     6
  9
$SURFTAB2
 70
     6
  9
$SURFTYPE
 70
     6
  9
$SURFU
 70
     6
  9
$SURFV
 70
     6
  9
$UCSBASE
  2

  9
$UCSNAME
  2

  9
$UCSORG
 10
0.0
 20
0.0
 30
0.0
  9
$UCSXDIR
 10
1.0
 20
0.0
 30
0.0
  9
$UCSYDIR
 10
0.0
 20
1.0
 30
0.0
  9
$UCSORTHOREF
  2

  9
$UCSORTHOVIEW
 70
     0
  9
$UCSORGTOP
 10
0.0
 20
0.0
 30
0.0
  9
$UCSORGBOTTOM
 10
0.0
 20
0.0
 30
0.0
  9
$UCSORGLEFT
 10
0.0
 20
0.0
 30
0.0
  9
$UCSORGRIGHT
 10
0.0
 20
0.0
 30
0.0
  9
$UCSORGFRONT
 10
0.0
 20
0.0
 30
0.0
  9
$UCSORGBACK
 10
0.0
 20
0.0
 30
0.0
  9
$PUCSBASE
  2

  9
$PUCSNAME
  2

  9
$PUCSORG
 10
0.0
 20
0.0
 30
0.0
  9
$PUCSXDIR
 10
1.0
 20
0.0
 30
0.0
  9
$PUCSYDIR
 10
0.0
 20
1.0
 30
0.0
  9
$PUCSORTHOREF
  2

  9
$PUCSORTHOVIEW
 70
     0
  9
$PUCSORGTOP
 10
0.0
 20
0.0
 30
0.0
  9
$PUCSORGBOTTOM
 10
0.0
 20
0.0
 30
0.0
  9
$PUCSORGLEFT
 10
0.0
 20
0.0
 30
0.0
  9
$PUCSORGRIGHT
 10
0.0
 20
0.0
 30
0.0
  9
$PUCSORGFRONT
 10
0.0
 20
0.0
 30
0.0
  9
$PUCSORGBACK
 10
0.0
 20
0.0
 30
0.0
  9
$USERI1
 70
     0
  9
$USERI2
 70
     0
  9
$USERI3
 70
     0
  9
$USERI4
 70
     0
  9
$USERI5
 70
     0
  9
$USERR1
 40
0.0
  9
$USERR2
 40
0.0
  9
$USERR3
 40
0.0
  9
$USERR4
 40
0.0
  9
$USERR5
 40
0.0
  9
$WORLDVIEW
 70
     1
  9
$SHADEDGE
 70
     3
  9
$SHADEDIF
 70
    70
  9
$TILEMODE
 70
     1
  9
$MAXACTVP
 70
    64
  9
$PINSBASE
 10
0.0
 20
0.0
 30
0.0
  9
$PLIMCHECK
 70
     0
  9
$PEXTMIN
 10
1.000000000000000E+20
 20
1.000000000000000E+20
 30
1.000000000000000E+20
  9
$PEXTMAX
 10
-1.000000000000000E+20
 20
-1.000000000000000E+20
 30
-1.000000000000000E+20
  9
$PLIMMIN
 10
0.0
 20
0.0
  9
$PLIMMAX
 10
12.0
 20
9.0
  9
$UNITMODE
 70
     0
  9
$VISRETAIN
 70
     1
  9
$PLINEGEN
 70
     0
  9
$PSLTSCALE
 70
     1
  9
$TREEDEPTH
 70
  3020
  9
$CMLSTYLE
  2
Standard
  9
$CMLJUST
 70
     0
  9
$CMLSCALE
 40
1.0
  9
$PROXYGRAPHICS
 70
     1
  9
$MEASUREMENT
 70
     0
  9
$CELWEIGHT
370
    -1
  9
$ENDCAPS
280
     0
  9
$JOINSTYLE
280
     0
  9
$LWDISPLAY
290
     0
  9
$INSUNITS
 70
     5
  9
$HYPERLINKBASE
  1

  9
$STYLESHEET
  1

  9
$XEDIT
290
     1
  9
$CEPSNTYPE
380
     0
  9
$PSTYLEMODE
290
     1
  9
$FINGERPRINTGUID
  2
{6E63D9E2-AC0F-4607-93C8-4C40DDB07EC4}
  9
$VERSIONGUID
  2
{FAEB1C32-E019-11D5-929B-00C0DF256EC4}
  9
$EXTNAMES
290
     1
  9
$PSVPSCALE
 40
0.0
  9
$OLESTARTUP
290
     0
  0
ENDSEC
  0
SECTION
  2
CLASSES
  0
CLASS
  1
ACDBDICTIONARYWDFLT
  2
AcDbDictionaryWithDefault
  3
ObjectDBX Classes
 90
        0
280
     0
281
     0
  0
CLASS
  1
VISUALSTYLE
  2
AcDbVisualStyle
  3
ObjectDBX Classes
 90
     4095
280
     0
281
     0
  0
CLASS
  1
MATERIAL
  2
AcDbMaterial
  3
ObjectDBX Classes
 90
     1153
280
     0
281
     0
  0
CLASS
  1
DICTIONARYVAR
  2
AcDbDictionaryVar
  3
ObjectDBX Classes
 90
        0
280
     0
281
     0
  0
CLASS
  1
ACDBPLACEHOLDER
  2
AcDbPlaceHolder
  3
ObjectDBX Classes
 90
        0
280
     0
281
     0
  0
CLASS
  1
LAYOUT
  2
AcDbLayout
  3
ObjectDBX Classes
 90
        0
280
     0
281
     0
  0
ENDSEC
  0
SECTION
  2
TABLES
  0
TABLE
  2
VPORT
  5
8
330
0
100
AcDbSymbolTable
 70
     1
  0
VPORT
  5
29
330
8
100
AcDbSymbolTableRecord
100
AcDbViewportTableRecord
  2
*Active
 70
     0
 10
0.0
 20
0.0
 11
1.0
 21
1.0
 12
10.42990654205607
 22
4.5
 13
0.0
 23
0.0
 14
0.5
 24
0.5
 15
0.5
 25
0.5
 16
0.0
 26
0.0
 36
1.0
 17
0.0
 27
0.0
 37
0.0
 40
9.0
 41
1.972972972850329
 42
50.0
 43
0.0
 44
0.0
 50
0.0
 51
0.0
 71
     0
 72
   100
 73
     1
 74
     3
 75
     0
 76
     0
 77
     0
 78
     0
281
     0
 65
     1
110
0.0
120
0.0
130
0.0
111
1.0
121
0.0
131
0.0
112
0.0
122
1.0
132
0.0
 79
     0
146
0.0
  0
ENDTAB
  0
TABLE
  2
LTYPE
  5
5
330
0
100
AcDbSymbolTable
 70
     1
  0
LTYPE
  5
14
330
5
100
AcDbSymbolTableRecord
100
AcDbLinetypeTableRecord
  2
ByBlock
 70
     0
  3

 72
    65
 73
     0
 40
0.0
  0
LTYPE
  5
15
330
5
100
AcDbSymbolTableRecord
100
AcDbLinetypeTableRecord
  2
ByLayer
 70
     0
  3

 72
    65
 73
     0
 40
0.0
  0
LTYPE
  5
16
330
5
100
AcDbSymbolTableRecord
100
AcDbLinetypeTableRecord
  2
Continuous
 70
     0
  3
Solid line
 72
    65
 73
     0
 40
0.0
  0
ENDTAB
  0
TABLE
  2
LAYER
  5
2
330
0
100
AcDbSymbolTable
 70
     2
  0
LAYER
  5
10
330
2
100
AcDbSymbolTableRecord
100
AcDbLayerTableRecord
  2
0
 70
     0
 62
     7
  6
Continuous
370
    -3
390
F
  0
LAYER
  5
40
330
2
100
AcDbSymbolTableRecord
100
AcDbLayerTableRecord
  2
Layer 1
 70
     0
 62
     7
  6
Continuous
370
    -3
390
F
  0
ENDTAB
  0
TABLE
  2
STYLE
  5
3
330
0
100
AcDbSymbolTable
 70
     1
  0
STYLE
  5
11
330
3
100
AcDbSymbolTableRecord
100
AcDbTextStyleTableRecord
  2
Standard
 70
     0
 40
0.0
 41
1.0
 50
0.0
 71
     0
 42
0.2
  3
txt
  4

  0
ENDTAB
  0
TABLE
  2
VIEW
  5
6
330
0
100
AcDbSymbolTable
 70
     0
  0
ENDTAB
  0
TABLE
  2
UCS
  5
7
330
0
100
AcDbSymbolTable
 70
     0
  0
ENDTAB
  0
TABLE
  2
APPID
  5
9
330
0
100
AcDbSymbolTable
 70
     2
  0
APPID
  5
12
330
9
100
AcDbSymbolTableRecord
100
AcDbRegAppTableRecord
  2
ACAD
 70
     0
  0
APPID
  5
3F
330
9
100
AcDbSymbolTableRecord
100
AcDbRegAppTableRecord
  2
ODA
 70
     0
  0
ENDTAB
  0
TABLE
  2
DIMSTYLE
  5
A
330
0
100
AcDbSymbolTable
 70
     1
100
AcDbDimStyleTable
  0
DIMSTYLE
105
27
330
A
100
AcDbSymbolTableRecord
100
AcDbDimStyleTableRecord
  2
Standard
 70
     0
178
     0
340
11
  0
ENDTAB
  0
TABLE
  2
BLOCK_RECORD
  5
1
330
0
100
AcDbSymbolTable
 70
     1
  0
BLOCK_RECORD
  5
1F
330
1
100
AcDbSymbolTableRecord
100
AcDbBlockTableRecord
  2
*Model_Space
340
22
  0
BLOCK_RECORD
  5
1B
330
1
100
AcDbSymbolTableRecord
100
AcDbBlockTableRecord
  2
*Paper_Space
340
1E
  0
BLOCK_RECORD
  5
23
330
1
100
AcDbSymbolTableRecord
100
AcDbBlockTableRecord
  2
*Paper_Space0
340
26
  0
ENDTAB
  0
ENDSEC
  0
SECTION
  2
BLOCKS
  0
BLOCK
  5
20
330
1F
100
AcDbEntity
  8
0
100
AcDbBlockBegin
  2
*Model_Space
 70
     0
 10
0.0
 20
0.0
 30
0.0
  3
*Model_Space
  1

  0
ENDBLK
  5
21
330
1F
100
AcDbEntity
  8
0
100
AcDbBlockEnd
  0
BLOCK
  5
1C
330
1B
100
AcDbEntity
 67
     1
  8
0
100
AcDbBlockBegin
  2
*Paper_Space
 70
     0
 10
0.0
 20
0.0
 30
0.0
  3
*Paper_Space
  1

  0
ENDBLK
  5
1D
330
1B
100
AcDbEntity
 67
     1
  8
0
100
AcDbBlockEnd
  0
BLOCK
  5
24
330
23
100
AcDbEntity
  8
0
100
AcDbBlockBegin
  2
*Paper_Space0
 70
     0
 10
0.0
 20
0.0
 30
0.0
  3
*Paper_Space0
  1

  0
ENDBLK
  5
25
330
23
100
AcDbEntity
  8
0
100
AcDbBlockEnd
  0
ENDSEC
  0
SECTION
  2
ENTITIES
  0
SPLINE
  5
41
330
1F
100
AcDbEntity
  8
Layer 1
370
     9
100
AcDbSpline
210
0.0
220
0.0
230
1.0
 70
    11
 71
     3
 72
    20
 73
    16
 74
     0
 42
0.0000000001
 43
0.0000000001
 12
1.0
 22
0.0
 32
0.0
 13
1.0
 23
0.0
 33
0.0
 40
0.0
 40
0.0
 40
0.0
 40
0.0
 40
0.2
 40
0.2
 40
0.2
 40
0.2
 40
0.4
 40
0.4
 40
0.4
 40
0.4
 40
0.6
 40
0.6
 40
0.6
 40
0.6
 40
1.0
 40
1.0
 40
1.0
 40
1.0
 10
-13.80157
 20
11.22965
 30
0.0
 10
-13.80157
 20
11.22965
 30
0.0
 10
-13.80157
 20
-8.05792
 30
0.0
 10
-13.80157
 20
-8.05792
 30
0.0
 10
-13.80157
 20
-8.05792
 30
0.0
 10
-13.80157
 20
-8.05792
 30
0.0
 10
-4.15863
 20
-8.05792
 30
0.0
 10
-4.15863
 20
-8.05792
 30
0.0
 10
-4.15863
 20
-8.05792
 30
0.0
 10
-4.15863
 20
-8.05792
 30
0.0
 10
-4.15863
 20
11.22965
 30
0.0
 10
-4.15863
 20
11.22965
 30
0.0
 10
-4.15863
 20
11.22965
 30
0.0
 10
-4.15863
 20
11.22965
 30
0.0
 10
-13.80157
 20
11.22965
 30
0.0
 10
-13.80157
 20
11.22965
 30
0.0
  0
SPLINE
  5
42
330
1F
100
AcDbEntity
  8
Layer 1
370
     9
100
AcDbSpline
210
0.0
220
0.0
230
1.0
 70
     8
 71
     3
 72
    28
 73
    24
 74
     0
 42
0.0000000001
 43
0.0000000001
 12
1.0
 22
0.0
 32
0.0
 13
1.0
 23
0.0
 33
0.0
 40
0.0
 40
0.0
 40
0.0
 40
0.0
 40
0.1428571428571428
 40
0.1428571428571428
 40
0.1428571428571428
 40
0.1428571428571428
 40
0.2857142857142857
 40
0.2857142857142857
 40
0.2857142857142857
 40
0.2857142857142857
 40
0.4285714285714285
 40
0.4285714285714285
 40
0.4285714285714285
 40
0.4285714285714285
 40
0.5714285714285714
 40
0.5714285714285714
 40
0.5714285714285714
 40
0.5714285714285714
 40
0.7142857142857143
 40
0.7142857142857143
 40
0.7142857142857143
 40
0.7142857142857143
 40
1.0
 40
1.0
 40
1.0
 40
1.0
 10
-7.29367
 20
-3.57614
 30
0.0
 10
-8.21642
 20
-4.01449
 30
0.0
 10
-8.6101
 20
-5.11577
 30
0.0
 10
-8.17176
 20
-6.03852
 30
0.0
 10
-8.17176
 20
-6.03852
 30
0.0
 10
-8.13447
 20
-6.11711
 30
0.0
 10
-8.0917
 20
-6.19297
 30
0.0
 10
-8.04374
 20
-6.26555
 30
0.0
 10
-8.04374
 20
-6.26555
 30
0.0
 10
-8.58282
 20
-6.50319
 30
0.0
 10
-9.2039
 20
-6.46614
 30
0.0
 10
-9.71118
 20
-6.16656
 30
0.0
 10
-9.71118
 20
-6.16656
 30
0.0
 10
-9.50695
 20
-5.38462
 30
0.0
 10
-9.84135
 20
-4.56228
 30
0.0
 10
-10.53404
 20
-4.14597
 30
0.0
 10
-10.53404
 20
-4.14597
 30
0.0
 10
-10.35531
 20
-3.46352
 30
0.0
 10
-9.79634
 20
-2.94711
 30
0.0
 10
-9.1019
 20
-2.82286
 30
0.0
 10
-9.1019
 20
-2.82286
 30
0.0
 10
-8.40747
 20
-2.69861
 30
0.0
 10
-7.69798
 20
-2.998
 30
0.0
 10
-7.29371
 20
-3.57614
 30
0.0
  0
SPLINE
  5
43
330
1F
100
AcDbEntity
  8
Layer 1
370
     9
100
AcDbSpline
210
0.0
220
0.0
230
1.0
 70
     8
 71
     3
 72
    40
 73
    36
 74
     0
 42
0.0000000001
 43
0.0000000001
 12
1.0
 22
0.0
 32
0.0
 13
1.0
 23
0.0
 33
0.0
 40
0.0
 40
0.0
 40
0.0
 40
0.0
 40
0.1
 40
0.1
 40
0.1
 40
0.1
 40
0.2
 40
0.2
 40
0.2
 40
0.2
 40
0.3
 40
0.3
 40
0.3
 40
0.3
 40
0.4
 40
0.4
 40
0.4
 40
0.4
 40
0.5
 40
0.5
 40
0.5
 40
0.5
 40
0.6
 40
0.6
 40
0.6
 40
0.6
 40
0.7
 40
0.7
 40
0.7
 40
0.7
 40
0.8
 40
0.8
 40
0.8
 40
0.8
 40
1.0
 40
1.0
 40
1.0
 40
1.0
 10
-13.23722
 20
4.10332
 30
0.0
 10
-13.23722
 20
4.10332
 30
0.0
 10
-13.23723
 20
6.02711
 30
0.0
 10
-13.23723
 20
6.02711
 30
0.0
 10
-13.23723
 20
6.02711
 30
0.0
 10
-13.22418
 20
6.02691
 30
0.0
 10
-13.21116
 20
6.02803
 30
0.0
 10
-13.19835
 20
6.03047
 30
0.0
 10
-13.19835
 20
6.03047
 30
0.0
 10
-12.92723
 20
6.08155
 30
0.0
 10
-12.67024
 20
6.18987
 30
0.0
 10
-12.4444
 20
6.34831
 30
0.0
 10
-12.4444
 20
6.34831
 30
0.0
 10
-12.25663
 20
6.47997
 30
0.0
 10
-12.09529
 20
6.64563
 30
0.0
 10
-11.96865
 20
6.83681
 30
0.0
 10
-11.96865
 20
6.83681
 30
0.0
 10
-11.49547
 20
6.69425
 30
0.0
 10
-11.09831
 20
6.36955
 30
0.0
 10
-10.86453
 20
5.93415
 30
0.0
 10
-10.86453
 20
5.93415
 30
0.0
 10
-10.63076
 20
5.49875
 30
0.0
 10
-10.58021
 20
4.98606
 30
0.0
 10
-10.72279
 20
4.51288
 30
0.0
 10
-10.72279
 20
4.51288
 30
0.0
 10
-10.91266
 20
3.89635
 30
0.0
 10
-11.40564
 20
3.41974
 30
0.0
 10
-12.02806
 20
3.25016
 30
0.0
 10
-12.02806
 20
3.25016
 30
0.0
 10
-12.28761
 20
3.67515
 30
0.0
 10
-12.70458
 20
3.9799
 30
0.0
 10
-13.18839
 20
4.09786
 30
0.0
 10
-13.18839
 20
4.09786
 30
0.0
 10
-13.20437
 20
4.10176
 30
0.0
 10
-13.22078
 20
4.10359
 30
0.0
 10
-13.23723
 20
4.10332
 30
0.0
  0
SPLINE
  5
44
330
1F
100
AcDbEntity
  8
Layer 1
370
     9
100
AcDbSpline
210
0.0
220
0.0
230
1.0
 70
     8
 71
     3
 72
    24
 73
    20
 74
     0
 42
0.0000000001
 43
0.0000000001
 12
1.0
 22
0.0
 32
0.0
 13
1.0
 23
0.0
 33
0.0
 40
0.0
 40
0.0
 40
0.0
 40
0.0
 40
0.1666666666666667
 40
0.1666666666666667
 40
0.1666666666666667
 40
0.1666666666666667
 40
0.3333333333333333
 40
0.3333333333333333
 40
0.3333333333333333
 40
0.3333333333333333
 40
0.5
 40
0.5
 40
0.5
 40
0.5
 40
0.6666666666666666
 40
0.6666666666666666
 40
0.6666666666666666
 40
0.6666666666666666
 40
1.0
 40
1.0
 40
1.0
 40
1.0
 10
-10.17453
 20
-6.31151
 30
0.0
 10
-10.41475
 20
-6.81759
 30
0.0
 10
-10.93101
 20
-7.13422
 30
0.0
 10
-11.49101
 20
-7.11892
 30
0.0
 10
-11.49101
 20
-7.11892
 30
0.0
 10
-12.05101
 20
-7.10362
 30
0.0
 10
-12.55267
 20
-6.75072
 30
0.0
 10
-12.7649
 20
-6.23228
 30
0.0
 10
-12.7649
 20
-6.23228
 30
0.0
 10
-12.97682
 20
-5.71452
 30
0.0
 10
-12.8641
 20
-5.12053
 30
0.0
 10
-12.47724
 20
-4.7164
 30
0.0
 10
-12.47724
 20
-4.7164
 30
0.0
 10
-12.09038
 20
-4.31227
 30
0.0
 10
-11.49333
 20
-4.17683
 30
0.0
 10
-10.96682
 20
-4.36595
 30
0.0
 10
-10.96682
 20
-4.36595
 30
0.0
 10
-11.04556
 20
-5.10656
 30
0.0
 10
-10.74845
 20
-5.83682
 30
0.0
 10
-10.17454
 20
-6.31151
 30
0.0
  0
SPLINE
  5
45
330
1F
100
AcDbEntity
  8
Layer 1
370
     9
100
AcDbSpline
210
0.0
220
0.0
230
1.0
 70
     8
 71
     3
 72
    48
 73
    44
 74
     0
 42
0.0000000001
 43
0.0000000001
 12
1.0
 22
0.0
 32
0.0
 13
1.0
 23
0.0
 33
0.0
 40
0.0
 40
0.0
 40
0.0
 40
0.0
 40
0.0833333333333333
 40
0.0833333333333333
 40
0.0833333333333333
 40
0.0833333333333333
 40
0.1666666666666667
 40
0.1666666666666667
 40
0.1666666666666667
 40
0.1666666666666667
 40
0.25
 40
0.25
 40
0.25
 40
0.25
 40
0.3333333333333333
 40
0.3333333333333333
 40
0.3333333333333333
 40
0.3333333333333333
 40
0.4166666666666667
 40
0.4166666666666667
 40
0.4166666666666667
 40
0.4166666666666667
 40
0.5
 40
0.5
 40
0.5
 40
0.5
 40
0.5833333333333334
 40
0.5833333333333334
 40
0.5833333333333334
 40
0.5833333333333334
 40
0.6666666666666666
 40
0.6666666666666666
 40
0.6666666666666666
 40
0.6666666666666666
 40
0.75
 40
0.75
 40
0.75
 40
0.75
 40
0.8333333333333334
 40
0.8333333333333334
 40
0.8333333333333334
 40
0.8333333333333334
 40
1.0
 40
1.0
 40
1.0
 40
1.0
 10
-6.73221
 20
7.18877
 30
0.0
 10
-6.9676
 20
7.11057
 30
0.0
 10
-7.18829
 20
6.99378
 30
0.0
 10
-7.38533
 20
6.84312
 30
0.0
 10
-7.38533
 20
6.84312
 30
0.0
 10
-7.99292
 20
7.13535
 30
0.0
 10
-8.70483
 20
7.11003
 30
0.0
 10
-9.2898
 20
6.77482
 30
0.0
 10
-9.2898
 20
6.77482
 30
0.0
 10
-9.33974
 20
6.83405
 30
0.0
 10
-9.38628
 20
6.8961
 30
0.0
 10
-9.42917
 20
6.96062
 30
0.0
 10
-9.42917
 20
6.96062
 30
0.0
 10
-9.02615
 20
7.2276
 30
0.0
 10
-8.77224
 20
7.66865
 30
0.0
 10
-8.74374
 20
8.15124
 30
0.0
 10
-8.74374
 20
8.15124
 30
0.0
 10
-8.71523
 20
8.63383
 30
0.0
 10
-8.91283
 20
9.09948
 30
0.0
 10
-9.28162
 20
9.41204
 30
0.0
 10
-9.28162
 20
9.41204
 30
0.0
 10
-9.16295
 20
9.55094
 30
0.0
 10
-9.02611
 20
9.67328
 30
0.0
 10
-8.87486
 20
9.77573
 30
0.0
 10
-8.87486
 20
9.77573
 30
0.0
 10
-8.58615
 20
9.38398
 30
0.0
 10
-8.15365
 20
9.12296
 30
0.0
 10
-7.67249
 20
9.0501
 30
0.0
 10
-7.67249
 20
9.0501
 30
0.0
 10
-7.19133
 20
8.97723
 30
0.0
 10
-6.7028
 20
9.09713
 30
0.0
 10
-6.31105
 20
9.38584
 30
0.0
 10
-6.31105
 20
9.38584
 30
0.0
 10
-6.28052
 20
9.4083
 30
0.0
 10
-6.2507
 20
9.4317
 30
0.0
 10
-6.22164
 20
9.45601
 30
0.0
 10
-6.22164
 20
9.45601
 30
0.0
 10
-6.17928
 20
9.40921
 30
0.0
 10
-6.13912
 20
9.36046
 30
0.0
 10
-6.10128
 20
9.30994
 30
0.0
 10
-6.10128
 20
9.30994
 30
0.0
 10
-6.75187
 20
8.81573
 30
0.0
 10
-7.00747
 20
7.95801
 30
0.0
 10
-6.73223
 20
7.18875
 30
0.0
  0
SPLINE
  5
46
330
1F
100
AcDbEntity
  8
Layer 1
370
     9
100
AcDbSpline
210
0.0
220
0.0
230
1.0
 70
     8
 71
     3
 72
    44
 73
    40
 74
     0
 42
0.0000000001
 43
0.0000000001
 12
1.0
 22
0.0
 32
0.0
 13
1.0
 23
0.0
 33
0.0
 40
0.0
 40
0.0
 40
0.0
 40
0.0
 40
0.0909090909090909
 40
0.0909090909090909
 40
0.0909090909090909
 40
0.0909090909090909
 40
0.1818181818181818
 40
0.1818181818181818
 40
0.1818181818181818
 40
0.1818181818181818
 40
0.2727272727272727
 40
0.2727272727272727
 40
0.2727272727272727
 40
0.2727272727272727
 40
0.3636363636363636
 40
0.3636363636363636
 40
0.3636363636363636
 40
0.3636363636363636
 40
0.4545454545454545
 40
0.4545454545454545
 40
0.4545454545454545
 40
0.4545454545454545
 40
0.5454545454545454
 40
0.5454545454545454
 40
0.5454545454545454
 40
0.5454545454545454
 40
0.6363636363636364
 40
0.6363636363636364
 40
0.6363636363636364
 40
0.6363636363636364
 40
0.7272727272727273
 40
0.7272727272727273
 40
0.7272727272727273
 40
0.7272727272727273
 40
0.8181818181818182
 40
0.8181818181818182
 40
0.8181818181818182
 40
0.8181818181818182
 40
1.0
 40
1.0
 40
1.0
 40
1.0
 10
-6.72236
 20
2.94192
 30
0.0
 10
-7.03668
 20
2.17088
 30
0.0
 10
-6.80703
 20
1.28577
 30
0.0
 10
-6.15658
 20
0.76594
 30
0.0
 10
-6.15658
 20
0.76594
 30
0.0
 10
-6.1796
 20
0.73678
 30
0.0
 10
-6.20341
 20
0.70827
 30
0.0
 10
-6.22799
 20
0.68041
 30
0.0
 10
-6.22799
 20
0.68041
 30
0.0
 10
-7.05561
 20
1.32501
 30
0.0
 10
-8.2476
 20
1.17854
 30
0.0
 10
-8.8922
 20
0.35093
 30
0.0
 10
-8.8922
 20
0.35093
 30
0.0
 10
-8.8922
 20
0.35093
 30
0.0
 10
-8.89664
 20
0.34523
 30
0.0
 10
-8.89664
 20
0.34523
 30
0.0
 10
-8.89664
 20
0.34523
 30
0.0
 10
-9.03182
 20
0.43727
 30
0.0
 10
-9.15543
 20
0.54532
 30
0.0
 10
-9.26473
 20
0.66697
 30
0.0
 10
-9.26473
 20
0.66697
 30
0.0
 10
-8.88584
 20
0.98796
 30
0.0
 10
-8.68164
 20
1.46961
 30
0.0
 10
-8.71437
 20
1.9651
 30
0.0
 10
-8.71437
 20
1.9651
 30
0.0
 10
-8.74709
 20
2.4606
 30
0.0
 10
-9.00984
 20
2.90926
 30
0.0
 10
-9.42765
 20
3.17763
 30
0.0
 10
-9.42765
 20
3.17763
 30
0.0
 10
-9.39969
 20
3.21829
 30
0.0
 10
-9.37025
 20
3.25793
 30
0.0
 10
-9.3394
 20
3.29645
 30
0.0
 10
-9.3394
 20
3.29645
 30
0.0
 10
-8.72111
 20
2.91959
 30
0.0
 10
-7.95059
 20
2.89657
 30
0.0
 10
-7.31126
 20
3.23652
 30
0.0
 10
-7.31126
 20
3.23652
 30
0.0
 10
-7.13054
 20
3.1098
 30
0.0
 10
-6.93212
 20
3.01054
 30
0.0
 10
-6.72234
 20
2.94191
 30
0.0
  0
SPLINE
  5
47
330
1F
100
AcDbEntity
  8
Layer 1
370
     9
100
AcDbSpline
210
0.0
220
0.0
230
1.0
 70
     8
 71
     3
 72
    24
 73
    20
 74
     0
 42
0.0000000001
 43
0.0000000001
 12
1.0
 22
0.0
 32
0.0
 13
1.0
 23
0.0
 33
0.0
 40
0.0
 40
0.0
 40
0.0
 40
0.0
 40
0.1666666666666667
 40
0.1666666666666667
 40
0.1666666666666667
 40
0.1666666666666667
 40
0.3333333333333333
 40
0.3333333333333333
 40
0.3333333333333333
 40
0.3333333333333333
 40
0.5
 40
0.5
 40
0.5
 40
0.5
 40
0.6666666666666666
 40
0.6666666666666666
 40
0.6666666666666666
 40
0.6666666666666666
 40
1.0
 40
1.0
 40
1.0
 40
1.0
 10
-7.45039
 20
-6.35944
 30
0.0
 10
-6.67234
 20
-5.75881
 30
0.0
 10
-6.38186
 20
-4.71919
 30
0.0
 10
-6.73745
 20
-3.80285
 30
0.0
 10
-6.73745
 20
-3.80285
 30
0.0
 10
-6.24576
 20
-3.72172
 30
0.0
 10
-5.74667
 20
-3.89712
 30
0.0
 10
-5.41385
 20
-4.26803
 30
0.0
 10
-5.41385
 20
-4.26803
 30
0.0
 10
-5.08104
 20
-4.63893
 30
0.0
 10
-4.96175
 20
-5.15841
 30
0.0
 10
-5.09546
 20
-5.63847
 30
0.0
 10
-5.09546
 20
-5.63847
 30
0.0
 10
-5.22906
 20
-6.11804
 30
0.0
 10
-5.59757
 20
-6.49663
 30
0.0
 10
-6.07338
 20
-6.6431
 30
0.0
 10
-6.07338
 20
-6.6431
 30
0.0
 10
-6.54918
 20
-6.78958
 30
0.0
 10
-7.07025
 20
-6.68087
 30
0.0
 10
-7.45042
 20
-6.35945
 30
0.0
  0
SPLINE
  5
48
330
1F
100
AcDbEntity
  8
Layer 1
370
     9
100
AcDbSpline
210
0.0
220
0.0
230
1.0
 70
    11
 71
     3
 72
    28
 73
    24
 74
     0
 42
0.0000000001
 43
0.0000000001
 12
1.0
 22
0.0
 32
0.0
 13
1.0
 23
0.0
 33
0.0
 40
0.0
 40
0.0
 40
0.0
 40
0.0
 40
0.1428571428571428
 40
0.1428571428571428
 40
0.1428571428571428
 40
0.1428571428571428
 40
0.2857142857142857
 40
0.2857142857142857
 40
0.2857142857142857
 40
0.2857142857142857
 40
0.4285714285714285
 40
0.4285714285714285
 40
0.4285714285714285
 40
0.4285714285714285
 40
0.5714285714285714
 40
0.5714285714285714
 40
0.5714285714285714
 40
0.5714285714285714
 40
0.7142857142857143
 40
0.7142857142857143
 40
0.7142857142857143
 40
0.7142857142857143
 40
1.0
 40
1.0
 40
1.0
 40
1.0
 10
-10.60339
 20
-2.55343
 30
0.0
 10
-10.6625
 20
-1.82146
 30
0.0
 10
-11.30212
 20
-1.27588
 30
0.0
 10
-12.03409
 20
-1.33498
 30
0.0
 10
-12.03409
 20
-1.33498
 30
0.0
 10
-12.10279
 20
-1.34048
 30
0.0
 10
-12.17094
 20
-1.35132
 30
0.0
 10
-12.23796
 20
-1.3674
 30
0.0
 10
-12.23796
 20
-1.3674
 30
0.0
 10
-12.27853
 20
-0.89225
 30
0.0
 10
-12.06252
 20
-0.43155
 30
0.0
 10
-11.67132
 20
-0.15884
 30
0.0
 10
-11.67132
 20
-0.15884
 30
0.0
 10
-11.28011
 20
0.11386
 30
0.0
 10
-10.77313
 20
0.15715
 30
0.0
 10
-10.34135
 20
-0.04529
 30
0.0
 10
-10.34135
 20
-0.04529
 30
0.0
 10
-9.90958
 20
-0.24774
 30
0.0
 10
-9.61861
 20
-0.66514
 30
0.0
 10
-9.57804
 20
-1.1403
 30
0.0
 10
-9.57804
 20
-1.1403
 30
0.0
 10
-9.52418
 20
-1.79939
 30
0.0
 10
-9.96024
 20
-2.39958
 30
0.0
 10
-10.60339
 20
-2.55343
 30
0.0
  0
SPLINE
  5
49
330
1F
100
AcDbEntity
  8
Layer 1
370
     9
100
AcDbSpline
210
0.0
220
0.0
230
1.0
 70
    11
 71
     3
 72
    28
 73
    24
 74
     0
 42
0.0000000001
 43
0.0000000001
 12
1.0
 22
0.0
 32
0.0
 13
1.0
 23
0.0
 33
0.0
 40
0.0
 40
0.0
 40
0.0
 40
0.0
 40
0.1428571428571428
 40
0.1428571428571428
 40
0.1428571428571428
 40
0.1428571428571428
 40
0.2857142857142857
 40
0.2857142857142857
 40
0.2857142857142857
 40
0.2857142857142857
 40
0.4285714285714285
 40
0.4285714285714285
 40
0.4285714285714285
 40
0.4285714285714285
 40
0.5714285714285714
 40
0.5714285714285714
 40
0.5714285714285714
 40
0.5714285714285714
 40
0.7142857142857143
 40
0.7142857142857143
 40
0.7142857142857143
 40
0.7142857142857143
 40
1.0
 40
1.0
 40
1.0
 40
1.0
 10
-4.72298
 20
-5.75031
 30
0.0
 10
-4.72298
 20
-5.75031
 30
0.0
 10
-4.72298
 20
-7.49041
 30
0.0
 10
-4.72298
 20
-7.49041
 30
0.0
 10
-4.72298
 20
-7.49041
 30
0.0
 10
-4.72298
 20
-7.49041
 30
0.0
 10
-11.2345
 20
-7.49041
 30
0.0
 10
-11.2345
 20
-7.49041
 30
0.0
 10
-11.2345
 20
-7.49041
 30
0.0
 10
-10.64464
 20
-7.41493
 30
0.0
 10
-10.129
 20
-7.05696
 30
0.0
 10
-9.85255
 20
-6.53046
 30
0.0
 10
-9.85255
 20
-6.53046
 30
0.0
 10
-9.21335
 20
-6.88254
 30
0.0
 10
-8.44262
 20
-6.8983
 30
0.0
 10
-7.78986
 20
-6.57204
 30
0.0
 10
-7.78986
 20
-6.57204
 30
0.0
 10
-7.32171
 20
-7.02539
 30
0.0
 10
-6.64961
 20
-7.19908
 30
0.0
 10
-6.02042
 20
-7.0293
 30
0.0
 10
-6.02042
 20
-7.0293
 30
0.0
 10
-5.39124
 20
-6.85953
 30
0.0
 10
-4.89953
 20
-6.37763
 30
0.0
 10
-4.72298
 20
-5.75031
 30
0.0
  0
SPLINE
  5
4A
330
1F
100
AcDbEntity
  8
Layer 1
370
     9
100
AcDbSpline
210
0.0
220
0.0
230
1.0
 70
    11
 71
     3
 72
    28
 73
    24
 74
     0
 42
0.0000000001
 43
0.0000000001
 12
1.0
 22
0.0
 32
0.0
 13
1.0
 23
0.0
 33
0.0
 40
0.0
 40
0.0
 40
0.0
 40
0.0
 40
0.1428571428571428
 40
0.1428571428571428
 40
0.1428571428571428
 40
0.1428571428571428
 40
0.2857142857142857
 40
0.2857142857142857
 40
0.2857142857142857
 40
0.2857142857142857
 40
0.4285714285714285
 40
0.4285714285714285
 40
0.4285714285714285
 40
0.4285714285714285
 40
0.5714285714285714
 40
0.5714285714285714
 40
0.5714285714285714
 40
0.5714285714285714
 40
0.7142857142857143
 40
0.7142857142857143
 40
0.7142857142857143
 40
0.7142857142857143
 40
1.0
 40
1.0
 40
1.0
 40
1.0
 10
-5.90626
 20
-0.55242
 30
0.0
 10
-6.32455
 20
-0.56467
 30
0.0
 10
-6.71147
 20
-0.77715
 30
0.0
 10
-6.94625
 20
-1.12354
 30
0.0
 10
-6.94625
 20
-1.12354
 30
0.0
 10
-7.18104
 20
-1.46994
 30
0.0
 10
-7.23616
 20
-1.90508
 30
0.0
 10
-7.09258
 20
-2.29814
 30
0.0
 10
-7.09258
 20
-2.29814
 30
0.0
 10
-7.65238
 20
-2.41401
 30
0.0
 10
-8.22962
 20
-2.20391
 30
0.0
 10
-8.58397
 20
-1.75532
 30
0.0
 10
-8.58397
 20
-1.75532
 30
0.0
 10
-8.93832
 20
-1.30673
 30
0.0
 10
-9.00579
 20
-0.68961
 30
0.0
 10
-8.76344
 20
-0.17186
 30
0.0
 10
-8.76344
 20
-0.17186
 30
0.0
 10
-7.92557
 20
-0.55033
 30
0.0
 10
-6.94715
 20
-0.4278
 30
0.0
 10
-6.22918
 20
0.14648
 30
0.0
 10
-6.22918
 20
0.14648
 30
0.0
 10
-6.06308
 20
-0.05469
 30
0.0
 10
-5.95182
 20
-0.29555
 30
0.0
 10
-5.90626
 20
-0.55242
 30
0.0
  0
SPLINE
  5
4B
330
1F
100
AcDbEntity
  8
Layer 1
370
     9
100
AcDbSpline
210
0.0
220
0.0
230
1.0
 70
     8
 71
     3
 72
    32
 73
    28
 74
     0
 42
0.0000000001
 43
0.0000000001
 12
1.0
 22
0.0
 32
0.0
 13
1.0
 23
0.0
 33
0.0
 40
0.0
 40
0.0
 40
0.0
 40
0.0
 40
0.125
 40
0.125
 40
0.125
 40
0.125
 40
0.25
 40
0.25
 40
0.25
 40
0.25
 40
0.375
 40
0.375
 40
0.375
 40
0.375
 40
0.5
 40
0.5
 40
0.5
 40
0.5
 40
0.625
 40
0.625
 40
0.625
 40
0.625
 40
0.75
 40
0.75
 40
0.75
 40
0.75
 40
1.0
 40
1.0
 40
1.0
 40
1.0
 10
-4.72298
 20
5.98828
 30
0.0
 10
-4.72298
 20
5.98828
 30
0.0
 10
-4.72298
 20
4.08313
 30
0.0
 10
-4.72298
 20
4.08313
 30
0.0
 10
-4.72298
 20
4.08313
 30
0.0
 10
-5.05005
 20
4.10841
 30
0.0
 10
-5.37865
 20
4.06457
 30
0.0
 10
-5.68764
 20
3.95436
 30
0.0
 10
-5.68764
 20
3.95436
 30
0.0
 10
-5.82305
 20
3.90586
 30
0.0
 10
-5.95339
 20
3.84432
 30
0.0
 10
-6.07687
 20
3.77056
 30
0.0
 10
-6.07687
 20
3.77056
 30
0.0
 10
-6.19905
 20
3.88786
 30
0.0
 10
-6.33317
 20
3.992
 30
0.0
 10
-6.4771
 20
4.08128
 30
0.0
 10
-6.4771
 20
4.08128
 30
0.0
 10
-6.16506
 20
4.68577
 30
0.0
 10
-6.17327
 20
5.40513
 30
0.0
 10
-6.49957
 20
6.00203
 30
0.0
 10
-6.49957
 20
6.00203
 30
0.0
 10
-6.3469
 20
6.09226
 30
0.0
 10
-6.2046
 20
6.19892
 30
0.0
 10
-6.07519
 20
6.32018
 30
0.0
 10
-6.07519
 20
6.32018
 30
0.0
 10
-5.68448
 20
6.03821
 30
0.0
 10
-5.19981
 20
5.91915
 30
0.0
 10
-4.72297
 20
5.98828
 30
0.0
  0
SPLINE
  5
4C
330
1F
100
AcDbEntity
  8
Layer 1
370
     9
100
AcDbSpline
210
0.0
220
0.0
230
1.0
 70
     8
 71
     3
 72
    24
 73
    20
 74
     0
 42
0.0000000001
 43
0.0000000001
 12
1.0
 22
0.0
 32
0.0
 13
1.0
 23
0.0
 33
0.0
 40
0.0
 40
0.0
 40
0.0
 40
0.0
 40
0.1666666666666667
 40
0.1666666666666667
 40
0.1666666666666667
 40
0.1666666666666667
 40
0.3333333333333333
 40
0.3333333333333333
 40
0.3333333333333333
 40
0.3333333333333333
 40
0.5
 40
0.5
 40
0.5
 40
0.5
 40
0.6666666666666666
 40
0.6666666666666666
 40
0.6666666666666666
 40
0.6666666666666666
 40
1.0
 40
1.0
 40
1.0
 40
1.0
 10
-9.33604
 20
6.27167
 30
0.0
 10
-9.006
 20
5.98038
 30
0.0
 10
-8.6031
 20
5.78451
 30
0.0
 10
-8.17014
 20
5.70501
 30
0.0
 10
-8.17014
 20
5.70501
 30
0.0
 10
-8.2961
 20
5.28193
 30
0.0
 10
-8.29411
 20
4.83129
 30
0.0
 10
-8.16425
 20
4.4094
 30
0.0
 10
-8.16425
 20
4.4094
 30
0.0
 10
-8.6195
 20
4.3307
 30
0.0
 10
-9.04251
 20
4.12349
 30
0.0
 10
-9.38364
 20
3.81192
 30
0.0
 10
-9.38364
 20
3.81192
 30
0.0
 10
-10.05123
 20
4.42425
 30
0.0
 10
-10.09464
 20
5.46335
 30
0.0
 10
-9.48234
 20
6.13096
 30
0.0
 10
-9.48234
 20
6.13096
 30
0.0
 10
-9.43653
 20
6.18085
 30
0.0
 10
-9.38768
 20
6.22786
 30
0.0
 10
-9.33605
 20
6.27169
 30
0.0
  0
SPLINE
  5
4D
330
1F
100
AcDbEntity
  8
Layer 1
370
     9
100
AcDbSpline
210
0.0
220
0.0
230
1.0
 70
     8
 71
     3
 72
    32
 73
    28
 74
     0
 42
0.0000000001
 43
0.0000000001
 12
1.0
 22
0.0
 32
0.0
 13
1.0
 23
0.0
 33
0.0
 40
0.0
 40
0.0
 40
0.0
 40
0.0
 40
0.125
 40
0.125
 40
0.125
 40
0.125
 40
0.25
 40
0.25
 40
0.25
 40
0.25
 40
0.375
 40
0.375
 40
0.375
 40
0.375
 40
0.5
 40
0.5
 40
0.5
 40
0.5
 40
0.625
 40
0.625
 40
0.625
 40
0.625
 40
0.75
 40
0.75
 40
0.75
 40
0.75
 40
1.0
 40
1.0
 40
1.0
 40
1.0
 10
-13.23722
 20
-2.43246
 30
0.0
 10
-13.23722
 20
-2.43246
 30
0.0
 10
-13.23723
 20
0.43795
 30
0.0
 10
-13.23723
 20
0.43795
 30
0.0
 10
-13.23723
 20
0.43795
 30
0.0
 10
-13.22078
 20
0.43767
 30
0.0
 10
-13.20438
 20
0.4395
 30
0.0
 10
-13.1884
 20
0.44338
 30
0.0
 10
-13.1884
 20
0.44338
 30
0.0
 10
-12.54357
 20
0.60466
 30
0.0
 10
-12.03002
 20
1.09028
 30
0.0
 10
-11.83363
 20
1.7253
 30
0.0
 10
-11.83363
 20
1.7253
 30
0.0
 10
-11.78324
 20
1.18685
 30
0.0
 10
-11.46171
 20
0.71177
 30
0.0
 10
-10.98032
 20
0.46534
 30
0.0
 10
-10.98032
 20
0.46534
 30
0.0
 10
-11.93038
 20
0.42475
 30
0.0
 10
-12.66775
 20
-0.37614
 30
0.0
 10
-12.62718
 20
-1.3262
 30
0.0
 10
-12.62718
 20
-1.3262
 30
0.0
 10
-12.62448
 20
-1.39048
 30
0.0
 10
-12.61817
 20
-1.45456
 30
0.0
 10
-12.60829
 20
-1.51813
 30
0.0
 10
-12.60829
 20
-1.51813
 30
0.0
 10
-12.94069
 20
-1.71737
 30
0.0
 10
-13.17014
 20
-2.05078
 30
0.0
 10
-13.23723
 20
-2.43246
 30
0.0
  0
SPLINE
  5
4E
330
1F
100
AcDbEntity
  8
Layer 1
370
     9
100
AcDbSpline
210
0.0
220
0.0
230
1.0
 70
     8
 71
     3
 72
    24
 73
    20
 74
     0
 42
0.0000000001
 43
0.0000000001
 12
1.0
 22
0.0
 32
0.0
 13
1.0
 23
0.0
 33
0.0
 40
0.0
 40
0.0
 40
0.0
 40
0.0
 40
0.1666666666666667
 40
0.1666666666666667
 40
0.1666666666666667
 40
0.1666666666666667
 40
0.3333333333333333
 40
0.3333333333333333
 40
0.3333333333333333
 40
0.3333333333333333
 40
0.5
 40
0.5
 40
0.5
 40
0.5
 40
0.6666666666666666
 40
0.6666666666666666
 40
0.6666666666666666
 40
0.6666666666666666
 40
1.0
 40
1.0
 40
1.0
 40
1.0
 10
-9.96654
 20
2.99987
 30
0.0
 10
-10.28019
 20
2.27761
 30
0.0
 10
-10.22666
 20
1.44911
 30
0.0
 10
-9.82206
 20
0.77358
 30
0.0
 10
-9.82206
 20
0.77358
 30
0.0
 10
-10.17292
 20
0.62714
 30
0.0
 10
-10.57288
 20
0.65906
 30
0.0
 10
-10.89607
 20
0.85929
 30
0.0
 10
-10.89607
 20
0.85929
 30
0.0
 10
-11.21926
 20
1.05953
 30
0.0
 10
-11.42611
 20
1.40636
 30
0.0
 10
-11.4512
 20
1.78572
 30
0.0
 10
-11.4512
 20
1.78572
 30
0.0
 10
-11.47629
 20
2.16507
 30
0.0
 10
-11.31672
 20
2.53322
 30
0.0
 10
-11.02271
 20
2.77426
 30
0.0
 10
-11.02271
 20
2.77426
 30
0.0
 10
-10.7287
 20
3.01532
 30
0.0
 10
-10.33359
 20
3.09885
 30
0.0
 10
-9.96652
 20
2.99988
 30
0.0
  0
SPLINE
  5
4F
330
1F
100
AcDbEntity
  8
Layer 1
370
     9
100
AcDbSpline
210
0.0
220
0.0
230
1.0
 70
     8
 71
     3
 72
    24
 73
    20
 74
     0
 42
0.0000000001
 43
0.0000000001
 12
1.0
 22
0.0
 32
0.0
 13
1.0
 23
0.0
 33
0.0
 40
0.0
 40
0.0
 40
0.0
 40
0.0
 40
0.1666666666666667
 40
0.1666666666666667
 40
0.1666666666666667
 40
0.1666666666666667
 40
0.3333333333333333
 40
0.3333333333333333
 40
0.3333333333333333
 40
0.3333333333333333
 40
0.5
 40
0.5
 40
0.5
 40
0.5
 40
0.6666666666666666
 40
0.6666666666666666
 40
0.6666666666666666
 40
0.6666666666666666
 40
1.0
 40
1.0
 40
1.0
 40
1.0
 10
-9.8304
 20
9.30159
 30
0.0
 10
-10.20957
 20
8.63943
 30
0.0
 10
-10.25797
 20
7.83884
 30
0.0
 10
-9.96074
 20
7.13606
 30
0.0
 10
-9.96074
 20
7.13606
 30
0.0
 10
-10.31881
 20
7.03357
 30
0.0
 10
-10.70434
 20
7.11105
 30
0.0
 10
-10.99502
 20
7.34391
 30
0.0
 10
-10.99502
 20
7.34391
 30
0.0
 10
-11.28569
 20
7.57678
 30
0.0
 10
-11.44524
 20
7.93902
 30
0.0
 10
-11.42334
 20
8.31082
 30
0.0
 10
-11.42334
 20
8.31082
 30
0.0
 10
-11.40143
 20
8.68263
 30
0.0
 10
-11.2006
 20
9.02074
 30
0.0
 10
-10.88458
 20
9.21785
 30
0.0
 10
-10.88458
 20
9.21785
 30
0.0
 10
-10.56856
 20
9.41496
 30
0.0
 10
-10.1739
 20
9.44548
 30
0.0
 10
-9.83035
 20
9.30161
 30
0.0
  0
SPLINE
  5
50
330
1F
100
AcDbEntity
  8
Layer 1
370
     9
100
AcDbSpline
210
0.0
220
0.0
230
1.0
 70
     8
 71
     3
 72
    36
 73
    32
 74
     0
 42
0.0000000001
 43
0.0000000001
 12
1.0
 22
0.0
 32
0.0
 13
1.0
 23
0.0
 33
0.0
 40
0.0
 40
0.0
 40
0.0
 40
0.0
 40
0.1111111111111111
 40
0.1111111111111111
 40
0.1111111111111111
 40
0.1111111111111111
 40
0.2222222222222222
 40
0.2222222222222222
 40
0.2222222222222222
 40
0.2222222222222222
 40
0.3333333333333333
 40
0.3333333333333333
 40
0.3333333333333333
 40
0.3333333333333333
 40
0.4444444444444444
 40
0.4444444444444444
 40
0.4444444444444444
 40
0.4444444444444444
 40
0.5555555555555556
 40
0.5555555555555556
 40
0.5555555555555556
 40
0.5555555555555556
 40
0.6666666666666666
 40
0.6666666666666666
 40
0.6666666666666666
 40
0.6666666666666666
 40
0.7777777777777778
 40
0.7777777777777778
 40
0.7777777777777778
 40
0.7777777777777778
 40
1.0
 40
1.0
 40
1.0
 40
1.0
 10
-13.23722
 20
10.66215
 30
0.0
 10
-13.23722
 20
10.66215
 30
0.0
 10
-12.50707
 20
10.66215
 30
0.0
 10
-12.50707
 20
10.66215
 30
0.0
 10
-12.50707
 20
10.66215
 30
0.0
 10
-12.50713
 20
10.62903
 30
0.0
 10
-12.49867
 20
10.59648
 30
0.0
 10
-12.4825
 20
10.56758
 30
0.0
 10
-12.4825
 20
10.56758
 30
0.0
 10
-12.15439
 20
9.99301
 30
0.0
 10
-11.54009
 20
9.64285
 30
0.0
 10
-10.87854
 20
9.65405
 30
0.0
 10
-10.87854
 20
9.65405
 30
0.0
 10
-11.37829
 20
9.4371
 30
0.0
 10
-11.72765
 20
8.97465
 30
0.0
 10
-11.79919
 20
8.43455
 30
0.0
 10
-11.79919
 20
8.43455
 30
0.0
 10
-11.91507
 20
8.72691
 30
0.0
 10
-12.10649
 20
8.98309
 30
0.0
 10
-12.35407
 20
9.177
 30
0.0
 10
-12.35407
 20
9.177
 30
0.0
 10
-12.60072
 20
9.3702
 30
0.0
 10
-12.88931
 20
9.50249
 30
0.0
 10
-13.19667
 20
9.5632
 30
0.0
 10
-13.19667
 20
9.5632
 30
0.0
 10
-13.21003
 20
9.56582
 30
0.0
 10
-13.22362
 20
9.56704
 30
0.0
 10
-13.23723
 20
9.56682
 30
0.0
 10
-13.23723
 20
9.56682
 30
0.0
 10
-13.23723
 20
9.56682
 30
0.0
 10
-13.23723
 20
10.66215
 30
0.0
 10
-13.23723
 20
10.66215
 30
0.0
  0
SPLINE
  5
51
330
1F
100
AcDbEntity
  8
Layer 1
370
     9
100
AcDbSpline
210
0.0
220
0.0
230
1.0
 70
     8
 71
     3
 72
    20
 73
    16
 74
     0
 42
0.0000000001
 43
0.0000000001
 12
1.0
 22
0.0
 32
0.0
 13
1.0
 23
0.0
 33
0.0
 40
0.0
 40
0.0
 40
0.0
 40
0.0
 40
0.2
 40
0.2
 40
0.2
 40
0.2
 40
0.4
 40
0.4
 40
0.4
 40
0.4
 40
0.6
 40
0.6
 40
0.6
 40
0.6
 40
1.0
 40
1.0
 40
1.0
 40
1.0
 10
-13.23722
 20
7.18085
 30
0.0
 10
-13.23722
 20
7.18085
 30
0.0
 10
-13.23723
 20
9.17745
 30
0.0
 10
-13.23723
 20
9.17745
 30
0.0
 10
-13.23723
 20
9.17745
 30
0.0
 10
-12.9278
 20
9.10938
 30
0.0
 10
-12.64584
 20
8.94976
 30
0.0
 10
-12.42815
 20
8.71956
 30
0.0
 10
-12.42815
 20
8.71956
 30
0.0
 10
-12.06262
 20
8.33317
 30
0.0
 10
-11.96072
 20
7.7664
 30
0.0
 10
-12.16809
 20
7.2766
 30
0.0
 10
-12.16809
 20
7.2766
 30
0.0
 10
-12.52703
 20
7.33139
 30
0.0
 10
-12.89374
 20
7.29858
 30
0.0
 10
-13.23724
 20
7.18085
 30
0.0
  0
SPLINE
  5
52
330
1F
100
AcDbEntity
  8
Layer 1
370
     9
100
AcDbSpline
210
0.0
220
0.0
230
1.0
 70
    11
 71
     3
 72
    28
 73
    24
 74
     0
 42
0.0000000001
 43
0.0000000001
 12
1.0
 22
0.0
 32
0.0
 13
1.0
 23
0.0
 33
0.0
 40
0.0
 40
0.0
 40
0.0
 40
0.0
 40
0.1428571428571428
 40
0.1428571428571428
 40
0.1428571428571428
 40
0.1428571428571428
 40
0.2857142857142857
 40
0.2857142857142857
 40
0.2857142857142857
 40
0.2857142857142857
 40
0.4285714285714285
 40
0.4285714285714285
 40
0.4285714285714285
 40
0.4285714285714285
 40
0.5714285714285714
 40
0.5714285714285714
 40
0.5714285714285714
 40
0.5714285714285714
 40
0.7142857142857143
 40
0.7142857142857143
 40
0.7142857142857143
 40
0.7142857142857143
 40
1.0
 40
1.0
 40
1.0
 40
1.0
 10
-4.72298
 20
-2.46812
 30
0.0
 10
-4.72298
 20
-2.46812
 30
0.0
 10
-4.72298
 20
-4.74243
 30
0.0
 10
-4.72298
 20
-4.74243
 30
0.0
 10
-4.72298
 20
-4.74243
 30
0.0
 10
-4.9937
 20
-3.79457
 30
0.0
 10
-5.95721
 20
-3.22422
 30
0.0
 10
-6.91788
 20
-3.44531
 30
0.0
 10
-6.91788
 20
-3.44531
 30
0.0
 10
-7.11569
 20
-3.12881
 30
0.0
 10
-7.39065
 20
-2.86797
 30
0.0
 10
-7.71716
 20
-2.68719
 30
0.0
 10
-7.71716
 20
-2.68719
 30
0.0
 10
-7.44501
 20
-2.734
 30
0.0
 10
-7.16603
 20
-2.7209
 30
0.0
 10
-6.89946
 20
-2.64875
 30
0.0
 10
-6.89946
 20
-2.64875
 30
0.0
 10
-6.62901
 20
-2.99772
 30
0.0
 10
-6.2002
 20
-3.18593
 30
0.0
 10
-5.76026
 20
-3.14875
 30
0.0
 10
-5.76026
 20
-3.14875
 30
0.0
 10
-5.32033
 20
-3.11157
 30
0.0
 10
-4.93103
 20
-2.85753
 30
0.0
 10
-4.72298
 20
-2.46812
 30
0.0
  0
SPLINE
  5
53
330
1F
100
AcDbEntity
  8
Layer 1
370
     9
100
AcDbSpline
210
0.0
220
0.0
230
1.0
 70
     8
 71
     3
 72
    24
 73
    20
 74
     0
 42
0.0000000001
 43
0.0000000001
 12
1.0
 22
0.0
 32
0.0
 13
1.0
 23
0.0
 33
0.0
 40
0.0
 40
0.0
 40
0.0
 40
0.0
 40
0.1666666666666667
 40
0.1666666666666667
 40
0.1666666666666667
 40
0.1666666666666667
 40
0.3333333333333333
 40
0.3333333333333333
 40
0.3333333333333333
 40
0.3333333333333333
 40
0.5
 40
0.5
 40
0.5
 40
0.5
 40
0.6666666666666666
 40
0.6666666666666666
 40
0.6666666666666666
 40
0.6666666666666666
 40
1.0
 40
1.0
 40
1.0
 40
1.0
 10
-13.23722
 20
0.82934
 30
0.0
 10
-13.23722
 20
0.82934
 30
0.0
 10
-13.23723
 20
2.92303
 30
0.0
 10
-13.23723
 20
2.92303
 30
0.0
 10
-13.23723
 20
2.92303
 30
0.0
 10
-12.91768
 20
2.81353
 30
0.0
 10
-12.57772
 20
2.77736
 30
0.0
 10
-12.24229
 20
2.81721
 30
0.0
 10
-12.24229
 20
2.81721
 30
0.0
 10
-12.09717
 20
2.44855
 30
0.0
 10
-12.10445
 20
2.03735
 30
0.0
 10
-12.26252
 20
1.67407
 30
0.0
 10
-12.26252
 20
1.67407
 30
0.0
 10
-12.42059
 20
1.31078
 30
0.0
 10
-12.71827
 20
1.02447
 30
0.0
 10
-13.08693
 20
0.87937
 30
0.0
 10
-13.08693
 20
0.87937
 30
0.0
 10
-13.13611
 20
0.86004
 30
0.0
 10
-13.18628
 20
0.84334
 30
0.0
 10
-13.23723
 20
0.82933
 30
0.0
  0
SPLINE
  5
54
330
1F
100
AcDbEntity
  8
Layer 1
370
     9
100
AcDbSpline
210
0.0
220
0.0
230
1.0
 70
     8
 71
     3
 72
    20
 73
    16
 74
     0
 42
0.0000000001
 43
0.0000000001
 12
1.0
 22
0.0
 32
0.0
 13
1.0
 23
0.0
 33
0.0
 40
0.0
 40
0.0
 40
0.0
 40
0.0
 40
0.2
 40
0.2
 40
0.2
 40
0.2
 40
0.4
 40
0.4
 40
0.4
 40
0.4
 40
0.6
 40
0.6
 40
0.6
 40
0.6
 40
1.0
 40
1.0
 40
1.0
 40
1.0
 10
-11.0375
 20
-2.96967
 30
0.0
 10
-11.16786
 20
-3.35242
 30
0.0
 10
-11.5273
 20
-3.6098
 30
0.0
 10
-11.93164
 20
-3.60993
 30
0.0
 10
-11.93164
 20
-3.60993
 30
0.0
 10
-12.33598
 20
-3.61005
 30
0.0
 10
-12.69559
 20
-3.35289
 30
0.0
 10
-12.82618
 20
-2.97021
 30
0.0
 10
-12.82618
 20
-2.97021
 30
0.0
 10
-12.95678
 20
-2.58755
 30
0.0
 10
-12.81907
 20
-2.15632
 30
0.0
 10
-12.49901
 20
-1.90923
 30
0.0
 10
-12.49901
 20
-1.90923
 30
0.0
 10
-12.24759
 20
-2.50785
 30
0.0
 10
-11.68462
 20
-2.91665
 30
0.0
 10
-11.03751
 20
-2.96967
 30
0.0
  0
SPLINE
  5
55
330
1F
100
AcDbEntity
  8
Layer 1
370
     9
100
AcDbSpline
210
0.0
220
0.0
230
1.0
 70
     8
 71
     3
 72
    24
 73
    20
 74
     0
 42
0.0000000001
 43
0.0000000001
 12
1.0
 22
0.0
 32
0.0
 13
1.0
 23
0.0
 33
0.0
 40
0.0
 40
0.0
 40
0.0
 40
0.0
 40
0.1666666666666667
 40
0.1666666666666667
 40
0.1666666666666667
 40
0.1666666666666667
 40
0.3333333333333333
 40
0.3333333333333333
 40
0.3333333333333333
 40
0.3333333333333333
 40
0.5
 40
0.5
 40
0.5
 40
0.5
 40
0.6666666666666666
 40
0.6666666666666666
 40
0.6666666666666666
 40
0.6666666666666666
 40
1.0
 40
1.0
 40
1.0
 40
1.0
 10
-4.72298
 20
3.17712
 30
0.0
 10
-4.72298
 20
3.17712
 30
0.0
 10
-4.72298
 20
0.77803
 30
0.0
 10
-4.72298
 20
0.77803
 30
0.0
 10
-4.72298
 20
0.77803
 30
0.0
 10
-5.02542
 20
0.71963
 30
0.0
 10
-5.33874
 20
0.7574
 30
0.0
 10
-5.61868
 20
0.88591
 30
0.0
 10
-5.61868
 20
0.88591
 30
0.0
 10
-5.28905
 20
1.50665
 30
0.0
 10
-5.24384
 20
2.23903
 30
0.0
 10
-5.49509
 20
2.89541
 30
0.0
 10
-5.49509
 20
2.89541
 30
0.0
 10
-5.24984
 20
2.94542
 30
0.0
 10
-5.01253
 20
3.02831
 30
0.0
 10
-4.78948
 20
3.1419
 30
0.0
 10
-4.78948
 20
3.1419
 30
0.0
 10
-4.76713
 20
3.15332
 30
0.0
 10
-4.74495
 20
3.16507
 30
0.0
 10
-4.72294
 20
3.17713
 30
0.0
  0
SPLINE
  5
56
330
1F
100
AcDbEntity
  8
Layer 1
370
     9
100
AcDbSpline
210
0.0
220
0.0
230
1.0
 70
     8
 71
     3
 72
    20
 73
    16
 74
     0
 42
0.0000000001
 43
0.0000000001
 12
1.0
 22
0.0
 32
0.0
 13
1.0
 23
0.0
 33
0.0
 40
0.0
 40
0.0
 40
0.0
 40
0.0
 40
0.2
 40
0.2
 40
0.2
 40
0.2
 40
0.4
 40
0.4
 40
0.4
 40
0.4
 40
0.6
 40
0.6
 40
0.6
 40
0.6
 40
1.0
 40
1.0
 40
1.0
 40
1.0
 10
-7.77768
 20
5.66555
 30
0.0
 10
-7.45945
 20
5.6596
 30
0.0
 10
-7.14327
 20
5.71633
 30
0.0
 10
-6.84698
 20
5.83261
 30
0.0
 10
-6.84698
 20
5.83261
 30
0.0
 10
-6.57339
 20
5.34595
 30
0.0
 10
-6.56352
 20
4.7537
 30
0.0
 10
-6.82025
 20
4.25794
 30
0.0
 10
-6.82025
 20
4.25794
 30
0.0
 10
-7.12088
 20
4.38346
 30
0.0
 10
-7.44364
 20
4.44697
 30
0.0
 10
-7.76942
 20
4.44466
 30
0.0
 10
-7.76942
 20
4.44466
 30
0.0
 10
-7.91026
 20
4.83885
 30
0.0
 10
-7.91312
 20
5.26943
 30
0.0
 10
-7.77772
 20
5.66552
 30
0.0
  0
SPLINE
  5
57
330
1F
100
AcDbEntity
  8
Layer 1
370
     9
100
AcDbSpline
210
0.0
220
0.0
230
1.0
 70
     8
 71
     3
 72
    20
 73
    16
 74
     0
 42
0.0000000001
 43
0.0000000001
 12
1.0
 22
0.0
 32
0.0
 13
1.0
 23
0.0
 33
0.0
 40
0.0
 40
0.0
 40
0.0
 40
0.0
 40
0.2
 40
0.2
 40
0.2
 40
0.2
 40
0.4
 40
0.4
 40
0.4
 40
0.4
 40
0.6
 40
0.6
 40
0.6
 40
0.6
 40
1.0
 40
1.0
 40
1.0
 40
1.0
 10
-4.72298
 20
9.27001
 30
0.0
 10
-4.72298
 20
9.27001
 30
0.0
 10
-4.72298
 20
6.88291
 30
0.0
 10
-4.72298
 20
6.88291
 30
0.0
 10
-4.72298
 20
6.88291
 30
0.0
 10
-4.94695
 20
7.04379
 30
0.0
 10
-5.19867
 20
7.16182
 30
0.0
 10
-5.46559
 20
7.23109
 30
0.0
 10
-5.46559
 20
7.23109
 30
0.0
 10
-5.22679
 20
7.86538
 30
0.0
 10
-5.26319
 20
8.57001
 30
0.0
 10
-5.56648
 20
9.17612
 30
0.0
 10
-5.56648
 20
9.17612
 30
0.0
 10
-5.30073
 20
9.28968
 30
0.0
 10
-5.00722
 20
9.32233
 30
0.0
 10
-4.72299
 20
9.27003
 30
0.0
  0
SPLINE
  5
58
330
1F
100
AcDbEntity
  8
Layer 1
370
     9
100
AcDbSpline
210
0.0
220
0.0
230
1.0
 70
    11
 71
     3
 72
    16
 73
    12
 74
     0
 42
0.0000000001
 43
0.0000000001
 12
1.0
 22
0.0
 32
0.0
 13
1.0
 23
0.0
 33
0.0
 40
0.0
 40
0.0
 40
0.0
 40
0.0
 40
0.25
 40
0.25
 40
0.25
 40
0.25
 40
0.5
 40
0.5
 40
0.5
 40
0.5
 40
1.0
 40
1.0
 40
1.0
 40
1.0
 10
-7.70938
 20
-6.07126
 30
0.0
 10
-8.16508
 20
-5.40489
 30
0.0
 10
-7.99277
 20
-4.49422
 30
0.0
 10
-7.3264
 20
-4.03852
 30
0.0
 10
-7.3264
 20
-4.03852
 30
0.0
 10
-7.25733
 20
-3.99133
 30
0.0
 10
-7.18431
 20
-3.95016
 30
0.0
 10
-7.10819
 20
-3.91546
 30
0.0
 10
-7.10819
 20
-3.91546
 30
0.0
 10
-6.79304
 20
-4.68656
 30
0.0
 10
-7.04105
 20
-5.57403
 30
0.0
 10
-7.70938
 20
-6.07126
 30
0.0
  0
SPLINE
  5
59
330
1F
100
AcDbEntity
  8
Layer 1
370
     9
100
AcDbSpline
210
0.0
220
0.0
230
1.0
 70
     8
 71
     3
 72
    20
 73
    16
 74
     0
 42
0.0000000001
 43
0.0000000001
 12
1.0
 22
0.0
 32
0.0
 13
1.0
 23
0.0
 33
0.0
 40
0.0
 40
0.0
 40
0.0
 40
0.0
 40
0.2
 40
0.2
 40
0.2
 40
0.2
 40
0.4
 40
0.4
 40
0.4
 40
0.4
 40
0.6
 40
0.6
 40
0.6
 40
0.6
 40
1.0
 40
1.0
 40
1.0
 40
1.0
 10
-6.5178
 20
-2.49964
 30
0.0
 10
-5.95482
 20
-2.20231
 30
0.0
 10
-5.57624
 20
-1.64556
 30
0.0
 10
-5.5073
 20
-1.01263
 30
0.0
 10
-5.5073
 20
-1.01263
 30
0.0
 10
-5.16523
 20
-1.15355
 30
0.0
 10
-4.9411
 20
-1.48598
 30
0.0
 10
-4.93875
 20
-1.85594
 30
0.0
 10
-4.93875
 20
-1.85594
 30
0.0
 10
-4.9364
 20
-2.22591
 30
0.0
 10
-5.15628
 20
-2.56115
 30
0.0
 10
-5.49655
 20
-2.7064
 30
0.0
 10
-5.49655
 20
-2.7064
 30
0.0
 10
-5.83681
 20
-2.85165
 30
0.0
 10
-6.25227
 20
-2.75724
 30
0.0
 10
-6.51782
 20
-2.49963
 30
0.0
  0
SPLINE
  5
5A
330
1F
100
AcDbEntity
  8
Layer 1
370
     9
100
AcDbSpline
210
0.0
220
0.0
230
1.0
 70
     8
 71
     3
 72
    24
 73
    20
 74
     0
 42
0.0000000001
 43
0.0000000001
 12
1.0
 22
0.0
 32
0.0
 13
1.0
 23
0.0
 33
0.0
 40
0.0
 40
0.0
 40
0.0
 40
0.0
 40
0.1666666666666667
 40
0.1666666666666667
 40
0.1666666666666667
 40
0.1666666666666667
 40
0.3333333333333333
 40
0.3333333333333333
 40
0.3333333333333333
 40
0.3333333333333333
 40
0.5
 40
0.5
 40
0.5
 40
0.5
 40
0.6666666666666666
 40
0.6666666666666666
 40
0.6666666666666666
 40
0.6666666666666666
 40
1.0
 40
1.0
 40
1.0
 40
1.0
 10
-4.72298
 20
0.38651
 30
0.0
 10
-4.72298
 20
0.38651
 30
0.0
 10
-4.72298
 20
-1.23823
 30
0.0
 10
-4.72298
 20
-1.23823
 30
0.0
 10
-4.72298
 20
-1.23823
 30
0.0
 10
-4.88898
 20
-0.92924
 30
0.0
 10
-5.17221
 20
-0.70026
 30
0.0
 10
-5.50918
 20
-0.60287
 30
0.0
 10
-5.50918
 20
-0.60287
 30
0.0
 10
-5.55166
 20
-0.22792
 30
0.0
 10
-5.70476
 20
0.1257
 30
0.0
 10
-5.94921
 20
0.41317
 30
0.0
 10
-5.94921
 20
0.41317
 30
0.0
 10
-5.90726
 20
0.4601
 30
0.0
 10
-5.86715
 20
0.50864
 30
0.0
 10
-5.82897
 20
0.5587
 30
0.0
 10
-5.82897
 20
0.5587
 30
0.0
 10
-5.48662
 20
0.38923
 30
0.0
 10
-5.10067
 20
0.3291
 30
0.0
 10
-4.72301
 20
0.38651
 30
0.0
  0
SPLINE
  5
5B
330
1F
100
AcDbEntity
  8
Layer 1
370
     9
100
AcDbSpline
210
0.0
220
0.0
230
1.0
 70
     8
 71
     3
 72
    28
 73
    24
 74
     0
 42
0.0000000001
 43
0.0000000001
 12
1.0
 22
0.0
 32
0.0
 13
1.0
 23
0.0
 33
0.0
 40
0.0
 40
0.0
 40
0.0
 40
0.0
 40
0.1428571428571428
 40
0.1428571428571428
 40
0.1428571428571428
 40
0.1428571428571428
 40
0.2857142857142857
 40
0.2857142857142857
 40
0.2857142857142857
 40
0.2857142857142857
 40
0.4285714285714285
 40
0.4285714285714285
 40
0.4285714285714285
 40
0.4285714285714285
 40
0.5714285714285714
 40
0.5714285714285714
 40
0.5714285714285714
 40
0.5714285714285714
 40
0.7142857142857143
 40
0.7142857142857143
 40
0.7142857142857143
 40
0.7142857142857143
 40
1.0
 40
1.0
 40
1.0
 40
1.0
 10
-5.57657
 20
10.66215
 30
0.0
 10
-5.57657
 20
10.66215
 30
0.0
 10
-4.72298
 20
10.66215
 30
0.0
 10
-4.72298
 20
10.66215
 30
0.0
 10
-4.72298
 20
10.66215
 30
0.0
 10
-4.72298
 20
10.66215
 30
0.0
 10
-4.72298
 20
9.66103
 30
0.0
 10
-4.72298
 20
9.66103
 30
0.0
 10
-4.72298
 20
9.66103
 30
0.0
 10
-5.07892
 20
9.71258
 30
0.0
 10
-5.44198
 20
9.65968
 30
0.0
 10
-5.76838
 20
9.50861
 30
0.0
 10
-5.76838
 20
9.50861
 30
0.0
 10
-5.82529
 20
9.58734
 30
0.0
 10
-5.88688
 20
9.66257
 30
0.0
 10
-5.95284
 20
9.7339
 30
0.0
 10
-5.95284
 20
9.7339
 30
0.0
 10
-5.7482
 20
9.99596
 30
0.0
 10
-5.61865
 20
10.30855
 30
0.0
 10
-5.57802
 20
10.63855
 30
0.0
 10
-5.57802
 20
10.63855
 30
0.0
 10
-5.57705
 20
10.64638
 30
0.0
 10
-5.57657
 20
10.65425
 30
0.0
 10
-5.57657
 20
10.66214
 30
0.0
  0
SPLINE
  5
5C
330
1F
100
AcDbEntity
  8
Layer 1
370
     9
100
AcDbSpline
210
0.0
220
0.0
230
1.0
 70
     8
 71
     3
 72
    16
 73
    12
 74
     0
 42
0.0000000001
 43
0.0000000001
 12
1.0
 22
0.0
 32
0.0
 13
1.0
 23
0.0
 33
0.0
 40
0.0
 40
0.0
 40
0.0
 40
0.0
 40
0.25
 40
0.25
 40
0.25
 40
0.25
 40
0.5
 40
0.5
 40
0.5
 40
0.5
 40
1.0
 40
1.0
 40
1.0
 40
1.0
 10
-12.08793
 20
10.66215
 30
0.0
 10
-12.08793
 20
10.66215
 30
0.0
 10
-9.75215
 20
10.66215
 30
0.0
 10
-9.75215
 20
10.66215
 30
0.0
 10
-9.75215
 20
10.66215
 30
0.0
 10
-10.01259
 20
10.27296
 30
0.0
 10
-10.44978
 20
10.03908
 30
0.0
 10
-10.91806
 20
10.03842
 30
0.0
 10
-10.91806
 20
10.03842
 30
0.0
 10
-11.38634
 20
10.03776
 30
0.0
 10
-11.82639
 20
10.27369
 30
0.0
 10
-12.08793
 20
10.66214
 30
0.0
  0
SPLINE
  5
5D
330
1F
100
AcDbEntity
  8
Layer 1
370
     9
100
AcDbSpline
210
0.0
220
0.0
230
1.0
 70
     8
 71
     3
 72
    16
 73
    12
 74
     0
 42
0.0000000001
 43
0.0000000001
 12
1.0
 22
0.0
 32
0.0
 13
1.0
 23
0.0
 33
0.0
 40
0.0
 40
0.0
 40
0.0
 40
0.0
 40
0.25
 40
0.25
 40
0.25
 40
0.25
 40
0.5
 40
0.5
 40
0.5
 40
0.5
 40
1.0
 40
1.0
 40
1.0
 40
1.0
 10
-6.33987
 20
2.8531
 30
0.0
 10
-6.19006
 20
2.83193
 30
0.0
 10
-6.03851
 20
2.82604
 30
0.0
 10
-5.88751
 20
2.83552
 30
0.0
 10
-5.88751
 20
2.83552
 30
0.0
 10
-5.64598
 20
2.27493
 30
0.0
 10
-5.6677
 20
1.63526
 30
0.0
 10
-5.94627
 20
1.09213
 30
0.0
 10
-5.94627
 20
1.09213
 30
0.0
 10
-6.4589
 20
1.52314
 30
0.0
 10
-6.61976
 20
2.24462
 30
0.0
 10
-6.33985
 20
2.85307
 30
0.0
  0
SPLINE
  5
5E
330
1F
100
AcDbEntity
  8
Layer 1
370
     9
100
AcDbSpline
210
0.0
220
0.0
230
1.0
 70
     8
 71
     3
 72
    16
 73
    12
 74
     0
 42
0.0000000001
 43
0.0000000001
 12
1.0
 22
0.0
 32
0.0
 13
1.0
 23
0.0
 33
0.0
 40
0.0
 40
0.0
 40
0.0
 40
0.0
 40
0.25
 40
0.25
 40
0.25
 40
0.25
 40
0.5
 40
0.5
 40
0.5
 40
0.5
 40
1.0
 40
1.0
 40
1.0
 40
1.0
 10
-5.85514
 20
7.29616
 30
0.0
 10
-6.02144
 20
7.30901
 30
0.0
 10
-6.18862
 20
7.3032
 30
0.0
 10
-6.35362
 20
7.27886
 30
0.0
 10
-6.35362
 20
7.27886
 30
0.0
 10
-6.59111
 20
7.88339
 30
0.0
 10
-6.40645
 20
8.57275
 30
0.0
 10
-5.89927
 20
8.9785
 30
0.0
 10
-5.89927
 20
8.9785
 30
0.0
 10
-5.64409
 20
8.45016
 30
0.0
 10
-5.62814
 20
7.83723
 30
0.0
 10
-5.85511
 20
7.29618
 30
0.0
  0
SPLINE
  5
5F
330
1F
100
AcDbEntity
  8
Layer 1
370
     9
100
AcDbSpline
210
0.0
220
0.0
230
1.0
 70
     8
 71
     3
 72
    12
 73
     8
 74
     0
 42
0.0000000001
 43
0.0000000001
 12
1.0
 22
0.0
 32
0.0
 13
1.0
 23
0.0
 33
0.0
 40
0.0
 40
0.0
 40
0.0
 40
0.0
 40
0.3333333333333333
 40
0.3333333333333333
 40
0.3333333333333333
 40
0.3333333333333333
 40
1.0
 40
1.0
 40
1.0
 40
1.0
 10
-6.51017
 20
9.71902
 30
0.0
 10
-7.13643
 20
9.23259
 30
0.0
 10
-8.0386
 20
9.34201
 30
0.0
 10
-8.53214
 20
9.96268
 30
0.0
 10
-8.53214
 20
9.96268
 30
0.0
 10
-7.86265
 20
10.24379
 30
0.0
 10
-7.0939
 20
10.15089
 30
0.0
 10
-6.51017
 20
9.71903
 30
0.0
  0
SPLINE
  5
60
330
1F
100
AcDbEntity
  8
Layer 1
370
     9
100
AcDbSpline
210
0.0
220
0.0
230
1.0
 70
     8
 71
     3
 72
    24
 73
    20
 74
     0
 42
0.0000000001
 43
0.0000000001
 12
1.0
 22
0.0
 32
0.0
 13
1.0
 23
0.0
 33
0.0
 40
0.0
 40
0.0
 40
0.0
 40
0.0
 40
0.1666666666666667
 40
0.1666666666666667
 40
0.1666666666666667
 40
0.1666666666666667
 40
0.3333333333333333
 40
0.3333333333333333
 40
0.3333333333333333
 40
0.3333333333333333
 40
0.5
 40
0.5
 40
0.5
 40
0.5
 40
0.6666666666666666
 40
0.6666666666666666
 40
0.6666666666666666
 40
0.6666666666666666
 40
1.0
 40
1.0
 40
1.0
 40
1.0
 10
-9.77792
 20
6.78912
 30
0.0
 10
-9.72505
 20
6.70588
 30
0.0
 10
-9.66716
 20
6.62596
 30
0.0
 10
-9.60454
 20
6.54978
 30
0.0
 10
-9.60454
 20
6.54978
 30
0.0
 10
-9.96349
 20
6.23723
 30
0.0
 10
-10.20101
 20
5.8087
 30
0.0
 10
-10.2756
 20
5.33862
 30
0.0
 10
-10.2756
 20
5.33862
 30
0.0
 10
-10.3911
 20
6.1908
 30
0.0
 10
-10.97605
 20
6.90475
 30
0.0
 10
-11.78921
 20
7.1846
 30
0.0
 10
-11.78921
 20
7.1846
 30
0.0
 10
-11.73457
 20
7.32803
 30
0.0
 10
-11.69939
 20
7.47809
 30
0.0
 10
-11.6846
 20
7.63086
 30
0.0
 10
-11.6846
 20
7.63086
 30
0.0
 10
-11.36386
 20
6.8971
 30
0.0
 10
-10.53597
 20
6.53092
 30
0.0
 10
-9.77794
 20
6.78912
 30
0.0
  0
SPLINE
  5
61
330
1F
100
AcDbEntity
  8
Layer 1
370
     9
100
AcDbSpline
210
0.0
220
0.0
230
1.0
 70
     8
 71
     3
 72
    12
 73
     8
 74
     0
 42
0.0000000001
 43
0.0000000001
 12
1.0
 22
0.0
 32
0.0
 13
1.0
 23
0.0
 33
0.0
 40
0.0
 40
0.0
 40
0.0
 40
0.0
 40
0.3333333333333333
 40
0.3333333333333333
 40
0.3333333333333333
 40
0.3333333333333333
 40
1.0
 40
1.0
 40
1.0
 40
1.0
 10
-6.51448
 20
0.4129
 30
0.0
 10
-7.09915
 20
-0.03029
 30
0.0
 10
-7.8766
 20
-0.12769
 30
0.0
 10
-8.55284
 20
0.15685
 30
0.0
 10
-8.55284
 20
0.15685
 30
0.0
 10
-8.04418
 20
0.75955
 30
0.0
 10
-7.15693
 20
0.87037
 30
0.0
 10
-6.51452
 20
0.41289
 30
0.0
  0
SPLINE
  5
62
330
1F
100
AcDbEntity
  8
Layer 1
370
     9
100
AcDbSpline
210
0.0
220
0.0
230
1.0
 70
     8
 71
     3
 72
    16
 73
    12
 74
     0
 42
0.0000000001
 43
0.0000000001
 12
1.0
 22
0.0
 32
0.0
 13
1.0
 23
0.0
 33
0.0
 40
0.0
 40
0.0
 40
0.0
 40
0.0
 40
0.25
 40
0.25
 40
0.25
 40
0.25
 40
0.5
 40
0.5
 40
0.5
 40
0.5
 40
1.0
 40
1.0
 40
1.0
 40
1.0
 10
-13.23722
 20
-5.41368
 30
0.0
 10
-13.23722
 20
-5.41368
 30
0.0
 10
-13.23723
 20
-2.88665
 30
0.0
 10
-13.23723
 20
-2.88665
 30
0.0
 10
-13.23723
 20
-2.88665
 30
0.0
 10
-13.12919
 20
-3.48698
 30
0.0
 10
-12.63025
 20
-3.93846
 30
0.0
 10
-12.02206
 20
-3.98503
 30
0.0
 10
-12.02206
 20
-3.98503
 30
0.0
 10
-12.65975
 20
-4.20096
 30
0.0
 10
-13.1267
 20
-4.74954
 30
0.0
 10
-13.23722
 20
-5.41366
 30
0.0
  0
SPLINE
  5
63
330
1F
100
AcDbEntity
  8
Layer 1
370
     9
100
AcDbSpline
210
0.0
220
0.0
230
1.0
 70
     8
 71
     3
 72
    24
 73
    20
 74
     0
 42
0.0000000001
 43
0.0000000001
 12
1.0
 22
0.0
 32
0.0
 13
1.0
 23
0.0
 33
0.0
 40
0.0
 40
0.0
 40
0.0
 40
0.0
 40
0.1666666666666667
 40
0.1666666666666667
 40
0.1666666666666667
 40
0.1666666666666667
 40
0.3333333333333333
 40
0.3333333333333333
 40
0.3333333333333333
 40
0.3333333333333333
 40
0.5
 40
0.5
 40
0.5
 40
0.5
 40
0.6666666666666666
 40
0.6666666666666666
 40
0.6666666666666666
 40
0.6666666666666666
 40
1.0
 40
1.0
 40
1.0
 40
1.0
 10
-9.64693
 20
3.52978
 30
0.0
 10
-9.69385
 20
3.47069
 30
0.0
 10
-9.73796
 20
3.40943
 30
0.0
 10
-9.77914
 20
3.34621
 30
0.0
 10
-9.77914
 20
3.34621
 30
0.0
 10
-10.59529
 20
3.61802
 30
0.0
 10
-11.47726
 20
3.18253
 30
0.0
 10
-11.75539
 20
2.36852
 30
0.0
 10
-11.75539
 20
2.36852
 30
0.0
 10
-11.76478
 20
2.54871
 30
0.0
 10
-11.80003
 20
2.72655
 30
0.0
 10
-11.86011
 20
2.89668
 30
0.0
 10
-11.86011
 20
2.89668
 30
0.0
 10
-11.0241
 20
3.15437
 30
0.0
 10
-10.40997
 20
3.86732
 30
0.0
 10
-10.28005
 20
4.73243
 30
0.0
 10
-10.28005
 20
4.73243
 30
0.0
 10
-10.21364
 20
4.27054
 30
0.0
 10
-9.99017
 20
3.84591
 30
0.0
 10
-9.64692
 20
3.52978
 30
0.0
  0
SPLINE
  5
64
330
1F
100
AcDbEntity
  8
Layer 1
370
     9
100
AcDbSpline
210
0.0
220
0.0
230
1.0
 70
     8
 71
     3
 72
    16
 73
    12
 74
     0
 42
0.0000000001
 43
0.0000000001
 12
1.0
 22
0.0
 32
0.0
 13
1.0
 23
0.0
 33
0.0
 40
0.0
 40
0.0
 40
0.0
 40
0.0
 40
0.25
 40
0.25
 40
0.25
 40
0.25
 40
0.5
 40
0.5
 40
0.5
 40
0.5
 40
1.0
 40
1.0
 40
1.0
 40
1.0
 10
-9.61556
 20
2.83932
 30
0.0
 10
-9.31305
 20
2.63572
 30
0.0
 10
-9.12191
 20
2.3035
 30
0.0
 10
-9.09792
 20
1.93965
 30
0.0
 10
-9.09792
 20
1.93965
 30
0.0
 10
-9.07392
 20
1.57581
 30
0.0
 10
-9.22167
 20
1.21972
 30
0.0
 10
-9.49481
 20
0.97815
 30
0.0
 10
-9.49481
 20
0.97815
 30
0.0
 10
-9.8311
 20
1.54308
 30
0.0
 10
-9.87584
 20
2.23561
 30
0.0
 10
-9.61557
 20
2.83934
 30
0.0
  0
SPLINE
  5
65
330
1F
100
AcDbEntity
  8
Layer 1
370
     9
100
AcDbSpline
210
0.0
220
0.0
230
1.0
 70
     8
 71
     3
 72
    24
 73
    20
 74
     0
 42
0.0000000001
 43
0.0000000001
 12
1.0
 22
0.0
 32
0.0
 13
1.0
 23
0.0
 33
0.0
 40
0.0
 40
0.0
 40
0.0
 40
0.0
 40
0.1666666666666667
 40
0.1666666666666667
 40
0.1666666666666667
 40
0.1666666666666667
 40
0.3333333333333333
 40
0.3333333333333333
 40
0.3333333333333333
 40
0.3333333333333333
 40
0.5
 40
0.5
 40
0.5
 40
0.5
 40
0.6666666666666666
 40
0.6666666666666666
 40
0.6666666666666666
 40
0.6666666666666666
 40
1.0
 40
1.0
 40
1.0
 40
1.0
 10
-10.63174
 20
-2.95223
 30
0.0
 10
-9.86244
 20
-2.82196
 30
0.0
 10
-9.2748
 20
-2.19556
 30
0.0
 10
-9.19527
 20
-1.41938
 30
0.0
 10
-9.19527
 20
-1.41938
 30
0.0
 10
-9.04953
 20
-1.85435
 30
0.0
 10
-8.75152
 20
-2.22167
 30
0.0
 10
-8.35581
 20
-2.45375
 30
0.0
 10
-8.35581
 20
-2.45375
 30
0.0
 10
-9.46894
 20
-2.23757
 30
0.0
 10
-10.56405
 20
-2.89814
 30
0.0
 10
-10.88944
 20
-3.98438
 30
0.0
 10
-10.88944
 20
-3.98438
 30
0.0
 10
-11.06565
 20
-3.92623
 30
0.0
 10
-11.24973
 20
-3.89563
 30
0.0
 10
-11.43528
 20
-3.89365
 30
0.0
 10
-11.43528
 20
-3.89365
 30
0.0
 10
-11.0299
 20
-3.72948
 30
0.0
 10
-10.7301
 20
-3.37843
 30
0.0
 10
-10.63178
 20
-2.95226
 30
0.0
  0
SPLINE
  5
66
330
1F
100
AcDbEntity
  8
Layer 1
370
     9
100
AcDbSpline
210
0.0
220
0.0
230
1.0
 70
     8
 71
     3
 72
    20
 73
    16
 74
     0
 42
0.0000000001
 43
0.0000000001
 12
1.0
 22
0.0
 32
0.0
 13
1.0
 23
0.0
 33
0.0
 40
0.0
 40
0.0
 40
0.0
 40
0.0
 40
0.2
 40
0.2
 40
0.2
 40
0.2
 40
0.4
 40
0.4
 40
0.4
 40
0.4
 40
0.6
 40
0.6
 40
0.6
 40
0.6
 40
1.0
 40
1.0
 40
1.0
 40
1.0
 10
-8.83191
 20
10.66215
 30
0.0
 10
-8.83191
 20
10.66215
 30
0.0
 10
-5.96413
 20
10.66215
 30
0.0
 10
-5.96413
 20
10.66215
 30
0.0
 10
-5.96413
 20
10.66215
 30
0.0
 10
-5.99787
 20
10.4208
 30
0.0
 10
-6.09208
 20
10.19179
 30
0.0
 10
-6.23786
 20
9.99651
 30
0.0
 10
-6.23786
 20
9.99651
 30
0.0
 10
-6.95082
 20
10.54725
 30
0.0
 10
-7.90747
 20
10.66288
 30
0.0
 10
-8.73069
 20
10.29692
 30
0.0
 10
-8.73069
 20
10.29692
 30
0.0
 10
-8.78031
 20
10.41368
 30
0.0
 10
-8.81435
 20
10.53649
 30
0.0
 10
-8.83191
 20
10.66214
 30
0.0
  0
SPLINE
  5
67
330
1F
100
AcDbEntity
  8
Layer 1
370
     9
100
AcDbSpline
210
0.0
220
0.0
230
1.0
 70
    11
 71
     3
 72
    16
 73
    12
 74
     0
 42
0.0000000001
 43
0.0000000001
 12
1.0
 22
0.0
 32
0.0
 13
1.0
 23
0.0
 33
0.0
 40
0.0
 40
0.0
 40
0.0
 40
0.0
 40
0.25
 40
0.25
 40
0.25
 40
0.25
 40
0.5
 40
0.5
 40
0.5
 40
0.5
 40
1.0
 40
1.0
 40
1.0
 40
1.0
 10
-9.50445
 20
9.09426
 30
0.0
 10
-9.03365
 20
8.66883
 30
0.0
 10
-8.99784
 20
7.94122
 30
0.0
 10
-9.42327
 20
7.47041
 30
0.0
 10
-9.42327
 20
7.47041
 30
0.0
 10
-9.47992
 20
7.4078
 30
0.0
 10
-9.54332
 20
7.35161
 30
0.0
 10
-9.61227
 20
7.30287
 30
0.0
 10
-9.61227
 20
7.30287
 30
0.0
 10
-9.85309
 20
7.8847
 30
0.0
 10
-9.81316
 20
8.54542
 30
0.0
 10
-9.50445
 20
9.09426
 30
0.0
  0
SPLINE
  5
68
330
1F
100
AcDbEntity
  8
Layer 1
370
     9
100
AcDbSpline
210
0.0
220
0.0
230
1.0
 70
    11
 71
     3
 72
    16
 73
    12
 74
     0
 42
0.0000000001
 43
0.0000000001
 12
1.0
 22
0.0
 32
0.0
 13
1.0
 23
0.0
 33
0.0
 40
0.0
 40
0.0
 40
0.0
 40
0.0
 40
0.25
 40
0.25
 40
0.25
 40
0.25
 40
0.5
 40
0.5
 40
0.5
 40
0.5
 40
1.0
 40
1.0
 40
1.0
 40
1.0
 10
-11.67489
 20
-7.49041
 30
0.0
 10
-11.67489
 20
-7.49041
 30
0.0
 10
-13.23723
 20
-7.49041
 30
0.0
 10
-13.23723
 20
-7.49041
 30
0.0
 10
-13.23723
 20
-7.49041
 30
0.0
 10
-13.23723
 20
-7.49041
 30
0.0
 10
-13.23723
 20
-5.98376
 30
0.0
 10
-13.23723
 20
-5.98376
 30
0.0
 10
-13.23723
 20
-5.98376
 30
0.0
 10
-13.1051
 20
-6.77576
 30
0.0
 10
-12.47122
 20
-7.38766
 30
0.0
 10
-11.67489
 20
-7.49041
 30
0.0
  0
SPLINE
  5
69
330
1F
100
AcDbEntity
  8
Layer 1
370
     9
100
AcDbSpline
210
0.0
220
0.0
230
1.0
 70
    11
 71
     3
 72
    16
 73
    12
 74
     0
 42
0.0000000001
 43
0.0000000001
 12
1.0
 22
0.0
 32
0.0
 13
1.0
 23
0.0
 33
0.0
 40
0.0
 40
0.0
 40
0.0
 40
0.0
 40
0.25
 40
0.25
 40
0.25
 40
0.25
 40
0.5
 40
0.5
 40
0.5
 40
0.5
 40
1.0
 40
1.0
 40
1.0
 40
1.0
 10
-5.88793
 20
-0.938
 30
0.0
 10
-5.93366
 20
-1.46756
 30
0.0
 10
-6.25191
 20
-1.93556
 30
0.0
 10
-6.72734
 20
-2.17323
 30
0.0
 10
-6.72734
 20
-2.17323
 30
0.0
 10
-6.83136
 20
-1.89559
 30
0.0
 10
-6.79432
 20
-1.58474
 30
0.0
 10
-6.62799
 20
-1.33931
 30
0.0
 10
-6.62799
 20
-1.33931
 30
0.0
 10
-6.46166
 20
-1.09387
 30
0.0
 10
-6.18436
 20
-0.94426
 30
0.0
 10
-5.88793
 20
-0.938
 30
0.0
  0
SPLINE
  5
6A
330
1F
100
AcDbEntity
  8
Layer 1
370
     9
100
AcDbSpline
210
0.0
220
0.0
230
1.0
 70
     8
 71
     3
 72
    16
 73
    12
 74
     0
 42
0.0000000001
 43
0.0000000001
 12
1.0
 22
0.0
 32
0.0
 13
1.0
 23
0.0
 33
0.0
 40
0.0
 40
0.0
 40
0.0
 40
0.0
 40
0.25
 40
0.25
 40
0.25
 40
0.25
 40
0.5
 40
0.5
 40
0.5
 40
0.5
 40
1.0
 40
1.0
 40
1.0
 40
1.0
 10
-9.06161
 20
3.58115
 30
0.0
 10
-8.76387
 20
3.83179
 30
0.0
 10
-8.40022
 20
3.99172
 30
0.0
 10
-8.01428
 20
4.04187
 30
0.0
 10
-8.01428
 20
4.04187
 30
0.0
 10
-7.91364
 20
3.84677
 30
0.0
 10
-7.78485
 20
3.66761
 30
0.0
 10
-7.63198
 20
3.51006
 30
0.0
 10
-7.63198
 20
3.51006
 30
0.0
 10
-8.09442
 20
3.31547
 30
0.0
 10
-8.62066
 20
3.34176
 30
0.0
 10
-9.0616
 20
3.58112
 30
0.0
  0
SPLINE
  5
6B
330
1F
100
AcDbEntity
  8
Layer 1
370
     9
100
AcDbSpline
210
0.0
220
0.0
230
1.0
 70
     8
 71
     3
 72
    16
 73
    12
 74
     0
 42
0.0000000001
 43
0.0000000001
 12
1.0
 22
0.0
 32
0.0
 13
1.0
 23
0.0
 33
0.0
 40
0.0
 40
0.0
 40
0.0
 40
0.0
 40
0.25
 40
0.25
 40
0.25
 40
0.25
 40
0.5
 40
0.5
 40
0.5
 40
0.5
 40
1.0
 40
1.0
 40
1.0
 40
1.0
 10
-12.14988
 20
-1.74313
 30
0.0
 10
-11.88161
 20
-1.67791
 30
0.0
 10
-11.59824
 20
-1.73363
 30
0.0
 10
-11.37464
 20
-1.89558
 30
0.0
 10
-11.37464
 20
-1.89558
 30
0.0
 10
-11.15105
 20
-2.05752
 30
0.0
 10
-11.0096
 20
-2.31103
 30
0.0
 10
-10.9879
 20
-2.58626
 30
0.0
 10
-10.9879
 20
-2.58626
 30
0.0
 10
-11.50482
 20
-2.55184
 30
0.0
 10
-11.95658
 20
-2.22376
 30
0.0
 10
-12.14989
 20
-1.74312
 30
0.0
  0
SPLINE
  5
6C
330
1F
100
AcDbEntity
  8
Layer 1
370
     9
100
AcDbSpline
210
0.0
220
0.0
230
1.0
 70
     8
 71
     3
 72
    16
 73
    12
 74
     0
 42
0.0000000001
 43
0.0000000001
 12
1.0
 22
0.0
 32
0.0
 13
1.0
 23
0.0
 33
0.0
 40
0.0
 40
0.0
 40
0.0
 40
0.0
 40
0.25
 40
0.25
 40
0.25
 40
0.25
 40
0.5
 40
0.5
 40
0.5
 40
0.5
 40
1.0
 40
1.0
 40
1.0
 40
1.0
 10
-7.6946
 20
6.55662
 30
0.0
 10
-7.82534
 20
6.41027
 30
0.0
 10
-7.93624
 20
6.24738
 30
0.0
 10
-8.02447
 20
6.07208
 30
0.0
 10
-8.02447
 20
6.07208
 30
0.0
 10
-8.38084
 20
6.12369
 30
0.0
 10
-8.7173
 20
6.26895
 30
0.0
 10
-8.9993
 20
6.49286
 30
0.0
 10
-8.9993
 20
6.49286
 30
0.0
 10
-8.59195
 20
6.69315
 30
0.0
 10
-8.11958
 20
6.71613
 30
0.0
 10
-7.6946
 20
6.55661
 30
0.0
  0
SPLINE
  5
6D
330
1F
100
AcDbEntity
  8
Layer 1
370
     9
100
AcDbSpline
210
0.0
220
0.0
230
1.0
 70
    11
 71
     3
 72
    32
 73
    28
 74
     0
 42
0.0000000001
 43
0.0000000001
 12
1.0
 22
0.0
 32
0.0
 13
1.0
 23
0.0
 33
0.0
 40
0.0
 40
0.0
 40
0.0
 40
0.0
 40
0.125
 40
0.125
 40
0.125
 40
0.125
 40
0.25
 40
0.25
 40
0.25
 40
0.25
 40
0.375
 40
0.375
 40
0.375
 40
0.375
 40
0.5
 40
0.5
 40
0.5
 40
0.5
 40
0.625
 40
0.625
 40
0.625
 40
0.625
 40
0.75
 40
0.75
 40
0.75
 40
0.75
 40
1.0
 40
1.0
 40
1.0
 40
1.0
 10
-9.33282
 20
10.66215
 30
0.0
 10
-9.33282
 20
10.66215
 30
0.0
 10
-9.21944
 20
10.66215
 30
0.0
 10
-9.21944
 20
10.66215
 30
0.0
 10
-9.21944
 20
10.66215
 30
0.0
 10
-9.21945
 20
10.65426
 30
0.0
 10
-9.21897
 20
10.64638
 30
0.0
 10
-9.21802
 20
10.63855
 30
0.0
 10
-9.21802
 20
10.63855
 30
0.0
 10
-9.19551
 20
10.45575
 30
0.0
 10
-9.1456
 20
10.27744
 30
0.0
 10
-9.06995
 20
10.10951
 30
0.0
 10
-9.06995
 20
10.10951
 30
0.0
 10
-9.27237
 20
9.97554
 30
0.0
 10
-9.45347
 20
9.81196
 30
0.0
 10
-9.60726
 20
9.62415
 30
0.0
 10
-9.60726
 20
9.62415
 30
0.0
 10
-9.81266
 20
9.72348
 30
0.0
 10
-10.03752
 20
9.77578
 30
0.0
 10
-10.26567
 20
9.77728
 30
0.0
 10
-10.26567
 20
9.77728
 30
0.0
 10
-9.88085
 20
9.92821
 30
0.0
 10
-9.56014
 20
10.20724
 30
0.0
 10
-9.35759
 20
10.56758
 30
0.0
 10
-9.35759
 20
10.56758
 30
0.0
 10
-9.34135
 20
10.59646
 30
0.0
 10
-9.33282
 20
10.62902
 30
0.0
 10
-9.33282
 20
10.66215
 30
0.0
  0
SPLINE
  5
6E
330
1F
100
AcDbEntity
  8
Layer 1
370
     9
100
AcDbSpline
210
0.0
220
0.0
230
1.0
 70
    11
 71
     3
 72
    20
 73
    16
 74
     0
 42
0.0000000001
 43
0.0000000001
 12
1.0
 22
0.0
 32
0.0
 13
1.0
 23
0.0
 33
0.0
 40
0.0
 40
0.0
 40
0.0
 40
0.0
 40
0.2
 40
0.2
 40
0.2
 40
0.2
 40
0.4
 40
0.4
 40
0.4
 40
0.4
 40
0.6
 40
0.6
 40
0.6
 40
0.6
 40
1.0
 40
1.0
 40
1.0
 40
1.0
 10
-9.5915
 20
0.45438
 30
0.0
 10
-9.44852
 20
0.28704
 30
0.0
 10
-9.28343
 20
0.14003
 30
0.0
 10
-9.10068
 20
0.01735
 30
0.0
 10
-9.10068
 20
0.01735
 30
0.0
 10
-9.20641
 20
-0.19893
 30
0.0
 10
-9.27004
 20
-0.43326
 30
0.0
 10
-9.28819
 20
-0.67331
 30
0.0
 10
-9.28819
 20
-0.67331
 30
0.0
 10
-9.44201
 20
-0.24465
 30
0.0
 10
-9.75901
 20
0.10548
 30
0.0
 10
-10.17043
 20
0.30077
 30
0.0
 10
-10.17043
 20
0.30077
 30
0.0
 10
-9.96934
 20
0.31422
 30
0.0
 10
-9.77281
 20
0.36636
 30
0.0
 10
-9.5915
 20
0.45438
 30
0.0
  0
SPLINE
  5
6F
330
1F
100
AcDbEntity
  8
Layer 1
370
     9
100
AcDbSpline
210
0.0
220
0.0
230
1.0
 70
     8
 71
     3
 72
    12
 73
     8
 74
     0
 42
0.0000000001
 43
0.0000000001
 12
1.0
 22
0.0
 32
0.0
 13
1.0
 23
0.0
 33
0.0
 40
0.0
 40
0.0
 40
0.0
 40
0.0
 40
0.3333333333333333
 40
0.3333333333333333
 40
0.3333333333333333
 40
0.3333333333333333
 40
1.0
 40
1.0
 40
1.0
 40
1.0
 10
-10.05049
 20
-5.90503
 30
0.0
 10
-10.40784
 20
-5.55413
 30
0.0
 10
-10.60452
 20
-5.07088
 30
0.0
 10
-10.5941
 20
-4.57016
 30
0.0
 10
-10.5941
 20
-4.57016
 30
0.0
 10
-10.18639
 20
-4.88498
 30
0.0
 10
-9.97894
 20
-5.39489
 30
0.0
 10
-10.05049
 20
-5.90501
 30
0.0
  0
SPLINE
  5
70
330
1F
100
AcDbEntity
  8
Layer 1
370
     9
100
AcDbSpline
210
0.0
220
0.0
230
1.0
 70
    11
 71
     3
 72
    24
 73
    20
 74
     0
 42
0.0000000001
 43
0.0000000001
 12
1.0
 22
0.0
 32
0.0
 13
1.0
 23
0.0
 33
0.0
 40
0.0
 40
0.0
 40
0.0
 40
0.0
 40
0.1666666666666667
 40
0.1666666666666667
 40
0.1666666666666667
 40
0.1666666666666667
 40
0.3333333333333333
 40
0.3333333333333333
 40
0.3333333333333333
 40
0.3333333333333333
 40
0.5
 40
0.5
 40
0.5
 40
0.5
 40
0.6666666666666666
 40
0.6666666666666666
 40
0.6666666666666666
 40
0.6666666666666666
 40
1.0
 40
1.0
 40
1.0
 40
1.0
 10
-4.72298
 20
6.40975
 30
0.0
 10
-4.72298
 20
6.40975
 30
0.0
 10
-4.72298
 20
6.3793
 30
0.0
 10
-4.72298
 20
6.3793
 30
0.0
 10
-4.72298
 20
6.3793
 30
0.0
 10
-5.10235
 20
6.30947
 30
0.0
 10
-5.49422
 20
6.39177
 30
0.0
 10
-5.81357
 20
6.60811
 30
0.0
 10
-5.81357
 20
6.60811
 30
0.0
 10
-5.74813
 20
6.69295
 30
0.0
 10
-5.68838
 20
6.78201
 30
0.0
 10
-5.63472
 20
6.87474
 30
0.0
 10
-5.63472
 20
6.87474
 30
0.0
 10
-5.3249
 20
6.80748
 30
0.0
 10
-5.03745
 20
6.66161
 30
0.0
 10
-4.80019
 20
6.45133
 30
0.0
 10
-4.80019
 20
6.45133
 30
0.0
 10
-4.77798
 20
6.43172
 30
0.0
 10
-4.75157
 20
6.4175
 30
0.0
 10
-4.72298
 20
6.40975
 30
0.0
  0
SPLINE
  5
71
330
1F
100
AcDbEntity
  8
Layer 1
370
     9
100
AcDbSpline
210
0.0
220
0.0
230
1.0
 70
    11
 71
     3
 72
    28
 73
    24
 74
     0
 42
0.0000000001
 43
0.0000000001
 12
1.0
 22
0.0
 32
0.0
 13
1.0
 23
0.0
 33
0.0
 40
0.0
 40
0.0
 40
0.0
 40
0.0
 40
0.1428571428571428
 40
0.1428571428571428
 40
0.1428571428571428
 40
0.1428571428571428
 40
0.2857142857142857
 40
0.2857142857142857
 40
0.2857142857142857
 40
0.2857142857142857
 40
0.4285714285714285
 40
0.4285714285714285
 40
0.4285714285714285
 40
0.4285714285714285
 40
0.5714285714285714
 40
0.5714285714285714
 40
0.5714285714285714
 40
0.5714285714285714
 40
0.7142857142857143
 40
0.7142857142857143
 40
0.7142857142857143
 40
0.7142857142857143
 40
1.0
 40
1.0
 40
1.0
 40
1.0
 10
-4.72298
 20
3.69513
 30
0.0
 10
-4.72298
 20
3.69513
 30
0.0
 10
-4.72298
 20
3.66021
 30
0.0
 10
-4.72298
 20
3.66021
 30
0.0
 10
-4.72298
 20
3.66021
 30
0.0
 10
-4.91752
 20
3.52046
 30
0.0
 10
-5.13279
 20
3.41196
 30
0.0
 10
-5.36085
 20
3.3387
 30
0.0
 10
-5.36085
 20
3.3387
 30
0.0
 10
-5.46276
 20
3.30569
 30
0.0
 10
-5.56677
 20
3.27952
 30
0.0
 10
-5.67216
 20
3.26036
 30
0.0
 10
-5.67216
 20
3.26036
 30
0.0
 10
-5.71407
 20
3.331
 30
0.0
 10
-5.75939
 20
3.39954
 30
0.0
 10
-5.80799
 20
3.46575
 30
0.0
 10
-5.80799
 20
3.46575
 30
0.0
 10
-5.58194
 20
3.59516
 30
0.0
 10
-5.33033
 20
3.67387
 30
0.0
 10
-5.07083
 20
3.69639
 30
0.0
 10
-5.07083
 20
3.69639
 30
0.0
 10
-4.9551
 20
3.7067
 30
0.0
 10
-4.83864
 20
3.70628
 30
0.0
 10
-4.72298
 20
3.69513
 30
0.0
  0
SPLINE
  5
72
330
1F
100
AcDbEntity
  8
Layer 1
370
     9
100
AcDbSpline
210
0.0
220
0.0
230
1.0
 70
     8
 71
     3
 72
    24
 73
    20
 74
     0
 42
0.0000000001
 43
0.0000000001
 12
1.0
 22
0.0
 32
0.0
 13
1.0
 23
0.0
 33
0.0
 40
0.0
 40
0.0
 40
0.0
 40
0.0
 40
0.1666666666666667
 40
0.1666666666666667
 40
0.1666666666666667
 40
0.1666666666666667
 40
0.3333333333333333
 40
0.3333333333333333
 40
0.3333333333333333
 40
0.3333333333333333
 40
0.5
 40
0.5
 40
0.5
 40
0.5
 40
0.6666666666666666
 40
0.6666666666666666
 40
0.6666666666666666
 40
0.6666666666666666
 40
1.0
 40
1.0
 40
1.0
 40
1.0
 10
-13.23722
 20
6.41619
 30
0.0
 10
-13.23722
 20
6.41619
 30
0.0
 10
-13.23723
 20
6.78412
 30
0.0
 10
-13.23723
 20
6.78412
 30
0.0
 10
-13.23723
 20
6.78412
 30
0.0
 10
-13.2129
 20
6.78369
 30
0.0
 10
-13.18872
 20
6.78786
 30
0.0
 10
-13.16595
 20
6.79643
 30
0.0
 10
-13.16595
 20
6.79643
 30
0.0
 10
-12.91955
 20
6.8894
 30
0.0
 10
-12.65615
 20
6.92911
 30
0.0
 10
-12.39328
 20
6.91296
 30
0.0
 10
-12.39328
 20
6.91296
 30
0.0
 10
-12.47319
 20
6.81876
 30
0.0
 10
-12.56485
 20
6.73517
 30
0.0
 10
-12.66599
 20
6.66425
 30
0.0
 10
-12.66599
 20
6.66425
 30
0.0
 10
-12.83766
 20
6.54383
 30
0.0
 10
-13.03204
 20
6.45943
 30
0.0
 10
-13.23723
 20
6.41619
 30
0.0
  0
SPLINE
  5
73
330
1F
100
AcDbEntity
  8
Layer 1
370
     9
100
AcDbSpline
210
0.0
220
0.0
230
1.0
 70
     8
 71
     3
 72
    20
 73
    16
 74
     0
 42
0.0000000001
 43
0.0000000001
 12
1.0
 22
0.0
 32
0.0
 13
1.0
 23
0.0
 33
0.0
 40
0.0
 40
0.0
 40
0.0
 40
0.0
 40
0.2
 40
0.2
 40
0.2
 40
0.2
 40
0.4
 40
0.4
 40
0.4
 40
0.4
 40
0.6
 40
0.6
 40
0.6
 40
0.6
 40
1.0
 40
1.0
 40
1.0
 40
1.0
 10
-13.23722
 20
3.31997
 30
0.0
 10
-13.23722
 20
3.31997
 30
0.0
 10
-13.23723
 20
3.7119
 30
0.0
 10
-13.23723
 20
3.7119
 30
0.0
 10
-13.23723
 20
3.7119
 30
0.0
 10
-12.9264
 20
3.62646
 30
0.0
 10
-12.6514
 20
3.44264
 30
0.0
 10
-12.4535
 20
3.18817
 30
0.0
 10
-12.4535
 20
3.18817
 30
0.0
 10
-12.69645
 20
3.18112
 30
0.0
 10
-12.93853
 20
3.22167
 30
0.0
 10
-13.16593
 20
3.30747
 30
0.0
 10
-13.16593
 20
3.30747
 30
0.0
 10
-13.1887
 20
3.31609
 30
0.0
 10
-13.21288
 20
3.32033
 30
0.0
 10
-13.23723
 20
3.31997
 30
0.0
  0
SPLINE
  5
74
330
1F
100
AcDbEntity
  8
Layer 1
370
     9
100
AcDbSpline
210
0.0
220
0.0
230
1.0
 70
     8
 71
     3
 72
    20
 73
    16
 74
     0
 42
0.0000000001
 43
0.0000000001
 12
1.0
 22
0.0
 32
0.0
 13
1.0
 23
0.0
 33
0.0
 40
0.0
 40
0.0
 40
0.0
 40
0.0
 40
0.2
 40
0.2
 40
0.2
 40
0.2
 40
0.4
 40
0.4
 40
0.4
 40
0.4
 40
0.6
 40
0.6
 40
0.6
 40
0.6
 40
1.0
 40
1.0
 40
1.0
 40
1.0
 10
-6.36408
 20
6.57871
 30
0.0
 10
-6.47258
 20
6.48041
 30
0.0
 10
-6.59137
 20
6.39407
 30
0.0
 10
-6.71835
 20
6.32121
 30
0.0
 10
-6.71835
 20
6.32121
 30
0.0
 10
-6.81116
 20
6.4322
 30
0.0
 10
-6.91556
 20
6.53292
 30
0.0
 10
-7.02982
 20
6.62168
 30
0.0
 10
-7.02982
 20
6.62168
 30
0.0
 10
-6.88438
 20
6.71548
 30
0.0
 10
-6.72645
 20
6.78842
 30
0.0
 10
-6.56074
 20
6.83832
 30
0.0
 10
-6.56074
 20
6.83832
 30
0.0
 10
-6.50291
 20
6.74619
 30
0.0
 10
-6.43711
 20
6.65933
 30
0.0
 10
-6.36407
 20
6.57873
 30
0.0
  0
SPLINE
  5
75
330
1F
100
AcDbEntity
  8
Layer 1
370
     9
100
AcDbSpline
210
0.0
220
0.0
230
1.0
 70
     8
 71
     3
 72
    20
 73
    16
 74
     0
 42
0.0000000001
 43
0.0000000001
 12
1.0
 22
0.0
 32
0.0
 13
1.0
 23
0.0
 33
0.0
 40
0.0
 40
0.0
 40
0.0
 40
0.0
 40
0.2
 40
0.2
 40
0.2
 40
0.2
 40
0.4
 40
0.4
 40
0.4
 40
0.4
 40
0.6
 40
0.6
 40
0.6
 40
0.6
 40
1.0
 40
1.0
 40
1.0
 40
1.0
 10
-6.96509
 20
3.47237
 30
0.0
 10
-6.8635
 20
3.5582
 30
0.0
 10
-6.77063
 20
3.6538
 30
0.0
 10
-6.68777
 20
3.75783
 30
0.0
 10
-6.68777
 20
3.75783
 30
0.0
 10
-6.56935
 20
3.68504
 30
0.0
 10
-6.4587
 20
3.60029
 30
0.0
 10
-6.35756
 20
3.50493
 30
0.0
 10
-6.35756
 20
3.50493
 30
0.0
 10
-6.42162
 20
3.43704
 30
0.0
 10
-6.48046
 20
3.36441
 30
0.0
 10
-6.53359
 20
3.28767
 30
0.0
 10
-6.53359
 20
3.28767
 30
0.0
 10
-6.68467
 20
3.33065
 30
0.0
 10
-6.82969
 20
3.39273
 30
0.0
 10
-6.96508
 20
3.47235
 30
0.0
  0
SPLINE
  5
76
330
1F
100
AcDbEntity
  8
Layer 1
370
     9
100
AcDbSpline
210
0.0
220
0.0
230
1.0
 70
     8
 71
     3
 72
    16
 73
    12
 74
     0
 42
0.0000000001
 43
0.0000000001
 12
1.0
 22
0.0
 32
0.0
 13
1.0
 23
0.0
 33
0.0
 40
0.0
 40
0.0
 40
0.0
 40
0.0
 40
0.25
 40
0.25
 40
0.25
 40
0.25
 40
0.5
 40
0.5
 40
0.5
 40
0.5
 40
1.0
 40
1.0
 40
1.0
 40
1.0
 10
-7.28513
 20
3.71046
 30
0.0
 10
-7.39454
 20
3.8119
 30
0.0
 10
-7.49129
 20
3.92624
 30
0.0
 10
-7.57323
 20
4.05092
 30
0.0
 10
-7.57323
 20
4.05092
 30
0.0
 10
-7.39277
 20
4.03496
 30
0.0
 10
-7.21522
 20
3.99493
 30
0.0
 10
-7.04536
 20
3.93194
 30
0.0
 10
-7.04536
 20
3.93194
 30
0.0
 10
-7.11773
 20
3.85034
 30
0.0
 10
-7.19807
 20
3.77613
 30
0.0
 10
-7.28515
 20
3.71045
 30
0.0
  0
SPLINE
  5
77
330
1F
100
AcDbEntity
  8
Layer 1
370
     9
100
AcDbSpline
210
0.0
220
0.0
230
1.0
 70
     8
 71
     3
 72
    16
 73
    12
 74
     0
 42
0.0000000001
 43
0.0000000001
 12
1.0
 22
0.0
 32
0.0
 13
1.0
 23
0.0
 33
0.0
 40
0.0
 40
0.0
 40
0.0
 40
0.0
 40
0.25
 40
0.25
 40
0.25
 40
0.25
 40
0.5
 40
0.5
 40
0.5
 40
0.5
 40
1.0
 40
1.0
 40
1.0
 40
1.0
 10
-7.33981
 20
6.37066
 30
0.0
 10
-7.24876
 20
6.30767
 30
0.0
 10
-7.1643
 20
6.23563
 30
0.0
 10
-7.08775
 20
6.15566
 30
0.0
 10
-7.08775
 20
6.15566
 30
0.0
 10
-7.2505
 20
6.10137
 30
0.0
 10
-7.4195
 20
6.06787
 30
0.0
 10
-7.59066
 20
6.05595
 30
0.0
 10
-7.59066
 20
6.05595
 30
0.0
 10
-7.51875
 20
6.16967
 30
0.0
 10
-7.43463
 20
6.27521
 30
0.0
 10
-7.3398
 20
6.37066
 30
0.0
  0
SPLINE
  5
78
330
1F
100
AcDbEntity
  8
Layer 1
370
     9
100
AcDbSpline
210
0.0
220
0.0
230
1.0
 70
     8
 71
     3
 72
    16
 73
    12
 74
     0
 42
0.0000000001
 43
0.0000000001
 12
1.0
 22
0.0
 32
0.0
 13
1.0
 23
0.0
 33
0.0
 40
0.0
 40
0.0
 40
0.0
 40
0.0
 40
0.25
 40
0.25
 40
0.25
 40
0.25
 40
0.5
 40
0.5
 40
0.5
 40
0.5
 40
1.0
 40
1.0
 40
1.0
 40
1.0
 10
-6.14204
 20
6.91334
 30
0.0
 10
-6.11658
 20
6.91491
 30
0.0
 10
-6.09109
 20
6.91597
 30
0.0
 10
-6.06559
 20
6.91651
 30
0.0
 10
-6.06559
 20
6.91651
 30
0.0
 10
-6.07765
 20
6.89934
 30
0.0
 10
-6.08998
 20
6.88235
 30
0.0
 10
-6.10257
 20
6.86557
 30
0.0
 10
-6.10257
 20
6.86557
 30
0.0
 10
-6.11606
 20
6.8812
 30
0.0
 10
-6.1292
 20
6.89712
 30
0.0
 10
-6.142
 20
6.91331
 30
0.0
  0
SPLINE
  5
79
330
1F
100
AcDbEntity
  8
Layer 1
 62
   242
100
AcDbSpline
210
0.0
220
0.0
230
1.0
 70
    11
 71
     3
 72
    20
 73
    16
 74
     0
 42
0.0000000001
 43
0.0000000001
 12
1.0
 22
0.0
 32
0.0
 13
1.0
 23
0.0
 33
0.0
 40
0.0
 40
0.0
 40
0.0
 40
0.0
 40
0.2
 40
0.2
 40
0.2
 40
0.2
 40
0.4
 40
0.4
 40
0.4
 40
0.4
 40
0.6
 40
0.6
 40
0.6
 40
0.6
 40
1.0
 40
1.0
 40
1.0
 40
1.0
 10
-3.52873
 20
11.22965
 30
0.0
 10
-3.52873
 20
11.22965
 30
0.0
 10
-3.52873
 20
-8.05792
 30
0.0
 10
-3.52873
 20
-8.05792
 30
0.0
 10
-3.52873
 20
-8.05792
 30
0.0
 10
-3.52873
 20
-8.05792
 30
0.0
 10
6.11422
 20
-8.05792
 30
0.0
 10
6.11422
 20
-8.05792
 30
0.0
 10
6.11422
 20
-8.05792
 30
0.0
 10
6.11422
 20
-8.05792
 30
0.0
 10
6.11422
 20
11.22965
 30
0.0
 10
6.11422
 20
11.22965
 30
0.0
 10
6.11422
 20
11.22965
 30
0.0
 10
6.11422
 20
11.22965
 30
0.0
 10
-3.52873
 20
11.22965
 30
0.0
 10
-3.52873
 20
11.22965
 30
0.0
  0
SPLINE
  5
7A
330
1F
100
AcDbEntity
  8
Layer 1
 62
   242
100
AcDbSpline
210
0.0
220
0.0
230
1.0
 70
    11
 71
     3
 72
    32
 73
    28
 74
     0
 42
0.0000000001
 43
0.0000000001
 12
1.0
 22
0.0
 32
0.0
 13
1.0
 23
0.0
 33
0.0
 40
0.0
 40
0.0
 40
0.0
 40
0.0
 40
0.125
 40
0.125
 40
0.125
 40
0.125
 40
0.25
 40
0.25
 40
0.25
 40
0.25
 40
0.375
 40
0.375
 40
0.375
 40
0.375
 40
0.5
 40
0.5
 40
0.5
 40
0.5
 40
0.625
 40
0.625
 40
0.625
 40
0.625
 40
0.75
 40
0.75
 40
0.75
 40
0.75
 40
1.0
 40
1.0
 40
1.0
 40
1.0
 10
2.97917
 20
-3.57614
 30
0.0
 10
2.05642
 20
-4.01449
 30
0.0
 10
1.66274
 20
-5.11577
 30
0.0
 10
2.10108
 20
-6.03852
 30
0.0
 10
2.10108
 20
-6.03852
 30
0.0
 10
2.13837
 20
-6.11711
 30
0.0
 10
2.18114
 20
-6.19297
 30
0.0
 10
2.2291
 20
-6.26555
 30
0.0
 10
2.2291
 20
-6.26555
 30
0.0
 10
1.69002
 20
-6.50319
 30
0.0
 10
1.06893
 20
-6.46614
 30
0.0
 10
0.56166
 20
-6.16656
 30
0.0
 10
0.56166
 20
-6.16656
 30
0.0
 10
0.76589
 20
-5.38462
 30
0.0
 10
0.43149
 20
-4.56228
 30
0.0
 10
-0.2612
 20
-4.14597
 30
0.0
 10
-0.2612
 20
-4.14597
 30
0.0
 10
-0.08247
 20
-3.46352
 30
0.0
 10
0.4765
 20
-2.94711
 30
0.0
 10
1.17094
 20
-2.82286
 30
0.0
 10
1.17094
 20
-2.82286
 30
0.0
 10
1.86537
 20
-2.69861
 30
0.0
 10
2.57486
 20
-2.998
 30
0.0
 10
2.97913
 20
-3.57614
 30
0.0
 10
2.97913
 20
-3.57614
 30
0.0
 10
2.97913
 20
-3.57614
 30
0.0
 10
2.97917
 20
-3.57614
 30
0.0
 10
2.97917
 20
-3.57614
 30
0.0
  0
SPLINE
  5
7B
330
1F
100
AcDbEntity
  8
Layer 1
 62
   242
100
AcDbSpline
210
0.0
220
0.0
230
1.0
 70
    11
 71
     3
 72
    44
 73
    40
 74
     0
 42
0.0000000001
 43
0.0000000001
 12
1.0
 22
0.0
 32
0.0
 13
1.0
 23
0.0
 33
0.0
 40
0.0
 40
0.0
 40
0.0
 40
0.0
 40
0.0909090909090909
 40
0.0909090909090909
 40
0.0909090909090909
 40
0.0909090909090909
 40
0.1818181818181818
 40
0.1818181818181818
 40
0.1818181818181818
 40
0.1818181818181818
 40
0.2727272727272727
 40
0.2727272727272727
 40
0.2727272727272727
 40
0.2727272727272727
 40
0.3636363636363636
 40
0.3636363636363636
 40
0.3636363636363636
 40
0.3636363636363636
 40
0.4545454545454545
 40
0.4545454545454545
 40
0.4545454545454545
 40
0.4545454545454545
 40
0.5454545454545454
 40
0.5454545454545454
 40
0.5454545454545454
 40
0.5454545454545454
 40
0.6363636363636364
 40
0.6363636363636364
 40
0.6363636363636364
 40
0.6363636363636364
 40
0.7272727272727273
 40
0.7272727272727273
 40
0.7272727272727273
 40
0.7272727272727273
 40
0.8181818181818182
 40
0.8181818181818182
 40
0.8181818181818182
 40
0.8181818181818182
 40
1.0
 40
1.0
 40
1.0
 40
1.0
 10
-2.96438
 20
4.10332
 30
0.0
 10
-2.96438
 20
4.10332
 30
0.0
 10
-2.96439
 20
6.02711
 30
0.0
 10
-2.96439
 20
6.02711
 30
0.0
 10
-2.96439
 20
6.02711
 30
0.0
 10
-2.95134
 20
6.02691
 30
0.0
 10
-2.93832
 20
6.02803
 30
0.0
 10
-2.92551
 20
6.03047
 30
0.0
 10
-2.92551
 20
6.03047
 30
0.0
 10
-2.65439
 20
6.08155
 30
0.0
 10
-2.39741
 20
6.18987
 30
0.0
 10
-2.17156
 20
6.34831
 30
0.0
 10
-2.17156
 20
6.34831
 30
0.0
 10
-1.98379
 20
6.47997
 30
0.0
 10
-1.82245
 20
6.64563
 30
0.0
 10
-1.69581
 20
6.83681
 30
0.0
 10
-1.69581
 20
6.83681
 30
0.0
 10
-1.22263
 20
6.69425
 30
0.0
 10
-0.82547
 20
6.36955
 30
0.0
 10
-0.59169
 20
5.93415
 30
0.0
 10
-0.59169
 20
5.93415
 30
0.0
 10
-0.35792
 20
5.49875
 30
0.0
 10
-0.30737
 20
4.98606
 30
0.0
 10
-0.44995
 20
4.51288
 30
0.0
 10
-0.44995
 20
4.51288
 30
0.0
 10
-0.63982
 20
3.89635
 30
0.0
 10
-1.1328
 20
3.41974
 30
0.0
 10
-1.75522
 20
3.25016
 30
0.0
 10
-1.75522
 20
3.25016
 30
0.0
 10
-2.01477
 20
3.67515
 30
0.0
 10
-2.43174
 20
3.9799
 30
0.0
 10
-2.91555
 20
4.09786
 30
0.0
 10
-2.91555
 20
4.09786
 30
0.0
 10
-2.93153
 20
4.10176
 30
0.0
 10
-2.94794
 20
4.10359
 30
0.0
 10
-2.96439
 20
4.10332
 30
0.0
 10
-2.96439
 20
4.10332
 30
0.0
 10
-2.96439
 20
4.10332
 30
0.0
 10
-2.96438
 20
4.10332
 30
0.0
 10
-2.96438
 20
4.10332
 30
0.0
  0
SPLINE
  5
7C
330
1F
100
AcDbEntity
  8
Layer 1
 62
   242
100
AcDbSpline
210
0.0
220
0.0
230
1.0
 70
    11
 71
     3
 72
    28
 73
    24
 74
     0
 42
0.0000000001
 43
0.0000000001
 12
1.0
 22
0.0
 32
0.0
 13
1.0
 23
0.0
 33
0.0
 40
0.0
 40
0.0
 40
0.0
 40
0.0
 40
0.1428571428571428
 40
0.1428571428571428
 40
0.1428571428571428
 40
0.1428571428571428
 40
0.2857142857142857
 40
0.2857142857142857
 40
0.2857142857142857
 40
0.2857142857142857
 40
0.4285714285714285
 40
0.4285714285714285
 40
0.4285714285714285
 40
0.4285714285714285
 40
0.5714285714285714
 40
0.5714285714285714
 40
0.5714285714285714
 40
0.5714285714285714
 40
0.7142857142857143
 40
0.7142857142857143
 40
0.7142857142857143
 40
0.7142857142857143
 40
1.0
 40
1.0
 40
1.0
 40
1.0
 10
0.09831
 20
-6.31151
 30
0.0
 10
-0.14191
 20
-6.81759
 30
0.0
 10
-0.65817
 20
-7.13422
 30
0.0
 10
-1.21817
 20
-7.11892
 30
0.0
 10
-1.21817
 20
-7.11892
 30
0.0
 10
-1.77817
 20
-7.10362
 30
0.0
 10
-2.27983
 20
-6.75072
 30
0.0
 10
-2.49206
 20
-6.23228
 30
0.0
 10
-2.49206
 20
-6.23228
 30
0.0
 10
-2.70398
 20
-5.71452
 30
0.0
 10
-2.59126
 20
-5.12053
 30
0.0
 10
-2.2044
 20
-4.7164
 30
0.0
 10
-2.2044
 20
-4.7164
 30
0.0
 10
-1.81754
 20
-4.31227
 30
0.0
 10
-1.22049
 20
-4.17683
 30
0.0
 10
-0.69398
 20
-4.36595
 30
0.0
 10
-0.69398
 20
-4.36595
 30
0.0
 10
-0.77273
 20
-5.10656
 30
0.0
 10
-0.47561
 20
-5.83682
 30
0.0
 10
0.0983
 20
-6.31151
 30
0.0
 10
0.0983
 20
-6.31151
 30
0.0
 10
0.0983
 20
-6.31151
 30
0.0
 10
0.09831
 20
-6.31151
 30
0.0
 10
0.09831
 20
-6.31151
 30
0.0
  0
SPLINE
  5
7D
330
1F
100
AcDbEntity
  8
Layer 1
 62
   242
100
AcDbSpline
210
0.0
220
0.0
230
1.0
 70
    11
 71
     3
 72
    52
 73
    48
 74
     0
 42
0.0000000001
 43
0.0000000001
 12
1.0
 22
0.0
 32
0.0
 13
1.0
 23
0.0
 33
0.0
 40
0.0
 40
0.0
 40
0.0
 40
0.0
 40
0.0769230769230769
 40
0.0769230769230769
 40
0.0769230769230769
 40
0.0769230769230769
 40
0.1538461538461539
 40
0.1538461538461539
 40
0.1538461538461539
 40
0.1538461538461539
 40
0.2307692307692308
 40
0.2307692307692308
 40
0.2307692307692308
 40
0.2307692307692308
 40
0.3076923076923077
 40
0.3076923076923077
 40
0.3076923076923077
 40
0.3076923076923077
 40
0.3846153846153846
 40
0.3846153846153846
 40
0.3846153846153846
 40
0.3846153846153846
 40
0.4615384615384616
 40
0.4615384615384616
 40
0.4615384615384616
 40
0.4615384615384616
 40
0.5384615384615384
 40
0.5384615384615384
 40
0.5384615384615384
 40
0.5384615384615384
 40
0.6153846153846154
 40
0.6153846153846154
 40
0.6153846153846154
 40
0.6153846153846154
 40
0.6923076923076923
 40
0.6923076923076923
 40
0.6923076923076923
 40
0.6923076923076923
 40
0.7692307692307693
 40
0.7692307692307693
 40
0.7692307692307693
 40
0.7692307692307693
 40
0.8461538461538461
 40
0.8461538461538461
 40
0.8461538461538461
 40
0.8461538461538461
 40
1.0
 40
1.0
 40
1.0
 40
1.0
 10
3.54063
 20
7.18877
 30
0.0
 10
3.30524
 20
7.11057
 30
0.0
 10
3.08455
 20
6.99378
 30
0.0
 10
2.88751
 20
6.84312
 30
0.0
 10
2.88751
 20
6.84312
 30
0.0
 10
2.27992
 20
7.13535
 30
0.0
 10
1.56801
 20
7.11003
 30
0.0
 10
0.98304
 20
6.77482
 30
0.0
 10
0.98304
 20
6.77482
 30
0.0
 10
0.93309
 20
6.83405
 30
0.0
 10
0.88656
 20
6.8961
 30
0.0
 10
0.84367
 20
6.96062
 30
0.0
 10
0.84367
 20
6.96062
 30
0.0
 10
1.24669
 20
7.2276
 30
0.0
 10
1.5006
 20
7.66865
 30
0.0
 10
1.5291
 20
8.15124
 30
0.0
 10
1.5291
 20
8.15124
 30
0.0
 10
1.55761
 20
8.63383
 30
0.0
 10
1.36001
 20
9.09948
 30
0.0
 10
0.99122
 20
9.41204
 30
0.0
 10
0.99122
 20
9.41204
 30
0.0
 10
1.10989
 20
9.55094
 30
0.0
 10
1.24673
 20
9.67328
 30
0.0
 10
1.39798
 20
9.77573
 30
0.0
 10
1.39798
 20
9.77573
 30
0.0
 10
1.68668
 20
9.38398
 30
0.0
 10
2.11919
 20
9.12296
 30
0.0
 10
2.60035
 20
9.0501
 30
0.0
 10
2.60035
 20
9.0501
 30
0.0
 10
3.08151
 20
8.97723
 30
0.0
 10
3.57004
 20
9.09713
 30
0.0
 10
3.96179
 20
9.38584
 30
0.0
 10
3.96179
 20
9.38584
 30
0.0
 10
3.99232
 20
9.4083
 30
0.0
 10
4.02214
 20
9.4317
 30
0.0
 10
4.0512
 20
9.45601
 30
0.0
 10
4.0512
 20
9.45601
 30
0.0
 10
4.09356
 20
9.40921
 30
0.0
 10
4.13372
 20
9.36046
 30
0.0
 10
4.17156
 20
9.30994
 30
0.0
 10
4.17156
 20
9.30994
 30
0.0
 10
3.52097
 20
8.81573
 30
0.0
 10
3.26537
 20
7.95801
 30
0.0
 10
3.54061
 20
7.18875
 30
0.0
 10
3.54061
 20
7.18875
 30
0.0
 10
3.54061
 20
7.18875
 30
0.0
 10
3.54063
 20
7.18877
 30
0.0
 10
3.54063
 20
7.18877
 30
0.0
  0
SPLINE
  5
7E
330
1F
100
AcDbEntity
  8
Layer 1
 62
   242
100
AcDbSpline
210
0.0
220
0.0
230
1.0
 70
    11
 71
     3
 72
    48
 73
    44
 74
     0
 42
0.0000000001
 43
0.0000000001
 12
1.0
 22
0.0
 32
0.0
 13
1.0
 23
0.0
 33
0.0
 40
0.0
 40
0.0
 40
0.0
 40
0.0
 40
0.0833333333333333
 40
0.0833333333333333
 40
0.0833333333333333
 40
0.0833333333333333
 40
0.1666666666666667
 40
0.1666666666666667
 40
0.1666666666666667
 40
0.1666666666666667
 40
0.25
 40
0.25
 40
0.25
 40
0.25
 40
0.3333333333333333
 40
0.3333333333333333
 40
0.3333333333333333
 40
0.3333333333333333
 40
0.4166666666666667
 40
0.4166666666666667
 40
0.4166666666666667
 40
0.4166666666666667
 40
0.5
 40
0.5
 40
0.5
 40
0.5
 40
0.5833333333333334
 40
0.5833333333333334
 40
0.5833333333333334
 40
0.5833333333333334
 40
0.6666666666666666
 40
0.6666666666666666
 40
0.6666666666666666
 40
0.6666666666666666
 40
0.75
 40
0.75
 40
0.75
 40
0.75
 40
0.8333333333333334
 40
0.8333333333333334
 40
0.8333333333333334
 40
0.8333333333333334
 40
1.0
 40
1.0
 40
1.0
 40
1.0
 10
3.55048
 20
2.94192
 30
0.0
 10
3.23616
 20
2.17088
 30
0.0
 10
3.46581
 20
1.28577
 30
0.0
 10
4.11625
 20
0.76594
 30
0.0
 10
4.11625
 20
0.76594
 30
0.0
 10
4.09324
 20
0.73678
 30
0.0
 10
4.06943
 20
0.70827
 30
0.0
 10
4.04485
 20
0.68041
 30
0.0
 10
4.04485
 20
0.68041
 30
0.0
 10
3.21723
 20
1.32501
 30
0.0
 10
2.02524
 20
1.17854
 30
0.0
 10
1.38064
 20
0.35093
 30
0.0
 10
1.38064
 20
0.35093
 30
0.0
 10
1.38064
 20
0.35093
 30
0.0
 10
1.3762
 20
0.34523
 30
0.0
 10
1.3762
 20
0.34523
 30
0.0
 10
1.3762
 20
0.34523
 30
0.0
 10
1.24102
 20
0.43727
 30
0.0
 10
1.11741
 20
0.54532
 30
0.0
 10
1.00811
 20
0.66697
 30
0.0
 10
1.00811
 20
0.66697
 30
0.0
 10
1.387
 20
0.98796
 30
0.0
 10
1.5912
 20
1.46961
 30
0.0
 10
1.55847
 20
1.9651
 30
0.0
 10
1.55847
 20
1.9651
 30
0.0
 10
1.52575
 20
2.4606
 30
0.0
 10
1.263
 20
2.90926
 30
0.0
 10
0.84519
 20
3.17763
 30
0.0
 10
0.84519
 20
3.17763
 30
0.0
 10
0.87315
 20
3.21829
 30
0.0
 10
0.90259
 20
3.25793
 30
0.0
 10
0.93344
 20
3.29645
 30
0.0
 10
0.93344
 20
3.29645
 30
0.0
 10
1.55173
 20
2.91959
 30
0.0
 10
2.32225
 20
2.89657
 30
0.0
 10
2.96158
 20
3.23652
 30
0.0
 10
2.96158
 20
3.23652
 30
0.0
 10
3.1423
 20
3.1098
 30
0.0
 10
3.34072
 20
3.01054
 30
0.0
 10
3.55049
 20
2.94191
 30
0.0
 10
3.55049
 20
2.94191
 30
0.0
 10
3.55049
 20
2.94191
 30
0.0
 10
3.55048
 20
2.94192
 30
0.0
 10
3.55048
 20
2.94192
 30
0.0
  0
SPLINE
  5
7F
330
1F
100
AcDbEntity
  8
Layer 1
 62
   242
100
AcDbSpline
210
0.0
220
0.0
230
1.0
 70
    11
 71
     3
 72
    28
 73
    24
 74
     0
 42
0.0000000001
 43
0.0000000001
 12
1.0
 22
0.0
 32
0.0
 13
1.0
 23
0.0
 33
0.0
 40
0.0
 40
0.0
 40
0.0
 40
0.0
 40
0.1428571428571428
 40
0.1428571428571428
 40
0.1428571428571428
 40
0.1428571428571428
 40
0.2857142857142857
 40
0.2857142857142857
 40
0.2857142857142857
 40
0.2857142857142857
 40
0.4285714285714285
 40
0.4285714285714285
 40
0.4285714285714285
 40
0.4285714285714285
 40
0.5714285714285714
 40
0.5714285714285714
 40
0.5714285714285714
 40
0.5714285714285714
 40
0.7142857142857143
 40
0.7142857142857143
 40
0.7142857142857143
 40
0.7142857142857143
 40
1.0
 40
1.0
 40
1.0
 40
1.0
 10
2.82245
 20
-6.35944
 30
0.0
 10
3.60049
 20
-5.75881
 30
0.0
 10
3.89098
 20
-4.71919
 30
0.0
 10
3.53539
 20
-3.80285
 30
0.0
 10
3.53539
 20
-3.80285
 30
0.0
 10
4.02708
 20
-3.72172
 30
0.0
 10
4.52617
 20
-3.89712
 30
0.0
 10
4.85899
 20
-4.26803
 30
0.0
 10
4.85899
 20
-4.26803
 30
0.0
 10
5.1918
 20
-4.63893
 30
0.0
 10
5.31109
 20
-5.15841
 30
0.0
 10
5.17738
 20
-5.63847
 30
0.0
 10
5.17738
 20
-5.63847
 30
0.0
 10
5.04378
 20
-6.11804
 30
0.0
 10
4.67526
 20
-6.49663
 30
0.0
 10
4.19946
 20
-6.6431
 30
0.0
 10
4.19946
 20
-6.6431
 30
0.0
 10
3.72366
 20
-6.78958
 30
0.0
 10
3.20259
 20
-6.68087
 30
0.0
 10
2.82242
 20
-6.35945
 30
0.0
 10
2.82242
 20
-6.35945
 30
0.0
 10
2.82242
 20
-6.35945
 30
0.0
 10
2.82245
 20
-6.35944
 30
0.0
 10
2.82245
 20
-6.35944
 30
0.0
  0
SPLINE
  5
80
330
1F
100
AcDbEntity
  8
Layer 1
 62
   242
100
AcDbSpline
210
0.0
220
0.0
230
1.0
 70
    11
 71
     3
 72
    28
 73
    24
 74
     0
 42
0.0000000001
 43
0.0000000001
 12
1.0
 22
0.0
 32
0.0
 13
1.0
 23
0.0
 33
0.0
 40
0.0
 40
0.0
 40
0.0
 40
0.0
 40
0.1428571428571428
 40
0.1428571428571428
 40
0.1428571428571428
 40
0.1428571428571428
 40
0.2857142857142857
 40
0.2857142857142857
 40
0.2857142857142857
 40
0.2857142857142857
 40
0.4285714285714285
 40
0.4285714285714285
 40
0.4285714285714285
 40
0.4285714285714285
 40
0.5714285714285714
 40
0.5714285714285714
 40
0.5714285714285714
 40
0.5714285714285714
 40
0.7142857142857143
 40
0.7142857142857143
 40
0.7142857142857143
 40
0.7142857142857143
 40
1.0
 40
1.0
 40
1.0
 40
1.0
 10
-0.33055
 20
-2.55343
 30
0.0
 10
-0.38966
 20
-1.82146
 30
0.0
 10
-1.02928
 20
-1.27588
 30
0.0
 10
-1.76125
 20
-1.33498
 30
0.0
 10
-1.76125
 20
-1.33498
 30
0.0
 10
-1.82995
 20
-1.34048
 30
0.0
 10
-1.8981
 20
-1.35132
 30
0.0
 10
-1.96512
 20
-1.3674
 30
0.0
 10
-1.96512
 20
-1.3674
 30
0.0
 10
-2.00569
 20
-0.89225
 30
0.0
 10
-1.78968
 20
-0.43155
 30
0.0
 10
-1.39848
 20
-0.15884
 30
0.0
 10
-1.39848
 20
-0.15884
 30
0.0
 10
-1.00727
 20
0.11386
 30
0.0
 10
-0.50029
 20
0.15715
 30
0.0
 10
-0.06851
 20
-0.04529
 30
0.0
 10
-0.06851
 20
-0.04529
 30
0.0
 10
0.36326
 20
-0.24774
 30
0.0
 10
0.65423
 20
-0.66514
 30
0.0
 10
0.6948
 20
-1.1403
 30
0.0
 10
0.6948
 20
-1.1403
 30
0.0
 10
0.74866
 20
-1.79939
 30
0.0
 10
0.3126
 20
-2.39958
 30
0.0
 10
-0.33055
 20
-2.55343
 30
0.0
  0
SPLINE
  5
81
330
1F
100
AcDbEntity
  8
Layer 1
 62
   242
100
AcDbSpline
210
0.0
220
0.0
230
1.0
 70
    11
 71
     3
 72
    32
 73
    28
 74
     0
 42
0.0000000001
 43
0.0000000001
 12
1.0
 22
0.0
 32
0.0
 13
1.0
 23
0.0
 33
0.0
 40
0.0
 40
0.0
 40
0.0
 40
0.0
 40
0.125
 40
0.125
 40
0.125
 40
0.125
 40
0.25
 40
0.25
 40
0.25
 40
0.25
 40
0.375
 40
0.375
 40
0.375
 40
0.375
 40
0.5
 40
0.5
 40
0.5
 40
0.5
 40
0.625
 40
0.625
 40
0.625
 40
0.625
 40
0.75
 40
0.75
 40
0.75
 40
0.75
 40
1.0
 40
1.0
 40
1.0
 40
1.0
 10
5.54986
 20
-5.75031
 30
0.0
 10
5.54986
 20
-5.75031
 30
0.0
 10
5.54986
 20
-7.49041
 30
0.0
 10
5.54986
 20
-7.49041
 30
0.0
 10
5.54986
 20
-7.49041
 30
0.0
 10
5.54986
 20
-7.49041
 30
0.0
 10
-0.96166
 20
-7.49041
 30
0.0
 10
-0.96166
 20
-7.49041
 30
0.0
 10
-0.96166
 20
-7.49041
 30
0.0
 10
-0.3718
 20
-7.41493
 30
0.0
 10
0.14384
 20
-7.05696
 30
0.0
 10
0.42029
 20
-6.53046
 30
0.0
 10
0.42029
 20
-6.53046
 30
0.0
 10
1.05949
 20
-6.88254
 30
0.0
 10
1.83022
 20
-6.8983
 30
0.0
 10
2.48298
 20
-6.57204
 30
0.0
 10
2.48298
 20
-6.57204
 30
0.0
 10
2.95113
 20
-7.02539
 30
0.0
 10
3.62323
 20
-7.19908
 30
0.0
 10
4.25242
 20
-7.0293
 30
0.0
 10
4.25242
 20
-7.0293
 30
0.0
 10
4.8816
 20
-6.85953
 30
0.0
 10
5.37331
 20
-6.37763
 30
0.0
 10
5.54986
 20
-5.75031
 30
0.0
 10
5.54986
 20
-5.75031
 30
0.0
 10
5.54986
 20
-5.75031
 30
0.0
 10
5.54986
 20
-5.75031
 30
0.0
 10
5.54986
 20
-5.75031
 30
0.0
  0
SPLINE
  5
82
330
1F
100
AcDbEntity
  8
Layer 1
 62
   242
100
AcDbSpline
210
0.0
220
0.0
230
1.0
 70
    11
 71
     3
 72
    32
 73
    28
 74
     0
 42
0.0000000001
 43
0.0000000001
 12
1.0
 22
0.0
 32
0.0
 13
1.0
 23
0.0
 33
0.0
 40
0.0
 40
0.0
 40
0.0
 40
0.0
 40
0.125
 40
0.125
 40
0.125
 40
0.125
 40
0.25
 40
0.25
 40
0.25
 40
0.25
 40
0.375
 40
0.375
 40
0.375
 40
0.375
 40
0.5
 40
0.5
 40
0.5
 40
0.5
 40
0.625
 40
0.625
 40
0.625
 40
0.625
 40
0.75
 40
0.75
 40
0.75
 40
0.75
 40
1.0
 40
1.0
 40
1.0
 40
1.0
 10
4.36658
 20
-0.55242
 30
0.0
 10
3.94829
 20
-0.56467
 30
0.0
 10
3.56136
 20
-0.77715
 30
0.0
 10
3.32659
 20
-1.12354
 30
0.0
 10
3.32659
 20
-1.12354
 30
0.0
 10
3.0918
 20
-1.46994
 30
0.0
 10
3.03668
 20
-1.90508
 30
0.0
 10
3.18025
 20
-2.29814
 30
0.0
 10
3.18025
 20
-2.29814
 30
0.0
 10
2.62046
 20
-2.41401
 30
0.0
 10
2.04322
 20
-2.20391
 30
0.0
 10
1.68887
 20
-1.75532
 30
0.0
 10
1.68887
 20
-1.75532
 30
0.0
 10
1.33452
 20
-1.30673
 30
0.0
 10
1.26705
 20
-0.68961
 30
0.0
 10
1.5094
 20
-0.17186
 30
0.0
 10
1.5094
 20
-0.17186
 30
0.0
 10
2.34727
 20
-0.55033
 30
0.0
 10
3.32569
 20
-0.4278
 30
0.0
 10
4.04366
 20
0.14648
 30
0.0
 10
4.04366
 20
0.14648
 30
0.0
 10
4.20976
 20
-0.05469
 30
0.0
 10
4.32102
 20
-0.29555
 30
0.0
 10
4.36658
 20
-0.55242
 30
0.0
 10
4.36658
 20
-0.55242
 30
0.0
 10
4.36658
 20
-0.55242
 30
0.0
 10
4.36658
 20
-0.55242
 30
0.0
 10
4.36658
 20
-0.55242
 30
0.0
  0
SPLINE
  5
83
330
1F
100
AcDbEntity
  8
Layer 1
 62
   242
100
AcDbSpline
210
0.0
220
0.0
230
1.0
 70
    11
 71
     3
 72
    36
 73
    32
 74
     0
 42
0.0000000001
 43
0.0000000001
 12
1.0
 22
0.0
 32
0.0
 13
1.0
 23
0.0
 33
0.0
 40
0.0
 40
0.0
 40
0.0
 40
0.0
 40
0.1111111111111111
 40
0.1111111111111111
 40
0.1111111111111111
 40
0.1111111111111111
 40
0.2222222222222222
 40
0.2222222222222222
 40
0.2222222222222222
 40
0.2222222222222222
 40
0.3333333333333333
 40
0.3333333333333333
 40
0.3333333333333333
 40
0.3333333333333333
 40
0.4444444444444444
 40
0.4444444444444444
 40
0.4444444444444444
 40
0.4444444444444444
 40
0.5555555555555556
 40
0.5555555555555556
 40
0.5555555555555556
 40
0.5555555555555556
 40
0.6666666666666666
 40
0.6666666666666666
 40
0.6666666666666666
 40
0.6666666666666666
 40
0.7777777777777778
 40
0.7777777777777778
 40
0.7777777777777778
 40
0.7777777777777778
 40
1.0
 40
1.0
 40
1.0
 40
1.0
 10
5.54986
 20
5.98828
 30
0.0
 10
5.54986
 20
5.98828
 30
0.0
 10
5.54986
 20
4.08313
 30
0.0
 10
5.54986
 20
4.08313
 30
0.0
 10
5.54986
 20
4.08313
 30
0.0
 10
5.22279
 20
4.10841
 30
0.0
 10
4.89419
 20
4.06457
 30
0.0
 10
4.5852
 20
3.95436
 30
0.0
 10
4.5852
 20
3.95436
 30
0.0
 10
4.44979
 20
3.90586
 30
0.0
 10
4.31945
 20
3.84432
 30
0.0
 10
4.19597
 20
3.77056
 30
0.0
 10
4.19597
 20
3.77056
 30
0.0
 10
4.07379
 20
3.88786
 30
0.0
 10
3.93967
 20
3.992
 30
0.0
 10
3.79574
 20
4.08128
 30
0.0
 10
3.79574
 20
4.08128
 30
0.0
 10
4.10778
 20
4.68577
 30
0.0
 10
4.09957
 20
5.40513
 30
0.0
 10
3.77327
 20
6.00203
 30
0.0
 10
3.77327
 20
6.00203
 30
0.0
 10
3.92594
 20
6.09226
 30
0.0
 10
4.06824
 20
6.19892
 30
0.0
 10
4.19765
 20
6.32018
 30
0.0
 10
4.19765
 20
6.32018
 30
0.0
 10
4.58836
 20
6.03821
 30
0.0
 10
5.07303
 20
5.91915
 30
0.0
 10
5.54987
 20
5.98828
 30
0.0
 10
5.54987
 20
5.98828
 30
0.0
 10
5.54987
 20
5.98828
 30
0.0
 10
5.54986
 20
5.98828
 30
0.0
 10
5.54986
 20
5.98828
 30
0.0
  0
SPLINE
  5
84
330
1F
100
AcDbEntity
  8
Layer 1
 62
   242
100
AcDbSpline
210
0.0
220
0.0
230
1.0
 70
    11
 71
     3
 72
    28
 73
    24
 74
     0
 42
0.0000000001
 43
0.0000000001
 12
1.0
 22
0.0
 32
0.0
 13
1.0
 23
0.0
 33
0.0
 40
0.0
 40
0.0
 40
0.0
 40
0.0
 40
0.1428571428571428
 40
0.1428571428571428
 40
0.1428571428571428
 40
0.1428571428571428
 40
0.2857142857142857
 40
0.2857142857142857
 40
0.2857142857142857
 40
0.2857142857142857
 40
0.4285714285714285
 40
0.4285714285714285
 40
0.4285714285714285
 40
0.4285714285714285
 40
0.5714285714285714
 40
0.5714285714285714
 40
0.5714285714285714
 40
0.5714285714285714
 40
0.7142857142857143
 40
0.7142857142857143
 40
0.7142857142857143
 40
0.7142857142857143
 40
1.0
 40
1.0
 40
1.0
 40
1.0
 10
0.9368
 20
6.27167
 30
0.0
 10
1.26684
 20
5.98038
 30
0.0
 10
1.66974
 20
5.78451
 30
0.0
 10
2.1027
 20
5.70501
 30
0.0
 10
2.1027
 20
5.70501
 30
0.0
 10
1.97674
 20
5.28193
 30
0.0
 10
1.97873
 20
4.83129
 30
0.0
 10
2.10859
 20
4.4094
 30
0.0
 10
2.10859
 20
4.4094
 30
0.0
 10
1.65334
 20
4.3307
 30
0.0
 10
1.23033
 20
4.12349
 30
0.0
 10
0.8892
 20
3.81192
 30
0.0
 10
0.8892
 20
3.81192
 30
0.0
 10
0.22161
 20
4.42425
 30
0.0
 10
0.1782
 20
5.46335
 30
0.0
 10
0.7905
 20
6.13096
 30
0.0
 10
0.7905
 20
6.13096
 30
0.0
 10
0.8363
 20
6.18085
 30
0.0
 10
0.88516
 20
6.22786
 30
0.0
 10
0.93679
 20
6.27169
 30
0.0
 10
0.93679
 20
6.27169
 30
0.0
 10
0.93679
 20
6.27169
 30
0.0
 10
0.9368
 20
6.27167
 30
0.0
 10
0.9368
 20
6.27167
 30
0.0
  0
SPLINE
  5
85
330
1F
100
AcDbEntity
  8
Layer 1
 62
   242
100
AcDbSpline
210
0.0
220
0.0
230
1.0
 70
    11
 71
     3
 72
    36
 73
    32
 74
     0
 42
0.0000000001
 43
0.0000000001
 12
1.0
 22
0.0
 32
0.0
 13
1.0
 23
0.0
 33
0.0
 40
0.0
 40
0.0
 40
0.0
 40
0.0
 40
0.1111111111111111
 40
0.1111111111111111
 40
0.1111111111111111
 40
0.1111111111111111
 40
0.2222222222222222
 40
0.2222222222222222
 40
0.2222222222222222
 40
0.2222222222222222
 40
0.3333333333333333
 40
0.3333333333333333
 40
0.3333333333333333
 40
0.3333333333333333
 40
0.4444444444444444
 40
0.4444444444444444
 40
0.4444444444444444
 40
0.4444444444444444
 40
0.5555555555555556
 40
0.5555555555555556
 40
0.5555555555555556
 40
0.5555555555555556
 40
0.6666666666666666
 40
0.6666666666666666
 40
0.6666666666666666
 40
0.6666666666666666
 40
0.7777777777777778
 40
0.7777777777777778
 40
0.7777777777777778
 40
0.7777777777777778
 40
1.0
 40
1.0
 40
1.0
 40
1.0
 10
-2.96438
 20
-2.43246
 30
0.0
 10
-2.96438
 20
-2.43246
 30
0.0
 10
-2.96439
 20
0.43795
 30
0.0
 10
-2.96439
 20
0.43795
 30
0.0
 10
-2.96439
 20
0.43795
 30
0.0
 10
-2.94794
 20
0.43767
 30
0.0
 10
-2.93154
 20
0.4395
 30
0.0
 10
-2.91556
 20
0.44338
 30
0.0
 10
-2.91556
 20
0.44338
 30
0.0
 10
-2.27073
 20
0.60466
 30
0.0
 10
-1.75718
 20
1.09028
 30
0.0
 10
-1.56079
 20
1.7253
 30
0.0
 10
-1.56079
 20
1.7253
 30
0.0
 10
-1.5104
 20
1.18685
 30
0.0
 10
-1.18887
 20
0.71177
 30
0.0
 10
-0.70748
 20
0.46534
 30
0.0
 10
-0.70748
 20
0.46534
 30
0.0
 10
-1.65754
 20
0.42475
 30
0.0
 10
-2.39491
 20
-0.37614
 30
0.0
 10
-2.35434
 20
-1.3262
 30
0.0
 10
-2.35434
 20
-1.3262
 30
0.0
 10
-2.35164
 20
-1.39048
 30
0.0
 10
-2.34533
 20
-1.45456
 30
0.0
 10
-2.33545
 20
-1.51813
 30
0.0
 10
-2.33545
 20
-1.51813
 30
0.0
 10
-2.66785
 20
-1.71737
 30
0.0
 10
-2.8973
 20
-2.05078
 30
0.0
 10
-2.96439
 20
-2.43246
 30
0.0
 10
-2.96439
 20
-2.43246
 30
0.0
 10
-2.96439
 20
-2.43246
 30
0.0
 10
-2.96438
 20
-2.43246
 30
0.0
 10
-2.96438
 20
-2.43246
 30
0.0
  0
SPLINE
  5
86
330
1F
100
AcDbEntity
  8
Layer 1
 62
   242
100
AcDbSpline
210
0.0
220
0.0
230
1.0
 70
    11
 71
     3
 72
    28
 73
    24
 74
     0
 42
0.0000000001
 43
0.0000000001
 12
1.0
 22
0.0
 32
0.0
 13
1.0
 23
0.0
 33
0.0
 40
0.0
 40
0.0
 40
0.0
 40
0.0
 40
0.1428571428571428
 40
0.1428571428571428
 40
0.1428571428571428
 40
0.1428571428571428
 40
0.2857142857142857
 40
0.2857142857142857
 40
0.2857142857142857
 40
0.2857142857142857
 40
0.4285714285714285
 40
0.4285714285714285
 40
0.4285714285714285
 40
0.4285714285714285
 40
0.5714285714285714
 40
0.5714285714285714
 40
0.5714285714285714
 40
0.5714285714285714
 40
0.7142857142857143
 40
0.7142857142857143
 40
0.7142857142857143
 40
0.7142857142857143
 40
1.0
 40
1.0
 40
1.0
 40
1.0
 10
0.3063
 20
2.99987
 30
0.0
 10
-0.00736
 20
2.27761
 30
0.0
 10
0.04618
 20
1.44911
 30
0.0
 10
0.45078
 20
0.77358
 30
0.0
 10
0.45078
 20
0.77358
 30
0.0
 10
0.09992
 20
0.62714
 30
0.0
 10
-0.30004
 20
0.65906
 30
0.0
 10
-0.62323
 20
0.85929
 30
0.0
 10
-0.62323
 20
0.85929
 30
0.0
 10
-0.94642
 20
1.05953
 30
0.0
 10
-1.15327
 20
1.40636
 30
0.0
 10
-1.17836
 20
1.78572
 30
0.0
 10
-1.17836
 20
1.78572
 30
0.0
 10
-1.20345
 20
2.16507
 30
0.0
 10
-1.04388
 20
2.53322
 30
0.0
 10
-0.74987
 20
2.77426
 30
0.0
 10
-0.74987
 20
2.77426
 30
0.0
 10
-0.45586
 20
3.01532
 30
0.0
 10
-0.06076
 20
3.09885
 30
0.0
 10
0.30632
 20
2.99988
 30
0.0
 10
0.30632
 20
2.99988
 30
0.0
 10
0.30632
 20
2.99988
 30
0.0
 10
0.3063
 20
2.99987
 30
0.0
 10
0.3063
 20
2.99987
 30
0.0
  0
SPLINE
  5
87
330
1F
100
AcDbEntity
  8
Layer 1
 62
   242
100
AcDbSpline
210
0.0
220
0.0
230
1.0
 70
    11
 71
     3
 72
    28
 73
    24
 74
     0
 42
0.0000000001
 43
0.0000000001
 12
1.0
 22
0.0
 32
0.0
 13
1.0
 23
0.0
 33
0.0
 40
0.0
 40
0.0
 40
0.0
 40
0.0
 40
0.1428571428571428
 40
0.1428571428571428
 40
0.1428571428571428
 40
0.1428571428571428
 40
0.2857142857142857
 40
0.2857142857142857
 40
0.2857142857142857
 40
0.2857142857142857
 40
0.4285714285714285
 40
0.4285714285714285
 40
0.4285714285714285
 40
0.4285714285714285
 40
0.5714285714285714
 40
0.5714285714285714
 40
0.5714285714285714
 40
0.5714285714285714
 40
0.7142857142857143
 40
0.7142857142857143
 40
0.7142857142857143
 40
0.7142857142857143
 40
1.0
 40
1.0
 40
1.0
 40
1.0
 10
0.44244
 20
9.30159
 30
0.0
 10
0.06327
 20
8.63943
 30
0.0
 10
0.01487
 20
7.83884
 30
0.0
 10
0.3121
 20
7.13606
 30
0.0
 10
0.3121
 20
7.13606
 30
0.0
 10
-0.04597
 20
7.03357
 30
0.0
 10
-0.4315
 20
7.11105
 30
0.0
 10
-0.72218
 20
7.34391
 30
0.0
 10
-0.72218
 20
7.34391
 30
0.0
 10
-1.01285
 20
7.57678
 30
0.0
 10
-1.1724
 20
7.93902
 30
0.0
 10
-1.1505
 20
8.31082
 30
0.0
 10
-1.1505
 20
8.31082
 30
0.0
 10
-1.12859
 20
8.68263
 30
0.0
 10
-0.92776
 20
9.02074
 30
0.0
 10
-0.61174
 20
9.21785
 30
0.0
 10
-0.61174
 20
9.21785
 30
0.0
 10
-0.29572
 20
9.41496
 30
0.0
 10
0.09894
 20
9.44548
 30
0.0
 10
0.44249
 20
9.30161
 30
0.0
 10
0.44249
 20
9.30161
 30
0.0
 10
0.44249
 20
9.30161
 30
0.0
 10
0.44244
 20
9.30159
 30
0.0
 10
0.44244
 20
9.30159
 30
0.0
  0
SPLINE
  5
88
330
1F
100
AcDbEntity
  8
Layer 1
 62
   242
100
AcDbSpline
210
0.0
220
0.0
230
1.0
 70
    11
 71
     3
 72
    40
 73
    36
 74
     0
 42
0.0000000001
 43
0.0000000001
 12
1.0
 22
0.0
 32
0.0
 13
1.0
 23
0.0
 33
0.0
 40
0.0
 40
0.0
 40
0.0
 40
0.0
 40
0.1
 40
0.1
 40
0.1
 40
0.1
 40
0.2
 40
0.2
 40
0.2
 40
0.2
 40
0.3
 40
0.3
 40
0.3
 40
0.3
 40
0.4
 40
0.4
 40
0.4
 40
0.4
 40
0.5
 40
0.5
 40
0.5
 40
0.5
 40
0.6
 40
0.6
 40
0.6
 40
0.6
 40
0.7
 40
0.7
 40
0.7
 40
0.7
 40
0.8
 40
0.8
 40
0.8
 40
0.8
 40
1.0
 40
1.0
 40
1.0
 40
1.0
 10
-2.96438
 20
10.66215
 30
0.0
 10
-2.96438
 20
10.66215
 30
0.0
 10
-2.23423
 20
10.66215
 30
0.0
 10
-2.23423
 20
10.66215
 30
0.0
 10
-2.23423
 20
10.66215
 30
0.0
 10
-2.23429
 20
10.62903
 30
0.0
 10
-2.22583
 20
10.59648
 30
0.0
 10
-2.20966
 20
10.56758
 30
0.0
 10
-2.20966
 20
10.56758
 30
0.0
 10
-1.88155
 20
9.99301
 30
0.0
 10
-1.26725
 20
9.64285
 30
0.0
 10
-0.6057
 20
9.65405
 30
0.0
 10
-0.6057
 20
9.65405
 30
0.0
 10
-1.10545
 20
9.4371
 30
0.0
 10
-1.45481
 20
8.97465
 30
0.0
 10
-1.52635
 20
8.43455
 30
0.0
 10
-1.52635
 20
8.43455
 30
0.0
 10
-1.64223
 20
8.72691
 30
0.0
 10
-1.83365
 20
8.98309
 30
0.0
 10
-2.08123
 20
9.177
 30
0.0
 10
-2.08123
 20
9.177
 30
0.0
 10
-2.32788
 20
9.3702
 30
0.0
 10
-2.61647
 20
9.50249
 30
0.0
 10
-2.92383
 20
9.5632
 30
0.0
 10
-2.92383
 20
9.5632
 30
0.0
 10
-2.93719
 20
9.56582
 30
0.0
 10
-2.95078
 20
9.56704
 30
0.0
 10
-2.96439
 20
9.56682
 30
0.0
 10
-2.96439
 20
9.56682
 30
0.0
 10
-2.96439
 20
9.56682
 30
0.0
 10
-2.96439
 20
10.66215
 30
0.0
 10
-2.96439
 20
10.66215
 30
0.0
 10
-2.96439
 20
10.66215
 30
0.0
 10
-2.96439
 20
10.66215
 30
0.0
 10
-2.96438
 20
10.66215
 30
0.0
 10
-2.96438
 20
10.66215
 30
0.0
  0
SPLINE
  5
89
330
1F
100
AcDbEntity
  8
Layer 1
 62
   242
100
AcDbSpline
210
0.0
220
0.0
230
1.0
 70
    11
 71
     3
 72
    24
 73
    20
 74
     0
 42
0.0000000001
 43
0.0000000001
 12
1.0
 22
0.0
 32
0.0
 13
1.0
 23
0.0
 33
0.0
 40
0.0
 40
0.0
 40
0.0
 40
0.0
 40
0.1666666666666667
 40
0.1666666666666667
 40
0.1666666666666667
 40
0.1666666666666667
 40
0.3333333333333333
 40
0.3333333333333333
 40
0.3333333333333333
 40
0.3333333333333333
 40
0.5
 40
0.5
 40
0.5
 40
0.5
 40
0.6666666666666666
 40
0.6666666666666666
 40
0.6666666666666666
 40
0.6666666666666666
 40
1.0
 40
1.0
 40
1.0
 40
1.0
 10
-2.96438
 20
7.18085
 30
0.0
 10
-2.96438
 20
7.18085
 30
0.0
 10
-2.96439
 20
9.17745
 30
0.0
 10
-2.96439
 20
9.17745
 30
0.0
 10
-2.96439
 20
9.17745
 30
0.0
 10
-2.65496
 20
9.10938
 30
0.0
 10
-2.373
 20
8.94976
 30
0.0
 10
-2.15531
 20
8.71956
 30
0.0
 10
-2.15531
 20
8.71956
 30
0.0
 10
-1.78978
 20
8.33317
 30
0.0
 10
-1.68788
 20
7.7664
 30
0.0
 10
-1.89525
 20
7.2766
 30
0.0
 10
-1.89525
 20
7.2766
 30
0.0
 10
-2.25419
 20
7.33139
 30
0.0
 10
-2.6209
 20
7.29858
 30
0.0
 10
-2.9644
 20
7.18085
 30
0.0
 10
-2.9644
 20
7.18085
 30
0.0
 10
-2.9644
 20
7.18085
 30
0.0
 10
-2.96438
 20
7.18085
 30
0.0
 10
-2.96438
 20
7.18085
 30
0.0
  0
SPLINE
  5
8A
330
1F
100
AcDbEntity
  8
Layer 1
 62
   242
100
AcDbSpline
210
0.0
220
0.0
230
1.0
 70
    11
 71
     3
 72
    32
 73
    28
 74
     0
 42
0.0000000001
 43
0.0000000001
 12
1.0
 22
0.0
 32
0.0
 13
1.0
 23
0.0
 33
0.0
 40
0.0
 40
0.0
 40
0.0
 40
0.0
 40
0.125
 40
0.125
 40
0.125
 40
0.125
 40
0.25
 40
0.25
 40
0.25
 40
0.25
 40
0.375
 40
0.375
 40
0.375
 40
0.375
 40
0.5
 40
0.5
 40
0.5
 40
0.5
 40
0.625
 40
0.625
 40
0.625
 40
0.625
 40
0.75
 40
0.75
 40
0.75
 40
0.75
 40
1.0
 40
1.0
 40
1.0
 40
1.0
 10
5.54986
 20
-2.46812
 30
0.0
 10
5.54986
 20
-2.46812
 30
0.0
 10
5.54986
 20
-4.74243
 30
0.0
 10
5.54986
 20
-4.74243
 30
0.0
 10
5.54986
 20
-4.74243
 30
0.0
 10
5.27914
 20
-3.79457
 30
0.0
 10
4.31563
 20
-3.22422
 30
0.0
 10
3.35496
 20
-3.44531
 30
0.0
 10
3.35496
 20
-3.44531
 30
0.0
 10
3.15715
 20
-3.12881
 30
0.0
 10
2.88219
 20
-2.86797
 30
0.0
 10
2.55567
 20
-2.68719
 30
0.0
 10
2.55567
 20
-2.68719
 30
0.0
 10
2.82783
 20
-2.734
 30
0.0
 10
3.10681
 20
-2.7209
 30
0.0
 10
3.37338
 20
-2.64875
 30
0.0
 10
3.37338
 20
-2.64875
 30
0.0
 10
3.64383
 20
-2.99772
 30
0.0
 10
4.07264
 20
-3.18593
 30
0.0
 10
4.51258
 20
-3.14875
 30
0.0
 10
4.51258
 20
-3.14875
 30
0.0
 10
4.95251
 20
-3.11157
 30
0.0
 10
5.34181
 20
-2.85753
 30
0.0
 10
5.54986
 20
-2.46812
 30
0.0
 10
5.54986
 20
-2.46812
 30
0.0
 10
5.54986
 20
-2.46812
 30
0.0
 10
5.54986
 20
-2.46812
 30
0.0
 10
5.54986
 20
-2.46812
 30
0.0
  0
SPLINE
  5
8B
330
1F
100
AcDbEntity
  8
Layer 1
 62
   242
100
AcDbSpline
210
0.0
220
0.0
230
1.0
 70
    11
 71
     3
 72
    28
 73
    24
 74
     0
 42
0.0000000001
 43
0.0000000001
 12
1.0
 22
0.0
 32
0.0
 13
1.0
 23
0.0
 33
0.0
 40
0.0
 40
0.0
 40
0.0
 40
0.0
 40
0.1428571428571428
 40
0.1428571428571428
 40
0.1428571428571428
 40
0.1428571428571428
 40
0.2857142857142857
 40
0.2857142857142857
 40
0.2857142857142857
 40
0.2857142857142857
 40
0.4285714285714285
 40
0.4285714285714285
 40
0.4285714285714285
 40
0.4285714285714285
 40
0.5714285714285714
 40
0.5714285714285714
 40
0.5714285714285714
 40
0.5714285714285714
 40
0.7142857142857143
 40
0.7142857142857143
 40
0.7142857142857143
 40
0.7142857142857143
 40
1.0
 40
1.0
 40
1.0
 40
1.0
 10
-2.96438
 20
0.82934
 30
0.0
 10
-2.96438
 20
0.82934
 30
0.0
 10
-2.96439
 20
2.92303
 30
0.0
 10
-2.96439
 20
2.92303
 30
0.0
 10
-2.96439
 20
2.92303
 30
0.0
 10
-2.64484
 20
2.81353
 30
0.0
 10
-2.30488
 20
2.77736
 30
0.0
 10
-1.96945
 20
2.81721
 30
0.0
 10
-1.96945
 20
2.81721
 30
0.0
 10
-1.82433
 20
2.44855
 30
0.0
 10
-1.83161
 20
2.03735
 30
0.0
 10
-1.98968
 20
1.67407
 30
0.0
 10
-1.98968
 20
1.67407
 30
0.0
 10
-2.14775
 20
1.31078
 30
0.0
 10
-2.44543
 20
1.02447
 30
0.0
 10
-2.81409
 20
0.87937
 30
0.0
 10
-2.81409
 20
0.87937
 30
0.0
 10
-2.86327
 20
0.86004
 30
0.0
 10
-2.91344
 20
0.84334
 30
0.0
 10
-2.96439
 20
0.82933
 30
0.0
 10
-2.96439
 20
0.82933
 30
0.0
 10
-2.96439
 20
0.82933
 30
0.0
 10
-2.96438
 20
0.82934
 30
0.0
 10
-2.96438
 20
0.82934
 30
0.0
  0
SPLINE
  5
8C
330
1F
100
AcDbEntity
  8
Layer 1
 62
   242
100
AcDbSpline
210
0.0
220
0.0
230
1.0
 70
    11
 71
     3
 72
    24
 73
    20
 74
     0
 42
0.0000000001
 43
0.0000000001
 12
1.0
 22
0.0
 32
0.0
 13
1.0
 23
0.0
 33
0.0
 40
0.0
 40
0.0
 40
0.0
 40
0.0
 40
0.1666666666666667
 40
0.1666666666666667
 40
0.1666666666666667
 40
0.1666666666666667
 40
0.3333333333333333
 40
0.3333333333333333
 40
0.3333333333333333
 40
0.3333333333333333
 40
0.5
 40
0.5
 40
0.5
 40
0.5
 40
0.6666666666666666
 40
0.6666666666666666
 40
0.6666666666666666
 40
0.6666666666666666
 40
1.0
 40
1.0
 40
1.0
 40
1.0
 10
-0.76466
 20
-2.96967
 30
0.0
 10
-0.89502
 20
-3.35242
 30
0.0
 10
-1.25446
 20
-3.6098
 30
0.0
 10
-1.6588
 20
-3.60993
 30
0.0
 10
-1.6588
 20
-3.60993
 30
0.0
 10
-2.06315
 20
-3.61005
 30
0.0
 10
-2.42275
 20
-3.35289
 30
0.0
 10
-2.55334
 20
-2.97021
 30
0.0
 10
-2.55334
 20
-2.97021
 30
0.0
 10
-2.68394
 20
-2.58755
 30
0.0
 10
-2.54623
 20
-2.15632
 30
0.0
 10
-2.22617
 20
-1.90923
 30
0.0
 10
-2.22617
 20
-1.90923
 30
0.0
 10
-1.97475
 20
-2.50785
 30
0.0
 10
-1.41178
 20
-2.91665
 30
0.0
 10
-0.76467
 20
-2.96967
 30
0.0
 10
-0.76467
 20
-2.96967
 30
0.0
 10
-0.76467
 20
-2.96967
 30
0.0
 10
-0.76466
 20
-2.96967
 30
0.0
 10
-0.76466
 20
-2.96967
 30
0.0
  0
SPLINE
  5
8D
330
1F
100
AcDbEntity
  8
Layer 1
 62
   242
100
AcDbSpline
210
0.0
220
0.0
230
1.0
 70
    11
 71
     3
 72
    28
 73
    24
 74
     0
 42
0.0000000001
 43
0.0000000001
 12
1.0
 22
0.0
 32
0.0
 13
1.0
 23
0.0
 33
0.0
 40
0.0
 40
0.0
 40
0.0
 40
0.0
 40
0.1428571428571428
 40
0.1428571428571428
 40
0.1428571428571428
 40
0.1428571428571428
 40
0.2857142857142857
 40
0.2857142857142857
 40
0.2857142857142857
 40
0.2857142857142857
 40
0.4285714285714285
 40
0.4285714285714285
 40
0.4285714285714285
 40
0.4285714285714285
 40
0.5714285714285714
 40
0.5714285714285714
 40
0.5714285714285714
 40
0.5714285714285714
 40
0.7142857142857143
 40
0.7142857142857143
 40
0.7142857142857143
 40
0.7142857142857143
 40
1.0
 40
1.0
 40
1.0
 40
1.0
 10
5.54986
 20
3.17712
 30
0.0
 10
5.54986
 20
3.17712
 30
0.0
 10
5.54986
 20
0.77803
 30
0.0
 10
5.54986
 20
0.77803
 30
0.0
 10
5.54986
 20
0.77803
 30
0.0
 10
5.24742
 20
0.71963
 30
0.0
 10
4.9341
 20
0.7574
 30
0.0
 10
4.65416
 20
0.88591
 30
0.0
 10
4.65416
 20
0.88591
 30
0.0
 10
4.98379
 20
1.50665
 30
0.0
 10
5.02899
 20
2.23903
 30
0.0
 10
4.77775
 20
2.89541
 30
0.0
 10
4.77775
 20
2.89541
 30
0.0
 10
5.023
 20
2.94542
 30
0.0
 10
5.26031
 20
3.02831
 30
0.0
 10
5.48336
 20
3.1419
 30
0.0
 10
5.48336
 20
3.1419
 30
0.0
 10
5.50571
 20
3.15332
 30
0.0
 10
5.52789
 20
3.16507
 30
0.0
 10
5.5499
 20
3.17713
 30
0.0
 10
5.5499
 20
3.17713
 30
0.0
 10
5.5499
 20
3.17713
 30
0.0
 10
5.54986
 20
3.17712
 30
0.0
 10
5.54986
 20
3.17712
 30
0.0
  0
SPLINE
  5
8E
330
1F
100
AcDbEntity
  8
Layer 1
 62
   242
100
AcDbSpline
210
0.0
220
0.0
230
1.0
 70
    11
 71
     3
 72
    24
 73
    20
 74
     0
 42
0.0000000001
 43
0.0000000001
 12
1.0
 22
0.0
 32
0.0
 13
1.0
 23
0.0
 33
0.0
 40
0.0
 40
0.0
 40
0.0
 40
0.0
 40
0.1666666666666667
 40
0.1666666666666667
 40
0.1666666666666667
 40
0.1666666666666667
 40
0.3333333333333333
 40
0.3333333333333333
 40
0.3333333333333333
 40
0.3333333333333333
 40
0.5
 40
0.5
 40
0.5
 40
0.5
 40
0.6666666666666666
 40
0.6666666666666666
 40
0.6666666666666666
 40
0.6666666666666666
 40
1.0
 40
1.0
 40
1.0
 40
1.0
 10
2.49516
 20
5.66555
 30
0.0
 10
2.81339
 20
5.6596
 30
0.0
 10
3.12957
 20
5.71633
 30
0.0
 10
3.42586
 20
5.83261
 30
0.0
 10
3.42586
 20
5.83261
 30
0.0
 10
3.69945
 20
5.34595
 30
0.0
 10
3.70932
 20
4.7537
 30
0.0
 10
3.45259
 20
4.25794
 30
0.0
 10
3.45259
 20
4.25794
 30
0.0
 10
3.15196
 20
4.38346
 30
0.0
 10
2.8292
 20
4.44697
 30
0.0
 10
2.50342
 20
4.44466
 30
0.0
 10
2.50342
 20
4.44466
 30
0.0
 10
2.36258
 20
4.83885
 30
0.0
 10
2.35971
 20
5.26943
 30
0.0
 10
2.49512
 20
5.66552
 30
0.0
 10
2.49512
 20
5.66552
 30
0.0
 10
2.49512
 20
5.66552
 30
0.0
 10
2.49516
 20
5.66555
 30
0.0
 10
2.49516
 20
5.66555
 30
0.0
  0
SPLINE
  5
8F
330
1F
100
AcDbEntity
  8
Layer 1
 62
   242
100
AcDbSpline
210
0.0
220
0.0
230
1.0
 70
    11
 71
     3
 72
    24
 73
    20
 74
     0
 42
0.0000000001
 43
0.0000000001
 12
1.0
 22
0.0
 32
0.0
 13
1.0
 23
0.0
 33
0.0
 40
0.0
 40
0.0
 40
0.0
 40
0.0
 40
0.1666666666666667
 40
0.1666666666666667
 40
0.1666666666666667
 40
0.1666666666666667
 40
0.3333333333333333
 40
0.3333333333333333
 40
0.3333333333333333
 40
0.3333333333333333
 40
0.5
 40
0.5
 40
0.5
 40
0.5
 40
0.6666666666666666
 40
0.6666666666666666
 40
0.6666666666666666
 40
0.6666666666666666
 40
1.0
 40
1.0
 40
1.0
 40
1.0
 10
5.54986
 20
9.27001
 30
0.0
 10
5.54986
 20
9.27001
 30
0.0
 10
5.54986
 20
6.88291
 30
0.0
 10
5.54986
 20
6.88291
 30
0.0
 10
5.54986
 20
6.88291
 30
0.0
 10
5.32589
 20
7.04379
 30
0.0
 10
5.07417
 20
7.16182
 30
0.0
 10
4.80725
 20
7.23109
 30
0.0
 10
4.80725
 20
7.23109
 30
0.0
 10
5.04605
 20
7.86538
 30
0.0
 10
5.00965
 20
8.57001
 30
0.0
 10
4.70636
 20
9.17612
 30
0.0
 10
4.70636
 20
9.17612
 30
0.0
 10
4.97211
 20
9.28968
 30
0.0
 10
5.26562
 20
9.32233
 30
0.0
 10
5.54985
 20
9.27003
 30
0.0
 10
5.54985
 20
9.27003
 30
0.0
 10
5.54985
 20
9.27003
 30
0.0
 10
5.54986
 20
9.27001
 30
0.0
 10
5.54986
 20
9.27001
 30
0.0
  0
SPLINE
  5
90
330
1F
100
AcDbEntity
  8
Layer 1
 62
   242
100
AcDbSpline
210
0.0
220
0.0
230
1.0
 70
    11
 71
     3
 72
    20
 73
    16
 74
     0
 42
0.0000000001
 43
0.0000000001
 12
1.0
 22
0.0
 32
0.0
 13
1.0
 23
0.0
 33
0.0
 40
0.0
 40
0.0
 40
0.0
 40
0.0
 40
0.2
 40
0.2
 40
0.2
 40
0.2
 40
0.4
 40
0.4
 40
0.4
 40
0.4
 40
0.6
 40
0.6
 40
0.6
 40
0.6
 40
1.0
 40
1.0
 40
1.0
 40
1.0
 10
2.56346
 20
-6.07126
 30
0.0
 10
2.10776
 20
-5.40489
 30
0.0
 10
2.28007
 20
-4.49422
 30
0.0
 10
2.94644
 20
-4.03852
 30
0.0
 10
2.94644
 20
-4.03852
 30
0.0
 10
3.01551
 20
-3.99133
 30
0.0
 10
3.08853
 20
-3.95016
 30
0.0
 10
3.16465
 20
-3.91546
 30
0.0
 10
3.16465
 20
-3.91546
 30
0.0
 10
3.4798
 20
-4.68656
 30
0.0
 10
3.23179
 20
-5.57403
 30
0.0
 10
2.56346
 20
-6.07126
 30
0.0
 10
2.56346
 20
-6.07126
 30
0.0
 10
2.56346
 20
-6.07126
 30
0.0
 10
2.56346
 20
-6.07126
 30
0.0
 10
2.56346
 20
-6.07126
 30
0.0
  0
SPLINE
  5
91
330
1F
100
AcDbEntity
  8
Layer 1
 62
   242
100
AcDbSpline
210
0.0
220
0.0
230
1.0
 70
    11
 71
     3
 72
    24
 73
    20
 74
     0
 42
0.0000000001
 43
0.0000000001
 12
1.0
 22
0.0
 32
0.0
 13
1.0
 23
0.0
 33
0.0
 40
0.0
 40
0.0
 40
0.0
 40
0.0
 40
0.1666666666666667
 40
0.1666666666666667
 40
0.1666666666666667
 40
0.1666666666666667
 40
0.3333333333333333
 40
0.3333333333333333
 40
0.3333333333333333
 40
0.3333333333333333
 40
0.5
 40
0.5
 40
0.5
 40
0.5
 40
0.6666666666666666
 40
0.6666666666666666
 40
0.6666666666666666
 40
0.6666666666666666
 40
1.0
 40
1.0
 40
1.0
 40
1.0
 10
3.75504
 20
-2.49964
 30
0.0
 10
4.31802
 20
-2.20231
 30
0.0
 10
4.6966
 20
-1.64556
 30
0.0
 10
4.76554
 20
-1.01263
 30
0.0
 10
4.76554
 20
-1.01263
 30
0.0
 10
5.10761
 20
-1.15355
 30
0.0
 10
5.33174
 20
-1.48598
 30
0.0
 10
5.33409
 20
-1.85594
 30
0.0
 10
5.33409
 20
-1.85594
 30
0.0
 10
5.33644
 20
-2.22591
 30
0.0
 10
5.11656
 20
-2.56115
 30
0.0
 10
4.77629
 20
-2.7064
 30
0.0
 10
4.77629
 20
-2.7064
 30
0.0
 10
4.43602
 20
-2.85165
 30
0.0
 10
4.02057
 20
-2.75724
 30
0.0
 10
3.75502
 20
-2.49963
 30
0.0
 10
3.75502
 20
-2.49963
 30
0.0
 10
3.75502
 20
-2.49963
 30
0.0
 10
3.75504
 20
-2.49964
 30
0.0
 10
3.75504
 20
-2.49964
 30
0.0
  0
SPLINE
  5
92
330
1F
100
AcDbEntity
  8
Layer 1
 62
   242
100
AcDbSpline
210
0.0
220
0.0
230
1.0
 70
    11
 71
     3
 72
    28
 73
    24
 74
     0
 42
0.0000000001
 43
0.0000000001
 12
1.0
 22
0.0
 32
0.0
 13
1.0
 23
0.0
 33
0.0
 40
0.0
 40
0.0
 40
0.0
 40
0.0
 40
0.1428571428571428
 40
0.1428571428571428
 40
0.1428571428571428
 40
0.1428571428571428
 40
0.2857142857142857
 40
0.2857142857142857
 40
0.2857142857142857
 40
0.2857142857142857
 40
0.4285714285714285
 40
0.4285714285714285
 40
0.4285714285714285
 40
0.4285714285714285
 40
0.5714285714285714
 40
0.5714285714285714
 40
0.5714285714285714
 40
0.5714285714285714
 40
0.7142857142857143
 40
0.7142857142857143
 40
0.7142857142857143
 40
0.7142857142857143
 40
1.0
 40
1.0
 40
1.0
 40
1.0
 10
5.54986
 20
0.38651
 30
0.0
 10
5.54986
 20
0.38651
 30
0.0
 10
5.54986
 20
-1.23823
 30
0.0
 10
5.54986
 20
-1.23823
 30
0.0
 10
5.54986
 20
-1.23823
 30
0.0
 10
5.38386
 20
-0.92924
 30
0.0
 10
5.10063
 20
-0.70026
 30
0.0
 10
4.76366
 20
-0.60287
 30
0.0
 10
4.76366
 20
-0.60287
 30
0.0
 10
4.72118
 20
-0.22792
 30
0.0
 10
4.56807
 20
0.1257
 30
0.0
 10
4.32363
 20
0.41317
 30
0.0
 10
4.32363
 20
0.41317
 30
0.0
 10
4.36558
 20
0.4601
 30
0.0
 10
4.40569
 20
0.50864
 30
0.0
 10
4.44387
 20
0.5587
 30
0.0
 10
4.44387
 20
0.5587
 30
0.0
 10
4.78622
 20
0.38923
 30
0.0
 10
5.17217
 20
0.3291
 30
0.0
 10
5.54983
 20
0.38651
 30
0.0
 10
5.54983
 20
0.38651
 30
0.0
 10
5.54983
 20
0.38651
 30
0.0
 10
5.54986
 20
0.38651
 30
0.0
 10
5.54986
 20
0.38651
 30
0.0
  0
SPLINE
  5
93
330
1F
100
AcDbEntity
  8
Layer 1
 62
   242
100
AcDbSpline
210
0.0
220
0.0
230
1.0
 70
    11
 71
     3
 72
    32
 73
    28
 74
     0
 42
0.0000000001
 43
0.0000000001
 12
1.0
 22
0.0
 32
0.0
 13
1.0
 23
0.0
 33
0.0
 40
0.0
 40
0.0
 40
0.0
 40
0.0
 40
0.125
 40
0.125
 40
0.125
 40
0.125
 40
0.25
 40
0.25
 40
0.25
 40
0.25
 40
0.375
 40
0.375
 40
0.375
 40
0.375
 40
0.5
 40
0.5
 40
0.5
 40
0.5
 40
0.625
 40
0.625
 40
0.625
 40
0.625
 40
0.75
 40
0.75
 40
0.75
 40
0.75
 40
1.0
 40
1.0
 40
1.0
 40
1.0
 10
4.69627
 20
10.66215
 30
0.0
 10
4.69627
 20
10.66215
 30
0.0
 10
5.54986
 20
10.66215
 30
0.0
 10
5.54986
 20
10.66215
 30
0.0
 10
5.54986
 20
10.66215
 30
0.0
 10
5.54986
 20
10.66215
 30
0.0
 10
5.54986
 20
9.66103
 30
0.0
 10
5.54986
 20
9.66103
 30
0.0
 10
5.54986
 20
9.66103
 30
0.0
 10
5.19392
 20
9.71258
 30
0.0
 10
4.83086
 20
9.65968
 30
0.0
 10
4.50446
 20
9.50861
 30
0.0
 10
4.50446
 20
9.50861
 30
0.0
 10
4.44755
 20
9.58734
 30
0.0
 10
4.38596
 20
9.66257
 30
0.0
 10
4.32
 20
9.7339
 30
0.0
 10
4.32
 20
9.7339
 30
0.0
 10
4.52464
 20
9.99596
 30
0.0
 10
4.65419
 20
10.30855
 30
0.0
 10
4.69482
 20
10.63855
 30
0.0
 10
4.69482
 20
10.63855
 30
0.0
 10
4.69578
 20
10.64638
 30
0.0
 10
4.69627
 20
10.65425
 30
0.0
 10
4.69627
 20
10.66214
 30
0.0
 10
4.69627
 20
10.66214
 30
0.0
 10
4.69627
 20
10.66214
 30
0.0
 10
4.69627
 20
10.66215
 30
0.0
 10
4.69627
 20
10.66215
 30
0.0
  0
SPLINE
  5
94
330
1F
100
AcDbEntity
  8
Layer 1
 62
   242
100
AcDbSpline
210
0.0
220
0.0
230
1.0
 70
    11
 71
     3
 72
    20
 73
    16
 74
     0
 42
0.0000000001
 43
0.0000000001
 12
1.0
 22
0.0
 32
0.0
 13
1.0
 23
0.0
 33
0.0
 40
0.0
 40
0.0
 40
0.0
 40
0.0
 40
0.2
 40
0.2
 40
0.2
 40
0.2
 40
0.4
 40
0.4
 40
0.4
 40
0.4
 40
0.6
 40
0.6
 40
0.6
 40
0.6
 40
1.0
 40
1.0
 40
1.0
 40
1.0
 10
-1.81509
 20
10.66215
 30
0.0
 10
-1.81509
 20
10.66215
 30
0.0
 10
0.52069
 20
10.66215
 30
0.0
 10
0.52069
 20
10.66215
 30
0.0
 10
0.52069
 20
10.66215
 30
0.0
 10
0.26025
 20
10.27296
 30
0.0
 10
-0.17694
 20
10.03908
 30
0.0
 10
-0.64522
 20
10.03842
 30
0.0
 10
-0.64522
 20
10.03842
 30
0.0
 10
-1.1135
 20
10.03776
 30
0.0
 10
-1.55355
 20
10.27369
 30
0.0
 10
-1.81509
 20
10.66214
 30
0.0
 10
-1.81509
 20
10.66214
 30
0.0
 10
-1.81509
 20
10.66214
 30
0.0
 10
-1.81509
 20
10.66215
 30
0.0
 10
-1.81509
 20
10.66215
 30
0.0
  0
SPLINE
  5
95
330
1F
100
AcDbEntity
  8
Layer 1
 62
   242
100
AcDbSpline
210
0.0
220
0.0
230
1.0
 70
    11
 71
     3
 72
    20
 73
    16
 74
     0
 42
0.0000000001
 43
0.0000000001
 12
1.0
 22
0.0
 32
0.0
 13
1.0
 23
0.0
 33
0.0
 40
0.0
 40
0.0
 40
0.0
 40
0.0
 40
0.2
 40
0.2
 40
0.2
 40
0.2
 40
0.4
 40
0.4
 40
0.4
 40
0.4
 40
0.6
 40
0.6
 40
0.6
 40
0.6
 40
1.0
 40
1.0
 40
1.0
 40
1.0
 10
3.93297
 20
2.8531
 30
0.0
 10
4.08278
 20
2.83193
 30
0.0
 10
4.23433
 20
2.82604
 30
0.0
 10
4.38533
 20
2.83552
 30
0.0
 10
4.38533
 20
2.83552
 30
0.0
 10
4.62686
 20
2.27493
 30
0.0
 10
4.60514
 20
1.63526
 30
0.0
 10
4.32657
 20
1.09213
 30
0.0
 10
4.32657
 20
1.09213
 30
0.0
 10
3.81394
 20
1.52314
 30
0.0
 10
3.65308
 20
2.24462
 30
0.0
 10
3.93299
 20
2.85307
 30
0.0
 10
3.93299
 20
2.85307
 30
0.0
 10
3.93299
 20
2.85307
 30
0.0
 10
3.93297
 20
2.8531
 30
0.0
 10
3.93297
 20
2.8531
 30
0.0
  0
SPLINE
  5
96
330
1F
100
AcDbEntity
  8
Layer 1
 62
   242
100
AcDbSpline
210
0.0
220
0.0
230
1.0
 70
    11
 71
     3
 72
    20
 73
    16
 74
     0
 42
0.0000000001
 43
0.0000000001
 12
1.0
 22
0.0
 32
0.0
 13
1.0
 23
0.0
 33
0.0
 40
0.0
 40
0.0
 40
0.0
 40
0.0
 40
0.2
 40
0.2
 40
0.2
 40
0.2
 40
0.4
 40
0.4
 40
0.4
 40
0.4
 40
0.6
 40
0.6
 40
0.6
 40
0.6
 40
1.0
 40
1.0
 40
1.0
 40
1.0
 10
4.4177
 20
7.29616
 30
0.0
 10
4.2514
 20
7.30901
 30
0.0
 10
4.08422
 20
7.3032
 30
0.0
 10
3.91922
 20
7.27886
 30
0.0
 10
3.91922
 20
7.27886
 30
0.0
 10
3.68173
 20
7.88339
 30
0.0
 10
3.86639
 20
8.57275
 30
0.0
 10
4.37357
 20
8.9785
 30
0.0
 10
4.37357
 20
8.9785
 30
0.0
 10
4.62875
 20
8.45016
 30
0.0
 10
4.6447
 20
7.83723
 30
0.0
 10
4.41773
 20
7.29618
 30
0.0
 10
4.41773
 20
7.29618
 30
0.0
 10
4.41773
 20
7.29618
 30
0.0
 10
4.4177
 20
7.29616
 30
0.0
 10
4.4177
 20
7.29616
 30
0.0
  0
SPLINE
  5
97
330
1F
100
AcDbEntity
  8
Layer 1
 62
   242
100
AcDbSpline
210
0.0
220
0.0
230
1.0
 70
    11
 71
     3
 72
    16
 73
    12
 74
     0
 42
0.0000000001
 43
0.0000000001
 12
1.0
 22
0.0
 32
0.0
 13
1.0
 23
0.0
 33
0.0
 40
0.0
 40
0.0
 40
0.0
 40
0.0
 40
0.25
 40
0.25
 40
0.25
 40
0.25
 40
0.5
 40
0.5
 40
0.5
 40
0.5
 40
1.0
 40
1.0
 40
1.0
 40
1.0
 10
3.76267
 20
9.71902
 30
0.0
 10
3.13641
 20
9.23259
 30
0.0
 10
2.23424
 20
9.34201
 30
0.0
 10
1.7407
 20
9.96268
 30
0.0
 10
1.7407
 20
9.96268
 30
0.0
 10
2.41019
 20
10.24379
 30
0.0
 10
3.17894
 20
10.15089
 30
0.0
 10
3.76267
 20
9.71903
 30
0.0
 10
3.76267
 20
9.71903
 30
0.0
 10
3.76267
 20
9.71903
 30
0.0
 10
3.76267
 20
9.71902
 30
0.0
 10
3.76267
 20
9.71902
 30
0.0
  0
SPLINE
  5
98
330
1F
100
AcDbEntity
  8
Layer 1
 62
   242
100
AcDbSpline
210
0.0
220
0.0
230
1.0
 70
    11
 71
     3
 72
    28
 73
    24
 74
     0
 42
0.0000000001
 43
0.0000000001
 12
1.0
 22
0.0
 32
0.0
 13
1.0
 23
0.0
 33
0.0
 40
0.0
 40
0.0
 40
0.0
 40
0.0
 40
0.1428571428571428
 40
0.1428571428571428
 40
0.1428571428571428
 40
0.1428571428571428
 40
0.2857142857142857
 40
0.2857142857142857
 40
0.2857142857142857
 40
0.2857142857142857
 40
0.4285714285714285
 40
0.4285714285714285
 40
0.4285714285714285
 40
0.4285714285714285
 40
0.5714285714285714
 40
0.5714285714285714
 40
0.5714285714285714
 40
0.5714285714285714
 40
0.7142857142857143
 40
0.7142857142857143
 40
0.7142857142857143
 40
0.7142857142857143
 40
1.0
 40
1.0
 40
1.0
 40
1.0
 10
0.49492
 20
6.78912
 30
0.0
 10
0.54778
 20
6.70588
 30
0.0
 10
0.60568
 20
6.62596
 30
0.0
 10
0.6683
 20
6.54978
 30
0.0
 10
0.6683
 20
6.54978
 30
0.0
 10
0.30934
 20
6.23723
 30
0.0
 10
0.07183
 20
5.8087
 30
0.0
 10
-0.00276
 20
5.33862
 30
0.0
 10
-0.00276
 20
5.33862
 30
0.0
 10
-0.11826
 20
6.1908
 30
0.0
 10
-0.70321
 20
6.90475
 30
0.0
 10
-1.51637
 20
7.1846
 30
0.0
 10
-1.51637
 20
7.1846
 30
0.0
 10
-1.46173
 20
7.32803
 30
0.0
 10
-1.42655
 20
7.47809
 30
0.0
 10
-1.41176
 20
7.63086
 30
0.0
 10
-1.41176
 20
7.63086
 30
0.0
 10
-1.09102
 20
6.8971
 30
0.0
 10
-0.26313
 20
6.53092
 30
0.0
 10
0.4949
 20
6.78912
 30
0.0
 10
0.4949
 20
6.78912
 30
0.0
 10
0.4949
 20
6.78912
 30
0.0
 10
0.49492
 20
6.78912
 30
0.0
 10
0.49492
 20
6.78912
 30
0.0
  0
SPLINE
  5
99
330
1F
100
AcDbEntity
  8
Layer 1
 62
   242
100
AcDbSpline
210
0.0
220
0.0
230
1.0
 70
    11
 71
     3
 72
    16
 73
    12
 74
     0
 42
0.0000000001
 43
0.0000000001
 12
1.0
 22
0.0
 32
0.0
 13
1.0
 23
0.0
 33
0.0
 40
0.0
 40
0.0
 40
0.0
 40
0.0
 40
0.25
 40
0.25
 40
0.25
 40
0.25
 40
0.5
 40
0.5
 40
0.5
 40
0.5
 40
1.0
 40
1.0
 40
1.0
 40
1.0
 10
3.75836
 20
0.4129
 30
0.0
 10
3.17369
 20
-0.03029
 30
0.0
 10
2.39624
 20
-0.12769
 30
0.0
 10
1.72
 20
0.15685
 30
0.0
 10
1.72
 20
0.15685
 30
0.0
 10
2.22866
 20
0.75955
 30
0.0
 10
3.11591
 20
0.87037
 30
0.0
 10
3.75832
 20
0.41289
 30
0.0
 10
3.75832
 20
0.41289
 30
0.0
 10
3.75832
 20
0.41289
 30
0.0
 10
3.75836
 20
0.4129
 30
0.0
 10
3.75836
 20
0.4129
 30
0.0
  0
SPLINE
  5
9A
330
1F
100
AcDbEntity
  8
Layer 1
 62
   242
100
AcDbSpline
210
0.0
220
0.0
230
1.0
 70
    11
 71
     3
 72
    20
 73
    16
 74
     0
 42
0.0000000001
 43
0.0000000001
 12
1.0
 22
0.0
 32
0.0
 13
1.0
 23
0.0
 33
0.0
 40
0.0
 40
0.0
 40
0.0
 40
0.0
 40
0.2
 40
0.2
 40
0.2
 40
0.2
 40
0.4
 40
0.4
 40
0.4
 40
0.4
 40
0.6
 40
0.6
 40
0.6
 40
0.6
 40
1.0
 40
1.0
 40
1.0
 40
1.0
 10
-2.96438
 20
-5.41368
 30
0.0
 10
-2.96438
 20
-5.41368
 30
0.0
 10
-2.96439
 20
-2.88665
 30
0.0
 10
-2.96439
 20
-2.88665
 30
0.0
 10
-2.96439
 20
-2.88665
 30
0.0
 10
-2.85635
 20
-3.48698
 30
0.0
 10
-2.35741
 20
-3.93846
 30
0.0
 10
-1.74922
 20
-3.98503
 30
0.0
 10
-1.74922
 20
-3.98503
 30
0.0
 10
-2.38691
 20
-4.20096
 30
0.0
 10
-2.85386
 20
-4.74954
 30
0.0
 10
-2.96438
 20
-5.41366
 30
0.0
 10
-2.96438
 20
-5.41366
 30
0.0
 10
-2.96438
 20
-5.41366
 30
0.0
 10
-2.96438
 20
-5.41368
 30
0.0
 10
-2.96438
 20
-5.41368
 30
0.0
  0
SPLINE
  5
9B
330
1F
100
AcDbEntity
  8
Layer 1
 62
   242
100
AcDbSpline
210
0.0
220
0.0
230
1.0
 70
    11
 71
     3
 72
    28
 73
    24
 74
     0
 42
0.0000000001
 43
0.0000000001
 12
1.0
 22
0.0
 32
0.0
 13
1.0
 23
0.0
 33
0.0
 40
0.0
 40
0.0
 40
0.0
 40
0.0
 40
0.1428571428571428
 40
0.1428571428571428
 40
0.1428571428571428
 40
0.1428571428571428
 40
0.2857142857142857
 40
0.2857142857142857
 40
0.2857142857142857
 40
0.2857142857142857
 40
0.4285714285714285
 40
0.4285714285714285
 40
0.4285714285714285
 40
0.4285714285714285
 40
0.5714285714285714
 40
0.5714285714285714
 40
0.5714285714285714
 40
0.5714285714285714
 40
0.7142857142857143
 40
0.7142857142857143
 40
0.7142857142857143
 40
0.7142857142857143
 40
1.0
 40
1.0
 40
1.0
 40
1.0
 10
0.62591
 20
3.52978
 30
0.0
 10
0.57899
 20
3.47069
 30
0.0
 10
0.53488
 20
3.40943
 30
0.0
 10
0.4937
 20
3.34621
 30
0.0
 10
0.4937
 20
3.34621
 30
0.0
 10
-0.32245
 20
3.61802
 30
0.0
 10
-1.20442
 20
3.18253
 30
0.0
 10
-1.48255
 20
2.36852
 30
0.0
 10
-1.48255
 20
2.36852
 30
0.0
 10
-1.49194
 20
2.54871
 30
0.0
 10
-1.52719
 20
2.72655
 30
0.0
 10
-1.58727
 20
2.89668
 30
0.0
 10
-1.58727
 20
2.89668
 30
0.0
 10
-0.75126
 20
3.15437
 30
0.0
 10
-0.13713
 20
3.86732
 30
0.0
 10
-0.00721
 20
4.73243
 30
0.0
 10
-0.00721
 20
4.73243
 30
0.0
 10
0.0592
 20
4.27054
 30
0.0
 10
0.28267
 20
3.84591
 30
0.0
 10
0.62592
 20
3.52978
 30
0.0
 10
0.62592
 20
3.52978
 30
0.0
 10
0.62592
 20
3.52978
 30
0.0
 10
0.62591
 20
3.52978
 30
0.0
 10
0.62591
 20
3.52978
 30
0.0
  0
SPLINE
  5
9C
330
1F
100
AcDbEntity
  8
Layer 1
 62
   242
100
AcDbSpline
210
0.0
220
0.0
230
1.0
 70
    11
 71
     3
 72
    20
 73
    16
 74
     0
 42
0.0000000001
 43
0.0000000001
 12
1.0
 22
0.0
 32
0.0
 13
1.0
 23
0.0
 33
0.0
 40
0.0
 40
0.0
 40
0.0
 40
0.0
 40
0.2
 40
0.2
 40
0.2
 40
0.2
 40
0.4
 40
0.4
 40
0.4
 40
0.4
 40
0.6
 40
0.6
 40
0.6
 40
0.6
 40
1.0
 40
1.0
 40
1.0
 40
1.0
 10
0.65728
 20
2.83932
 30
0.0
 10
0.95979
 20
2.63572
 30
0.0
 10
1.15093
 20
2.3035
 30
0.0
 10
1.17492
 20
1.93965
 30
0.0
 10
1.17492
 20
1.93965
 30
0.0
 10
1.19892
 20
1.57581
 30
0.0
 10
1.05117
 20
1.21972
 30
0.0
 10
0.77803
 20
0.97815
 30
0.0
 10
0.77803
 20
0.97815
 30
0.0
 10
0.44174
 20
1.54308
 30
0.0
 10
0.397
 20
2.23561
 30
0.0
 10
0.65727
 20
2.83934
 30
0.0
 10
0.65727
 20
2.83934
 30
0.0
 10
0.65727
 20
2.83934
 30
0.0
 10
0.65728
 20
2.83932
 30
0.0
 10
0.65728
 20
2.83932
 30
0.0
  0
SPLINE
  5
9D
330
1F
100
AcDbEntity
  8
Layer 1
 62
   242
100
AcDbSpline
210
0.0
220
0.0
230
1.0
 70
    11
 71
     3
 72
    28
 73
    24
 74
     0
 42
0.0000000001
 43
0.0000000001
 12
1.0
 22
0.0
 32
0.0
 13
1.0
 23
0.0
 33
0.0
 40
0.0
 40
0.0
 40
0.0
 40
0.0
 40
0.1428571428571428
 40
0.1428571428571428
 40
0.1428571428571428
 40
0.1428571428571428
 40
0.2857142857142857
 40
0.2857142857142857
 40
0.2857142857142857
 40
0.2857142857142857
 40
0.4285714285714285
 40
0.4285714285714285
 40
0.4285714285714285
 40
0.4285714285714285
 40
0.5714285714285714
 40
0.5714285714285714
 40
0.5714285714285714
 40
0.5714285714285714
 40
0.7142857142857143
 40
0.7142857142857143
 40
0.7142857142857143
 40
0.7142857142857143
 40
1.0
 40
1.0
 40
1.0
 40
1.0
 10
-0.3589
 20
-2.95223
 30
0.0
 10
0.41039
 20
-2.82196
 30
0.0
 10
0.99804
 20
-2.19556
 30
0.0
 10
1.07757
 20
-1.41938
 30
0.0
 10
1.07757
 20
-1.41938
 30
0.0
 10
1.22331
 20
-1.85435
 30
0.0
 10
1.52132
 20
-2.22167
 30
0.0
 10
1.91703
 20
-2.45375
 30
0.0
 10
1.91703
 20
-2.45375
 30
0.0
 10
0.8039
 20
-2.23757
 30
0.0
 10
-0.29121
 20
-2.89814
 30
0.0
 10
-0.6166
 20
-3.98438
 30
0.0
 10
-0.6166
 20
-3.98438
 30
0.0
 10
-0.79281
 20
-3.92623
 30
0.0
 10
-0.97689
 20
-3.89563
 30
0.0
 10
-1.16244
 20
-3.89365
 30
0.0
 10
-1.16244
 20
-3.89365
 30
0.0
 10
-0.75706
 20
-3.72948
 30
0.0
 10
-0.45726
 20
-3.37843
 30
0.0
 10
-0.35894
 20
-2.95226
 30
0.0
 10
-0.35894
 20
-2.95226
 30
0.0
 10
-0.35894
 20
-2.95226
 30
0.0
 10
-0.3589
 20
-2.95223
 30
0.0
 10
-0.3589
 20
-2.95223
 30
0.0
  0
SPLINE
  5
9E
330
1F
100
AcDbEntity
  8
Layer 1
 62
   242
100
AcDbSpline
210
0.0
220
0.0
230
1.0
 70
    11
 71
     3
 72
    24
 73
    20
 74
     0
 42
0.0000000001
 43
0.0000000001
 12
1.0
 22
0.0
 32
0.0
 13
1.0
 23
0.0
 33
0.0
 40
0.0
 40
0.0
 40
0.0
 40
0.0
 40
0.1666666666666667
 40
0.1666666666666667
 40
0.1666666666666667
 40
0.1666666666666667
 40
0.3333333333333333
 40
0.3333333333333333
 40
0.3333333333333333
 40
0.3333333333333333
 40
0.5
 40
0.5
 40
0.5
 40
0.5
 40
0.6666666666666666
 40
0.6666666666666666
 40
0.6666666666666666
 40
0.6666666666666666
 40
1.0
 40
1.0
 40
1.0
 40
1.0
 10
1.44093
 20
10.66215
 30
0.0
 10
1.44093
 20
10.66215
 30
0.0
 10
4.30871
 20
10.66215
 30
0.0
 10
4.30871
 20
10.66215
 30
0.0
 10
4.30871
 20
10.66215
 30
0.0
 10
4.27497
 20
10.4208
 30
0.0
 10
4.18076
 20
10.19179
 30
0.0
 10
4.03498
 20
9.99651
 30
0.0
 10
4.03498
 20
9.99651
 30
0.0
 10
3.32202
 20
10.54725
 30
0.0
 10
2.36537
 20
10.66288
 30
0.0
 10
1.54215
 20
10.29692
 30
0.0
 10
1.54215
 20
10.29692
 30
0.0
 10
1.49253
 20
10.41368
 30
0.0
 10
1.45849
 20
10.53649
 30
0.0
 10
1.44093
 20
10.66214
 30
0.0
 10
1.44093
 20
10.66214
 30
0.0
 10
1.44093
 20
10.66214
 30
0.0
 10
1.44093
 20
10.66215
 30
0.0
 10
1.44093
 20
10.66215
 30
0.0
  0
SPLINE
  5
9F
330
1F
100
AcDbEntity
  8
Layer 1
 62
   242
100
AcDbSpline
210
0.0
220
0.0
230
1.0
 70
    11
 71
     3
 72
    20
 73
    16
 74
     0
 42
0.0000000001
 43
0.0000000001
 12
1.0
 22
0.0
 32
0.0
 13
1.0
 23
0.0
 33
0.0
 40
0.0
 40
0.0
 40
0.0
 40
0.0
 40
0.2
 40
0.2
 40
0.2
 40
0.2
 40
0.4
 40
0.4
 40
0.4
 40
0.4
 40
0.6
 40
0.6
 40
0.6
 40
0.6
 40
1.0
 40
1.0
 40
1.0
 40
1.0
 10
0.76839
 20
9.09426
 30
0.0
 10
1.23919
 20
8.66883
 30
0.0
 10
1.275
 20
7.94122
 30
0.0
 10
0.84957
 20
7.47041
 30
0.0
 10
0.84957
 20
7.47041
 30
0.0
 10
0.79292
 20
7.4078
 30
0.0
 10
0.72952
 20
7.35161
 30
0.0
 10
0.66057
 20
7.30287
 30
0.0
 10
0.66057
 20
7.30287
 30
0.0
 10
0.41975
 20
7.8847
 30
0.0
 10
0.45968
 20
8.54542
 30
0.0
 10
0.76839
 20
9.09426
 30
0.0
 10
0.76839
 20
9.09426
 30
0.0
 10
0.76839
 20
9.09426
 30
0.0
 10
0.76839
 20
9.09426
 30
0.0
 10
0.76839
 20
9.09426
 30
0.0
  0
SPLINE
  5
A0
330
1F
100
AcDbEntity
  8
Layer 1
 62
   242
100
AcDbSpline
210
0.0
220
0.0
230
1.0
 70
    11
 71
     3
 72
    16
 73
    12
 74
     0
 42
0.0000000001
 43
0.0000000001
 12
1.0
 22
0.0
 32
0.0
 13
1.0
 23
0.0
 33
0.0
 40
0.0
 40
0.0
 40
0.0
 40
0.0
 40
0.25
 40
0.25
 40
0.25
 40
0.25
 40
0.5
 40
0.5
 40
0.5
 40
0.5
 40
1.0
 40
1.0
 40
1.0
 40
1.0
 10
-1.40205
 20
-7.49041
 30
0.0
 10
-1.40205
 20
-7.49041
 30
0.0
 10
-2.96439
 20
-7.49041
 30
0.0
 10
-2.96439
 20
-7.49041
 30
0.0
 10
-2.96439
 20
-7.49041
 30
0.0
 10
-2.96439
 20
-7.49041
 30
0.0
 10
-2.96439
 20
-5.98376
 30
0.0
 10
-2.96439
 20
-5.98376
 30
0.0
 10
-2.96439
 20
-5.98376
 30
0.0
 10
-2.83226
 20
-6.77576
 30
0.0
 10
-2.19838
 20
-7.38766
 30
0.0
 10
-1.40205
 20
-7.49041
 30
0.0
  0
SPLINE
  5
A1
330
1F
100
AcDbEntity
  8
Layer 1
 62
   242
100
AcDbSpline
210
0.0
220
0.0
230
1.0
 70
    11
 71
     3
 72
    20
 73
    16
 74
     0
 42
0.0000000001
 43
0.0000000001
 12
1.0
 22
0.0
 32
0.0
 13
1.0
 23
0.0
 33
0.0
 40
0.0
 40
0.0
 40
0.0
 40
0.0
 40
0.2
 40
0.2
 40
0.2
 40
0.2
 40
0.4
 40
0.4
 40
0.4
 40
0.4
 40
0.6
 40
0.6
 40
0.6
 40
0.6
 40
1.0
 40
1.0
 40
1.0
 40
1.0
 10
4.38491
 20
-0.938
 30
0.0
 10
4.33918
 20
-1.46756
 30
0.0
 10
4.02093
 20
-1.93556
 30
0.0
 10
3.5455
 20
-2.17323
 30
0.0
 10
3.5455
 20
-2.17323
 30
0.0
 10
3.44148
 20
-1.89559
 30
0.0
 10
3.47852
 20
-1.58474
 30
0.0
 10
3.64485
 20
-1.33931
 30
0.0
 10
3.64485
 20
-1.33931
 30
0.0
 10
3.81118
 20
-1.09387
 30
0.0
 10
4.08848
 20
-0.94426
 30
0.0
 10
4.38491
 20
-0.938
 30
0.0
 10
4.38491
 20
-0.938
 30
0.0
 10
4.38491
 20
-0.938
 30
0.0
 10
4.38491
 20
-0.938
 30
0.0
 10
4.38491
 20
-0.938
 30
0.0
  0
SPLINE
  5
A2
330
1F
100
AcDbEntity
  8
Layer 1
 62
   242
100
AcDbSpline
210
0.0
220
0.0
230
1.0
 70
    11
 71
     3
 72
    20
 73
    16
 74
     0
 42
0.0000000001
 43
0.0000000001
 12
1.0
 22
0.0
 32
0.0
 13
1.0
 23
0.0
 33
0.0
 40
0.0
 40
0.0
 40
0.0
 40
0.0
 40
0.2
 40
0.2
 40
0.2
 40
0.2
 40
0.4
 40
0.4
 40
0.4
 40
0.4
 40
0.6
 40
0.6
 40
0.6
 40
0.6
 40
1.0
 40
1.0
 40
1.0
 40
1.0
 10
1.21123
 20
3.58115
 30
0.0
 10
1.50897
 20
3.83179
 30
0.0
 10
1.87262
 20
3.99172
 30
0.0
 10
2.25856
 20
4.04187
 30
0.0
 10
2.25856
 20
4.04187
 30
0.0
 10
2.3592
 20
3.84677
 30
0.0
 10
2.48799
 20
3.66761
 30
0.0
 10
2.64086
 20
3.51006
 30
0.0
 10
2.64086
 20
3.51006
 30
0.0
 10
2.17842
 20
3.31547
 30
0.0
 10
1.65218
 20
3.34176
 30
0.0
 10
1.21124
 20
3.58112
 30
0.0
 10
1.21124
 20
3.58112
 30
0.0
 10
1.21124
 20
3.58112
 30
0.0
 10
1.21123
 20
3.58115
 30
0.0
 10
1.21123
 20
3.58115
 30
0.0
  0
SPLINE
  5
A3
330
1F
100
AcDbEntity
  8
Layer 1
 62
   242
100
AcDbSpline
210
0.0
220
0.0
230
1.0
 70
    11
 71
     3
 72
    20
 73
    16
 74
     0
 42
0.0000000001
 43
0.0000000001
 12
1.0
 22
0.0
 32
0.0
 13
1.0
 23
0.0
 33
0.0
 40
0.0
 40
0.0
 40
0.0
 40
0.0
 40
0.2
 40
0.2
 40
0.2
 40
0.2
 40
0.4
 40
0.4
 40
0.4
 40
0.4
 40
0.6
 40
0.6
 40
0.6
 40
0.6
 40
1.0
 40
1.0
 40
1.0
 40
1.0
 10
-1.87704
 20
-1.74313
 30
0.0
 10
-1.60877
 20
-1.67791
 30
0.0
 10
-1.3254
 20
-1.73363
 30
0.0
 10
-1.1018
 20
-1.89558
 30
0.0
 10
-1.1018
 20
-1.89558
 30
0.0
 10
-0.87821
 20
-2.05752
 30
0.0
 10
-0.73676
 20
-2.31103
 30
0.0
 10
-0.71507
 20
-2.58626
 30
0.0
 10
-0.71507
 20
-2.58626
 30
0.0
 10
-1.23198
 20
-2.55184
 30
0.0
 10
-1.68374
 20
-2.22376
 30
0.0
 10
-1.87705
 20
-1.74312
 30
0.0
 10
-1.87705
 20
-1.74312
 30
0.0
 10
-1.87705
 20
-1.74312
 30
0.0
 10
-1.87704
 20
-1.74313
 30
0.0
 10
-1.87704
 20
-1.74313
 30
0.0
  0
SPLINE
  5
A4
330
1F
100
AcDbEntity
  8
Layer 1
 62
   242
100
AcDbSpline
210
0.0
220
0.0
230
1.0
 70
    11
 71
     3
 72
    20
 73
    16
 74
     0
 42
0.0000000001
 43
0.0000000001
 12
1.0
 22
0.0
 32
0.0
 13
1.0
 23
0.0
 33
0.0
 40
0.0
 40
0.0
 40
0.0
 40
0.0
 40
0.2
 40
0.2
 40
0.2
 40
0.2
 40
0.4
 40
0.4
 40
0.4
 40
0.4
 40
0.6
 40
0.6
 40
0.6
 40
0.6
 40
1.0
 40
1.0
 40
1.0
 40
1.0
 10
2.57824
 20
6.55662
 30
0.0
 10
2.4475
 20
6.41027
 30
0.0
 10
2.3366
 20
6.24738
 30
0.0
 10
2.24837
 20
6.07208
 30
0.0
 10
2.24837
 20
6.07208
 30
0.0
 10
1.892
 20
6.12369
 30
0.0
 10
1.55554
 20
6.26895
 30
0.0
 10
1.27354
 20
6.49286
 30
0.0
 10
1.27354
 20
6.49286
 30
0.0
 10
1.68089
 20
6.69315
 30
0.0
 10
2.15326
 20
6.71613
 30
0.0
 10
2.57824
 20
6.55661
 30
0.0
 10
2.57824
 20
6.55661
 30
0.0
 10
2.57824
 20
6.55661
 30
0.0
 10
2.57824
 20
6.55662
 30
0.0
 10
2.57824
 20
6.55662
 30
0.0
  0
SPLINE
  5
A5
330
1F
100
AcDbEntity
  8
Layer 1
 62
   242
100
AcDbSpline
210
0.0
220
0.0
230
1.0
 70
    11
 71
     3
 72
    32
 73
    28
 74
     0
 42
0.0000000001
 43
0.0000000001
 12
1.0
 22
0.0
 32
0.0
 13
1.0
 23
0.0
 33
0.0
 40
0.0
 40
0.0
 40
0.0
 40
0.0
 40
0.125
 40
0.125
 40
0.125
 40
0.125
 40
0.25
 40
0.25
 40
0.25
 40
0.25
 40
0.375
 40
0.375
 40
0.375
 40
0.375
 40
0.5
 40
0.5
 40
0.5
 40
0.5
 40
0.625
 40
0.625
 40
0.625
 40
0.625
 40
0.75
 40
0.75
 40
0.75
 40
0.75
 40
1.0
 40
1.0
 40
1.0
 40
1.0
 10
0.94002
 20
10.66215
 30
0.0
 10
0.94002
 20
10.66215
 30
0.0
 10
1.0534
 20
10.66215
 30
0.0
 10
1.0534
 20
10.66215
 30
0.0
 10
1.0534
 20
10.66215
 30
0.0
 10
1.05339
 20
10.65426
 30
0.0
 10
1.05387
 20
10.64638
 30
0.0
 10
1.05482
 20
10.63855
 30
0.0
 10
1.05482
 20
10.63855
 30
0.0
 10
1.07733
 20
10.45575
 30
0.0
 10
1.12724
 20
10.27744
 30
0.0
 10
1.20289
 20
10.10951
 30
0.0
 10
1.20289
 20
10.10951
 30
0.0
 10
1.00047
 20
9.97554
 30
0.0
 10
0.81937
 20
9.81196
 30
0.0
 10
0.66558
 20
9.62415
 30
0.0
 10
0.66558
 20
9.62415
 30
0.0
 10
0.46017
 20
9.72348
 30
0.0
 10
0.23532
 20
9.77578
 30
0.0
 10
0.00717
 20
9.77728
 30
0.0
 10
0.00717
 20
9.77728
 30
0.0
 10
0.39199
 20
9.92821
 30
0.0
 10
0.7127
 20
10.20724
 30
0.0
 10
0.91525
 20
10.56758
 30
0.0
 10
0.91525
 20
10.56758
 30
0.0
 10
0.93149
 20
10.59646
 30
0.0
 10
0.94002
 20
10.62902
 30
0.0
 10
0.94002
 20
10.66215
 30
0.0
  0
SPLINE
  5
A6
330
1F
100
AcDbEntity
  8
Layer 1
 62
   242
100
AcDbSpline
210
0.0
220
0.0
230
1.0
 70
    11
 71
     3
 72
    24
 73
    20
 74
     0
 42
0.0000000001
 43
0.0000000001
 12
1.0
 22
0.0
 32
0.0
 13
1.0
 23
0.0
 33
0.0
 40
0.0
 40
0.0
 40
0.0
 40
0.0
 40
0.1666666666666667
 40
0.1666666666666667
 40
0.1666666666666667
 40
0.1666666666666667
 40
0.3333333333333333
 40
0.3333333333333333
 40
0.3333333333333333
 40
0.3333333333333333
 40
0.5
 40
0.5
 40
0.5
 40
0.5
 40
0.6666666666666666
 40
0.6666666666666666
 40
0.6666666666666666
 40
0.6666666666666666
 40
1.0
 40
1.0
 40
1.0
 40
1.0
 10
0.68134
 20
0.45438
 30
0.0
 10
0.82432
 20
0.28704
 30
0.0
 10
0.98941
 20
0.14003
 30
0.0
 10
1.17216
 20
0.01735
 30
0.0
 10
1.17216
 20
0.01735
 30
0.0
 10
1.06643
 20
-0.19893
 30
0.0
 10
1.0028
 20
-0.43326
 30
0.0
 10
0.98464
 20
-0.67331
 30
0.0
 10
0.98464
 20
-0.67331
 30
0.0
 10
0.83083
 20
-0.24465
 30
0.0
 10
0.51383
 20
0.10548
 30
0.0
 10
0.10241
 20
0.30077
 30
0.0
 10
0.10241
 20
0.30077
 30
0.0
 10
0.3035
 20
0.31422
 30
0.0
 10
0.50003
 20
0.36636
 30
0.0
 10
0.68134
 20
0.45438
 30
0.0
 10
0.68134
 20
0.45438
 30
0.0
 10
0.68134
 20
0.45438
 30
0.0
 10
0.68134
 20
0.45438
 30
0.0
 10
0.68134
 20
0.45438
 30
0.0
  0
SPLINE
  5
A7
330
1F
100
AcDbEntity
  8
Layer 1
 62
   242
100
AcDbSpline
210
0.0
220
0.0
230
1.0
 70
    11
 71
     3
 72
    16
 73
    12
 74
     0
 42
0.0000000001
 43
0.0000000001
 12
1.0
 22
0.0
 32
0.0
 13
1.0
 23
0.0
 33
0.0
 40
0.0
 40
0.0
 40
0.0
 40
0.0
 40
0.25
 40
0.25
 40
0.25
 40
0.25
 40
0.5
 40
0.5
 40
0.5
 40
0.5
 40
1.0
 40
1.0
 40
1.0
 40
1.0
 10
0.22235
 20
-5.90503
 30
0.0
 10
-0.135
 20
-5.55413
 30
0.0
 10
-0.33168
 20
-5.07088
 30
0.0
 10
-0.32126
 20
-4.57016
 30
0.0
 10
-0.32126
 20
-4.57016
 30
0.0
 10
0.08645
 20
-4.88498
 30
0.0
 10
0.2939
 20
-5.39489
 30
0.0
 10
0.22234
 20
-5.90501
 30
0.0
 10
0.22234
 20
-5.90501
 30
0.0
 10
0.22234
 20
-5.90501
 30
0.0
 10
0.22235
 20
-5.90503
 30
0.0
 10
0.22235
 20
-5.90503
 30
0.0
  0
SPLINE
  5
A8
330
1F
100
AcDbEntity
  8
Layer 1
 62
   242
100
AcDbSpline
210
0.0
220
0.0
230
1.0
 70
    11
 71
     3
 72
    24
 73
    20
 74
     0
 42
0.0000000001
 43
0.0000000001
 12
1.0
 22
0.0
 32
0.0
 13
1.0
 23
0.0
 33
0.0
 40
0.0
 40
0.0
 40
0.0
 40
0.0
 40
0.1666666666666667
 40
0.1666666666666667
 40
0.1666666666666667
 40
0.1666666666666667
 40
0.3333333333333333
 40
0.3333333333333333
 40
0.3333333333333333
 40
0.3333333333333333
 40
0.5
 40
0.5
 40
0.5
 40
0.5
 40
0.6666666666666666
 40
0.6666666666666666
 40
0.6666666666666666
 40
0.6666666666666666
 40
1.0
 40
1.0
 40
1.0
 40
1.0
 10
5.54986
 20
6.40975
 30
0.0
 10
5.54986
 20
6.40975
 30
0.0
 10
5.54986
 20
6.3793
 30
0.0
 10
5.54986
 20
6.3793
 30
0.0
 10
5.54986
 20
6.3793
 30
0.0
 10
5.17049
 20
6.30947
 30
0.0
 10
4.77862
 20
6.39177
 30
0.0
 10
4.45927
 20
6.60811
 30
0.0
 10
4.45927
 20
6.60811
 30
0.0
 10
4.52471
 20
6.69295
 30
0.0
 10
4.58446
 20
6.78201
 30
0.0
 10
4.63812
 20
6.87474
 30
0.0
 10
4.63812
 20
6.87474
 30
0.0
 10
4.94794
 20
6.80748
 30
0.0
 10
5.23539
 20
6.66161
 30
0.0
 10
5.47265
 20
6.45133
 30
0.0
 10
5.47265
 20
6.45133
 30
0.0
 10
5.49486
 20
6.43172
 30
0.0
 10
5.52127
 20
6.4175
 30
0.0
 10
5.54986
 20
6.40975
 30
0.0
  0
SPLINE
  5
A9
330
1F
100
AcDbEntity
  8
Layer 1
 62
   242
100
AcDbSpline
210
0.0
220
0.0
230
1.0
 70
    11
 71
     3
 72
    32
 73
    28
 74
     0
 42
0.0000000001
 43
0.0000000001
 12
1.0
 22
0.0
 32
0.0
 13
1.0
 23
0.0
 33
0.0
 40
0.0
 40
0.0
 40
0.0
 40
0.0
 40
0.125
 40
0.125
 40
0.125
 40
0.125
 40
0.25
 40
0.25
 40
0.25
 40
0.25
 40
0.375
 40
0.375
 40
0.375
 40
0.375
 40
0.5
 40
0.5
 40
0.5
 40
0.5
 40
0.625
 40
0.625
 40
0.625
 40
0.625
 40
0.75
 40
0.75
 40
0.75
 40
0.75
 40
1.0
 40
1.0
 40
1.0
 40
1.0
 10
5.54986
 20
3.69513
 30
0.0
 10
5.54986
 20
3.69513
 30
0.0
 10
5.54986
 20
3.66021
 30
0.0
 10
5.54986
 20
3.66021
 30
0.0
 10
5.54986
 20
3.66021
 30
0.0
 10
5.35532
 20
3.52046
 30
0.0
 10
5.14005
 20
3.41196
 30
0.0
 10
4.91199
 20
3.3387
 30
0.0
 10
4.91199
 20
3.3387
 30
0.0
 10
4.81008
 20
3.30569
 30
0.0
 10
4.70607
 20
3.27952
 30
0.0
 10
4.60068
 20
3.26036
 30
0.0
 10
4.60068
 20
3.26036
 30
0.0
 10
4.55877
 20
3.331
 30
0.0
 10
4.51345
 20
3.39954
 30
0.0
 10
4.46485
 20
3.46575
 30
0.0
 10
4.46485
 20
3.46575
 30
0.0
 10
4.6909
 20
3.59516
 30
0.0
 10
4.94251
 20
3.67387
 30
0.0
 10
5.20201
 20
3.69639
 30
0.0
 10
5.20201
 20
3.69639
 30
0.0
 10
5.31774
 20
3.7067
 30
0.0
 10
5.4342
 20
3.70628
 30
0.0
 10
5.54986
 20
3.69513
 30
0.0
 10
5.54986
 20
3.69513
 30
0.0
 10
5.54986
 20
3.69513
 30
0.0
 10
5.54986
 20
3.69513
 30
0.0
 10
5.54986
 20
3.69513
 30
0.0
  0
SPLINE
  5
AA
330
1F
100
AcDbEntity
  8
Layer 1
 62
   242
100
AcDbSpline
210
0.0
220
0.0
230
1.0
 70
    11
 71
     3
 72
    28
 73
    24
 74
     0
 42
0.0000000001
 43
0.0000000001
 12
1.0
 22
0.0
 32
0.0
 13
1.0
 23
0.0
 33
0.0
 40
0.0
 40
0.0
 40
0.0
 40
0.0
 40
0.1428571428571428
 40
0.1428571428571428
 40
0.1428571428571428
 40
0.1428571428571428
 40
0.2857142857142857
 40
0.2857142857142857
 40
0.2857142857142857
 40
0.2857142857142857
 40
0.4285714285714285
 40
0.4285714285714285
 40
0.4285714285714285
 40
0.4285714285714285
 40
0.5714285714285714
 40
0.5714285714285714
 40
0.5714285714285714
 40
0.5714285714285714
 40
0.7142857142857143
 40
0.7142857142857143
 40
0.7142857142857143
 40
0.7142857142857143
 40
1.0
 40
1.0
 40
1.0
 40
1.0
 10
-2.96438
 20
6.41619
 30
0.0
 10
-2.96438
 20
6.41619
 30
0.0
 10
-2.96439
 20
6.78412
 30
0.0
 10
-2.96439
 20
6.78412
 30
0.0
 10
-2.96439
 20
6.78412
 30
0.0
 10
-2.94006
 20
6.78369
 30
0.0
 10
-2.91588
 20
6.78786
 30
0.0
 10
-2.89311
 20
6.79643
 30
0.0
 10
-2.89311
 20
6.79643
 30
0.0
 10
-2.64671
 20
6.8894
 30
0.0
 10
-2.38331
 20
6.92911
 30
0.0
 10
-2.12045
 20
6.91296
 30
0.0
 10
-2.12045
 20
6.91296
 30
0.0
 10
-2.20035
 20
6.81876
 30
0.0
 10
-2.29201
 20
6.73517
 30
0.0
 10
-2.39315
 20
6.66425
 30
0.0
 10
-2.39315
 20
6.66425
 30
0.0
 10
-2.56482
 20
6.54383
 30
0.0
 10
-2.7592
 20
6.45943
 30
0.0
 10
-2.96439
 20
6.41619
 30
0.0
 10
-2.96439
 20
6.41619
 30
0.0
 10
-2.96439
 20
6.41619
 30
0.0
 10
-2.96438
 20
6.41619
 30
0.0
 10
-2.96438
 20
6.41619
 30
0.0
  0
SPLINE
  5
AB
330
1F
100
AcDbEntity
  8
Layer 1
 62
   242
100
AcDbSpline
210
0.0
220
0.0
230
1.0
 70
    11
 71
     3
 72
    24
 73
    20
 74
     0
 42
0.0000000001
 43
0.0000000001
 12
1.0
 22
0.0
 32
0.0
 13
1.0
 23
0.0
 33
0.0
 40
0.0
 40
0.0
 40
0.0
 40
0.0
 40
0.1666666666666667
 40
0.1666666666666667
 40
0.1666666666666667
 40
0.1666666666666667
 40
0.3333333333333333
 40
0.3333333333333333
 40
0.3333333333333333
 40
0.3333333333333333
 40
0.5
 40
0.5
 40
0.5
 40
0.5
 40
0.6666666666666666
 40
0.6666666666666666
 40
0.6666666666666666
 40
0.6666666666666666
 40
1.0
 40
1.0
 40
1.0
 40
1.0
 10
-2.96438
 20
3.31997
 30
0.0
 10
-2.96438
 20
3.31997
 30
0.0
 10
-2.96439
 20
3.7119
 30
0.0
 10
-2.96439
 20
3.7119
 30
0.0
 10
-2.96439
 20
3.7119
 30
0.0
 10
-2.65356
 20
3.62646
 30
0.0
 10
-2.37856
 20
3.44264
 30
0.0
 10
-2.18066
 20
3.18817
 30
0.0
 10
-2.18066
 20
3.18817
 30
0.0
 10
-2.42361
 20
3.18112
 30
0.0
 10
-2.66569
 20
3.22167
 30
0.0
 10
-2.89309
 20
3.30747
 30
0.0
 10
-2.89309
 20
3.30747
 30
0.0
 10
-2.91586
 20
3.31609
 30
0.0
 10
-2.94004
 20
3.32033
 30
0.0
 10
-2.96439
 20
3.31997
 30
0.0
 10
-2.96439
 20
3.31997
 30
0.0
 10
-2.96439
 20
3.31997
 30
0.0
 10
-2.96438
 20
3.31997
 30
0.0
 10
-2.96438
 20
3.31997
 30
0.0
  0
SPLINE
  5
AC
330
1F
100
AcDbEntity
  8
Layer 1
 62
   242
100
AcDbSpline
210
0.0
220
0.0
230
1.0
 70
    11
 71
     3
 72
    24
 73
    20
 74
     0
 42
0.0000000001
 43
0.0000000001
 12
1.0
 22
0.0
 32
0.0
 13
1.0
 23
0.0
 33
0.0
 40
0.0
 40
0.0
 40
0.0
 40
0.0
 40
0.1666666666666667
 40
0.1666666666666667
 40
0.1666666666666667
 40
0.1666666666666667
 40
0.3333333333333333
 40
0.3333333333333333
 40
0.3333333333333333
 40
0.3333333333333333
 40
0.5
 40
0.5
 40
0.5
 40
0.5
 40
0.6666666666666666
 40
0.6666666666666666
 40
0.6666666666666666
 40
0.6666666666666666
 40
1.0
 40
1.0
 40
1.0
 40
1.0
 10
3.90876
 20
6.57871
 30
0.0
 10
3.80026
 20
6.48041
 30
0.0
 10
3.68147
 20
6.39407
 30
0.0
 10
3.55449
 20
6.32121
 30
0.0
 10
3.55449
 20
6.32121
 30
0.0
 10
3.46168
 20
6.4322
 30
0.0
 10
3.35728
 20
6.53292
 30
0.0
 10
3.24302
 20
6.62168
 30
0.0
 10
3.24302
 20
6.62168
 30
0.0
 10
3.38846
 20
6.71548
 30
0.0
 10
3.54639
 20
6.78842
 30
0.0
 10
3.7121
 20
6.83832
 30
0.0
 10
3.7121
 20
6.83832
 30
0.0
 10
3.76993
 20
6.74619
 30
0.0
 10
3.83573
 20
6.65933
 30
0.0
 10
3.90877
 20
6.57873
 30
0.0
 10
3.90877
 20
6.57873
 30
0.0
 10
3.90877
 20
6.57873
 30
0.0
 10
3.90876
 20
6.57871
 30
0.0
 10
3.90876
 20
6.57871
 30
0.0
  0
SPLINE
  5
AD
330
1F
100
AcDbEntity
  8
Layer 1
 62
   242
100
AcDbSpline
210
0.0
220
0.0
230
1.0
 70
    11
 71
     3
 72
    24
 73
    20
 74
     0
 42
0.0000000001
 43
0.0000000001
 12
1.0
 22
0.0
 32
0.0
 13
1.0
 23
0.0
 33
0.0
 40
0.0
 40
0.0
 40
0.0
 40
0.0
 40
0.1666666666666667
 40
0.1666666666666667
 40
0.1666666666666667
 40
0.1666666666666667
 40
0.3333333333333333
 40
0.3333333333333333
 40
0.3333333333333333
 40
0.3333333333333333
 40
0.5
 40
0.5
 40
0.5
 40
0.5
 40
0.6666666666666666
 40
0.6666666666666666
 40
0.6666666666666666
 40
0.6666666666666666
 40
1.0
 40
1.0
 40
1.0
 40
1.0
 10
3.30775
 20
3.47237
 30
0.0
 10
3.40934
 20
3.5582
 30
0.0
 10
3.50221
 20
3.6538
 30
0.0
 10
3.58506
 20
3.75783
 30
0.0
 10
3.58506
 20
3.75783
 30
0.0
 10
3.70349
 20
3.68504
 30
0.0
 10
3.81414
 20
3.60029
 30
0.0
 10
3.91528
 20
3.50493
 30
0.0
 10
3.91528
 20
3.50493
 30
0.0
 10
3.85122
 20
3.43704
 30
0.0
 10
3.79238
 20
3.36441
 30
0.0
 10
3.73925
 20
3.28767
 30
0.0
 10
3.73925
 20
3.28767
 30
0.0
 10
3.58817
 20
3.33065
 30
0.0
 10
3.44315
 20
3.39273
 30
0.0
 10
3.30776
 20
3.47235
 30
0.0
 10
3.30776
 20
3.47235
 30
0.0
 10
3.30776
 20
3.47235
 30
0.0
 10
3.30775
 20
3.47237
 30
0.0
 10
3.30775
 20
3.47237
 30
0.0
  0
SPLINE
  5
AE
330
1F
100
AcDbEntity
  8
Layer 1
 62
   242
100
AcDbSpline
210
0.0
220
0.0
230
1.0
 70
    11
 71
     3
 72
    20
 73
    16
 74
     0
 42
0.0000000001
 43
0.0000000001
 12
1.0
 22
0.0
 32
0.0
 13
1.0
 23
0.0
 33
0.0
 40
0.0
 40
0.0
 40
0.0
 40
0.0
 40
0.2
 40
0.2
 40
0.2
 40
0.2
 40
0.4
 40
0.4
 40
0.4
 40
0.4
 40
0.6
 40
0.6
 40
0.6
 40
0.6
 40
1.0
 40
1.0
 40
1.0
 40
1.0
 10
2.98771
 20
3.71046
 30
0.0
 10
2.8783
 20
3.8119
 30
0.0
 10
2.78155
 20
3.92624
 30
0.0
 10
2.69961
 20
4.05092
 30
0.0
 10
2.69961
 20
4.05092
 30
0.0
 10
2.88006
 20
4.03496
 30
0.0
 10
3.05762
 20
3.99493
 30
0.0
 10
3.22748
 20
3.93194
 30
0.0
 10
3.22748
 20
3.93194
 30
0.0
 10
3.15511
 20
3.85034
 30
0.0
 10
3.07477
 20
3.77613
 30
0.0
 10
2.98769
 20
3.71045
 30
0.0
 10
2.98769
 20
3.71045
 30
0.0
 10
2.98769
 20
3.71045
 30
0.0
 10
2.98771
 20
3.71046
 30
0.0
 10
2.98771
 20
3.71046
 30
0.0
  0
SPLINE
  5
AF
330
1F
100
AcDbEntity
  8
Layer 1
 62
   242
100
AcDbSpline
210
0.0
220
0.0
230
1.0
 70
    11
 71
     3
 72
    20
 73
    16
 74
     0
 42
0.0000000001
 43
0.0000000001
 12
1.0
 22
0.0
 32
0.0
 13
1.0
 23
0.0
 33
0.0
 40
0.0
 40
0.0
 40
0.0
 40
0.0
 40
0.2
 40
0.2
 40
0.2
 40
0.2
 40
0.4
 40
0.4
 40
0.4
 40
0.4
 40
0.6
 40
0.6
 40
0.6
 40
0.6
 40
1.0
 40
1.0
 40
1.0
 40
1.0
 10
2.93303
 20
6.37066
 30
0.0
 10
3.02408
 20
6.30767
 30
0.0
 10
3.10854
 20
6.23563
 30
0.0
 10
3.18509
 20
6.15566
 30
0.0
 10
3.18509
 20
6.15566
 30
0.0
 10
3.02234
 20
6.10137
 30
0.0
 10
2.85334
 20
6.06787
 30
0.0
 10
2.68218
 20
6.05595
 30
0.0
 10
2.68218
 20
6.05595
 30
0.0
 10
2.75409
 20
6.16967
 30
0.0
 10
2.83821
 20
6.27521
 30
0.0
 10
2.93304
 20
6.37066
 30
0.0
 10
2.93304
 20
6.37066
 30
0.0
 10
2.93304
 20
6.37066
 30
0.0
 10
2.93303
 20
6.37066
 30
0.0
 10
2.93303
 20
6.37066
 30
0.0
  0
SPLINE
  5
B0
330
1F
100
AcDbEntity
  8
Layer 1
 62
   242
100
AcDbSpline
210
0.0
220
0.0
230
1.0
 70
    11
 71
     3
 72
    20
 73
    16
 74
     0
 42
0.0000000001
 43
0.0000000001
 12
1.0
 22
0.0
 32
0.0
 13
1.0
 23
0.0
 33
0.0
 40
0.0
 40
0.0
 40
0.0
 40
0.0
 40
0.2
 40
0.2
 40
0.2
 40
0.2
 40
0.4
 40
0.4
 40
0.4
 40
0.4
 40
0.6
 40
0.6
 40
0.6
 40
0.6
 40
1.0
 40
1.0
 40
1.0
 40
1.0
 10
4.1308
 20
6.91334
 30
0.0
 10
4.15626
 20
6.91491
 30
0.0
 10
4.18175
 20
6.91597
 30
0.0
 10
4.20725
 20
6.91651
 30
0.0
 10
4.20725
 20
6.91651
 30
0.0
 10
4.19519
 20
6.89934
 30
0.0
 10
4.18286
 20
6.88235
 30
0.0
 10
4.17027
 20
6.86557
 30
0.0
 10
4.17027
 20
6.86557
 30
0.0
 10
4.15678
 20
6.8812
 30
0.0
 10
4.14364
 20
6.89712
 30
0.0
 10
4.13084
 20
6.91331
 30
0.0
 10
4.13084
 20
6.91331
 30
0.0
 10
4.13084
 20
6.91331
 30
0.0
 10
4.1308
 20
6.91334
 30
0.0
 10
4.1308
 20
6.91334
 30
0.0
  0
ENDSEC
  0
SECTION
  2
OBJECTS
  0
DICTIONARY
  5
C
330
0
100
AcDbDictionary
281
     1
  3
ACAD_GROUP
350
D
  3
ACAD_LAYOUT
350
1A
  3
ACAD_MATERIAL
350
3B
  3
ACAD_MLEADERSTYLE
350
B3
  3
ACAD_MLINESTYLE
350
17
  3
ACAD_PLOTSETTINGS
350
19
  3
ACAD_PLOTSTYLENAME
350
E
  3
ACAD_VISUALSTYLE
350
2A
  3
AcDbVariableDictionary
350
B1
  0
DICTIONARY
  5
D
102
{ACAD_REACTORS
330
C
102
}
330
C
100
AcDbDictionary
281
     1
  0
DICTIONARY
  5
1A
102
{ACAD_REACTORS
330
C
102
}
330
C
100
AcDbDictionary
281
     1
  3
Layout1
350
1E
  3
Layout2
350
26
  3
Model
350
22
  0
DICTIONARY
  5
3B
102
{ACAD_REACTORS
330
C
102
}
330
C
100
AcDbDictionary
281
     1
  3
ByBlock
350
3D
  3
ByLayer
350
3C
  3
Global
350
3E
  0
DICTIONARY
  5
B3
102
{ACAD_REACTORS
330
C
102
}
330
C
100
AcDbDictionary
281
     1
  0
DICTIONARY
  5
17
102
{ACAD_REACTORS
330
C
102
}
330
C
100
AcDbDictionary
281
     1
  3
Standard
350
18
  0
DICTIONARY
  5
19
102
{ACAD_REACTORS
330
C
102
}
330
C
100
AcDbDictionary
281
     1
  0
ACDBDICTIONARYWDFLT
  5
E
102
{ACAD_REACTORS
330
C
102
}
330
C
100
AcDbDictionary
281
     1
  3
Normal
350
F
100
AcDbDictionaryWithDefault
340
F
  0
DICTIONARY
  5
2A
102
{ACAD_REACTORS
330
C
102
}
330
C
100
AcDbDictionary
281
     1
  3
2dWireframe
350
2F
  3
3D Hidden
350
31
  3
3dWireframe
350
30
  3
Basic
350
32
  3
Brighten
350
36
  3
ColorChange
350
3A
  3
Conceptual
350
34
  3
Dim
350
35
  3
Facepattern
350
39
  3
Flat
350
2B
  3
FlatWithEdges
350
2C
  3
Gouraud
350
2D
  3
GouraudWithEdges
350
2E
  3
Linepattern
350
38
  3
Realistic
350
33
  3
Thicken
350
37
  0
DICTIONARY
  5
B1
102
{ACAD_REACTORS
330
C
102
}
330
C
100
AcDbDictionary
281
     1
  3
DIMASSOC
350
B4
  3
HIDETEXT
350
B5
  0
LAYOUT
  5
1E
102
{ACAD_REACTORS
330
1A
102
}
330
1A
100
AcDbPlotSettings
  1

  2
none_device
  4

  6

 40
0.0
 41
0.0
 42
0.0
 43
0.0
 44
0.0
 45
0.0
 46
0.0
 47
0.0
 48
0.0
 49
0.0
140
0.0
141
0.0
142
1.0
143
1.0
 70
   688
 72
     0
 73
     0
 74
     5
  7

 75
    16
147
1.0
148
0.0
149
0.0
100
AcDbLayout
  1
Layout1
 70
     1
 71
     1
 10
0.0
 20
0.0
 11
12.0
 21
9.0
 12
0.0
 22
0.0
 32
0.0
 14
1.000000000000000E+20
 24
1.000000000000000E+20
 34
1.000000000000000E+20
 15
-1.000000000000000E+20
 25
-1.000000000000000E+20
 35
-1.000000000000000E+20
146
0.0
 13
0.0
 23
0.0
 33
0.0
 16
1.0
 26
0.0
 36
0.0
 17
0.0
 27
1.0
 37
0.0
 76
     0
330
1B
  0
LAYOUT
  5
26
102
{ACAD_REACTORS
330
1A
102
}
330
1A
100
AcDbPlotSettings
  1

  2
none_device
  4

  6

 40
0.0
 41
0.0
 42
0.0
 43
0.0
 44
0.0
 45
0.0
 46
0.0
 47
0.0
 48
0.0
 49
0.0
140
0.0
141
0.0
142
1.0
143
1.0
 70
   688
 72
     0
 73
     0
 74
     5
  7

 75
    16
147
1.0
148
0.0
149
0.0
100
AcDbLayout
  1
Layout2
 70
     1
 71
     2
 10
0.0
 20
0.0
 11
0.0
 21
0.0
 12
0.0
 22
0.0
 32
0.0
 14
0.0
 24
0.0
 34
0.0
 15
0.0
 25
0.0
 35
0.0
146
0.0
 13
0.0
 23
0.0
 33
0.0
 16
1.0
 26
0.0
 36
0.0
 17
0.0
 27
1.0
 37
0.0
 76
     0
330
23
  0
LAYOUT
  5
22
102
{ACAD_REACTORS
330
1A
102
}
330
1A
100
AcDbPlotSettings
  1

  2
none_device
  4

  6

 40
0.0
 41
0.0
 42
0.0
 43
0.0
 44
0.0
 45
0.0
 46
0.0
 47
0.0
 48
0.0
 49
0.0
140
0.0
141
0.0
142
1.0
143
1.0
 70
  1712
 72
     0
 73
     0
 74
     0
  7

 75
     0
147
1.0
148
0.0
149
0.0
100
AcDbLayout
  1
Model
 70
     1
 71
     0
 10
0.0
 20
0.0
 11
12.0
 21
9.0
 12
0.0
 22
0.0
 32
0.0
 14
-13.80538
 24
-8.06173
 34
0.0
 15
6.11422
 25
11.23346
 35
0.0
146
0.0
 13
0.0
 23
0.0
 33
0.0
 16
1.0
 26
0.0
 36
0.0
 17
0.0
 27
1.0
 37
0.0
 76
     0
330
1F
331
29
  0
MATERIAL
  5
3D
102
{ACAD_REACTORS
330
3B
102
}
102
{ACAD_XDICTIONARY
360
D8
102
}
330
3B
100
AcDbMaterial
  1
ByBlock
  0
MATERIAL
  5
3C
102
{ACAD_REACTORS
330
3B
102
}
102
{ACAD_XDICTIONARY
360
D6
102
}
330
3B
100
AcDbMaterial
  1
ByLayer
  0
MATERIAL
  5
3E
102
{ACAD_REACTORS
330
3B
102
}
102
{ACAD_XDICTIONARY
360
DA
102
}
330
3B
100
AcDbMaterial
  1
Global
  0
MLINESTYLE
  5
18
102
{ACAD_REACTORS
330
17
102
}
330
17
100
AcDbMlineStyle
  2
Standard
 70
     0
  3

 62
   256
 51
90.0
 52
90.0
 71
     2
 49
0.5
 62
   256
  6
BYLAYER
 49
-0.5
 62
   256
  6
BYLAYER
  0
ACDBPLACEHOLDER
  5
F
102
{ACAD_REACTORS
330
E
102
}
330
E
  0
VISUALSTYLE
  5
2F
102
{ACAD_REACTORS
330
2A
102
}
102
{ACAD_XDICTIONARY
360
BE
102
}
330
2A
100
AcDbVisualStyle
  2
2dWireframe
 70
     4
 71
     0
 72
     2
 73
     0
 90
        0
 40
-0.6
 41
-30.0
 62
     5
 63
     7
 74
     1
 91
        4
 64
     7
 65
   257
 75
     1
175
     1
 42
1.0
 92
        0
 66
   257
 43
1.0
 76
     1
 77
     6
 78
     2
 67
     7
 79
     5
170
     0
171
     0
290
     0
174
     0
 93
        1
 44
0.0
173
     0
291
     0
 45
0.0
1001
ACAD
1000
AcDbSavedByObjectVersion
1070
     0
  0
VISUALSTYLE
  5
31
102
{ACAD_REACTORS
330
2A
102
}
102
{ACAD_XDICTIONARY
360
C2
102
}
330
2A
100
AcDbVisualStyle
  2
3D Hidden
 70
     6
 71
     1
 72
     2
 73
     2
 90
        0
 40
-0.6
 41
-30.0
 62
     5
 63
     7
 74
     2
 91
        2
 64
     7
 65
   257
 75
     2
175
     1
 42
40.0
 92
        0
 66
   257
 43
1.0
 76
     1
 77
     6
 78
     2
 67
     7
 79
     3
170
     0
171
     0
290
     0
174
     0
 93
        1
 44
0.0
173
     0
291
     0
 45
0.0
1001
ACAD
1000
AcDbSavedByObjectVersion
1070
     0
  0
VISUALSTYLE
  5
30
102
{ACAD_REACTORS
330
2A
102
}
102
{ACAD_XDICTIONARY
360
C0
102
}
330
2A
100
AcDbVisualStyle
  2
3dWireframe
 70
     5
 71
     0
 72
     2
 73
     0
 90
        0
 40
-0.6
 41
-30.0
 62
     5
 63
     7
 74
     1
 91
        4
 64
     7
 65
   257
 75
     1
175
     1
 42
1.0
 92
        0
 66
   257
 43
1.0
 76
     1
 77
     6
 78
     2
 67
     7
 79
     5
170
     0
171
     0
290
     0
174
     0
 93
        1
 44
0.0
173
     0
291
     0
 45
0.0
1001
ACAD
1000
AcDbSavedByObjectVersion
1070
     0
  0
VISUALSTYLE
  5
32
102
{ACAD_REACTORS
330
2A
102
}
102
{ACAD_XDICTIONARY
360
C4
102
}
330
2A
100
AcDbVisualStyle
  2
Basic
 70
     7
 71
     1
 72
     0
 73
     1
 90
        0
 40
-0.6
 41
-30.0
 62
     5
 63
     7
 74
     0
 91
        4
 64
     7
 65
   257
 75
     1
175
     1
 42
1.0
 92
        8
 66
     7
 43
1.0
 76
     1
 77
     6
 78
     2
 67
     7
 79
     5
170
     0
171
     0
290
     0
174
     0
 93
        1
 44
0.0
173
     0
291
     1
 45
0.0
1001
ACAD
1000
AcDbSavedByObjectVersion
1070
     0
  0
VISUALSTYLE
  5
36
102
{ACAD_REACTORS
330
2A
102
}
102
{ACAD_XDICTIONARY
360
CC
102
}
330
2A
100
AcDbVisualStyle
  2
Brighten
 70
    12
 71
     2
 72
     2
 73
     0
 90
        0
 40
-0.6
 41
-30.0
 62
     5
 63
     7
 74
     1
 91
        4
 64
     7
 65
   257
 75
     1
175
     1
 42
1.0
 92
        8
 66
     7
 43
1.0
 76
     1
 77
     6
 78
     2
 67
     7
 79
     5
170
     0
171
     0
290
     0
174
     0
 93
        1
 44
50.0
173
     0
291
     1
 45
0.0
1001
ACAD
1000
AcDbSavedByObjectVersion
1070
     0
  0
VISUALSTYLE
  5
3A
102
{ACAD_REACTORS
330
2A
102
}
102
{ACAD_XDICTIONARY
360
D4
102
}
330
2A
100
AcDbVisualStyle
  2
ColorChange
 70
    16
 71
     2
 72
     2
 73
     3
 90
        0
 40
-0.6
 41
-30.0
 62
     5
 63
     8
 74
     1
 91
        4
 64
     7
 65
   257
 75
     1
175
     1
 42
1.0
 92
        8
 66
     8
 43
1.0
 76
     1
 77
     6
 78
     2
 67
     7
 79
     5
170
     0
171
     0
290
     0
174
     0
 93
        1
 44
0.0
173
     0
291
     1
 45
0.0
1001
ACAD
1000
AcDbSavedByObjectVersion
1070
     0
  0
VISUALSTYLE
  5
34
102
{ACAD_REACTORS
330
2A
102
}
102
{ACAD_XDICTIONARY
360
C8
102
}
330
2A
100
AcDbVisualStyle
  2
Conceptual
 70
     9
 71
     3
 72
     2
 73
     0
 90
        0
 40
-0.6
 41
-30.0
 62
     5
 63
     7
 74
     2
 91
        2
 64
     7
 65
   257
 75
     1
175
     1
 42
40.0
 92
        8
 66
     7
 43
1.0
 76
     1
 77
     6
 78
     2
 67
     7
 79
     3
170
     0
171
     0
290
     0
174
     0
 93
        1
 44
0.0
173
     0
291
     0
 45
0.0
1001
ACAD
1000
AcDbSavedByObjectVersion
1070
     0
  0
VISUALSTYLE
  5
35
102
{ACAD_REACTORS
330
2A
102
}
102
{ACAD_XDICTIONARY
360
CA
102
}
330
2A
100
AcDbVisualStyle
  2
Dim
 70
    11
 71
     2
 72
     2
 73
     0
 90
        0
 40
-0.6
 41
-30.0
 62
     5
 63
     7
 74
     1
 91
        4
 64
     7
 65
   257
 75
     1
175
     1
 42
1.0
 92
        8
 66
     7
 43
1.0
 76
     1
 77
     6
 78
     2
 67
     7
 79
     5
170
     0
171
     0
290
     0
174
     0
 93
        1
 44
-50.0
173
     0
291
     1
 45
0.0
1001
ACAD
1000
AcDbSavedByObjectVersion
1070
     0
  0
VISUALSTYLE
  5
39
102
{ACAD_REACTORS
330
2A
102
}
102
{ACAD_XDICTIONARY
360
D2
102
}
330
2A
100
AcDbVisualStyle
  2
Facepattern
 70
    15
 71
     2
 72
     2
 73
     0
 90
        0
 40
-0.6
 41
-30.0
 62
     5
 63
     7
 74
     1
 91
        4
 64
     7
 65
   257
 75
     1
175
     1
 42
1.0
 92
        8
 66
     7
 43
1.0
 76
     1
 77
     6
 78
     2
 67
     7
 79
     5
170
     0
171
     0
290
     0
174
     0
 93
        1
 44
0.0
173
     0
291
     1
 45
0.0
1001
ACAD
1000
AcDbSavedByObjectVersion
1070
     0
  0
VISUALSTYLE
  5
2B
102
{ACAD_REACTORS
330
2A
102
}
102
{ACAD_XDICTIONARY
360
B6
102
}
330
2A
100
AcDbVisualStyle
  2
Flat
 70
     0
 71
     2
 72
     1
 73
     1
 90
        2
 40
-0.6
 41
30.0
 62
     5
 63
     7
 74
     0
 91
        4
 64
     7
 65
   257
 75
     1
175
     1
 42
1.0
 92
        8
 66
     7
 43
1.0
 76
     1
 77
     6
 78
     2
 67
     7
 79
     5
170
     0
171
     0
290
     0
174
     0
 93
       13
 44
0.0
173
     0
291
     1
 45
0.0
1001
ACAD
1000
AcDbSavedByObjectVersion
1070
     0
  0
VISUALSTYLE
  5
2C
102
{ACAD_REACTORS
330
2A
102
}
102
{ACAD_XDICTIONARY
360
B8
102
}
330
2A
100
AcDbVisualStyle
  2
FlatWithEdges
 70
     1
 71
     2
 72
     1
 73
     1
 90
        2
 40
-0.6
 41
30.0
 62
     5
 63
     7
 74
     1
 91
        4
 64
     7
 65
   257
 75
     1
175
     1
 42
1.0
 92
        0
 66
   257
 43
1.0
 76
     1
 77
     6
 78
     2
 67
     7
 79
     5
170
     0
171
     0
290
     0
174
     0
 93
       13
 44
0.0
173
     0
291
     1
 45
0.0
1001
ACAD
1000
AcDbSavedByObjectVersion
1070
     0
  0
VISUALSTYLE
  5
2D
102
{ACAD_REACTORS
330
2A
102
}
102
{ACAD_XDICTIONARY
360
BA
102
}
330
2A
100
AcDbVisualStyle
  2
Gouraud
 70
     2
 71
     2
 72
     2
 73
     1
 90
        2
 40
-0.6
 41
30.0
 62
     5
 63
     7
 74
     0
 91
        4
 64
     7
 65
   257
 75
     1
175
     1
 42
1.0
 92
        0
 66
     7
 43
1.0
 76
     1
 77
     6
 78
     2
 67
     7
 79
     5
170
     0
171
     0
290
     0
174
     0
 93
       13
 44
0.0
173
     0
291
     1
 45
0.0
1001
ACAD
1000
AcDbSavedByObjectVersion
1070
     0
  0
VISUALSTYLE
  5
2E
102
{ACAD_REACTORS
330
2A
102
}
102
{ACAD_XDICTIONARY
360
BC
102
}
330
2A
100
AcDbVisualStyle
  2
GouraudWithEdges
 70
     3
 71
     2
 72
     2
 73
     1
 90
        2
 40
-0.6
 41
30.0
 62
     5
 63
     7
 74
     1
 91
        4
 64
     7
 65
   257
 75
     1
175
     1
 42
1.0
 92
        0
 66
   257
 43
1.0
 76
     1
 77
     6
 78
     2
 67
     7
 79
     5
170
     0
171
     0
290
     0
174
     0
 93
       13
 44
0.0
173
     0
291
     1
 45
0.0
1001
ACAD
1000
AcDbSavedByObjectVersion
1070
     0
  0
VISUALSTYLE
  5
38
102
{ACAD_REACTORS
330
2A
102
}
102
{ACAD_XDICTIONARY
360
D0
102
}
330
2A
100
AcDbVisualStyle
  2
Linepattern
 70
    14
 71
     2
 72
     2
 73
     0
 90
        0
 40
-0.6
 41
-30.0
 62
     5
 63
     7
 74
     1
 91
        4
 64
     7
 65
   257
 75
     7
175
     7
 42
1.0
 92
        8
 66
     7
 43
1.0
 76
     1
 77
     6
 78
     2
 67
     7
 79
     5
170
     0
171
     0
290
     0
174
     0
 93
        1
 44
0.0
173
     0
291
     1
 45
0.0
1001
ACAD
1000
AcDbSavedByObjectVersion
1070
     0
  0
VISUALSTYLE
  5
33
102
{ACAD_REACTORS
330
2A
102
}
102
{ACAD_XDICTIONARY
360
C6
102
}
330
2A
100
AcDbVisualStyle
  2
Realistic
 70
     8
 71
     2
 72
     2
 73
     0
 90
        0
 40
-0.6
 41
-30.0
 62
     5
 63
     7
 74
     1
 91
        0
 64
     7
 65
   257
 75
     1
175
     1
 42
1.0
 92
        8
 66
     8
 43
1.0
 76
     1
 77
     6
 78
     2
 67
     7
 79
     5
170
     0
171
     0
290
     0
174
     0
 93
       13
 44
0.0
173
     0
291
     0
 45
0.0
1001
ACAD
1000
AcDbSavedByObjectVersion
1070
     0
  0
VISUALSTYLE
  5
37
102
{ACAD_REACTORS
330
2A
102
}
102
{ACAD_XDICTIONARY
360
CE
102
}
330
2A
100
AcDbVisualStyle
  2
Thicken
 70
    13
 71
     2
 72
     2
 73
     0
 90
        0
 40
-0.6
 41
-30.0
 62
     5
 63
     7
 74
     1
 91
        4
 64
     7
 65
   257
 75
     1
175
     1
 42
1.0
 92
       12
 66
     7
 43
1.0
 76
     1
 77
     6
 78
     2
 67
     7
 79
     5
170
     0
171
     0
290
     0
174
     0
 93
        1
 44
0.0
173
     0
291
     1
 45
0.0
1001
ACAD
1000
AcDbSavedByObjectVersion
1070
     0
  0
DICTIONARYVAR
  5
B4
102
{ACAD_REACTORS
330
B1
102
}
330
B1
100
DictionaryVariables
280
     0
  1
2
  0
DICTIONARYVAR
  5
B5
102
{ACAD_REACTORS
330
B1
102
}
330
B1
100
DictionaryVariables
280
     0
  1
1
  0
DICTIONARY
  5
D8
330
3D
100
AcDbDictionary
280
     1
281
     1
  3
ACAD_XREC_ROUNDTRIP
360
D9
  0
DICTIONARY
  5
D6
330
3C
100
AcDbDictionary
280
     1
281
     1
  3
ACAD_XREC_ROUNDTRIP
360
D7
  0
DICTIONARY
  5
DA
330
3E
100
AcDbDictionary
280
     1
281
     1
  3
ACAD_XREC_ROUNDTRIP
360
DB
  0
DICTIONARY
  5
BE
330
2F
100
AcDbDictionary
280
     1
281
     1
  3
ACAD_XREC_ROUNDTRIP
360
BF
  0
DICTIONARY
  5
C2
330
31
100
AcDbDictionary
280
     1
281
     1
  3
ACAD_XREC_ROUNDTRIP
360
C3
  0
DICTIONARY
  5
C0
330
30
100
AcDbDictionary
280
     1
281
     1
  3
ACAD_XREC_ROUNDTRIP
360
C1
  0
DICTIONARY
  5
C4
330
32
100
AcDbDictionary
280
     1
281
     1
  3
ACAD_XREC_ROUNDTRIP
360
C5
  0
DICTIONARY
  5
CC
330
36
100
AcDbDictionary
280
     1
281
     1
  3
ACAD_XREC_ROUNDTRIP
360
CD
  0
DICTIONARY
  5
D4
330
3A
100
AcDbDictionary
280
     1
281
     1
  3
ACAD_XREC_ROUNDTRIP
360
D5
  0
DICTIONARY
  5
C8
330
34
100
AcDbDictionary
280
     1
281
     1
  3
ACAD_XREC_ROUNDTRIP
360
C9
  0
DICTIONARY
  5
CA
330
35
100
AcDbDictionary
280
     1
281
     1
  3
ACAD_XREC_ROUNDTRIP
360
CB
  0
DICTIONARY
  5
D2
330
39
100
AcDbDictionary
280
     1
281
     1
  3
ACAD_XREC_ROUNDTRIP
360
D3
  0
DICTIONARY
  5
B6
330
2B
100
AcDbDictionary
280
     1
281
     1
  3
ACAD_XREC_ROUNDTRIP
360
B7
  0
DICTIONARY
  5
B8
330
2C
100
AcDbDictionary
280
     1
281
     1
  3
ACAD_XREC_ROUNDTRIP
360
B9
  0
DICTIONARY
  5
BA
330
2D
100
AcDbDictionary
280
     1
281
     1
  3
ACAD_XREC_ROUNDTRIP
360
BB
  0
DICTIONARY
  5
BC
330
2E
100
AcDbDictionary
280
     1
281
     1
  3
ACAD_XREC_ROUNDTRIP
360
BD
  0
DICTIONARY
  5
D0
330
38
100
AcDbDictionary
280
     1
281
     1
  3
ACAD_XREC_ROUNDTRIP
360
D1
  0
DICTIONARY
  5
C6
330
33
100
AcDbDictionary
280
     1
281
     1
  3
ACAD_XREC_ROUNDTRIP
360
C7
  0
DICTIONARY
  5
CE
330
37
100
AcDbDictionary
280
     1
281
     1
  3
ACAD_XREC_ROUNDTRIP
360
CF
  0
XRECORD
  5
D9
102
{ACAD_REACTORS
330
D8
102
}
330
D8
100
AcDbXrecord
280
     1
102
MATERIAL
148
0.0
149
0.0
149
0.0
 93
        0
 94
      127
282
     0
 72
     1
 77
     1
171
     1
175
     1
179
     1
273
     0
  0
XRECORD
  5
D7
102
{ACAD_REACTORS
330
D6
102
}
330
D6
100
AcDbXrecord
280
     1
102
MATERIAL
148
0.0
149
0.0
149
0.0
 93
        0
 94
      127
282
     0
 72
     1
 77
     1
171
     1
175
     1
179
     1
273
     0
  0
XRECORD
  5
DB
102
{ACAD_REACTORS
330
DA
102
}
330
DA
100
AcDbXrecord
280
     1
102
MATERIAL
148
0.0
149
0.0
149
0.0
 93
        0
 94
      127
282
     0
 72
     1
 77
     1
171
     1
175
     1
179
     1
273
     0
  0
XRECORD
  5
BF
102
{ACAD_REACTORS
330
BE
102
}
330
BE
100
AcDbXrecord
280
     1
102
RTVSPropertyOp0
 70
     1
102
RTVSPropertyOp1
 70
     1
102
RTVSPropertyOp2
 70
     1
102
RTVSPropertyOp3
 70
     1
102
RTVSPropertyOp4
 70
     1
102
RTVSPropertyOp5
 70
     1
102
RTVSPropertyOp6
 70
     1
102
RTVSPropertyOp7
 70
     1
102
RTVSPropertyOp8
 70
     1
102
RTVSPropertyOp9
 70
     1
102
RTVSPropertyOp10
 70
     1
102
RTVSPropertyOp11
 70
     1
102
RTVSPropertyOp12
 70
     1
102
RTVSPropertyOp13
 70
     1
102
RTVSPropertyOp14
 70
     1
102
RTVSPropertyOp15
 70
     1
102
RTVSPropertyOp16
 70
     1
102
RTVSPropertyOp17
 70
     1
102
RTVSPropertyOp18
 70
     1
102
RTVSPropertyOp19
 70
     1
102
RTVSPropertyOp20
 70
     1
102
RTVSPropertyOp21
 70
     1
102
RTVSPropertyOp22
 70
     1
102
RTVSPropertyOp23
 70
     1
102
RTVSPropertyOp24
 70
     1
102
RTVSPropertyOp25
 70
     1
102
RTVSPropertyOp26
 70
     1
102
RTVSPropertyOp27
 70
     1
102
RTVSPropertyOp28
 70
     1
102
RTVSPropertyOp29
 70
     1
102
RTVSPropertyOp30
 70
     1
102
RTVSPropertyOp31
 70
     1
102
RTVSPropertyOp32
 70
     1
  0
XRECORD
  5
C3
102
{ACAD_REACTORS
330
C2
102
}
330
C2
100
AcDbXrecord
280
     1
102
RTVSPropertyOp0
 70
     1
102
RTVSPropertyOp1
 70
     1
102
RTVSPropertyOp2
 70
     1
102
RTVSPropertyOp3
 70
     1
102
RTVSPropertyOp4
 70
     1
102
RTVSPropertyOp5
 70
     1
102
RTVSPropertyOp6
 70
     1
102
RTVSPropertyOp7
 70
     1
102
RTVSPropertyOp8
 70
     1
102
RTVSPropertyOp9
 70
     1
102
RTVSPropertyOp10
 70
     1
102
RTVSPropertyOp11
 70
     1
102
RTVSPropertyOp12
 70
     1
102
RTVSPropertyOp13
 70
     1
102
RTVSPropertyOp14
 70
     1
102
RTVSPropertyOp15
 70
     1
102
RTVSPropertyOp16
 70
     1
102
RTVSPropertyOp17
 70
     1
102
RTVSPropertyOp18
 70
     1
102
RTVSPropertyOp19
 70
     1
102
RTVSPropertyOp20
 70
     1
102
RTVSPropertyOp21
 70
     1
102
RTVSPropertyOp22
 70
     1
102
RTVSPropertyOp23
 70
     1
102
RTVSPropertyOp24
 70
     1
102
RTVSPropertyOp25
 70
     1
102
RTVSPropertyOp26
 70
     1
102
RTVSPropertyOp27
 70
     1
102
RTVSPropertyOp28
 70
     1
102
RTVSPropertyOp29
 70
     1
102
RTVSPropertyOp30
 70
     1
102
RTVSPropertyOp31
 70
     1
102
RTVSPropertyOp32
 70
     1
  0
XRECORD
  5
C1
102
{ACAD_REACTORS
330
C0
102
}
330
C0
100
AcDbXrecord
280
     1
102
RTVSPropertyOp0
 70
     1
102
RTVSPropertyOp1
 70
     1
102
RTVSPropertyOp2
 70
     1
102
RTVSPropertyOp3
 70
     1
102
RTVSPropertyOp4
 70
     1
102
RTVSPropertyOp5
 70
     1
102
RTVSPropertyOp6
 70
     1
102
RTVSPropertyOp7
 70
     1
102
RTVSPropertyOp8
 70
     1
102
RTVSPropertyOp9
 70
     1
102
RTVSPropertyOp10
 70
     1
102
RTVSPropertyOp11
 70
     1
102
RTVSPropertyOp12
 70
     1
102
RTVSPropertyOp13
 70
     1
102
RTVSPropertyOp14
 70
     1
102
RTVSPropertyOp15
 70
     1
102
RTVSPropertyOp16
 70
     1
102
RTVSPropertyOp17
 70
     1
102
RTVSPropertyOp18
 70
     1
102
RTVSPropertyOp19
 70
     1
102
RTVSPropertyOp20
 70
     1
102
RTVSPropertyOp21
 70
     1
102
RTVSPropertyOp22
 70
     1
102
RTVSPropertyOp23
 70
     1
102
RTVSPropertyOp24
 70
     1
102
RTVSPropertyOp25
 70
     1
102
RTVSPropertyOp26
 70
     1
102
RTVSPropertyOp27
 70
     1
102
RTVSPropertyOp28
 70
     1
102
RTVSPropertyOp29
 70
     1
102
RTVSPropertyOp30
 70
     1
102
RTVSPropertyOp31
 70
     1
102
RTVSPropertyOp32
 70
     1
  0
XRECORD
  5
C5
102
{ACAD_REACTORS
330
C4
102
}
330
C4
100
AcDbXrecord
280
     1
102
RTVSPropertyOp0
 70
     1
102
RTVSPropertyOp1
 70
     1
102
RTVSPropertyOp2
 70
     1
102
RTVSPropertyOp3
 70
     1
102
RTVSPropertyOp4
 70
     1
102
RTVSPropertyOp5
 70
     1
102
RTVSPropertyOp6
 70
     1
102
RTVSPropertyOp7
 70
     1
102
RTVSPropertyOp8
 70
     1
102
RTVSPropertyOp9
 70
     1
102
RTVSPropertyOp10
 70
     1
102
RTVSPropertyOp11
 70
     1
102
RTVSPropertyOp12
 70
     1
102
RTVSPropertyOp13
 70
     1
102
RTVSPropertyOp14
 70
     1
102
RTVSPropertyOp15
 70
     1
102
RTVSPropertyOp16
 70
     1
102
RTVSPropertyOp17
 70
     1
102
RTVSPropertyOp18
 70
     1
102
RTVSPropertyOp19
 70
     1
102
RTVSPropertyOp20
 70
     1
102
RTVSPropertyOp21
 70
     1
102
RTVSPropertyOp22
 70
     1
102
RTVSPropertyOp23
 70
     1
102
RTVSPropertyOp24
 70
     1
102
RTVSPropertyOp25
 70
     1
102
RTVSPropertyOp26
 70
     1
102
RTVSPropertyOp27
 70
     1
102
RTVSPropertyOp28
 70
     1
102
RTVSPropertyOp29
 70
     1
102
RTVSPropertyOp30
 70
     1
102
RTVSPropertyOp31
 70
     1
102
RTVSPropertyOp32
 70
     1
  0
XRECORD
  5
CD
102
{ACAD_REACTORS
330
CC
102
}
330
CC
100
AcDbXrecord
280
     1
102
RTVSPropertyOp0
 70
     1
102
RTVSPropertyOp1
 70
     1
102
RTVSPropertyOp2
 70
     1
102
RTVSPropertyOp3
 70
     1
102
RTVSPropertyOp4
 70
     1
102
RTVSPropertyOp5
 70
     1
102
RTVSPropertyOp6
 70
     1
102
RTVSPropertyOp7
 70
     1
102
RTVSPropertyOp8
 70
     1
102
RTVSPropertyOp9
 70
     1
102
RTVSPropertyOp10
 70
     1
102
RTVSPropertyOp11
 70
     1
102
RTVSPropertyOp12
 70
     1
102
RTVSPropertyOp13
 70
     1
102
RTVSPropertyOp14
 70
     1
102
RTVSPropertyOp15
 70
     1
102
RTVSPropertyOp16
 70
     1
102
RTVSPropertyOp17
 70
     1
102
RTVSPropertyOp18
 70
     1
102
RTVSPropertyOp19
 70
     1
102
RTVSPropertyOp20
 70
     1
102
RTVSPropertyOp21
 70
     1
102
RTVSPropertyOp22
 70
     1
102
RTVSPropertyOp23
 70
     1
102
RTVSPropertyOp24
 70
     1
102
RTVSPropertyOp25
 70
     1
102
RTVSPropertyOp26
 70
     1
102
RTVSPropertyOp27
 70
     1
102
RTVSPropertyOp28
 70
     1
102
RTVSPropertyOp29
 70
     1
102
RTVSPropertyOp30
 70
     1
102
RTVSPropertyOp31
 70
     1
102
RTVSPropertyOp32
 70
     1
  0
XRECORD
  5
D5
102
{ACAD_REACTORS
330
D4
102
}
330
D4
100
AcDbXrecord
280
     1
102
RTVSPropertyOp0
 70
     1
102
RTVSPropertyOp1
 70
     1
102
RTVSPropertyOp2
 70
     1
102
RTVSPropertyOp3
 70
     1
102
RTVSPropertyOp4
 70
     1
102
RTVSPropertyOp5
 70
     1
102
RTVSPropertyOp6
 70
     1
102
RTVSPropertyOp7
 70
     1
102
RTVSPropertyOp8
 70
     1
102
RTVSPropertyOp9
 70
     1
102
RTVSPropertyOp10
 70
     1
102
RTVSPropertyOp11
 70
     1
102
RTVSPropertyOp12
 70
     1
102
RTVSPropertyOp13
 70
     1
102
RTVSPropertyOp14
 70
     1
102
RTVSPropertyOp15
 70
     1
102
RTVSPropertyOp16
 70
     1
102
RTVSPropertyOp17
 70
     1
102
RTVSPropertyOp18
 70
     1
102
RTVSPropertyOp19
 70
     1
102
RTVSPropertyOp20
 70
     1
102
RTVSPropertyOp21
 70
     1
102
RTVSPropertyOp22
 70
     1
102
RTVSPropertyOp23
 70
     1
102
RTVSPropertyOp24
 70
     1
102
RTVSPropertyOp25
 70
     1
102
RTVSPropertyOp26
 70
     1
102
RTVSPropertyOp27
 70
     1
102
RTVSPropertyOp28
 70
     1
102
RTVSPropertyOp29
 70
     1
102
RTVSPropertyOp30
 70
     1
102
RTVSPropertyOp31
 70
     1
102
RTVSPropertyOp32
 70
     1
  0
XRECORD
  5
C9
102
{ACAD_REACTORS
330
C8
102
}
330
C8
100
AcDbXrecord
280
     1
102
RTVSPropertyOp0
 70
     1
102
RTVSPropertyOp1
 70
     1
102
RTVSPropertyOp2
 70
     1
102
RTVSPropertyOp3
 70
     1
102
RTVSPropertyOp4
 70
     1
102
RTVSPropertyOp5
 70
     1
102
RTVSPropertyOp6
 70
     1
102
RTVSPropertyOp7
 70
     1
102
RTVSPropertyOp8
 70
     1
102
RTVSPropertyOp9
 70
     1
102
RTVSPropertyOp10
 70
     1
102
RTVSPropertyOp11
 70
     1
102
RTVSPropertyOp12
 70
     1
102
RTVSPropertyOp13
 70
     1
102
RTVSPropertyOp14
 70
     1
102
RTVSPropertyOp15
 70
     1
102
RTVSPropertyOp16
 70
     1
102
RTVSPropertyOp17
 70
     1
102
RTVSPropertyOp18
 70
     1
102
RTVSPropertyOp19
 70
     1
102
RTVSPropertyOp20
 70
     1
102
RTVSPropertyOp21
 70
     1
102
RTVSPropertyOp22
 70
     1
102
RTVSPropertyOp23
 70
     1
102
RTVSPropertyOp24
 70
     1
102
RTVSPropertyOp25
 70
     1
102
RTVSPropertyOp26
 70
     1
102
RTVSPropertyOp27
 70
     1
102
RTVSPropertyOp28
 70
     1
102
RTVSPropertyOp29
 70
     1
102
RTVSPropertyOp30
 70
     1
102
RTVSPropertyOp31
 70
     1
102
RTVSPropertyOp32
 70
     1
  0
XRECORD
  5
CB
102
{ACAD_REACTORS
330
CA
102
}
330
CA
100
AcDbXrecord
280
     1
102
RTVSPropertyOp0
 70
     1
102
RTVSPropertyOp1
 70
     1
102
RTVSPropertyOp2
 70
     1
102
RTVSPropertyOp3
 70
     1
102
RTVSPropertyOp4
 70
     1
102
RTVSPropertyOp5
 70
     1
102
RTVSPropertyOp6
 70
     1
102
RTVSPropertyOp7
 70
     1
102
RTVSPropertyOp8
 70
     1
102
RTVSPropertyOp9
 70
     1
102
RTVSPropertyOp10
 70
     1
102
RTVSPropertyOp11
 70
     1
102
RTVSPropertyOp12
 70
     1
102
RTVSPropertyOp13
 70
     1
102
RTVSPropertyOp14
 70
     1
102
RTVSPropertyOp15
 70
     1
102
RTVSPropertyOp16
 70
     1
102
RTVSPropertyOp17
 70
     1
102
RTVSPropertyOp18
 70
     1
102
RTVSPropertyOp19
 70
     1
102
RTVSPropertyOp20
 70
     1
102
RTVSPropertyOp21
 70
     1
102
RTVSPropertyOp22
 70
     1
102
RTVSPropertyOp23
 70
     1
102
RTVSPropertyOp24
 70
     1
102
RTVSPropertyOp25
 70
     1
102
RTVSPropertyOp26
 70
     1
102
RTVSPropertyOp27
 70
     1
102
RTVSPropertyOp28
 70
     1
102
RTVSPropertyOp29
 70
     1
102
RTVSPropertyOp30
 70
     1
102
RTVSPropertyOp31
 70
     1
102
RTVSPropertyOp32
 70
     1
  0
XRECORD
  5
D3
102
{ACAD_REACTORS
330
D2
102
}
330
D2
100
AcDbXrecord
280
     1
102
RTVSPropertyOp0
 70
     1
102
RTVSPropertyOp1
 70
     1
102
RTVSPropertyOp2
 70
     1
102
RTVSPropertyOp3
 70
     1
102
RTVSPropertyOp4
 70
     1
102
RTVSPropertyOp5
 70
     1
102
RTVSPropertyOp6
 70
     1
102
RTVSPropertyOp7
 70
     1
102
RTVSPropertyOp8
 70
     1
102
RTVSPropertyOp9
 70
     1
102
RTVSPropertyOp10
 70
     1
102
RTVSPropertyOp11
 70
     1
102
RTVSPropertyOp12
 70
     1
102
RTVSPropertyOp13
 70
     1
102
RTVSPropertyOp14
 70
     1
102
RTVSPropertyOp15
 70
     1
102
RTVSPropertyOp16
 70
     1
102
RTVSPropertyOp17
 70
     1
102
RTVSPropertyOp18
 70
     1
102
RTVSPropertyOp19
 70
     1
102
RTVSPropertyOp20
 70
     1
102
RTVSPropertyOp21
 70
     1
102
RTVSPropertyOp22
 70
     1
102
RTVSPropertyOp23
 70
     1
102
RTVSPropertyOp24
 70
     1
102
RTVSPropertyOp25
 70
     1
102
RTVSPropertyOp26
 70
     1
102
RTVSPropertyOp27
 70
     1
102
RTVSPropertyOp28
 70
     1
102
RTVSPropertyOp29
 70
     1
102
RTVSPropertyOp30
 70
     1
102
RTVSPropertyOp31
 70
     1
102
RTVSPropertyOp32
 70
     1
  0
XRECORD
  5
B7
102
{ACAD_REACTORS
330
B6
102
}
330
B6
100
AcDbXrecord
280
     1
102
RTVSPropertyOp0
 70
     1
102
RTVSPropertyOp1
 70
     1
102
RTVSPropertyOp2
 70
     1
102
RTVSPropertyOp3
 70
     1
102
RTVSPropertyOp4
 70
     1
102
RTVSPropertyOp5
 70
     1
102
RTVSPropertyOp6
 70
     1
102
RTVSPropertyOp7
 70
     1
102
RTVSPropertyOp8
 70
     1
102
RTVSPropertyOp9
 70
     1
102
RTVSPropertyOp10
 70
     1
102
RTVSPropertyOp11
 70
     1
102
RTVSPropertyOp12
 70
     1
102
RTVSPropertyOp13
 70
     1
102
RTVSPropertyOp14
 70
     1
102
RTVSPropertyOp15
 70
     1
102
RTVSPropertyOp16
 70
     1
102
RTVSPropertyOp17
 70
     1
102
RTVSPropertyOp18
 70
     1
102
RTVSPropertyOp19
 70
     1
102
RTVSPropertyOp20
 70
     1
102
RTVSPropertyOp21
 70
     1
102
RTVSPropertyOp22
 70
     1
102
RTVSPropertyOp23
 70
     1
102
RTVSPropertyOp24
 70
     1
102
RTVSPropertyOp25
 70
     1
102
RTVSPropertyOp26
 70
     1
102
RTVSPropertyOp27
 70
     1
102
RTVSPropertyOp28
 70
     1
102
RTVSPropertyOp29
 70
     1
102
RTVSPropertyOp30
 70
     1
102
RTVSPropertyOp31
 70
     1
102
RTVSPropertyOp32
 70
     1
  0
XRECORD
  5
B9
102
{ACAD_REACTORS
330
B8
102
}
330
B8
100
AcDbXrecord
280
     1
102
RTVSPropertyOp0
 70
     1
102
RTVSPropertyOp1
 70
     1
102
RTVSPropertyOp2
 70
     1
102
RTVSPropertyOp3
 70
     1
102
RTVSPropertyOp4
 70
     1
102
RTVSPropertyOp5
 70
     1
102
RTVSPropertyOp6
 70
     1
102
RTVSPropertyOp7
 70
     1
102
RTVSPropertyOp8
 70
     1
102
RTVSPropertyOp9
 70
     1
102
RTVSPropertyOp10
 70
     1
102
RTVSPropertyOp11
 70
     1
102
RTVSPropertyOp12
 70
     1
102
RTVSPropertyOp13
 70
     1
102
RTVSPropertyOp14
 70
     1
102
RTVSPropertyOp15
 70
     1
102
RTVSPropertyOp16
 70
     1
102
RTVSPropertyOp17
 70
     1
102
RTVSPropertyOp18
 70
     1
102
RTVSPropertyOp19
 70
     1
102
RTVSPropertyOp20
 70
     1
102
RTVSPropertyOp21
 70
     1
102
RTVSPropertyOp22
 70
     1
102
RTVSPropertyOp23
 70
     1
102
RTVSPropertyOp24
 70
     1
102
RTVSPropertyOp25
 70
     1
102
RTVSPropertyOp26
 70
     1
102
RTVSPropertyOp27
 70
     1
102
RTVSPropertyOp28
 70
     1
102
RTVSPropertyOp29
 70
     1
102
RTVSPropertyOp30
 70
     1
102
RTVSPropertyOp31
 70
     1
102
RTVSPropertyOp32
 70
     1
  0
XRECORD
  5
BB
102
{ACAD_REACTORS
330
BA
102
}
330
BA
100
AcDbXrecord
280
     1
102
RTVSPropertyOp0
 70
     1
102
RTVSPropertyOp1
 70
     1
102
RTVSPropertyOp2
 70
     1
102
RTVSPropertyOp3
 70
     1
102
RTVSPropertyOp4
 70
     1
102
RTVSPropertyOp5
 70
     1
102
RTVSPropertyOp6
 70
     1
102
RTVSPropertyOp7
 70
     1
102
RTVSPropertyOp8
 70
     1
102
RTVSPropertyOp9
 70
     1
102
RTVSPropertyOp10
 70
     1
102
RTVSPropertyOp11
 70
     1
102
RTVSPropertyOp12
 70
     1
102
RTVSPropertyOp13
 70
     1
102
RTVSPropertyOp14
 70
     1
102
RTVSPropertyOp15
 70
     1
102
RTVSPropertyOp16
 70
     1
102
RTVSPropertyOp17
 70
     1
102
RTVSPropertyOp18
 70
     1
102
RTVSPropertyOp19
 70
     1
102
RTVSPropertyOp20
 70
     1
102
RTVSPropertyOp21
 70
     1
102
RTVSPropertyOp22
 70
     1
102
RTVSPropertyOp23
 70
     1
102
RTVSPropertyOp24
 70
     1
102
RTVSPropertyOp25
 70
     1
102
RTVSPropertyOp26
 70
     1
102
RTVSPropertyOp27
 70
     1
102
RTVSPropertyOp28
 70
     1
102
RTVSPropertyOp29
 70
     1
102
RTVSPropertyOp30
 70
     1
102
RTVSPropertyOp31
 70
     1
102
RTVSPropertyOp32
 70
     1
  0
XRECORD
  5
BD
102
{ACAD_REACTORS
330
BC
102
}
330
BC
100
AcDbXrecord
280
     1
102
RTVSPropertyOp0
 70
     1
102
RTVSPropertyOp1
 70
     1
102
RTVSPropertyOp2
 70
     1
102
RTVSPropertyOp3
 70
     1
102
RTVSPropertyOp4
 70
     1
102
RTVSPropertyOp5
 70
     1
102
RTVSPropertyOp6
 70
     1
102
RTVSPropertyOp7
 70
     1
102
RTVSPropertyOp8
 70
     1
102
RTVSPropertyOp9
 70
     1
102
RTVSPropertyOp10
 70
     1
102
RTVSPropertyOp11
 70
     1
102
RTVSPropertyOp12
 70
     1
102
RTVSPropertyOp13
 70
     1
102
RTVSPropertyOp14
 70
     1
102
RTVSPropertyOp15
 70
     1
102
RTVSPropertyOp16
 70
     1
102
RTVSPropertyOp17
 70
     1
102
RTVSPropertyOp18
 70
     1
102
RTVSPropertyOp19
 70
     1
102
RTVSPropertyOp20
 70
     1
102
RTVSPropertyOp21
 70
     1
102
RTVSPropertyOp22
 70
     1
102
RTVSPropertyOp23
 70
     1
102
RTVSPropertyOp24
 70
     1
102
RTVSPropertyOp25
 70
     1
102
RTVSPropertyOp26
 70
     1
102
RTVSPropertyOp27
 70
     1
102
RTVSPropertyOp28
 70
     1
102
RTVSPropertyOp29
 70
     1
102
RTVSPropertyOp30
 70
     1
102
RTVSPropertyOp31
 70
     1
102
RTVSPropertyOp32
 70
     1
  0
XRECORD
  5
D1
102
{ACAD_REACTORS
330
D0
102
}
330
D0
100
AcDbXrecord
280
     1
102
RTVSPropertyOp0
 70
     1
102
RTVSPropertyOp1
 70
     1
102
RTVSPropertyOp2
 70
     1
102
RTVSPropertyOp3
 70
     1
102
RTVSPropertyOp4
 70
     1
102
RTVSPropertyOp5
 70
     1
102
RTVSPropertyOp6
 70
     1
102
RTVSPropertyOp7
 70
     1
102
RTVSPropertyOp8
 70
     1
102
RTVSPropertyOp9
 70
     1
102
RTVSPropertyOp10
 70
     1
102
RTVSPropertyOp11
 70
     1
102
RTVSPropertyOp12
 70
     1
102
RTVSPropertyOp13
 70
     1
102
RTVSPropertyOp14
 70
     1
102
RTVSPropertyOp15
 70
     1
102
RTVSPropertyOp16
 70
     1
102
RTVSPropertyOp17
 70
     1
102
RTVSPropertyOp18
 70
     1
102
RTVSPropertyOp19
 70
     1
102
RTVSPropertyOp20
 70
     1
102
RTVSPropertyOp21
 70
     1
102
RTVSPropertyOp22
 70
     1
102
RTVSPropertyOp23
 70
     1
102
RTVSPropertyOp24
 70
     1
102
RTVSPropertyOp25
 70
     1
102
RTVSPropertyOp26
 70
     1
102
RTVSPropertyOp27
 70
     1
102
RTVSPropertyOp28
 70
     1
102
RTVSPropertyOp29
 70
     1
102
RTVSPropertyOp30
 70
     1
102
RTVSPropertyOp31
 70
     1
102
RTVSPropertyOp32
 70
     1
  0
XRECORD
  5
C7
102
{ACAD_REACTORS
330
C6
102
}
330
C6
100
AcDbXrecord
280
     1
102
RTVSPropertyOp0
 70
     1
102
RTVSPropertyOp1
 70
     1
102
RTVSPropertyOp2
 70
     1
102
RTVSPropertyOp3
 70
     1
102
RTVSPropertyOp4
 70
     1
102
RTVSPropertyOp5
 70
     1
102
RTVSPropertyOp6
 70
     1
102
RTVSPropertyOp7
 70
     1
102
RTVSPropertyOp8
 70
     1
102
RTVSPropertyOp9
 70
     1
102
RTVSPropertyOp10
 70
     1
102
RTVSPropertyOp11
 70
     1
102
RTVSPropertyOp12
 70
     1
102
RTVSPropertyOp13
 70
     1
102
RTVSPropertyOp14
 70
     1
102
RTVSPropertyOp15
 70
     1
102
RTVSPropertyOp16
 70
     1
102
RTVSPropertyOp17
 70
     1
102
RTVSPropertyOp18
 70
     1
102
RTVSPropertyOp19
 70
     1
102
RTVSPropertyOp20
 70
     1
102
RTVSPropertyOp21
 70
     1
102
RTVSPropertyOp22
 70
     1
102
RTVSPropertyOp23
 70
     1
102
RTVSPropertyOp24
 70
     1
102
RTVSPropertyOp25
 70
     1
102
RTVSPropertyOp26
 70
     1
102
RTVSPropertyOp27
 70
     1
102
RTVSPropertyOp28
 70
     1
102
RTVSPropertyOp29
 70
     1
102
RTVSPropertyOp30
 70
     1
102
RTVSPropertyOp31
 70
     1
102
RTVSPropertyOp32
 70
     1
  0
XRECORD
  5
CF
102
{ACAD_REACTORS
330
CE
102
}
330
CE
100
AcDbXrecord
280
     1
102
RTVSPropertyOp0
 70
     1
102
RTVSPropertyOp1
 70
     1
102
RTVSPropertyOp2
 70
     1
102
RTVSPropertyOp3
 70
     1
102
RTVSPropertyOp4
 70
     1
102
RTVSPropertyOp5
 70
     1
102
RTVSPropertyOp6
 70
     1
102
RTVSPropertyOp7
 70
     1
102
RTVSPropertyOp8
 70
     1
102
RTVSPropertyOp9
 70
     1
102
RTVSPropertyOp10
 70
     1
102
RTVSPropertyOp11
 70
     1
102
RTVSPropertyOp12
 70
     1
102
RTVSPropertyOp13
 70
     1
102
RTVSPropertyOp14
 70
     1
102
RTVSPropertyOp15
 70
     1
102
RTVSPropertyOp16
 70
     1
102
RTVSPropertyOp17
 70
     1
102
RTVSPropertyOp18
 70
     1
102
RTVSPropertyOp19
 70
     1
102
RTVSPropertyOp20
 70
     1
102
RTVSPropertyOp21
 70
     1
102
RTVSPropertyOp22
 70
     1
102
RTVSPropertyOp23
 70
     1
102
RTVSPropertyOp24
 70
     1
102
RTVSPropertyOp25
 70
     1
102
RTVSPropertyOp26
 70
     1
102
RTVSPropertyOp27
 70
     1
102
RTVSPropertyOp28
 70
     1
102
RTVSPropertyOp29
 70
     1
102
RTVSPropertyOp30
 70
     1
102
RTVSPropertyOp31
 70
     1
102
RTVSPropertyOp32
 70
     1
  0
ENDSEC
  0
EOF
