  0
SECTION
  2
HEADER
  0
ENDSEC
  0
SECTION
  2
TABLES
  0
ENDSEC
  0
SECTION
  2
BLOCKS
  0
ENDSEC
  0
SECTION
  2
ENTITIES
  0
TEXT
  1
MARK_1
  8
72
 10
-3260.32
 20
1708.32
 11
-3260.32
 21
1708.32
 62
3
 40
40
 50
90
 72
0
 73
1
  0
TEXT
  1
MARK_2
  8
72
 10
-3304.32
 20
2515.52
 11
-3304.32
 21
2515.52
 62
3
 40
40
 50
90
 72
0
 73
1
  0
POLYLINE
  8
51
 62
7
 66
1
 70
1
  0
VERTEX
  8
51
 62
7
  6
CONTINUOUS
 10
-2773.10758290548
 20
2372.21746763176
  0
VERTEX
  8
51
 62
7
  6
CONTINUOUS
 10
-2770.42316848555
 20
2351.41383564737
  0
VERTEX
  8
51
 62
7
  6
CONTINUOUS
 10
-2757.65906937642
 20
2319.88753363885
  0
VERTEX
  8
51
 62
7
  6
CONTINUOUS
 10
-2730.59063725269
 20
2299.12534149633
  0
VERTEX
  8
51
 62
7
  6
CONTINUOUS
 10
-2701.73775065349
 20
2295.17726560371
  0
VERTEX
  8
51
 62
7
  6
CONTINUOUS
 10
-2679.89219223714
 20
2299.23288016599
  0
VERTEX
  8
51
 62
7
  6
CONTINUOUS
 10
-2651.79566023869
 20
2309.99169569467
  0
VERTEX
  8
51
 62
7
  6
CONTINUOUS
 10
-2621.38473511116
 20
2328.5474233842
  0
VERTEX
  8
51
 62
7
  6
CONTINUOUS
 10
-2589.39700156654
 20
2352.33494617826
  0
VERTEX
  8
51
 62
7
  6
CONTINUOUS
 10
-2524.73138595608
 20
2411.23812767741
  0
VERTEX
  8
51
 62
7
  6
CONTINUOUS
 10
-2491.31730370112
 20
2445.31210370456
  0
VERTEX
  8
51
 62
7
  6
CONTINUOUS
 10
-2456.70787125855
 20
2483.4242211766
  0
VERTEX
  8
51
 62
7
  6
CONTINUOUS
 10
-2442.90745288913
 20
2504.83112526171
  0
VERTEX
  8
51
 62
7
  6
CONTINUOUS
 10
-2462.16737181906
 20
2685.83893179871
  0
VERTEX
  8
51
 62
7
  6
CONTINUOUS
 10
-2469.60901551158
 20
2687.28958848916
  0
VERTEX
  8
51
 62
7
  6
CONTINUOUS
 10
-2481.87780936752
 20
2685.74489793098
  0
VERTEX
  8
51
 62
7
  6
CONTINUOUS
 10
-2514.14049681823
 20
2673.53988153535
  0
VERTEX
  8
51
 62
7
  6
CONTINUOUS
 10
-2534.28649789695
 20
2663.64161414271
  0
VERTEX
  8
51
 62
7
  6
CONTINUOUS
 10
-2554.89038145324
 20
2651.96552238396
  0
VERTEX
  8
51
 62
7
  6
CONTINUOUS
 10
-2577.93338634178
 20
2638.41076677913
  0
VERTEX
  8
51
 62
7
  6
CONTINUOUS
 10
-2625.92558549813
 20
2608.20318705984
  0
VERTEX
  8
51
 62
7
  6
CONTINUOUS
 10
-2665.40948729297
 20
2576.16354117141
  0
VERTEX
  8
51
 62
7
  6
CONTINUOUS
 10
-2687.36269080154
 20
2556.35996677003
  0
VERTEX
  8
51
 62
7
  6
CONTINUOUS
 10
-2726.82672093944
 20
2509.91851219251
  0
VERTEX
  8
51
 62
7
  6
CONTINUOUS
 10
-2742.55906994187
 20
2484.52454941342
  0
VERTEX
  8
51
 62
7
  6
CONTINUOUS
 10
-2760.48187363324
 20
2443.35802631029
  0
VERTEX
  8
51
 62
7
  6
CONTINUOUS
 10
-2769.2573434433
 20
2410.87479250925
  0
SEQEND
  0
POLYLINE
  8
52
 62
7
 66
1
 70
1
  0
VERTEX
  8
52
 62
7
  6
CONTINUOUS
 10
-3140.40591295495
 20
2385.95880728918
  0
VERTEX
  8
52
 62
7
  6
CONTINUOUS
 10
-3139.50598226096
 20
2348.2648590605
  0
VERTEX
  8
52
 62
7
  6
CONTINUOUS
 10
-3137.96356431947
 20
2396.24487051584
  0
VERTEX
  8
52
 62
7
  6
CONTINUOUS
 10
-3139.05498422613
 20
2398.27728962304
  0
SEQEND
  0
POLYLINE
  8
52
 62
7
 66
1
 70
1
  0
VERTEX
  8
52
 62
7
  6
CONTINUOUS
 10
-2766.25710115605
 20
1618.2970825227
  0
VERTEX
  8
52
 62
7
  6
CONTINUOUS
 10
-2764.55161680736
 20
1607.54216960044
  0
VERTEX
  8
52
 62
7
  6
CONTINUOUS
 10
-2761.13784285841
 20
1599.08357399588
  0
VERTEX
  8
52
 62
7
  6
CONTINUOUS
 10
-2754.5614083142
 20
1590.17307363291
  0
VERTEX
  8
52
 62
7
  6
CONTINUOUS
 10
-2747.2772297196
 20
1586.58090452502
  0
VERTEX
  8
52
 62
7
  6
CONTINUOUS
 10
-2742.85433315943
 20
1595.54962717755
  0
VERTEX
  8
52
 62
7
  6
CONTINUOUS
 10
-2747.9587560269
 20
1598.06685680064
  0
VERTEX
  8
52
 62
7
  6
CONTINUOUS
 10
-2752.33907625722
 20
1604.00181209287
  0
VERTEX
  8
52
 62
7
  6
CONTINUOUS
 10
-2754.85302480492
 20
1610.23083441643
  0
VERTEX
  8
52
 62
7
  6
CONTINUOUS
 10
-2756.22535636425
 20
1618.88486072423
  0
VERTEX
  8
52
 62
7
  6
CONTINUOUS
 10
-2755.9662883732
 20
1625.32299934252
  0
VERTEX
  8
52
 62
7
  6
CONTINUOUS
 10
-2726.32307026376
 20
1666.55285087166
  0
VERTEX
  8
52
 62
7
  6
CONTINUOUS
 10
-2701.24780080291
 20
1688.4084938282
  0
VERTEX
  8
52
 62
7
  6
CONTINUOUS
 10
-2692.64559116049
 20
1694.77158647525
  0
VERTEX
  8
52
 62
7
  6
CONTINUOUS
 10
-2676.41535321802
 20
1710.25811934268
  0
VERTEX
  8
52
 62
7
  6
CONTINUOUS
 10
-2670.98464875178
 20
1716.90743224548
  0
VERTEX
  8
52
 62
7
  6
CONTINUOUS
 10
-2657.11469349475
 20
1730.44500625259
  0
VERTEX
  8
52
 62
7
  6
CONTINUOUS
 10
-2644.67947061932
 20
1740.60910223838
  0
VERTEX
  8
52
 62
7
  6
CONTINUOUS
 10
-2632.78851034847
 20
1746.9624150005
  0
VERTEX
  8
52
 62
7
  6
CONTINUOUS
 10
-2628.41954684305
 20
1748.23736960908
  0
VERTEX
  8
52
 62
7
  6
CONTINUOUS
 10
-2623.49245029333
 20
1748.2168149966
  0
VERTEX
  8
52
 62
7
  6
CONTINUOUS
 10
-2622.072643877
 20
1747.58381100481
  0
VERTEX
  8
52
 62
7
  6
CONTINUOUS
 10
-2619.67960798283
 20
1745.57631930804
  0
VERTEX
  8
52
 62
7
  6
CONTINUOUS
 10
-2618.13373548475
 20
1743.32319571899
  0
VERTEX
  8
52
 62
7
  6
CONTINUOUS
 10
-2616.84428069583
 20
1733.28842397952
  0
VERTEX
  8
52
 62
7
  6
CONTINUOUS
 10
-2616.51109704405
 20
1726.28294898918
  0
VERTEX
  8
52
 62
7
  6
CONTINUOUS
 10
-2618.34778719299
 20
1676.5021285266
  0
VERTEX
  8
52
 62
7
  6
CONTINUOUS
 10
-2619.16357861398
 20
1665.7050794943
  0
VERTEX
  8
52
 62
7
  6
CONTINUOUS
 10
-2621.57211867453
 20
1652.3536988377
  0
VERTEX
  8
52
 62
7
  6
CONTINUOUS
 10
-2625.186609021
 20
1641.66550755359
  0
VERTEX
  8
52
 62
7
  6
CONTINUOUS
 10
-2630.59287385231
 20
1632.27457646337
  0
VERTEX
  8
52
 62
7
  6
CONTINUOUS
 10
-2644.15869830841
 20
1621.45677973771
  0
VERTEX
  8
52
 62
7
  6
CONTINUOUS
 10
-2644.63942165091
 20
1619.85281553738
  0
VERTEX
  8
52
 62
7
  6
CONTINUOUS
 10
-2650.91484993794
 20
1616.1857850536
  0
VERTEX
  8
52
 62
7
  6
CONTINUOUS
 10
-2662.80159918654
 20
1613.19774909968
  0
VERTEX
  8
52
 62
7
  6
CONTINUOUS
 10
-2660.36369090447
 20
1603.49947073658
  0
VERTEX
  8
52
 62
7
  6
CONTINUOUS
 10
-2647.09758892267
 20
1606.83424198993
  0
VERTEX
  8
52
 62
7
  6
CONTINUOUS
 10
-2636.19175161432
 20
1613.20704015313
  0
VERTEX
  8
52
 62
7
  6
CONTINUOUS
 10
-2635.47788122867
 20
1615.58891438523
  0
VERTEX
  8
52
 62
7
  6
CONTINUOUS
 10
-2622.8736929801
 20
1625.63987345566
  0
VERTEX
  8
52
 62
7
  6
CONTINUOUS
 10
-2616.02898807865
 20
1637.52944121972
  0
VERTEX
  8
52
 62
7
  6
CONTINUOUS
 10
-2611.86224535207
 20
1649.85066469094
  0
VERTEX
  8
52
 62
7
  6
CONTINUOUS
 10
-2609.23086060625
 20
1664.437351444
  0
VERTEX
  8
52
 62
7
  6
CONTINUOUS
 10
-2608.36169150955
 20
1675.94085725801
  0
VERTEX
  8
52
 62
7
  6
CONTINUOUS
 10
-2608.35813908247
 20
1676.03714063763
  0
VERTEX
  8
52
 62
7
  6
CONTINUOUS
 10
-2606.50232729372
 20
1726.33622539159
  0
VERTEX
  8
52
 62
7
  6
CONTINUOUS
 10
-2606.87464949562
 20
1734.16462231288
  0
VERTEX
  8
52
 62
7
  6
CONTINUOUS
 10
-2608.52281934489
 20
1746.99097990782
  0
VERTEX
  8
52
 62
7
  6
CONTINUOUS
 10
-2612.20642141307
 20
1752.35986429049
  0
VERTEX
  8
52
 62
7
  6
CONTINUOUS
 10
-2616.71996197322
 20
1756.14622421079
  0
VERTEX
  8
52
 62
7
  6
CONTINUOUS
 10
-2621.34432159445
 20
1758.20794055891
  0
VERTEX
  8
52
 62
7
  6
CONTINUOUS
 10
-2629.82840455632
 20
1758.2433340276
  0
VERTEX
  8
52
 62
7
  6
CONTINUOUS
 10
-2636.58588825183
 20
1756.27135944615
  0
VERTEX
  8
52
 62
7
  6
CONTINUOUS
 10
-2650.2525716849
 20
1748.96928187685
  0
VERTEX
  8
52
 62
7
  6
CONTINUOUS
 10
-2663.78429803137
 20
1737.90894409146
  0
VERTEX
  8
52
 62
7
  6
CONTINUOUS
 10
-2678.37300735434
 20
1723.66984032595
  0
VERTEX
  8
52
 62
7
  6
CONTINUOUS
 10
-2683.76779167484
 20
1717.06450777412
  0
VERTEX
  8
52
 62
7
  6
CONTINUOUS
 10
-2699.09591509885
 20
1702.43875256072
  0
VERTEX
  8
52
 62
7
  6
CONTINUOUS
 10
-2707.51654028238
 20
1696.20997874372
  0
VERTEX
  8
52
 62
7
  6
CONTINUOUS
 10
-2733.76644682472
 20
1673.33052032246
  0
VERTEX
  8
52
 62
7
  6
CONTINUOUS
 10
-2765.83753362438
 20
1628.72381998896
  0
SEQEND
  0
POLYLINE
  8
52
 62
7
 66
1
 70
1
  0
VERTEX
  8
52
 62
7
  6
CONTINUOUS
 10
-2703.61632437796
 20
1697.3861197498
  0
VERTEX
  8
52
 62
7
  6
CONTINUOUS
 10
-2703.09542010376
 20
1686.35803087701
  0
VERTEX
  8
52
 62
7
  6
CONTINUOUS
 10
-2698.24389626536
 20
1672.60943231175
  0
VERTEX
  8
52
 62
7
  6
CONTINUOUS
 10
-2688.31249420345
 20
1659.78181447875
  0
VERTEX
  8
52
 62
7
  6
CONTINUOUS
 10
-2685.61496111808
 20
1658.04928222358
  0
VERTEX
  8
52
 62
7
  6
CONTINUOUS
 10
-2685.0920384823
 20
1657.08110990779
  0
VERTEX
  8
52
 62
7
  6
CONTINUOUS
 10
-2683.98065476194
 20
1656.03605319767
  0
VERTEX
  8
52
 62
7
  6
CONTINUOUS
 10
-2690.03353928351
 20
1656.63926996054
  0
VERTEX
  8
52
 62
7
  6
CONTINUOUS
 10
-2691.02520435992
 20
1646.68856142415
  0
VERTEX
  8
52
 62
7
  6
CONTINUOUS
 10
-2673.46155831734
 20
1644.93820823762
  0
VERTEX
  8
52
 62
7
  6
CONTINUOUS
 10
-2650.50648804136
 20
1644.18265596167
  0
VERTEX
  8
52
 62
7
  6
CONTINUOUS
 10
-2647.73692133974
 20
1646.18304773844
  0
VERTEX
  8
52
 62
7
  6
CONTINUOUS
 10
-2646.77029013208
 20
1649.45988937082
  0
VERTEX
  8
52
 62
7
  6
CONTINUOUS
 10
-2648.01072714385
 20
1652.64318687422
  0
VERTEX
  8
52
 62
7
  6
CONTINUOUS
 10
-2652.06663553193
 20
1655.07884980574
  0
VERTEX
  8
52
 62
7
  6
CONTINUOUS
 10
-2660.99124478429
 20
1656.56980591049
  0
VERTEX
  8
52
 62
7
  6
CONTINUOUS
 10
-2667.87548606248
 20
1659.36671309908
  0
VERTEX
  8
52
 62
7
  6
CONTINUOUS
 10
-2655.20570291233
 20
1689.09430426224
  0
VERTEX
  8
52
 62
7
  6
CONTINUOUS
 10
-2649.77819082088
 20
1698.3129755607
  0
VERTEX
  8
52
 62
7
  6
CONTINUOUS
 10
-2658.39558606664
 20
1703.3864851131
  0
VERTEX
  8
52
 62
7
  6
CONTINUOUS
 10
-2664.15136627208
 20
1693.6102478821
  0
VERTEX
  8
52
 62
7
  6
CONTINUOUS
 10
-2676.68612008664
 20
1664.19948115358
  0
VERTEX
  8
52
 62
7
  6
CONTINUOUS
 10
-2678.041568303
 20
1665.07003868921
  0
VERTEX
  8
52
 62
7
  6
CONTINUOUS
 10
-2681.9429482341
 20
1672.29330229321
  0
VERTEX
  8
52
 62
7
  6
CONTINUOUS
 10
-2686.78167922531
 20
1684.53760124689
  0
VERTEX
  8
52
 62
7
  6
CONTINUOUS
 10
-2689.64409323832
 20
1695.04901292421
  0
VERTEX
  8
52
 62
7
  6
CONTINUOUS
 10
-2694.21019284646
 20
1704.56261890412
  0
VERTEX
  8
52
 62
7
  6
CONTINUOUS
 10
-2698.37174592675
 20
1705.85612829726
  0
VERTEX
  8
52
 62
7
  6
CONTINUOUS
 10
-2702.15235658014
 20
1703.68848587343
  0
SEQEND
  0
POLYLINE
  8
52
 62
7
 66
1
 70
1
  0
VERTEX
  8
52
 62
7
  6
CONTINUOUS
 10
-2615.88164324006
 20
2372.03011414568
  0
VERTEX
  8
52
 62
7
  6
CONTINUOUS
 10
-2615.78412856493
 20
2361.38747592914
  0
VERTEX
  8
52
 62
7
  6
CONTINUOUS
 10
-2612.81517583084
 20
2353.96953570676
  0
VERTEX
  8
52
 62
7
  6
CONTINUOUS
 10
-2607.00041903978
 20
2349.16670327362
  0
VERTEX
  8
52
 62
7
  6
CONTINUOUS
 10
-2600.09095653786
 20
2350.89125110263
  0
VERTEX
  8
52
 62
7
  6
CONTINUOUS
 10
-2589.70006601545
 20
2356.85626284708
  0
VERTEX
  8
52
 62
7
  6
CONTINUOUS
 10
-2540.9925620938
 20
2397.75696877403
  0
VERTEX
  8
52
 62
7
  6
CONTINUOUS
 10
-2517.87046141311
 20
2418.85549457258
  0
VERTEX
  8
52
 62
7
  6
CONTINUOUS
 10
-2500.18513035124
 20
2436.9081071301
  0
VERTEX
  8
52
 62
7
  6
CONTINUOUS
 10
-2488.92561855965
 20
2455.95378640534
  0
VERTEX
  8
52
 62
7
  6
CONTINUOUS
 10
-2564.34272732801
 20
2444.22253549924
  0
VERTEX
  8
52
 62
7
  6
CONTINUOUS
 10
-2572.37057951062
 20
2440.44101682889
  0
VERTEX
  8
52
 62
7
  6
CONTINUOUS
 10
-2579.84056774983
 20
2434.22088383466
  0
VERTEX
  8
52
 62
7
  6
CONTINUOUS
 10
-2587.9972822038
 20
2425.58801427254
  0
VERTEX
  8
52
 62
7
  6
CONTINUOUS
 10
-2594.83288474993
 20
2417.76743764218
  0
VERTEX
  8
52
 62
7
  6
CONTINUOUS
 10
-2601.97431104049
 20
2407.27997821025
  0
VERTEX
  8
52
 62
7
  6
CONTINUOUS
 10
-2607.92227867464
 20
2395.90306058625
  0
VERTEX
  8
52
 62
7
  6
CONTINUOUS
 10
-2612.82892438679
 20
2384.32254322064
  0
SEQEND
  0
POLYLINE
  8
52
 62
7
 66
1
 70
1
  0
VERTEX
  8
52
 62
7
  6
CONTINUOUS
 10
-2740.51843393672
 20
2705.52918236825
  0
VERTEX
  8
52
 62
7
  6
CONTINUOUS
 10
-2738.67071793027
 20
2688.63747185097
  0
VERTEX
  8
52
 62
7
  6
CONTINUOUS
 10
-2720.92009730397
 20
2678.26745725208
  0
VERTEX
  8
52
 62
7
  6
CONTINUOUS
 10
-2706.51910762839
 20
2676.15372906622
  0
VERTEX
  8
52
 62
7
  6
CONTINUOUS
 10
-2685.84341165007
 20
2676.3997924166
  0
VERTEX
  8
52
 62
7
  6
CONTINUOUS
 10
-2659.09624835471
 20
2678.904125312
  0
VERTEX
  8
52
 62
7
  6
CONTINUOUS
 10
-2631.33247087406
 20
2683.00826808307
  0
VERTEX
  8
52
 62
7
  6
CONTINUOUS
 10
-2604.00147812785
 20
2684.54717679588
  0
VERTEX
  8
52
 62
7
  6
CONTINUOUS
 10
-2576.01111894733
 20
2683.39343220287
  0
VERTEX
  8
52
 62
7
  6
CONTINUOUS
 10
-2532.86088044868
 20
2672.02306751615
  0
VERTEX
  8
52
 62
7
  6
CONTINUOUS
 10
-2518.23312382017
 20
2665.13405193066
  0
VERTEX
  8
52
 62
7
  6
CONTINUOUS
 10
-2474.85630362164
 20
2648.50579987987
  0
VERTEX
  8
52
 62
7
  6
CONTINUOUS
 10
-2452.65860653858
 20
2643.54427860423
  0
VERTEX
  8
52
 62
7
  6
CONTINUOUS
 10
-2428.96050578617
 20
2643.28118172291
  0
VERTEX
  8
52
 62
7
  6
CONTINUOUS
 10
-2404.82749476428
 20
2651.12051849188
  0
VERTEX
  8
52
 62
7
  6
CONTINUOUS
 10
-2392.98660081221
 20
2662.82537405424
  0
VERTEX
  8
52
 62
7
  6
CONTINUOUS
 10
-2388.22889378173
 20
2683.42294925648
  0
VERTEX
  8
52
 62
7
  6
CONTINUOUS
 10
-2471.2359129924
 20
2750.07901762358
  0
VERTEX
  8
52
 62
7
  6
CONTINUOUS
 10
-2482.71481086519
 20
2755.03642433135
  0
VERTEX
  8
52
 62
7
  6
CONTINUOUS
 10
-2500.9244742382
 20
2760.60601478683
  0
VERTEX
  8
52
 62
7
  6
CONTINUOUS
 10
-2553.0425696036
 20
2767.66182159845
  0
VERTEX
  8
52
 62
7
  6
CONTINUOUS
 10
-2579.25518241929
 20
2768.15448372885
  0
VERTEX
  8
52
 62
7
  6
CONTINUOUS
 10
-2608.97369698831
 20
2766.81969151619
  0
VERTEX
  8
52
 62
7
  6
CONTINUOUS
 10
-2638.64238657715
 20
2762.94487999034
  0
VERTEX
  8
52
 62
7
  6
CONTINUOUS
 10
-2693.58937839147
 20
2745.26217089253
  0
VERTEX
  8
52
 62
7
  6
CONTINUOUS
 10
-2716.22511554564
 20
2733.96785911857
  0
VERTEX
  8
52
 62
7
  6
CONTINUOUS
 10
-2732.10537946287
 20
2720.25795397962
  0
SEQEND
  0
POLYLINE
  8
52
 62
7
 66
1
 70
1
  0
VERTEX
  8
52
 62
7
  6
CONTINUOUS
 10
-2376.88916549652
 20
2523.9020817287
  0
VERTEX
  8
52
 62
7
  6
CONTINUOUS
 10
-2375.65001592811
 20
2509.70300501691
  0
VERTEX
  8
52
 62
7
  6
CONTINUOUS
 10
-2366.63749191626
 20
2498.04094456878
  0
VERTEX
  8
52
 62
7
  6
CONTINUOUS
 10
-2354.82944708518
 20
2490.34021131103
  0
VERTEX
  8
52
 62
7
  6
CONTINUOUS
 10
-2341.21688111847
 20
2485.55978557665
  0
VERTEX
  8
52
 62
7
  6
CONTINUOUS
 10
-2325.59606752241
 20
2485.0711892633
  0
VERTEX
  8
52
 62
7
  6
CONTINUOUS
 10
-2290.61999709479
 20
2485.76896323946
  0
VERTEX
  8
52
 62
7
  6
CONTINUOUS
 10
-2273.19607613643
 20
2484.51767472084
  0
VERTEX
  8
52
 62
7
  6
CONTINUOUS
 10
-2254.63000352627
 20
2481.05614760779
  0
VERTEX
  8
52
 62
7
  6
CONTINUOUS
 10
-2236.39611992459
 20
2472.41314762859
  0
VERTEX
  8
52
 62
7
  6
CONTINUOUS
 10
-2223.62358692636
 20
2462.85784400134
  0
VERTEX
  8
52
 62
7
  6
CONTINUOUS
 10
-2214.28076543723
 20
2451.44965678241
  0
VERTEX
  8
52
 62
7
  6
CONTINUOUS
 10
-2209.53602612064
 20
2438.26523447357
  0
VERTEX
  8
52
 62
7
  6
CONTINUOUS
 10
-2209.05842798869
 20
2425.23485018053
  0
VERTEX
  8
52
 62
7
  6
CONTINUOUS
 10
-2212.92432703835
 20
2411.9521331837
  0
VERTEX
  8
52
 62
7
  6
CONTINUOUS
 10
-2233.61634478586
 20
2369.18647296599
  0
VERTEX
  8
52
 62
7
  6
CONTINUOUS
 10
-2239.51604746556
 20
2351.20553632823
  0
VERTEX
  8
52
 62
7
  6
CONTINUOUS
 10
-2240.05598978417
 20
2334.1623423373
  0
VERTEX
  8
52
 62
7
  6
CONTINUOUS
 10
-2234.24471380052
 20
2320.29171057224
  0
VERTEX
  8
52
 62
7
  6
CONTINUOUS
 10
-2219.23816073643
 20
2307.66214915727
  0
VERTEX
  8
52
 62
7
  6
CONTINUOUS
 10
-2198.4894823168
 20
2299.52618387472
  0
VERTEX
  8
52
 62
7
  6
CONTINUOUS
 10
-2170.09231365947
 20
2299.43908320055
  0
VERTEX
  8
52
 62
7
  6
CONTINUOUS
 10
-2144.15548351353
 20
2308.36992762763
  0
VERTEX
  8
52
 62
7
  6
CONTINUOUS
 10
-2121.08509934422
 20
2327.08087310241
  0
VERTEX
  8
52
 62
7
  6
CONTINUOUS
 10
-2104.08270168454
 20
2352.6013483641
  0
VERTEX
  8
52
 62
7
  6
CONTINUOUS
 10
-2093.75758823462
 20
2385.71898735854
  0
VERTEX
  8
52
 62
7
  6
CONTINUOUS
 10
-2090.41429571764
 20
2427.11970703714
  0
VERTEX
  8
52
 62
7
  6
CONTINUOUS
 10
-2092.48084204611
 20
2469.46230343076
  0
VERTEX
  8
52
 62
7
  6
CONTINUOUS
 10
-2264.42919704725
 20
2560.7905150458
  0
VERTEX
  8
52
 62
7
  6
CONTINUOUS
 10
-2277.50942582079
 20
2562.80213623078
  0
VERTEX
  8
52
 62
7
  6
CONTINUOUS
 10
-2319.26616473011
 20
2565.05336533048
  0
VERTEX
  8
52
 62
7
  6
CONTINUOUS
 10
-2339.02868929605
 20
2561.6065512101
  0
VERTEX
  8
52
 62
7
  6
CONTINUOUS
 10
-2354.88198343927
 20
2551.98603601969
  0
VERTEX
  8
52
 62
7
  6
CONTINUOUS
 10
-2367.73901381874
 20
2539.92597048997
  0
SEQEND
  0
POLYLINE
  8
52
 62
7
 66
1
 70
1
  0
VERTEX
  8
52
 62
7
  6
CONTINUOUS
 10
-2137.34542017232
 20
2265.84895350001
  0
VERTEX
  8
52
 62
7
  6
CONTINUOUS
 10
-2132.85542184924
 20
2250.73422883501
  0
VERTEX
  8
52
 62
7
  6
CONTINUOUS
 10
-2118.25578551372
 20
2236.7586235218
  0
VERTEX
  8
52
 62
7
  6
CONTINUOUS
 10
-2113.6342826257
 20
2233.37864924142
  0
VERTEX
  8
52
 62
7
  6
CONTINUOUS
 10
-2084.09852112528
 20
2221.81031065587
  0
VERTEX
  8
52
 62
7
  6
CONTINUOUS
 10
-2059.56393646293
 20
2217.0764923486
  0
VERTEX
  8
52
 62
7
  6
CONTINUOUS
 10
-2038.86383500289
 20
2214.7317461397
  0
VERTEX
  8
52
 62
7
  6
CONTINUOUS
 10
-1987.02361859182
 20
2211.63844628791
  0
VERTEX
  8
52
 62
7
  6
CONTINUOUS
 10
-1958.50265774676
 20
2203.19469747861
  0
VERTEX
  8
52
 62
7
  6
CONTINUOUS
 10
-1950.02091090235
 20
2198.36544128046
  0
VERTEX
  8
52
 62
7
  6
CONTINUOUS
 10
-1937.1977924114
 20
2188.25131819405
  0
VERTEX
  8
52
 62
7
  6
CONTINUOUS
 10
-1930.41913246284
 20
2180.0699155037
  0
VERTEX
  8
52
 62
7
  6
CONTINUOUS
 10
-1911.95944717415
 20
2164.13702831014
  0
VERTEX
  8
52
 62
7
  6
CONTINUOUS
 10
-1903.73319208564
 20
2155.42166989991
  0
VERTEX
  8
52
 62
7
  6
CONTINUOUS
 10
-1863.71488523433
 20
2123.91030596697
  0
VERTEX
  8
52
 62
7
  6
CONTINUOUS
 10
-1849.36933663155
 20
2109.7061981722
  0
VERTEX
  8
52
 62
7
  6
CONTINUOUS
 10
-1823.57561374192
 20
2076.6762944416
  0
VERTEX
  8
52
 62
7
  6
CONTINUOUS
 10
-1811.21299077163
 20
2057.97714749061
  0
VERTEX
  8
52
 62
7
  6
CONTINUOUS
 10
-1806.82204764909
 20
2049.49186133783
  0
VERTEX
  8
52
 62
7
  6
CONTINUOUS
 10
-1801.62329666877
 20
2028.00146413804
  0
VERTEX
  8
52
 62
7
  6
CONTINUOUS
 10
-1800.33927520188
 20
1998.35916906373
  0
VERTEX
  8
52
 62
7
  6
CONTINUOUS
 10
-1802.40039961173
 20
1988.65715954162
  0
VERTEX
  8
52
 62
7
  6
CONTINUOUS
 10
-1805.40097294655
 20
1979.86991070809
  0
VERTEX
  8
52
 62
7
  6
CONTINUOUS
 10
-1813.91617342192
 20
1963.71877820215
  0
VERTEX
  8
52
 62
7
  6
CONTINUOUS
 10
-1816.07818606255
 20
1955.87100754407
  0
VERTEX
  8
52
 62
7
  6
CONTINUOUS
 10
-1816.08097460854
 20
1948.60660807928
  0
VERTEX
  8
52
 62
7
  6
CONTINUOUS
 10
-1810.80140205761
 20
1939.15578074199
  0
VERTEX
  8
52
 62
7
  6
CONTINUOUS
 10
-1799.96015618179
 20
1927.28981829725
  0
VERTEX
  8
52
 62
7
  6
CONTINUOUS
 10
-1782.74210675252
 20
1919.07900829267
  0
VERTEX
  8
52
 62
7
  6
CONTINUOUS
 10
-1759.70610247944
 20
1914.39656524114
  0
VERTEX
  8
52
 62
7
  6
CONTINUOUS
 10
-1736.84492439422
 20
1917.46118986997
  0
VERTEX
  8
52
 62
7
  6
CONTINUOUS
 10
-1719.00919212655
 20
1930.30674431017
  0
VERTEX
  8
52
 62
7
  6
CONTINUOUS
 10
-1708.73692620665
 20
1958.09040319792
  0
VERTEX
  8
52
 62
7
  6
CONTINUOUS
 10
-1709.2842502262
 20
1987.98641549885
  0
VERTEX
  8
52
 62
7
  6
CONTINUOUS
 10
-1716.81331717741
 20
2026.36870846897
  0
VERTEX
  8
52
 62
7
  6
CONTINUOUS
 10
-1730.08067767096
 20
2070.23960457122
  0
VERTEX
  8
52
 62
7
  6
CONTINUOUS
 10
-1891.28966145171
 20
2281.32470254505
  0
VERTEX
  8
52
 62
7
  6
CONTINUOUS
 10
-1895.37733537195
 20
2285.82207198971
  0
VERTEX
  8
52
 62
7
  6
CONTINUOUS
 10
-1908.2274041366
 20
2291.89760512382
  0
VERTEX
  8
52
 62
7
  6
CONTINUOUS
 10
-1927.072623222
 20
2296.01963943999
  0
VERTEX
  8
52
 62
7
  6
CONTINUOUS
 10
-1955.87453432204
 20
2300.4248957986
  0
VERTEX
  8
52
 62
7
  6
CONTINUOUS
 10
-1984.67701093141
 20
2303.35695226576
  0
VERTEX
  8
52
 62
7
  6
CONTINUOUS
 10
-2046.34819663757
 20
2303.40602565435
  0
VERTEX
  8
52
 62
7
  6
CONTINUOUS
 10
-2093.74744019255
 20
2296.00742000087
  0
VERTEX
  8
52
 62
7
  6
CONTINUOUS
 10
-2112.57065233577
 20
2291.29024521811
  0
VERTEX
  8
52
 62
7
  6
CONTINUOUS
 10
-2127.30568355039
 20
2283.39650089337
  0
VERTEX
  8
52
 62
7
  6
CONTINUOUS
 10
-2136.12266145345
 20
2275.11948480924
  0
SEQEND
  0
POLYLINE
  8
52
 62
7
 66
1
 70
1
  0
VERTEX
  8
52
 62
7
  6
CONTINUOUS
 10
-2014.21724692645
 20
2237.09968683503
  0
VERTEX
  8
52
 62
7
  6
CONTINUOUS
 10
-2011.94010999105
 20
2214.01021102163
  0
VERTEX
  8
52
 62
7
  6
CONTINUOUS
 10
-2008.21530966457
 20
2190.56457947527
  0
VERTEX
  8
52
 62
7
  6
CONTINUOUS
 10
-1999.13167524228
 20
2165.64369075351
  0
VERTEX
  8
52
 62
7
  6
CONTINUOUS
 10
-1993.47229223904
 20
2153.09391739211
  0
VERTEX
  8
52
 62
7
  6
CONTINUOUS
 10
-1982.70855287915
 20
2137.82438444862
  0
VERTEX
  8
52
 62
7
  6
CONTINUOUS
 10
-1974.78722452027
 20
2128.77894306465
  0
VERTEX
  8
52
 62
7
  6
CONTINUOUS
 10
-1961.76186156005
 20
2116.17554216035
  0
VERTEX
  8
52
 62
7
  6
CONTINUOUS
 10
-1947.97356264053
 20
2106.01024857158
  0
VERTEX
  8
52
 62
7
  6
CONTINUOUS
 10
-1933.01595704213
 20
2098.20670630137
  0
VERTEX
  8
52
 62
7
  6
CONTINUOUS
 10
-1916.43227380563
 20
2091.64713992917
  0
VERTEX
  8
52
 62
7
  6
CONTINUOUS
 10
-1897.81514769503
 20
2088.84599326714
  0
VERTEX
  8
52
 62
7
  6
CONTINUOUS
 10
-1878.74024635863
 20
2087.54327099181
  0
VERTEX
  8
52
 62
7
  6
CONTINUOUS
 10
-1855.47320456219
 20
2089.21073972099
  0
VERTEX
  8
52
 62
7
  6
CONTINUOUS
 10
-1840.38374339307
 20
2094.05634776804
  0
VERTEX
  8
52
 62
7
  6
CONTINUOUS
 10
-1824.53034199809
 20
2103.95626293786
  0
VERTEX
  8
52
 62
7
  6
CONTINUOUS
 10
-1813.2733164975
 20
2116.52494269029
  0
VERTEX
  8
52
 62
7
  6
CONTINUOUS
 10
-1806.84086711788
 20
2132.80387470005
  0
VERTEX
  8
52
 62
7
  6
CONTINUOUS
 10
-1959.1261825899
 20
2299.25774390527
  0
VERTEX
  8
52
 62
7
  6
CONTINUOUS
 10
-1968.80107608558
 20
2305.7892582356
  0
VERTEX
  8
52
 62
7
  6
CONTINUOUS
 10
-1980.05264149611
 20
2307.4445774352
  0
VERTEX
  8
52
 62
7
  6
CONTINUOUS
 10
-1993.13473255037
 20
2304.60479897761
  0
VERTEX
  8
52
 62
7
  6
CONTINUOUS
 10
-2006.88209863637
 20
2289.06527495989
  0
VERTEX
  8
52
 62
7
  6
CONTINUOUS
 10
-2013.62479833344
 20
2258.58786099815
  0
SEQEND
  0
POLYLINE
  8
53
 62
7
 66
1
 70
1
  0
VERTEX
  8
53
 62
7
  6
CONTINUOUS
 10
-2669.05008025541
 20
2421.96152730518
  0
VERTEX
  8
53
 62
7
  6
CONTINUOUS
 10
-2665.85006074748
 20
2420.9696988579
  0
VERTEX
  8
53
 62
7
  6
CONTINUOUS
 10
-2656.22220368598
 20
2424.24260330554
  0
VERTEX
  8
53
 62
7
  6
CONTINUOUS
 10
-2639.78508009192
 20
2432.89769431336
  0
VERTEX
  8
53
 62
7
  6
CONTINUOUS
 10
-2587.55179300983
 20
2461.2494458924
  0
VERTEX
  8
53
 62
7
  6
CONTINUOUS
 10
-2561.02738935129
 20
2478.9684654183
  0
VERTEX
  8
53
 62
7
  6
CONTINUOUS
 10
-2596.58667496963
 20
2480.83631550683
  0
VERTEX
  8
53
 62
7
  6
CONTINUOUS
 10
-2600.49949345154
 20
2477.66281726551
  0
VERTEX
  8
53
 62
7
  6
CONTINUOUS
 10
-2618.15638246511
 20
2467.53499437396
  0
VERTEX
  8
53
 62
7
  6
CONTINUOUS
 10
-2638.20295783717
 20
2451.97248839799
  0
VERTEX
  8
53
 62
7
  6
CONTINUOUS
 10
-2651.18562318478
 20
2443.46847135708
  0
VERTEX
  8
53
 62
7
  6
CONTINUOUS
 10
-2666.50680438852
 20
2430.49495166032
  0
SEQEND
  0
POLYLINE
  8
53
 62
7
 66
1
 70
1
  0
VERTEX
  8
53
 62
7
  6
CONTINUOUS
 10
-2150.34345301454
 20
1804.1060658179
  0
VERTEX
  8
53
 62
7
  6
CONTINUOUS
 10
-2148.87282716554
 20
1797.39990080262
  0
VERTEX
  8
53
 62
7
  6
CONTINUOUS
 10
-2144.65872851413
 20
1791.40388271756
  0
VERTEX
  8
53
 62
7
  6
CONTINUOUS
 10
-2137.59955706783
 20
1786.1179725621
  0
VERTEX
  8
53
 62
7
  6
CONTINUOUS
 10
-2128.17706452706
 20
1783.75215542648
  0
VERTEX
  8
53
 62
7
  6
CONTINUOUS
 10
-2115.75678719747
 20
1782.9091876596
  0
VERTEX
  8
53
 62
7
  6
CONTINUOUS
 10
-2100.7195202976
 20
1784.12261547457
  0
VERTEX
  8
53
 62
7
  6
CONTINUOUS
 10
-2083.11535206197
 20
1789.24665823511
  0
VERTEX
  8
53
 62
7
  6
CONTINUOUS
 10
-2066.22123325497
 20
1797.36817377933
  0
VERTEX
  8
53
 62
7
  6
CONTINUOUS
 10
-2054.00035334769
 20
1806.43128328389
  0
VERTEX
  8
53
 62
7
  6
CONTINUOUS
 10
-2093.46141051574
 20
1833.90383301085
  0
VERTEX
  8
53
 62
7
  6
CONTINUOUS
 10
-2097.27026946622
 20
1836.87709531602
  0
VERTEX
  8
53
 62
7
  6
CONTINUOUS
 10
-2101.33414241471
 20
1837.20885531742
  0
VERTEX
  8
53
 62
7
  6
CONTINUOUS
 10
-2113.5770682648
 20
1836.88335491926
  0
VERTEX
  8
53
 62
7
  6
CONTINUOUS
 10
-2118.30190667396
 20
1835.74216853339
  0
VERTEX
  8
53
 62
7
  6
CONTINUOUS
 10
-2124.06829125881
 20
1834.22038193217
  0
VERTEX
  8
53
 62
7
  6
CONTINUOUS
 10
-2142.00565276948
 20
1821.29866649824
  0
VERTEX
  8
53
 62
7
  6
CONTINUOUS
 10
-2149.22349355796
 20
1810.25243635795
  0
SEQEND
  0
POLYLINE
  8
53
 62
7
 66
1
 70
1
  0
VERTEX
  8
53
 62
7
  6
CONTINUOUS
 10
-2306.13098799593
 20
2243.00169947364
  0
VERTEX
  8
53
 62
7
  6
CONTINUOUS
 10
-2304.66062540127
 20
2235.60973450888
  0
VERTEX
  8
53
 62
7
  6
CONTINUOUS
 10
-2294.80631339199
 20
2233.29455161678
  0
VERTEX
  8
53
 62
7
  6
CONTINUOUS
 10
-2275.14467705683
 20
2238.59560460119
  0
VERTEX
  8
53
 62
7
  6
CONTINUOUS
 10
-2252.91647089137
 20
2246.9436725948
  0
VERTEX
  8
53
 62
7
  6
CONTINUOUS
 10
-2225.88485703328
 20
2262.60509726905
  0
VERTEX
  8
53
 62
7
  6
CONTINUOUS
 10
-2197.93765372295
 20
2281.36497070922
  0
VERTEX
  8
53
 62
7
  6
CONTINUOUS
 10
-2282.52497107909
 20
2267.5290397665
  0
VERTEX
  8
53
 62
7
  6
CONTINUOUS
 10
-2286.61503378873
 20
2265.80340966964
  0
VERTEX
  8
53
 62
7
  6
CONTINUOUS
 10
-2295.2027486977
 20
2259.25350570681
  0
VERTEX
  8
53
 62
7
  6
CONTINUOUS
 10
-2301.91084424483
 20
2252.75368022834
  0
SEQEND
  0
POLYLINE
  8
54
 62
7
 66
1
 70
1
  0
VERTEX
  8
54
 62
7
  6
CONTINUOUS
 10
-1934.22219296722
 20
1917.28171285541
  0
VERTEX
  8
54
 62
7
  6
CONTINUOUS
 10
-1932.36975788293
 20
1912.68360143239
  0
VERTEX
  8
54
 62
7
  6
CONTINUOUS
 10
-1928.94191840471
 20
1909.65968538337
  0
VERTEX
  8
54
 62
7
  6
CONTINUOUS
 10
-1924.52327424608
 20
1907.16878903879
  0
VERTEX
  8
54
 62
7
  6
CONTINUOUS
 10
-1918.60505518179
 20
1907.21731724757
  0
VERTEX
  8
54
 62
7
  6
CONTINUOUS
 10
-1901.58280536549
 20
1918.28518382391
  0
VERTEX
  8
54
 62
7
  6
CONTINUOUS
 10
-1893.04539319458
 20
1926.13050719162
  0
VERTEX
  8
54
 62
7
  6
CONTINUOUS
 10
-1886.7682883523
 20
1934.73869826751
  0
VERTEX
  8
54
 62
7
  6
CONTINUOUS
 10
-1880.38837449755
 20
1946.4964501107
  0
VERTEX
  8
54
 62
7
  6
CONTINUOUS
 10
-1880.02894271055
 20
1956.478512873
  0
VERTEX
  8
54
 62
7
  6
CONTINUOUS
 10
-1886.90932940372
 20
1964.32975458833
  0
VERTEX
  8
54
 62
7
  6
CONTINUOUS
 10
-1898.94754399385
 20
1967.94117589882
  0
VERTEX
  8
54
 62
7
  6
CONTINUOUS
 10
-1914.70303095711
 20
1948.44002243573
  0
VERTEX
  8
54
 62
7
  6
CONTINUOUS
 10
-1931.44745056988
 20
1933.28264890892
  0
VERTEX
  8
54
 62
7
  6
CONTINUOUS
 10
-1933.60878069925
 20
1927.21287811985
  0
SEQEND
  0
POLYLINE
  8
54
 62
7
 66
1
 70
1
  0
VERTEX
  8
54
 62
7
  6
CONTINUOUS
 10
-1819.91456079605
 20
1953.33248000549
  0
VERTEX
  8
54
 62
7
  6
CONTINUOUS
 10
-1818.72276941714
 20
1948.09962213344
  0
VERTEX
  8
54
 62
7
  6
CONTINUOUS
 10
-1808.38714446464
 20
1942.4314542353
  0
VERTEX
  8
54
 62
7
  6
CONTINUOUS
 10
-1794.92567196516
 20
1941.05468675112
  0
VERTEX
  8
54
 62
7
  6
CONTINUOUS
 10
-1776.91584477169
 20
1944.24817365131
  0
VERTEX
  8
54
 62
7
  6
CONTINUOUS
 10
-1762.66343302184
 20
1952.09130323284
  0
VERTEX
  8
54
 62
7
  6
CONTINUOUS
 10
-1756.71552388866
 20
1963.31582086807
  0
VERTEX
  8
54
 62
7
  6
CONTINUOUS
 10
-1759.37841887447
 20
1974.0102438471
  0
VERTEX
  8
54
 62
7
  6
CONTINUOUS
 10
-1770.29706401446
 20
1982.7520357725
  0
VERTEX
  8
54
 62
7
  6
CONTINUOUS
 10
-1789.27360241173
 20
1975.62191966849
  0
VERTEX
  8
54
 62
7
  6
CONTINUOUS
 10
-1795.7003186968
 20
1974.27818655836
  0
VERTEX
  8
54
 62
7
  6
CONTINUOUS
 10
-1802.81364419468
 20
1970.82651685789
  0
VERTEX
  8
54
 62
7
  6
CONTINUOUS
 10
-1809.72454972041
 20
1965.34276930585
  0
VERTEX
  8
54
 62
7
  6
CONTINUOUS
 10
-1816.83822622408
 20
1960.97669967275
  0
SEQEND
  0
POLYLINE
  8
11
 62
7
 66
1
 70
1
  0
VERTEX
  8
11
 62
7
  6
CONTINUOUS
 10
-2264.72149808276
 20
2306.63427381728
  0
VERTEX
  8
11
 62
7
  6
CONTINUOUS
 10
-2259.61800034659
 20
2308.4546449907
  0
VERTEX
  8
11
 62
7
  6
CONTINUOUS
 10
-2261.10934703556
 20
2302.65860722837
  0
SEQEND
  0
POLYLINE
  8
1
 62
7
 66
1
 70
1
  0
VERTEX
  8
1
 62
7
  6
CONTINUOUS
 10
-3563.12926207536
 20
2719.79083399237
  0
VERTEX
  8
1
 62
7
  6
CONTINUOUS
 10
-3537.11792785721
 20
2665.10721096885
  0
VERTEX
  8
1
 62
7
  6
CONTINUOUS
 10
-3537.84004793113
 20
2659.36027987968
  0
VERTEX
  8
1
 62
7
  6
CONTINUOUS
 10
-3515.5855725753
 20
2614.99387623313
  0
VERTEX
  8
1
 62
7
  6
CONTINUOUS
 10
-3515.12979634066
 20
2604.69860852231
  0
VERTEX
  8
1
 62
7
  6
CONTINUOUS
 10
-3503.4859775032
 20
2605.84356333993
  0
VERTEX
  8
1
 62
7
  6
CONTINUOUS
 10
-3511.58697261556
 20
2599.16547826228
  0
VERTEX
  8
1
 62
7
  6
CONTINUOUS
 10
-3496.69121729833
 20
2566.97340029912
  0
VERTEX
  8
1
 62
7
  6
CONTINUOUS
 10
-3485.08844158861
 20
2568.25277057944
  0
VERTEX
  8
1
 62
7
  6
CONTINUOUS
 10
-3492.43538464419
 20
2561.44541056295
  0
VERTEX
  8
1
 62
7
  6
CONTINUOUS
 10
-3489.088112859
 20
2549.05178399843
  0
VERTEX
  8
1
 62
7
  6
CONTINUOUS
 10
-3483.60049399797
 20
2541.41398506206
  0
VERTEX
  8
1
 62
7
  6
CONTINUOUS
 10
-3483.84297043816
 20
2534.33866339277
  0
VERTEX
  8
1
 62
7
  6
CONTINUOUS
 10
-3477.23127682457
 20
2533.3885088667
  0
VERTEX
  8
1
 62
7
  6
CONTINUOUS
 10
-3480.37209888061
 20
2528.42781519791
  0
VERTEX
  8
1
 62
7
  6
CONTINUOUS
 10
-3465.01855521002
 20
2527.23288141611
  0
VERTEX
  8
1
 62
7
  6
CONTINUOUS
 10
-3472.40779720472
 20
2521.76925925204
  0
VERTEX
  8
1
 62
7
  6
CONTINUOUS
 10
-3470.9897920392
 20
2507.73853139151
  0
VERTEX
  8
1
 62
7
  6
CONTINUOUS
 10
-3458.01289985208
 20
2510.08158252226
  0
VERTEX
  8
1
 62
7
  6
CONTINUOUS
 10
-3466.75796536805
 20
2498.78474186814
  0
VERTEX
  8
1
 62
7
  6
CONTINUOUS
 10
-3453.02772659501
 20
2500.91634217713
  0
VERTEX
  8
1
 62
7
  6
CONTINUOUS
 10
-3463.89861208369
 20
2493.14824311251
  0
VERTEX
  8
1
 62
7
  6
CONTINUOUS
 10
-3440.86502108127
 20
2442.95875073203
  0
VERTEX
  8
1
 62
7
  6
CONTINUOUS
 10
-3438.73498991942
 20
2441.142344283
  0
VERTEX
  8
1
 62
7
  6
CONTINUOUS
 10
-3421.12649742527
 20
2389.13735348478
  0
VERTEX
  8
1
 62
7
  6
CONTINUOUS
 10
-3408.24059883001
 20
2358.03416785955
  0
VERTEX
  8
1
 62
7
  6
CONTINUOUS
 10
-3398.69737470908
 20
2355.00310602422
  0
VERTEX
  8
1
 62
7
  6
CONTINUOUS
 10
-3401.88344918863
 20
2344.5299450276
  0
VERTEX
  8
1
 62
7
  6
CONTINUOUS
 10
-3402.30881999139
 20
2334.31438546663
  0
VERTEX
  8
1
 62
7
  6
CONTINUOUS
 10
-3389.07551246061
 20
2335.44007001008
  0
VERTEX
  8
1
 62
7
  6
CONTINUOUS
 10
-3397.61232039103
 20
2325.259019333
  0
VERTEX
  8
1
 62
7
  6
CONTINUOUS
 10
-3364.49346320289
 20
2241.95272786824
  0
VERTEX
  8
1
 62
7
  6
CONTINUOUS
 10
-3350.71322977336
 20
2239.48779537886
  0
VERTEX
  8
1
 62
7
  6
CONTINUOUS
 10
-3359.80074343242
 20
2233.42941307742
  0
VERTEX
  8
1
 62
7
  6
CONTINUOUS
 10
-3352.29608885592
 20
2206.68520256041
  0
VERTEX
  8
1
 62
7
  6
CONTINUOUS
 10
-3349.11421964838
 20
2204.31141400014
  0
VERTEX
  8
1
 62
7
  6
CONTINUOUS
 10
-3344.31199820713
 20
2185.90413685129
  0
VERTEX
  8
1
 62
7
  6
CONTINUOUS
 10
-3337.91610829285
 20
2177.91271535133
  0
VERTEX
  8
1
 62
7
  6
CONTINUOUS
 10
-3329.12269263682
 20
2149.92778684414
  0
VERTEX
  8
1
 62
7
  6
CONTINUOUS
 10
-3301.44774537192
 20
2076.81472454907
  0
VERTEX
  8
1
 62
7
  6
CONTINUOUS
 10
-3292.32310761272
 20
2074.72833208191
  0
VERTEX
  8
1
 62
7
  6
CONTINUOUS
 10
-3298.11120037005
 20
2066.77980301337
  0
VERTEX
  8
1
 62
7
  6
CONTINUOUS
 10
-3280.31910680676
 20
2016.71480613727
  0
VERTEX
  8
1
 62
7
  6
CONTINUOUS
 10
-3280.3255680294
 20
1959.1080608811
  0
VERTEX
  8
1
 62
7
  6
CONTINUOUS
 10
-3301.93983713995
 20
1941.10631389759
  0
VERTEX
  8
1
 62
7
  6
CONTINUOUS
 10
-3347.88959457772
 20
1915.58137029527
  0
VERTEX
  8
1
 62
7
  6
CONTINUOUS
 10
-3391.84948833839
 20
1899.09825035505
  0
VERTEX
  8
1
 62
7
  6
CONTINUOUS
 10
-3455.74891477103
 20
1864.93350533689
  0
VERTEX
  8
1
 62
7
  6
CONTINUOUS
 10
-3453.00560554454
 20
1860.43713193416
  0
VERTEX
  8
1
 62
7
  6
CONTINUOUS
 10
-3422.49671173779
 20
1824.25592633923
  0
VERTEX
  8
1
 62
7
  6
CONTINUOUS
 10
-3412.32123520381
 20
1797.13061228834
  0
VERTEX
  8
1
 62
7
  6
CONTINUOUS
 10
-3414.58204753633
 20
1778.96275362936
  0
VERTEX
  8
1
 62
7
  6
CONTINUOUS
 10
-3431.06671459213
 20
1760.82450486254
  0
VERTEX
  8
1
 62
7
  6
CONTINUOUS
 10
-3416.32237040187
 20
1672.35001482478
  0
VERTEX
  8
1
 62
7
  6
CONTINUOUS
 10
-3416.30121571636
 20
1605.99292912893
  0
VERTEX
  8
1
 62
7
  6
CONTINUOUS
 10
-3375.47785134843
 20
1608.31902898598
  0
VERTEX
  8
1
 62
7
  6
CONTINUOUS
 10
-3340.44708020903
 20
1604.27797274967
  0
VERTEX
  8
1
 62
7
  6
CONTINUOUS
 10
-3337.17320459027
 20
1607.50984862127
  0
VERTEX
  8
1
 62
7
  6
CONTINUOUS
 10
-3327.38319850107
 20
1603.52705864733
  0
VERTEX
  8
1
 62
7
  6
CONTINUOUS
 10
-3321.04215293038
 20
1606.73920290339
  0
VERTEX
  8
1
 62
7
  6
CONTINUOUS
 10
-3239.49803995219
 20
1606.66715988536
  0
VERTEX
  8
1
 62
7
  6
CONTINUOUS
 10
-3234.05796445377
 20
1609.18183261203
  0
VERTEX
  8
1
 62
7
  6
CONTINUOUS
 10
-3230.11858745526
 20
1598.56801225948
  0
VERTEX
  8
1
 62
7
  6
CONTINUOUS
 10
-3219.29411429558
 20
1594.29639021896
  0
VERTEX
  8
1
 62
7
  6
CONTINUOUS
 10
-3209.92560979337
 20
1575.53776802573
  0
VERTEX
  8
1
 62
7
  6
CONTINUOUS
 10
-3205.8430012835
 20
1549.20043848863
  0
VERTEX
  8
1
 62
7
  6
CONTINUOUS
 10
-3193.86781114406
 20
1544.30640471544
  0
VERTEX
  8
1
 62
7
  6
CONTINUOUS
 10
-3187.78604572918
 20
1543.49127077145
  0
VERTEX
  8
1
 62
7
  6
CONTINUOUS
 10
-3162.75297898746
 20
1553.1186698519
  0
VERTEX
  8
1
 62
7
  6
CONTINUOUS
 10
-3143.83252445189
 20
1547.7548096148
  0
VERTEX
  8
1
 62
7
  6
CONTINUOUS
 10
-3141.22057555698
 20
1538.25450496797
  0
VERTEX
  8
1
 62
7
  6
CONTINUOUS
 10
-3062.73092905448
 20
1528.32227873729
  0
VERTEX
  8
1
 62
7
  6
CONTINUOUS
 10
-3037.93669477796
 20
1521.11760845469
  0
VERTEX
  8
1
 62
7
  6
CONTINUOUS
 10
-3026.68222995557
 20
1528.37512417979
  0
VERTEX
  8
1
 62
7
  6
CONTINUOUS
 10
-3025.1110660812
 20
1535.53829994514
  0
VERTEX
  8
1
 62
7
  6
CONTINUOUS
 10
-3011.76465512934
 20
1551.30352691946
  0
VERTEX
  8
1
 62
7
  6
CONTINUOUS
 10
-3012.34178804385
 20
1553.87413458367
  0
VERTEX
  8
1
 62
7
  6
CONTINUOUS
 10
-3007.87144108383
 20
1555.93407064617
  0
VERTEX
  8
1
 62
7
  6
CONTINUOUS
 10
-2990.08935579503
 20
1568.26956156498
  0
VERTEX
  8
1
 62
7
  6
CONTINUOUS
 10
-2972.30654030875
 20
1569.11641746991
  0
VERTEX
  8
1
 62
7
  6
CONTINUOUS
 10
-2961.11410903121
 20
1561.91762263463
  0
VERTEX
  8
1
 62
7
  6
CONTINUOUS
 10
-2952.30151250904
 20
1560.16354049914
  0
VERTEX
  8
1
 62
7
  6
CONTINUOUS
 10
-2836.21418128213
 20
1464.34078763528
  0
VERTEX
  8
1
 62
7
  6
CONTINUOUS
 10
-2823.46126972133
 20
1486.83081549465
  0
VERTEX
  8
1
 62
7
  6
CONTINUOUS
 10
-2787.55518895927
 20
1554.65650659268
  0
VERTEX
  8
1
 62
7
  6
CONTINUOUS
 10
-2767.2449206041
 20
1591.18206905912
  0
VERTEX
  8
1
 62
7
  6
CONTINUOUS
 10
-2803.55281533079
 20
1604.31386045776
  0
VERTEX
  8
1
 62
7
  6
CONTINUOUS
 10
-2809.17738680916
 20
1599.51101143788
  0
VERTEX
  8
1
 62
7
  6
CONTINUOUS
 10
-2821.84396274505
 20
1605.09176988472
  0
VERTEX
  8
1
 62
7
  6
CONTINUOUS
 10
-2833.12295369574
 20
1608.32510536373
  0
VERTEX
  8
1
 62
7
  6
CONTINUOUS
 10
-2831.5732568363
 20
1614.89637803433
  0
VERTEX
  8
1
 62
7
  6
CONTINUOUS
 10
-2812.56873098774
 20
1628.44879163193
  0
VERTEX
  8
1
 62
7
  6
CONTINUOUS
 10
-2753.3781111795
 20
1629.75849161218
  0
VERTEX
  8
1
 62
7
  6
CONTINUOUS
 10
-2714.74551680642
 20
1623.52212681154
  0
VERTEX
  8
1
 62
7
  6
CONTINUOUS
 10
-2675.68421434259
 20
1623.46362943524
  0
VERTEX
  8
1
 62
7
  6
CONTINUOUS
 10
-2669.8603515323
 20
1632.33687187432
  0
VERTEX
  8
1
 62
7
  6
CONTINUOUS
 10
-2666.62868055179
 20
1630.60645594537
  0
VERTEX
  8
1
 62
7
  6
CONTINUOUS
 10
-2665.6084511586
 20
1625.2053789409
  0
VERTEX
  8
1
 62
7
  6
CONTINUOUS
 10
-2651.91901163377
 20
1618.58684812007
  0
VERTEX
  8
1
 62
7
  6
CONTINUOUS
 10
-2647.47827135169
 20
1628.31670647917
  0
VERTEX
  8
1
 62
7
  6
CONTINUOUS
 10
-2644.92665985628
 20
1618.23596977621
  0
VERTEX
  8
1
 62
7
  6
CONTINUOUS
 10
-2623.06381729124
 20
1620.45092661543
  0
VERTEX
  8
1
 62
7
  6
CONTINUOUS
 10
-2616.87232798423
 20
1614.61109379845
  0
VERTEX
  8
1
 62
7
  6
CONTINUOUS
 10
-2612.26106172096
 20
1626.72152565606
  0
VERTEX
  8
1
 62
7
  6
CONTINUOUS
 10
-2606.98771064421
 20
1613.73970143237
  0
VERTEX
  8
1
 62
7
  6
CONTINUOUS
 10
-2599.94403022495
 20
1617.19805051014
  0
VERTEX
  8
1
 62
7
  6
CONTINUOUS
 10
-2585.11120669298
 20
1615.51838514558
  0
VERTEX
  8
1
 62
7
  6
CONTINUOUS
 10
-2574.81829344972
 20
1612.77145501127
  0
VERTEX
  8
1
 62
7
  6
CONTINUOUS
 10
-2453.08292639732
 20
1610.71629362019
  0
VERTEX
  8
1
 62
7
  6
CONTINUOUS
 10
-2443.52412705173
 20
1609.12034371641
  0
VERTEX
  8
1
 62
7
  6
CONTINUOUS
 10
-2437.12366099401
 20
1609.12039504518
  0
VERTEX
  8
1
 62
7
  6
CONTINUOUS
 10
-2418.74040623468
 20
1605.12725430483
  0
VERTEX
  8
1
 62
7
  6
CONTINUOUS
 10
-2396.36662478667
 20
1593.92429919079
  0
VERTEX
  8
1
 62
7
  6
CONTINUOUS
 10
-2388.36854986088
 20
1596.27870320614
  0
VERTEX
  8
1
 62
7
  6
CONTINUOUS
 10
-2382.33724089725
 20
1609.12602146395
  0
VERTEX
  8
1
 62
7
  6
CONTINUOUS
 10
-2362.9353952906
 20
1609.1334362918
  0
VERTEX
  8
1
 62
7
  6
CONTINUOUS
 10
-2342.15085293259
 20
1620.41248730921
  0
VERTEX
  8
1
 62
7
  6
CONTINUOUS
 10
-2295.27885911373
 20
1640.90722323964
  0
VERTEX
  8
1
 62
7
  6
CONTINUOUS
 10
-2243.99514786804
 20
1674.24033083032
  0
VERTEX
  8
1
 62
7
  6
CONTINUOUS
 10
-2237.13013228901
 20
1681.11172118237
  0
VERTEX
  8
1
 62
7
  6
CONTINUOUS
 10
-2213.89748691651
 20
1696.54409064677
  0
VERTEX
  8
1
 62
7
  6
CONTINUOUS
 10
-2200.33306975915
 20
1704.84753856234
  0
VERTEX
  8
1
 62
7
  6
CONTINUOUS
 10
-2156.89655009783
 20
1729.9026416713
  0
VERTEX
  8
1
 62
7
  6
CONTINUOUS
 10
-2143.41840120909
 20
1738.76580735762
  0
VERTEX
  8
1
 62
7
  6
CONTINUOUS
 10
-2140.26663351633
 20
1739.52737161485
  0
VERTEX
  8
1
 62
7
  6
CONTINUOUS
 10
-2096.98084631553
 20
1769.09453138769
  0
VERTEX
  8
1
 62
7
  6
CONTINUOUS
 10
-2101.14939681251
 20
1782.76502285072
  0
VERTEX
  8
1
 62
7
  6
CONTINUOUS
 10
-2109.19438237282
 20
1812.57200109199
  0
VERTEX
  8
1
 62
7
  6
CONTINUOUS
 10
-2098.11959666503
 20
1835.18698263089
  0
VERTEX
  8
1
 62
7
  6
CONTINUOUS
 10
-2098.1233995434
 20
1841.78798628348
  0
VERTEX
  8
1
 62
7
  6
CONTINUOUS
 10
-2091.60539689979
 20
1839.47209799559
  0
VERTEX
  8
1
 62
7
  6
CONTINUOUS
 10
-2090.02731172819
 20
1849.09300332819
  0
VERTEX
  8
1
 62
7
  6
CONTINUOUS
 10
-2082.68465909025
 20
1840.32583955469
  0
VERTEX
  8
1
 62
7
  6
CONTINUOUS
 10
-2076.73240002455
 20
1855.10969928472
  0
VERTEX
  8
1
 62
7
  6
CONTINUOUS
 10
-2072.20569710412
 20
1847.73492470248
  0
VERTEX
  8
1
 62
7
  6
CONTINUOUS
 10
-2027.4648376845
 20
1842.89016217683
  0
VERTEX
  8
1
 62
7
  6
CONTINUOUS
 10
-2023.44786465403
 20
1854.77323059503
  0
VERTEX
  8
1
 62
7
  6
CONTINUOUS
 10
-2020.26042289803
 20
1854.68763648987
  0
VERTEX
  8
1
 62
7
  6
CONTINUOUS
 10
-2016.77134994599
 20
1848.61141031889
  0
VERTEX
  8
1
 62
7
  6
CONTINUOUS
 10
-2009.56850501514
 20
1847.93346666586
  0
VERTEX
  8
1
 62
7
  6
CONTINUOUS
 10
-2009.01605289462
 20
1860.40558713353
  0
VERTEX
  8
1
 62
7
  6
CONTINUOUS
 10
-1998.42913664526
 20
1857.98936641665
  0
VERTEX
  8
1
 62
7
  6
CONTINUOUS
 10
-1993.05578638903
 20
1861.95455037462
  0
VERTEX
  8
1
 62
7
  6
CONTINUOUS
 10
-1968.48952129192
 20
1870.78565392654
  0
VERTEX
  8
1
 62
7
  6
CONTINUOUS
 10
-1966.91756102225
 20
1877.36025367195
  0
VERTEX
  8
1
 62
7
  6
CONTINUOUS
 10
-1958.68594495151
 20
1876.32696503298
  0
VERTEX
  8
1
 62
7
  6
CONTINUOUS
 10
-1951.21828821124
 20
1880.78501944418
  0
VERTEX
  8
1
 62
7
  6
CONTINUOUS
 10
-1944.29680485608
 20
1873.12018559651
  0
VERTEX
  8
1
 62
7
  6
CONTINUOUS
 10
-1936.45898238721
 20
1882.13905134345
  0
VERTEX
  8
1
 62
7
  6
CONTINUOUS
 10
-1922.80248965428
 20
1877.11998629695
  0
VERTEX
  8
1
 62
7
  6
CONTINUOUS
 10
-1905.93214042112
 20
1883.49205368399
  0
VERTEX
  8
1
 62
7
  6
CONTINUOUS
 10
-1909.86072511245
 20
1893.53036418131
  0
VERTEX
  8
1
 62
7
  6
CONTINUOUS
 10
-1908.29187301197
 20
1894.77215014369
  0
VERTEX
  8
1
 62
7
  6
CONTINUOUS
 10
-1906.8468414652
 20
1901.8496337026
  0
VERTEX
  8
1
 62
7
  6
CONTINUOUS
 10
-1893.82615930431
 20
1897.94429900736
  0
VERTEX
  8
1
 62
7
  6
CONTINUOUS
 10
-1882.11877429475
 20
1909.72520774345
  0
VERTEX
  8
1
 62
7
  6
CONTINUOUS
 10
-1848.2974034644
 20
1930.72669307378
  0
VERTEX
  8
1
 62
7
  6
CONTINUOUS
 10
-1824.11447118877
 20
1943.54061582855
  0
VERTEX
  8
1
 62
7
  6
CONTINUOUS
 10
-1759.40600218732
 20
1951.75503325999
  0
VERTEX
  8
1
 62
7
  6
CONTINUOUS
 10
-1759.47910418276
 20
1961.26484043848
  0
VERTEX
  8
1
 62
7
  6
CONTINUOUS
 10
-1755.93891423915
 20
1966.30921383466
  0
VERTEX
  8
1
 62
7
  6
CONTINUOUS
 10
-1757.17106638995
 20
1971.4249058887
  0
VERTEX
  8
1
 62
7
  6
CONTINUOUS
 10
-1747.31387569702
 20
1975.02688982971
  0
VERTEX
  8
1
 62
7
  6
CONTINUOUS
 10
-1743.9343311046
 20
1980.89241419625
  0
VERTEX
  8
1
 62
7
  6
CONTINUOUS
 10
-1758.72010869
 20
1985.13371420855
  0
VERTEX
  8
1
 62
7
  6
CONTINUOUS
 10
-1744.76122297651
 20
1989.26104227728
  0
VERTEX
  8
1
 62
7
  6
CONTINUOUS
 10
-1747.89443570107
 20
1995.26758008671
  0
VERTEX
  8
1
 62
7
  6
CONTINUOUS
 10
-1757.12436778612
 20
2006.65171948128
  0
VERTEX
  8
1
 62
7
  6
CONTINUOUS
 10
-1744.2897814775
 20
2019.66726049792
  0
VERTEX
  8
1
 62
7
  6
CONTINUOUS
 10
-1748.33473878763
 20
2030.80021813066
  0
VERTEX
  8
1
 62
7
  6
CONTINUOUS
 10
-1748.30534356645
 20
2039.87044097745
  0
VERTEX
  8
1
 62
7
  6
CONTINUOUS
 10
-1762.8538777415
 20
2061.84564988068
  0
VERTEX
  8
1
 62
7
  6
CONTINUOUS
 10
-1768.15743981224
 20
2061.78604011811
  0
VERTEX
  8
1
 62
7
  6
CONTINUOUS
 10
-1770.92398297909
 20
2071.06609997236
  0
VERTEX
  8
1
 62
7
  6
CONTINUOUS
 10
-1774.41482553312
 20
2070.01542884236
  0
VERTEX
  8
1
 62
7
  6
CONTINUOUS
 10
-1777.12303498412
 20
2073.13061304624
  0
VERTEX
  8
1
 62
7
  6
CONTINUOUS
 10
-1775.15974972508
 20
2081.6093658774
  0
VERTEX
  8
1
 62
7
  6
CONTINUOUS
 10
-1785.95776469858
 20
2092.36239964712
  0
VERTEX
  8
1
 62
7
  6
CONTINUOUS
 10
-1793.8831863133
 20
2102.68994427372
  0
VERTEX
  8
1
 62
7
  6
CONTINUOUS
 10
-1809.18517489254
 20
2109.99747948868
  0
VERTEX
  8
1
 62
7
  6
CONTINUOUS
 10
-1809.97706427879
 20
2113.22428905461
  0
VERTEX
  8
1
 62
7
  6
CONTINUOUS
 10
-1816.10312275606
 20
2120.17548307008
  0
VERTEX
  8
1
 62
7
  6
CONTINUOUS
 10
-1824.97428786955
 20
2122.30503958348
  0
VERTEX
  8
1
 62
7
  6
CONTINUOUS
 10
-1821.81874941547
 20
2128.15219194293
  0
VERTEX
  8
1
 62
7
  6
CONTINUOUS
 10
-1831.66246194712
 20
2127.73061341734
  0
VERTEX
  8
1
 62
7
  6
CONTINUOUS
 10
-1825.92409752463
 20
2137.39261804679
  0
VERTEX
  8
1
 62
7
  6
CONTINUOUS
 10
-1832.31714457632
 20
2149.11799661319
  0
VERTEX
  8
1
 62
7
  6
CONTINUOUS
 10
-1837.91801724087
 20
2149.91852235575
  0
VERTEX
  8
1
 62
7
  6
CONTINUOUS
 10
-1842.5928697749
 20
2160.21013224783
  0
VERTEX
  8
1
 62
7
  6
CONTINUOUS
 10
-1851.70462206866
 20
2162.5073622336
  0
VERTEX
  8
1
 62
7
  6
CONTINUOUS
 10
-1847.61298053032
 20
2173.45850824829
  0
VERTEX
  8
1
 62
7
  6
CONTINUOUS
 10
-1853.82310510782
 20
2178.82530751927
  0
VERTEX
  8
1
 62
7
  6
CONTINUOUS
 10
-1874.93686105672
 20
2186.71064226455
  0
VERTEX
  8
1
 62
7
  6
CONTINUOUS
 10
-1881.0832372581
 20
2186.70648610467
  0
VERTEX
  8
1
 62
7
  6
CONTINUOUS
 10
-1885.68775603754
 20
2190.30659911614
  0
VERTEX
  8
1
 62
7
  6
CONTINUOUS
 10
-1888.09488443048
 20
2199.4465293848
  0
VERTEX
  8
1
 62
7
  6
CONTINUOUS
 10
-1896.62849822954
 20
2192.26585387719
  0
VERTEX
  8
1
 62
7
  6
CONTINUOUS
 10
-1901.4729773289
 20
2194.93638687262
  0
VERTEX
  8
1
 62
7
  6
CONTINUOUS
 10
-1905.10604893955
 20
2211.49629160651
  0
VERTEX
  8
1
 62
7
  6
CONTINUOUS
 10
-1916.00106443327
 20
2221.0113675486
  0
VERTEX
  8
1
 62
7
  6
CONTINUOUS
 10
-1969.12749435031
 20
2254.73013460273
  0
VERTEX
  8
1
 62
7
  6
CONTINUOUS
 10
-1991.5996105284
 20
2260.31562933322
  0
VERTEX
  8
1
 62
7
  6
CONTINUOUS
 10
-2009.93436167847
 20
2253.91001391275
  0
VERTEX
  8
1
 62
7
  6
CONTINUOUS
 10
-2021.86990059189
 20
2239.59051046243
  0
VERTEX
  8
1
 62
7
  6
CONTINUOUS
 10
-2027.99372578982
 20
2228.67671567478
  0
VERTEX
  8
1
 62
7
  6
CONTINUOUS
 10
-2038.71915133325
 20
2230.72055267713
  0
VERTEX
  8
1
 62
7
  6
CONTINUOUS
 10
-2040.450872036
 20
2223.41034673172
  0
VERTEX
  8
1
 62
7
  6
CONTINUOUS
 10
-2044.234510468
 20
2223.47289666814
  0
VERTEX
  8
1
 62
7
  6
CONTINUOUS
 10
-2047.24155143039
 20
2228.23091720703
  0
VERTEX
  8
1
 62
7
  6
CONTINUOUS
 10
-2072.10319072725
 20
2242.49207541723
  0
VERTEX
  8
1
 62
7
  6
CONTINUOUS
 10
-2079.21666371771
 20
2241.59904492254
  0
VERTEX
  8
1
 62
7
  6
CONTINUOUS
 10
-2090.21026386897
 20
2241.35856877965
  0
VERTEX
  8
1
 62
7
  6
CONTINUOUS
 10
-2098.74696657089
 20
2243.52127314938
  0
VERTEX
  8
1
 62
7
  6
CONTINUOUS
 10
-2109.67542209482
 20
2241.54572693864
  0
VERTEX
  8
1
 62
7
  6
CONTINUOUS
 10
-2115.57221491952
 20
2249.12336771954
  0
VERTEX
  8
1
 62
7
  6
CONTINUOUS
 10
-2120.79857188203
 20
2243.90061050541
  0
VERTEX
  8
1
 62
7
  6
CONTINUOUS
 10
-2131.72016377915
 20
2247.38783780959
  0
VERTEX
  8
1
 62
7
  6
CONTINUOUS
 10
-2132.93684774426
 20
2237.41437641577
  0
VERTEX
  8
1
 62
7
  6
CONTINUOUS
 10
-2148.10216356985
 20
2235.6663936738
  0
VERTEX
  8
1
 62
7
  6
CONTINUOUS
 10
-2150.79471602341
 20
2234.72261482633
  0
VERTEX
  8
1
 62
7
  6
CONTINUOUS
 10
-2162.55184515972
 20
2236.04252313357
  0
VERTEX
  8
1
 62
7
  6
CONTINUOUS
 10
-2164.66412682781
 20
2234.28055947913
  0
VERTEX
  8
1
 62
7
  6
CONTINUOUS
 10
-2206.61936965771
 20
2234.69580129654
  0
VERTEX
  8
1
 62
7
  6
CONTINUOUS
 10
-2225.23682217867
 20
2244.28875749775
  0
VERTEX
  8
1
 62
7
  6
CONTINUOUS
 10
-2228.41750615259
 20
2239.52151724077
  0
VERTEX
  8
1
 62
7
  6
CONTINUOUS
 10
-2230.79649700759
 20
2243.58392869999
  0
VERTEX
  8
1
 62
7
  6
CONTINUOUS
 10
-2244.34953000786
 20
2238.69671942195
  0
VERTEX
  8
1
 62
7
  6
CONTINUOUS
 10
-2250.33610561727
 20
2229.26138039961
  0
VERTEX
  8
1
 62
7
  6
CONTINUOUS
 10
-2254.77484808009
 20
2230.77380452504
  0
VERTEX
  8
1
 62
7
  6
CONTINUOUS
 10
-2259.89554409182
 20
2246.14705736484
  0
VERTEX
  8
1
 62
7
  6
CONTINUOUS
 10
-2263.53992934915
 20
2246.73462435653
  0
VERTEX
  8
1
 62
7
  6
CONTINUOUS
 10
-2267.52317134404
 20
2255.0109838714
  0
VERTEX
  8
1
 62
7
  6
CONTINUOUS
 10
-2273.9918615556
 20
2254.56230965909
  0
VERTEX
  8
1
 62
7
  6
CONTINUOUS
 10
-2232.19219499759
 20
2339.4689619211
  0
VERTEX
  8
1
 62
7
  6
CONTINUOUS
 10
-2232.95653336975
 20
2329.12702379206
  0
VERTEX
  8
1
 62
7
  6
CONTINUOUS
 10
-2226.13204972788
 20
2323.60634554826
  0
VERTEX
  8
1
 62
7
  6
CONTINUOUS
 10
-2217.74814922977
 20
2329.2309088849
  0
VERTEX
  8
1
 62
7
  6
CONTINUOUS
 10
-2181.92420561387
 20
2349.11730173406
  0
VERTEX
  8
1
 62
7
  6
CONTINUOUS
 10
-2166.79472667291
 20
2360.28297415194
  0
VERTEX
  8
1
 62
7
  6
CONTINUOUS
 10
-2155.36895745344
 20
2363.84962101164
  0
VERTEX
  8
1
 62
7
  6
CONTINUOUS
 10
-2148.54230965546
 20
2387.59766847532
  0
VERTEX
  8
1
 62
7
  6
CONTINUOUS
 10
-2138.7296844569
 20
2386.71368617677
  0
VERTEX
  8
1
 62
7
  6
CONTINUOUS
 10
-2134.04054713566
 20
2401.38358574859
  0
VERTEX
  8
1
 62
7
  6
CONTINUOUS
 10
-2138.90720410517
 20
2403.72142201645
  0
VERTEX
  8
1
 62
7
  6
CONTINUOUS
 10
-2143.27146893163
 20
2417.13555254963
  0
VERTEX
  8
1
 62
7
  6
CONTINUOUS
 10
-2152.30790022979
 20
2418.71233969011
  0
VERTEX
  8
1
 62
7
  6
CONTINUOUS
 10
-2157.90811969019
 20
2426.45401603897
  0
VERTEX
  8
1
 62
7
  6
CONTINUOUS
 10
-2148.80438530032
 20
2438.10725162671
  0
VERTEX
  8
1
 62
7
  6
CONTINUOUS
 10
-2153.97450703804
 20
2444.45619587076
  0
VERTEX
  8
1
 62
7
  6
CONTINUOUS
 10
-2155.20709437322
 20
2469.28109608079
  0
VERTEX
  8
1
 62
7
  6
CONTINUOUS
 10
-2161.22520230794
 20
2470.81115700632
  0
VERTEX
  8
1
 62
7
  6
CONTINUOUS
 10
-2166.72016691111
 20
2485.78514546421
  0
VERTEX
  8
1
 62
7
  6
CONTINUOUS
 10
-2163.48503088882
 20
2495.42809008472
  0
VERTEX
  8
1
 62
7
  6
CONTINUOUS
 10
-2191.53577657776
 20
2510.73097399914
  0
VERTEX
  8
1
 62
7
  6
CONTINUOUS
 10
-2228.27438257449
 20
2543.38513778782
  0
VERTEX
  8
1
 62
7
  6
CONTINUOUS
 10
-2235.41957173447
 20
2537.07860117308
  0
VERTEX
  8
1
 62
7
  6
CONTINUOUS
 10
-2236.61785279572
 20
2546.89012342112
  0
VERTEX
  8
1
 62
7
  6
CONTINUOUS
 10
-2253.30851792391
 20
2540.22094187047
  0
VERTEX
  8
1
 62
7
  6
CONTINUOUS
 10
-2291.74698224359
 20
2516.64900542773
  0
VERTEX
  8
1
 62
7
  6
CONTINUOUS
 10
-2297.2478870035
 20
2506.63545866743
  0
VERTEX
  8
1
 62
7
  6
CONTINUOUS
 10
-2310.62180200598
 20
2509.96985123717
  0
VERTEX
  8
1
 62
7
  6
CONTINUOUS
 10
-2313.9127986448
 20
2501.7037787729
  0
VERTEX
  8
1
 62
7
  6
CONTINUOUS
 10
-2321.78316525729
 20
2506.10573559844
  0
VERTEX
  8
1
 62
7
  6
CONTINUOUS
 10
-2341.93898723684
 20
2503.51877255705
  0
VERTEX
  8
1
 62
7
  6
CONTINUOUS
 10
-2360.71958340031
 20
2503.52003183684
  0
VERTEX
  8
1
 62
7
  6
CONTINUOUS
 10
-2365.80666396295
 20
2502.72705061922
  0
VERTEX
  8
1
 62
7
  6
CONTINUOUS
 10
-2379.50286453737
 20
2503.11502987423
  0
VERTEX
  8
1
 62
7
  6
CONTINUOUS
 10
-2380.90882011651
 20
2500.34208383476
  0
VERTEX
  8
1
 62
7
  6
CONTINUOUS
 10
-2384.08247974946
 20
2503.88670451072
  0
VERTEX
  8
1
 62
7
  6
CONTINUOUS
 10
-2425.83929512674
 20
2490.74302439206
  0
VERTEX
  8
1
 62
7
  6
CONTINUOUS
 10
-2440.95303303875
 20
2486.58384083566
  0
VERTEX
  8
1
 62
7
  6
CONTINUOUS
 10
-2441.2013569543
 20
2475.45978261393
  0
VERTEX
  8
1
 62
7
  6
CONTINUOUS
 10
-2448.27343373614
 20
2477.88655030635
  0
VERTEX
  8
1
 62
7
  6
CONTINUOUS
 10
-2453.14868247625
 20
2484.22369432817
  0
VERTEX
  8
1
 62
7
  6
CONTINUOUS
 10
-2462.88636701178
 20
2477.03245455726
  0
VERTEX
  8
1
 62
7
  6
CONTINUOUS
 10
-2476.97574563956
 20
2472.93780994091
  0
VERTEX
  8
1
 62
7
  6
CONTINUOUS
 10
-2483.4946340398
 20
2477.00628787856
  0
VERTEX
  8
1
 62
7
  6
CONTINUOUS
 10
-2500.37201326058
 20
2455.4700632111
  0
VERTEX
  8
1
 62
7
  6
CONTINUOUS
 10
-2515.83846342265
 20
2444.8283107476
  0
VERTEX
  8
1
 62
7
  6
CONTINUOUS
 10
-2540.00661588623
 20
2441.48932910337
  0
VERTEX
  8
1
 62
7
  6
CONTINUOUS
 10
-2542.98041825724
 20
2456.43956298045
  0
VERTEX
  8
1
 62
7
  6
CONTINUOUS
 10
-2549.40742909659
 20
2453.12754063686
  0
VERTEX
  8
1
 62
7
  6
CONTINUOUS
 10
-2551.40816074315
 20
2454.35593209532
  0
VERTEX
  8
1
 62
7
  6
CONTINUOUS
 10
-2549.13621882207
 20
2462.73771378865
  0
VERTEX
  8
1
 62
7
  6
CONTINUOUS
 10
-2561.46278228634
 20
2460.35096524157
  0
VERTEX
  8
1
 62
7
  6
CONTINUOUS
 10
-2583.11037835745
 20
2471.35815474601
  0
VERTEX
  8
1
 62
7
  6
CONTINUOUS
 10
-2594.7596955674
 20
2470.75692419624
  0
VERTEX
  8
1
 62
7
  6
CONTINUOUS
 10
-2594.6223971168
 20
2474.1433016494
  0
VERTEX
  8
1
 62
7
  6
CONTINUOUS
 10
-2585.88234132833
 20
2481.18645482587
  0
VERTEX
  8
1
 62
7
  6
CONTINUOUS
 10
-2585.09710641449
 20
2485.74010303861
  0
VERTEX
  8
1
 62
7
  6
CONTINUOUS
 10
-2591.60750520871
 20
2498.8455749217
  0
VERTEX
  8
1
 62
7
  6
CONTINUOUS
 10
-2580.96928118096
 20
2497.2153870354
  0
VERTEX
  8
1
 62
7
  6
CONTINUOUS
 10
-2538.69925094343
 20
2520.32091701543
  0
VERTEX
  8
1
 62
7
  6
CONTINUOUS
 10
-2533.09479532577
 20
2522.74397349932
  0
VERTEX
  8
1
 62
7
  6
CONTINUOUS
 10
-2528.33587495385
 20
2532.30153589688
  0
VERTEX
  8
1
 62
7
  6
CONTINUOUS
 10
-2512.90359343676
 20
2543.28035673925
  0
VERTEX
  8
1
 62
7
  6
CONTINUOUS
 10
-2506.71197431141
 20
2539.51753021392
  0
VERTEX
  8
1
 62
7
  6
CONTINUOUS
 10
-2493.39277379271
 20
2538.5658422663
  0
VERTEX
  8
1
 62
7
  6
CONTINUOUS
 10
-2490.65552337126
 20
2544.34080456088
  0
VERTEX
  8
1
 62
7
  6
CONTINUOUS
 10
-2484.09717464885
 20
2540.25689776227
  0
VERTEX
  8
1
 62
7
  6
CONTINUOUS
 10
-2437.53468395128
 20
2538.00925662012
  0
VERTEX
  8
1
 62
7
  6
CONTINUOUS
 10
-2435.42274569533
 20
2544.43653031189
  0
VERTEX
  8
1
 62
7
  6
CONTINUOUS
 10
-2425.947752128
 20
2549.15129139241
  0
VERTEX
  8
1
 62
7
  6
CONTINUOUS
 10
-2425.10575321897
 20
2553.94744854495
  0
VERTEX
  8
1
 62
7
  6
CONTINUOUS
 10
-2422.80331157195
 20
2556.13260574189
  0
VERTEX
  8
1
 62
7
  6
CONTINUOUS
 10
-2422.65870911489
 20
2568.45576427007
  0
VERTEX
  8
1
 62
7
  6
CONTINUOUS
 10
-2430.74350673168
 20
2570.74817902338
  0
VERTEX
  8
1
 62
7
  6
CONTINUOUS
 10
-2431.68237343694
 20
2582.78684128439
  0
VERTEX
  8
1
 62
7
  6
CONTINUOUS
 10
-2419.49783460267
 20
2590.00300493986
  0
VERTEX
  8
1
 62
7
  6
CONTINUOUS
 10
-2424.3141843156
 20
2598.7171170941
  0
VERTEX
  8
1
 62
7
  6
CONTINUOUS
 10
-2434.85130428077
 20
2597.25108873615
  0
VERTEX
  8
1
 62
7
  6
CONTINUOUS
 10
-2434.07577292704
 20
2601.40799771273
  0
VERTEX
  8
1
 62
7
  6
CONTINUOUS
 10
-2442.59924708894
 20
2605.49691967979
  0
VERTEX
  8
1
 62
7
  6
CONTINUOUS
 10
-2436.30984626429
 20
2625.19891945021
  0
VERTEX
  8
1
 62
7
  6
CONTINUOUS
 10
-2437.14511982079
 20
2649.76819365444
  0
VERTEX
  8
1
 62
7
  6
CONTINUOUS
 10
-2433.90625484916
 20
2659.47237126644
  0
VERTEX
  8
1
 62
7
  6
CONTINUOUS
 10
-2437.97422656713
 20
2662.84102613435
  0
VERTEX
  8
1
 62
7
  6
CONTINUOUS
 10
-2435.64990062032
 20
2688.65987267099
  0
VERTEX
  8
1
 62
7
  6
CONTINUOUS
 10
-2437.15607051294
 20
2692.86650802641
  0
VERTEX
  8
1
 62
7
  6
CONTINUOUS
 10
-2434.71642433264
 20
2697.03176484663
  0
VERTEX
  8
1
 62
7
  6
CONTINUOUS
 10
-2441.96219730042
 20
2706.74078940042
  0
VERTEX
  8
1
 62
7
  6
CONTINUOUS
 10
-2450.69297963016
 20
2706.70488703892
  0
VERTEX
  8
1
 62
7
  6
CONTINUOUS
 10
-2454.77595296175
 20
2713.14865215168
  0
VERTEX
  8
1
 62
7
  6
CONTINUOUS
 10
-2470.74287877518
 20
2712.31552774728
  0
VERTEX
  8
1
 62
7
  6
CONTINUOUS
 10
-2498.66903986752
 20
2702.78973973028
  0
VERTEX
  8
1
 62
7
  6
CONTINUOUS
 10
-2498.6654463889
 20
2689.18160892024
  0
VERTEX
  8
1
 62
7
  6
CONTINUOUS
 10
-2504.17978934069
 20
2688.48916397817
  0
VERTEX
  8
1
 62
7
  6
CONTINUOUS
 10
-2518.97344886458
 20
2695.66591913072
  0
VERTEX
  8
1
 62
7
  6
CONTINUOUS
 10
-2529.53689655283
 20
2688.07915545462
  0
VERTEX
  8
1
 62
7
  6
CONTINUOUS
 10
-2569.94798577229
 20
2690.55696343716
  0
VERTEX
  8
1
 62
7
  6
CONTINUOUS
 10
-2572.55510681469
 20
2697.67914293269
  0
VERTEX
  8
1
 62
7
  6
CONTINUOUS
 10
-2582.30557974428
 20
2701.17773897004
  0
VERTEX
  8
1
 62
7
  6
CONTINUOUS
 10
-2604.63427533032
 20
2701.11912211152
  0
VERTEX
  8
1
 62
7
  6
CONTINUOUS
 10
-2640.39270213225
 20
2712.29352427021
  0
VERTEX
  8
1
 62
7
  6
CONTINUOUS
 10
-2667.52649525665
 20
2702.71566703279
  0
VERTEX
  8
1
 62
7
  6
CONTINUOUS
 10
-2683.51146358097
 20
2684.99476261778
  0
VERTEX
  8
1
 62
7
  6
CONTINUOUS
 10
-2701.09023725933
 20
2677.99594184852
  0
VERTEX
  8
1
 62
7
  6
CONTINUOUS
 10
-2695.53642010714
 20
2666.64743148225
  0
VERTEX
  8
1
 62
7
  6
CONTINUOUS
 10
-2698.48266789108
 20
2664.3068538198
  0
VERTEX
  8
1
 62
7
  6
CONTINUOUS
 10
-2708.19750401428
 20
2672.37488701701
  0
VERTEX
  8
1
 62
7
  6
CONTINUOUS
 10
-2708.54947234211
 20
2658.72654757198
  0
VERTEX
  8
1
 62
7
  6
CONTINUOUS
 10
-2720.50420329936
 20
2661.89543688749
  0
VERTEX
  8
1
 62
7
  6
CONTINUOUS
 10
-2752.76479695449
 20
2645.79606133777
  0
VERTEX
  8
1
 62
7
  6
CONTINUOUS
 10
-2756.11135702394
 20
2639.53495299518
  0
VERTEX
  8
1
 62
7
  6
CONTINUOUS
 10
-2760.68047521167
 20
2644.32009202175
  0
VERTEX
  8
1
 62
7
  6
CONTINUOUS
 10
-2765.90179971811
 20
2638.7249949848
  0
VERTEX
  8
1
 62
7
  6
CONTINUOUS
 10
-2773.74958045599
 20
2641.05111868038
  0
VERTEX
  8
1
 62
7
  6
CONTINUOUS
 10
-2774.4901748999
 20
2633.18653610067
  0
VERTEX
  8
1
 62
7
  6
CONTINUOUS
 10
-2783.08627035829
 20
2642.5947482662
  0
VERTEX
  8
1
 62
7
  6
CONTINUOUS
 10
-2784.42164946912
 20
2630.57054047042
  0
VERTEX
  8
1
 62
7
  6
CONTINUOUS
 10
-2787.45230976076
 20
2629.09450806292
  0
VERTEX
  8
1
 62
7
  6
CONTINUOUS
 10
-2791.02730233178
 20
2637.09714376079
  0
VERTEX
  8
1
 62
7
  6
CONTINUOUS
 10
-2834.42900784629
 20
2634.8361636829
  0
VERTEX
  8
1
 62
7
  6
CONTINUOUS
 10
-2841.92120108164
 20
2627.70229493586
  0
VERTEX
  8
1
 62
7
  6
CONTINUOUS
 10
-2834.64662506347
 20
2620.90441701134
  0
VERTEX
  8
1
 62
7
  6
CONTINUOUS
 10
-2836.33947996081
 20
2614.68933767707
  0
VERTEX
  8
1
 62
7
  6
CONTINUOUS
 10
-2844.30706293017
 20
2608.346663742
  0
VERTEX
  8
1
 62
7
  6
CONTINUOUS
 10
-2844.39443411304
 20
2582.91377446125
  0
VERTEX
  8
1
 62
7
  6
CONTINUOUS
 10
-2833.07994870169
 20
2571.6313385138
  0
VERTEX
  8
1
 62
7
  6
CONTINUOUS
 10
-2846.00341288937
 20
2569.76694447781
  0
VERTEX
  8
1
 62
7
  6
CONTINUOUS
 10
-2841.20567250422
 20
2558.47568839525
  0
VERTEX
  8
1
 62
7
  6
CONTINUOUS
 10
-2849.00539433386
 20
2555.06920057604
  0
VERTEX
  8
1
 62
7
  6
CONTINUOUS
 10
-2860.83375094657
 20
2531.39883090702
  0
VERTEX
  8
1
 62
7
  6
CONTINUOUS
 10
-2873.05800647436
 20
2525.67887679579
  0
VERTEX
  8
1
 62
7
  6
CONTINUOUS
 10
-2878.13495694719
 20
2529.19805984106
  0
VERTEX
  8
1
 62
7
  6
CONTINUOUS
 10
-2898.7604662485
 20
2533.93574273308
  0
VERTEX
  8
1
 62
7
  6
CONTINUOUS
 10
-2904.24944739399
 20
2537.05104616393
  0
VERTEX
  8
1
 62
7
  6
CONTINUOUS
 10
-2909.68461679441
 20
2545.78009577091
  0
VERTEX
  8
1
 62
7
  6
CONTINUOUS
 10
-2913.91005716169
 20
2545.91154925741
  0
VERTEX
  8
1
 62
7
  6
CONTINUOUS
 10
-2914.86817236536
 20
2550.90852216842
  0
VERTEX
  8
1
 62
7
  6
CONTINUOUS
 10
-2929.14485685714
 20
2557.9285988191
  0
VERTEX
  8
1
 62
7
  6
CONTINUOUS
 10
-2955.59609391362
 20
2563.49904885296
  0
VERTEX
  8
1
 62
7
  6
CONTINUOUS
 10
-2962.77942817128
 20
2557.05777974477
  0
VERTEX
  8
1
 62
7
  6
CONTINUOUS
 10
-2971.44507473295
 20
2546.76550532112
  0
VERTEX
  8
1
 62
7
  6
CONTINUOUS
 10
-2988.21658830118
 20
2542.53938783539
  0
VERTEX
  8
1
 62
7
  6
CONTINUOUS
 10
-2993.06962493748
 20
2551.55315282117
  0
VERTEX
  8
1
 62
7
  6
CONTINUOUS
 10
-3023.15341010389
 20
2551.53546138278
  0
VERTEX
  8
1
 62
7
  6
CONTINUOUS
 10
-3037.03243617586
 20
2568.14413039838
  0
VERTEX
  8
1
 62
7
  6
CONTINUOUS
 10
-3040.69266906743
 20
2581.05985066927
  0
VERTEX
  8
1
 62
7
  6
CONTINUOUS
 10
-3050.83729746398
 20
2577.14225730137
  0
VERTEX
  8
1
 62
7
  6
CONTINUOUS
 10
-3053.87084687524
 20
2579.93973895711
  0
VERTEX
  8
1
 62
7
  6
CONTINUOUS
 10
-3049.62837241271
 20
2589.85287646261
  0
VERTEX
  8
1
 62
7
  6
CONTINUOUS
 10
-3061.55204462998
 20
2585.85950753681
  0
VERTEX
  8
1
 62
7
  6
CONTINUOUS
 10
-3071.47765897677
 20
2587.4911622577
  0
VERTEX
  8
1
 62
7
  6
CONTINUOUS
 10
-3076.23760823342
 20
2595.46652402213
  0
VERTEX
  8
1
 62
7
  6
CONTINUOUS
 10
-3100.96368883996
 20
2598.05472496077
  0
VERTEX
  8
1
 62
7
  6
CONTINUOUS
 10
-3101.15131567666
 20
2592.2971977154
  0
VERTEX
  8
1
 62
7
  6
CONTINUOUS
 10
-3106.20905803756
 20
2593.75172364537
  0
VERTEX
  8
1
 62
7
  6
CONTINUOUS
 10
-3109.24974092107
 20
2582.55034669055
  0
VERTEX
  8
1
 62
7
  6
CONTINUOUS
 10
-3121.14758369771
 20
2576.30934740212
  0
VERTEX
  8
1
 62
7
  6
CONTINUOUS
 10
-3163.27912001636
 20
2566.04404889272
  0
VERTEX
  8
1
 62
7
  6
CONTINUOUS
 10
-3169.42394947589
 20
2559.12455504026
  0
VERTEX
  8
1
 62
7
  6
CONTINUOUS
 10
-3173.1682917291
 20
2560.37371849014
  0
VERTEX
  8
1
 62
7
  6
CONTINUOUS
 10
-3175.22968532494
 20
2570.80727054443
  0
VERTEX
  8
1
 62
7
  6
CONTINUOUS
 10
-3206.19081305941
 20
2591.50689176035
  0
VERTEX
  8
1
 62
7
  6
CONTINUOUS
 10
-3210.67125757164
 20
2589.56763518218
  0
VERTEX
  8
1
 62
7
  6
CONTINUOUS
 10
-3216.31695700589
 20
2596.31156557666
  0
VERTEX
  8
1
 62
7
  6
CONTINUOUS
 10
-3216.19540512555
 20
2610.71990449553
  0
VERTEX
  8
1
 62
7
  6
CONTINUOUS
 10
-3223.47617892698
 20
2612.24523324652
  0
VERTEX
  8
1
 62
7
  6
CONTINUOUS
 10
-3221.26601922319
 20
2620.557100789
  0
VERTEX
  8
1
 62
7
  6
CONTINUOUS
 10
-3230.96593126899
 20
2622.85393380779
  0
VERTEX
  8
1
 62
7
  6
CONTINUOUS
 10
-3240.93341329862
 20
2633.74501781983
  0
VERTEX
  8
1
 62
7
  6
CONTINUOUS
 10
-3246.0833515495
 20
2637.83223202899
  0
VERTEX
  8
1
 62
7
  6
CONTINUOUS
 10
-3253.90436251725
 20
2633.90767556429
  0
VERTEX
  8
1
 62
7
  6
CONTINUOUS
 10
-3251.65282326487
 20
2643.12978290679
  0
VERTEX
  8
1
 62
7
  6
CONTINUOUS
 10
-3258.82767871797
 20
2649.96607893541
  0
VERTEX
  8
1
 62
7
  6
CONTINUOUS
 10
-3273.93646108526
 20
2650.71887155981
  0
VERTEX
  8
1
 62
7
  6
CONTINUOUS
 10
-3286.52878667273
 20
2648.29662129807
  0
VERTEX
  8
1
 62
7
  6
CONTINUOUS
 10
-3298.37732939267
 20
2653.24397215242
  0
VERTEX
  8
1
 62
7
  6
CONTINUOUS
 10
-3302.63036985661
 20
2644.56605698822
  0
VERTEX
  8
1
 62
7
  6
CONTINUOUS
 10
-3305.79777855373
 20
2649.31089219611
  0
VERTEX
  8
1
 62
7
  6
CONTINUOUS
 10
-3350.66432217771
 20
2649.09161524873
  0
VERTEX
  8
1
 62
7
  6
CONTINUOUS
 10
-3355.38327959708
 20
2655.46862920391
  0
VERTEX
  8
1
 62
7
  6
CONTINUOUS
 10
-3365.2088630032
 20
2653.0769629746
  0
VERTEX
  8
1
 62
7
  6
CONTINUOUS
 10
-3370.04231592652
 20
2668.41621612369
  0
VERTEX
  8
1
 62
7
  6
CONTINUOUS
 10
-3377.97471831734
 20
2669.14808733742
  0
VERTEX
  8
1
 62
7
  6
CONTINUOUS
 10
-3412.82028223285
 20
2710.45034869147
  0
VERTEX
  8
1
 62
7
  6
CONTINUOUS
 10
-3417.05288164443
 20
2705.89448412875
  0
VERTEX
  8
1
 62
7
  6
CONTINUOUS
 10
-3417.39962483409
 20
2712.33656129034
  0
VERTEX
  8
1
 62
7
  6
CONTINUOUS
 10
-3466.8071112657
 20
2696.22916033101
  0
VERTEX
  8
1
 62
7
  6
CONTINUOUS
 10
-3469.95066843869
 20
2685.86325636231
  0
VERTEX
  8
1
 62
7
  6
CONTINUOUS
 10
-3474.66098741017
 20
2680.43447943717
  0
VERTEX
  8
1
 62
7
  6
CONTINUOUS
 10
-3477.10045218626
 20
2669.13570171201
  0
VERTEX
  8
1
 62
7
  6
CONTINUOUS
 10
-3480.45480389607
 20
2669.19401806122
  0
VERTEX
  8
1
 62
7
  6
CONTINUOUS
 10
-3485.93336366677
 20
2678.73247202417
  0
VERTEX
  8
1
 62
7
  6
CONTINUOUS
 10
-3498.67384316688
 20
2685.14023093548
  0
VERTEX
  8
1
 62
7
  6
CONTINUOUS
 10
-3499.09334245265
 20
2688.76498063548
  0
VERTEX
  8
1
 62
7
  6
CONTINUOUS
 10
-3507.52145039266
 20
2697.12176816345
  0
VERTEX
  8
1
 62
7
  6
CONTINUOUS
 10
-3512.1584359693
 20
2704.09208422829
  0
VERTEX
  8
1
 62
7
  6
CONTINUOUS
 10
-3535.4512910102
 20
2714.70448240259
  0
VERTEX
  8
1
 62
7
  6
CONTINUOUS
 10
-3546.7292281484
 20
2714.72546141931
  0
VERTEX
  8
1
 62
7
  6
CONTINUOUS
 10
-3551.15121303398
 20
2722.98870062277
  0
VERTEX
  8
1
 62
7
  6
CONTINUOUS
 10
-3555.75971996178
 20
2727.52085667353
  0
SEQEND
  0
ENDSEC
  0
EOF
