  0
SECTION
  2
HEADER
  0
ENDSEC
  0
SECTION
  2
TABLES
  0
ENDSEC
  0
SECTION
  2
BLOCKS
  0
ENDSEC
  0
SECTION
  2
ENTITIES
  0
TEXT
  1
MARK_1
  8
72
 10
-3346.8
 20
1406
 11
-3346.8
 21
1406
 62
3
 40
8
 50
90
 72
0
 73
1
  0
TEXT
  1
MARK_2
  8
72
 10
-3350.8
 20
2213.2
 11
-3350.8
 21
2213.2
 62
3
 40
8
 50
90
 72
0
 73
1
  0
POLYLINE
  8
51
 62
7
 66
1
 70
1
  0
VERTEX
  8
51
 62
7
  6
CONTINUOUS
 10
-3002.99140153468
 20
1825.53241699222
  0
VERTEX
  8
51
 62
7
  6
CONTINUOUS
 10
-3002.89984974093
 20
1821.32544351583
  0
VERTEX
  8
51
 62
7
  6
CONTINUOUS
 10
-2985.89242847977
 20
1805.40410390679
  0
VERTEX
  8
51
 62
7
  6
CONTINUOUS
 10
-2970.84840052129
 20
1794.96191787549
  0
VERTEX
  8
51
 62
7
  6
CONTINUOUS
 10
-2953.77123935397
 20
1786.98183423376
  0
VERTEX
  8
51
 62
7
  6
CONTINUOUS
 10
-2969.37794682587
 20
1779.33455889194
  0
VERTEX
  8
51
 62
7
  6
CONTINUOUS
 10
-2982.24587187938
 20
1774.357449459
  0
VERTEX
  8
51
 62
7
  6
CONTINUOUS
 10
-2995.24017815444
 20
1766.43341346153
  0
VERTEX
  8
51
 62
7
  6
CONTINUOUS
 10
-2996.27346876529
 20
1762.56038422335
  0
VERTEX
  8
51
 62
7
  6
CONTINUOUS
 10
-2994.34551013218
 20
1759.04598235742
  0
VERTEX
  8
51
 62
7
  6
CONTINUOUS
 10
-2990.52390104231
 20
1757.83629275653
  0
VERTEX
  8
51
 62
7
  6
CONTINUOUS
 10
-2973.0547153235
 20
1766.40271574019
  0
VERTEX
  8
51
 62
7
  6
CONTINUOUS
 10
-2960.85257763006
 20
1771.02617918112
  0
VERTEX
  8
51
 62
7
  6
CONTINUOUS
 10
-2944.61579054496
 20
1778.61533576485
  0
VERTEX
  8
51
 62
7
  6
CONTINUOUS
 10
-2940.95997626975
 20
1779.72852955753
  0
VERTEX
  8
51
 62
7
  6
CONTINUOUS
 10
-2940.11353920004
 20
1779.0947285322
  0
VERTEX
  8
51
 62
7
  6
CONTINUOUS
 10
-2935.81215463863
 20
1779.88564643662
  0
VERTEX
  8
51
 62
7
  6
CONTINUOUS
 10
-2934.70604707927
 20
1781.63284816635
  0
VERTEX
  8
51
 62
7
  6
CONTINUOUS
 10
-2928.11309364897
 20
1783.64039950281
  0
VERTEX
  8
51
 62
7
  6
CONTINUOUS
 10
-2926.64416107145
 20
1785.96330821888
  0
VERTEX
  8
51
 62
7
  6
CONTINUOUS
 10
-2916.58228393911
 20
1790.06731259041
  0
VERTEX
  8
51
 62
7
  6
CONTINUOUS
 10
-2902.73523209582
 20
1794.30026527935
  0
VERTEX
  8
51
 62
7
  6
CONTINUOUS
 10
-2888.24551414477
 20
1800.21895442239
  0
VERTEX
  8
51
 62
7
  6
CONTINUOUS
 10
-2892.02695861486
 20
1809.47642047524
  0
VERTEX
  8
51
 62
7
  6
CONTINUOUS
 10
-2906.09461810818
 20
1803.73013170741
  0
VERTEX
  8
51
 62
7
  6
CONTINUOUS
 10
-2919.93921182211
 20
1799.49793045245
  0
VERTEX
  8
51
 62
7
  6
CONTINUOUS
 10
-2935.78430101617
 20
1793.03508912926
  0
VERTEX
  8
51
 62
7
  6
CONTINUOUS
 10
-2936.60324284193
 20
1800.39137147332
  0
VERTEX
  8
51
 62
7
  6
CONTINUOUS
 10
-2935.78131580011
 20
1810.84562861504
  0
VERTEX
  8
51
 62
7
  6
CONTINUOUS
 10
-2928.95204878373
 20
1835.61250215174
  0
VERTEX
  8
51
 62
7
  6
CONTINUOUS
 10
-2923.04176034423
 20
1861.70571708401
  0
VERTEX
  8
51
 62
7
  6
CONTINUOUS
 10
-2932.79470084149
 20
1863.91482361311
  0
VERTEX
  8
51
 62
7
  6
CONTINUOUS
 10
-2938.65383069623
 20
1838.04746769961
  0
VERTEX
  8
51
 62
7
  6
CONTINUOUS
 10
-2945.6756308662
 20
1812.58235755059
  0
VERTEX
  8
51
 62
7
  6
CONTINUOUS
 10
-2946.64689872144
 20
1800.228604242
  0
VERTEX
  8
51
 62
7
  6
CONTINUOUS
 10
-2946.19157806944
 20
1796.13861009612
  0
VERTEX
  8
51
 62
7
  6
CONTINUOUS
 10
-2984.29363023483
 20
1824.66892923445
  0
VERTEX
  8
51
 62
7
  6
CONTINUOUS
 10
-2993.81966516719
 20
1828.53496570793
  0
VERTEX
  8
51
 62
7
  6
CONTINUOUS
 10
-3000.04746251086
 20
1828.53911461353
  0
SEQEND
  0
POLYLINE
  8
51
 62
7
 66
1
 70
1
  0
VERTEX
  8
51
 62
7
  6
CONTINUOUS
 10
-3032.32051095922
 20
1806.58438387668
  0
VERTEX
  8
51
 62
7
  6
CONTINUOUS
 10
-3028.95060726524
 20
1786.36180632004
  0
VERTEX
  8
51
 62
7
  6
CONTINUOUS
 10
-3020.25939373696
 20
1764.6049775101
  0
VERTEX
  8
51
 62
7
  6
CONTINUOUS
 10
-3010.02910740418
 20
1747.52872486872
  0
VERTEX
  8
51
 62
7
  6
CONTINUOUS
 10
-2992.95684372321
 20
1729.50458726338
  0
VERTEX
  8
51
 62
7
  6
CONTINUOUS
 10
-2973.12164781516
 20
1715.63471103967
  0
VERTEX
  8
51
 62
7
  6
CONTINUOUS
 10
-2942.21878781818
 20
1702.06084434714
  0
VERTEX
  8
51
 62
7
  6
CONTINUOUS
 10
-2924.86479523408
 20
1697.31067288885
  0
VERTEX
  8
51
 62
7
  6
CONTINUOUS
 10
-2900.73588796488
 20
1695.26818917353
  0
VERTEX
  8
51
 62
7
  6
CONTINUOUS
 10
-2873.17870721188
 20
1700.5537113884
  0
VERTEX
  8
51
 62
7
  6
CONTINUOUS
 10
-2856.58581410571
 20
1707.31510695465
  0
VERTEX
  8
51
 62
7
  6
CONTINUOUS
 10
-2840.6886701772
 20
1721.07958208523
  0
VERTEX
  8
51
 62
7
  6
CONTINUOUS
 10
-2827.84426680113
 20
1741.40873737549
  0
VERTEX
  8
51
 62
7
  6
CONTINUOUS
 10
-2821.56779953603
 20
1755.51213447334
  0
VERTEX
  8
51
 62
7
  6
CONTINUOUS
 10
-2815.94517572622
 20
1775.80171475814
  0
VERTEX
  8
51
 62
7
  6
CONTINUOUS
 10
-2815.90629675678
 20
1776.27042284002
  0
VERTEX
  8
51
 62
7
  6
CONTINUOUS
 10
-2813.53067946023
 20
1804.90984005127
  0
VERTEX
  8
51
 62
7
  6
CONTINUOUS
 10
-2816.27095128261
 20
1824.85491862395
  0
VERTEX
  8
51
 62
7
  6
CONTINUOUS
 10
-2823.74894872735
 20
1847.60507527857
  0
VERTEX
  8
51
 62
7
  6
CONTINUOUS
 10
-2837.82102029767
 20
1870.19063328686
  0
VERTEX
  8
51
 62
7
  6
CONTINUOUS
 10
-2850.63925971498
 20
1886.25502570292
  0
VERTEX
  8
51
 62
7
  6
CONTINUOUS
 10
-2869.82591049272
 20
1904.21263463477
  0
VERTEX
  8
51
 62
7
  6
CONTINUOUS
 10
-2889.66120423959
 20
1918.01254506044
  0
VERTEX
  8
51
 62
7
  6
CONTINUOUS
 10
-2906.30338289846
 20
1926.87786804811
  0
VERTEX
  8
51
 62
7
  6
CONTINUOUS
 10
-2925.17245103555
 20
1932.56829012346
  0
VERTEX
  8
51
 62
7
  6
CONTINUOUS
 10
-2939.4849217614
 20
1934.27845190289
  0
VERTEX
  8
51
 62
7
  6
CONTINUOUS
 10
-2947.12511205877
 20
1931.92108198908
  0
VERTEX
  8
51
 62
7
  6
CONTINUOUS
 10
-2948.71907163337
 20
1929.53359029946
  0
VERTEX
  8
51
 62
7
  6
CONTINUOUS
 10
-2948.73637414791
 20
1929.54478118175
  0
VERTEX
  8
51
 62
7
  6
CONTINUOUS
 10
-2950.64356545973
 20
1926.59602302789
  0
VERTEX
  8
51
 62
7
  6
CONTINUOUS
 10
-2949.7940083059
 20
1922.56372101135
  0
VERTEX
  8
51
 62
7
  6
CONTINUOUS
 10
-2946.35022857505
 20
1920.30062842029
  0
VERTEX
  8
51
 62
7
  6
CONTINUOUS
 10
-2942.31184783745
 20
1921.1208039676
  0
VERTEX
  8
51
 62
7
  6
CONTINUOUS
 10
-2940.78134203703
 20
1923.41325224398
  0
VERTEX
  8
51
 62
7
  6
CONTINUOUS
 10
-2938.56430397009
 20
1924.09731620487
  0
VERTEX
  8
51
 62
7
  6
CONTINUOUS
 10
-2927.22481093991
 20
1922.74238818792
  0
VERTEX
  8
51
 62
7
  6
CONTINUOUS
 10
-2910.13469551494
 20
1917.58845216002
  0
VERTEX
  8
51
 62
7
  6
CONTINUOUS
 10
-2894.88578465489
 20
1909.46532581006
  0
VERTEX
  8
51
 62
7
  6
CONTINUOUS
 10
-2876.13095581977
 20
1896.41712187235
  0
VERTEX
  8
51
 62
7
  6
CONTINUOUS
 10
-2858.00286469443
 20
1879.45026429619
  0
VERTEX
  8
51
 62
7
  6
CONTINUOUS
 10
-2846.00062124653
 20
1864.40851461878
  0
VERTEX
  8
51
 62
7
  6
CONTINUOUS
 10
-2832.87296958399
 20
1843.33874271951
  0
VERTEX
  8
51
 62
7
  6
CONTINUOUS
 10
-2826.05433940499
 20
1822.59456543291
  0
VERTEX
  8
51
 62
7
  6
CONTINUOUS
 10
-2823.5874589086
 20
1804.63936663549
  0
VERTEX
  8
51
 62
7
  6
CONTINUOUS
 10
-2825.83319144421
 20
1777.56578406565
  0
VERTEX
  8
51
 62
7
  6
CONTINUOUS
 10
-2831.00612245762
 20
1758.89894761097
  0
VERTEX
  8
51
 62
7
  6
CONTINUOUS
 10
-2836.68555523664
 20
1746.13710366438
  0
VERTEX
  8
51
 62
7
  6
CONTINUOUS
 10
-2848.35260211259
 20
1727.67137966181
  0
VERTEX
  8
51
 62
7
  6
CONTINUOUS
 10
-2861.88564060233
 20
1715.95385527057
  0
VERTEX
  8
51
 62
7
  6
CONTINUOUS
 10
-2876.03509977863
 20
1710.18812834596
  0
VERTEX
  8
51
 62
7
  6
CONTINUOUS
 10
-2901.26587581727
 20
1705.34881519394
  0
VERTEX
  8
51
 62
7
  6
CONTINUOUS
 10
-2923.10838631467
 20
1707.19775810275
  0
VERTEX
  8
51
 62
7
  6
CONTINUOUS
 10
-2938.86996241211
 20
1711.51204996112
  0
VERTEX
  8
51
 62
7
  6
CONTINUOUS
 10
-2968.19829093508
 20
1724.39431463579
  0
VERTEX
  8
51
 62
7
  6
CONTINUOUS
 10
-2986.39458694561
 20
1737.11818056411
  0
VERTEX
  8
51
 62
7
  6
CONTINUOUS
 10
-3002.01453693371
 20
1753.60902988762
  0
VERTEX
  8
51
 62
7
  6
CONTINUOUS
 10
-3011.26978705921
 20
1769.05776555944
  0
VERTEX
  8
51
 62
7
  6
CONTINUOUS
 10
-3019.26395127052
 20
1789.06966167246
  0
VERTEX
  8
51
 62
7
  6
CONTINUOUS
 10
-3022.31995967201
 20
1807.40857355986
  0
VERTEX
  8
51
 62
7
  6
CONTINUOUS
 10
-3022.3087020512
 20
1824.30704936783
  0
VERTEX
  8
51
 62
7
  6
CONTINUOUS
 10
-3020.22657576346
 20
1842.19816888113
  0
VERTEX
  8
51
 62
7
  6
CONTINUOUS
 10
-3012.63632778142
 20
1875.9723315251
  0
VERTEX
  8
51
 62
7
  6
CONTINUOUS
 10
-3001.29528836054
 20
1912.08817014913
  0
VERTEX
  8
51
 62
7
  6
CONTINUOUS
 10
-3010.83595461459
 20
1915.08411531366
  0
VERTEX
  8
51
 62
7
  6
CONTINUOUS
 10
-3022.23934949149
 20
1878.76970409824
  0
VERTEX
  8
51
 62
7
  6
CONTINUOUS
 10
-3022.30170494751
 20
1878.57113150684
  0
VERTEX
  8
51
 62
7
  6
CONTINUOUS
 10
-3022.34734148757
 20
1878.36806357938
  0
VERTEX
  8
51
 62
7
  6
CONTINUOUS
 10
-3030.09867327841
 20
1843.87712978764
  0
VERTEX
  8
51
 62
7
  6
CONTINUOUS
 10
-3032.30831571348
 20
1824.89030025667
  0
SEQEND
  0
POLYLINE
  8
51
 62
7
 66
1
 70
1
  0
VERTEX
  8
51
 62
7
  6
CONTINUOUS
 10
-3244.47085285007
 20
1832.94553043408
  0
VERTEX
  8
51
 62
7
  6
CONTINUOUS
 10
-3237.49084426471
 20
1823.63885232026
  0
VERTEX
  8
51
 62
7
  6
CONTINUOUS
 10
-3237.49084426471
 20
1803.40996796454
  0
VERTEX
  8
51
 62
7
  6
CONTINUOUS
 10
-3234.65336732278
 20
1792.06006019682
  0
VERTEX
  8
51
 62
7
  6
CONTINUOUS
 10
-3226.34626774207
 20
1764.36972826112
  0
VERTEX
  8
51
 62
7
  6
CONTINUOUS
 10
-3211.72236098314
 20
1746.8210401504
  0
VERTEX
  8
51
 62
7
  6
CONTINUOUS
 10
-3193.7711412254
 20
1737.84543027153
  0
VERTEX
  8
51
 62
7
  6
CONTINUOUS
 10
-3182.30612895008
 20
1737.84543027153
  0
VERTEX
  8
51
 62
7
  6
CONTINUOUS
 10
-3163.68610891758
 20
1735.18542740974
  0
VERTEX
  8
51
 62
7
  6
CONTINUOUS
 10
-3134.65967342851
 20
1735.18542740974
  0
VERTEX
  8
51
 62
7
  6
CONTINUOUS
 10
-3119.00382277302
 20
1750.84127806523
  0
VERTEX
  8
51
 62
7
  6
CONTINUOUS
 10
-3110.45071834608
 20
1779.35162615503
  0
VERTEX
  8
51
 62
7
  6
CONTINUOUS
 10
-3110.45071834608
 20
1803.61168344114
  0
VERTEX
  8
51
 62
7
  6
CONTINUOUS
 10
-3107.83634447123
 20
1819.29792669026
  0
VERTEX
  8
51
 62
7
  6
CONTINUOUS
 10
-3105.16129394914
 20
1843.37338138907
  0
VERTEX
  8
51
 62
7
  6
CONTINUOUS
 10
-3105.15369688809
 20
1843.44175493858
  0
VERTEX
  8
51
 62
7
  6
CONTINUOUS
 10
-3105.14798383128
 20
1843.51031162017
  0
VERTEX
  8
51
 62
7
  6
CONTINUOUS
 10
-3102.47070976072
 20
1875.63760046692
  0
VERTEX
  8
51
 62
7
  6
CONTINUOUS
 10
-3102.47070976072
 20
1927.41191624461
  0
VERTEX
  8
51
 62
7
  6
CONTINUOUS
 10
-3110.69717457509
 20
1946.60700081148
  0
VERTEX
  8
51
 62
7
  6
CONTINUOUS
 10
-3113.50489815983
 20
1957.83789515045
  0
VERTEX
  8
51
 62
7
  6
CONTINUOUS
 10
-3123.15585166894
 20
1970.7058331626
  0
VERTEX
  8
51
 62
7
  6
CONTINUOUS
 10
-3146.15807456234
 20
1976.45638888595
  0
VERTEX
  8
51
 62
7
  6
CONTINUOUS
 10
-3146.40830580109
 20
1976.51894669564
  0
VERTEX
  8
51
 62
7
  6
CONTINUOUS
 10
-3165.63543366071
 20
1979.26567924701
  0
VERTEX
  8
51
 62
7
  6
CONTINUOUS
 10
-3192.00186628799
 20
1979.26567924701
  0
VERTEX
  8
51
 62
7
  6
CONTINUOUS
 10
-3202.17203653212
 20
1969.09550900286
  0
VERTEX
  8
51
 62
7
  6
CONTINUOUS
 10
-3207.62759451463
 20
1955.45661404661
  0
VERTEX
  8
51
 62
7
  6
CONTINUOUS
 10
-3215.36558084465
 20
1945.13929893993
  0
VERTEX
  8
51
 62
7
  6
CONTINUOUS
 10
-3223.34558943
 20
1931.83928463099
  0
VERTEX
  8
51
 62
7
  6
CONTINUOUS
 10
-3231.44134837239
 20
1921.04493937448
  0
VERTEX
  8
51
 62
7
  6
CONTINUOUS
 10
-3234.30297735793
 20
1915.3216814034
  0
VERTEX
  8
51
 62
7
  6
CONTINUOUS
 10
-3225.35870544793
 20
1910.84954544841
  0
VERTEX
  8
51
 62
7
  6
CONTINUOUS
 10
-3222.90032870989
 20
1915.76629892448
  0
VERTEX
  8
51
 62
7
  6
CONTINUOUS
 10
-3215.03607048155
 20
1926.25197656226
  0
VERTEX
  8
51
 62
7
  6
CONTINUOUS
 10
-3207.05606189619
 20
1939.5519908712
  0
VERTEX
  8
51
 62
7
  6
CONTINUOUS
 10
-3198.83403105548
 20
1950.51469865881
  0
VERTEX
  8
51
 62
7
  6
CONTINUOUS
 10
-3193.64957759083
 20
1963.47583232043
  0
VERTEX
  8
51
 62
7
  6
CONTINUOUS
 10
-3187.85973066425
 20
1969.26567924701
  0
VERTEX
  8
51
 62
7
  6
CONTINUOUS
 10
-3166.34611177936
 20
1969.26567924701
  0
VERTEX
  8
51
 62
7
  6
CONTINUOUS
 10
-3148.33319957396
 20
1966.69240607481
  0
VERTEX
  8
51
 62
7
  6
CONTINUOUS
 10
-3129.02560791752
 20
1961.8655081607
  0
VERTEX
  8
51
 62
7
  6
CONTINUOUS
 10
-3122.7165442559
 20
1953.45342327854
  0
VERTEX
  8
51
 62
7
  6
CONTINUOUS
 10
-3120.20426211707
 20
1943.40429472322
  0
VERTEX
  8
51
 62
7
  6
CONTINUOUS
 10
-3112.47070976072
 20
1925.35933922507
  0
VERTEX
  8
51
 62
7
  6
CONTINUOUS
 10
-3112.47070976072
 20
1876.05354625485
  0
VERTEX
  8
51
 62
7
  6
CONTINUOUS
 10
-3115.10772835693
 20
1844.40932310031
  0
VERTEX
  8
51
 62
7
  6
CONTINUOUS
 10
-3117.74508649736
 20
1820.67309983645
  0
VERTEX
  8
51
 62
7
  6
CONTINUOUS
 10
-3120.45071834608
 20
1804.43930874413
  0
VERTEX
  8
51
 62
7
  6
CONTINUOUS
 10
-3120.45071834608
 20
1780.81931451807
  0
VERTEX
  8
51
 62
7
  6
CONTINUOUS
 10
-3127.85763108986
 20
1756.12960537212
  0
VERTEX
  8
51
 62
7
  6
CONTINUOUS
 10
-3138.80180905224
 20
1745.18542740974
  0
VERTEX
  8
51
 62
7
  6
CONTINUOUS
 10
-3162.97543079892
 20
1745.18542740974
  0
VERTEX
  8
51
 62
7
  6
CONTINUOUS
 10
-3181.59545083143
 20
1747.84543027153
  0
VERTEX
  8
51
 62
7
  6
CONTINUOUS
 10
-3191.41046145041
 20
1747.84543027153
  0
VERTEX
  8
51
 62
7
  6
CONTINUOUS
 10
-3205.37927603412
 20
1754.82983756339
  0
VERTEX
  8
51
 62
7
  6
CONTINUOUS
 10
-3217.35539789306
 20
1769.20118379412
  0
VERTEX
  8
51
 62
7
  6
CONTINUOUS
 10
-3225.00831548307
 20
1794.71090909414
  0
VERTEX
  8
51
 62
7
  6
CONTINUOUS
 10
-3227.49084426471
 20
1804.64102422072
  0
VERTEX
  8
51
 62
7
  6
CONTINUOUS
 10
-3227.49084426471
 20
1826.9721856536
  0
VERTEX
  8
51
 62
7
  6
CONTINUOUS
 10
-3236.47085285007
 20
1838.94553043408
  0
SEQEND
  0
POLYLINE
  8
51
 62
7
 66
1
 70
1
  0
VERTEX
  8
51
 62
7
  6
CONTINUOUS
 10
-2807.73410257838
 20
1329.79560636616
  0
VERTEX
  8
51
 62
7
  6
CONTINUOUS
 10
-2807.30654531216
 20
1309.98351435083
  0
VERTEX
  8
51
 62
7
  6
CONTINUOUS
 10
-2800.81190203079
 20
1273.76172269763
  0
VERTEX
  8
51
 62
7
  6
CONTINUOUS
 10
-2777.7363081407
 20
1213.02537968507
  0
VERTEX
  8
51
 62
7
  6
CONTINUOUS
 10
-2778.1172374199
 20
1213.35566126835
  0
VERTEX
  8
51
 62
7
  6
CONTINUOUS
 10
-2776.6197144534
 20
1208.32614045968
  0
VERTEX
  8
51
 62
7
  6
CONTINUOUS
 10
-2769.12884686593
 20
1198.36773606806
  0
VERTEX
  8
51
 62
7
  6
CONTINUOUS
 10
-2753.89147444055
 20
1186.09627271563
  0
VERTEX
  8
51
 62
7
  6
CONTINUOUS
 10
-2731.41458543915
 20
1176.23625908183
  0
VERTEX
  8
51
 62
7
  6
CONTINUOUS
 10
-2707.58953828837
 20
1175.51995695071
  0
VERTEX
  8
51
 62
7
  6
CONTINUOUS
 10
-2681.24835728738
 20
1181.96591615579
  0
VERTEX
  8
51
 62
7
  6
CONTINUOUS
 10
-2640.68184006229
 20
1431.86783459896
  0
VERTEX
  8
51
 62
7
  6
CONTINUOUS
 10
-2655.61360202561
 20
1447.92383259194
  0
VERTEX
  8
51
 62
7
  6
CONTINUOUS
 10
-2668.41311844586
 20
1457.65477382122
  0
VERTEX
  8
51
 62
7
  6
CONTINUOUS
 10
-2692.66768104311
 20
1469.03916817734
  0
VERTEX
  8
51
 62
7
  6
CONTINUOUS
 10
-2713.21597052673
 20
1470.49136861031
  0
VERTEX
  8
51
 62
7
  6
CONTINUOUS
 10
-2736.38216247929
 20
1463.99392948271
  0
VERTEX
  8
51
 62
7
  6
CONTINUOUS
 10
-2751.3957433303
 20
1453.8117443955
  0
VERTEX
  8
51
 62
7
  6
CONTINUOUS
 10
-2768.01060114376
 20
1438.60070210516
  0
VERTEX
  8
51
 62
7
  6
CONTINUOUS
 10
-2784.57622550257
 20
1416.07444910377
  0
VERTEX
  8
51
 62
7
  6
CONTINUOUS
 10
-2794.79175753737
 20
1393.97863624509
  0
VERTEX
  8
51
 62
7
  6
CONTINUOUS
 10
-2801.78152772187
 20
1371.704332588
  0
VERTEX
  8
51
 62
7
  6
CONTINUOUS
 10
-2805.87621471477
 20
1347.01640889584
  0
SEQEND
  0
POLYLINE
  8
51
 62
7
 66
1
 70
1
  0
VERTEX
  8
51
 62
7
  6
CONTINUOUS
 10
-3031.13991365614
 20
2112.39474950343
  0
VERTEX
  8
51
 62
7
  6
CONTINUOUS
 10
-3014.75669022567
 20
2090.93298996333
  0
VERTEX
  8
51
 62
7
  6
CONTINUOUS
 10
-2995.19982120239
 20
2072.38205017941
  0
VERTEX
  8
51
 62
7
  6
CONTINUOUS
 10
-2995.07532821427
 20
2072.26396062615
  0
VERTEX
  8
51
 62
7
  6
CONTINUOUS
 10
-2983.78058566079
 20
2062.93444793717
  0
VERTEX
  8
51
 62
7
  6
CONTINUOUS
 10
-2970.24270262987
 20
2053.36630909852
  0
VERTEX
  8
51
 62
7
  6
CONTINUOUS
 10
-2950.05200047772
 20
2041.6480813674
  0
VERTEX
  8
51
 62
7
  6
CONTINUOUS
 10
-2935.8833468422
 20
2035.03498858673
  0
VERTEX
  8
51
 62
7
  6
CONTINUOUS
 10
-2911.97048167932
 20
2026.09142820424
  0
VERTEX
  8
51
 62
7
  6
CONTINUOUS
 10
-2900.16580402471
 20
2022.72873494706
  0
VERTEX
  8
51
 62
7
  6
CONTINUOUS
 10
-2864.25072433457
 20
2013.80788152282
  0
VERTEX
  8
51
 62
7
  6
CONTINUOUS
 10
-2846.26543294557
 20
2011.286089914
  0
VERTEX
  8
51
 62
7
  6
CONTINUOUS
 10
-2830.6174797515
 20
2010.70757388052
  0
VERTEX
  8
51
 62
7
  6
CONTINUOUS
 10
-2830.24802499694
 20
2020.70074670922
  0
VERTEX
  8
51
 62
7
  6
CONTINUOUS
 10
-2845.38412043612
 20
2021.26033899502
  0
VERTEX
  8
51
 62
7
  6
CONTINUOUS
 10
-2862.3459724095
 20
2023.63862995797
  0
VERTEX
  8
51
 62
7
  6
CONTINUOUS
 10
-2897.58993357167
 20
2032.39278599298
  0
VERTEX
  8
51
 62
7
  6
CONTINUOUS
 10
-2908.84408511411
 20
2035.59865578581
  0
VERTEX
  8
51
 62
7
  6
CONTINUOUS
 10
-2932.01109998935
 20
2044.26326351924
  0
VERTEX
  8
51
 62
7
  6
CONTINUOUS
 10
-2945.41827807508
 20
2050.52094437507
  0
VERTEX
  8
51
 62
7
  6
CONTINUOUS
 10
-2964.836270311
 20
2061.79070871447
  0
VERTEX
  8
51
 62
7
  6
CONTINUOUS
 10
-2977.7019612133
 20
2070.88376384925
  0
VERTEX
  8
51
 62
7
  6
CONTINUOUS
 10
-2988.44229814518
 20
2079.75533477842
  0
VERTEX
  8
51
 62
7
  6
CONTINUOUS
 10
-3007.29379480567
 20
2097.63718380901
  0
VERTEX
  8
51
 62
7
  6
CONTINUOUS
 10
-3023.19120722884
 20
2118.46253873285
  0
SEQEND
  0
POLYLINE
  8
51
 62
7
 66
1
 70
1
  0
VERTEX
  8
51
 62
7
  6
CONTINUOUS
 10
-2776.01714355064
 20
1794.44152621917
  0
VERTEX
  8
51
 62
7
  6
CONTINUOUS
 10
-2774.55260618936
 20
1768.87065346011
  0
VERTEX
  8
51
 62
7
  6
CONTINUOUS
 10
-2764.56896730683
 20
1769.44245295568
  0
VERTEX
  8
51
 62
7
  6
CONTINUOUS
 10
-2766.01695292893
 20
1794.72433177875
  0
VERTEX
  8
51
 62
7
  6
CONTINUOUS
 10
-2766.00027905465
 20
1819.75298266702
  0
VERTEX
  8
51
 62
7
  6
CONTINUOUS
 10
-2761.04593537728
 20
1901.12240786554
  0
VERTEX
  8
51
 62
7
  6
CONTINUOUS
 10
-2760.4583567165
 20
1941.92886989101
  0
VERTEX
  8
51
 62
7
  6
CONTINUOUS
 10
-2770.45732019904
 20
1942.07284653786
  0
VERTEX
  8
51
 62
7
  6
CONTINUOUS
 10
-2771.04155700774
 20
1901.49847115776
  0
VERTEX
  8
51
 62
7
  6
CONTINUOUS
 10
-2775.9909353533
 20
1820.21059585184
  0
VERTEX
  8
51
 62
7
  6
CONTINUOUS
 10
-2776.0000764322
 20
1820.06046409193
  0
SEQEND
  0
POLYLINE
  8
51
 62
7
 66
1
 70
1
  0
VERTEX
  8
51
 62
7
  6
CONTINUOUS
 10
-2704.40563136397
 20
1844.84167383793
  0
VERTEX
  8
51
 62
7
  6
CONTINUOUS
 10
-2701.9925980569
 20
1844.89086630694
  0
VERTEX
  8
51
 62
7
  6
CONTINUOUS
 10
-2694.32513324734
 20
1839.88195719675
  0
VERTEX
  8
51
 62
7
  6
CONTINUOUS
 10
-2689.42293433516
 20
1839.87869139354
  0
VERTEX
  8
51
 62
7
  6
CONTINUOUS
 10
-2669.46062008036
 20
1836.74119197635
  0
VERTEX
  8
51
 62
7
  6
CONTINUOUS
 10
-2615.28967440211
 20
1825.83390134085
  0
VERTEX
  8
51
 62
7
  6
CONTINUOUS
 10
-2592.07565323096
 20
1823.45623583327
  0
VERTEX
  8
51
 62
7
  6
CONTINUOUS
 10
-2507.32084689006
 20
1815.93217124529
  0
VERTEX
  8
51
 62
7
  6
CONTINUOUS
 10
-2440.82472768551
 20
1814.28767174134
  0
VERTEX
  8
51
 62
7
  6
CONTINUOUS
 10
-2409.12494247562
 20
1815.15555381141
  0
VERTEX
  8
51
 62
7
  6
CONTINUOUS
 10
-2348.43889037392
 20
1823.31932710039
  0
VERTEX
  8
51
 62
7
  6
CONTINUOUS
 10
-2326.31099422802
 20
1830.06098718353
  0
VERTEX
  8
51
 62
7
  6
CONTINUOUS
 10
-2313.02077320724
 20
1839.09453535793
  0
VERTEX
  8
51
 62
7
  6
CONTINUOUS
 10
-2314.03240729667
 20
1845.64841075414
  0
VERTEX
  8
51
 62
7
  6
CONTINUOUS
 10
-2325.12936206187
 20
1849.92300439791
  0
VERTEX
  8
51
 62
7
  6
CONTINUOUS
 10
-2341.94266925969
 20
1852.16940577612
  0
VERTEX
  8
51
 62
7
  6
CONTINUOUS
 10
-2388.0427452816
 20
1853.5717175589
  0
VERTEX
  8
51
 62
7
  6
CONTINUOUS
 10
-2475.85076269425
 20
1853.27461443411
  0
VERTEX
  8
51
 62
7
  6
CONTINUOUS
 10
-2622.35933464816
 20
1851.2640167304
  0
VERTEX
  8
51
 62
7
  6
CONTINUOUS
 10
-2699.37580639334
 20
1845.77812321987
  0
SEQEND
  0
POLYLINE
  8
51
 62
7
 66
1
 70
1
  0
VERTEX
  8
51
 62
7
  6
CONTINUOUS
 10
-2652.22005733925
 20
2132.69057213561
  0
VERTEX
  8
51
 62
7
  6
CONTINUOUS
 10
-2638.06814742961
 20
2100.72793716303
  0
VERTEX
  8
51
 62
7
  6
CONTINUOUS
 10
-2624.69783335301
 20
2077.47802481623
  0
VERTEX
  8
51
 62
7
  6
CONTINUOUS
 10
-2606.17428164112
 20
2049.77967844
  0
VERTEX
  8
51
 62
7
  6
CONTINUOUS
 10
-2581.60781564081
 20
2018.64830556476
  0
VERTEX
  8
51
 62
7
  6
CONTINUOUS
 10
-2549.244600489
 20
1985.93693821211
  0
VERTEX
  8
51
 62
7
  6
CONTINUOUS
 10
-2513.65331860416
 20
1956.62702110415
  0
VERTEX
  8
51
 62
7
  6
CONTINUOUS
 10
-2474.96031002895
 20
1931.70923862736
  0
VERTEX
  8
51
 62
7
  6
CONTINUOUS
 10
-2436.82259862888
 20
1912.04962725156
  0
VERTEX
  8
51
 62
7
  6
CONTINUOUS
 10
-2400.73907173285
 20
1897.21738542692
  0
VERTEX
  8
51
 62
7
  6
CONTINUOUS
 10
-2369.60622552508
 20
1885.86824247582
  0
VERTEX
  8
51
 62
7
  6
CONTINUOUS
 10
-2344.28772749898
 20
1877.90117374365
  0
VERTEX
  8
51
 62
7
  6
CONTINUOUS
 10
-2325.97666669672
 20
1874.38377429291
  0
SEQEND
  0
POLYLINE
  8
51
 62
7
 66
1
 70
1
  0
VERTEX
  8
51
 62
7
  6
CONTINUOUS
 10
-2583.24007752499
 20
1856.14015690197
  0
VERTEX
  8
51
 62
7
  6
CONTINUOUS
 10
-2323.08650616115
 20
2094.9808978448
  0
VERTEX
  8
51
 62
7
  6
CONTINUOUS
 10
-2341.42807717834
 20
2090.82751591899
  0
VERTEX
  8
51
 62
7
  6
CONTINUOUS
 10
-2366.20026321842
 20
2080.04901654308
  0
VERTEX
  8
51
 62
7
  6
CONTINUOUS
 10
-2401.7225523941
 20
2060.41307682732
  0
VERTEX
  8
51
 62
7
  6
CONTINUOUS
 10
-2424.51765074003
 20
2043.46105896277
  0
VERTEX
  8
51
 62
7
  6
CONTINUOUS
 10
-2455.04140353798
 20
2015.92238751168
  0
VERTEX
  8
51
 62
7
  6
CONTINUOUS
 10
-2491.51518509587
 20
1978.73567777728
  0
VERTEX
  8
51
 62
7
  6
CONTINUOUS
 10
-2514.11344588071
 20
1952.23312666193
  0
VERTEX
  8
51
 62
7
  6
CONTINUOUS
 10
-2536.84046644841
 20
1923.08906073907
  0
VERTEX
  8
51
 62
7
  6
CONTINUOUS
 10
-2557.86585660636
 20
1893.68986114814
  0
SEQEND
  0
POLYLINE
  8
51
 62
7
 66
1
 70
1
  0
VERTEX
  8
51
 62
7
  6
CONTINUOUS
 10
-2727.84170277382
 20
1818.92388099452
  0
VERTEX
  8
51
 62
7
  6
CONTINUOUS
 10
-2723.60206963639
 20
1815.66985586554
  0
VERTEX
  8
51
 62
7
  6
CONTINUOUS
 10
-2701.95458935794
 20
1787.56302826449
  0
VERTEX
  8
51
 62
7
  6
CONTINUOUS
 10
-2667.74005123181
 20
1750.53242661804
  0
VERTEX
  8
51
 62
7
  6
CONTINUOUS
 10
-2639.79120642989
 20
1725.67260182301
  0
VERTEX
  8
51
 62
7
  6
CONTINUOUS
 10
-2607.77773644316
 20
1701.74986941782
  0
VERTEX
  8
51
 62
7
  6
CONTINUOUS
 10
-2573.90969460017
 20
1678.38470163663
  0
VERTEX
  8
51
 62
7
  6
CONTINUOUS
 10
-2541.10632044167
 20
1658.22064383819
  0
VERTEX
  8
51
 62
7
  6
CONTINUOUS
 10
-2505.20269174244
 20
1640.23892116128
  0
VERTEX
  8
51
 62
7
  6
CONTINUOUS
 10
-2473.97002228953
 20
1626.22271111696
  0
VERTEX
  8
51
 62
7
  6
CONTINUOUS
 10
-2450.92492317849
 20
1617.3496579387
  0
VERTEX
  8
51
 62
7
  6
CONTINUOUS
 10
-2443.68618987457
 20
1616.10350774121
  0
SEQEND
  0
POLYLINE
  8
51
 62
7
 66
1
 70
1
  0
VERTEX
  8
51
 62
7
  6
CONTINUOUS
 10
-2687.79366308487
 20
1553.2145817183
  0
VERTEX
  8
51
 62
7
  6
CONTINUOUS
 10
-2320.80877288435
 20
1815.68091846028
  0
VERTEX
  8
51
 62
7
  6
CONTINUOUS
 10
-2380.43809337256
 20
1792.40343783202
  0
VERTEX
  8
51
 62
7
  6
CONTINUOUS
 10
-2409.27602140061
 20
1779.01144643829
  0
VERTEX
  8
51
 62
7
  6
CONTINUOUS
 10
-2440.1219872905
 20
1763.4617923032
  0
VERTEX
  8
51
 62
7
  6
CONTINUOUS
 10
-2474.2216737267
 20
1744.12970492924
  0
VERTEX
  8
51
 62
7
  6
CONTINUOUS
 10
-2533.65894537043
 20
1704.11349264528
  0
VERTEX
  8
51
 62
7
  6
CONTINUOUS
 10
-2563.23973410128
 20
1681.32399405356
  0
VERTEX
  8
51
 62
7
  6
CONTINUOUS
 10
-2588.39989161599
 20
1660.08095081875
  0
VERTEX
  8
51
 62
7
  6
CONTINUOUS
 10
-2622.82973134464
 20
1628.53707147168
  0
VERTEX
  8
51
 62
7
  6
CONTINUOUS
 10
-2649.98817262643
 20
1601.26328680467
  0
VERTEX
  8
51
 62
7
  6
CONTINUOUS
 10
-2662.36102384035
 20
1587.01653611413
  0
VERTEX
  8
51
 62
7
  6
CONTINUOUS
 10
-2676.9952201988
 20
1569.29046960906
  0
SEQEND
  0
POLYLINE
  8
51
 62
7
 66
1
 70
1
  0
VERTEX
  8
51
 62
7
  6
CONTINUOUS
 10
-2374.91724476005
 20
1839.10047530152
  0
VERTEX
  8
51
 62
7
  6
CONTINUOUS
 10
-2372.50065064286
 20
1830.59140584298
  0
VERTEX
  8
51
 62
7
  6
CONTINUOUS
 10
-2367.73115028475
 20
1819.86171979137
  0
VERTEX
  8
51
 62
7
  6
CONTINUOUS
 10
-2359.16404115887
 20
1809.70273711624
  0
VERTEX
  8
51
 62
7
  6
CONTINUOUS
 10
-2349.52150608804
 20
1802.71331726772
  0
VERTEX
  8
51
 62
7
  6
CONTINUOUS
 10
-2336.74716526311
 20
1796.96307362152
  0
VERTEX
  8
51
 62
7
  6
CONTINUOUS
 10
-2323.37525398195
 20
1795.82991467128
  0
VERTEX
  8
51
 62
7
  6
CONTINUOUS
 10
-2311.92081832828
 20
1799.71827241827
  0
VERTEX
  8
51
 62
7
  6
CONTINUOUS
 10
-2301.64133275002
 20
1806.49348797545
  0
VERTEX
  8
51
 62
7
  6
CONTINUOUS
 10
-2295.06511950147
 20
1815.6696487112
  0
VERTEX
  8
51
 62
7
  6
CONTINUOUS
 10
-2290.90470081642
 20
1825.84621806943
  0
VERTEX
  8
51
 62
7
  6
CONTINUOUS
 10
-2290.35806662024
 20
1837.40301887136
  0
VERTEX
  8
51
 62
7
  6
CONTINUOUS
 10
-2294.16880210121
 20
1849.436061315
  0
VERTEX
  8
51
 62
7
  6
CONTINUOUS
 10
-2299.71169968266
 20
1858.88518800451
  0
VERTEX
  8
51
 62
7
  6
CONTINUOUS
 10
-2308.70758476391
 20
1865.84613011517
  0
VERTEX
  8
51
 62
7
  6
CONTINUOUS
 10
-2318.86502985839
 20
1867.66197242978
  0
VERTEX
  8
51
 62
7
  6
CONTINUOUS
 10
-2327.96634765495
 20
1863.52232081344
  0
VERTEX
  8
51
 62
7
  6
CONTINUOUS
 10
-2329.047894639
 20
1861.77385115335
  0
VERTEX
  8
51
 62
7
  6
CONTINUOUS
 10
-2328.53521150203
 20
1865.0576971109
  0
VERTEX
  8
51
 62
7
  6
CONTINUOUS
 10
-2338.41552349527
 20
1866.60023881733
  0
VERTEX
  8
51
 62
7
  6
CONTINUOUS
 10
-2339.26359767428
 20
1861.16814097061
  0
VERTEX
  8
51
 62
7
  6
CONTINUOUS
 10
-2337.72751613622
 20
1835.18105662336
  0
VERTEX
  8
51
 62
7
  6
CONTINUOUS
 10
-2337.81034950385
 20
1834.63516240845
  0
VERTEX
  8
51
 62
7
  6
CONTINUOUS
 10
-2337.81667771886
 20
1825.13606930322
  0
VERTEX
  8
51
 62
7
  6
CONTINUOUS
 10
-2335.03241265922
 20
1822.23198373031
  0
VERTEX
  8
51
 62
7
  6
CONTINUOUS
 10
-2331.01270571415
 20
1822.06524737276
  0
VERTEX
  8
51
 62
7
  6
CONTINUOUS
 10
-2327.99749767304
 20
1824.72877236906
  0
VERTEX
  8
51
 62
7
  6
CONTINUOUS
 10
-2327.4702835455
 20
1831.12454251734
  0
VERTEX
  8
51
 62
7
  6
CONTINUOUS
 10
-2327.68286478121
 20
1834.72094437891
  0
VERTEX
  8
51
 62
7
  6
CONTINUOUS
 10
-2326.64499956281
 20
1841.56075585547
  0
VERTEX
  8
51
 62
7
  6
CONTINUOUS
 10
-2323.65342484679
 20
1851.4855000991
  0
VERTEX
  8
51
 62
7
  6
CONTINUOUS
 10
-2321.06028273911
 20
1855.67767146697
  0
VERTEX
  8
51
 62
7
  6
CONTINUOUS
 10
-2317.55937912652
 20
1857.27002563177
  0
VERTEX
  8
51
 62
7
  6
CONTINUOUS
 10
-2312.88498732371
 20
1856.43438651666
  0
VERTEX
  8
51
 62
7
  6
CONTINUOUS
 10
-2307.35955482595
 20
1852.15885215779
  0
VERTEX
  8
51
 62
7
  6
CONTINUOUS
 10
-2303.36288413317
 20
1845.34562006078
  0
VERTEX
  8
51
 62
7
  6
CONTINUOUS
 10
-2300.43140112941
 20
1836.08896617252
  0
VERTEX
  8
51
 62
7
  6
CONTINUOUS
 10
-2300.81222994315
 20
1828.0375804911
  0
VERTEX
  8
51
 62
7
  6
CONTINUOUS
 10
-2303.87718685442
 20
1820.54055941014
  0
VERTEX
  8
51
 62
7
  6
CONTINUOUS
 10
-2308.69076378962
 20
1813.82390439881
  0
VERTEX
  8
51
 62
7
  6
CONTINUOUS
 10
-2316.35155953929
 20
1808.7746689922
  0
VERTEX
  8
51
 62
7
  6
CONTINUOUS
 10
-2324.61198672447
 20
1805.97055912507
  0
VERTEX
  8
51
 62
7
  6
CONTINUOUS
 10
-2334.20038433224
 20
1806.78309656562
  0
VERTEX
  8
51
 62
7
  6
CONTINUOUS
 10
-2344.48233451534
 20
1811.41141512398
  0
VERTEX
  8
51
 62
7
  6
CONTINUOUS
 10
-2352.30656877912
 20
1817.08283429551
  0
VERTEX
  8
51
 62
7
  6
CONTINUOUS
 10
-2359.17047291902
 20
1825.22213568835
  0
VERTEX
  8
51
 62
7
  6
CONTINUOUS
 10
-2363.07477510548
 20
1834.00543237896
  0
VERTEX
  8
51
 62
7
  6
CONTINUOUS
 10
-2364.81403341808
 20
1840.12953476053
  0
VERTEX
  8
51
 62
7
  6
CONTINUOUS
 10
-2364.53556963191
 20
1843.90068610587
  0
VERTEX
  8
51
 62
7
  6
CONTINUOUS
 10
-2364.08191065895
 20
1844.44746370981
  0
VERTEX
  8
51
 62
7
  6
CONTINUOUS
 10
-2364.47133702076
 20
1844.77056904928
  0
VERTEX
  8
51
 62
7
  6
CONTINUOUS
 10
-2364.41785212783
 20
1845.49489887573
  0
VERTEX
  8
51
 62
7
  6
CONTINUOUS
 10
-2364.65004221312
 20
1844.91883996134
  0
VERTEX
  8
51
 62
7
  6
CONTINUOUS
 10
-2371.7778741395
 20
1850.8327707585
  0
VERTEX
  8
51
 62
7
  6
CONTINUOUS
 10
-2374.27298348915
 20
1847.82551201771
  0
SEQEND
  0
POLYLINE
  8
51
 62
7
 66
1
 70
1
  0
VERTEX
  8
51
 62
7
  6
CONTINUOUS
 10
-3104.99062436622
 20
1657.18857459485
  0
VERTEX
  8
51
 62
7
  6
CONTINUOUS
 10
-3103.35311873208
 20
1643.50992903824
  0
VERTEX
  8
51
 62
7
  6
CONTINUOUS
 10
-3099.6318641289
 20
1626.47415990256
  0
VERTEX
  8
51
 62
7
  6
CONTINUOUS
 10
-3093.63602971358
 20
1610.24686121303
  0
VERTEX
  8
51
 62
7
  6
CONTINUOUS
 10
-3081.96173780227
 20
1592.39396301122
  0
VERTEX
  8
51
 62
7
  6
CONTINUOUS
 10
-3072.43523420783
 20
1579.89524550172
  0
VERTEX
  8
51
 62
7
  6
CONTINUOUS
 10
-3057.50237530677
 20
1570.27717425537
  0
VERTEX
  8
51
 62
7
  6
CONTINUOUS
 10
-3040.73769919321
 20
1564.49223412929
  0
VERTEX
  8
51
 62
7
  6
CONTINUOUS
 10
-3025.12309942756
 20
1564.07286835056
  0
VERTEX
  8
51
 62
7
  6
CONTINUOUS
 10
-3008.80539826239
 20
1567.21875027954
  0
VERTEX
  8
51
 62
7
  6
CONTINUOUS
 10
-2989.95380075523
 20
1575.18763629913
  0
VERTEX
  8
51
 62
7
  6
CONTINUOUS
 10
-2976.39140000606
 20
1582.59369776983
  0
VERTEX
  8
51
 62
7
  6
CONTINUOUS
 10
-2960.67261841212
 20
1596.11519044961
  0
VERTEX
  8
51
 62
7
  6
CONTINUOUS
 10
-2951.237997607
 20
1610.89836272522
  0
VERTEX
  8
51
 62
7
  6
CONTINUOUS
 10
-2946.82425268753
 20
1626.66093130214
  0
VERTEX
  8
51
 62
7
  6
CONTINUOUS
 10
-2951.02989419506
 20
1659.5627964814
  0
VERTEX
  8
51
 62
7
  6
CONTINUOUS
 10
-2960.94918723595
 20
1658.29487472952
  0
VERTEX
  8
51
 62
7
  6
CONTINUOUS
 10
-2957.00066939433
 20
1627.40455717621
  0
VERTEX
  8
51
 62
7
  6
CONTINUOUS
 10
-2960.46695113796
 20
1615.02561260922
  0
VERTEX
  8
51
 62
7
  6
CONTINUOUS
 10
-2968.31012832608
 20
1602.7360842906
  0
VERTEX
  8
51
 62
7
  6
CONTINUOUS
 10
-2982.11158544496
 20
1590.8638981235
  0
VERTEX
  8
51
 62
7
  6
CONTINUOUS
 10
-2994.30779752703
 20
1584.2038754579
  0
VERTEX
  8
51
 62
7
  6
CONTINUOUS
 10
-3011.73068457948
 20
1576.83892927758
  0
VERTEX
  8
51
 62
7
  6
CONTINUOUS
 10
-3025.94504465262
 20
1574.09854948796
  0
VERTEX
  8
51
 62
7
  6
CONTINUOUS
 10
-3038.93068104947
 20
1574.44730844442
  0
VERTEX
  8
51
 62
7
  6
CONTINUOUS
 10
-3053.1009196829
 20
1579.33699325023
  0
VERTEX
  8
51
 62
7
  6
CONTINUOUS
 10
-3065.54548521763
 20
1587.35238526164
  0
VERTEX
  8
51
 62
7
  6
CONTINUOUS
 10
-3073.78980043661
 20
1598.16887905285
  0
VERTEX
  8
51
 62
7
  6
CONTINUOUS
 10
-3084.64775829144
 20
1614.7733992871
  0
VERTEX
  8
51
 62
7
  6
CONTINUOUS
 10
-3090.01064662625
 20
1629.28767450208
  0
VERTEX
  8
51
 62
7
  6
CONTINUOUS
 10
-3093.4810604692
 20
1645.17510369953
  0
VERTEX
  8
51
 62
7
  6
CONTINUOUS
 10
-3094.9757252382
 20
1657.6605505737
  0
VERTEX
  8
51
 62
7
  6
CONTINUOUS
 10
-3094.65117454064
 20
1670.66043456959
  0
VERTEX
  8
51
 62
7
  6
CONTINUOUS
 10
-3093.12708468278
 20
1683.72063147726
  0
VERTEX
  8
51
 62
7
  6
CONTINUOUS
 10
-3086.30950263816
 20
1704.39291755002
  0
VERTEX
  8
51
 62
7
  6
CONTINUOUS
 10
-3081.41326065226
 20
1711.97324703543
  0
VERTEX
  8
51
 62
7
  6
CONTINUOUS
 10
-3074.67463153036
 20
1718.60975872208
  0
VERTEX
  8
51
 62
7
  6
CONTINUOUS
 10
-3068.64113959418
 20
1723.26986702481
  0
VERTEX
  8
51
 62
7
  6
CONTINUOUS
 10
-3059.97971069857
 20
1728.45422710066
  0
VERTEX
  8
51
 62
7
  6
CONTINUOUS
 10
-3042.31124488183
 20
1733.73223539852
  0
VERTEX
  8
51
 62
7
  6
CONTINUOUS
 10
-3033.1416101796
 20
1735.55021093884
  0
VERTEX
  8
51
 62
7
  6
CONTINUOUS
 10
-3024.50226442211
 20
1736.17828982284
  0
VERTEX
  8
51
 62
7
  6
CONTINUOUS
 10
-3015.5679908606
 20
1735.39140440393
  0
VERTEX
  8
51
 62
7
  6
CONTINUOUS
 10
-3005.84362196417
 20
1732.31949188147
  0
VERTEX
  8
51
 62
7
  6
CONTINUOUS
 10
-2997.79324255281
 20
1727.89489361424
  0
VERTEX
  8
51
 62
7
  6
CONTINUOUS
 10
-2990.92949881935
 20
1720.97587158979
  0
VERTEX
  8
51
 62
7
  6
CONTINUOUS
 10
-2983.24904585647
 20
1711.33203693929
  0
VERTEX
  8
51
 62
7
  6
CONTINUOUS
 10
-2979.13660204879
 20
1704.06749525258
  0
VERTEX
  8
51
 62
7
  6
CONTINUOUS
 10
-2973.32159887662
 20
1682.57417218683
  0
VERTEX
  8
51
 62
7
  6
CONTINUOUS
 10
-2963.668643642
 20
1685.18577231672
  0
VERTEX
  8
51
 62
7
  6
CONTINUOUS
 10
-2969.81299481681
 20
1707.89642627844
  0
VERTEX
  8
51
 62
7
  6
CONTINUOUS
 10
-2974.93528550848
 20
1716.94484031187
  0
VERTEX
  8
51
 62
7
  6
CONTINUOUS
 10
-2983.44649194147
 20
1727.63179691623
  0
VERTEX
  8
51
 62
7
  6
CONTINUOUS
 10
-2991.71099209264
 20
1735.96285658098
  0
VERTEX
  8
51
 62
7
  6
CONTINUOUS
 10
-3001.89114165786
 20
1741.55800555779
  0
VERTEX
  8
51
 62
7
  6
CONTINUOUS
 10
-3013.59986694913
 20
1745.25677307961
  0
VERTEX
  8
51
 62
7
  6
CONTINUOUS
 10
-3024.42563835682
 20
1746.21025201782
  0
VERTEX
  8
51
 62
7
  6
CONTINUOUS
 10
-3034.481602199
 20
1745.47918525364
  0
VERTEX
  8
51
 62
7
  6
CONTINUOUS
 10
-3044.7201352221
 20
1743.44928949344
  0
VERTEX
  8
51
 62
7
  6
CONTINUOUS
 10
-3064.04143886821
 20
1737.67753760352
  0
VERTEX
  8
51
 62
7
  6
CONTINUOUS
 10
-3074.28515266114
 20
1731.54608961075
  0
VERTEX
  8
51
 62
7
  6
CONTINUOUS
 10
-3081.26315865815
 20
1726.15646383067
  0
VERTEX
  8
51
 62
7
  6
CONTINUOUS
 10
-3089.2153713967
 20
1718.32475921842
  0
VERTEX
  8
51
 62
7
  6
CONTINUOUS
 10
-3095.40496572518
 20
1708.74207018344
  0
VERTEX
  8
51
 62
7
  6
CONTINUOUS
 10
-3102.94198354152
 20
1685.8883095077
  0
VERTEX
  8
51
 62
7
  6
CONTINUOUS
 10
-3104.63666946198
 20
1671.36624461526
  0
SEQEND
  0
POLYLINE
  8
51
 62
7
 66
1
 70
1
  0
VERTEX
  8
51
 62
7
  6
CONTINUOUS
 10
-3076.64453879813
 20
1670.812386289
  0
VERTEX
  8
51
 62
7
  6
CONTINUOUS
 10
-3074.95389570372
 20
1656.92880689248
  0
VERTEX
  8
51
 62
7
  6
CONTINUOUS
 10
-3069.48812913209
 20
1642.17901485257
  0
VERTEX
  8
51
 62
7
  6
CONTINUOUS
 10
-3062.12192377072
 20
1629.19214935703
  0
VERTEX
  8
51
 62
7
  6
CONTINUOUS
 10
-3056.07417321771
 20
1623.68475395388
  0
VERTEX
  8
51
 62
7
  6
CONTINUOUS
 10
-3055.68477386169
 20
1621.4303288371
  0
VERTEX
  8
51
 62
7
  6
CONTINUOUS
 10
-3053.81304908566
 20
1619.30756641594
  0
VERTEX
  8
51
 62
7
  6
CONTINUOUS
 10
-3044.32253490012
 20
1616.40747746891
  0
VERTEX
  8
51
 62
7
  6
CONTINUOUS
 10
-3035.5956161577
 20
1619.15347444034
  0
VERTEX
  8
51
 62
7
  6
CONTINUOUS
 10
-3031.466485403
 20
1623.65604458981
  0
VERTEX
  8
51
 62
7
  6
CONTINUOUS
 10
-3030.71838778621
 20
1653.87384522374
  0
VERTEX
  8
51
 62
7
  6
CONTINUOUS
 10
-3032.57885313861
 20
1675.82613569238
  0
VERTEX
  8
51
 62
7
  6
CONTINUOUS
 10
-3031.24089746391
 20
1683.90397596799
  0
VERTEX
  8
51
 62
7
  6
CONTINUOUS
 10
-3025.80495600232
 20
1691.42305941819
  0
VERTEX
  8
51
 62
7
  6
CONTINUOUS
 10
-3025.71010023809
 20
1691.44670622882
  0
VERTEX
  8
51
 62
7
  6
CONTINUOUS
 10
-3022.04324180384
 20
1690.26537736931
  0
VERTEX
  8
51
 62
7
  6
CONTINUOUS
 10
-3017.35402721018
 20
1684.66226587361
  0
VERTEX
  8
51
 62
7
  6
CONTINUOUS
 10
-3011.74884846698
 20
1672.56305830706
  0
VERTEX
  8
51
 62
7
  6
CONTINUOUS
 10
-3007.87115468856
 20
1658.22775388185
  0
VERTEX
  8
51
 62
7
  6
CONTINUOUS
 10
-3007.18208886887
 20
1644.04016412229
  0
VERTEX
  8
51
 62
7
  6
CONTINUOUS
 10
-3007.59336137914
 20
1634.8412794876
  0
VERTEX
  8
51
 62
7
  6
CONTINUOUS
 10
-3010.36842987718
 20
1620.67623126699
  0
VERTEX
  8
51
 62
7
  6
CONTINUOUS
 10
-3008.20197550982
 20
1617.29656392726
  0
VERTEX
  8
51
 62
7
  6
CONTINUOUS
 10
-3004.29999975298
 20
1616.35302747009
  0
VERTEX
  8
51
 62
7
  6
CONTINUOUS
 10
-3000.82872094096
 20
1618.36943498402
  0
VERTEX
  8
51
 62
7
  6
CONTINUOUS
 10
-2999.89070361651
 20
1621.61861536059
  0
VERTEX
  8
51
 62
7
  6
CONTINUOUS
 10
-2999.98819778418
 20
1621.64676129517
  0
VERTEX
  8
51
 62
7
  6
CONTINUOUS
 10
-2997.63662813855
 20
1633.65010371643
  0
VERTEX
  8
51
 62
7
  6
CONTINUOUS
 10
-2997.17123762763
 20
1644.05943940761
  0
VERTEX
  8
51
 62
7
  6
CONTINUOUS
 10
-2997.93543823659
 20
1659.79402444148
  0
VERTEX
  8
51
 62
7
  6
CONTINUOUS
 10
-3002.31780326602
 20
1675.99502957213
  0
VERTEX
  8
51
 62
7
  6
CONTINUOUS
 10
-3008.83639293069
 20
1690.06590456245
  0
VERTEX
  8
51
 62
7
  6
CONTINUOUS
 10
-3016.22796437835
 20
1698.8980443851
  0
VERTEX
  8
51
 62
7
  6
CONTINUOUS
 10
-3025.35996185921
 20
1701.84004292761
  0
VERTEX
  8
51
 62
7
  6
CONTINUOUS
 10
-3031.76858761272
 20
1700.24242194156
  0
VERTEX
  8
51
 62
7
  6
CONTINUOUS
 10
-3040.72230922889
 20
1687.85748724393
  0
VERTEX
  8
51
 62
7
  6
CONTINUOUS
 10
-3042.6486837306
 20
1676.22709781468
  0
VERTEX
  8
51
 62
7
  6
CONTINUOUS
 10
-3040.72886366125
 20
1653.5744599918
  0
VERTEX
  8
51
 62
7
  6
CONTINUOUS
 10
-3041.36643814406
 20
1627.82100458934
  0
VERTEX
  8
51
 62
7
  6
CONTINUOUS
 10
-3044.36590012283
 20
1626.87719913489
  0
VERTEX
  8
51
 62
7
  6
CONTINUOUS
 10
-3046.59518211406
 20
1627.55841786932
  0
VERTEX
  8
51
 62
7
  6
CONTINUOUS
 10
-3046.80412271264
 20
1628.76807814759
  0
VERTEX
  8
51
 62
7
  6
CONTINUOUS
 10
-3054.21021312496
 20
1635.51244829557
  0
VERTEX
  8
51
 62
7
  6
CONTINUOUS
 10
-3060.39169876922
 20
1646.41061345475
  0
VERTEX
  8
51
 62
7
  6
CONTINUOUS
 10
-3065.16911958947
 20
1659.30285147154
  0
VERTEX
  8
51
 62
7
  6
CONTINUOUS
 10
-3066.50989298376
 20
1670.31329710258
  0
VERTEX
  8
51
 62
7
  6
CONTINUOUS
 10
-3064.32800741126
 20
1680.08932588977
  0
VERTEX
  8
51
 62
7
  6
CONTINUOUS
 10
-3074.08787924552
 20
1682.2676054354
  0
SEQEND
  0
POLYLINE
  8
51
 62
7
 66
1
 70
1
  0
VERTEX
  8
51
 62
7
  6
CONTINUOUS
 10
-3059.41958987106
 20
2227.55427019539
  0
VERTEX
  8
51
 62
7
  6
CONTINUOUS
 10
-3055.77591227974
 20
2204.59772227562
  0
VERTEX
  8
51
 62
7
  6
CONTINUOUS
 10
-3050.39332667972
 20
2188.22582611977
  0
VERTEX
  8
51
 62
7
  6
CONTINUOUS
 10
-3043.0408209082
 20
2175.51860216229
  0
VERTEX
  8
51
 62
7
  6
CONTINUOUS
 10
-3036.74518189448
 20
2165.83136454312
  0
VERTEX
  8
51
 62
7
  6
CONTINUOUS
 10
-3031.44877989638
 20
2160.73897871757
  0
VERTEX
  8
51
 62
7
  6
CONTINUOUS
 10
-3024.36003319503
 20
2152.03090747555
  0
VERTEX
  8
51
 62
7
  6
CONTINUOUS
 10
-3009.18033186424
 20
2141.60709505732
  0
VERTEX
  8
51
 62
7
  6
CONTINUOUS
 10
-2998.20628443666
 20
2136.66552559453
  0
VERTEX
  8
51
 62
7
  6
CONTINUOUS
 10
-2990.27154590333
 20
2135.05588788516
  0
VERTEX
  8
51
 62
7
  6
CONTINUOUS
 10
-2980.84976293938
 20
2134.51839253929
  0
VERTEX
  8
51
 62
7
  6
CONTINUOUS
 10
-2971.97834978439
 20
2135.80850493448
  0
VERTEX
  8
51
 62
7
  6
CONTINUOUS
 10
-2961.27258257014
 20
2139.89723021109
  0
VERTEX
  8
51
 62
7
  6
CONTINUOUS
 10
-2955.84510067875
 20
2145.76914871051
  0
VERTEX
  8
51
 62
7
  6
CONTINUOUS
 10
-2949.59380033616
 20
2150.81650835406
  0
VERTEX
  8
51
 62
7
  6
CONTINUOUS
 10
-2944.0212074289
 20
2158.88657939291
  0
VERTEX
  8
51
 62
7
  6
CONTINUOUS
 10
-2937.72151511389
 20
2165.6914321005
  0
VERTEX
  8
51
 62
7
  6
CONTINUOUS
 10
-2926.85168749783
 20
2182.94815635866
  0
VERTEX
  8
51
 62
7
  6
CONTINUOUS
 10
-2921.66524105742
 20
2191.46178635457
  0
VERTEX
  8
51
 62
7
  6
CONTINUOUS
 10
-2918.68139389611
 20
2200.78597754295
  0
VERTEX
  8
51
 62
7
  6
CONTINUOUS
 10
-2915.21426873538
 20
2220.58447398512
  0
VERTEX
  8
51
 62
7
  6
CONTINUOUS
 10
-2914.80487244981
 20
2246.64161001673
  0
VERTEX
  8
51
 62
7
  6
CONTINUOUS
 10
-2916.76503737868
 20
2262.95580996765
  0
VERTEX
  8
51
 62
7
  6
CONTINUOUS
 10
-2926.69362848224
 20
2261.76288134518
  0
VERTEX
  8
51
 62
7
  6
CONTINUOUS
 10
-2924.81428121309
 20
2246.12131635513
  0
VERTEX
  8
51
 62
7
  6
CONTINUOUS
 10
-2925.20062575114
 20
2221.53137126351
  0
VERTEX
  8
51
 62
7
  6
CONTINUOUS
 10
-2928.41371484641
 20
2203.18350954168
  0
VERTEX
  8
51
 62
7
  6
CONTINUOUS
 10
-2930.82590220691
 20
2195.64569177977
  0
VERTEX
  8
51
 62
7
  6
CONTINUOUS
 10
-2935.35288016477
 20
2188.2145892367
  0
VERTEX
  8
51
 62
7
  6
CONTINUOUS
 10
-2945.6890854389
 20
2171.80503329967
  0
VERTEX
  8
51
 62
7
  6
CONTINUOUS
 10
-2951.84435862994
 20
2165.15618041201
  0
VERTEX
  8
51
 62
7
  6
CONTINUOUS
 10
-2957.00091915532
 20
2157.68859567211
  0
VERTEX
  8
51
 62
7
  6
CONTINUOUS
 10
-2962.69404624249
 20
2153.09191044975
  0
VERTEX
  8
51
 62
7
  6
CONTINUOUS
 10
-2967.02720143094
 20
2148.4039290578
  0
VERTEX
  8
51
 62
7
  6
CONTINUOUS
 10
-2974.51246660632
 20
2145.54517150104
  0
VERTEX
  8
51
 62
7
  6
CONTINUOUS
 10
-2981.28897289272
 20
2144.55970789975
  0
VERTEX
  8
51
 62
7
  6
CONTINUOUS
 10
-2988.98614312196
 20
2144.99881726902
  0
VERTEX
  8
51
 62
7
  6
CONTINUOUS
 10
-2995.12110628494
 20
2146.2433533065
  0
VERTEX
  8
51
 62
7
  6
CONTINUOUS
 10
-3004.25783042473
 20
2150.35758347518
  0
VERTEX
  8
51
 62
7
  6
CONTINUOUS
 10
-3017.5131272534
 20
2159.45991853956
  0
VERTEX
  8
51
 62
7
  6
CONTINUOUS
 10
-3024.07840948799
 20
2167.52494721548
  0
VERTEX
  8
51
 62
7
  6
CONTINUOUS
 10
-3028.98627361764
 20
2172.24376156086
  0
VERTEX
  8
51
 62
7
  6
CONTINUOUS
 10
-3034.51491635511
 20
2180.75080521326
  0
VERTEX
  8
51
 62
7
  6
CONTINUOUS
 10
-3041.21783073634
 20
2192.33535024551
  0
VERTEX
  8
51
 62
7
  6
CONTINUOUS
 10
-3046.02539893312
 20
2206.95824955985
  0
VERTEX
  8
51
 62
7
  6
CONTINUOUS
 10
-3049.41340909721
 20
2228.30399592053
  0
VERTEX
  8
51
 62
7
  6
CONTINUOUS
 10
-3049.19769210828
 20
2255.83757447626
  0
VERTEX
  8
51
 62
7
  6
CONTINUOUS
 10
-3046.88872158366
 20
2269.5382602208
  0
VERTEX
  8
51
 62
7
  6
CONTINUOUS
 10
-3043.04565488021
 20
2282.86185040115
  0
VERTEX
  8
51
 62
7
  6
CONTINUOUS
 10
-3031.12490581526
 20
2298.79660723923
  0
VERTEX
  8
51
 62
7
  6
CONTINUOUS
 10
-3022.51036486856
 20
2305.10974332319
  0
VERTEX
  8
51
 62
7
  6
CONTINUOUS
 10
-3012.65734439465
 20
2310.68365845287
  0
VERTEX
  8
51
 62
7
  6
CONTINUOUS
 10
-2997.19734092781
 20
2316.12427647966
  0
VERTEX
  8
51
 62
7
  6
CONTINUOUS
 10
-2981.73666421362
 20
2319.22455094096
  0
VERTEX
  8
51
 62
7
  6
CONTINUOUS
 10
-2976.40706387361
 20
2318.42432565703
  0
VERTEX
  8
51
 62
7
  6
CONTINUOUS
 10
-2970.96623480801
 20
2315.27273857134
  0
VERTEX
  8
51
 62
7
  6
CONTINUOUS
 10
-2966.76186557252
 20
2311.16594783395
  0
VERTEX
  8
51
 62
7
  6
CONTINUOUS
 10
-2965.45828713308
 20
2308.80576839215
  0
VERTEX
  8
51
 62
7
  6
CONTINUOUS
 10
-2964.27396391449
 20
2304.01009518287
  0
VERTEX
  8
51
 62
7
  6
CONTINUOUS
 10
-2954.56562671717
 20
2306.40763326667
  0
VERTEX
  8
51
 62
7
  6
CONTINUOUS
 10
-2956.06646060178
 20
2312.48495129859
  0
VERTEX
  8
51
 62
7
  6
CONTINUOUS
 10
-2958.72050948771
 20
2317.29020998392
  0
VERTEX
  8
51
 62
7
  6
CONTINUOUS
 10
-2964.87260329104
 20
2323.29952087738
  0
VERTEX
  8
51
 62
7
  6
CONTINUOUS
 10
-2973.04092561369
 20
2328.03100183984
  0
VERTEX
  8
51
 62
7
  6
CONTINUOUS
 10
-2981.98470072019
 20
2329.37388583065
  0
VERTEX
  8
51
 62
7
  6
CONTINUOUS
 10
-2999.85328382373
 20
2325.79076247326
  0
VERTEX
  8
51
 62
7
  6
CONTINUOUS
 10
-3016.81128773191
 20
2319.82297456435
  0
VERTEX
  8
51
 62
7
  6
CONTINUOUS
 10
-3027.9465817521
 20
2313.52366929273
  0
VERTEX
  8
51
 62
7
  6
CONTINUOUS
 10
-3038.23887561996
 20
2305.98099787171
  0
VERTEX
  8
51
 62
7
  6
CONTINUOUS
 10
-3052.14753374223
 20
2287.38895437558
  0
VERTEX
  8
51
 62
7
  6
CONTINUOUS
 10
-3056.6549554266
 20
2271.76210115473
  0
VERTEX
  8
51
 62
7
  6
CONTINUOUS
 10
-3059.19113869754
 20
2256.71320831909
  0
SEQEND
  0
POLYLINE
  8
51
 62
7
 66
1
 70
1
  0
VERTEX
  8
51
 62
7
  6
CONTINUOUS
 10
-3035.31051076273
 20
2258.19970903188
  0
VERTEX
  8
51
 62
7
  6
CONTINUOUS
 10
-3032.55580226219
 20
2251.18444459304
  0
VERTEX
  8
51
 62
7
  6
CONTINUOUS
 10
-3030.02673670201
 20
2248.93336845512
  0
VERTEX
  8
51
 62
7
  6
CONTINUOUS
 10
-3025.10350655158
 20
2245.6696096464
  0
VERTEX
  8
51
 62
7
  6
CONTINUOUS
 10
-3020.48429848869
 20
2245.1851383767
  0
VERTEX
  8
51
 62
7
  6
CONTINUOUS
 10
-3020.3733523539
 20
2243.8015219055
  0
VERTEX
  8
51
 62
7
  6
CONTINUOUS
 10
-3012.95994798581
 20
2244.39597027858
  0
VERTEX
  8
51
 62
7
  6
CONTINUOUS
 10
-3010.95207764876
 20
2244.18538104372
  0
VERTEX
  8
51
 62
7
  6
CONTINUOUS
 10
-3003.79327750464
 20
2244.18061191198
  0
VERTEX
  8
51
 62
7
  6
CONTINUOUS
 10
-3003.72043794642
 20
2244.14538813392
  0
VERTEX
  8
51
 62
7
  6
CONTINUOUS
 10
-3003.56584548658
 20
2244.1804603987
  0
VERTEX
  8
51
 62
7
  6
CONTINUOUS
 10
-3000.62308647769
 20
2244.17849995769
  0
VERTEX
  8
51
 62
7
  6
CONTINUOUS
 10
-2976.46721666921
 20
2246.23359298451
  0
VERTEX
  8
51
 62
7
  6
CONTINUOUS
 10
-2973.80705537213
 20
2249.29677587019
  0
VERTEX
  8
51
 62
7
  6
CONTINUOUS
 10
-2974.03303800196
 20
2253.34751399659
  0
VERTEX
  8
51
 62
7
  6
CONTINUOUS
 10
-2977.01740957723
 20
2256.09579961099
  0
VERTEX
  8
51
 62
7
  6
CONTINUOUS
 10
-2998.53593741961
 20
2255.52351893105
  0
VERTEX
  8
51
 62
7
  6
CONTINUOUS
 10
-2999.60242893259
 20
2262.57792173073
  0
VERTEX
  8
51
 62
7
  6
CONTINUOUS
 10
-3003.17127143434
 20
2271.37520390328
  0
VERTEX
  8
51
 62
7
  6
CONTINUOUS
 10
-3008.59481994662
 20
2280.29652985296
  0
VERTEX
  8
51
 62
7
  6
CONTINUOUS
 10
-3015.14778069917
 20
2284.02930614321
  0
VERTEX
  8
51
 62
7
  6
CONTINUOUS
 10
-3024.02404593174
 20
2283.21718033869
  0
VERTEX
  8
51
 62
7
  6
CONTINUOUS
 10
-3030.09836086392
 20
2277.15095333225
  0
VERTEX
  8
51
 62
7
  6
CONTINUOUS
 10
-3033.54483431827
 20
2269.73343272129
  0
SEQEND
  0
POLYLINE
  8
51
 62
7
 66
1
 70
1
  0
VERTEX
  8
51
 62
7
  6
CONTINUOUS
 10
-3107.06500961865
 20
2051.62800385697
  0
VERTEX
  8
51
 62
7
  6
CONTINUOUS
 10
-3104.95499366998
 20
2017.6309101271
  0
VERTEX
  8
51
 62
7
  6
CONTINUOUS
 10
-3106.48702754688
 20
1990.00181323959
  0
VERTEX
  8
51
 62
7
  6
CONTINUOUS
 10
-3104.8137566519
 20
1980.31428641324
  0
VERTEX
  8
51
 62
7
  6
CONTINUOUS
 10
-3102.81974062068
 20
1974.04590136469
  0
VERTEX
  8
51
 62
7
  6
CONTINUOUS
 10
-3098.27298482413
 20
1967.293393248
  0
VERTEX
  8
51
 62
7
  6
CONTINUOUS
 10
-3089.72279496077
 20
1960.34977109386
  0
VERTEX
  8
51
 62
7
  6
CONTINUOUS
 10
-3078.60020945072
 20
1955.86285363146
  0
VERTEX
  8
51
 62
7
  6
CONTINUOUS
 10
-3069.41162423532
 20
1955.3848696546
  0
VERTEX
  8
51
 62
7
  6
CONTINUOUS
 10
-3063.02071314866
 20
1952.18409037472
  0
VERTEX
  8
51
 62
7
  6
CONTINUOUS
 10
-3050.21284176535
 20
1949.75289327266
  0
VERTEX
  8
51
 62
7
  6
CONTINUOUS
 10
-3039.21927858602
 20
1949.66056720168
  0
VERTEX
  8
51
 62
7
  6
CONTINUOUS
 10
-3035.29460636749
 20
1950.72812380609
  0
VERTEX
  8
51
 62
7
  6
CONTINUOUS
 10
-3031.62888716777
 20
1953.08702137836
  0
VERTEX
  8
51
 62
7
  6
CONTINUOUS
 10
-3029.2846612194
 20
1956.13740917973
  0
VERTEX
  8
51
 62
7
  6
CONTINUOUS
 10
-3024.95571552652
 20
1958.29827834305
  0
VERTEX
  8
51
 62
7
  6
CONTINUOUS
 10
-3022.24219473458
 20
1963.74704657081
  0
VERTEX
  8
51
 62
7
  6
CONTINUOUS
 10
-3019.53343956613
 20
1966.93995057811
  0
VERTEX
  8
51
 62
7
  6
CONTINUOUS
 10
-3027.15897332088
 20
1973.40920362272
  0
VERTEX
  8
51
 62
7
  6
CONTINUOUS
 10
-3030.65269010007
 20
1969.29103804077
  0
VERTEX
  8
51
 62
7
  6
CONTINUOUS
 10
-3032.41555844222
 20
1965.75118640559
  0
VERTEX
  8
51
 62
7
  6
CONTINUOUS
 10
-3035.81078306742
 20
1964.05640048873
  0
VERTEX
  8
51
 62
7
  6
CONTINUOUS
 10
-3038.50012168816
 20
1960.55694015379
  0
VERTEX
  8
51
 62
7
  6
CONTINUOUS
 10
-3039.40836434007
 20
1959.9724842067
  0
VERTEX
  8
51
 62
7
  6
CONTINUOUS
 10
-3040.51380475358
 20
1959.67179152499
  0
VERTEX
  8
51
 62
7
  6
CONTINUOUS
 10
-3049.23053567286
 20
1959.74499631806
  0
VERTEX
  8
51
 62
7
  6
CONTINUOUS
 10
-3059.7877148048
 20
1961.74896579459
  0
VERTEX
  8
51
 62
7
  6
CONTINUOUS
 10
-3066.80353352946
 20
1965.26271945206
  0
VERTEX
  8
51
 62
7
  6
CONTINUOUS
 10
-3076.41030113524
 20
1965.76245699352
  0
VERTEX
  8
51
 62
7
  6
CONTINUOUS
 10
-3084.58653343594
 20
1969.06079796409
  0
VERTEX
  8
51
 62
7
  6
CONTINUOUS
 10
-3090.81115345741
 20
1974.11582132298
  0
VERTEX
  8
51
 62
7
  6
CONTINUOUS
 10
-3093.72461833434
 20
1978.4426855993
  0
VERTEX
  8
51
 62
7
  6
CONTINUOUS
 10
-3095.07639615742
 20
1982.69213182362
  0
VERTEX
  8
51
 62
7
  6
CONTINUOUS
 10
-3096.43941507406
 20
1990.58343164811
  0
VERTEX
  8
51
 62
7
  6
CONTINUOUS
 10
-3094.93780122172
 20
2017.66392591112
  0
VERTEX
  8
51
 62
7
  6
CONTINUOUS
 10
-3097.04966919149
 20
2051.69085985871
  0
VERTEX
  8
51
 62
7
  6
CONTINUOUS
 10
-3095.87293614854
 20
2075.47592260919
  0
VERTEX
  8
51
 62
7
  6
CONTINUOUS
 10
-3093.96553636931
 20
2084.52991742014
  0
VERTEX
  8
51
 62
7
  6
CONTINUOUS
 10
-3090.36412322947
 20
2096.0372216486
  0
VERTEX
  8
51
 62
7
  6
CONTINUOUS
 10
-3083.29425190234
 20
2111.47535738771
  0
VERTEX
  8
51
 62
7
  6
CONTINUOUS
 10
-3079.26011281179
 20
2118.07108286582
  0
VERTEX
  8
51
 62
7
  6
CONTINUOUS
 10
-3076.24113369035
 20
2121.88271345237
  0
VERTEX
  8
51
 62
7
  6
CONTINUOUS
 10
-3073.87448342037
 20
2123.77735700211
  0
VERTEX
  8
51
 62
7
  6
CONTINUOUS
 10
-3057.09214285351
 20
2133.81731104248
  0
VERTEX
  8
51
 62
7
  6
CONTINUOUS
 10
-3050.22972934614
 20
2134.79299129205
  0
VERTEX
  8
51
 62
7
  6
CONTINUOUS
 10
-3043.97278258189
 20
2133.52542032574
  0
VERTEX
  8
51
 62
7
  6
CONTINUOUS
 10
-3030.80657611024
 20
2124.84733064872
  0
VERTEX
  8
51
 62
7
  6
CONTINUOUS
 10
-3022.46238823223
 20
2110.89628957001
  0
VERTEX
  8
51
 62
7
  6
CONTINUOUS
 10
-3019.69919250107
 20
2102.61176801054
  0
VERTEX
  8
51
 62
7
  6
CONTINUOUS
 10
-3017.54041663248
 20
2094.21447671361
  0
VERTEX
  8
51
 62
7
  6
CONTINUOUS
 10
-3017.16574512688
 20
2089.90580773312
  0
VERTEX
  8
51
 62
7
  6
CONTINUOUS
 10
-3017.10391394688
 20
2071.89056843073
  0
VERTEX
  8
51
 62
7
  6
CONTINUOUS
 10
-3019.16737934808
 20
2057.65903889226
  0
VERTEX
  8
51
 62
7
  6
CONTINUOUS
 10
-3023.17568824649
 20
2044.23353841115
  0
VERTEX
  8
51
 62
7
  6
CONTINUOUS
 10
-3030.99027638524
 20
2026.35760426107
  0
VERTEX
  8
51
 62
7
  6
CONTINUOUS
 10
-3021.82754903075
 20
2022.3520546824
  0
VERTEX
  8
51
 62
7
  6
CONTINUOUS
 10
-3013.7683432846
 20
2040.78755360596
  0
VERTEX
  8
51
 62
7
  6
CONTINUOUS
 10
-3009.37590528679
 20
2055.49966286389
  0
VERTEX
  8
51
 62
7
  6
CONTINUOUS
 10
-3007.10143840173
 20
2071.18645007153
  0
VERTEX
  8
51
 62
7
  6
CONTINUOUS
 10
-3007.16723446308
 20
2090.35690404503
  0
VERTEX
  8
51
 62
7
  6
CONTINUOUS
 10
-3007.64959731691
 20
2095.90400820046
  0
VERTEX
  8
51
 62
7
  6
CONTINUOUS
 10
-3010.10167401283
 20
2105.4421925936
  0
VERTEX
  8
51
 62
7
  6
CONTINUOUS
 10
-3013.32093054183
 20
2115.09406047223
  0
VERTEX
  8
51
 62
7
  6
CONTINUOUS
 10
-3023.39663000452
 20
2131.94009739708
  0
VERTEX
  8
51
 62
7
  6
CONTINUOUS
 10
-3040.08771984913
 20
2142.94150275942
  0
VERTEX
  8
51
 62
7
  6
CONTINUOUS
 10
-3049.93220359011
 20
2144.93585915057
  0
VERTEX
  8
51
 62
7
  6
CONTINUOUS
 10
-3060.49584449968
 20
2143.43394793697
  0
VERTEX
  8
51
 62
7
  6
CONTINUOUS
 10
-3079.59261136031
 20
2132.00939956504
  0
VERTEX
  8
51
 62
7
  6
CONTINUOUS
 10
-3083.37604245079
 20
2128.98053915318
  0
VERTEX
  8
51
 62
7
  6
CONTINUOUS
 10
-3087.47505187725
 20
2123.80530968785
  0
VERTEX
  8
51
 62
7
  6
CONTINUOUS
 10
-3092.13718676473
 20
2116.18282539331
  0
VERTEX
  8
51
 62
7
  6
CONTINUOUS
 10
-3099.71903297882
 20
2099.62671488011
  0
VERTEX
  8
51
 62
7
  6
CONTINUOUS
 10
-3103.65205952522
 20
2087.05983314486
  0
VERTEX
  8
51
 62
7
  6
CONTINUOUS
 10
-3105.82155284439
 20
2076.76173965236
  0
SEQEND
  0
POLYLINE
  8
51
 62
7
 66
1
 70
1
  0
VERTEX
  8
51
 62
7
  6
CONTINUOUS
 10
-3097.33196025034
 20
2038.32712694769
  0
VERTEX
  8
51
 62
7
  6
CONTINUOUS
 10
-3095.73193102766
 20
2027.13797698106
  0
VERTEX
  8
51
 62
7
  6
CONTINUOUS
 10
-3096.19204369134
 20
2025.86647108098
  0
VERTEX
  8
51
 62
7
  6
CONTINUOUS
 10
-3095.13433378
 20
2022.95892504319
  0
VERTEX
  8
51
 62
7
  6
CONTINUOUS
 10
-3094.46207932385
 20
2018.25778845211
  0
VERTEX
  8
51
 62
7
  6
CONTINUOUS
 10
-3091.51345578941
 20
2015.79722408559
  0
VERTEX
  8
51
 62
7
  6
CONTINUOUS
 10
-3087.67580731185
 20
2015.94286718472
  0
VERTEX
  8
51
 62
7
  6
CONTINUOUS
 10
-3084.27093975705
 20
2019.25292514277
  0
VERTEX
  8
51
 62
7
  6
CONTINUOUS
 10
-3080.80207969218
 20
2020.35970930545
  0
VERTEX
  8
51
 62
7
  6
CONTINUOUS
 10
-3060.0724864686
 20
2023.17998369872
  0
VERTEX
  8
51
 62
7
  6
CONTINUOUS
 10
-3059.51814657365
 20
2023.99693191129
  0
VERTEX
  8
51
 62
7
  6
CONTINUOUS
 10
-3037.77103989452
 20
2024.88854886933
  0
VERTEX
  8
51
 62
7
  6
CONTINUOUS
 10
-3034.96458297284
 20
2027.93474994783
  0
VERTEX
  8
51
 62
7
  6
CONTINUOUS
 10
-3035.13395878367
 20
2032.07321020481
  0
VERTEX
  8
51
 62
7
  6
CONTINUOUS
 10
-3038.1799578928
 20
2034.87988633346
  0
VERTEX
  8
51
 62
7
  6
CONTINUOUS
 10
-3059.33942464353
 20
2034.01541272807
  0
VERTEX
  8
51
 62
7
  6
CONTINUOUS
 10
-3060.71356465646
 20
2039.55364309167
  0
VERTEX
  8
51
 62
7
  6
CONTINUOUS
 10
-3063.27815850329
 20
2061.34004825463
  0
VERTEX
  8
51
 62
7
  6
CONTINUOUS
 10
-3073.20958584613
 20
2060.17096701965
  0
VERTEX
  8
51
 62
7
  6
CONTINUOUS
 10
-3070.5712238467
 20
2037.75789621033
  0
VERTEX
  8
51
 62
7
  6
CONTINUOUS
 10
-3069.53924767925
 20
2033.59869722678
  0
VERTEX
  8
51
 62
7
  6
CONTINUOUS
 10
-3077.27707768752
 20
2033.28256686849
  0
VERTEX
  8
51
 62
7
  6
CONTINUOUS
 10
-3077.31783430491
 20
2033.27555771265
  0
VERTEX
  8
51
 62
7
  6
CONTINUOUS
 10
-3078.04615387112
 20
2033.24569709322
  0
VERTEX
  8
51
 62
7
  6
CONTINUOUS
 10
-3078.04227021317
 20
2033.15097219726
  0
VERTEX
  8
51
 62
7
  6
CONTINUOUS
 10
-3085.25518150594
 20
2031.91052530529
  0
VERTEX
  8
51
 62
7
  6
CONTINUOUS
 10
-3087.23302736405
 20
2047.67312830229
  0
VERTEX
  8
51
 62
7
  6
CONTINUOUS
 10
-3090.1882149542
 20
2050.18989005238
  0
VERTEX
  8
51
 62
7
  6
CONTINUOUS
 10
-3094.06747915554
 20
2050.05375535464
  0
VERTEX
  8
51
 62
7
  6
CONTINUOUS
 10
-3096.83897323983
 20
2047.33602763823
  0
SEQEND
  0
POLYLINE
  8
51
 62
7
 66
1
 70
1
  0
VERTEX
  8
51
 62
7
  6
CONTINUOUS
 10
-2737.77262586636
 20
1821.68968330093
  0
VERTEX
  8
51
 62
7
  6
CONTINUOUS
 10
-2737.46627214089
 20
1783.42517307822
  0
VERTEX
  8
51
 62
7
  6
CONTINUOUS
 10
-2735.7807089787
 20
1746.43770011122
  0
VERTEX
  8
51
 62
7
  6
CONTINUOUS
 10
-2732.66333746921
 20
1707.92715547193
  0
VERTEX
  8
51
 62
7
  6
CONTINUOUS
 10
-2718.46945101012
 20
1605.79477412005
  0
VERTEX
  8
51
 62
7
  6
CONTINUOUS
 10
-2718.44875191329
 20
1605.6458333731
  0
VERTEX
  8
51
 62
7
  6
CONTINUOUS
 10
-2712.73569664483
 20
1577.20275665045
  0
VERTEX
  8
51
 62
7
  6
CONTINUOUS
 10
-2706.64017201232
 20
1553.28589205297
  0
VERTEX
  8
51
 62
7
  6
CONTINUOUS
 10
-2698.21150658541
 20
1524.82638612431
  0
VERTEX
  8
51
 62
7
  6
CONTINUOUS
 10
-2690.51307817069
 20
1504.34461904707
  0
VERTEX
  8
51
 62
7
  6
CONTINUOUS
 10
-2674.63222277609
 20
1475.08222143537
  0
VERTEX
  8
51
 62
7
  6
CONTINUOUS
 10
-2665.84312858401
 20
1479.85210857059
  0
VERTEX
  8
51
 62
7
  6
CONTINUOUS
 10
-2681.39507066014
 20
1508.50844359527
  0
VERTEX
  8
51
 62
7
  6
CONTINUOUS
 10
-2688.72488030143
 20
1528.00949571992
  0
VERTEX
  8
51
 62
7
  6
CONTINUOUS
 10
-2696.99733904643
 20
1555.94156761664
  0
VERTEX
  8
51
 62
7
  6
CONTINUOUS
 10
-2702.98206423573
 20
1579.42369108179
  0
VERTEX
  8
51
 62
7
  6
CONTINUOUS
 10
-2708.58534414143
 20
1607.32023903508
  0
VERTEX
  8
51
 62
7
  6
CONTINUOUS
 10
-2722.71907056547
 20
1709.01973770478
  0
VERTEX
  8
51
 62
7
  6
CONTINUOUS
 10
-2725.79909699137
 20
1747.06893870741
  0
VERTEX
  8
51
 62
7
  6
CONTINUOUS
 10
-2727.46809526203
 20
1783.69291685503
  0
VERTEX
  8
51
 62
7
  6
CONTINUOUS
 10
-2727.77141145212
 20
1821.57802968719
  0
VERTEX
  8
51
 62
7
  6
CONTINUOUS
 10
-2726.6617465696
 20
1858.14942138737
  0
VERTEX
  8
51
 62
7
  6
CONTINUOUS
 10
-2719.67052808762
 20
1940.19365155517
  0
VERTEX
  8
51
 62
7
  6
CONTINUOUS
 10
-2714.62476764916
 20
1976.07511404265
  0
VERTEX
  8
51
 62
7
  6
CONTINUOUS
 10
-2700.81110252424
 20
2052.20568048036
  0
VERTEX
  8
51
 62
7
  6
CONTINUOUS
 10
-2692.37577213446
 20
2092.67638450616
  0
VERTEX
  8
51
 62
7
  6
CONTINUOUS
 10
-2682.27448718588
 20
2128.14300911137
  0
VERTEX
  8
51
 62
7
  6
CONTINUOUS
 10
-2672.94479566972
 20
2155.74266777484
  0
VERTEX
  8
51
 62
7
  6
CONTINUOUS
 10
-2660.28480506745
 20
2189.98099517364
  0
VERTEX
  8
51
 62
7
  6
CONTINUOUS
 10
-2651.3428662101
 20
2211.21616163595
  0
VERTEX
  8
51
 62
7
  6
CONTINUOUS
 10
-2641.88952951738
 20
2229.71425021351
  0
VERTEX
  8
51
 62
7
  6
CONTINUOUS
 10
-2650.79411859574
 20
2234.26488680036
  0
VERTEX
  8
51
 62
7
  6
CONTINUOUS
 10
-2660.41565192814
 20
2215.43767460851
  0
VERTEX
  8
51
 62
7
  6
CONTINUOUS
 10
-2669.58717367235
 20
2193.65729855608
  0
VERTEX
  8
51
 62
7
  6
CONTINUOUS
 10
-2682.37303404867
 20
2159.07856248962
  0
VERTEX
  8
51
 62
7
  6
CONTINUOUS
 10
-2691.82556209004
 20
2131.11552137549
  0
VERTEX
  8
51
 62
7
  6
CONTINUOUS
 10
-2702.09192290089
 20
2095.06929886087
  0
VERTEX
  8
51
 62
7
  6
CONTINUOUS
 10
-2702.12865459924
 20
2094.8930689299
  0
VERTEX
  8
51
 62
7
  6
CONTINUOUS
 10
-2710.62723831728
 20
2054.11889051618
  0
VERTEX
  8
51
 62
7
  6
CONTINUOUS
 10
-2724.48186942543
 20
1977.76255029008
  0
VERTEX
  8
51
 62
7
  6
CONTINUOUS
 10
-2724.49963000215
 20
1977.66466730582
  0
VERTEX
  8
51
 62
7
  6
CONTINUOUS
 10
-2729.61119138424
 20
1941.31528048472
  0
VERTEX
  8
51
 62
7
  6
CONTINUOUS
 10
-2729.62280494878
 20
1941.17899151524
  0
VERTEX
  8
51
 62
7
  6
CONTINUOUS
 10
-2736.63724520852
 20
1858.86224620805
  0
VERTEX
  8
51
 62
7
  6
CONTINUOUS
 10
-2736.64885342173
 20
1858.72602003813
  0
SEQEND
  0
POLYLINE
  8
51
 62
7
 66
1
 70
1
  0
VERTEX
  8
51
 62
7
  6
CONTINUOUS
 10
-2887.45828552
 20
2175.0015685011
  0
VERTEX
  8
51
 62
7
  6
CONTINUOUS
 10
-2886.39025244028
 20
2171.27286543404
  0
VERTEX
  8
51
 62
7
  6
CONTINUOUS
 10
-2883.08731789829
 20
2169.23950746434
  0
VERTEX
  8
51
 62
7
  6
CONTINUOUS
 10
-2871.02175057587
 20
2171.53714444544
  0
VERTEX
  8
51
 62
7
  6
CONTINUOUS
 10
-2864.20576864971
 20
2172.37865599786
  0
VERTEX
  8
51
 62
7
  6
CONTINUOUS
 10
-2824.51342906971
 20
2176.45364436572
  0
VERTEX
  8
51
 62
7
  6
CONTINUOUS
 10
-2814.09089846036
 20
2178.23876864566
  0
VERTEX
  8
51
 62
7
  6
CONTINUOUS
 10
-2808.97632002785
 20
2174.01183499119
  0
VERTEX
  8
51
 62
7
  6
CONTINUOUS
 10
-2804.11334118092
 20
2174.74853915141
  0
VERTEX
  8
51
 62
7
  6
CONTINUOUS
 10
-2801.88381725642
 20
2176.75798712228
  0
VERTEX
  8
51
 62
7
  6
CONTINUOUS
 10
-2800.91309192823
 20
2180.49580422354
  0
VERTEX
  8
51
 62
7
  6
CONTINUOUS
 10
-2787.69159608161
 20
2182.76032271118
  0
VERTEX
  8
51
 62
7
  6
CONTINUOUS
 10
-2750.07269679629
 20
2187.21575917164
  0
VERTEX
  8
51
 62
7
  6
CONTINUOUS
 10
-2751.24883778765
 20
2197.14635292873
  0
VERTEX
  8
51
 62
7
  6
CONTINUOUS
 10
-2788.99622447503
 20
2192.67569891894
  0
VERTEX
  8
51
 62
7
  6
CONTINUOUS
 10
-2789.12471187708
 20
2192.6604813696
  0
VERTEX
  8
51
 62
7
  6
CONTINUOUS
 10
-2798.15558014468
 20
2191.11371477158
  0
VERTEX
  8
51
 62
7
  6
CONTINUOUS
 10
-2797.93949180042
 20
2191.94577167286
  0
VERTEX
  8
51
 62
7
  6
CONTINUOUS
 10
-2773.29073583919
 20
2248.23424113781
  0
VERTEX
  8
51
 62
7
  6
CONTINUOUS
 10
-2767.41469076917
 20
2264.0083635712
  0
VERTEX
  8
51
 62
7
  6
CONTINUOUS
 10
-2776.78562633929
 20
2267.49914665537
  0
VERTEX
  8
51
 62
7
  6
CONTINUOUS
 10
-2782.5636256803
 20
2251.98822596992
  0
VERTEX
  8
51
 62
7
  6
CONTINUOUS
 10
-2807.259154614
 20
2195.59294466274
  0
VERTEX
  8
51
 62
7
  6
CONTINUOUS
 10
-2807.41859220079
 20
2195.22884930031
  0
VERTEX
  8
51
 62
7
  6
CONTINUOUS
 10
-2808.74169417813
 20
2190.13419167267
  0
VERTEX
  8
51
 62
7
  6
CONTINUOUS
 10
-2811.62211080634
 20
2192.79468149169
  0
VERTEX
  8
51
 62
7
  6
CONTINUOUS
 10
-2819.43257467272
 20
2196.56964698686
  0
VERTEX
  8
51
 62
7
  6
CONTINUOUS
 10
-2822.40643047078
 20
2199.32578967701
  0
VERTEX
  8
51
 62
7
  6
CONTINUOUS
 10
-2851.64445799963
 20
2230.85499458963
  0
VERTEX
  8
51
 62
7
  6
CONTINUOUS
 10
-2851.81326312688
 20
2231.03702778056
  0
VERTEX
  8
51
 62
7
  6
CONTINUOUS
 10
-2872.68215231072
 20
2249.48359099095
  0
VERTEX
  8
51
 62
7
  6
CONTINUOUS
 10
-2876.46091161272
 20
2249.48844119413
  0
VERTEX
  8
51
 62
7
  6
CONTINUOUS
 10
-2879.29857453537
 20
2246.99310263504
  0
VERTEX
  8
51
 62
7
  6
CONTINUOUS
 10
-2879.7768892013
 20
2243.24473492799
  0
VERTEX
  8
51
 62
7
  6
CONTINUOUS
 10
-2871.89637606307
 20
2231.61785170177
  0
VERTEX
  8
51
 62
7
  6
CONTINUOUS
 10
-2857.29906844727
 20
2214.91649404874
  0
VERTEX
  8
51
 62
7
  6
CONTINUOUS
 10
-2841.95356256688
 20
2200.40994947879
  0
VERTEX
  8
51
 62
7
  6
CONTINUOUS
 10
-2827.25082153332
 20
2189.24162073057
  0
VERTEX
  8
51
 62
7
  6
CONTINUOUS
 10
-2825.13205910199
 20
2188.21757719006
  0
VERTEX
  8
51
 62
7
  6
CONTINUOUS
 10
-2823.669126642
 20
2186.86174460113
  0
VERTEX
  8
51
 62
7
  6
CONTINUOUS
 10
-2824.8982885927
 20
2186.64341352817
  0
VERTEX
  8
51
 62
7
  6
CONTINUOUS
 10
-2869.68704841154
 20
2181.97101264792
  0
VERTEX
  8
51
 62
7
  6
CONTINUOUS
 10
-2872.57139787737
 20
2181.42174813163
  0
VERTEX
  8
51
 62
7
  6
CONTINUOUS
 10
-2880.72911751012
 20
2180.41458359002
  0
VERTEX
  8
51
 62
7
  6
CONTINUOUS
 10
-2885.73276422149
 20
2178.47525493917
  0
SEQEND
  0
POLYLINE
  8
51
 62
7
 66
1
 70
1
  0
VERTEX
  8
51
 62
7
  6
CONTINUOUS
 10
-2298.57177974768
 20
1980.33381990998
  0
VERTEX
  8
51
 62
7
  6
CONTINUOUS
 10
-2292.53627898386
 20
1968.26281838234
  0
VERTEX
  8
51
 62
7
  6
CONTINUOUS
 10
-2279.67025825631
 20
1905.70231308131
  0
VERTEX
  8
51
 62
7
  6
CONTINUOUS
 10
-2264.77393030197
 20
1898.25414910415
  0
VERTEX
  8
51
 62
7
  6
CONTINUOUS
 10
-2234.62426418543
 20
1898.25414910415
  0
VERTEX
  8
51
 62
7
  6
CONTINUOUS
 10
-2213.95619452587
 20
1912.03286221052
  0
VERTEX
  8
51
 62
7
  6
CONTINUOUS
 10
-2206.73329967152
 20
1926.47865191921
  0
VERTEX
  8
51
 62
7
  6
CONTINUOUS
 10
-2206.73329967152
 20
1989.92492301779
  0
VERTEX
  8
51
 62
7
  6
CONTINUOUS
 10
-2207.91655368384
 20
1992.13585336377
  0
VERTEX
  8
51
 62
7
  6
CONTINUOUS
 10
-2219.37123749633
 20
1999.77230923876
  0
VERTEX
  8
51
 62
7
  6
CONTINUOUS
 10
-2234.34136149093
 20
1999.77230923876
  0
VERTEX
  8
51
 62
7
  6
CONTINUOUS
 10
-2236.55229183692
 20
1998.58905522644
  0
VERTEX
  8
51
 62
7
  6
CONTINUOUS
 10
-2244.18874771191
 20
1987.13437141396
  0
VERTEX
  8
51
 62
7
  6
CONTINUOUS
 10
-2244.18874771191
 20
1973.91316944198
  0
VERTEX
  8
51
 62
7
  6
CONTINUOUS
 10
-2247.23935304973
 20
1958.66014275288
  0
VERTEX
  8
51
 62
7
  6
CONTINUOUS
 10
-2247.23935304973
 20
1949.01322917145
  0
VERTEX
  8
51
 62
7
  6
CONTINUOUS
 10
-2237.23935304973
 20
1949.01322917145
  0
VERTEX
  8
51
 62
7
  6
CONTINUOUS
 10
-2237.23935304973
 20
1957.66994761695
  0
VERTEX
  8
51
 62
7
  6
CONTINUOUS
 10
-2234.18874771191
 20
1972.92297430605
  0
VERTEX
  8
51
 62
7
  6
CONTINUOUS
 10
-2234.18874771191
 20
1984.10661503664
  0
VERTEX
  8
51
 62
7
  6
CONTINUOUS
 10
-2230.41161824383
 20
1989.77230923876
  0
VERTEX
  8
51
 62
7
  6
CONTINUOUS
 10
-2222.39899387364
 20
1989.77230923876
  0
VERTEX
  8
51
 62
7
  6
CONTINUOUS
 10
-2216.73329967152
 20
1985.99517977068
  0
VERTEX
  8
51
 62
7
  6
CONTINUOUS
 10
-2216.73329967152
 20
1928.83933169421
  0
VERTEX
  8
51
 62
7
  6
CONTINUOUS
 10
-2221.71282616846
 20
1918.88027870034
  0
VERTEX
  8
51
 62
7
  6
CONTINUOUS
 10
-2237.65202056275
 20
1908.25414910415
  0
VERTEX
  8
51
 62
7
  6
CONTINUOUS
 10
-2262.41325052697
 20
1908.25414910415
  0
VERTEX
  8
51
 62
7
  6
CONTINUOUS
 10
-2271.92176527519
 20
1913.00840647826
  0
VERTEX
  8
51
 62
7
  6
CONTINUOUS
 10
-2283.46058725021
 20
1972.47211469005
  0
VERTEX
  8
51
 62
7
  6
CONTINUOUS
 10
-2289.62750783768
 20
1984.80595586498
  0
SEQEND
  0
POLYLINE
  8
51
 62
7
 66
1
 70
1
  0
VERTEX
  8
51
 62
7
  6
CONTINUOUS
 10
-2917.30596140646
 20
2541.69455119515
  0
VERTEX
  8
51
 62
7
  6
CONTINUOUS
 10
-2914.83185572287
 20
2519.03609793931
  0
VERTEX
  8
51
 62
7
  6
CONTINUOUS
 10
-2907.63681994597
 20
2491.16749848455
  0
VERTEX
  8
51
 62
7
  6
CONTINUOUS
 10
-2900.41074939509
 20
2471.75708023161
  0
VERTEX
  8
51
 62
7
  6
CONTINUOUS
 10
-2889.63062557821
 20
2449.42329365044
  0
VERTEX
  8
51
 62
7
  6
CONTINUOUS
 10
-2865.27588784792
 20
2405.49045898602
  0
VERTEX
  8
51
 62
7
  6
CONTINUOUS
 10
-2844.04377574716
 20
2363.92190511241
  0
VERTEX
  8
51
 62
7
  6
CONTINUOUS
 10
-2830.90086021037
 20
2342.47554465677
  0
VERTEX
  8
51
 62
7
  6
CONTINUOUS
 10
-2813.66998388814
 20
2318.86746035734
  0
VERTEX
  8
51
 62
7
  6
CONTINUOUS
 10
-2796.12918049173
 20
2302.95537129497
  0
VERTEX
  8
51
 62
7
  6
CONTINUOUS
 10
-2774.24411507488
 20
2288.33578840965
  0
VERTEX
  8
51
 62
7
  6
CONTINUOUS
 10
-2750.78057809403
 20
2279.22695518311
  0
VERTEX
  8
51
 62
7
  6
CONTINUOUS
 10
-2732.5195896663
 20
2276.80178933253
  0
VERTEX
  8
51
 62
7
  6
CONTINUOUS
 10
-2710.47100701535
 20
2278.86990121654
  0
VERTEX
  8
51
 62
7
  6
CONTINUOUS
 10
-2691.87281325921
 20
2286.96011305612
  0
VERTEX
  8
51
 62
7
  6
CONTINUOUS
 10
-2675.9620102126
 20
2302.57051688089
  0
VERTEX
  8
51
 62
7
  6
CONTINUOUS
 10
-2665.94359974811
 20
2318.79444630275
  0
VERTEX
  8
51
 62
7
  6
CONTINUOUS
 10
-2659.52978871943
 20
2338.32277781081
  0
VERTEX
  8
51
 62
7
  6
CONTINUOUS
 10
-2657.63382627797
 20
2362.88332018717
  0
VERTEX
  8
51
 62
7
  6
CONTINUOUS
 10
-2661.40201181582
 20
2387.52383598764
  0
VERTEX
  8
51
 62
7
  6
CONTINUOUS
 10
-2666.6216858671
 20
2406.62811752866
  0
VERTEX
  8
51
 62
7
  6
CONTINUOUS
 10
-2677.80296400315
 20
2436.83617310272
  0
VERTEX
  8
51
 62
7
  6
CONTINUOUS
 10
-2692.15905530079
 20
2467.32574377229
  0
VERTEX
  8
51
 62
7
  6
CONTINUOUS
 10
-2710.5034195088
 20
2497.10677123753
  0
VERTEX
  8
51
 62
7
  6
CONTINUOUS
 10
-2731.2364830689
 20
2525.23838966758
  0
VERTEX
  8
51
 62
7
  6
CONTINUOUS
 10
-2754.43493668072
 20
2550.98404998968
  0
VERTEX
  8
51
 62
7
  6
CONTINUOUS
 10
-2783.14772725847
 20
2572.9233830707
  0
VERTEX
  8
51
 62
7
  6
CONTINUOUS
 10
-2805.82229073685
 20
2584.39389121399
  0
VERTEX
  8
51
 62
7
  6
CONTINUOUS
 10
-2828.95787831857
 20
2590.12430521379
  0
VERTEX
  8
51
 62
7
  6
CONTINUOUS
 10
-2849.7844015471
 20
2592.34798015674
  0
VERTEX
  8
51
 62
7
  6
CONTINUOUS
 10
-2869.49577860635
 20
2590.88791138151
  0
VERTEX
  8
51
 62
7
  6
CONTINUOUS
 10
-2887.71122955726
 20
2585.41364514249
  0
VERTEX
  8
51
 62
7
  6
CONTINUOUS
 10
-2901.86684403997
 20
2573.6882728884
  0
VERTEX
  8
51
 62
7
  6
CONTINUOUS
 10
-2912.85231562889
 20
2554.67098709443
  0
VERTEX
  8
51
 62
7
  6
CONTINUOUS
 10
-2897.2305419002
 20
2593.95438872122
  0
VERTEX
  8
51
 62
7
  6
CONTINUOUS
 10
-2902.81997896731
 20
2591.79911187754
  0
VERTEX
  8
51
 62
7
  6
CONTINUOUS
 10
-2911.92119762679
 20
2579.76557236032
  0
VERTEX
  8
51
 62
7
  6
CONTINUOUS
 10
-2916.55670446733
 20
2560.69325626259
  0
SEQEND
  0
POLYLINE
  8
51
 62
7
 66
1
 70
1
  0
VERTEX
  8
51
 62
7
  6
CONTINUOUS
 10
-3515.52059818854
 20
2142.75087609152
  0
VERTEX
  8
51
 62
7
  6
CONTINUOUS
 10
-3387.99691763931
 20
1975.61008382984
  0
VERTEX
  8
51
 62
7
  6
CONTINUOUS
 10
-3381.74471174233
 20
1981.32091993166
  0
VERTEX
  8
51
 62
7
  6
CONTINUOUS
 10
-3378.33606996208
 20
1988.88785080316
  0
VERTEX
  8
51
 62
7
  6
CONTINUOUS
 10
-3376.3201975568
 20
2002.80571093487
  0
VERTEX
  8
51
 62
7
  6
CONTINUOUS
 10
-3375.87924325089
 20
2016.54682022416
  0
VERTEX
  8
51
 62
7
  6
CONTINUOUS
 10
-3379.13472479114
 20
2048.24819603251
  0
VERTEX
  8
51
 62
7
  6
CONTINUOUS
 10
-3383.26131917926
 20
2068.67254966625
  0
VERTEX
  8
51
 62
7
  6
CONTINUOUS
 10
-3396.01056077676
 20
2109.14325208134
  0
VERTEX
  8
51
 62
7
  6
CONTINUOUS
 10
-3404.35384189066
 20
2129.13861474009
  0
VERTEX
  8
51
 62
7
  6
CONTINUOUS
 10
-3418.86619120179
 20
2153.83708822232
  0
VERTEX
  8
51
 62
7
  6
CONTINUOUS
 10
-3430.28637433454
 20
2168.57669952028
  0
VERTEX
  8
51
 62
7
  6
CONTINUOUS
 10
-3445.59245202223
 20
2183.77609966958
  0
VERTEX
  8
51
 62
7
  6
CONTINUOUS
 10
-3463.18664436017
 20
2195.80202343684
  0
VERTEX
  8
51
 62
7
  6
CONTINUOUS
 10
-3477.48320311596
 20
2201.27254889448
  0
VERTEX
  8
51
 62
7
  6
CONTINUOUS
 10
-3489.26962964242
 20
2200.03580063536
  0
VERTEX
  8
51
 62
7
  6
CONTINUOUS
 10
-3500.45088967431
 20
2192.14384774274
  0
VERTEX
  8
51
 62
7
  6
CONTINUOUS
 10
-3507.74779498593
 20
2181.48070651168
  0
VERTEX
  8
51
 62
7
  6
CONTINUOUS
 10
-3512.60762069693
 20
2168.83474127929
  0
SEQEND
  0
POLYLINE
  8
51
 62
7
 66
1
 70
1
  0
VERTEX
  8
51
 62
7
  6
CONTINUOUS
 10
-3220.69181338807
 20
1861.45673657716
  0
VERTEX
  8
51
 62
7
  6
CONTINUOUS
 10
-3219.83658141722
 20
1857.5334945349
  0
VERTEX
  8
51
 62
7
  6
CONTINUOUS
 10
-3219.5362023004
 20
1857.33128437476
  0
VERTEX
  8
51
 62
7
  6
CONTINUOUS
 10
-3219.57392949687
 20
1851.10264109147
  0
VERTEX
  8
51
 62
7
  6
CONTINUOUS
 10
-3218.31606027344
 20
1839.79225390204
  0
VERTEX
  8
51
 62
7
  6
CONTINUOUS
 10
-3214.25652979947
 20
1814.63857744495
  0
VERTEX
  8
51
 62
7
  6
CONTINUOUS
 10
-3211.02891058678
 20
1812.2167760341
  0
VERTEX
  8
51
 62
7
  6
CONTINUOUS
 10
-3207.02439524049
 20
1812.71326842783
  0
VERTEX
  8
51
 62
7
  6
CONTINUOUS
 10
-3204.4859362361
 20
1815.84996633148
  0
VERTEX
  8
51
 62
7
  6
CONTINUOUS
 10
-3208.04116440733
 20
1856.75427214845
  0
VERTEX
  8
51
 62
7
  6
CONTINUOUS
 10
-3200.00387271321
 20
1858.14354489238
  0
VERTEX
  8
51
 62
7
  6
CONTINUOUS
 10
-3189.59671065188
 20
1858.82384721963
  0
VERTEX
  8
51
 62
7
  6
CONTINUOUS
 10
-3163.91678051146
 20
1859.48634786759
  0
VERTEX
  8
51
 62
7
  6
CONTINUOUS
 10
-3163.14584537939
 20
1859.15533899972
  0
VERTEX
  8
51
 62
7
  6
CONTINUOUS
 10
-3162.99349631018
 20
1859.51016710613
  0
VERTEX
  8
51
 62
7
  6
CONTINUOUS
 10
-3162.82173065309
 20
1859.51459838217
  0
VERTEX
  8
51
 62
7
  6
CONTINUOUS
 10
-3162.97864479031
 20
1859.5447569904
  0
VERTEX
  8
51
 62
7
  6
CONTINUOUS
 10
-3159.20053000309
 20
1868.344163004
  0
VERTEX
  8
51
 62
7
  6
CONTINUOUS
 10
-3161.98457880631
 20
1869.53952277437
  0
VERTEX
  8
51
 62
7
  6
CONTINUOUS
 10
-3190.05198432987
 20
1868.81542912442
  0
VERTEX
  8
51
 62
7
  6
CONTINUOUS
 10
-3201.18496507945
 20
1868.08768099591
  0
VERTEX
  8
51
 62
7
  6
CONTINUOUS
 10
-3208.53220123919
 20
1866.81768665846
  0
VERTEX
  8
51
 62
7
  6
CONTINUOUS
 10
-3208.98388565916
 20
1896.67736579539
  0
VERTEX
  8
51
 62
7
  6
CONTINUOUS
 10
-3218.98274173975
 20
1896.52611408608
  0
VERTEX
  8
51
 62
7
  6
CONTINUOUS
 10
-3218.50443111703
 20
1864.9062461188
  0
VERTEX
  8
51
 62
7
  6
CONTINUOUS
 10
-3218.59635176642
 20
1864.88197969821
  0
SEQEND
  0
POLYLINE
  8
51
 62
7
 66
1
 70
1
  0
VERTEX
  8
51
 62
7
  6
CONTINUOUS
 10
-3269.56140714477
 20
2267.84476196165
  0
VERTEX
  8
51
 62
7
  6
CONTINUOUS
 10
-3265.4111848987
 20
2241.70193617703
  0
VERTEX
  8
51
 62
7
  6
CONTINUOUS
 10
-3256.2766942084
 20
2219.49889673192
  0
VERTEX
  8
51
 62
7
  6
CONTINUOUS
 10
-3242.62208530202
 20
2197.78784283815
  0
VERTEX
  8
51
 62
7
  6
CONTINUOUS
 10
-3223.9431243492
 20
2177.91327345063
  0
VERTEX
  8
51
 62
7
  6
CONTINUOUS
 10
-3200.50654599508
 20
2164.36511686697
  0
VERTEX
  8
51
 62
7
  6
CONTINUOUS
 10
-3177.19630758586
 20
2160.21472604425
  0
VERTEX
  8
51
 62
7
  6
CONTINUOUS
 10
-3154.44426968742
 20
2162.45829501428
  0
VERTEX
  8
51
 62
7
  6
CONTINUOUS
 10
-3131.10074326967
 20
2173.12076307409
  0
VERTEX
  8
51
 62
7
  6
CONTINUOUS
 10
-3111.77710213181
 20
2186.83205240636
  0
VERTEX
  8
51
 62
7
  6
CONTINUOUS
 10
-3098.04469233324
 20
2201.51229456036
  0
VERTEX
  8
51
 62
7
  6
CONTINUOUS
 10
-3083.18261817854
 20
2227.47411715078
  0
VERTEX
  8
51
 62
7
  6
CONTINUOUS
 10
-3077.74126520804
 20
2250.28195486771
  0
VERTEX
  8
51
 62
7
  6
CONTINUOUS
 10
-3078.67075317346
 20
2280.26986437388
  0
VERTEX
  8
51
 62
7
  6
CONTINUOUS
 10
-3082.06351290995
 20
2296.42534988189
  0
VERTEX
  8
51
 62
7
  6
CONTINUOUS
 10
-3093.24382440842
 20
2321.21095372318
  0
VERTEX
  8
51
 62
7
  6
CONTINUOUS
 10
-3093.43330820308
 20
2321.63101986081
  0
VERTEX
  8
51
 62
7
  6
CONTINUOUS
 10
-3093.6963786162
 20
2322.00937634108
  0
VERTEX
  8
51
 62
7
  6
CONTINUOUS
 10
-3107.30139048624
 20
2341.57654979911
  0
VERTEX
  8
51
 62
7
  6
CONTINUOUS
 10
-3120.70921760109
 20
2354.46737833368
  0
VERTEX
  8
51
 62
7
  6
CONTINUOUS
 10
-3136.77649435892
 20
2365.34650017364
  0
VERTEX
  8
51
 62
7
  6
CONTINUOUS
 10
-3158.2539350564
 20
2373.23869391154
  0
VERTEX
  8
51
 62
7
  6
CONTINUOUS
 10
-3171.7326851089
 20
2374.47806057516
  0
VERTEX
  8
51
 62
7
  6
CONTINUOUS
 10
-3185.47029497658
 20
2374.0553907396
  0
VERTEX
  8
51
 62
7
  6
CONTINUOUS
 10
-3196.79566221452
 20
2371.39010813236
  0
VERTEX
  8
51
 62
7
  6
CONTINUOUS
 10
-3201.45059889135
 20
2368.42131933671
  0
VERTEX
  8
51
 62
7
  6
CONTINUOUS
 10
-3196.07339432641
 20
2359.9900874536
  0
VERTEX
  8
51
 62
7
  6
CONTINUOUS
 10
-3192.85098234101
 20
2362.04525195129
  0
VERTEX
  8
51
 62
7
  6
CONTINUOUS
 10
-3184.15800666605
 20
2364.0910343427
  0
VERTEX
  8
51
 62
7
  6
CONTINUOUS
 10
-3172.03788079124
 20
2364.46393848395
  0
VERTEX
  8
51
 62
7
  6
CONTINUOUS
 10
-3160.47375931464
 20
2363.40062129235
  0
VERTEX
  8
51
 62
7
  6
CONTINUOUS
 10
-3141.3719248775
 20
2356.38137815948
  0
VERTEX
  8
51
 62
7
  6
CONTINUOUS
 10
-3127.02371460843
 20
2346.66623289527
  0
VERTEX
  8
51
 62
7
  6
CONTINUOUS
 10
-3114.94625947699
 20
2335.05447791814
  0
VERTEX
  8
51
 62
7
  6
CONTINUOUS
 10
-3102.16986493864
 20
2316.67904903296
  0
VERTEX
  8
51
 62
7
  6
CONTINUOUS
 10
-3091.62641855099
 20
2293.30530981989
  0
VERTEX
  8
51
 62
7
  6
CONTINUOUS
 10
-3088.63861753498
 20
2279.07813791146
  0
VERTEX
  8
51
 62
7
  6
CONTINUOUS
 10
-3087.77778485178
 20
2251.30524190405
  0
VERTEX
  8
51
 62
7
  6
CONTINUOUS
 10
-3092.57582654507
 20
2231.19389149305
  0
VERTEX
  8
51
 62
7
  6
CONTINUOUS
 10
-3106.14404407372
 20
2207.49224307707
  0
VERTEX
  8
51
 62
7
  6
CONTINUOUS
 10
-3118.38894037336
 20
2194.40218492514
  0
VERTEX
  8
51
 62
7
  6
CONTINUOUS
 10
-3136.11602144315
 20
2181.823751294
  0
VERTEX
  8
51
 62
7
  6
CONTINUOUS
 10
-3157.08358836112
 20
2172.24653452932
  0
VERTEX
  8
51
 62
7
  6
CONTINUOUS
 10
-3176.80314996783
 20
2170.30199678194
  0
VERTEX
  8
51
 62
7
  6
CONTINUOUS
 10
-3197.02335783476
 20
2173.90220728563
  0
VERTEX
  8
51
 62
7
  6
CONTINUOUS
 10
-3217.66421459322
 20
2185.83422036191
  0
VERTEX
  8
51
 62
7
  6
CONTINUOUS
 10
-3234.67236535299
 20
2203.93103384539
  0
VERTEX
  8
51
 62
7
  6
CONTINUOUS
 10
-3247.35506435934
 20
2224.09673493088
  0
VERTEX
  8
51
 62
7
  6
CONTINUOUS
 10
-3255.71824359046
 20
2244.42496171995
  0
VERTEX
  8
51
 62
7
  6
CONTINUOUS
 10
-3259.56088162569
 20
2268.63027188221
  0
VERTEX
  8
51
 62
7
  6
CONTINUOUS
 10
-3259.54968128638
 20
2285.44276416687
  0
VERTEX
  8
51
 62
7
  6
CONTINUOUS
 10
-3257.25941523698
 20
2304.87116455489
  0
VERTEX
  8
51
 62
7
  6
CONTINUOUS
 10
-3252.16653498701
 20
2317.69740340429
  0
VERTEX
  8
51
 62
7
  6
CONTINUOUS
 10
-3246.68840403488
 20
2327.79480773043
  0
VERTEX
  8
51
 62
7
  6
CONTINUOUS
 10
-3255.47814879194
 20
2332.56349592591
  0
VERTEX
  8
51
 62
7
  6
CONTINUOUS
 10
-3261.24062309679
 20
2321.94198404832
  0
VERTEX
  8
51
 62
7
  6
CONTINUOUS
 10
-3267.03721539539
 20
2307.34347128436
  0
VERTEX
  8
51
 62
7
  6
CONTINUOUS
 10
-3269.54928998762
 20
2286.03346191005
  0
SEQEND
  0
POLYLINE
  8
51
 62
7
 66
1
 70
1
  0
VERTEX
  8
51
 62
7
  6
CONTINUOUS
 10
-3216.38611147155
 20
2285.66612935481
  0
VERTEX
  8
51
 62
7
  6
CONTINUOUS
 10
-3211.08950081621
 20
2276.61473848988
  0
VERTEX
  8
51
 62
7
  6
CONTINUOUS
 10
-3199.84048255344
 20
2271.55137546257
  0
VERTEX
  8
51
 62
7
  6
CONTINUOUS
 10
-3186.90325747449
 20
2269.01003239924
  0
VERTEX
  8
51
 62
7
  6
CONTINUOUS
 10
-3160.57961948124
 20
2268.57671809927
  0
VERTEX
  8
51
 62
7
  6
CONTINUOUS
 10
-3150.23408737819
 20
2269.0225348233
  0
VERTEX
  8
51
 62
7
  6
CONTINUOUS
 10
-3146.97155869704
 20
2268.82399750128
  0
VERTEX
  8
51
 62
7
  6
CONTINUOUS
 10
-3146.9508671771
 20
2269.16401758705
  0
VERTEX
  8
51
 62
7
  6
CONTINUOUS
 10
-3144.75864618674
 20
2269.25848626884
  0
VERTEX
  8
51
 62
7
  6
CONTINUOUS
 10
-3145.18917345108
 20
2279.24921428409
  0
VERTEX
  8
51
 62
7
  6
CONTINUOUS
 10
-3147.17521907911
 20
2279.1636302516
  0
VERTEX
  8
51
 62
7
  6
CONTINUOUS
 10
-3148.06304064795
 20
2286.02879929579
  0
VERTEX
  8
51
 62
7
  6
CONTINUOUS
 10
-3153.92952593808
 20
2300.9539609385
  0
VERTEX
  8
51
 62
7
  6
CONTINUOUS
 10
-3161.86512781198
 20
2314.6512236706
  0
VERTEX
  8
51
 62
7
  6
CONTINUOUS
 10
-3172.43936844069
 20
2321.60744102989
  0
VERTEX
  8
51
 62
7
  6
CONTINUOUS
 10
-3174.64316137206
 20
2321.92626291458
  0
VERTEX
  8
51
 62
7
  6
CONTINUOUS
 10
-3185.41092394769
 20
2318.65988804679
  0
VERTEX
  8
51
 62
7
  6
CONTINUOUS
 10
-3192.15999487849
 20
2309.43377873388
  0
VERTEX
  8
51
 62
7
  6
CONTINUOUS
 10
-3194.50270228632
 20
2301.25493386725
  0
VERTEX
  8
51
 62
7
  6
CONTINUOUS
 10
-3203.38936969929
 20
2305.07051522696
  0
VERTEX
  8
51
 62
7
  6
CONTINUOUS
 10
-3206.28768352302
 20
2304.58462860985
  0
VERTEX
  8
51
 62
7
  6
CONTINUOUS
 10
-3214.96217635413
 20
2296.69962993053
  0
SEQEND
  0
POLYLINE
  8
51
 62
7
 66
1
 70
1
  0
VERTEX
  8
51
 62
7
  6
CONTINUOUS
 10
-3397.78491003493
 20
1549.51954091872
  0
VERTEX
  8
51
 62
7
  6
CONTINUOUS
 10
-3391.40317809082
 20
1526.35970850282
  0
VERTEX
  8
51
 62
7
  6
CONTINUOUS
 10
-3381.09898178736
 20
1506.11725260023
  0
VERTEX
  8
51
 62
7
  6
CONTINUOUS
 10
-3361.36554101685
 20
1486.05990739916
  0
VERTEX
  8
51
 62
7
  6
CONTINUOUS
 10
-3349.99420950865
 20
1475.99128197767
  0
VERTEX
  8
51
 62
7
  6
CONTINUOUS
 10
-3331.71949089457
 20
1462.93567855735
  0
VERTEX
  8
51
 62
7
  6
CONTINUOUS
 10
-3315.09668500839
 20
1451.43810629556
  0
VERTEX
  8
51
 62
7
  6
CONTINUOUS
 10
-3300.32070587692
 20
1442.58903144642
  0
VERTEX
  8
51
 62
7
  6
CONTINUOUS
 10
-3283.26274040161
 20
1434.5222105388
  0
VERTEX
  8
51
 62
7
  6
CONTINUOUS
 10
-3264.13102394772
 20
1426.73860599873
  0
VERTEX
  8
51
 62
7
  6
CONTINUOUS
 10
-3251.32581724633
 20
1424.60158638354
  0
VERTEX
  8
51
 62
7
  6
CONTINUOUS
 10
-3216.82728825453
 20
1421.95029455807
  0
VERTEX
  8
51
 62
7
  6
CONTINUOUS
 10
-3198.67787660297
 20
1421.57975149216
  0
VERTEX
  8
51
 62
7
  6
CONTINUOUS
 10
-3180.00823418961
 20
1424.24665703406
  0
VERTEX
  8
51
 62
7
  6
CONTINUOUS
 10
-3162.8082657616
 20
1433.39675262776
  0
VERTEX
  8
51
 62
7
  6
CONTINUOUS
 10
-3150.55675506749
 20
1445.83696186867
  0
VERTEX
  8
51
 62
7
  6
CONTINUOUS
 10
-3141.2806456288
 20
1462.68673821606
  0
VERTEX
  8
51
 62
7
  6
CONTINUOUS
 10
-3134.20590397129
 20
1481.65469590151
  0
VERTEX
  8
51
 62
7
  6
CONTINUOUS
 10
-3130.01768484994
 20
1502.09936119333
  0
VERTEX
  8
51
 62
7
  6
CONTINUOUS
 10
-3129.99492293787
 20
1502.43493021974
  0
VERTEX
  8
51
 62
7
  6
CONTINUOUS
 10
-3128.50095381621
 20
1524.45987091878
  0
VERTEX
  8
51
 62
7
  6
CONTINUOUS
 10
-3131.96826725483
 20
1543.86316296111
  0
VERTEX
  8
51
 62
7
  6
CONTINUOUS
 10
-3139.0244243312
 20
1561.89527925623
  0
VERTEX
  8
51
 62
7
  6
CONTINUOUS
 10
-3147.40609960995
 20
1580.38126140721
  0
VERTEX
  8
51
 62
7
  6
CONTINUOUS
 10
-3156.51366599901
 20
1576.25182628014
  0
VERTEX
  8
51
 62
7
  6
CONTINUOUS
 10
-3148.24080701716
 20
1558.00584103375
  0
VERTEX
  8
51
 62
7
  6
CONTINUOUS
 10
-3141.63923812815
 20
1541.13543173751
  0
VERTEX
  8
51
 62
7
  6
CONTINUOUS
 10
-3138.5611953168
 20
1523.91052125718
  0
VERTEX
  8
51
 62
7
  6
CONTINUOUS
 10
-3139.94923502751
 20
1503.44725205501
  0
VERTEX
  8
51
 62
7
  6
CONTINUOUS
 10
-3143.84666853235
 20
1484.42204797781
  0
VERTEX
  8
51
 62
7
  6
CONTINUOUS
 10
-3150.39414840488
 20
1466.86772201359
  0
VERTEX
  8
51
 62
7
  6
CONTINUOUS
 10
-3158.65085955885
 20
1451.86965227015
  0
VERTEX
  8
51
 62
7
  6
CONTINUOUS
 10
-3168.85783292173
 20
1441.50547045446
  0
VERTEX
  8
51
 62
7
  6
CONTINUOUS
 10
-3183.15745376863
 20
1433.89831127563
  0
VERTEX
  8
51
 62
7
  6
CONTINUOUS
 10
-3199.28687667771
 20
1431.59426889541
  0
VERTEX
  8
51
 62
7
  6
CONTINUOUS
 10
-3216.341711916
 20
1431.94246480715
  0
VERTEX
  8
51
 62
7
  6
CONTINUOUS
 10
-3250.1172608444
 20
1434.53819394089
  0
VERTEX
  8
51
 62
7
  6
CONTINUOUS
 10
-3261.39039416732
 20
1436.41953077499
  0
VERTEX
  8
51
 62
7
  6
CONTINUOUS
 10
-3279.2378567468
 20
1443.68064564136
  0
VERTEX
  8
51
 62
7
  6
CONTINUOUS
 10
-3295.60290720471
 20
1451.41978260815
  0
VERTEX
  8
51
 62
7
  6
CONTINUOUS
 10
-3309.67762862668
 20
1459.84888650953
  0
VERTEX
  8
51
 62
7
  6
CONTINUOUS
 10
-3325.96834829263
 20
1471.11676317478
  0
VERTEX
  8
51
 62
7
  6
CONTINUOUS
 10
-3343.75611331047
 20
1483.82448309709
  0
VERTEX
  8
51
 62
7
  6
CONTINUOUS
 10
-3354.47859296559
 20
1493.31858949607
  0
VERTEX
  8
51
 62
7
  6
CONTINUOUS
 10
-3372.88765081178
 20
1512.02981336936
  0
VERTEX
  8
51
 62
7
  6
CONTINUOUS
 10
-3382.03167322026
 20
1529.99312316323
  0
VERTEX
  8
51
 62
7
  6
CONTINUOUS
 10
-3387.73095261251
 20
1550.6762788915
  0
VERTEX
  8
51
 62
7
  6
CONTINUOUS
 10
-3387.19638991819
 20
1564.10702799727
  0
VERTEX
  8
51
 62
7
  6
CONTINUOUS
 10
-3383.58381477462
 20
1577.75307096504
  0
VERTEX
  8
51
 62
7
  6
CONTINUOUS
 10
-3375.59106768384
 20
1590.82162185242
  0
VERTEX
  8
51
 62
7
  6
CONTINUOUS
 10
-3364.78814741801
 20
1600.00239817643
  0
VERTEX
  8
51
 62
7
  6
CONTINUOUS
 10
-3334.63792931639
 20
1611.94724789958
  0
VERTEX
  8
51
 62
7
  6
CONTINUOUS
 10
-3295.8659841739
 20
1620.85530844084
  0
VERTEX
  8
51
 62
7
  6
CONTINUOUS
 10
-3181.56533879671
 20
1622.83609808744
  0
VERTEX
  8
51
 62
7
  6
CONTINUOUS
 10
-3175.64676778708
 20
1615.47592257511
  0
VERTEX
  8
51
 62
7
  6
CONTINUOUS
 10
-3172.29229744421
 20
1614.69058440295
  0
VERTEX
  8
51
 62
7
  6
CONTINUOUS
 10
-3169.16592737391
 20
1616.13800884289
  0
VERTEX
  8
51
 62
7
  6
CONTINUOUS
 10
-3167.59447811319
 20
1619.20391401866
  0
VERTEX
  8
51
 62
7
  6
CONTINUOUS
 10
-3168.23541787437
 20
1622.53798630878
  0
VERTEX
  8
51
 62
7
  6
CONTINUOUS
 10
-3171.4489612025
 20
1621.92021695226
  0
VERTEX
  8
51
 62
7
  6
CONTINUOUS
 10
-3168.93329398558
 20
1623.0849025559
  0
VERTEX
  8
51
 62
7
  6
CONTINUOUS
 10
-3176.03309346334
 20
1631.91402197909
  0
VERTEX
  8
51
 62
7
  6
CONTINUOUS
 10
-3178.13159754405
 20
1632.89710507586
  0
VERTEX
  8
51
 62
7
  6
CONTINUOUS
 10
-3179.29010514916
 20
1632.87702854993
  0
VERTEX
  8
51
 62
7
  6
CONTINUOUS
 10
-3297.08543149007
 20
1630.83567732166
  0
VERTEX
  8
51
 62
7
  6
CONTINUOUS
 10
-3337.61619001098
 20
1621.52352005536
  0
VERTEX
  8
51
 62
7
  6
CONTINUOUS
 10
-3370.00607931966
 20
1608.6913621241
  0
VERTEX
  8
51
 62
7
  6
CONTINUOUS
 10
-3383.2867426497
 20
1597.40489545886
  0
VERTEX
  8
51
 62
7
  6
CONTINUOUS
 10
-3392.87695254489
 20
1581.72441106313
  0
VERTEX
  8
51
 62
7
  6
CONTINUOUS
 10
-3397.14475218534
 20
1565.60334092426
  0
SEQEND
  0
POLYLINE
  8
51
 62
7
 66
1
 70
1
  0
VERTEX
  8
51
 62
7
  6
CONTINUOUS
 10
-3301.66297562921
 20
1524.44932696601
  0
VERTEX
  8
51
 62
7
  6
CONTINUOUS
 10
-3292.29781873479
 20
1520.94307022373
  0
VERTEX
  8
51
 62
7
  6
CONTINUOUS
 10
-3289.29786358966
 20
1528.9559034745
  0
VERTEX
  8
51
 62
7
  6
CONTINUOUS
 10
-3287.69502677706
 20
1541.59387830599
  0
VERTEX
  8
51
 62
7
  6
CONTINUOUS
 10
-3286.47411990701
 20
1575.47471607996
  0
VERTEX
  8
51
 62
7
  6
CONTINUOUS
 10
-3285.82946464412
 20
1578.86467643051
  0
VERTEX
  8
51
 62
7
  6
CONTINUOUS
 10
-3282.5250106232
 20
1574.01081652034
  0
VERTEX
  8
51
 62
7
  6
CONTINUOUS
 10
-3266.47563529236
 20
1541.64191011684
  0
VERTEX
  8
51
 62
7
  6
CONTINUOUS
 10
-3244.64949991024
 20
1504.60094370198
  0
VERTEX
  8
51
 62
7
  6
CONTINUOUS
 10
-3243.72460850524
 20
1503.03131761518
  0
VERTEX
  8
51
 62
7
  6
CONTINUOUS
 10
-3240.2888613777
 20
1501.81795768129
  0
VERTEX
  8
51
 62
7
  6
CONTINUOUS
 10
-3236.87789892387
 20
1503.09933810573
  0
VERTEX
  8
51
 62
7
  6
CONTINUOUS
 10
-3234.70766678395
 20
1506.95559570857
  0
VERTEX
  8
51
 62
7
  6
CONTINUOUS
 10
-3232.54695575315
 20
1561.09733604471
  0
VERTEX
  8
51
 62
7
  6
CONTINUOUS
 10
-3230.04619677653
 20
1583.96293314387
  0
VERTEX
  8
51
 62
7
  6
CONTINUOUS
 10
-3239.98692148005
 20
1585.05012786827
  0
VERTEX
  8
51
 62
7
  6
CONTINUOUS
 10
-3242.52522944081
 20
1561.84120302307
  0
VERTEX
  8
51
 62
7
  6
CONTINUOUS
 10
-3242.53211564294
 20
1561.66865289391
  0
VERTEX
  8
51
 62
7
  6
CONTINUOUS
 10
-3244.06319019808
 20
1523.30394802694
  0
VERTEX
  8
51
 62
7
  6
CONTINUOUS
 10
-3257.67682249764
 20
1546.40753865186
  0
VERTEX
  8
51
 62
7
  6
CONTINUOUS
 10
-3273.8715215898
 20
1579.06953878213
  0
VERTEX
  8
51
 62
7
  6
CONTINUOUS
 10
-3278.85953954946
 20
1586.39635896251
  0
VERTEX
  8
51
 62
7
  6
CONTINUOUS
 10
-3284.69998548304
 20
1591.21240308836
  0
VERTEX
  8
51
 62
7
  6
CONTINUOUS
 10
-3287.52493527222
 20
1591.59374361335
  0
VERTEX
  8
51
 62
7
  6
CONTINUOUS
 10
-3292.89098650299
 20
1589.18965229531
  0
VERTEX
  8
51
 62
7
  6
CONTINUOUS
 10
-3294.41099933229
 20
1587.26615157357
  0
VERTEX
  8
51
 62
7
  6
CONTINUOUS
 10
-3296.44022927353
 20
1576.59531796853
  0
VERTEX
  8
51
 62
7
  6
CONTINUOUS
 10
-3297.67229991164
 20
1542.40467948479
  0
VERTEX
  8
51
 62
7
  6
CONTINUOUS
 10
-3299.07173254139
 20
1531.37049670706
  0
SEQEND
  0
POLYLINE
  8
51
 62
7
 66
1
 70
1
  0
VERTEX
  8
51
 62
7
  6
CONTINUOUS
 10
-2913.59896356087
 20
2218.8959524564
  0
VERTEX
  8
51
 62
7
  6
CONTINUOUS
 10
-2912.36619119978
 20
2194.36464046711
  0
VERTEX
  8
51
 62
7
  6
CONTINUOUS
 10
-2904.82473249902
 20
2168.6968822438
  0
VERTEX
  8
51
 62
7
  6
CONTINUOUS
 10
-2904.64542606544
 20
2168.08660320261
  0
VERTEX
  8
51
 62
7
  6
CONTINUOUS
 10
-2892.08985479173
 20
2147.08550552817
  0
VERTEX
  8
51
 62
7
  6
CONTINUOUS
 10
-2891.8282842621
 20
2146.6479891363
  0
VERTEX
  8
51
 62
7
  6
CONTINUOUS
 10
-2891.48380409675
 20
2146.2722589794
  0
VERTEX
  8
51
 62
7
  6
CONTINUOUS
 10
-2874.27857696063
 20
2127.5062360221
  0
VERTEX
  8
51
 62
7
  6
CONTINUOUS
 10
-2850.87528883094
 20
2112.28123762356
  0
VERTEX
  8
51
 62
7
  6
CONTINUOUS
 10
-2827.17913437282
 20
2104.60605875471
  0
VERTEX
  8
51
 62
7
  6
CONTINUOUS
 10
-2802.77495555306
 20
2102.99874042716
  0
VERTEX
  8
51
 62
7
  6
CONTINUOUS
 10
-2780.12729618498
 20
2108.81328055195
  0
VERTEX
  8
51
 62
7
  6
CONTINUOUS
 10
-2779.61559833209
 20
2109.08045224049
  0
VERTEX
  8
51
 62
7
  6
CONTINUOUS
 10
-2756.02761298305
 20
2121.39639579878
  0
VERTEX
  8
51
 62
7
  6
CONTINUOUS
 10
-2736.7292976516
 20
2135.92179614893
  0
VERTEX
  8
51
 62
7
  6
CONTINUOUS
 10
-2718.67750771777
 20
2152.41241318831
  0
VERTEX
  8
51
 62
7
  6
CONTINUOUS
 10
-2702.89955045044
 20
2172.1471957896
  0
VERTEX
  8
51
 62
7
  6
CONTINUOUS
 10
-2693.06487622857
 20
2189.03799712416
  0
VERTEX
  8
51
 62
7
  6
CONTINUOUS
 10
-2686.66830234645
 20
2209.9590881252
  0
VERTEX
  8
51
 62
7
  6
CONTINUOUS
 10
-2685.96934157968
 20
2231.53677000982
  0
VERTEX
  8
51
 62
7
  6
CONTINUOUS
 10
-2694.08828303514
 20
2255.75885136889
  0
VERTEX
  8
51
 62
7
  6
CONTINUOUS
 10
-2705.69253771724
 20
2274.85351182917
  0
VERTEX
  8
51
 62
7
  6
CONTINUOUS
 10
-2721.21073988191
 20
2292.54859373304
  0
VERTEX
  8
51
 62
7
  6
CONTINUOUS
 10
-2739.84371745656
 20
2308.59716970981
  0
VERTEX
  8
51
 62
7
  6
CONTINUOUS
 10
-2763.20271310016
 20
2324.45956992808
  0
VERTEX
  8
51
 62
7
  6
CONTINUOUS
 10
-2779.80633848782
 20
2333.83493644707
  0
VERTEX
  8
51
 62
7
  6
CONTINUOUS
 10
-2802.6015445682
 20
2342.83400583517
  0
VERTEX
  8
51
 62
7
  6
CONTINUOUS
 10
-2827.16354202314
 20
2347.57342222489
  0
VERTEX
  8
51
 62
7
  6
CONTINUOUS
 10
-2841.71495221405
 20
2347.62081428621
  0
VERTEX
  8
51
 62
7
  6
CONTINUOUS
 10
-2830.50185033388
 20
2359.16090822573
  0
VERTEX
  8
51
 62
7
  6
CONTINUOUS
 10
-2837.67379770538
 20
2366.12963629479
  0
VERTEX
  8
51
 62
7
  6
CONTINUOUS
 10
-2851.21569836944
 20
2352.19283205873
  0
VERTEX
  8
51
 62
7
  6
CONTINUOUS
 10
-2856.58558579525
 20
2345.02709823814
  0
VERTEX
  8
51
 62
7
  6
CONTINUOUS
 10
-2866.01480979749
 20
2342.15797803081
  0
VERTEX
  8
51
 62
7
  6
CONTINUOUS
 10
-2880.02914434959
 20
2333.98390382411
  0
VERTEX
  8
51
 62
7
  6
CONTINUOUS
 10
-2886.93332884281
 20
2326.29234029352
  0
VERTEX
  8
51
 62
7
  6
CONTINUOUS
 10
-2879.49162710789
 20
2319.6124394493
  0
VERTEX
  8
51
 62
7
  6
CONTINUOUS
 10
-2873.6355385249
 20
2326.13637828975
  0
VERTEX
  8
51
 62
7
  6
CONTINUOUS
 10
-2866.99726829245
 20
2330.00825057041
  0
VERTEX
  8
51
 62
7
  6
CONTINUOUS
 10
-2880.17641480648
 20
2308.68075106706
  0
VERTEX
  8
51
 62
7
  6
CONTINUOUS
 10
-2892.6513843456
 20
2286.05102427088
  0
VERTEX
  8
51
 62
7
  6
CONTINUOUS
 10
-2903.55293130377
 20
2263.92091908472
  0
VERTEX
  8
51
 62
7
  6
CONTINUOUS
 10
-2910.41447453676
 20
2240.31921439979
  0
SEQEND
  0
POLYLINE
  8
52
 62
7
 66
1
 70
1
  0
VERTEX
  8
52
 62
7
  6
CONTINUOUS
 10
-3407.87250051809
 20
1281.75870968534
  0
VERTEX
  8
52
 62
7
  6
CONTINUOUS
 10
-3401.94674966844
 20
1272.68390876226
  0
VERTEX
  8
52
 62
7
  6
CONTINUOUS
 10
-3389.57712107369
 20
1257.33159589525
  0
VERTEX
  8
52
 62
7
  6
CONTINUOUS
 10
-3373.65003445761
 20
1239.39304343909
  0
VERTEX
  8
52
 62
7
  6
CONTINUOUS
 10
-3373.53954520524
 20
1239.28320884433
  0
VERTEX
  8
52
 62
7
  6
CONTINUOUS
 10
-3321.55681011586
 20
1187.60847559851
  0
VERTEX
  8
52
 62
7
  6
CONTINUOUS
 10
-3314.50678399031
 20
1194.70052266752
  0
VERTEX
  8
52
 62
7
  6
CONTINUOUS
 10
-3366.37902982731
 20
1246.26542131858
  0
VERTEX
  8
52
 62
7
  6
CONTINUOUS
 10
-3381.94034910118
 20
1263.79201289243
  0
VERTEX
  8
52
 62
7
  6
CONTINUOUS
 10
-3393.8466688336
 20
1278.56929939111
  0
VERTEX
  8
52
 62
7
  6
CONTINUOUS
 10
-3399.49952102443
 20
1287.22617842314
  0
SEQEND
  0
POLYLINE
  8
52
 62
7
 66
1
 70
1
  0
VERTEX
  8
52
 62
7
  6
CONTINUOUS
 10
-2955.67773520638
 20
2482.7633814186
  0
VERTEX
  8
52
 62
7
  6
CONTINUOUS
 10
-2947.99793110711
 20
2477.77266119517
  0
VERTEX
  8
52
 62
7
  6
CONTINUOUS
 10
-2941.94638587746
 20
2471.83824462899
  0
VERTEX
  8
52
 62
7
  6
CONTINUOUS
 10
-2896.89005745498
 20
2439.19366587735
  0
VERTEX
  8
52
 62
7
  6
CONTINUOUS
 10
-2836.57308657474
 20
2392.96637803821
  0
VERTEX
  8
52
 62
7
  6
CONTINUOUS
 10
-2830.49007429888
 20
2400.90344057114
  0
VERTEX
  8
52
 62
7
  6
CONTINUOUS
 10
-2890.91388322508
 20
2447.21260972877
  0
VERTEX
  8
52
 62
7
  6
CONTINUOUS
 10
-2935.47631800777
 20
2479.49934863008
  0
VERTEX
  8
52
 62
7
  6
CONTINUOUS
 10
-2941.7103493728
 20
2485.61271928216
  0
VERTEX
  8
52
 62
7
  6
CONTINUOUS
 10
-2950.22873627581
 20
2491.14839248923
  0
SEQEND
  0
POLYLINE
  8
52
 62
7
 66
1
 70
1
  0
VERTEX
  8
52
 62
7
  6
CONTINUOUS
 10
-2941.34064668873
 20
1555.14762326746
  0
VERTEX
  8
52
 62
7
  6
CONTINUOUS
 10
-2940.80842160911
 20
1549.66110916608
  0
VERTEX
  8
52
 62
7
  6
CONTINUOUS
 10
-2936.16212550204
 20
1540.77011396163
  0
VERTEX
  8
52
 62
7
  6
CONTINUOUS
 10
-2916.94179966422
 20
1505.86639714397
  0
VERTEX
  8
52
 62
7
  6
CONTINUOUS
 10
-2909.27307224754
 20
1496.18735467022
  0
VERTEX
  8
52
 62
7
  6
CONTINUOUS
 10
-2904.09126566955
 20
1497.15144501262
  0
VERTEX
  8
52
 62
7
  6
CONTINUOUS
 10
-2896.80018758015
 20
1503.11888377094
  0
VERTEX
  8
52
 62
7
  6
CONTINUOUS
 10
-2890.6012115567
 20
1509.54375641253
  0
VERTEX
  8
52
 62
7
  6
CONTINUOUS
 10
-2885.92579490775
 20
1518.02635537032
  0
VERTEX
  8
52
 62
7
  6
CONTINUOUS
 10
-2875.98945616974
 20
1541.08742804015
  0
VERTEX
  8
52
 62
7
  6
CONTINUOUS
 10
-2873.57827298119
 20
1532.60331149267
  0
VERTEX
  8
52
 62
7
  6
CONTINUOUS
 10
-2872.81580521116
 20
1534.7875482609
  0
VERTEX
  8
52
 62
7
  6
CONTINUOUS
 10
-2869.28481365606
 20
1536.61559214381
  0
VERTEX
  8
52
 62
7
  6
CONTINUOUS
 10
-2850.03172832472
 20
1536.07806909874
  0
VERTEX
  8
52
 62
7
  6
CONTINUOUS
 10
-2839.23641852704
 20
1537.52355732497
  0
VERTEX
  8
52
 62
7
  6
CONTINUOUS
 10
-2832.98699062569
 20
1542.32281912506
  0
VERTEX
  8
52
 62
7
  6
CONTINUOUS
 10
-2830.39453711066
 20
1550.04386413026
  0
VERTEX
  8
52
 62
7
  6
CONTINUOUS
 10
-2829.93547684991
 20
1558.73056602206
  0
VERTEX
  8
52
 62
7
  6
CONTINUOUS
 10
-2829.93319230629
 20
1569.39856577745
  0
VERTEX
  8
52
 62
7
  6
CONTINUOUS
 10
-2831.65853199545
 20
1578.08573545675
  0
VERTEX
  8
52
 62
7
  6
CONTINUOUS
 10
-2835.59429716374
 20
1583.85237842992
  0
VERTEX
  8
52
 62
7
  6
CONTINUOUS
 10
-2842.98407061677
 20
1591.44856111815
  0
VERTEX
  8
52
 62
7
  6
CONTINUOUS
 10
-2853.85436742882
 20
1595.6672890802
  0
VERTEX
  8
52
 62
7
  6
CONTINUOUS
 10
-2867.03614033933
 20
1599.53091203487
  0
VERTEX
  8
52
 62
7
  6
CONTINUOUS
 10
-2891.2412355882
 20
1604.6922956549
  0
VERTEX
  8
52
 62
7
  6
CONTINUOUS
 10
-2905.94784069037
 20
1604.67004506205
  0
VERTEX
  8
52
 62
7
  6
CONTINUOUS
 10
-2916.87034630316
 20
1602.31018405374
  0
VERTEX
  8
52
 62
7
  6
CONTINUOUS
 10
-2923.12012232544
 20
1595.88532229093
  0
VERTEX
  8
52
 62
7
  6
CONTINUOUS
 10
-2926.98351138635
 20
1583.79574935537
  0
VERTEX
  8
52
 62
7
  6
CONTINUOUS
 10
-2929.2738628456
 20
1563.47623936637
  0
VERTEX
  8
52
 62
7
  6
CONTINUOUS
 10
-2932.72927993224
 20
1558.72717923227
  0
SEQEND
  0
POLYLINE
  8
52
 62
7
 66
1
 70
1
  0
VERTEX
  8
52
 62
7
  6
CONTINUOUS
 10
-2954.61193845749
 20
2055.99509633454
  0
VERTEX
  8
52
 62
7
  6
CONTINUOUS
 10
-2954.15825818105
 20
2050.71159292423
  0
VERTEX
  8
52
 62
7
  6
CONTINUOUS
 10
-2950.74717973935
 20
2061.93612298408
  0
SEQEND
  0
POLYLINE
  8
52
 62
7
 66
1
 70
1
  0
VERTEX
  8
52
 62
7
  6
CONTINUOUS
 10
-2729.94412892762
 20
2270.74624362955
  0
VERTEX
  8
52
 62
7
  6
CONTINUOUS
 10
-2724.57899692527
 20
2257.97053226629
  0
VERTEX
  8
52
 62
7
  6
CONTINUOUS
 10
-2716.35009778628
 20
2243.49545852841
  0
VERTEX
  8
52
 62
7
  6
CONTINUOUS
 10
-2698.26342556249
 20
2215.21114830926
  0
VERTEX
  8
52
 62
7
  6
CONTINUOUS
 10
-2665.44321053574
 20
2169.86078751997
  0
VERTEX
  8
52
 62
7
  6
CONTINUOUS
 10
-2665.29465132625
 20
2169.655511176
  0
VERTEX
  8
52
 62
7
  6
CONTINUOUS
 10
-2665.12610029163
 20
2169.46630556073
  0
VERTEX
  8
52
 62
7
  6
CONTINUOUS
 10
-2647.51166894367
 20
2149.69336659131
  0
VERTEX
  8
52
 62
7
  6
CONTINUOUS
 10
-2640.04479672609
 20
2156.34511969003
  0
VERTEX
  8
52
 62
7
  6
CONTINUOUS
 10
-2657.49067703943
 20
2175.92885304419
  0
VERTEX
  8
52
 62
7
  6
CONTINUOUS
 10
-2689.99364857522
 20
2220.84085269655
  0
VERTEX
  8
52
 62
7
  6
CONTINUOUS
 10
-2707.7852062392
 20
2248.66365669408
  0
VERTEX
  8
52
 62
7
  6
CONTINUOUS
 10
-2715.59032093926
 20
2262.39327093623
  0
VERTEX
  8
52
 62
7
  6
CONTINUOUS
 10
-2720.72413608347
 20
2274.61815942845
  0
SEQEND
  0
POLYLINE
  8
52
 62
7
 66
1
 70
1
  0
VERTEX
  8
52
 62
7
  6
CONTINUOUS
 10
-2767.75945436762
 20
1857.41640634799
  0
VERTEX
  8
52
 62
7
  6
CONTINUOUS
 10
-2767.75945436762
 20
1855.41640634799
  0
VERTEX
  8
52
 62
7
  6
CONTINUOUS
 10
-2765.75945436762
 20
1855.41640634799
  0
VERTEX
  8
52
 62
7
  6
CONTINUOUS
 10
-2765.75945436762
 20
1857.41640634799
  0
SEQEND
  0
POLYLINE
  8
52
 62
7
 66
1
 70
1
  0
VERTEX
  8
52
 62
7
  6
CONTINUOUS
 10
-3263.40582476801
 20
1147.12460001537
  0
VERTEX
  8
52
 62
7
  6
CONTINUOUS
 10
-3262.97449256542
 20
1144.94010759583
  0
VERTEX
  8
52
 62
7
  6
CONTINUOUS
 10
-3260.8401854937
 20
1148.24165061139
  0
VERTEX
  8
52
 62
7
  6
CONTINUOUS
 10
-3241.02777255438
 20
1150.16780784326
  0
VERTEX
  8
52
 62
7
  6
CONTINUOUS
 10
-3216.53771825577
 20
1170.9651637947
  0
VERTEX
  8
52
 62
7
  6
CONTINUOUS
 10
-3204.01297290858
 20
1182.84968190306
  0
VERTEX
  8
52
 62
7
  6
CONTINUOUS
 10
-3195.83217684014
 20
1192.16973020587
  0
VERTEX
  8
52
 62
7
  6
CONTINUOUS
 10
-3193.77305804021
 20
1200.19568943127
  0
VERTEX
  8
52
 62
7
  6
CONTINUOUS
 10
-3196.71865294299
 20
1203.95552031426
  0
VERTEX
  8
52
 62
7
  6
CONTINUOUS
 10
-3206.59945397385
 20
1203.01783625836
  0
VERTEX
  8
52
 62
7
  6
CONTINUOUS
 10
-3217.21758386601
 20
1198.6767100228
  0
VERTEX
  8
52
 62
7
  6
CONTINUOUS
 10
-3230.6563321168
 20
1188.64658768994
  0
VERTEX
  8
52
 62
7
  6
CONTINUOUS
 10
-3240.13244656468
 20
1179.70781678726
  0
VERTEX
  8
52
 62
7
  6
CONTINUOUS
 10
-3251.3873442439
 20
1167.11182672573
  0
VERTEX
  8
52
 62
7
  6
CONTINUOUS
 10
-3259.26352525857
 20
1156.92811317005
  0
SEQEND
  0
POLYLINE
  8
53
 62
7
 66
1
 70
1
  0
VERTEX
  8
53
 62
7
  6
CONTINUOUS
 10
-3094.65237862552
 20
2426.63298711919
  0
VERTEX
  8
53
 62
7
  6
CONTINUOUS
 10
-3093.43354090615
 20
2416.70754331985
  0
VERTEX
  8
53
 62
7
  6
CONTINUOUS
 10
-3076.48915406993
 20
2418.78830245013
  0
VERTEX
  8
53
 62
7
  6
CONTINUOUS
 10
-3048.89017074027
 20
2425.40077605793
  0
VERTEX
  8
53
 62
7
  6
CONTINUOUS
 10
-2994.03294896628
 20
2434.70865664906
  0
VERTEX
  8
53
 62
7
  6
CONTINUOUS
 10
-2993.88980725913
 20
2434.73294416991
  0
VERTEX
  8
53
 62
7
  6
CONTINUOUS
 10
-2970.30051702047
 20
2440.1600771998
  0
VERTEX
  8
53
 62
7
  6
CONTINUOUS
 10
-2972.54262027867
 20
2449.90548498909
  0
VERTEX
  8
53
 62
7
  6
CONTINUOUS
 10
-2995.84892809206
 20
2444.5434570663
  0
VERTEX
  8
53
 62
7
  6
CONTINUOUS
 10
-3050.89382808407
 20
2435.20373223685
  0
VERTEX
  8
53
 62
7
  6
CONTINUOUS
 10
-3078.26923161254
 20
2428.64482638251
  0
SEQEND
  0
POLYLINE
  8
53
 62
7
 66
1
 70
1
  0
VERTEX
  8
53
 62
7
  6
CONTINUOUS
 10
-3141.20763121471
 20
1378.69563668036
  0
VERTEX
  8
53
 62
7
  6
CONTINUOUS
 10
-3138.82207647993
 20
1369.14472559673
  0
VERTEX
  8
53
 62
7
  6
CONTINUOUS
 10
-3136.81631419194
 20
1365.23269597465
  0
VERTEX
  8
53
 62
7
  6
CONTINUOUS
 10
-3132.82870466202
 20
1364.34284201087
  0
VERTEX
  8
53
 62
7
  6
CONTINUOUS
 10
-3127.6972629317
 20
1367.33894318545
  0
VERTEX
  8
53
 62
7
  6
CONTINUOUS
 10
-3124.47035880958
 20
1372.49445226474
  0
VERTEX
  8
53
 62
7
  6
CONTINUOUS
 10
-3121.8524726588
 20
1380.36789182706
  0
VERTEX
  8
53
 62
7
  6
CONTINUOUS
 10
-3119.08155554232
 20
1391.18769868549
  0
VERTEX
  8
53
 62
7
  6
CONTINUOUS
 10
-3113.20730204599
 20
1423.19044145264
  0
VERTEX
  8
53
 62
7
  6
CONTINUOUS
 10
-3109.19121382215
 20
1436.67698171982
  0
VERTEX
  8
53
 62
7
  6
CONTINUOUS
 10
-3102.32940096731
 20
1454.48091267636
  0
VERTEX
  8
53
 62
7
  6
CONTINUOUS
 10
-3101.56515451689
 20
1464.97094925413
  0
VERTEX
  8
53
 62
7
  6
CONTINUOUS
 10
-3102.60529799401
 20
1470.83857213456
  0
VERTEX
  8
53
 62
7
  6
CONTINUOUS
 10
-3107.20142507143
 20
1476.78315652779
  0
VERTEX
  8
53
 62
7
  6
CONTINUOUS
 10
-3112.91625087992
 20
1477.59718037181
  0
VERTEX
  8
53
 62
7
  6
CONTINUOUS
 10
-3118.27611854454
 20
1475.4139281331
  0
VERTEX
  8
53
 62
7
  6
CONTINUOUS
 10
-3124.19573808951
 20
1468.78579566288
  0
VERTEX
  8
53
 62
7
  6
CONTINUOUS
 10
-3126.94000958636
 20
1463.78258323169
  0
VERTEX
  8
53
 62
7
  6
CONTINUOUS
 10
-3113.19776135667
 20
1467.74204043107
  0
VERTEX
  8
53
 62
7
  6
CONTINUOUS
 10
-3116.77972153168
 20
1465.12660744499
  0
VERTEX
  8
53
 62
7
  6
CONTINUOUS
 10
-3124.55494439665
 20
1451.94567220048
  0
VERTEX
  8
53
 62
7
  6
CONTINUOUS
 10
-3133.09388065186
 20
1430.76390032112
  0
VERTEX
  8
53
 62
7
  6
CONTINUOUS
 10
-3137.0084395901
 20
1416.94713830395
  0
VERTEX
  8
53
 62
7
  6
CONTINUOUS
 10
-3141.20493327747
 20
1391.29403639148
  0
SEQEND
  0
POLYLINE
  8
53
 62
7
 66
1
 70
1
  0
VERTEX
  8
53
 62
7
  6
CONTINUOUS
 10
-2993.81218657099
 20
1340.63045508668
  0
VERTEX
  8
53
 62
7
  6
CONTINUOUS
 10
-2987.28694323377
 20
1328.6910574373
  0
VERTEX
  8
53
 62
7
  6
CONTINUOUS
 10
-2983.7841692819
 20
1317.3619070613
  0
VERTEX
  8
53
 62
7
  6
CONTINUOUS
 10
-2982.61801577659
 20
1306.87145708992
  0
VERTEX
  8
53
 62
7
  6
CONTINUOUS
 10
-2983.99342331784
 20
1289.09175122465
  0
VERTEX
  8
53
 62
7
  6
CONTINUOUS
 10
-2983.02869112748
 20
1286.90714457794
  0
VERTEX
  8
53
 62
7
  6
CONTINUOUS
 10
-2978.4570121563
 20
1285.40756552217
  0
VERTEX
  8
53
 62
7
  6
CONTINUOUS
 10
-2964.00590831983
 20
1278.41947066967
  0
VERTEX
  8
53
 62
7
  6
CONTINUOUS
 10
-2949.91024673291
 20
1272.16805195173
  0
VERTEX
  8
53
 62
7
  6
CONTINUOUS
 10
-2936.9069646208
 20
1265.07866714676
  0
VERTEX
  8
53
 62
7
  6
CONTINUOUS
 10
-2928.0934803075
 20
1263.60357971236
  0
VERTEX
  8
53
 62
7
  6
CONTINUOUS
 10
-2920.87963026099
 20
1264.77043489893
  0
VERTEX
  8
53
 62
7
  6
CONTINUOUS
 10
-2911.09955348608
 20
1269.79754061862
  0
VERTEX
  8
53
 62
7
  6
CONTINUOUS
 10
-2900.55710141077
 20
1276.57708311644
  0
VERTEX
  8
53
 62
7
  6
CONTINUOUS
 10
-2894.53632245868
 20
1281.14779387627
  0
VERTEX
  8
53
 62
7
  6
CONTINUOUS
 10
-2886.40632094969
 20
1290.49325305728
  0
VERTEX
  8
53
 62
7
  6
CONTINUOUS
 10
-2882.95001180316
 20
1299.40791309586
  0
VERTEX
  8
53
 62
7
  6
CONTINUOUS
 10
-2882.82089044413
 20
1309.31388567177
  0
VERTEX
  8
53
 62
7
  6
CONTINUOUS
 10
-2884.21712345817
 20
1312.89558475608
  0
VERTEX
  8
53
 62
7
  6
CONTINUOUS
 10
-2888.48364343663
 20
1316.07149850072
  0
VERTEX
  8
53
 62
7
  6
CONTINUOUS
 10
-2907.68536307262
 20
1319.25061060644
  0
VERTEX
  8
53
 62
7
  6
CONTINUOUS
 10
-2926.09866012142
 20
1327.20475398159
  0
VERTEX
  8
53
 62
7
  6
CONTINUOUS
 10
-2947.17838597317
 20
1337.82646843148
  0
VERTEX
  8
53
 62
7
  6
CONTINUOUS
 10
-2960.3603547017
 20
1340.77569140711
  0
VERTEX
  8
53
 62
7
  6
CONTINUOUS
 10
-2970.67260760172
 20
1341.46369978356
  0
SEQEND
  0
POLYLINE
  8
54
 62
7
 66
1
 70
1
  0
VERTEX
  8
54
 62
7
  6
CONTINUOUS
 10
-2320.82524555075
 20
2057.84458317178
  0
VERTEX
  8
54
 62
7
  6
CONTINUOUS
 10
-2317.72668313603
 20
2057.48691885696
  0
VERTEX
  8
54
 62
7
  6
CONTINUOUS
 10
-2316.96270351769
 20
2060.4582105597
  0
VERTEX
  8
54
 62
7
  6
CONTINUOUS
 10
-2318.76381874738
 20
2063.88841120825
  0
SEQEND
  0
POLYLINE
  8
54
 62
7
 66
1
 70
1
  0
VERTEX
  8
54
 62
7
  6
CONTINUOUS
 10
-2366.51974516956
 20
2149.3745783497
  0
VERTEX
  8
54
 62
7
  6
CONTINUOUS
 10
-2366.51974516956
 20
2147.3745783497
  0
VERTEX
  8
54
 62
7
  6
CONTINUOUS
 10
-2364.51974516956
 20
2147.3745783497
  0
VERTEX
  8
54
 62
7
  6
CONTINUOUS
 10
-2364.51974516956
 20
2149.3745783497
  0
SEQEND
  0
POLYLINE
  8
54
 62
7
 66
1
 70
1
  0
VERTEX
  8
54
 62
7
  6
CONTINUOUS
 10
-3385.51574246785
 20
1327.77015389825
  0
VERTEX
  8
54
 62
7
  6
CONTINUOUS
 10
-3383.71412662899
 20
1319.43856789262
  0
VERTEX
  8
54
 62
7
  6
CONTINUOUS
 10
-3378.83907278487
 20
1311.28412371678
  0
VERTEX
  8
54
 62
7
  6
CONTINUOUS
 10
-3361.08877030975
 20
1291.21432204358
  0
VERTEX
  8
54
 62
7
  6
CONTINUOUS
 10
-3343.16008038463
 20
1273.88768223175
  0
VERTEX
  8
54
 62
7
  6
CONTINUOUS
 10
-3318.30045425226
 20
1241.31955781601
  0
VERTEX
  8
54
 62
7
  6
CONTINUOUS
 10
-3312.89116275438
 20
1237.0765993233
  0
VERTEX
  8
54
 62
7
  6
CONTINUOUS
 10
-3307.58309593628
 20
1234.58626254795
  0
VERTEX
  8
54
 62
7
  6
CONTINUOUS
 10
-3301.76667556951
 20
1233.74681694696
  0
VERTEX
  8
54
 62
7
  6
CONTINUOUS
 10
-3298.81965010727
 20
1236.66718591079
  0
VERTEX
  8
54
 62
7
  6
CONTINUOUS
 10
-3297.19321247855
 20
1240.57843770016
  0
VERTEX
  8
54
 62
7
  6
CONTINUOUS
 10
-3296.79095200594
 20
1244.10586045461
  0
VERTEX
  8
54
 62
7
  6
CONTINUOUS
 10
-3296.5064062072
 20
1245.2772907289
  0
VERTEX
  8
54
 62
7
  6
CONTINUOUS
 10
-3296.42029167994
 20
1247.35618147086
  0
VERTEX
  8
54
 62
7
  6
CONTINUOUS
 10
-3296.12440536826
 20
1249.95080903089
  0
VERTEX
  8
54
 62
7
  6
CONTINUOUS
 10
-3296.25321506529
 20
1251.38957790711
  0
VERTEX
  8
54
 62
7
  6
CONTINUOUS
 10
-3296.12342627813
 20
1254.52280892605
  0
VERTEX
  8
54
 62
7
  6
CONTINUOUS
 10
-3297.92442202659
 20
1265.74999486528
  0
VERTEX
  8
54
 62
7
  6
CONTINUOUS
 10
-3299.51797911235
 20
1271.45236781202
  0
VERTEX
  8
54
 62
7
  6
CONTINUOUS
 10
-3300.15776714349
 20
1274.41187333296
  0
VERTEX
  8
54
 62
7
  6
CONTINUOUS
 10
-3302.86324886227
 20
1283.42305646319
  0
VERTEX
  8
54
 62
7
  6
CONTINUOUS
 10
-3305.15787912262
 20
1291.63414449782
  0
VERTEX
  8
54
 62
7
  6
CONTINUOUS
 10
-3314.83028554108
 20
1314.95341637059
  0
VERTEX
  8
54
 62
7
  6
CONTINUOUS
 10
-3328.41424291535
 20
1338.50212590411
  0
VERTEX
  8
54
 62
7
  6
CONTINUOUS
 10
-3341.16236100391
 20
1351.02705619054
  0
VERTEX
  8
54
 62
7
  6
CONTINUOUS
 10
-3355.51188660026
 20
1357.91352928782
  0
VERTEX
  8
54
 62
7
  6
CONTINUOUS
 10
-3361.50621031136
 20
1358.27041297561
  0
VERTEX
  8
54
 62
7
  6
CONTINUOUS
 10
-3368.46621810599
 20
1356.36690341203
  0
VERTEX
  8
54
 62
7
  6
CONTINUOUS
 10
-3375.68059033391
 20
1352.76164828138
  0
VERTEX
  8
54
 62
7
  6
CONTINUOUS
 10
-3379.46588648899
 20
1349.51125882497
  0
VERTEX
  8
54
 62
7
  6
CONTINUOUS
 10
-3383.27722993085
 20
1343.23827487727
  0
VERTEX
  8
54
 62
7
  6
CONTINUOUS
 10
-3385.51393115112
 20
1336.2283537043
  0
SEQEND
  0
POLYLINE
  8
54
 62
7
 66
1
 70
1
  0
VERTEX
  8
54
 62
7
  6
CONTINUOUS
 10
-3096.39034977401
 20
1398.71682344977
  0
VERTEX
  8
54
 62
7
  6
CONTINUOUS
 10
-3094.69094314445
 20
1387.54045926694
  0
VERTEX
  8
54
 62
7
  6
CONTINUOUS
 10
-3091.7720428158
 20
1377.73543396195
  0
VERTEX
  8
54
 62
7
  6
CONTINUOUS
 10
-3086.56731116065
 20
1367.14251912996
  0
VERTEX
  8
54
 62
7
  6
CONTINUOUS
 10
-3077.85763523719
 20
1355.35505368958
  0
VERTEX
  8
54
 62
7
  6
CONTINUOUS
 10
-3060.86726033717
 20
1344.96281497616
  0
VERTEX
  8
54
 62
7
  6
CONTINUOUS
 10
-3053.70515130389
 20
1341.73548114227
  0
VERTEX
  8
54
 62
7
  6
CONTINUOUS
 10
-3037.5005119326
 20
1339.1158108717
  0
VERTEX
  8
54
 62
7
  6
CONTINUOUS
 10
-3033.86821410687
 20
1339.57223302851
  0
VERTEX
  8
54
 62
7
  6
CONTINUOUS
 10
-3030.43888238273
 20
1341.12089867539
  0
VERTEX
  8
54
 62
7
  6
CONTINUOUS
 10
-3028.76185689137
 20
1344.0415396087
  0
VERTEX
  8
54
 62
7
  6
CONTINUOUS
 10
-3024.84699878671
 20
1359.25530159383
  0
VERTEX
  8
54
 62
7
  6
CONTINUOUS
 10
-3022.00119256487
 20
1363.95369227445
  0
VERTEX
  8
54
 62
7
  6
CONTINUOUS
 10
-3011.0766906961
 20
1375.63535306902
  0
VERTEX
  8
54
 62
7
  6
CONTINUOUS
 10
-2997.76643827454
 20
1378.68050275899
  0
VERTEX
  8
54
 62
7
  6
CONTINUOUS
 10
-2984.45659924659
 20
1379.79525249322
  0
VERTEX
  8
54
 62
7
  6
CONTINUOUS
 10
-2966.06716284995
 20
1379.02931439264
  0
VERTEX
  8
54
 62
7
  6
CONTINUOUS
 10
-2950.01495067212
 20
1376.28267676133
  0
VERTEX
  8
54
 62
7
  6
CONTINUOUS
 10
-2911.5369214612
 20
1362.40603640412
  0
VERTEX
  8
54
 62
7
  6
CONTINUOUS
 10
-2873.51715836015
 20
1343.55109407008
  0
VERTEX
  8
54
 62
7
  6
CONTINUOUS
 10
-2883.1676623067
 20
1350.53816087795
  0
VERTEX
  8
54
 62
7
  6
CONTINUOUS
 10
-2885.42580365077
 20
1362.01944472037
  0
VERTEX
  8
54
 62
7
  6
CONTINUOUS
 10
-2889.13179935554
 20
1373.24703861382
  0
VERTEX
  8
54
 62
7
  6
CONTINUOUS
 10
-2896.67198742788
 20
1390.1142537258
  0
VERTEX
  8
54
 62
7
  6
CONTINUOUS
 10
-2902.91780901395
 20
1402.15519153956
  0
VERTEX
  8
54
 62
7
  6
CONTINUOUS
 10
-2909.97668623268
 20
1413.00250344117
  0
VERTEX
  8
54
 62
7
  6
CONTINUOUS
 10
-2917.92484627929
 20
1422.5292057517
  0
VERTEX
  8
54
 62
7
  6
CONTINUOUS
 10
-2932.27285428596
 20
1436.50227868648
  0
VERTEX
  8
54
 62
7
  6
CONTINUOUS
 10
-2941.23768879358
 20
1442.87959864482
  0
VERTEX
  8
54
 62
7
  6
CONTINUOUS
 10
-2958.99005279735
 20
1453.32280053876
  0
VERTEX
  8
54
 62
7
  6
CONTINUOUS
 10
-2979.53685188822
 20
1461.73460081214
  0
VERTEX
  8
54
 62
7
  6
CONTINUOUS
 10
-2990.22945749214
 20
1465.44529071012
  0
VERTEX
  8
54
 62
7
  6
CONTINUOUS
 10
-3024.95013618172
 20
1470.6851262357
  0
VERTEX
  8
54
 62
7
  6
CONTINUOUS
 10
-3034.65303930763
 20
1470.20460409358
  0
VERTEX
  8
54
 62
7
  6
CONTINUOUS
 10
-3053.37385604424
 20
1465.45881303261
  0
VERTEX
  8
54
 62
7
  6
CONTINUOUS
 10
-3062.69659684489
 20
1461.06660938935
  0
VERTEX
  8
54
 62
7
  6
CONTINUOUS
 10
-3077.58309610797
 20
1451.26539709646
  0
VERTEX
  8
54
 62
7
  6
CONTINUOUS
 10
-3084.21426919696
 20
1442.986416967
  0
VERTEX
  8
54
 62
7
  6
CONTINUOUS
 10
-3089.29596073063
 20
1435.08810502605
  0
VERTEX
  8
54
 62
7
  6
CONTINUOUS
 10
-3092.34552176555
 20
1427.79895791996
  0
VERTEX
  8
54
 62
7
  6
CONTINUOUS
 10
-3095.31989996807
 20
1415.75999460461
  0
SEQEND
  0
POLYLINE
  8
54
 62
7
 66
1
 70
1
  0
VERTEX
  8
54
 62
7
  6
CONTINUOUS
 10
-2920.65588220173
 20
1242.11358646394
  0
VERTEX
  8
54
 62
7
  6
CONTINUOUS
 10
-2914.45914720679
 20
1238.07365934549
  0
VERTEX
  8
54
 62
7
  6
CONTINUOUS
 10
-2913.84900328181
 20
1240.6135287419
  0
VERTEX
  8
54
 62
7
  6
CONTINUOUS
 10
-2916.33776263417
 20
1242.6714617549
  0
SEQEND
  0
POLYLINE
  8
54
 62
7
 66
1
 70
1
  0
VERTEX
  8
54
 62
7
  6
CONTINUOUS
 10
-2921.57088595301
 20
1239.29438234661
  0
VERTEX
  8
54
 62
7
  6
CONTINUOUS
 10
-2918.70076217028
 20
1238.93816770375
  0
VERTEX
  8
54
 62
7
  6
CONTINUOUS
 10
-2919.48816215222
 20
1238.93833632482
  0
VERTEX
  8
54
 62
7
  6
CONTINUOUS
 10
-2918.85352116649
 20
1237.26180037852
  0
VERTEX
  8
54
 62
7
  6
CONTINUOUS
 10
-2916.56736347661
 20
1237.99791081657
  0
VERTEX
  8
54
 62
7
  6
CONTINUOUS
 10
-2915.04279781504
 20
1240.63918439262
  0
VERTEX
  8
54
 62
7
  6
CONTINUOUS
 10
-2915.95672456718
 20
1242.84918015998
  0
VERTEX
  8
54
 62
7
  6
CONTINUOUS
 10
-2918.75063203349
 20
1243.28157848293
  0
VERTEX
  8
54
 62
7
  6
CONTINUOUS
 10
-2920.93537466495
 20
1241.68184630713
  0
SEQEND
  0
POLYLINE
  8
54
 62
7
 66
1
 70
1
  0
VERTEX
  8
54
 62
7
  6
CONTINUOUS
 10
-3001.75775673698
 20
2394.02437948129
  0
VERTEX
  8
54
 62
7
  6
CONTINUOUS
 10
-3000.71957200749
 20
2389.19768678054
  0
VERTEX
  8
54
 62
7
  6
CONTINUOUS
 10
-2997.92871998188
 20
2384.4714264903
  0
VERTEX
  8
54
 62
7
  6
CONTINUOUS
 10
-2994.60230215334
 20
2382.99601013213
  0
VERTEX
  8
54
 62
7
  6
CONTINUOUS
 10
-2989.75086938737
 20
2383.04357816017
  0
VERTEX
  8
54
 62
7
  6
CONTINUOUS
 10
-2983.90832920341
 20
2383.85248608997
  0
VERTEX
  8
54
 62
7
  6
CONTINUOUS
 10
-2979.28439650481
 20
2385.55120604299
  0
VERTEX
  8
54
 62
7
  6
CONTINUOUS
 10
-2977.07165269591
 20
2389.96933291263
  0
VERTEX
  8
54
 62
7
  6
CONTINUOUS
 10
-2976.71234701885
 20
2395.53169478061
  0
VERTEX
  8
54
 62
7
  6
CONTINUOUS
 10
-2979.26649338953
 20
2401.00539590407
  0
VERTEX
  8
54
 62
7
  6
CONTINUOUS
 10
-2979.12175917624
 20
2400.91810110541
  0
VERTEX
  8
54
 62
7
  6
CONTINUOUS
 10
-2979.48820383425
 20
2401.48053574896
  0
VERTEX
  8
54
 62
7
  6
CONTINUOUS
 10
-2979.80672988231
 20
2402.16315770325
  0
VERTEX
  8
54
 62
7
  6
CONTINUOUS
 10
-2980.04208857715
 20
2402.33066130304
  0
VERTEX
  8
54
 62
7
  6
CONTINUOUS
 10
-2981.45617276001
 20
2404.50105706662
  0
VERTEX
  8
54
 62
7
  6
CONTINUOUS
 10
-2986.38241796574
 20
2406.53633934017
  0
VERTEX
  8
54
 62
7
  6
CONTINUOUS
 10
-2991.81772909813
 20
2406.97176039402
  0
VERTEX
  8
54
 62
7
  6
CONTINUOUS
 10
-2996.00923580593
 20
2406.21255257104
  0
VERTEX
  8
54
 62
7
  6
CONTINUOUS
 10
-2999.18606259748
 20
2403.47146833728
  0
VERTEX
  8
54
 62
7
  6
CONTINUOUS
 10
-3001.3740494199
 20
2398.08812476057
  0
SEQEND
  0
POLYLINE
  8
54
 62
7
 66
1
 70
1
  0
VERTEX
  8
54
 62
7
  6
CONTINUOUS
 10
-2801.49639574174
 20
2253.09873582382
  0
VERTEX
  8
54
 62
7
  6
CONTINUOUS
 10
-2800.43367400216
 20
2246.97662648927
  0
VERTEX
  8
54
 62
7
  6
CONTINUOUS
 10
-2794.51733665405
 20
2244.17868445566
  0
VERTEX
  8
54
 62
7
  6
CONTINUOUS
 10
-2793.3982309099
 20
2246.43853941857
  0
VERTEX
  8
54
 62
7
  6
CONTINUOUS
 10
-2794.41079566864
 20
2251.59541512479
  0
VERTEX
  8
54
 62
7
  6
CONTINUOUS
 10
-2796.21262159126
 20
2253.95881601008
  0
VERTEX
  8
54
 62
7
  6
CONTINUOUS
 10
-2799.51394400813
 20
2254.97701554844
  0
SEQEND
  0
POLYLINE
  8
54
 62
7
 66
1
 70
1
  0
VERTEX
  8
54
 62
7
  6
CONTINUOUS
 10
-3354.03539648013
 20
2435.70856105701
  0
VERTEX
  8
54
 62
7
  6
CONTINUOUS
 10
-3353.40183492815
 20
2433.5491385046
  0
VERTEX
  8
54
 62
7
  6
CONTINUOUS
 10
-3350.68659064153
 20
2429.71192878086
  0
VERTEX
  8
54
 62
7
  6
CONTINUOUS
 10
-3341.19267829294
 20
2421.17120212339
  0
VERTEX
  8
54
 62
7
  6
CONTINUOUS
 10
-3338.65384642353
 20
2419.41691038629
  0
VERTEX
  8
54
 62
7
  6
CONTINUOUS
 10
-3336.44399615011
 20
2419.49163821975
  0
VERTEX
  8
54
 62
7
  6
CONTINUOUS
 10
-3329.32742898806
 20
2426.34489874509
  0
VERTEX
  8
54
 62
7
  6
CONTINUOUS
 10
-3323.86138766437
 20
2433.91045899451
  0
VERTEX
  8
54
 62
7
  6
CONTINUOUS
 10
-3323.1995495038
 20
2436.06901856266
  0
VERTEX
  8
54
 62
7
  6
CONTINUOUS
 10
-3324.46611420617
 20
2441.22606348148
  0
VERTEX
  8
54
 62
7
  6
CONTINUOUS
 10
-3329.28747670998
 20
2448.18887697653
  0
VERTEX
  8
54
 62
7
  6
CONTINUOUS
 10
-3332.33359777374
 20
2451.01030690211
  0
VERTEX
  8
54
 62
7
  6
CONTINUOUS
 10
-3339.87577165876
 20
2453.45373197528
  0
VERTEX
  8
54
 62
7
  6
CONTINUOUS
 10
-3342.9747909475
 20
2453.12559644229
  0
VERTEX
  8
54
 62
7
  6
CONTINUOUS
 10
-3346.5574084835
 20
2451.29918274579
  0
VERTEX
  8
54
 62
7
  6
CONTINUOUS
 10
-3349.20071694459
 20
2448.73554312612
  0
VERTEX
  8
54
 62
7
  6
CONTINUOUS
 10
-3350.16872565959
 20
2444.51978706964
  0
SEQEND
  0
POLYLINE
  8
54
 62
7
 66
1
 70
1
  0
VERTEX
  8
54
 62
7
  6
CONTINUOUS
 10
-2400.82218032167
 20
2039.35587233452
  0
VERTEX
  8
54
 62
7
  6
CONTINUOUS
 10
-2397.26932846515
 20
2034.62910440647
  0
VERTEX
  8
54
 62
7
  6
CONTINUOUS
 10
-2395.69302282245
 20
2036.8886547867
  0
VERTEX
  8
54
 62
7
  6
CONTINUOUS
 10
-2397.79959791366
 20
2039.3284587102
  0
SEQEND
  0
POLYLINE
  8
54
 62
7
 66
1
 70
1
  0
VERTEX
  8
54
 62
7
  6
CONTINUOUS
 10
-3345.13674814024
 20
2334.30581035264
  0
VERTEX
  8
54
 62
7
  6
CONTINUOUS
 10
-3343.68304828073
 20
2334.35230864919
  0
VERTEX
  8
54
 62
7
  6
CONTINUOUS
 10
-3343.7142976921
 20
2334.38106274516
  0
SEQEND
  0
POLYLINE
  8
54
 62
7
 66
1
 70
1
  0
VERTEX
  8
54
 62
7
  6
CONTINUOUS
 10
-3425.45444077473
 20
2329.99051634665
  0
VERTEX
  8
54
 62
7
  6
CONTINUOUS
 10
-3418.47519555318
 20
2321.34986491648
  0
VERTEX
  8
54
 62
7
  6
CONTINUOUS
 10
-3416.82646336841
 20
2317.94516578985
  0
VERTEX
  8
54
 62
7
  6
CONTINUOUS
 10
-3409.50593361185
 20
2287.81588223043
  0
VERTEX
  8
54
 62
7
  6
CONTINUOUS
 10
-3407.62773849353
 20
2285.706430525
  0
VERTEX
  8
54
 62
7
  6
CONTINUOUS
 10
-3401.53441340537
 20
2281.68917031311
  0
VERTEX
  8
54
 62
7
  6
CONTINUOUS
 10
-3397.69952189426
 20
2280.92461537192
  0
VERTEX
  8
54
 62
7
  6
CONTINUOUS
 10
-3388.02288549843
 20
2279.77516862545
  0
VERTEX
  8
54
 62
7
  6
CONTINUOUS
 10
-3377.55808782063
 20
2279.76819706627
  0
VERTEX
  8
54
 62
7
  6
CONTINUOUS
 10
-3370.46988187347
 20
2282.17647549924
  0
VERTEX
  8
54
 62
7
  6
CONTINUOUS
 10
-3359.38893580326
 20
2291.99889564853
  0
VERTEX
  8
54
 62
7
  6
CONTINUOUS
 10
-3355.01712478841
 20
2296.51718418851
  0
VERTEX
  8
54
 62
7
  6
CONTINUOUS
 10
-3345.78677407834
 20
2311.75103838925
  0
VERTEX
  8
54
 62
7
  6
CONTINUOUS
 10
-3343.26838427407
 20
2317.43896192195
  0
VERTEX
  8
54
 62
7
  6
CONTINUOUS
 10
-3340.61927182075
 20
2328.71479960834
  0
VERTEX
  8
54
 62
7
  6
CONTINUOUS
 10
-3340.89662428627
 20
2331.7883850602
  0
VERTEX
  8
54
 62
7
  6
CONTINUOUS
 10
-3343.08439385293
 20
2333.80145773341
  0
VERTEX
  8
54
 62
7
  6
CONTINUOUS
 10
-3372.21676328152
 20
2328.88824962213
  0
VERTEX
  8
54
 62
7
  6
CONTINUOUS
 10
-3376.88953310268
 20
2330.13596285781
  0
VERTEX
  8
54
 62
7
  6
CONTINUOUS
 10
-3390.59803394079
 20
2341.39729784137
  0
VERTEX
  8
54
 62
7
  6
CONTINUOUS
 10
-3403.37143909777
 20
2345.59680830521
  0
VERTEX
  8
54
 62
7
  6
CONTINUOUS
 10
-3409.56881774611
 20
2345.93113701941
  0
VERTEX
  8
54
 62
7
  6
CONTINUOUS
 10
-3415.76755009526
 20
2344.23346618453
  0
VERTEX
  8
54
 62
7
  6
CONTINUOUS
 10
-3423.39162642804
 20
2338.11714392094
  0
VERTEX
  8
54
 62
7
  6
CONTINUOUS
 10
-3425.45224101091
 20
2333.29251561392
  0
SEQEND
  0
POLYLINE
  8
11
 62
7
 66
1
 70
1
  0
VERTEX
  8
11
 62
7
  6
CONTINUOUS
 10
-2997.6
 20
2388.26666666667
  0
VERTEX
  8
11
 62
7
  6
CONTINUOUS
 10
-2997.6
 20
2398.4
  0
VERTEX
  8
11
 62
7
  6
CONTINUOUS
 10
-2991.2
 20
2404.8
  0
VERTEX
  8
11
 62
7
  6
CONTINUOUS
 10
-2981.6
 20
2404.8
  0
VERTEX
  8
11
 62
7
  6
CONTINUOUS
 10
-2975.2
 20
2398.4
  0
VERTEX
  8
11
 62
7
  6
CONTINUOUS
 10
-2975.2
 20
2389.6
  0
VERTEX
  8
11
 62
7
  6
CONTINUOUS
 10
-2977.8
 20
2384.4
  0
VERTEX
  8
11
 62
7
  6
CONTINUOUS
 10
-2982
 20
2381.6
  0
VERTEX
  8
11
 62
7
  6
CONTINUOUS
 10
-2990.8
 20
2381.6
  0
VERTEX
  8
11
 62
7
  6
CONTINUOUS
 10
-2994.4
 20
2384
  0
SEQEND
  0
POLYLINE
  8
11
 62
7
 66
1
 70
1
  0
VERTEX
  8
11
 62
7
  6
CONTINUOUS
 10
-3096.8
 20
1392.8
  0
VERTEX
  8
11
 62
7
  6
CONTINUOUS
 10
-3096.8
 20
1415.2
  0
VERTEX
  8
11
 62
7
  6
CONTINUOUS
 10
-3093.6
 20
1428
  0
VERTEX
  8
11
 62
7
  6
CONTINUOUS
 10
-3084.8
 20
1445.6
  0
VERTEX
  8
11
 62
7
  6
CONTINUOUS
 10
-3069.6
 20
1460.8
  0
VERTEX
  8
11
 62
7
  6
CONTINUOUS
 10
-3048.6
 20
1471.3
  0
VERTEX
  8
11
 62
7
  6
CONTINUOUS
 10
-3033.6
 20
1472.8
  0
VERTEX
  8
11
 62
7
  6
CONTINUOUS
 10
-3006.4
 20
1472.8
  0
VERTEX
  8
11
 62
7
  6
CONTINUOUS
 10
-2979.73333333333
 20
1466.13333333333
  0
VERTEX
  8
11
 62
7
  6
CONTINUOUS
 10
-2958.4
 20
1457.6
  0
VERTEX
  8
11
 62
7
  6
CONTINUOUS
 10
-2934.2
 20
1442.2
  0
VERTEX
  8
11
 62
7
  6
CONTINUOUS
 10
-2910.8
 20
1418.8
  0
VERTEX
  8
11
 62
7
  6
CONTINUOUS
 10
-2900.8
 20
1404.8
  0
VERTEX
  8
11
 62
7
  6
CONTINUOUS
 10
-2891.2
 20
1385.6
  0
VERTEX
  8
11
 62
7
  6
CONTINUOUS
 10
-2885.33333333333
 20
1370.93333333333
  0
VERTEX
  8
11
 62
7
  6
CONTINUOUS
 10
-2880.8
 20
1352.8
  0
VERTEX
  8
11
 62
7
  6
CONTINUOUS
 10
-2880.8
 20
1344.256
  0
VERTEX
  8
11
 62
7
  6
CONTINUOUS
 10
-2901.6
 20
1358.4
  0
VERTEX
  8
11
 62
7
  6
CONTINUOUS
 10
-2943.2
 20
1376
  0
VERTEX
  8
11
 62
7
  6
CONTINUOUS
 10
-2992
 20
1380
  0
VERTEX
  8
11
 62
7
  6
CONTINUOUS
 10
-3009.6
 20
1373.6
  0
VERTEX
  8
11
 62
7
  6
CONTINUOUS
 10
-3023.2
 20
1356
  0
VERTEX
  8
11
 62
7
  6
CONTINUOUS
 10
-3027.52
 20
1336.992
  0
VERTEX
  8
11
 62
7
  6
CONTINUOUS
 10
-3045.46206896552
 20
1338.78620689655
  0
VERTEX
  8
11
 62
7
  6
CONTINUOUS
 10
-3057.6
 20
1343.2
  0
VERTEX
  8
11
 62
7
  6
CONTINUOUS
 10
-3070.2
 20
1350.2
  0
VERTEX
  8
11
 62
7
  6
CONTINUOUS
 10
-3084.26666666667
 20
1364.26666666667
  0
VERTEX
  8
11
 62
7
  6
CONTINUOUS
 10
-3091.52
 20
1376.96
  0
SEQEND
  0
POLYLINE
  8
11
 62
7
 66
1
 70
1
  0
VERTEX
  8
11
 62
7
  6
CONTINUOUS
 10
-3354.4
 20
2432.45714285714
  0
VERTEX
  8
11
 62
7
  6
CONTINUOUS
 10
-3354.4
 20
2439.2
  0
VERTEX
  8
11
 62
7
  6
CONTINUOUS
 10
-3352
 20
2444
  0
VERTEX
  8
11
 62
7
  6
CONTINUOUS
 10
-3344.8
 20
2451.2
  0
VERTEX
  8
11
 62
7
  6
CONTINUOUS
 10
-3332
 20
2451.2
  0
VERTEX
  8
11
 62
7
  6
CONTINUOUS
 10
-3322.4
 20
2441.6
  0
VERTEX
  8
11
 62
7
  6
CONTINUOUS
 10
-3322.4
 20
2433.28
  0
VERTEX
  8
11
 62
7
  6
CONTINUOUS
 10
-3335.46666666667
 20
2417.6
  0
VERTEX
  8
11
 62
7
  6
CONTINUOUS
 10
-3338.4
 20
2417.6
  0
SEQEND
  0
POLYLINE
  8
11
 62
7
 66
1
 70
1
  0
VERTEX
  8
11
 62
7
  6
CONTINUOUS
 10
-3384.8
 20
1327.2
  0
VERTEX
  8
11
 62
7
  6
CONTINUOUS
 10
-3384.8
 20
1340
  0
VERTEX
  8
11
 62
7
  6
CONTINUOUS
 10
-3379.2
 20
1351.2
  0
VERTEX
  8
11
 62
7
  6
CONTINUOUS
 10
-3374.4
 20
1356
  0
VERTEX
  8
11
 62
7
  6
CONTINUOUS
 10
-3366.4
 20
1360
  0
VERTEX
  8
11
 62
7
  6
CONTINUOUS
 10
-3358.08
 20
1362.08
  0
VERTEX
  8
11
 62
7
  6
CONTINUOUS
 10
-3348.34285714286
 20
1360.45714285714
  0
VERTEX
  8
11
 62
7
  6
CONTINUOUS
 10
-3341.48571428571
 20
1357.71428571429
  0
VERTEX
  8
11
 62
7
  6
CONTINUOUS
 10
-3334.85283018868
 20
1352.73962264151
  0
VERTEX
  8
11
 62
7
  6
CONTINUOUS
 10
-3317.5
 20
1326.2
  0
VERTEX
  8
11
 62
7
  6
CONTINUOUS
 10
-3309.6
 20
1310.4
  0
VERTEX
  8
11
 62
7
  6
CONTINUOUS
 10
-3304
 20
1293.6
  0
VERTEX
  8
11
 62
7
  6
CONTINUOUS
 10
-3299.56923076923
 20
1275.87692307692
  0
VERTEX
  8
11
 62
7
  6
CONTINUOUS
 10
-3298.38
 20
1255.66
  0
VERTEX
  8
11
 62
7
  6
CONTINUOUS
 10
-3299.41818181818
 20
1231.78181818182
  0
VERTEX
  8
11
 62
7
  6
CONTINUOUS
 10
-3301.5375
 20
1229.6625
  0
VERTEX
  8
11
 62
7
  6
CONTINUOUS
 10
-3335.73333333333
 20
1270.93333333333
  0
VERTEX
  8
11
 62
7
  6
CONTINUOUS
 10
-3381.2
 20
1316.4
  0
SEQEND
  0
POLYLINE
  8
11
 62
7
 66
1
 70
1
  0
VERTEX
  8
11
 62
7
  6
CONTINUOUS
 10
-3425.6
 20
2336
  0
VERTEX
  8
11
 62
7
  6
CONTINUOUS
 10
-3425.6
 20
2339.2
  0
VERTEX
  8
11
 62
7
  6
CONTINUOUS
 10
-3419.2
 20
2344.53333333333
  0
VERTEX
  8
11
 62
7
  6
CONTINUOUS
 10
-3411.2
 20
2347.2
  0
VERTEX
  8
11
 62
7
  6
CONTINUOUS
 10
-3398.4
 20
2347.2
  0
VERTEX
  8
11
 62
7
  6
CONTINUOUS
 10
-3388
 20
2343.73333333333
  0
VERTEX
  8
11
 62
7
  6
CONTINUOUS
 10
-3368.86597938144
 20
2330.97731958763
  0
VERTEX
  8
11
 62
7
  6
CONTINUOUS
 10
-3341.6
 20
2336
  0
VERTEX
  8
11
 62
7
  6
CONTINUOUS
 10
-3336
 20
2336
  0
VERTEX
  8
11
 62
7
  6
CONTINUOUS
 10
-3336
 20
2330.66666666667
  0
VERTEX
  8
11
 62
7
  6
CONTINUOUS
 10
-3339.8
 20
2318
  0
VERTEX
  8
11
 62
7
  6
CONTINUOUS
 10
-3346.13333333333
 20
2305.33333333333
  0
VERTEX
  8
11
 62
7
  6
CONTINUOUS
 10
-3354.8
 20
2293.2
  0
VERTEX
  8
11
 62
7
  6
CONTINUOUS
 10
-3362.4
 20
2285.6
  0
VERTEX
  8
11
 62
7
  6
CONTINUOUS
 10
-3370.89655172414
 20
2279.53103448276
  0
VERTEX
  8
11
 62
7
  6
CONTINUOUS
 10
-3393.14170854271
 20
2275.66231155779
  0
VERTEX
  8
11
 62
7
  6
CONTINUOUS
 10
-3410.22222222222
 20
2288.24795321637
  0
SEQEND
  0
POLYLINE
  8
1
 62
7
 66
1
 70
1
  0
VERTEX
  8
1
 62
7
  6
CONTINUOUS
 10
-3477.6
 20
2285.6
  0
VERTEX
  8
1
 62
7
  6
CONTINUOUS
 10
-3470.52409240924
 20
2164.42508250825
  0
VERTEX
  8
1
 62
7
  6
CONTINUOUS
 10
-3469.25882352941
 20
2094.83529411765
  0
VERTEX
  8
1
 62
7
  6
CONTINUOUS
 10
-3474.19393939394
 20
2030.67878787879
  0
VERTEX
  8
1
 62
7
  6
CONTINUOUS
 10
-3424.79999999999
 20
2020.8
  0
VERTEX
  8
1
 62
7
  6
CONTINUOUS
 10
-3397.94285714286
 20
2010.05714285714
  0
VERTEX
  8
1
 62
7
  6
CONTINUOUS
 10
-3376.96
 20
1998.4
  0
VERTEX
  8
1
 62
7
  6
CONTINUOUS
 10
-3359.6
 20
1986
  0
VERTEX
  8
1
 62
7
  6
CONTINUOUS
 10
-3334.8
 20
1961.2
  0
VERTEX
  8
1
 62
7
  6
CONTINUOUS
 10
-3314.57777777776
 20
1932.88888888886
  0
VERTEX
  8
1
 62
7
  6
CONTINUOUS
 10
-3297.33333333333
 20
1904.86666666666
  0
VERTEX
  8
1
 62
7
  6
CONTINUOUS
 10
-3284.64
 20
1874.72
  0
VERTEX
  8
1
 62
7
  6
CONTINUOUS
 10
-3277.44
 20
1853.12
  0
VERTEX
  8
1
 62
7
  6
CONTINUOUS
 10
-3274.54094292804
 20
1837.17518610422
  0
VERTEX
  8
1
 62
7
  6
CONTINUOUS
 10
-3333.00761636107
 20
1646.52299012694
  0
VERTEX
  8
1
 62
7
  6
CONTINUOUS
 10
-3423.48032596042
 20
1749.92037252619
  0
VERTEX
  8
1
 62
7
  6
CONTINUOUS
 10
-3454.4
 20
1690.4
  0
VERTEX
  8
1
 62
7
  6
CONTINUOUS
 10
-3466.4
 20
1650.4
  0
VERTEX
  8
1
 62
7
  6
CONTINUOUS
 10
-3472.8
 20
1602.4
  0
VERTEX
  8
1
 62
7
  6
CONTINUOUS
 10
-3472.8
 20
1556.8
  0
VERTEX
  8
1
 62
7
  6
CONTINUOUS
 10
-3466.4
 20
1506.4
  0
VERTEX
  8
1
 62
7
  6
CONTINUOUS
 10
-3445.6
 20
1437.6
  0
VERTEX
  8
1
 62
7
  6
CONTINUOUS
 10
-3433.68662420382
 20
1411.22038216561
  0
VERTEX
  8
1
 62
7
  6
CONTINUOUS
 10
-3448.28365384615
 20
1279.84711538462
  0
VERTEX
  8
1
 62
7
  6
CONTINUOUS
 10
-3248.52663000786
 20
1075.27666928515
  0
VERTEX
  8
1
 62
7
  6
CONTINUOUS
 10
-3240.7625
 20
1075.83125
  0
VERTEX
  8
1
 62
7
  6
CONTINUOUS
 10
-3182.4
 20
1108.08421052632
  0
VERTEX
  8
1
 62
7
  6
CONTINUOUS
 10
-3182.4
 20
1155.46666666667
  0
VERTEX
  8
1
 62
7
  6
CONTINUOUS
 10
-3177.8
 20
1175.4
  0
VERTEX
  8
1
 62
7
  6
CONTINUOUS
 10
-3172
 20
1192.8
  0
VERTEX
  8
1
 62
7
  6
CONTINUOUS
 10
-3161.6
 20
1213.6
  0
VERTEX
  8
1
 62
7
  6
CONTINUOUS
 10
-3149.6
 20
1229.6
  0
VERTEX
  8
1
 62
7
  6
CONTINUOUS
 10
-3134.4
 20
1244.8
  0
VERTEX
  8
1
 62
7
  6
CONTINUOUS
 10
-3123.42857142857
 20
1253.94285714286
  0
VERTEX
  8
1
 62
7
  6
CONTINUOUS
 10
-3105.6
 20
1264.64
  0
VERTEX
  8
1
 62
7
  6
CONTINUOUS
 10
-3083.2
 20
1273.6
  0
VERTEX
  8
1
 62
7
  6
CONTINUOUS
 10
-3064.73043478261
 20
1277.70434782609
  0
VERTEX
  8
1
 62
7
  6
CONTINUOUS
 10
-3040.37333333333
 20
1279.22666666667
  0
VERTEX
  8
1
 62
7
  6
CONTINUOUS
 10
-3025.44
 20
1278.16
  0
VERTEX
  8
1
 62
7
  6
CONTINUOUS
 10
-3008.48
 20
1273.92
  0
VERTEX
  8
1
 62
7
  6
CONTINUOUS
 10
-2985.95555555555
 20
1264.26666666667
  0
VERTEX
  8
1
 62
7
  6
CONTINUOUS
 10
-2969.6
 20
1252
  0
VERTEX
  8
1
 62
7
  6
CONTINUOUS
 10
-2955.2
 20
1237.6
  0
VERTEX
  8
1
 62
7
  6
CONTINUOUS
 10
-2947.2
 20
1225.6
  0
VERTEX
  8
1
 62
7
  6
CONTINUOUS
 10
-2937.37142857143
 20
1205.94285714286
  0
VERTEX
  8
1
 62
7
  6
CONTINUOUS
 10
-2931.2
 20
1182.8
  0
VERTEX
  8
1
 62
7
  6
CONTINUOUS
 10
-2931.2
 20
1155.2
  0
VERTEX
  8
1
 62
7
  6
CONTINUOUS
 10
-2932.91428571429
 20
1143.2
  0
VERTEX
  8
1
 62
7
  6
CONTINUOUS
 10
-2942.46956521739
 20
1109.75652173913
  0
VERTEX
  8
1
 62
7
  6
CONTINUOUS
 10
-2916.8
 20
1117.6
  0
VERTEX
  8
1
 62
7
  6
CONTINUOUS
 10
-2875.2
 20
1142.4
  0
VERTEX
  8
1
 62
7
  6
CONTINUOUS
 10
-2851.2
 20
1166.4
  0
VERTEX
  8
1
 62
7
  6
CONTINUOUS
 10
-2832.8
 20
1194.4
  0
VERTEX
  8
1
 62
7
  6
CONTINUOUS
 10
-2825.6
 20
1222.4
  0
VERTEX
  8
1
 62
7
  6
CONTINUOUS
 10
-2825.94285714286
 20
1236.45714285714
  0
VERTEX
  8
1
 62
7
  6
CONTINUOUS
 10
-2833.53333333333
 20
1282
  0
VERTEX
  8
1
 62
7
  6
CONTINUOUS
 10
-2831.26153846154
 20
1295.63076923077
  0
VERTEX
  8
1
 62
7
  6
CONTINUOUS
 10
-2826.17142857143
 20
1304.11428571429
  0
VERTEX
  8
1
 62
7
  6
CONTINUOUS
 10
-2819.88571428571
 20
1311.65714285714
  0
VERTEX
  8
1
 62
7
  6
CONTINUOUS
 10
-2810.4
 20
1316.4
  0
VERTEX
  8
1
 62
7
  6
CONTINUOUS
 10
-2797.74545454545
 20
1319.56363636364
  0
VERTEX
  8
1
 62
7
  6
CONTINUOUS
 10
-2788.8
 20
1318.28571428571
  0
VERTEX
  8
1
 62
7
  6
CONTINUOUS
 10
-2778.93333333333
 20
1315.46666666667
  0
VERTEX
  8
1
 62
7
  6
CONTINUOUS
 10
-2770.93333333333
 20
1311.46666666667
  0
VERTEX
  8
1
 62
7
  6
CONTINUOUS
 10
-2762.6
 20
1304.8
  0
VERTEX
  8
1
 62
7
  6
CONTINUOUS
 10
-2757.2
 20
1297.6
  0
VERTEX
  8
1
 62
7
  6
CONTINUOUS
 10
-2752.8
 20
1288.8
  0
VERTEX
  8
1
 62
7
  6
CONTINUOUS
 10
-2746.36279069767
 20
1263.0511627907
  0
VERTEX
  8
1
 62
7
  6
CONTINUOUS
 10
-2726.4
 20
1242.4
  0
VERTEX
  8
1
 62
7
  6
CONTINUOUS
 10
-2696
 20
1232.8
  0
VERTEX
  8
1
 62
7
  6
CONTINUOUS
 10
-2672
 20
1234.4
  0
VERTEX
  8
1
 62
7
  6
CONTINUOUS
 10
-2642.4
 20
1248
  0
VERTEX
  8
1
 62
7
  6
CONTINUOUS
 10
-2627.2
 20
1263.2
  0
VERTEX
  8
1
 62
7
  6
CONTINUOUS
 10
-2614.4
 20
1289.6
  0
VERTEX
  8
1
 62
7
  6
CONTINUOUS
 10
-2611.2
 20
1320.8
  0
VERTEX
  8
1
 62
7
  6
CONTINUOUS
 10
-2613.6
 20
1336
  0
VERTEX
  8
1
 62
7
  6
CONTINUOUS
 10
-2629.67272727273
 20
1365.67272727273
  0
VERTEX
  8
1
 62
7
  6
CONTINUOUS
 10
-2657.48571428571
 20
1393.48571428571
  0
VERTEX
  8
1
 62
7
  6
CONTINUOUS
 10
-2675.32903225806
 20
1423.81935483871
  0
VERTEX
  8
1
 62
7
  6
CONTINUOUS
 10
-2708.9306122449
 20
1484.8
  0
VERTEX
  8
1
 62
7
  6
CONTINUOUS
 10
-2705.6
 20
1484.8
  0
VERTEX
  8
1
 62
7
  6
CONTINUOUS
 10
-2511.44375
 20
1407.3078125
  0
VERTEX
  8
1
 62
7
  6
CONTINUOUS
 10
-2471.7780104712
 20
1389.76335078534
  0
VERTEX
  8
1
 62
7
  6
CONTINUOUS
 10
-2552
 20
1523.46666666667
  0
VERTEX
  8
1
 62
7
  6
CONTINUOUS
 10
-2552
 20
1526.18181818182
  0
VERTEX
  8
1
 62
7
  6
CONTINUOUS
 10
-2472.53333333333
 20
1491.86666666667
  0
VERTEX
  8
1
 62
7
  6
CONTINUOUS
 10
-2436.12015810277
 20
1473.66007905138
  0
VERTEX
  8
1
 62
7
  6
CONTINUOUS
 10
-2453.46957373836
 20
1597.84536991671
  0
VERTEX
  8
1
 62
7
  6
CONTINUOUS
 10
-2346.74285714286
 20
1667.70285714286
  0
VERTEX
  8
1
 62
7
  6
CONTINUOUS
 10
-2338.74103585657
 20
1670.90358565737
  0
VERTEX
  8
1
 62
7
  6
CONTINUOUS
 10
-2254.4
 20
1620.8
  0
VERTEX
  8
1
 62
7
  6
CONTINUOUS
 10
-2244.8
 20
1612
  0
VERTEX
  8
1
 62
7
  6
CONTINUOUS
 10
-2220.23272727273
 20
1610.63515151515
  0
VERTEX
  8
1
 62
7
  6
CONTINUOUS
 10
-2242.54545454545
 20
1645.96363636364
  0
VERTEX
  8
1
 62
7
  6
CONTINUOUS
 10
-2253.6
 20
1673.6
  0
VERTEX
  8
1
 62
7
  6
CONTINUOUS
 10
-2261.47692307692
 20
1705.10769230769
  0
VERTEX
  8
1
 62
7
  6
CONTINUOUS
 10
-2263.76
 20
1743.92
  0
VERTEX
  8
1
 62
7
  6
CONTINUOUS
 10
-2261.27058823529
 20
1776.28235294118
  0
VERTEX
  8
1
 62
7
  6
CONTINUOUS
 10
-2256.32
 20
1798.56
  0
VERTEX
  8
1
 62
7
  6
CONTINUOUS
 10
-2249.6
 20
1812
  0
VERTEX
  8
1
 62
7
  6
CONTINUOUS
 10
-2238.4
 20
1823.2
  0
VERTEX
  8
1
 62
7
  6
CONTINUOUS
 10
-2230.4
 20
1827.2
  0
VERTEX
  8
1
 62
7
  6
CONTINUOUS
 10
-2218.4
 20
1831.2
  0
VERTEX
  8
1
 62
7
  6
CONTINUOUS
 10
-2205.6
 20
1831.2
  0
VERTEX
  8
1
 62
7
  6
CONTINUOUS
 10
-2189.6
 20
1826.4
  0
VERTEX
  8
1
 62
7
  6
CONTINUOUS
 10
-2181.2
 20
1822.8
  0
VERTEX
  8
1
 62
7
  6
CONTINUOUS
 10
-2169.6
 20
1811.2
  0
VERTEX
  8
1
 62
7
  6
CONTINUOUS
 10
-2159.1743315508
 20
1790.3486631016
  0
VERTEX
  8
1
 62
7
  6
CONTINUOUS
 10
-2100
 20
1817.6
  0
VERTEX
  8
1
 62
7
  6
CONTINUOUS
 10
-2005.6
 20
1879.2
  0
VERTEX
  8
1
 62
7
  6
CONTINUOUS
 10
-1963.2
 20
1920.8
  0
VERTEX
  8
1
 62
7
  6
CONTINUOUS
 10
-1936
 20
1956
  0
VERTEX
  8
1
 62
7
  6
CONTINUOUS
 10
-1996
 20
1969.6
  0
VERTEX
  8
1
 62
7
  6
CONTINUOUS
 10
-2040.8
 20
1973.6
  0
VERTEX
  8
1
 62
7
  6
CONTINUOUS
 10
-2072
 20
1961.6
  0
VERTEX
  8
1
 62
7
  6
CONTINUOUS
 10
-2096.8
 20
1934.4
  0
VERTEX
  8
1
 62
7
  6
CONTINUOUS
 10
-2100
 20
1934.4
  0
VERTEX
  8
1
 62
7
  6
CONTINUOUS
 10
-2119.2
 20
1940.8
  0
VERTEX
  8
1
 62
7
  6
CONTINUOUS
 10
-2135.2
 20
1948.8
  0
VERTEX
  8
1
 62
7
  6
CONTINUOUS
 10
-2152
 20
1960
  0
VERTEX
  8
1
 62
7
  6
CONTINUOUS
 10
-2171.2
 20
1979.2
  0
VERTEX
  8
1
 62
7
  6
CONTINUOUS
 10
-2180.8
 20
1993.6
  0
VERTEX
  8
1
 62
7
  6
CONTINUOUS
 10
-2189.8
 20
2011.6
  0
VERTEX
  8
1
 62
7
  6
CONTINUOUS
 10
-2192
 20
2024.8
  0
VERTEX
  8
1
 62
7
  6
CONTINUOUS
 10
-2192
 20
2047.2
  0
VERTEX
  8
1
 62
7
  6
CONTINUOUS
 10
-2185.42127659574
 20
2073.51489361702
  0
VERTEX
  8
1
 62
7
  6
CONTINUOUS
 10
-2243.2
 20
2140
  0
VERTEX
  8
1
 62
7
  6
CONTINUOUS
 10
-2307.2
 20
2189.6
  0
VERTEX
  8
1
 62
7
  6
CONTINUOUS
 10
-2351.2
 20
2205.6
  0
VERTEX
  8
1
 62
7
  6
CONTINUOUS
 10
-2365.85734265734
 20
2206.33286713287
  0
VERTEX
  8
1
 62
7
  6
CONTINUOUS
 10
-2380.50909090909
 20
2172.14545454546
  0
VERTEX
  8
1
 62
7
  6
CONTINUOUS
 10
-2396.82580645161
 20
2143.27741935484
  0
VERTEX
  8
1
 62
7
  6
CONTINUOUS
 10
-2414.65263157895
 20
2117.81052631579
  0
VERTEX
  8
1
 62
7
  6
CONTINUOUS
 10
-2440.6
 20
2090.13333333333
  0
VERTEX
  8
1
 62
7
  6
CONTINUOUS
 10
-2463.38064516129
 20
2069.88387096774
  0
VERTEX
  8
1
 62
7
  6
CONTINUOUS
 10
-2500.16
 20
2046.24
  0
VERTEX
  8
1
 62
7
  6
CONTINUOUS
 10
-2516.4
 20
2041.6
  0
VERTEX
  8
1
 62
7
  6
CONTINUOUS
 10
-2528.8
 20
2041.6
  0
VERTEX
  8
1
 62
7
  6
CONTINUOUS
 10
-2538.4
 20
2043.2
  0
VERTEX
  8
1
 62
7
  6
CONTINUOUS
 10
-2551.2
 20
2049.6
  0
VERTEX
  8
1
 62
7
  6
CONTINUOUS
 10
-2563.2
 20
2061.6
  0
VERTEX
  8
1
 62
7
  6
CONTINUOUS
 10
-2568
 20
2071.2
  0
VERTEX
  8
1
 62
7
  6
CONTINUOUS
 10
-2570.4
 20
2080.8
  0
VERTEX
  8
1
 62
7
  6
CONTINUOUS
 10
-2570.4
 20
2096.8
  0
VERTEX
  8
1
 62
7
  6
CONTINUOUS
 10
-2567.65714285714
 20
2107.77142857143
  0
VERTEX
  8
1
 62
7
  6
CONTINUOUS
 10
-2560.8
 20
2119.2
  0
VERTEX
  8
1
 62
7
  6
CONTINUOUS
 10
-2554.4
 20
2125.6
  0
VERTEX
  8
1
 62
7
  6
CONTINUOUS
 10
-2546
 20
2131.2
  0
VERTEX
  8
1
 62
7
  6
CONTINUOUS
 10
-2535.07692307692
 20
2135.56923076923
  0
VERTEX
  8
1
 62
7
  6
CONTINUOUS
 10
-2508.81593030492
 20
2138.48711885501
  0
VERTEX
  8
1
 62
7
  6
CONTINUOUS
 10
-2534.37877632233
 20
2278.28393301277
  0
VERTEX
  8
1
 62
7
  6
CONTINUOUS
 10
-2656
 20
2248.8
  0
VERTEX
  8
1
 62
7
  6
CONTINUOUS
 10
-2660.36226415094
 20
2248.8
  0
VERTEX
  8
1
 62
7
  6
CONTINUOUS
 10
-2655.2
 20
2294.4
  0
VERTEX
  8
1
 62
7
  6
CONTINUOUS
 10
-2659.2
 20
2324.8
  0
VERTEX
  8
1
 62
7
  6
CONTINUOUS
 10
-2664.8
 20
2336.8
  0
VERTEX
  8
1
 62
7
  6
CONTINUOUS
 10
-2678.24367816092
 20
2347.87126436782
  0
VERTEX
  8
1
 62
7
  6
CONTINUOUS
 10
-2717.29230769231
 20
2340.06153846154
  0
VERTEX
  8
1
 62
7
  6
CONTINUOUS
 10
-2733.44
 20
2342.08
  0
VERTEX
  8
1
 62
7
  6
CONTINUOUS
 10
-2750.24
 20
2347.68
  0
VERTEX
  8
1
 62
7
  6
CONTINUOUS
 10
-2762.4
 20
2356.8
  0
VERTEX
  8
1
 62
7
  6
CONTINUOUS
 10
-2773.6
 20
2368
  0
VERTEX
  8
1
 62
7
  6
CONTINUOUS
 10
-2782.93333333333
 20
2386.66666666667
  0
VERTEX
  8
1
 62
7
  6
CONTINUOUS
 10
-2788
 20
2404.4
  0
VERTEX
  8
1
 62
7
  6
CONTINUOUS
 10
-2788
 20
2424
  0
VERTEX
  8
1
 62
7
  6
CONTINUOUS
 10
-2786.56
 20
2435.52
  0
VERTEX
  8
1
 62
7
  6
CONTINUOUS
 10
-2781.6
 20
2450.4
  0
VERTEX
  8
1
 62
7
  6
CONTINUOUS
 10
-2770.84444444444
 20
2471.91111111111
  0
VERTEX
  8
1
 62
7
  6
CONTINUOUS
 10
-2770.47164179104
 20
2476.01194029851
  0
VERTEX
  8
1
 62
7
  6
CONTINUOUS
 10
-2793.44
 20
2479.84
  0
VERTEX
  8
1
 62
7
  6
CONTINUOUS
 10
-2817.2
 20
2492.8
  0
VERTEX
  8
1
 62
7
  6
CONTINUOUS
 10
-2824.73846153846
 20
2498.83076923077
  0
VERTEX
  8
1
 62
7
  6
CONTINUOUS
 10
-2830.48
 20
2508.4
  0
VERTEX
  8
1
 62
7
  6
CONTINUOUS
 10
-2835.02857142857
 20
2531.14285714286
  0
VERTEX
  8
1
 62
7
  6
CONTINUOUS
 10
-2864
 20
2540.8
  0
VERTEX
  8
1
 62
7
  6
CONTINUOUS
 10
-2888.8
 20
2544
  0
VERTEX
  8
1
 62
7
  6
CONTINUOUS
 10
-2935.2
 20
2540
  0
VERTEX
  8
1
 62
7
  6
CONTINUOUS
 10
-3010.51034482759
 20
2516
  0
VERTEX
  8
1
 62
7
  6
CONTINUOUS
 10
-3016.35918367347
 20
2516
  0
VERTEX
  8
1
 62
7
  6
CONTINUOUS
 10
-3078.4
 20
2556
  0
VERTEX
  8
1
 62
7
  6
CONTINUOUS
 10
-3147.13497164461
 20
2579.97731568998
  0
VERTEX
  8
1
 62
7
  6
CONTINUOUS
 10
-3126.4
 20
2445.2
  0
VERTEX
  8
1
 62
7
  6
CONTINUOUS
 10
-3126.4
 20
2437.54838709677
  0
VERTEX
  8
1
 62
7
  6
CONTINUOUS
 10
-3182.86068111455
 20
2452.11888544892
  0
VERTEX
  8
1
 62
7
  6
CONTINUOUS
 10
-3284.22222222222
 20
2583.88888888889
  0
VERTEX
  8
1
 62
7
  6
CONTINUOUS
 10
-3333.6
 20
2559.2
  0
VERTEX
  8
1
 62
7
  6
CONTINUOUS
 10
-3354.4
 20
2542.4
  0
VERTEX
  8
1
 62
7
  6
CONTINUOUS
 10
-3420
 20
2447.2
  0
VERTEX
  8
1
 62
7
  6
CONTINUOUS
 10
-3452.8
 20
2384
  0
VERTEX
  8
1
 62
7
  6
CONTINUOUS
 10
-3468.8
 20
2339.2
  0
SEQEND
  0
ENDSEC
  0
EOF
