  0
SECTION
  2
HEADER
  0
ENDSEC
  0
SECTION
  2
TABLES
  0
ENDSEC
  0
SECTION
  2
BLOCKS
  0
ENDSEC
  0
SECTION
  2
ENTITIES
  0
TEXT
  1
MARK_1
  8
72
 10
-3216.32
 20
2196.32
 11
-3216.32
 21
2196.32
 62
3
 40
40
 50
90
 72
0
 73
1
  0
TEXT
  1
MARK_2
  8
72
 10
-3243.52
 20
1201.12
 11
-3243.52
 21
1201.12
 62
3
 40
40
 50
90
 72
0
 73
1
  0
POLYLINE
  8
51
 62
7
 66
1
 70
1
  0
VERTEX
  8
51
 62
7
  6
CONTINUOUS
 10
-1280.62960000226
 20
853.199487774653
  0
VERTEX
  8
51
 62
7
  6
CONTINUOUS
 10
-1278.57864045256
 20
827.68124785445
  0
VERTEX
  8
51
 62
7
  6
CONTINUOUS
 10
-1275.38489834019
 20
811.037209595215
  0
VERTEX
  8
51
 62
7
  6
CONTINUOUS
 10
-1270.40605638084
 20
794.781884472998
  0
VERTEX
  8
51
 62
7
  6
CONTINUOUS
 10
-1263.77820416664
 20
779.091302977189
  0
VERTEX
  8
51
 62
7
  6
CONTINUOUS
 10
-1255.72757633642
 20
764.148094685817
  0
VERTEX
  8
51
 62
7
  6
CONTINUOUS
 10
-1246.37683598186
 20
749.995072532685
  0
VERTEX
  8
51
 62
7
  6
CONTINUOUS
 10
-1240.71995983917
 20
743.18605792176
  0
VERTEX
  8
51
 62
7
  6
CONTINUOUS
 10
-932.286667494622
 20
594.081908306308
  0
VERTEX
  8
51
 62
7
  6
CONTINUOUS
 10
-907.152110277438
 20
605.501535307692
  0
VERTEX
  8
51
 62
7
  6
CONTINUOUS
 10
-884.471992840437
 20
622.203456605727
  0
VERTEX
  8
51
 62
7
  6
CONTINUOUS
 10
-876.821618875019
 20
629.708216557113
  0
VERTEX
  8
51
 62
7
  6
CONTINUOUS
 10
-869.751546540614
 20
638.162656968997
  0
VERTEX
  8
51
 62
7
  6
CONTINUOUS
 10
-863.292713294545
 20
647.357907343875
  0
VERTEX
  8
51
 62
7
  6
CONTINUOUS
 10
-857.531394550348
 20
657.395532954093
  0
VERTEX
  8
51
 62
7
  6
CONTINUOUS
 10
-850.686642661922
 20
673.640663165956
  0
VERTEX
  8
51
 62
7
  6
CONTINUOUS
 10
-846.696907449647
 20
685.403243858853
  0
VERTEX
  8
51
 62
7
  6
CONTINUOUS
 10
-843.342927685283
 20
704.472192117936
  0
VERTEX
  8
51
 62
7
  6
CONTINUOUS
 10
-842.800774539865
 20
718.116436211614
  0
VERTEX
  8
51
 62
7
  6
CONTINUOUS
 10
-843.459591910015
 20
732.243035443868
  0
VERTEX
  8
51
 62
7
  6
CONTINUOUS
 10
-845.380568413508
 20
746.943437154203
  0
VERTEX
  8
51
 62
7
  6
CONTINUOUS
 10
-848.657026112322
 20
761.998471443065
  0
VERTEX
  8
51
 62
7
  6
CONTINUOUS
 10
-852.550506701655
 20
777.187901106592
  0
VERTEX
  8
51
 62
7
  6
CONTINUOUS
 10
-860.418138811702
 20
800.407465798198
  0
VERTEX
  8
51
 62
7
  6
CONTINUOUS
 10
-875.126368391502
 20
832.420823438748
  0
VERTEX
  8
51
 62
7
  6
CONTINUOUS
 10
-883.980868724078
 20
848.63864174312
  0
VERTEX
  8
51
 62
7
  6
CONTINUOUS
 10
-894.192942998486
 20
864.872382822818
  0
VERTEX
  8
51
 62
7
  6
CONTINUOUS
 10
-916.784292650634
 20
895.956681751001
  0
VERTEX
  8
51
 62
7
  6
CONTINUOUS
 10
-929.866015896454
 20
911.108329059969
  0
VERTEX
  8
51
 62
7
  6
CONTINUOUS
 10
-944.103928031036
 20
925.584812693385
  0
VERTEX
  8
51
 62
7
  6
CONTINUOUS
 10
-966.509455569204
 20
945.335620278675
  0
VERTEX
  8
51
 62
7
  6
CONTINUOUS
 10
-982.586092218823
 20
957.462420792793
  0
VERTEX
  8
51
 62
7
  6
CONTINUOUS
 10
-999.233545043689
 20
968.484562871308
  0
VERTEX
  8
51
 62
7
  6
CONTINUOUS
 10
-1024.34524276917
 20
982.271489207534
  0
VERTEX
  8
51
 62
7
  6
CONTINUOUS
 10
-1050.63958771607
 20
993.206971122943
  0
VERTEX
  8
51
 62
7
  6
CONTINUOUS
 10
-1068.6784168462
 20
998.871769004591
  0
VERTEX
  8
51
 62
7
  6
CONTINUOUS
 10
-1086.61735983321
 20
1003.14181497197
  0
VERTEX
  8
51
 62
7
  6
CONTINUOUS
 10
-1113.54827911523
 20
1006.56065394062
  0
VERTEX
  8
51
 62
7
  6
CONTINUOUS
 10
-1131.18750099332
 20
1006.87686183384
  0
VERTEX
  8
51
 62
7
  6
CONTINUOUS
 10
-1147.48576750159
 20
1005.75716371382
  0
VERTEX
  8
51
 62
7
  6
CONTINUOUS
 10
-1156.78062015834
 20
1004.59677439269
  0
VERTEX
  8
51
 62
7
  6
CONTINUOUS
 10
-1173.27365963841
 20
1001.04742740333
  0
VERTEX
  8
51
 62
7
  6
CONTINUOUS
 10
-1189.11558792944
 20
995.917967485671
  0
VERTEX
  8
51
 62
7
  6
CONTINUOUS
 10
-1204.10314222217
 20
989.312269678457
  0
VERTEX
  8
51
 62
7
  6
CONTINUOUS
 10
-1211.30498257566
 20
985.453057203982
  0
VERTEX
  8
51
 62
7
  6
CONTINUOUS
 10
-1224.82442763885
 20
976.420709853793
  0
VERTEX
  8
51
 62
7
  6
CONTINUOUS
 10
-1243.00562476697
 20
959.932548721509
  0
VERTEX
  8
51
 62
7
  6
CONTINUOUS
 10
-1257.85021124001
 20
940.685274773127
  0
VERTEX
  8
51
 62
7
  6
CONTINUOUS
 10
-1265.81227307752
 20
926.293023858697
  0
VERTEX
  8
51
 62
7
  6
CONTINUOUS
 10
-1272.20411583008
 20
910.991405901613
  0
VERTEX
  8
51
 62
7
  6
CONTINUOUS
 10
-1276.91436293461
 20
895.150339745714
  0
VERTEX
  8
51
 62
7
  6
CONTINUOUS
 10
-1278.547890385
 20
886.919063480516
  0
VERTEX
  8
51
 62
7
  6
CONTINUOUS
 10
-1280.58760263172
 20
870.5696581136
  0
SEQEND
  0
POLYLINE
  8
51
 62
7
 66
1
 70
1
  0
VERTEX
  8
51
 62
7
  6
CONTINUOUS
 10
-2213.03480161221
 20
946.662359500491
  0
VERTEX
  8
51
 62
7
  6
CONTINUOUS
 10
-2211.67508041051
 20
925.588523985506
  0
VERTEX
  8
51
 62
7
  6
CONTINUOUS
 10
-2209.14170285801
 20
912.110676385858
  0
VERTEX
  8
51
 62
7
  6
CONTINUOUS
 10
-2204.18204875432
 20
892.944884280347
  0
VERTEX
  8
51
 62
7
  6
CONTINUOUS
 10
-2197.27975225848
 20
876.110167552424
  0
VERTEX
  8
51
 62
7
  6
CONTINUOUS
 10
-2185.14506695495
 20
855.178959825438
  0
VERTEX
  8
51
 62
7
  6
CONTINUOUS
 10
-2178.70758904906
 20
848.818878225684
  0
VERTEX
  8
51
 62
7
  6
CONTINUOUS
 10
-2174.87959066284
 20
847.062644067775
  0
VERTEX
  8
51
 62
7
  6
CONTINUOUS
 10
-2172.29473766809
 20
847.275307989182
  0
VERTEX
  8
51
 62
7
  6
CONTINUOUS
 10
-2080.24907231794
 20
905.785083729644
  0
VERTEX
  8
51
 62
7
  6
CONTINUOUS
 10
-2070.12518089812
 20
918.301271060374
  0
VERTEX
  8
51
 62
7
  6
CONTINUOUS
 10
-2065.79746107219
 20
929.335649150839
  0
VERTEX
  8
51
 62
7
  6
CONTINUOUS
 10
-2062.71804117314
 20
947.910766453522
  0
VERTEX
  8
51
 62
7
  6
CONTINUOUS
 10
-2061.94015536423
 20
965.367194291217
  0
VERTEX
  8
51
 62
7
  6
CONTINUOUS
 10
-2062.84738689291
 20
979.577611624906
  0
VERTEX
  8
51
 62
7
  6
CONTINUOUS
 10
-2066.87546493526
 20
999.930171103879
  0
VERTEX
  8
51
 62
7
  6
CONTINUOUS
 10
-2071.85780041362
 20
1015.69348153514
  0
VERTEX
  8
51
 62
7
  6
CONTINUOUS
 10
-2080.59769437196
 20
1036.01698073899
  0
VERTEX
  8
51
 62
7
  6
CONTINUOUS
 10
-2088.96135117399
 20
1050.04301214073
  0
VERTEX
  8
51
 62
7
  6
CONTINUOUS
 10
-2098.64223963669
 20
1062.51388288688
  0
VERTEX
  8
51
 62
7
  6
CONTINUOUS
 10
-2109.37906794109
 20
1072.62148621835
  0
VERTEX
  8
51
 62
7
  6
CONTINUOUS
 10
-2117.54389250029
 20
1077.6982495698
  0
VERTEX
  8
51
 62
7
  6
CONTINUOUS
 10
-2125.76364752017
 20
1081.19158751004
  0
VERTEX
  8
51
 62
7
  6
CONTINUOUS
 10
-2133.68683354395
 20
1082.5515169994
  0
VERTEX
  8
51
 62
7
  6
CONTINUOUS
 10
-2150.27827444464
 20
1080.8424946777
  0
VERTEX
  8
51
 62
7
  6
CONTINUOUS
 10
-2162.41047496027
 20
1076.28793929806
  0
VERTEX
  8
51
 62
7
  6
CONTINUOUS
 10
-2170.5542179127
 20
1071.20898283998
  0
VERTEX
  8
51
 62
7
  6
CONTINUOUS
 10
-2181.60973747414
 20
1059.78509110734
  0
VERTEX
  8
51
 62
7
  6
CONTINUOUS
 10
-2188.14527479976
 20
1049.97700349207
  0
VERTEX
  8
51
 62
7
  6
CONTINUOUS
 10
-2196.88845982746
 20
1032.69784057757
  0
VERTEX
  8
51
 62
7
  6
CONTINUOUS
 10
-2203.71631009753
 20
1013.98790447312
  0
VERTEX
  8
51
 62
7
  6
CONTINUOUS
 10
-2208.63572119289
 20
995.025060510517
  0
VERTEX
  8
51
 62
7
  6
CONTINUOUS
 10
-2211.04819928045
 20
981.680218889233
  0
VERTEX
  8
51
 62
7
  6
CONTINUOUS
 10
-2212.84716741597
 20
960.862826511911
  0
SEQEND
  0
POLYLINE
  8
52
 62
7
 66
1
 70
1
  0
VERTEX
  8
52
 62
7
  6
CONTINUOUS
 10
-3292.72326419361
 20
1477.76007688658
  0
VERTEX
  8
52
 62
7
  6
CONTINUOUS
 10
-3292.56150434402
 20
1476.68480216997
  0
VERTEX
  8
52
 62
7
  6
CONTINUOUS
 10
-3289.71758918255
 20
1477.57259644066
  0
VERTEX
  8
52
 62
7
  6
CONTINUOUS
 10
-3237.63213563274
 20
1501.1478699126
  0
VERTEX
  8
52
 62
7
  6
CONTINUOUS
 10
-3154.73236230343
 20
1542.51558888237
  0
VERTEX
  8
52
 62
7
  6
CONTINUOUS
 10
-3121.71600556225
 20
1557.40287918034
  0
VERTEX
  8
52
 62
7
  6
CONTINUOUS
 10
-3100.80358359535
 20
1569.90247296234
  0
VERTEX
  8
52
 62
7
  6
CONTINUOUS
 10
-3095.74945031292
 20
1574.26584816329
  0
SEQEND
  0
POLYLINE
  8
52
 62
7
 66
1
 70
1
  0
VERTEX
  8
52
 62
7
  6
CONTINUOUS
 10
-1789.49621381145
 20
850.837602851101
  0
VERTEX
  8
52
 62
7
  6
CONTINUOUS
 10
-1788.93564701365
 20
836.549922297836
  0
VERTEX
  8
52
 62
7
  6
CONTINUOUS
 10
-1785.83803137297
 20
821.486438784682
  0
VERTEX
  8
52
 62
7
  6
CONTINUOUS
 10
-1781.83282931768
 20
811.226096633768
  0
VERTEX
  8
52
 62
7
  6
CONTINUOUS
 10
-1774.38747572597
 20
800.939033216757
  0
VERTEX
  8
52
 62
7
  6
CONTINUOUS
 10
-1768.21052831246
 20
797.009340902388
  0
VERTEX
  8
52
 62
7
  6
CONTINUOUS
 10
-1764.77991343737
 20
796.510071878004
  0
VERTEX
  8
52
 62
7
  6
CONTINUOUS
 10
-1759.94482284455
 20
797.223001809703
  0
VERTEX
  8
52
 62
7
  6
CONTINUOUS
 10
-1754.28362928755
 20
799.557328899986
  0
VERTEX
  8
52
 62
7
  6
CONTINUOUS
 10
-1748.14693421891
 20
803.330548579204
  0
VERTEX
  8
52
 62
7
  6
CONTINUOUS
 10
-1731.79852633514
 20
818.730480637941
  0
VERTEX
  8
52
 62
7
  6
CONTINUOUS
 10
-1727.54271285592
 20
826.543582979814
  0
VERTEX
  8
52
 62
7
  6
CONTINUOUS
 10
-1725.36716878204
 20
832.339168892285
  0
VERTEX
  8
52
 62
7
  6
CONTINUOUS
 10
-1723.73299926104
 20
841.624561102859
  0
VERTEX
  8
52
 62
7
  6
CONTINUOUS
 10
-1723.89410035376
 20
848.386566034088
  0
VERTEX
  8
52
 62
7
  6
CONTINUOUS
 10
-1725.12430839001
 20
855.312433050796
  0
VERTEX
  8
52
 62
7
  6
CONTINUOUS
 10
-1729.01245459471
 20
865.461721427362
  0
VERTEX
  8
52
 62
7
  6
CONTINUOUS
 10
-1732.57068484005
 20
871.9808705301
  0
VERTEX
  8
52
 62
7
  6
CONTINUOUS
 10
-1739.44251299914
 20
881.339451715208
  0
VERTEX
  8
52
 62
7
  6
CONTINUOUS
 10
-1747.75522001655
 20
889.318850620321
  0
VERTEX
  8
52
 62
7
  6
CONTINUOUS
 10
-1756.21825114403
 20
894.875106954005
  0
VERTEX
  8
52
 62
7
  6
CONTINUOUS
 10
-1764.3510526526
 20
897.581962519874
  0
VERTEX
  8
52
 62
7
  6
CONTINUOUS
 10
-1770.97151047317
 20
897.294795007279
  0
VERTEX
  8
52
 62
7
  6
CONTINUOUS
 10
-1783.37652083383
 20
872.269883141623
  0
VERTEX
  8
52
 62
7
  6
CONTINUOUS
 10
-1787.44059347739
 20
862.413411158455
  0
SEQEND
  0
POLYLINE
  8
52
 62
7
 66
1
 70
1
  0
VERTEX
  8
52
 62
7
  6
CONTINUOUS
 10
-1356.93294200766
 20
2010.01763400317
  0
VERTEX
  8
52
 62
7
  6
CONTINUOUS
 10
-1355.34559523005
 20
2001.31022586283
  0
VERTEX
  8
52
 62
7
  6
CONTINUOUS
 10
-1314.12328478904
 20
1992.6856926027
  0
VERTEX
  8
52
 62
7
  6
CONTINUOUS
 10
-1291.65122531875
 20
1989.39147650085
  0
VERTEX
  8
52
 62
7
  6
CONTINUOUS
 10
-1278.58717642443
 20
1989.50733719062
  0
VERTEX
  8
52
 62
7
  6
CONTINUOUS
 10
-1272.79311921705
 20
1991.04760753176
  0
VERTEX
  8
52
 62
7
  6
CONTINUOUS
 10
-1268.34441184896
 20
1993.80493487815
  0
VERTEX
  8
52
 62
7
  6
CONTINUOUS
 10
-1264.74106966963
 20
1997.77056613551
  0
VERTEX
  8
52
 62
7
  6
CONTINUOUS
 10
-1260.71025203262
 20
2005.30260968708
  0
VERTEX
  8
52
 62
7
  6
CONTINUOUS
 10
-1256.80580843174
 20
2017.82251532115
  0
VERTEX
  8
52
 62
7
  6
CONTINUOUS
 10
-1253.35397487596
 20
2035.75578712785
  0
VERTEX
  8
52
 62
7
  6
CONTINUOUS
 10
-1249.44218347731
 20
2063.23897458197
  0
VERTEX
  8
52
 62
7
  6
CONTINUOUS
 10
-1248.51440335782
 20
2075.11591081922
  0
VERTEX
  8
52
 62
7
  6
CONTINUOUS
 10
-1249.30753088937
 20
2086.11402072867
  0
VERTEX
  8
52
 62
7
  6
CONTINUOUS
 10
-1251.58326791176
 20
2091.18096242834
  0
VERTEX
  8
52
 62
7
  6
CONTINUOUS
 10
-1256.61832848262
 20
2094.94199204459
  0
VERTEX
  8
52
 62
7
  6
CONTINUOUS
 10
-1267.15457169838
 20
2098.63250267066
  0
VERTEX
  8
52
 62
7
  6
CONTINUOUS
 10
-1281.09173213713
 20
2101.30226539425
  0
VERTEX
  8
52
 62
7
  6
CONTINUOUS
 10
-1300.47330195501
 20
2103.29065946928
  0
VERTEX
  8
52
 62
7
  6
CONTINUOUS
 10
-1310.51897344504
 20
2103.14188595695
  0
VERTEX
  8
52
 62
7
  6
CONTINUOUS
 10
-1320.19578764575
 20
2101.76202682575
  0
VERTEX
  8
52
 62
7
  6
CONTINUOUS
 10
-1326.28249321097
 20
2099.88768684695
  0
VERTEX
  8
52
 62
7
  6
CONTINUOUS
 10
-1334.59470151959
 20
2095.44076457877
  0
VERTEX
  8
52
 62
7
  6
CONTINUOUS
 10
-1339.34664711363
 20
2091.21070702958
  0
VERTEX
  8
52
 62
7
  6
CONTINUOUS
 10
-1345.19283535996
 20
2083.39031530049
  0
VERTEX
  8
52
 62
7
  6
CONTINUOUS
 10
-1348.64976926817
 20
2076.74878264657
  0
VERTEX
  8
52
 62
7
  6
CONTINUOUS
 10
-1352.48325415842
 20
2066.05293785948
  0
VERTEX
  8
52
 62
7
  6
CONTINUOUS
 10
-1355.54431964801
 20
2045.25558309482
  0
SEQEND
  0
POLYLINE
  8
52
 62
7
 66
1
 70
1
  0
VERTEX
  8
52
 62
7
  6
CONTINUOUS
 10
-2874.73961923867
 20
1777.14224010835
  0
VERTEX
  8
52
 62
7
  6
CONTINUOUS
 10
-2862.08555010608
 20
1775.98012032026
  0
VERTEX
  8
52
 62
7
  6
CONTINUOUS
 10
-2857.70036695543
 20
1777.1045438819
  0
SEQEND
  0
POLYLINE
  8
52
 62
7
 66
1
 70
1
  0
VERTEX
  8
52
 62
7
  6
CONTINUOUS
 10
-2616.67524397959
 20
1799.60053366155
  0
VERTEX
  8
52
 62
7
  6
CONTINUOUS
 10
-2616.67524397959
 20
1797.60053366155
  0
VERTEX
  8
52
 62
7
  6
CONTINUOUS
 10
-2614.67524397959
 20
1797.60053366155
  0
VERTEX
  8
52
 62
7
  6
CONTINUOUS
 10
-2614.67524397959
 20
1799.60053366155
  0
SEQEND
  0
POLYLINE
  8
52
 62
7
 66
1
 70
1
  0
VERTEX
  8
52
 62
7
  6
CONTINUOUS
 10
-499.56163017085
 20
999.757179601804
  0
VERTEX
  8
52
 62
7
  6
CONTINUOUS
 10
-498.566706087071
 20
997.178242491211
  0
VERTEX
  8
52
 62
7
  6
CONTINUOUS
 10
-495.305242198861
 20
995.073648051886
  0
VERTEX
  8
52
 62
7
  6
CONTINUOUS
 10
-491.353864929625
 20
994.902970898394
  0
VERTEX
  8
52
 62
7
  6
CONTINUOUS
 10
-484.343004623047
 20
996.703963988396
  0
VERTEX
  8
52
 62
7
  6
CONTINUOUS
 10
-476.789628103561
 20
1000.17135029848
  0
VERTEX
  8
52
 62
7
  6
CONTINUOUS
 10
-469.463013457863
 20
1004.78852332983
  0
VERTEX
  8
52
 62
7
  6
CONTINUOUS
 10
-464.64899505435
 20
1009.43158789708
  0
VERTEX
  8
52
 62
7
  6
CONTINUOUS
 10
-462.501097046102
 20
1012.10199253436
  0
VERTEX
  8
52
 62
7
  6
CONTINUOUS
 10
-460.224367563002
 20
1017.25167866996
  0
VERTEX
  8
52
 62
7
  6
CONTINUOUS
 10
-469.693988346972
 20
1014.81812580949
  0
VERTEX
  8
52
 62
7
  6
CONTINUOUS
 10
-470.908045264528
 20
1015.70928361232
  0
VERTEX
  8
52
 62
7
  6
CONTINUOUS
 10
-473.063763802293
 20
1015.46686937167
  0
VERTEX
  8
52
 62
7
  6
CONTINUOUS
 10
-495.227256459237
 20
1007.03042970338
  0
VERTEX
  8
52
 62
7
  6
CONTINUOUS
 10
-498.499395888243
 20
1004.79371334739
  0
VERTEX
  8
52
 62
7
  6
CONTINUOUS
 10
-499.428789214146
 20
1002.91418826308
  0
SEQEND
  0
POLYLINE
  8
52
 62
7
 66
1
 70
1
  0
VERTEX
  8
52
 62
7
  6
CONTINUOUS
 10
-2395.12717872788
 20
1601.06600307358
  0
VERTEX
  8
52
 62
7
  6
CONTINUOUS
 10
-2395.12214395341
 20
1594.01735903472
  0
VERTEX
  8
52
 62
7
  6
CONTINUOUS
 10
-2393.88365035432
 20
1587.88264497095
  0
VERTEX
  8
52
 62
7
  6
CONTINUOUS
 10
-2392.80583015642
 20
1586.07958944605
  0
VERTEX
  8
52
 62
7
  6
CONTINUOUS
 10
-2390.2806378686
 20
1582.84578142792
  0
VERTEX
  8
52
 62
7
  6
CONTINUOUS
 10
-2386.91832817063
 20
1580.35645198924
  0
VERTEX
  8
52
 62
7
  6
CONTINUOUS
 10
-2380.96375895683
 20
1578.01838117294
  0
VERTEX
  8
52
 62
7
  6
CONTINUOUS
 10
-2376.06425619837
 20
1577.24393240548
  0
VERTEX
  8
52
 62
7
  6
CONTINUOUS
 10
-2371.10453135122
 20
1577.2474683255
  0
VERTEX
  8
52
 62
7
  6
CONTINUOUS
 10
-2366.26870518948
 20
1578.30583316972
  0
VERTEX
  8
52
 62
7
  6
CONTINUOUS
 10
-2358.45440688401
 20
1583.64202042704
  0
VERTEX
  8
52
 62
7
  6
CONTINUOUS
 10
-2353.73627436506
 20
1590.02322985197
  0
VERTEX
  8
52
 62
7
  6
CONTINUOUS
 10
-2348.92043916667
 20
1600.73706194936
  0
VERTEX
  8
52
 62
7
  6
CONTINUOUS
 10
-2346.86989452271
 20
1613.02960159371
  0
VERTEX
  8
52
 62
7
  6
CONTINUOUS
 10
-2347.76744495072
 20
1626.69388352447
  0
VERTEX
  8
52
 62
7
  6
CONTINUOUS
 10
-2349.90668491069
 20
1640.50263050287
  0
VERTEX
  8
52
 62
7
  6
CONTINUOUS
 10
-2351.97517722043
 20
1648.01358941494
  0
VERTEX
  8
52
 62
7
  6
CONTINUOUS
 10
-2359.98241974817
 20
1647.6316544608
  0
VERTEX
  8
52
 62
7
  6
CONTINUOUS
 10
-2367.83650311832
 20
1643.62090665941
  0
VERTEX
  8
52
 62
7
  6
CONTINUOUS
 10
-2381.90217793514
 20
1630.43231556813
  0
VERTEX
  8
52
 62
7
  6
CONTINUOUS
 10
-2389.56905212853
 20
1618.97483866364
  0
VERTEX
  8
52
 62
7
  6
CONTINUOUS
 10
-2393.74647546309
 20
1608.76454216399
  0
SEQEND
  0
POLYLINE
  8
52
 62
7
 66
1
 70
1
  0
VERTEX
  8
52
 62
7
  6
CONTINUOUS
 10
-2478.826222056
 20
1808.41324772962
  0
VERTEX
  8
52
 62
7
  6
CONTINUOUS
 10
-2476.20931767813
 20
1786.10348499236
  0
VERTEX
  8
52
 62
7
  6
CONTINUOUS
 10
-2472.90780341059
 20
1769.38512930415
  0
VERTEX
  8
52
 62
7
  6
CONTINUOUS
 10
-2464.24640718464
 20
1742.69905518862
  0
VERTEX
  8
52
 62
7
  6
CONTINUOUS
 10
-2455.5410966322
 20
1728.14243134331
  0
VERTEX
  8
52
 62
7
  6
CONTINUOUS
 10
-2448.25625072196
 20
1718.66495986535
  0
VERTEX
  8
52
 62
7
  6
CONTINUOUS
 10
-2436.07505527336
 20
1705.64122564392
  0
VERTEX
  8
52
 62
7
  6
CONTINUOUS
 10
-2427.04834812959
 20
1698.23649383512
  0
VERTEX
  8
52
 62
7
  6
CONTINUOUS
 10
-2417.53262397145
 20
1691.7156165587
  0
VERTEX
  8
52
 62
7
  6
CONTINUOUS
 10
-2406.87542435395
 20
1685.842177419
  0
VERTEX
  8
52
 62
7
  6
CONTINUOUS
 10
-2395.5845494061
 20
1680.77805524181
  0
VERTEX
  8
52
 62
7
  6
CONTINUOUS
 10
-2376.84331546315
 20
1674.72252493672
  0
VERTEX
  8
52
 62
7
  6
CONTINUOUS
 10
-2363.47558251176
 20
1671.84033256041
  0
VERTEX
  8
52
 62
7
  6
CONTINUOUS
 10
-2342.47402459849
 20
1669.16159192782
  0
VERTEX
  8
52
 62
7
  6
CONTINUOUS
 10
-2320.33070398261
 20
1668.33540043393
  0
VERTEX
  8
52
 62
7
  6
CONTINUOUS
 10
-2305.79330409346
 20
1669.12215795138
  0
VERTEX
  8
52
 62
7
  6
CONTINUOUS
 10
-2291.25283121596
 20
1671.1708985671
  0
VERTEX
  8
52
 62
7
  6
CONTINUOUS
 10
-2270.27121628093
 20
1676.36866471628
  0
VERTEX
  8
52
 62
7
  6
CONTINUOUS
 10
-2256.87842484115
 20
1680.89164937114
  0
VERTEX
  8
52
 62
7
  6
CONTINUOUS
 10
-2236.67397895769
 20
1689.18929897612
  0
VERTEX
  8
52
 62
7
  6
CONTINUOUS
 10
-2209.3217200246
 20
1701.9790192774
  0
VERTEX
  8
52
 62
7
  6
CONTINUOUS
 10
-2183.5039323659
 20
1715.61841581024
  0
VERTEX
  8
52
 62
7
  6
CONTINUOUS
 10
-2166.39021608276
 20
1727.27840231481
  0
VERTEX
  8
52
 62
7
  6
CONTINUOUS
 10
-2155.68352979824
 20
1736.07633709419
  0
VERTEX
  8
52
 62
7
  6
CONTINUOUS
 10
-2136.65728605065
 20
1754.26834835124
  0
VERTEX
  8
52
 62
7
  6
CONTINUOUS
 10
-2120.02354419078
 20
1771.99365934495
  0
VERTEX
  8
52
 62
7
  6
CONTINUOUS
 10
-2107.29866439712
 20
1788.30236797743
  0
VERTEX
  8
52
 62
7
  6
CONTINUOUS
 10
-2101.17673067644
 20
1800.08887767624
  0
VERTEX
  8
52
 62
7
  6
CONTINUOUS
 10
-2098.59634029427
 20
1807.73062405171
  0
VERTEX
  8
52
 62
7
  6
CONTINUOUS
 10
-2096.03247747105
 20
1833.61282317965
  0
VERTEX
  8
52
 62
7
  6
CONTINUOUS
 10
-2096.44668480597
 20
1844.34219870953
  0
VERTEX
  8
52
 62
7
  6
CONTINUOUS
 10
-2099.9979477571
 20
1859.24271676956
  0
VERTEX
  8
52
 62
7
  6
CONTINUOUS
 10
-2106.49514281582
 20
1876.70970959479
  0
VERTEX
  8
52
 62
7
  6
CONTINUOUS
 10
-2112.81755615833
 20
1888.18596437803
  0
VERTEX
  8
52
 62
7
  6
CONTINUOUS
 10
-2122.91931972421
 20
1903.35919954309
  0
VERTEX
  8
52
 62
7
  6
CONTINUOUS
 10
-2132.76768665643
 20
1914.99611491144
  0
VERTEX
  8
52
 62
7
  6
CONTINUOUS
 10
-2146.70311355039
 20
1929.0511590024
  0
VERTEX
  8
52
 62
7
  6
CONTINUOUS
 10
-2160.38021638729
 20
1940.51379656168
  0
VERTEX
  8
52
 62
7
  6
CONTINUOUS
 10
-2178.90156212741
 20
1953.13083193684
  0
VERTEX
  8
52
 62
7
  6
CONTINUOUS
 10
-2194.35083168397
 20
1961.97702705154
  0
VERTEX
  8
52
 62
7
  6
CONTINUOUS
 10
-2210.52104177304
 20
1969.92759486128
  0
VERTEX
  8
52
 62
7
  6
CONTINUOUS
 10
-2234.60961274402
 20
1979.32978005184
  0
VERTEX
  8
52
 62
7
  6
CONTINUOUS
 10
-2252.54325078135
 20
1984.59550615491
  0
VERTEX
  8
52
 62
7
  6
CONTINUOUS
 10
-2265.22734494892
 20
1987.32491466602
  0
VERTEX
  8
52
 62
7
  6
CONTINUOUS
 10
-2278.58739745668
 20
1989.26608500344
  0
VERTEX
  8
52
 62
7
  6
CONTINUOUS
 10
-2298.55994451705
 20
1990.41693638237
  0
VERTEX
  8
52
 62
7
  6
CONTINUOUS
 10
-2329.28280197098
 20
1987.76827371597
  0
VERTEX
  8
52
 62
7
  6
CONTINUOUS
 10
-2352.91337242847
 20
1983.82489760896
  0
VERTEX
  8
52
 62
7
  6
CONTINUOUS
 10
-2364.34936066125
 20
1980.70351252917
  0
VERTEX
  8
52
 62
7
  6
CONTINUOUS
 10
-2381.00366772016
 20
1974.06670902679
  0
VERTEX
  8
52
 62
7
  6
CONTINUOUS
 10
-2391.49250972242
 20
1968.6309906849
  0
VERTEX
  8
52
 62
7
  6
CONTINUOUS
 10
-2406.44346032152
 20
1959.03306408611
  0
VERTEX
  8
52
 62
7
  6
CONTINUOUS
 10
-2415.76715009912
 20
1951.90145187085
  0
VERTEX
  8
52
 62
7
  6
CONTINUOUS
 10
-2428.75644288093
 20
1939.94497606379
  0
VERTEX
  8
52
 62
7
  6
CONTINUOUS
 10
-2440.50892978803
 20
1926.81928066038
  0
VERTEX
  8
52
 62
7
  6
CONTINUOUS
 10
-2456.93438866059
 20
1902.62544708621
  0
VERTEX
  8
52
 62
7
  6
CONTINUOUS
 10
-2466.71513319648
 20
1880.72176442189
  0
VERTEX
  8
52
 62
7
  6
CONTINUOUS
 10
-2474.20128577075
 20
1857.76932222046
  0
VERTEX
  8
52
 62
7
  6
CONTINUOUS
 10
-2477.65643730996
 20
1841.52679008768
  0
SEQEND
  0
POLYLINE
  8
52
 62
7
 66
1
 70
1
  0
VERTEX
  8
52
 62
7
  6
CONTINUOUS
 10
-2409.40909081489
 20
3067.18787833538
  0
VERTEX
  8
52
 62
7
  6
CONTINUOUS
 10
-2408.08558047425
 20
3059.59841967669
  0
VERTEX
  8
52
 62
7
  6
CONTINUOUS
 10
-2404.61238875119
 20
3051.57144466944
  0
VERTEX
  8
52
 62
7
  6
CONTINUOUS
 10
-2399.83504847537
 20
3043.31314447597
  0
VERTEX
  8
52
 62
7
  6
CONTINUOUS
 10
-2393.3805739089
 20
3035.51830757733
  0
VERTEX
  8
52
 62
7
  6
CONTINUOUS
 10
-2385.89315033692
 20
3028.5369088119
  0
VERTEX
  8
52
 62
7
  6
CONTINUOUS
 10
-2351.74596795666
 20
3006.90782012767
  0
VERTEX
  8
52
 62
7
  6
CONTINUOUS
 10
-2340.89578167041
 20
3000.95342141266
  0
VERTEX
  8
52
 62
7
  6
CONTINUOUS
 10
-2329.8286503174
 20
2996.09741884986
  0
VERTEX
  8
52
 62
7
  6
CONTINUOUS
 10
-2318.60554816262
 20
2992.35744181566
  0
VERTEX
  8
52
 62
7
  6
CONTINUOUS
 10
-2307.15131953901
 20
2989.74726122125
  0
VERTEX
  8
52
 62
7
  6
CONTINUOUS
 10
-2295.95634998125
 20
2988.51594671735
  0
VERTEX
  8
52
 62
7
  6
CONTINUOUS
 10
-2285.2264551163
 20
2988.8652065796
  0
VERTEX
  8
52
 62
7
  6
CONTINUOUS
 10
-2280.03964227008
 20
2989.74846777863
  0
VERTEX
  8
52
 62
7
  6
CONTINUOUS
 10
-2270.14300793967
 20
2993.01930060574
  0
VERTEX
  8
52
 62
7
  6
CONTINUOUS
 10
-2265.50037640699
 20
2995.44159084107
  0
VERTEX
  8
52
 62
7
  6
CONTINUOUS
 10
-2252.65003731725
 20
3004.66754614003
  0
VERTEX
  8
52
 62
7
  6
CONTINUOUS
 10
-2242.18081088231
 20
3014.04875417651
  0
VERTEX
  8
52
 62
7
  6
CONTINUOUS
 10
-2233.91768731307
 20
3023.25892964843
  0
VERTEX
  8
52
 62
7
  6
CONTINUOUS
 10
-2223.80192524791
 20
3037.19948307423
  0
VERTEX
  8
52
 62
7
  6
CONTINUOUS
 10
-2223.38047128369
 20
3038.93333184593
  0
VERTEX
  8
52
 62
7
  6
CONTINUOUS
 10
-2224.37102675033
 20
3040.20951671581
  0
VERTEX
  8
52
 62
7
  6
CONTINUOUS
 10
-2227.42499463121
 20
3040.38628334571
  0
VERTEX
  8
52
 62
7
  6
CONTINUOUS
 10
-2228.82388555813
 20
3041.33247209534
  0
VERTEX
  8
52
 62
7
  6
CONTINUOUS
 10
-2327.72879229256
 20
3114.30616211492
  0
VERTEX
  8
52
 62
7
  6
CONTINUOUS
 10
-2342.52433753552
 20
3117.93706439333
  0
VERTEX
  8
52
 62
7
  6
CONTINUOUS
 10
-2352.5675440792
 20
3118.80585085645
  0
VERTEX
  8
52
 62
7
  6
CONTINUOUS
 10
-2363.27382162841
 20
3118.26655215655
  0
VERTEX
  8
52
 62
7
  6
CONTINUOUS
 10
-2373.99965877887
 20
3115.77097390854
  0
VERTEX
  8
52
 62
7
  6
CONTINUOUS
 10
-2384.14738951524
 20
3111.47842899863
  0
VERTEX
  8
52
 62
7
  6
CONTINUOUS
 10
-2390.38375795343
 20
3107.52847633197
  0
VERTEX
  8
52
 62
7
  6
CONTINUOUS
 10
-2398.53020515803
 20
3099.91326810482
  0
VERTEX
  8
52
 62
7
  6
CONTINUOUS
 10
-2403.33055667662
 20
3093.46204519303
  0
VERTEX
  8
52
 62
7
  6
CONTINUOUS
 10
-2406.87011670519
 20
3086.29282291775
  0
VERTEX
  8
52
 62
7
  6
CONTINUOUS
 10
-2408.85734052393
 20
3079.10004728762
  0
SEQEND
  0
POLYLINE
  8
52
 62
7
 66
1
 70
1
  0
VERTEX
  8
52
 62
7
  6
CONTINUOUS
 10
-2214.92947481489
 20
2915.85756313439
  0
VERTEX
  8
52
 62
7
  6
CONTINUOUS
 10
-2211.85804161641
 20
2899.30894463574
  0
VERTEX
  8
52
 62
7
  6
CONTINUOUS
 10
-2202.03794273822
 20
2862.0297152036
  0
VERTEX
  8
52
 62
7
  6
CONTINUOUS
 10
-2184.74949172744
 20
2810.78776094291
  0
VERTEX
  8
52
 62
7
  6
CONTINUOUS
 10
-2214.54060587226
 20
2915.38852730671
  0
SEQEND
  0
POLYLINE
  8
52
 62
7
 66
1
 70
1
  0
VERTEX
  8
52
 62
7
  6
CONTINUOUS
 10
-2731.76332768636
 20
2573.61623721954
  0
VERTEX
  8
52
 62
7
  6
CONTINUOUS
 10
-2666.85181605012
 20
2490.04729661071
  0
VERTEX
  8
52
 62
7
  6
CONTINUOUS
 10
-2654.12134399073
 20
2474.74315814765
  0
VERTEX
  8
52
 62
7
  6
CONTINUOUS
 10
-2591.68536280903
 20
2404.36551933199
  0
SEQEND
  0
POLYLINE
  8
52
 62
7
 66
1
 70
1
  0
VERTEX
  8
52
 62
7
  6
CONTINUOUS
 10
-2563.30941020895
 20
2541.88167063572
  0
VERTEX
  8
52
 62
7
  6
CONTINUOUS
 10
-2563.20951927504
 20
2538.30431376576
  0
VERTEX
  8
52
 62
7
  6
CONTINUOUS
 10
-2559.30852043405
 20
2518.78320083061
  0
VERTEX
  8
52
 62
7
  6
CONTINUOUS
 10
-2549.4241666599
 20
2483.31822044812
  0
VERTEX
  8
52
 62
7
  6
CONTINUOUS
 10
-2539.55907682334
 20
2456.11622128638
  0
VERTEX
  8
52
 62
7
  6
CONTINUOUS
 10
-2513.02476394067
 20
2396.63890380974
  0
VERTEX
  8
52
 62
7
  6
CONTINUOUS
 10
-2562.56814362871
 20
2542.89353366705
  0
SEQEND
  0
POLYLINE
  8
52
 62
7
 66
1
 70
1
  0
VERTEX
  8
52
 62
7
  6
CONTINUOUS
 10
-874.462296383738
 20
1197.93848283946
  0
VERTEX
  8
52
 62
7
  6
CONTINUOUS
 10
-854.055988683348
 20
1224.42595718424
  0
VERTEX
  8
52
 62
7
  6
CONTINUOUS
 10
-861.492580502528
 20
1218.15491407222
  0
VERTEX
  8
52
 62
7
  6
CONTINUOUS
 10
-868.403465244117
 20
1208.36989023665
  0
SEQEND
  0
POLYLINE
  8
52
 62
7
 66
1
 70
1
  0
VERTEX
  8
52
 62
7
  6
CONTINUOUS
 10
-3495.71575938306
 20
1189.74903462844
  0
VERTEX
  8
52
 62
7
  6
CONTINUOUS
 10
-3487.67886886555
 20
1183.79853962302
  0
VERTEX
  8
52
 62
7
  6
CONTINUOUS
 10
-3472.31512338481
 20
1204.5492066272
  0
VERTEX
  8
52
 62
7
  6
CONTINUOUS
 10
-3472.12588433261
 20
1204.92096449856
  0
VERTEX
  8
52
 62
7
  6
CONTINUOUS
 10
-3455.04998029519
 20
1238.46637524974
  0
VERTEX
  8
52
 62
7
  6
CONTINUOUS
 10
-3454.95404863868
 20
1238.65483185002
  0
VERTEX
  8
52
 62
7
  6
CONTINUOUS
 10
-3445.25435854635
 20
1262.50139880207
  0
VERTEX
  8
52
 62
7
  6
CONTINUOUS
 10
-3445.1707502006
 20
1262.82504506781
  0
VERTEX
  8
52
 62
7
  6
CONTINUOUS
 10
-3435.86214284789
 20
1298.8584814669
  0
VERTEX
  8
52
 62
7
  6
CONTINUOUS
 10
-3445.54428802171
 20
1301.3596941394
  0
VERTEX
  8
52
 62
7
  6
CONTINUOUS
 10
-3454.76928702867
 20
1265.64990400605
  0
VERTEX
  8
52
 62
7
  6
CONTINUOUS
 10
-3464.0577320998
 20
1242.81437780258
  0
VERTEX
  8
52
 62
7
  6
CONTINUOUS
 10
-3480.8484654285
 20
1209.82918152304
  0
SEQEND
  0
POLYLINE
  8
52
 62
7
 66
1
 70
1
  0
VERTEX
  8
52
 62
7
  6
CONTINUOUS
 10
-3435.97436376015
 20
1320.62876223895
  0
VERTEX
  8
52
 62
7
  6
CONTINUOUS
 10
-3426.57591785399
 20
1317.21273903219
  0
VERTEX
  8
52
 62
7
  6
CONTINUOUS
 10
-3419.04530875785
 20
1337.93157434063
  0
VERTEX
  8
52
 62
7
  6
CONTINUOUS
 10
-3428.44375466401
 20
1341.34759754738
  0
SEQEND
  0
POLYLINE
  8
52
 62
7
 66
1
 70
1
  0
VERTEX
  8
52
 62
7
  6
CONTINUOUS
 10
-1736.76953481559
 20
819.609953245039
  0
VERTEX
  8
52
 62
7
  6
CONTINUOUS
 10
-1718.4666438378
 20
836.985841073541
  0
VERTEX
  8
52
 62
7
  6
CONTINUOUS
 10
-1691.35266646604
 20
864.637148896742
  0
VERTEX
  8
52
 62
7
  6
CONTINUOUS
 10
-1647.6390588467
 20
913.290797960021
  0
SEQEND
  0
POLYLINE
  8
53
 62
7
 66
1
 70
1
  0
VERTEX
  8
53
 62
7
  6
CONTINUOUS
 10
-1346.69538105892
 20
996.86262344163
  0
VERTEX
  8
53
 62
7
  6
CONTINUOUS
 10
-1345.87048335033
 20
988.493033837415
  0
VERTEX
  8
53
 62
7
  6
CONTINUOUS
 10
-1345.2244834881
 20
975.884440483789
  0
VERTEX
  8
53
 62
7
  6
CONTINUOUS
 10
-1342.98585480077
 20
962.43207625458
  0
VERTEX
  8
53
 62
7
  6
CONTINUOUS
 10
-1331.85148957374
 20
906.766513716887
  0
VERTEX
  8
53
 62
7
  6
CONTINUOUS
 10
-1326.76095990793
 20
884.980209913602
  0
VERTEX
  8
53
 62
7
  6
CONTINUOUS
 10
-1321.56465075069
 20
873.690918055284
  0
VERTEX
  8
53
 62
7
  6
CONTINUOUS
 10
-1317.94865211942
 20
870.191037592696
  0
VERTEX
  8
53
 62
7
  6
CONTINUOUS
 10
-1314.19028778307
 20
869.109850122256
  0
VERTEX
  8
53
 62
7
  6
CONTINUOUS
 10
-1311.8267483728
 20
870.494190550087
  0
VERTEX
  8
53
 62
7
  6
CONTINUOUS
 10
-1310.15979418179
 20
873.552417523943
  0
VERTEX
  8
53
 62
7
  6
CONTINUOUS
 10
-1306.87597562332
 20
887.974838016813
  0
VERTEX
  8
53
 62
7
  6
CONTINUOUS
 10
-1307.80529891189
 20
898.921843840498
  0
VERTEX
  8
53
 62
7
  6
CONTINUOUS
 10
-1310.4954763873
 20
912.423543194628
  0
VERTEX
  8
53
 62
7
  6
CONTINUOUS
 10
-1317.68529652868
 20
936.015621002026
  0
VERTEX
  8
53
 62
7
  6
CONTINUOUS
 10
-1323.77809896788
 20
952.167799706728
  0
VERTEX
  8
53
 62
7
  6
CONTINUOUS
 10
-1334.58364899806
 20
975.482815473219
  0
SEQEND
  0
POLYLINE
  8
53
 62
7
 66
1
 70
1
  0
VERTEX
  8
53
 62
7
  6
CONTINUOUS
 10
-709.663120996424
 20
1096.67483637572
  0
VERTEX
  8
53
 62
7
  6
CONTINUOUS
 10
-706.191244498869
 20
1092.99023573986
  0
VERTEX
  8
53
 62
7
  6
CONTINUOUS
 10
-702.745728814819
 20
1088.07998867248
  0
VERTEX
  8
53
 62
7
  6
CONTINUOUS
 10
-693.759100777532
 20
1079.81182207843
  0
VERTEX
  8
53
 62
7
  6
CONTINUOUS
 10
-688.820890294603
 20
1076.6599181434
  0
VERTEX
  8
53
 62
7
  6
CONTINUOUS
 10
-686.740912875192
 20
1076.5982256477
  0
VERTEX
  8
53
 62
7
  6
CONTINUOUS
 10
-685.501044581579
 20
1077.91602321468
  0
VERTEX
  8
53
 62
7
  6
CONTINUOUS
 10
-685.088795866969
 20
1079.14258834171
  0
VERTEX
  8
53
 62
7
  6
CONTINUOUS
 10
-686.164464344304
 20
1082.83387082824
  0
VERTEX
  8
53
 62
7
  6
CONTINUOUS
 10
-690.565891952807
 20
1088.36650631618
  0
VERTEX
  8
53
 62
7
  6
CONTINUOUS
 10
-700.255807473686
 20
1094.3306451204
  0
SEQEND
  0
POLYLINE
  8
53
 62
7
 66
1
 70
1
  0
VERTEX
  8
53
 62
7
  6
CONTINUOUS
 10
-2631.75525830466
 20
849.958378153802
  0
VERTEX
  8
53
 62
7
  6
CONTINUOUS
 10
-2630.08440194066
 20
837.470867069845
  0
VERTEX
  8
53
 62
7
  6
CONTINUOUS
 10
-2627.7408951149
 20
832.444063592817
  0
VERTEX
  8
53
 62
7
  6
CONTINUOUS
 10
-2623.53488164455
 20
828.588913794134
  0
VERTEX
  8
53
 62
7
  6
CONTINUOUS
 10
-2614.83590825029
 20
825.847097214953
  0
VERTEX
  8
53
 62
7
  6
CONTINUOUS
 10
-2610.72609215515
 20
826.415712053879
  0
VERTEX
  8
53
 62
7
  6
CONTINUOUS
 10
-2605.52369731857
 20
829.012872777507
  0
VERTEX
  8
53
 62
7
  6
CONTINUOUS
 10
-2601.55421410309
 20
833.287213230546
  0
VERTEX
  8
53
 62
7
  6
CONTINUOUS
 10
-2598.58561092056
 20
839.030446930042
  0
VERTEX
  8
53
 62
7
  6
CONTINUOUS
 10
-2596.52467985704
 20
847.776960988645
  0
VERTEX
  8
53
 62
7
  6
CONTINUOUS
 10
-2596.81563650268
 20
855.200312626361
  0
VERTEX
  8
53
 62
7
  6
CONTINUOUS
 10
-2601.67545971759
 20
868.234878159817
  0
VERTEX
  8
53
 62
7
  6
CONTINUOUS
 10
-2609.89094687014
 20
871.083741101698
  0
VERTEX
  8
53
 62
7
  6
CONTINUOUS
 10
-2616.98913556632
 20
870.907813241915
  0
VERTEX
  8
53
 62
7
  6
CONTINUOUS
 10
-2621.44948492911
 20
869.05016858914
  0
VERTEX
  8
53
 62
7
  6
CONTINUOUS
 10
-2628.23598464789
 20
862.14934643982
  0
VERTEX
  8
53
 62
7
  6
CONTINUOUS
 10
-2630.68746393924
 20
856.369447198538
  0
SEQEND
  0
POLYLINE
  8
54
 62
7
 66
1
 70
1
  0
VERTEX
  8
54
 62
7
  6
CONTINUOUS
 10
-1347.66179735108
 20
1067.90041015562
  0
VERTEX
  8
54
 62
7
  6
CONTINUOUS
 10
-1343.22495115551
 20
1070.08299125174
  0
VERTEX
  8
54
 62
7
  6
CONTINUOUS
 10
-1347.4108017101
 20
1068.17573348286
  0
SEQEND
  0
POLYLINE
  8
54
 62
7
 66
1
 70
1
  0
VERTEX
  8
54
 62
7
  6
CONTINUOUS
 10
-1351.74766336184
 20
1061.7341918297
  0
VERTEX
  8
54
 62
7
  6
CONTINUOUS
 10
-1351.3500661307
 20
1058.72336635572
  0
VERTEX
  8
54
 62
7
  6
CONTINUOUS
 10
-1349.20721340214
 20
1056.97632754517
  0
VERTEX
  8
54
 62
7
  6
CONTINUOUS
 10
-1331.99486952041
 20
1052.17937360853
  0
VERTEX
  8
54
 62
7
  6
CONTINUOUS
 10
-1322.47086621752
 20
1051.57840645312
  0
VERTEX
  8
54
 62
7
  6
CONTINUOUS
 10
-1315.60516941577
 20
1053.09955792641
  0
VERTEX
  8
54
 62
7
  6
CONTINUOUS
 10
-1307.6717679796
 20
1058.1865305832
  0
VERTEX
  8
54
 62
7
  6
CONTINUOUS
 10
-1304.2304381823
 20
1063.42661607392
  0
VERTEX
  8
54
 62
7
  6
CONTINUOUS
 10
-1304.41775705001
 20
1065.48688200296
  0
VERTEX
  8
54
 62
7
  6
CONTINUOUS
 10
-1306.25578817152
 20
1067.07216745368
  0
VERTEX
  8
54
 62
7
  6
CONTINUOUS
 10
-1312.57189052646
 20
1068.36692782903
  0
VERTEX
  8
54
 62
7
  6
CONTINUOUS
 10
-1332.02794900126
 20
1069.0024452828
  0
VERTEX
  8
54
 62
7
  6
CONTINUOUS
 10
-1348.17497681729
 20
1067.33749090507
  0
VERTEX
  8
54
 62
7
  6
CONTINUOUS
 10
-1350.29398971021
 20
1065.01309324668
  0
SEQEND
  0
POLYLINE
  8
54
 62
7
 66
1
 70
1
  0
VERTEX
  8
54
 62
7
  6
CONTINUOUS
 10
-812.692442008094
 20
624.545468400479
  0
VERTEX
  8
54
 62
7
  6
CONTINUOUS
 10
-811.292360983848
 20
617.670699577508
  0
VERTEX
  8
54
 62
7
  6
CONTINUOUS
 10
-804.790266091391
 20
606.114422096996
  0
VERTEX
  8
54
 62
7
  6
CONTINUOUS
 10
-798.219588375237
 20
601.909335707217
  0
VERTEX
  8
54
 62
7
  6
CONTINUOUS
 10
-793.540635150054
 20
600.832742462969
  0
VERTEX
  8
54
 62
7
  6
CONTINUOUS
 10
-788.211495342531
 20
600.774415059104
  0
VERTEX
  8
54
 62
7
  6
CONTINUOUS
 10
-668.54582574526
 20
666.847785868029
  0
VERTEX
  8
54
 62
7
  6
CONTINUOUS
 10
-666.309230639298
 20
669.801124729666
  0
VERTEX
  8
54
 62
7
  6
CONTINUOUS
 10
-666.093322118156
 20
672.263205962519
  0
VERTEX
  8
54
 62
7
  6
CONTINUOUS
 10
-668.374655213826
 20
678.7597562288
  0
VERTEX
  8
54
 62
7
  6
CONTINUOUS
 10
-672.849695137283
 20
683.092212926677
  0
VERTEX
  8
54
 62
7
  6
CONTINUOUS
 10
-681.705097669363
 20
687.095575221738
  0
VERTEX
  8
54
 62
7
  6
CONTINUOUS
 10
-695.167913159074
 20
687.765993618674
  0
VERTEX
  8
54
 62
7
  6
CONTINUOUS
 10
-716.111269026801
 20
685.347026224015
  0
VERTEX
  8
54
 62
7
  6
CONTINUOUS
 10
-735.999410784674
 20
679.875719147409
  0
VERTEX
  8
54
 62
7
  6
CONTINUOUS
 10
-761.467151001933
 20
670.945780185667
  0
VERTEX
  8
54
 62
7
  6
CONTINUOUS
 10
-785.028814501233
 20
659.318958485148
  0
VERTEX
  8
54
 62
7
  6
CONTINUOUS
 10
-798.903614541608
 20
649.481241969381
  0
VERTEX
  8
54
 62
7
  6
CONTINUOUS
 10
-806.90985466744
 20
641.284968542464
  0
VERTEX
  8
54
 62
7
  6
CONTINUOUS
 10
-810.745713017032
 20
634.462416350626
  0
SEQEND
  0
POLYLINE
  8
54
 62
7
 66
1
 70
1
  0
VERTEX
  8
54
 62
7
  6
CONTINUOUS
 10
-1266.5160272718
 20
2051.47880050833
  0
VERTEX
  8
54
 62
7
  6
CONTINUOUS
 10
-1266.0378983174
 20
2048.53109690389
  0
VERTEX
  8
54
 62
7
  6
CONTINUOUS
 10
-1264.80213824136
 20
2046.81434768496
  0
VERTEX
  8
54
 62
7
  6
CONTINUOUS
 10
-1262.1170874056
 20
2047.81618432661
  0
VERTEX
  8
54
 62
7
  6
CONTINUOUS
 10
-1256.88934507444
 20
2053.9701277033
  0
VERTEX
  8
54
 62
7
  6
CONTINUOUS
 10
-1257.5888637872
 20
2055.97007748074
  0
VERTEX
  8
54
 62
7
  6
CONTINUOUS
 10
-1256.50931944934
 20
2069.46938570143
  0
VERTEX
  8
54
 62
7
  6
CONTINUOUS
 10
-1257.74681245404
 20
2066.53133219684
  0
VERTEX
  8
54
 62
7
  6
CONTINUOUS
 10
-1262.0864725048
 20
2062.50971360502
  0
VERTEX
  8
54
 62
7
  6
CONTINUOUS
 10
-1265.38130178471
 20
2056.72330033159
  0
SEQEND
  0
POLYLINE
  8
54
 62
7
 66
1
 70
1
  0
VERTEX
  8
54
 62
7
  6
CONTINUOUS
 10
-2536.06725396018
 20
1816.78639650767
  0
VERTEX
  8
54
 62
7
  6
CONTINUOUS
 10
-2534.77368464267
 20
1812.67448661544
  0
VERTEX
  8
54
 62
7
  6
CONTINUOUS
 10
-2533.2396495607
 20
1810.44184560242
  0
VERTEX
  8
54
 62
7
  6
CONTINUOUS
 10
-2529.32238772929
 20
1807.80882199591
  0
VERTEX
  8
54
 62
7
  6
CONTINUOUS
 10
-2522.42030574234
 20
1806.18258932985
  0
VERTEX
  8
54
 62
7
  6
CONTINUOUS
 10
-2513.28169508671
 20
1805.98022672208
  0
VERTEX
  8
54
 62
7
  6
CONTINUOUS
 10
-2472.40291011357
 20
1808.59390655731
  0
VERTEX
  8
54
 62
7
  6
CONTINUOUS
 10
-2441.70914534276
 20
1812.11378610461
  0
VERTEX
  8
54
 62
7
  6
CONTINUOUS
 10
-2391.36947471281
 20
1819.8071684301
  0
VERTEX
  8
54
 62
7
  6
CONTINUOUS
 10
-2265.82741309923
 20
1834.25683005463
  0
VERTEX
  8
54
 62
7
  6
CONTINUOUS
 10
-2233.73840922749
 20
1838.85355337831
  0
VERTEX
  8
54
 62
7
  6
CONTINUOUS
 10
-2117.65805293061
 20
1858.29619163575
  0
VERTEX
  8
54
 62
7
  6
CONTINUOUS
 10
-2110.86424605396
 20
1860.1265588066
  0
VERTEX
  8
54
 62
7
  6
CONTINUOUS
 10
-2106.37367217067
 20
1862.6312136329
  0
VERTEX
  8
54
 62
7
  6
CONTINUOUS
 10
-2103.6703775075
 20
1865.56149282057
  0
VERTEX
  8
54
 62
7
  6
CONTINUOUS
 10
-2102.74970816818
 20
1868.70885120649
  0
VERTEX
  8
54
 62
7
  6
CONTINUOUS
 10
-2104.5160121919
 20
1873.01844383242
  0
VERTEX
  8
54
 62
7
  6
CONTINUOUS
 10
-2107.77419622435
 20
1875.67997924635
  0
VERTEX
  8
54
 62
7
  6
CONTINUOUS
 10
-2111.58765766541
 20
1877.52742727982
  0
VERTEX
  8
54
 62
7
  6
CONTINUOUS
 10
-2125.40550797218
 20
1881.21692236631
  0
VERTEX
  8
54
 62
7
  6
CONTINUOUS
 10
-2138.18681739491
 20
1881.62200170989
  0
VERTEX
  8
54
 62
7
  6
CONTINUOUS
 10
-2169.73502767004
 20
1884.38833648795
  0
VERTEX
  8
54
 62
7
  6
CONTINUOUS
 10
-2189.78378797188
 20
1884.01811631778
  0
VERTEX
  8
54
 62
7
  6
CONTINUOUS
 10
-2211.66392484337
 20
1882.37170736861
  0
VERTEX
  8
54
 62
7
  6
CONTINUOUS
 10
-2272.09739036988
 20
1874.36850381335
  0
VERTEX
  8
54
 62
7
  6
CONTINUOUS
 10
-2376.05324511768
 20
1854.72853101808
  0
VERTEX
  8
54
 62
7
  6
CONTINUOUS
 10
-2408.14312644625
 20
1849.34880328056
  0
VERTEX
  8
54
 62
7
  6
CONTINUOUS
 10
-2455.54994724059
 20
1838.55157364044
  0
VERTEX
  8
54
 62
7
  6
CONTINUOUS
 10
-2500.45109007606
 20
1832.21597480825
  0
VERTEX
  8
54
 62
7
  6
CONTINUOUS
 10
-2483.34176278308
 20
1835.91830367789
  0
VERTEX
  8
54
 62
7
  6
CONTINUOUS
 10
-2489.64532694888
 20
1837.25148074712
  0
VERTEX
  8
54
 62
7
  6
CONTINUOUS
 10
-2497.62302528106
 20
1837.35249623973
  0
VERTEX
  8
54
 62
7
  6
CONTINUOUS
 10
-2517.69853632235
 20
1833.52928776768
  0
VERTEX
  8
54
 62
7
  6
CONTINUOUS
 10
-2523.83155608034
 20
1831.42912951098
  0
VERTEX
  8
54
 62
7
  6
CONTINUOUS
 10
-2530.56601523458
 20
1827.83494636765
  0
VERTEX
  8
54
 62
7
  6
CONTINUOUS
 10
-2535.20931165323
 20
1822.92182226761
  0
SEQEND
  0
POLYLINE
  8
54
 62
7
 66
1
 70
1
  0
VERTEX
  8
54
 62
7
  6
CONTINUOUS
 10
-2196.64381908022
 20
714.462072077337
  0
VERTEX
  8
54
 62
7
  6
CONTINUOUS
 10
-2195.17697119944
 20
700.328170348248
  0
VERTEX
  8
54
 62
7
  6
CONTINUOUS
 10
-2192.3097074887
 20
689.67122424022
  0
VERTEX
  8
54
 62
7
  6
CONTINUOUS
 10
-2187.76232870993
 20
682.871628765779
  0
VERTEX
  8
54
 62
7
  6
CONTINUOUS
 10
-2183.51277988523
 20
680.929035772286
  0
VERTEX
  8
54
 62
7
  6
CONTINUOUS
 10
-2177.20876407422
 20
682.010417310518
  0
VERTEX
  8
54
 62
7
  6
CONTINUOUS
 10
-2165.89664666964
 20
689.157633273426
  0
VERTEX
  8
54
 62
7
  6
CONTINUOUS
 10
-2157.74132556495
 20
697.622791615826
  0
VERTEX
  8
54
 62
7
  6
CONTINUOUS
 10
-2144.75646265312
 20
714.836837252798
  0
VERTEX
  8
54
 62
7
  6
CONTINUOUS
 10
-2142.5242955493
 20
717.947422721021
  0
VERTEX
  8
54
 62
7
  6
CONTINUOUS
 10
-2135.40525628395
 20
732.988300534022
  0
VERTEX
  8
54
 62
7
  6
CONTINUOUS
 10
-2131.29193110209
 20
746.06924900987
  0
VERTEX
  8
54
 62
7
  6
CONTINUOUS
 10
-2129.29543088355
 20
755.420051172654
  0
VERTEX
  8
54
 62
7
  6
CONTINUOUS
 10
-2126.76933312233
 20
775.484146461536
  0
VERTEX
  8
54
 62
7
  6
CONTINUOUS
 10
-2126.39727459416
 20
791.129194083847
  0
VERTEX
  8
54
 62
7
  6
CONTINUOUS
 10
-2130.23244776492
 20
826.786126230897
  0
VERTEX
  8
54
 62
7
  6
CONTINUOUS
 10
-2134.5825704916
 20
847.08651880206
  0
VERTEX
  8
54
 62
7
  6
CONTINUOUS
 10
-2138.42861358511
 20
857.859654925434
  0
VERTEX
  8
54
 62
7
  6
CONTINUOUS
 10
-2143.70723283584
 20
866.657262683999
  0
VERTEX
  8
54
 62
7
  6
CONTINUOUS
 10
-2148.8309338057
 20
872.07687560272
  0
VERTEX
  8
54
 62
7
  6
CONTINUOUS
 10
-2158.43909721807
 20
854.412457248184
  0
VERTEX
  8
54
 62
7
  6
CONTINUOUS
 10
-2164.45797590611
 20
849.100357936924
  0
VERTEX
  8
54
 62
7
  6
CONTINUOUS
 10
-2170.28692354431
 20
842.069099368169
  0
VERTEX
  8
54
 62
7
  6
CONTINUOUS
 10
-2178.90792079419
 20
826.659396818677
  0
VERTEX
  8
54
 62
7
  6
CONTINUOUS
 10
-2183.00884670764
 20
816.586907365645
  0
VERTEX
  8
54
 62
7
  6
CONTINUOUS
 10
-2186.53695794949
 20
805.008722419342
  0
VERTEX
  8
54
 62
7
  6
CONTINUOUS
 10
-2191.68850277088
 20
779.084068913501
  0
VERTEX
  8
54
 62
7
  6
CONTINUOUS
 10
-2196.05374723813
 20
742.750284010598
  0
SEQEND
  0
POLYLINE
  8
54
 62
7
 66
1
 70
1
  0
VERTEX
  8
54
 62
7
  6
CONTINUOUS
 10
-2501.24989742949
 20
2889.51541898648
  0
VERTEX
  8
54
 62
7
  6
CONTINUOUS
 10
-2499.4420092954
 20
2885.07357272782
  0
VERTEX
  8
54
 62
7
  6
CONTINUOUS
 10
-2493.81040935232
 20
2877.37040536165
  0
VERTEX
  8
54
 62
7
  6
CONTINUOUS
 10
-2483.21761396943
 20
2867.52888634719
  0
VERTEX
  8
54
 62
7
  6
CONTINUOUS
 10
-2478.31645749521
 20
2864.60402875908
  0
VERTEX
  8
54
 62
7
  6
CONTINUOUS
 10
-2474.00549467378
 20
2863.14929043346
  0
VERTEX
  8
54
 62
7
  6
CONTINUOUS
 10
-2467.22749737753
 20
2863.18940023876
  0
VERTEX
  8
54
 62
7
  6
CONTINUOUS
 10
-2462.88846210713
 20
2864.73153440491
  0
VERTEX
  8
54
 62
7
  6
CONTINUOUS
 10
-2455.1239621192
 20
2871.33846916042
  0
VERTEX
  8
54
 62
7
  6
CONTINUOUS
 10
-2448.27511887788
 20
2882.12541313351
  0
VERTEX
  8
54
 62
7
  6
CONTINUOUS
 10
-2440.86225366701
 20
2898.45369953193
  0
VERTEX
  8
54
 62
7
  6
CONTINUOUS
 10
-2432.04418490609
 20
2925.11419222797
  0
VERTEX
  8
54
 62
7
  6
CONTINUOUS
 10
-2424.0532359217
 20
2955.45663848264
  0
VERTEX
  8
54
 62
7
  6
CONTINUOUS
 10
-2420.40505348171
 20
2977.4091046113
  0
VERTEX
  8
54
 62
7
  6
CONTINUOUS
 10
-2419.41202598313
 20
3001.23768496171
  0
VERTEX
  8
54
 62
7
  6
CONTINUOUS
 10
-2421.26127776769
 20
3020.26428977203
  0
VERTEX
  8
54
 62
7
  6
CONTINUOUS
 10
-2425.63576267085
 20
3033.77689030852
  0
VERTEX
  8
54
 62
7
  6
CONTINUOUS
 10
-2428.57297378847
 20
3040.1401698093
  0
VERTEX
  8
54
 62
7
  6
CONTINUOUS
 10
-2431.03597207495
 20
3043.2481410182
  0
VERTEX
  8
54
 62
7
  6
CONTINUOUS
 10
-2437.13545533941
 20
3047.51717307421
  0
VERTEX
  8
54
 62
7
  6
CONTINUOUS
 10
-2439.09589058085
 20
3047.92573259183
  0
SEQEND
  0
POLYLINE
  8
54
 62
7
 66
1
 70
1
  0
VERTEX
  8
54
 62
7
  6
CONTINUOUS
 10
-2885.83468049916
 20
2632.09586079077
  0
VERTEX
  8
54
 62
7
  6
CONTINUOUS
 10
-2885.37353370474
 20
2624.76480178718
  0
VERTEX
  8
54
 62
7
  6
CONTINUOUS
 10
-2879.64391838442
 20
2607.91361868604
  0
VERTEX
  8
54
 62
7
  6
CONTINUOUS
 10
-2874.7453101911
 20
2598.16231962099
  0
VERTEX
  8
54
 62
7
  6
CONTINUOUS
 10
-2868.67975627459
 20
2589.0656097363
  0
VERTEX
  8
54
 62
7
  6
CONTINUOUS
 10
-2857.92176468557
 20
2577.60865253015
  0
VERTEX
  8
54
 62
7
  6
CONTINUOUS
 10
-2840.9699268276
 20
2564.94192209183
  0
VERTEX
  8
54
 62
7
  6
CONTINUOUS
 10
-2821.69623985476
 20
2553.18642693741
  0
VERTEX
  8
54
 62
7
  6
CONTINUOUS
 10
-2804.74587989885
 20
2544.65794838049
  0
VERTEX
  8
54
 62
7
  6
CONTINUOUS
 10
-2791.66269797318
 20
2539.52017913058
  0
VERTEX
  8
54
 62
7
  6
CONTINUOUS
 10
-2775.41903471447
 20
2535.61543890019
  0
VERTEX
  8
54
 62
7
  6
CONTINUOUS
 10
-2764.54559157504
 20
2535.77476863979
  0
VERTEX
  8
54
 62
7
  6
CONTINUOUS
 10
-2758.43643982457
 20
2537.7510824019
  0
VERTEX
  8
54
 62
7
  6
CONTINUOUS
 10
-2750.80118458138
 20
2543.44179603146
  0
VERTEX
  8
54
 62
7
  6
CONTINUOUS
 10
-2744.88109763761
 20
2552.03555107292
  0
VERTEX
  8
54
 62
7
  6
CONTINUOUS
 10
-2741.03141589167
 20
2563.71009270347
  0
VERTEX
  8
54
 62
7
  6
CONTINUOUS
 10
-2737.21000405017
 20
2582.05255313876
  0
VERTEX
  8
54
 62
7
  6
CONTINUOUS
 10
-2735.46180453055
 20
2596.97816385502
  0
VERTEX
  8
54
 62
7
  6
CONTINUOUS
 10
-2734.59904071645
 20
2618.20395174288
  0
VERTEX
  8
54
 62
7
  6
CONTINUOUS
 10
-2735.54598472327
 20
2634.77466194536
  0
VERTEX
  8
54
 62
7
  6
CONTINUOUS
 10
-2738.17195480134
 20
2655.98497459917
  0
VERTEX
  8
54
 62
7
  6
CONTINUOUS
 10
-2741.51215047727
 20
2670.88948509711
  0
VERTEX
  8
54
 62
7
  6
CONTINUOUS
 10
-2745.73126891108
 20
2684.60091482898
  0
VERTEX
  8
54
 62
7
  6
CONTINUOUS
 10
-2751.00448883001
 20
2696.75796187973
  0
VERTEX
  8
54
 62
7
  6
CONTINUOUS
 10
-2756.86279226337
 20
2706.55147794305
  0
VERTEX
  8
54
 62
7
  6
CONTINUOUS
 10
-2763.13747302289
 20
2714.29645146573
  0
VERTEX
  8
54
 62
7
  6
CONTINUOUS
 10
-2770.04762124953
 20
2720.05664353053
  0
VERTEX
  8
54
 62
7
  6
CONTINUOUS
 10
-2779.40550001325
 20
2725.66479636718
  0
VERTEX
  8
54
 62
7
  6
CONTINUOUS
 10
-2792.52592027039
 20
2729.92890444369
  0
VERTEX
  8
54
 62
7
  6
CONTINUOUS
 10
-2802.71128278222
 20
2731.32876515146
  0
VERTEX
  8
54
 62
7
  6
CONTINUOUS
 10
-2878.61723081108
 20
2652.81371077232
  0
VERTEX
  8
54
 62
7
  6
CONTINUOUS
 10
-2883.00192305292
 20
2644.14397758388
  0
VERTEX
  8
54
 62
7
  6
CONTINUOUS
 10
-2884.91661132457
 20
2638.30516827005
  0
SEQEND
  0
POLYLINE
  8
54
 62
7
 66
1
 70
1
  0
VERTEX
  8
54
 62
7
  6
CONTINUOUS
 10
-2595.03276645975
 20
2807.91531656864
  0
VERTEX
  8
54
 62
7
  6
CONTINUOUS
 10
-2594.36171584522
 20
2797.80085021842
  0
VERTEX
  8
54
 62
7
  6
CONTINUOUS
 10
-2591.09670279145
 20
2789.2130073844
  0
VERTEX
  8
54
 62
7
  6
CONTINUOUS
 10
-2583.20057752672
 20
2780.02988016048
  0
VERTEX
  8
54
 62
7
  6
CONTINUOUS
 10
-2576.35968774445
 20
2774.99483493482
  0
VERTEX
  8
54
 62
7
  6
CONTINUOUS
 10
-2568.42996844934
 20
2771.06838830677
  0
VERTEX
  8
54
 62
7
  6
CONTINUOUS
 10
-2559.93539325316
 20
2768.97397741485
  0
VERTEX
  8
54
 62
7
  6
CONTINUOUS
 10
-2545.58651530851
 20
2768.96283614145
  0
VERTEX
  8
54
 62
7
  6
CONTINUOUS
 10
-2534.01361383956
 20
2771.26225048611
  0
VERTEX
  8
54
 62
7
  6
CONTINUOUS
 10
-2521.03414864118
 20
2776.28420131454
  0
VERTEX
  8
54
 62
7
  6
CONTINUOUS
 10
-2512.57500931134
 20
2781.94157061294
  0
VERTEX
  8
54
 62
7
  6
CONTINUOUS
 10
-2505.39416850385
 20
2790.06886551765
  0
VERTEX
  8
54
 62
7
  6
CONTINUOUS
 10
-2503.19840261812
 20
2797.35992094214
  0
VERTEX
  8
54
 62
7
  6
CONTINUOUS
 10
-2503.0602784607
 20
2805.40719661288
  0
VERTEX
  8
54
 62
7
  6
CONTINUOUS
 10
-2505.15663866142
 20
2812.56299912971
  0
VERTEX
  8
54
 62
7
  6
CONTINUOUS
 10
-2507.25490555905
 20
2814.80206110903
  0
VERTEX
  8
54
 62
7
  6
CONTINUOUS
 10
-2509.71968307201
 20
2815.35403669984
  0
VERTEX
  8
54
 62
7
  6
CONTINUOUS
 10
-2588.61950308337
 20
2823.2229432714
  0
VERTEX
  8
54
 62
7
  6
CONTINUOUS
 10
-2593.06224914272
 20
2814.71901511013
  0
SEQEND
  0
POLYLINE
  8
54
 62
7
 66
1
 70
1
  0
VERTEX
  8
54
 62
7
  6
CONTINUOUS
 10
-2718.76717165835
 20
900.4983810633
  0
VERTEX
  8
54
 62
7
  6
CONTINUOUS
 10
-2717.5370949603
 20
897.881267088519
  0
VERTEX
  8
54
 62
7
  6
CONTINUOUS
 10
-2713.14123865677
 20
895.348106710122
  0
VERTEX
  8
54
 62
7
  6
CONTINUOUS
 10
-2706.31159373032
 20
893.590582559576
  0
VERTEX
  8
54
 62
7
  6
CONTINUOUS
 10
-2696.5604947979
 20
892.770798840295
  0
VERTEX
  8
54
 62
7
  6
CONTINUOUS
 10
-2679.42778856937
 20
894.392618379116
  0
VERTEX
  8
54
 62
7
  6
CONTINUOUS
 10
-2667.63663009394
 20
897.052609290941
  0
VERTEX
  8
54
 62
7
  6
CONTINUOUS
 10
-2659.38353324689
 20
899.969004545255
  0
VERTEX
  8
54
 62
7
  6
CONTINUOUS
 10
-2653.19090296919
 20
903.622265107856
  0
VERTEX
  8
54
 62
7
  6
CONTINUOUS
 10
-2649.76358227272
 20
906.83777382411
  0
VERTEX
  8
54
 62
7
  6
CONTINUOUS
 10
-2647.75447594761
 20
909.777632841557
  0
VERTEX
  8
54
 62
7
  6
CONTINUOUS
 10
-2645.9420527605
 20
915.185587463627
  0
VERTEX
  8
54
 62
7
  6
CONTINUOUS
 10
-2645.71230959582
 20
921.154184407577
  0
VERTEX
  8
54
 62
7
  6
CONTINUOUS
 10
-2647.28572698157
 20
927.177134932131
  0
VERTEX
  8
54
 62
7
  6
CONTINUOUS
 10
-2654.07158041944
 20
936.778751478131
  0
VERTEX
  8
54
 62
7
  6
CONTINUOUS
 10
-2666.39603051816
 20
946.278944269085
  0
VERTEX
  8
54
 62
7
  6
CONTINUOUS
 10
-2692.80825922004
 20
947.692863406228
  0
VERTEX
  8
54
 62
7
  6
CONTINUOUS
 10
-2700.57214575222
 20
942.410786431567
  0
VERTEX
  8
54
 62
7
  6
CONTINUOUS
 10
-2705.94433350108
 20
936.717631274446
  0
VERTEX
  8
54
 62
7
  6
CONTINUOUS
 10
-2709.4495315821
 20
930.542816799241
  0
VERTEX
  8
54
 62
7
  6
CONTINUOUS
 10
-2716.45499382629
 20
914.05132711937
  0
VERTEX
  8
54
 62
7
  6
CONTINUOUS
 10
-2718.62578208141
 20
906.515587606337
  0
SEQEND
  0
POLYLINE
  8
54
 62
7
 66
1
 70
1
  0
VERTEX
  8
54
 62
7
  6
CONTINUOUS
 10
-2872.26098720824
 20
998.711764502245
  0
VERTEX
  8
54
 62
7
  6
CONTINUOUS
 10
-2870.94121341993
 20
991.790558193058
  0
VERTEX
  8
54
 62
7
  6
CONTINUOUS
 10
-2867.60907491067
 20
982.503790079318
  0
VERTEX
  8
54
 62
7
  6
CONTINUOUS
 10
-2862.71478919465
 20
975.081880486954
  0
VERTEX
  8
54
 62
7
  6
CONTINUOUS
 10
-2859.64885598897
 20
971.767120553269
  0
VERTEX
  8
54
 62
7
  6
CONTINUOUS
 10
-2856.92228444762
 20
970.076340566736
  0
VERTEX
  8
54
 62
7
  6
CONTINUOUS
 10
-2862.71702766013
 20
894.045438717609
  0
VERTEX
  8
54
 62
7
  6
CONTINUOUS
 10
-2833.42531042451
 20
899.092349675591
  0
VERTEX
  8
54
 62
7
  6
CONTINUOUS
 10
-2820.44476592754
 20
905.487224844071
  0
VERTEX
  8
54
 62
7
  6
CONTINUOUS
 10
-2809.55970096032
 20
913.007810288247
  0
VERTEX
  8
54
 62
7
  6
CONTINUOUS
 10
-2801.01748529187
 20
920.540650693677
  0
VERTEX
  8
54
 62
7
  6
CONTINUOUS
 10
-2793.74359504822
 20
929.830318463639
  0
VERTEX
  8
54
 62
7
  6
CONTINUOUS
 10
-2787.3463528793
 20
940.579902561364
  0
VERTEX
  8
54
 62
7
  6
CONTINUOUS
 10
-2782.2522536214
 20
951.9272690329
  0
VERTEX
  8
54
 62
7
  6
CONTINUOUS
 10
-2779.76204301722
 20
961.250005788224
  0
VERTEX
  8
54
 62
7
  6
CONTINUOUS
 10
-2778.85636586303
 20
974.862377243047
  0
VERTEX
  8
54
 62
7
  6
CONTINUOUS
 10
-2779.5093524884
 20
988.407324980512
  0
VERTEX
  8
54
 62
7
  6
CONTINUOUS
 10
-2782.20241809129
 20
1004.40258968906
  0
VERTEX
  8
54
 62
7
  6
CONTINUOUS
 10
-2785.5454216655
 20
1014.41845913737
  0
VERTEX
  8
54
 62
7
  6
CONTINUOUS
 10
-2790.19232768999
 20
1023.5842822763
  0
VERTEX
  8
54
 62
7
  6
CONTINUOUS
 10
-2795.65795695895
 20
1030.91600792854
  0
VERTEX
  8
54
 62
7
  6
CONTINUOUS
 10
-2803.09558695995
 20
1036.0838518305
  0
VERTEX
  8
54
 62
7
  6
CONTINUOUS
 10
-2812.00132523954
 20
1039.29964984425
  0
VERTEX
  8
54
 62
7
  6
CONTINUOUS
 10
-2820.76450778403
 20
1040.94142593759
  0
VERTEX
  8
54
 62
7
  6
CONTINUOUS
 10
-2829.55349424347
 20
1040.88023002167
  0
VERTEX
  8
54
 62
7
  6
CONTINUOUS
 10
-2838.58280396056
 20
1039.24346437035
  0
VERTEX
  8
54
 62
7
  6
CONTINUOUS
 10
-2844.774204547
 20
1037.10652599176
  0
VERTEX
  8
54
 62
7
  6
CONTINUOUS
 10
-2853.35099108506
 20
1032.39008279429
  0
VERTEX
  8
54
 62
7
  6
CONTINUOUS
 10
-2860.67869976478
 20
1026.28350181204
  0
VERTEX
  8
54
 62
7
  6
CONTINUOUS
 10
-2864.80170121991
 20
1021.52310364305
  0
VERTEX
  8
54
 62
7
  6
CONTINUOUS
 10
-2870.53730594935
 20
1010.77437927551
  0
VERTEX
  8
54
 62
7
  6
CONTINUOUS
 10
-2872.20774245656
 20
1005.00490432516
  0
SEQEND
  0
POLYLINE
  8
54
 62
7
 66
1
 70
1
  0
VERTEX
  8
54
 62
7
  6
CONTINUOUS
 10
-3213.15395401186
 20
1881.36825064526
  0
VERTEX
  8
54
 62
7
  6
CONTINUOUS
 10
-3181.53904119628
 20
1643.07033998958
  0
VERTEX
  8
54
 62
7
  6
CONTINUOUS
 10
-3179.87681354584
 20
1643.61658942117
  0
VERTEX
  8
54
 62
7
  6
CONTINUOUS
 10
-3167.62743309191
 20
1654.41393495049
  0
VERTEX
  8
54
 62
7
  6
CONTINUOUS
 10
-3162.1755228614
 20
1661.42735920864
  0
VERTEX
  8
54
 62
7
  6
CONTINUOUS
 10
-3149.46263233108
 20
1684.62363456598
  0
VERTEX
  8
54
 62
7
  6
CONTINUOUS
 10
-3144.50987528047
 20
1697.78078261505
  0
VERTEX
  8
54
 62
7
  6
CONTINUOUS
 10
-3139.93171267837
 20
1717.72158861747
  0
VERTEX
  8
54
 62
7
  6
CONTINUOUS
 10
-3135.7602718634
 20
1748.04319910504
  0
VERTEX
  8
54
 62
7
  6
CONTINUOUS
 10
-3134.81373088085
 20
1770.25973719163
  0
VERTEX
  8
54
 62
7
  6
CONTINUOUS
 10
-3135.85406327902
 20
1788.04992079951
  0
VERTEX
  8
54
 62
7
  6
CONTINUOUS
 10
-3138.54113632517
 20
1804.99228544112
  0
VERTEX
  8
54
 62
7
  6
CONTINUOUS
 10
-3141.80400200774
 20
1816.91547433664
  0
VERTEX
  8
54
 62
7
  6
CONTINUOUS
 10
-3147.37500089856
 20
1832.72781365765
  0
VERTEX
  8
54
 62
7
  6
CONTINUOUS
 10
-3156.10430367051
 20
1850.70760628096
  0
VERTEX
  8
54
 62
7
  6
CONTINUOUS
 10
-3163.8452800697
 20
1861.92158282673
  0
VERTEX
  8
54
 62
7
  6
CONTINUOUS
 10
-3174.39148788266
 20
1872.90246960343
  0
VERTEX
  8
54
 62
7
  6
CONTINUOUS
 10
-3183.16637625214
 20
1878.26290125574
  0
VERTEX
  8
54
 62
7
  6
CONTINUOUS
 10
-3191.55086843803
 20
1881.05219399474
  0
VERTEX
  8
54
 62
7
  6
CONTINUOUS
 10
-3197.40306614619
 20
1882.07160527863
  0
SEQEND
  0
POLYLINE
  8
54
 62
7
 66
1
 70
1
  0
VERTEX
  8
54
 62
7
  6
CONTINUOUS
 10
-1978.4924600211
 20
2974.22121254655
  0
VERTEX
  8
54
 62
7
  6
CONTINUOUS
 10
-1977.76885279427
 20
2968.27267386985
  0
VERTEX
  8
54
 62
7
  6
CONTINUOUS
 10
-1973.93276435893
 20
2962.50178737763
  0
VERTEX
  8
54
 62
7
  6
CONTINUOUS
 10
-1967.42376789887
 20
2955.52747335508
  0
VERTEX
  8
54
 62
7
  6
CONTINUOUS
 10
-1956.44404902204
 20
2947.14639126664
  0
VERTEX
  8
54
 62
7
  6
CONTINUOUS
 10
-1948.53113143354
 20
2942.76129170145
  0
VERTEX
  8
54
 62
7
  6
CONTINUOUS
 10
-1933.53567221295
 20
2937.01927982649
  0
VERTEX
  8
54
 62
7
  6
CONTINUOUS
 10
-1916.96630627161
 20
2932.15060738959
  0
VERTEX
  8
54
 62
7
  6
CONTINUOUS
 10
-1906.72202589899
 20
2930.3495899003
  0
VERTEX
  8
54
 62
7
  6
CONTINUOUS
 10
-1890.18649908623
 20
2929.78306157579
  0
VERTEX
  8
54
 62
7
  6
CONTINUOUS
 10
-1885.07321322985
 20
2930.34774801402
  0
VERTEX
  8
54
 62
7
  6
CONTINUOUS
 10
-1875.92617660818
 20
2933.60181875909
  0
VERTEX
  8
54
 62
7
  6
CONTINUOUS
 10
-1871.32293317335
 20
2937.14186713918
  0
VERTEX
  8
54
 62
7
  6
CONTINUOUS
 10
-1864.09479857319
 20
2947.93408158939
  0
VERTEX
  8
54
 62
7
  6
CONTINUOUS
 10
-1864.22746297817
 20
2950.99432242237
  0
VERTEX
  8
54
 62
7
  6
CONTINUOUS
 10
-1866.08229951891
 20
2951.77053187984
  0
VERTEX
  8
54
 62
7
  6
CONTINUOUS
 10
-1866.55190547617
 20
2951.29961029539
  0
VERTEX
  8
54
 62
7
  6
CONTINUOUS
 10
-1969.65659920153
 20
2984.16925339481
  0
VERTEX
  8
54
 62
7
  6
CONTINUOUS
 10
-1976.43150455316
 20
2978.57715914137
  0
SEQEND
  0
POLYLINE
  8
54
 62
7
 66
1
 70
1
  0
VERTEX
  8
54
 62
7
  6
CONTINUOUS
 10
-574.747178997884
 20
1231.49040068261
  0
VERTEX
  8
54
 62
7
  6
CONTINUOUS
 10
-574.115681253327
 20
1221.17691533637
  0
VERTEX
  8
54
 62
7
  6
CONTINUOUS
 10
-573.04889564482
 20
1217.95734517216
  0
VERTEX
  8
54
 62
7
  6
CONTINUOUS
 10
-570.849707761043
 20
1215.96573633737
  0
VERTEX
  8
54
 62
7
  6
CONTINUOUS
 10
-566.372665443409
 20
1216.72992038417
  0
VERTEX
  8
54
 62
7
  6
CONTINUOUS
 10
-561.996707146876
 20
1220.17189202544
  0
VERTEX
  8
54
 62
7
  6
CONTINUOUS
 10
-555.973009393509
 20
1228.56695917323
  0
VERTEX
  8
54
 62
7
  6
CONTINUOUS
 10
-551.397538495727
 20
1236.97251042305
  0
VERTEX
  8
54
 62
7
  6
CONTINUOUS
 10
-547.066946317895
 20
1247.21528299248
  0
VERTEX
  8
54
 62
7
  6
CONTINUOUS
 10
-541.884797502
 20
1263.17048200424
  0
VERTEX
  8
54
 62
7
  6
CONTINUOUS
 10
-532.461251546498
 20
1294.29548144077
  0
VERTEX
  8
54
 62
7
  6
CONTINUOUS
 10
-530.242773178968
 20
1304.08591629638
  0
VERTEX
  8
54
 62
7
  6
CONTINUOUS
 10
-544.081920857689
 20
1304.73629569355
  0
VERTEX
  8
54
 62
7
  6
CONTINUOUS
 10
-546.698205505729
 20
1303.850525296
  0
VERTEX
  8
54
 62
7
  6
CONTINUOUS
 10
-549.527030985426
 20
1301.52228324778
  0
VERTEX
  8
54
 62
7
  6
CONTINUOUS
 10
-553.488623209027
 20
1295.14979759315
  0
VERTEX
  8
54
 62
7
  6
CONTINUOUS
 10
-569.795395923032
 20
1257.36115657014
  0
VERTEX
  8
54
 62
7
  6
CONTINUOUS
 10
-573.320236515988
 20
1244.43190843274
  0
SEQEND
  0
POLYLINE
  8
11
 62
7
 66
1
 70
1
  0
VERTEX
  8
11
 62
7
  6
CONTINUOUS
 10
-2524.34609358863
 20
1814.77423107553
  0
VERTEX
  8
11
 62
7
  6
CONTINUOUS
 10
-2521.82323606465
 20
1822.06323235195
  0
VERTEX
  8
11
 62
7
  6
CONTINUOUS
 10
-2513.4029334663
 20
1828.54050109553
  0
VERTEX
  8
11
 62
7
  6
CONTINUOUS
 10
-2450.54234546105
 20
1841.54284356204
  0
VERTEX
  8
11
 62
7
  6
CONTINUOUS
 10
-2209.98195152405
 20
1872.31575941991
  0
VERTEX
  8
11
 62
7
  6
CONTINUOUS
 10
-2118.66720039669
 20
1874.50325168819
  0
VERTEX
  8
11
 62
7
  6
CONTINUOUS
 10
-2144.58234473274
 20
1858.82073593775
  0
VERTEX
  8
11
 62
7
  6
CONTINUOUS
 10
-2238.94597328986
 20
1848.92771112162
  0
VERTEX
  8
11
 62
7
  6
CONTINUOUS
 10
-2344.85675661795
 20
1829.0693598516
  0
VERTEX
  8
11
 62
7
  6
CONTINUOUS
 10
-2475.51301122626
 20
1813.92088077308
  0
VERTEX
  8
11
 62
7
  6
CONTINUOUS
 10
-2509.79949849004
 20
1809.16283390968
  0
SEQEND
  0
POLYLINE
  8
1
 62
7
 66
1
 70
1
  0
VERTEX
  8
1
 62
7
  6
CONTINUOUS
 10
-3522.72180212446
 20
1127.53553553238
  0
VERTEX
  8
1
 62
7
  6
CONTINUOUS
 10
-3514.70779557518
 20
1107.50651756289
  0
VERTEX
  8
1
 62
7
  6
CONTINUOUS
 10
-3499.49363275996
 20
1099.50933345987
  0
VERTEX
  8
1
 62
7
  6
CONTINUOUS
 10
-3475.52077693372
 20
1092.32012884082
  0
VERTEX
  8
1
 62
7
  6
CONTINUOUS
 10
-3352.56599340776
 20
1087.76613593737
  0
VERTEX
  8
1
 62
7
  6
CONTINUOUS
 10
-3287.27697440211
 20
1075.52226801499
  0
VERTEX
  8
1
 62
7
  6
CONTINUOUS
 10
-3222.02402710408
 20
1075.4474988869
  0
VERTEX
  8
1
 62
7
  6
CONTINUOUS
 10
-3219.98267597772
 20
1081.48743474524
  0
VERTEX
  8
1
 62
7
  6
CONTINUOUS
 10
-3187.67070177631
 20
1072.46839395968
  0
VERTEX
  8
1
 62
7
  6
CONTINUOUS
 10
-3164.35948408475
 20
998.580088925929
  0
VERTEX
  8
1
 62
7
  6
CONTINUOUS
 10
-3150.72037805087
 20
969.120527761271
  0
VERTEX
  8
1
 62
7
  6
CONTINUOUS
 10
-3133.91629771879
 20
953.117302839132
  0
VERTEX
  8
1
 62
7
  6
CONTINUOUS
 10
-3098.74435079477
 20
933.93129479427
  0
VERTEX
  8
1
 62
7
  6
CONTINUOUS
 10
-3075.53950003205
 20
925.11911790514
  0
VERTEX
  8
1
 62
7
  6
CONTINUOUS
 10
-3009.30868213449
 20
957.7449241265
  0
VERTEX
  8
1
 62
7
  6
CONTINUOUS
 10
-2975.31830830577
 20
966.688685675651
  0
VERTEX
  8
1
 62
7
  6
CONTINUOUS
 10
-2959.52798439558
 20
967.519116730142
  0
VERTEX
  8
1
 62
7
  6
CONTINUOUS
 10
-2931.51977001605
 20
972.320106833356
  0
VERTEX
  8
1
 62
7
  6
CONTINUOUS
 10
-2915.03910674716
 20
986.196912676277
  0
VERTEX
  8
1
 62
7
  6
CONTINUOUS
 10
-2874.64759724958
 20
1005.13188193597
  0
VERTEX
  8
1
 62
7
  6
CONTINUOUS
 10
-2853.94354658533
 20
1009.30353290391
  0
VERTEX
  8
1
 62
7
  6
CONTINUOUS
 10
-2846.01995885027
 20
1004.32600409198
  0
VERTEX
  8
1
 62
7
  6
CONTINUOUS
 10
-2836.20440257459
 20
1009.19632841582
  0
VERTEX
  8
1
 62
7
  6
CONTINUOUS
 10
-2805.91084135105
 20
977.230552510726
  0
VERTEX
  8
1
 62
7
  6
CONTINUOUS
 10
-2805.92431128495
 20
954.548032602579
  0
VERTEX
  8
1
 62
7
  6
CONTINUOUS
 10
-2836.60229026204
 20
917.742841931629
  0
VERTEX
  8
1
 62
7
  6
CONTINUOUS
 10
-2846.71571392914
 20
900.341050082142
  0
VERTEX
  8
1
 62
7
  6
CONTINUOUS
 10
-2844.32003259897
 20
881.920066205584
  0
VERTEX
  8
1
 62
7
  6
CONTINUOUS
 10
-2826.72146591567
 20
864.320720935106
  0
VERTEX
  8
1
 62
7
  6
CONTINUOUS
 10
-2801.9166539307
 20
861.120726688039
  0
VERTEX
  8
1
 62
7
  6
CONTINUOUS
 10
-2738.76958679587
 20
900.299421624879
  0
VERTEX
  8
1
 62
7
  6
CONTINUOUS
 10
-2722.73776397743
 20
904.303649309714
  0
VERTEX
  8
1
 62
7
  6
CONTINUOUS
 10
-2721.07655767716
 20
909.164788990755
  0
VERTEX
  8
1
 62
7
  6
CONTINUOUS
 10
-2698.65483783804
 20
916.978512402848
  0
VERTEX
  8
1
 62
7
  6
CONTINUOUS
 10
-2672.9073194409
 20
917.931302372344
  0
VERTEX
  8
1
 62
7
  6
CONTINUOUS
 10
-2657.68550011978
 20
913.789950240733
  0
VERTEX
  8
1
 62
7
  6
CONTINUOUS
 10
-2618.99977003498
 20
857.770733601318
  0
VERTEX
  8
1
 62
7
  6
CONTINUOUS
 10
-2615.7097998428
 20
831.427740537312
  0
VERTEX
  8
1
 62
7
  6
CONTINUOUS
 10
-2606.72824769388
 20
815.528123805299
  0
VERTEX
  8
1
 62
7
  6
CONTINUOUS
 10
-2587.52541419209
 20
805.121105552771
  0
VERTEX
  8
1
 62
7
  6
CONTINUOUS
 10
-2572.07179656288
 20
806.588613831173
  0
VERTEX
  8
1
 62
7
  6
CONTINUOUS
 10
-2530.29358559543
 20
843.713689160404
  0
VERTEX
  8
1
 62
7
  6
CONTINUOUS
 10
-2512.16688410815
 20
841.988766334523
  0
VERTEX
  8
1
 62
7
  6
CONTINUOUS
 10
-2480.31644044895
 20
857.921188372565
  0
VERTEX
  8
1
 62
7
  6
CONTINUOUS
 10
-2415.23636771144
 20
869.75469453491
  0
VERTEX
  8
1
 62
7
  6
CONTINUOUS
 10
-2396.8455976354
 20
885.08646363181
  0
VERTEX
  8
1
 62
7
  6
CONTINUOUS
 10
-2375.30359826783
 20
894.525937935273
  0
VERTEX
  8
1
 62
7
  6
CONTINUOUS
 10
-2297.9282491486
 20
847.524040009275
  0
VERTEX
  8
1
 62
7
  6
CONTINUOUS
 10
-2274.72665866223
 20
838.72014138039
  0
VERTEX
  8
1
 62
7
  6
CONTINUOUS
 10
-2245.10709674313
 20
848.593602705612
  0
VERTEX
  8
1
 62
7
  6
CONTINUOUS
 10
-2218.27399635702
 20
869.466893379089
  0
VERTEX
  8
1
 62
7
  6
CONTINUOUS
 10
-2145.21474804303
 20
909.915565020488
  0
VERTEX
  8
1
 62
7
  6
CONTINUOUS
 10
-2133.09683566706
 20
909.928027289255
  0
VERTEX
  8
1
 62
7
  6
CONTINUOUS
 10
-2125.25736542149
 20
916.039878764582
  0
VERTEX
  8
1
 62
7
  6
CONTINUOUS
 10
-2086.18430014602
 20
932.509253964802
  0
VERTEX
  8
1
 62
7
  6
CONTINUOUS
 10
-2084.85413696947
 20
922.137982531595
  0
VERTEX
  8
1
 62
7
  6
CONTINUOUS
 10
-2094.91958250607
 20
896.120642289172
  0
VERTEX
  8
1
 62
7
  6
CONTINUOUS
 10
-2127.10487252942
 20
863.928054335253
  0
VERTEX
  8
1
 62
7
  6
CONTINUOUS
 10
-2133.15137154923
 20
862.701651567582
  0
VERTEX
  8
1
 62
7
  6
CONTINUOUS
 10
-2138.73781718516
 20
856.303375603187
  0
VERTEX
  8
1
 62
7
  6
CONTINUOUS
 10
-2157.89564508849
 20
841.9611438989
  0
VERTEX
  8
1
 62
7
  6
CONTINUOUS
 10
-2160.32278063951
 20
823.527271150935
  0
VERTEX
  8
1
 62
7
  6
CONTINUOUS
 10
-2154.10096423448
 20
818.169034875267
  0
VERTEX
  8
1
 62
7
  6
CONTINUOUS
 10
-2155.51114929901
 20
797.142864328082
  0
VERTEX
  8
1
 62
7
  6
CONTINUOUS
 10
-2162.19523901208
 20
788.62635908473
  0
VERTEX
  8
1
 62
7
  6
CONTINUOUS
 10
-2158.17663540453
 20
772.552819274833
  0
VERTEX
  8
1
 62
7
  6
CONTINUOUS
 10
-2167.493707195
 20
710.508954474962
  0
VERTEX
  8
1
 62
7
  6
CONTINUOUS
 10
-2159.21122791403
 20
712.019265570867
  0
VERTEX
  8
1
 62
7
  6
CONTINUOUS
 10
-2127.2891942411
 20
727.406987896158
  0
VERTEX
  8
1
 62
7
  6
CONTINUOUS
 10
-2093.50778159204
 20
749.926045223892
  0
VERTEX
  8
1
 62
7
  6
CONTINUOUS
 10
-2060.52351284826
 20
781.076183174154
  0
VERTEX
  8
1
 62
7
  6
CONTINUOUS
 10
-2057.43744751649
 20
780.277306483692
  0
VERTEX
  8
1
 62
7
  6
CONTINUOUS
 10
-2051.41228321988
 20
789.234616688952
  0
VERTEX
  8
1
 62
7
  6
CONTINUOUS
 10
-2029.69885456851
 20
804.394220229922
  0
VERTEX
  8
1
 62
7
  6
CONTINUOUS
 10
-1999.88154760723
 20
814.359698401333
  0
VERTEX
  8
1
 62
7
  6
CONTINUOUS
 10
-1987.58987203414
 20
815.89669909351
  0
VERTEX
  8
1
 62
7
  6
CONTINUOUS
 10
-1989.68765140627
 20
805.649943780901
  0
VERTEX
  8
1
 62
7
  6
CONTINUOUS
 10
-2007.97115591483
 20
775.617218705438
  0
VERTEX
  8
1
 62
7
  6
CONTINUOUS
 10
-2026.47441554907
 20
754.777188102517
  0
VERTEX
  8
1
 62
7
  6
CONTINUOUS
 10
-2032.03816654615
 20
756.335503989163
  0
VERTEX
  8
1
 62
7
  6
CONTINUOUS
 10
-2073.92361336049
 20
713.11499247999
  0
VERTEX
  8
1
 62
7
  6
CONTINUOUS
 10
-2092.32005629565
 20
677.91949994581
  0
VERTEX
  8
1
 62
7
  6
CONTINUOUS
 10
-2088.31869726831
 20
662.717945168933
  0
VERTEX
  8
1
 62
7
  6
CONTINUOUS
 10
-2068.32406262026
 20
645.921279500297
  0
VERTEX
  8
1
 62
7
  6
CONTINUOUS
 10
-2008.1403271743
 20
651.323020720112
  0
VERTEX
  8
1
 62
7
  6
CONTINUOUS
 10
-1965.36752910797
 20
681.267052448118
  0
VERTEX
  8
1
 62
7
  6
CONTINUOUS
 10
-1935.12042935384
 20
689.33273547949
  0
VERTEX
  8
1
 62
7
  6
CONTINUOUS
 10
-1863.39029526871
 20
758.822372721957
  0
VERTEX
  8
1
 62
7
  6
CONTINUOUS
 10
-1837.26438105112
 20
779.786231065137
  0
VERTEX
  8
1
 62
7
  6
CONTINUOUS
 10
-1831.48453685641
 20
777.930120999294
  0
VERTEX
  8
1
 62
7
  6
CONTINUOUS
 10
-1822.63909455482
 20
788.394169866513
  0
VERTEX
  8
1
 62
7
  6
CONTINUOUS
 10
-1799.92482575972
 20
803.51746569956
  0
VERTEX
  8
1
 62
7
  6
CONTINUOUS
 10
-1761.3935638289
 20
818.932706111222
  0
VERTEX
  8
1
 62
7
  6
CONTINUOUS
 10
-1712.31446506248
 20
809.117043374061
  0
VERTEX
  8
1
 62
7
  6
CONTINUOUS
 10
-1679.51443535106
 20
776.315421558
  0
VERTEX
  8
1
 62
7
  6
CONTINUOUS
 10
-1645.12028878107
 20
753.120176714862
  0
VERTEX
  8
1
 62
7
  6
CONTINUOUS
 10
-1584.31901886876
 20
719.519626952939
  0
VERTEX
  8
1
 62
7
  6
CONTINUOUS
 10
-1559.51845244555
 20
713.91978569317
  0
VERTEX
  8
1
 62
7
  6
CONTINUOUS
 10
-1522.59545829182
 20
711.941335135232
  0
VERTEX
  8
1
 62
7
  6
CONTINUOUS
 10
-1486.72237576486
 20
717.919009529148
  0
VERTEX
  8
1
 62
7
  6
CONTINUOUS
 10
-1443.51786218404
 20
749.122142564313
  0
VERTEX
  8
1
 62
7
  6
CONTINUOUS
 10
-1405.40462264185
 20
802.058624191712
  0
VERTEX
  8
1
 62
7
  6
CONTINUOUS
 10
-1392.04071959605
 20
814.30871479071
  0
VERTEX
  8
1
 62
7
  6
CONTINUOUS
 10
-1374.23321370341
 20
848.30447251563
  0
VERTEX
  8
1
 62
7
  6
CONTINUOUS
 10
-1348.32993333869
 20
877.912987435342
  0
VERTEX
  8
1
 62
7
  6
CONTINUOUS
 10
-1322.31746201122
 20
888.320095552738
  0
VERTEX
  8
1
 62
7
  6
CONTINUOUS
 10
-1284.30998493721
 20
876.315960163849
  0
VERTEX
  8
1
 62
7
  6
CONTINUOUS
 10
-1241.4398457723
 20
854.879909834353
  0
VERTEX
  8
1
 62
7
  6
CONTINUOUS
 10
-1161.93218197666
 20
801.12720861714
  0
VERTEX
  8
1
 62
7
  6
CONTINUOUS
 10
-1116.28527098407
 20
777.918584971635
  0
VERTEX
  8
1
 62
7
  6
CONTINUOUS
 10
-1108.26956993227
 20
781.125259497379
  0
VERTEX
  8
1
 62
7
  6
CONTINUOUS
 10
-1077.13851866183
 20
775.271416332623
  0
VERTEX
  8
1
 62
7
  6
CONTINUOUS
 10
-1056.91528674942
 20
758.414764064094
  0
VERTEX
  8
1
 62
7
  6
CONTINUOUS
 10
-1018.72150386
 20
701.121881885696
  0
VERTEX
  8
1
 62
7
  6
CONTINUOUS
 10
-1002.72524569415
 20
684.324004043827
  0
VERTEX
  8
1
 62
7
  6
CONTINUOUS
 10
-963.116097035309
 20
663.069261820615
  0
VERTEX
  8
1
 62
7
  6
CONTINUOUS
 10
-938.720581633761
 20
625.120629338768
  0
VERTEX
  8
1
 62
7
  6
CONTINUOUS
 10
-918.720062143715
 20
609.920027717639
  0
VERTEX
  8
1
 62
7
  6
CONTINUOUS
 10
-887.432704143183
 20
603.92987470063
  0
VERTEX
  8
1
 62
7
  6
CONTINUOUS
 10
-858.734909529104
 20
607.519099708358
  0
VERTEX
  8
1
 62
7
  6
CONTINUOUS
 10
-825.921091414968
 20
607.519561098982
  0
VERTEX
  8
1
 62
7
  6
CONTINUOUS
 10
-805.911141795713
 20
626.725883345981
  0
VERTEX
  8
1
 62
7
  6
CONTINUOUS
 10
-788.2125924166
 20
634.314318249019
  0
VERTEX
  8
1
 62
7
  6
CONTINUOUS
 10
-753.101009283625
 20
630.726517425547
  0
VERTEX
  8
1
 62
7
  6
CONTINUOUS
 10
-736.936955933342
 20
646.048958064852
  0
VERTEX
  8
1
 62
7
  6
CONTINUOUS
 10
-711.795073842612
 20
663.490957163533
  0
VERTEX
  8
1
 62
7
  6
CONTINUOUS
 10
-688.300066513827
 20
663.540074969093
  0
VERTEX
  8
1
 62
7
  6
CONTINUOUS
 10
-688.204035452246
 20
671.15660775448
  0
VERTEX
  8
1
 62
7
  6
CONTINUOUS
 10
-674.645504043644
 20
675.538090071623
  0
VERTEX
  8
1
 62
7
  6
CONTINUOUS
 10
-651.459563065476
 20
678.693299436183
  0
VERTEX
  8
1
 62
7
  6
CONTINUOUS
 10
-626.828262913513
 20
668.43026018345
  0
VERTEX
  8
1
 62
7
  6
CONTINUOUS
 10
-595.154665190285
 20
636.754374293782
  0
VERTEX
  8
1
 62
7
  6
CONTINUOUS
 10
-563.521373470208
 20
593.121571407533
  0
VERTEX
  8
1
 62
7
  6
CONTINUOUS
 10
-546.724788965059
 20
577.123444127125
  0
VERTEX
  8
1
 62
7
  6
CONTINUOUS
 10
-531.527063966015
 20
569.122173469938
  0
VERTEX
  8
1
 62
7
  6
CONTINUOUS
 10
-509.915135540076
 20
566.720579414255
  0
VERTEX
  8
1
 62
7
  6
CONTINUOUS
 10
-486.872282433591
 20
575.043318967816
  0
VERTEX
  8
1
 62
7
  6
CONTINUOUS
 10
-425.125592995408
 20
605.917521797835
  0
VERTEX
  8
1
 62
7
  6
CONTINUOUS
 10
-392.321154291001
 20
618.719196786958
  0
VERTEX
  8
1
 62
7
  6
CONTINUOUS
 10
-385.919251154178
 20
625.921334360844
  0
VERTEX
  8
1
 62
7
  6
CONTINUOUS
 10
-376.38973857828
 20
657.129640154002
  0
VERTEX
  8
1
 62
7
  6
CONTINUOUS
 10
-361.32737857246
 20
670.696009025424
  0
VERTEX
  8
1
 62
7
  6
CONTINUOUS
 10
-319.749991732717
 20
665.910353791349
  0
VERTEX
  8
1
 62
7
  6
CONTINUOUS
 10
-301.188478271014
 20
670.518358635269
  0
VERTEX
  8
1
 62
7
  6
CONTINUOUS
 10
-311.83309979289
 20
683.379856760835
  0
VERTEX
  8
1
 62
7
  6
CONTINUOUS
 10
-303.573834609058
 20
686.714285566227
  0
VERTEX
  8
1
 62
7
  6
CONTINUOUS
 10
-294.766535255869
 20
685.088451680653
  0
VERTEX
  8
1
 62
7
  6
CONTINUOUS
 10
-292.265386803848
 20
698.128686379851
  0
VERTEX
  8
1
 62
7
  6
CONTINUOUS
 10
-279.522485058425
 20
729.91209789123
  0
VERTEX
  8
1
 62
7
  6
CONTINUOUS
 10
-272.319948839949
 20
761.118818203036
  0
VERTEX
  8
1
 62
7
  6
CONTINUOUS
 10
-281.92354733859
 20
790.727431090462
  0
VERTEX
  8
1
 62
7
  6
CONTINUOUS
 10
-309.920882312869
 20
833.921125664091
  0
VERTEX
  8
1
 62
7
  6
CONTINUOUS
 10
-334.707687373191
 20
860.305735681126
  0
VERTEX
  8
1
 62
7
  6
CONTINUOUS
 10
-346.482112660848
 20
875.01863495166
  0
VERTEX
  8
1
 62
7
  6
CONTINUOUS
 10
-350.752969408006
 20
876.339635413987
  0
VERTEX
  8
1
 62
7
  6
CONTINUOUS
 10
-364.323621474697
 20
889.924222422474
  0
VERTEX
  8
1
 62
7
  6
CONTINUOUS
 10
-379.518212527428
 20
910.718336587761
  0
VERTEX
  8
1
 62
7
  6
CONTINUOUS
 10
-413.655416878464
 20
932.054989688157
  0
VERTEX
  8
1
 62
7
  6
CONTINUOUS
 10
-440.320157315655
 20
958.720191882111
  0
VERTEX
  8
1
 62
7
  6
CONTINUOUS
 10
-512.464639529203
 20
1066.93660620155
  0
VERTEX
  8
1
 62
7
  6
CONTINUOUS
 10
-538.34444123422
 20
1134.22231096652
  0
VERTEX
  8
1
 62
7
  6
CONTINUOUS
 10
-536.654395530556
 20
1168.02410643761
  0
VERTEX
  8
1
 62
7
  6
CONTINUOUS
 10
-502.752665980375
 20
1232.24732418672
  0
VERTEX
  8
1
 62
7
  6
CONTINUOUS
 10
-498.234545261455
 20
1244.97661144884
  0
VERTEX
  8
1
 62
7
  6
CONTINUOUS
 10
-511.544295875419
 20
1262.75783654038
  0
VERTEX
  8
1
 62
7
  6
CONTINUOUS
 10
-525.904950313951
 20
1289.88539683717
  0
VERTEX
  8
1
 62
7
  6
CONTINUOUS
 10
-543.49828369482
 20
1339.20227659341
  0
VERTEX
  8
1
 62
7
  6
CONTINUOUS
 10
-920.804902557527
 20
1268.47918746643
  0
VERTEX
  8
1
 62
7
  6
CONTINUOUS
 10
-1297.08146942506
 20
1214.72255142418
  0
VERTEX
  8
1
 62
7
  6
CONTINUOUS
 10
-1336.49132878892
 20
1214.73959693121
  0
VERTEX
  8
1
 62
7
  6
CONTINUOUS
 10
-1341.94109258565
 20
1234.78128355048
  0
VERTEX
  8
1
 62
7
  6
CONTINUOUS
 10
-1344.09292924408
 20
1240.15067202288
  0
VERTEX
  8
1
 62
7
  6
CONTINUOUS
 10
-1353.12013110877
 20
1297.92069322452
  0
VERTEX
  8
1
 62
7
  6
CONTINUOUS
 10
-1360.51309633437
 20
1331.18892562894
  0
VERTEX
  8
1
 62
7
  6
CONTINUOUS
 10
-1377.09500310896
 20
1453.89502613846
  0
VERTEX
  8
1
 62
7
  6
CONTINUOUS
 10
-1419.51741004704
 20
1866.51549751128
  0
VERTEX
  8
1
 62
7
  6
CONTINUOUS
 10
-1419.55997278455
 20
1897.50171741136
  0
VERTEX
  8
1
 62
7
  6
CONTINUOUS
 10
-1046.43298050437
 20
1943.17659679489
  0
VERTEX
  8
1
 62
7
  6
CONTINUOUS
 10
-1058.72098482714
 20
2065.93885146129
  0
VERTEX
  8
1
 62
7
  6
CONTINUOUS
 10
-1058.72263612183
 20
2150.65337251218
  0
VERTEX
  8
1
 62
7
  6
CONTINUOUS
 10
-1056.16951527278
 20
2190.77055918272
  0
VERTEX
  8
1
 62
7
  6
CONTINUOUS
 10
-1701.43606774458
 20
2195.59558544604
  0
VERTEX
  8
1
 62
7
  6
CONTINUOUS
 10
-1705.33550289256
 20
2212.76351494019
  0
VERTEX
  8
1
 62
7
  6
CONTINUOUS
 10
-1694.38401313923
 20
2531.8899334028
  0
VERTEX
  8
1
 62
7
  6
CONTINUOUS
 10
-1688.60204342157
 20
2596.69211155412
  0
VERTEX
  8
1
 62
7
  6
CONTINUOUS
 10
-1985.16661075691
 20
2609.60915043212
  0
VERTEX
  8
1
 62
7
  6
CONTINUOUS
 10
-2002.722242286
 20
2613.12003552778
  0
VERTEX
  8
1
 62
7
  6
CONTINUOUS
 10
-2012.32779261624
 20
2611.5195917589
  0
VERTEX
  8
1
 62
7
  6
CONTINUOUS
 10
-2037.76706141799
 20
2613.08714006539
  0
VERTEX
  8
1
 62
7
  6
CONTINUOUS
 10
-2049.92230294019
 20
2617.12511867512
  0
VERTEX
  8
1
 62
7
  6
CONTINUOUS
 10
-2047.40048043086
 20
2622.82597625035
  0
VERTEX
  8
1
 62
7
  6
CONTINUOUS
 10
-2041.09293633192
 20
2624.34340822597
  0
VERTEX
  8
1
 62
7
  6
CONTINUOUS
 10
-2034.60064518363
 20
2639.78495558444
  0
VERTEX
  8
1
 62
7
  6
CONTINUOUS
 10
-1996.23397368652
 20
2670.4705835443
  0
VERTEX
  8
1
 62
7
  6
CONTINUOUS
 10
-1896.54655327219
 20
2657.79746114915
  0
VERTEX
  8
1
 62
7
  6
CONTINUOUS
 10
-1895.91913163325
 20
2655.96398248983
  0
VERTEX
  8
1
 62
7
  6
CONTINUOUS
 10
-1888.39762410855
 20
2660.59095840979
  0
VERTEX
  8
1
 62
7
  6
CONTINUOUS
 10
-1889.71088791498
 20
2661.95362273459
  0
VERTEX
  8
1
 62
7
  6
CONTINUOUS
 10
-1836.31843950293
 20
2808.32433399614
  0
VERTEX
  8
1
 62
7
  6
CONTINUOUS
 10
-1795.54057297025
 20
2920.28303051319
  0
VERTEX
  8
1
 62
7
  6
CONTINUOUS
 10
-1788.27007042847
 20
2929.25419392904
  0
VERTEX
  8
1
 62
7
  6
CONTINUOUS
 10
-1787.17437779624
 20
2934.27956911092
  0
VERTEX
  8
1
 62
7
  6
CONTINUOUS
 10
-1832.52672282225
 20
2935.52335310028
  0
VERTEX
  8
1
 62
7
  6
CONTINUOUS
 10
-1912.96521312791
 20
2948.09579312588
  0
VERTEX
  8
1
 62
7
  6
CONTINUOUS
 10
-1959.72581480521
 20
2965.83266450544
  0
VERTEX
  8
1
 62
7
  6
CONTINUOUS
 10
-1989.07215836773
 20
2984.50777825467
  0
VERTEX
  8
1
 62
7
  6
CONTINUOUS
 10
-2037.22005903143
 20
3010.18947330718
  0
VERTEX
  8
1
 62
7
  6
CONTINUOUS
 10
-2055.51415785374
 20
3013.12075282837
  0
VERTEX
  8
1
 62
7
  6
CONTINUOUS
 10
-2097.12462721944
 20
2994.71765860069
  0
VERTEX
  8
1
 62
7
  6
CONTINUOUS
 10
-2116.17434948992
 20
2983.83039323391
  0
VERTEX
  8
1
 62
7
  6
CONTINUOUS
 10
-2165.88847566837
 20
2969.32658801045
  0
VERTEX
  8
1
 62
7
  6
CONTINUOUS
 10
-2197.12675511948
 20
2983.52649431857
  0
VERTEX
  8
1
 62
7
  6
CONTINUOUS
 10
-2213.1264034075
 20
3015.52817941573
  0
VERTEX
  8
1
 62
7
  6
CONTINUOUS
 10
-2235.28189144
 20
3034.51556917259
  0
VERTEX
  8
1
 62
7
  6
CONTINUOUS
 10
-2268.3240254218
 20
3088.32360223854
  0
VERTEX
  8
1
 62
7
  6
CONTINUOUS
 10
-2297.11365778558
 20
3101.91786919151
  0
VERTEX
  8
1
 62
7
  6
CONTINUOUS
 10
-2316.31588442234
 20
3105.92035912348
  0
VERTEX
  8
1
 62
7
  6
CONTINUOUS
 10
-2344.32979046186
 20
3094.71584307478
  0
VERTEX
  8
1
 62
7
  6
CONTINUOUS
 10
-2410.05175943534
 20
3065.37649488348
  0
VERTEX
  8
1
 62
7
  6
CONTINUOUS
 10
-2438.71976087951
 20
3041.12034779753
  0
VERTEX
  8
1
 62
7
  6
CONTINUOUS
 10
-2454.62371626503
 20
2995.57596055715
  0
VERTEX
  8
1
 62
7
  6
CONTINUOUS
 10
-2468.32005020366
 20
2898.71978188896
  0
VERTEX
  8
1
 62
7
  6
CONTINUOUS
 10
-2482.86372764201
 20
2853.63331107101
  0
VERTEX
  8
1
 62
7
  6
CONTINUOUS
 10
-2503.93769496603
 20
2811.47965325952
  0
VERTEX
  8
1
 62
7
  6
CONTINUOUS
 10
-2534.80722745325
 20
2790.10132731358
  0
VERTEX
  8
1
 62
7
  6
CONTINUOUS
 10
-2573.33145822602
 20
2791.77713796996
  0
VERTEX
  8
1
 62
7
  6
CONTINUOUS
 10
-2594.66214197254
 20
2818.44296662829
  0
VERTEX
  8
1
 62
7
  6
CONTINUOUS
 10
-2617.86350435334
 20
2834.67399768253
  0
VERTEX
  8
1
 62
7
  6
CONTINUOUS
 10
-2626.69453233101
 20
2842.63656335404
  0
VERTEX
  8
1
 62
7
  6
CONTINUOUS
 10
-2625.1158985433
 20
2849.90791152746
  0
VERTEX
  8
1
 62
7
  6
CONTINUOUS
 10
-2639.48048426942
 20
2861.91403106477
  0
VERTEX
  8
1
 62
7
  6
CONTINUOUS
 10
-2645.10820126449
 20
2859.5175730257
  0
VERTEX
  8
1
 62
7
  6
CONTINUOUS
 10
-2673.4410683602
 20
2889.1100606789
  0
VERTEX
  8
1
 62
7
  6
CONTINUOUS
 10
-2687.5332455762
 20
2893.12318733997
  0
VERTEX
  8
1
 62
7
  6
CONTINUOUS
 10
-2747.54369275716
 20
2905.11708063138
  0
VERTEX
  8
1
 62
7
  6
CONTINUOUS
 10
-2759.54472677375
 20
2899.50489566662
  0
VERTEX
  8
1
 62
7
  6
CONTINUOUS
 10
-2800.31759881216
 20
2868.32260302658
  0
VERTEX
  8
1
 62
7
  6
CONTINUOUS
 10
-2814.71979396074
 20
2845.92054156983
  0
VERTEX
  8
1
 62
7
  6
CONTINUOUS
 10
-2821.11989137371
 20
2805.11174686823
  0
VERTEX
  8
1
 62
7
  6
CONTINUOUS
 10
-2818.7185280859
 20
2791.91457655458
  0
VERTEX
  8
1
 62
7
  6
CONTINUOUS
 10
-2790.72000846409
 20
2714.92004804535
  0
VERTEX
  8
1
 62
7
  6
CONTINUOUS
 10
-2790.72036068797
 20
2690.31765542819
  0
VERTEX
  8
1
 62
7
  6
CONTINUOUS
 10
-2803.01399165035
 20
2651.38786050786
  0
VERTEX
  8
1
 62
7
  6
CONTINUOUS
 10
-2824.09295938271
 20
2613.16891335926
  0
VERTEX
  8
1
 62
7
  6
CONTINUOUS
 10
-2844.31757334636
 20
2600.55491338306
  0
VERTEX
  8
1
 62
7
  6
CONTINUOUS
 10
-2850.73051878583
 20
2602.72203110465
  0
VERTEX
  8
1
 62
7
  6
CONTINUOUS
 10
-2868.9942228285
 20
2603.84266145644
  0
VERTEX
  8
1
 62
7
  6
CONTINUOUS
 10
-2870.77857294477
 20
2611.57738434202
  0
VERTEX
  8
1
 62
7
  6
CONTINUOUS
 10
-2901.91703796154
 20
2618.45857023702
  0
VERTEX
  8
1
 62
7
  6
CONTINUOUS
 10
-2929.418196163
 20
2634.3875619285
  0
VERTEX
  8
1
 62
7
  6
CONTINUOUS
 10
-2996.31835871885
 20
2700.31863525904
  0
VERTEX
  8
1
 62
7
  6
CONTINUOUS
 10
-3022.71777904413
 20
2718.71894008744
  0
VERTEX
  8
1
 62
7
  6
CONTINUOUS
 10
-3058.7212827127
 20
2729.1201530151
  0
VERTEX
  8
1
 62
7
  6
CONTINUOUS
 10
-3077.1062162661
 20
2728.32260223609
  0
VERTEX
  8
1
 62
7
  6
CONTINUOUS
 10
-3097.91620345624
 20
2721.12286870046
  0
VERTEX
  8
1
 62
7
  6
CONTINUOUS
 10
-3113.20345518175
 20
2699.18995266719
  0
VERTEX
  8
1
 62
7
  6
CONTINUOUS
 10
-3135.38112422193
 20
2610.49901758203
  0
VERTEX
  8
1
 62
7
  6
CONTINUOUS
 10
-3157.13093552747
 20
2597.910937213
  0
VERTEX
  8
1
 62
7
  6
CONTINUOUS
 10
-3183.51801932444
 20
2567.52438311202
  0
VERTEX
  8
1
 62
7
  6
CONTINUOUS
 10
-3193.7465533459
 20
2490.83738937472
  0
VERTEX
  8
1
 62
7
  6
CONTINUOUS
 10
-3211.52497516692
 20
2466.713915628
  0
VERTEX
  8
1
 62
7
  6
CONTINUOUS
 10
-3219.51328499353
 20
2457.92810345681
  0
VERTEX
  8
1
 62
7
  6
CONTINUOUS
 10
-3258.76021047822
 20
2405.61939232113
  0
VERTEX
  8
1
 62
7
  6
CONTINUOUS
 10
-3271.63645055101
 20
2404.70264000877
  0
VERTEX
  8
1
 62
7
  6
CONTINUOUS
 10
-3325.12297791773
 20
2375.51788956717
  0
VERTEX
  8
1
 62
7
  6
CONTINUOUS
 10
-3349.12059717577
 20
2353.91941586668
  0
VERTEX
  8
1
 62
7
  6
CONTINUOUS
 10
-3371.06264030352
 20
2330.60598708869
  0
VERTEX
  8
1
 62
7
  6
CONTINUOUS
 10
-3417.91562035194
 20
2260.32633232906
  0
VERTEX
  8
1
 62
7
  6
CONTINUOUS
 10
-3435.31355250991
 20
2235.96869716139
  0
VERTEX
  8
1
 62
7
  6
CONTINUOUS
 10
-3438.90124991282
 20
2209.65481433768
  0
VERTEX
  8
1
 62
7
  6
CONTINUOUS
 10
-3442.55663339915
 20
2107.06430429761
  0
VERTEX
  8
1
 62
7
  6
CONTINUOUS
 10
-3452.48079437194
 20
2087.23375573431
  0
VERTEX
  8
1
 62
7
  6
CONTINUOUS
 10
-3392.59305988874
 20
1982.40554327326
  0
VERTEX
  8
1
 62
7
  6
CONTINUOUS
 10
-3304.38980706762
 20
1961.7655444283
  0
VERTEX
  8
1
 62
7
  6
CONTINUOUS
 10
-3257.20022590485
 20
1941.80012722194
  0
VERTEX
  8
1
 62
7
  6
CONTINUOUS
 10
-3229.23478576675
 20
1921.60298882733
  0
VERTEX
  8
1
 62
7
  6
CONTINUOUS
 10
-3207.92018633314
 20
1897.92027342306
  0
VERTEX
  8
1
 62
7
  6
CONTINUOUS
 10
-3186.31985517623
 20
1854.71960856682
  0
VERTEX
  8
1
 62
7
  6
CONTINUOUS
 10
-3166.98673541888
 20
1777.38719957601
  0
VERTEX
  8
1
 62
7
  6
CONTINUOUS
 10
-3165.80352099818
 20
1676.82230130443
  0
VERTEX
  8
1
 62
7
  6
CONTINUOUS
 10
-3184.48842985599
 20
1617.65376136489
  0
VERTEX
  8
1
 62
7
  6
CONTINUOUS
 10
-3243.11138134011
 20
1531.86381555308
  0
VERTEX
  8
1
 62
7
  6
CONTINUOUS
 10
-3284.31955170589
 20
1483.78694021893
  0
VERTEX
  8
1
 62
7
  6
CONTINUOUS
 10
-3330.50411229794
 20
1472.79173818643
  0
VERTEX
  8
1
 62
7
  6
CONTINUOUS
 10
-3400.31809214013
 20
1481.51982750781
  0
VERTEX
  8
1
 62
7
  6
CONTINUOUS
 10
-3450.71698010866
 20
1484.32048688014
  0
VERTEX
  8
1
 62
7
  6
CONTINUOUS
 10
-3481.10951630004
 20
1472.32685531844
  0
VERTEX
  8
1
 62
7
  6
CONTINUOUS
 10
-3489.90504068156
 20
1463.54661481268
  0
VERTEX
  8
1
 62
7
  6
CONTINUOUS
 10
-3493.12063303414
 20
1449.92501571984
  0
VERTEX
  8
1
 62
7
  6
CONTINUOUS
 10
-3476.31447488968
 20
1417.91240220186
  0
VERTEX
  8
1
 62
7
  6
CONTINUOUS
 10
-3439.10870088936
 20
1379.6765843816
  0
VERTEX
  8
1
 62
7
  6
CONTINUOUS
 10
-3433.75987520418
 20
1360.95288962674
  0
VERTEX
  8
1
 62
7
  6
CONTINUOUS
 10
-3439.11827113173
 20
1339.53165270278
  0
VERTEX
  8
1
 62
7
  6
CONTINUOUS
 10
-3501.12028253085
 20
1229.11934093867
  0
VERTEX
  8
1
 62
7
  6
CONTINUOUS
 10
-3513.91917620901
 20
1187.52364061949
  0
SEQEND
  0
ENDSEC
  0
EOF
