999
dxfrw 0.6.3
  0
SECTION
  2
HEADER
  9
$ACADVER
  1
AC1021
  9
$DWGCODEPAGE
  3
ANSI_1250
  9
$INSBASE
 10
0
 20
0
 30
0
  9
$EXTMIN
 10
-3730.4
 20
1320.8
 30
0
  9
$EXTMAX
 10
-2923.2
 20
2586.38873239437
 30
0
  9
$LIMMIN
 10
0
 20
0
  9
$LIMMAX
 10
420
 20
297
  9
$ORTHOMODE
 70
    0
  9
$REGENMODE
 70
    1
  9
$FILLMODE
 70
    1
  9
$QTEXTMODE
 70
    0
  9
$MIRRTEXT
 70
    0
  9
$LTSCALE
 40
1
  9
$ATTMODE
 70
    0
  9
$TEXTSIZE
 40
2.5
  9
$TRACEWID
 40
15.68
  9
$TEXTSTYLE
  7
STANDARD
  9
$CLAYER
  8
0
  9
$CELTYPE
  6
BYLAYER
  9
$CECOLOR
 62
  256
  9
$CELTSCALE
 40
1
  9
$DISPSILH
 70
    0
  9
$DIMSCALE
 40
2.5
  9
$DIMASZ
 40
2.5
  9
$DIMEXO
 40
0.625
  9
$DIMDLI
 40
3.75
  9
$DIMRND
 40
0
  9
$DIMDLE
 40
0
  9
$DIMEXE
 40
1.25
  9
$DIMTP
 40
0
  9
$DIMTM
 40
0
  9
$DIMTXT
 40
2.5
  9
$DIMCEN
 40
2.5
  9
$DIMTSZ
 40
0
  9
$DIMTOL
 70
    0
  9
$DIMLIM
 70
    0
  9
$DIMTIH
 70
    0
  9
$DIMTOH
 70
    0
  9
$DIMSE1
 70
    0
  9
$DIMSE2
 70
    0
  9
$DIMTAD
 70
    1
  9
$DIMZIN
 70
    8
  9
$DIMBLK
  1

  9
$DIMASO
 70
    1
  9
$DIMSHO
 70
    1
  9
$DIMPOST
  1

  9
$DIMAPOST
  1

  9
$DIMALT
 70
    0
  9
$DIMALTD
 70
    3
  9
$DIMALTF
 40
0.03937
  9
$DIMLFAC
 40
1
  9
$DIMTOFL
 70
    1
  9
$DIMTVP
 40
0
  9
$DIMTIX
 70
    0
  9
$DIMSOXD
 70
    0
  9
$DIMSAH
 70
    0
  9
$DIMBLK1
  1

  9
$DIMBLK2
  1

  9
$DIMSTYLE
  2
Standard
  9
$DIMCLRD
 70
    0
  9
$DIMCLRE
 70
    0
  9
$DIMCLRT
 70
    0
  9
$DIMTFAC
 40
1
  9
$DIMGAP
 40
0.625
  9
$DIMJUST
 70
    0
  9
$DIMSD1
 70
    0
  9
$DIMSD2
 70
    0
  9
$DIMTOLJ
 70
    0
  9
$DIMTZIN
 70
    8
  9
$DIMALTZ
 70
    0
  9
$DIMALTTZ
 70
    0
  9
$DIMUPT
 70
    0
  9
$DIMDEC
 70
    2
  9
$DIMTDEC
 70
    2
  9
$DIMALTU
 70
    2
  9
$DIMALTTD
 70
    3
  9
$DIMTXSTY
  7
STANDARD
  9
$DIMAUNIT
 70
    0
  9
$DIMADEC
 70
    0
  9
$DIMALTRND
 40
0
  9
$DIMAZIN
 70
    0
  9
$DIMDSEP
 70
   44
  9
$DIMATFIT
 70
    3
  9
$DIMFRAC
 70
    0
  9
$DIMLDRBLK
  1
STANDARD
  9
$DIMLUNIT
 70
    2
  9
$DIMLWD
 70
   -2
  9
$DIMLWE
 70
   -2
  9
$DIMTMOVE
 70
    0
  9
$DIMFXL
 40
1
  9
$DIMFXLON
 70
    0
  9
$DIMJOGANG
 40
0.7854
  9
$DIMTFILL
 70
    0
  9
$DIMTFILLCLR
 70
    0
  9
$DIMARCSYM
 70
    0
  9
$DIMLTYPE
  6

  9
$DIMLTEX1
  6

  9
$DIMLTEX2
  6

  9
$LUNITS
 70
    2
  9
$LUPREC
 70
    4
  9
$SKETCHINC
 40
1
  9
$FILLETRAD
 40
0
  9
$AUNITS
 70
    0
  9
$AUPREC
 70
    2
  9
$MENU
  1
.
  9
$ELEVATION
 40
0
  9
$PELEVATION
 40
0
  9
$THICKNESS
 40
0
  9
$LIMCHECK
 70
    0
  9
$CHAMFERA
 40
0
  9
$CHAMFERB
 40
0
  9
$CHAMFERC
 40
0
  9
$CHAMFERD
 40
0
  9
$SKPOLY
 70
    0
  9
$USRTIMER
 70
    1
  9
$ANGBASE
 50
0
  9
$ANGDIR
 70
    0
  9
$PDMODE
 70
   34
  9
$PDSIZE
 40
0
  9
$PLINEWID
 40
0
  9
$SPLFRAME
 70
    0
  9
$SPLINETYPE
 70
    2
  9
$SPLINESEGS
 70
    8
  9
$HANDSEED
  5
20000
  9
$SURFTAB1
 70
    6
  9
$SURFTAB2
 70
    6
  9
$SURFTYPE
 70
    6
  9
$SURFU
 70
    6
  9
$SURFV
 70
    6
  9
$UCSBASE
  2

  9
$UCSNAME
  2

  9
$UCSORG
 10
0
 20
0
 30
0
  9
$UCSXDIR
 10
1
 20
0
 30
0
  9
$UCSYDIR
 10
0
 20
1
 30
0
  9
$UCSORTHOREF
  2

  9
$UCSORTHOVIEW
 70
    0
  9
$UCSORGTOP
 10
0
 20
0
 30
0
  9
$UCSORGBOTTOM
 10
0
 20
0
 30
0
  9
$UCSORGLEFT
 10
0
 20
0
 30
0
  9
$UCSORGRIGHT
 10
0
 20
0
 30
0
  9
$UCSORGFRONT
 10
0
 20
0
 30
0
  9
$UCSORGBACK
 10
0
 20
0
 30
0
  9
$PUCSBASE
  2

  9
$PUCSNAME
  2

  9
$PUCSORG
 10
0
 20
0
 30
0
  9
$PUCSXDIR
 10
1
 20
0
 30
0
  9
$PUCSYDIR
 10
0
 20
1
 30
0
  9
$PUCSORTHOREF
  2

  9
$PUCSORTHOVIEW
 70
    0
  9
$PUCSORGTOP
 10
0
 20
0
 30
0
  9
$PUCSORGBOTTOM
 10
0
 20
0
 30
0
  9
$PUCSORGLEFT
 10
0
 20
0
 30
0
  9
$PUCSORGRIGHT
 10
0
 20
0
 30
0
  9
$PUCSORGFRONT
 10
0
 20
0
 30
0
  9
$PUCSORGBACK
 10
0
 20
0
 30
0
  9
$USERI1
 70
    0
  9
$USERI2
 70
    0
  9
$USERI3
 70
    0
  9
$USERI4
 70
    0
  9
$USERI5
 70
    0
  9
$USERR1
 40
0
  9
$USERR2
 40
0
  9
$USERR3
 40
0
  9
$USERR4
 40
0
  9
$USERR5
 40
0
  9
$WORLDVIEW
 70
    1
  9
$SHADEDGE
 70
    3
  9
$SHADEDIF
 70
   70
  9
$TILEMODE
 70
    1
  9
$MAXACTVP
 70
   64
  9
$PINSBASE
 10
0
 20
0
 30
0
  9
$PLIMCHECK
 70
    0
  9
$PEXTMIN
 10
0
 20
0
 30
0
  9
$PEXTMAX
 10
0
 20
0
 30
0
  9
$SNAPSTYLE
 70
    0
  9
$PLIMMIN
 10
0
 20
0
  9
$PLIMMAX
 10
210
 20
297
  9
$UNITMODE
 70
    0
  9
$VISRETAIN
 70
    1
  9
$PLINEGEN
 70
    0
  9
$PSLTSCALE
 70
    1
  9
$TREEDEPTH
 70
 3020
  9
$CMLSTYLE
  2
Standard
  9
$CMLJUST
 70
    0
  9
$CMLSCALE
 40
20
  9
$PROXYGRAPHICS
 70
    1
  9
$MEASUREMENT
 70
    1
  9
$CELWEIGHT
370
   -1
  9
$ENDCAPS
280
    0
  9
$JOINSTYLE
280
    0
  9
$LWDISPLAY
290
    0
  9
$INSUNITS
 70
    4
  9
$HYPERLINKBASE
  1

  9
$STYLESHEET
  1

  9
$XEDIT
290
    1
  9
$CEPSNTYPE
380
    0
  9
$PSTYLEMODE
290
    1
  9
$EXTNAMES
290
    1
  9
$PSVPSCALE
 40
1
  9
$OLESTARTUP
290
    0
  9
$SORTENTS
280
  127
  9
$INDEXCTL
280
    0
  9
$HIDETEXT
280
    1
  9
$XCLIPFRAME
290
    0
  9
$HALOGAP
280
    0
  9
$OBSCOLOR
 70
  257
  9
$OBSLTYPE
280
    0
  9
$INTERSECTIONDISPLAY
280
    0
  9
$INTERSECTIONCOLOR
 70
  257
  9
$DIMASSOC
280
    1
  9
$PROJECTNAME
  1

  9
$CAMERADISPLAY
290
    0
  9
$LENSLENGTH
 40
50
  9
$CAMERAHEIGHT
 40
0
  9
$STEPSPERSEC
 40
2
  9
$STEPSIZE
 40
50
  9
$3DDWFPREC
 40
2
  9
$PSOLWIDTH
 40
5
  9
$PSOLHEIGHT
 40
80
  9
$LOFTANG1
 40
1.570796326794897
  9
$LOFTANG2
 40
1.570796326794897
  9
$LOFTMAG1
 40
0
  9
$LOFTMAG2
 40
0
  9
$LOFTPARAM
 70
    7
  9
$LOFTNORMALS
280
    1
  9
$LATITUDE
 40
1
  9
$LONGITUDE
 40
1
  9
$NORTHDIRECTION
 40
0
  9
$TIMEZONE
 70
-8000
  9
$LIGHTGLYPHDISPLAY
280
    1
  9
$TILEMODELIGHTSYNCH
280
    1
  9
$SOLIDHIST
280
    1
  9
$SHOWHIST
280
    1
  9
$DWFFRAME
280
    2
  9
$DGNFRAME
280
    0
  9
$REALWORLDSCALE
290
    1
  9
$INTERFERECOLOR
 62
    1
  9
$CSHADOW
280
    0
  9
$SHADOWPLANELOCATION
 40
0
  0
ENDSEC
  0
SECTION
  2
CLASSES
  0
ENDSEC
  0
SECTION
  2
TABLES
  0
TABLE
  2
VPORT
  5
8
330
0
100
AcDbSymbolTable
 70
    1
  0
VPORT
  5
31
330
2
100
AcDbSymbolTableRecord
100
AcDbViewportTableRecord
  2
*ACTIVE
 70
    0
 10
0
 20
0
 11
1
 21
1
 12
-1367.97345679292
 22
1319.944294673545
 13
0
 23
0
 14
10
 24
10
 15
10
 25
10
 16
0
 26
0
 36
1
 17
0
 27
0
 37
0
 40
1389.415047024784
 41
0.7901234567901234
 42
50
 43
0
 44
0
 50
0
 51
0
 71
    0
 72
  100
 73
    1
 74
    3
 75
    0
 76
    1
 77
    0
 78
    0
281
    0
 65
    1
110
0
120
0
130
0
111
1
121
0
131
0
112
0
122
1
132
0
 79
    0
146
0
348
10020
 60
    7
 61
    5
292
1
282
    1
141
0
142
0
 63
  250
421
3358443
  0
ENDTAB
  0
TABLE
  2
LTYPE
  5
5
330
0
100
AcDbSymbolTable
 70
    4
  0
LTYPE
  5
14
330
5
100
AcDbSymbolTableRecord
100
AcDbLinetypeTableRecord
  2
ByBlock
 70
    0
  3

 72
   65
 73
    0
 40
0
  0
LTYPE
  5
15
330
5
100
AcDbSymbolTableRecord
100
AcDbLinetypeTableRecord
  2
ByLayer
 70
    0
  3

 72
   65
 73
    0
 40
0
  0
LTYPE
  5
16
330
5
100
AcDbSymbolTableRecord
100
AcDbLinetypeTableRecord
  2
Continuous
 70
    0
  3
Solid line
 72
   65
 73
    0
 40
0
  0
LTYPE
  5
32
330
5
100
AcDbSymbolTableRecord
100
AcDbLinetypeTableRecord
  2
DOT
 70
    0
  3
Dot . . . . . . . . . . . . . . . . . . . . . .
 72
   65
 73
    2
 40
6.35
 49
0
 74
    0
 49
-6.35
 74
    0
  0
LTYPE
  5
33
330
5
100
AcDbSymbolTableRecord
100
AcDbLinetypeTableRecord
  2
DOTTINY
 70
    0
  3
Dot (.15x) .....................................
 72
   65
 73
    2
 40
0.9525
 49
0
 74
    0
 49
-0.9525
 74
    0
  0
LTYPE
  5
34
330
5
100
AcDbSymbolTableRecord
100
AcDbLinetypeTableRecord
  2
DOT2
 70
    0
  3
Dot (.5x) .....................................
 72
   65
 73
    2
 40
3.175
 49
0
 74
    0
 49
-3.175
 74
    0
  0
LTYPE
  5
35
330
5
100
AcDbSymbolTableRecord
100
AcDbLinetypeTableRecord
  2
DOTX2
 70
    0
  3
Dot (2x) .  .  .  .  .  .  .  .  .  .  .  .  .
 72
   65
 73
    2
 40
12.7
 49
0
 74
    0
 49
-12.7
 74
    0
  0
LTYPE
  5
36
330
5
100
AcDbSymbolTableRecord
100
AcDbLinetypeTableRecord
  2
DASHED
 70
    0
  3
Dashed _ _ _ _ _ _ _ _ _ _ _ _ _ _ _ _ _
 72
   65
 73
    2
 40
19.05
 49
12.7
 74
    0
 49
-6.35
 74
    0
  0
LTYPE
  5
37
330
5
100
AcDbSymbolTableRecord
100
AcDbLinetypeTableRecord
  2
DASHEDTINY
 70
    0
  3
Dashed (.15x) _ _ _ _ _ _ _ _ _ _ _ _ _ _ _ _ _
 72
   65
 73
    2
 40
2.8575
 49
1.905
 74
    0
 49
-0.9525
 74
    0
  0
LTYPE
  5
38
330
5
100
AcDbSymbolTableRecord
100
AcDbLinetypeTableRecord
  2
DASHED2
 70
    0
  3
Dashed (.5x) _ _ _ _ _ _ _ _ _ _ _ _ _ _ _ _ _
 72
   65
 73
    2
 40
9.524999999999999
 49
6.35
 74
    0
 49
-3.175
 74
    0
  0
LTYPE
  5
39
330
5
100
AcDbSymbolTableRecord
100
AcDbLinetypeTableRecord
  2
DASHEDX2
 70
    0
  3
Dashed (2x) ____  ____  ____  ____  ____  ___
 72
   65
 73
    2
 40
38.09999999999999
 49
25.4
 74
    0
 49
-12.7
 74
    0
  0
LTYPE
  5
3A
330
5
100
AcDbSymbolTableRecord
100
AcDbLinetypeTableRecord
  2
DASHDOT
 70
    0
  3
Dash dot __ . __ . __ . __ . __ . __ . __ . __
 72
   65
 73
    4
 40
25.4
 49
12.7
 74
    0
 49
-6.35
 74
    0
 49
0
 74
    0
 49
-6.35
 74
    0
  0
LTYPE
  5
3B
330
5
100
AcDbSymbolTableRecord
100
AcDbLinetypeTableRecord
  2
DASHDOTTINY
 70
    0
  3
Dash dot (.15x) _._._._._._._._._._._._._._._.
 72
   65
 73
    4
 40
3.81
 49
1.905
 74
    0
 49
-0.9525
 74
    0
 49
0
 74
    0
 49
-0.9525
 74
    0
  0
LTYPE
  5
3C
330
5
100
AcDbSymbolTableRecord
100
AcDbLinetypeTableRecord
  2
DASHDOT2
 70
    0
  3
Dash dot (.5x) _._._._._._._._._._._._._._._.
 72
   65
 73
    4
 40
12.7
 49
6.35
 74
    0
 49
-3.175
 74
    0
 49
0
 74
    0
 49
-3.175
 74
    0
  0
LTYPE
  5
3D
330
5
100
AcDbSymbolTableRecord
100
AcDbLinetypeTableRecord
  2
DASHDOTX2
 70
    0
  3
Dash dot (2x) ____  .  ____  .  ____  .  ___
 72
   65
 73
    4
 40
50.8
 49
25.4
 74
    0
 49
-12.7
 74
    0
 49
0
 74
    0
 49
-12.7
 74
    0
  0
LTYPE
  5
3E
330
5
100
AcDbSymbolTableRecord
100
AcDbLinetypeTableRecord
  2
DIVIDE
 70
    0
  3
Divide ____ . . ____ . . ____ . . ____ . . ____
 72
   65
 73
    6
 40
31.75
 49
12.7
 74
    0
 49
-6.35
 74
    0
 49
0
 74
    0
 49
-6.35
 74
    0
 49
0
 74
    0
 49
-6.35
 74
    0
  0
LTYPE
  5
3F
330
5
100
AcDbSymbolTableRecord
100
AcDbLinetypeTableRecord
  2
DIVIDETINY
 70
    0
  3
Divide (.15x) __..__..__..__..__..__..__..__.._
 72
   65
 73
    6
 40
4.7625
 49
1.905
 74
    0
 49
-0.9525
 74
    0
 49
0
 74
    0
 49
-0.9525
 74
    0
 49
0
 74
    0
 49
-0.9525
 74
    0
  0
LTYPE
  5
40
330
5
100
AcDbSymbolTableRecord
100
AcDbLinetypeTableRecord
  2
DIVIDE2
 70
    0
  3
Divide (.5x) __..__..__..__..__..__..__..__.._
 72
   65
 73
    6
 40
15.875
 49
6.35
 74
    0
 49
-3.175
 74
    0
 49
0
 74
    0
 49
-3.175
 74
    0
 49
0
 74
    0
 49
-3.175
 74
    0
  0
LTYPE
  5
41
330
5
100
AcDbSymbolTableRecord
100
AcDbLinetypeTableRecord
  2
DIVIDEX2
 70
    0
  3
Divide (2x) ________  .  .  ________  .  .  _
 72
   65
 73
    6
 40
63.5
 49
25.4
 74
    0
 49
-12.7
 74
    0
 49
0
 74
    0
 49
-12.7
 74
    0
 49
0
 74
    0
 49
-12.7
 74
    0
  0
LTYPE
  5
42
330
5
100
AcDbSymbolTableRecord
100
AcDbLinetypeTableRecord
  2
BORDER
 70
    0
  3
Border __ __ . __ __ . __ __ . __ __ . __ __ .
 72
   65
 73
    6
 40
44.45
 49
12.7
 74
    0
 49
-6.35
 74
    0
 49
12.7
 74
    0
 49
-6.35
 74
    0
 49
0
 74
    0
 49
-6.35
 74
    0
  0
LTYPE
  5
43
330
5
100
AcDbSymbolTableRecord
100
AcDbLinetypeTableRecord
  2
BORDERTINY
 70
    0
  3
Border (.15x) __.__.__.__.__.__.__.__.__.__.__.
 72
   65
 73
    6
 40
6.6675
 49
1.905
 74
    0
 49
-0.9525
 74
    0
 49
1.905
 74
    0
 49
-0.9525
 74
    0
 49
0
 74
    0
 49
-0.9525
 74
    0
  0
LTYPE
  5
44
330
5
100
AcDbSymbolTableRecord
100
AcDbLinetypeTableRecord
  2
BORDER2
 70
    0
  3
Border (.5x) __.__.__.__.__.__.__.__.__.__.__.
 72
   65
 73
    6
 40
22.225
 49
6.35
 74
    0
 49
-3.175
 74
    0
 49
6.35
 74
    0
 49
-3.175
 74
    0
 49
0
 74
    0
 49
-3.175
 74
    0
  0
LTYPE
  5
45
330
5
100
AcDbSymbolTableRecord
100
AcDbLinetypeTableRecord
  2
BORDERX2
 70
    0
  3
Border (2x) ____  ____  .  ____  ____  .  ___
 72
   65
 73
    6
 40
88.89999999999999
 49
25.4
 74
    0
 49
-12.7
 74
    0
 49
25.4
 74
    0
 49
-12.7
 74
    0
 49
0
 74
    0
 49
-12.7
 74
    0
  0
LTYPE
  5
46
330
5
100
AcDbSymbolTableRecord
100
AcDbLinetypeTableRecord
  2
CENTER
 70
    0
  3
Center ____ _ ____ _ ____ _ ____ _ ____ _ ____
 72
   65
 73
    4
 40
50.8
 49
31.75
 74
    0
 49
-6.35
 74
    0
 49
6.35
 74
    0
 49
-6.35
 74
    0
  0
LTYPE
  5
47
330
5
100
AcDbSymbolTableRecord
100
AcDbLinetypeTableRecord
  2
CENTERTINY
 70
    0
  3
Center (.15x) ___ _ ___ _ ___ _ ___ _ ___ _ ___
 72
   65
 73
    4
 40
7.62
 49
4.7625
 74
    0
 49
-0.9525
 74
    0
 49
0.9525
 74
    0
 49
-0.9525
 74
    0
  0
LTYPE
  5
48
330
5
100
AcDbSymbolTableRecord
100
AcDbLinetypeTableRecord
  2
CENTER2
 70
    0
  3
Center (.5x) ___ _ ___ _ ___ _ ___ _ ___ _ ___
 72
   65
 73
    4
 40
28.575
 49
19.05
 74
    0
 49
-3.175
 74
    0
 49
3.175
 74
    0
 49
-3.175
 74
    0
  0
LTYPE
  5
49
330
5
100
AcDbSymbolTableRecord
100
AcDbLinetypeTableRecord
  2
CENTERX2
 70
    0
  3
Center (2x) ________  __  ________  __  _____
 72
   65
 73
    4
 40
101.6
 49
63.5
 74
    0
 49
-12.7
 74
    0
 49
12.7
 74
    0
 49
-12.7
 74
    0
  0
ENDTAB
  0
TABLE
  2
LAYER
  5
2
330
0
100
AcDbSymbolTable
 70
    1
  0
LAYER
  5
10
330
2
100
AcDbSymbolTableRecord
100
AcDbLayerTableRecord
  2
0
 70
    0
 62
    7
  6
CONTINUOUS
370
    0
390
F
  0
LAYER
  5
4A
330
2
100
AcDbSymbolTableRecord
100
AcDbLayerTableRecord
  2
1
 70
    0
 62
    7
  6
CONTINUOUS
370
   -3
390
F
  0
LAYER
  5
4B
330
2
100
AcDbSymbolTableRecord
100
AcDbLayerTableRecord
  2
11
 70
    0
 62
    7
  6
CONTINUOUS
370
   -3
390
F
  0
LAYER
  5
4C
330
2
100
AcDbSymbolTableRecord
100
AcDbLayerTableRecord
  2
54
 70
    0
 62
    7
  6
CONTINUOUS
370
   -3
390
F
  0
LAYER
  5
4D
330
2
100
AcDbSymbolTableRecord
100
AcDbLayerTableRecord
  2
72
 70
    0
 62
    7
  6
CONTINUOUS
370
   -3
390
F
  0
ENDTAB
  0
TABLE
  2
STYLE
  5
3
330
0
100
AcDbSymbolTable
 70
    3
  0
STYLE
  5
4E
330
2
100
AcDbSymbolTableRecord
100
AcDbTextStyleTableRecord
  2
STANDARD
 70
    0
 40
0
 41
1
 50
0
 71
    0
 42
1
  3
STANDARD
  4

  0
ENDTAB
  0
TABLE
  2
VIEW
  5
6
330
0
100
AcDbSymbolTable
 70
    0
  0
ENDTAB
  0
TABLE
  2
UCS
  5
7
330
0
100
AcDbSymbolTable
 70
    0
  0
ENDTAB
  0
TABLE
  2
APPID
  5
9
330
0
100
AcDbSymbolTable
 70
    1
  0
APPID
  5
12
330
9
100
AcDbSymbolTableRecord
100
AcDbRegAppTableRecord
  2
ACAD
 70
    0
  0
APPID
  5
4F
330
9
100
AcDbSymbolTableRecord
100
AcDbRegAppTableRecord
  2
LibreCad
 70
    0
  0
ENDTAB
  0
TABLE
  2
DIMSTYLE
  5
A
330
0
100
AcDbSymbolTable
 70
    1
100
AcDbDimStyleTable
 71
    1
  0
DIMSTYLE
105
50
330
A
100
AcDbSymbolTableRecord
100
AcDbDimStyleTableRecord
  2
Standard
 70
    0
 40
1
 41
2.5
 42
0.625
 43
0.38
 44
1.25
 45
0
 46
0
 47
0
 48
0
 49
1
140
2.5
141
0.09
142
2.5
143
25.4
144
1
145
0
146
1
147
0.625
148
0
 71
    0
 72
    0
 73
    0
 74
    1
 75
    0
 76
    0
 77
    0
 78
    1
 79
    0
170
    0
171
    2
172
    0
173
    0
174
    0
175
    0
176
    0
177
    0
178
    0
179
    0
271
    2
272
    4
273
    2
274
    2
275
    0
276
    0
277
    2
278
    0
279
    0
280
    0
281
    0
282
    0
283
    1
284
    0
285
    0
286
    0
288
    0
289
    3
340
standard
341

371
   -2
372
   -2
  0
ENDTAB
  0
TABLE
  2
BLOCK_RECORD
  5
1
330
0
100
AcDbSymbolTable
 70
    2
  0
BLOCK_RECORD
  5
1F
330
1
100
AcDbSymbolTableRecord
100
AcDbBlockTableRecord
  2
*Model_Space
 70
    0
280
    1
281
    0
  0
BLOCK_RECORD
  5
1E
330
1
100
AcDbSymbolTableRecord
100
AcDbBlockTableRecord
  2
*Paper_Space
 70
    0
280
    1
281
    0
  0
ENDTAB
  0
ENDSEC
  0
SECTION
  2
BLOCKS
  0
BLOCK
  5
20
330
1F
100
AcDbEntity
  8
0
100
AcDbBlockBegin
  2
*Model_Space
 70
    0
 10
0
 20
0
 30
0
  3
*Model_Space
  1

  0
ENDBLK
  5
21
330
1F
100
AcDbEntity
  8
0
100
AcDbBlockEnd
  0
BLOCK
  5
1C
330
1B
100
AcDbEntity
  8
0
100
AcDbBlockBegin
  2
*Paper_Space
 70
    0
 10
0
 20
0
 30
0
  3
*Paper_Space
  1

  0
ENDBLK
  5
1D
330
1F
100
AcDbEntity
  8
0
100
AcDbBlockEnd
  0
ENDSEC
  0
SECTION
  2
ENTITIES
  0
TEXT
  5
51
100
AcDbEntity
  8
72
  6
ByLayer
 62
    3
370
   -1
100
AcDbText
 10
-3591.6
 20
1415.6
 30
0
 40
8
  1
MARK_1
 50
90
 41
1
 51
0
  7
STANDARD
 71
    0
 11
-3591.6
 21
1415.6
 31
0
210
0
220
0
230
1
100
AcDbText
 73
    1
  0
TEXT
  5
52
100
AcDbEntity
  8
72
  6
ByLayer
 62
    3
370
   -1
100
AcDbText
 10
-3593.2
 20
2418.8
 30
0
 40
8
  1
MARK_2
 50
90
 41
1
 51
0
  7
STANDARD
 71
    0
 11
-3593.2
 21
2418.8
 31
0
210
0
220
0
230
1
100
AcDbText
 73
    1
  0
LWPOLYLINE
  5
53
100
AcDbEntity
  8
54
  6
ByLayer
 62
    7
370
   -1
100
AcDbPolyline
 90
   41
 70
    1
 43
0
 10
-3149.52017641655
 20
2390.32987267128
 10
-3149.14020021151
 20
2387.66272661536
 10
-3143.27742222002
 20
2375.62087521524
 10
-3136.01777108355
 20
2363.24828758061
 10
-3133.53180832034
 20
2354.81453268614
 10
-3128.32933277858
 20
2343.02693477149
 10
-3123.75979990612
 20
2336.598980216
 10
-3119.16586155192
 20
2327.58021610123
 10
-3110.30536702274
 20
2316.88341408295
 10
-3103.70559907908
 20
2305.85727985332
 10
-3097.73938806485
 20
2298.59058910074
 10
-3093.60269842778
 20
2289.44500049822
 10
-3082.61035908473
 20
2274.17537980328
 10
-3080.75768999659
 20
2270.18686833534
 10
-3071.87216597538
 20
2258.52485663802
 10
-3067.83673507519
 20
2250.26830697064
 10
-3058.39305460577
 20
2236.92968089329
 10
-3052.83439408057
 20
2226.66594636411
 10
-3051.43736493301
 20
2226.74161009965
 10
-3029.5676837896
 20
2227.46981515692
 10
-2988.39140077549
 20
2234.97240959231
 10
-2991.61578676451
 20
2238.65664759138
 10
-2994.17824202693
 20
2246.32843179247
 10
-2999.35655584098
 20
2254.89022019463
 10
-3004.25441665824
 20
2266.1951011429
 10
-3009.17434291863
 20
2286.18679120133
 10
-3011.25560223977
 20
2290.20079041884
 10
-3016.60910299762
 20
2305.5698465706
 10
-3022.0359567029
 20
2328.35573142639
 10
-3028.47940509313
 20
2349.59260640277
 10
-3032.66209764734
 20
2371.2350135849
 10
-3041.84577203641
 20
2400.21994100788
 10
-3044.27885801912
 20
2414.06387600342
 10
-3050.04424808756
 20
2415.13288921133
 10
-3054.74339399377
 20
2414.75369301915
 10
-3068.61362600224
 20
2409.98381695877
 10
-3076.69125441422
 20
2408.86931759225
 10
-3088.32593558157
 20
2405.01298345035
 10
-3120.50947848933
 20
2400.47873723908
 10
-3128.96843837871
 20
2398.5007841886
 10
-3146.69996736093
 20
2392.43699024811
  0
LWPOLYLINE
  5
54
100
AcDbEntity
  8
54
  6
ByLayer
 62
    7
370
   -1
100
AcDbPolyline
 90
   48
 70
    1
 43
0
 10
-3497.09371989982
 20
2258.20548411577
 10
-3495.70079556997
 20
2247.58774863916
 10
-3490.63006834718
 20
2223.43040038667
 10
-3488.85378450648
 20
2218.95931820477
 10
-3486.72148143506
 20
2215.58029944016
 10
-3474.83667110026
 20
2209.35273682338
 10
-3464.72849561195
 20
2206.68185645587
 10
-3453.70487692381
 20
2206.72842488234
 10
-3437.0924786345
 20
2208.80484812371
 10
-3426.39912817315
 20
2208.67374331536
 10
-3407.04486585798
 20
2207.26931379575
 10
-3387.05522333332
 20
2206.85524044913
 10
-3372.70501415367
 20
2204.79233175985
 10
-3331.02436798697
 20
2202.82053189005
 10
-3301.00081943655
 20
2204.76480705587
 10
-3279.66501601171
 20
2204.24861695821
 10
-3276.00715302685
 20
2204.93301288453
 10
-3266.70918393588
 20
2209.01884402438
 10
-3263.91518414173
 20
2209.01777150669
 10
-3260.94284810184
 20
2210.41363063495
 10
-3250.22333712981
 20
2212.26371593048
 10
-3239.01936391263
 20
2218.96501561552
 10
-3235.69020912884
 20
2223.5357380076
 10
-3230.01569387601
 20
2250.40676174183
 10
-3231.46314276355
 20
2251.32171743363
 10
-3230.16765510755
 20
2251.54982015858
 10
-3228.76988494777
 20
2253.5558837519
 10
-3229.68105757717
 20
2261.96363413827
 10
-3228.89007932616
 20
2271.28513119649
 10
-3232.20823592856
 20
2295.3656066935
 10
-3234.06120727169
 20
2298.56671821944
 10
-3236.21948560072
 20
2300.44714684463
 10
-3242.89812508282
 20
2304.51371083751
 10
-3254.17521724357
 20
2305.8388398116
 10
-3262.12458789416
 20
2308.00089145286
 10
-3283.66388380885
 20
2307.75515960795
 10
-3309.8507748711
 20
2309.08601192644
 10
-3324.02430533234
 20
2308.2278525798
 10
-3346.93507439389
 20
2308.31284721924
 10
-3370.50589240098
 20
2309.31249529549
 10
-3397.12518794139
 20
2309.06871348274
 10
-3428.84947359891
 20
2309.89369137371
 10
-3453.05622757466
 20
2308.45518338364
 10
-3470.32931832014
 20
2305.61701370258
 10
-3483.81822860137
 20
2301.68519132804
 10
-3487.90965633352
 20
2296.40356149318
 10
-3496.02089437904
 20
2273.90227345251
 10
-3497.03989735371
 20
2266.07946403532
  0
LWPOLYLINE
  5
55
100
AcDbEntity
  8
54
  6
ByLayer
 62
    7
370
   -1
100
AcDbPolyline
 90
   36
 70
    1
 43
0
 10
-3332.48788348112
 20
2029.54228091538
 10
-3332.41707532567
 20
2015.49605269977
 10
-3330.81944948602
 20
2008.78983893368
 10
-3326.47876035073
 20
2001.72697217642
 10
-3326.83405806954
 20
2002.51450862066
 10
-3330.53929874422
 20
2010.74553153781
 10
-3318.02552380575
 20
1988.7951263254
 10
-3309.16499027592
 20
1978.19992429963
 10
-3304.08649217496
 20
1974.28637455566
 10
-3297.45863318879
 20
1970.27063005937
 10
-3284.81120865
 20
1965.64297481987
 10
-3271.24778515221
 20
1965.18056826768
 10
-3266.11645902154
 20
1966.55019863414
 10
-3257.98723110012
 20
1969.74747834689
 10
-3251.02699785242
 20
1971.39580668118
 10
-3247.82587657631
 20
1973.27417802244
 10
-3236.7734843344
 20
1982.10913605125
 10
-3233.44377379143
 20
1988.12765833667
 10
-3229.88388373926
 20
1998.26089256748
 10
-3228.7636707785
 20
2005.06766305887
 10
-3225.33254549608
 20
2010.60354637921
 10
-3224.21272254175
 20
2016.39431694546
 10
-3223.69855072739
 20
2032.47232075766
 10
-3226.1326799773
 20
2043.59845595344
 10
-3233.97630681703
 20
2056.55546779873
 10
-3237.17524405711
 20
2060.36669603829
 10
-3249.94795255824
 20
2069.46479969923
 10
-3261.14765520499
 20
2073.88869919453
 10
-3263.15366029734
 20
2075.43886934308
 10
-3275.21783064477
 20
2077.6025005104
 10
-3296.09782837628
 20
2074.48631537277
 10
-3306.2079928974
 20
2071.97559612204
 10
-3310.50138234416
 20
2069.9198440508
 10
-3315.81161998006
 20
2065.6546821488
 10
-3323.07915899663
 20
2057.47867129737
 10
-3330.73207580734
 20
2037.89820753861
  0
LWPOLYLINE
  5
56
100
AcDbEntity
  8
54
  6
ByLayer
 62
    7
370
   -1
100
AcDbPolyline
 90
   38
 70
    1
 43
0
 10
-3116.99481963137
 20
1606.26674832349
 10
-3116.59287294527
 20
1578.65649757959
 10
-3109.86084116663
 20
1532.62439167068
 10
-3107.52687524957
 20
1506.5106528082
 10
-3105.57950775427
 20
1498.71074266012
 10
-3103.37758717906
 20
1514.91357130762
 10
-3103.37953710304
 20
1513.1101723618
 10
-3101.6808964254
 20
1510.18733400016
 10
-3101.47028529434
 20
1493.55009655186
 10
-3100.7611180252
 20
1491.66972866647
 10
-3095.29970926166
 20
1492.04482374438
 10
-3082.34890262521
 20
1489.08441897051
 10
-3076.40533356326
 20
1489.05259247534
 10
-3067.94488648262
 20
1491.12624583974
 10
-3048.40913957283
 20
1494.02612453311
 10
-3030.34942056484
 20
1494.31139765143
 10
-3009.67594735705
 20
1492.33324332822
 10
-3006.0421565846
 20
1493.80251515538
 10
-3001.28760813788
 20
1498.19157687149
 10
-2999.83563449905
 20
1502.05080918273
 10
-2998.88451999659
 20
1512.51458690796
 10
-2997.20391902767
 20
1516.39897203089
 10
-2995.7656183664
 20
1531.10402546594
 10
-2995.20472749646
 20
1556.52883386545
 10
-2996.30277267594
 20
1574.61483169757
 10
-2998.13997155061
 20
1590.33942735834
 10
-3000.71687339484
 20
1603.19462114471
 10
-3001.84751405359
 20
1614.62585033061
 10
-3001.48466383989
 20
1621.3310619188
 10
-3014.75547010165
 20
1642.40048616686
 10
-3021.15614287798
 20
1642.73314318306
 10
-3037.36240445157
 20
1639.97076398964
 10
-3084.42810372572
 20
1641.28423094218
 10
-3103.04653635787
 20
1640.68177785497
 10
-3108.07623324554
 20
1639.38830848226
 10
-3110.05801810922
 20
1637.86506910708
 10
-3113.94627510683
 20
1632.50716127655
 10
-3115.19202553411
 20
1629.51043925525
  0
LWPOLYLINE
  5
57
100
AcDbEntity
  8
54
  6
ByLayer
 62
    7
370
   -1
100
AcDbPolyline
 90
   41
 70
    1
 43
0
 10
-3590.03258088494
 20
1617.47162635709
 10
-3587.15738812005
 20
1598.59630652498
 10
-3584.36583402419
 20
1596.33268683744
 10
-3582.30810566223
 20
1596.6352620981
 10
-3584.57444545322
 20
1602.41887100822
 10
-3583.87798873615
 20
1601.18356219091
 10
-3581.72121455935
 20
1599.12382897753
 10
-3578.8585962233
 20
1592.11032967532
 10
-3566.96599677353
 20
1573.6062600006
 10
-3564.65981623109
 20
1568.7777636233
 10
-3563.18878672597
 20
1566.76957190061
 10
-3555.85316194988
 20
1562.16423757351
 10
-3549.68706250324
 20
1556.51876718619
 10
-3541.71341708936
 20
1554.70674463291
 10
-3525.40725828701
 20
1554.10491326744
 10
-3516.84699640744
 20
1554.52745774206
 10
-3511.51039047221
 20
1556.93468895075
 10
-3502.56349875316
 20
1562.56381842585
 10
-3492.59794364735
 20
1570.65564791201
 10
-3491.0968178613
 20
1572.99082618667
 10
-3479.96278104734
 20
1581.15759229726
 10
-3473.44956414341
 20
1591.1581557355
 10
-3468.25728378601
 20
1601.03314736132
 10
-3465.88769742668
 20
1607.86318924155
 10
-3462.36569168022
 20
1623.40419016175
 10
-3459.37969754813
 20
1649.70856220606
 10
-3459.98724996944
 20
1655.04279581693
 10
-3466.25255711714
 20
1677.16860247669
 10
-3474.93431564399
 20
1690.30373606419
 10
-3479.22506279718
 20
1695.13138348581
 10
-3490.80420539012
 20
1703.6194289341
 10
-3500.83621988469
 20
1706.18868005862
 10
-3519.93650171889
 20
1707.54221208037
 10
-3535.73561256005
 20
1706.73547674028
 10
-3550.54554699766
 20
1702.21996141714
 10
-3555.7540481388
 20
1698.31036048829
 10
-3559.66635961235
 20
1696.45766214967
 10
-3575.67422803019
 20
1681.17300587755
 10
-3584.21419474324
 20
1666.67288300013
 10
-3586.63013911402
 20
1659.00300983057
 10
-3588.13194680652
 20
1650.64698570573
  0
LWPOLYLINE
  5
58
100
AcDbEntity
  8
11
  6
ByLayer
 62
    7
370
   -1
100
AcDbPolyline
 90
   11
 70
    1
 43
0
 10
-3268.8
 20
1512.4
 10
-3268.8
 20
1515.84
 10
-3242.16949152542
 20
1574.42711864407
 10
-3230.06060606061
 20
1590.86060606061
 10
-3228
 20
1588.8
 10
-3220.42352941176
 20
1572.56470588235
 10
-3213.20533333333
 20
1552.71466666667
 10
-3197.38591549296
 20
1493.6
 10
-3204.53333333333
 20
1493.6
 10
-3233.86666666667
 20
1500.64
 10
-3262.4
 20
1509.2
  0
LWPOLYLINE
  5
59
100
AcDbEntity
  8
1
  6
ByLayer
 62
    7
370
   -1
100
AcDbPolyline
 90
   15
 70
    1
 43
0
 10
-3329.6
 20
2018.4
 10
-3318.4
 20
1991.2
 10
-3305.6
 20
1977.6
 10
-3282.4
 20
1966.4
 10
-3264
 20
1966.4
 10
-3244
 20
1974.4
 10
-3228.8
 20
1992
 10
-3220.8
 20
2015.2
 10
-3221.6
 20
2030.4
 10
-3231.2
 20
2052
 10
-3244
 20
2064
 10
-3270.4
 20
2076
 10
-3300.8
 20
2072
 10
-3319.2
 20
2056
 10
-3328
 20
2036
  0
LWPOLYLINE
  5
5A
100
AcDbEntity
  8
11
  6
ByLayer
 62
    7
370
   -1
100
AcDbPolyline
 90
   26
 70
    1
 43
0
 10
-3332.8
 20
2019.2
 10
-3332.8
 20
2036.8
 10
-3323.54285714286
 20
2055.31428571429
 10
-3310.56
 20
2069.92
 10
-3296.4
 20
2077
 10
-3283.2
 20
2079.2
 10
-3272.8
 20
2079.2
 10
-3262
 20
2077.4
 10
-3246.93333333333
 20
2069.86666666667
 10
-3237.6
 20
2062.4
 10
-3228.8
 20
2053.6
 10
-3222.4
 20
2040.8
 10
-3218.4
 20
2028.8
 10
-3218.4
 20
2013.6
 10
-3221.6
 20
2000.8
 10
-3227.8
 20
1988.4
 10
-3238.8
 20
1975.2
 10
-3247.2
 20
1969.6
 10
-3256.8
 20
1964.8
 10
-3266.4
 20
1963.2
 10
-3279.2
 20
1963.2
 10
-3290.27692307692
 20
1965.66153846154
 10
-3302.33846153846
 20
1970.83076923077
 10
-3311.70909090909
 20
1978.32727272727
 10
-3321.92
 20
1990.24
 10
-3329.2
 20
2004.8
  0
LWPOLYLINE
  5
5B
100
AcDbEntity
  8
11
  6
ByLayer
 62
    7
370
   -1
100
AcDbPolyline
 90
   38
 70
    1
 43
0
 10
-3499.67058823529
 20
2266.63529411765
 10
-3498
 20
2280
 10
-3492
 20
2292
 10
-3479.6
 20
2304.4
 10
-3464
 20
2309.6
 10
-3430.616
 20
2312.168
 10
-3329.6
 20
2311.00689655172
 10
-3329.6
 20
2308.8
 10
-3445.6
 20
2308.8
 10
-3481.6
 20
2300
 10
-3492
 20
2287.2
 10
-3496.8
 20
2271.2
 10
-3493.6
 20
2240.8
 10
-3485.6
 20
2216.8
 10
-3352
 20
2206.4
 10
-3263.2
 20
2208.8
 10
-3243.2
 20
2216.8
 10
-3234.4
 20
2230.4
 10
-3230.4
 20
2255.2
 10
-3234.4
 20
2298.4
 10
-3244
 20
2304
 10
-3328.8
 20
2308.84571428571
 10
-3328.8
 20
2310.92173913043
 10
-3261.39487179487
 20
2309.45641025641
 10
-3243.73333333333
 20
2306.93333333333
 10
-3237.06666666667
 20
2304.26666666667
 10
-3231.2
 20
2298.4
 10
-3228
 20
2290.4
 10
-3228
 20
2248
 10
-3231.46666666667
 20
2230.66666666667
 10
-3236.8
 20
2220
 10
-3244.8
 20
2212
 10
-3257.24444444444
 20
2207.02222222222
 10
-3284
 20
2203.2
 10
-3355.46666666667
 20
2203.2
 10
-3481.35730337079
 20
2210.67865168539
 10
-3490.4
 20
2215.2
 10
-3496.8
 20
2240.8
  0
LWPOLYLINE
  5
5C
100
AcDbEntity
  8
1
  6
ByLayer
 62
    7
370
   -1
100
AcDbPolyline
 90
   38
 70
    1
 43
0
 10
-3730.4
 20
2496
 10
-3722.4
 20
1961.6
 10
-3719.18232044199
 20
1951.14254143646
 10
-3720.8
 20
1883.2
 10
-3709.6
 20
1400
 10
-3704
 20
1358.4
 10
-3694.4
 20
1341.6
 10
-3689.6
 20
1341.6
 10
-3688.8
 20
1336
 10
-3665.6
 20
1325.6
 10
-3632
 20
1320.8
 10
-3582.4
 20
1320.8
 10
-3580.53333333333
 20
1324.53333333333
 10
-3579.2
 20
1323.2
 10
-3265.61450777202
 20
1328.78549222798
 10
-3261.584
 20
1332.816
 10
-3226.18723404255
 20
1332.09361702128
 10
-3040
 20
1339.2
 10
-2927.2
 20
1352
 10
-2923.2
 20
1541.6
 10
-2927.12727272727
 20
1705.23636363636
 10
-2934.4
 20
1965.6
 10
-2936
 20
2156.8
 10
-2944.8
 20
2483.2
 10
-2952.31079590229
 20
2577.62143420016
 10
-3044.8
 20
2584
 10
-3287.2
 20
2584
 10
-3289.58873239437
 20
2586.38873239437
 10
-3602.72307692308
 20
2581.91538461538
 10
-3604
 20
2580
 10
-3605.6
 20
2580
 10
-3608
 20
2582.4
 10
-3663.2
 20
2580
 10
-3696
 20
2572.8
 10
-3710.4
 20
2564
 10
-3710.4
 20
2559.2
 10
-3717.05263157895
 20
2555.87368421053
 10
-3727.34065934066
 20
2531.18241758242
  0
ENDSEC
  0
SECTION
  2
OBJECTS
  0
DICTIONARY
  5
C
330
0
100
AcDbDictionary
281
    1
  3
ACAD_GROUP
350
D
  0
DICTIONARY
  5
D
330
C
100
AcDbDictionary
281
    1
  0
PLOTSETTINGS
  5
5D
100
AcDbPlotSettings
  6
1x1
 40
0
 41
0
 42
0
 43
0
  0
ENDSEC
  0
EOF
