999
dxfrw 0.6.3
  0
SECTION
  2
HEADER
  9
$ACADVER
  1
AC1021
  9
$DWGCODEPAGE
  3
ANSI_1252
  9
$INSBASE
 10
0
 20
0
 30
0
  9
$EXTMIN
 10
-3680.000000000001
 20
1541.599999999999
 30
0
  9
$EXTMAX
 10
-2870.399999999999
 20
2807.2
 30
0
  9
$LIMMIN
 10
0
 20
0
  9
$LIMMAX
 10
420
 20
297
  9
$ORTHOMODE
 70
    0
  9
$REGENMODE
 70
    1
  9
$FILLMODE
 70
    1
  9
$QTEXTMODE
 70
    0
  9
$MIRRTEXT
 70
    1
  9
$LTSCALE
 40
1
  9
$ATTMODE
 70
    1
  9
$TEXTSIZE
 40
2.5
  9
$TRACEWID
 40
1
  9
$TEXTSTYLE
  7
Standard
  9
$CLAYER
  8
0
  9
$CELTYPE
  6
ByLayer
  9
$CECOLOR
 62
  256
  9
$CELTSCALE
 40
1
  9
$DISPSILH
 70
    0
  9
$DIMSCALE
 40
1
  9
$DIMASZ
 40
2.5
  9
$DIMEXO
 40
0.625
  9
$DIMDLI
 40
3.75
  9
$DIMRND
 40
0
  9
$DIMDLE
 40
0
  9
$DIMEXE
 40
1.25
  9
$DIMTP
 40
0
  9
$DIMTM
 40
0
  9
$DIMTXT
 40
2.5
  9
$DIMCEN
 40
2.5
  9
$DIMTSZ
 40
0
  9
$DIMTOL
 70
    0
  9
$DIMLIM
 70
    0
  9
$DIMTIH
 70
    0
  9
$DIMTOH
 70
    0
  9
$DIMSE1
 70
    0
  9
$DIMSE2
 70
    0
  9
$DIMTAD
 70
    1
  9
$DIMZIN
 70
    8
  9
$DIMBLK
  1

  9
$DIMASO
 70
    1
  9
$DIMSHO
 70
    1
  9
$DIMPOST
  1

  9
$DIMAPOST
  1

  9
$DIMALT
 70
    0
  9
$DIMALTD
 70
    3
  9
$DIMALTF
 40
0.03937007874
  9
$DIMLFAC
 40
1
  9
$DIMTOFL
 70
    1
  9
$DIMTVP
 40
0
  9
$DIMTIX
 70
    0
  9
$DIMSOXD
 70
    0
  9
$DIMSAH
 70
    0
  9
$DIMBLK1
  1

  9
$DIMBLK2
  1

  9
$DIMSTYLE
  2
ISO-25
  9
$DIMCLRD
 70
    0
  9
$DIMCLRE
 70
    0
  9
$DIMCLRT
 70
    0
  9
$DIMTFAC
 40
1
  9
$DIMGAP
 40
0.625
  9
$DIMJUST
 70
    0
  9
$DIMSD1
 70
    0
  9
$DIMSD2
 70
    0
  9
$DIMTOLJ
 70
    0
  9
$DIMTZIN
 70
    8
  9
$DIMALTZ
 70
    0
  9
$DIMALTTZ
 70
    0
  9
$DIMUPT
 70
    0
  9
$DIMDEC
 70
    2
  9
$DIMTDEC
 70
    2
  9
$DIMALTU
 70
    2
  9
$DIMALTTD
 70
    3
  9
$DIMTXSTY
  7
Standard
  9
$DIMAUNIT
 70
    0
  9
$DIMADEC
 70
    0
  9
$DIMALTRND
 40
0
  9
$DIMAZIN
 70
    0
  9
$DIMDSEP
 70
   44
  9
$DIMATFIT
 70
    3
  9
$DIMFRAC
 70
    0
  9
$DIMLDRBLK
  1

  9
$DIMLUNIT
 70
    2
  9
$DIMLWD
 70
   -2
  9
$DIMLWE
 70
   -2
  9
$DIMTMOVE
 70
    0
  9
$DIMFXL
 40
1
  9
$DIMFXLON
 70
    0
  9
$DIMJOGANG
 40
0.785398163397
  9
$DIMTFILL
 70
    0
  9
$DIMTFILLCLR
 70
    0
  9
$DIMARCSYM
 70
    0
  9
$DIMLTYPE
  6

  9
$DIMLTEX1
  6

  9
$DIMLTEX2
  6

  9
$LUNITS
 70
    2
  9
$LUPREC
 70
    4
  9
$SKETCHINC
 40
1
  9
$FILLETRAD
 40
10
  9
$AUNITS
 70
    0
  9
$AUPREC
 70
    2
  9
$MENU
  1
.
  9
$ELEVATION
 40
0
  9
$PELEVATION
 40
0
  9
$THICKNESS
 40
0
  9
$LIMCHECK
 70
    0
  9
$CHAMFERA
 40
0
  9
$CHAMFERB
 40
0
  9
$CHAMFERC
 40
0
  9
$CHAMFERD
 40
0
  9
$SKPOLY
 70
    0
  9
$USRTIMER
 70
    1
  9
$ANGBASE
 50
0
  9
$ANGDIR
 70
    0
  9
$PDMODE
 70
    0
  9
$PDSIZE
 40
0
  9
$PLINEWID
 40
0
  9
$SPLFRAME
 70
    0
  9
$SPLINETYPE
 70
    6
  9
$SPLINESEGS
 70
    8
  9
$HANDSEED
  5
20000
  9
$SURFTAB1
 70
    6
  9
$SURFTAB2
 70
    6
  9
$SURFTYPE
 70
    6
  9
$SURFU
 70
    6
  9
$SURFV
 70
    6
  9
$UCSBASE
  2

  9
$UCSNAME
  2

  9
$UCSORG
 10
0
 20
0
 30
0
  9
$UCSXDIR
 10
1
 20
0
 30
0
  9
$UCSYDIR
 10
0
 20
1
 30
0
  9
$UCSORTHOREF
  2

  9
$UCSORTHOVIEW
 70
    0
  9
$UCSORGTOP
 10
0
 20
0
 30
0
  9
$UCSORGBOTTOM
 10
0
 20
0
 30
0
  9
$UCSORGLEFT
 10
0
 20
0
 30
0
  9
$UCSORGRIGHT
 10
0
 20
0
 30
0
  9
$UCSORGFRONT
 10
0
 20
0
 30
0
  9
$UCSORGBACK
 10
0
 20
0
 30
0
  9
$PUCSBASE
  2

  9
$PUCSNAME
  2

  9
$PUCSORG
 10
0
 20
0
 30
0
  9
$PUCSXDIR
 10
1
 20
0
 30
0
  9
$PUCSYDIR
 10
0
 20
1
 30
0
  9
$PUCSORTHOREF
  2

  9
$PUCSORTHOVIEW
 70
    0
  9
$PUCSORGTOP
 10
0
 20
0
 30
0
  9
$PUCSORGBOTTOM
 10
0
 20
0
 30
0
  9
$PUCSORGLEFT
 10
0
 20
0
 30
0
  9
$PUCSORGRIGHT
 10
0
 20
0
 30
0
  9
$PUCSORGFRONT
 10
0
 20
0
 30
0
  9
$PUCSORGBACK
 10
0
 20
0
 30
0
  9
$USERI1
 70
    0
  9
$USERI2
 70
    0
  9
$USERI3
 70
    0
  9
$USERI4
 70
    0
  9
$USERI5
 70
    0
  9
$USERR1
 40
0
  9
$USERR2
 40
0
  9
$USERR3
 40
0
  9
$USERR4
 40
0
  9
$USERR5
 40
0
  9
$WORLDVIEW
 70
    1
  9
$SHADEDGE
 70
    3
  9
$SHADEDIF
 70
   70
  9
$TILEMODE
 70
    1
  9
$MAXACTVP
 70
   64
  9
$PINSBASE
 10
0
 20
0
 30
0
  9
$PLIMCHECK
 70
    0
  9
$PEXTMIN
 10
1e+20
 20
1e+20
 30
1e+20
  9
$PEXTMAX
 10
-1e+20
 20
-1e+20
 30
-1e+20
  9
$GRIDMODE
 70
    1
  9
$SNAPSTYLE
 70
    0
  9
$PLIMMIN
 10
0
 20
0
  9
$PLIMMAX
 10
420
 20
297
  9
$UNITMODE
 70
    0
  9
$VISRETAIN
 70
    1
  9
$PLINEGEN
 70
    0
  9
$PSLTSCALE
 70
    1
  9
$TREEDEPTH
 70
 3020
  9
$CMLSTYLE
  2
Standard
  9
$CMLJUST
 70
    0
  9
$CMLSCALE
 40
20
  9
$PROXYGRAPHICS
 70
    1
  9
$MEASUREMENT
 70
    1
  9
$CELWEIGHT
370
   -1
  9
$ENDCAPS
280
    0
  9
$JOINSTYLE
280
    0
  9
$LWDISPLAY
290
    0
  9
$INSUNITS
 70
    6
  9
$HYPERLINKBASE
  1

  9
$STYLESHEET
  1

  9
$XEDIT
290
    1
  9
$CEPSNTYPE
380
    0
  9
$PSTYLEMODE
290
    1
  9
$EXTNAMES
290
    1
  9
$PSVPSCALE
 40
0
  9
$OLESTARTUP
290
    0
  9
$SORTENTS
280
  127
  9
$INDEXCTL
280
    0
  9
$HIDETEXT
280
    1
  9
$XCLIPFRAME
290
    2
  9
$HALOGAP
280
    0
  9
$OBSCOLOR
 70
  257
  9
$OBSLTYPE
280
    0
  9
$INTERSECTIONDISPLAY
280
    0
  9
$INTERSECTIONCOLOR
 70
  257
  9
$DIMASSOC
280
    2
  9
$PROJECTNAME
  1

  9
$CAMERADISPLAY
290
    0
  9
$LENSLENGTH
 40
50
  9
$CAMERAHEIGHT
 40
0
  9
$STEPSPERSEC
 40
24
  9
$STEPSIZE
 40
100
  9
$3DDWFPREC
 40
2
  9
$PSOLWIDTH
 40
0.005
  9
$PSOLHEIGHT
 40
0.08
  9
$LOFTANG1
 40
1.570796326795
  9
$LOFTANG2
 40
1.570796326795
  9
$LOFTMAG1
 40
0
  9
$LOFTMAG2
 40
0
  9
$LOFTPARAM
 70
    7
  9
$LOFTNORMALS
280
    1
  9
$LATITUDE
 40
37.795
  9
$LONGITUDE
 40
-122.394
  9
$NORTHDIRECTION
 40
0
  9
$TIMEZONE
 70
-8000
  9
$LIGHTGLYPHDISPLAY
280
    1
  9
$TILEMODELIGHTSYNCH
280
    1
  9
$SOLIDHIST
280
    0
  9
$SHOWHIST
280
    1
  9
$DWFFRAME
280
    2
  9
$DGNFRAME
280
    2
  9
$REALWORLDSCALE
290
    1
  9
$INTERFERECOLOR
 62
  256
  9
$CSHADOW
280
    0
  9
$SHADOWPLANELOCATION
 40
0
  0
ENDSEC
  0
SECTION
  2
CLASSES
  0
ENDSEC
  0
SECTION
  2
TABLES
  0
TABLE
  2
VPORT
  5
8
330
0
100
AcDbSymbolTable
 70
    1
  0
VPORT
  5
31
330
2
100
AcDbSymbolTableRecord
100
AcDbViewportTableRecord
  2
*ACTIVE
 70
    0
 10
0
 20
0
 11
1
 21
1
 12
-1364.500831161678
 22
1412.27860507179
 13
0
 23
0
 14
10
 24
10
 15
10
 25
10
 16
0
 26
0
 36
1
 17
0
 27
0
 37
0
 40
1311.864300582741
 41
0.7901234567901234
 42
50
 43
0
 44
0
 50
0
 51
0
 71
    0
 72
  100
 73
    1
 74
    3
 75
    0
 76
    1
 77
    0
 78
    0
281
    0
 65
    1
110
0
120
0
130
0
111
1
121
0
131
0
112
0
122
1
132
0
 79
    0
146
0
348
10020
 60
    7
 61
    5
292
1
282
    1
141
0
142
0
 63
  250
421
3358443
  0
ENDTAB
  0
TABLE
  2
LTYPE
  5
5
330
0
100
AcDbSymbolTable
 70
    4
  0
LTYPE
  5
14
330
5
100
AcDbSymbolTableRecord
100
AcDbLinetypeTableRecord
  2
ByBlock
 70
    0
  3

 72
   65
 73
    0
 40
0
  0
LTYPE
  5
15
330
5
100
AcDbSymbolTableRecord
100
AcDbLinetypeTableRecord
  2
ByLayer
 70
    0
  3

 72
   65
 73
    0
 40
0
  0
LTYPE
  5
16
330
5
100
AcDbSymbolTableRecord
100
AcDbLinetypeTableRecord
  2
Continuous
 70
    0
  3
Solid line
 72
   65
 73
    0
 40
0
  0
LTYPE
  5
32
330
5
100
AcDbSymbolTableRecord
100
AcDbLinetypeTableRecord
  2
DOT
 70
    0
  3
Dot . . . . . . . . . . . . . . . . . . . . . .
 72
   65
 73
    2
 40
6.35
 49
0
 74
    0
 49
-6.35
 74
    0
  0
LTYPE
  5
33
330
5
100
AcDbSymbolTableRecord
100
AcDbLinetypeTableRecord
  2
DOTTINY
 70
    0
  3
Dot (.15x) .....................................
 72
   65
 73
    2
 40
0.9525
 49
0
 74
    0
 49
-0.9525
 74
    0
  0
LTYPE
  5
34
330
5
100
AcDbSymbolTableRecord
100
AcDbLinetypeTableRecord
  2
DOT2
 70
    0
  3
Dot (.5x) .....................................
 72
   65
 73
    2
 40
3.175
 49
0
 74
    0
 49
-3.175
 74
    0
  0
LTYPE
  5
35
330
5
100
AcDbSymbolTableRecord
100
AcDbLinetypeTableRecord
  2
DOTX2
 70
    0
  3
Dot (2x) .  .  .  .  .  .  .  .  .  .  .  .  .
 72
   65
 73
    2
 40
12.7
 49
0
 74
    0
 49
-12.7
 74
    0
  0
LTYPE
  5
36
330
5
100
AcDbSymbolTableRecord
100
AcDbLinetypeTableRecord
  2
DASHED
 70
    0
  3
Dashed _ _ _ _ _ _ _ _ _ _ _ _ _ _ _ _ _
 72
   65
 73
    2
 40
19.05
 49
12.7
 74
    0
 49
-6.35
 74
    0
  0
LTYPE
  5
37
330
5
100
AcDbSymbolTableRecord
100
AcDbLinetypeTableRecord
  2
DASHEDTINY
 70
    0
  3
Dashed (.15x) _ _ _ _ _ _ _ _ _ _ _ _ _ _ _ _ _
 72
   65
 73
    2
 40
2.8575
 49
1.905
 74
    0
 49
-0.9525
 74
    0
  0
LTYPE
  5
38
330
5
100
AcDbSymbolTableRecord
100
AcDbLinetypeTableRecord
  2
DASHED2
 70
    0
  3
Dashed (.5x) _ _ _ _ _ _ _ _ _ _ _ _ _ _ _ _ _
 72
   65
 73
    2
 40
9.524999999999999
 49
6.35
 74
    0
 49
-3.175
 74
    0
  0
LTYPE
  5
39
330
5
100
AcDbSymbolTableRecord
100
AcDbLinetypeTableRecord
  2
DASHEDX2
 70
    0
  3
Dashed (2x) ____  ____  ____  ____  ____  ___
 72
   65
 73
    2
 40
38.09999999999999
 49
25.4
 74
    0
 49
-12.7
 74
    0
  0
LTYPE
  5
3A
330
5
100
AcDbSymbolTableRecord
100
AcDbLinetypeTableRecord
  2
DASHDOT
 70
    0
  3
Dash dot __ . __ . __ . __ . __ . __ . __ . __
 72
   65
 73
    4
 40
25.4
 49
12.7
 74
    0
 49
-6.35
 74
    0
 49
0
 74
    0
 49
-6.35
 74
    0
  0
LTYPE
  5
3B
330
5
100
AcDbSymbolTableRecord
100
AcDbLinetypeTableRecord
  2
DASHDOTTINY
 70
    0
  3
Dash dot (.15x) _._._._._._._._._._._._._._._.
 72
   65
 73
    4
 40
3.81
 49
1.905
 74
    0
 49
-0.9525
 74
    0
 49
0
 74
    0
 49
-0.9525
 74
    0
  0
LTYPE
  5
3C
330
5
100
AcDbSymbolTableRecord
100
AcDbLinetypeTableRecord
  2
DASHDOT2
 70
    0
  3
Dash dot (.5x) _._._._._._._._._._._._._._._.
 72
   65
 73
    4
 40
12.7
 49
6.35
 74
    0
 49
-3.175
 74
    0
 49
0
 74
    0
 49
-3.175
 74
    0
  0
LTYPE
  5
3D
330
5
100
AcDbSymbolTableRecord
100
AcDbLinetypeTableRecord
  2
DASHDOTX2
 70
    0
  3
Dash dot (2x) ____  .  ____  .  ____  .  ___
 72
   65
 73
    4
 40
50.8
 49
25.4
 74
    0
 49
-12.7
 74
    0
 49
0
 74
    0
 49
-12.7
 74
    0
  0
LTYPE
  5
3E
330
5
100
AcDbSymbolTableRecord
100
AcDbLinetypeTableRecord
  2
DIVIDE
 70
    0
  3
Divide ____ . . ____ . . ____ . . ____ . . ____
 72
   65
 73
    6
 40
31.75
 49
12.7
 74
    0
 49
-6.35
 74
    0
 49
0
 74
    0
 49
-6.35
 74
    0
 49
0
 74
    0
 49
-6.35
 74
    0
  0
LTYPE
  5
3F
330
5
100
AcDbSymbolTableRecord
100
AcDbLinetypeTableRecord
  2
DIVIDETINY
 70
    0
  3
Divide (.15x) __..__..__..__..__..__..__..__.._
 72
   65
 73
    6
 40
4.7625
 49
1.905
 74
    0
 49
-0.9525
 74
    0
 49
0
 74
    0
 49
-0.9525
 74
    0
 49
0
 74
    0
 49
-0.9525
 74
    0
  0
LTYPE
  5
40
330
5
100
AcDbSymbolTableRecord
100
AcDbLinetypeTableRecord
  2
DIVIDE2
 70
    0
  3
Divide (.5x) __..__..__..__..__..__..__..__.._
 72
   65
 73
    6
 40
15.875
 49
6.35
 74
    0
 49
-3.175
 74
    0
 49
0
 74
    0
 49
-3.175
 74
    0
 49
0
 74
    0
 49
-3.175
 74
    0
  0
LTYPE
  5
41
330
5
100
AcDbSymbolTableRecord
100
AcDbLinetypeTableRecord
  2
DIVIDEX2
 70
    0
  3
Divide (2x) ________  .  .  ________  .  .  _
 72
   65
 73
    6
 40
63.5
 49
25.4
 74
    0
 49
-12.7
 74
    0
 49
0
 74
    0
 49
-12.7
 74
    0
 49
0
 74
    0
 49
-12.7
 74
    0
  0
LTYPE
  5
42
330
5
100
AcDbSymbolTableRecord
100
AcDbLinetypeTableRecord
  2
BORDER
 70
    0
  3
Border __ __ . __ __ . __ __ . __ __ . __ __ .
 72
   65
 73
    6
 40
44.45
 49
12.7
 74
    0
 49
-6.35
 74
    0
 49
12.7
 74
    0
 49
-6.35
 74
    0
 49
0
 74
    0
 49
-6.35
 74
    0
  0
LTYPE
  5
43
330
5
100
AcDbSymbolTableRecord
100
AcDbLinetypeTableRecord
  2
BORDERTINY
 70
    0
  3
Border (.15x) __.__.__.__.__.__.__.__.__.__.__.
 72
   65
 73
    6
 40
6.6675
 49
1.905
 74
    0
 49
-0.9525
 74
    0
 49
1.905
 74
    0
 49
-0.9525
 74
    0
 49
0
 74
    0
 49
-0.9525
 74
    0
  0
LTYPE
  5
44
330
5
100
AcDbSymbolTableRecord
100
AcDbLinetypeTableRecord
  2
BORDER2
 70
    0
  3
Border (.5x) __.__.__.__.__.__.__.__.__.__.__.
 72
   65
 73
    6
 40
22.225
 49
6.35
 74
    0
 49
-3.175
 74
    0
 49
6.35
 74
    0
 49
-3.175
 74
    0
 49
0
 74
    0
 49
-3.175
 74
    0
  0
LTYPE
  5
45
330
5
100
AcDbSymbolTableRecord
100
AcDbLinetypeTableRecord
  2
BORDERX2
 70
    0
  3
Border (2x) ____  ____  .  ____  ____  .  ___
 72
   65
 73
    6
 40
88.89999999999999
 49
25.4
 74
    0
 49
-12.7
 74
    0
 49
25.4
 74
    0
 49
-12.7
 74
    0
 49
0
 74
    0
 49
-12.7
 74
    0
  0
LTYPE
  5
46
330
5
100
AcDbSymbolTableRecord
100
AcDbLinetypeTableRecord
  2
CENTER
 70
    0
  3
Center ____ _ ____ _ ____ _ ____ _ ____ _ ____
 72
   65
 73
    4
 40
50.8
 49
31.75
 74
    0
 49
-6.35
 74
    0
 49
6.35
 74
    0
 49
-6.35
 74
    0
  0
LTYPE
  5
47
330
5
100
AcDbSymbolTableRecord
100
AcDbLinetypeTableRecord
  2
CENTERTINY
 70
    0
  3
Center (.15x) ___ _ ___ _ ___ _ ___ _ ___ _ ___
 72
   65
 73
    4
 40
7.62
 49
4.7625
 74
    0
 49
-0.9525
 74
    0
 49
0.9525
 74
    0
 49
-0.9525
 74
    0
  0
LTYPE
  5
48
330
5
100
AcDbSymbolTableRecord
100
AcDbLinetypeTableRecord
  2
CENTER2
 70
    0
  3
Center (.5x) ___ _ ___ _ ___ _ ___ _ ___ _ ___
 72
   65
 73
    4
 40
28.575
 49
19.05
 74
    0
 49
-3.175
 74
    0
 49
3.175
 74
    0
 49
-3.175
 74
    0
  0
LTYPE
  5
49
330
5
100
AcDbSymbolTableRecord
100
AcDbLinetypeTableRecord
  2
CENTERX2
 70
    0
  3
Center (2x) ________  __  ________  __  _____
 72
   65
 73
    4
 40
101.6
 49
63.5
 74
    0
 49
-12.7
 74
    0
 49
12.7
 74
    0
 49
-12.7
 74
    0
  0
ENDTAB
  0
TABLE
  2
LAYER
  5
2
330
0
100
AcDbSymbolTable
 70
    1
  0
LAYER
  5
10
330
2
100
AcDbSymbolTableRecord
100
AcDbLayerTableRecord
  2
0
 70
    0
 62
    7
  6
CONTINUOUS
370
   -3
390
F
  0
LAYER
  5
4A
330
2
100
AcDbSymbolTableRecord
100
AcDbLayerTableRecord
  2
1
 70
    0
 62
    7
  6
CONTINUOUS
370
   -3
390
F
  0
LAYER
  5
4B
330
2
100
AcDbSymbolTableRecord
100
AcDbLayerTableRecord
  2
11
 70
    0
 62
    7
  6
CONTINUOUS
370
   -3
390
F
  0
LAYER
  5
4C
330
2
100
AcDbSymbolTableRecord
100
AcDbLayerTableRecord
  2
54
 70
    0
 62
    7
  6
CONTINUOUS
370
   -3
390
F
  0
LAYER
  5
4D
330
2
100
AcDbSymbolTableRecord
100
AcDbLayerTableRecord
  2
72
 70
    0
 62
    7
  6
CONTINUOUS
370
   -3
390
F
  0
LAYER
  5
4E
330
2
100
AcDbSymbolTableRecord
100
AcDbLayerTableRecord
  2
Defpoints
 70
    0
 62
    7
  6
CONTINUOUS
290
0
370
   -3
390
F
  0
ENDTAB
  0
TABLE
  2
STYLE
  5
3
330
0
100
AcDbSymbolTable
 70
    3
  0
STYLE
  5
4F
330
2
100
AcDbSymbolTableRecord
100
AcDbTextStyleTableRecord
  2
STANDARD
 70
    0
 40
0
 41
1
 50
0
 71
    0
 42
1
  3
STANDARD
  4

  0
ENDTAB
  0
TABLE
  2
VIEW
  5
6
330
0
100
AcDbSymbolTable
 70
    0
  0
ENDTAB
  0
TABLE
  2
UCS
  5
7
330
0
100
AcDbSymbolTable
 70
    0
  0
ENDTAB
  0
TABLE
  2
APPID
  5
9
330
0
100
AcDbSymbolTable
 70
    1
  0
APPID
  5
12
330
9
100
AcDbSymbolTableRecord
100
AcDbRegAppTableRecord
  2
ACAD
 70
    0
  0
APPID
  5
50
330
9
100
AcDbSymbolTableRecord
100
AcDbRegAppTableRecord
  2
LibreCad
 70
    0
  0
ENDTAB
  0
TABLE
  2
DIMSTYLE
  5
A
330
0
100
AcDbSymbolTable
 70
    1
100
AcDbDimStyleTable
 71
    1
  0
DIMSTYLE
105
51
330
A
100
AcDbSymbolTableRecord
100
AcDbDimStyleTableRecord
  2
Standard
 70
    0
 40
1
 41
2.5
 42
0.625
 43
0.38
 44
1.25
 45
0
 46
0
 47
0
 48
0
 49
1
140
2.5
141
0.09
142
0
143
25.4
144
1
145
0
146
1
147
0.625
148
0
 71
    0
 72
    0
 73
    0
 74
    1
 75
    0
 76
    0
 77
    0
 78
    8
 79
    0
170
    0
171
    2
172
    0
173
    0
174
    0
175
    0
176
    0
177
    0
178
    0
179
    0
271
    2
272
    4
273
    2
274
    2
275
    0
276
    0
277
    2
278
   44
279
    0
280
    0
281
    0
282
    0
283
    1
284
    0
285
    0
286
    0
288
    0
289
    3
340
Standard
341

371
   -2
372
   -2
  0
ENDTAB
  0
TABLE
  2
BLOCK_RECORD
  5
1
330
0
100
AcDbSymbolTable
 70
    2
  0
BLOCK_RECORD
  5
1F
330
1
100
AcDbSymbolTableRecord
100
AcDbBlockTableRecord
  2
*Model_Space
 70
    0
280
    1
281
    0
  0
BLOCK_RECORD
  5
1E
330
1
100
AcDbSymbolTableRecord
100
AcDbBlockTableRecord
  2
*Paper_Space
 70
    0
280
    1
281
    0
  0
ENDTAB
  0
ENDSEC
  0
SECTION
  2
BLOCKS
  0
BLOCK
  5
20
330
1F
100
AcDbEntity
  8
0
100
AcDbBlockBegin
  2
*Model_Space
 70
    0
 10
0
 20
0
 30
0
  3
*Model_Space
  1

  0
ENDBLK
  5
21
330
1F
100
AcDbEntity
  8
0
100
AcDbBlockEnd
  0
BLOCK
  5
1C
330
1B
100
AcDbEntity
  8
0
100
AcDbBlockBegin
  2
*Paper_Space
 70
    0
 10
0
 20
0
 30
0
  3
*Paper_Space
  1

  0
ENDBLK
  5
1D
330
1F
100
AcDbEntity
  8
0
100
AcDbBlockEnd
  0
ENDSEC
  0
SECTION
  2
ENTITIES
  0
TEXT
  5
52
100
AcDbEntity
  8
72
  6
ByLayer
 62
  256
370
   -1
100
AcDbText
 10
-3538.8
 20
1638
 30
0
 40
2.5
  1
MARK_1
 50
0
 41
1
 51
0
  7
STANDARD
 71
    0
 11
-3538.8
 21
1638
 31
0
210
0
220
0
230
1
100
AcDbText
 73
    1
  0
TEXT
  5
53
100
AcDbEntity
  8
72
  6
ByLayer
 62
  256
370
   -1
100
AcDbText
 10
-3542
 20
2638.8
 30
0
 40
2.5
  1
MARK_2
 50
0
 41
1
 51
0
  7
STANDARD
 71
    0
 11
-3542
 21
2638.8
 31
0
210
0
220
0
230
1
100
AcDbText
 73
    1
  0
LWPOLYLINE
  5
54
100
AcDbEntity
  8
1
  6
ByLayer
 62
  256
370
   -1
100
AcDbPolyline
 90
   37
 70
    1
 43
0
 10
-3680.000000000001
 20
2645.599999999999
 10
-3670.399999999953
 20
2172.799999999998
 10
-3667.657142857078
 20
2170.057142857138
 10
-3670.39999999999
 20
2166.399999999998
 10
-3654.400000000001
 20
1597.599999999998
 10
-3646.4
 20
1570.399999999999
 10
-3636.800000000001
 20
1562.399999999999
 10
-3636.800000000001
 20
1557.599999999999
 10
-3610.400000000001
 20
1545.599999999999
 10
-3580.800000000001
 20
1541.599999999999
 10
-3529.6
 20
1541.599999999999
 10
-3527.73333333333
 20
1545.333333333329
 10
-3526.400000000001
 20
1543.999999999999
 10
-3212.837402597399
 20
1551.162597402599
 10
-3208.26666666667
 20
1555.733333333329
 10
-3207.151515151519
 20
1553.50303030303
 10
-3090.399999999999
 20
1560.799999999999
 10
-2980.799999999998
 20
1562.399999999999
 10
-2874.399999999998
 20
1575.199999999998
 10
-2870.399999999999
 20
1704.799999999997
 10
-2878.448780487799
 20
2089.799999999997
 10
-2883.237209302365
 20
2187.962790697667
 10
-2882.400000000004
 20
2188.799999999998
 10
-2890.348387096768
 20
2657.754838709679
 10
-2901.664356435636
 20
2799.20445544554
 10
-2997.463671572417
 20
2805.83671572425
 10
-3235.937430167599
 20
2803.98808193669
 10
-3252.799999999999
 20
2807.2
 10
-3371.199999999999
 20
2804.8
 10
-3475.2
 20
2804.8
 10
-3553.599999999999
 20
2799.199999999998
 10
-3615.199999999999
 20
2798.399999999999
 10
-3640.8
 20
2793.599999999999
 10
-3660
 20
2783.999999999999
 10
-3660
 20
2779.2
 10
-3672
 20
2766.4
 10
-3677.6
 20
2746.4
  0
LWPOLYLINE
  5
55
100
AcDbEntity
  8
11
  6
ByLayer
 62
  256
370
   -1
100
AcDbPolyline
 90
    9
 70
    1
 43
0
 10
-3217.08108108108
 20
1737.362162162157
 10
-3190.92038834951
 20
1792.590291262137
 10
-3178.399999999999
 20
1807.999999999997
 10
-3176.799999999999
 20
1807.999999999997
 10
-3162.714285714279
 20
1779.828571428567
 10
-3144.799999999998
 20
1717.599999999997
 10
-3144.799999999999
 20
1714.636065573767
 10
-3207.591489361699
 20
1730.076595744677
 10
-3214.9
 20
1732.999999999997
  0
LWPOLYLINE
  5
56
100
AcDbEntity
  8
54
  6
ByLayer
 62
  256
370
   -1
100
AcDbPolyline
 90
   24
 70
    1
 43
0
 10
-3281.6
 20
2241.199999999998
 10
-3281.599999999999
 20
2255.999999999997
 10
-3271.840000000001
 20
2275.519999999998
 10
-3258.999999999998
 20
2290.499999999997
 10
-3247.466666666668
 20
2296.266666666668
 10
-3238.13333333333
 20
2298.933333333328
 10
-3226.61333333333
 20
2300.373333333328
 10
-3212.210526315787
 20
2298.315789473678
 10
-3195.561290322579
 20
2290.916129032258
 10
-3182.4
 20
2279.399999999998
 10
-3174.56
 20
2269.599999999999
 10
-3167.199999999998
 20
2251.199999999998
 10
-3167.199999999999
 20
2231.999999999998
 10
-3169.599999999999
 20
2222.399999999997
 10
-3178.399999999999
 20
2204.799999999997
 10
-3190.399999999996
 20
2192.799999999998
 10
-3205.439999999997
 20
2185.279999999997
 10
-3214.400000000006
 20
2183.999999999998
 10
-3230.000000000002
 20
2183.999999999998
 10
-3242.133333333328
 20
2187.466666666667
 10
-3254.399999999999
 20
2193.599999999998
 10
-3268.533333333329
 20
2207.733333333328
 10
-3275.199999999999
 20
2219.399999999998
 10
-3279.199999999999
 20
2230.399999999998
  0
LWPOLYLINE
  5
57
100
AcDbEntity
  8
54
  6
ByLayer
 62
  256
370
   -1
100
AcDbPolyline
 90
  973
 70
    1
 43
0
 10
-3405.472410797103
 20
2372.05024454956
 10
-3405.472410797103
 20
2372.05024454956
 10
-3405.472410797103
 20
2372.05024454956
 10
-3405.472410797103
 20
2372.05024454956
 10
-3405.472410797103
 20
2372.05024454956
 10
-3405.472410797103
 20
2372.05024454956
 10
-3405.472410797103
 20
2372.05024454956
 10
-3405.472410797103
 20
2372.05024454956
 10
-3405.472410797103
 20
2372.05024454956
 10
-3405.472410797103
 20
2372.05024454956
 10
-3405.472410797103
 20
2372.05024454956
 10
-3404.04623117492
 20
2372.05024454956
 10
-3404.04623117492
 20
2372.05024454956
 10
-3404.04623117492
 20
2372.05024454956
 10
-3404.04623117492
 20
2372.05024454956
 10
-3404.04623117492
 20
2372.05024454956
 10
-3402.620051552737
 20
2372.05024454956
 10
-3401.193871930554
 20
2372.05024454956
 10
-3401.193871930554
 20
2372.05024454956
 10
-3399.76769230837
 20
2372.05024454956
 10
-3399.76769230837
 20
2372.05024454956
 10
-3399.76769230837
 20
2372.05024454956
 10
-3398.341512686187
 20
2372.05024454956
 10
-3398.341512686187
 20
2372.05024454956
 10
-3398.341512686187
 20
2372.05024454956
 10
-3398.341512686187
 20
2372.05024454956
 10
-3396.915333064004
 20
2372.05024454956
 10
-3396.915333064004
 20
2372.05024454956
 10
-3395.489153441821
 20
2372.05024454956
 10
-3395.489153441821
 20
2372.05024454956
 10
-3395.489153441821
 20
2372.05024454956
 10
-3395.489153441821
 20
2372.05024454956
 10
-3394.062973819638
 20
2372.05024454956
 10
-3394.062973819638
 20
2372.05024454956
 10
-3394.062973819638
 20
2372.05024454956
 10
-3394.062973819638
 20
2372.05024454956
 10
-3394.062973819638
 20
2372.05024454956
 10
-3392.636794197454
 20
2372.05024454956
 10
-3392.636794197454
 20
2372.05024454956
 10
-3392.636794197454
 20
2372.05024454956
 10
-3392.636794197454
 20
2372.05024454956
 10
-3392.636794197454
 20
2372.05024454956
 10
-3392.636794197454
 20
2372.05024454956
 10
-3392.636794197454
 20
2372.05024454956
 10
-3391.210614575271
 20
2372.05024454956
 10
-3391.210614575271
 20
2372.05024454956
 10
-3391.210614575271
 20
2372.05024454956
 10
-3389.784434953088
 20
2372.05024454956
 10
-3389.784434953088
 20
2372.05024454956
 10
-3389.784434953088
 20
2372.05024454956
 10
-3389.784434953088
 20
2372.05024454956
 10
-3389.784434953088
 20
2372.05024454956
 10
-3389.784434953088
 20
2372.05024454956
 10
-3388.358255330905
 20
2372.05024454956
 10
-3388.358255330905
 20
2372.05024454956
 10
-3388.358255330905
 20
2372.05024454956
 10
-3388.358255330905
 20
2372.05024454956
 10
-3388.358255330905
 20
2372.05024454956
 10
-3388.358255330905
 20
2372.05024454956
 10
-3388.358255330905
 20
2372.05024454956
 10
-3386.932075708722
 20
2372.05024454956
 10
-3386.932075708722
 20
2372.05024454956
 10
-3386.932075708722
 20
2372.05024454956
 10
-3386.932075708722
 20
2372.05024454956
 10
-3385.505896086539
 20
2372.05024454956
 10
-3385.505896086539
 20
2372.05024454956
 10
-3384.079716464356
 20
2372.05024454956
 10
-3384.079716464356
 20
2372.05024454956
 10
-3384.079716464356
 20
2372.05024454956
 10
-3382.653536842173
 20
2372.05024454956
 10
-3382.653536842173
 20
2372.05024454956
 10
-3382.653536842173
 20
2372.05024454956
 10
-3382.653536842173
 20
2372.05024454956
 10
-3382.653536842173
 20
2372.05024454956
 10
-3381.227357219989
 20
2372.05024454956
 10
-3381.227357219989
 20
2372.05024454956
 10
-3381.227357219989
 20
2372.05024454956
 10
-3381.227357219989
 20
2372.05024454956
 10
-3379.801177597806
 20
2372.05024454956
 10
-3379.801177597806
 20
2372.05024454956
 10
-3379.801177597806
 20
2372.05024454956
 10
-3379.801177597806
 20
2372.05024454956
 10
-3379.801177597806
 20
2372.05024454956
 10
-3379.801177597806
 20
2370.624496579806
 10
-3378.374997975623
 20
2370.624496579806
 10
-3376.94881835344
 20
2370.624496579806
 10
-3376.94881835344
 20
2370.624496579806
 10
-3376.94881835344
 20
2370.624496579806
 10
-3376.94881835344
 20
2370.624496579806
 10
-3375.522638731257
 20
2370.624496579806
 10
-3375.522638731257
 20
2370.624496579806
 10
-3375.522638731257
 20
2370.624496579806
 10
-3375.522638731257
 20
2369.19874861005
 10
-3375.522638731257
 20
2369.19874861005
 10
-3375.522638731257
 20
2369.19874861005
 10
-3375.522638731257
 20
2369.19874861005
 10
-3374.096459109073
 20
2369.19874861005
 10
-3374.096459109073
 20
2369.19874861005
 10
-3374.096459109073
 20
2369.19874861005
 10
-3374.096459109073
 20
2369.19874861005
 10
-3374.096459109073
 20
2369.19874861005
 10
-3374.096459109073
 20
2369.19874861005
 10
-3374.096459109073
 20
2369.19874861005
 10
-3374.096459109073
 20
2369.19874861005
 10
-3374.096459109073
 20
2369.19874861005
 10
-3374.096459109073
 20
2369.19874861005
 10
-3372.67027948689
 20
2369.19874861005
 10
-3372.67027948689
 20
2369.19874861005
 10
-3371.244099864707
 20
2369.19874861005
 10
-3371.244099864707
 20
2369.19874861005
 10
-3371.244099864707
 20
2369.19874861005
 10
-3369.817920242524
 20
2367.773000640295
 10
-3369.817920242524
 20
2367.773000640295
 10
-3369.817920242524
 20
2367.773000640295
 10
-3369.817920242524
 20
2367.773000640295
 10
-3369.817920242524
 20
2367.773000640295
 10
-3369.817920242524
 20
2367.773000640295
 10
-3369.817920242524
 20
2367.773000640295
 10
-3368.391740620341
 20
2367.773000640295
 10
-3368.391740620341
 20
2367.773000640295
 10
-3368.391740620341
 20
2367.773000640295
 10
-3368.391740620341
 20
2367.773000640295
 10
-3366.965560998158
 20
2367.773000640295
 10
-3365.539381375975
 20
2367.773000640295
 10
-3365.539381375975
 20
2367.773000640295
 10
-3365.539381375975
 20
2367.773000640295
 10
-3365.539381375975
 20
2367.773000640295
 10
-3364.113201753792
 20
2367.773000640295
 10
-3364.113201753792
 20
2367.773000640295
 10
-3364.113201753792
 20
2367.773000640295
 10
-3362.687022131608
 20
2367.773000640295
 10
-3362.687022131608
 20
2367.773000640295
 10
-3362.687022131608
 20
2367.773000640295
 10
-3362.687022131608
 20
2367.773000640295
 10
-3361.260842509425
 20
2367.773000640295
 10
-3359.834662887242
 20
2367.773000640295
 10
-3359.834662887242
 20
2367.773000640295
 10
-3359.834662887242
 20
2367.773000640295
 10
-3359.834662887242
 20
2367.773000640295
 10
-3359.834662887242
 20
2367.773000640295
 10
-3358.408483265059
 20
2367.773000640295
 10
-3358.408483265059
 20
2367.773000640295
 10
-3356.982303642876
 20
2367.773000640295
 10
-3356.982303642876
 20
2367.773000640295
 10
-3356.982303642876
 20
2367.773000640295
 10
-3356.982303642876
 20
2366.34725267054
 10
-3355.556124020693
 20
2366.34725267054
 10
-3355.556124020693
 20
2366.34725267054
 10
-3354.129944398509
 20
2366.34725267054
 10
-3354.129944398509
 20
2366.34725267054
 10
-3354.129944398509
 20
2366.34725267054
 10
-3354.129944398509
 20
2366.34725267054
 10
-3354.129944398509
 20
2366.34725267054
 10
-3354.129944398509
 20
2366.34725267054
 10
-3352.703764776326
 20
2366.34725267054
 10
-3352.703764776326
 20
2366.34725267054
 10
-3352.703764776326
 20
2366.34725267054
 10
-3351.277585154143
 20
2366.34725267054
 10
-3351.277585154143
 20
2366.34725267054
 10
-3351.277585154143
 20
2366.34725267054
 10
-3351.277585154143
 20
2366.34725267054
 10
-3349.85140553196
 20
2366.34725267054
 10
-3348.425225909777
 20
2366.34725267054
 10
-3348.425225909777
 20
2366.34725267054
 10
-3346.999046287594
 20
2366.34725267054
 10
-3346.999046287594
 20
2366.34725267054
 10
-3346.999046287594
 20
2366.34725267054
 10
-3346.999046287594
 20
2366.34725267054
 10
-3346.999046287594
 20
2366.34725267054
 10
-3345.57286666541
 20
2366.34725267054
 10
-3345.57286666541
 20
2366.34725267054
 10
-3345.57286666541
 20
2366.34725267054
 10
-3344.146687043227
 20
2366.34725267054
 10
-3344.146687043227
 20
2366.34725267054
 10
-3342.720507421044
 20
2366.34725267054
 10
-3342.720507421044
 20
2366.34725267054
 10
-3341.294327798861
 20
2366.34725267054
 10
-3341.294327798861
 20
2366.34725267054
 10
-3341.294327798861
 20
2366.34725267054
 10
-3339.868148176678
 20
2366.34725267054
 10
-3339.868148176678
 20
2366.34725267054
 10
-3338.441968554494
 20
2366.34725267054
 10
-3337.015788932311
 20
2366.34725267054
 10
-3337.015788932311
 20
2366.34725267054
 10
-3335.589609310128
 20
2367.773000640295
 10
-3335.589609310128
 20
2367.773000640295
 10
-3334.163429687945
 20
2367.773000640295
 10
-3334.163429687945
 20
2367.773000640295
 10
-3332.737250065762
 20
2367.773000640295
 10
-3332.737250065762
 20
2369.19874861005
 10
-3331.311070443579
 20
2369.19874861005
 10
-3329.884890821396
 20
2369.19874861005
 10
-3328.458711199212
 20
2369.19874861005
 10
-3327.032531577029
 20
2369.19874861005
 10
-3325.606351954846
 20
2369.19874861005
 10
-3325.606351954846
 20
2369.19874861005
 10
-3325.606351954846
 20
2370.624496579806
 10
-3324.180172332663
 20
2370.624496579806
 10
-3324.180172332663
 20
2370.624496579806
 10
-3321.327813088297
 20
2372.05024454956
 10
-3321.327813088297
 20
2372.05024454956
 10
-3319.901633466114
 20
2372.05024454956
 10
-3319.901633466114
 20
2372.05024454956
 10
-3318.47545384393
 20
2372.05024454956
 10
-3317.049274221748
 20
2372.05024454956
 10
-3315.623094599564
 20
2372.05024454956
 10
-3312.770735355198
 20
2373.475992519316
 10
-3312.770735355198
 20
2373.475992519316
 10
-3312.770735355198
 20
2373.475992519316
 10
-3309.918376110832
 20
2374.901740489071
 10
-3309.918376110832
 20
2374.901740489071
 10
-3308.492196488648
 20
2374.901740489071
 10
-3307.066016866465
 20
2374.901740489071
 10
-3307.066016866465
 20
2374.901740489071
 10
-3305.639837244282
 20
2374.901740489071
 10
-3304.213657622099
 20
2374.901740489071
 10
-3304.213657622099
 20
2374.901740489071
 10
-3304.213657622099
 20
2374.901740489071
 10
-3302.787477999916
 20
2376.327488458826
 10
-3302.787477999916
 20
2376.327488458826
 10
-3301.361298377733
 20
2376.327488458826
 10
-3299.935118755549
 20
2376.327488458826
 10
-3299.935118755549
 20
2376.327488458826
 10
-3298.508939133366
 20
2376.327488458826
 10
-3298.508939133366
 20
2376.327488458826
 10
-3297.082759511183
 20
2376.327488458826
 10
-3297.082759511183
 20
2376.327488458826
 10
-3295.656579889
 20
2376.327488458826
 10
-3294.230400266817
 20
2376.327488458826
 10
-3294.230400266817
 20
2376.327488458826
 10
-3292.804220644633
 20
2376.327488458826
 10
-3292.804220644633
 20
2376.327488458826
 10
-3292.804220644633
 20
2376.327488458826
 10
-3291.37804102245
 20
2376.327488458826
 10
-3291.37804102245
 20
2376.327488458826
 10
-3291.37804102245
 20
2376.327488458826
 10
-3289.951861400267
 20
2376.327488458826
 10
-3289.951861400267
 20
2376.327488458826
 10
-3288.525681778084
 20
2374.901740489071
 10
-3288.525681778084
 20
2374.901740489071
 10
-3288.525681778084
 20
2374.901740489071
 10
-3288.525681778084
 20
2373.475992519316
 10
-3288.525681778084
 20
2373.475992519316
 10
-3288.525681778084
 20
2373.475992519316
 10
-3287.099502155901
 20
2373.475992519316
 10
-3287.099502155901
 20
2373.475992519316
 10
-3287.099502155901
 20
2373.475992519316
 10
-3287.099502155901
 20
2373.475992519316
 10
-3287.099502155901
 20
2372.05024454956
 10
-3287.099502155901
 20
2372.05024454956
 10
-3287.099502155901
 20
2372.05024454956
 10
-3285.673322533718
 20
2372.05024454956
 10
-3285.673322533718
 20
2372.05024454956
 10
-3285.673322533718
 20
2372.05024454956
 10
-3285.673322533718
 20
2372.05024454956
 10
-3285.673322533718
 20
2372.05024454956
 10
-3285.673322533718
 20
2372.05024454956
 10
-3284.247142911535
 20
2372.05024454956
 10
-3284.247142911535
 20
2372.05024454956
 10
-3284.247142911535
 20
2372.05024454956
 10
-3282.820963289351
 20
2370.624496579806
 10
-3282.820963289351
 20
2370.624496579806
 10
-3282.820963289351
 20
2370.624496579806
 10
-3282.820963289351
 20
2370.624496579806
 10
-3282.820963289351
 20
2369.19874861005
 10
-3282.820963289351
 20
2369.19874861005
 10
-3282.820963289351
 20
2369.19874861005
 10
-3281.394783667168
 20
2369.19874861005
 10
-3281.394783667168
 20
2369.19874861005
 10
-3281.394783667168
 20
2369.19874861005
 10
-3281.394783667168
 20
2369.19874861005
 10
-3281.394783667168
 20
2369.19874861005
 10
-3281.394783667168
 20
2369.19874861005
 10
-3279.968604044985
 20
2367.773000640295
 10
-3279.968604044985
 20
2367.773000640295
 10
-3278.542424422802
 20
2367.773000640295
 10
-3278.542424422802
 20
2367.773000640295
 10
-3278.542424422802
 20
2367.773000640295
 10
-3277.116244800619
 20
2367.773000640295
 10
-3277.116244800619
 20
2367.773000640295
 10
-3275.690065178435
 20
2367.773000640295
 10
-3275.690065178435
 20
2367.773000640295
 10
-3275.690065178435
 20
2367.773000640295
 10
-3275.690065178435
 20
2367.773000640295
 10
-3274.263885556252
 20
2367.773000640295
 10
-3274.263885556252
 20
2367.773000640295
 10
-3274.263885556252
 20
2367.773000640295
 10
-3274.263885556252
 20
2367.773000640295
 10
-3274.263885556252
 20
2367.773000640295
 10
-3271.411526311886
 20
2367.773000640295
 10
-3269.985346689703
 20
2367.773000640295
 10
-3269.985346689703
 20
2367.773000640295
 10
-3268.55916706752
 20
2367.773000640295
 10
-3267.132987445337
 20
2367.773000640295
 10
-3267.132987445337
 20
2367.773000640295
 10
-3267.132987445337
 20
2367.773000640295
 10
-3265.706807823154
 20
2367.773000640295
 10
-3265.706807823154
 20
2367.773000640295
 10
-3265.706807823154
 20
2367.773000640295
 10
-3262.854448578787
 20
2367.773000640295
 10
-3261.428268956604
 20
2367.773000640295
 10
-3261.428268956604
 20
2367.773000640295
 10
-3261.428268956604
 20
2367.773000640295
 10
-3260.002089334421
 20
2367.773000640295
 10
-3260.002089334421
 20
2367.773000640295
 10
-3260.002089334421
 20
2367.773000640295
 10
-3258.575909712238
 20
2367.773000640295
 10
-3258.575909712238
 20
2367.773000640295
 10
-3258.575909712238
 20
2367.773000640295
 10
-3258.575909712238
 20
2367.773000640295
 10
-3258.575909712238
 20
2367.773000640295
 10
-3257.149730090055
 20
2367.773000640295
 10
-3255.723550467871
 20
2367.773000640295
 10
-3255.723550467871
 20
2367.773000640295
 10
-3255.723550467871
 20
2367.773000640295
 10
-3254.297370845688
 20
2367.773000640295
 10
-3254.297370845688
 20
2367.773000640295
 10
-3252.871191223505
 20
2367.773000640295
 10
-3252.871191223505
 20
2367.773000640295
 10
-3252.871191223505
 20
2369.19874861005
 10
-3252.871191223505
 20
2369.19874861005
 10
-3252.871191223505
 20
2369.19874861005
 10
-3251.445011601322
 20
2369.19874861005
 10
-3251.445011601322
 20
2369.19874861005
 10
-3251.445011601322
 20
2369.19874861005
 10
-3250.018831979139
 20
2369.19874861005
 10
-3250.018831979139
 20
2369.19874861005
 10
-3250.018831979139
 20
2369.19874861005
 10
-3248.592652356956
 20
2369.19874861005
 10
-3248.592652356956
 20
2369.19874861005
 10
-3248.592652356956
 20
2369.19874861005
 10
-3247.166472734772
 20
2369.19874861005
 10
-3247.166472734772
 20
2370.624496579806
 10
-3247.166472734772
 20
2370.624496579806
 10
-3245.740293112589
 20
2370.624496579806
 10
-3245.740293112589
 20
2370.624496579806
 10
-3245.740293112589
 20
2370.624496579806
 10
-3245.740293112589
 20
2370.624496579806
 10
-3245.740293112589
 20
2370.624496579806
 10
-3244.314113490406
 20
2370.624496579806
 10
-3244.314113490406
 20
2370.624496579806
 10
-3244.314113490406
 20
2370.624496579806
 10
-3242.887933868223
 20
2370.624496579806
 10
-3242.887933868223
 20
2370.624496579806
 10
-3242.887933868223
 20
2370.624496579806
 10
-3242.887933868223
 20
2370.624496579806
 10
-3242.887933868223
 20
2370.624496579806
 10
-3242.887933868223
 20
2370.624496579806
 10
-3241.46175424604
 20
2370.624496579806
 10
-3240.035574623857
 20
2370.624496579806
 10
-3240.035574623857
 20
2370.624496579806
 10
-3240.035574623857
 20
2370.624496579806
 10
-3240.035574623857
 20
2370.624496579806
 10
-3238.609395001673
 20
2370.624496579806
 10
-3238.609395001673
 20
2370.624496579806
 10
-3238.609395001673
 20
2370.624496579806
 10
-3238.609395001673
 20
2370.624496579806
 10
-3237.18321537949
 20
2370.624496579806
 10
-3237.18321537949
 20
2370.624496579806
 10
-3235.757035757307
 20
2370.624496579806
 10
-3235.757035757307
 20
2370.624496579806
 10
-3234.330856135124
 20
2370.624496579806
 10
-3232.904676512941
 20
2370.624496579806
 10
-3232.904676512941
 20
2370.624496579806
 10
-3232.904676512941
 20
2370.624496579806
 10
-3231.478496890757
 20
2370.624496579806
 10
-3231.478496890757
 20
2370.624496579806
 10
-3231.478496890757
 20
2370.624496579806
 10
-3230.052317268574
 20
2370.624496579806
 10
-3230.052317268574
 20
2370.624496579806
 10
-3230.052317268574
 20
2370.624496579806
 10
-3230.052317268574
 20
2370.624496579806
 10
-3230.052317268574
 20
2370.624496579806
 10
-3230.052317268574
 20
2370.624496579806
 10
-3228.626137646391
 20
2370.624496579806
 10
-3227.199958024208
 20
2370.624496579806
 10
-3227.199958024208
 20
2370.624496579806
 10
-3227.199958024208
 20
2370.624496579806
 10
-3227.199958024208
 20
2370.624496579806
 10
-3225.773778402025
 20
2370.624496579806
 10
-3225.773778402025
 20
2370.624496579806
 10
-3225.773778402025
 20
2370.624496579806
 10
-3224.347598779842
 20
2370.624496579806
 10
-3224.347598779842
 20
2370.624496579806
 10
-3224.347598779842
 20
2370.624496579806
 10
-3224.347598779842
 20
2370.624496579806
 10
-3224.347598779842
 20
2370.624496579806
 10
-3224.347598779842
 20
2370.624496579806
 10
-3224.347598779842
 20
2370.624496579806
 10
-3224.347598779842
 20
2370.624496579806
 10
-3224.347598779842
 20
2370.624496579806
 10
-3224.347598779842
 20
2370.624496579806
 10
-3224.347598779842
 20
2370.624496579806
 10
-3224.347598779842
 20
2370.624496579806
 10
-3224.347598779842
 20
2370.624496579806
 10
-3224.347598779842
 20
2370.624496579806
 10
-3224.347598779842
 20
2370.624496579806
 10
-3224.347598779842
 20
2370.624496579806
 10
-3224.347598779842
 20
2370.624496579806
 10
-3224.347598779842
 20
2370.624496579806
 10
-3224.347598779842
 20
2370.624496579806
 10
-3224.347598779842
 20
2370.624496579806
 10
-3224.347598779842
 20
2370.624496579806
 10
-3224.347598779842
 20
2370.624496579806
 10
-3224.347598779842
 20
2370.624496579806
 10
-3222.921419157658
 20
2370.624496579806
 10
-3222.921419157658
 20
2370.624496579806
 10
-3222.921419157658
 20
2370.624496579806
 10
-3222.921419157658
 20
2370.624496579806
 10
-3222.921419157658
 20
2370.624496579806
 10
-3222.921419157658
 20
2370.624496579806
 10
-3222.921419157658
 20
2370.624496579806
 10
-3221.495239535476
 20
2370.624496579806
 10
-3221.495239535476
 20
2370.624496579806
 10
-3221.495239535476
 20
2370.624496579806
 10
-3220.069059913292
 20
2370.624496579806
 10
-3220.069059913292
 20
2370.624496579806
 10
-3220.069059913292
 20
2370.624496579806
 10
-3220.069059913292
 20
2370.624496579806
 10
-3220.069059913292
 20
2370.624496579806
 10
-3220.069059913292
 20
2370.624496579806
 10
-3220.069059913292
 20
2370.624496579806
 10
-3220.069059913292
 20
2370.624496579806
 10
-3220.069059913292
 20
2370.624496579806
 10
-3220.069059913292
 20
2370.624496579806
 10
-3218.642880291109
 20
2372.05024454956
 10
-3218.642880291109
 20
2372.05024454956
 10
-3218.642880291109
 20
2372.05024454956
 10
-3218.642880291109
 20
2372.05024454956
 10
-3218.642880291109
 20
2372.05024454956
 10
-3218.642880291109
 20
2372.05024454956
 10
-3218.642880291109
 20
2372.05024454956
 10
-3218.642880291109
 20
2372.05024454956
 10
-3218.642880291109
 20
2372.05024454956
 10
-3218.642880291109
 20
2372.05024454956
 10
-3218.642880291109
 20
2372.05024454956
 10
-3218.642880291109
 20
2372.05024454956
 10
-3218.642880291109
 20
2372.05024454956
 10
-3217.216700668926
 20
2373.475992519316
 10
-3217.216700668926
 20
2373.475992519316
 10
-3217.216700668926
 20
2374.901740489071
 10
-3215.790521046743
 20
2374.901740489071
 10
-3215.790521046743
 20
2374.901740489071
 10
-3215.790521046743
 20
2374.901740489071
 10
-3215.790521046743
 20
2374.901740489071
 10
-3215.790521046743
 20
2376.327488458826
 10
-3215.790521046743
 20
2376.327488458826
 10
-3215.790521046743
 20
2377.753236428581
 10
-3214.36434142456
 20
2377.753236428581
 10
-3214.36434142456
 20
2379.178984398336
 10
-3214.36434142456
 20
2379.178984398336
 10
-3214.36434142456
 20
2379.178984398336
 10
-3214.36434142456
 20
2380.604732368091
 10
-3214.36434142456
 20
2380.604732368091
 10
-3214.36434142456
 20
2382.030480337847
 10
-3212.938161802376
 20
2382.030480337847
 10
-3212.938161802376
 20
2382.030480337847
 10
-3212.938161802376
 20
2383.456228307602
 10
-3212.938161802376
 20
2383.456228307602
 10
-3212.938161802376
 20
2384.881976277357
 10
-3211.511982180194
 20
2386.307724247112
 10
-3211.511982180194
 20
2387.733472216867
 10
-3211.511982180194
 20
2387.733472216867
 10
-3211.511982180194
 20
2389.159220186622
 10
-3211.511982180194
 20
2390.584968156377
 10
-3211.511982180193
 20
2392.010716126133
 10
-3211.511982180194
 20
2393.436464095887
 10
-3211.511982180194
 20
2396.287960035398
 10
-3211.511982180194
 20
2396.287960035398
 10
-3211.511982180194
 20
2397.713708005153
 10
-3211.511982180194
 20
2399.139455974908
 10
-3210.08580255801
 20
2400.565203944663
 10
-3210.08580255801
 20
2401.990951914418
 10
-3210.08580255801
 20
2401.990951914418
 10
-3210.08580255801
 20
2404.842447853929
 10
-3210.08580255801
 20
2404.842447853929
 10
-3210.08580255801
 20
2404.842447853929
 10
-3210.08580255801
 20
2406.268195823684
 10
-3210.08580255801
 20
2406.268195823684
 10
-3210.08580255801
 20
2407.693943793439
 10
-3210.08580255801
 20
2410.545439732949
 10
-3210.08580255801
 20
2410.545439732949
 10
-3210.08580255801
 20
2410.545439732949
 10
-3210.08580255801
 20
2411.971187702704
 10
-3210.08580255801
 20
2413.39693567246
 10
-3210.08580255801
 20
2414.822683642215
 10
-3210.08580255801
 20
2414.822683642215
 10
-3210.08580255801
 20
2414.822683642215
 10
-3210.08580255801
 20
2414.822683642215
 10
-3210.08580255801
 20
2414.822683642215
 10
-3210.08580255801
 20
2414.822683642215
 10
-3210.08580255801
 20
2416.24843161197
 10
-3210.08580255801
 20
2416.24843161197
 10
-3210.08580255801
 20
2416.24843161197
 10
-3210.08580255801
 20
2416.24843161197
 10
-3210.08580255801
 20
2416.24843161197
 10
-3210.08580255801
 20
2416.24843161197
 10
-3210.08580255801
 20
2416.24843161197
 10
-3210.08580255801
 20
2416.24843161197
 10
-3210.08580255801
 20
2417.674179581725
 10
-3210.08580255801
 20
2417.674179581725
 10
-3210.08580255801
 20
2417.674179581725
 10
-3210.08580255801
 20
2419.09992755148
 10
-3210.08580255801
 20
2419.09992755148
 10
-3210.08580255801
 20
2419.09992755148
 10
-3208.659622935827
 20
2419.09992755148
 10
-3208.659622935827
 20
2420.525675521235
 10
-3208.659622935827
 20
2421.95142349099
 10
-3208.659622935827
 20
2421.95142349099
 10
-3208.659622935827
 20
2421.95142349099
 10
-3207.233443313644
 20
2421.95142349099
 10
-3207.233443313644
 20
2421.95142349099
 10
-3207.233443313644
 20
2421.95142349099
 10
-3207.233443313644
 20
2421.95142349099
 10
-3207.233443313644
 20
2421.95142349099
 10
-3205.807263691461
 20
2423.377171460746
 10
-3205.807263691461
 20
2423.377171460746
 10
-3205.807263691461
 20
2424.802919430501
 10
-3205.807263691461
 20
2424.802919430501
 10
-3205.807263691461
 20
2424.802919430501
 10
-3204.381084069278
 20
2424.802919430501
 10
-3204.381084069278
 20
2426.228667400256
 10
-3204.381084069278
 20
2426.228667400256
 10
-3204.381084069278
 20
2426.228667400256
 10
-3204.381084069278
 20
2426.228667400256
 10
-3204.381084069278
 20
2426.228667400256
 10
-3204.381084069278
 20
2426.228667400256
 10
-3204.381084069278
 20
2426.228667400256
 10
-3204.381084069278
 20
2427.654415370011
 10
-3204.381084069278
 20
2427.654415370011
 10
-3204.381084069278
 20
2427.654415370011
 10
-3204.381084069278
 20
2427.654415370011
 10
-3204.381084069278
 20
2427.654415370011
 10
-3204.381084069278
 20
2427.654415370011
 10
-3204.381084069278
 20
2427.654415370011
 10
-3204.381084069278
 20
2429.080163339766
 10
-3204.381084069278
 20
2430.505911309521
 10
-3204.381084069278
 20
2430.505911309521
 10
-3204.381084069278
 20
2430.505911309521
 10
-3204.381084069278
 20
2430.505911309521
 10
-3204.381084069278
 20
2430.505911309521
 10
-3204.381084069278
 20
2430.505911309521
 10
-3204.381084069278
 20
2431.931659279277
 10
-3204.381084069278
 20
2431.931659279277
 10
-3204.381084069278
 20
2431.931659279277
 10
-3204.381084069278
 20
2431.931659279277
 10
-3204.381084069278
 20
2433.357407249031
 10
-3204.381084069278
 20
2433.357407249031
 10
-3204.381084069278
 20
2433.357407249031
 10
-3204.381084069278
 20
2433.357407249031
 10
-3204.381084069278
 20
2434.783155218787
 10
-3204.381084069278
 20
2434.783155218787
 10
-3204.381084069278
 20
2436.208903188542
 10
-3204.381084069278
 20
2436.208903188542
 10
-3204.381084069278
 20
2437.634651158297
 10
-3204.381084069278
 20
2437.634651158297
 10
-3204.381084069278
 20
2439.060399128052
 10
-3204.381084069278
 20
2439.060399128052
 10
-3204.381084069278
 20
2439.060399128052
 10
-3204.381084069278
 20
2439.060399128052
 10
-3204.381084069278
 20
2440.486147097807
 10
-3205.807263691461
 20
2440.486147097807
 10
-3205.807263691461
 20
2440.486147097807
 10
-3205.807263691461
 20
2440.486147097807
 10
-3207.233443313644
 20
2441.911895067562
 10
-3207.233443313644
 20
2441.911895067562
 10
-3208.659622935827
 20
2443.337643037317
 10
-3208.659622935827
 20
2443.337643037317
 10
-3210.08580255801
 20
2443.337643037317
 10
-3210.08580255801
 20
2443.337643037317
 10
-3210.08580255801
 20
2443.337643037317
 10
-3210.08580255801
 20
2443.337643037317
 10
-3214.36434142456
 20
2446.189138976828
 10
-3217.216700668926
 20
2446.189138976828
 10
-3218.642880291109
 20
2446.189138976828
 10
-3218.642880291109
 20
2446.189138976828
 10
-3218.642880291109
 20
2446.189138976828
 10
-3218.642880291109
 20
2446.189138976828
 10
-3220.069059913292
 20
2447.614886946583
 10
-3224.347598779842
 20
2447.614886946583
 10
-3224.347598779842
 20
2447.614886946583
 10
-3224.347598779842
 20
2447.614886946583
 10
-3225.773778402025
 20
2447.614886946583
 10
-3225.773778402025
 20
2447.614886946583
 10
-3227.199958024208
 20
2449.040634916338
 10
-3227.199958024208
 20
2449.040634916338
 10
-3228.626137646391
 20
2449.040634916338
 10
-3230.052317268574
 20
2449.040634916338
 10
-3230.052317268574
 20
2449.040634916338
 10
-3230.052317268574
 20
2449.040634916338
 10
-3231.478496890757
 20
2449.040634916338
 10
-3231.478496890757
 20
2450.466382886093
 10
-3232.904676512941
 20
2450.466382886093
 10
-3232.904676512941
 20
2450.466382886093
 10
-3232.904676512941
 20
2450.466382886093
 10
-3234.330856135124
 20
2450.466382886093
 10
-3235.757035757307
 20
2450.466382886093
 10
-3235.757035757307
 20
2450.466382886093
 10
-3237.18321537949
 20
2450.466382886093
 10
-3237.18321537949
 20
2450.466382886093
 10
-3238.609395001673
 20
2450.466382886093
 10
-3238.609395001673
 20
2450.466382886093
 10
-3240.035574623857
 20
2450.466382886093
 10
-3240.035574623857
 20
2450.466382886093
 10
-3241.46175424604
 20
2450.466382886093
 10
-3241.46175424604
 20
2450.466382886093
 10
-3241.46175424604
 20
2450.466382886093
 10
-3242.887933868223
 20
2450.466382886093
 10
-3242.887933868223
 20
2450.466382886093
 10
-3242.887933868223
 20
2450.466382886093
 10
-3244.314113490406
 20
2450.466382886093
 10
-3244.314113490406
 20
2450.466382886093
 10
-3245.740293112589
 20
2450.466382886093
 10
-3247.166472734772
 20
2450.466382886093
 10
-3247.166472734772
 20
2450.466382886093
 10
-3248.592652356956
 20
2450.466382886093
 10
-3248.592652356956
 20
2450.466382886093
 10
-3250.018831979139
 20
2450.466382886093
 10
-3250.018831979139
 20
2450.466382886093
 10
-3250.018831979139
 20
2450.466382886093
 10
-3250.018831979139
 20
2450.466382886093
 10
-3251.445011601322
 20
2450.466382886093
 10
-3251.445011601322
 20
2450.466382886093
 10
-3252.871191223505
 20
2450.466382886093
 10
-3252.871191223505
 20
2450.466382886093
 10
-3252.871191223505
 20
2450.466382886093
 10
-3254.297370845688
 20
2449.040634916338
 10
-3254.297370845688
 20
2449.040634916338
 10
-3255.723550467871
 20
2449.040634916338
 10
-3255.723550467871
 20
2449.040634916338
 10
-3258.575909712238
 20
2449.040634916338
 10
-3258.575909712238
 20
2449.040634916338
 10
-3260.002089334421
 20
2447.614886946583
 10
-3260.002089334421
 20
2447.614886946583
 10
-3261.428268956604
 20
2447.614886946583
 10
-3262.854448578787
 20
2447.614886946583
 10
-3262.854448578787
 20
2447.614886946583
 10
-3262.854448578787
 20
2447.614886946583
 10
-3264.28062820097
 20
2447.614886946583
 10
-3264.28062820097
 20
2447.614886946583
 10
-3265.706807823154
 20
2447.614886946583
 10
-3267.132987445337
 20
2446.189138976828
 10
-3267.132987445337
 20
2446.189138976828
 10
-3267.132987445337
 20
2446.189138976828
 10
-3268.55916706752
 20
2446.189138976828
 10
-3268.55916706752
 20
2446.189138976828
 10
-3268.55916706752
 20
2446.189138976828
 10
-3271.411526311886
 20
2446.189138976828
 10
-3271.411526311886
 20
2444.763391007073
 10
-3272.837705934069
 20
2444.763391007073
 10
-3272.837705934069
 20
2444.763391007073
 10
-3272.837705934069
 20
2444.763391007073
 10
-3272.837705934069
 20
2444.763391007073
 10
-3275.690065178435
 20
2444.763391007073
 10
-3275.690065178435
 20
2444.763391007073
 10
-3275.690065178435
 20
2444.763391007073
 10
-3275.690065178435
 20
2444.763391007073
 10
-3275.690065178435
 20
2444.763391007073
 10
-3275.690065178435
 20
2444.763391007073
 10
-3275.690065178435
 20
2444.763391007073
 10
-3288.525681778084
 20
2444.763391007073
 10
-3289.951861400267
 20
2443.337643037317
 10
-3291.37804102245
 20
2443.337643037317
 10
-3291.37804102245
 20
2443.337643037317
 10
-3292.804220644633
 20
2441.911895067562
 10
-3294.230400266817
 20
2441.911895067562
 10
-3295.656579889
 20
2441.911895067562
 10
-3295.656579889
 20
2441.911895067562
 10
-3298.508939133366
 20
2441.911895067562
 10
-3298.508939133366
 20
2441.911895067562
 10
-3299.935118755549
 20
2441.911895067562
 10
-3304.213657622099
 20
2440.486147097807
 10
-3305.639837244282
 20
2440.486147097807
 10
-3307.066016866465
 20
2440.486147097807
 10
-3307.066016866465
 20
2440.486147097807
 10
-3308.492196488648
 20
2440.486147097807
 10
-3308.492196488648
 20
2440.486147097807
 10
-3309.918376110832
 20
2440.486147097807
 10
-3311.344555733015
 20
2440.486147097807
 10
-3311.344555733015
 20
2440.486147097807
 10
-3312.770735355198
 20
2439.060399128052
 10
-3314.196914977381
 20
2439.060399128052
 10
-3315.623094599564
 20
2439.060399128052
 10
-3317.049274221747
 20
2439.060399128052
 10
-3319.901633466114
 20
2439.060399128052
 10
-3319.901633466114
 20
2439.060399128052
 10
-3321.327813088297
 20
2437.634651158297
 10
-3321.327813088297
 20
2437.634651158297
 10
-3321.327813088297
 20
2437.634651158297
 10
-3321.327813088297
 20
2437.634651158297
 10
-3327.032531577029
 20
2437.634651158297
 10
-3327.032531577029
 20
2437.634651158297
 10
-3328.458711199212
 20
2437.634651158297
 10
-3328.458711199212
 20
2437.634651158297
 10
-3329.884890821396
 20
2437.634651158297
 10
-3332.737250065762
 20
2437.634651158297
 10
-3332.737250065762
 20
2437.634651158297
 10
-3332.737250065762
 20
2437.634651158297
 10
-3332.737250065762
 20
2437.634651158297
 10
-3334.163429687945
 20
2437.634651158297
 10
-3334.163429687945
 20
2437.634651158297
 10
-3334.163429687945
 20
2437.634651158297
 10
-3334.163429687945
 20
2437.634651158297
 10
-3335.589609310128
 20
2437.634651158297
 10
-3335.589609310128
 20
2437.634651158297
 10
-3335.589609310128
 20
2437.634651158297
 10
-3337.015788932312
 20
2437.634651158297
 10
-3337.015788932312
 20
2437.634651158297
 10
-3337.015788932312
 20
2437.634651158297
 10
-3338.441968554494
 20
2437.634651158297
 10
-3341.294327798861
 20
2437.634651158297
 10
-3341.294327798861
 20
2437.634651158297
 10
-3341.294327798861
 20
2437.634651158297
 10
-3342.720507421044
 20
2437.634651158297
 10
-3344.146687043227
 20
2437.634651158297
 10
-3344.146687043227
 20
2437.634651158297
 10
-3344.146687043227
 20
2437.634651158297
 10
-3344.146687043227
 20
2437.634651158297
 10
-3348.425225909777
 20
2437.634651158297
 10
-3348.425225909777
 20
2437.634651158297
 10
-3351.277585154143
 20
2437.634651158297
 10
-3352.703764776326
 20
2437.634651158297
 10
-3352.703764776326
 20
2437.634651158297
 10
-3352.703764776326
 20
2437.634651158297
 10
-3354.129944398509
 20
2437.634651158297
 10
-3355.556124020693
 20
2437.634651158297
 10
-3355.556124020693
 20
2437.634651158297
 10
-3356.982303642876
 20
2437.634651158297
 10
-3356.982303642876
 20
2437.634651158297
 10
-3358.408483265059
 20
2437.634651158297
 10
-3358.408483265059
 20
2437.634651158297
 10
-3358.408483265059
 20
2437.634651158297
 10
-3359.834662887242
 20
2437.634651158297
 10
-3359.834662887242
 20
2437.634651158297
 10
-3361.260842509425
 20
2437.634651158297
 10
-3361.260842509425
 20
2437.634651158297
 10
-3362.687022131609
 20
2437.634651158297
 10
-3362.687022131609
 20
2437.634651158297
 10
-3362.687022131609
 20
2437.634651158297
 10
-3364.113201753792
 20
2437.634651158297
 10
-3364.113201753792
 20
2437.634651158297
 10
-3365.539381375975
 20
2437.634651158297
 10
-3366.965560998158
 20
2437.634651158297
 10
-3366.965560998158
 20
2437.634651158297
 10
-3368.391740620341
 20
2437.634651158297
 10
-3368.391740620341
 20
2437.634651158297
 10
-3369.817920242524
 20
2437.634651158297
 10
-3369.817920242524
 20
2437.634651158297
 10
-3371.244099864708
 20
2437.634651158297
 10
-3372.670279486891
 20
2437.634651158297
 10
-3374.096459109073
 20
2437.634651158297
 10
-3374.096459109073
 20
2437.634651158297
 10
-3374.096459109074
 20
2439.060399128052
 10
-3375.522638731257
 20
2439.060399128052
 10
-3375.522638731257
 20
2439.060399128052
 10
-3375.522638731257
 20
2439.060399128052
 10
-3376.94881835344
 20
2439.060399128052
 10
-3376.94881835344
 20
2439.060399128052
 10
-3378.374997975623
 20
2439.060399128052
 10
-3378.374997975623
 20
2439.060399128052
 10
-3378.374997975623
 20
2439.060399128052
 10
-3378.374997975623
 20
2439.060399128052
 10
-3379.801177597807
 20
2439.060399128052
 10
-3379.801177597807
 20
2439.060399128052
 10
-3379.801177597807
 20
2439.060399128052
 10
-3379.801177597807
 20
2439.060399128052
 10
-3379.801177597807
 20
2439.060399128052
 10
-3381.227357219989
 20
2439.060399128052
 10
-3381.227357219989
 20
2439.060399128052
 10
-3382.653536842173
 20
2439.060399128052
 10
-3384.079716464356
 20
2440.486147097807
 10
-3384.079716464356
 20
2440.486147097807
 10
-3385.505896086539
 20
2440.486147097807
 10
-3385.505896086539
 20
2440.486147097807
 10
-3385.505896086539
 20
2440.486147097807
 10
-3386.932075708722
 20
2440.486147097807
 10
-3386.932075708722
 20
2440.486147097807
 10
-3386.932075708722
 20
2440.486147097807
 10
-3386.932075708722
 20
2440.486147097807
 10
-3386.932075708722
 20
2440.486147097807
 10
-3388.358255330905
 20
2440.486147097807
 10
-3388.358255330905
 20
2440.486147097807
 10
-3389.784434953088
 20
2440.486147097807
 10
-3389.784434953088
 20
2440.486147097807
 10
-3389.784434953088
 20
2440.486147097807
 10
-3391.210614575271
 20
2440.486147097807
 10
-3391.210614575271
 20
2440.486147097807
 10
-3391.210614575271
 20
2440.486147097807
 10
-3392.636794197454
 20
2440.486147097807
 10
-3392.636794197454
 20
2440.486147097807
 10
-3394.062973819638
 20
2440.486147097807
 10
-3395.489153441821
 20
2440.486147097807
 10
-3396.915333064004
 20
2440.486147097807
 10
-3396.915333064004
 20
2440.486147097807
 10
-3396.915333064004
 20
2440.486147097807
 10
-3396.915333064004
 20
2440.486147097807
 10
-3396.915333064004
 20
2440.486147097807
 10
-3396.915333064004
 20
2440.486147097807
 10
-3396.915333064004
 20
2440.486147097807
 10
-3398.341512686187
 20
2440.486147097807
 10
-3398.341512686187
 20
2440.486147097807
 10
-3398.341512686187
 20
2440.486147097807
 10
-3398.341512686187
 20
2439.060399128052
 10
-3398.341512686187
 20
2439.060399128052
 10
-3398.341512686187
 20
2439.060399128052
 10
-3398.341512686187
 20
2437.634651158297
 10
-3398.341512686187
 20
2437.634651158297
 10
-3398.341512686187
 20
2437.634651158297
 10
-3399.76769230837
 20
2437.634651158297
 10
-3399.76769230837
 20
2437.634651158297
 10
-3401.193871930554
 20
2436.208903188542
 10
-3401.193871930554
 20
2436.208903188542
 10
-3401.193871930554
 20
2434.783155218787
 10
-3401.193871930554
 20
2434.783155218787
 10
-3401.193871930554
 20
2434.783155218787
 10
-3401.193871930554
 20
2434.783155218787
 10
-3402.620051552737
 20
2433.357407249031
 10
-3402.620051552737
 20
2431.931659279277
 10
-3402.620051552737
 20
2431.931659279277
 10
-3402.620051552737
 20
2431.931659279277
 10
-3402.620051552737
 20
2431.931659279277
 10
-3402.620051552737
 20
2431.931659279277
 10
-3402.620051552737
 20
2430.505911309521
 10
-3404.04623117492
 20
2430.505911309521
 10
-3404.04623117492
 20
2429.080163339766
 10
-3404.04623117492
 20
2429.080163339766
 10
-3405.472410797103
 20
2429.080163339766
 10
-3405.472410797103
 20
2429.080163339766
 10
-3405.472410797103
 20
2429.080163339766
 10
-3405.472410797103
 20
2429.080163339766
 10
-3405.472410797103
 20
2429.080163339766
 10
-3405.472410797103
 20
2429.080163339766
 10
-3405.472410797103
 20
2429.080163339766
 10
-3405.472410797103
 20
2429.080163339766
 10
-3406.898590419286
 20
2429.080163339766
 10
-3406.898590419286
 20
2427.654415370011
 10
-3406.898590419286
 20
2427.654415370011
 10
-3406.898590419286
 20
2427.654415370011
 10
-3406.898590419286
 20
2427.654415370011
 10
-3406.898590419286
 20
2427.654415370011
 10
-3408.324770041469
 20
2427.654415370011
 10
-3408.324770041469
 20
2426.228667400256
 10
-3408.324770041469
 20
2426.228667400256
 10
-3408.324770041469
 20
2426.228667400256
 10
-3408.324770041469
 20
2426.228667400256
 10
-3408.324770041469
 20
2426.228667400256
 10
-3408.324770041469
 20
2426.228667400256
 10
-3408.324770041469
 20
2426.228667400256
 10
-3408.324770041469
 20
2426.228667400256
 10
-3408.324770041469
 20
2426.228667400256
 10
-3408.324770041469
 20
2426.228667400256
 10
-3408.324770041469
 20
2424.802919430501
 10
-3409.750949663653
 20
2424.802919430501
 10
-3409.750949663653
 20
2424.802919430501
 10
-3409.750949663653
 20
2424.802919430501
 10
-3409.750949663653
 20
2423.377171460746
 10
-3409.750949663653
 20
2423.377171460746
 10
-3409.750949663653
 20
2423.377171460746
 10
-3409.750949663653
 20
2421.95142349099
 10
-3409.750949663653
 20
2421.95142349099
 10
-3409.750949663653
 20
2421.95142349099
 10
-3409.750949663653
 20
2421.95142349099
 10
-3409.750949663653
 20
2420.525675521235
 10
-3409.750949663653
 20
2419.09992755148
 10
-3409.750949663653
 20
2419.09992755148
 10
-3409.750949663653
 20
2419.09992755148
 10
-3409.750949663653
 20
2419.09992755148
 10
-3409.750949663653
 20
2417.674179581725
 10
-3409.750949663653
 20
2417.674179581725
 10
-3409.750949663653
 20
2417.674179581725
 10
-3409.750949663653
 20
2417.674179581725
 10
-3409.750949663653
 20
2417.674179581725
 10
-3409.750949663653
 20
2416.24843161197
 10
-3409.750949663653
 20
2416.24843161197
 10
-3409.750949663653
 20
2414.822683642215
 10
-3409.750949663653
 20
2414.822683642215
 10
-3409.750949663653
 20
2414.822683642215
 10
-3409.750949663653
 20
2414.822683642215
 10
-3409.750949663653
 20
2414.822683642215
 10
-3409.750949663653
 20
2414.822683642215
 10
-3409.750949663653
 20
2411.971187702704
 10
-3409.750949663653
 20
2411.971187702704
 10
-3409.750949663653
 20
2411.971187702704
 10
-3409.750949663653
 20
2411.971187702704
 10
-3409.750949663653
 20
2411.971187702704
 10
-3409.750949663653
 20
2411.971187702704
 10
-3409.750949663653
 20
2410.545439732949
 10
-3409.750949663653
 20
2410.545439732949
 10
-3409.750949663653
 20
2409.119691763194
 10
-3409.750949663653
 20
2409.119691763194
 10
-3409.750949663653
 20
2407.693943793439
 10
-3409.750949663653
 20
2407.693943793439
 10
-3409.750949663653
 20
2406.268195823684
 10
-3409.750949663653
 20
2406.268195823684
 10
-3409.750949663653
 20
2406.268195823684
 10
-3409.750949663653
 20
2406.268195823684
 10
-3409.750949663653
 20
2404.842447853929
 10
-3409.750949663653
 20
2404.842447853929
 10
-3409.750949663653
 20
2403.416699884174
 10
-3409.750949663653
 20
2403.416699884174
 10
-3409.750949663653
 20
2401.990951914418
 10
-3409.750949663653
 20
2400.565203944663
 10
-3409.750949663653
 20
2400.565203944663
 10
-3409.750949663653
 20
2400.565203944663
 10
-3409.750949663653
 20
2399.139455974908
 10
-3409.750949663653
 20
2399.139455974908
 10
-3409.750949663653
 20
2397.713708005153
 10
-3409.750949663653
 20
2397.713708005153
 10
-3409.750949663653
 20
2396.287960035398
 10
-3409.750949663653
 20
2394.862212065643
 10
-3409.750949663653
 20
2394.862212065643
 10
-3409.750949663653
 20
2394.862212065643
 10
-3409.750949663653
 20
2393.436464095887
 10
-3409.750949663653
 20
2393.436464095887
 10
-3409.750949663653
 20
2392.010716126133
 10
-3409.750949663653
 20
2392.010716126133
 10
-3409.750949663653
 20
2390.584968156377
 10
-3409.750949663653
 20
2390.584968156377
 10
-3409.750949663653
 20
2389.159220186622
 10
-3409.750949663653
 20
2389.159220186622
 10
-3409.750949663653
 20
2389.159220186622
 10
-3409.750949663653
 20
2389.159220186622
 10
-3408.324770041469
 20
2386.307724247112
 10
-3408.324770041469
 20
2384.881976277357
 10
-3408.324770041469
 20
2384.881976277357
 10
-3408.324770041469
 20
2384.881976277357
 10
-3408.324770041469
 20
2383.456228307602
 10
-3408.324770041469
 20
2383.456228307602
 10
-3408.324770041469
 20
2382.030480337847
 10
-3408.324770041469
 20
2382.030480337847
 10
-3408.324770041469
 20
2380.604732368091
 10
-3408.324770041469
 20
2380.604732368091
 10
-3408.324770041469
 20
2379.178984398336
 10
-3408.324770041469
 20
2379.178984398336
 10
-3408.324770041469
 20
2379.178984398336
 10
-3408.324770041469
 20
2377.753236428581
 10
-3408.324770041469
 20
2377.753236428581
 10
-3408.324770041469
 20
2377.753236428581
 10
-3408.324770041469
 20
2377.753236428581
 10
-3405.472410797103
 20
2372.05024454956
 10
-3405.472410797103
 20
2372.05024454956
 10
-3405.472410797103
 20
2372.05024454956
 10
-3405.472410797103
 20
2370.624496579806
 10
-3405.472410797103
 20
2370.624496579806
 10
-3405.472410797103
 20
2370.624496579806
 10
-3405.472410797103
 20
2370.624496579806
 10
-3405.472410797103
 20
2370.624496579806
 10
-3404.04623117492
 20
2367.773000640295
 10
-3404.04623117492
 20
2367.773000640295
 10
-3404.04623117492
 20
2367.773000640295
 10
-3404.04623117492
 20
2367.773000640295
 10
-3404.04623117492
 20
2367.773000640295
 10
-3404.04623117492
 20
2367.773000640295
 10
-3404.04623117492
 20
2367.773000640295
 10
-3404.04623117492
 20
2367.773000640295
 10
-3404.04623117492
 20
2367.773000640295
 10
-3404.04623117492
 20
2367.773000640295
 10
-3404.04623117492
 20
2367.773000640295
 10
-3404.04623117492
 20
2367.773000640295
 10
-3404.04623117492
 20
2367.773000640295
 10
-3404.04623117492
 20
2367.773000640295
 10
-3404.04623117492
 20
2367.773000640295
 10
-3404.04623117492
 20
2367.773000640295
 10
-3404.04623117492
 20
2367.773000640295
 10
-3404.04623117492
 20
2367.773000640295
 10
-3404.04623117492
 20
2367.773000640295
 10
-3404.04623117492
 20
2367.773000640295
 10
-3404.04623117492
 20
2367.773000640295
 10
-3404.04623117492
 20
2367.773000640295
 10
-3404.04623117492
 20
2367.773000640295
 10
-3404.04623117492
 20
2367.773000640295
 10
-3404.04623117492
 20
2367.773000640295
 10
-3404.04623117492
 20
2367.773000640295
  0
LWPOLYLINE
  5
58
100
AcDbEntity
  8
54
  6
ByLayer
 62
  256
370
   -1
100
AcDbPolyline
 90
  973
 70
    1
 43
0
 10
-3070.320199584061
 20
2380.604732368091
 10
-3070.320199584061
 20
2380.604732368091
 10
-3070.320199584061
 20
2380.604732368091
 10
-3070.320199584061
 20
2380.604732368091
 10
-3070.320199584061
 20
2380.604732368091
 10
-3070.320199584061
 20
2380.604732368091
 10
-3070.320199584061
 20
2380.604732368091
 10
-3070.320199584061
 20
2380.604732368091
 10
-3070.320199584061
 20
2380.604732368091
 10
-3070.320199584061
 20
2380.604732368091
 10
-3070.320199584061
 20
2380.604732368091
 10
-3070.320199584061
 20
2380.604732368091
 10
-3070.320199584061
 20
2380.604732368091
 10
-3070.320199584061
 20
2380.604732368091
 10
-3070.320199584061
 20
2380.604732368091
 10
-3070.320199584061
 20
2380.604732368091
 10
-3070.320199584061
 20
2380.604732368091
 10
-3070.320199584061
 20
2380.604732368091
 10
-3070.320199584061
 20
2380.604732368091
 10
-3070.320199584061
 20
2380.604732368091
 10
-3070.320199584061
 20
2380.604732368091
 10
-3070.320199584061
 20
2380.604732368091
 10
-3068.894019961877
 20
2380.604732368091
 10
-3067.467840339694
 20
2380.604732368091
 10
-3067.467840339694
 20
2380.604732368091
 10
-3066.041660717511
 20
2380.604732368091
 10
-3066.041660717511
 20
2380.604732368091
 10
-3066.041660717511
 20
2380.604732368091
 10
-3064.615481095328
 20
2380.604732368091
 10
-3064.615481095328
 20
2380.604732368091
 10
-3064.615481095328
 20
2380.604732368091
 10
-3064.615481095328
 20
2380.604732368091
 10
-3064.615481095328
 20
2380.604732368091
 10
-3064.615481095328
 20
2380.604732368091
 10
-3064.615481095328
 20
2380.604732368091
 10
-3064.615481095328
 20
2380.604732368091
 10
-3064.615481095328
 20
2380.604732368091
 10
-3063.189301473144
 20
2380.604732368091
 10
-3063.189301473144
 20
2380.604732368091
 10
-3063.189301473144
 20
2380.604732368091
 10
-3063.189301473144
 20
2380.604732368091
 10
-3061.763121850961
 20
2380.604732368091
 10
-3061.763121850961
 20
2380.604732368091
 10
-3061.763121850961
 20
2380.604732368091
 10
-3061.763121850961
 20
2380.604732368091
 10
-3060.336942228778
 20
2380.604732368091
 10
-3060.336942228778
 20
2380.604732368091
 10
-3060.336942228778
 20
2380.604732368091
 10
-3060.336942228778
 20
2380.604732368091
 10
-3060.336942228778
 20
2380.604732368091
 10
-3060.336942228778
 20
2380.604732368091
 10
-3060.336942228778
 20
2380.604732368091
 10
-3058.910762606595
 20
2380.604732368091
 10
-3058.910762606595
 20
2380.604732368091
 10
-3058.910762606595
 20
2380.604732368091
 10
-3057.484582984412
 20
2380.604732368091
 10
-3057.484582984412
 20
2380.604732368091
 10
-3057.484582984412
 20
2380.604732368091
 10
-3057.484582984412
 20
2380.604732368091
 10
-3057.484582984412
 20
2380.604732368091
 10
-3057.484582984412
 20
2380.604732368091
 10
-3057.484582984412
 20
2380.604732368091
 10
-3057.484582984412
 20
2380.604732368091
 10
-3057.484582984412
 20
2380.604732368091
 10
-3056.058403362229
 20
2380.604732368091
 10
-3054.632223740045
 20
2380.604732368091
 10
-3054.632223740045
 20
2380.604732368091
 10
-3054.632223740045
 20
2380.604732368091
 10
-3053.206044117863
 20
2380.604732368091
 10
-3053.206044117863
 20
2380.604732368091
 10
-3053.206044117863
 20
2380.604732368091
 10
-3053.206044117863
 20
2380.604732368091
 10
-3053.206044117863
 20
2380.604732368091
 10
-3051.779864495679
 20
2380.604732368091
 10
-3051.779864495679
 20
2380.604732368091
 10
-3051.779864495679
 20
2380.604732368091
 10
-3051.779864495679
 20
2380.604732368091
 10
-3050.353684873497
 20
2380.604732368091
 10
-3050.353684873497
 20
2380.604732368091
 10
-3048.927505251314
 20
2380.604732368091
 10
-3048.927505251314
 20
2380.604732368091
 10
-3048.927505251314
 20
2380.604732368091
 10
-3048.927505251314
 20
2380.604732368091
 10
-3047.50132562913
 20
2380.604732368091
 10
-3047.50132562913
 20
2380.604732368091
 10
-3047.50132562913
 20
2380.604732368091
 10
-3046.075146006947
 20
2380.604732368091
 10
-3046.075146006947
 20
2380.604732368091
 10
-3046.075146006947
 20
2380.604732368091
 10
-3046.075146006947
 20
2380.604732368091
 10
-3044.648966384764
 20
2380.604732368091
 10
-3044.648966384764
 20
2380.604732368091
 10
-3044.648966384764
 20
2380.604732368091
 10
-3044.648966384764
 20
2380.604732368091
 10
-3044.648966384764
 20
2380.604732368091
 10
-3043.222786762581
 20
2380.604732368091
 10
-3043.222786762581
 20
2380.604732368091
 10
-3043.222786762581
 20
2380.604732368091
 10
-3041.796607140398
 20
2380.604732368091
 10
-3041.796607140398
 20
2380.604732368091
 10
-3041.796607140398
 20
2380.604732368091
 10
-3041.796607140398
 20
2380.604732368091
 10
-3041.796607140398
 20
2380.604732368091
 10
-3041.796607140398
 20
2380.604732368091
 10
-3040.370427518214
 20
2380.604732368091
 10
-3040.370427518214
 20
2380.604732368091
 10
-3040.370427518214
 20
2380.604732368091
 10
-3040.370427518214
 20
2380.604732368091
 10
-3040.370427518214
 20
2380.604732368091
 10
-3040.370427518214
 20
2380.604732368091
 10
-3038.944247896031
 20
2380.604732368091
 10
-3038.944247896031
 20
2380.604732368091
 10
-3038.944247896031
 20
2380.604732368091
 10
-3038.944247896031
 20
2380.604732368091
 10
-3037.518068273848
 20
2380.604732368091
 10
-3037.518068273848
 20
2380.604732368091
 10
-3037.518068273848
 20
2380.604732368091
 10
-3037.518068273848
 20
2380.604732368091
 10
-3036.091888651665
 20
2380.604732368091
 10
-3036.091888651665
 20
2380.604732368091
 10
-3034.665709029482
 20
2380.604732368091
 10
-3034.665709029482
 20
2380.604732368091
 10
-3034.665709029482
 20
2380.604732368091
 10
-3034.665709029482
 20
2380.604732368091
 10
-3034.665709029482
 20
2380.604732368091
 10
-3034.665709029482
 20
2380.604732368091
 10
-3034.665709029482
 20
2380.604732368091
 10
-3034.665709029482
 20
2380.604732368091
 10
-3033.239529407299
 20
2380.604732368091
 10
-3033.239529407299
 20
2380.604732368091
 10
-3031.813349785115
 20
2380.604732368091
 10
-3031.813349785115
 20
2380.604732368091
 10
-3031.813349785115
 20
2380.604732368091
 10
-3031.813349785115
 20
2380.604732368091
 10
-3031.813349785115
 20
2380.604732368091
 10
-3030.387170162932
 20
2380.604732368091
 10
-3030.387170162932
 20
2380.604732368091
 10
-3030.387170162932
 20
2382.030480337847
 10
-3030.387170162932
 20
2382.030480337847
 10
-3028.960990540749
 20
2382.030480337847
 10
-3028.960990540749
 20
2382.030480337847
 10
-3028.960990540749
 20
2382.030480337847
 10
-3028.960990540749
 20
2382.030480337847
 10
-3028.960990540749
 20
2382.030480337847
 10
-3028.960990540749
 20
2382.030480337847
 10
-3028.960990540749
 20
2382.030480337847
 10
-3028.960990540749
 20
2382.030480337847
 10
-3027.534810918566
 20
2382.030480337847
 10
-3026.108631296383
 20
2382.030480337847
 10
-3026.108631296383
 20
2382.030480337847
 10
-3026.108631296383
 20
2382.030480337847
 10
-3024.682451674199
 20
2382.030480337847
 10
-3024.682451674199
 20
2382.030480337847
 10
-3024.682451674199
 20
2382.030480337847
 10
-3024.682451674199
 20
2382.030480337847
 10
-3024.682451674199
 20
2382.030480337847
 10
-3024.682451674199
 20
2382.030480337847
 10
-3023.256272052016
 20
2382.030480337847
 10
-3023.256272052016
 20
2382.030480337847
 10
-3023.256272052016
 20
2382.030480337847
 10
-3023.256272052016
 20
2382.030480337847
 10
-3021.830092429833
 20
2382.030480337847
 10
-3021.830092429833
 20
2382.030480337847
 10
-3021.830092429833
 20
2382.030480337847
 10
-3021.830092429833
 20
2382.030480337847
 10
-3021.830092429833
 20
2382.030480337847
 10
-3021.830092429833
 20
2382.030480337847
 10
-3020.40391280765
 20
2382.030480337847
 10
-3020.40391280765
 20
2382.030480337847
 10
-3020.40391280765
 20
2382.030480337847
 10
-3018.977733185467
 20
2382.030480337847
 10
-3018.977733185467
 20
2382.030480337847
 10
-3018.977733185467
 20
2382.030480337847
 10
-3017.551553563284
 20
2382.030480337847
 10
-3017.551553563284
 20
2382.030480337847
 10
-3017.551553563284
 20
2383.456228307602
 10
-3017.551553563284
 20
2383.456228307602
 10
-3017.551553563284
 20
2383.456228307602
 10
-3017.551553563284
 20
2383.456228307602
 10
-3017.551553563284
 20
2383.456228307602
 10
-3016.1253739411
 20
2383.456228307602
 10
-3016.1253739411
 20
2383.456228307602
 10
-3016.1253739411
 20
2383.456228307602
 10
-3016.1253739411
 20
2383.456228307602
 10
-3016.125373941101
 20
2384.881976277357
 10
-3016.125373941101
 20
2384.881976277357
 10
-3016.125373941101
 20
2384.881976277357
 10
-3016.125373941101
 20
2384.881976277357
 10
-3016.125373941101
 20
2384.881976277357
 10
-3016.125373941101
 20
2384.881976277357
 10
-3016.125373941101
 20
2384.881976277357
 10
-3016.125373941101
 20
2384.881976277357
 10
-3016.125373941101
 20
2384.881976277357
 10
-3016.125373941101
 20
2384.881976277357
 10
-3016.125373941101
 20
2384.881976277357
 10
-3016.125373941101
 20
2384.881976277357
 10
-3016.125373941101
 20
2384.881976277357
 10
-3016.125373941101
 20
2384.881976277357
 10
-3016.125373941101
 20
2384.881976277357
 10
-3016.125373941101
 20
2384.881976277357
 10
-3016.125373941101
 20
2384.881976277357
 10
-3016.125373941101
 20
2384.881976277357
 10
-3016.125373941101
 20
2384.881976277357
 10
-3016.1253739411
 20
2386.307724247112
 10
-3016.1253739411
 20
2386.307724247112
 10
-3016.1253739411
 20
2386.307724247112
 10
-3016.1253739411
 20
2386.307724247112
 10
-3016.1253739411
 20
2386.307724247112
 10
-3016.1253739411
 20
2386.307724247112
 10
-3016.1253739411
 20
2386.307724247112
 10
-3016.1253739411
 20
2387.733472216867
 10
-3016.1253739411
 20
2387.733472216867
 10
-3016.1253739411
 20
2387.733472216867
 10
-3016.1253739411
 20
2387.733472216867
 10
-3016.1253739411
 20
2387.733472216867
 10
-3016.1253739411
 20
2387.733472216867
 10
-3016.1253739411
 20
2387.733472216867
 10
-3016.1253739411
 20
2387.733472216867
 10
-3016.1253739411
 20
2387.733472216867
 10
-3016.1253739411
 20
2389.159220186622
 10
-3016.1253739411
 20
2389.159220186622
 10
-3017.551553563284
 20
2389.159220186622
 10
-3017.551553563284
 20
2389.159220186622
 10
-3017.551553563284
 20
2389.159220186622
 10
-3017.551553563284
 20
2390.584968156377
 10
-3017.551553563284
 20
2390.584968156377
 10
-3017.551553563284
 20
2390.584968156377
 10
-3018.977733185467
 20
2390.584968156377
 10
-3018.977733185467
 20
2392.010716126133
 10
-3018.977733185467
 20
2392.010716126133
 10
-3018.977733185467
 20
2392.010716126133
 10
-3020.40391280765
 20
2393.436464095887
 10
-3020.40391280765
 20
2393.436464095887
 10
-3020.40391280765
 20
2393.436464095887
 10
-3020.40391280765
 20
2393.436464095887
 10
-3020.40391280765
 20
2396.287960035398
 10
-3020.40391280765
 20
2396.287960035398
 10
-3020.40391280765
 20
2396.287960035398
 10
-3020.40391280765
 20
2397.713708005153
 10
-3020.40391280765
 20
2397.713708005153
 10
-3021.830092429833
 20
2399.139455974908
 10
-3021.830092429833
 20
2399.139455974908
 10
-3021.830092429833
 20
2399.139455974908
 10
-3021.830092429833
 20
2400.565203944663
 10
-3021.830092429833
 20
2401.990951914418
 10
-3021.830092429833
 20
2401.990951914418
 10
-3021.830092429833
 20
2401.990951914418
 10
-3021.830092429833
 20
2403.416699884174
 10
-3021.830092429833
 20
2403.416699884174
 10
-3021.830092429833
 20
2404.842447853929
 10
-3021.830092429833
 20
2404.842447853929
 10
-3021.830092429833
 20
2404.842447853929
 10
-3021.830092429833
 20
2406.268195823684
 10
-3021.830092429833
 20
2407.693943793439
 10
-3021.830092429833
 20
2407.693943793439
 10
-3021.830092429833
 20
2407.693943793439
 10
-3021.830092429833
 20
2407.693943793439
 10
-3021.830092429833
 20
2407.693943793439
 10
-3021.830092429833
 20
2407.693943793439
 10
-3021.830092429833
 20
2409.119691763194
 10
-3021.830092429833
 20
2409.119691763194
 10
-3021.830092429833
 20
2409.119691763194
 10
-3021.830092429833
 20
2409.119691763194
 10
-3021.830092429833
 20
2410.545439732949
 10
-3021.830092429833
 20
2410.545439732949
 10
-3021.830092429833
 20
2410.545439732949
 10
-3021.830092429833
 20
2410.545439732949
 10
-3023.256272052016
 20
2411.971187702704
 10
-3023.256272052016
 20
2413.39693567246
 10
-3023.256272052016
 20
2413.39693567246
 10
-3023.256272052016
 20
2413.39693567246
 10
-3023.256272052016
 20
2414.822683642215
 10
-3023.256272052016
 20
2414.822683642215
 10
-3023.256272052016
 20
2414.822683642215
 10
-3024.682451674199
 20
2414.822683642215
 10
-3024.682451674199
 20
2414.822683642215
 10
-3024.682451674199
 20
2416.24843161197
 10
-3024.682451674199
 20
2416.24843161197
 10
-3024.682451674199
 20
2416.24843161197
 10
-3024.682451674199
 20
2416.24843161197
 10
-3024.682451674199
 20
2417.674179581725
 10
-3024.682451674199
 20
2417.674179581725
 10
-3024.682451674199
 20
2417.674179581725
 10
-3024.682451674199
 20
2417.674179581725
 10
-3024.682451674199
 20
2417.674179581725
 10
-3024.682451674199
 20
2417.674179581725
 10
-3024.682451674199
 20
2417.674179581725
 10
-3024.682451674199
 20
2419.09992755148
 10
-3024.682451674199
 20
2419.09992755148
 10
-3024.682451674199
 20
2419.09992755148
 10
-3024.682451674199
 20
2419.09992755148
 10
-3024.682451674199
 20
2419.09992755148
 10
-3026.108631296383
 20
2419.09992755148
 10
-3026.108631296383
 20
2419.09992755148
 10
-3026.108631296383
 20
2419.09992755148
 10
-3026.108631296383
 20
2420.525675521235
 10
-3026.108631296383
 20
2420.525675521235
 10
-3026.108631296383
 20
2420.525675521235
 10
-3026.108631296383
 20
2420.525675521235
 10
-3026.108631296383
 20
2420.525675521235
 10
-3026.108631296383
 20
2420.525675521235
 10
-3026.108631296383
 20
2420.525675521235
 10
-3027.534810918566
 20
2420.525675521235
 10
-3027.534810918566
 20
2420.525675521235
 10
-3027.534810918566
 20
2420.525675521235
 10
-3027.534810918566
 20
2420.525675521235
 10
-3027.534810918565
 20
2421.95142349099
 10
-3027.534810918565
 20
2421.95142349099
 10
-3027.534810918565
 20
2421.95142349099
 10
-3027.534810918566
 20
2423.377171460746
 10
-3028.960990540749
 20
2424.802919430501
 10
-3028.960990540749
 20
2424.802919430501
 10
-3028.960990540749
 20
2426.228667400256
 10
-3028.960990540749
 20
2426.228667400256
 10
-3028.960990540749
 20
2426.228667400256
 10
-3028.960990540749
 20
2426.228667400256
 10
-3028.960990540749
 20
2426.228667400256
 10
-3028.960990540749
 20
2426.228667400256
 10
-3028.960990540749
 20
2426.228667400256
 10
-3028.960990540749
 20
2426.228667400256
 10
-3028.960990540749
 20
2426.228667400256
 10
-3028.960990540749
 20
2426.228667400256
 10
-3028.960990540749
 20
2426.228667400256
 10
-3028.960990540749
 20
2426.228667400256
 10
-3028.960990540749
 20
2426.228667400256
 10
-3028.960990540749
 20
2426.228667400256
 10
-3028.960990540749
 20
2426.228667400256
 10
-3030.387170162932
 20
2426.228667400256
 10
-3030.387170162932
 20
2426.228667400256
 10
-3030.387170162932
 20
2426.228667400256
 10
-3030.387170162932
 20
2427.654415370011
 10
-3030.387170162932
 20
2427.654415370011
 10
-3030.387170162932
 20
2427.654415370011
 10
-3030.387170162932
 20
2427.654415370011
 10
-3030.387170162932
 20
2427.654415370011
 10
-3030.387170162932
 20
2427.654415370011
 10
-3030.387170162932
 20
2427.654415370011
 10
-3030.387170162932
 20
2427.654415370011
 10
-3030.387170162932
 20
2427.654415370011
 10
-3030.387170162932
 20
2427.654415370011
 10
-3030.387170162932
 20
2427.654415370011
 10
-3030.387170162932
 20
2427.654415370011
 10
-3030.387170162932
 20
2427.654415370011
 10
-3030.387170162932
 20
2427.654415370011
 10
-3030.387170162932
 20
2427.654415370011
 10
-3030.387170162932
 20
2427.654415370011
 10
-3030.387170162932
 20
2427.654415370011
 10
-3030.387170162932
 20
2427.654415370011
 10
-3030.387170162932
 20
2427.654415370011
 10
-3030.387170162932
 20
2427.654415370011
 10
-3030.387170162932
 20
2427.654415370011
 10
-3030.387170162932
 20
2427.654415370011
 10
-3030.387170162932
 20
2427.654415370011
 10
-3030.387170162932
 20
2427.654415370011
 10
-3030.387170162932
 20
2427.654415370011
 10
-3030.387170162932
 20
2427.654415370011
 10
-3030.387170162932
 20
2427.654415370011
 10
-3030.387170162932
 20
2427.654415370011
 10
-3030.387170162932
 20
2427.654415370011
 10
-3030.387170162932
 20
2427.654415370011
 10
-3030.387170162932
 20
2427.654415370011
 10
-3030.387170162932
 20
2427.654415370011
 10
-3030.387170162932
 20
2427.654415370011
 10
-3030.387170162932
 20
2427.654415370011
 10
-3030.387170162932
 20
2427.654415370011
 10
-3030.387170162932
 20
2427.654415370011
 10
-3030.387170162932
 20
2427.654415370011
 10
-3030.387170162932
 20
2427.654415370011
 10
-3030.387170162932
 20
2427.654415370011
 10
-3030.387170162932
 20
2427.654415370011
 10
-3030.387170162932
 20
2427.654415370011
 10
-3030.387170162932
 20
2427.654415370011
 10
-3030.387170162932
 20
2427.654415370011
 10
-3030.387170162932
 20
2427.654415370011
 10
-3030.387170162932
 20
2427.654415370011
 10
-3030.387170162932
 20
2427.654415370011
 10
-3030.387170162932
 20
2427.654415370011
 10
-3030.387170162932
 20
2427.654415370011
 10
-3030.387170162932
 20
2427.654415370011
 10
-3030.387170162932
 20
2427.654415370011
 10
-3030.387170162932
 20
2427.654415370011
 10
-3030.387170162932
 20
2427.654415370011
 10
-3030.387170162932
 20
2427.654415370011
 10
-3030.387170162932
 20
2427.654415370011
 10
-3030.387170162932
 20
2427.654415370011
 10
-3030.387170162932
 20
2427.654415370011
 10
-3030.387170162932
 20
2427.654415370011
 10
-3030.387170162932
 20
2427.654415370011
 10
-3030.387170162932
 20
2427.654415370011
 10
-3030.387170162932
 20
2427.654415370011
 10
-3030.387170162932
 20
2427.654415370011
 10
-3030.387170162932
 20
2427.654415370011
 10
-3030.387170162932
 20
2427.654415370011
 10
-3030.387170162932
 20
2427.654415370011
 10
-3030.387170162932
 20
2427.654415370011
 10
-3031.813349785115
 20
2427.654415370011
 10
-3031.813349785115
 20
2427.654415370011
 10
-3031.813349785115
 20
2427.654415370011
 10
-3031.813349785115
 20
2427.654415370011
 10
-3033.239529407299
 20
2427.654415370011
 10
-3033.239529407299
 20
2427.654415370011
 10
-3033.239529407299
 20
2427.654415370011
 10
-3033.239529407299
 20
2427.654415370011
 10
-3033.239529407299
 20
2427.654415370011
 10
-3033.239529407299
 20
2427.654415370011
 10
-3033.239529407299
 20
2427.654415370011
 10
-3033.239529407299
 20
2427.654415370011
 10
-3033.239529407299
 20
2429.080163339766
 10
-3033.239529407299
 20
2429.080163339766
 10
-3033.239529407299
 20
2429.080163339766
 10
-3033.239529407299
 20
2429.080163339766
 10
-3033.239529407299
 20
2429.080163339766
 10
-3033.239529407299
 20
2429.080163339766
 10
-3034.665709029482
 20
2429.080163339766
 10
-3034.665709029482
 20
2429.080163339766
 10
-3034.665709029482
 20
2429.080163339766
 10
-3034.665709029482
 20
2429.080163339766
 10
-3036.091888651665
 20
2429.080163339766
 10
-3036.091888651665
 20
2429.080163339766
 10
-3036.091888651665
 20
2430.505911309521
 10
-3036.091888651665
 20
2430.505911309521
 10
-3036.091888651665
 20
2430.505911309521
 10
-3036.091888651665
 20
2430.505911309521
 10
-3036.091888651665
 20
2431.931659279277
 10
-3036.091888651665
 20
2431.931659279277
 10
-3037.518068273848
 20
2431.931659279277
 10
-3038.944247896031
 20
2431.931659279277
 10
-3038.944247896031
 20
2433.357407249031
 10
-3038.944247896031
 20
2434.783155218787
 10
-3040.370427518214
 20
2434.783155218787
 10
-3040.370427518214
 20
2436.208903188542
 10
-3040.370427518214
 20
2436.208903188542
 10
-3040.370427518214
 20
2436.208903188542
 10
-3040.370427518214
 20
2436.208903188542
 10
-3040.370427518214
 20
2436.208903188542
 10
-3040.370427518214
 20
2436.208903188542
 10
-3040.370427518214
 20
2436.208903188542
 10
-3040.370427518214
 20
2437.634651158297
 10
-3040.370427518214
 20
2437.634651158297
 10
-3041.796607140397
 20
2437.634651158297
 10
-3043.222786762581
 20
2439.060399128052
 10
-3044.648966384764
 20
2441.911895067562
 10
-3044.648966384764
 20
2441.911895067562
 10
-3044.648966384764
 20
2443.337643037317
 10
-3046.075146006947
 20
2443.337643037317
 10
-3046.075146006947
 20
2446.189138976828
 10
-3046.075146006947
 20
2446.189138976828
 10
-3046.075146006947
 20
2446.189138976828
 10
-3047.50132562913
 20
2446.189138976828
 10
-3047.50132562913
 20
2447.614886946583
 10
-3047.50132562913
 20
2447.614886946583
 10
-3048.927505251313
 20
2447.614886946583
 10
-3048.927505251313
 20
2447.614886946583
 10
-3048.927505251313
 20
2447.614886946583
 10
-3048.927505251313
 20
2447.614886946583
 10
-3048.927505251313
 20
2447.614886946583
 10
-3048.927505251313
 20
2447.614886946583
 10
-3048.927505251314
 20
2449.040634916338
 10
-3048.927505251314
 20
2449.040634916338
 10
-3050.353684873497
 20
2449.040634916338
 10
-3050.353684873497
 20
2449.040634916338
 10
-3050.353684873497
 20
2449.040634916338
 10
-3050.353684873497
 20
2449.040634916338
 10
-3050.353684873497
 20
2449.040634916338
 10
-3050.353684873497
 20
2450.466382886093
 10
-3051.779864495679
 20
2450.466382886093
 10
-3051.779864495679
 20
2451.892130855848
 10
-3051.779864495679
 20
2451.892130855848
 10
-3051.779864495679
 20
2451.892130855848
 10
-3051.779864495679
 20
2451.892130855848
 10
-3051.779864495679
 20
2451.892130855848
 10
-3051.779864495679
 20
2451.892130855848
 10
-3051.779864495679
 20
2451.892130855848
 10
-3051.779864495679
 20
2451.892130855848
 10
-3051.779864495679
 20
2451.892130855848
 10
-3051.779864495679
 20
2451.892130855848
 10
-3051.779864495679
 20
2451.892130855848
 10
-3051.779864495679
 20
2451.892130855848
 10
-3051.779864495679
 20
2451.892130855848
 10
-3051.779864495679
 20
2451.892130855848
 10
-3051.779864495679
 20
2451.892130855848
 10
-3051.779864495679
 20
2451.892130855848
 10
-3051.779864495679
 20
2451.892130855848
 10
-3051.779864495679
 20
2451.892130855848
 10
-3051.779864495679
 20
2451.892130855848
 10
-3053.206044117863
 20
2451.892130855848
 10
-3053.206044117863
 20
2451.892130855848
 10
-3053.206044117863
 20
2453.317878825604
 10
-3053.206044117863
 20
2453.317878825604
 10
-3053.206044117863
 20
2453.317878825604
 10
-3053.206044117863
 20
2453.317878825604
 10
-3053.206044117863
 20
2453.317878825604
 10
-3053.206044117863
 20
2453.317878825604
 10
-3053.206044117863
 20
2453.317878825604
 10
-3053.206044117863
 20
2453.317878825604
 10
-3053.206044117863
 20
2454.743626795359
 10
-3053.206044117863
 20
2454.743626795359
 10
-3053.206044117863
 20
2454.743626795359
 10
-3053.206044117863
 20
2456.169374765114
 10
-3054.632223740045
 20
2457.595122734869
 10
-3054.632223740045
 20
2457.595122734869
 10
-3054.632223740045
 20
2459.020870704624
 10
-3054.632223740045
 20
2460.446618674379
 10
-3054.632223740045
 20
2460.446618674379
 10
-3054.632223740045
 20
2461.872366644134
 10
-3054.632223740045
 20
2461.872366644134
 10
-3054.632223740045
 20
2463.29811461389
 10
-3056.058403362229
 20
2463.29811461389
 10
-3056.058403362229
 20
2463.29811461389
 10
-3056.058403362229
 20
2464.723862583644
 10
-3056.058403362229
 20
2464.723862583644
 10
-3056.058403362229
 20
2466.1496105534
 10
-3056.058403362229
 20
2466.1496105534
 10
-3056.058403362229
 20
2467.575358523155
 10
-3056.058403362229
 20
2467.575358523155
 10
-3056.058403362229
 20
2467.575358523155
 10
-3056.058403362229
 20
2467.575358523155
 10
-3056.058403362229
 20
2469.00110649291
 10
-3056.058403362229
 20
2469.00110649291
 10
-3056.058403362229
 20
2470.426854462665
 10
-3056.058403362229
 20
2470.426854462665
 10
-3056.058403362229
 20
2470.426854462665
 10
-3056.058403362229
 20
2470.426854462665
 10
-3056.058403362229
 20
2473.278350402175
 10
-3057.484582984412
 20
2474.704098371931
 10
-3057.484582984412
 20
2474.704098371931
 10
-3057.484582984412
 20
2477.555594311441
 10
-3057.484582984412
 20
2477.555594311441
 10
-3057.484582984412
 20
2478.981342281196
 10
-3057.484582984412
 20
2478.981342281196
 10
-3057.484582984412
 20
2480.407090250951
 10
-3057.484582984412
 20
2481.832838220706
 10
-3057.484582984412
 20
2481.832838220706
 10
-3057.484582984412
 20
2481.832838220706
 10
-3057.484582984412
 20
2481.832838220706
 10
-3057.484582984412
 20
2481.832838220706
 10
-3058.910762606595
 20
2483.258586190461
 10
-3058.910762606595
 20
2486.110082129971
 10
-3058.910762606595
 20
2487.535830099727
 10
-3058.910762606595
 20
2488.961578069482
 10
-3058.910762606595
 20
2490.387326039237
 10
-3058.910762606595
 20
2490.387326039237
 10
-3058.910762606595
 20
2490.387326039237
 10
-3058.910762606595
 20
2490.387326039237
 10
-3058.910762606595
 20
2490.387326039237
 10
-3058.910762606595
 20
2490.387326039237
 10
-3058.910762606595
 20
2491.813074008992
 10
-3058.910762606595
 20
2491.813074008992
 10
-3060.336942228778
 20
2491.813074008992
 10
-3060.336942228778
 20
2491.813074008992
 10
-3060.336942228778
 20
2491.813074008992
 10
-3060.336942228778
 20
2491.813074008992
 10
-3060.336942228778
 20
2491.813074008992
 10
-3060.336942228778
 20
2493.238821978747
 10
-3060.336942228778
 20
2493.238821978747
 10
-3060.336942228778
 20
2493.238821978747
 10
-3060.336942228778
 20
2493.238821978747
 10
-3060.336942228778
 20
2493.238821978747
 10
-3060.336942228778
 20
2493.238821978747
 10
-3060.336942228778
 20
2493.238821978747
 10
-3060.336942228778
 20
2493.238821978747
 10
-3060.336942228778
 20
2493.238821978747
 10
-3060.336942228778
 20
2493.238821978747
 10
-3060.336942228778
 20
2493.238821978747
 10
-3060.336942228778
 20
2493.238821978747
 10
-3060.336942228778
 20
2493.238821978747
 10
-3060.336942228778
 20
2493.238821978747
 10
-3060.336942228778
 20
2493.238821978747
 10
-3060.336942228778
 20
2493.238821978747
 10
-3060.336942228778
 20
2493.238821978747
 10
-3060.336942228778
 20
2494.664569948503
 10
-3060.336942228778
 20
2494.664569948503
 10
-3060.336942228778
 20
2494.664569948503
 10
-3060.336942228778
 20
2496.090317918258
 10
-3060.336942228778
 20
2496.090317918258
 10
-3060.336942228778
 20
2496.090317918258
 10
-3060.336942228778
 20
2497.516065888013
 10
-3060.336942228778
 20
2498.941813857768
 10
-3060.336942228778
 20
2498.941813857768
 10
-3061.763121850961
 20
2500.367561827523
 10
-3061.763121850961
 20
2500.367561827523
 10
-3061.763121850961
 20
2500.367561827523
 10
-3061.763121850961
 20
2500.367561827523
 10
-3061.763121850961
 20
2501.793309797278
 10
-3061.763121850961
 20
2501.793309797278
 10
-3061.763121850961
 20
2501.793309797278
 10
-3061.763121850961
 20
2501.793309797278
 10
-3061.763121850961
 20
2501.793309797278
 10
-3061.763121850961
 20
2503.219057767033
 10
-3063.189301473144
 20
2503.219057767033
 10
-3063.189301473144
 20
2504.644805736788
 10
-3063.189301473144
 20
2504.644805736788
 10
-3063.189301473145
 20
2506.070553706544
 10
-3063.189301473145
 20
2506.070553706544
 10
-3063.189301473144
 20
2507.496301676299
 10
-3063.189301473144
 20
2507.496301676299
 10
-3064.615481095328
 20
2507.496301676299
 10
-3064.615481095328
 20
2508.922049646054
 10
-3064.615481095328
 20
2508.922049646054
 10
-3064.615481095328
 20
2510.347797615809
 10
-3064.615481095328
 20
2510.347797615809
 10
-3064.615481095328
 20
2511.773545585564
 10
-3064.615481095328
 20
2511.773545585564
 10
-3064.615481095328
 20
2513.199293555319
 10
-3064.615481095328
 20
2513.199293555319
 10
-3066.041660717511
 20
2514.625041525074
 10
-3066.041660717511
 20
2514.625041525074
 10
-3066.041660717511
 20
2514.625041525074
 10
-3066.041660717511
 20
2514.625041525074
 10
-3066.041660717511
 20
2514.625041525074
 10
-3066.041660717511
 20
2514.625041525074
 10
-3066.041660717511
 20
2514.625041525074
 10
-3066.041660717511
 20
2514.625041525074
 10
-3066.041660717511
 20
2514.625041525074
 10
-3066.041660717511
 20
2514.625041525074
 10
-3066.041660717511
 20
2516.05078949483
 10
-3066.041660717511
 20
2516.05078949483
 10
-3066.041660717511
 20
2516.05078949483
 10
-3066.041660717511
 20
2516.05078949483
 10
-3066.041660717511
 20
2516.05078949483
 10
-3066.041660717511
 20
2516.05078949483
 10
-3066.041660717511
 20
2516.05078949483
 10
-3067.467840339694
 20
2516.05078949483
 10
-3067.467840339694
 20
2516.05078949483
 10
-3067.467840339694
 20
2516.05078949483
 10
-3067.467840339694
 20
2516.05078949483
 10
-3067.467840339694
 20
2516.05078949483
 10
-3067.467840339694
 20
2516.05078949483
 10
-3067.467840339694
 20
2516.05078949483
 10
-3067.467840339694
 20
2516.05078949483
 10
-3067.467840339694
 20
2516.05078949483
 10
-3067.467840339694
 20
2516.05078949483
 10
-3067.467840339694
 20
2516.05078949483
 10
-3067.467840339694
 20
2516.05078949483
 10
-3067.467840339694
 20
2516.05078949483
 10
-3067.467840339694
 20
2517.476537464585
 10
-3067.467840339694
 20
2517.476537464585
 10
-3067.467840339694
 20
2517.476537464585
 10
-3067.467840339694
 20
2517.476537464585
 10
-3067.467840339694
 20
2517.476537464585
 10
-3067.467840339694
 20
2517.476537464585
 10
-3067.467840339694
 20
2517.476537464585
 10
-3067.467840339694
 20
2517.476537464585
 10
-3067.467840339694
 20
2517.476537464585
 10
-3067.467840339694
 20
2517.476537464585
 10
-3067.467840339694
 20
2517.476537464585
 10
-3067.467840339694
 20
2517.476537464585
 10
-3067.467840339694
 20
2517.476537464585
 10
-3067.467840339694
 20
2517.476537464585
 10
-3067.467840339694
 20
2517.476537464585
 10
-3067.467840339694
 20
2517.476537464585
 10
-3067.467840339694
 20
2517.476537464585
 10
-3067.467840339694
 20
2517.476537464585
 10
-3067.467840339694
 20
2517.476537464585
 10
-3067.467840339694
 20
2518.90228543434
 10
-3067.467840339694
 20
2518.90228543434
 10
-3067.467840339694
 20
2518.90228543434
 10
-3068.894019961877
 20
2518.90228543434
 10
-3068.894019961877
 20
2518.90228543434
 10
-3068.894019961877
 20
2518.90228543434
 10
-3068.894019961877
 20
2518.90228543434
 10
-3068.894019961877
 20
2518.90228543434
 10
-3068.894019961877
 20
2518.90228543434
 10
-3070.320199584061
 20
2518.90228543434
 10
-3070.320199584061
 20
2518.90228543434
 10
-3070.320199584061
 20
2518.90228543434
 10
-3071.746379206244
 20
2518.90228543434
 10
-3071.746379206244
 20
2518.90228543434
 10
-3071.746379206244
 20
2518.90228543434
 10
-3073.172558828427
 20
2518.90228543434
 10
-3073.172558828427
 20
2518.90228543434
 10
-3073.172558828427
 20
2518.90228543434
 10
-3074.59873845061
 20
2520.328033404095
 10
-3074.59873845061
 20
2520.328033404095
 10
-3074.59873845061
 20
2520.328033404095
 10
-3076.024918072793
 20
2520.328033404095
 10
-3077.451097694976
 20
2520.328033404095
 10
-3078.877277317159
 20
2520.328033404095
 10
-3078.877277317159
 20
2520.328033404095
 10
-3078.877277317159
 20
2520.328033404095
 10
-3080.303456939343
 20
2520.328033404095
 10
-3081.729636561526
 20
2520.328033404095
 10
-3083.155816183709
 20
2520.328033404095
 10
-3083.155816183709
 20
2520.328033404095
 10
-3083.155816183709
 20
2520.328033404095
 10
-3084.581995805892
 20
2520.328033404095
 10
-3084.581995805892
 20
2520.328033404095
 10
-3084.581995805892
 20
2520.328033404095
 10
-3086.008175428075
 20
2520.328033404095
 10
-3087.434355050258
 20
2520.328033404095
 10
-3088.860534672442
 20
2520.328033404095
 10
-3088.860534672442
 20
2520.328033404095
 10
-3090.286714294625
 20
2520.328033404095
 10
-3090.286714294625
 20
2520.328033404095
 10
-3090.286714294625
 20
2520.328033404095
 10
-3093.139073538991
 20
2520.328033404095
 10
-3093.139073538991
 20
2520.328033404095
 10
-3094.565253161174
 20
2520.328033404095
 10
-3095.991432783358
 20
2520.328033404095
 10
-3095.991432783358
 20
2520.328033404095
 10
-3097.417612405541
 20
2520.328033404095
 10
-3098.843792027724
 20
2520.328033404095
 10
-3098.843792027724
 20
2520.328033404095
 10
-3100.269971649907
 20
2520.328033404095
 10
-3101.69615127209
 20
2518.90228543434
 10
-3103.122330894273
 20
2518.90228543434
 10
-3105.974690138639
 20
2518.90228543434
 10
-3107.400869760822
 20
2518.90228543434
 10
-3107.400869760822
 20
2518.90228543434
 10
-3110.253229005189
 20
2517.476537464585
 10
-3110.253229005189
 20
2517.476537464585
 10
-3113.105588249555
 20
2517.476537464585
 10
-3114.531767871738
 20
2517.476537464585
 10
-3114.531767871738
 20
2517.476537464585
 10
-3115.957947493922
 20
2517.476537464585
 10
-3115.957947493922
 20
2517.476537464585
 10
-3118.810306738288
 20
2517.476537464585
 10
-3118.810306738288
 20
2517.476537464585
 10
-3120.236486360471
 20
2517.476537464585
 10
-3120.236486360471
 20
2516.05078949483
 10
-3121.662665982654
 20
2516.05078949483
 10
-3123.088845604837
 20
2516.05078949483
 10
-3124.51502522702
 20
2516.05078949483
 10
-3124.51502522702
 20
2514.625041525074
 10
-3127.367384471387
 20
2514.625041525074
 10
-3128.79356409357
 20
2514.625041525074
 10
-3130.219743715753
 20
2514.625041525074
 10
-3131.645923337936
 20
2514.625041525074
 10
-3133.07210296012
 20
2513.199293555319
 10
-3134.498282582303
 20
2513.199293555319
 10
-3134.498282582303
 20
2513.199293555319
 10
-3135.924462204486
 20
2513.199293555319
 10
-3137.350641826669
 20
2513.199293555319
 10
-3138.776821448852
 20
2513.199293555319
 10
-3138.776821448852
 20
2511.773545585564
 10
-3138.776821448852
 20
2511.773545585564
 10
-3140.203001071035
 20
2511.773545585564
 10
-3140.203001071035
 20
2511.773545585564
 10
-3140.203001071035
 20
2511.773545585564
 10
-3141.629180693219
 20
2511.773545585564
 10
-3143.055360315402
 20
2511.773545585564
 10
-3143.055360315402
 20
2510.347797615809
 10
-3143.055360315402
 20
2510.347797615809
 10
-3144.481539937585
 20
2508.922049646054
 10
-3144.481539937585
 20
2508.922049646054
 10
-3144.481539937585
 20
2508.922049646054
 10
-3144.481539937585
 20
2508.922049646054
 10
-3144.481539937585
 20
2508.922049646054
 10
-3144.481539937585
 20
2508.922049646054
 10
-3145.907719559768
 20
2508.922049646054
 10
-3145.907719559768
 20
2508.922049646054
 10
-3145.907719559768
 20
2508.922049646054
 10
-3145.907719559768
 20
2508.922049646054
 10
-3145.907719559768
 20
2507.496301676299
 10
-3145.907719559768
 20
2507.496301676299
 10
-3145.907719559768
 20
2507.496301676299
 10
-3145.907719559768
 20
2507.496301676299
 10
-3145.907719559768
 20
2507.496301676299
 10
-3145.907719559768
 20
2507.496301676299
 10
-3145.907719559768
 20
2507.496301676299
 10
-3145.907719559768
 20
2507.496301676299
 10
-3145.907719559768
 20
2507.496301676299
 10
-3145.907719559768
 20
2506.070553706544
 10
-3145.907719559768
 20
2506.070553706544
 10
-3145.907719559768
 20
2506.070553706544
 10
-3145.907719559768
 20
2506.070553706544
 10
-3145.907719559768
 20
2506.070553706544
 10
-3145.907719559768
 20
2506.070553706544
 10
-3145.907719559768
 20
2503.219057767033
 10
-3145.907719559768
 20
2503.219057767033
 10
-3145.907719559768
 20
2503.219057767033
 10
-3145.907719559768
 20
2503.219057767033
 10
-3145.907719559768
 20
2503.219057767033
 10
-3145.907719559768
 20
2503.219057767033
 10
-3145.907719559768
 20
2503.219057767033
 10
-3145.907719559768
 20
2503.219057767033
 10
-3145.907719559768
 20
2501.793309797278
 10
-3145.907719559768
 20
2501.793309797278
 10
-3145.907719559768
 20
2501.793309797278
 10
-3144.481539937585
 20
2500.367561827523
 10
-3144.481539937585
 20
2500.367561827523
 10
-3144.481539937585
 20
2500.367561827523
 10
-3144.481539937585
 20
2498.941813857768
 10
-3143.055360315402
 20
2497.516065888013
 10
-3141.629180693219
 20
2497.516065888013
 10
-3141.629180693219
 20
2497.516065888013
 10
-3141.629180693219
 20
2496.090317918258
 10
-3141.629180693219
 20
2496.090317918258
 10
-3140.203001071035
 20
2494.664569948503
 10
-3138.776821448852
 20
2491.813074008992
 10
-3137.350641826669
 20
2488.961578069482
 10
-3137.350641826669
 20
2487.535830099727
 10
-3137.350641826669
 20
2486.110082129971
 10
-3135.924462204486
 20
2486.110082129971
 10
-3135.924462204486
 20
2484.684334160217
 10
-3134.498282582303
 20
2483.258586190461
 10
-3134.498282582303
 20
2481.832838220706
 10
-3133.07210296012
 20
2480.407090250951
 10
-3133.07210296012
 20
2480.407090250951
 10
-3133.07210296012
 20
2480.407090250951
 10
-3131.645923337936
 20
2478.981342281196
 10
-3128.79356409357
 20
2477.555594311441
 10
-3128.79356409357
 20
2476.129846341686
 10
-3128.79356409357
 20
2476.129846341686
 10
-3128.79356409357
 20
2476.129846341686
 10
-3127.367384471387
 20
2474.704098371931
 10
-3127.367384471387
 20
2473.278350402175
 10
-3127.367384471387
 20
2473.278350402175
 10
-3125.941204849204
 20
2471.85260243242
 10
-3124.51502522702
 20
2471.85260243242
 10
-3124.51502522702
 20
2471.85260243242
 10
-3123.088845604837
 20
2470.426854462665
 10
-3123.088845604837
 20
2470.426854462665
 10
-3121.662665982654
 20
2470.426854462665
 10
-3121.662665982654
 20
2469.00110649291
 10
-3121.662665982654
 20
2469.00110649291
 10
-3121.662665982654
 20
2469.00110649291
 10
-3120.236486360471
 20
2469.00110649291
 10
-3118.810306738288
 20
2469.00110649291
 10
-3118.810306738288
 20
2469.00110649291
 10
-3117.384127116105
 20
2467.575358523155
 10
-3117.384127116105
 20
2467.575358523155
 10
-3117.384127116105
 20
2467.575358523155
 10
-3115.957947493921
 20
2466.1496105534
 10
-3115.957947493921
 20
2466.1496105534
 10
-3115.957947493921
 20
2466.1496105534
 10
-3114.531767871738
 20
2466.1496105534
 10
-3113.105588249555
 20
2466.1496105534
 10
-3111.679408627372
 20
2464.723862583644
 10
-3111.679408627372
 20
2464.723862583644
 10
-3111.679408627372
 20
2464.723862583644
 10
-3111.679408627372
 20
2464.723862583644
 10
-3111.679408627372
 20
2463.29811461389
 10
-3110.253229005189
 20
2463.29811461389
 10
-3110.253229005189
 20
2463.29811461389
 10
-3108.827049383006
 20
2463.29811461389
 10
-3107.400869760822
 20
2461.872366644134
 10
-3107.400869760822
 20
2460.446618674379
 10
-3107.400869760822
 20
2460.446618674379
 10
-3105.974690138639
 20
2460.446618674379
 10
-3105.974690138639
 20
2459.020870704624
 10
-3105.974690138639
 20
2459.020870704624
 10
-3105.974690138639
 20
2459.020870704624
 10
-3104.548510516456
 20
2457.595122734869
 10
-3104.548510516456
 20
2456.169374765114
 10
-3104.548510516456
 20
2454.743626795359
 10
-3104.548510516457
 20
2453.317878825604
 10
-3103.122330894273
 20
2453.317878825604
 10
-3103.122330894273
 20
2451.892130855848
 10
-3101.69615127209
 20
2450.466382886093
 10
-3101.69615127209
 20
2450.466382886093
 10
-3101.69615127209
 20
2449.040634916338
 10
-3101.69615127209
 20
2447.614886946583
 10
-3101.69615127209
 20
2447.614886946583
 10
-3101.69615127209
 20
2446.189138976828
 10
-3101.69615127209
 20
2444.763391007073
 10
-3100.269971649907
 20
2443.337643037317
 10
-3100.269971649907
 20
2441.911895067562
 10
-3100.269971649907
 20
2439.060399128052
 10
-3100.269971649907
 20
2439.060399128052
 10
-3100.269971649907
 20
2437.634651158297
 10
-3100.269971649907
 20
2437.634651158297
 10
-3100.269971649907
 20
2437.634651158297
 10
-3100.269971649907
 20
2436.208903188542
 10
-3100.269971649907
 20
2436.208903188542
 10
-3100.269971649907
 20
2434.783155218787
 10
-3100.269971649907
 20
2434.783155218787
 10
-3100.269971649907
 20
2434.783155218787
 10
-3100.269971649907
 20
2433.357407249031
 10
-3100.269971649907
 20
2433.357407249031
 10
-3100.269971649907
 20
2433.357407249031
 10
-3098.843792027724
 20
2433.357407249031
 10
-3098.843792027724
 20
2431.931659279277
 10
-3098.843792027724
 20
2431.931659279277
 10
-3098.843792027724
 20
2430.505911309521
 10
-3098.843792027724
 20
2430.505911309521
 10
-3098.843792027724
 20
2429.080163339766
 10
-3098.843792027724
 20
2429.080163339766
 10
-3098.843792027724
 20
2429.080163339766
 10
-3098.843792027724
 20
2427.654415370011
 10
-3097.417612405541
 20
2427.654415370011
 10
-3097.417612405541
 20
2426.228667400256
 10
-3097.417612405541
 20
2426.228667400256
 10
-3097.417612405541
 20
2426.228667400256
 10
-3097.417612405541
 20
2426.228667400256
 10
-3095.991432783358
 20
2424.802919430501
 10
-3095.991432783358
 20
2423.377171460746
 10
-3094.565253161174
 20
2423.377171460746
 10
-3094.565253161174
 20
2421.95142349099
 10
-3094.565253161174
 20
2420.525675521235
 10
-3093.139073538991
 20
2417.674179581725
 10
-3093.139073538991
 20
2417.674179581725
 10
-3093.139073538991
 20
2416.24843161197
 10
-3093.139073538991
 20
2416.24843161197
 10
-3093.139073538991
 20
2416.24843161197
 10
-3091.712893916808
 20
2416.24843161197
 10
-3090.286714294625
 20
2413.39693567246
 10
-3090.286714294625
 20
2413.39693567246
 10
-3090.286714294625
 20
2411.971187702704
 10
-3090.286714294625
 20
2411.971187702704
 10
-3090.286714294625
 20
2411.971187702704
 10
-3090.286714294625
 20
2409.119691763194
 10
-3088.860534672442
 20
2409.119691763194
 10
-3088.860534672442
 20
2407.693943793439
 10
-3088.860534672442
 20
2407.693943793439
 10
-3088.860534672442
 20
2406.268195823684
 10
-3087.434355050258
 20
2404.842447853929
 10
-3086.008175428075
 20
2403.416699884174
 10
-3086.008175428075
 20
2403.416699884174
 10
-3084.581995805892
 20
2401.990951914418
 10
-3084.581995805892
 20
2400.565203944663
 10
-3084.581995805892
 20
2400.565203944663
 10
-3083.155816183709
 20
2399.139455974908
 10
-3083.155816183709
 20
2397.713708005153
 10
-3083.155816183709
 20
2397.713708005153
 10
-3081.729636561526
 20
2397.713708005153
 10
-3081.729636561526
 20
2396.287960035398
 10
-3080.303456939343
 20
2396.287960035398
 10
-3080.303456939343
 20
2396.287960035398
 10
-3080.303456939343
 20
2396.287960035398
 10
-3080.303456939343
 20
2394.862212065643
 10
-3080.303456939343
 20
2394.862212065643
 10
-3078.877277317159
 20
2394.862212065643
 10
-3078.877277317159
 20
2393.436464095887
 10
-3078.877277317159
 20
2393.436464095887
 10
-3077.451097694976
 20
2393.436464095887
 10
-3077.451097694976
 20
2393.436464095887
 10
-3076.024918072793
 20
2393.436464095887
 10
-3074.59873845061
 20
2393.436464095887
 10
-3074.59873845061
 20
2392.010716126133
 10
-3073.172558828427
 20
2392.010716126133
 10
-3073.172558828427
 20
2392.010716126133
 10
-3073.172558828427
 20
2390.584968156377
 10
-3073.172558828427
 20
2390.584968156377
 10
-3071.746379206244
 20
2390.584968156377
 10
-3071.746379206244
 20
2390.584968156377
 10
-3071.746379206244
 20
2390.584968156377
 10
-3071.746379206244
 20
2390.584968156377
 10
-3071.746379206244
 20
2390.584968156377
 10
-3070.32019958406
 20
2390.584968156377
 10
-3070.32019958406
 20
2390.584968156377
 10
-3068.894019961877
 20
2389.159220186622
 10
-3068.894019961877
 20
2387.733472216867
 10
-3068.894019961877
 20
2387.733472216867
 10
-3068.894019961877
 20
2387.733472216867
 10
-3068.894019961877
 20
2387.733472216867
 10
-3068.894019961877
 20
2387.733472216867
 10
-3068.894019961877
 20
2387.733472216867
 10
-3068.894019961877
 20
2387.733472216867
 10
-3068.894019961877
 20
2387.733472216867
 10
-3067.467840339694
 20
2386.307724247112
 10
-3067.467840339694
 20
2386.307724247112
 10
-3067.467840339694
 20
2386.307724247112
 10
-3067.467840339694
 20
2386.307724247112
 10
-3067.467840339694
 20
2386.307724247112
 10
-3067.467840339694
 20
2386.307724247112
 10
-3067.467840339694
 20
2386.307724247112
 10
-3067.467840339694
 20
2386.307724247112
 10
-3067.467840339694
 20
2384.881976277357
 10
-3067.467840339694
 20
2384.881976277357
 10
-3067.467840339694
 20
2384.881976277357
 10
-3067.467840339694
 20
2384.881976277357
 10
-3067.467840339694
 20
2384.881976277357
 10
-3067.467840339694
 20
2384.881976277357
 10
-3067.467840339694
 20
2384.881976277357
 10
-3067.467840339694
 20
2384.881976277357
 10
-3067.467840339694
 20
2384.881976277357
 10
-3067.467840339694
 20
2384.881976277357
 10
-3067.467840339694
 20
2384.881976277357
 10
-3067.467840339694
 20
2384.881976277357
 10
-3067.467840339694
 20
2384.881976277357
 10
-3067.467840339694
 20
2384.881976277357
 10
-3067.467840339694
 20
2384.881976277357
  0
LWPOLYLINE
  5
59
100
AcDbEntity
  8
54
  6
ByLayer
 62
  256
370
   -1
100
AcDbPolyline
 90
  496
 70
    1
 43
0
 10
-3395.378650420248
 20
1898.176600111942
 10
-3395.378650420248
 20
1892.998926711834
 10
-3395.378650420248
 20
1894.424674681589
 10
-3395.378650420248
 20
1897.276170621099
 10
-3395.378650420248
 20
1904.296134058014
 10
-3393.952470798064
 20
1904.296134058014
 10
-3393.952470798064
 20
1900.12766656061
 10
-3393.952470798064
 20
1901.553414530365
 10
-3393.952470798064
 20
1909.999125937034
 10
-3392.526291175881
 20
1909.999125937034
 10
-3392.526291175881
 20
1908.148354363966
 10
-3391.100111553698
 20
1909.574102333722
 10
-3391.100111553698
 20
1914.2763698463
 10
-3389.673931931515
 20
1914.2763698463
 10
-3389.673931931515
 20
1910.107902348896
 10
-3389.673931931515
 20
1911.533650318651
 10
-3389.673931931515
 20
1915.277094212742
 10
-3388.247752309332
 20
1916.702842182497
 10
-3388.247752309332
 20
1915.810894227916
 10
-3388.247752309332
 20
1924.256605634585
 10
-3386.821572687149
 20
1924.256605634585
 10
-3386.821572687149
 20
1921.409110864168
 10
-3385.395393064965
 20
1924.260606803678
 10
-3385.395393064965
 20
1924.365382046447
 10
-3385.395393064965
 20
1925.791130016202
 10
-3385.395393064965
 20
1928.537850712944
 10
-3383.969213442782
 20
1931.389346652454
 10
-3383.969213442782
 20
1931.494121895223
 10
-3383.969213442782
 20
1932.919869864978
 10
-3383.969213442782
 20
1934.345617834733
 10
-3383.969213442782
 20
1935.771365804488
 10
-3383.969213442782
 20
1937.197113774243
 10
-3383.969213442782
 20
1938.622861743998
 10
-3383.969213442782
 20
1940.048609713753
 10
-3383.969213442782
 20
1941.474357683509
 10
-3383.969213442782
 20
1942.900105653264
 10
-3383.969213442782
 20
1944.325853623019
 10
-3383.969213442782
 20
1945.751601592774
 10
-3383.969213442782
 20
1947.177349562529
 10
-3383.969213442782
 20
1948.603097532284
 10
-3383.969213442782
 20
1950.02884550204
 10
-3383.969213442782
 20
1952.88034144155
 10
-3383.969213442782
 20
1954.306089411305
 10
-3383.969213442782
 20
1955.73183738106
 10
-3383.969213442782
 20
1954.839889426479
 10
-3385.395393064965
 20
1956.265637396235
 10
-3385.395393064965
 20
1960.009081290325
 10
-3385.395393064965
 20
1955.840613792921
 10
-3386.821572687149
 20
1955.840613792921
 10
-3386.821572687149
 20
1962.860577229836
 10
-3386.821572687149
 20
1964.286325199591
 10
-3386.821572687149
 20
1965.712073169346
 10
-3386.821572687149
 20
1965.816848412115
 10
-3388.247752309332
 20
1968.668344351625
 10
-3388.247752309332
 20
1969.097369124031
 10
-3389.673931931515
 20
1970.523117093786
 10
-3389.673931931515
 20
1974.266560987877
 10
-3389.673931931515
 20
1970.098093490473
 10
-3387.822600027967
 20
1970.098093490473
 10
-3392.526291175881
 20
1974.800361003051
 10
-3392.526291175881
 20
1978.543804897142
 10
-3392.526291175881
 20
1974.375337399738
 10
-3393.952470798064
 20
1974.375337399738
 10
-3393.952470798064
 20
1981.395300836652
 10
-3393.952470798064
 20
1977.226833339249
 10
-3395.378650420248
 20
1977.226833339249
 10
-3395.378650420248
 20
1978.652581309004
 10
-3391.210614575271
 20
1978.652581309004
 10
-3398.231009664614
 20
1978.652581309004
 10
-3398.231009664614
 20
1980.078329278759
 10
-3399.657189286797
 20
1980.078329278759
 10
-3399.657189286797
 20
1984.780596791337
 10
-3397.80585738325
 20
1982.929825218269
 10
-3396.915333064004
 20
1982.929825218269
 10
-3398.341512686187
 20
1982.929825218269
 10
-3399.76769230837
 20
1982.929825218269
 10
-3402.514129540791
 20
1982.929825218269
 10
-3405.366488785157
 20
1984.355573188024
 10
-3406.898590419286
 20
1984.355573188024
 10
-3406.008066100041
 20
1984.355573188024
 10
-3407.434245722224
 20
1982.929825218269
 10
-3411.177129285836
 20
1982.929825218269
 10
-3412.603308908019
 20
1982.929825218269
 10
-3414.029488530202
 20
1982.929825218269
 10
-3415.455668152385
 20
1982.929825218269
 10
-3416.881847774569
 20
1982.929825218269
 10
-3415.991323455323
 20
1982.929825218269
 10
-3417.417503077506
 20
1981.504077248514
 10
-3421.160386641118
 20
1981.504077248514
 10
-3422.586566263301
 20
1981.504077248514
 10
-3424.012745885484
 20
1981.504077248514
 10
-3425.438925507668
 20
1981.504077248514
 10
-3421.270889662691
 20
1981.504077248514
 10
-3421.270889662691
 20
1980.078329278759
 10
-3425.974580810605
 20
1980.078329278759
 10
-3427.400760432788
 20
1978.652581309004
 10
-3428.826940054972
 20
1978.652581309004
 10
-3430.253119677155
 20
1977.226833339249
 10
-3433.996003240766
 20
1977.226833339249
 10
-3435.422182862949
 20
1977.226833339249
 10
-3431.254147017974
 20
1977.226833339249
 10
-3431.254147017974
 20
1975.801085369493
 10
-3438.274542107316
 20
1975.801085369493
 10
-3435.532685884523
 20
1975.801085369493
 10
-3435.532685884523
 20
1974.375337399738
 10
-3442.553080973865
 20
1974.375337399738
 10
-3443.979260596048
 20
1974.375337399738
 10
-3445.405440218232
 20
1974.375337399738
 10
-3444.514915898986
 20
1974.375337399738
 10
-3445.941095521169
 20
1972.949589429983
 10
-3449.683979084781
 20
1972.949589429983
 10
-3451.110158706964
 20
1972.949589429983
 10
-3453.96251795133
 20
1972.949589429983
 10
-3456.814877195697
 20
1972.949589429983
 10
-3458.24105681788
 20
1972.949589429983
 10
-3459.667236440063
 20
1972.949589429983
 10
-3461.093416062246
 20
1972.949589429983
 10
-3463.945775306613
 20
1972.949589429983
 10
-3465.371954928796
 20
1972.949589429983
 10
-3466.798134550979
 20
1972.949589429983
 10
-3464.056278328186
 20
1972.949589429983
 10
-3464.056278328186
 20
1971.523841460228
 10
-3468.7599694761
 20
1971.523841460228
 10
-3470.186149098283
 20
1970.098093490473
 10
-3468.334817194735
 20
1970.098093490473
 10
-3468.334817194735
 20
1968.672345520718
 10
-3469.760996816919
 20
1968.672345520718
 10
-3469.760996816919
 20
1972.840813018122
 10
-3469.760996816919
 20
1971.415065048367
 10
-3469.760996816919
 20
1969.989317078612
 10
-3469.760996816919
 20
1968.563569108856
 10
-3469.760996816919
 20
1967.137821139101
 10
-3469.760996816919
 20
1965.712073169346
 10
-3469.760996816919
 20
1964.286325199591
 10
-3469.760996816919
 20
1963.76865416212
 10
-3468.622054575847
 20
1960.352861587429
 10
-3466.908637572552
 20
1955.21416634359
 10
-3466.908637572552
 20
1951.454593471795
 10
-3466.908637572552
 20
1950.02884550204
 10
-3466.908637572552
 20
1954.197312999444
 10
-3465.482457950369
 20
1954.197312999444
 10
-3465.482457950369
 20
1945.751601592774
 10
-3465.482457950369
 20
1944.325853623019
 10
-3465.482457950369
 20
1942.900105653264
 10
-3465.482457950369
 20
1941.474357683509
 10
-3465.482457950369
 20
1940.048609713753
 10
-3465.482457950369
 20
1937.197113774243
 10
-3465.482457950369
 20
1934.450393077502
 10
-3466.908637572552
 20
1931.598897137992
 10
-3466.908637572552
 20
1931.494121895223
 10
-3466.908637572552
 20
1930.068373925468
 10
-3466.908637572552
 20
1926.324930031377
 10
-3468.334817194735
 20
1924.899182061622
 10
-3468.334817194735
 20
1922.047686122111
 10
-3469.760996816919
 20
1920.621938152356
 10
-3469.760996816919
 20
1919.196190182601
 10
-3471.187176439102
 20
1917.770442212846
 10
-3471.187176439102
 20
1918.662390167426
 10
-3471.187176439102
 20
1915.915669470685
 10
-3472.613356061285
 20
1913.064173531175
 10
-3472.613356061285
 20
1912.959398288406
 10
-3472.613356061285
 20
1911.533650318651
 10
-3472.613356061285
 20
1910.107902348896
 10
-3472.613356061285
 20
1903.087938911981
 10
-3474.039535683468
 20
1903.087938911981
 10
-3474.039535683468
 20
1907.256406409385
 10
-3474.039535683468
 20
1905.83065843963
 10
-3474.039535683468
 20
1904.404910469875
 10
-3474.039535683468
 20
1902.97916250012
 10
-3474.039535683468
 20
1901.553414530365
 10
-3474.039535683468
 20
1900.12766656061
 10
-3474.039535683468
 20
1898.701918590854
 10
-3474.039535683468
 20
1902.870386088258
 10
-3472.613356061285
 20
1902.870386088258
 10
-3472.613356061285
 20
1895.850422651344
 10
-3472.613356061285
 20
1896.742370605925
 10
-3469.760996816919
 20
1893.890874666415
 10
-3469.760996816919
 20
1892.46512669666
 10
-3469.9739237296
 20
1892.677989164149
 10
-3470.186149098283
 20
1892.890150299973
 10
-3465.482457950369
 20
1892.890150299973
 10
-3465.482457950369
 20
1891.464402330218
 10
-3464.056278328186
 20
1891.464402330218
 10
-3464.056278328186
 20
1886.762134817639
 10
-3465.907610231734
 20
1888.612906390707
 10
-3464.48143060955
 20
1888.612906390707
 10
-3459.777739461637
 20
1883.910638878129
 10
-3459.777739461637
 20
1885.761410451197
 10
-3463.945775306613
 20
1885.761410451197
 10
-3460.202891743001
 20
1885.761410451197
 10
-3455.499200595087
 20
1881.059142938619
 10
-3455.499200595087
 20
1882.909914511687
 10
-3459.667236440063
 20
1882.909914511687
 10
-3452.646841350721
 20
1882.909914511687
 10
-3452.646841350721
 20
1881.484166541931
 10
-3451.220661728538
 20
1881.484166541931
 10
-3451.220661728538
 20
1880.058418572176
 10
-3449.794482106355
 20
1880.058418572176
 10
-3449.794482106355
 20
1878.632670602421
 10
-3446.942122861989
 20
1878.632670602421
 10
-3446.942122861989
 20
1877.206922632666
 10
-3448.793454765536
 20
1877.206922632666
 10
-3447.367275143353
 20
1875.781174662911
 10
-3448.257799462598
 20
1875.781174662911
 10
-3444.514915898986
 20
1875.781174662911
 10
-3443.088736276803
 20
1874.355426693156
 10
-3443.979260596048
 20
1874.355426693156
 10
-3440.236377032437
 20
1874.355426693156
 10
-3437.171792419388
 20
1871.291769617822
 10
-3437.38401778807
 20
1871.503930753646
 10
-3435.957838165887
 20
1871.503930753646
 10
-3434.531658543704
 20
1870.07818278389
 10
-3435.422182862949
 20
1870.07818278389
 10
-3433.996003240766
 20
1870.07818278389
 10
-3432.569823618583
 20
1870.07818278389
 10
-3431.1436439964
 20
1870.07818278389
 10
-3429.717464374217
 20
1870.07818278389
 10
-3426.865105129851
 20
1870.07818278389
 10
-3425.438925507668
 20
1870.07818278389
 10
-3426.329449826913
 20
1870.07818278389
 10
-3424.90327020473
 20
1871.503930753646
 10
-3426.754602108277
 20
1871.503930753646
 10
-3426.754602108277
 20
1867.335463256242
 10
-3426.754602108277
 20
1874.355426693156
 10
-3425.328422486094
 20
1874.355426693156
 10
-3425.328422486094
 20
1875.781174662911
 10
-3423.90224286391
 20
1875.781174662911
 10
-3423.90224286391
 20
1875.356151059598
 10
-3420.836956706863
 20
1878.420509466598
 10
-3421.049883619544
 20
1878.207646999108
 10
-3421.049883619544
 20
1879.633394968863
 10
-3417.984597462497
 20
1882.697753375864
 10
-3414.920012849448
 20
1885.761410451197
 10
-3416.771344752995
 20
1885.761410451197
 10
-3416.771344752995
 20
1887.187158420952
 10
-3415.345165130812
 20
1887.187158420952
 10
-3415.345165130812
 20
1883.018690923548
 10
-3415.345165130812
 20
1890.038654360462
 10
-3413.918985508629
 20
1890.038654360462
 10
-3413.918985508629
 20
1889.328070187146
 10
-3408.785561069724
 20
1891.894005556653
 10
-3409.640446642079
 20
1891.039378726904
 10
-3409.640446642079
 20
1892.46512669666
 10
-3408.214267019896
 20
1893.890874666415
 10
-3408.214267019896
 20
1898.593142178993
 10
-3401.193871930554
 20
1898.593142178993
 10
-3399.76769230837
 20
1898.593142178993
 10
-3397.878659483892
 20
1898.593142178993
 10
-3398.341512686187
 20
1892.998926711834
 10
-3399.76769230837
 20
1892.998926711834
 10
-3401.193871930554
 20
1892.998926711834
 10
-3402.620051552737
 20
1892.998926711834
 10
-3402.620051552737
 20
1891.573178742079
 10
-3404.04623117492
 20
1890.147430772324
 10
-3404.04623117492
 20
1888.721682802569
 10
-3405.472410797103
 20
1887.295934832814
 10
-3408.324770041469
 20
1885.870186863058
 10
-3408.324770041469
 20
1884.444438893303
 10
-3409.750949663653
 20
1884.444438893303
 10
-3409.750949663653
 20
1883.018690923548
 10
-3409.750949663653
 20
1881.592942953793
 10
-3411.177129285836
 20
1881.592942953793
 10
-3411.177129285836
 20
1880.167194984038
 10
-3412.603308908019
 20
1880.167194984038
 10
-3414.029488530202
 20
1878.741447014283
 10
-3415.455668152385
 20
1877.315699044527
 10
-3415.455668152385
 20
1875.889951074772
 10
-3416.881847774569
 20
1874.464203105017
 10
-3418.308027396752
 20
1873.038455135262
 10
-3418.308027396752
 20
1870.186959195752
 10
-3419.734207018935
 20
1870.186959195752
 10
-3419.734207018935
 20
1868.761211225997
 10
-3421.160386641118
 20
1868.761211225997
 10
-3421.160386641118
 20
1867.335463256242
 10
-3421.160386641118
 20
1865.909715286487
 10
-3422.586566263301
 20
1865.909715286487
 10
-3424.012745885484
 20
1864.483967316731
 10
-3425.438925507668
 20
1864.483967316731
 10
-3426.865105129851
 20
1864.483967316731
 10
-3429.717464374217
 20
1864.483967316731
 10
-3431.1436439964
 20
1864.483967316731
 10
-3432.569823618583
 20
1864.483967316731
 10
-3433.996003240766
 20
1864.483967316731
 10
-3435.422182862949
 20
1864.483967316731
 10
-3436.848362485133
 20
1864.483967316731
 10
-3438.274542107316
 20
1865.909715286487
 10
-3439.700721729499
 20
1865.909715286487
 10
-3441.126901351682
 20
1867.335463256242
 10
-3442.553080973865
 20
1868.761211225997
 10
-3443.979260596048
 20
1868.761211225997
 10
-3445.405440218231
 20
1868.761211225997
 10
-3446.831619840415
 20
1870.186959195752
 10
-3448.257799462598
 20
1870.186959195752
 10
-3449.683979084781
 20
1870.186959195752
 10
-3451.110158706964
 20
1871.612707165507
 10
-3452.536338329147
 20
1871.612707165507
 10
-3452.536338329147
 20
1873.038455135262
 10
-3455.388697573514
 20
1873.038455135262
 10
-3455.388697573514
 20
1874.464203105017
 10
-3456.814877195697
 20
1874.464203105017
 10
-3456.814877195697
 20
1875.889951074772
 10
-3458.24105681788
 20
1875.889951074772
 10
-3458.24105681788
 20
1877.315699044527
 10
-3459.667236440063
 20
1877.315699044527
 10
-3461.093416062246
 20
1877.315699044527
 10
-3461.093416062246
 20
1878.741447014283
 10
-3462.51959568443
 20
1880.167194984038
 10
-3463.945775306613
 20
1880.167194984038
 10
-3465.371954928796
 20
1880.167194984038
 10
-3465.371954928796
 20
1881.592942953793
 10
-3466.798134550979
 20
1883.018690923548
 10
-3468.224314173162
 20
1883.018690923548
 10
-3469.650493795345
 20
1884.444438893303
 10
-3469.650493795345
 20
1885.870186863058
 10
-3471.076673417529
 20
1885.870186863058
 10
-3471.076673417529
 20
1887.295934832814
 10
-3472.502853039712
 20
1887.295934832814
 10
-3473.929032661895
 20
1888.721682802569
 10
-3475.355212284078
 20
1890.147430772324
 10
-3475.355212284078
 20
1891.573178742079
 10
-3478.207571528445
 20
1894.424674681589
 10
-3478.207571528444
 20
1895.850422651344
 10
-3478.207571528444
 20
1897.276170621099
 10
-3479.633751150627
 20
1897.276170621099
 10
-3479.633751150627
 20
1898.701918590854
 10
-3479.633751150627
 20
1900.12766656061
 10
-3479.633751150627
 20
1901.553414530365
 10
-3479.633751150627
 20
1902.97916250012
 10
-3479.633751150627
 20
1904.404910469875
 10
-3479.633751150627
 20
1905.83065843963
 10
-3479.633751150627
 20
1907.256406409385
 10
-3479.633751150627
 20
1908.682154379141
 10
-3478.207571528445
 20
1908.682154379141
 10
-3478.207571528445
 20
1910.107902348896
 10
-3478.207571528445
 20
1911.533650318651
 10
-3478.207571528445
 20
1912.959398288406
 10
-3478.207571528444
 20
1914.385146258161
 10
-3476.781391906261
 20
1917.236642197671
 10
-3476.781391906261
 20
1918.662390167426
 10
-3476.781391906261
 20
1920.088138137181
 10
-3475.355212284078
 20
1921.513886106937
 10
-3475.355212284078
 20
1922.939634076692
 10
-3473.929032661895
 20
1924.365382046447
 10
-3473.929032661895
 20
1927.216877985957
 10
-3472.502853039712
 20
1928.642625955712
 10
-3472.502853039712
 20
1930.068373925468
 10
-3472.502853039712
 20
1931.494121895223
 10
-3472.502853039712
 20
1932.919869864978
 10
-3471.076673417529
 20
1935.771365804488
 10
-3471.076673417529
 20
1937.197113774243
 10
-3471.076673417529
 20
1940.048609713753
 10
-3471.076673417529
 20
1941.474357683509
 10
-3471.076673417529
 20
1942.900105653264
 10
-3471.076673417529
 20
1944.325853623019
 10
-3471.076673417529
 20
1945.751601592774
 10
-3471.076673417529
 20
1948.603097532284
 10
-3472.502853039712
 20
1948.603097532284
 10
-3472.502853039712
 20
1950.02884550204
 10
-3472.502853039712
 20
1951.454593471795
 10
-3472.502853039712
 20
1954.306089411305
 10
-3473.929032661895
 20
1958.583333320571
 10
-3475.355212284078
 20
1962.860577229836
 10
-3475.355212284078
 20
1964.286325199591
 10
-3475.355212284078
 20
1965.712073169346
 10
-3475.355212284078
 20
1967.137821139101
 10
-3475.355212284078
 20
1968.563569108856
 10
-3475.355212284078
 20
1969.989317078612
 10
-3475.355212284078
 20
1971.415065048367
 10
-3475.355212284078
 20
1972.840813018122
 10
-3475.355212284078
 20
1974.266560987877
 10
-3473.929032661895
 20
1974.266560987877
 10
-3473.929032661895
 20
1975.692308957632
 10
-3472.502853039712
 20
1975.692308957632
 10
-3471.076673417529
 20
1977.118056927387
 10
-3469.650493795345
 20
1977.118056927387
 10
-3469.650493795345
 20
1978.543804897142
 10
-3466.798134550979
 20
1978.543804897142
 10
-3465.371954928796
 20
1978.543804897142
 10
-3463.945775306613
 20
1978.543804897142
 10
-3461.093416062246
 20
1978.543804897142
 10
-3459.667236440063
 20
1978.543804897142
 10
-3458.24105681788
 20
1978.543804897142
 10
-3456.814877195697
 20
1978.543804897142
 10
-3453.96251795133
 20
1978.543804897142
 10
-3451.110158706964
 20
1978.543804897142
 10
-3449.683979084781
 20
1978.543804897142
 10
-3448.257799462598
 20
1978.543804897142
 10
-3446.831619840415
 20
1979.969552866898
 10
-3445.405440218232
 20
1979.969552866898
 10
-3443.979260596048
 20
1979.969552866898
 10
-3442.553080973865
 20
1979.969552866898
 10
-3441.126901351682
 20
1979.969552866898
 10
-3441.126901351682
 20
1981.395300836652
 10
-3438.274542107316
 20
1981.395300836652
 10
-3436.848362485133
 20
1981.395300836652
 10
-3436.848362485133
 20
1982.821048806408
 10
-3435.42218286295
 20
1982.821048806408
 10
-3433.996003240766
 20
1982.821048806408
 10
-3432.569823618583
 20
1982.821048806408
 10
-3431.1436439964
 20
1984.246796776163
 10
-3429.717464374217
 20
1984.246796776163
 10
-3428.291284752034
 20
1985.672544745918
 10
-3426.865105129851
 20
1985.672544745918
 10
-3426.865105129851
 20
1987.098292715673
 10
-3425.438925507668
 20
1987.098292715673
 10
-3424.012745885484
 20
1987.098292715673
 10
-3422.586566263301
 20
1987.098292715673
 10
-3421.160386641118
 20
1987.098292715673
 10
-3419.734207018935
 20
1987.098292715673
 10
-3418.308027396752
 20
1988.524040685428
 10
-3416.881847774569
 20
1988.524040685428
 10
-3415.455668152385
 20
1988.524040685428
 10
-3414.029488530202
 20
1988.524040685428
 10
-3412.603308908019
 20
1988.524040685428
 10
-3411.177129285836
 20
1988.524040685428
 10
-3409.750949663653
 20
1988.524040685428
 10
-3408.324770041469
 20
1989.949788655184
 10
-3406.898590419286
 20
1989.949788655184
 10
-3404.04623117492
 20
1989.949788655184
 10
-3401.193871930554
 20
1988.524040685428
 10
-3399.76769230837
 20
1988.524040685428
 10
-3398.341512686187
 20
1988.524040685428
 10
-3396.915333064004
 20
1988.524040685428
 10
-3395.489153441821
 20
1988.524040685428
 10
-3394.062973819638
 20
1987.098292715673
 10
-3394.062973819638
 20
1985.672544745918
 10
-3392.636794197454
 20
1985.672544745918
 10
-3392.636794197454
 20
1984.246796776163
 10
-3391.210614575271
 20
1984.246796776163
 10
-3389.784434953088
 20
1984.246796776163
 10
-3389.784434953088
 20
1982.821048806408
 10
-3388.358255330905
 20
1982.821048806408
 10
-3388.358255330905
 20
1981.395300836652
 10
-3388.358255330905
 20
1979.969552866898
 10
-3386.932075708722
 20
1979.969552866898
 10
-3386.932075708722
 20
1978.543804897142
 10
-3386.932075708722
 20
1977.118056927387
 10
-3385.505896086539
 20
1975.692308957632
 10
-3384.079716464356
 20
1975.692308957632
 10
-3384.079716464356
 20
1974.266560987877
 10
-3384.079716464356
 20
1972.840813018122
 10
-3382.653536842173
 20
1971.415065048367
 10
-3382.653536842173
 20
1969.989317078612
 10
-3381.227357219989
 20
1967.137821139101
 10
-3381.227357219989
 20
1965.712073169346
 10
-3381.227357219989
 20
1964.286325199591
 10
-3381.227357219989
 20
1962.860577229836
 10
-3381.227357219989
 20
1961.434829260081
 10
-3379.801177597807
 20
1961.434829260081
 10
-3379.801177597806
 20
1960.009081290325
 10
-3379.801177597806
 20
1958.583333320571
 10
-3378.374997975623
 20
1957.157585350815
 10
-3378.374997975623
 20
1955.73183738106
 10
-3378.374997975623
 20
1954.306089411305
 10
-3378.374997975623
 20
1952.88034144155
 10
-3378.374997975623
 20
1950.02884550204
 10
-3378.374997975623
 20
1948.603097532284
 10
-3378.374997975623
 20
1947.177349562529
 10
-3378.374997975623
 20
1945.751601592774
 10
-3378.374997975623
 20
1944.325853623019
 10
-3378.374997975623
 20
1942.900105653264
 10
-3378.374997975623
 20
1941.474357683509
 10
-3378.374997975623
 20
1940.048609713753
 10
-3378.374997975623
 20
1938.622861743998
 10
-3378.374997975623
 20
1937.197113774243
 10
-3378.374997975623
 20
1935.771365804488
 10
-3378.374997975623
 20
1934.345617834733
 10
-3378.374997975623
 20
1932.919869864978
 10
-3378.374997975623
 20
1931.494121895223
 10
-3378.374997975623
 20
1930.068373925468
 10
-3379.801177597806
 20
1927.216877985957
 10
-3379.801177597807
 20
1925.791130016202
 10
-3379.801177597807
 20
1924.365382046447
 10
-3379.801177597806
 20
1922.939634076692
 10
-3381.227357219989
 20
1920.088138137181
 10
-3381.227357219989
 20
1918.662390167426
 10
-3382.653536842173
 20
1918.662390167426
 10
-3382.653536842173
 20
1915.810894227916
 10
-3382.653536842173
 20
1914.385146258161
 10
-3384.079716464356
 20
1912.959398288406
 10
-3384.079716464356
 20
1911.533650318651
 10
-3384.079716464356
 20
1910.107902348896
 10
-3384.079716464356
 20
1908.682154379141
 10
-3385.505896086539
 20
1908.682154379141
 10
-3385.505896086539
 20
1907.256406409385
 10
-3386.932075708722
 20
1905.83065843963
 10
-3386.932075708722
 20
1904.404910469875
 10
-3388.358255330905
 20
1904.404910469875
 10
-3388.358255330905
 20
1901.553414530365
 10
-3388.358255330905
 20
1900.12766656061
 10
-3388.358255330905
 20
1898.701918590854
 10
-3389.784434953088
 20
1898.701918590854
 10
-3389.784434953088
 20
1897.276170621099
 10
-3389.784434953088
 20
1894.424674681589
 10
-3389.784434953088
 20
1892.998926711834
 10
-3389.784434953088
 20
1891.573178742079
  0
LWPOLYLINE
  5
5A
100
AcDbEntity
  8
54
  6
ByLayer
 62
  256
370
   -1
100
AcDbPolyline
 90
  522
 70
    1
 43
0
 10
-3126.176826429068
 20
1828.731491660991
 10
-3104.548510516456
 20
1828.731491660991
 10
-3103.122330894273
 20
1828.731491660991
 10
-3101.69615127209
 20
1828.731491660991
 10
-3100.269971649907
 20
1828.731491660991
 10
-3098.843792027724
 20
1828.731491660991
 10
-3095.100908464112
 20
1828.731491660991
 10
-3093.674728841929
 20
1827.305743691236
 10
-3094.565253161174
 20
1827.305743691236
 10
-3093.139073538991
 20
1827.305743691236
 10
-3091.712893916808
 20
1827.305743691236
 10
-3090.286714294625
 20
1827.305743691236
 10
-3086.543830731013
 20
1827.305743691236
 10
-3085.11765110883
 20
1825.879995721481
 10
-3086.008175428075
 20
1825.879995721481
 10
-3084.581995805892
 20
1825.879995721481
 10
-3083.155816183709
 20
1825.879995721481
 10
-3080.409378951289
 20
1825.879995721481
 10
-3077.557019706923
 20
1824.454247751726
 10
-3077.451097694976
 20
1824.454247751726
 10
-3073.708214131365
 20
1824.454247751726
 10
-3072.282034509181
 20
1823.028499781971
 10
-3073.172558828427
 20
1823.028499781971
 10
-3071.746379206244
 20
1823.028499781971
 10
-3068.003495642632
 20
1823.028499781971
 10
-3066.577316020449
 20
1821.602751812216
 10
-3067.467840339694
 20
1821.602751812216
 10
-3066.041660717511
 20
1821.602751812216
 10
-3064.615481095328
 20
1821.602751812216
 10
-3063.189301473144
 20
1821.602751812216
 10
-3061.763121850961
 20
1821.602751812216
 10
-3054.742726761619
 20
1821.602751812216
 10
-3054.742726761619
 20
1820.17700384246
 10
-3058.910762606595
 20
1820.17700384246
 10
-3057.484582984412
 20
1820.17700384246
 10
-3056.058403362229
 20
1820.17700384246
 10
-3054.632223740045
 20
1820.17700384246
 10
-3053.206044117863
 20
1820.17700384246
 10
-3051.779864495679
 20
1820.17700384246
 10
-3050.353684873497
 20
1820.17700384246
 10
-3054.521720718472
 20
1820.17700384246
 10
-3054.521720718472
 20
1821.602751812216
 10
-3046.075146006947
 20
1821.602751812216
 10
-3044.648966384764
 20
1821.602751812216
 10
-3043.222786762581
 20
1821.602751812216
 10
-3044.113311081826
 20
1821.602751812216
 10
-3042.687131459643
 20
1823.028499781971
 10
-3037.518068273848
 20
1823.028499781971
 10
-3038.408592593094
 20
1823.028499781971
 10
-3036.98241297091
 20
1824.454247751726
 10
-3033.239529407299
 20
1824.454247751726
 10
-3034.130053726544
 20
1824.454247751726
 10
-3032.703874104361
 20
1825.879995721481
 10
-3028.960990540749
 20
1825.879995721481
 10
-3029.851514859994
 20
1825.879995721481
 10
-3028.425335237811
 20
1827.305743691236
 10
-3024.682451674199
 20
1827.305743691236
 10
-3023.256272052016
 20
1827.305743691236
 10
-3021.830092429833
 20
1827.305743691236
 10
-3025.998128274809
 20
1827.305743691236
 10
-3025.998128274809
 20
1828.731491660991
 10
-3024.571948652626
 20
1828.731491660991
 10
-3024.571948652626
 20
1830.157239630747
 10
-3023.145769030443
 20
1830.157239630747
 10
-3023.145769030443
 20
1828.306468057678
 10
-3021.71958940826
 20
1829.732216027433
 10
-3021.71958940826
 20
1830.266016042608
 10
-3021.71958940826
 20
1831.691764012363
 10
-3021.71958940826
 20
1833.117511982118
 10
-3021.71958940826
 20
1835.969007921628
 10
-3021.71958940826
 20
1838.820503861139
 10
-3021.71958940826
 20
1840.246251830894
 10
-3021.71958940826
 20
1841.671999800649
 10
-3021.71958940826
 20
1843.097747770404
 10
-3021.71958940826
 20
1845.949243709915
 10
-3021.71958940826
 20
1850.22648761918
 10
-3021.71958940826
 20
1851.652235588935
 10
-3021.71958940826
 20
1853.07798355869
 10
-3021.71958940826
 20
1854.503731528445
 10
-3021.71958940826
 20
1855.9294794982
 10
-3021.71958940826
 20
1858.780975437711
 10
-3021.71958940826
 20
1860.206723407466
 10
-3021.71958940826
 20
1861.632471377221
 10
-3021.71958940826
 20
1863.058219346976
 10
-3021.71958940826
 20
1864.483967316731
 10
-3021.71958940826
 20
1865.909715286487
 10
-3021.71958940826
 20
1867.335463256242
 10
-3021.71958940826
 20
1868.761211225997
 10
-3021.71958940826
 20
1870.186959195752
 10
-3021.71958940826
 20
1871.612707165507
 10
-3021.71958940826
 20
1867.444239668103
 10
-3023.145769030443
 20
1867.444239668103
 10
-3023.145769030443
 20
1874.464203105017
 10
-3023.145769030443
 20
1875.889951074772
 10
-3023.145769030443
 20
1877.315699044527
 10
-3023.145769030443
 20
1876.423751089947
 10
-3024.571948652626
 20
1877.849499059702
 10
-3024.571948652626
 20
1881.592942953793
 10
-3024.571948652626
 20
1883.018690923548
 10
-3024.571948652626
 20
1884.444438893303
 10
-3024.571948652626
 20
1885.870186863058
 10
-3024.571948652626
 20
1887.295934832814
 10
-3024.571948652626
 20
1888.721682802569
 10
-3024.571948652626
 20
1890.147430772324
 10
-3024.571948652626
 20
1892.998926711834
 10
-3024.571948652626
 20
1894.424674681589
 10
-3024.571948652626
 20
1895.850422651344
 10
-3024.571948652626
 20
1897.276170621099
 10
-3024.571948652626
 20
1898.701918590854
 10
-3024.571948652626
 20
1900.12766656061
 10
-3024.571948652626
 20
1901.553414530365
 10
-3024.571948652626
 20
1902.97916250012
 10
-3024.571948652626
 20
1898.810695002716
 10
-3025.998128274809
 20
1898.810695002716
 10
-3025.998128274809
 20
1905.83065843963
 10
-3025.998128274809
 20
1907.256406409385
 10
-3025.998128274809
 20
1909.215954394315
 10
-3027.424307896993
 20
1910.64170236407
 10
-3027.424307896993
 20
1914.385146258161
 10
-3027.424307896992
 20
1915.810894227916
 10
-3027.424307896993
 20
1916.344694243091
 10
-3028.850487519175
 20
1917.770442212846
 10
-3028.850487519175
 20
1921.513886106937
 10
-3028.850487519175
 20
1922.939634076692
 10
-3028.850487519175
 20
1924.365382046447
 10
-3028.850487519175
 20
1925.791130016202
 10
-3028.850487519175
 20
1927.216877985957
 10
-3028.850487519175
 20
1923.048410488553
 10
-3030.276667141358
 20
1923.048410488553
 10
-3030.276667141358
 20
1930.068373925468
 10
-3030.276667141358
 20
1931.494121895223
 10
-3030.276667141358
 20
1932.919869864978
 10
-3030.276667141358
 20
1928.751402367574
 10
-3028.425335237811
 20
1928.751402367574
 10
-3029.851514859994
 20
1930.177150337329
 10
-3028.960990540749
 20
1930.177150337329
 10
-3032.703874104361
 20
1930.177150337329
 10
-3034.130053726544
 20
1931.602898307084
 10
-3033.239529407298
 20
1931.602898307084
 10
-3034.665709029482
 20
1931.602898307084
 10
-3038.408592593093
 20
1931.602898307084
 10
-3039.834772215276
 20
1933.028646276839
 10
-3038.944247896031
 20
1933.028646276839
 10
-3040.370427518214
 20
1933.028646276839
 10
-3041.796607140397
 20
1933.028646276839
 10
-3043.222786762581
 20
1933.028646276839
 10
-3046.075146006947
 20
1933.028646276839
 10
-3047.50132562913
 20
1933.028646276839
 10
-3048.927505251314
 20
1933.028646276839
 10
-3050.353684873497
 20
1933.028646276839
 10
-3051.779864495679
 20
1933.028646276839
 10
-3053.206044117863
 20
1933.028646276839
 10
-3054.632223740045
 20
1933.028646276839
 10
-3056.058403362229
 20
1933.028646276839
 10
-3057.484582984412
 20
1933.028646276839
 10
-3058.910762606595
 20
1933.028646276839
 10
-3060.336942228778
 20
1933.028646276839
 10
-3061.763121850961
 20
1933.028646276839
 10
-3063.189301473144
 20
1933.028646276839
 10
-3064.615481095328
 20
1933.028646276839
 10
-3071.63587618467
 20
1933.028646276839
 10
-3071.63587618467
 20
1934.454394246594
 10
-3067.467840339694
 20
1934.454394246594
 10
-3068.894019961877
 20
1934.454394246594
 10
-3070.32019958406
 20
1934.454394246594
 10
-3071.746379206244
 20
1934.454394246594
 10
-3073.172558828427
 20
1934.454394246594
 10
-3074.59873845061
 20
1934.454394246594
 10
-3077.451097694976
 20
1934.454394246594
 10
-3078.877277317159
 20
1934.454394246594
 10
-3080.303456939343
 20
1934.454394246594
 10
-3081.729636561526
 20
1934.454394246594
 10
-3083.155816183709
 20
1934.454394246594
 10
-3084.581995805892
 20
1934.454394246594
 10
-3086.008175428075
 20
1934.454394246594
 10
-3087.434355050258
 20
1934.454394246594
 10
-3088.860534672442
 20
1934.454394246594
 10
-3090.286714294625
 20
1934.454394246594
 10
-3093.139073538991
 20
1934.454394246594
 10
-3093.244995550937
 20
1934.454394246594
 10
-3096.097354795304
 20
1933.028646276839
 10
-3098.843792027724
 20
1933.028646276839
 10
-3100.269971649907
 20
1933.028646276839
 10
-3101.69615127209
 20
1933.028646276839
 10
-3103.122330894273
 20
1933.028646276839
 10
-3104.548510516456
 20
1933.028646276839
 10
-3105.974690138639
 20
1933.028646276839
 10
-3107.400869760822
 20
1933.028646276839
 10
-3108.827049383006
 20
1933.028646276839
 10
-3110.253229005189
 20
1933.028646276839
 10
-3110.359151017135
 20
1933.028646276839
 10
-3110.362590776327
 20
1933.026926917788
 10
-3112.501000269804
 20
1928.751402367574
 10
-3111.789911648946
 20
1928.751402367574
 10
-3111.789911648946
 20
1931.494121895223
 10
-3111.789911648946
 20
1930.068373925468
 10
-3111.789911648946
 20
1928.642625955712
 10
-3111.789911648946
 20
1927.216877985957
 10
-3111.789911648946
 20
1925.791130016202
 10
-3111.789911648946
 20
1924.365382046447
 10
-3111.789911648946
 20
1922.939634076692
 10
-3111.789911648946
 20
1921.513886106937
 10
-3111.789911648946
 20
1920.088138137181
 10
-3111.789911648946
 20
1918.662390167426
 10
-3111.789911648946
 20
1917.236642197671
 10
-3111.789911648946
 20
1912.959398288406
 10
-3111.789911648946
 20
1911.533650318651
 10
-3111.789911648946
 20
1910.107902348896
 10
-3111.789911648946
 20
1908.682154379141
 10
-3111.789911648946
 20
1904.404910469875
 10
-3111.789911648946
 20
1902.97916250012
 10
-3111.789911648946
 20
1901.553414530365
 10
-3111.789911648946
 20
1900.12766656061
 10
-3111.789911648946
 20
1897.739300313142
 10
-3110.363732026763
 20
1889.184812494612
 10
-3110.363732026763
 20
1884.444438893303
 10
-3110.363732026763
 20
1883.018690923548
 10
-3110.363732026763
 20
1880.167194984038
 10
-3110.363732026763
 20
1878.741447014283
 10
-3110.363732026763
 20
1875.889951074772
 10
-3110.363732026763
 20
1874.464203105017
 10
-3110.363732026763
 20
1873.038455135262
 10
-3110.363732026763
 20
1871.612707165507
 10
-3110.363732026763
 20
1875.781174662911
 10
-3108.937552404579
 20
1875.781174662911
 10
-3108.937552404579
 20
1868.761211225997
 10
-3108.937552404579
 20
1867.335463256242
 10
-3108.937552404579
 20
1869.367598610574
 10
-3106.085193160213
 20
1867.941850640819
 10
-3106.085193160213
 20
1866.516102671064
 10
-3103.232833915847
 20
1865.090354701309
 10
-3103.232833915847
 20
1862.524419331802
 10
-3101.806654293664
 20
1861.098671362047
 10
-3101.806654293664
 20
1857.355227467956
 10
-3101.806654293664
 20
1861.523694965359
 10
-3098.954295049297
 20
1861.523694965359
 10
-3098.954295049297
 20
1854.503731528445
 10
-3098.954295049297
 20
1855.395679483026
 10
-3097.528115427114
 20
1853.969931513271
 10
-3097.528115427114
 20
1855.820703086339
 10
-3096.101935804931
 20
1855.820703086339
 10
-3096.101935804931
 20
1854.394955116584
 10
-3094.675756182748
 20
1854.394955116584
 10
-3094.675756182748
 20
1847.37499167967
 10
-3094.675756182748
 20
1847.270216436901
 10
-3093.249576560564
 20
1844.41872049739
 10
-3093.249576560564
 20
1845.840467298053
 10
-3091.823396938381
 20
1845.840467298053
 10
-3091.823396938381
 20
1838.820503861139
 10
-3091.823396938381
 20
1835.969007921628
 10
-3091.823396938381
 20
1833.117511982118
 10
-3091.823396938381
 20
1831.691764012363
 10
-3091.823396938381
 20
1828.840268072852
 10
-3091.823396938381
 20
1827.414520103098
 10
-3091.823396938381
 20
1825.988772133343
 10
-3091.823396938381
 20
1820.285780254322
 10
-3091.823396938381
 20
1818.860032284567
 10
-3091.823396938381
 20
1817.434284314812
 10
-3091.823396938381
 20
1802.505795815377
 10
-3104.438007494883
 20
1815.116588390475
 10
-3104.438007494883
 20
1815.69214802789
 10
-3098.843792027724
 20
1818.860032284567
 10
-3098.843792027724
 20
1817.434284314812
 10
-3097.41761240554
 20
1816.008536345056
 10
-3097.41761240554
 20
1817.434284314812
 10
-3097.41761240554
 20
1818.860032284567
 10
-3097.417612405541
 20
1820.285780254322
 10
-3097.41761240554
 20
1825.988772133343
 10
-3097.417612405541
 20
1827.414520103098
 10
-3097.417612405541
 20
1828.840268072852
 10
-3097.417612405541
 20
1831.691764012363
 10
-3097.41761240554
 20
1833.117511982118
 10
-3097.41761240554
 20
1835.969007921628
 10
-3097.417612405541
 20
1838.820503861139
 10
-3097.41761240554
 20
1840.246251830894
 10
-3098.843792027724
 20
1840.246251830894
 10
-3098.843792027724
 20
1843.097747770404
 10
-3100.269971649907
 20
1845.949243709915
 10
-3100.269971649907
 20
1847.37499167967
 10
-3100.269971649907
 20
1848.800739649425
 10
-3101.69615127209
 20
1848.800739649425
 10
-3101.69615127209
 20
1850.22648761918
 10
-3103.122330894273
 20
1850.22648761918
 10
-3103.122330894273
 20
1851.652235588935
 10
-3104.548510516456
 20
1853.07798355869
 10
-3104.548510516457
 20
1854.503731528445
 10
-3104.548510516456
 20
1855.9294794982
 10
-3107.400869760822
 20
1855.9294794982
 10
-3107.400869760822
 20
1857.355227467956
 10
-3107.400869760822
 20
1858.780975437711
 10
-3108.827049383006
 20
1860.206723407466
 10
-3108.827049383006
 20
1861.632471377221
 10
-3111.679408627372
 20
1863.058219346976
 10
-3111.679408627372
 20
1864.483967316731
 10
-3114.531767871738
 20
1865.909715286487
 10
-3114.531767871738
 20
1867.335463256242
 10
-3114.531767871738
 20
1868.761211225997
 10
-3114.531767871738
 20
1870.186959195752
 10
-3115.957947493922
 20
1870.186959195752
 10
-3115.957947493922
 20
1871.612707165507
 10
-3115.957947493922
 20
1873.038455135262
 10
-3115.957947493922
 20
1874.464203105017
 10
-3115.957947493922
 20
1875.889951074772
 10
-3115.957947493922
 20
1878.741447014283
 10
-3115.957947493922
 20
1880.167194984038
 10
-3115.957947493921
 20
1883.018690923548
 10
-3115.957947493922
 20
1884.444438893303
 10
-3115.957947493922
 20
1888.721682802569
 10
-3117.384127116105
 20
1897.276170621099
 10
-3117.384127116105
 20
1900.12766656061
 10
-3117.384127116105
 20
1901.553414530365
 10
-3117.384127116105
 20
1902.97916250012
 10
-3117.384127116105
 20
1904.404910469875
 10
-3117.384127116105
 20
1908.682154379141
 10
-3117.384127116105
 20
1910.107902348896
 10
-3117.384127116105
 20
1911.533650318651
 10
-3117.384127116105
 20
1912.959398288406
 10
-3117.384127116105
 20
1917.236642197671
 10
-3117.384127116105
 20
1918.662390167426
 10
-3117.384127116105
 20
1920.088138137181
 10
-3117.384127116105
 20
1921.513886106937
 10
-3117.384127116105
 20
1922.939634076692
 10
-3117.384127116105
 20
1924.365382046447
 10
-3117.384127116105
 20
1925.791130016202
 10
-3117.384127116105
 20
1927.216877985957
 10
-3117.384127116105
 20
1928.642625955712
 10
-3117.384127116105
 20
1930.068373925468
 10
-3117.384127116105
 20
1931.494121895223
 10
-3117.384127116105
 20
1934.345617834733
 10
-3115.957947493922
 20
1934.345617834733
 10
-3114.531767871738
 20
1937.197113774243
 10
-3111.679408627372
 20
1938.622861743998
 10
-3110.253229005189
 20
1938.622861743998
 10
-3108.827049383006
 20
1938.622861743998
 10
-3107.400869760822
 20
1938.622861743998
 10
-3105.974690138639
 20
1938.622861743998
 10
-3104.548510516456
 20
1938.622861743998
 10
-3103.122330894273
 20
1938.622861743998
 10
-3101.69615127209
 20
1938.622861743998
 10
-3100.269971649907
 20
1938.622861743998
 10
-3098.843792027724
 20
1938.622861743998
 10
-3097.41761240554
 20
1938.622861743998
 10
-3094.565253161174
 20
1940.048609713753
 10
-3093.139073538991
 20
1940.048609713753
 10
-3090.286714294625
 20
1940.048609713753
 10
-3088.860534672442
 20
1940.048609713753
 10
-3087.434355050259
 20
1940.048609713753
 10
-3086.008175428075
 20
1940.048609713753
 10
-3084.581995805892
 20
1940.048609713753
 10
-3083.155816183709
 20
1940.048609713753
 10
-3081.729636561526
 20
1940.048609713753
 10
-3080.303456939343
 20
1940.048609713753
 10
-3078.877277317159
 20
1940.048609713753
 10
-3077.451097694976
 20
1940.048609713753
 10
-3074.59873845061
 20
1940.048609713753
 10
-3073.172558828427
 20
1940.048609713753
 10
-3071.746379206244
 20
1940.048609713753
 10
-3070.32019958406
 20
1940.048609713753
 10
-3068.894019961877
 20
1940.048609713753
 10
-3067.467840339694
 20
1940.048609713753
 10
-3066.041660717511
 20
1940.048609713753
 10
-3066.041660717511
 20
1938.622861743998
 10
-3064.615481095328
 20
1938.622861743998
 10
-3063.189301473145
 20
1938.622861743998
 10
-3061.763121850961
 20
1938.622861743998
 10
-3060.336942228778
 20
1938.622861743998
 10
-3058.910762606595
 20
1938.622861743998
 10
-3057.484582984412
 20
1938.622861743998
 10
-3056.058403362229
 20
1938.622861743998
 10
-3054.632223740045
 20
1938.622861743998
 10
-3053.206044117863
 20
1938.622861743998
 10
-3051.779864495679
 20
1938.622861743998
 10
-3050.353684873497
 20
1938.622861743998
 10
-3048.927505251314
 20
1938.622861743998
 10
-3047.50132562913
 20
1938.622861743998
 10
-3046.075146006947
 20
1938.622861743998
 10
-3043.222786762581
 20
1938.622861743998
 10
-3041.796607140397
 20
1938.622861743998
 10
-3040.370427518214
 20
1938.622861743998
 10
-3038.944247896031
 20
1938.622861743998
 10
-3037.518068273848
 20
1938.622861743998
 10
-3036.091888651665
 20
1937.197113774243
 10
-3034.665709029482
 20
1937.197113774243
 10
-3033.239529407299
 20
1937.197113774243
 10
-3031.813349785115
 20
1937.197113774243
 10
-3030.387170162932
 20
1935.771365804488
 10
-3028.960990540749
 20
1935.771365804488
 10
-3027.534810918565
 20
1935.771365804488
 10
-3026.108631296383
 20
1934.345617834733
 10
-3024.682451674199
 20
1934.345617834733
 10
-3024.682451674199
 20
1932.919869864978
 10
-3024.682451674199
 20
1931.494121895223
 10
-3024.682451674199
 20
1930.068373925468
 10
-3024.682451674199
 20
1928.642625955712
 10
-3023.256272052016
 20
1928.642625955712
 10
-3023.256272052016
 20
1927.216877985957
 10
-3023.256272052016
 20
1925.791130016202
 10
-3023.256272052016
 20
1924.365382046447
 10
-3023.256272052016
 20
1922.939634076692
 10
-3023.256272052016
 20
1921.513886106937
 10
-3023.256272052016
 20
1920.088138137181
 10
-3021.830092429833
 20
1918.662390167426
 10
-3021.830092429833
 20
1915.810894227916
 10
-3021.830092429833
 20
1914.385146258161
 10
-3021.830092429833
 20
1912.959398288406
 10
-3020.40391280765
 20
1911.533650318651
 10
-3020.40391280765
 20
1907.256406409385
 10
-3020.40391280765
 20
1905.83065843963
 10
-3020.40391280765
 20
1904.404910469875
 10
-3018.977733185467
 20
1904.404910469875
 10
-3018.977733185467
 20
1902.97916250012
 10
-3018.977733185467
 20
1901.553414530365
 10
-3018.977733185467
 20
1900.12766656061
 10
-3018.977733185467
 20
1898.701918590854
 10
-3018.977733185467
 20
1897.276170621099
 10
-3018.977733185467
 20
1895.850422651344
 10
-3018.977733185467
 20
1894.424674681589
 10
-3018.977733185467
 20
1892.998926711834
 10
-3018.977733185467
 20
1890.147430772324
 10
-3018.977733185467
 20
1888.721682802569
 10
-3018.977733185467
 20
1887.295934832814
 10
-3018.977733185467
 20
1885.870186863058
 10
-3018.977733185467
 20
1884.444438893303
 10
-3018.977733185467
 20
1883.018690923548
 10
-3018.977733185467
 20
1881.592942953793
 10
-3018.977733185467
 20
1880.167194984038
 10
-3017.551553563284
 20
1878.741447014283
 10
-3017.551553563284
 20
1877.315699044527
 10
-3017.551553563284
 20
1875.889951074772
 10
-3017.551553563284
 20
1874.464203105017
 10
-3017.551553563284
 20
1873.038455135262
 10
-3016.1253739411
 20
1873.038455135262
 10
-3016.1253739411
 20
1871.612707165507
 10
-3016.1253739411
 20
1870.186959195752
 10
-3016.1253739411
 20
1868.761211225997
 10
-3016.1253739411
 20
1867.335463256242
 10
-3016.1253739411
 20
1865.909715286487
 10
-3016.1253739411
 20
1864.483967316731
 10
-3016.1253739411
 20
1863.058219346976
 10
-3016.1253739411
 20
1861.632471377221
 10
-3016.1253739411
 20
1860.206723407466
 10
-3016.1253739411
 20
1858.780975437711
 10
-3016.1253739411
 20
1855.9294794982
 10
-3016.1253739411
 20
1854.503731528445
 10
-3016.1253739411
 20
1853.07798355869
 10
-3016.1253739411
 20
1851.652235588935
 10
-3016.1253739411
 20
1850.22648761918
 10
-3016.1253739411
 20
1845.949243709915
 10
-3016.1253739411
 20
1843.097747770404
 10
-3016.1253739411
 20
1841.671999800649
 10
-3016.1253739411
 20
1840.246251830894
 10
-3016.1253739411
 20
1838.820503861139
 10
-3016.1253739411
 20
1835.969007921628
 10
-3016.1253739411
 20
1833.117511982118
 10
-3016.1253739411
 20
1831.691764012363
 10
-3016.1253739411
 20
1830.266016042608
 10
-3016.1253739411
 20
1827.414520103098
 10
-3017.551553563284
 20
1825.988772133343
 10
-3017.551553563284
 20
1824.563024163587
 10
-3018.977733185467
 20
1824.563024163587
 10
-3018.977733185467
 20
1823.137276193832
 10
-3020.40391280765
 20
1823.137276193832
 10
-3020.40391280765
 20
1821.711528224077
 10
-3021.830092429833
 20
1821.711528224077
 10
-3023.256272052016
 20
1821.711528224077
 10
-3024.682451674199
 20
1821.711528224077
 10
-3026.108631296383
 20
1821.711528224077
 10
-3027.534810918566
 20
1820.285780254322
 10
-3028.960990540749
 20
1820.285780254322
 10
-3030.387170162932
 20
1820.285780254322
 10
-3031.813349785115
 20
1818.860032284567
 10
-3033.239529407299
 20
1818.860032284567
 10
-3034.665709029482
 20
1818.860032284567
 10
-3036.091888651665
 20
1817.434284314812
 10
-3037.518068273848
 20
1817.434284314812
 10
-3040.370427518214
 20
1817.434284314812
 10
-3041.796607140397
 20
1816.008536345056
 10
-3043.222786762581
 20
1816.008536345056
 10
-3044.648966384764
 20
1816.008536345056
 10
-3046.075146006947
 20
1816.008536345056
 10
-3048.927505251313
 20
1816.008536345056
 10
-3048.927505251313
 20
1814.582788375301
 10
-3050.353684873497
 20
1814.582788375301
 10
-3051.779864495679
 20
1814.582788375301
 10
-3053.206044117863
 20
1814.582788375301
 10
-3054.632223740045
 20
1814.582788375301
 10
-3056.058403362229
 20
1814.582788375301
 10
-3057.484582984412
 20
1814.582788375301
 10
-3058.910762606595
 20
1814.582788375301
 10
-3060.336942228778
 20
1814.582788375301
 10
-3060.336942228778
 20
1816.008536345056
 10
-3061.763121850961
 20
1816.008536345056
 10
-3063.189301473144
 20
1816.008536345056
 10
-3064.615481095328
 20
1816.008536345056
 10
-3066.041660717511
 20
1816.008536345056
 10
-3067.467840339694
 20
1816.008536345056
 10
-3068.894019961877
 20
1816.008536345056
 10
-3070.32019958406
 20
1817.434284314812
 10
-3071.746379206244
 20
1817.434284314812
 10
-3073.172558828427
 20
1817.434284314812
 10
-3074.59873845061
 20
1817.434284314812
 10
-3076.024918072793
 20
1818.860032284567
 10
-3077.451097694976
 20
1818.860032284567
 10
-3078.877277317159
 20
1818.860032284567
 10
-3081.729636561526
 20
1820.285780254322
 10
-3083.155816183709
 20
1820.285780254322
 10
-3084.581995805892
 20
1820.285780254322
 10
-3086.008175428075
 20
1820.285780254322
 10
-3087.434355050258
 20
1820.285780254322
 10
-3088.860534672442
 20
1821.711528224077
 10
-3090.286714294625
 20
1821.711528224077
 10
-3091.712893916808
 20
1821.711528224077
 10
-3093.139073538991
 20
1821.711528224077
 10
-3094.565253161174
 20
1821.711528224077
 10
-3095.991432783358
 20
1821.711528224077
 10
-3097.417612405541
 20
1823.137276193832
 10
-3098.843792027724
 20
1823.137276193832
 10
-3100.269971649907
 20
1823.137276193832
 10
-3101.69615127209
 20
1823.137276193832
 10
-3103.122330894273
 20
1823.137276193832
 10
-3104.548510516457
 20
1823.137276193832
 10
-3105.974690138639
 20
1823.137276193832
  0
ENDSEC
  0
SECTION
  2
OBJECTS
  0
DICTIONARY
  5
C
330
0
100
AcDbDictionary
281
    1
  3
ACAD_GROUP
350
D
  0
DICTIONARY
  5
D
330
C
100
AcDbDictionary
281
    1
  0
PLOTSETTINGS
  5
5B
100
AcDbPlotSettings
  6
1x1
 40
0
 41
0
 42
0
 43
0
  0
ENDSEC
  0
EOF
