  0
SECTION
  2
HEADER
  0
ENDSEC
  0
SECTION
  2
TABLES
  0
ENDSEC
  0
SECTION
  2
BLOCKS
  0
ENDSEC
  0
SECTION
  2
ENTITIES
  0
TEXT
  1
MARK_1
  8
72
 10
-3591.6
 20
1415.6
 11
-3591.6
 21
1415.6
 62
3
 40
8
 50
90
 72
0
 73
1
  0
TEXT
  1
MARK_2
  8
72
 10
-3593.2
 20
2418.8
 11
-3593.2
 21
2418.8
 62
3
 40
8
 50
90
 72
0
 73
1
  0
POLYLINE
  8
54
 62
7
 66
1
 70
1
  0
VERTEX
  8
54
 62
7
  6
CONTINUOUS
 10
-3149.52017641655
 20
2390.32987267128
  0
VERTEX
  8
54
 62
7
  6
CONTINUOUS
 10
-3149.14020021151
 20
2387.66272661536
  0
VERTEX
  8
54
 62
7
  6
CONTINUOUS
 10
-3143.27742222002
 20
2375.62087521524
  0
VERTEX
  8
54
 62
7
  6
CONTINUOUS
 10
-3136.01777108355
 20
2363.24828758061
  0
VERTEX
  8
54
 62
7
  6
CONTINUOUS
 10
-3133.53180832034
 20
2354.81453268614
  0
VERTEX
  8
54
 62
7
  6
CONTINUOUS
 10
-3128.32933277858
 20
2343.02693477149
  0
VERTEX
  8
54
 62
7
  6
CONTINUOUS
 10
-3123.75979990612
 20
2336.598980216
  0
VERTEX
  8
54
 62
7
  6
CONTINUOUS
 10
-3119.16586155192
 20
2327.58021610123
  0
VERTEX
  8
54
 62
7
  6
CONTINUOUS
 10
-3110.30536702274
 20
2316.88341408295
  0
VERTEX
  8
54
 62
7
  6
CONTINUOUS
 10
-3103.70559907908
 20
2305.85727985332
  0
VERTEX
  8
54
 62
7
  6
CONTINUOUS
 10
-3097.73938806485
 20
2298.59058910074
  0
VERTEX
  8
54
 62
7
  6
CONTINUOUS
 10
-3093.60269842778
 20
2289.44500049822
  0
VERTEX
  8
54
 62
7
  6
CONTINUOUS
 10
-3082.61035908473
 20
2274.17537980328
  0
VERTEX
  8
54
 62
7
  6
CONTINUOUS
 10
-3080.75768999659
 20
2270.18686833534
  0
VERTEX
  8
54
 62
7
  6
CONTINUOUS
 10
-3071.87216597538
 20
2258.52485663802
  0
VERTEX
  8
54
 62
7
  6
CONTINUOUS
 10
-3067.83673507519
 20
2250.26830697064
  0
VERTEX
  8
54
 62
7
  6
CONTINUOUS
 10
-3058.39305460577
 20
2236.92968089329
  0
VERTEX
  8
54
 62
7
  6
CONTINUOUS
 10
-3052.83439408057
 20
2226.66594636411
  0
VERTEX
  8
54
 62
7
  6
CONTINUOUS
 10
-3051.43736493301
 20
2226.74161009965
  0
VERTEX
  8
54
 62
7
  6
CONTINUOUS
 10
-3029.5676837896
 20
2227.46981515692
  0
VERTEX
  8
54
 62
7
  6
CONTINUOUS
 10
-2988.39140077549
 20
2234.97240959231
  0
VERTEX
  8
54
 62
7
  6
CONTINUOUS
 10
-2991.61578676451
 20
2238.65664759138
  0
VERTEX
  8
54
 62
7
  6
CONTINUOUS
 10
-2994.17824202693
 20
2246.32843179247
  0
VERTEX
  8
54
 62
7
  6
CONTINUOUS
 10
-2999.35655584098
 20
2254.89022019463
  0
VERTEX
  8
54
 62
7
  6
CONTINUOUS
 10
-3004.25441665824
 20
2266.1951011429
  0
VERTEX
  8
54
 62
7
  6
CONTINUOUS
 10
-3009.17434291863
 20
2286.18679120133
  0
VERTEX
  8
54
 62
7
  6
CONTINUOUS
 10
-3011.25560223977
 20
2290.20079041884
  0
VERTEX
  8
54
 62
7
  6
CONTINUOUS
 10
-3016.60910299762
 20
2305.5698465706
  0
VERTEX
  8
54
 62
7
  6
CONTINUOUS
 10
-3022.0359567029
 20
2328.35573142639
  0
VERTEX
  8
54
 62
7
  6
CONTINUOUS
 10
-3028.47940509313
 20
2349.59260640277
  0
VERTEX
  8
54
 62
7
  6
CONTINUOUS
 10
-3032.66209764734
 20
2371.2350135849
  0
VERTEX
  8
54
 62
7
  6
CONTINUOUS
 10
-3041.84577203641
 20
2400.21994100788
  0
VERTEX
  8
54
 62
7
  6
CONTINUOUS
 10
-3044.27885801912
 20
2414.06387600342
  0
VERTEX
  8
54
 62
7
  6
CONTINUOUS
 10
-3050.04424808756
 20
2415.13288921133
  0
VERTEX
  8
54
 62
7
  6
CONTINUOUS
 10
-3054.74339399377
 20
2414.75369301915
  0
VERTEX
  8
54
 62
7
  6
CONTINUOUS
 10
-3068.61362600224
 20
2409.98381695877
  0
VERTEX
  8
54
 62
7
  6
CONTINUOUS
 10
-3076.69125441422
 20
2408.86931759225
  0
VERTEX
  8
54
 62
7
  6
CONTINUOUS
 10
-3088.32593558157
 20
2405.01298345035
  0
VERTEX
  8
54
 62
7
  6
CONTINUOUS
 10
-3120.50947848933
 20
2400.47873723908
  0
VERTEX
  8
54
 62
7
  6
CONTINUOUS
 10
-3128.96843837871
 20
2398.5007841886
  0
VERTEX
  8
54
 62
7
  6
CONTINUOUS
 10
-3146.69996736093
 20
2392.43699024811
  0
SEQEND
  0
POLYLINE
  8
54
 62
7
 66
1
 70
1
  0
VERTEX
  8
54
 62
7
  6
CONTINUOUS
 10
-3497.09371989982
 20
2258.20548411577
  0
VERTEX
  8
54
 62
7
  6
CONTINUOUS
 10
-3495.70079556997
 20
2247.58774863916
  0
VERTEX
  8
54
 62
7
  6
CONTINUOUS
 10
-3490.63006834718
 20
2223.43040038667
  0
VERTEX
  8
54
 62
7
  6
CONTINUOUS
 10
-3488.85378450648
 20
2218.95931820477
  0
VERTEX
  8
54
 62
7
  6
CONTINUOUS
 10
-3486.72148143506
 20
2215.58029944016
  0
VERTEX
  8
54
 62
7
  6
CONTINUOUS
 10
-3474.83667110026
 20
2209.35273682338
  0
VERTEX
  8
54
 62
7
  6
CONTINUOUS
 10
-3464.72849561195
 20
2206.68185645587
  0
VERTEX
  8
54
 62
7
  6
CONTINUOUS
 10
-3453.70487692381
 20
2206.72842488234
  0
VERTEX
  8
54
 62
7
  6
CONTINUOUS
 10
-3437.0924786345
 20
2208.80484812371
  0
VERTEX
  8
54
 62
7
  6
CONTINUOUS
 10
-3426.39912817315
 20
2208.67374331536
  0
VERTEX
  8
54
 62
7
  6
CONTINUOUS
 10
-3407.04486585798
 20
2207.26931379575
  0
VERTEX
  8
54
 62
7
  6
CONTINUOUS
 10
-3387.05522333332
 20
2206.85524044913
  0
VERTEX
  8
54
 62
7
  6
CONTINUOUS
 10
-3372.70501415367
 20
2204.79233175985
  0
VERTEX
  8
54
 62
7
  6
CONTINUOUS
 10
-3331.02436798697
 20
2202.82053189005
  0
VERTEX
  8
54
 62
7
  6
CONTINUOUS
 10
-3301.00081943655
 20
2204.76480705587
  0
VERTEX
  8
54
 62
7
  6
CONTINUOUS
 10
-3279.66501601171
 20
2204.24861695821
  0
VERTEX
  8
54
 62
7
  6
CONTINUOUS
 10
-3276.00715302685
 20
2204.93301288453
  0
VERTEX
  8
54
 62
7
  6
CONTINUOUS
 10
-3266.70918393588
 20
2209.01884402438
  0
VERTEX
  8
54
 62
7
  6
CONTINUOUS
 10
-3263.91518414173
 20
2209.01777150669
  0
VERTEX
  8
54
 62
7
  6
CONTINUOUS
 10
-3260.94284810184
 20
2210.41363063495
  0
VERTEX
  8
54
 62
7
  6
CONTINUOUS
 10
-3250.22333712981
 20
2212.26371593048
  0
VERTEX
  8
54
 62
7
  6
CONTINUOUS
 10
-3239.01936391263
 20
2218.96501561552
  0
VERTEX
  8
54
 62
7
  6
CONTINUOUS
 10
-3235.69020912884
 20
2223.5357380076
  0
VERTEX
  8
54
 62
7
  6
CONTINUOUS
 10
-3230.01569387601
 20
2250.40676174183
  0
VERTEX
  8
54
 62
7
  6
CONTINUOUS
 10
-3231.46314276355
 20
2251.32171743363
  0
VERTEX
  8
54
 62
7
  6
CONTINUOUS
 10
-3230.16765510755
 20
2251.54982015858
  0
VERTEX
  8
54
 62
7
  6
CONTINUOUS
 10
-3228.76988494777
 20
2253.5558837519
  0
VERTEX
  8
54
 62
7
  6
CONTINUOUS
 10
-3229.68105757717
 20
2261.96363413827
  0
VERTEX
  8
54
 62
7
  6
CONTINUOUS
 10
-3228.89007932616
 20
2271.28513119649
  0
VERTEX
  8
54
 62
7
  6
CONTINUOUS
 10
-3232.20823592856
 20
2295.3656066935
  0
VERTEX
  8
54
 62
7
  6
CONTINUOUS
 10
-3234.06120727169
 20
2298.56671821944
  0
VERTEX
  8
54
 62
7
  6
CONTINUOUS
 10
-3236.21948560072
 20
2300.44714684463
  0
VERTEX
  8
54
 62
7
  6
CONTINUOUS
 10
-3242.89812508282
 20
2304.51371083751
  0
VERTEX
  8
54
 62
7
  6
CONTINUOUS
 10
-3254.17521724357
 20
2305.8388398116
  0
VERTEX
  8
54
 62
7
  6
CONTINUOUS
 10
-3262.12458789416
 20
2308.00089145286
  0
VERTEX
  8
54
 62
7
  6
CONTINUOUS
 10
-3283.66388380885
 20
2307.75515960795
  0
VERTEX
  8
54
 62
7
  6
CONTINUOUS
 10
-3309.8507748711
 20
2309.08601192644
  0
VERTEX
  8
54
 62
7
  6
CONTINUOUS
 10
-3324.02430533234
 20
2308.2278525798
  0
VERTEX
  8
54
 62
7
  6
CONTINUOUS
 10
-3346.93507439389
 20
2308.31284721924
  0
VERTEX
  8
54
 62
7
  6
CONTINUOUS
 10
-3370.50589240098
 20
2309.31249529549
  0
VERTEX
  8
54
 62
7
  6
CONTINUOUS
 10
-3397.12518794139
 20
2309.06871348274
  0
VERTEX
  8
54
 62
7
  6
CONTINUOUS
 10
-3428.84947359891
 20
2309.89369137371
  0
VERTEX
  8
54
 62
7
  6
CONTINUOUS
 10
-3453.05622757466
 20
2308.45518338364
  0
VERTEX
  8
54
 62
7
  6
CONTINUOUS
 10
-3470.32931832014
 20
2305.61701370258
  0
VERTEX
  8
54
 62
7
  6
CONTINUOUS
 10
-3483.81822860137
 20
2301.68519132804
  0
VERTEX
  8
54
 62
7
  6
CONTINUOUS
 10
-3487.90965633352
 20
2296.40356149318
  0
VERTEX
  8
54
 62
7
  6
CONTINUOUS
 10
-3496.02089437904
 20
2273.90227345251
  0
VERTEX
  8
54
 62
7
  6
CONTINUOUS
 10
-3497.03989735371
 20
2266.07946403532
  0
SEQEND
  0
POLYLINE
  8
54
 62
7
 66
1
 70
1
  0
VERTEX
  8
54
 62
7
  6
CONTINUOUS
 10
-3332.48788348112
 20
2029.54228091538
  0
VERTEX
  8
54
 62
7
  6
CONTINUOUS
 10
-3332.41707532567
 20
2015.49605269977
  0
VERTEX
  8
54
 62
7
  6
CONTINUOUS
 10
-3330.81944948602
 20
2008.78983893368
  0
VERTEX
  8
54
 62
7
  6
CONTINUOUS
 10
-3326.47876035073
 20
2001.72697217642
  0
VERTEX
  8
54
 62
7
  6
CONTINUOUS
 10
-3326.83405806954
 20
2002.51450862066
  0
VERTEX
  8
54
 62
7
  6
CONTINUOUS
 10
-3330.53929874422
 20
2010.74553153781
  0
VERTEX
  8
54
 62
7
  6
CONTINUOUS
 10
-3318.02552380575
 20
1988.7951263254
  0
VERTEX
  8
54
 62
7
  6
CONTINUOUS
 10
-3309.16499027592
 20
1978.19992429963
  0
VERTEX
  8
54
 62
7
  6
CONTINUOUS
 10
-3304.08649217496
 20
1974.28637455566
  0
VERTEX
  8
54
 62
7
  6
CONTINUOUS
 10
-3297.45863318879
 20
1970.27063005937
  0
VERTEX
  8
54
 62
7
  6
CONTINUOUS
 10
-3284.81120865
 20
1965.64297481987
  0
VERTEX
  8
54
 62
7
  6
CONTINUOUS
 10
-3271.24778515221
 20
1965.18056826768
  0
VERTEX
  8
54
 62
7
  6
CONTINUOUS
 10
-3266.11645902154
 20
1966.55019863414
  0
VERTEX
  8
54
 62
7
  6
CONTINUOUS
 10
-3257.98723110012
 20
1969.74747834689
  0
VERTEX
  8
54
 62
7
  6
CONTINUOUS
 10
-3251.02699785242
 20
1971.39580668118
  0
VERTEX
  8
54
 62
7
  6
CONTINUOUS
 10
-3247.82587657631
 20
1973.27417802244
  0
VERTEX
  8
54
 62
7
  6
CONTINUOUS
 10
-3236.7734843344
 20
1982.10913605125
  0
VERTEX
  8
54
 62
7
  6
CONTINUOUS
 10
-3233.44377379143
 20
1988.12765833667
  0
VERTEX
  8
54
 62
7
  6
CONTINUOUS
 10
-3229.88388373926
 20
1998.26089256748
  0
VERTEX
  8
54
 62
7
  6
CONTINUOUS
 10
-3228.7636707785
 20
2005.06766305887
  0
VERTEX
  8
54
 62
7
  6
CONTINUOUS
 10
-3225.33254549608
 20
2010.60354637921
  0
VERTEX
  8
54
 62
7
  6
CONTINUOUS
 10
-3224.21272254175
 20
2016.39431694546
  0
VERTEX
  8
54
 62
7
  6
CONTINUOUS
 10
-3223.69855072739
 20
2032.47232075766
  0
VERTEX
  8
54
 62
7
  6
CONTINUOUS
 10
-3226.1326799773
 20
2043.59845595344
  0
VERTEX
  8
54
 62
7
  6
CONTINUOUS
 10
-3233.97630681703
 20
2056.55546779873
  0
VERTEX
  8
54
 62
7
  6
CONTINUOUS
 10
-3237.17524405711
 20
2060.36669603829
  0
VERTEX
  8
54
 62
7
  6
CONTINUOUS
 10
-3249.94795255824
 20
2069.46479969923
  0
VERTEX
  8
54
 62
7
  6
CONTINUOUS
 10
-3261.14765520499
 20
2073.88869919453
  0
VERTEX
  8
54
 62
7
  6
CONTINUOUS
 10
-3263.15366029734
 20
2075.43886934308
  0
VERTEX
  8
54
 62
7
  6
CONTINUOUS
 10
-3275.21783064477
 20
2077.6025005104
  0
VERTEX
  8
54
 62
7
  6
CONTINUOUS
 10
-3296.09782837628
 20
2074.48631537277
  0
VERTEX
  8
54
 62
7
  6
CONTINUOUS
 10
-3306.2079928974
 20
2071.97559612204
  0
VERTEX
  8
54
 62
7
  6
CONTINUOUS
 10
-3310.50138234416
 20
2069.9198440508
  0
VERTEX
  8
54
 62
7
  6
CONTINUOUS
 10
-3315.81161998006
 20
2065.6546821488
  0
VERTEX
  8
54
 62
7
  6
CONTINUOUS
 10
-3323.07915899663
 20
2057.47867129737
  0
VERTEX
  8
54
 62
7
  6
CONTINUOUS
 10
-3330.73207580734
 20
2037.89820753861
  0
SEQEND
  0
POLYLINE
  8
54
 62
7
 66
1
 70
1
  0
VERTEX
  8
54
 62
7
  6
CONTINUOUS
 10
-3116.99481963137
 20
1606.26674832349
  0
VERTEX
  8
54
 62
7
  6
CONTINUOUS
 10
-3116.59287294527
 20
1578.65649757959
  0
VERTEX
  8
54
 62
7
  6
CONTINUOUS
 10
-3109.86084116663
 20
1532.62439167068
  0
VERTEX
  8
54
 62
7
  6
CONTINUOUS
 10
-3107.52687524957
 20
1506.5106528082
  0
VERTEX
  8
54
 62
7
  6
CONTINUOUS
 10
-3105.57950775427
 20
1498.71074266012
  0
VERTEX
  8
54
 62
7
  6
CONTINUOUS
 10
-3103.37758717906
 20
1514.91357130762
  0
VERTEX
  8
54
 62
7
  6
CONTINUOUS
 10
-3103.37953710304
 20
1513.1101723618
  0
VERTEX
  8
54
 62
7
  6
CONTINUOUS
 10
-3101.6808964254
 20
1510.18733400016
  0
VERTEX
  8
54
 62
7
  6
CONTINUOUS
 10
-3101.47028529434
 20
1493.55009655186
  0
VERTEX
  8
54
 62
7
  6
CONTINUOUS
 10
-3100.7611180252
 20
1491.66972866647
  0
VERTEX
  8
54
 62
7
  6
CONTINUOUS
 10
-3095.29970926166
 20
1492.04482374438
  0
VERTEX
  8
54
 62
7
  6
CONTINUOUS
 10
-3082.34890262521
 20
1489.08441897051
  0
VERTEX
  8
54
 62
7
  6
CONTINUOUS
 10
-3076.40533356326
 20
1489.05259247534
  0
VERTEX
  8
54
 62
7
  6
CONTINUOUS
 10
-3067.94488648262
 20
1491.12624583974
  0
VERTEX
  8
54
 62
7
  6
CONTINUOUS
 10
-3048.40913957283
 20
1494.02612453311
  0
VERTEX
  8
54
 62
7
  6
CONTINUOUS
 10
-3030.34942056484
 20
1494.31139765143
  0
VERTEX
  8
54
 62
7
  6
CONTINUOUS
 10
-3009.67594735705
 20
1492.33324332822
  0
VERTEX
  8
54
 62
7
  6
CONTINUOUS
 10
-3006.0421565846
 20
1493.80251515538
  0
VERTEX
  8
54
 62
7
  6
CONTINUOUS
 10
-3001.28760813788
 20
1498.19157687149
  0
VERTEX
  8
54
 62
7
  6
CONTINUOUS
 10
-2999.83563449905
 20
1502.05080918273
  0
VERTEX
  8
54
 62
7
  6
CONTINUOUS
 10
-2998.88451999659
 20
1512.51458690796
  0
VERTEX
  8
54
 62
7
  6
CONTINUOUS
 10
-2997.20391902767
 20
1516.39897203089
  0
VERTEX
  8
54
 62
7
  6
CONTINUOUS
 10
-2995.7656183664
 20
1531.10402546594
  0
VERTEX
  8
54
 62
7
  6
CONTINUOUS
 10
-2995.20472749646
 20
1556.52883386545
  0
VERTEX
  8
54
 62
7
  6
CONTINUOUS
 10
-2996.30277267594
 20
1574.61483169757
  0
VERTEX
  8
54
 62
7
  6
CONTINUOUS
 10
-2998.13997155061
 20
1590.33942735834
  0
VERTEX
  8
54
 62
7
  6
CONTINUOUS
 10
-3000.71687339484
 20
1603.19462114471
  0
VERTEX
  8
54
 62
7
  6
CONTINUOUS
 10
-3001.84751405359
 20
1614.62585033061
  0
VERTEX
  8
54
 62
7
  6
CONTINUOUS
 10
-3001.48466383989
 20
1621.3310619188
  0
VERTEX
  8
54
 62
7
  6
CONTINUOUS
 10
-3014.75547010165
 20
1642.40048616686
  0
VERTEX
  8
54
 62
7
  6
CONTINUOUS
 10
-3021.15614287798
 20
1642.73314318306
  0
VERTEX
  8
54
 62
7
  6
CONTINUOUS
 10
-3037.36240445157
 20
1639.97076398964
  0
VERTEX
  8
54
 62
7
  6
CONTINUOUS
 10
-3084.42810372572
 20
1641.28423094218
  0
VERTEX
  8
54
 62
7
  6
CONTINUOUS
 10
-3103.04653635787
 20
1640.68177785497
  0
VERTEX
  8
54
 62
7
  6
CONTINUOUS
 10
-3108.07623324554
 20
1639.38830848226
  0
VERTEX
  8
54
 62
7
  6
CONTINUOUS
 10
-3110.05801810922
 20
1637.86506910708
  0
VERTEX
  8
54
 62
7
  6
CONTINUOUS
 10
-3113.94627510683
 20
1632.50716127655
  0
VERTEX
  8
54
 62
7
  6
CONTINUOUS
 10
-3115.19202553411
 20
1629.51043925525
  0
SEQEND
  0
POLYLINE
  8
54
 62
7
 66
1
 70
1
  0
VERTEX
  8
54
 62
7
  6
CONTINUOUS
 10
-3590.03258088494
 20
1617.47162635709
  0
VERTEX
  8
54
 62
7
  6
CONTINUOUS
 10
-3587.15738812005
 20
1598.59630652498
  0
VERTEX
  8
54
 62
7
  6
CONTINUOUS
 10
-3584.36583402419
 20
1596.33268683744
  0
VERTEX
  8
54
 62
7
  6
CONTINUOUS
 10
-3582.30810566223
 20
1596.6352620981
  0
VERTEX
  8
54
 62
7
  6
CONTINUOUS
 10
-3584.57444545322
 20
1602.41887100822
  0
VERTEX
  8
54
 62
7
  6
CONTINUOUS
 10
-3583.87798873615
 20
1601.18356219091
  0
VERTEX
  8
54
 62
7
  6
CONTINUOUS
 10
-3581.72121455935
 20
1599.12382897753
  0
VERTEX
  8
54
 62
7
  6
CONTINUOUS
 10
-3578.8585962233
 20
1592.11032967532
  0
VERTEX
  8
54
 62
7
  6
CONTINUOUS
 10
-3566.96599677353
 20
1573.6062600006
  0
VERTEX
  8
54
 62
7
  6
CONTINUOUS
 10
-3564.65981623109
 20
1568.7777636233
  0
VERTEX
  8
54
 62
7
  6
CONTINUOUS
 10
-3563.18878672597
 20
1566.76957190061
  0
VERTEX
  8
54
 62
7
  6
CONTINUOUS
 10
-3555.85316194988
 20
1562.16423757351
  0
VERTEX
  8
54
 62
7
  6
CONTINUOUS
 10
-3549.68706250324
 20
1556.51876718619
  0
VERTEX
  8
54
 62
7
  6
CONTINUOUS
 10
-3541.71341708936
 20
1554.70674463291
  0
VERTEX
  8
54
 62
7
  6
CONTINUOUS
 10
-3525.40725828701
 20
1554.10491326744
  0
VERTEX
  8
54
 62
7
  6
CONTINUOUS
 10
-3516.84699640744
 20
1554.52745774206
  0
VERTEX
  8
54
 62
7
  6
CONTINUOUS
 10
-3511.51039047221
 20
1556.93468895075
  0
VERTEX
  8
54
 62
7
  6
CONTINUOUS
 10
-3502.56349875316
 20
1562.56381842585
  0
VERTEX
  8
54
 62
7
  6
CONTINUOUS
 10
-3492.59794364735
 20
1570.65564791201
  0
VERTEX
  8
54
 62
7
  6
CONTINUOUS
 10
-3491.0968178613
 20
1572.99082618667
  0
VERTEX
  8
54
 62
7
  6
CONTINUOUS
 10
-3479.96278104734
 20
1581.15759229726
  0
VERTEX
  8
54
 62
7
  6
CONTINUOUS
 10
-3473.44956414341
 20
1591.1581557355
  0
VERTEX
  8
54
 62
7
  6
CONTINUOUS
 10
-3468.25728378601
 20
1601.03314736132
  0
VERTEX
  8
54
 62
7
  6
CONTINUOUS
 10
-3465.88769742668
 20
1607.86318924155
  0
VERTEX
  8
54
 62
7
  6
CONTINUOUS
 10
-3462.36569168022
 20
1623.40419016175
  0
VERTEX
  8
54
 62
7
  6
CONTINUOUS
 10
-3459.37969754813
 20
1649.70856220606
  0
VERTEX
  8
54
 62
7
  6
CONTINUOUS
 10
-3459.98724996944
 20
1655.04279581693
  0
VERTEX
  8
54
 62
7
  6
CONTINUOUS
 10
-3466.25255711714
 20
1677.16860247669
  0
VERTEX
  8
54
 62
7
  6
CONTINUOUS
 10
-3474.93431564399
 20
1690.30373606419
  0
VERTEX
  8
54
 62
7
  6
CONTINUOUS
 10
-3479.22506279718
 20
1695.13138348581
  0
VERTEX
  8
54
 62
7
  6
CONTINUOUS
 10
-3490.80420539012
 20
1703.6194289341
  0
VERTEX
  8
54
 62
7
  6
CONTINUOUS
 10
-3500.83621988469
 20
1706.18868005862
  0
VERTEX
  8
54
 62
7
  6
CONTINUOUS
 10
-3519.93650171889
 20
1707.54221208037
  0
VERTEX
  8
54
 62
7
  6
CONTINUOUS
 10
-3535.73561256005
 20
1706.73547674028
  0
VERTEX
  8
54
 62
7
  6
CONTINUOUS
 10
-3550.54554699766
 20
1702.21996141714
  0
VERTEX
  8
54
 62
7
  6
CONTINUOUS
 10
-3555.7540481388
 20
1698.31036048829
  0
VERTEX
  8
54
 62
7
  6
CONTINUOUS
 10
-3559.66635961235
 20
1696.45766214967
  0
VERTEX
  8
54
 62
7
  6
CONTINUOUS
 10
-3575.67422803019
 20
1681.17300587755
  0
VERTEX
  8
54
 62
7
  6
CONTINUOUS
 10
-3584.21419474324
 20
1666.67288300013
  0
VERTEX
  8
54
 62
7
  6
CONTINUOUS
 10
-3586.63013911402
 20
1659.00300983057
  0
VERTEX
  8
54
 62
7
  6
CONTINUOUS
 10
-3588.13194680652
 20
1650.64698570573
  0
SEQEND
  0
POLYLINE
  8
11
 62
7
 66
1
 70
1
  0
VERTEX
  8
11
 62
7
  6
CONTINUOUS
 10
-3268.8
 20
1512.4
  0
VERTEX
  8
11
 62
7
  6
CONTINUOUS
 10
-3268.8
 20
1515.84
  0
VERTEX
  8
11
 62
7
  6
CONTINUOUS
 10
-3242.16949152542
 20
1574.42711864407
  0
VERTEX
  8
11
 62
7
  6
CONTINUOUS
 10
-3230.06060606061
 20
1590.86060606061
  0
VERTEX
  8
11
 62
7
  6
CONTINUOUS
 10
-3228
 20
1588.8
  0
VERTEX
  8
11
 62
7
  6
CONTINUOUS
 10
-3220.42352941176
 20
1572.56470588235
  0
VERTEX
  8
11
 62
7
  6
CONTINUOUS
 10
-3213.20533333333
 20
1552.71466666667
  0
VERTEX
  8
11
 62
7
  6
CONTINUOUS
 10
-3197.38591549296
 20
1493.6
  0
VERTEX
  8
11
 62
7
  6
CONTINUOUS
 10
-3204.53333333333
 20
1493.6
  0
VERTEX
  8
11
 62
7
  6
CONTINUOUS
 10
-3233.86666666667
 20
1500.64
  0
VERTEX
  8
11
 62
7
  6
CONTINUOUS
 10
-3262.4
 20
1509.2
  0
SEQEND
  0
POLYLINE
  8
1
 62
7
 66
1
 70
1
  0
VERTEX
  8
1
 62
7
  6
CONTINUOUS
 10
-3329.6
 20
2018.4
  0
VERTEX
  8
1
 62
7
  6
CONTINUOUS
 10
-3318.4
 20
1991.2
  0
VERTEX
  8
1
 62
7
  6
CONTINUOUS
 10
-3305.6
 20
1977.6
  0
VERTEX
  8
1
 62
7
  6
CONTINUOUS
 10
-3282.4
 20
1966.4
  0
VERTEX
  8
1
 62
7
  6
CONTINUOUS
 10
-3264
 20
1966.4
  0
VERTEX
  8
1
 62
7
  6
CONTINUOUS
 10
-3244
 20
1974.4
  0
VERTEX
  8
1
 62
7
  6
CONTINUOUS
 10
-3228.8
 20
1992
  0
VERTEX
  8
1
 62
7
  6
CONTINUOUS
 10
-3220.8
 20
2015.2
  0
VERTEX
  8
1
 62
7
  6
CONTINUOUS
 10
-3221.6
 20
2030.4
  0
VERTEX
  8
1
 62
7
  6
CONTINUOUS
 10
-3231.2
 20
2052
  0
VERTEX
  8
1
 62
7
  6
CONTINUOUS
 10
-3244
 20
2064
  0
VERTEX
  8
1
 62
7
  6
CONTINUOUS
 10
-3270.4
 20
2076
  0
VERTEX
  8
1
 62
7
  6
CONTINUOUS
 10
-3300.8
 20
2072
  0
VERTEX
  8
1
 62
7
  6
CONTINUOUS
 10
-3319.2
 20
2056
  0
VERTEX
  8
1
 62
7
  6
CONTINUOUS
 10
-3328
 20
2036
  0
SEQEND
  0
POLYLINE
  8
11
 62
7
 66
1
 70
1
  0
VERTEX
  8
11
 62
7
  6
CONTINUOUS
 10
-3332.8
 20
2019.2
  0
VERTEX
  8
11
 62
7
  6
CONTINUOUS
 10
-3332.8
 20
2036.8
  0
VERTEX
  8
11
 62
7
  6
CONTINUOUS
 10
-3323.54285714286
 20
2055.31428571429
  0
VERTEX
  8
11
 62
7
  6
CONTINUOUS
 10
-3310.56
 20
2069.92
  0
VERTEX
  8
11
 62
7
  6
CONTINUOUS
 10
-3296.4
 20
2077
  0
VERTEX
  8
11
 62
7
  6
CONTINUOUS
 10
-3283.2
 20
2079.2
  0
VERTEX
  8
11
 62
7
  6
CONTINUOUS
 10
-3272.8
 20
2079.2
  0
VERTEX
  8
11
 62
7
  6
CONTINUOUS
 10
-3262
 20
2077.4
  0
VERTEX
  8
11
 62
7
  6
CONTINUOUS
 10
-3246.93333333333
 20
2069.86666666667
  0
VERTEX
  8
11
 62
7
  6
CONTINUOUS
 10
-3237.6
 20
2062.4
  0
VERTEX
  8
11
 62
7
  6
CONTINUOUS
 10
-3228.8
 20
2053.6
  0
VERTEX
  8
11
 62
7
  6
CONTINUOUS
 10
-3222.4
 20
2040.8
  0
VERTEX
  8
11
 62
7
  6
CONTINUOUS
 10
-3218.4
 20
2028.8
  0
VERTEX
  8
11
 62
7
  6
CONTINUOUS
 10
-3218.4
 20
2013.6
  0
VERTEX
  8
11
 62
7
  6
CONTINUOUS
 10
-3221.6
 20
2000.8
  0
VERTEX
  8
11
 62
7
  6
CONTINUOUS
 10
-3227.8
 20
1988.4
  0
VERTEX
  8
11
 62
7
  6
CONTINUOUS
 10
-3238.8
 20
1975.2
  0
VERTEX
  8
11
 62
7
  6
CONTINUOUS
 10
-3247.2
 20
1969.6
  0
VERTEX
  8
11
 62
7
  6
CONTINUOUS
 10
-3256.8
 20
1964.8
  0
VERTEX
  8
11
 62
7
  6
CONTINUOUS
 10
-3266.4
 20
1963.2
  0
VERTEX
  8
11
 62
7
  6
CONTINUOUS
 10
-3279.2
 20
1963.2
  0
VERTEX
  8
11
 62
7
  6
CONTINUOUS
 10
-3290.27692307692
 20
1965.66153846154
  0
VERTEX
  8
11
 62
7
  6
CONTINUOUS
 10
-3302.33846153846
 20
1970.83076923077
  0
VERTEX
  8
11
 62
7
  6
CONTINUOUS
 10
-3311.70909090909
 20
1978.32727272727
  0
VERTEX
  8
11
 62
7
  6
CONTINUOUS
 10
-3321.92
 20
1990.24
  0
VERTEX
  8
11
 62
7
  6
CONTINUOUS
 10
-3329.2
 20
2004.8
  0
SEQEND
  0
POLYLINE
  8
11
 62
7
 66
1
 70
1
  0
VERTEX
  8
11
 62
7
  6
CONTINUOUS
 10
-3499.67058823529
 20
2266.63529411765
  0
VERTEX
  8
11
 62
7
  6
CONTINUOUS
 10
-3498
 20
2280
  0
VERTEX
  8
11
 62
7
  6
CONTINUOUS
 10
-3492
 20
2292
  0
VERTEX
  8
11
 62
7
  6
CONTINUOUS
 10
-3479.6
 20
2304.4
  0
VERTEX
  8
11
 62
7
  6
CONTINUOUS
 10
-3464
 20
2309.6
  0
VERTEX
  8
11
 62
7
  6
CONTINUOUS
 10
-3430.616
 20
2312.168
  0
VERTEX
  8
11
 62
7
  6
CONTINUOUS
 10
-3329.6
 20
2311.00689655172
  0
VERTEX
  8
11
 62
7
  6
CONTINUOUS
 10
-3329.6
 20
2308.8
  0
VERTEX
  8
11
 62
7
  6
CONTINUOUS
 10
-3445.6
 20
2308.8
  0
VERTEX
  8
11
 62
7
  6
CONTINUOUS
 10
-3481.6
 20
2300
  0
VERTEX
  8
11
 62
7
  6
CONTINUOUS
 10
-3492
 20
2287.2
  0
VERTEX
  8
11
 62
7
  6
CONTINUOUS
 10
-3496.8
 20
2271.2
  0
VERTEX
  8
11
 62
7
  6
CONTINUOUS
 10
-3493.6
 20
2240.8
  0
VERTEX
  8
11
 62
7
  6
CONTINUOUS
 10
-3485.6
 20
2216.8
  0
VERTEX
  8
11
 62
7
  6
CONTINUOUS
 10
-3352
 20
2206.4
  0
VERTEX
  8
11
 62
7
  6
CONTINUOUS
 10
-3263.2
 20
2208.8
  0
VERTEX
  8
11
 62
7
  6
CONTINUOUS
 10
-3243.2
 20
2216.8
  0
VERTEX
  8
11
 62
7
  6
CONTINUOUS
 10
-3234.4
 20
2230.4
  0
VERTEX
  8
11
 62
7
  6
CONTINUOUS
 10
-3230.4
 20
2255.2
  0
VERTEX
  8
11
 62
7
  6
CONTINUOUS
 10
-3234.4
 20
2298.4
  0
VERTEX
  8
11
 62
7
  6
CONTINUOUS
 10
-3244
 20
2304
  0
VERTEX
  8
11
 62
7
  6
CONTINUOUS
 10
-3328.8
 20
2308.84571428571
  0
VERTEX
  8
11
 62
7
  6
CONTINUOUS
 10
-3328.8
 20
2310.92173913043
  0
VERTEX
  8
11
 62
7
  6
CONTINUOUS
 10
-3261.39487179487
 20
2309.45641025641
  0
VERTEX
  8
11
 62
7
  6
CONTINUOUS
 10
-3243.73333333333
 20
2306.93333333333
  0
VERTEX
  8
11
 62
7
  6
CONTINUOUS
 10
-3237.06666666667
 20
2304.26666666667
  0
VERTEX
  8
11
 62
7
  6
CONTINUOUS
 10
-3231.2
 20
2298.4
  0
VERTEX
  8
11
 62
7
  6
CONTINUOUS
 10
-3228
 20
2290.4
  0
VERTEX
  8
11
 62
7
  6
CONTINUOUS
 10
-3228
 20
2248
  0
VERTEX
  8
11
 62
7
  6
CONTINUOUS
 10
-3231.46666666667
 20
2230.66666666667
  0
VERTEX
  8
11
 62
7
  6
CONTINUOUS
 10
-3236.8
 20
2220
  0
VERTEX
  8
11
 62
7
  6
CONTINUOUS
 10
-3244.8
 20
2212
  0
VERTEX
  8
11
 62
7
  6
CONTINUOUS
 10
-3257.24444444444
 20
2207.02222222222
  0
VERTEX
  8
11
 62
7
  6
CONTINUOUS
 10
-3284
 20
2203.2
  0
VERTEX
  8
11
 62
7
  6
CONTINUOUS
 10
-3355.46666666667
 20
2203.2
  0
VERTEX
  8
11
 62
7
  6
CONTINUOUS
 10
-3481.35730337079
 20
2210.67865168539
  0
VERTEX
  8
11
 62
7
  6
CONTINUOUS
 10
-3490.4
 20
2215.2
  0
VERTEX
  8
11
 62
7
  6
CONTINUOUS
 10
-3496.8
 20
2240.8
  0
SEQEND
  0
POLYLINE
  8
1
 62
7
 66
1
 70
1
  0
VERTEX
  8
1
 62
7
  6
CONTINUOUS
 10
-3730.4
 20
2496
  0
VERTEX
  8
1
 62
7
  6
CONTINUOUS
 10
-3722.4
 20
1961.6
  0
VERTEX
  8
1
 62
7
  6
CONTINUOUS
 10
-3719.18232044199
 20
1951.14254143646
  0
VERTEX
  8
1
 62
7
  6
CONTINUOUS
 10
-3720.8
 20
1883.2
  0
VERTEX
  8
1
 62
7
  6
CONTINUOUS
 10
-3709.6
 20
1400
  0
VERTEX
  8
1
 62
7
  6
CONTINUOUS
 10
-3704
 20
1358.4
  0
VERTEX
  8
1
 62
7
  6
CONTINUOUS
 10
-3694.4
 20
1341.6
  0
VERTEX
  8
1
 62
7
  6
CONTINUOUS
 10
-3689.6
 20
1341.6
  0
VERTEX
  8
1
 62
7
  6
CONTINUOUS
 10
-3688.8
 20
1336
  0
VERTEX
  8
1
 62
7
  6
CONTINUOUS
 10
-3665.6
 20
1325.6
  0
VERTEX
  8
1
 62
7
  6
CONTINUOUS
 10
-3632
 20
1320.8
  0
VERTEX
  8
1
 62
7
  6
CONTINUOUS
 10
-3582.4
 20
1320.8
  0
VERTEX
  8
1
 62
7
  6
CONTINUOUS
 10
-3580.53333333333
 20
1324.53333333333
  0
VERTEX
  8
1
 62
7
  6
CONTINUOUS
 10
-3579.2
 20
1323.2
  0
VERTEX
  8
1
 62
7
  6
CONTINUOUS
 10
-3265.61450777202
 20
1328.78549222798
  0
VERTEX
  8
1
 62
7
  6
CONTINUOUS
 10
-3261.584
 20
1332.816
  0
VERTEX
  8
1
 62
7
  6
CONTINUOUS
 10
-3226.18723404255
 20
1332.09361702128
  0
VERTEX
  8
1
 62
7
  6
CONTINUOUS
 10
-3040
 20
1339.2
  0
VERTEX
  8
1
 62
7
  6
CONTINUOUS
 10
-2927.2
 20
1352
  0
VERTEX
  8
1
 62
7
  6
CONTINUOUS
 10
-2923.2
 20
1541.6
  0
VERTEX
  8
1
 62
7
  6
CONTINUOUS
 10
-2927.12727272727
 20
1705.23636363636
  0
VERTEX
  8
1
 62
7
  6
CONTINUOUS
 10
-2934.4
 20
1965.6
  0
VERTEX
  8
1
 62
7
  6
CONTINUOUS
 10
-2936
 20
2156.8
  0
VERTEX
  8
1
 62
7
  6
CONTINUOUS
 10
-2944.8
 20
2483.2
  0
VERTEX
  8
1
 62
7
  6
CONTINUOUS
 10
-2952.31079590229
 20
2577.62143420016
  0
VERTEX
  8
1
 62
7
  6
CONTINUOUS
 10
-3044.8
 20
2584
  0
VERTEX
  8
1
 62
7
  6
CONTINUOUS
 10
-3287.2
 20
2584
  0
VERTEX
  8
1
 62
7
  6
CONTINUOUS
 10
-3289.58873239437
 20
2586.38873239437
  0
VERTEX
  8
1
 62
7
  6
CONTINUOUS
 10
-3602.72307692308
 20
2581.91538461538
  0
VERTEX
  8
1
 62
7
  6
CONTINUOUS
 10
-3604
 20
2580
  0
VERTEX
  8
1
 62
7
  6
CONTINUOUS
 10
-3605.6
 20
2580
  0
VERTEX
  8
1
 62
7
  6
CONTINUOUS
 10
-3608
 20
2582.4
  0
VERTEX
  8
1
 62
7
  6
CONTINUOUS
 10
-3663.2
 20
2580
  0
VERTEX
  8
1
 62
7
  6
CONTINUOUS
 10
-3696
 20
2572.8
  0
VERTEX
  8
1
 62
7
  6
CONTINUOUS
 10
-3710.4
 20
2564
  0
VERTEX
  8
1
 62
7
  6
CONTINUOUS
 10
-3710.4
 20
2559.2
  0
VERTEX
  8
1
 62
7
  6
CONTINUOUS
 10
-3717.05263157895
 20
2555.87368421053
  0
VERTEX
  8
1
 62
7
  6
CONTINUOUS
 10
-3727.34065934066
 20
2531.18241758242
  0
SEQEND
  0
ENDSEC
  0
EOF
