  0
SECTION
  2
HEADER
  0
ENDSEC
  0
SECTION
  2
TABLES
  0
ENDSEC
  0
SECTION
  2
BLOCKS
  0
ENDSEC
  0
SECTION
  2
ENTITIES
  0
TEXT
  1
MARK_1
  8
72
 10
-3538.8
 20
1638
 11
-3538.8
 21
1638
 62
3
 40
8
 50
90
 72
0
 73
1
  0
TEXT
  1
MARK_2
  8
72
 10
-3542
 20
2638.8
 11
-3542
 21
2638.8
 62
3
 40
8
 50
90
 72
0
 73
1
  0
POLYLINE
  8
11
 62
7
 66
1
 70
1
  0
VERTEX
  8
11
 62
7
  6
CONTINUOUS
 10
-3217.08108108108
 20
1737.36216216216
  0
VERTEX
  8
11
 62
7
  6
CONTINUOUS
 10
-3190.92038834951
 20
1792.59029126214
  0
VERTEX
  8
11
 62
7
  6
CONTINUOUS
 10
-3178.4
 20
1808
  0
VERTEX
  8
11
 62
7
  6
CONTINUOUS
 10
-3176.8
 20
1808
  0
VERTEX
  8
11
 62
7
  6
CONTINUOUS
 10
-3162.71428571428
 20
1779.82857142857
  0
VERTEX
  8
11
 62
7
  6
CONTINUOUS
 10
-3144.8
 20
1717.6
  0
VERTEX
  8
11
 62
7
  6
CONTINUOUS
 10
-3144.8
 20
1714.63606557377
  0
VERTEX
  8
11
 62
7
  6
CONTINUOUS
 10
-3207.5914893617
 20
1730.07659574468
  0
VERTEX
  8
11
 62
7
  6
CONTINUOUS
 10
-3214.9
 20
1733
  0
SEQEND
  0
POLYLINE
  8
11
 62
7
 66
1
 70
1
  0
VERTEX
  8
11
 62
7
  6
CONTINUOUS
 10
-3281.6
 20
2241.2
  0
VERTEX
  8
11
 62
7
  6
CONTINUOUS
 10
-3281.6
 20
2256
  0
VERTEX
  8
11
 62
7
  6
CONTINUOUS
 10
-3271.84
 20
2275.52
  0
VERTEX
  8
11
 62
7
  6
CONTINUOUS
 10
-3259
 20
2290.5
  0
VERTEX
  8
11
 62
7
  6
CONTINUOUS
 10
-3247.46666666667
 20
2296.26666666667
  0
VERTEX
  8
11
 62
7
  6
CONTINUOUS
 10
-3238.13333333333
 20
2298.93333333333
  0
VERTEX
  8
11
 62
7
  6
CONTINUOUS
 10
-3226.61333333333
 20
2300.37333333333
  0
VERTEX
  8
11
 62
7
  6
CONTINUOUS
 10
-3212.21052631579
 20
2298.31578947368
  0
VERTEX
  8
11
 62
7
  6
CONTINUOUS
 10
-3195.56129032258
 20
2290.91612903226
  0
VERTEX
  8
11
 62
7
  6
CONTINUOUS
 10
-3182.4
 20
2279.4
  0
VERTEX
  8
11
 62
7
  6
CONTINUOUS
 10
-3174.56
 20
2269.6
  0
VERTEX
  8
11
 62
7
  6
CONTINUOUS
 10
-3167.2
 20
2251.2
  0
VERTEX
  8
11
 62
7
  6
CONTINUOUS
 10
-3167.2
 20
2232
  0
VERTEX
  8
11
 62
7
  6
CONTINUOUS
 10
-3169.6
 20
2222.4
  0
VERTEX
  8
11
 62
7
  6
CONTINUOUS
 10
-3178.4
 20
2204.8
  0
VERTEX
  8
11
 62
7
  6
CONTINUOUS
 10
-3190.4
 20
2192.8
  0
VERTEX
  8
11
 62
7
  6
CONTINUOUS
 10
-3205.44
 20
2185.28
  0
VERTEX
  8
11
 62
7
  6
CONTINUOUS
 10
-3214.4
 20
2184
  0
VERTEX
  8
11
 62
7
  6
CONTINUOUS
 10
-3230
 20
2184
  0
VERTEX
  8
11
 62
7
  6
CONTINUOUS
 10
-3242.13333333333
 20
2187.46666666667
  0
VERTEX
  8
11
 62
7
  6
CONTINUOUS
 10
-3254.4
 20
2193.6
  0
VERTEX
  8
11
 62
7
  6
CONTINUOUS
 10
-3268.53333333333
 20
2207.73333333333
  0
VERTEX
  8
11
 62
7
  6
CONTINUOUS
 10
-3275.2
 20
2219.4
  0
VERTEX
  8
11
 62
7
  6
CONTINUOUS
 10
-3279.2
 20
2230.4
  0
SEQEND
  0
POLYLINE
  8
1
 62
7
 66
1
 70
1
  0
VERTEX
  8
1
 62
7
  6
CONTINUOUS
 10
-3680
 20
2645.6
  0
VERTEX
  8
1
 62
7
  6
CONTINUOUS
 10
-3670.4
 20
2172.8
  0
VERTEX
  8
1
 62
7
  6
CONTINUOUS
 10
-3667.65714285714
 20
2170.05714285714
  0
VERTEX
  8
1
 62
7
  6
CONTINUOUS
 10
-3670.4
 20
2166.4
  0
VERTEX
  8
1
 62
7
  6
CONTINUOUS
 10
-3654.4
 20
1597.6
  0
VERTEX
  8
1
 62
7
  6
CONTINUOUS
 10
-3646.4
 20
1570.4
  0
VERTEX
  8
1
 62
7
  6
CONTINUOUS
 10
-3636.8
 20
1562.4
  0
VERTEX
  8
1
 62
7
  6
CONTINUOUS
 10
-3636.8
 20
1557.6
  0
VERTEX
  8
1
 62
7
  6
CONTINUOUS
 10
-3610.4
 20
1545.6
  0
VERTEX
  8
1
 62
7
  6
CONTINUOUS
 10
-3580.8
 20
1541.6
  0
VERTEX
  8
1
 62
7
  6
CONTINUOUS
 10
-3529.6
 20
1541.6
  0
VERTEX
  8
1
 62
7
  6
CONTINUOUS
 10
-3527.73333333333
 20
1545.33333333333
  0
VERTEX
  8
1
 62
7
  6
CONTINUOUS
 10
-3526.4
 20
1544
  0
VERTEX
  8
1
 62
7
  6
CONTINUOUS
 10
-3212.8374025974
 20
1551.1625974026
  0
VERTEX
  8
1
 62
7
  6
CONTINUOUS
 10
-3208.26666666667
 20
1555.73333333333
  0
VERTEX
  8
1
 62
7
  6
CONTINUOUS
 10
-3207.15151515152
 20
1553.50303030303
  0
VERTEX
  8
1
 62
7
  6
CONTINUOUS
 10
-3090.4
 20
1560.8
  0
VERTEX
  8
1
 62
7
  6
CONTINUOUS
 10
-2980.8
 20
1562.4
  0
VERTEX
  8
1
 62
7
  6
CONTINUOUS
 10
-2874.4
 20
1575.2
  0
VERTEX
  8
1
 62
7
  6
CONTINUOUS
 10
-2870.4
 20
1704.8
  0
VERTEX
  8
1
 62
7
  6
CONTINUOUS
 10
-2878.4487804878
 20
2089.8
  0
VERTEX
  8
1
 62
7
  6
CONTINUOUS
 10
-2883.23720930233
 20
2187.96279069767
  0
VERTEX
  8
1
 62
7
  6
CONTINUOUS
 10
-2882.4
 20
2188.8
  0
VERTEX
  8
1
 62
7
  6
CONTINUOUS
 10
-2890.34838709677
 20
2657.75483870968
  0
VERTEX
  8
1
 62
7
  6
CONTINUOUS
 10
-2901.66435643564
 20
2799.20445544554
  0
VERTEX
  8
1
 62
7
  6
CONTINUOUS
 10
-2997.46367157242
 20
2805.83671572425
  0
VERTEX
  8
1
 62
7
  6
CONTINUOUS
 10
-3235.9374301676
 20
2803.98808193669
  0
VERTEX
  8
1
 62
7
  6
CONTINUOUS
 10
-3252.8
 20
2807.2
  0
VERTEX
  8
1
 62
7
  6
CONTINUOUS
 10
-3371.2
 20
2804.8
  0
VERTEX
  8
1
 62
7
  6
CONTINUOUS
 10
-3475.2
 20
2804.8
  0
VERTEX
  8
1
 62
7
  6
CONTINUOUS
 10
-3553.6
 20
2799.2
  0
VERTEX
  8
1
 62
7
  6
CONTINUOUS
 10
-3615.2
 20
2798.4
  0
VERTEX
  8
1
 62
7
  6
CONTINUOUS
 10
-3640.8
 20
2793.6
  0
VERTEX
  8
1
 62
7
  6
CONTINUOUS
 10
-3660
 20
2784
  0
VERTEX
  8
1
 62
7
  6
CONTINUOUS
 10
-3660
 20
2779.2
  0
VERTEX
  8
1
 62
7
  6
CONTINUOUS
 10
-3672
 20
2766.4
  0
VERTEX
  8
1
 62
7
  6
CONTINUOUS
 10
-3677.6
 20
2746.4
  0
SEQEND
  0
ENDSEC
  0
EOF
